<svg width="20" height="21" viewBox="0 0 20 21" fill="none" xmlns="http://www.w3.org/2000/svg">
<path d="M3.33203 16.7503V4.25033C3.33203 3.69779 3.55152 3.16789 3.94223 2.77719C4.33293 2.38649 4.86283 2.16699 5.41536 2.16699H16.6654V18.8337H5.41536C4.86283 18.8337 4.33293 18.6142 3.94223 18.2235C3.55152 17.8328 3.33203 17.3029 3.33203 16.7503ZM3.33203 16.7503C3.33203 16.1978 3.55152 15.6679 3.94223 15.2772C4.33293 14.8865 4.86283 14.667 5.41536 14.667H16.6654" stroke="#6F6F6F" stroke-width="1.67" stroke-linecap="round" stroke-linejoin="round"/>
<path d="M9.9987 8.83333C10.9192 8.83333 11.6654 8.08714 11.6654 7.16667C11.6654 6.24619 10.9192 5.5 9.9987 5.5C9.07822 5.5 8.33203 6.24619 8.33203 7.16667C8.33203 8.08714 9.07822 8.83333 9.9987 8.83333Z" stroke="#6F6F6F" stroke-width="1.67" stroke-linecap="round" stroke-linejoin="round"/>
<path d="M12.5 11.333C12.5 10.67 12.2366 10.0341 11.7678 9.56524C11.2989 9.0964 10.663 8.83301 10 8.83301C9.33696 8.83301 8.70107 9.0964 8.23223 9.56524C7.76339 10.0341 7.5 10.67 7.5 11.333" stroke="#6F6F6F" stroke-width="1.67" stroke-linecap="round" stroke-linejoin="round"/>
</svg>
