<svg width="20" height="21" viewBox="0 0 20 21" fill="none" xmlns="http://www.w3.org/2000/svg">
<path d="M5 18.8337V3.83366C5 3.39163 5.17559 2.96771 5.48816 2.65515C5.80072 2.34259 6.22464 2.16699 6.66667 2.16699H13.3333C13.7754 2.16699 14.1993 2.34259 14.5118 2.65515C14.8244 2.96771 15 3.39163 15 3.83366V18.8337H5Z" stroke="#6F6F6F" stroke-width="1.67" stroke-linecap="round" stroke-linejoin="round"/>
<path d="M5.0013 10.5H3.33464C2.89261 10.5 2.46868 10.6756 2.15612 10.9882C1.84356 11.3007 1.66797 11.7246 1.66797 12.1667V17.1667C1.66797 17.6087 1.84356 18.0326 2.15612 18.3452C2.46868 18.6577 2.89261 18.8333 3.33464 18.8333H5.0013" stroke="#6F6F6F" stroke-width="1.67" stroke-linecap="round" stroke-linejoin="round"/>
<path d="M15 8H16.6667C17.1087 8 17.5326 8.1756 17.8452 8.48816C18.1577 8.80072 18.3333 9.22464 18.3333 9.66667V17.1667C18.3333 17.6087 18.1577 18.0326 17.8452 18.3452C17.5326 18.6577 17.1087 18.8333 16.6667 18.8333H15" stroke="#6F6F6F" stroke-width="1.67" stroke-linecap="round" stroke-linejoin="round"/>
<path d="M8.33203 5.5H11.6654" stroke="#6F6F6F" stroke-width="1.67" stroke-linecap="round" stroke-linejoin="round"/>
<path d="M8.33203 8.83301H11.6654" stroke="#6F6F6F" stroke-width="1.67" stroke-linecap="round" stroke-linejoin="round"/>
<path d="M8.33203 12.167H11.6654" stroke="#6F6F6F" stroke-width="1.67" stroke-linecap="round" stroke-linejoin="round"/>
<path d="M8.33203 15.5H11.6654" stroke="#6F6F6F" stroke-width="1.67" stroke-linecap="round" stroke-linejoin="round"/>
</svg>
