<svg width="20" height="21" viewBox="0 0 20 21" fill="none" xmlns="http://www.w3.org/2000/svg">
<path d="M1.66797 3H6.66797C7.55202 3 8.39987 3.35119 9.02499 3.97631C9.65011 4.60143 10.0013 5.44928 10.0013 6.33333V18C10.0013 17.337 9.73791 16.7011 9.26907 16.2322C8.80023 15.7634 8.16434 15.5 7.5013 15.5H1.66797V3Z" stroke="#6F6F6F" stroke-width="1.67" stroke-linecap="round" stroke-linejoin="round"/>
<path d="M18.3333 3H13.3333C12.4493 3 11.6014 3.35119 10.9763 3.97631C10.3512 4.60143 10 5.44928 10 6.33333V18C10 17.337 10.2634 16.7011 10.7322 16.2322C11.2011 15.7634 11.837 15.5 12.5 15.5H18.3333V3Z" stroke="#6F6F6F" stroke-width="1.67" stroke-linecap="round" stroke-linejoin="round"/>
</svg>
