<svg width="20" height="21" viewBox="0 0 20 21" fill="none" xmlns="http://www.w3.org/2000/svg">
<path d="M10.0013 18.8337C14.6037 18.8337 18.3346 15.1027 18.3346 10.5003C18.3346 5.89795 14.6037 2.16699 10.0013 2.16699C5.39893 2.16699 1.66797 5.89795 1.66797 10.5003C1.66797 15.1027 5.39893 18.8337 10.0013 18.8337Z" stroke="#6F6F6F" stroke-width="1.67" stroke-linecap="round" stroke-linejoin="round"/>
<path d="M13.3346 7.16699H8.33464C7.89261 7.16699 7.46869 7.34259 7.15612 7.65515C6.84356 7.96771 6.66797 8.39163 6.66797 8.83366C6.66797 9.27569 6.84356 9.69961 7.15612 10.0122C7.46869 10.3247 7.89261 10.5003 8.33464 10.5003H11.668C12.11 10.5003 12.5339 10.6759 12.8465 10.9885C13.159 11.301 13.3346 11.725 13.3346 12.167C13.3346 12.609 13.159 13.0329 12.8465 13.3455C12.5339 13.6581 12.11 13.8337 11.668 13.8337H6.66797" stroke="#6F6F6F" stroke-width="1.67" stroke-linecap="round" stroke-linejoin="round"/>
<path d="M10 15.5V5.5" stroke="#6F6F6F" stroke-width="1.67" stroke-linecap="round" stroke-linejoin="round"/>
</svg>
