<svg width="20" height="21" viewBox="0 0 20 21" fill="none" xmlns="http://www.w3.org/2000/svg">
<path d="M10.0013 18.8337C14.6037 18.8337 18.3346 15.1027 18.3346 10.5003C18.3346 5.89795 14.6037 2.16699 10.0013 2.16699C5.39893 2.16699 1.66797 5.89795 1.66797 10.5003C1.66797 15.1027 5.39893 18.8337 10.0013 18.8337Z" stroke="#6F6F6F" stroke-width="1.67" stroke-linecap="round" stroke-linejoin="round"/>
<path d="M7.57422 8.00047C7.77014 7.44353 8.15685 6.9739 8.66585 6.67475C9.17485 6.37561 9.7733 6.26626 10.3552 6.36607C10.9371 6.46588 11.4649 6.76841 11.8451 7.22008C12.2253 7.67175 12.4334 8.24341 12.4326 8.83381C12.4326 10.5005 9.93255 11.3338 9.93255 11.3338" stroke="#6F6F6F" stroke-width="1.67" stroke-linecap="round" stroke-linejoin="round"/>
<path d="M10 14.667H10.0083" stroke="#171717" stroke-width="1.67" stroke-linecap="round" stroke-linejoin="round"/>
</svg>
