<svg width="20" height="21" viewBox="0 0 20 21" fill="none" xmlns="http://www.w3.org/2000/svg">
<path d="M9.16797 3.83301H3.33464C2.89261 3.83301 2.46868 4.0086 2.15612 4.32116C1.84356 4.63372 1.66797 5.05765 1.66797 5.49967V17.1663C1.66797 17.6084 1.84356 18.0323 2.15612 18.3449C2.46868 18.6574 2.89261 18.833 3.33464 18.833H15.0013C15.4433 18.833 15.8673 18.6574 16.1798 18.3449C16.4924 18.0323 16.668 17.6084 16.668 17.1663V11.333" stroke="#6F6F6F" stroke-width="1.67" stroke-linecap="round" stroke-linejoin="round"/>
<path d="M15.418 2.5832C15.7495 2.25168 16.1991 2.06543 16.668 2.06543C17.1368 2.06543 17.5864 2.25168 17.918 2.5832C18.2495 2.91472 18.4357 3.36436 18.4357 3.8332C18.4357 4.30204 18.2495 4.75168 17.918 5.0832L10.0013 12.9999L6.66797 13.8332L7.5013 10.4999L15.418 2.5832Z" stroke="#6F6F6F" stroke-width="1.67" stroke-linecap="round" stroke-linejoin="round"/>
</svg>
