<svg width="20" height="21" viewBox="0 0 20 21" fill="none" xmlns="http://www.w3.org/2000/svg">
<path d="M6.58464 17.1664C8.17512 17.9823 10.0047 18.2033 11.7437 17.7895C13.4827 17.3758 15.0168 16.3546 16.0694 14.9099C17.1221 13.4652 17.6242 11.692 17.4851 9.90985C17.3461 8.12772 16.5751 6.45385 15.3111 5.18987C14.0472 3.92589 12.3733 3.15492 10.5912 3.01589C8.80904 2.87686 7.03586 3.37892 5.59115 4.43159C4.14644 5.48425 3.12521 7.01831 2.71149 8.75731C2.29776 10.4963 2.51875 12.3259 3.33464 13.9164L1.66797 18.833L6.58464 17.1664Z" stroke="#6F6F6F" stroke-width="1.67" stroke-linecap="round" stroke-linejoin="round"/>
<path d="M7.57422 8.00047C7.77014 7.44353 8.15685 6.9739 8.66585 6.67475C9.17485 6.37561 9.7733 6.26626 10.3552 6.36607C10.9371 6.46588 11.4649 6.76841 11.8451 7.22008C12.2253 7.67175 12.4334 8.24341 12.4326 8.83381C12.4326 10.5005 9.93255 11.3338 9.93255 11.3338" stroke="#6F6F6F" stroke-width="1.67" stroke-linecap="round" stroke-linejoin="round"/>
<path d="M10 14.667H10.0083" stroke="#6F6F6F" stroke-width="1.67" stroke-linecap="round" stroke-linejoin="round"/>
</svg>
