<svg width="20" height="21" viewBox="0 0 20 21" fill="none" xmlns="http://www.w3.org/2000/svg">
<path d="M15.8333 9.66699H4.16667C3.24619 9.66699 2.5 10.4132 2.5 11.3337V17.167C2.5 18.0875 3.24619 18.8337 4.16667 18.8337H15.8333C16.7538 18.8337 17.5 18.0875 17.5 17.167V11.3337C17.5 10.4132 16.7538 9.66699 15.8333 9.66699Z" stroke="#6F6F6F" stroke-width="1.67" stroke-linecap="round" stroke-linejoin="round"/>
<path d="M5.83203 9.66699V6.33366C5.83203 5.22859 6.27102 4.16878 7.05242 3.38738C7.83382 2.60598 8.89363 2.16699 9.9987 2.16699C11.1038 2.16699 12.1636 2.60598 12.945 3.38738C13.7264 4.16878 14.1654 5.22859 14.1654 6.33366V9.66699" stroke="#6F6F6F" stroke-width="1.67" stroke-linecap="round" stroke-linejoin="round"/>
</svg>
