<svg width="20" height="20" viewBox="0 0 20 20" fill="none" xmlns="http://www.w3.org/2000/svg">
<g clip-path="url(#clip0_44180_2957)">
<path d="M1.66797 15V17.5C1.66797 18 2.0013 18.3333 2.5013 18.3333H5.83464V15.8333H8.33464V13.3333H10.0013L11.168 12.1666C12.3262 12.5701 13.587 12.5685 14.7442 12.1623C15.9014 11.756 16.8865 10.969 17.5383 9.93007C18.1901 8.89115 18.47 7.66178 18.3322 6.44309C18.1945 5.22439 17.6472 4.08851 16.78 3.22128C15.9128 2.35404 14.7769 1.80679 13.5582 1.66905C12.3395 1.5313 11.1101 1.81122 10.0712 2.46301C9.03227 3.11479 8.2453 4.09986 7.83901 5.25707C7.43272 6.41428 7.43118 7.67511 7.83463 8.8333L1.66797 15Z" stroke="#6F6F6F" stroke-width="1.67" stroke-linecap="round" stroke-linejoin="round"/>
<path d="M13.7487 6.66634C13.9788 6.66634 14.1654 6.47979 14.1654 6.24967C14.1654 6.01956 13.9788 5.83301 13.7487 5.83301C13.5186 5.83301 13.332 6.01956 13.332 6.24967C13.332 6.47979 13.5186 6.66634 13.7487 6.66634Z" stroke="#6F6F6F" stroke-width="1.67" stroke-linecap="round" stroke-linejoin="round"/>
</g>
<defs>
<clipPath id="clip0_44180_2957">
<rect width="20" height="20" fill="white"/>
</clipPath>
</defs>
</svg>
