<?xml version="1.0" standalone="no"?>
<!DOCTYPE svg PUBLIC "-//W3C//DTD SVG 1.1//EN" "http://www.w3.org/Graphics/SVG/1.1/DTD/svg11.dtd" >
<svg xmlns="http://www.w3.org/2000/svg" xmlns:xlink="http://www.w3.org/1999/xlink" version="1.1">
<metadata></metadata>
<defs>
<font id="transatblack" horiz-adv-x="1071" >
<font-face units-per-em="2048" ascent="1485" descent="-563" />
<missing-glyph horiz-adv-x="512" />
<glyph unicode="&#xfb01;" horiz-adv-x="1220" d="M20 621v30l31 217h103v222q0 87 22.5 156t59 111.5t85 71t99 40t101.5 13.5t91.5 -4t71.5 -16l-39 -258q-62 14 -117.5 -27t-54.5 -130v-179h195v-247h-195v-621h-319v621h-134zM766 1231q0 83 60.5 143t140.5 60q83 0 142.5 -60t59.5 -143q0 -84 -59 -141.5t-143 -57.5 q-81 0 -141 58t-60 141zM809 0v868h319v-868h-319z" />
<glyph unicode="&#xfb02;" horiz-adv-x="1259" d="M20 621v30l31 217h103v222q0 87 22.5 156t59 111.5t85 71t99 40t101.5 13.5t91.5 -4t71.5 -16l-39 -258q-62 14 -117.5 -27t-54.5 -130v-179h195v-247h-195v-621h-319v621h-134zM827 0v1438l291 24h29v-1462h-320z" />
<glyph unicode="&#xfb03;" horiz-adv-x="1863" d="M20 621v30l31 217h103v160q0 87 22.5 156t59 111.5t85 71t99 40t101.5 14t91.5 -3.5t71.5 -16l-39 -258q-62 14 -117.5 -27.5t-54.5 -130.5v-117h324v222q0 87 22.5 156t59 111.5t85 71t99 40t101.5 13.5t91.5 -4t71.5 -16l-39 -258q-62 14 -117.5 -27t-54.5 -130v-179 h195v-247h-195v-621h-319v621h-324v-621h-319v621h-134zM1409 1231q0 83 60.5 143t140.5 60q83 0 142.5 -60t59.5 -143q0 -84 -59 -141.5t-143 -57.5q-81 0 -141 58t-60 141zM1452 0v868h320v-868h-320z" />
<glyph unicode="&#xfb04;" horiz-adv-x="1902" d="M20 621v30l31 217h103v160q0 87 22.5 156t59 111.5t85 71t99 40t101.5 14t91.5 -3.5t71.5 -16l-39 -258q-62 14 -117.5 -27.5t-54.5 -130.5v-117h324v222q0 87 22.5 156t59 111.5t85 71t99 40t101.5 13.5t91.5 -4t71.5 -16l-39 -258q-62 14 -117.5 -27t-54.5 -130v-179 h195v-247h-195v-621h-319v621h-324v-621h-319v621h-134zM1470 0v1438l291 24h29v-1462h-320z" />
<glyph horiz-adv-x="0" />
<glyph horiz-adv-x="682" />
<glyph unicode=" "  horiz-adv-x="512" />
<glyph unicode="&#x09;" horiz-adv-x="512" />
<glyph unicode="&#xa0;" horiz-adv-x="512" />
<glyph unicode="!" horiz-adv-x="700" d="M113 1333h475l-148 -846h-178zM156 174q0 78 58 136.5t136 58.5q81 0 139 -58t58 -137q0 -84 -57 -139t-140 -55q-80 0 -137 55.5t-57 138.5z" />
<glyph unicode="&#x22;" horiz-adv-x="1009" d="M72 1438h393l-137 -754h-121zM545 1438h393l-137 -754h-121z" />
<glyph unicode="#" horiz-adv-x="1359" d="M61 264v283h228l57 260h-180v283h242l53 243h268l-51 -243h186l54 243h268l-51 -243h163v-283h-221l-55 -260h172v-283h-229l-56 -264h-284l57 264h-174l-55 -264h-285l57 264h-164zM565 547h180l58 260h-182z" />
<glyph unicode="$" horiz-adv-x="1046" d="M82 88l108 254q135 -76 271 -76q74 0 118 28t44 81q0 22 -7 40.5t-15.5 30.5t-31.5 28.5t-39 26t-55.5 31.5t-64.5 37q-10 6 -42.5 24.5t-45.5 26.5t-42 27t-42 30.5t-37 33.5t-35 40t-27 44.5t-23 53.5t-12.5 61t-5.5 71q0 72 32 145t101.5 134.5t161.5 80.5v271h258 v-269q68 -9 140 -29.5t106 -41.5l-78 -260q-100 53 -233 53q-67 0 -107.5 -31.5t-40.5 -75.5q0 -13 1.5 -21.5t8.5 -17.5t13 -15t22.5 -16t29.5 -17t42.5 -23t52.5 -29q115 -64 187 -119t109 -110t49 -105t10 -118q-3 -138 -86 -240.5t-215 -144.5v-258h-259v247 q-106 13 -189.5 45t-131.5 72z" />
<glyph unicode="%" horiz-adv-x="1511" d="M41 1038q0 136 100.5 230t235.5 94q134 0 232 -94t98 -230t-99 -230.5t-233 -94.5t-234 94.5t-100 230.5zM121 127l1057 1233l194 -164l-1057 -1225zM301 1038q0 -116 78 -116q74 0 74 116q0 117 -76 117t-76 -117zM805 305q0 136 100.5 230t235.5 94q134 0 231.5 -94 t97.5 -230t-98.5 -230.5t-232.5 -94.5t-234 94.5t-100 230.5zM1065 305q0 -56 20 -86.5t58 -30.5q74 0 74 117t-76 117t-76 -117z" />
<glyph unicode="&#x26;" horiz-adv-x="1374" d="M71 287q-18 85 0.5 161.5t61.5 143.5t105 117l79 67l-10 21q-18 36 -26.5 56t-17.5 64t-9 99q0 149 116.5 246.5t278.5 97.5q157 0 271 -91.5t143 -242.5l-264 -88q-37 129 -133 129q-91 0 -105 -88q-4 -26 8.5 -55t26 -46.5t53.5 -66.5l223 -274l230 204l192 -213 l-239 -215l248 -311l-385 -2l-89 117l-84 -64q-54 -36 -131.5 -56t-162 -19t-167.5 38t-137 109q-58 77 -76 162zM365.5 385q-2.5 -54 33.5 -90q29 -35 81 -32.5t110 46.5l51 37l-158 193l-65 -56q-50 -44 -52.5 -98z" />
<glyph unicode="'" horiz-adv-x="536" d="M72 1438h393l-137 -754h-121z" />
<glyph unicode="(" horiz-adv-x="923" d="M123 612q0 280 151.5 525t425.5 391l172 -215q-389 -276 -389 -701q0 -124 33 -240t90 -207.5t123.5 -163.5t142.5 -126l-172 -213q-274 155 -425.5 411t-151.5 539z" />
<glyph unicode=")" horiz-adv-x="923" d="M51 -125q76 54 142.5 126t123.5 163.5t90 207.5t33 240q0 425 -389 701l172 215q274 -146 426 -391t152 -525q0 -283 -152 -539t-426 -411z" />
<glyph unicode="*" horiz-adv-x="923" d="M82 1157l113 193l190 -144l-33 232h219l-30 -232l190 144l109 -191l-222 -92l224 -90l-113 -191l-188 144l30 -232h-219l31 232l-188 -144l-111 189l215 94z" />
<glyph unicode="+" horiz-adv-x="1026" d="M61 565v281h314v313h278v-313h312v-281h-312v-313h-278v313h-314z" />
<glyph unicode="," horiz-adv-x="614" d="M82 -334l72 690h348v-41l-316 -675z" />
<glyph unicode="-" horiz-adv-x="747" d="M61 260v291l625 100v-291z" />
<glyph unicode="." horiz-adv-x="616" d="M113 174q0 78 58 136.5t136 58.5q81 0 139 -58t58 -137q0 -84 -57 -139t-140 -55q-80 0 -137 55.5t-57 138.5z" />
<glyph unicode="/" horiz-adv-x="1060" d="M-57 -268l835 1820l242 -114l-834 -1821z" />
<glyph unicode="0" horiz-adv-x="1316" d="M51 670q0 201 78 359t217 245.5t313 87.5t312.5 -87.5t216.5 -245.5t78 -359q0 -200 -78 -360t-216.5 -249.5t-312.5 -89.5t-313 89.5t-217 249.5t-78 360zM408 670q0 -206 71 -311t180 -105q108 0 178 105t70 311q0 207 -69.5 308t-178.5 101q-110 0 -180.5 -101.5 t-70.5 -307.5z" />
<glyph unicode="1" horiz-adv-x="819" d="M31 1069l563 279h51v-1348h-330v846l-151 -68z" />
<glyph unicode="2" horiz-adv-x="1126" d="M0 49q69 68 164.5 161t150 146.5t123 122.5t105.5 113.5t73 94t51 89t15 74.5q0 108 -66 162.5t-153 54.5q-67 0 -131 -32t-92 -72h-39l-154 200q58 81 186.5 139t286.5 58q70 0 139.5 -18t134.5 -57.5t115 -95.5t80.5 -137.5t30.5 -177.5q1 -65 -13.5 -124.5t-38 -109 t-71 -112t-92 -111.5t-121.5 -130h371v-287h-1035z" />
<glyph unicode="3" horiz-adv-x="1110" d="M51 59l86 254l39 2l18 -9q17 -8 23.5 -10.5t26 -11t31.5 -12t33.5 -9.5t39 -9t40 -5.5t44.5 -2.5q72 0 133 18.5t103.5 62.5t42.5 107q0 106 -119 159.5t-307 10.5l-37 55l280 390h-417v284h907l20 -39l-340 -481q52 -4 109 -31t109.5 -73t87 -121t34.5 -162 q0 -144 -72.5 -248.5t-194.5 -155.5t-279 -51q-160 0 -248 20t-193 68z" />
<glyph unicode="4" horiz-adv-x="1292" d="M0 240l928 1108l121 -27v-891h161v-268h-161v-162h-338v162h-643zM520 430h191l-2 238z" />
<glyph unicode="5" horiz-adv-x="1120" d="M51 61l86 254h39q106 -67 273 -67q68 0 126.5 21t98 68t39.5 112q0 50 -22 87t-59.5 57.5t-81 30t-93.5 9.5q-45 0 -85 -7.5t-76 -24t-53.5 -26t-47.5 -28.5l-78 20l73 766h787v-284h-504l-16 -193q39 6 91.5 8.5t123.5 -5t119 -28.5q254 -110 256 -387q1 -91 -34 -174.5 t-101.5 -151t-176 -107.5t-246.5 -40q-277 0 -438 90z" />
<glyph unicode="6" horiz-adv-x="1144" d="M51 504q0 136 32.5 254t87 203.5t127.5 154.5t151.5 113t163 74t157.5 43t139 14l68 -254l-27 -35q-187 -6 -327 -91.5t-181 -209.5q80 80 252 80q163 0 281.5 -121t118.5 -293q0 -95 -35.5 -179.5t-100 -148t-161 -100.5t-211.5 -37q-155 0 -275 62t-189.5 184 t-70.5 287zM393 420q0 -74 56.5 -124t130.5 -50q76 0 129 49.5t53 124.5q0 77 -56.5 129.5t-130.5 52.5q-76 0 -129 -52.5t-53 -129.5z" />
<glyph unicode="7" d="M51 1049v284h985l25 -41l-545 -1292h-381l467 1049h-551z" />
<glyph unicode="8" horiz-adv-x="1155" d="M41 406q0 110 66 200t145 119q-29 29 -41.5 43.5t-36.5 49t-34.5 75t-10.5 90.5q0 158 123.5 267.5t327.5 109.5q201 0 323.5 -109.5t122.5 -267.5q0 -50 -10.5 -90t-35 -75t-35.5 -47.5t-42 -43.5q78 -27 144.5 -118.5t66.5 -202.5q0 -188 -147 -311.5t-392 -123.5 q-241 0 -387.5 124t-146.5 311zM381 416q0 -80 60.5 -122t138.5 -42q79 0 136.5 42t57.5 122q0 81 -60 122.5t-139 41.5q-80 0 -137 -41t-57 -123zM428 948q0 -68 46 -103.5t106 -35.5q59 0 103 35.5t44 103.5q0 69 -47 102t-105 33q-60 0 -103.5 -33t-43.5 -102z" />
<glyph unicode="9" horiz-adv-x="1144" d="M51 895q0 95 35.5 179.5t100 148t161 100.5t211.5 37q155 0 275 -62t189.5 -184t70.5 -287q0 -136 -32.5 -254t-87 -203.5t-127.5 -154.5t-151.5 -113t-163 -74t-157.5 -43t-139 -14l-68 254l27 35q187 6 326.5 91.5t180.5 209.5q-80 -80 -251 -80q-163 0 -281.5 121 t-118.5 293zM383 911q0 -77 56 -129.5t130 -52.5q76 0 129.5 52.5t53.5 129.5q0 74 -56.5 124t-130.5 50q-76 0 -129 -49.5t-53 -124.5z" />
<glyph unicode=":" horiz-adv-x="616" d="M113 174q0 78 58 136.5t136 58.5q81 0 139 -58t58 -137q0 -84 -57 -139t-140 -55q-80 0 -137 55.5t-57 138.5zM113 702q0 78 58 136.5t136 58.5q81 0 139 -58t58 -137q0 -84 -57 -139t-140 -55q-80 0 -137 55.5t-57 138.5z" />
<glyph unicode=";" horiz-adv-x="626" d="M82 -334l72 690h348v-41l-316 -675zM123 702q0 78 58 136.5t136 58.5q81 0 139 -58t58 -137q0 -84 -57 -139t-140 -55q-80 0 -137 55.5t-57 138.5z" />
<glyph unicode="&#x3c;" horiz-adv-x="1101" d="M51 666v57l959 489v-333l-357 -183l357 -184v-334z" />
<glyph unicode="=" horiz-adv-x="1021" d="M61 365v278h900v-278h-900zM61 766v281h900v-281h-900z" />
<glyph unicode="&#x3e;" horiz-adv-x="1101" d="M92 178v334l357 184l-357 183v333l959 -489v-57z" />
<glyph unicode="?" horiz-adv-x="892" d="M39 1249q37 41 137.5 76t224.5 35q188 0 311.5 -94.5t123.5 -249.5q0 -76 -23 -136.5t-57 -96t-74 -70.5t-74 -62.5t-57 -70t-23 -93.5h-266q-16 83 -1.5 139t49.5 103.5t71 79t64 67t28 66.5q0 50 -39.5 77.5t-101.5 27.5q-67 0 -154 -56zM207 174q0 78 58 136.5 t136 58.5q81 0 139 -58t58 -137q0 -84 -57 -139t-140 -55q-80 0 -137 55.5t-57 138.5z" />
<glyph unicode="@" horiz-adv-x="1736" d="M41 633q0 167 62 319.5t170 265.5t262.5 180.5t330.5 67.5q168 0 322.5 -62.5t265 -165.5t176.5 -241t66 -284q0 -226 -110.5 -362t-289.5 -136q-80 0 -155.5 37.5t-87.5 83.5q-94 -118 -265 -121q-160 -3 -265 118t-87 312q7 74 35.5 142t76.5 124t121 90.5t160 36.5 q81 1 147.5 -36t90.5 -91l88 95h150l-86 -433q-14 -74 14 -115.5t100 -41.5q87 0 138 77.5t51 219.5q0 105 -51 212t-137 192t-210 138.5t-258 53.5q-181 0 -329.5 -94.5t-230 -249t-81.5 -332.5q0 -133 48 -254.5t132.5 -212t208.5 -144t267 -53.5q255 0 469 113l61 -131 q-109 -66 -247 -102.5t-283 -36.5q-183 0 -341.5 65.5t-267 176.5t-170 261.5t-61.5 317.5zM700 637q-11 -80 22.5 -131t98.5 -51q60 0 100.5 51.5t49.5 130.5q8 72 -21.5 122.5t-87.5 49.5q-139 -3 -162 -172z" />
<glyph unicode="A" horiz-adv-x="1435" d="M-10 0l676 1450h110l670 -1450h-375l-82 174h-538l-82 -174h-379zM569 453h299l-149 338z" />
<glyph unicode="B" horiz-adv-x="1222" d="M143 4v1417q85 16 168 25.5t177 9.5q4 0 9 1q89 -1 167 -11q82 -10 158 -39t130 -74t86.5 -117t32.5 -165q0 -89 -40.5 -161.5t-80.5 -103.5q34 -14 69 -41t71 -69t58.5 -106t22.5 -138q0 -80 -22 -146.5t-71 -124.5t-128 -96.5t-193 -62.5q-105 -22 -243 -22h-24 q-152 2 -347 24zM483 295q45 -8 88 -7q20 0 39 1q61 5 108 22.5t75 56t28 93.5q0 32 -9.5 59t-20 42.5t-31.5 32t-27.5 20.5t-25.5 14h-224v-334zM483 889h191q19 19 29 30.5t22 38.5t12 56q0 58 -26.5 94t-68.5 47q-40 11 -78 11h-4q-40 0 -77 -11v-266z" />
<glyph unicode="C" horiz-adv-x="1435" d="M51 725q0 133 42 251.5t115.5 206.5t171 152.5t211 97.5t232.5 33q101 0 195.5 -22.5t164.5 -59t118 -70.5t83 -69l-206 -244q-154 162 -349 162q-179 0 -297 -127.5t-118 -310.5q0 -87 29 -167t82 -141.5t135 -98.5t182 -37q108 0 196 43.5t146 101.5l200 -225 q-33 -36 -66 -65t-85 -61t-110 -54t-139 -36t-173 -14q-157 0 -297 56.5t-242 155.5t-161.5 240t-59.5 302z" />
<glyph unicode="D" horiz-adv-x="1445" d="M143 0v1427q158 25 298 29q26 1 51 1q110 -1 199 -13q110 -16 203.5 -47.5t162.5 -75.5t124 -100t90.5 -116t59 -126.5t33.5 -129.5t10 -128q0 -63 -10 -125t-33 -127.5t-60 -124t-90 -115.5t-124 -100t-162.5 -78.5t-204 -52t-248.5 -18.5q-13 0 -28 -1q-125 0 -271 21z M483 305q26 -2 52 -1q41 0 83 4q68 8 141 35.5t129 73t92 125t36 183.5q0 146 -70 246.5t-190 142.5q-87 31 -191 31q-40 0 -82 -4v-836z" />
<glyph unicode="E" horiz-adv-x="1128" d="M143 0v1438h867v-287h-529v-221h426v-287h-426v-356h545v-287h-883z" />
<glyph unicode="F" horiz-adv-x="1081" d="M143 0v1438h846v-287h-508v-221h406v-287h-406v-643h-338z" />
<glyph unicode="G" horiz-adv-x="1546" d="M51 727q0 162 63.5 302t169 234.5t243 148.5t286.5 54q336 0 571 -221l-210 -239q-27 28 -49 47t-66.5 48.5t-103 45.5t-126.5 16q-174 0 -294.5 -125t-120.5 -303q0 -211 121 -335t323 -124q71 0 154.5 27.5t124.5 61.5v114h-217v285h542l2 -524q-134 -146 -287 -207.5 t-335 -61.5q-176 0 -325 58t-250.5 159t-158.5 240.5t-57 298.5z" />
<glyph unicode="H" horiz-adv-x="1392" d="M143 0v1438h338v-508h430v508h338v-1438h-338v643h-430v-643h-338z" />
<glyph unicode="I" horiz-adv-x="624" d="M143 0v1438h338v-1438h-338z" />
<glyph unicode="J" horiz-adv-x="911" d="M82 0v281q35 -3 66 -3q124 0 190 48q82 60 82 209v903h338v-914q0 -304 -178 -438q-132 -98 -341 -98q-74 0 -157 12z" />
<glyph unicode="K" horiz-adv-x="1363" d="M143 0v1438h340v-570l443 570h389l-504 -660l553 -778h-426l-455 668v-668h-340z" />
<glyph unicode="L" horiz-adv-x="1062" d="M143 0v1438h338v-1151h531v-287h-869z" />
<glyph unicode="M" horiz-adv-x="1605" d="M143 0v1440l50 10l612 -514l608 514l49 -10v-1440h-334v772l-313 -268h-22l-314 268v-772h-336z" />
<glyph unicode="N" horiz-adv-x="1429" d="M143 0v1440l45 10l766 -510v498h332v-1438h-332v541l-481 301v-842h-330z" />
<glyph unicode="O" horiz-adv-x="1644" d="M51 719q0 152 56.5 288.5t156 238t244.5 161t313 59.5t313 -59.5t245 -161t157 -238t57 -288.5q0 -151 -57 -288t-157 -238.5t-245.5 -161.5t-312.5 -60q-168 0 -313 60t-244.5 161.5t-156 238.5t-56.5 288zM414 719q0 -134 59 -236t150 -152t198 -50q78 0 151.5 30 t131 84t92.5 138.5t35 185.5t-35 186.5t-92.5 141t-131 86t-151.5 30.5q-79 0 -152 -30.5t-130 -86t-91 -141t-34 -186.5z" />
<glyph unicode="P" horiz-adv-x="1189" d="M143 0v1423q173 34 318 34q121 0 221 -23q224 -51 345.5 -187t121.5 -327q0 -165 -90.5 -292.5t-241.5 -194.5t-336 -68v-365h-338zM481 664q13 -1 26 -1q68 0 122 18q64 21 100 58.5t54 83.5t18 97q0 45 -18.5 87t-55 77.5t-100.5 51.5q-40 10 -87 11q-28 0 -59 -4v-479 z" />
<glyph unicode="Q" horiz-adv-x="1644" d="M51 719q0 152 56.5 288.5t156 238t244.5 161t313 59.5t313 -59.5t245 -161t157 -238t57 -288.5q0 -137 -46 -262t-132 -224l137 -139l-217 -213l-161 168q-162 -78 -353 -78q-168 0 -313 60t-244.5 161.5t-156 238.5t-56.5 288zM414 719q0 -134 59 -236t150 -152t198 -50 q66 0 115 16l-148 156l213 209l170 -177q60 102 60 234q0 101 -35 186.5t-92.5 141t-131 86t-151.5 30.5q-79 0 -152 -30.5t-130 -86t-91 -141t-34 -186.5z" />
<glyph unicode="R" horiz-adv-x="1294" d="M143 0v1423q189 35 342 36q119 1 215 -21q224 -48 336.5 -176t112.5 -320q0 -121 -60 -236t-151 -180l377 -526h-412l-268 412q-55 -6 -103 -6q-27 0 -51 2v-408h-338zM481 709q33 -5 63 -5q41 0 77 9q63 15 101 49t58.5 79t20.5 95q1 103 -85 166q-61 45 -153 45 q-38 0 -82 -8v-430z" />
<glyph unicode="S" horiz-adv-x="1107" d="M61 94l99 291q184 -113 342 -113q203 0 203 113q0 28 -14 51.5t-45 45.5t-58.5 38t-77.5 42t-80 44q-177 103 -259.5 208t-82.5 257q0 69 31 137.5t89 126.5t153.5 94.5t211.5 36.5q125 0 234.5 -25.5t171.5 -58.5l-88 -292q-152 69 -287 69q-81 0 -128.5 -31.5 t-47.5 -76.5q0 -12 2.5 -22.5t6 -19t12.5 -18.5t15 -16.5t20.5 -16.5t23.5 -15.5t29 -16.5t31.5 -17t37 -19t39.5 -20q104 -53 178 -105.5t117.5 -98t67.5 -96.5t30 -94q6 -37 6 -84v-15q-3 -128 -70 -221q-66 -94 -180 -140q-112 -46 -258 -45h-6q-146 1 -277.5 39 t-191.5 84z" />
<glyph unicode="T" horiz-adv-x="1138" d="M51 1151v287h1036v-287h-350v-1151h-338v1151h-348z" />
<glyph unicode="U" horiz-adv-x="1386" d="M113 512v926h338v-912q0 -112 71.5 -183t169.5 -71t171 71.5t73 182.5v912h338v-926q0 -111 -38.5 -208.5t-110 -172t-184 -117.5t-251.5 -43q-111 0 -205 28t-162 78t-115.5 118t-71 148.5t-23.5 168.5z" />
<glyph unicode="V" horiz-adv-x="1386" d="M-20 1438h385l331 -750l346 750h365l-662 -1450h-110z" />
<glyph unicode="W" horiz-adv-x="1978" d="M-20 1438h370l291 -695l293 707h100l305 -719l312 707h348l-608 -1450h-117l-297 753l-291 -753h-117z" />
<glyph unicode="X" horiz-adv-x="1310" d="M10 0l447 725l-447 713h391l246 -404l248 404h375l-434 -707l464 -731h-391l-266 428l-256 -428h-377z" />
<glyph unicode="Y" horiz-adv-x="1331" d="M-10 1438h397l285 -461l284 461h385l-505 -824v-614h-340v614z" />
<glyph unicode="Z" horiz-adv-x="1153" d="M20 47l592 1106h-516v285h1014l23 -45l-586 -1106h547v-287h-1049z" />
<glyph unicode="[" horiz-adv-x="856" d="M164 -268v1706h631v-271l-291 -2v-1163h291v-270h-631z" />
<glyph unicode="\" horiz-adv-x="1060" d="M41 1438l242 114l835 -1820l-241 -117z" />
<glyph unicode="]" horiz-adv-x="856" d="M61 2h291v1163l-291 2v271h631v-1706h-631v270z" />
<glyph unicode="^" horiz-adv-x="968" d="M41 961l430 477h27l430 -477l-191 -173l-254 285l-256 -285z" />
<glyph unicode="_" horiz-adv-x="1406" d="M0 -188h1407v-238h-1407v238z" />
<glyph unicode="`" horiz-adv-x="632" d="M61 1245v41h375l135 -303h-258z" />
<glyph unicode="a" horiz-adv-x="1007" d="M41 258q0 133 93 214t226 81q89 0 156.5 -28.5t104.5 -63.5v22q0 71 -58 112.5t-127 41.5q-51 0 -93 -6t-61 -11.5t-55 -17.5l-71 242q56 20 144 36q83 15 163 15h10q209 -3 331 -125q121 -120 120 -313v-6l-2 -451h-179l-112 76q-30 -41 -98.5 -73t-165.5 -32 q-82 0 -155.5 33t-122 100t-48.5 154zM356 270q0 -30 30.5 -50.5t68.5 -20.5q53 0 99 21t67 52v15q-23 26 -69 44q-44 17 -94 17h-5q-43 0 -70 -22.5t-27 -55.5z" />
<glyph unicode="b" horiz-adv-x="1118" d="M92 0v1438l289 24h31v-663q31 43 100 70.5t143 27.5q175 0 298.5 -130.5t123.5 -330.5q0 -202 -119.5 -333.5t-295.5 -131.5q-81 0 -156.5 33.5t-114.5 83.5l-123 -88h-176zM416 436q0 -99 53 -155t117 -56q66 0 116 55.5t50 155.5q0 101 -52 154t-118 53 q-67 0 -116.5 -53t-49.5 -154z" />
<glyph unicode="c" horiz-adv-x="925" d="M41 434q0 129 64.5 236t174.5 167t242 60q104 0 201 -42.5t162 -111.5l-154 -198q-85 96 -170 96q-80 0 -139.5 -53.5t-59.5 -153.5q0 -99 61.5 -153t135.5 -54q45 0 92.5 21.5t81.5 54.5l144 -184q-68 -76 -161.5 -112t-193.5 -36q-97 0 -187 38.5t-154 101.5t-102 148 t-38 175z" />
<glyph unicode="d" horiz-adv-x="1116" d="M41 436q0 200 123.5 330.5t298.5 130.5q74 0 142.5 -27.5t99.5 -70.5v639l290 24h29v-1462h-176l-123 88q-39 -51 -113.5 -84t-154.5 -33q-177 0 -296.5 131.5t-119.5 333.5zM367 436q0 -101 49.5 -156t115.5 -55q64 0 116 55.5t52 155.5q0 102 -48 154.5t-115 52.5 q-66 0 -118 -53t-52 -154z" />
<glyph unicode="e" horiz-adv-x="997" d="M41 434q0 134 63.5 240.5t169.5 164.5t232 58q90 0 174 -37t149 -103q65 -65 100 -169q27 -80 27 -173q0 -26 -2 -53h-598q12 -63 80 -104t156 -41q66 0 133 20.5t109 47.5l112 -195q-63 -54 -174 -86.5t-223 -32.5q-213 0 -360.5 136t-147.5 327zM367 545h266 q-3 44 -40.5 76t-88.5 32q-52 0 -90.5 -33t-46.5 -75z" />
<glyph unicode="f" horiz-adv-x="714" d="M20 621v30l31 217h103v222q0 87 22.5 156t59 111.5t85 71t99 40t101.5 13.5h25q36 0 66 -4q41 -6 72 -16l-39 -258q-16 4 -31 4q-45 0 -86 -31q-56 -41 -55 -130v-179h195v-247h-195v-621h-319v621h-134z" />
<glyph unicode="g" horiz-adv-x="1038" d="M-10 -219q0 94 61 159.5t135 71.5q-38 7 -70 42q-32 33 -32 84q0 57 44 92q37 29 90 29q10 0 20 -1q-86 52 -126 130t-40 157q0 46 13.5 93t45 94t77.5 83.5t118 59t159 22.5q94 0 184.5 -34.5t139.5 -78.5l170 84h49v-266h-129v-31q0 -73 -25 -137t-75 -116t-134 -83.5 t-194 -35.5q-63 0 -63 -35q0 -12 7.5 -20.5t24 -13t28.5 -6t36 -3.5q147 -11 248.5 -39.5t160.5 -74t84 -102.5t25 -134q0 -137 -141.5 -224.5t-382.5 -87.5q-236 0 -372 90t-136 232zM301 -213q0 -40 56 -60t149 -20q194 0 194 80q0 38 -88 63t-161 25q-57 0 -103.5 -24.5 t-46.5 -63.5zM365 543q0 -51 36 -84t84 -33q49 0 85 33t36 84q0 52 -36 84t-85 32q-51 0 -85.5 -31.5t-34.5 -84.5z" />
<glyph unicode="h" d="M92 0v1438l291 24h29v-653q47 42 100 65t133 23q147 0 245.5 -95.5t98.5 -252.5v-549h-321v500q0 55 -32 97t-97 42q-55 0 -89.5 -36.5t-37.5 -88.5v-514h-320z" />
<glyph unicode="i" horiz-adv-x="505" d="M51 1231q0 83 60.5 143t140.5 60q83 0 143 -60t60 -143q0 -84 -59.5 -141.5t-143.5 -57.5q-81 0 -141 58t-60 141zM94 0v868h320v-868h-320z" />
<glyph unicode="j" horiz-adv-x="509" d="M-113 -500l39 256q15 -3 30 -3q46 0 88 31q55 43 54 132v952h320v-995q0 -87 -22.5 -156t-59.5 -111.5t-85.5 -71t-98.5 -40t-102 -14.5h-29q-34 0 -63 4q-40 6 -71 16zM53 1231q0 83 60.5 143t142.5 60q83 0 143 -60t60 -143q0 -85 -59.5 -143t-143.5 -58q-83 0 -143 58 t-60 143z" />
<glyph unicode="k" horiz-adv-x="1073" d="M92 0v1438l291 24h29v-897l264 303h373l-344 -395l368 -473h-399l-262 356v-356h-320z" />
<glyph unicode="l" horiz-adv-x="503" d="M92 0v1438l291 24h29v-1462h-320z" />
<glyph unicode="m" horiz-adv-x="1523" d="M92 0v868h176l123 -71q29 42 83.5 71t119.5 29q95 0 160 -34.5t108 -106.5q51 72 121 106.5t145 34.5q153 0 233.5 -93t80.5 -245v-559h-322v510q0 56 -24.5 87.5t-71.5 31.5q-42 0 -65.5 -31t-30.5 -80v-518h-322v504q0 55 -23.5 90t-70.5 35q-49 0 -74.5 -39t-25.5 -96 v-494h-320z" />
<glyph unicode="n" d="M92 0v868h176l123 -71q100 100 264 100q145 0 239.5 -95t94.5 -253v-549h-321v500q0 55 -32 97t-97 42q-58 0 -92.5 -40t-34.5 -95v-504h-320z" />
<glyph unicode="o" d="M41 436q0 100 40 186.5t107.5 146.5t158 94t190.5 34q133 0 245 -57.5t180 -164.5t68 -239q0 -133 -68 -240t-182 -166t-248 -59q-98 0 -188 35t-157 95.5t-106.5 147.5t-39.5 187zM365 436q0 -101 50 -156t117 -55q68 0 120.5 55.5t52.5 155.5t-52.5 154.5t-120.5 54.5 t-117.5 -54t-49.5 -155z" />
<glyph unicode="p" horiz-adv-x="1116" d="M92 -500v1368h176l123 -98q35 56 110 91.5t158 35.5q177 0 296.5 -131.5t119.5 -333.5q0 -200 -123.5 -330.5t-298.5 -130.5q-73 0 -141.5 28t-99.5 71v-545l-291 -25h-29zM416 432q0 -96 49.5 -151.5t114.5 -55.5q66 0 118 53t52 154q0 100 -50 155.5t-116 55.5 t-117 -52.5t-51 -158.5z" />
<glyph unicode="q" horiz-adv-x="1116" d="M41 432q0 202 119.5 333.5t296.5 131.5q83 0 158 -35.5t110 -91.5l123 98h176v-1343l-289 -25h-30v570q-31 -43 -99.5 -71t-142.5 -28q-175 0 -298.5 130.5t-123.5 330.5zM367 432q0 -101 52 -154t118 -53q67 0 115 52.5t48 154.5q0 100 -52 155.5t-116 55.5 q-66 0 -115.5 -55t-49.5 -156z" />
<glyph unicode="r" horiz-adv-x="710" d="M92 0v868h176l123 -82q21 44 70.5 76.5t101.5 32.5q81 0 127 -37l-51 -289l-14 -4q-53 23 -103 23q-63 0 -110 -41v-547h-320z" />
<glyph unicode="s" horiz-adv-x="886" d="M51 37l68 270q28 -12 72 -27.5t116.5 -34t120.5 -18.5t76 6.5t28 28.5t-20.5 29t-81.5 14q-178 22 -270 97t-92 200q0 76 35 135t93 93t124.5 50.5t138.5 16.5q188 0 336 -55l-66 -256q-130 51 -274 51q-86 0 -86 -41q0 -19 20.5 -26.5t75.5 -12.5q86 -8 153 -30t107 -51 t66 -67t35.5 -75t9.5 -78q0 -73 -34 -129.5t-92 -89.5t-127 -49.5t-147 -16.5q-120 0 -224.5 19t-160.5 47z" />
<glyph unicode="t" horiz-adv-x="745" d="M20 621v30l31 217h103v283l290 31h29v-314h195v-247h-195v-267q0 -41 16 -66t43.5 -32.5t54.5 -7.5t58 8l39 -256q-40 -8 -81 -12q-31 -3 -69 -4h-26q-54 2 -101.5 12t-95 35t-81.5 63.5t-55 101.5t-21 144v281h-134z" />
<glyph unicode="u" d="M82 319v549h321v-499q0 -55 32 -97.5t97 -42.5q58 0 92.5 40.5t34.5 95.5v503h320v-868h-197l-102 72q-101 -101 -264 -101q-145 0 -239.5 95t-94.5 253z" />
<glyph unicode="v" horiz-adv-x="1024" d="M-20 868h348l190 -336l199 336h327l-479 -880h-108z" />
<glyph unicode="w" horiz-adv-x="1425" d="M-20 868h342l165 -336l179 349h110l178 -349l172 336h320l-434 -880h-109l-194 387l-193 -387h-108z" />
<glyph unicode="x" horiz-adv-x="1046" d="M0 0l340 432l-340 436h371l155 -200l158 200h363l-338 -436l338 -432h-373q-64 82 -150 193l-149 -193h-375z" />
<glyph unicode="y" horiz-adv-x="1048" d="M-10 868h354l188 -389l187 389h330l-637 -1378h-308l-24 21l289 610z" />
<glyph unicode="z" horiz-adv-x="974" d="M41 53l416 568h-375l-2 247h835l19 -55l-381 -563h348v-250h-838z" />
<glyph unicode="{" horiz-adv-x="987" d="M61 455v256h50q51 0 87.5 15t55.5 36t29.5 56t13 62.5t2.5 67.5v146q0 132 70.5 230t205 135.5t328.5 -21.5l-51 -275q-46 7 -80 7t-58 -13t-38.5 -28t-22.5 -37.5t-11 -41.5t-3 -40v-125q0 -112 -64 -197.5t-151 -105.5q88 -18 152.5 -103.5t64.5 -197.5v-123 q0 -18 2 -34t7.5 -36t15 -34.5t25.5 -29.5t38.5 -20.5t53.5 -7.5t71 8l51 -274q-195 -59 -329.5 -21.5t-204.5 135.5t-70 230v143q0 40 -2.5 67.5t-13 62.5t-30 56.5t-55.5 36.5t-87 15h-52z" />
<glyph unicode="|" horiz-adv-x="624" d="M164 -268v1732h297v-1732h-297z" />
<glyph unicode="}" horiz-adv-x="987" d="M82 -270l51 274q40 -10 71 -8t53.5 7.5t38.5 20.5t25.5 29.5t15 34.5t7.5 36t2 34v123q0 112 64.5 197.5t152.5 103.5q-87 20 -151 105.5t-64 197.5v125q0 21 -3 40t-11 41.5t-22.5 37.5t-38.5 28t-57.5 13t-80.5 -7l-51 275q194 59 328.5 21.5t205 -135.5t70.5 -230 v-146q0 -40 2.5 -67.5t13 -62.5t30 -56t56 -36t87.5 -15h49v-256h-52q-51 0 -87 -15t-55.5 -36.5t-30 -56.5t-13 -62.5t-2.5 -67.5v-143q0 -132 -70 -230t-204.5 -135.5t-329.5 21.5z" />
<glyph unicode="~" horiz-adv-x="1034" d="M63 468.5q2 54.5 22.5 94t46.5 65.5t61.5 41.5t67 22t63.5 6.5q70 0 203.5 -38.5t181.5 -38.5q92 0 145 57h104q22 -77 12.5 -136t-35.5 -100.5t-66.5 -68t-80.5 -39t-77 -12.5q-70 0 -201.5 37.5t-179.5 37.5q-50 0 -93 -16t-61 -39h-102q-13 72 -11 126.5z" />
<glyph unicode="&#xa1;" horiz-adv-x="700" d="M113 -457l147 846h178l150 -846h-475zM154 702q0 84 56.5 139.5t139.5 55.5q80 0 137.5 -56t57.5 -139q0 -78 -58.5 -136t-136.5 -58q-81 0 -138.5 57.5t-57.5 136.5z" />
<glyph unicode="&#xa2;" horiz-adv-x="925" d="M41 700q0 151 86 267.5t225 167.5v260h260v-240q161 -30 273 -145l-154 -199q-83 94 -168 94q-83 0 -142 -52.5t-59 -152.5q0 -99 61 -151.5t138 -52.5q46 0 92 20.5t80 52.5l144 -184q-106 -114 -265 -141v-244h-260v266q-139 49 -225 169t-86 265z" />
<glyph unicode="&#xa3;" horiz-adv-x="1202" d="M61 0v256q54 -3 97 4t69 21.5t45 34t24.5 39.5t8.5 39.5t-4 33.5h-190v281h141q-2 3 -14 22t-16.5 26t-16 27t-17 31.5t-14 32t-12.5 36t-7 35.5t-3 39q0 120 61 212.5t164.5 141t230.5 48.5q77 0 146.5 -16.5t135.5 -51t119.5 -95.5t86.5 -144l-265 -129 q-22 76 -74 115.5t-116 39.5q-63 0 -111.5 -36t-48.5 -95q0 -44 18.5 -83.5t49.5 -84t43 -71.5h237v-281h-194q-4 -52 -17 -96q75 -70 183 -70q127 0 221 98l170 -221q-44 -54 -96.5 -90t-108 -51.5t-99 -21t-95.5 -5.5q-226 0 -318 113q-41 -45 -103.5 -69t-132 -25 t-105 1.5t-73.5 8.5z" />
<glyph unicode="&#xa4;" horiz-adv-x="1392" d="M82 305l149 144q-69 120 -69 270q0 146 69 270l-149 141l192 211l158 -155q125 67 264 67q149 0 271 -67l151 155l193 -211l-148 -141q70 -119 70 -270q0 -157 -70 -270l148 -144l-195 -211l-149 158q-120 -66 -271 -66q-141 0 -264 66l-160 -158zM446 719 q0 -104 70.5 -183t179.5 -79q111 0 181.5 78.5t70.5 183.5q0 103 -70.5 182.5t-181.5 79.5q-108 0 -179 -79.5t-71 -182.5z" />
<glyph unicode="&#xa5;" horiz-adv-x="1372" d="M10 1333h391l295 -391l297 391h369l-340 -469h195v-260h-361v-123h361v-258h-361v-223h-340v223h-362v258h362v123h-362v260h196z" />
<glyph unicode="&#xa6;" horiz-adv-x="624" d="M164 -268v725h297v-725h-297zM164 739v725h297v-725h-297z" />
<glyph unicode="&#xa7;" horiz-adv-x="1075" d="M51 532q0 70 36 138t97 104q-37 35 -66.5 90t-29.5 117q0 78 27 142.5t71 107t102.5 72t119.5 42.5t124 13q103 0 220 -20.5t194 -57.5l-72 -274q-82 33 -174 52t-159 19q-63 0 -97 -25t-34 -53q0 -26 35 -51.5t90 -38.5q265 -65 377 -162t112 -249q0 -62 -35.5 -123.5 t-91.5 -98.5q40 -33 66 -92.5t26 -124.5q0 -91 -39.5 -161.5t-107 -111.5t-150 -62t-176.5 -21q-124 0 -261.5 27t-193.5 65l74 268q74 -31 179 -51t194 -20q63 0 100 18t37 51q0 60 -135 95q-88 23 -153.5 45.5t-125.5 54.5t-98 70t-60 90t-22 116zM391 545q0 -69 164 -107 q56 -13 90.5 10t34.5 66q0 68 -170 115q-44 12 -81.5 -13t-37.5 -71z" />
<glyph unicode="&#xa8;" horiz-adv-x="749" d="M61 1141q0 59 41.5 102t94.5 43q63 0 105 -42t42 -103q0 -59 -42 -98t-105 -39q-54 0 -95 40t-41 97zM406 1141q0 61 41 103t102 42q56 0 97.5 -42.5t41.5 -102.5q0 -58 -41.5 -97.5t-97.5 -39.5q-61 0 -102 39t-41 98z" />
<glyph unicode="&#xa9;" horiz-adv-x="1556" d="M41 717q0 151 58 288t156.5 236t235 157t287.5 58q150 0 287 -58.5t235.5 -157t157 -235.5t58.5 -288q0 -150 -58.5 -286.5t-157 -234.5t-235.5 -156t-287 -58q-151 0 -287.5 58t-235 156t-156.5 234.5t-58 286.5zM217 717q0 -163 75.5 -298.5t205.5 -212.5t284 -77 q155 0 285.5 77t207.5 212.5t77 298.5q0 123 -45.5 232.5t-122 187t-181.5 122t-221 44.5t-220 -44.5t-180 -122t-120.5 -186.5t-44.5 -233zM416 723q0 158 108.5 270.5t268.5 112.5q98 0 188 -48.5t135 -117.5l-135 -133q-77 98 -162 98q-64 0 -116 -48.5t-52 -137.5 q0 -87 57 -135.5t121 -48.5q93 0 166 81l129 -118q-37 -57 -99 -95t-115.5 -51.5t-100.5 -13.5q-170 0 -281.5 112.5t-111.5 272.5z" />
<glyph unicode="&#xaa;" horiz-adv-x="798" d="M51 1114q0 103 72 167.5t176 64.5q141 0 215 -70v24q0 54 -47 92t-98 38q-68 0 -152 -37l-78 161q41 23 111 43t145 19q143 -2 240 -88t96 -244l-2 -387h-119l-88 70q-20 -28 -75.5 -57t-131.5 -29q-110 0 -187 65.5t-77 167.5zM266 1122q0 -30 31.5 -43.5t73.5 -13.5 q84 0 143 51v31q-9 3 -29 10t-33 10.5t-36.5 7t-50.5 3.5q-39 0 -69 -15t-30 -41z" />
<glyph unicode="&#xab;" horiz-adv-x="1273" d="M51 426v53l414 467l215 -155l-285 -334l285 -326l-219 -160zM594 426v53l414 467l215 -155l-285 -334l285 -326l-219 -160z" />
<glyph unicode="&#xac;" horiz-adv-x="1026" d="M61 367v280l902 2v-2h2l-2 -459h-281v179h-621z" />
<glyph unicode="&#xad;" horiz-adv-x="747" d="M61 260v291l625 100v-291z" />
<glyph unicode="&#xae;" horiz-adv-x="1556" d="M41 717q0 151 58 288t156.5 236t235 157t287.5 58q150 0 287 -58.5t235.5 -157t157 -235.5t58.5 -288q0 -150 -58.5 -286.5t-157 -234.5t-235.5 -156t-287 -58q-151 0 -287.5 58t-235 156t-156.5 234.5t-58 286.5zM217 717q0 -163 75.5 -298.5t205.5 -212.5t284 -77 q155 0 285.5 77t207.5 212.5t77 298.5q0 123 -45.5 232.5t-122 187t-181.5 122t-221 44.5t-220 -44.5t-180 -122t-120.5 -186.5t-44.5 -233zM514 1069q147 39 257.5 32t184 -50.5t110 -104t36.5 -129.5q0 -60 -28.5 -110.5t-67.5 -81.5l135 -263h-234l-86 191q-25 -4 -92 -4 v-187h-213zM729 723q75 -6 112.5 20.5t37.5 73.5q0 49 -43.5 70.5t-106.5 7.5v-172z" />
<glyph unicode="&#xaf;" horiz-adv-x="780" d="M61 1032v219h658v-219h-658z" />
<glyph unicode="&#xb0;" horiz-adv-x="845" d="M41 1083q0 109 55 198t142 137t184 48q98 0 185.5 -48t142.5 -137t55 -198q0 -165 -110.5 -273t-272.5 -108q-160 0 -270.5 108t-110.5 273zM281 1083q0 -62 41 -107.5t100 -45.5q62 0 102.5 45t40.5 108t-40.5 107.5t-102.5 44.5q-59 0 -100 -45t-41 -107z" />
<glyph unicode="&#xb1;" horiz-adv-x="1026" d="M61 209v258h900v-258h-900zM61 729v260h314v191h278v-191h312v-260h-312v-170h-278v170h-314z" />
<glyph unicode="&#xb2;" horiz-adv-x="733" d="M10 877q217 185 291 262q112 118 113 182q0 47 -35 72.5t-86 25.5q-37 0 -75 -21t-62 -50h-29l-94 139q47 58 131 95t170 36q80 -2 145 -32t108.5 -97.5t43.5 -163.5q0 -29 -6 -57t-18.5 -55t-23.5 -48t-30 -46t-29 -38t-30 -35t-23 -26h191v-182h-633z" />
<glyph unicode="&#xb3;" horiz-adv-x="716" d="M20 901l64 154h29q22 -19 82.5 -36.5t105.5 -17.5q47 0 96 27t49 70q0 58 -64.5 91.5t-178.5 2.5l-33 35l166 200h-270v172h579l19 -38l-185 -244q51 -4 119 -71.5t68 -158.5q0 -113 -103.5 -191.5t-245.5 -78.5q-94 0 -174.5 27.5t-122.5 56.5z" />
<glyph unicode="&#xb4;" horiz-adv-x="632" d="M61 983l136 303h374v-41l-252 -262h-258z" />
<glyph unicode="&#xb5;" horiz-adv-x="1079" d="M92 868h322v-499q0 -56 30.5 -98t94.5 -42q58 0 93.5 40.5t35.5 95.5v503h319v-868h-196l-103 72q-13 -29 -83.5 -67t-129.5 -38q-2 0 -12.5 -1t-18 -1t-16.5 2t-12 8v-450l-291 -55h-29z" />
<glyph unicode="&#xb6;" horiz-adv-x="1230" d="M41 1016q0 187 132.5 303.5t332.5 116.5h663v-285h-127v-1419h-258v1419h-63l-2 -1419h-256v858q-181 28 -301.5 140t-120.5 286z" />
<glyph unicode="&#xb7;" horiz-adv-x="616" d="M113 588q0 78 58 136t136 58q81 0 139 -57.5t58 -136.5q0 -84 -57 -139.5t-140 -55.5q-79 0 -136.5 56t-57.5 139z" />
<glyph unicode="&#xb8;" horiz-adv-x="540" d="M61 -174q65 -8 112.5 16t47.5 66q0 19 -4 32t-8 19t-17 19t-20 22v31l59 28q107 -18 177.5 -88t70.5 -151q0 -71 -38.5 -124t-100.5 -80.5t-134 -37.5t-145 -2v250z" />
<glyph unicode="&#xb9;" horiz-adv-x="573" d="M51 1473l330 145h39v-780h-207v516l-107 -37z" />
<glyph unicode="&#xba;" horiz-adv-x="798" d="M41 1247q0 158 100 264.5t256 106.5q158 0 259.5 -107t101.5 -264q0 -155 -103 -261.5t-258 -106.5q-157 0 -256.5 106t-99.5 262zM256 1247q0 -73 40 -126.5t101 -53.5q65 0 104.5 53t39.5 127q0 77 -39.5 131t-104.5 54t-103 -54t-38 -131z" />
<glyph unicode="&#xbb;" horiz-adv-x="1273" d="M51 127l285 334l-285 325l219 160l410 -454v-54l-414 -467zM594 127l285 334l-285 325l219 160l410 -454v-54l-414 -467z" />
<glyph unicode="&#xbc;" horiz-adv-x="1566" d="M51 1268l330 145h39v-780h-207v516l-107 -37zM197 76l1046 1345l143 -112l-1046 -1338zM739 176l49 -76h406v-100h205v100h106v172h-106l-2 488l-88 31zM1067 272l127 131v-131h-127z" />
<glyph unicode="&#xbd;" horiz-adv-x="1722" d="M51 1268l330 145h39v-780h-207v516l-107 -37zM197 76l1046 1345l143 -112l-1046 -1338zM999 39q217 185 291 262q113 118 113 182q0 47 -35 73t-86 26q-37 0 -75 -21.5t-62 -50.5h-29l-94 139q47 58 131 95t170 36q80 -2 145 -32t108.5 -97.5t43.5 -163.5q0 -29 -6 -57 t-18.5 -55t-23.5 -48t-30 -46t-29 -38t-30 -35t-23 -26h191v-182h-633z" />
<glyph unicode="&#xbe;" horiz-adv-x="1683" d="M20 696l64 154h29q22 -19 82 -36t106 -17q48 0 96.5 26.5t48.5 69.5q0 58 -64.5 91.5t-178.5 2.5l-33 35l166 201h-270v172h579l19 -39l-185 -244q51 -4 119 -71t68 -158q0 -113 -103.5 -192t-245.5 -79q-94 0 -174.5 27.5t-122.5 56.5zM313 76l1047 1345l143 -112 l-1046 -1338zM856 176l49 -76h406v-100h205v100h106v172h-106l-3 488l-88 31zM1184 272l127 131v-131h-127z" />
<glyph unicode="&#xbf;" horiz-adv-x="790" d="M-6 -139q0 66 17 119.5t44 89t59.5 65.5t65.5 56t60 53t44 63.5t17 81.5h266q16 -83 1.5 -139t-49.5 -103.5t-71 -79t-64 -67t-28 -66.5q0 -50 40 -77t102 -27q68 0 153 55l140 -258q-37 -41 -138 -75.5t-225 -34.5q-188 0 -311 94.5t-123 249.5zM231 702q0 84 57 139.5 t140 55.5q80 0 137.5 -56t57.5 -139q0 -78 -58.5 -136t-136.5 -58q-81 0 -139 57.5t-58 136.5z" />
<glyph unicode="&#xc0;" horiz-adv-x="1435" d="M-10 0l676 1450h110l670 -1450h-375l-82 174h-538l-82 -174h-379zM334 1812v41h375l135 -303h-258zM569 453h299l-149 338z" />
<glyph unicode="&#xc1;" horiz-adv-x="1435" d="M-10 0l676 1450h110l670 -1450h-375l-82 174h-538l-82 -174h-379zM569 453h299l-149 338zM588 1550l135 303h375v-41l-252 -262h-258z" />
<glyph unicode="&#xc2;" horiz-adv-x="1435" d="M-10 0l676 1450h110l670 -1450h-375l-82 174h-538l-82 -174h-379zM395 1550l176 303h301l177 -303l-238 2l-90 99l-88 -99zM569 453h299l-149 338z" />
<glyph unicode="&#xc3;" horiz-adv-x="1435" d="M-10 0l676 1450h110l670 -1450h-375l-82 174h-538l-82 -174h-379zM419.5 1725q8.5 49 39 77.5t63 39.5t72.5 11q59 0 133 -25.5t104 -25.5q65 0 84 47l117 -22q9 -68 -5 -119.5t-44 -80t-66 -42.5t-75 -14q-49 0 -127.5 26.5t-98.5 26.5q-39 0 -55.5 -12t-23.5 -35 l-117 22q-9 77 -0.5 126zM569 453h299l-149 338z" />
<glyph unicode="&#xc4;" horiz-adv-x="1435" d="M-10 0l676 1450h110l670 -1450h-375l-82 174h-538l-82 -174h-379zM389 1708q0 59 41 102t94 43q63 0 105.5 -42.5t42.5 -102.5q0 -58 -42.5 -97.5t-105.5 -39.5q-54 0 -94.5 40t-40.5 97zM569 453h299l-149 338zM733 1708q0 60 41.5 102.5t102.5 42.5q56 0 97.5 -42.5 t41.5 -102.5q0 -58 -41.5 -97.5t-97.5 -39.5q-61 0 -102.5 39t-41.5 98z" />
<glyph unicode="&#xc5;" horiz-adv-x="1435" d="M-10 0l620 1331q-76 31 -122 99t-46 151q0 113 80.5 192.5t194.5 79.5q117 0 197.5 -79.5t80.5 -192.5q0 -81 -46 -149t-120 -99l617 -1333h-375l-82 174h-538l-82 -174h-379zM569 453h299l-149 338zM614 1583q0 -43 31 -74.5t74 -31.5q44 0 75 31.5t31 74.5q0 45 -31 77 t-75 32q-43 0 -74 -32.5t-31 -76.5z" />
<glyph unicode="&#xc6;" horiz-adv-x="1966" d="M-61 0l981 1438h927v-287h-528v-219h426v-289h-426v-356h545v-287h-883v170h-510l-109 -170h-423zM662 461h319v504z" />
<glyph unicode="&#xc7;" horiz-adv-x="1435" d="M51 725q0 166 62 307t167.5 235t245.5 146.5t297 52.5q340 0 561 -221l-206 -244q-154 162 -349 162q-179 0 -297 -126.5t-118 -309.5q0 -88 27.5 -167.5t78.5 -142t133 -99.5t183 -37q108 0 204 50.5t138 104.5l206 -219q-177 -207 -466 -240q77 -71 77 -157 q0 -71 -38.5 -124t-100 -80.5t-133.5 -37.5t-145 -2v250q65 -8 112 16t47 66q0 20 -4 33t-8.5 19t-15.5 17q-193 21 -342.5 122t-232.5 264t-83 362z" />
<glyph unicode="&#xc8;" horiz-adv-x="1128" d="M143 0v1438h867v-287h-529v-221h426v-287h-426v-356h545v-287h-883zM279 1812v41h374l135 -303h-258z" />
<glyph unicode="&#xc9;" horiz-adv-x="1128" d="M143 0v1438h867v-287h-529v-221h426v-287h-426v-356h545v-287h-883zM399 1550l136 303h374v-41l-252 -262h-258z" />
<glyph unicode="&#xca;" horiz-adv-x="1128" d="M143 0v1438h867v-287h-529v-221h426v-287h-426v-356h545v-287h-883zM270 1550l176 303h302l176 -303l-238 2l-90 99l-88 -99z" />
<glyph unicode="&#xcb;" horiz-adv-x="1128" d="M143 0v1438h867v-287h-529v-221h426v-287h-426v-356h545v-287h-883zM276 1708q0 59 41.5 102t94.5 43q62 0 104.5 -42.5t42.5 -102.5q0 -59 -42 -98t-105 -39q-54 0 -95 40t-41 97zM621 1708q0 61 41 103t102 42q56 0 97.5 -42.5t41.5 -102.5q0 -58 -41.5 -97.5 t-97.5 -39.5q-61 0 -102 39t-41 98z" />
<glyph unicode="&#xcc;" horiz-adv-x="624" d="M-29 1812v41h375l135 -303h-258zM143 0v1438h338v-1438h-338z" />
<glyph unicode="&#xcd;" horiz-adv-x="624" d="M143 0v1438h338v-1438h-338zM143 1550l136 303h374v-41l-252 -262h-258z" />
<glyph unicode="&#xce;" horiz-adv-x="624" d="M-14 1550l176 303h301l176 -303l-238 2l-90 99l-88 -99zM143 0v1438h338v-1438h-338z" />
<glyph unicode="&#xcf;" horiz-adv-x="624" d="M-2 1708q0 59 41 102t94 43q63 0 105.5 -42.5t42.5 -102.5q0 -58 -42.5 -97.5t-105.5 -39.5q-54 0 -94.5 40t-40.5 97zM143 0v1438h338v-1438h-338zM342 1708q0 61 41 103t102 42q56 0 98 -43t42 -102q0 -58 -42 -97.5t-98 -39.5q-61 0 -102 39t-41 98z" />
<glyph unicode="&#xd0;" horiz-adv-x="1497" d="M20 573v281h175v573q158 26 297.5 29.5t249.5 -12t203.5 -47.5t162.5 -76.5t123.5 -100t90.5 -115.5t59.5 -126.5t33.5 -129.5t10 -128q0 -63 -10 -125t-33 -127.5t-60 -124t-90.5 -115.5t-124 -100t-162 -78.5t-204 -52t-248.5 -19t-298 20.5v573h-175zM535 305 q67 -5 134.5 3t141 35.5t129 73t91.5 125t36 183.5q0 146 -69.5 246.5t-189 143t-273.5 26.5v-287h327v-281h-327v-268z" />
<glyph unicode="&#xd1;" horiz-adv-x="1429" d="M143 0v1440l45 10l766 -510v498h332v-1438h-332v541l-481 301v-842h-330zM392.5 1725q8.5 49 39 77.5t63 39.5t72.5 11q59 0 133.5 -25.5t104.5 -25.5q65 0 84 47l117 -22q9 -68 -5 -119.5t-44.5 -80t-66.5 -42.5t-75 -14q-49 0 -127 26.5t-98 26.5q-39 0 -56 -12 t-24 -35l-117 22q-9 77 -0.5 126z" />
<glyph unicode="&#xd2;" horiz-adv-x="1644" d="M51 719q0 152 56.5 288.5t156 238t244.5 161t313 59.5t313 -59.5t245 -161t157 -238t57 -288.5q0 -151 -57 -288t-157 -238.5t-245.5 -161.5t-312.5 -60q-168 0 -313 60t-244.5 161.5t-156 238.5t-56.5 288zM414 719q0 -134 59 -236t150 -152t198 -50q78 0 151.5 30 t131 84t92.5 138.5t35 185.5t-35 186.5t-92.5 141t-131 86t-151.5 30.5q-79 0 -152 -30.5t-130 -86t-91 -141t-34 -186.5zM461 1812v41h375l135 -303h-258z" />
<glyph unicode="&#xd3;" horiz-adv-x="1644" d="M51 719q0 152 56.5 288.5t156 238t244.5 161t313 59.5t313 -59.5t245 -161t157 -238t57 -288.5q0 -151 -57 -288t-157 -238.5t-245.5 -161.5t-312.5 -60q-168 0 -313 60t-244.5 161.5t-156 238.5t-56.5 288zM414 719q0 -134 59 -236t150 -152t198 -50q78 0 151.5 30 t131 84t92.5 138.5t35 185.5t-35 186.5t-92.5 141t-131 86t-151.5 30.5q-79 0 -152 -30.5t-130 -86t-91 -141t-34 -186.5zM639 1550l135 303h375v-41l-252 -262h-258z" />
<glyph unicode="&#xd4;" horiz-adv-x="1644" d="M51 719q0 152 56.5 288.5t156 238t244.5 161t313 59.5t313 -59.5t245 -161t157 -238t57 -288.5q0 -151 -57 -288t-157 -238.5t-245.5 -161.5t-312.5 -60q-168 0 -313 60t-244.5 161.5t-156 238.5t-56.5 288zM414 719q0 -134 59 -236t150 -152t198 -50q78 0 151.5 30 t131 84t92.5 138.5t35 185.5t-35 186.5t-92.5 141t-131 86t-151.5 30.5q-79 0 -152 -30.5t-130 -86t-91 -141t-34 -186.5zM496 1550l176 303h301l176 -303l-238 2l-90 99l-88 -99z" />
<glyph unicode="&#xd5;" horiz-adv-x="1644" d="M51 719q0 152 56.5 288.5t156 238t244.5 161t313 59.5t313 -59.5t245 -161t157 -238t57 -288.5q0 -151 -57 -288t-157 -238.5t-245.5 -161.5t-312.5 -60q-168 0 -313 60t-244.5 161.5t-156 238.5t-56.5 288zM414 719q0 -134 59 -236t150 -152t198 -50q78 0 151.5 30 t131 84t92.5 138.5t35 185.5t-35 186.5t-92.5 141t-131 86t-151.5 30.5q-79 0 -152 -30.5t-130 -86t-91 -141t-34 -186.5zM517.5 1725q8.5 49 39 77.5t63 39.5t72.5 11q59 0 133.5 -25.5t104.5 -25.5q65 0 84 47l116 -22q9 -68 -5 -119.5t-44 -80t-66 -42.5t-75 -14 q-49 0 -127 26.5t-98 26.5q-39 0 -56 -12t-24 -35l-117 22q-9 77 -0.5 126z" />
<glyph unicode="&#xd6;" horiz-adv-x="1644" d="M51 719q0 152 56.5 288.5t156 238t244.5 161t313 59.5t313 -59.5t245 -161t157 -238t57 -288.5q0 -151 -57 -288t-157 -238.5t-245.5 -161.5t-312.5 -60q-168 0 -313 60t-244.5 161.5t-156 238.5t-56.5 288zM414 719q0 -134 59 -236t150 -152t198 -50q78 0 151.5 30 t131 84t92.5 138.5t35 185.5t-35 186.5t-92.5 141t-131 86t-151.5 30.5q-79 0 -152 -30.5t-130 -86t-91 -141t-34 -186.5zM498 1708q0 59 41 102t94 43q63 0 105 -42.5t42 -102.5q0 -59 -42 -98t-105 -39q-54 0 -94.5 40t-40.5 97zM842 1708q0 61 41 103t102 42 q56 0 97.5 -42.5t41.5 -102.5q0 -58 -41.5 -97.5t-97.5 -39.5q-61 0 -102 39t-41 98z" />
<glyph unicode="&#xd7;" horiz-adv-x="1101" d="M102 944l191 191l260 -267l256 267l180 -181l-258 -262l268 -262l-190 -190l-262 264l-254 -264l-180 180l258 260z" />
<glyph unicode="&#xd8;" horiz-adv-x="1644" d="M51 719q0 152 56.5 288.5t156 238t244.5 161t313 59.5q137 0 258 -41l101 183l213 -119l-97 -174q139 -104 218 -260t79 -336q0 -151 -57 -288t-157 -238.5t-245.5 -161.5t-312.5 -60q-128 0 -250 37l-122 -221l-207 117l114 209q-145 103 -225 262t-80 344zM414 719 q0 -184 108 -305l404 735q-58 14 -105 14q-79 0 -152 -30.5t-130 -86t-91 -141t-34 -186.5zM727 291q39 -10 94 -10q78 0 151.5 30t131 84t92.5 138.5t35 185.5q0 171 -101 297z" />
<glyph unicode="&#xd9;" horiz-adv-x="1386" d="M113 512v926h338v-912q0 -112 71.5 -183t169.5 -71t171 71.5t73 182.5v912h338v-926q0 -111 -38.5 -208.5t-110 -172t-184 -117.5t-251.5 -43q-111 0 -205 28t-162 78t-115.5 118t-71 148.5t-23.5 168.5zM324 1812v41h374l136 -303h-259z" />
<glyph unicode="&#xda;" horiz-adv-x="1386" d="M113 512v926h338v-912q0 -112 71.5 -183t169.5 -71t171 71.5t73 182.5v912h338v-926q0 -111 -38.5 -208.5t-110 -172t-184 -117.5t-251.5 -43q-111 0 -205 28t-162 78t-115.5 118t-71 148.5t-23.5 168.5zM522 1550l135 303h375v-41l-252 -262h-258z" />
<glyph unicode="&#xdb;" horiz-adv-x="1386" d="M113 512v926h338v-912q0 -112 71.5 -183t169.5 -71t171 71.5t73 182.5v912h338v-926q0 -111 -38.5 -208.5t-110 -172t-184 -117.5t-251.5 -43q-111 0 -205 28t-162 78t-115.5 118t-71 148.5t-23.5 168.5zM365 1550l176 303h301l176 -303l-238 2l-90 99l-88 -99z" />
<glyph unicode="&#xdc;" horiz-adv-x="1386" d="M113 512v926h338v-912q0 -112 71.5 -183t169.5 -71t171 71.5t73 182.5v912h338v-926q0 -111 -38.5 -208.5t-110 -172t-184 -117.5t-251.5 -43q-111 0 -205 28t-162 78t-115.5 118t-71 148.5t-23.5 168.5zM358 1708q0 59 41.5 102t94.5 43q62 0 104.5 -42.5t42.5 -102.5 q0 -59 -42 -98t-105 -39q-54 0 -95 40t-41 97zM702 1708q0 60 41.5 102.5t102.5 42.5q56 0 97.5 -42.5t41.5 -102.5q0 -58 -41.5 -97.5t-97.5 -39.5q-61 0 -102.5 39t-41.5 98z" />
<glyph unicode="&#xdd;" horiz-adv-x="1331" d="M-10 1438h397l285 -461l284 461h385l-505 -824v-614h-340v614zM510 1550l135 303h375v-41l-252 -262h-258z" />
<glyph unicode="&#xde;" horiz-adv-x="1185" d="M143 0v1438h338v-183q310 0 487 -140.5t177 -395.5q0 -253 -179 -403t-485 -150v-166h-338zM481 469q163 -7 246.5 65t83.5 187q0 111 -82.5 172.5t-247.5 54.5v-479z" />
<glyph unicode="&#xdf;" horiz-adv-x="1097" d="M92 0v1034q0 203 117 326t332 123q89 0 163.5 -27t123 -68.5t83 -95.5t51 -104.5t21.5 -97.5l-127 -308q19 -7 50 -34.5t66 -71.5t60 -109.5t25 -134.5q0 -108 -39.5 -197.5t-111 -148.5t-177.5 -83t-231 -3l37 260q85 -4 139.5 50.5t54.5 135.5q0 75 -56 129.5 t-145 47.5l-39 49l158 389q-3 54 -34.5 88.5t-86.5 34.5q-33 0 -56.5 -14t-35.5 -37t-17 -45.5t-5 -45.5v-1042h-320z" />
<glyph unicode="&#xe0;" horiz-adv-x="1007" d="M41 258q0 133 93 214t226 81q89 0 156.5 -28.5t104.5 -63.5v22q0 71 -58 112.5t-127 41.5q-51 0 -93 -6t-61 -11.5t-55 -17.5l-71 242q56 21 144 36.5t173 14.5q208 -3 330.5 -124.5t120.5 -319.5l-2 -451h-179l-112 76q-30 -41 -98.5 -73t-165.5 -32q-82 0 -155.5 33 t-122 100t-48.5 154zM139 1245v41h375l135 -303h-258zM356 270q0 -30 30.5 -50.5t68.5 -20.5q53 0 99 21t67 52v15q-23 26 -69.5 44t-98.5 17q-43 0 -70 -22.5t-27 -55.5z" />
<glyph unicode="&#xe1;" horiz-adv-x="1007" d="M41 258q0 133 93 214t226 81q89 0 156.5 -28.5t104.5 -63.5v22q0 71 -58 112.5t-127 41.5q-51 0 -93 -6t-61 -11.5t-55 -17.5l-71 242q56 21 144 36.5t173 14.5q208 -3 330.5 -124.5t120.5 -319.5l-2 -451h-179l-112 76q-30 -41 -98.5 -73t-165.5 -32q-82 0 -155.5 33 t-122 100t-48.5 154zM322 983l135 303h374v-41l-251 -262h-258zM356 270q0 -30 30.5 -50.5t68.5 -20.5q53 0 99 21t67 52v15q-23 26 -69.5 44t-98.5 17q-43 0 -70 -22.5t-27 -55.5z" />
<glyph unicode="&#xe2;" horiz-adv-x="1007" d="M41 258q0 133 93 214t226 81q89 0 156.5 -28.5t104.5 -63.5v22q0 71 -58 112.5t-127 41.5q-51 0 -93 -6t-61 -11.5t-55 -17.5l-71 242q56 21 144 36.5t173 14.5q208 -3 330.5 -124.5t120.5 -319.5l-2 -451h-179l-112 76q-30 -41 -98.5 -73t-165.5 -32q-82 0 -155.5 33 t-122 100t-48.5 154zM172 983l176 303h301l176 -303l-237 2l-90 98l-88 -98zM356 270q0 -30 30.5 -50.5t68.5 -20.5q53 0 99 21t67 52v15q-23 26 -69.5 44t-98.5 17q-43 0 -70 -22.5t-27 -55.5z" />
<glyph unicode="&#xe3;" horiz-adv-x="1007" d="M41 258q0 133 93 214t226 81q89 0 156.5 -28.5t104.5 -63.5v22q0 71 -58 112.5t-127 41.5q-51 0 -93 -6t-61 -11.5t-55 -17.5l-71 242q56 21 144 36.5t173 14.5q208 -3 330.5 -124.5t120.5 -319.5l-2 -451h-179l-112 76q-30 -41 -98.5 -73t-165.5 -32q-82 0 -155.5 33 t-122 100t-48.5 154zM202.5 1158q8.5 49 39 77.5t63 39.5t72.5 11q59 0 133 -25.5t104 -25.5q65 0 84 47l117 -22q9 -68 -5 -119.5t-44 -80t-66 -42.5t-75 -14q-49 0 -127.5 26.5t-98.5 26.5q-39 0 -56 -12t-24 -35l-116 22q-9 77 -0.5 126zM356 270q0 -30 30.5 -50.5 t68.5 -20.5q53 0 99 21t67 52v15q-23 26 -69.5 44t-98.5 17q-43 0 -70 -22.5t-27 -55.5z" />
<glyph unicode="&#xe4;" horiz-adv-x="1007" d="M41 258q0 133 93 214t226 81q89 0 156.5 -28.5t104.5 -63.5v22q0 71 -58 112.5t-127 41.5q-51 0 -93 -6t-61 -11.5t-55 -17.5l-71 242q56 21 144 36.5t173 14.5q208 -3 330.5 -124.5t120.5 -319.5l-2 -451h-179l-112 76q-30 -41 -98.5 -73t-165.5 -32q-82 0 -155.5 33 t-122 100t-48.5 154zM184 1141q0 59 41 102t94 43q63 0 105.5 -42.5t42.5 -102.5q0 -58 -42.5 -97.5t-105.5 -39.5q-54 0 -94.5 40t-40.5 97zM356 270q0 -30 30.5 -50.5t68.5 -20.5q53 0 99 21t67 52v15q-23 26 -69.5 44t-98.5 17q-43 0 -70 -22.5t-27 -55.5zM528 1141 q0 60 41.5 102.5t102.5 42.5q56 0 97.5 -42.5t41.5 -102.5q0 -58 -41.5 -97.5t-97.5 -39.5q-61 0 -102.5 39t-41.5 98z" />
<glyph unicode="&#xe5;" horiz-adv-x="1005" d="M41 258q0 133 93 214t226 81q89 0 156.5 -28.5t104.5 -63.5v22q0 71 -58 112.5t-127 41.5q-51 0 -93 -6t-61 -11.5t-55 -17.5l-71 242q65 21 129 33q-39 64 -39 137q0 113 80 192.5t194 79.5q117 0 198 -79.5t81 -192.5q0 -106 -76 -185q97 -56 149 -153.5t52 -224.5 l-2 -451h-179l-112 76q-30 -41 -98.5 -73t-165.5 -32q-82 0 -155.5 33t-122 100t-48.5 154zM356 270q0 -30 30.5 -50.5t68.5 -20.5q53 0 99 21t67 52v15q-23 26 -69.5 44t-98.5 17q-43 0 -70 -22.5t-27 -55.5zM418 1016q0 -43 31 -75t73 -32q44 0 75.5 32t31.5 75 q0 44 -31.5 76t-75.5 32q-43 0 -73.5 -32t-30.5 -76z" />
<glyph unicode="&#xe6;" horiz-adv-x="1585" d="M41 258q0 133 93 214t226 81q89 0 156.5 -28.5t104.5 -63.5v22q0 71 -58 112.5t-127 41.5q-51 0 -93 -6t-61 -11.5t-55 -17.5l-71 242q56 21 144 36.5t173 14.5q191 -3 313 -109q130 111 308 111q90 0 174 -37t149 -103t100 -169.5t25 -225.5h-598q12 -63 80 -104 t156 -41q66 0 132.5 20.5t108.5 47.5l113 -195q-63 -54 -174 -86.5t-223 -32.5q-116 0 -216 43t-171 119q-72 -88 -157.5 -125t-205.5 -37q-142 0 -244 78t-102 209zM356 270q0 -30 30.5 -50.5t68.5 -20.5q53 0 99 21t67 52v15q-23 26 -69.5 44t-98.5 17q-43 0 -70 -22.5 t-27 -55.5zM954 545h267q-3 44 -40.5 76t-88.5 32q-52 0 -91 -33t-47 -75z" />
<glyph unicode="&#xe7;" horiz-adv-x="925" d="M41 434q0 129 64.5 236t174.5 167t242 60q104 0 201 -42.5t162 -111.5l-154 -198q-85 96 -170 96q-80 0 -139.5 -53.5t-59.5 -153.5q0 -99 61.5 -153t135.5 -54q45 0 92.5 21.5t81.5 54.5l144 -184q-96 -107 -250 -137q82 -72 82 -162q0 -71 -38.5 -124t-100.5 -80.5 t-134 -37.5t-145 -2v250q65 -8 112.5 16t47.5 66q0 13 -1 22.5t-6 18t-7 11.5t-10.5 12t-10.5 12q-162 37 -268.5 164.5t-106.5 285.5z" />
<glyph unicode="&#xe8;" horiz-adv-x="997" d="M41 434q0 134 63.5 240.5t169.5 164.5t232 58q90 0 174 -37t149 -103t100 -169.5t25 -225.5h-598q12 -63 80 -104t156 -41q66 0 133 20.5t109 47.5l112 -195q-63 -54 -174 -86.5t-223 -32.5q-213 0 -360.5 136t-147.5 327zM160 1245v41h375l135 -303h-258zM367 545h266 q-3 44 -40.5 76t-88.5 32q-52 0 -90.5 -33t-46.5 -75z" />
<glyph unicode="&#xe9;" horiz-adv-x="997" d="M41 434q0 134 63.5 240.5t169.5 164.5t232 58q90 0 174 -37t149 -103t100 -169.5t25 -225.5h-598q12 -63 80 -104t156 -41q66 0 133 20.5t109 47.5l112 -195q-63 -54 -174 -86.5t-223 -32.5q-213 0 -360.5 136t-147.5 327zM338 983l135 303h375v-41l-252 -262h-258z M367 545h266q-3 44 -40.5 76t-88.5 32q-52 0 -90.5 -33t-46.5 -75z" />
<glyph unicode="&#xea;" horiz-adv-x="997" d="M41 434q0 134 63.5 240.5t169.5 164.5t232 58q90 0 174 -37t149 -103t100 -169.5t25 -225.5h-598q12 -63 80 -104t156 -41q66 0 133 20.5t109 47.5l112 -195q-63 -54 -174 -86.5t-223 -32.5q-213 0 -360.5 136t-147.5 327zM180 983l176 303h301l177 -303l-238 2l-90 98 l-88 -98zM367 545h266q-3 44 -40.5 76t-88.5 32q-52 0 -90.5 -33t-46.5 -75z" />
<glyph unicode="&#xeb;" horiz-adv-x="997" d="M41 434q0 134 63.5 240.5t169.5 164.5t232 58q90 0 174 -37t149 -103t100 -169.5t25 -225.5h-598q12 -63 80 -104t156 -41q66 0 133 20.5t109 47.5l112 -195q-63 -54 -174 -86.5t-223 -32.5q-213 0 -360.5 136t-147.5 327zM180 1141q0 59 41 102t94 43q63 0 105.5 -42.5 t42.5 -102.5q0 -58 -42.5 -97.5t-105.5 -39.5q-54 0 -94.5 40t-40.5 97zM367 545h266q-3 44 -40.5 76t-88.5 32q-52 0 -90.5 -33t-46.5 -75zM524 1141q0 60 41.5 102.5t102.5 42.5q56 0 97.5 -42.5t41.5 -102.5q0 -58 -41.5 -97.5t-97.5 -39.5q-61 0 -102.5 39t-41.5 98z " />
<glyph unicode="&#xec;" horiz-adv-x="493" d="M-109 1245v41h375l135 -303h-258zM92 0v868h309v-868h-309z" />
<glyph unicode="&#xed;" horiz-adv-x="493" d="M92 0v868h309v-868h-309zM92 983l135 303h375v-41l-252 -262h-258z" />
<glyph unicode="&#xee;" horiz-adv-x="493" d="M-80 983l176 303h301l176 -303l-237 2l-90 98l-88 -98zM92 0v868h309v-868h-309z" />
<glyph unicode="&#xef;" horiz-adv-x="493" d="M-66 1141q0 59 41.5 102t94.5 43q62 0 104.5 -42t42.5 -103q0 -59 -42 -98t-105 -39q-54 0 -95 40t-41 97zM92 0v868h309v-868h-309zM279 1141q0 61 41 103t102 42q56 0 97.5 -42.5t41.5 -102.5q0 -58 -41.5 -97.5t-97.5 -39.5q-61 0 -102 39t-41 98z" />
<glyph unicode="&#xf0;" d="M41 436q0 203 137 332t348 129q69 0 138 -16q-19 55 -55.5 96.5t-94.5 85.5l-76 -111l-188 119l74 98q-111 41 -203 52l-27 34l88 207q168 -28 293 -82l76 107l188 -129l-71 -88q197 -146 279.5 -334t82.5 -418q0 -137 -38 -243t-106 -171.5t-157.5 -99t-196.5 -33.5 q-136 0 -248 59t-177.5 166t-65.5 240zM365 436q0 -101 50 -156t117 -55q68 0 120.5 55.5t52.5 155.5t-52.5 154.5t-120.5 54.5t-117.5 -54t-49.5 -155z" />
<glyph unicode="&#xf1;" d="M92 0v868h176l123 -71q100 100 264 100q145 0 239.5 -95t94.5 -253v-549h-321v500q0 55 -32 97t-97 42q-58 0 -92.5 -40t-34.5 -95v-504h-320zM255.5 1158q8.5 49 39 77.5t63 39.5t72.5 11q59 0 133.5 -25.5t104.5 -25.5q65 0 84 47l116 -22q9 -68 -5 -119.5t-44 -80 t-66 -42.5t-75 -14q-49 0 -127 26.5t-98 26.5q-39 0 -56 -12t-24 -35l-117 22q-9 77 -0.5 126z" />
<glyph unicode="&#xf2;" d="M41 436q0 100 40 186.5t107.5 146.5t158 94t190.5 34q133 0 245 -57.5t180 -164.5t68 -239q0 -133 -68 -240t-182 -166t-248 -59q-98 0 -188 35t-157 95.5t-106.5 147.5t-39.5 187zM174 1245v41h375l135 -303h-258zM365 436q0 -101 50 -156t117 -55q68 0 120.5 55.5 t52.5 155.5t-52.5 154.5t-120.5 54.5t-117.5 -54t-49.5 -155z" />
<glyph unicode="&#xf3;" d="M41 436q0 100 40 186.5t107.5 146.5t158 94t190.5 34q133 0 245 -57.5t180 -164.5t68 -239q0 -133 -68 -240t-182 -166t-248 -59q-98 0 -188 35t-157 95.5t-106.5 147.5t-39.5 187zM352 983l135 303h375v-41l-252 -262h-258zM365 436q0 -101 50 -156t117 -55 q68 0 120.5 55.5t52.5 155.5t-52.5 154.5t-120.5 54.5t-117.5 -54t-49.5 -155z" />
<glyph unicode="&#xf4;" d="M41 436q0 100 40 186.5t107.5 146.5t158 94t190.5 34q133 0 245 -57.5t180 -164.5t68 -239q0 -133 -68 -240t-182 -166t-248 -59q-98 0 -188 35t-157 95.5t-106.5 147.5t-39.5 187zM207 983l176 303h301l176 -303l-237 2l-91 98l-88 -98zM365 436q0 -101 50 -156t117 -55 q68 0 120.5 55.5t52.5 155.5t-52.5 154.5t-120.5 54.5t-117.5 -54t-49.5 -155z" />
<glyph unicode="&#xf5;" d="M41 436q0 100 40 186.5t107.5 146.5t158 94t190.5 34q133 0 245 -57.5t180 -164.5t68 -239q0 -133 -68 -240t-182 -166t-248 -59q-98 0 -188 35t-157 95.5t-106.5 147.5t-39.5 187zM228.5 1158q8.5 49 39 77.5t63 39.5t72.5 11q59 0 133.5 -25.5t104.5 -25.5q65 0 84 47 l117 -22q9 -68 -5 -119.5t-44.5 -80t-66.5 -42.5t-75 -14q-49 0 -127 26.5t-98 26.5q-39 0 -56 -12t-24 -35l-117 22q-9 77 -0.5 126zM365 436q0 -101 50 -156t117 -55q68 0 120.5 55.5t52.5 155.5t-52.5 154.5t-120.5 54.5t-117.5 -54t-49.5 -155z" />
<glyph unicode="&#xf6;" d="M41 436q0 100 40 186.5t107.5 146.5t158 94t190.5 34q133 0 245 -57.5t180 -164.5t68 -239q0 -133 -68 -240t-182 -166t-248 -59q-98 0 -188 35t-157 95.5t-106.5 147.5t-39.5 187zM205 1141q0 59 41 102t94 43q62 0 104.5 -42t42.5 -103q0 -59 -42 -98t-105 -39 q-54 0 -94.5 40t-40.5 97zM365 436q0 -101 50 -156t117 -55q68 0 120.5 55.5t52.5 155.5t-52.5 154.5t-120.5 54.5t-117.5 -54t-49.5 -155zM549 1141q0 61 41 103t102 42q56 0 97.5 -42.5t41.5 -102.5q0 -58 -41.5 -97.5t-97.5 -39.5q-61 0 -102 39t-41 98z" />
<glyph unicode="&#xf7;" horiz-adv-x="1026" d="M61 565h904v281h-904v-281zM383 352q0 53 39.5 92t93.5 39q53 0 91 -39t38 -92q0 -56 -37.5 -93.5t-91.5 -37.5q-55 0 -94 37.5t-39 93.5zM383 1059q0 54 39.5 93.5t93.5 39.5t91.5 -39.5t37.5 -93.5q0 -56 -37 -92.5t-92 -36.5t-94 36.5t-39 92.5z" />
<glyph unicode="&#xf8;" d="M41 436q0 100 40 186.5t107.5 146.5t158 94t190.5 34q80 0 147 -20l74 143l145 -72l-74 -139q93 -62 147 -159t54 -214q0 -133 -68 -240t-182 -166t-248 -59q-61 0 -131 17l-84 -160l-141 74l78 149q-98 62 -155.5 162t-57.5 223zM365 436q0 -71 26 -121l170 326 q-20 4 -29 4q-68 0 -117.5 -54t-49.5 -155zM524 225h8q68 0 120.5 55.5t52.5 155.5q0 53 -19 99z" />
<glyph unicode="&#xf9;" d="M82 319v549h321v-499q0 -55 32 -97.5t97 -42.5q58 0 92.5 40.5t34.5 95.5v503h320v-868h-197l-102 72q-101 -101 -264 -101q-145 0 -239.5 95t-94.5 253zM166 1245v41h375l135 -303h-258z" />
<glyph unicode="&#xfa;" d="M82 319v549h321v-499q0 -55 32 -97.5t97 -42.5q58 0 92.5 40.5t34.5 95.5v503h320v-868h-197l-102 72q-101 -101 -264 -101q-145 0 -239.5 95t-94.5 253zM365 983l135 303h374v-41l-251 -262h-258z" />
<glyph unicode="&#xfb;" d="M82 319v549h321v-499q0 -55 32 -97.5t97 -42.5q58 0 92.5 40.5t34.5 95.5v503h320v-868h-197l-102 72q-101 -101 -264 -101q-145 0 -239.5 95t-94.5 253zM205 983l176 303h301l176 -303l-237 2l-91 98l-88 -98z" />
<glyph unicode="&#xfc;" d="M82 319v549h321v-499q0 -55 32 -97.5t97 -42.5q58 0 92.5 40.5t34.5 95.5v503h320v-868h-197l-102 72q-101 -101 -264 -101q-145 0 -239.5 95t-94.5 253zM197 1141q0 59 41 102t94 43q62 0 104.5 -42t42.5 -103q0 -59 -42 -98t-105 -39q-54 0 -94.5 40t-40.5 97z M541 1141q0 61 41 103t102 42q56 0 97.5 -42.5t41.5 -102.5q0 -58 -41.5 -97.5t-97.5 -39.5q-61 0 -102 39t-41 98z" />
<glyph unicode="&#xfd;" horiz-adv-x="1048" d="M-10 868h354l188 -389l187 389h330l-637 -1378h-308l-24 21l289 610zM377 983l135 303h375v-41l-252 -262h-258z" />
<glyph unicode="&#xfe;" horiz-adv-x="1116" d="M92 -500v1938l291 24h29v-665q40 46 107.5 73t139.5 27q177 0 296.5 -131.5t119.5 -333.5q0 -200 -123.5 -330.5t-298.5 -130.5q-73 0 -141.5 28t-99.5 71v-545l-291 -25h-29zM416 432q0 -96 49.5 -151.5t114.5 -55.5q66 0 118 53t52 154q0 100 -50 155.5t-116 55.5 t-117 -52.5t-51 -158.5z" />
<glyph unicode="&#xff;" horiz-adv-x="1048" d="M-10 868h354l188 -389l187 389h330l-637 -1378h-308l-24 21l289 610zM217 1141q0 59 41 102t94 43q63 0 105.5 -42.5t42.5 -102.5q0 -58 -42.5 -97.5t-105.5 -39.5q-54 0 -94.5 40t-40.5 97zM561 1141q0 60 41.5 102.5t102.5 42.5q56 0 97.5 -42.5t41.5 -102.5 q0 -58 -41.5 -97.5t-97.5 -39.5q-61 0 -102.5 39t-41.5 98z" />
<glyph unicode="&#x152;" horiz-adv-x="1959" d="M51 725q0 47 7 96.5t21.5 105.5t40.5 109.5t61 107t85 100t110.5 87t140 68.5t171.5 44t207 15t244 -20h702v-287h-534v-221h432v-287h-432v-356h551v-287h-719q-131 -19 -248 -20t-209.5 15.5t-173 45.5t-140.5 70.5t-109.5 89t-83.5 102t-58.5 108.5t-38.5 111 t-20.5 106.5t-6.5 96.5zM418 725q0 -128 46 -223t124 -147t176 -71.5t207 -4.5v876q-122 21 -227.5 -5.5t-175.5 -88t-110 -149t-40 -187.5z" />
<glyph unicode="&#x153;" horiz-adv-x="1662" d="M41 436q0 100 40 186.5t107.5 146.5t158 94t190.5 34q197 0 329 -119q122 119 305 119q90 0 174.5 -37t149.5 -103t100 -169.5t25 -225.5h-598q12 -63 79.5 -104t155.5 -41q66 0 133 20.5t109 47.5l113 -195q-63 -54 -174.5 -86.5t-223.5 -32.5q-205 0 -342 127 q-133 -127 -340 -127q-98 0 -188 35t-157 95.5t-106.5 147.5t-39.5 187zM365 436q0 -101 50 -156t117 -55q68 0 120.5 55.5t52.5 155.5t-52.5 154.5t-120.5 54.5t-117.5 -54t-49.5 -155zM1032 545h266q-3 44 -40.5 76t-88.5 32q-52 0 -90.5 -33t-46.5 -75z" />
<glyph unicode="&#x178;" horiz-adv-x="1331" d="M-10 1438h397l285 -461l284 461h385l-505 -824v-614h-340v614zM342 1708q0 59 41 102t94 43q63 0 105.5 -42.5t42.5 -102.5q0 -58 -42.5 -97.5t-105.5 -39.5q-54 0 -94.5 40t-40.5 97zM686 1708q0 61 41 103t102 42q56 0 98 -43t42 -102q0 -58 -42 -97.5t-98 -39.5 q-61 0 -102 39t-41 98z" />
<glyph unicode="&#x2c6;" horiz-adv-x="776" d="M61 983l177 303h301l176 -303l-238 2l-90 98l-88 -98z" />
<glyph unicode="&#x2dc;" horiz-adv-x="745" d="M67.5 1158q8.5 49 39 77.5t63 39.5t72.5 11q59 0 133 -25.5t104 -25.5q65 0 84 47l117 -22q9 -68 -5 -119.5t-44.5 -80t-66.5 -42.5t-75 -14q-49 0 -127 26.5t-98 26.5q-39 0 -56 -12t-24 -35l-116 22q-9 77 -0.5 126z" />
<glyph unicode="&#x2000;" horiz-adv-x="926" />
<glyph unicode="&#x2001;" horiz-adv-x="1853" />
<glyph unicode="&#x2002;" horiz-adv-x="926" />
<glyph unicode="&#x2003;" horiz-adv-x="1853" />
<glyph unicode="&#x2004;" horiz-adv-x="617" />
<glyph unicode="&#x2005;" horiz-adv-x="463" />
<glyph unicode="&#x2006;" horiz-adv-x="308" />
<glyph unicode="&#x2007;" horiz-adv-x="308" />
<glyph unicode="&#x2008;" horiz-adv-x="231" />
<glyph unicode="&#x2009;" horiz-adv-x="370" />
<glyph unicode="&#x200a;" horiz-adv-x="102" />
<glyph unicode="&#x2010;" horiz-adv-x="747" d="M61 260v291l625 100v-291z" />
<glyph unicode="&#x2011;" horiz-adv-x="747" d="M61 260v291l625 100v-291z" />
<glyph unicode="&#x2012;" horiz-adv-x="747" d="M61 260v291l625 100v-291z" />
<glyph unicode="&#x2013;" horiz-adv-x="1036" d="M61 367v280h914v-280h-914z" />
<glyph unicode="&#x2014;" horiz-adv-x="1609" d="M61 367v280h1487v-280h-1487z" />
<glyph unicode="&#x2018;" horiz-adv-x="614" d="M82 741v41l315 676l105 -26l-72 -691h-348z" />
<glyph unicode="&#x2019;" horiz-adv-x="614" d="M113 748l71 690h348v-41l-315 -676z" />
<glyph unicode="&#x201a;" horiz-adv-x="614" d="M82 -334l72 690h348v-41l-316 -675z" />
<glyph unicode="&#x201c;" horiz-adv-x="1081" d="M82 741v41l315 676l105 -26l-72 -691h-348zM549 741v41l315 676l105 -26l-72 -691h-348z" />
<glyph unicode="&#x201d;" horiz-adv-x="1081" d="M113 748l71 690h348v-41l-315 -676zM580 748l71 690h348v-41l-315 -676z" />
<glyph unicode="&#x201e;" horiz-adv-x="1091" d="M82 -334l72 690h348v-41l-316 -675zM559 -334l72 690h348v-41l-315 -675z" />
<glyph unicode="&#x2022;" horiz-adv-x="823" d="M123 498q0 119 82 204.5t205 85.5q117 0 203.5 -86.5t86.5 -203.5q0 -123 -85.5 -205t-204.5 -82q-124 0 -205.5 81.5t-81.5 205.5z" />
<glyph unicode="&#x2026;" horiz-adv-x="1853" d="M113 174q0 78 58 136.5t136 58.5q81 0 139 -58t58 -137q0 -84 -57 -139t-140 -55q-80 0 -137 55.5t-57 138.5zM731 174q0 78 58.5 136.5t136.5 58.5q81 0 138.5 -58t57.5 -137q0 -84 -56.5 -139t-139.5 -55q-80 0 -137.5 55.5t-57.5 138.5zM1350 174q0 78 58 136.5 t136 58.5q81 0 139 -58t58 -137q0 -84 -57 -139t-140 -55q-80 0 -137 55.5t-57 138.5z" />
<glyph unicode="&#x202f;" horiz-adv-x="370" />
<glyph unicode="&#x2039;" horiz-adv-x="731" d="M51 426v53l414 467l215 -155l-285 -334l285 -326l-219 -160z" />
<glyph unicode="&#x203a;" horiz-adv-x="731" d="M51 127l285 334l-285 325l219 160l410 -454v-54l-414 -467z" />
<glyph unicode="&#x205f;" horiz-adv-x="463" />
<glyph unicode="&#x20ac;" horiz-adv-x="1480" d="M0 416v30l20 166h166q-2 23 -2 62q0 25 2 41h-145v30l20 168h162q76 206 258.5 327.5t423.5 121.5q99 0 187 -20t153 -54t107.5 -65t77.5 -66l-205 -215q-130 137 -301 137q-95 0 -179 -42.5t-137 -123.5h486v-30l-21 -168h-534q-2 -16 -2 -39q0 -14 4 -64h512v-30 l-21 -166h-418q106 -158 326 -158q164 0 303 113l187 -199q-197 -201 -517 -201q-245 0 -424 121.5t-260 323.5h-229z" />
<glyph unicode="&#x2122;" horiz-adv-x="1708" d="M51 1245v193h684v-193h-235v-610h-215v610h-234zM817 635v803l39 8l348 -334l373 334l39 -8v-803h-215v377l-178 -158h-17l-174 147v-366h-215z" />
<glyph unicode="&#x25fc;" horiz-adv-x="870" d="M0 0v870h870v-870h-870z" />
</font>
</defs>
</svg>
