<svg xmlns="http://www.w3.org/2000/svg" width="218" height="158" viewBox="0 0 218 158" fill="none">
  <g filter="url(#filter0_f_2188_13591)">
    <path d="M197.017 13.5957H21.2538C14.4472 13.5957 8.91016 19.4543 8.91016 26.6551V136.941C8.91016 144.141 14.4472 150 21.2538 150H197.017C203.824 150 209.36 144.142 209.36 136.941V26.6551C209.36 19.4553 203.824 13.5957 197.017 13.5957Z" fill="#EDDDF9"/>
  </g>
  <path d="M201.508 0H16.4933C9.32851 0 3.5 5.85862 3.5 13.0594V123.345C3.5 130.545 9.32851 136.404 16.4933 136.404H201.508C208.672 136.404 214.5 130.546 214.5 123.345V13.0594C214.5 5.85963 208.672 0 201.508 0Z" fill="url(#paint0_linear_2188_13591)"/>
  <path d="M194.271 34.6917C194.035 34.6917 193.813 34.5988 193.646 34.4311C193.319 34.1029 193.296 33.5858 193.593 33.2273C197.295 28.7411 197.273 22.2473 193.54 17.7874C193.241 17.4299 193.261 16.9138 193.586 16.5836L193.591 16.5785C193.759 16.4089 193.983 16.3149 194.223 16.3149C194.482 16.3149 194.726 16.4281 194.892 16.626C199.187 21.7464 199.218 29.2067 194.965 34.3634C194.792 34.5725 194.54 34.6917 194.272 34.6917H194.271Z" fill="#A753DF"/>
  <path d="M191.083 31.4874C190.848 31.4874 190.626 31.3945 190.458 31.2268C190.148 30.9148 190.11 30.4148 190.372 30.0644C192.381 27.3699 192.362 23.622 190.324 20.9487C190.056 20.5973 190.09 20.0933 190.404 19.7782C190.574 19.6086 190.798 19.5146 191.037 19.5146C191.312 19.5146 191.565 19.6389 191.731 19.856C194.252 23.1555 194.282 27.788 191.805 31.1208C191.633 31.3531 191.369 31.4864 191.083 31.4864V31.4874Z" fill="#A753DF"/>
  <path d="M187.854 28.2633C187.631 28.2633 187.421 28.1754 187.263 28.0159L187.196 27.9492C186.935 27.6876 186.878 27.2827 187.054 26.9423C187.521 26.0324 187.506 24.9548 187.01 24.059C186.829 23.7307 186.893 23.3096 187.166 23.0349L187.218 22.9824C187.378 22.8218 187.591 22.7329 187.817 22.7329C188.123 22.7329 188.394 22.8905 188.543 23.1541C189.345 24.577 189.371 26.3596 188.608 27.8058C188.459 28.0886 188.17 28.2643 187.853 28.2643L187.854 28.2633Z" fill="#A753DF"/>
  <rect x="26.2229" y="75.0474" width="30.8385" height="9.78876" rx="1.2" fill="#DCBAF2"/>
  <rect x="167.431" y="110.939" width="30.8385" height="9.78876" rx="1.2" fill="#DCBAF2"/>
  <rect x="66.7998" y="75.0474" width="30.8385" height="9.78876" rx="1.2" fill="#DCBAF2"/>
  <rect x="107.377" y="75.0474" width="30.8385" height="9.78876" rx="1.2" fill="#DCBAF2"/>
  <rect x="146.331" y="75.0474" width="30.8385" height="9.78876" rx="1.2" fill="#DCBAF2"/>
  <path d="M53.6347 45.3191V61.7214C53.6347 63.2242 52.418 64.4472 50.9229 64.4472H40.562C40.5238 64.4532 40.4836 64.4573 40.4444 64.4603C40.4213 64.4633 40.3972 64.4674 40.3741 64.4694C40.3028 64.4755 40.2314 64.4785 40.1601 64.4785C40.0888 64.4785 40.0174 64.4755 39.9461 64.4694C39.923 64.4674 39.8989 64.4633 39.8758 64.4603C39.8366 64.4563 39.7964 64.4522 39.7582 64.4472H29.3732C27.8781 64.4472 26.6614 63.2242 26.6614 61.7214V45.3191C26.6614 43.8163 27.8781 42.5933 29.3732 42.5933H50.9229C52.418 42.5933 53.6347 43.8163 53.6347 45.3191Z" fill="url(#paint1_linear_2188_13591)"/>
  <defs>
    <filter id="filter0_f_2188_13591" x="0.910156" y="5.5957" width="216.45" height="152.404" filterUnits="userSpaceOnUse" color-interpolation-filters="sRGB">
      <feFlood flood-opacity="0" result="BackgroundImageFix"/>
      <feBlend mode="normal" in="SourceGraphic" in2="BackgroundImageFix" result="shape"/>
      <feGaussianBlur stdDeviation="4" result="effect1_foregroundBlur_2188_13591"/>
    </filter>
    <linearGradient id="paint0_linear_2188_13591" x1="-20.005" y1="-18.5777" x2="307.697" y2="199.604" gradientUnits="userSpaceOnUse">
      <stop stop-color="#DCBAF2"/>
      <stop offset="1" stop-color="#CA98EC"/>
    </linearGradient>
    <linearGradient id="paint1_linear_2188_13591" x1="16.1035" y1="45.008" x2="60.2013" y2="60.459" gradientUnits="userSpaceOnUse">
      <stop stop-color="#B771E5"/>
      <stop offset="1" stop-color="#CA98EC"/>
    </linearGradient>
  </defs>
</svg>
