<?xml version="1.0" encoding="UTF-8"?>
<svg width="166px" height="137px" viewBox="0 0 166 137" version="1.1" xmlns="http://www.w3.org/2000/svg" xmlns:xlink="http://www.w3.org/1999/xlink">
    <!-- Generator: Sketch 61 (89581) - https://sketch.com -->
    <title>conflux-confi</title>
    <desc>Created with Sketch.</desc>
    <g id="Page-1" stroke="none" stroke-width="1" fill="none" fill-rule="evenodd">
        <g id="conflux-confi" transform="translate(1.000000, 1.000000)">
            <g id="Group" transform="translate(0.000000, 4.000000)" fill="#4890CC" fill-rule="nonzero" stroke="#231815" stroke-width="3">
                <g transform="translate(117.000000, 0.000000)" id="Oval">
                    <circle cx="23.4" cy="23.3" r="22.7"></circle>
                    <circle cx="25.2" cy="21.5" r="10.7"></circle>
                </g>
                <g id="Oval">
                    <circle cx="23.5" cy="23.3" r="22.7"></circle>
                    <circle cx="21.7" cy="21.5" r="10.7"></circle>
                </g>
            </g>
            <path d="M163,67.1 C160.9,30.4 131.5,0.5 82.2,0.5 C82.1,0.5 82,0.5 81.9,0.5 C81.8,0.5 81.7,0.5 81.6,0.5 C32.3,0.5 2.9,30.4 0.8,67.1 C-1.4,106.6 21.7,133.7 81.6,133.7 C81.7,133.7 81.8,133.7 81.9,133.7 C82,133.7 82.1,133.7 82.2,133.7 C142.1,133.7 165.2,106.6 163,67.1 Z" id="Path" stroke="#231815" stroke-width="3" fill="#4890CC" fill-rule="nonzero"></path>
            <g id="Group" transform="translate(66.000000, 54.000000)" fill-rule="nonzero">
                <path d="M4.2,38.8 L16,33.8 L27.4,38.8 L27.4,45.1 C27.4,45.1 28.2,49.4 21.9,49.4 C15.5,49.4 7.8,49.4 7.8,49.4 C7.8,49.4 4.3,49.3 4.3,44.6 L4.3,38.8 L4.2,38.8 Z" id="Path" fill="#FFFFFF"></path>
                <path d="M17.3,32.6 L17.3,26.2 L30.9,26.3 C30.9,26.3 29.8,1.4 16.1,0.9 L16.1,0.9 C16,0.9 16,0.9 15.9,0.9 C15.8,0.9 15.8,0.9 15.7,0.9 L15.7,0.9 C2,1.3 0.5,26.1 0.5,26.1 L14.1,26.2 L14.1,32.6 C12.1,34.2 0.5,41.6 2.6,41.7 L2.6,45.8 C2.6,48.6 4.9,50.9 7.7,50.9 L23.6,51 C23.6,51 23.6,51 23.6,51 C26.4,51 28.7,48.7 28.7,45.9 L28.7,41.8 C30.7,41.8 19.2,34.2 17.3,32.6 Z M25.5,45.9 C25.5,47 24.6,47.8 23.6,47.8 L7.7,47.7 C6.6,47.7 5.8,46.8 5.8,45.8 L5.8,40 C9.2,39.4 12.2,36.4 14.1,35.1 L14,44.8 C14,45.7 14.7,46.4 15.6,46.4 C15.6,46.4 15.6,46.4 15.6,46.4 C16.5,46.4 17.2,45.7 17.2,44.8 L17.3,35.1 C19.3,36.4 22.2,39.5 25.6,40.1 L25.5,45.9 Z" id="Shape" fill="#231815"></path>
            </g>
            <path d="M102.4,94.9 C102.2,94.1 101.4,93.7 100.6,93.9 C100.5,93.9 94.5,95.4 82.9,85.7 C82.9,85.7 82.9,85.7 82.9,85.7 C82.9,85.7 82.8,85.6 82.8,85.6 C82.8,85.6 82.7,85.5 82.7,85.5 C82.7,85.5 82.6,85.5 82.6,85.5 C82.6,85.5 82.5,85.5 82.4,85.4 C82.4,85.4 82.3,85.4 82.3,85.4 C82.2,85.4 82.2,85.4 82.1,85.4 C82.1,85.4 82,85.4 82,85.4 C81.9,85.4 81.9,85.4 81.8,85.4 C81.8,85.4 81.7,85.4 81.7,85.4 C81.6,85.4 81.6,85.4 81.5,85.4 C81.5,85.4 81.4,85.4 81.4,85.4 C81.3,85.4 81.3,85.4 81.2,85.5 C81.2,85.5 81.1,85.5 81.1,85.6 C81,85.6 81,85.7 80.9,85.7 C80.9,85.7 80.9,85.7 80.9,85.7 C69.4,95.3 63.4,93.9 63.2,93.9 C62.4,93.7 61.6,94.1 61.4,94.9 C61.2,95.7 61.6,96.5 62.4,96.8 C62.6,96.9 63.3,97 64.4,97 C67.3,97 73.1,95.8 81.9,88.8 C90.7,95.8 96.5,97 99.4,97 C100.5,97 101.2,96.8 101.4,96.8 C102.2,96.5 102.6,95.7 102.4,94.9 Z" id="Path" fill="#231815" fill-rule="nonzero"></path>
            <g id="Group" transform="translate(26.000000, 34.000000)">
                <g>
                    <path d="M22.4,43.5 C34,43.5 43.4,34.1 43.4,22.5 L1.3,22.5 C1.4,34 10.8,43.5 22.4,43.5 Z" id="Path" fill="#FFFFFD" fill-rule="nonzero"></path>
                    <circle id="Oval" fill="#231815" fill-rule="nonzero" cx="22.4" cy="22.4" r="5.1"></circle>
                    <path d="M22.4,1.4 C10.8,1.4 1.4,10.8 1.4,22.4 L43.5,22.4 C43.5,10.8 34,1.4 22.4,1.4 Z" id="Path" fill="#4890CC" fill-rule="nonzero"></path>
                    <line x1="0.7" y1="22.4" x2="44.1" y2="22.4" id="Path" stroke="#231815" stroke-width="2.7"></line>
                    <circle id="Oval" stroke="#231815" stroke-width="2.7" cx="22.4" cy="22.4" r="21.7"></circle>
                </g>
                <g transform="translate(67.000000, 0.000000)">
                    <path d="M22.5,43.5 C34.1,43.5 43.5,34.1 43.5,22.5 L1.4,22.5 C1.4,34 10.8,43.5 22.5,43.5 Z" id="Path" fill="#FFFFFD" fill-rule="nonzero"></path>
                    <circle id="Oval" fill="#231815" fill-rule="nonzero" cx="22.5" cy="22.4" r="5.1"></circle>
                    <path d="M22.5,1.4 C10.9,1.4 1.5,10.8 1.5,22.4 L43.6,22.4 C43.5,10.8 34.1,1.4 22.5,1.4 Z" id="Path" fill="#4890CC" fill-rule="nonzero"></path>
                    <line x1="0.8" y1="22.4" x2="44.2" y2="22.4" id="Path" stroke="#231815" stroke-width="2.7"></line>
                    <circle id="Oval" stroke="#231815" stroke-width="2.7" cx="22.5" cy="22.4" r="21.7"></circle>
                </g>
            </g>
        </g>
    </g>
</svg>