<?xml version="1.0" encoding="utf-8"?>
<!-- Generator: Adobe Illustrator 24.0.2, SVG Export Plug-In . SVG Version: 6.00 Build 0)  -->
<svg version="1.1" id="方案二" xmlns="http://www.w3.org/2000/svg" xmlns:xlink="http://www.w3.org/1999/xlink" x="0px" y="0px"
	 viewBox="0 0 1106.6 137" style="enable-background:new 0 0 1106.6 137;" xml:space="preserve">
<style type="text/css">
	.st0{fill:#4890CC;}
	.st1{fill:#231815;}
	.st2{fill:#FFFFFF;}
	.st3{fill:#FFFFFD;}
	.st4{fill-rule:evenodd;clip-rule:evenodd;stroke:#FFFFFF;stroke-width:1.5;}
</style>
<g>
	<g>
		<g>
			<g>
				<circle class="st0" cx="142.2" cy="28.7" r="22.7"/>
				<path class="st1" d="M142.2,52.9c-13.4,0-24.2-10.9-24.2-24.2c0-13.4,10.9-24.2,24.2-24.2c13.4,0,24.2,10.9,24.2,24.2
					C166.4,42,155.5,52.9,142.2,52.9z M142.2,7.4c-11.7,0-21.2,9.5-21.2,21.2c0,11.7,9.5,21.2,21.2,21.2c11.7,0,21.2-9.5,21.2-21.2
					C163.4,17,153.9,7.4,142.2,7.4z"/>
			</g>
			<g>
				<circle class="st0" cx="143.9" cy="26.9" r="10.7"/>
				<path class="st1" d="M143.9,39.1c-6.7,0-12.2-5.5-12.2-12.2c0-6.7,5.5-12.2,12.2-12.2c6.7,0,12.2,5.5,12.2,12.2
					C156.2,33.7,150.7,39.1,143.9,39.1z M143.9,17.7c-5.1,0-9.2,4.1-9.2,9.2c0,5.1,4.1,9.2,9.2,9.2c5.1,0,9.2-4.1,9.2-9.2
					C153.2,21.8,149,17.7,143.9,17.7z"/>
			</g>
		</g>
		<g>
			<g>
				<circle class="st0" cx="25.2" cy="28.7" r="22.7"/>
				<path class="st1" d="M25.2,52.9C11.9,52.9,1,42,1,28.7C1,15.3,11.9,4.4,25.2,4.4c13.4,0,24.2,10.9,24.2,24.2
					C49.5,42,38.6,52.9,25.2,52.9z M25.2,7.4C13.5,7.4,4,17,4,28.7c0,11.7,9.5,21.2,21.2,21.2c11.7,0,21.2-9.5,21.2-21.2
					C46.5,17,37,7.4,25.2,7.4z"/>
			</g>
			<g>
				<circle class="st0" cx="23.5" cy="26.9" r="10.7"/>
				<path class="st1" d="M23.5,39.1c-6.7,0-12.2-5.5-12.2-12.2c0-6.7,5.5-12.2,12.2-12.2s12.2,5.5,12.2,12.2
					C35.7,33.7,30.2,39.1,23.5,39.1z M23.5,17.7c-5.1,0-9.2,4.1-9.2,9.2c0,5.1,4.1,9.2,9.2,9.2s9.2-4.1,9.2-9.2
					C32.7,21.8,28.6,17.7,23.5,17.7z"/>
			</g>
		</g>
	</g>
	<g>
		<path class="st0" d="M164.8,68.5C162.7,31.8,133.3,1.9,84,1.9c-0.1,0-0.2,0-0.3,0c-0.1,0-0.2,0-0.3,0C34.1,1.9,4.7,31.8,2.7,68.5
			c-2.2,39.5,20.9,66.6,80.8,66.6c0.1,0,0.2,0,0.3,0c0.1,0,0.2,0,0.3,0C143.9,135.2,167,108,164.8,68.5z"/>
		<path class="st1" d="M84,136.7l-0.3,0l-0.2,0c-31.3,0-54-7.3-67.7-21.8C5,103.5,0.1,87.8,1.2,68.5c1.1-18.9,9.3-36,23.2-48.1
			C39.2,7.3,59.6,0.4,83.4,0.4l0.3,0l0.2,0c23.8,0,44.2,6.9,59.1,19.9c13.9,12.2,22.1,29.2,23.2,48.1c1.1,19.4-3.8,35-14.6,46.4
			C138,129.3,115.2,136.7,84,136.7z M83.5,3.4C31.2,3.4,6,36.2,4.1,68.6c-1,18.5,3.6,33.4,13.8,44.2C31,126.6,53,133.7,83.4,133.7
			l0.3,0l0.2,0c0,0,0,0,0,0c30.5,0,52.5-7,65.6-20.8c10.2-10.8,14.8-25.7,13.8-44.2l0,0C161.4,36.2,136.2,3.4,84,3.4l-0.3,0
			L83.5,3.4z"/>
	</g>
	<g>
		<path class="st2" d="M71.9,94.3l11.8-5l11.4,5v6.3c0,0,0.8,4.3-5.5,4.3c-6.4,0-14.1,0-14.1,0s-3.5-0.1-3.5-4.8V94.3z"/>
		<path class="st1" d="M85.1,88l0-6.4l13.6,0.1c0,0-1.1-24.9-14.8-25.4l0,0c-0.1,0-0.1,0-0.2,0c-0.1,0-0.1,0-0.2,0l0,0
			c-13.7,0.4-15.2,25.2-15.2,25.2l13.6,0.1l0,6.4c-2,1.6-13.6,9-11.5,9.1l0,4.1c0,2.8,2.3,5.1,5.1,5.1l15.9,0.1c0,0,0,0,0,0
			c2.8,0,5.1-2.3,5.1-5.1l0-4.1C98.5,97.2,87,89.6,85.1,88z M93.3,101.3c0,1.1-0.9,1.9-1.9,1.9l-15.9-0.1c-1.1,0-1.9-0.9-1.9-1.9
			l0-5.8c3.4-0.6,6.4-3.6,8.3-4.9l-0.1,9.7c0,0.9,0.7,1.6,1.6,1.6c0,0,0,0,0,0c0.9,0,1.6-0.7,1.6-1.6l0.1-9.7c2,1.3,4.9,4.4,8.3,5
			L93.3,101.3z"/>
	</g>
	<path class="st1" d="M104.2,96.4c-0.2-0.8-1-1.2-1.8-1c-0.1,0-6.1,1.5-17.7-8.2c0,0,0,0,0,0c0,0-0.1-0.1-0.1-0.1
		c0,0-0.1-0.1-0.1-0.1c0,0-0.1,0-0.1,0c0,0-0.1,0-0.2-0.1c0,0-0.1,0-0.1,0c-0.1,0-0.1,0-0.2,0c0,0-0.1,0-0.1,0c-0.1,0-0.1,0-0.2,0
		c0,0-0.1,0-0.1,0c-0.1,0-0.1,0-0.2,0c0,0-0.1,0-0.1,0c-0.1,0-0.1,0-0.2,0.1c0,0-0.1,0-0.1,0.1c-0.1,0-0.1,0.1-0.2,0.1c0,0,0,0,0,0
		c-11.5,9.6-17.5,8.2-17.7,8.2c-0.8-0.2-1.6,0.2-1.8,1c-0.2,0.8,0.2,1.6,1,1.9c0.2,0.1,0.9,0.2,2,0.2c2.9,0,8.7-1.2,17.5-8.2
		c8.8,7,14.6,8.2,17.5,8.2c1.1,0,1.8-0.2,2-0.2C104,97.9,104.4,97.1,104.2,96.4z"/>
	<g>
		<g>
			<path class="st3" d="M50.2,78.9c11.6,0,21-9.4,21-21H29.2C29.2,69.5,38.6,78.9,50.2,78.9z"/>
			<circle class="st1" cx="50.2" cy="57.8" r="5.1"/>
			<path class="st0" d="M50.2,36.8c-11.6,0-21,9.4-21,21h42.1C71.2,46.2,61.8,36.8,50.2,36.8z"/>
			<rect x="28.5" y="56.5" class="st1" width="43.4" height="2.7"/>
			<path class="st1" d="M50.2,80.9c-12.7,0-23.1-10.3-23.1-23.1s10.3-23.1,23.1-23.1s23.1,10.3,23.1,23.1S62.9,80.9,50.2,80.9z
				 M50.2,37.5c-11.2,0-20.4,9.1-20.4,20.4c0,11.2,9.1,20.4,20.4,20.4s20.4-9.1,20.4-20.4C70.5,46.6,61.4,37.5,50.2,37.5z"/>
		</g>
		<g>
			<path class="st3" d="M117.2,78.9c11.6,0,21-9.4,21-21H96.2C96.2,69.5,105.6,78.9,117.2,78.9z"/>
			<circle class="st1" cx="117.2" cy="57.8" r="5.1"/>
			<path class="st0" d="M117.2,36.8c-11.6,0-21,9.4-21,21h42.1C138.2,46.2,128.8,36.8,117.2,36.8z"/>
			<rect x="95.5" y="56.5" class="st1" width="43.4" height="2.7"/>
			<path class="st1" d="M117.2,80.9c-12.7,0-23.1-10.3-23.1-23.1s10.3-23.1,23.1-23.1s23.1,10.3,23.1,23.1S129.9,80.9,117.2,80.9z
				 M117.2,37.5c-11.2,0-20.4,9.1-20.4,20.4c0,11.2,9.1,20.4,20.4,20.4s20.4-9.1,20.4-20.4C137.6,46.6,128.4,37.5,117.2,37.5z"/>
		</g>
	</g>
</g>
<path id="PORTAL" class="st4" d="M275.8,40.1h56.9V97h-56.9V40.1z M288.7,52.9h31.2v31.2h-31.2V52.9z M424.5,52.9v9.2h29.4V75h-29.4
	v22h-12.8V40.1h56.9v12.9H424.5z M387.8,52.9h-31.2V97h-12.9V40.1h56.9V97h-12.9V52.9z M479.6,97V40.1h12.8v44.1h31.2V69.5h12.8V97
	H479.6z M547.5,97V40.1h12.9v44.1h31.2V40.1h12.9V97H547.5z M672.3,52.9l-15.7,15.8l15.3,15.4h0.4V97h-12.9v-4.1l-15.6-15.6
	l-15.6,15.6V97h-12.9V84.1h0.4L631,68.9l-16-16l0.4-0.4V40.1h12.9v5.4l13.1,13.1l0.1-0.1l2.4,2.4l2.4-2.4l0.1,0.1l13.2-13.3v-5.1
	h12.9L672.3,52.9L672.3,52.9L672.3,52.9z M264.8,84.1V97h-56.9V40.1h56.9v12.9h-44.1v31.2H264.8z M724,82.8h42.4V40.2h-56.6V97H724
	V82.8z M752.3,68.7H724V54.4h28.3V68.7L752.3,68.7z M777.8,40.3v56.6h56.6V40.3L777.8,40.3L777.8,40.3z M820.2,82.7h-28.3V54.4h28.3
	V82.7z M889.7,75.8L902,97.1L885.9,97l-12.2-21.2H860V97h-14V39.8h56v36L889.7,75.8L889.7,75.8z M888,53.8h-28v8h28V53.8z M949,54.3
	v42.6h-14V54.3h-21v-14h56v14L949,54.3L949,54.3z M1063.4,40.3h-14.2v56.6h56.6V82.7h-42.4L1063.4,40.3L1063.4,40.3z M1024.4,41.6
	L1039,97l-14.4-0.2l-3.7-14.6h-22l-3.7,14.6L981,97l14-57l1.3,0.2h26.4l1.3-0.2l0.1,0.2h0.3L1024.4,41.6L1024.4,41.6z M1002.5,68.2
	h14.8l-3.6-14h-7.6L1002.5,68.2z"/>
</svg>
