<svg width="128" height="128" viewBox="0 0 128 128" fill="none" xmlns="http://www.w3.org/2000/svg">
<rect width="128" height="128" fill="white"/>
<path d="M96.6914 14.6064L62.5427 39.9329L68.893 25.0072L96.6914 14.6064Z" fill="#E17726" stroke="#E17726" stroke-width="0.25" stroke-linecap="round" stroke-linejoin="round"/>
<path d="M17.9238 14.6064L51.7684 40.1693L45.7224 25.0072L17.9238 14.6064Z" fill="#E27625" stroke="#E27625" stroke-width="0.25" stroke-linecap="round" stroke-linejoin="round"/>
<path d="M84.3968 73.3301L75.3105 87.2428L94.7661 92.6121L100.339 73.6339L84.3968 73.3301Z" fill="#E27625" stroke="#E27625" stroke-width="0.25" stroke-linecap="round" stroke-linejoin="round"/>
<path d="M14.3093 73.6339L19.8488 92.6121L39.2706 87.2428L30.2183 73.3301L14.3093 73.6339Z" fill="#E27625" stroke="#E27625" stroke-width="0.25" stroke-linecap="round" stroke-linejoin="round"/>
<path d="M38.2237 49.827L32.8193 57.9991L52.0723 58.8771L51.4304 38.1094L38.2237 49.827Z" fill="#E27625" stroke="#E27625" stroke-width="0.25" stroke-linecap="round" stroke-linejoin="round"/>
<path d="M76.3913 49.8272L62.9818 37.873L62.543 58.8772L81.7957 57.9992L76.3913 49.8272Z" fill="#E27625" stroke="#E27625" stroke-width="0.25" stroke-linecap="round" stroke-linejoin="round"/>
<path d="M39.2705 87.2431L50.9234 81.6039L40.8919 73.7695L39.2705 87.2431Z" fill="#E27625" stroke="#E27625" stroke-width="0.25" stroke-linecap="round" stroke-linejoin="round"/>
<path d="M63.6914 81.6039L75.3106 87.2431L73.7233 73.7695L63.6914 81.6039Z" fill="#E27625" stroke="#E27625" stroke-width="0.25" stroke-linecap="round" stroke-linejoin="round"/>
<path d="M75.3106 87.2428L63.6912 81.6035L64.637 89.1676L64.5356 92.3757L75.3106 87.2428Z" fill="#D5BFB2" stroke="#D5BFB2" stroke-width="0.25" stroke-linecap="round" stroke-linejoin="round"/>
<path d="M39.2705 87.2428L50.0792 92.3757L50.0116 89.1676L50.9237 81.6035L39.2705 87.2428Z" fill="#D5BFB2" stroke="#D5BFB2" stroke-width="0.25" stroke-linecap="round" stroke-linejoin="round"/>
<path d="M50.2819 68.7709L40.6216 65.9345L47.4448 62.7939L50.2819 68.7709Z" fill="#233447" stroke="#233447" stroke-width="0.25" stroke-linecap="round" stroke-linejoin="round"/>
<path d="M64.3328 68.7709L67.1701 62.7939L74.0269 65.9345L64.3328 68.7709Z" fill="#233447" stroke="#233447" stroke-width="0.25" stroke-linecap="round" stroke-linejoin="round"/>
<path d="M39.2706 87.2428L40.9593 73.3301L30.2183 73.6342L39.2706 87.2428Z" fill="#CC6228" stroke="#CC6228" stroke-width="0.25" stroke-linecap="round" stroke-linejoin="round"/>
<path d="M73.6555 73.3301L75.3107 87.2428L84.3966 73.6342L73.6555 73.3301Z" fill="#CC6228" stroke="#CC6228" stroke-width="0.25" stroke-linecap="round" stroke-linejoin="round"/>
<path d="M81.7957 57.999L62.5427 58.877L64.3328 68.7712L67.1702 62.7942L74.0269 65.9347L81.7957 57.999Z" fill="#CC6228" stroke="#CC6228" stroke-width="0.25" stroke-linecap="round" stroke-linejoin="round"/>
<path d="M40.6216 65.9347L47.4445 62.7942L50.2819 68.7712L52.072 58.877L32.8191 57.999L40.6216 65.9347Z" fill="#CC6228" stroke="#CC6228" stroke-width="0.25" stroke-linecap="round" stroke-linejoin="round"/>
<path d="M32.8193 57.999L40.8921 73.7691L40.6219 65.9347L32.8193 57.999Z" fill="#E27525" stroke="#E27525" stroke-width="0.25" stroke-linecap="round" stroke-linejoin="round"/>
<path d="M74.0273 65.9347L73.7234 73.7691L81.7961 57.999L74.0273 65.9347Z" fill="#E27525" stroke="#E27525" stroke-width="0.25" stroke-linecap="round" stroke-linejoin="round"/>
<path d="M52.0723 58.877L50.282 68.7714L52.545 80.4551L53.0518 65.0567L52.0723 58.877Z" fill="#E27525" stroke="#E27525" stroke-width="0.25" stroke-linecap="round" stroke-linejoin="round"/>
<path d="M62.543 58.877L61.5972 65.0231L62.0701 80.4551L64.3331 68.7714L62.543 58.877Z" fill="#E27525" stroke="#E27525" stroke-width="0.25" stroke-linecap="round" stroke-linejoin="round"/>
<path d="M64.3331 68.771L62.0701 80.455L63.6914 81.6032L73.7233 73.7689L74.0272 65.9346L64.3331 68.771Z" fill="#F5841F" stroke="#F5841F" stroke-width="0.25" stroke-linecap="round" stroke-linejoin="round"/>
<path d="M40.6216 65.9346L40.892 73.7689L50.9236 81.6032L52.5449 80.455L50.2819 68.771L40.6216 65.9346Z" fill="#F5841F" stroke="#F5841F" stroke-width="0.25" stroke-linecap="round" stroke-linejoin="round"/>
<path d="M64.5357 92.3761L64.6372 89.168L63.7589 88.425H50.8561L50.0116 89.168L50.0792 92.3761L39.2705 87.2432L43.0538 90.3498L50.7209 95.6516H63.8603L71.5615 90.3498L75.3107 87.2432L64.5357 92.3761Z" fill="#C0AC9D" stroke="#C0AC9D" stroke-width="0.25" stroke-linecap="round" stroke-linejoin="round"/>
<path d="M63.6914 81.6033L62.07 80.4551H52.5449L50.9236 81.6033L50.0115 89.1674L50.856 88.4244H63.7587L64.637 89.1674L63.6914 81.6033Z" fill="#161616" stroke="#161616" stroke-width="0.25" stroke-linecap="round" stroke-linejoin="round"/>
<path d="M98.1437 41.5875L101.015 27.6074L96.6914 14.6064L63.6914 39.0888L76.3914 49.8271L94.3269 55.0614L98.279 50.4351L96.5562 49.1855L99.2922 46.6868L97.1981 45.0658L99.9341 42.9721L98.1437 41.5875Z" fill="#763E1A" stroke="#763E1A" stroke-width="0.25" stroke-linecap="round" stroke-linejoin="round"/>
<path d="M13.6001 27.6074L16.5049 41.5875L14.6472 42.9721L17.4169 45.0658L15.3227 46.6868L18.0587 49.1855L16.336 50.4351L20.2879 55.0614L38.2237 49.8271L50.9236 39.0888L17.9236 14.6064L13.6001 27.6074Z" fill="#763E1A" stroke="#763E1A" stroke-width="0.25" stroke-linecap="round" stroke-linejoin="round"/>
<path d="M94.3273 55.0614L76.3918 49.8271L81.7961 57.9992L73.7234 73.7693L84.3969 73.634H100.34L94.3273 55.0614Z" fill="#F5841F" stroke="#F5841F" stroke-width="0.25" stroke-linecap="round" stroke-linejoin="round"/>
<path d="M38.2234 49.8271L20.2879 55.0614L14.3093 73.634H30.2183L40.8918 73.7693L32.8191 57.9992L38.2234 49.8271Z" fill="#F5841F" stroke="#F5841F" stroke-width="0.25" stroke-linecap="round" stroke-linejoin="round"/>
<path d="M62.5429 58.8768L63.6913 39.0884L68.8931 25.0068H45.7222L50.9237 39.0884L52.0721 58.8768L52.5113 65.0901L52.5451 80.4549H62.0702L62.104 65.0901L62.5429 58.8768Z" fill="#F5841F" stroke="#F5841F" stroke-width="0.25" stroke-linecap="round" stroke-linejoin="round"/>
<g filter="url(#filter0_d_2463_25156)">
<rect x="75.4287" y="75.4287" width="45.7143" height="45.7143" rx="22.8571" fill="#27C4B8"/>
</g>
<path d="M98.7681 88.8337L101.116 87.4981V84.3073L98.7681 82.9717V88.8337Z" fill="white"/>
<path d="M90.1232 102.723V93.7486L97.9699 89.2877V82.9717L84.9703 90.3658C84.7222 90.5055 84.5715 90.7673 84.5715 91.0467V105.835C84.5715 105.848 84.576 105.865 84.576 105.879L90.1232 102.723Z" fill="white"/>
<path d="M106.22 103.352L98.3688 107.821L90.5619 103.378L85.0103 106.538L97.97 113.91C98.0941 113.98 98.2314 114.015 98.3688 114.015C98.5061 114.015 98.6435 113.98 98.7675 113.91L111.767 106.516C111.772 106.516 111.772 106.512 111.776 106.512L106.22 103.352Z" fill="white"/>
<path d="M111.767 90.3673L106.614 87.4385V90.6248L101.075 93.7763L106.614 96.9233V102.668L112.165 105.823V91.0482C112.161 90.7689 112.01 90.507 111.767 90.3673Z" fill="white"/>
<path d="M95.6172 96.8727L95.6216 103.128L101.009 100.063V93.8086L95.6172 96.8727Z" fill="white"/>
<defs>
<filter id="filter0_d_2463_25156" x="69.7144" y="69.7144" width="54.8572" height="54.8567" filterUnits="userSpaceOnUse" color-interpolation-filters="sRGB">
<feFlood flood-opacity="0" result="BackgroundImageFix"/>
<feColorMatrix in="SourceAlpha" type="matrix" values="0 0 0 0 0 0 0 0 0 0 0 0 0 0 0 0 0 0 127 0" result="hardAlpha"/>
<feOffset dx="-1.14286" dy="-1.14286"/>
<feGaussianBlur stdDeviation="2.28571"/>
<feComposite in2="hardAlpha" operator="out"/>
<feColorMatrix type="matrix" values="0 0 0 0 0 0 0 0 0 0 0 0 0 0 0 0 0 0 0.24 0"/>
<feBlend mode="normal" in2="BackgroundImageFix" result="effect1_dropShadow_2463_25156"/>
<feBlend mode="normal" in="SourceGraphic" in2="effect1_dropShadow_2463_25156" result="shape"/>
</filter>
</defs>
</svg>
