<?xml version="1.0" encoding="UTF-8"?>
<svg width="1311px" height="242px" viewBox="0 0 1311 242" version="1.1" xmlns="http://www.w3.org/2000/svg" xmlns:xlink="http://www.w3.org/1999/xlink">
    <!-- Generator: Sketch 51.3 (57544) - http://www.bohemiancoding.com/sketch -->
    <title>metamask-logo-horizontal-beta</title>
    <desc>Created with Sketch.</desc>
    <defs></defs>
    <g id="Page-1" stroke="none" stroke-width="1" fill="none" fill-rule="evenodd">
        <g id="metamask-logo-horizontal-beta" transform="translate(1.000000, 1.000000)" fill-rule="nonzero">
            <g id="Group" transform="translate(360.000000, 60.000000)" fill="#161616">
                <path d="M796.7,60.9 C789.9,56.4 782.4,53.2 775.3,49.2 C770.7,46.6 765.8,44.3 761.8,41 C755,35.4 756.4,24.4 763.5,19.6 C773.7,12.8 790.6,16.6 792.4,30.5 C792.4,30.8 792.7,31 793,31 L808.4,31 C808.8,31 809.1,30.7 809,30.3 C808.2,20.7 804.5,12.7 797.7,7.6 C791.2,2.7 783.8,0.1 775.9,0.1 C735.2,0.1 731.5,43.2 753.4,56.8 C755.9,58.4 777.4,69.2 785,73.9 C792.6,78.6 795,87.2 791.7,94 C788.7,100.2 780.9,104.5 773.1,104 C764.6,103.5 758,98.9 755.7,91.7 C755.3,90.4 755.1,87.9 755.1,86.8 C755.1,86.5 754.8,86.2 754.5,86.2 L737.8,86.2 C737.5,86.2 737.2,86.5 737.2,86.8 C737.2,98.9 740.2,105.6 748.4,111.7 C756.1,117.5 764.5,119.9 773.2,119.9 C796,119.9 807.8,107 810.2,93.6 C812.3,80.5 808.4,68.7 796.7,60.9 Z" id="Shape"></path>
                <path d="M71.6,2.3 L64.2,2.3 L56.1,2.3 C55.8,2.3 55.6,2.5 55.5,2.7 L41.8,47.9 C41.6,48.5 40.8,48.5 40.6,47.9 L26.9,2.7 C26.8,2.4 26.6,2.3 26.3,2.3 L18.2,2.3 L10.8,2.3 L0.8,2.3 C0.5,2.3 0.2,2.6 0.2,2.9 L0.2,118.3 C0.2,118.6 0.5,118.9 0.8,118.9 L17.5,118.9 C17.8,118.9 18.1,118.6 18.1,118.3 L18.1,30.6 C18.1,29.9 19.1,29.8 19.3,30.4 L33.1,75.9 L34.1,79.1 C34.2,79.4 34.4,79.5 34.7,79.5 L47.5,79.5 C47.8,79.5 48,79.3 48.1,79.1 L49.1,75.9 L62.9,30.4 C63.1,29.7 64.1,29.9 64.1,30.6 L64.1,118.3 C64.1,118.6 64.4,118.9 64.7,118.9 L81.4,118.9 C81.7,118.9 82,118.6 82,118.3 L82,2.9 C82,2.6 81.7,2.3 81.4,2.3 L71.6,2.3 Z" id="Shape"></path>
                <path d="M541,2.3 C540.7,2.3 540.5,2.5 540.4,2.7 L526.7,47.9 C526.5,48.5 525.7,48.5 525.5,47.9 L511.8,2.7 C511.7,2.4 511.5,2.3 511.2,2.3 L485.8,2.3 C485.5,2.3 485.2,2.6 485.2,2.9 L485.2,118.3 C485.2,118.6 485.5,118.9 485.8,118.9 L502.5,118.9 C502.8,118.9 503.1,118.6 503.1,118.3 L503.1,30.6 C503.1,29.9 504.1,29.8 504.3,30.4 L518.1,75.9 L519.1,79.1 C519.2,79.4 519.4,79.5 519.7,79.5 L532.5,79.5 C532.8,79.5 533,79.3 533.1,79.1 L534.1,75.9 L547.9,30.4 C548.1,29.7 549.1,29.9 549.1,30.6 L549.1,118.3 C549.1,118.6 549.4,118.9 549.7,118.9 L566.4,118.9 C566.7,118.9 567,118.6 567,118.3 L567,2.9 C567,2.6 566.7,2.3 566.4,2.3 L541,2.3 Z" id="Shape"></path>
                <path d="M325.6,2.3 L294.5,2.3 L277.8,2.3 L246.7,2.3 C246.4,2.3 246.1,2.6 246.1,2.9 L246.1,17.3 C246.1,17.6 246.4,17.9 246.7,17.9 L277.2,17.9 L277.2,118.3 C277.2,118.6 277.5,118.9 277.8,118.9 L294.5,118.9 C294.8,118.9 295.1,118.6 295.1,118.3 L295.1,17.9 L325.6,17.9 C325.9,17.9 326.2,17.6 326.2,17.3 L326.2,2.9 C326.2,2.6 326,2.3 325.6,2.3 Z" id="Shape"></path>
                <path d="M424.1,118.9 L439.3,118.9 C439.7,118.9 440,118.5 439.9,118.1 L408.5,2.3 C408.4,2 408.2,1.9 407.9,1.9 L402.1,1.9 L391.9,1.9 L386.1,1.9 C385.8,1.9 385.6,2.1 385.5,2.3 L354.1,118.1 C354,118.5 354.3,118.9 354.7,118.9 L369.9,118.9 C370.2,118.9 370.4,118.7 370.5,118.5 L379.6,84.8 C379.7,84.5 379.9,84.4 380.2,84.4 L413.8,84.4 C414.1,84.4 414.3,84.6 414.4,84.8 L423.5,118.5 C423.6,118.7 423.9,118.9 424.1,118.9 Z M384.2,67.9 L396.4,22.8 C396.6,22.2 397.4,22.2 397.6,22.8 L409.8,67.9 C409.9,68.3 409.6,68.7 409.2,68.7 L384.8,68.7 C384.4,68.7 384.1,68.3 384.2,67.9 Z" id="Shape"></path>
                <path d="M683.3,118.9 L698.5,118.9 C698.9,118.9 699.2,118.5 699.1,118.1 L667.7,2.3 C667.6,2 667.4,1.9 667.1,1.9 L661.3,1.9 L651.1,1.9 L645.3,1.9 C645,1.9 644.8,2.1 644.7,2.3 L613.3,118.1 C613.2,118.5 613.5,118.9 613.9,118.9 L629.1,118.9 C629.4,118.9 629.6,118.7 629.7,118.5 L638.8,84.8 C638.9,84.5 639.1,84.4 639.4,84.4 L673,84.4 C673.3,84.4 673.5,84.6 673.6,84.8 L682.7,118.5 C682.8,118.7 683,118.9 683.3,118.9 Z M643.4,67.9 L655.6,22.8 C655.8,22.2 656.6,22.2 656.8,22.8 L669,67.9 C669.1,68.3 668.8,68.7 668.4,68.7 L644,68.7 C643.6,68.7 643.3,68.3 643.4,67.9 Z" id="Shape"></path>
                <path d="M149.8,101.8 L149.8,66 C149.8,65.7 150.1,65.4 150.4,65.4 L194.9,65.4 C195.2,65.4 195.5,65.1 195.5,64.8 L195.5,50.4 C195.5,50.1 195.2,49.8 194.9,49.8 L150.4,49.8 C150.1,49.8 149.8,49.5 149.8,49.2 L149.8,18.6 C149.8,18.3 150.1,18 150.4,18 L201,18 C201.3,18 201.6,17.7 201.6,17.4 L201.6,3 C201.6,2.7 201.3,2.4 201,2.4 L149.8,2.4 L132.5,2.4 C132.2,2.4 131.9,2.7 131.9,3 L131.9,18 L131.9,49.9 L131.9,65.5 L131.9,102.5 L131.9,118.3 C131.9,118.6 132.2,118.9 132.5,118.9 L149.8,118.9 L203.1,118.9 C203.4,118.9 203.7,118.6 203.7,118.3 L203.7,103.1 C203.7,102.8 203.4,102.5 203.1,102.5 L150.3,102.5 C150,102.4 149.8,102.2 149.8,101.8 Z" id="Shape"></path>
                <path d="M949.3,117.9 L891.5,58.2 C891.3,58 891.3,57.6 891.5,57.4 L943.5,3.4 C943.9,3 943.6,2.4 943.1,2.4 L921.8,2.4 C921.6,2.4 921.5,2.5 921.4,2.6 L877.3,48.4 C876.9,48.8 876.3,48.5 876.3,48 L876.3,3 C876.3,2.7 876,2.4 875.7,2.4 L859,2.4 C858.7,2.4 858.4,2.7 858.4,3 L858.4,118.4 C858.4,118.7 858.7,119 859,119 L875.7,119 C876,119 876.3,118.7 876.3,118.4 L876.3,67.6 C876.3,67.1 877,66.8 877.3,67.2 L927.3,118.8 C927.4,118.9 927.6,119 927.7,119 L949,119 C949.4,118.9 949.7,118.2 949.3,117.9 Z" id="Shape"></path>
            </g>
            <g id="Group" stroke-linecap="round" stroke-linejoin="round">
                <polygon id="Shape" stroke="#E17726" fill="#E17726" points="246.1 0.2 145 75.2 163.8 31"></polygon>
                <g transform="translate(2.000000, 0.000000)" fill="#E27625" id="Shape" stroke="#E27625">
                    <polygon points="10.9 0.2 111.1 75.9 93.2 31"></polygon>
                    <polygon points="207.7 174.1 180.8 215.3 238.4 231.2 254.9 175"></polygon>
                    <polygon points="0.2 175 16.6 231.2 74.1 215.3 47.3 174.1"></polygon>
                    <polygon points="71 104.5 55 128.7 112 131.3 110.1 69.8"></polygon>
                    <polygon points="184 104.5 144.3 69.1 143 131.3 200 128.7"></polygon>
                    <polygon points="74.1 215.3 108.6 198.6 78.9 175.4"></polygon>
                    <polygon points="146.4 198.6 180.8 215.3 176.1 175.4"></polygon>
                </g>
                <g transform="translate(76.000000, 198.000000)" fill="#D5BFB2" id="Shape" stroke="#D5BFB2">
                    <polygon points="106.8 17.3 72.4 0.6 75.2 23 74.9 32.5"></polygon>
                    <polygon points="0.1 17.3 32.1 32.5 31.9 23 34.6 0.6"></polygon>
                </g>
                <polygon id="Shape" stroke="#233447" fill="#233447" points="108.7 160.6 80.1 152.2 100.3 142.9"></polygon>
                <polygon id="Shape" stroke="#233447" fill="#233447" points="150.3 160.6 158.7 142.9 179 152.2"></polygon>
                <g transform="translate(49.000000, 128.000000)" fill="#CC6228" id="Shape" stroke="#CC6228">
                    <polygon points="27.1 87.3 32.1 46.1 0.3 47"></polygon>
                    <polygon points="128.9 46.1 133.8 87.3 160.7 47"></polygon>
                    <polygon points="153 0.7 96 3.3 101.3 32.6 109.7 14.9 130 24.2"></polygon>
                    <polygon points="31.1 24.2 51.3 14.9 59.7 32.6 65 3.3 8 0.7"></polygon>
                </g>
                <g transform="translate(57.000000, 128.000000)" fill="#E27525" id="Shape" stroke="#E27525">
                    <polygon points="0 0.7 23.9 47.4 23.1 24.2"></polygon>
                    <polygon points="122 24.2 121.1 47.4 145 0.7"></polygon>
                    <polygon points="57 3.3 51.7 32.6 58.4 67.2 59.9 21.6"></polygon>
                    <polygon points="88 3.3 85.2 21.5 86.6 67.2 93.3 32.6"></polygon>
                </g>
                <polygon id="Shape" stroke="#F5841F" fill="#F5841F" points="150.3 160.6 143.6 195.2 148.4 198.6 178.1 175.4 179 152.2"></polygon>
                <polygon id="Shape" stroke="#F5841F" fill="#F5841F" points="80.1 152.2 80.9 175.4 110.6 198.6 115.4 195.2 108.7 160.6"></polygon>
                <polygon id="Shape" stroke="#C0AC9D" fill="#C0AC9D" points="150.9 230.5 151.2 221 148.6 218.8 110.4 218.8 107.9 221 108.1 230.5 76.1 215.3 87.3 224.5 110 240.2 148.9 240.2 171.7 224.5 182.8 215.3"></polygon>
                <polygon id="Shape" stroke="#161616" fill="#161616" points="148.4 198.6 143.6 195.2 115.4 195.2 110.6 198.6 107.9 221 110.4 218.8 148.6 218.8 151.2 221"></polygon>
                <g fill="#763E1A" id="Shape" stroke="#763E1A">
                    <polygon points="250.4 80.1 258.9 38.7 246.1 0.2 148.4 72.7 186 104.5 239.1 120 250.8 106.3 245.7 102.6 253.8 95.2 247.6 90.4 255.7 84.2"></polygon>
                    <polygon points="0.1 38.7 8.7 80.1 3.2 84.2 11.4 90.4 5.2 95.2 13.3 102.6 8.2 106.3 19.9 120 73 104.5 110.6 72.7 12.9 0.2"></polygon>
                </g>
                <polygon id="Shape" stroke="#F5841F" fill="#F5841F" points="239.1 120 186 104.5 202 128.7 178.1 175.4 209.7 175 256.9 175"></polygon>
                <polygon id="Shape" stroke="#F5841F" fill="#F5841F" points="73 104.5 19.9 120 2.2 175 49.3 175 80.9 175.4 57 128.7"></polygon>
                <polygon id="Shape" stroke="#F5841F" fill="#F5841F" points="145 131.3 148.4 72.7 163.8 31 95.2 31 110.6 72.7 114 131.3 115.3 149.7 115.4 195.2 143.6 195.2 143.7 149.7"></polygon>
            </g>
        </g>
    </g>
</svg>