<?xml version="1.0" standalone="no"?><!DOCTYPE svg PUBLIC "-//W3C//DTD SVG 1.1//EN" "http://www.w3.org/Graphics/SVG/1.1/DTD/svg11.dtd"><svg t="1578537755000" class="icon" viewBox="0 0 5851 1024" version="1.1" xmlns="http://www.w3.org/2000/svg" p-id="6787" xmlns:xlink="http://www.w3.org/1999/xlink" width="1142.7734375" height="200"><defs><style type="text/css"></style></defs><path d="M1459.931429 275.017143h532.48v119.954286H1459.931429zM1459.931429 684.617143h532.48v119.954286H1459.931429z" p-id="6788"></path><path d="M1460.399543 807.643429v-532.48h119.954286v532.48zM2100.662857 275.017143H2633.142857v119.954286H2100.662857zM2100.662857 684.617143H2633.142857v119.954286H2100.662857z" p-id="6789"></path><path d="M2100.165486 806.7072v-532.48h119.954285v532.48zM2510.613943 807.5264v-532.48h119.954286v532.48z" p-id="6790"></path><path d="M4019.931429 684.617143h532.48v119.954286h-532.48z" p-id="6791"></path><path d="M4019.521829 806.765714v-532.48h119.954285v532.48zM4431.725714 805.800229v-266.24h119.954286v266.24z" p-id="6792"></path><path d="M4660.662857 684.617143h532.48v119.954286h-532.48z" p-id="6793"></path><path d="M4659.287771 805.829486v-532.48h119.954286v532.48zM5069.706971 806.619429V274.139429h119.954286v532.48z" p-id="6794"></path><path d="M2741.394286 275.017143h532.48v119.954286H2741.394286z" p-id="6795"></path><path d="M2739.931429 805.741714V273.261714h119.954285v532.48zM3150.409143 806.560914v-532.48h119.954286v532.48z" p-id="6796"></path><path d="M3382.125714 275.017143h532.48v119.954286h-532.48zM3382.125714 479.817143h386.194286v119.954286h-386.194286z" p-id="6797"></path><path d="M3379.726629 807.7312v-532.48h119.954285v532.48z" p-id="6798"></path><path d="M5307.245714 275.017143v122.88l140.434286 143.36-140.434286 140.434286v122.88h114.102857v-35.108572l149.211429-152.137143 152.137143 152.137143v35.108572h114.102857v-122.88l-152.137143-140.434286 152.137143-152.137143V275.017143h-114.102857V321.828571l-152.137143 152.137143-149.211429-152.137143V275.017143z" p-id="6799"></path><path d="M29.257143 813.348571l81.92 140.434286h336.457143l-84.845715-140.434286z" fill="#003676" p-id="6800"></path><path d="M491.52 705.097143l-128.731429 108.251428 84.845715 140.434286 125.805714-108.251428z" fill="#1A81FF" p-id="6801"></path><path d="M874.788571 298.422857l175.542858-193.097143 81.92 143.36-175.542858 193.097143z" fill="#003676" p-id="6802"></path><path d="M731.428571 324.754286l143.36-26.331429 81.92 143.36-143.36 26.331429z" fill="#1A81FF" p-id="6803"></path><path d="M491.52 705.097143H263.314286L722.651429 196.022857H848.457143l-117.028572 128.731429 143.36-26.331429 175.542858-193.097143H675.84L29.257143 813.348571h333.531428z" fill="#88BDFF" p-id="6804"></path><path d="M763.611429 377.417143L468.114286 705.097143H263.314286L722.651429 196.022857l49.737142 84.845714-40.96 43.885715z" fill="#003676" p-id="6805"></path><path d="M848.457143 196.022857h-125.805714l49.737142 84.845714z" fill="#00234D" p-id="6806"></path><path d="M152.137143 67.291429L14.628571 196.022857l204.8 2.925714 137.508572-131.657142z" fill="#003676" p-id="6807"></path><path d="M298.422857 433.005714l-90.697143-29.257143L14.628571 196.022857l204.8 2.925714 705.097143 760.685715h-181.394285l-125.805715-117.028572h125.805715L236.982857 292.571429H169.691429z" fill="#00234D" p-id="6808"></path><path d="M356.937143 67.291429L219.428571 198.948571l705.097143 760.685715 137.508572-128.731429zM169.691429 292.571429h67.291428l99.474286 105.325714-38.034286 35.108571zM617.325714 842.605714h125.805715l-58.514286-64.365714z" fill="#88BDFF" p-id="6809"></path></svg>