<svg width="180" height="88" viewBox="0 0 180 88" fill="none" xmlns="http://www.w3.org/2000/svg">
<path d="M101.923 68.0051V87.4098H91.8206V73.9658L80.3081 75.2937C77.7795 75.5829 76.6669 76.4032 76.6669 77.914C76.6669 80.1272 78.779 81.0596 83.3067 81.0596C86.0673 81.0596 89.1254 80.6524 91.8265 79.9501L86.5968 87.2918C84.4847 87.758 82.4261 87.9882 80.2545 87.9882C71.0921 87.9882 65.8624 84.3764 65.8624 77.9671C65.8624 72.3133 69.9736 69.3448 79.3145 68.2943L91.654 66.872C90.9876 63.3133 88.2806 61.767 82.8961 61.767C77.8449 61.767 72.2642 63.0477 67.2724 65.4379L68.861 56.7565C73.5017 54.8325 78.7909 53.8411 84.1337 53.8411C95.8842 53.8411 101.935 58.6804 101.935 67.9992L101.923 68.0051ZM11.0425 43.7079L0 87.4098H11.0425L16.5221 65.4497L26.0237 76.7455H37.5362L47.0377 65.4497L52.5174 87.4098H63.5599L52.5174 43.702L31.777 68.1349L11.0366 43.702L11.0425 43.7079ZM52.5174 0L31.777 24.433L11.0425 0L0 43.7079H11.0425L16.5221 21.7477L26.0237 33.0435H37.5362L47.0377 21.7477L52.5174 43.7079H63.5599L52.5174 0ZM128.476 67.5979L119.546 66.3172C117.315 65.969 116.434 65.2667 116.434 64.0451C116.434 62.0621 118.606 61.1887 123.074 61.1887C128.244 61.1887 132.885 62.2392 137.764 64.5113L136.532 55.948C132.593 54.5493 128.072 53.8529 123.371 53.8529C112.388 53.8529 106.391 57.6417 106.391 64.4582C106.391 69.7638 109.681 72.7323 116.672 73.7828L125.722 75.1225C128.012 75.4707 128.952 76.3442 128.952 77.7429C128.952 79.7258 126.84 80.6583 122.55 80.6583C116.91 80.6583 110.8 79.3186 105.808 76.9285L106.808 85.4918C111.097 87.0675 116.678 88 121.908 88C133.188 88 139.061 84.0931 139.061 77.1586C139.061 71.6228 135.77 68.6484 128.488 67.6038L128.476 67.5979ZM142.987 47.6089V87.4098H153.09V47.6089H142.987ZM164.894 69.5218L178.941 54.4253H166.369L153.09 70.0412L167.25 87.4039H180L164.894 69.5159V69.5218ZM141.577 34.2652C141.577 40.6744 146.807 44.2862 155.969 44.2862C158.141 44.2862 160.2 44.0502 162.312 43.5898L167.541 36.2481C164.84 36.9445 161.782 37.3577 159.022 37.3577C154.5 37.3577 152.382 36.4252 152.382 34.2121C152.382 32.6953 153.5 31.8809 156.023 31.5917L167.536 30.2638V43.7079H177.638V24.3031C177.638 14.9785 171.587 10.145 159.837 10.145C154.488 10.145 149.205 11.1365 144.564 13.0604L142.975 21.7418C147.967 19.3516 153.548 18.071 158.599 18.071C163.984 18.071 166.691 19.6172 167.357 23.1759L155.018 24.5982C145.677 25.6487 141.565 28.6173 141.565 34.2711L141.577 34.2652ZM113.323 32.1701C113.323 40.2141 118.023 44.2921 127.304 44.2921C131.005 44.2921 134.063 43.7079 136.996 42.3682L138.287 33.5688C135.467 35.2567 132.587 36.1301 129.708 36.1301C125.359 36.1301 123.419 34.3832 123.419 30.4763V18.8205H138.751V10.7234H123.419V3.8479L104.208 13.928V18.8205H113.311V32.1642L113.323 32.1701ZM103.393 28.4992V30.4822H76.0898C77.3214 34.5189 80.9804 36.3662 87.4774 36.3662C92.6476 36.3662 97.4668 35.3157 101.751 33.2796L100.519 41.7898C96.5803 43.4187 91.5886 44.298 86.4778 44.298C72.9067 44.298 65.5054 38.355 65.5054 27.3425C65.5054 16.33 73.0257 10.1509 84.6572 10.1509C96.2887 10.1509 103.399 16.8552 103.399 28.5051L103.393 28.4992ZM75.9589 23.7189H93.2247C92.3144 19.8533 89.3217 17.8349 84.5382 17.8349C79.7547 17.8349 76.9168 19.8001 75.9589 23.7189Z" fill="#EAC2FF"/>
</svg>
