<?xml version="1.0" encoding="UTF-8"?>
<svg id="Layer_1" xmlns="http://www.w3.org/2000/svg" version="1.1" viewBox="0 0 80 80">
  <!-- Generator: Adobe Illustrator 29.1.0, SVG Export Plug-In . SVG Version: 2.1.0 Build 142)  -->
  <defs>
    <style>
      .st0 {
        fill: #eeff98;
      }

      .st1 {
        fill: #333;
      }
    </style>
  </defs>
  <path class="st1" d="M18.8,0h42.4c10.4,0,18.8,8.4,18.8,18.8v42.4c0,10.4-8.4,18.8-18.8,18.8H18.8c-10.4,0-18.8-8.4-18.8-18.8V18.8C0,8.4,8.4,0,18.8,0Z"/>
  <path class="st0" d="M23.7,30.6h-7.5c-1.2,0-2.1.8-2.1,1.9v6.7c0,.5.2,1,.6,1.3l9.2,8.3c.4.4.9.6,1.5.6h7.5c1.2,0,2.1-.8,2.1-1.9v-7.5l-9.8-8.9c-.4-.4-.9-.6-1.5-.6h0Z"/>
  <path class="st0" d="M44.6,30.6h-7.5c-1.2,0-2.1.8-2.1,1.9v7.5l9.8,8.9c.4.4.9.6,1.5.6h7.5c1.2,0,2.1-.8,2.1-1.9v-7.5l-9.8-8.9c-.4-.4-.9-.6-1.5-.6h0Z"/>
  <path class="st0" d="M58,30.6h6.3c1.2,0,2.1.8,2.1,1.9v5.6c0,1-.9,1.9-2.1,1.9h-8.4v-7.5c0-1,.9-1.9,2.1-1.9Z"/>
</svg>