<svg enable-background="new 0 0 318.6 318.6" viewBox="0 0 318.6 318.6" xmlns="http://www.w3.org/2000/svg"><path d="m277.3 145.6-5-3.6 8-7.3-6.1-4.8 8-6.1-5.3-4 8.4-40.8-12.6-37.9-81.1 30.3h-67.5l-81.1-30.3-12.6 37.9 8.5 40.8-5.4 4 8 6.1-6.1 4.8 8 7.3-5 3.6 11.5 13.5-17.4 54.2 16.1 55.3 56.7-15.6 11 9 22.4 15.5h38.3l22.4-15.5 11-9 56.7 15.6 16.2-55.3-17.5-54.2z" fill="#161616" stroke="#161616"/><g stroke-linecap="round" stroke-linejoin="round"><path d="m105.3 253-56.7 15.6-16.1-55.3z" fill="#e4761b" stroke="#e4761b"/><path d="m283.3 213.3-16.2 55.3-56.7-15.6z" fill="#e4761b" stroke="#e4761b"/><g fill="#763d16" stroke="#763d16"><path d="m265.8 159.1-52.3-15.3 18.3-4.8z"/><path d="m49.9 159.1 34.1-20.1 18.2 4.8z"/><path d="m43.4 142-1.9-12.1 42.5 9.1z"/><path d="m272.3 142-40.5-3 42.4-9.1z"/><path d="m272.3 142-6.5 17.1-34-20.1z"/><path d="m43.4 142 40.6-3-34.1 20.1z"/><path d="m231.8 139 45.1-19.2-2.7 10.1z"/><path d="m84 139-42.5-9.1-2.6-10.1z"/></g><path d="m124.1 71.4h67.5l-15.1 41.1z" fill="#f6851b" stroke="#f6851b"/><path d="m176.5 112.5h-37.3l-15.1-41.1z" fill="#f6851b" stroke="#f6851b"/><path d="m276.9 119.8-45.1 19.2-.8-51.6z" fill="#763d16" stroke="#763d16"/><path d="m102.2 143.8-18.2-4.8.7-51.6z" fill="#763d16" stroke="#763d16"/><path d="m84.7 87.4-.7 51.6-45.1-19.2z" fill="#763d16" stroke="#763d16"/><path d="m231 87.4.8 51.6-18.3 4.8z" fill="#763d16" stroke="#763d16"/><path d="m139.2 112.5-96.2-71.4 81.1 30.3z" fill="#e4761b" stroke="#e4761b"/><path d="m272.7 41.1-96.2 71.4 15.1-41.1z" fill="#e2761b" stroke="#e2761b"/><path d="m210.4 253 26.5-39.7h46.4z" fill="#e4761b" stroke="#e4761b"/><path d="m32.5 213.3h46.4l26.4 39.7z" fill="#e4761b" stroke="#e4761b"/><path d="m229.3 167.7 54 45.6h-46.4z" fill="#f6851b" stroke="#f6851b"/><path d="m86.4 167.7-53.9 45.6 17.4-54.2z" fill="#f6851b" stroke="#f6851b"/><path d="m78.9 213.3h-46.4l53.9-45.6z" fill="#f6851b" stroke="#f6851b"/><path d="m229.3 167.7 36.5-8.6 17.5 54.2z" fill="#f6851b" stroke="#f6851b"/><g fill="#763d16" stroke="#763d16"><path d="m84.7 87.4 54.5 25.1-37 31.3z"/><path d="m213.5 143.8-37-31.3 54.5-25.1z"/><path d="m265.8 159.1 6.5-17.1 5 3.6z"/><path d="m49.9 159.1-11.5-13.5 5-3.6z"/><path d="m272.3 142 1.9-12.1 6.1 4.8z"/><path d="m43.4 142-8-7.3 6.1-4.8z"/><path d="m33.5 123.8 5.4-4 2.6 10.1z"/><path d="m282.2 123.8-8 6.1 2.7-10.1z"/></g><path d="m49.9 159.1 52.3-15.3-15.8 23.9z" fill="#f6851b" stroke="#f6851b"/><path d="m265.8 159.1-36.5 8.6-15.8-23.9z" fill="#f6851b" stroke="#f6851b"/><path d="m38.9 119.8-8.5-40.8 54.3 8.4z" fill="#763d16" stroke="#763d16"/><path d="m231 87.4 54.3-8.4-8.4 40.8z" fill="#763d16" stroke="#763d16"/><path d="m102.2 143.8 37-31.3 3.4 57.7z" fill="#e4761b" stroke="#e4761b"/><path d="m213.5 143.8 15.8 23.9-56.2 2.5z" fill="#e4761b" stroke="#e4761b"/><path d="m173.1 170.2 3.4-57.7 37 31.3z" fill="#e4761b" stroke="#e4761b"/><path d="m142.6 170.2-56.2-2.5 15.8-23.9z" fill="#e4761b" stroke="#e4761b"/><path d="m272.7 41.1 12.6 37.9-54.3 8.4z" fill="#763d16" stroke="#763d16"/><path d="m43 41.1 96.2 71.4-54.5-25.1z" fill="#763d16" stroke="#763d16"/><path d="m231 87.4-54.5 25.1 96.2-71.4z" fill="#763d16" stroke="#763d16"/><path d="m84.7 87.4-54.3-8.4 12.6-37.9z" fill="#763d16" stroke="#763d16"/><path d="m105.3 253-26.4-39.7 31.1.4z" fill="#cd6116" stroke="#cd6116"/><path d="m210.4 253-4.7-39.3 31.2-.4z" fill="#cd6116" stroke="#cd6116"/><path d="m173.1 170.2h-30.5l-3.4-57.7z" fill="#f6851b" stroke="#f6851b"/><path d="m139.2 112.5h37.3l-3.4 57.7z" fill="#f6851b" stroke="#f6851b"/><path d="m116.3 262-11-9 31.5 14.9z" fill="#c0ad9e" stroke="#c0ad9e"/><path d="m178.9 267.9 31.5-14.9-11 9z" fill="#c0ad9e" stroke="#c0ad9e"/><path d="m136.6 258.6.2 9.3-31.5-14.9z" fill="#d7c1b3" stroke="#d7c1b3"/><path d="m179.2 258.6 31.2-5.6-31.5 14.9z" fill="#d7c1b3" stroke="#d7c1b3"/><path d="m86.4 167.7 23.6 46-31.1-.4z" fill="#f6851b" stroke="#f6851b"/><path d="m236.9 213.3-31.2.4 23.6-46z" fill="#f6851b" stroke="#f6851b"/><path d="m86.4 167.7 22.8 23.1.8 22.9z" fill="#e4751f" stroke="#e4751f"/><path d="m229.3 167.7-23.6 46 .9-22.9z" fill="#e4751f" stroke="#e4751f"/><path d="m105.3 253 33.9-16.5-2.6 22.1z" fill="#d7c1b3" stroke="#d7c1b3"/><path d="m210.4 253-31.2 5.6-2.7-22.1z" fill="#d7c1b3" stroke="#d7c1b3"/><path d="m139.2 236.5-33.9 16.5 4.7-39.3z" fill="#e4761b" stroke="#e4761b"/><path d="m176.5 236.5 29.2-22.8 4.7 39.3z" fill="#e4761b" stroke="#e4761b"/><path d="m173.1 170.2 56.2-2.5-22.7 23.1z" fill="#cd6116" stroke="#cd6116"/><path d="m109.2 190.8-22.8-23.1 56.2 2.5z" fill="#cd6116" stroke="#cd6116"/><path d="m142.6 170.2-13.5 11.5-19.9 9.1z" fill="#cd6116" stroke="#cd6116"/><path d="m206.6 190.8-20-9.1-13.5-11.5z" fill="#cd6116" stroke="#cd6116"/><path d="m205.7 213.7-27.4-14.6 28.3-8.3z" fill="#f6851b" stroke="#f6851b"/><path d="m110 213.7-.8-22.9 28.2 8.3z" fill="#f6851b" stroke="#f6851b"/><path d="m137.4 199.1-28.2-8.3 19.9-9.1z" fill="#233447" stroke="#233447"/><path d="m178.3 199.1 8.3-17.4 20 9.1z" fill="#233447" stroke="#233447"/><path d="m186.6 181.7-8.3 17.4-5.2-28.9z" fill="#cd6116" stroke="#cd6116"/><path d="m129.1 181.7 13.5-11.5-5.2 28.9z" fill="#cd6116" stroke="#cd6116"/><path d="m199.4 262-22.4 15.5 1.9-9.6z" fill="#c0ad9e" stroke="#c0ad9e"/><path d="m136.8 267.9 1.9 9.6-22.4-15.5z" fill="#c0ad9e" stroke="#c0ad9e"/><path d="m178.3 199.1-6.5-10.7 1.3-18.2z" fill="#e2761b" stroke="#e2761b"/><path d="m137.4 199.1 5.2-28.9 1.3 18.2z" fill="#e4751f" stroke="#e4751f"/><g fill="#f6851b" stroke="#f6851b"><path d="m173.1 170.2-1.3 18.2h-27.9z"/><path d="m143.9 188.4-1.3-18.2h30.5z"/><path d="m178.3 199.1 27.4 14.6-29.2 22.8z"/><path d="m139.2 236.5-29.2-22.8 27.4-14.6z"/><path d="m137.4 199.1 6.6 34.1-4.8 3.3z"/><path d="m176.5 236.5-4.8-3.3 6.6-34.1z"/></g><path d="m171.8 188.4 6.5 10.7-6.6 34.1z" fill="#e4751f" stroke="#e4751f"/><path d="m143.9 188.4.1 44.8-6.6-34.1z" fill="#e4751f" stroke="#e4751f"/><path d="m143.9 188.4h27.9l-.1 44.8z" fill="#f6851b" stroke="#f6851b"/><path d="m171.7 233.2h-27.7l-.1-44.8z" fill="#f6851b" stroke="#f6851b"/><g fill="#c0ad9e" stroke="#c0ad9e"><path d="m179.2 258.6-.3 9.3-1.9 9.6z"/><path d="m138.7 277.5-1.9-9.6-.2-9.3z"/><path d="m136.6 258.6 2.4-2.2-.3 21.1z"/><path d="m177 277.5-.3-21.1 2.5 2.2z"/><path d="m138.7 277.5.3-21.1h37.7z"/><path d="m176.7 256.4.3 21.1h-38.3z"/></g><g fill="#161616" stroke="#161616"><path d="m176.5 236.5 2.7 22.1-2.5-2.2z"/><path d="m139 256.4-2.4 2.2 2.6-22.1z"/><path d="m139.2 236.5 1.5 4.7-1.7 15.2z"/><path d="m176.7 256.4-1.7-15.2 1.5-4.7z"/><path d="m143.7 237.7-3 3.5-1.5-4.7z"/><path d="m176.5 236.5-1.5 4.7-3-3.5z"/><path d="m172 237.7-.3-4.5 4.8 3.3z"/><path d="m139.2 236.5 4.8-3.3-.3 4.5z"/><path d="m171.7 233.2.3 4.5h-28.3z"/><path d="m143.7 237.7.3-4.5h27.7z"/><path d="m140.7 241.2h34.3l1.7 15.2z"/><path d="m176.7 256.4h-37.7l1.7-15.2z"/><path d="m140.7 241.2 3-3.5h28.3z"/><path d="m172 237.7 3 3.5h-34.3z"/></g></g></svg>