<svg width="35" height="33" viewBox="0 0 35 33" fill="none" xmlns="http://www.w3.org/2000/svg">
  <path d="M32.9582 1L19.8241 10.7183L22.2665 4.99099L32.9582 1Z" fill="#E17726" stroke="#E17726" stroke-width="0.25" stroke-linecap="round" stroke-linejoin="round"/>
  <path d="M2.66296 1L15.6801 10.809L13.3547 4.99098L2.66296 1Z" fill="#E27625" stroke="#E27625" stroke-width="0.25" stroke-linecap="round" stroke-linejoin="round"/>
  <path d="M28.2295 23.5335L24.7348 28.8721L32.2177 30.9324L34.3613 23.6501L28.2295 23.5335Z" fill="#E27625" stroke="#E27625" stroke-width="0.25" stroke-linecap="round" stroke-linejoin="round"/>
  <path d="M1.27281 23.6501L3.40336 30.9324L10.8733 28.8721L7.39164 23.5335L1.27281 23.6501Z" fill="#E27625" stroke="#E27625" stroke-width="0.25" stroke-linecap="round" stroke-linejoin="round"/>
  <path d="M10.4706 14.5149L8.392 17.6507L15.797 17.9876L15.5501 10.0186L10.4706 14.5149Z" fill="#E27625" stroke="#E27625" stroke-width="0.25" stroke-linecap="round" stroke-linejoin="round"/>
  <path d="M25.1505 14.5149L19.993 9.92786L19.8242 17.9876L27.2291 17.6507L25.1505 14.5149Z" fill="#E27625" stroke="#E27625" stroke-width="0.25" stroke-linecap="round" stroke-linejoin="round"/>
  <path d="M10.8733 28.8721L15.3552 26.7082L11.4969 23.702L10.8733 28.8721Z" fill="#E27625" stroke="#E27625" stroke-width="0.25" stroke-linecap="round" stroke-linejoin="round"/>
  <path d="M20.2659 26.7082L24.7348 28.8721L24.1243 23.702L20.2659 26.7082Z" fill="#E27625" stroke="#E27625" stroke-width="0.25" stroke-linecap="round" stroke-linejoin="round"/>
  <path d="M24.7348 28.8721L20.2658 26.7082L20.6296 29.6107L20.5906 30.8417L24.7348 28.8721Z" fill="#D5BFB2" stroke="#D5BFB2" stroke-width="0.25" stroke-linecap="round" stroke-linejoin="round"/>
  <path d="M10.8732 28.8721L15.0304 30.8417L15.0044 29.6107L15.3552 26.7082L10.8732 28.8721Z" fill="#D5BFB2" stroke="#D5BFB2" stroke-width="0.25" stroke-linecap="round" stroke-linejoin="round"/>
  <path d="M15.1084 21.7842L11.3929 20.6958L14.0172 19.4907L15.1084 21.7842Z" fill="#233447" stroke="#233447" stroke-width="0.25" stroke-linecap="round" stroke-linejoin="round"/>
  <path d="M20.5126 21.7842L21.6039 19.4907L24.2411 20.6958L20.5126 21.7842Z" fill="#233447" stroke="#233447" stroke-width="0.25" stroke-linecap="round" stroke-linejoin="round"/>
  <path d="M10.8733 28.8721L11.5228 23.5335L7.39163 23.6502L10.8733 28.8721Z" fill="#CC6228" stroke="#CC6228" stroke-width="0.25" stroke-linecap="round" stroke-linejoin="round"/>
  <path d="M24.0982 23.5335L24.7348 28.8721L28.2294 23.6502L24.0982 23.5335Z" fill="#CC6228" stroke="#CC6228" stroke-width="0.25" stroke-linecap="round" stroke-linejoin="round"/>
  <path d="M27.2291 17.6507L19.8241 17.9876L20.5126 21.7842L21.6039 19.4907L24.2411 20.6958L27.2291 17.6507Z" fill="#CC6228" stroke="#CC6228" stroke-width="0.25" stroke-linecap="round" stroke-linejoin="round"/>
  <path d="M11.3929 20.6958L14.0171 19.4907L15.1084 21.7842L15.7969 17.9876L8.39195 17.6507L11.3929 20.6958Z" fill="#CC6228" stroke="#CC6228" stroke-width="0.25" stroke-linecap="round" stroke-linejoin="round"/>
  <path d="M8.392 17.6507L11.4969 23.702L11.393 20.6958L8.392 17.6507Z" fill="#E27525" stroke="#E27525" stroke-width="0.25" stroke-linecap="round" stroke-linejoin="round"/>
  <path d="M24.2412 20.6958L24.1243 23.702L27.2292 17.6507L24.2412 20.6958Z" fill="#E27525" stroke="#E27525" stroke-width="0.25" stroke-linecap="round" stroke-linejoin="round"/>
  <path d="M15.797 17.9876L15.1084 21.7843L15.9788 26.2676L16.1737 20.3589L15.797 17.9876Z" fill="#E27525" stroke="#E27525" stroke-width="0.25" stroke-linecap="round" stroke-linejoin="round"/>
  <path d="M19.8242 17.9876L19.4604 20.346L19.6423 26.2676L20.5127 21.7843L19.8242 17.9876Z" fill="#E27525" stroke="#E27525" stroke-width="0.25" stroke-linecap="round" stroke-linejoin="round"/>
  <path d="M20.5127 21.7842L19.6423 26.2676L20.2659 26.7082L24.1243 23.702L24.2412 20.6958L20.5127 21.7842Z" fill="#F5841F" stroke="#F5841F" stroke-width="0.25" stroke-linecap="round" stroke-linejoin="round"/>
  <path d="M11.3929 20.6958L11.4969 23.702L15.3552 26.7082L15.9788 26.2676L15.1084 21.7842L11.3929 20.6958Z" fill="#F5841F" stroke="#F5841F" stroke-width="0.25" stroke-linecap="round" stroke-linejoin="round"/>
  <path d="M20.5906 30.8417L20.6296 29.6107L20.2918 29.3256H15.3292L15.0044 29.6107L15.0304 30.8417L10.8732 28.8721L12.3283 30.0642L15.2772 32.0986H20.3308L23.2928 30.0642L24.7348 28.8721L20.5906 30.8417Z" fill="#C0AC9D" stroke="#C0AC9D" stroke-width="0.25" stroke-linecap="round" stroke-linejoin="round"/>
  <path d="M20.2659 26.7082L19.6423 26.2676H15.9788L15.3552 26.7082L15.0044 29.6107L15.3292 29.3256H20.2918L20.6296 29.6107L20.2659 26.7082Z" fill="#161616" stroke="#161616" stroke-width="0.25" stroke-linecap="round" stroke-linejoin="round"/>
  <path d="M33.5168 11.3532L34.6211 5.98873L32.9582 1L20.2659 10.3944L25.1505 14.5149L32.0488 16.5234L33.5688 14.7482L32.9062 14.2687L33.9585 13.3099L33.1531 12.6879L34.2054 11.8845L33.5168 11.3532Z" fill="#763E1A" stroke="#763E1A" stroke-width="0.25" stroke-linecap="round" stroke-linejoin="round"/>
  <path d="M1 5.98873L2.11724 11.3532L1.40273 11.8845L2.468 12.6879L1.66255 13.3099L2.71483 14.2687L2.05228 14.7482L3.57225 16.5234L10.4706 14.5149L15.3552 10.3944L2.66287 1L1 5.98873Z" fill="#763E1A" stroke="#763E1A" stroke-width="0.25" stroke-linecap="round" stroke-linejoin="round"/>
  <path d="M32.0489 16.5234L25.1506 14.5149L27.2292 17.6507L24.1243 23.702L28.2295 23.6501H34.3613L32.0489 16.5234Z" fill="#F5841F" stroke="#F5841F" stroke-width="0.25" stroke-linecap="round" stroke-linejoin="round"/>
  <path d="M10.4705 14.5149L3.57222 16.5234L1.27278 23.6501H7.39161L11.4968 23.702L8.39193 17.6507L10.4705 14.5149Z" fill="#F5841F" stroke="#F5841F" stroke-width="0.25" stroke-linecap="round" stroke-linejoin="round"/>
  <path d="M19.8241 17.9876L20.2658 10.3944L22.2665 4.991H13.3546L15.3552 10.3944L15.7969 17.9876L15.9658 20.3718L15.9788 26.2676H19.6423L19.6553 20.3718L19.8241 17.9876Z" fill="#F5841F" stroke="#F5841F" stroke-width="0.25" stroke-linecap="round" stroke-linejoin="round"/>
</svg>
