<svg xmlns="http://www.w3.org/2000/svg" width="463" height="464" viewBox="0 0 463 464" fill="none">
  <path d="M193.2 82.2402C212.72 62.7202 244.4 62.7202 263.92 82.2402C283.44 101.76 283.44 133.44 263.92 152.96L205 211.88L252.16 259.04L311.08 200.12C330.6 180.6 362.28 180.6 381.8 200.12C401.32 219.64 401.32 251.32 381.8 270.84L275.72 376.92C249.68 402.96 207.48 402.96 181.44 376.92L87.16 282.64C61.12 256.6 61.12 214.4 87.16 188.36L193.24 82.2802M146.04 35.1202L39.96 141.2C-12.04 193.2 -12.04 277.76 39.96 329.76L134.24 424.04C186.24 476.04 270.8 476.04 322.8 424.04L428.88 317.96C474.36 272.48 474.36 198.44 428.88 152.96C405.8 129.88 375.44 118.52 345.12 118.84C345.44 88.5602 334.08 58.1602 311 35.0802C265.52 -10.3998 191.48 -10.3998 146 35.0802L146.04 35.1202Z" fill="#B771E5"/>
</svg>