<?xml version="1.0" encoding="UTF-8"?>
<svg id="Layer_1" xmlns="http://www.w3.org/2000/svg" version="1.1" viewBox="0 0 35 34">
  <!-- Generator: Adobe Illustrator 29.1.0, SVG Export Plug-In . SVG Version: 2.1.0 Build 142)  -->
  <defs>
    <style>
      .st0 {
        fill: #eeff98;
      }
    </style>
  </defs>
  <path class="st0" d="M6.6,11.1H1.7c-.8,0-1.4.6-1.4,1.2v4.4c0,.3.1.6.4.9l6.1,5.5c.3.2.6.4,1,.4h4.9c.8,0,1.4-.6,1.4-1.2v-5l-6.5-5.8c-.3-.2-.6-.4-1-.4h0Z"/>
  <path class="st0" d="M20.4,11.1h-4.9c-.8,0-1.4.6-1.4,1.2v5l6.5,5.8c.3.2.6.4,1,.4h4.9c.8,0,1.4-.6,1.4-1.2v-5l-6.5-5.8c-.3-.2-.6-.4-1-.4h0Z"/>
  <path class="st0" d="M29.2,11.1h4.1c.8,0,1.4.6,1.4,1.2v3.7c0,.7-.6,1.2-1.4,1.2h-5.5v-5c0-.7.6-1.2,1.4-1.2Z"/>
</svg>