<?xml version="1.0" encoding="UTF-8"?>
<svg width="128px" height="128px" viewBox="0 0 128 128" version="1.1" xmlns="http://www.w3.org/2000/svg" xmlns:xlink="http://www.w3.org/1999/xlink">
    <title>画板</title>
    <defs>
        <rect id="path-1" x="0" y="0" width="128" height="128"></rect>
        <rect id="path-3" x="0" y="0" width="128" height="128"></rect>
    </defs>
    <g id="画板" stroke="none" stroke-width="1" fill="none" fill-rule="evenodd">
        <g id="logo-128px">
            <mask id="mask-2" fill="white">
                <use xlink:href="#path-1"></use>
            </mask>
            <use id="蒙版" fill-opacity="0" fill="#FFFFFF" xlink:href="#path-1"></use>
            <g id="编组" mask="url(#mask-2)">
                <g transform="translate(0.000000, -7.000000)" id="icn-metamask">
                    <mask id="mask-4" fill="white">
                        <use xlink:href="#path-3"></use>
                    </mask>
                    <use id="矩形" fill-opacity="0" fill="#D8D8D8" xlink:href="#path-3"></use>
                    <g id="编组-2" mask="url(#mask-4)" fill-rule="nonzero" stroke-linecap="round" stroke-linejoin="round" stroke-width="1.77777778">
                        <g transform="translate(7.460417, 11.347551)" id="路径">
                            <polygon stroke="#E2761B" fill="#E2761B" points="107.447174 4.07377835e-13 63.324152 32.7707307 71.4835357 13.4364729"></polygon>
                            <polygon stroke="#E4761B" fill="#E4761B" points="5.58750492 6.25277607e-13 49.3556543 33.0811544 41.5952513 13.4364729"></polygon>
                            <polygon stroke="#E4761B" fill="#E4761B" points="91.5717609 75.9624818 79.8204128 93.9662981 104.964164 100.883987 112.192087 76.3614625"></polygon>
                            <polygon stroke="#E4761B" fill="#E4761B" points="0.931247976 76.3614625 8.11507826 100.883987 33.258526 93.9662981 21.5071778 75.9624818"></polygon>
                            <polygon stroke="#E4761B" fill="#E4761B" points="31.8393378 45.5420966 24.8328643 56.1404966 49.7990083 57.2490714 48.9119209 30.420499"></polygon>
                            <polygon stroke="#E4761B" fill="#E4761B" points="81.1948483 45.5420966 63.9006261 30.1100753 63.324152 57.2490714 88.2456572 56.1404966"></polygon>
                            <polygon stroke="#E4761B" fill="#E4761B" points="33.2585639 93.9662981 48.2470794 86.6496284 35.2984098 76.5389559"></polygon>
                            <polygon stroke="#E4761B" fill="#E4761B" points="64.7877135 86.6496284 79.8204128 93.9662981 77.7363831 76.5389559"></polygon>
                            <polygon stroke="#D7C1B3" fill="#D7C1B3" points="79.8204128 93.9662981 64.7877135 86.6496284 65.985035 96.4496877 65.851915 100.573753"></polygon>
                            <polygon stroke="#D7C1B3" fill="#D7C1B3" points="33.2585639 93.9662981 47.2272513 100.573753 47.1385046 96.4496877 48.2470794 86.6496284"></polygon>
                            <polygon stroke="#233447" fill="#233447" points="47.4487387 70.064621 34.9435369 66.3839099 43.7680276 62.3485914"></polygon>
                            <polygon stroke="#233447" fill="#233447" points="65.585675 70.064621 69.2663861 62.3485914 78.1353639 66.3839099"></polygon>
                            <polygon stroke="#CD6116" fill="#CD6116" points="33.258526 93.9662981 35.3870427 75.9624818 21.5071778 76.3614625"></polygon>
                            <polygon stroke="#CD6116" fill="#CD6116" points="77.6920098 75.9624818 79.8204128 93.9662981 91.5717609 76.3614625"></polygon>
                            <polygon stroke="#CD6116" fill="#CD6116" points="88.2456572 56.1401173 63.324152 57.2490714 65.6300483 70.064621 69.3107594 62.3485914 78.179358 66.3839099"></polygon>
                            <polygon stroke="#CD6116" fill="#CD6116" points="34.9406925 66.3839099 43.8097461 62.3485914 47.4457046 70.064621 49.7959743 57.2490714 24.8300957 56.1401173"></polygon>
                            <polygon stroke="#E4751F" fill="#E4751F" points="24.8328643 56.1401173 35.2982202 76.5389559 34.9434611 66.3839099"></polygon>
                            <polygon stroke="#E4751F" fill="#E4751F" points="78.1797372 66.3839099 77.7363831 76.5389559 88.2460365 56.1401173"></polygon>
                            <polygon stroke="#E4751F" fill="#E4751F" points="49.7990083 57.2490714 47.4487387 70.064621 50.3754824 85.186067 51.0407031 65.2753351"></polygon>
                            <polygon stroke="#E4751F" fill="#E4751F" points="63.324152 57.2490714 62.1268306 65.2309618 62.6589313 85.186067 65.6300483 70.064621"></polygon>
                            <polygon stroke="#F6851B" fill="#F6851B" points="65.6300483 70.064621 62.6589313 85.186067 64.7877135 86.6496284 77.7363831 76.5389559 78.1797372 66.3839099"></polygon>
                            <polygon stroke="#F6851B" fill="#F6851B" points="34.9435369 66.3839099 35.298296 76.5389559 48.2470794 86.6496284 50.3754824 85.186067 47.4487387 70.064621"></polygon>
                            <polygon stroke="#C0AD9E" fill="#C0AD9E" points="65.851915 100.573753 65.985035 96.4496877 64.8764602 95.4742329 48.1583328 95.4742329 47.1385046 96.4496877 47.2272513 100.573753 33.2585639 93.9662981 38.1364069 97.9572433 48.0252128 104.830938 65.0092009 104.830938 74.9423802 97.9572433 79.8204128 93.9662981"></polygon>
                            <polygon stroke="#161616" fill="#161616" points="64.7873343 86.6496284 62.6589313 85.186067 50.3754824 85.186067 48.2467002 86.6496284 47.1381254 96.4496877 48.1579535 95.4742329 64.8760809 95.4742329 65.9846557 96.4496877"></polygon>
                            <polygon stroke="#763D16" fill="#763D16" points="109.309716 34.8993233 113.079174 16.8066465 107.447174 -6.94752897e-14 64.7877135 31.6621179 81.1952276 45.5420966 104.38769 52.3266655 109.531583 46.3400581 107.314434 44.7437559 110.862025 41.5067781 108.112395 39.3779959 111.659986 36.6731188"></polygon>
                            <polygon stroke="#763D16" fill="#763D16" points="2.14741805e-13 16.8066465 3.76929811 34.8993233 1.37468549 36.6731188 4.92224626 39.3779959 2.21723269 41.5067781 5.76480863 44.7437559 3.54758315 46.3400581 8.64721692 52.3266655 31.8394895 45.5420966 48.2470794 31.6621179 5.58742907 -6.94752897e-14"></polygon>
                            <polygon stroke="#F6851B" fill="#F6851B" points="104.38769 52.3266655 81.1952276 45.5420966 88.2460365 56.1401173 77.7363831 76.5389559 91.5717609 76.3614625 112.192087 76.3614625"></polygon>
                            <polygon stroke="#F6851B" fill="#F6851B" points="31.8394895 45.5420966 8.64721692 52.3266655 0.931247976 76.3614625 21.5071778 76.3614625 35.2983719 76.5389559 24.833054 56.1401173"></polygon>
                            <polygon stroke="#F6851B" fill="#F6851B" points="63.324152 57.2490714 64.7877135 31.6621559 71.5279091 13.4364729 41.5952513 13.4364729 48.2470794 31.6621559 49.7990083 57.2490714 50.3311091 65.3197084 50.3754824 85.186067 62.6589313 85.186067 62.747678 65.3197084"></polygon>
                        </g>
                    </g>
                </g>
            </g>
            <g id="编组" mask="url(#mask-2)">
                <g transform="translate(28.000000, 102.000000)" id="编组-2">
                    <rect id="矩形" fill="#3A5EFB" x="0" y="0" width="72" height="24" rx="12"></rect>
                    <path d="M36.4527668,4.29077229 L36.4527668,12.8757328 C36.4486904,15.3590185 37.9410277,17.5973665 40.2286289,18.5398953 L40.2286289,18.5398953 C42.5165444,19.4830549 45.1449056,18.9433405 46.8801268,17.1745219 L46.8801268,17.1745219 L53.5335099,10.4948068 C54.662307,9.36254214 56.4308344,9.1870009 57.7580547,10.0773246 L57.7580547,10.0773246 C59.085275,10.9671752 59.6018352,12.6738525 58.9922691,14.1546762 L58.9922691,14.1546762 C58.3822316,15.6354999 56.8157409,16.4778771 55.2500356,16.1668552 L55.2500356,16.1668552 C53.6843304,15.8561488 52.555062,14.478631 52.5528625,12.8757328 L52.5528625,12.8757328 L52.5528625,12.7784202 L50.2324264,15.1079298 C51.3027806,17.8438813 54.1598863,19.4287995 57.0367871,18.8834072 L57.0367871,18.8834072 C59.913688,18.3373841 61.9975245,15.8149841 61.9998631,12.8757328 L61.9998631,12.8757328 C62.016377,10.3935512 60.5373936,8.14731725 58.2562337,7.18948977 L58.2562337,7.18948977 C55.9749166,6.23197773 53.3432562,6.75339674 51.5949953,8.5088092 L51.5949953,8.5088092 L48.5162149,11.5994707 C48.1085283,9.61268447 46.7459594,7.95773902 44.8787703,7.18160382 L44.8787703,7.18160382 C43.0115812,6.40546863 40.8826557,6.60876842 39.1948802,7.72478806 L39.1948802,7.72478806 L39.1948802,4.29077229 C39.148063,3.56494945 38.5480802,3 37.8236705,3 L37.8236705,3 C37.0992609,3 36.499121,3.56494945 36.4527668,4.29077229 M39.1948802,12.8757328 C39.1948802,11.0173299 40.6957012,9.51048256 42.5471798,9.51048256 L42.5471798,9.51048256 C44.3985013,9.51048256 45.8993223,11.0173299 45.8993223,12.8757328 L45.8993223,12.8757328 C45.8993223,14.7341358 44.3985013,16.2412986 42.5471798,16.2412986 L42.5471798,16.2412986 C40.6957012,16.2412986 39.1948802,14.7341358 39.1948802,12.8757328 M25.1412383,8.52600057 L18.4537635,15.2568166 C17.1433533,16.5676192 15.0229115,16.5654111 13.7156435,15.2512964 L13.7156435,15.2512964 C12.4082183,13.9376549 12.4082183,11.8084484 13.7156435,10.4948068 L13.7156435,10.4948068 C15.0229115,9.18100757 17.1433533,9.17879951 18.4537635,10.4892867 L18.4537635,10.4892867 C18.7935809,10.8649733 19.3110837,11.0226923 19.8012503,10.9006178 L19.8012503,10.9006178 C20.291574,10.7788588 20.6755378,10.3967056 20.8013787,9.90525322 L20.8013787,9.90525322 C20.9272195,9.41458941 20.7745138,8.89348584 20.4035896,8.54902754 L20.4035896,8.54902754 C18.0232966,6.15990015 14.1648057,6.16053102 11.7849841,8.5495007 L11.7849841,8.5495007 C9.40500531,10.9389435 9.40500531,14.8129953 11.7849841,17.2025959 L11.7849841,17.2025959 C14.1648057,19.5912501 18.0232966,19.5921964 20.4035896,17.2027536 L20.4035896,17.2027536 L27.0797529,10.4948068 C28.20855,9.36254214 29.9772345,9.1870009 31.3044548,10.0773246 L31.3044548,10.0773246 C32.6316751,10.9671752 33.1482353,12.6738525 32.538355,14.1546762 L32.538355,14.1546762 C31.9286317,15.6354999 30.3619838,16.4778771 28.7962786,16.1668552 L28.7962786,16.1668552 C27.2307305,15.8561488 26.1014621,14.478631 26.0992626,12.8757328 L26.0992626,12.8757328 L26.0992626,12.7784202 L23.7786694,15.1079298 C24.843682,17.8489283 27.702673,19.4395244 30.5824017,18.8930281 L30.5824017,18.8930281 C33.4622876,18.3471626 35.5456527,15.8186116 35.5403966,12.8757328 L35.5403966,12.8757328 C35.5533508,10.3967056 34.0732677,8.15457233 31.7935217,7.20100326 L31.7935217,7.20100326 C31.0365913,6.88461895 30.2416417,6.73100064 29.4529762,6.73100064 L29.4529762,6.73100064 C27.866376,6.73100064 26.3064837,7.35351753 25.1412383,8.52600057" id="Fill-19" fill="#FFFFFF"></path>
                </g>
            </g>
        </g>
    </g>
</svg>
