<svg width="1316" height="1264" viewBox="0 0 1316 1264" fill="none" xmlns="http://www.w3.org/2000/svg">
<path d="M1229.81 1220.25L946.346 1136.22L732.573 1263.43L583.427 1263.37L369.53 1136.22L86.1888 1220.25L6.10352e-05 930.603L86.1888 609.141L6.10352e-05 337.353L86.1888 0.506348L528.933 263.83H787.067L1229.81 0.506348L1316 337.353L1229.81 609.141L1316 930.603L1229.81 1220.25Z" fill="#FF5C16"/>
<path d="M86.2504 0.506348L528.995 264.015L511.386 444.857L86.2504 0.506348Z" fill="#FF5C16"/>
<path d="M369.593 930.727L564.398 1078.45L369.593 1136.22V930.727Z" fill="#FF5C16"/>
<path d="M548.827 686.494L511.386 444.98L271.726 609.202L271.602 609.14V609.264L272.344 778.305L369.53 686.494H369.592H548.827Z" fill="#FF5C16"/>
<path d="M1229.81 0.506348L787.066 264.015L804.613 444.857L1229.81 0.506348Z" fill="#FF5C16"/>
<path d="M946.469 930.727L751.664 1078.45L946.469 1136.22V930.727Z" fill="#FF5C16"/>
<path d="M1044.4 609.264H1044.46H1044.4V609.14L1044.34 609.202L804.675 444.98L767.234 686.494H946.469L1043.72 778.305L1044.4 609.264Z" fill="#FF5C16"/>
<path d="M369.53 1136.22L86.1888 1220.25L6.10352e-05 930.727H369.53V1136.22Z" fill="#E34807"/>
<path d="M548.766 686.433L602.889 1035.57L527.883 841.449L272.221 778.305L369.469 686.433H548.704H548.766Z" fill="#E34807"/>
<path d="M946.469 1136.22L1229.81 1220.25L1316 930.727H946.469V1136.22Z" fill="#E34807"/>
<path d="M767.234 686.433L713.111 1035.57L788.117 841.449L1043.78 778.305L946.469 686.433H767.234Z" fill="#E34807"/>
<path d="M6.10352e-05 930.602L86.1888 609.139H271.541L272.221 778.242L527.883 841.386L602.889 1035.51L564.335 1078.27L369.53 930.54H6.10352e-05V930.602Z" fill="#FF8D5D"/>
<path d="M1316 930.602L1229.81 609.139H1044.46L1043.78 778.242L788.117 841.386L713.111 1035.51L751.664 1078.27L946.469 930.54H1316V930.602Z" fill="#FF8D5D"/>
<path d="M787.067 263.831H658H528.933L511.387 444.672L602.889 1035.33H713.111L804.675 444.672L787.067 263.831Z" fill="#FF8D5D"/>
<path d="M86.1888 0.506348L6.10352e-05 337.353L86.1888 609.141H271.541L511.325 444.857L86.1888 0.506348Z" fill="#661800"/>
<path d="M495.199 756.557H411.234L365.514 801.165L527.944 841.263L495.199 756.495V756.557Z" fill="#661800"/>
<path d="M1229.81 0.506348L1316 337.353L1229.81 609.141H1044.46L804.675 444.857L1229.81 0.506348Z" fill="#661800"/>
<path d="M820.925 756.557H905.013L950.733 801.227L788.118 841.386L820.925 756.495V756.557Z" fill="#661800"/>
<path d="M732.512 1148.21L751.665 1078.39L713.112 1035.64H602.827L564.274 1078.39L583.427 1148.21" fill="#661800"/>
<path d="M732.511 1148.2V1263.49H583.426V1148.2H732.511Z" fill="#C0C4CD"/>
<path d="M369.593 1136.1L583.551 1263.44V1148.15L564.398 1078.33L369.593 1136.1Z" fill="#E7EBF6"/>
<path d="M946.47 1136.1L732.512 1263.44V1148.15L751.665 1078.33L946.47 1136.1Z" fill="#E7EBF6"/>
</svg>
