<svg width="80" height="80" viewBox="0 0 80 80" fill="none" xmlns="http://www.w3.org/2000/svg">
<rect width="80" height="80" rx="40" fill="#222325"/>
<g clip-path="url(#clip0_5157_14579)">
<path d="M59.1837 59.3528L49.9217 56.6072L42.9366 60.764L38.0634 60.7619L31.0743 56.6072L21.8162 59.3528L19 49.8888L21.8162 39.385L19 30.5044L21.8162 19.498L36.2828 28.1021H44.7172L59.1837 19.498L62 30.5044L59.1837 39.385L62 49.8888L59.1837 59.3528Z" fill="#FF5C16"/>
<path d="M21.8184 19.498L36.285 28.1081L35.7096 34.0171L21.8184 19.498Z" fill="#FF5C16"/>
<path d="M31.0771 49.8926L37.4424 54.7195L31.0771 56.6071V49.8926Z" fill="#FF5C16"/>
<path d="M36.9332 41.9109L35.7099 34.0195L27.879 39.3854L27.875 39.3835V39.3874L27.8992 44.9108L31.0748 41.9109H31.0768H36.9332Z" fill="#FF5C16"/>
<path d="M59.1833 19.498L44.7168 28.1081L45.2902 34.0171L59.1833 19.498Z" fill="#FF5C16"/>
<path d="M49.9258 49.8926L43.5605 54.7195L49.9258 56.6071V49.8926Z" fill="#FF5C16"/>
<path d="M53.1255 39.3874V39.3835L53.1235 39.3854L45.2926 34.0195L44.0693 41.9109H49.9258L53.1034 44.9108L53.1255 39.3874Z" fill="#FF5C16"/>
<path d="M31.0743 56.6071L21.8162 59.3526L19 49.8926H31.0743V56.6071Z" fill="#E34807"/>
<path d="M36.9316 41.9102L38.7 53.3183L36.2492 46.9753L27.8955 44.9122L31.0731 41.9102H36.9295H36.9316Z" fill="#E34807"/>
<path d="M49.9258 56.6071L59.1839 59.3526L62.0002 49.8926H49.9258V56.6071Z" fill="#E34807"/>
<path d="M44.0693 41.9102L42.3008 53.3183L44.7517 46.9753L53.1053 44.9122L49.9258 41.9102H44.0693Z" fill="#E34807"/>
<path d="M19 49.8884L21.8162 39.3848H27.8725L27.8947 44.9101L36.2484 46.9733L38.6993 53.3163L37.4395 54.7133L31.0743 49.8865H19V49.8884Z" fill="#FF8D5D"/>
<path d="M62.0001 49.8884L59.1838 39.3848H53.1276L53.1053 44.9101L44.7517 46.9733L42.3008 53.3163L43.5606 54.7133L49.9258 49.8865H62.0001V49.8884Z" fill="#FF8D5D"/>
<path d="M44.7167 28.1035H40.4996H36.2824L35.709 34.0125L38.6988 53.312H42.3003L45.2921 34.0125L44.7167 28.1035Z" fill="#FF8D5D"/>
<path d="M21.8162 19.498L19 30.5044L21.8162 39.385H27.8725L35.7075 34.0171L21.8162 19.498Z" fill="#661800"/>
<path d="M35.1798 44.2013H32.4363L30.9424 45.6588L36.2498 46.969L35.1798 44.1992V44.2013Z" fill="#661800"/>
<path d="M59.1842 19.498L62.0003 30.5044L59.1842 39.385H53.1278L45.293 34.0171L59.1842 19.498Z" fill="#661800"/>
<path d="M45.823 44.2013H48.5706L50.0644 45.6609L44.751 46.9731L45.823 44.1992V44.2013Z" fill="#661800"/>
<path d="M42.9336 56.9985L43.5595 54.7173L42.2998 53.3203H38.6963L37.4365 54.7173L38.0624 56.9985" fill="#661800"/>
<path d="M42.9348 56.998V60.7651H38.0635V56.998H42.9348Z" fill="#C0C4CD"/>
<path d="M31.0771 56.6044L38.0682 60.7651V56.998L37.4424 54.7168L31.0771 56.6044Z" fill="#E7EBF6"/>
<path d="M49.9256 56.6044L42.9346 60.7651V56.998L43.5604 54.7168L49.9256 56.6044Z" fill="#E7EBF6"/>
</g>
<defs>
<clipPath id="clip0_5157_14579">
<rect width="43" height="41.7714" fill="white" transform="translate(19 19.1152)"/>
</clipPath>
</defs>
</svg>
