<svg id="Layer_1" data-name="Layer 1" xmlns="http://www.w3.org/2000/svg" viewBox="0 0 114.038 83.852">
  <defs>
    <style>
      .cls-1 {
        fill: #4c2e83;
      }

      .cls-2 {
        fill: #d41589;
      }
    </style>
  </defs>
  <path class="cls-1" d="M88.156,54.128V65.873a2.984,2.984,0,0,0,2.985,2.985h18.742V82.016a11.868,11.868,0,0,1-11.87,11.869H31.15A11.869,11.869,0,0,1,19.28,82.016V37.983A11.868,11.868,0,0,1,31.15,26.116H98.013a11.868,11.868,0,0,1,11.87,11.867V51.14H91.141A2.987,2.987,0,0,0,88.156,54.128Z" transform="translate(-2.981 -18.074)"/>
  <path class="cls-2" d="M114.19,52.56H92.511a2.682,2.682,0,0,0-2.827,2.508v9.868a2.68,2.68,0,0,0,2.827,2.5H114.19a2.681,2.681,0,0,0,2.829-2.5V55.068A2.683,2.683,0,0,0,114.19,52.56Zm-5.916,9.77a2.391,2.391,0,1,1,2.391-2.391A2.391,2.391,0,0,1,108.274,62.33Z" transform="translate(-2.981 -18.074)"/>
  <circle class="cls-2" cx="73.532" cy="55.928" r="9.679"/>
  <path class="cls-2" d="M41.629,50.712l16.909-9.826a.037.037,0,0,0-.016-.013.027.027,0,0,0-.016-.013,4.643,4.643,0,0,0-.769-.551A23.606,23.606,0,0,0,44.3,36.142a23.056,23.056,0,0,0-11.024,2.763A23.682,23.682,0,0,0,20.988,59.879a24.455,24.455,0,0,0,.155,2.763,23.682,23.682,0,0,0,9.536,16.577,23.021,23.021,0,0,0,13.624,4.4,23.6,23.6,0,0,0,11.88-3.185c.208-.118.416-.242.619-.371.2-.111.306-.177.306-.177l9.343,16.027c-.448.247-.893.487-1.338.713-29.732,15.424-50.608-7.718-50.608-7.718s-.055-.058-.161-.174A48.679,48.679,0,0,1,4.977,72.056a38.763,38.763,0,0,1,.991-27.2A42.453,42.453,0,0,1,24.792,23.519a43.2,43.2,0,0,1,15.5-5.242C57.658,16.8,68.664,23.6,75.407,31.04a45.308,45.308,0,0,1,9.531,16.579L67.926,57.526l-8.4,4.895L49.45,68.229l-3.411-6.188L40.3,51.489Z" transform="translate(-2.981 -18.074)"/>
</svg>
