<svg width="129" height="143" viewBox="0 0 129 143" fill="none" xmlns="http://www.w3.org/2000/svg">
<path d="M127.202 35.3542L66.0533 0.4374C65.5458 0.147887 64.9711 -0.00295216 64.3869 4.37733e-05C63.8027 0.00303971 63.2296 0.159765 62.7251 0.454467L1.91452 35.9487C1.41005 36.2439 0.99207 36.6666 0.702499 37.1743C0.412928 37.6821 0.261943 38.2571 0.264685 38.8416L0.375622 62.5224C0.380123 63.4014 0.731879 64.2429 1.35422 64.8637C1.97657 65.4844 2.81905 65.834 3.69805 65.8363L14.5073 65.9045C14.9476 65.9072 15.3841 65.8225 15.7914 65.6554C16.1988 65.4883 16.569 65.2421 16.8806 64.931C17.1922 64.6199 17.439 64.2501 17.6068 63.8431C17.7746 63.436 17.8601 62.9997 17.8582 62.5594L17.7928 48.843C17.7896 48.2588 17.9405 47.6841 18.2301 47.1767C18.5198 46.6694 18.938 46.2473 19.4426 45.9529L62.8219 20.6223C63.3278 20.3302 63.9017 20.1764 64.4859 20.1764C65.0701 20.1764 65.644 20.3302 66.15 20.6223L109.78 45.512C110.287 45.8022 110.709 46.2207 111.003 46.7254C111.298 47.2301 111.455 47.8035 111.458 48.3878L111.529 63.2307C111.528 64.1104 111.876 64.9546 112.496 65.5788C113.116 66.203 113.957 66.5564 114.837 66.5616L125.646 66.6327C126.087 66.6354 126.523 66.5507 126.931 66.3836C127.338 66.2165 127.708 65.9703 128.02 65.6592C128.331 65.3481 128.578 64.9783 128.746 64.5713C128.914 64.1642 128.999 63.7279 128.997 63.2876L128.878 38.2385C128.877 37.6528 128.722 37.0776 128.428 36.5711C128.134 36.0646 127.711 35.6448 127.202 35.3542V35.3542Z" fill="#001870"/>
<path d="M125.319 77.149L114.51 77.0779C114.07 77.0752 113.634 77.1599 113.227 77.3268C112.82 77.4938 112.45 77.7398 112.139 78.0506C111.827 78.3614 111.581 78.7309 111.413 79.1376C111.245 79.5443 111.16 79.9803 111.162 80.4202L111.222 94.1537C111.224 94.7378 111.073 95.3124 110.784 95.8197C110.494 96.327 110.076 96.7492 109.572 97.0437L66.1755 122.363C65.671 122.656 65.0983 122.812 64.5147 122.815C63.9311 122.817 63.3571 122.666 62.8502 122.377L19.2178 97.4619C18.7103 97.1726 18.2881 96.7547 17.9934 96.2504C17.6988 95.746 17.5423 95.173 17.5395 94.5889L17.4684 79.7432C17.4646 78.8677 17.1158 78.029 16.4975 77.4091C15.8792 76.7892 15.0414 76.4382 14.1659 76.4322L3.35659 76.3639C2.91595 76.3601 2.47895 76.4439 2.07094 76.6103C1.66293 76.7768 1.29204 77.0226 0.979784 77.3336C0.667531 77.6445 0.420134 78.0143 0.251947 78.4216C0.0837597 78.8289 -0.00186837 79.2656 3.09162e-05 79.7062L0.119502 104.758C0.122273 105.342 0.278848 105.915 0.573468 106.42C0.868088 106.924 1.29036 107.342 1.79778 107.631L62.9554 142.548C63.4624 142.837 64.0366 142.988 64.6204 142.985C65.2041 142.982 65.7768 142.826 66.2807 142.531L127.086 107.034C127.59 106.739 128.008 106.317 128.298 105.81C128.587 105.302 128.738 104.728 128.735 104.144L128.625 80.46C128.62 79.5842 128.271 78.7455 127.652 78.1257C127.033 77.5059 126.195 77.155 125.319 77.149V77.149Z" fill="#001870"/>
<path d="M33.2471 51.3745L62.8873 34.2618C63.3775 33.9781 63.9338 33.8287 64.5001 33.8287C65.0665 33.8287 65.6228 33.9781 66.113 34.2618L95.7531 51.3745C96.2438 51.6572 96.6514 52.0643 96.9345 52.5547C97.2177 53.0451 97.3665 53.6016 97.366 54.1679V88.3934C97.3663 88.9593 97.2174 89.5153 96.9342 90.0052C96.651 90.4951 96.2436 90.9017 95.7531 91.1839L66.113 108.297C65.6228 108.58 65.0665 108.73 64.5001 108.73C63.9338 108.73 63.3775 108.58 62.8873 108.297L33.2471 91.1839C32.7566 90.9017 32.3492 90.4951 32.0661 90.0052C31.7829 89.5153 31.6339 88.9593 31.6343 88.3934V54.1679C31.6337 53.6016 31.7826 53.0451 32.0657 52.5547C32.3489 52.0643 32.7564 51.6572 33.2471 51.3745V51.3745Z" fill="#10D8E2"/>
<path d="M97.2832 53.3593C97.2068 53.6561 97.0718 53.9347 96.8862 54.1788C96.7006 54.4228 96.468 54.6274 96.2023 54.7804L65.649 72.4031C65.2976 72.605 64.8995 72.7118 64.4941 72.7129V109.129C64.8997 109.13 65.2982 109.023 65.649 108.819L96.2023 91.1968C96.5524 90.9951 96.8435 90.7053 97.0466 90.3562C97.2498 90.0071 97.3578 89.6109 97.36 89.2071V53.9618C97.361 53.7585 97.3351 53.5559 97.2832 53.3593V53.3593Z" fill="#001870"/>
<path d="M63.3424 72.4044L32.7892 54.7682C32.5238 54.6149 32.2918 54.4101 32.1066 54.1658C31.9215 53.9216 31.787 53.6429 31.7111 53.3459C31.6607 53.5314 31.6349 53.7227 31.6343 53.9149V89.1872C31.6364 89.591 31.7442 89.9872 31.9468 90.3364C32.1493 90.6857 32.4398 90.976 32.7892 91.1784L63.3424 108.815C63.6941 109.018 64.0936 109.125 64.5001 109.125V72.7144C64.0938 72.7137 63.6947 72.6068 63.3424 72.4044Z" fill="#008DC9"/>
</svg>
