<svg width="158" height="129" viewBox="0 0 158 129" fill="none" xmlns="http://www.w3.org/2000/svg">
<path d="M128.133 1L75.8844 39.6606L85.6003 16.8766L128.133 1Z" fill="#E17726" stroke="#E17726" stroke-width="0.75" stroke-linecap="round" stroke-linejoin="round"/>
<path d="M7.61512 1L59.3988 40.0214L50.148 16.8766L7.61512 1Z" fill="#E27625" stroke="#E27625" stroke-width="0.75" stroke-linecap="round" stroke-linejoin="round"/>
<path d="M109.322 90.641L95.42 111.879L125.188 120.075L133.715 91.1049L109.322 90.641Z" fill="#E27625" stroke="#E27625" stroke-width="0.75" stroke-linecap="round" stroke-linejoin="round"/>
<path d="M2.08499 91.1049L10.5606 120.075L40.2767 111.879L26.4264 90.641L2.08499 91.1049Z" fill="#E27625" stroke="#E27625" stroke-width="0.75" stroke-linecap="round" stroke-linejoin="round"/>
<path d="M38.6748 54.7639L30.406 67.2384L59.8637 68.5786L58.8818 36.877L38.6748 54.7639Z" fill="#E27625" stroke="#E27625" stroke-width="0.75" stroke-linecap="round" stroke-linejoin="round"/>
<path d="M97.0738 54.7639L76.5567 36.5161L75.8848 68.5786L105.343 67.2384L97.0738 54.7639Z" fill="#E27625" stroke="#E27625" stroke-width="0.75" stroke-linecap="round" stroke-linejoin="round"/>
<path d="M40.2766 111.879L58.1063 103.27L42.7573 91.3112L40.2766 111.879Z" fill="#E27625" stroke="#E27625" stroke-width="0.75" stroke-linecap="round" stroke-linejoin="round"/>
<path d="M77.6414 103.27L95.4195 111.879L92.9905 91.3112L77.6414 103.27Z" fill="#E27625" stroke="#E27625" stroke-width="0.75" stroke-linecap="round" stroke-linejoin="round"/>
<path d="M95.4198 111.879L77.6417 103.27L79.0888 114.817L78.9337 119.714L95.4198 111.879Z" fill="#D5BFB2" stroke="#D5BFB2" stroke-width="0.75" stroke-linecap="round" stroke-linejoin="round"/>
<path d="M40.2772 111.879L56.8149 119.714L56.7115 114.817L58.1069 103.27L40.2772 111.879Z" fill="#D5BFB2" stroke="#D5BFB2" stroke-width="0.75" stroke-linecap="round" stroke-linejoin="round"/>
<path d="M57.1248 83.682L42.3442 79.352L52.7837 74.5581L57.1248 83.682Z" fill="#233447" stroke="#233447" stroke-width="0.75" stroke-linecap="round" stroke-linejoin="round"/>
<path d="M78.6233 83.682L82.9644 74.5581L93.4555 79.352L78.6233 83.682Z" fill="#233447" stroke="#233447" stroke-width="0.75" stroke-linecap="round" stroke-linejoin="round"/>
<path d="M40.2768 111.879L42.8609 90.641L26.4265 91.1049L40.2768 111.879Z" fill="#CC6228" stroke="#CC6228" stroke-width="0.75" stroke-linecap="round" stroke-linejoin="round"/>
<path d="M92.8869 90.641L95.4193 111.879L109.321 91.1049L92.8869 90.641Z" fill="#CC6228" stroke="#CC6228" stroke-width="0.75" stroke-linecap="round" stroke-linejoin="round"/>
<path d="M105.342 67.2385L75.8843 68.5788L78.6233 83.6821L82.9645 74.5583L93.4556 79.3522L105.342 67.2385Z" fill="#CC6228" stroke="#CC6228" stroke-width="0.75" stroke-linecap="round" stroke-linejoin="round"/>
<path d="M42.3441 79.3522L52.7835 74.5583L57.1246 83.6821L59.8637 68.5788L30.4059 67.2385L42.3441 79.3522Z" fill="#CC6228" stroke="#CC6228" stroke-width="0.75" stroke-linecap="round" stroke-linejoin="round"/>
<path d="M30.406 67.2385L42.7576 91.3112L42.3442 79.3522L30.406 67.2385Z" fill="#E27525" stroke="#E27525" stroke-width="0.75" stroke-linecap="round" stroke-linejoin="round"/>
<path d="M93.4563 79.3522L92.9912 91.3112L105.343 67.2385L93.4563 79.3522Z" fill="#E27525" stroke="#E27525" stroke-width="0.75" stroke-linecap="round" stroke-linejoin="round"/>
<path d="M59.864 68.5789L57.1249 83.6823L60.5875 101.518L61.3627 78.012L59.864 68.5789Z" fill="#E27525" stroke="#E27525" stroke-width="0.75" stroke-linecap="round" stroke-linejoin="round"/>
<path d="M75.8848 68.5789L74.4378 77.9605L75.1613 101.518L78.6239 83.6823L75.8848 68.5789Z" fill="#E27525" stroke="#E27525" stroke-width="0.75" stroke-linecap="round" stroke-linejoin="round"/>
<path d="M78.624 83.682L75.1614 101.517L77.6421 103.27L92.9912 91.311L93.4563 79.3521L78.624 83.682Z" fill="#F5841F" stroke="#F5841F" stroke-width="0.75" stroke-linecap="round" stroke-linejoin="round"/>
<path d="M42.3442 79.3521L42.7577 91.311L58.1067 103.27L60.5874 101.517L57.1248 83.682L42.3442 79.3521Z" fill="#F5841F" stroke="#F5841F" stroke-width="0.75" stroke-linecap="round" stroke-linejoin="round"/>
<path d="M78.9341 119.714L79.0891 114.817L77.7454 113.683H58.0035L56.7115 114.817L56.8149 119.714L40.2772 111.879L46.0654 116.621L57.7968 124.714H77.9005L89.6836 116.621L95.4201 111.879L78.9341 119.714Z" fill="#C0AC9D" stroke="#C0AC9D" stroke-width="0.75" stroke-linecap="round" stroke-linejoin="round"/>
<path d="M77.6417 103.27L75.161 101.517H60.5871L58.1065 103.27L56.7111 114.817L58.0031 113.683H77.745L79.0887 114.817L77.6417 103.27Z" fill="#161616" stroke="#161616" stroke-width="0.75" stroke-linecap="round" stroke-linejoin="round"/>
<path d="M130.356 42.1864L134.749 20.8458L128.133 1L77.6418 38.3719L97.0736 54.764L124.516 62.7538L130.562 55.6918L127.927 53.7846L132.113 49.9701L128.909 47.4958L133.095 44.2998L130.356 42.1864Z" fill="#763E1A" stroke="#763E1A" stroke-width="0.75" stroke-linecap="round" stroke-linejoin="round"/>
<path d="M1 20.8458L5.44451 42.1864L2.60209 44.2998L6.83988 47.4958L3.6357 49.9701L7.8218 53.7846L5.18611 55.6918L11.2327 62.7538L38.675 54.764L58.1068 38.3719L7.61508 1L1 20.8458Z" fill="#763E1A" stroke="#763E1A" stroke-width="0.75" stroke-linecap="round" stroke-linejoin="round"/>
<path d="M124.516 62.7538L97.0739 54.7639L105.343 67.2384L92.9911 91.311L109.322 91.1048H133.715L124.516 62.7538Z" fill="#F5841F" stroke="#F5841F" stroke-width="0.75" stroke-linecap="round" stroke-linejoin="round"/>
<path d="M38.6747 54.7639L11.2325 62.7538L2.08507 91.1048H26.4265L42.7575 91.311L30.4059 67.2384L38.6747 54.7639Z" fill="#F5841F" stroke="#F5841F" stroke-width="0.75" stroke-linecap="round" stroke-linejoin="round"/>
<path d="M75.8851 68.5787L77.6423 38.3719L85.601 16.8766H50.1483L58.1071 38.3719L59.8642 68.5787L60.5361 78.0634L60.5878 101.517H75.1616L75.2133 78.0634L75.8851 68.5787Z" fill="#F5841F" stroke="#F5841F" stroke-width="0.75" stroke-linecap="round" stroke-linejoin="round"/>
<path d="M149.801 129H91.7084C87.3698 129 83.8491 125.479 83.8491 121.141V104.024C83.8491 99.6853 87.3698 96.1646 91.7084 96.1646H149.801C154.139 96.1646 157.66 99.6853 157.66 104.024V121.141C157.66 125.485 154.139 129 149.801 129Z" fill="#037DD6"/>
<path d="M96.0903 105.317H101.808C102.42 105.317 103.007 105.436 103.556 105.673C104.106 105.91 104.586 106.229 105.005 106.634C105.417 107.04 105.741 107.521 105.978 108.07C106.216 108.62 106.334 109.206 106.334 109.837C106.334 110.38 106.234 110.867 106.035 111.304C105.835 111.741 105.573 112.122 105.242 112.452C105.885 112.783 106.403 113.258 106.809 113.888C107.208 114.519 107.408 115.237 107.408 116.054C107.408 116.685 107.289 117.265 107.052 117.808C106.815 118.352 106.49 118.826 106.078 119.232C105.666 119.638 105.173 119.956 104.611 120.187C104.049 120.418 103.438 120.53 102.782 120.53H96.0965V105.317H96.0903ZM101.421 111.466C101.877 111.466 102.258 111.323 102.557 111.029C102.857 110.736 103.007 110.386 103.007 109.968C103.007 109.556 102.857 109.194 102.557 108.888C102.258 108.582 101.877 108.426 101.421 108.426H99.4924V111.466H101.421ZM102.495 117.396C102.951 117.396 103.332 117.253 103.631 116.959C103.931 116.666 104.081 116.304 104.081 115.88C104.081 115.468 103.925 115.105 103.619 114.806C103.313 114.506 102.932 114.356 102.47 114.356H99.4924V117.396H102.495Z" fill="#FCFCFC"/>
<path d="M109.693 105.316H119.331V108.575H113.095V111.297H118.045V114.555H113.095V117.277H119.331V120.536H109.693V105.316Z" fill="#FCFCFC"/>
<path d="M124.663 108.568H120.786V105.31H132.01V108.568H128.09V120.523H124.663V108.568Z" fill="#FCFCFC"/>
<path d="M137.428 105.316H140.512L147.023 120.523H143.465L142.117 117.308H135.818L134.47 120.523H130.911L137.428 105.316ZM137.048 114.356H140.881L138.977 109.792L137.048 114.356Z" fill="#FCFCFC"/>
</svg>
