<svg width="35" height="33" viewBox="0 0 35 33" fill="none" xmlns="http://www.w3.org/2000/svg">
<g clip-path="url(#clip0)">
<path d="M19.5938 17.6064L20.1705 9.73742L22.5185 4.13232H12.4812L14.8292 9.73742L15.4059 17.6064L15.5844 20.0884L15.5981 26.1981H19.4016L19.4153 20.0884L19.5938 17.6064Z" fill="url(#paint0_linear)"/>
<path d="M32.3226 16.0925L25.1413 14.006L27.3108 17.2654L24.0703 23.5387L28.3543 23.4842H34.7255L32.3226 16.0925Z" fill="url(#paint1_linear)"/>
<path d="M9.85875 14.006L2.6775 16.0925L0.28833 23.4842H6.65946L10.9298 23.5387L7.68927 17.2654L9.85875 14.006Z" fill="url(#paint2_linear)"/>
<path d="M20.3078 21.5476L19.4016 26.198L20.0607 26.6481L24.0701 23.5387L24.1937 20.4156L20.3078 21.5476Z" fill="url(#paint3_linear)"/>
<path d="M10.8198 20.4156L10.9297 23.5387L14.9391 26.6481L15.5982 26.198L14.6919 21.5476L10.8198 20.4156Z" fill="url(#paint4_linear)"/>
<path d="M33.8466 10.7329L35 5.16869L33.2699 0L20.0608 9.73731L24.9902 14.1286L32.3225 16.0925L33.9015 14.2514L33.215 13.7604L34.3134 12.7649L33.4759 12.1103L34.5743 11.2784L33.8466 10.7329Z" fill="url(#paint5_linear)"/>
<path d="M0 5.16869L1.16712 10.7329L0.425657 11.2784L1.52413 12.1103L0.686544 12.7649L1.78501 13.7604L1.09847 14.2514L2.67752 16.0925L10.0235 14.1286L14.9392 9.73731L1.73009 0L0 5.16869Z" fill="url(#paint6_linear)"/>
<path d="M7.68921 17.2653L10.8198 20.4156L10.9297 23.5386L7.68921 17.2653Z" fill="url(#paint7_linear)"/>
<path d="M27.3105 17.2653L24.0701 23.5386L24.1936 20.4156L27.3105 17.2653Z" fill="url(#paint8_linear)"/>
<path d="M24.7156 28.8983L20.0608 26.6481L20.4315 29.662L20.3903 30.9303L24.7156 28.8983Z" fill="#D7C1B3"/>
<path d="M10.2844 28.8983L14.6096 30.9303L14.5822 29.662L14.9392 26.6481L10.2844 28.8983Z" fill="#D7C1B3"/>
<path d="M28.3543 23.484L24.7156 28.8982L32.501 31.0256L34.7254 23.484H28.3543Z" fill="url(#paint9_linear)"/>
<path d="M0.28833 23.484L2.499 31.0256L10.2844 28.8982L6.65946 23.484H0.28833Z" fill="url(#paint10_linear)"/>
<path d="M1.72998 0L14.9391 9.73731L12.8657 4.13222L1.72998 0Z" fill="url(#paint11_linear)"/>
<path d="M22.1339 4.13222L20.0605 9.73731L33.2697 0L22.1339 4.13222Z" fill="url(#paint12_linear)"/>
<path d="M9.85869 14.0059L7.68921 17.2653L15.406 17.6063L14.9391 9.7373L9.85869 14.0059Z" fill="url(#paint13_linear)"/>
<path d="M25.141 14.0059L20.0606 9.7373L19.5938 17.6063L27.3105 17.2653L25.141 14.0059Z" fill="url(#paint14_linear)"/>
<path d="M10.2844 28.8983L14.9392 26.6481L10.9298 23.5387L10.2844 28.8983Z" fill="url(#paint15_linear)"/>
<path d="M20.0608 26.6481L24.7156 28.8983L24.0702 23.5387L20.0608 26.6481Z" fill="url(#paint16_linear)"/>
<path d="M10.2844 28.8982L10.9297 23.5386L6.65942 23.484L10.2844 28.8982Z" fill="url(#paint17_linear)"/>
<path d="M24.0701 23.5386L24.7154 28.8982L28.3541 23.484L24.0701 23.5386Z" fill="url(#paint18_linear)"/>
<path d="M27.3107 17.2653L19.594 17.6062L20.308 21.5475L21.4477 19.1745L24.1938 20.4156L27.3107 17.2653Z" fill="url(#paint19_linear)"/>
<path d="M10.8198 20.4156L13.5523 19.1745L14.692 21.5475L15.406 17.6062L7.68921 17.2653L10.8198 20.4156Z" fill="url(#paint20_linear)"/>
<path fill-rule="evenodd" clip-rule="evenodd" d="M19.4156 20.0884L20.3081 21.5476L19.5941 17.6063L19.4156 20.0884ZM20.3081 21.5476L19.4156 20.0884L19.4019 26.1981L20.3081 21.5476Z" fill="url(#paint21_linear)"/>
<path fill-rule="evenodd" clip-rule="evenodd" d="M15.4061 17.6063L14.6921 21.5476V21.5476L15.5984 26.1981L15.5846 20.0884L14.6921 21.5476L15.5846 20.0884L15.4061 17.6063Z" fill="url(#paint22_linear)"/>
<path d="M20.4151 30.914L20.4315 29.662L20.0883 29.362H14.9117L14.5822 29.662L14.6096 30.9303L10.2844 28.8983L11.7948 30.1257L14.8705 32.2396H20.1295L23.2052 30.1257L24.7156 28.8983L20.4151 30.914Z" fill="#C0AD9E"/>
<path d="M20.0606 26.648L19.4016 26.198H15.5981L14.939 26.648L14.582 29.662L14.9116 29.3619H20.0881L20.4314 29.662L20.0606 26.648Z" fill="#161616" stroke="#161616" stroke-width="0.142167" stroke-miterlimit="10" stroke-linejoin="round"/>
<path d="M21.4475 19.1746L20.3079 21.5475L24.1937 20.4156L21.4475 19.1746Z" fill="#161616"/>
<path d="M13.5525 19.1746L14.6922 21.5475L10.8201 20.4156L13.5525 19.1746Z" fill="#161616"/>
</g>
<defs>
<linearGradient id="paint0_linear" x1="17.4998" y1="4.13232" x2="17.4998" y2="26.1981" gradientUnits="userSpaceOnUse">
<stop stop-color="#21FF47"/>
<stop offset="1" stop-color="#BCD8F0"/>
</linearGradient>
<linearGradient id="paint1_linear" x1="29.3979" y1="14.006" x2="29.3979" y2="23.5387" gradientUnits="userSpaceOnUse">
<stop stop-color="#1CAD68"/>
<stop offset="1" stop-color="#77BDD4"/>
</linearGradient>
<linearGradient id="paint2_linear" x1="5.60904" y1="14.006" x2="5.60904" y2="23.5387" gradientUnits="userSpaceOnUse">
<stop stop-color="#1CAD68"/>
<stop offset="1" stop-color="#77BDD4"/>
</linearGradient>
<linearGradient id="paint3_linear" x1="21.7977" y1="20.4156" x2="21.7977" y2="26.6481" gradientUnits="userSpaceOnUse">
<stop stop-color="#7BCBC8"/>
<stop offset="1" stop-color="#87B9E6"/>
</linearGradient>
<linearGradient id="paint4_linear" x1="13.209" y1="20.4156" x2="13.209" y2="26.6481" gradientUnits="userSpaceOnUse">
<stop stop-color="#7BCBC8"/>
<stop offset="1" stop-color="#87B9E6"/>
</linearGradient>
<linearGradient id="paint5_linear" x1="27.5304" y1="0" x2="27.5304" y2="16.0925" gradientUnits="userSpaceOnUse">
<stop stop-color="#007715"/>
<stop offset="1" stop-color="#0A3424"/>
</linearGradient>
<linearGradient id="paint6_linear" x1="7.4696" y1="0" x2="7.4696" y2="16.0925" gradientUnits="userSpaceOnUse">
<stop stop-color="#007715"/>
<stop offset="1" stop-color="#0A3424"/>
</linearGradient>
<linearGradient id="paint7_linear" x1="9.30945" y1="17.2653" x2="9.30945" y2="23.5386" gradientUnits="userSpaceOnUse">
<stop stop-color="#42C4A0"/>
<stop offset="1" stop-color="#51ACC7"/>
</linearGradient>
<linearGradient id="paint8_linear" x1="25.6903" y1="17.2653" x2="25.6903" y2="23.5386" gradientUnits="userSpaceOnUse">
<stop stop-color="#42C4A0"/>
<stop offset="1" stop-color="#51ACC7"/>
</linearGradient>
<linearGradient id="paint9_linear" x1="29.7205" y1="23.484" x2="29.7205" y2="31.0256" gradientUnits="userSpaceOnUse">
<stop stop-color="#5BAECB"/>
<stop offset="1" stop-color="#4160C1"/>
</linearGradient>
<linearGradient id="paint10_linear" x1="5.28637" y1="23.484" x2="5.28637" y2="31.0256" gradientUnits="userSpaceOnUse">
<stop stop-color="#5BAECB"/>
<stop offset="1" stop-color="#4160C1"/>
</linearGradient>
<linearGradient id="paint11_linear" x1="8.33453" y1="0" x2="8.33453" y2="9.73731" gradientUnits="userSpaceOnUse">
<stop stop-color="#01EA28"/>
<stop offset="1" stop-color="#10D24F"/>
</linearGradient>
<linearGradient id="paint12_linear" x1="26.6651" y1="0" x2="26.6651" y2="9.73731" gradientUnits="userSpaceOnUse">
<stop stop-color="#01EA28"/>
<stop offset="1" stop-color="#10D24F"/>
</linearGradient>
<linearGradient id="paint13_linear" x1="11.5476" y1="9.7373" x2="11.5476" y2="17.6063" gradientUnits="userSpaceOnUse">
<stop stop-color="#12DB56"/>
<stop offset="1" stop-color="#4CC9A3"/>
</linearGradient>
<linearGradient id="paint14_linear" x1="23.4521" y1="9.7373" x2="23.4521" y2="17.6063" gradientUnits="userSpaceOnUse">
<stop stop-color="#12DB56"/>
<stop offset="1" stop-color="#4CC9A3"/>
</linearGradient>
<linearGradient id="paint15_linear" x1="12.6118" y1="23.5387" x2="12.6118" y2="28.8983" gradientUnits="userSpaceOnUse">
<stop stop-color="#5BAECB"/>
<stop offset="1" stop-color="#4160C1"/>
</linearGradient>
<linearGradient id="paint16_linear" x1="22.3882" y1="23.5387" x2="22.3882" y2="28.8983" gradientUnits="userSpaceOnUse">
<stop stop-color="#5BAECB"/>
<stop offset="1" stop-color="#4160C1"/>
</linearGradient>
<linearGradient id="paint17_linear" x1="8.79458" y1="23.484" x2="8.79458" y2="28.8982" gradientUnits="userSpaceOnUse">
<stop stop-color="#32809D"/>
<stop offset="1" stop-color="#477DD5"/>
</linearGradient>
<linearGradient id="paint18_linear" x1="26.2121" y1="23.484" x2="26.2121" y2="28.8982" gradientUnits="userSpaceOnUse">
<stop stop-color="#32809D"/>
<stop offset="1" stop-color="#477DD5"/>
</linearGradient>
<linearGradient id="paint19_linear" x1="23.4524" y1="17.2653" x2="23.4524" y2="21.5475" gradientUnits="userSpaceOnUse">
<stop stop-color="#239777"/>
<stop offset="1" stop-color="#2C8A8D"/>
</linearGradient>
<linearGradient id="paint20_linear" x1="11.5476" y1="17.2653" x2="11.5476" y2="21.5475" gradientUnits="userSpaceOnUse">
<stop stop-color="#239777"/>
<stop offset="1" stop-color="#2C8A8D"/>
</linearGradient>
<linearGradient id="paint21_linear" x1="19.855" y1="17.6063" x2="19.855" y2="26.1981" gradientUnits="userSpaceOnUse">
<stop stop-color="#42C4A0"/>
<stop offset="1" stop-color="#51ACC7"/>
</linearGradient>
<linearGradient id="paint22_linear" x1="15.1453" y1="17.6063" x2="15.1453" y2="26.1981" gradientUnits="userSpaceOnUse">
<stop stop-color="#42C4A0"/>
<stop offset="1" stop-color="#51ACC7"/>
</linearGradient>
<clipPath id="clip0">
<rect width="35" height="33" fill="white"/>
</clipPath>
</defs>
</svg>
