<svg width="512" height="512" viewBox="0 0 512 512" fill="none" xmlns="http://www.w3.org/2000/svg">
<path d="M512 141.366L478.507 10.3086L306.276 112.78H205.796L33.5644 10.3086L0 141.366L33.5644 247.109L0 372.193L33.5644 484.904L143.787 452.193L226.987 501.686H285.013L368.213 452.193L478.436 484.904L512 372.193L478.436 247.109L512 141.366Z" fill="#661800"/>
<path d="M512 141.366L478.507 10.3086L306.276 112.78H205.796L33.5644 10.3086L0 141.366L33.5644 247.109L0 372.193L33.5644 484.904L143.787 452.193L226.987 501.686H285.013L368.213 452.193L478.436 484.904L512 372.193L478.436 247.109L512 141.366ZM47.5022 246.895L13.9378 141.153L39.6089 37.1886L199.111 182.966L105.813 246.895H47.5022ZM464.569 246.895H404.836L311.538 182.966L471.04 37.1886L496.711 141.153L464.569 246.895Z" fill="#FF5C16"/>
<path d="M85.9657 293.795H136.606C145.886 293.795 153.206 296.195 158.566 300.995C163.926 305.795 166.646 312.235 166.726 320.315C166.726 328.795 163.606 335.235 157.366 339.635C161.446 341.795 164.566 344.795 166.726 348.635C168.966 352.395 170.086 356.875 170.086 362.075C170.086 370.715 167.206 377.555 161.446 382.595C155.686 387.555 147.766 390.035 137.686 390.035H85.9657V293.795ZM102.886 375.515H137.326C142.126 375.515 145.886 374.315 148.606 371.915C151.326 369.515 152.686 366.235 152.686 362.075C152.686 352.635 147.566 347.915 137.326 347.915H102.886V375.515ZM102.886 333.875H135.766C140.086 333.875 143.446 332.755 145.846 330.515C148.326 328.275 149.566 325.155 149.566 321.155C149.566 317.075 148.366 313.915 145.966 311.675C143.566 309.435 140.166 308.315 135.766 308.315H102.886V333.875ZM185.809 293.795H259.969V308.915H202.729V333.395H254.809V348.275H202.729V374.915H261.289V390.035H185.809V293.795ZM268.607 293.795H352.007V308.915H318.767V390.035H301.847V308.915H268.607V293.795ZM386.051 291.635H387.131L437.411 390.035H418.811L410.051 372.275H362.771L353.891 390.035H336.011L386.051 291.635ZM369.731 357.875H403.091L386.411 324.155L369.731 357.875Z" fill="#661800"/>
</svg>
