<svg width="158" height="130" viewBox="0 0 158 130" fill="none" xmlns="http://www.w3.org/2000/svg">
<g clip-path="url(#clip0_11412_1329)">
<g clip-path="url(#clip1_11412_1329)">
<path d="M146.621 34.953L137.842 0.601074L92.698 27.46H66.3609L21.217 0.601074L12.4193 34.953L21.217 62.6693L12.4193 95.4555L21.217 124.999L50.1076 116.425L71.9154 129.397H87.1249L108.933 116.425L137.823 124.999L146.621 95.4555L137.823 62.6693L146.621 34.953Z" fill="#661800"/>
<path d="M146.621 34.953L137.842 0.601074L92.698 27.46H66.3609L21.217 0.601074L12.4193 34.953L21.217 62.6693L12.4193 95.4555L21.217 124.999L50.1076 116.425L71.9154 129.397H87.1249L108.933 116.425L137.823 124.999L146.621 95.4555L137.823 62.6693L146.621 34.953ZM24.8703 62.6134L16.0726 34.897L22.8013 7.64666L64.6089 45.8568L40.1543 62.6134H24.8703ZM134.189 62.6134H118.532L94.0773 45.8568L135.885 7.64666L142.614 34.897L134.189 62.6134Z" fill="#FF5C16"/>
<path d="M34.952 74.8802H48.2254C50.6578 74.8802 52.5765 75.5093 53.9814 76.7675C55.3863 78.0256 56.0993 79.7136 56.1202 81.8315C56.1202 84.0542 55.3024 85.7422 53.6669 86.8955C54.7363 87.4616 55.5541 88.248 56.1202 89.2545C56.7074 90.24 57.0009 91.4143 57.0009 92.7773C57.0009 95.0419 56.2461 96.8348 54.7363 98.1558C53.2265 99.4559 51.1506 100.106 48.5085 100.106H34.952V74.8802ZM39.387 96.3001H48.4141C49.6723 96.3001 50.6578 95.9855 51.3708 95.3565C52.0837 94.7274 52.4402 93.8677 52.4402 92.7773C52.4402 90.3029 51.0982 89.0658 48.4141 89.0658H39.387V96.3001ZM39.387 85.3857H48.0052C49.1376 85.3857 50.0183 85.0922 50.6473 84.505C51.2974 83.9179 51.6224 83.1001 51.6224 82.0516C51.6224 80.9822 51.3079 80.154 50.6788 79.5668C50.0497 78.9797 49.1585 78.6861 48.0052 78.6861H39.387V85.3857ZM61.1223 74.8802H80.5606V78.8434H65.5573V85.2599H79.2081V89.1601H65.5573V96.1428H80.9066V100.106H61.1223V74.8802ZM82.8245 74.8802H104.685V78.8434H95.9721V100.106H91.5371V78.8434H82.8245V74.8802ZM113.608 74.3141H113.891L127.07 100.106H122.195L119.899 95.4508H107.506L105.179 100.106H100.492L113.608 74.3141ZM109.33 91.6764H118.075L113.703 82.838L109.33 91.6764Z" fill="#661800"/>
</g>
</g>
<defs>
<clipPath id="clip0_11412_1329">
<rect width="158" height="129" fill="white" transform="translate(0 0.5)"/>
</clipPath>
<clipPath id="clip1_11412_1329">
<rect width="134.202" height="129" fill="white" transform="translate(11.8992 0.5)"/>
</clipPath>
</defs>
</svg>
