<svg width="33" height="33" viewBox="0 0 33 33" fill="none" xmlns="http://www.w3.org/2000/svg">
<path d="M30.5997 31.622L23.6093 29.4731L18.338 32.7265H14.6595L9.38463 29.4731L2.39772 31.622L0.273407 24.2127L2.39948 15.9901L0.273407 9.03754L2.39772 0.421875L13.3158 7.15792H19.6817L30.5997 0.421875L32.7258 9.03754L30.5997 15.9901L32.7258 24.2127L30.5997 31.622Z" fill="#0A0A0A"/>
<path d="M32.3752 24.4844L30.4245 31.2823L23.8744 29.2662L23.3482 29.1043L22.5974 28.8732L19.3837 27.8834L19.103 27.9216L18.9943 28.3328L22.9622 29.5537L18.2645 32.4541H14.7369L10.0392 29.5537L14.0054 28.3346L13.8966 27.9216L13.6177 27.8834L9.65151 29.1043L9.12525 29.2662L2.57689 31.2823L0.626243 24.4844L0 24.2188L2.22255 31.961L9.35154 29.7648L14.5913 33H18.4101L23.6499 29.7648L30.7789 31.961L32.9997 24.2188L32.3752 24.4844Z" fill="#89B0FF"/>
<path d="M9.12525 24.4839V29.2657L9.65151 29.1038V24.7623L13.6177 27.8829L13.8966 27.9211L14.1562 27.6208L9.47434 23.938H0.617472L2.60145 16.2631L2.12607 15.9956L0 24.2182L0.626243 24.4839H9.12525Z" fill="#D075FF"/>
<path d="M25.4793 20.1712L23.7953 20.6024V21.1665L26.2757 20.5296L26.2915 16.2628H25.9424L25.7652 16.1372L25.7512 19.6835L23.7181 17.6929H19.5011H19.4993L19.4186 18.2406H23.5094L25.4793 20.1712Z" fill="#D075FF"/>
<path d="M9.20566 21.1665V20.6024L7.52164 20.1712L9.49159 18.2406H13.5806L13.4999 17.6929H9.38458L9.2039 17.7675L7.24974 19.6835L7.23571 16.1372L7.05854 16.2628H6.7077L6.72349 20.5296L9.20566 21.1665Z" fill="#D075FF"/>
<path d="M30.3985 16.2631L32.3825 23.938H23.5257L18.8438 27.6208L19.1034 27.9211L19.384 27.8829L23.3485 24.7623V29.1038L23.8747 29.2657V24.4839H32.3755L33 24.2182L30.8757 15.9956L30.3985 16.2631Z" fill="#D075FF"/>
<path d="M6.70799 16.2633H7.05883L7.236 16.1378L12.6898 12.2621L13.5019 17.6953L13.5826 18.243L14.8632 26.8114L15.3193 26.6203H15.3666L13.1493 11.7799L13.5581 7.43294H19.4434L19.8503 11.7854L17.633 26.6203H17.6804L18.1365 26.8114L19.417 18.243L19.4977 17.6953H19.4995L20.3117 12.2621L25.7637 16.1378L25.9408 16.2651H30.3982L30.8736 15.9977L32.9979 9.0469L30.7684 0L19.617 6.88525H13.3844L2.23132 0L0 9.0469L2.12431 15.9977L2.5997 16.2651H6.70624L6.70799 16.2633ZM32.4524 9.03052L30.407 15.7174H26.111L20.5204 11.7453L30.4631 0.966192L32.4524 9.03052ZM29.0738 1.6831L20.324 11.1685L19.9608 7.30921L29.0738 1.6831ZM13.0388 7.30739L12.6775 11.1685L3.92761 1.68128L13.0388 7.30557V7.30739ZM0.547305 9.03052L2.53655 0.966192L12.4793 11.7453L6.88867 15.7174H2.59268L0.547305 9.03052Z" fill="#FF5C16"/>
<path d="M17.9732 26.6201H15.0279L13.8965 27.9211L14.4595 30.0518H18.538L19.1011 27.9211L17.9697 26.6201H17.9732ZM18.1363 29.506H14.8665L14.4841 28.0612L15.2577 27.1714H17.7451L18.5187 28.0612L18.1363 29.506Z" fill="#BAF24A"/>
<path d="M13.5862 21.9654L13.5371 21.8326V21.829L12.6652 19.4854H10.3076L9.20599 20.6026V21.1648L13.095 22.1619L13.5862 21.9654ZM10.5216 20.033H12.3039L12.8635 21.536L9.80768 20.7536L10.5199 20.033H10.5216Z" fill="#BAF24A"/>
<path d="M19.903 22.1621L23.792 21.1649V20.6027L22.6904 19.4873H20.3328L19.461 21.8291V21.8327L19.4118 21.9656L19.903 22.1621ZM23.1886 20.7537L20.1328 21.5361L20.6924 20.0314H22.4746L23.1868 20.7537H23.1886Z" fill="#BAF24A"/>
</svg>
