<svg width="24" height="24" viewBox="0 0 24 24" fill="none" xmlns="http://www.w3.org/2000/svg">
<path fill-rule="evenodd" clip-rule="evenodd" d="M12.6483 7.41741C14.3482 7.41741 15.8272 8.36346 16.5874 9.75779L18.8081 8.36985C17.5833 6.23784 15.2835 4.802 12.6483 4.802C9.11954 4.802 6.19214 7.37666 5.64216 10.7499H2.125C1.50368 10.7499 1 11.2536 1 11.8749C1 12.4962 1.50368 12.9999 2.125 12.9999H5.63386C6.16206 16.3987 9.1014 18.9999 12.6483 18.9999C15.2235 18.9999 17.4784 17.6287 18.7228 15.5766L16.5042 14.1901C15.7225 15.5041 14.2882 16.3845 12.6483 16.3845C10.1721 16.3845 8.16472 14.3772 8.16472 11.901C8.16472 9.42476 10.1721 7.41741 12.6483 7.41741ZM11.7002 11.9999C11.7002 12.5522 12.1479 12.9999 12.7002 12.9999C13.2525 12.9999 13.7002 12.5522 13.7002 11.9999C13.7002 11.4476 13.2525 10.9999 12.7002 10.9999C12.1479 10.9999 11.7002 11.4476 11.7002 11.9999ZM12.7002 14.9999C11.0433 14.9999 9.7002 13.6568 9.7002 11.9999C9.7002 10.3431 11.0433 8.99992 12.7002 8.99992C13.9109 8.99992 14.9542 9.71715 15.4282 10.7499H21.8751C22.4965 10.7499 23.0001 11.2536 23.0001 11.8749C23.0001 12.4962 22.4965 12.9999 21.8751 12.9999H15.5295C15.1177 14.1651 14.0064 14.9999 12.7002 14.9999Z" fill="white"/>
</svg>
