<svg fill="#f7861c" height="24" viewBox="78.469 0 29.477 24" width="29.477" xmlns="http://www.w3.org/2000/svg">
    <path d="M90.437 9.087c0 1.669 1.423 4.766 3.177 4.766 1.755 0 3.177-3.097 3.177-4.766 0-1.668-1.422-3.021-3.177-3.021s-3.177 1.352-3.177 3.021z"/>
    <path d="M93.613 17.091h4.042c1.108 0 1.503-.249 1.503-.84 0-1.21-1.158-2.147-2.867-2.62-.713.861-1.619 1.467-2.678 1.467-1.057 0-1.964-.605-2.676-1.467-1.709.473-2.867 1.41-2.867 2.62 0 .591.395.84 1.502.84zM86.392 4.841a10.252 10.252 0 017.268-3.006c1.47 0 2.892.304 4.225.902.166.075.36.039.488-.09l.558-.556a.438.438 0 00-.121-.705A12.001 12.001 0 0093.66.22c-1.545 0-3.052.292-4.478.869a11.794 11.794 0 00-3.933 2.609 11.798 11.798 0 00-3.325 6.495 12.001 12.001 0 00.17 4.684l-.732-.497a.438.438 0 00-.608.117l-.45.664a.44.44 0 00.117.609l2.638 1.787.259.177a.437.437 0 00.345.063.437.437 0 00.264-.18l1.965-2.897a.44.44 0 00-.118-.608l-.665-.45a.436.436 0 00-.607.116l-.741 1.093a10.333 10.333 0 01-.22-4.541 10.19 10.19 0 012.851-5.489z"/>
    <path d="M106.979 8.028a.44.44 0 00-.226-.248l-2.443-1.142-.727-.34a.44.44 0 00-.583.211l-1.482 3.17a.438.438 0 00.212.582l.728.34a.442.442 0 00.335.015.439.439 0 00.247-.226l.509-1.087c.43 1.52.505 3.12.213 4.694a10.211 10.211 0 01-2.832 5.382 10.257 10.257 0 01-7.268 3.005c-1.393 0-2.743-.273-4.018-.812a.44.44 0 00-.48.095l-.561.561a.438.438 0 00.129.709A12.015 12.015 0 0093.661 24a11.862 11.862 0 008.412-3.478 11.803 11.803 0 003.304-6.378 11.895 11.895 0 00-.273-5.281l.939.439a.438.438 0 00.583-.211l.34-.727a.43.43 0 00.013-.336z"/>
</svg>
