<svg width="20" height="16" viewBox="0 0 20 16" fill="none" xmlns="http://www.w3.org/2000/svg">
    <path d="M7 8C9.1875 8 11 6.21875 11 4C11 1.8125 9.1875 0 7 0C4.78125 0 3 1.8125 3 4C3 6.21875 4.78125 8 7 8ZM9.78125 9H9.25C8.5625 9.34375 7.8125 9.5 7 9.5C6.1875 9.5 5.40625 9.34375 4.71875 9H4.1875C1.875 9 0 10.9062 0 13.2188V14.5C0 15.3438 0.65625 16 1.5 16H12.5C13.3125 16 14 15.3438 14 14.5V13.2188C14 10.9062 12.0938 9 9.78125 9ZM19.875 5L19 4.125C18.875 3.96875 18.625 3.96875 18.5 4.125L15.2188 7.375L13.7812 5.9375C13.6562 5.78125 13.4062 5.78125 13.25 5.9375L12.375 6.8125C12.25 6.9375 12.25 7.1875 12.375 7.34375L14.9375 9.90625C15.0938 10.0625 15.3125 10.0625 15.4688 9.90625L19.875 5.53125C20.0312 5.375 20.0312 5.15625 19.875 5Z" fill="#6A737D"/>
</svg>
