<svg width="179" height="38" viewBox="0 0 179 38" fill="none" xmlns="http://www.w3.org/2000/svg">
<g clip-path="url(#clip0_42008_14004)">
<path d="M42.9241 25.5887C38.7973 25.5887 35.6117 22.7902 35.6117 18.3175C35.6117 13.8449 38.8385 11.0463 42.9241 11.0463C45.6814 11.0463 47.2754 12.2097 47.8456 12.7823L46.9067 14.9465C46.499 14.4151 44.9051 13.3319 42.9035 13.3319C40.4531 13.3319 38.3484 14.9465 38.3484 18.274C38.3484 21.3176 40.2469 23.2986 43.0661 23.2986C44.9463 23.2986 46.2517 22.481 47.0899 21.5833L48.0288 23.5849C47.2319 24.4437 45.6998 25.5865 42.9218 25.5865L42.9241 25.5887Z" fill="#B771E5"/>
<path d="M52.1741 15.4594L52.1328 17.0534H52.1947C52.5817 15.9908 53.5642 15.2762 54.6245 15.2762C55.2978 15.2762 55.6665 15.4594 55.6665 15.4594L55.4833 17.7267H55.3596C55.0734 17.6442 54.6245 17.603 54.2764 17.603C53.5 17.603 52.8909 17.9213 52.5405 18.5626C52.2794 19.0435 52.1718 19.726 52.1718 20.4817V25.3437H49.577V15.4572H52.1718L52.1741 15.4594Z" fill="#B771E5"/>
<path d="M59.3216 27.0796C59.8323 27.0796 60.2605 26.9353 60.4644 26.4269L60.8926 25.4055L56.807 15.4594H59.5437L62.1591 22.465L64.7332 15.4594H67.4493L62.853 26.672C62.1385 28.4079 61.3209 29.2461 59.9331 29.2461C58.5452 29.2461 57.604 28.8384 57.604 28.8384L58.1353 26.8369C58.1353 26.8369 58.8292 27.0819 59.3193 27.0819L59.3216 27.0796Z" fill="#B771E5"/>
<path d="M71.2463 15.4594L71.2051 16.9091C72.002 15.7251 73.2273 15.235 74.5349 15.235C77.4342 15.235 79.2114 17.4816 79.2114 20.4222C79.2114 23.3627 77.3518 25.5292 74.3494 25.5292C72.8379 25.5292 71.9791 24.9979 71.1638 24.0177C71.189 24.6292 71.173 25.2612 71.1776 25.8727V29.0835H68.5897V15.4594H71.244H71.2463ZM76.5571 20.4222C76.5571 18.7069 75.4945 17.358 73.7998 17.358C72.2265 17.358 71.1249 18.5626 71.1249 20.4222C71.1249 22.0757 72.2081 23.5253 73.8822 23.5253C75.5563 23.5253 76.5571 22.0757 76.5571 20.4222Z" fill="#B771E5"/>
<path d="M84.3367 25.5681C83.3611 25.5681 82.6603 25.3552 82.1977 24.8422C81.7007 24.2948 81.4786 23.4063 81.4786 22.0757V17.5H80.0083V15.4778H81.4786V12.6586H84.0733V15.4778H86.3612V17.5H84.0733V21.5031C84.0733 22.2841 84.1443 22.7581 84.339 23.0353C84.5222 23.294 84.813 23.3811 85.2573 23.3811C85.7886 23.3811 86.1963 23.2185 86.1963 23.2185L86.3383 25.2407C86.2169 25.2819 85.4405 25.5681 84.3367 25.5681Z" fill="#B771E5"/>
<path d="M92.6088 15.2739C95.6317 15.2739 97.9608 17.3167 97.9608 20.4405C97.9608 23.5643 95.6317 25.5681 92.6088 25.5681C89.5858 25.5681 87.2361 23.5665 87.2361 20.4405C87.2361 17.3145 89.5652 15.2739 92.6088 15.2739ZM95.263 20.381C95.263 18.6863 94.2828 17.3786 92.6088 17.3786C90.9347 17.3786 89.9545 18.6863 89.9545 20.381C89.9545 22.0757 90.8934 23.4039 92.6088 23.4039C94.3241 23.4039 95.263 22.0757 95.263 20.381Z" fill="#B771E5"/>
<path d="M107.598 11.8021C108.702 12.3334 109.416 13.1899 109.416 14.619C109.416 16.5198 108.15 17.5206 107.231 17.8893V17.9305C109.05 18.3382 110.254 19.5245 110.254 21.4047C110.254 22.852 109.54 23.9559 108.58 24.5696C107.703 25.1216 106.455 25.346 105.108 25.346H99.9601V11.2502H104.474C105.617 11.2502 106.679 11.3532 107.598 11.8021ZM105.944 16.7854C106.434 16.4786 106.721 15.9885 106.721 15.2304C106.721 14.5594 106.496 14.1151 106.111 13.8151C105.699 13.4922 105.099 13.3342 104.392 13.3342H102.614V17.1335H104.268C105.003 17.1335 105.514 17.0511 105.942 16.7854H105.944ZM106.734 22.907C107.252 22.5658 107.559 21.9337 107.559 21.1985C107.559 20.4222 107.211 19.8909 106.679 19.5245C106.148 19.158 105.596 19.0756 104.781 19.0756H102.617V23.262H104.904C105.578 23.262 106.233 23.2414 106.737 22.9093L106.734 22.907Z" fill="#B771E5"/>
<path d="M114.704 15.4594L114.663 17.0534H114.725C115.112 15.9908 116.094 15.2762 117.155 15.2762C117.828 15.2762 118.197 15.4594 118.197 15.4594L118.013 17.7267H117.89C117.603 17.6442 117.155 17.603 116.806 17.603C116.03 17.603 115.421 17.9213 115.071 18.5626C114.809 19.0435 114.702 19.726 114.702 20.4817V25.3437H112.107V15.4572H114.702L114.704 15.4594Z" fill="#B771E5"/>
<path d="M120.871 10.9868C121.79 10.9868 122.445 11.6006 122.445 12.4365C122.445 13.2724 121.792 13.8861 120.871 13.8861C119.951 13.8861 119.298 13.293 119.298 12.4365C119.298 11.5799 119.951 10.9868 120.871 10.9868ZM122.179 15.4594V25.346H119.564V15.4594H122.179Z" fill="#B771E5"/>
<path d="M132.185 23.7933C131.388 25.0597 130.101 25.5704 128.733 25.5704C125.832 25.5704 124.057 23.3238 124.057 20.3833C124.057 17.4427 125.917 15.2762 128.919 15.2762C130.247 15.2762 131.411 15.7663 132.105 16.829C132.084 16.3801 132.084 15.8488 132.084 15.1549V11.2547H134.679V25.3483H132.166L132.187 23.7956L132.185 23.7933ZM132.143 20.3833C132.143 18.7298 131.06 17.2778 129.386 17.2778C127.712 17.2778 126.711 18.7275 126.711 20.3833C126.711 22.039 127.774 23.4475 129.469 23.4475C131.042 23.4475 132.143 22.2428 132.143 20.3833Z" fill="#B771E5"/>
<path d="M145.909 27.5697C145.051 28.4675 143.784 29.3056 141.416 29.3056C139.048 29.3056 137.31 28.1812 136.82 27.8354L137.903 26.017C138.537 26.4659 140.15 27.1804 141.416 27.1804C142.825 27.1804 143.56 26.7315 143.928 26.3033C144.297 25.875 144.602 25.0574 144.602 23.9536V23.4429C143.901 24.4803 142.703 25.0162 141.251 25.0162C138.739 25.0162 136.575 23.4017 136.575 20.3603C136.575 17.5618 138.434 15.2739 141.437 15.2739C142.765 15.2739 143.908 15.764 144.622 16.8679C144.602 16.419 144.602 15.8259 144.602 15.5602V15.4572H147.197V23.3009C147.197 25.4651 146.748 26.6926 145.909 27.5697ZM144.746 20.1748C144.746 18.787 143.683 17.3351 141.906 17.3351C140.253 17.3351 139.231 18.6221 139.231 20.1748C139.231 21.7276 140.212 22.9734 141.989 22.9734C143.766 22.9734 144.746 21.7276 144.746 20.1748Z" fill="#B771E5"/>
<path d="M154.179 25.5681C151.197 25.5681 148.992 23.7498 148.992 20.5642C148.992 17.3786 151.301 15.2739 154.12 15.2739C157.163 15.2739 159.002 17.2755 159.002 19.9092C159.002 20.4199 158.961 21.2375 158.961 21.2375H151.69C151.935 22.8108 153.14 23.5665 154.63 23.5665C155.959 23.5665 157.143 22.9757 157.612 22.5658L158.634 23.9742C158.082 24.5467 156.591 25.5681 154.182 25.5681H154.179ZM154.097 17.2137C152.544 17.2137 151.726 18.2969 151.646 19.5428H156.385C156.343 18.4595 155.936 17.2137 154.097 17.2137Z" fill="#B771E5"/>
<path d="M11.0041 10.4258C12.1217 9.30821 13.9355 9.30821 15.0531 10.4258C16.1707 11.5434 16.1707 13.3572 15.0531 14.4748L11.6797 17.8481L14.3798 20.5482L17.7532 17.1748C18.8708 16.0573 20.6846 16.0573 21.8022 17.1748C22.9197 18.2924 22.9197 20.1062 21.8022 21.2238L15.7287 27.2973C14.2378 28.7882 11.8217 28.7882 10.3308 27.2973L4.93297 21.8994C3.44208 20.4085 3.44208 17.9924 4.93297 16.5015L11.0064 10.4281M8.30635 7.72801L2.23289 13.8015C-0.744296 16.7787 -0.744296 21.62 2.23289 24.5972L7.63075 29.9951C10.6079 32.9722 15.4493 32.9722 18.4265 29.9951L24.4999 23.9216C27.1038 21.3177 27.1038 17.0787 24.4999 14.4748C23.1785 13.1534 21.4403 12.503 19.7044 12.5213C19.7227 10.7876 19.0723 9.04713 17.7509 7.72572C15.147 5.12183 10.9079 5.12183 8.30406 7.72572L8.30635 7.72801Z" fill="#B771E5"/>
</g>
<defs>
<clipPath id="clip0_42008_14004">
<rect width="159" height="26.4511" fill="white" transform="translate(0 5.77443)"/>
</clipPath>
</defs>
</svg>
