<svg width="256" height="256" viewBox="0 0 256 256" fill="none" xmlns="http://www.w3.org/2000/svg">
<path d="M127.666 220C127.666 220 206.331 193.236 206.331 94.9394V59.5566C206.331 55.6784 203.315 52.5662 199.532 52.3268C185.264 51.6086 151.414 48.7359 127.666 36C103.965 48.7359 70.0669 51.6086 55.7989 52.2789C52.0164 52.5662 49 55.6784 49 59.5566V94.9394C49 193.236 127.666 220 127.666 220Z" fill="#00AEEF"/>
<path d="M159.457 107.867C158.5 97.1419 149.307 93.4552 137.624 92.3539L137.672 77.3677L128.623 77.4156L128.671 91.923C126.277 91.923 123.739 91.923 121.298 91.9709V77.272L112.153 77.3199L112.201 92.2103C110.237 92.2582 93.9106 92.2582 93.9106 92.2582V101.786H105.497L105.45 149.665L95.2991 149.713L95.2034 160.63C95.2034 160.63 109.567 160.582 111.674 160.582L111.722 175.664L120.723 175.712L120.819 160.726C123.309 160.773 125.702 160.821 128.049 160.869L128.001 175.712H137.146L137.098 160.726C152.323 159.959 163.048 156.177 164.485 141.909C165.634 130.37 160.271 125.199 151.605 123.092C156.872 120.411 160.176 115.719 159.457 107.867ZM146.578 139.946C146.482 151.198 127.426 149.809 121.25 149.761L121.202 129.796C127.378 129.843 146.674 128.216 146.578 139.946ZM142.556 111.793C142.46 122.039 126.564 120.746 121.489 120.698L121.441 102.6C126.516 102.6 142.604 101.116 142.556 111.793Z" fill="white"/>
</svg>
