<svg xmlns="http://www.w3.org/2000/svg" viewBox="0 0 1308.89 1311"><defs><style>.cls-1{fill:#1c46a0;}</style></defs><g id="图层_2" data-name="图层 2"><g id="图层_1-2" data-name="图层 1"><path class="cls-1" d="M655.5,873.5c-120.47,0-218.12-97.72-218-218.22-.31-120,96.7-217.48,216.67-217.79h2.33c95.93.43,177.22,62.81,205.93,149.2a36.9,36.9,0,0,0,35,25.3h192a9,9,0,0,0,9-9V553.46a4,4,0,0,1,4-4h46.78a4,4,0,0,1,4,4V603a9,9,0,0,0,9,9h27.36a9,9,0,0,0,9-9V553.46a4,4,0,0,1,4-4h46.78a4,4,0,0,1,4,4V603a9,9,0,0,0,9,9h37.5a9,9,0,0,0,9-9c0-.25,0-.51,0-.76C1281.78,265.28,999.83.21,655.91,0,294-.22,0,293.61,0,655.51S293.48,1311,655.5,1311c344.1,0,626.27-265.14,653.36-602.26a9,9,0,0,0-8.23-9.71c-.26,0-.51,0-.77,0H897.45a37.08,37.08,0,0,0-35.11,25.53C833.46,811.1,751.77,873.5,655.5,873.5Z"/></g></g></svg>