<?xml version="1.0" encoding="UTF-8" standalone="no"?>
<!DOCTYPE svg PUBLIC "-//W3C//DTD SVG 1.1//EN" "http://www.w3.org/Graphics/SVG/1.1/DTD/svg11.dtd">
<svg width="100%" height="100%" viewBox="0 0 15 14" version="1.1" xmlns="http://www.w3.org/2000/svg" xmlns:xlink="http://www.w3.org/1999/xlink" xml:space="preserve" xmlns:serif="http://www.serif.com/" style="fill-rule:evenodd;clip-rule:evenodd;stroke-linejoin:round;stroke-miterlimit:2;">
    <path d="M13.015,8.847C13.232,8.195 14.688,7.717 14.688,7C14.688,6.283 13.232,5.805 13.015,5.153C12.797,4.48 13.688,3.241 13.275,2.676C12.863,2.111 11.407,2.568 10.842,2.177C10.277,1.764 10.277,0.243 9.603,0.026C8.952,-0.192 8.061,1.047 7.344,1.047C6.627,1.047 5.714,-0.192 5.084,0.026C4.411,0.243 4.411,1.785 3.846,2.177C3.281,2.589 1.825,2.111 1.412,2.676C0.999,3.241 1.89,4.48 1.673,5.153C1.456,5.805 0,6.283 0,7C0,7.717 1.456,8.195 1.673,8.847C1.89,9.52 0.999,10.759 1.412,11.324C1.825,11.889 3.281,11.432 3.846,11.823C4.411,12.236 4.411,13.757 5.084,13.974C5.736,14.192 6.627,12.953 7.344,12.953C8.061,12.953 8.973,14.192 9.603,13.974C10.277,13.757 10.277,12.214 10.842,11.823C11.407,11.411 12.863,11.889 13.275,11.324C13.688,10.759 12.797,9.499 13.015,8.847Z" style="fill:rgb(215,58,73);fill-rule:nonzero;"/>
    <g transform="matrix(1,0,0,1,1.99992,1.50001)">
        <path d="M8.708,2.938L8.062,2.292L5.5,4.854L2.938,2.292L2.292,2.938L4.854,5.5L2.292,8.062L2.938,8.708L5.5,6.146L8.062,8.708L8.708,8.062L6.146,5.5L8.708,2.938Z" style="fill:white;fill-rule:nonzero;"/>
    </g>
</svg>
