<svg width="426" height="149" viewBox="0 0 426 149" fill="none" xmlns="http://www.w3.org/2000/svg">
<path d="M52.5095 1.29006C43.9873 3.00709 35.8923 6.40352 28.6963 11.2813C18.1341 18.4704 9.8993 28.5855 5.00166 40.3863C3.29958 44.4987 2.02478 48.7753 1.19735 53.1485C-0.416047 61.4971 -0.382513 70.0805 1.29607 78.4162C3.02032 86.9352 6.41862 95.0271 11.2939 102.223C18.4808 112.795 28.5956 121.041 40.3989 125.95C48.441 129.265 57.0602 130.954 65.7588 130.92L65.5021 65.4631L65.2059 0C60.9419 0.0171994 56.6897 0.449264 52.5095 1.29006Z" fill="#3E125B"/>
<path d="M11.2949 102.229C13.6717 105.733 16.3806 109 19.384 111.984L65.457 65.4894L11.2949 102.229Z" fill="#974AC5"/>
<path d="M65.5036 65.4631L10.9598 29.2629C8.62988 32.7795 6.64606 36.5135 5.03613 40.4126L65.5036 65.4631Z" fill="#682E8B"/>
<path d="M65.5029 65.4631L4.94982 40.3994C3.24775 44.5119 1.97294 48.7884 1.14551 53.1616L65.5029 65.4631Z" fill="#6F3294"/>
<path d="M65.5038 65.4631L19.003 19.3901C16.0098 22.4139 13.3162 25.7203 10.96 29.2629L65.5038 65.4631Z" fill="#612982"/>
<path d="M65.5038 65.4631L1.29785 78.4162C2.13137 82.5544 3.36581 86.6016 4.98369 90.5005L65.5038 65.4631Z" fill="#8841B2"/>
<path d="M28.6977 11.2813C25.2025 13.6611 21.9448 16.3722 18.9697 19.377L65.4705 65.45L28.6977 11.2813Z" fill="#592479"/>
<path d="M65.5029 65.4631L0.0332031 65.7527C0.0615207 70.0087 0.502373 74.2519 1.34957 78.4228L65.5029 65.4631Z" fill="#813CA9"/>
<path d="M1.17186 53.1616C0.380059 57.3116 -0.0122564 61.5279 0.000291701 65.7527L65.47 65.4631L1.17186 53.1616Z" fill="#76379E"/>
<path d="M65.5033 65.4631L40.4528 4.97589C36.34 6.67669 32.4121 8.7939 28.7305 11.2945L65.5033 65.4631Z" fill="#511E6F"/>
<path d="M65.5026 65.4631L65.2065 0C60.9526 0.0279982 56.7116 0.468856 52.543 1.31637L65.5026 65.4631Z" fill="#3E125B"/>
<path d="M52.5098 1.2901C48.3693 2.12268 44.3198 3.35714 40.4189 4.97594L65.5024 65.4632L52.5098 1.2901Z" fill="#481965"/>
<path d="M65.5036 65.4631L19.4307 111.957C22.4526 114.955 25.7591 117.65 29.3034 120.007L65.5036 65.4631Z" fill="#9E4DCF"/>
<path d="M65.5029 65.4631L29.3027 120.007C32.8193 122.333 36.5507 124.317 40.4458 125.931L65.5029 65.4631Z" fill="#A851D9"/>
<path d="M65.5029 65.4631L5.01562 90.5071C6.71387 94.6198 8.82891 98.5477 11.3276 102.229L65.5029 65.4631Z" fill="#9045BC"/>
<path d="M65.5029 65.4631L40.4326 125.957C44.5354 127.653 48.8006 128.925 53.1619 129.755L65.5029 65.4631Z" fill="#B056E3"/>
<path d="M53.1611 129.755C57.3131 130.548 61.5319 130.938 65.7588 130.92L65.5021 65.4631L53.1611 129.755Z" fill="#B155E5"/>
<path d="M144.077 70.5772C142.352 62.0582 138.954 53.9663 134.079 46.7707C126.897 36.2016 116.79 27.9559 104.994 23.0431C96.9516 19.7279 88.3323 18.039 79.6338 18.0738L79.9234 83.5369L80.2196 149C84.4734 148.972 88.7144 148.531 92.8831 147.684C101.406 145.963 109.501 142.562 116.696 137.679C127.258 130.49 135.493 120.375 140.391 108.574C142.093 104.462 143.368 100.185 144.195 95.812C145.799 87.4639 145.757 78.8828 144.07 70.5509L144.077 70.5772Z" fill="#17125B"/>
<path d="M134.079 46.7706C131.701 43.276 128.992 40.0184 125.99 37.0427L79.917 83.5369L134.079 46.7706Z" fill="#534AC5"/>
<path d="M79.9043 83.5369L134.448 119.737C136.778 116.221 138.762 112.487 140.372 108.587L79.8779 83.5237L79.9043 83.5369Z" fill="#342E8B"/>
<path d="M79.9033 83.5369L140.397 108.601C142.099 104.488 143.374 100.212 144.201 95.8384L79.9033 83.5369Z" fill="#393294"/>
<path d="M79.9033 83.5369L126.404 129.61C129.397 126.586 132.091 123.28 134.447 119.737L79.9033 83.5369Z" fill="#302982"/>
<path d="M79.9033 83.5369L144.076 70.5772C143.243 66.439 142.008 62.3918 140.391 58.4929L79.9033 83.504V83.5369Z" fill="#4A41B2"/>
<path d="M116.676 137.706C120.171 135.33 123.428 132.623 126.404 129.623L79.9033 83.55L116.676 137.706Z" fill="#2B2479"/>
<path d="M79.9045 83.5369L145.374 83.2473C145.346 78.9913 144.905 74.7481 144.058 70.5772L79.8848 83.5369H79.9045Z" fill="#453CA9"/>
<path d="M144.201 95.8383C144.993 91.6884 145.386 87.4721 145.373 83.2473L79.9033 83.5369L144.201 95.8383Z" fill="#3E379E"/>
<path d="M79.9033 83.5369L104.954 144.024C109.067 142.323 112.994 140.206 116.676 137.706L79.9033 83.5369Z" fill="#241E6F"/>
<path d="M79.9033 83.5369L80.1995 149C84.4533 148.972 88.6944 148.531 92.863 147.684L79.9033 83.5106V83.5369Z" fill="#17125B"/>
<path d="M92.863 147.71C97.0035 146.877 101.053 145.643 104.954 144.024L79.9033 83.5369L92.863 147.71Z" fill="#1E1965"/>
<path d="M79.9033 83.5369L125.976 37.0427C122.954 34.0455 119.648 31.3496 116.104 28.9931L79.9033 83.5369Z" fill="#564DCF"/>
<path d="M79.9038 83.5369L116.104 28.9931C112.587 26.6671 108.856 24.6834 104.961 23.0695L79.8906 83.5633L79.9038 83.5369Z" fill="#5D51D9"/>
<path d="M79.9033 83.5368L140.391 58.5258C138.692 54.4131 136.577 50.4852 134.079 46.8035L79.9033 83.5698V83.5368Z" fill="#4E45BC"/>
<path d="M79.9033 83.5369L104.993 23.0431C100.88 21.3428 96.6039 20.068 92.2311 19.2388L79.9231 83.5369H79.9033Z" fill="#6156E3"/>
<path d="M92.2129 19.2388C88.061 18.4459 83.8422 18.0558 79.6152 18.0738L79.9048 83.5369L92.2129 19.2388Z" fill="#6055E5"/>
<path d="M236.239 53.1287L229.052 57.6438C222.786 49.4034 214.267 45.3051 203.495 45.3489C194.886 45.3884 187.749 48.1901 182.084 53.754C179.347 56.3511 177.183 59.4911 175.73 62.9729C174.277 66.4546 173.567 70.2014 173.646 73.9734C173.655 79.0806 175.032 84.092 177.635 88.4864C180.184 92.9382 183.931 96.5864 188.448 99.0174C193.166 101.537 198.45 102.811 203.797 102.716C214.184 102.673 222.646 98.504 229.184 90.2109L236.424 94.9234C233.06 100.028 228.383 104.132 222.885 106.804C217.18 109.634 210.7 111.064 203.442 111.095C192.275 111.148 182.992 107.637 175.594 100.564C168.196 93.4908 164.466 84.8664 164.405 74.6908C164.342 67.986 166.098 61.3894 169.486 55.6035C172.831 49.7784 177.725 44.9942 183.624 41.7816C189.813 38.4238 196.756 36.6999 203.797 36.7728C208.397 36.7424 212.972 37.4468 217.349 38.8592C221.33 40.081 225.081 41.9512 228.453 44.3946C231.589 46.775 234.233 49.7412 236.239 53.1287Z" fill="#1C1C1C"/>
<path d="M244.499 38.4116L253.595 38.3722L253.74 71.3736C253.775 79.4297 254.234 84.9717 255.116 87.9993C256.332 92.1854 258.986 95.8077 262.612 98.2275C266.285 100.72 270.66 101.957 275.736 101.94C280.813 101.922 285.111 100.678 288.63 98.2078C292.071 95.8806 294.643 92.4778 295.943 88.5325C296.82 85.8032 297.259 80.0199 297.259 71.1827L297.114 38.1813L306.401 38.1352L306.553 72.8282C306.601 82.5693 305.504 89.9146 303.262 94.8642C301.117 99.6901 297.557 103.75 293.053 106.507C288.494 109.316 282.773 110.737 275.888 110.773C269.003 110.808 263.246 109.436 258.617 106.659C254.042 103.938 250.417 99.8723 248.238 95.0156C245.943 90.0178 244.773 82.4969 244.729 72.453L244.499 38.4116Z" fill="#1C1C1C"/>
<path d="M316.966 38.0892L326.253 38.0497L326.299 48.3766C329.05 44.2958 331.959 41.2397 335.026 39.2081C337.859 37.2557 341.209 36.1903 344.649 36.1475C347.496 36.2288 350.274 37.0451 352.712 38.517L348.006 46.2046C346.497 45.4875 344.863 45.0737 343.194 44.9869C340.162 44.9869 337.245 46.2463 334.441 48.7649C331.637 51.2836 329.511 55.1581 328.063 60.3885C326.953 64.421 326.426 72.5649 326.483 84.8203L326.588 108.726L317.295 108.772L316.966 38.0892Z" fill="#1C1C1C"/>
<path d="M359.057 37.9048L368.732 37.8588L392.696 89.2762L415.904 37.6481L425.645 37.6086L393.605 108.429H391.913L359.057 37.9048Z" fill="#1C1C1C"/>
</svg>
