<?xml version="1.0" encoding="UTF-8" standalone="no"?><!DOCTYPE svg PUBLIC "-//W3C//DTD SVG 1.1//EN" "http://www.w3.org/Graphics/SVG/1.1/DTD/svg11.dtd"><svg width="100%" height="100%" viewBox="0 0 621 621" version="1.1" xmlns="http://www.w3.org/2000/svg" xmlns:xlink="http://www.w3.org/1999/xlink" xml:space="preserve" xmlns:serif="http://www.serif.com/" style="fill-rule:evenodd;clip-rule:evenodd;stroke-linejoin:round;stroke-miterlimit:2;"><path d="M226.344,5.375c-35.509,7.155 -69.239,21.306 -99.222,41.63c-44.009,29.955 -78.321,72.101 -98.728,121.271c-7.092,17.135 -12.403,34.954 -15.851,53.176c-6.722,34.786 -6.583,70.55 0.411,105.282c7.185,35.496 21.344,69.212 41.658,99.195c29.946,44.05 72.091,78.409 121.271,98.863c33.509,13.812 69.422,20.85 105.666,20.708l-1.069,-272.737l-1.235,-272.763c-17.766,0.072 -35.484,1.872 -52.901,5.375Z" style="fill:#3e125b;fill-rule:nonzero;"/><path d="M54.616,425.954c9.904,14.6 21.191,28.213 33.705,40.646l191.971,-193.727l-225.676,153.081Z" style="fill:#974ac5;fill-rule:nonzero;"/><path d="M280.486,272.763l-227.266,-150.834c-9.708,14.652 -17.974,30.211 -24.682,46.457l251.948,104.377Z" style="fill:#682e8b;fill-rule:nonzero;"/><path d="M280.483,272.763l-252.305,-104.432c-7.092,17.135 -12.403,34.954 -15.851,53.176l268.156,51.256Z" style="fill:#6f3294;fill-rule:nonzero;"/><path d="M280.487,272.763l-193.754,-191.971c-12.471,12.599 -23.695,26.376 -33.512,41.137l227.266,150.834Z" style="fill:#612982;fill-rule:nonzero;"/><path d="M280.487,272.763l-267.525,53.971c3.473,17.243 8.616,34.106 15.358,50.351l252.167,-104.322Z" style="fill:#8841b2;fill-rule:nonzero;"/><path d="M127.128,47.005c-14.563,9.916 -28.137,21.212 -40.533,33.732l193.753,191.971l-153.22,-225.703Z" style="fill:#592479;fill-rule:nonzero;"/><path d="M280.483,272.763l-272.79,1.207c0.118,17.733 1.954,35.413 5.484,52.792l267.306,-53.999Z" style="fill:#813ca9;fill-rule:nonzero;"/><path d="M12.437,221.507c-3.299,17.291 -4.934,34.859 -4.882,52.463l272.791,-1.207l-267.909,-51.256Z" style="fill:#76379e;fill-rule:nonzero;"/><path d="M280.485,272.763l-104.377,-252.03c-17.137,7.087 -33.503,15.908 -48.843,26.327l153.22,225.703Z" style="fill:#511e6f;fill-rule:nonzero;"/><path d="M280.482,272.763l-1.234,-272.763c-17.725,0.117 -35.395,1.954 -52.765,5.485l53.999,267.278Z" style="fill:#3e125b;fill-rule:nonzero;"/><path d="M226.345,5.375c-17.252,3.47 -34.125,8.613 -50.379,15.358l104.515,252.03l-54.136,-267.388Z" style="fill:#481965;fill-rule:nonzero;"/><path d="M280.486,272.763l-191.971,193.724c12.592,12.492 26.369,23.721 41.137,33.542l150.834,-227.266Z" style="fill:#9e4dcf;fill-rule:nonzero;"/><path d="M280.483,272.763l-150.834,227.266c14.652,9.692 30.2,17.958 46.429,24.683l104.405,-251.949Z" style="fill:#a851d9;fill-rule:nonzero;"/><path d="M280.483,272.763l-252.03,104.35c7.076,17.136 15.888,33.502 26.3,48.841l225.73,-153.191Z" style="fill:#9045bc;fill-rule:nonzero;"/><path d="M280.483,272.763l-104.46,252.058c17.095,7.067 34.867,12.367 53.039,15.825l51.421,-267.883Z" style="fill:#b056e3;fill-rule:nonzero;"/><path d="M229.059,540.646c17.3,3.304 34.878,4.929 52.49,4.854l-1.069,-272.737l-51.421,267.883Z" style="fill:#b155e5;fill-rule:nonzero;"/><path d="M607.875,294.072c-7.187,-35.496 -21.346,-69.212 -41.658,-99.194c-29.925,-44.038 -72.038,-78.395 -121.188,-98.865c-33.51,-13.813 -69.424,-20.85 -105.667,-20.705l1.206,272.762l1.235,272.763c17.724,-0.116 35.395,-1.954 52.764,-5.483c35.512,-7.171 69.241,-21.342 99.221,-41.688c44.008,-29.954 78.32,-72.1 98.729,-121.27c7.091,-17.134 12.404,-34.955 15.85,-53.175c6.683,-34.784 6.508,-70.539 -0.521,-105.255l0.029,0.11Z" style="fill:#17125b;fill-rule:nonzero;"/><path d="M566.217,194.878c-9.909,-14.561 -21.196,-28.135 -33.704,-40.533l-191.971,193.725l225.675,-153.193Z" style="fill:#534ac5;fill-rule:nonzero;"/><path d="M340.489,348.07l227.265,150.834c9.709,-14.65 17.975,-30.208 24.684,-46.458l-252.059,-104.431l0.11,0.055Z" style="fill:#342e8b;fill-rule:nonzero;"/><path d="M340.485,348.07l252.057,104.434c7.091,-17.137 12.404,-34.954 15.85,-53.177l-267.907,-51.257Z" style="fill:#393294;fill-rule:nonzero;"/><path d="M340.485,348.07l193.753,191.972c12.47,-12.6 23.695,-26.375 33.512,-41.138l-227.265,-150.834Z" style="fill:#302982;fill-rule:nonzero;"/><path d="M340.485,348.07l267.386,-53.998c-3.471,-17.243 -8.617,-34.106 -15.354,-50.352l-252.032,104.213l-0,0.137Z" style="fill:#4a41b2;fill-rule:nonzero;"/><path d="M493.704,573.775c14.563,-9.9 28.134,-21.179 40.534,-33.679l-193.753,-191.971l153.219,225.65Z" style="fill:#2b2479;fill-rule:nonzero;"/><path d="M340.49,348.07l272.789,-1.206c-0.116,-17.734 -1.954,-35.414 -5.483,-52.792l-267.388,53.998l0.082,0Z" style="fill:#453ca9;fill-rule:nonzero;"/><path d="M608.392,399.326c3.3,-17.291 4.937,-34.859 4.883,-52.462l-272.79,1.206l267.907,51.256Z" style="fill:#3e379e;fill-rule:nonzero;"/><path d="M340.485,348.07l104.378,252.03c17.137,-7.087 33.5,-15.908 48.841,-26.325l-153.219,-225.705Z" style="fill:#241e6f;fill-rule:nonzero;"/><path d="M340.485,348.07l1.234,272.763c17.724,-0.116 35.395,-1.954 52.764,-5.483l-53.998,-267.389l-0,0.109Z" style="fill:#17125b;fill-rule:nonzero;"/><path d="M394.483,615.458c17.252,-3.47 34.125,-8.612 50.38,-15.358l-104.378,-252.03l53.998,267.388Z" style="fill:#1e1965;fill-rule:nonzero;"/><path d="M340.485,348.07l191.969,-193.725c-12.591,-12.489 -26.366,-23.722 -41.133,-33.54l-150.836,227.265Z" style="fill:#564dcf;fill-rule:nonzero;"/><path d="M340.487,348.07l150.834,-227.265c-14.654,-9.692 -30.2,-17.957 -46.429,-24.682l-104.46,252.057l0.055,-0.11Z" style="fill:#5d51d9;fill-rule:nonzero;"/><path d="M340.485,348.07l252.032,-104.212c-7.079,-17.137 -15.892,-33.503 -26.3,-48.843l-225.732,153.193l-0,-0.138Z" style="fill:#4e45bc;fill-rule:nonzero;"/><path d="M340.485,348.07l104.54,-252.057c-17.137,-7.085 -34.955,-12.396 -53.175,-15.851l-51.283,267.908l-0.082,0Z" style="fill:#6156e3;fill-rule:nonzero;"/><path d="M391.775,80.162c-17.3,-3.304 -34.878,-4.929 -52.491,-4.855l1.207,272.763l51.284,-267.908Z" style="fill:#6055e5;fill-rule:nonzero;"/></svg>