<svg width="102" height="96" viewBox="0 0 102 96" fill="none" xmlns="http://www.w3.org/2000/svg">
<path d="M96 80V85.3333C96 91.2 91.2 96 85.3333 96H10.6667C4.74667 96 0 91.2 0 85.3333V10.6667C0 4.8 4.74667 0 10.6667 0H85.3333C91.2 0 96 4.8 96 10.6667V16H48C42.08 16 37.3333 20.8 37.3333 26.6667V69.3333C37.3333 75.2 42.08 80 48 80H96ZM48 69.3333H101.333V26.6667H48V69.3333ZM69.3333 56C64.9067 56 61.3333 52.4267 61.3333 48C61.3333 43.5733 64.9067 40 69.3333 40C73.76 40 77.3333 43.5733 77.3333 48C77.3333 52.4267 73.76 56 69.3333 56Z" fill="white"/>
</svg>
