<svg id="Layer_1" height="512" viewBox="0 0 512 512" width="512" xmlns="http://www.w3.org/2000/svg" xmlns:xlink="http://www.w3.org/1999/xlink" data-name="Layer 1"><linearGradient id="linear-gradient" gradientUnits="userSpaceOnUse" x1="409.325" x2="409.325" y1="480" y2="69.634"><stop offset=".322" stop-color="#a163f5"/><stop offset=".466" stop-color="#b074ee"/><stop offset=".752" stop-color="#d8a1dd"/><stop offset=".898" stop-color="#efbad3"/></linearGradient><linearGradient id="linear-gradient-2" x1="188.707" x2="188.707" xlink:href="#linear-gradient" y1="480" y2="69.634"/><linearGradient id="linear-gradient-3" x1="146.138" x2="146.138" xlink:href="#linear-gradient" y1="480" y2="69.634"/><linearGradient id="linear-gradient-4" x1="140.499" x2="140.499" xlink:href="#linear-gradient" y1="480" y2="69.634"/><linearGradient id="linear-gradient-5" x1="352.711" x2="352.711" xlink:href="#linear-gradient" y1="480" y2="69.634"/><linearGradient id="linear-gradient-6" x1="343.274" x2="343.274" xlink:href="#linear-gradient" y1="480" y2="69.634"/><linearGradient id="linear-gradient-7" x1="97.402" x2="97.402" xlink:href="#linear-gradient" y1="480" y2="69.634"/><linearGradient id="linear-gradient-8" x1="256" x2="256" xlink:href="#linear-gradient" y1="480" y2="69.634"/><path d="m388.488 198.329a34.079 34.079 0 0 0 43.14-6.926 6 6 0 1 0 -9.057-7.872 22.082 22.082 0 0 1 -27.957 4.479 6 6 0 0 0 -6.126 10.319z" fill="url(#linear-gradient)"/><path d="m203.242 129.311a6 6 0 0 0 -6.126 10.318 16.487 16.487 0 1 1 -22.6 5.76 6 6 0 0 0 -10.318-6.126 28.488 28.488 0 1 0 39.039-9.952z" fill="url(#linear-gradient-2)"/><path d="m139.46 285.47a28.539 28.539 0 0 0 -21.4 24.975 6 6 0 0 0 5.417 6.532c.189.017.377.026.564.026a6 6 0 0 0 5.967-5.443 16.492 16.492 0 0 1 32.409-2.5 6 6 0 1 0 11.635-2.937 28.521 28.521 0 0 0 -34.592-20.653z" fill="url(#linear-gradient-3)"/><path d="m150.47 329.078a16.573 16.573 0 0 1 -16.78-5.517 6 6 0 1 0 -9.265 7.626 28.645 28.645 0 0 0 22.075 10.383 28.2 28.2 0 0 0 6.913-.858 6 6 0 0 0 -2.938-11.634z" fill="url(#linear-gradient-4)"/><path d="m367.573 390.957a6 6 0 0 0 -4.371 7.272 16.488 16.488 0 0 1 -24.416 18.164 6 6 0 1 0 -6.127 10.318 28.313 28.313 0 0 0 14.494 4 28.647 28.647 0 0 0 7.087-.895 28.487 28.487 0 0 0 20.605-34.492 6 6 0 0 0 -7.272-4.367z" fill="url(#linear-gradient-5)"/><path d="m333.025 393.8a16.506 16.506 0 0 1 22.6-5.76 6 6 0 0 0 6.126-10.319 28.52 28.52 0 0 0 -39.039 9.953 6 6 0 1 0 10.318 6.126z" fill="url(#linear-gradient-6)"/><path d="m139.312 419.537a385.17 385.17 0 0 1 -75.326-77.367 6 6 0 0 0 -9.671 7.1 397.107 397.107 0 0 0 77.678 79.772 6 6 0 1 0 7.319-9.509z" fill="url(#linear-gradient-7)"/><path d="m469.391 123.717-.714-1.149a251.061 251.061 0 0 0 -428.471 5.311 250.734 250.734 0 0 0 262.167 374.773c.2-.027.387-.067.578-.113q7.539-1.447 15.043-3.355a251.265 251.265 0 0 0 151.4-375.467zm-248.945-104.039a238.823 238.823 0 0 1 35.97-2.738q5.1 0 10.181.227a118.351 118.351 0 0 0 15.962 90.826 6 6 0 0 0 10.083-6.507 106.352 106.352 0 0 1 -13.905-83.486 236.073 236.073 0 0 1 42.031 7.882 62.049 62.049 0 0 0 -5.376 26.2 6.006 6.006 0 0 0 6 5.913h.1a5.974 5.974 0 0 0 5.906-6.1 50.032 50.032 0 0 1 4.934-22.421 241.984 241.984 0 0 1 86.006 51.074 50.236 50.236 0 0 1 -83.69-3.377 6 6 0 1 0 -10.272 6.2 62.07 62.07 0 0 0 68.614 28.078 61.732 61.732 0 0 0 34.033-22.482 235.892 235.892 0 0 1 27.048 33.112 107 107 0 0 1 -28.771 18.872c-.646-.446-1.3-.878-1.984-1.283a34.153 34.153 0 0 0 -45.778 10.386 106.455 106.455 0 0 1 -49.824-14.84 6 6 0 0 0 -6.126 10.318 118.521 118.521 0 0 0 50.974 16.231 33.969 33.969 0 0 0 1.522 19.53 6 6 0 0 0 11.2-4.319 21.98 21.98 0 0 1 .813-17.781 5.987 5.987 0 0 0 .354-.685c.144-.267.288-.534.444-.8a22.11 22.11 0 0 1 40.436 5.826 6 6 0 1 0 11.628-2.965 34.137 34.137 0 0 0 -4.7-10.57 119.293 119.293 0 0 0 26.357-17.66 239.58 239.58 0 0 1 26.107 61.486 163.473 163.473 0 0 1 -92.031 45.6 160.889 160.889 0 0 1 -105.612-21.225c-11.48-6.816-26.335-21.071-36.775-31.829a28.361 28.361 0 0 1 -7.582-23.295 56.661 56.661 0 0 0 -27.311-55.425l-.088-.052a10.484 10.484 0 0 1 -5.3-8.9c-.186-16.466.316-55.99 8.422-79.021zm94.584 467.878c-4.519 1.152-9.051 2.154-13.591 3.039-43.223-7.861-83.628-22.357-120.1-43.114a6 6 0 0 0 -5.935 10.43 384.352 384.352 0 0 0 90.246 36.917 239.116 239.116 0 0 1 -241.2-179.8q-2.674-10.494-4.375-21.064a400.806 400.806 0 0 0 21.669 37.2 6 6 0 0 0 10.035-6.58c-24.199-36.901-34.186-65.584-34.322-65.984a6.076 6.076 0 0 0 -.5-1.094 236.853 236.853 0 0 1 26.425-110.56c2.043 18.263 7.058 40.285 15.019 65.816 9.125 29.263 20.062 56.635 27.631 74.444a65.176 65.176 0 0 1 4.95 24.694 56.647 56.647 0 0 0 51.243 55.614 37.327 37.327 0 0 1 18.71 6.921c8.3 6.125 19.875 14.426 27.909 19.2a298.135 298.135 0 0 0 103.975 38.025 48.044 48.044 0 0 1 22.91 10.558 35.132 35.132 0 0 0 4.482 3.26 50.839 50.839 0 0 0 59.75-5.591 48.158 48.158 0 0 1 21.147-10.928c7.93-1.789 17.424-4.051 26.434-6.489a237.408 237.408 0 0 1 -112.512 65.086zm146.446-109.556a242.547 242.547 0 0 1 -18.87 27.316c-11.824 4.293-30.369 8.831-44.139 11.938a60.2 60.2 0 0 0 -26.445 13.635 38.871 38.871 0 0 1 -45.686 4.271 23.532 23.532 0 0 1 -2.917-2.16 60.053 60.053 0 0 0 -28.643-13.186 286.154 286.154 0 0 1 -99.806-36.5c-7.607-4.516-18.832-12.57-26.909-18.532a49.324 49.324 0 0 0 -24.707-9.213 44.645 44.645 0 0 1 -40.373-43.835 77.094 77.094 0 0 0 -5.905-29.22c-13.2-31.067-43.524-107.738-42.736-154.7a240.422 240.422 0 0 1 28.2-36.293 272.576 272.576 0 0 0 35.981 153.934 47.025 47.025 0 0 0 35.374 23.051c9.357 1.036 14.115 2.911 16.459 4.3a44.514 44.514 0 0 1 21.793 36.407 37.858 37.858 0 0 0 17.212 29.723c1.889 1.241 3.536 2.28 4.9 3.087 19.639 11.66 52.656 22.5 76.9 29.55a47.582 47.582 0 0 0 36.337-4.112 39.179 39.179 0 0 1 38.643.659c.174.1.355.214.544.335a48.528 48.528 0 0 0 26.046 7.76 45.423 45.423 0 0 0 8.2-.744 270.426 270.426 0 0 0 74.771-25.404 242.716 242.716 0 0 1 -14.224 27.933zm20.9-45.266a258.363 258.363 0 0 1 -83.622 30.942 35.723 35.723 0 0 1 -25.631-5.332c-.292-.187-.578-.362-.86-.53a51.229 51.229 0 0 0 -50.538-.871 35.663 35.663 0 0 1 -27.227 3.114c-19.3-5.608-54.585-16.747-74.116-28.344-1.2-.714-2.694-1.655-4.431-2.8a25.829 25.829 0 0 1 -11.816-20.23 56.478 56.478 0 0 0 -27.655-46.19c-4.889-2.9-12.043-4.891-21.265-5.912a34.974 34.974 0 0 1 -26.315-17.146 260.264 260.264 0 0 1 -33.095-160.889 235.88 235.88 0 0 1 43.812-31.346 234.5 234.5 0 0 0 2.06 73.618 7.268 7.268 0 0 1 -1.032 5.336c-.3.455-.569.886-.794 1.266a56.6 56.6 0 0 0 19.772 77.561c3.121 1.853 7.834 3.679 14.008 5.427a18.391 18.391 0 0 1 9.774 6.753 235.867 235.867 0 0 0 189.48 95.939c2.8 0 5.615-.051 8.422-.151a236 236 0 0 0 112.593-33.2 236.212 236.212 0 0 1 -11.527 52.98zm12.516-67.738a223.96 223.96 0 0 1 -114.012 35.961 223.818 223.818 0 0 1 -187.8-90.9 30.447 30.447 0 0 0 -16.18-11.195 52.492 52.492 0 0 1 -11.151-4.2 44.6 44.6 0 0 1 -15.582-61.115c.148-.248.328-.531.525-.833a19.221 19.221 0 0 0 2.781-14.1 222.459 222.459 0 0 1 -.7-78.2 241.429 241.429 0 0 1 44.2-15.964q5.075-1.293 10.166-2.357c-6.573 23.9-7.329 57.357-7.114 76.741a22.366 22.366 0 0 0 11.144 19.066l.117.07a44.653 44.653 0 0 1 21.522 43.68 40.31 40.31 0 0 0 10.885 33.078c10.948 11.281 26.646 26.3 39.261 33.79a175.309 175.309 0 0 0 89.31 24.475 173.057 173.057 0 0 0 24.091-1.682 175.684 175.684 0 0 0 93.588-43.991 239.185 239.185 0 0 1 4.946 57.671z" fill="url(#linear-gradient-8)"/></svg>