<?xml version="1.0" encoding="utf-8"?>
<!-- Generator: Adobe Illustrator 23.0.3, SVG Export Plug-In . SVG Version: 6.00 Build 0)  -->
<svg version="1.1" id="Layer_1" xmlns="http://www.w3.org/2000/svg" xmlns:xlink="http://www.w3.org/1999/xlink" x="0px" y="0px"
	 viewBox="0 0 247.16 47.67" style="enable-background:new 0 0 247.16 47.67;" xml:space="preserve">
<style type="text/css">
	.st0{fill:#C2A882;}
	.st1{fill:#00292B;}
	.st2{fill:#00FFD4;}
</style>
<g>
	<path class="st1" d="M62.59,11.28l7.63,17.12h-15.3L62.59,11.28z M60.08,3.45L41.64,44.22h6.24l4.61-10.29h20.16l4.56,10.29h6.46
		L65.22,3.45H60.08z"/>
	<g>
		<path class="st1" d="M10.4,9.36h11.22c5.82,0,9.16,1.89,9.16,6.31c0,4.42-3.62,6.77-9.22,6.77H10.4V9.36z M36.81,15.67
			c0-7.54-5.83-11.94-14.86-11.94H4.43v40.5h5.97v-16.2h11.55C30.99,28.02,36.81,23.27,36.81,15.67"/>
		<path class="st1" d="M101.22,22.44V9.36h11.22c5.82,0,9.16,1.9,9.16,6.31c0,4.42-3.62,6.77-9.22,6.77H101.22z M116.54,27.71
			c6.85-1.16,11.09-5.56,11.09-12.04c0-7.54-5.83-11.94-14.85-11.94H95.25v40.5h5.97v-16.2h8.13l11.61,16.2h7.37L116.54,27.71z"/>
	</g>
	<polygon class="st0" points="144.19,3.73 144.19,44.22 150.16,44.22 150.16,28.02 168.37,28.02 168.37,22.44 150.16,22.44 
		150.16,9.36 173.74,9.36 173.74,3.73 	"/>
	<rect x="187.22" y="3.73" class="st0" width="5.97" height="40.5"/>
	<polygon class="st0" points="236.87,3.73 236.87,33.43 213.52,3.73 208.23,3.73 208.23,44.22 214.09,44.22 214.09,13.8 
		238.05,44.22 242.72,44.22 242.72,3.73 	"/>
</g>
</svg>
