<svg width="168" height="168" viewBox="0 0 168 168" fill="none" xmlns="http://www.w3.org/2000/svg">
<g clip-path="url(#clip0)">
<mask id="mask0" style="mask-type:alpha" maskUnits="userSpaceOnUse" x="0" y="0" width="168" height="169">
<path d="M84 0C130.392 0 168 37.6081 168 84C168 105.195 160.15 124.557 147.199 139.336L151.846 145.077C156.735 151.117 155.803 159.977 149.763 164.866C143.939 169.58 135.493 168.882 130.513 163.41L129.974 162.783L125.384 157.115C113.169 164.044 99.0465 168 84 168C37.6081 168 0 130.392 0 84C0 37.6081 37.6081 0 84 0ZM84 28.14C53.1494 28.14 28.14 53.1494 28.14 84C28.14 114.851 53.1494 139.86 84 139.86C92.32 139.86 100.215 138.041 107.309 134.779L101.414 127.503C96.5249 121.463 97.4575 112.603 103.497 107.714C109.321 102.999 117.767 103.698 122.747 109.17L123.286 109.797L129.094 116.974C135.863 107.733 139.86 96.3331 139.86 84C139.86 53.1494 114.851 28.14 84 28.14Z" fill="#242424"/>
</mask>
<g mask="url(#mask0)">
<path d="M168 67.2L0 100.8V168H168V67.2Z" fill="url(#paint0_linear)"/>
<ellipse cx="14.7" cy="94.5" rx="14.7" ry="14.7" fill="#FCE001"/>
<path d="M-9.96887 -9.94773L176.881 -9.94771L176.881 64.7921L-9.96886 102.162L-9.96887 -9.94773Z" fill="url(#paint1_linear)"/>
<path d="M168 73.5C168 81.6186 161.419 88.2 153.3 88.2C145.182 88.2 138.6 81.6186 138.6 73.5C138.6 65.3815 145.182 58.8 153.3 58.8C161.419 58.8 168 65.3815 168 73.5Z" fill="#FF39E8"/>
</g>
</g>
<defs>
<linearGradient id="paint0_linear" x1="150" y1="84" x2="6.5" y2="118" gradientUnits="userSpaceOnUse">
<stop stop-color="#FF38E7"/>
<stop offset="1" stop-color="#00C9FA"/>
</linearGradient>
<linearGradient id="paint1_linear" x1="-23.0611" y1="66.1912" x2="180" y2="7" gradientUnits="userSpaceOnUse">
<stop offset="0.25" stop-color="#FCE000"/>
<stop offset="1" stop-color="#00DFA1"/>
</linearGradient>
<clipPath id="clip0">
<rect width="168" height="168" fill="white"/>
</clipPath>
</defs>
</svg>
