<svg width="12" height="16" viewBox="0 0 12 16" fill="none" xmlns="http://www.w3.org/2000/svg">
<path d="M3.35075 15.9844C3.77098 15.9844 4.07114 15.6722 4.07114 15.2351L4.07114 3.9961L5.51193 3.9961C6.1723 3.9961 6.47246 3.21561 6.02221 2.74732L3.62089 0.249757C3.35074 -0.0624391 2.9005 -0.0624391 2.63035 0.249757L0.229027 2.74732C-0.251237 3.21561 0.0789448 3.9961 0.709292 3.9961L2.15008 3.9961L2.15008 15.2351C2.15008 15.6722 2.48027 15.9844 2.87048 15.9844L3.35075 15.9844ZM7.91325 0.749269L7.91325 11.9883L6.47246 11.9883C5.84212 11.9883 5.51193 12.8 5.9922 13.2683L8.39352 15.7659C8.66367 16.078 9.11392 16.078 9.38406 15.7659L11.7854 13.2683C12.2356 12.8 11.9355 11.9883 11.2751 11.9883L9.83431 11.9883L9.83431 0.749269C9.83431 0.343415 9.53415 5.36924e-07 9.11391 5.55292e-07L8.63365 5.76285e-07C8.24344 5.93342e-07 7.91325 0.343415 7.91325 0.749269Z" fill="#D6D9DC"/>
</svg>
