<svg width="16" height="16" viewBox="0 0 16 16" fill="none" xmlns="http://www.w3.org/2000/svg">
<path d="M12.0002 8.66683H8.66683V12.0002C8.66683 12.3668 8.36683 12.6668 8.00016 12.6668C7.6335 12.6668 7.3335 12.3668 7.3335 12.0002V8.66683H4.00016C3.6335 8.66683 3.3335 8.36683 3.3335 8.00016C3.3335 7.6335 3.6335 7.3335 4.00016 7.3335H7.3335V4.00016C7.3335 3.6335 7.6335 3.3335 8.00016 3.3335C8.36683 3.3335 8.66683 3.6335 8.66683 4.00016V7.3335H12.0002C12.3668 7.3335 12.6668 7.6335 12.6668 8.00016C12.6668 8.36683 12.3668 8.66683 12.0002 8.66683Z" fill="white"/>
</svg>
