<svg width="16" height="16" viewBox="0 0 16 16" fill="none" xmlns="http://www.w3.org/2000/svg">
<path d="M7.19333 10.86C7.45333 11.12 7.87333 11.12 8.13333 10.86L10.5267 8.46667C10.7867 8.20667 10.7867 7.78667 10.5267 7.52667L8.13333 5.13333C7.87333 4.87333 7.45333 4.87333 7.19333 5.13333C6.93333 5.39333 6.93333 5.81333 7.19333 6.07333L8.44667 7.33333H2.66667C2.3 7.33333 2 7.63333 2 8C2 8.36667 2.3 8.66667 2.66667 8.66667H8.44667L7.19333 9.92C6.93333 10.18 6.94 10.6067 7.19333 10.86ZM12.6667 2H3.33333C2.59333 2 2 2.6 2 3.33333V5.33333C2 5.7 2.3 6 2.66667 6C3.03333 6 3.33333 5.7 3.33333 5.33333V4C3.33333 3.63333 3.63333 3.33333 4 3.33333H12C12.3667 3.33333 12.6667 3.63333 12.6667 4V12C12.6667 12.3667 12.3667 12.6667 12 12.6667H4C3.63333 12.6667 3.33333 12.3667 3.33333 12V10.6667C3.33333 10.3 3.03333 10 2.66667 10C2.3 10 2 10.3 2 10.6667V12.6667C2 13.4 2.6 14 3.33333 14H12.6667C13.4 14 14 13.4 14 12.6667V3.33333C14 2.6 13.4 2 12.6667 2Z" fill="white"/>
</svg>
