<svg width="40" height="40" viewBox="0 0 40 40" fill="none" xmlns="http://www.w3.org/2000/svg">
<path d="M32.1972 22.4568C31.4714 22.4567 30.7565 22.6324 30.1141 22.9688C29.4718 23.3052 28.9212 23.7922 28.51 24.3877C28.0987 24.9833 27.8391 25.6695 27.7536 26.3872C27.6681 27.105 27.7592 27.8326 28.019 28.5075L23.2411 31.3134C22.8236 30.8262 22.3055 30.4345 21.7221 30.1651C21.1386 29.8957 20.5037 29.7549 19.8606 29.7523C19.2175 29.7498 18.5814 29.8855 17.9959 30.1503C17.4103 30.4151 16.889 30.8027 16.4677 31.2865L11.6628 28.5115C11.8975 27.9031 11.9952 27.2508 11.9491 26.6006C11.903 25.9505 11.7142 25.3183 11.3961 24.7487C11.0779 24.1791 10.6381 23.686 10.1077 23.3042C9.57729 22.9223 8.96921 22.661 8.32634 22.5387V17.5591C8.97749 17.4354 9.59289 17.1691 10.1281 16.7796C10.6632 16.39 11.1048 15.8869 11.4208 15.3066C11.7368 14.7262 11.9193 14.0833 11.9552 13.4241C11.9912 12.7649 11.8795 12.106 11.6284 11.4951L16.4576 8.70799C16.8778 9.19364 17.3984 9.58312 17.9837 9.84978C18.5691 10.1164 19.2054 10.254 19.8491 10.2529C20.4928 10.2519 21.1287 10.1124 21.7132 9.84387C22.2977 9.57536 22.8171 9.18423 23.2357 8.69725L28.0588 11.4863C27.6308 12.5155 27.6035 13.6667 27.9824 14.7148C28.3613 15.7629 29.119 16.6326 30.1076 17.154C31.0961 17.6754 32.2443 17.8109 33.3278 17.5341C34.4113 17.2573 35.3522 16.588 35.9666 15.6571C36.581 14.7262 36.8247 13.6006 36.6501 12.5003C36.4755 11.4 35.8952 10.4041 35.0225 9.70722C34.1498 9.01036 33.0475 8.66263 31.9311 8.73201C30.8146 8.80139 29.7643 9.2829 28.9854 10.0824L24.0747 7.2423C24.3069 6.57033 24.3744 5.85282 24.2717 5.14958C24.1689 4.44634 23.8988 3.77775 23.4839 3.19957C23.069 2.62138 22.5213 2.15035 21.8865 1.82575C21.2516 1.50114 20.5481 1.33237 19.8345 1.3335C19.1209 1.33463 18.4179 1.50564 17.7841 1.83225C17.1503 2.15887 16.6041 2.63164 16.1911 3.21113C15.778 3.79063 15.5101 4.46007 15.4095 5.16363C15.309 5.8672 15.3789 6.58449 15.6132 7.25573L10.7052 10.0884C10.2168 9.58392 9.61582 9.2012 8.95103 8.97136C8.28625 8.74152 7.5764 8.67103 6.87913 8.76562C6.18186 8.86022 5.51682 9.11722 4.938 9.51577C4.35917 9.91432 3.88288 10.4432 3.5478 11.0594C3.21271 11.6757 3.02827 12.3619 3.00945 13.0625C2.99064 13.763 3.13797 14.4581 3.4395 15.0913C3.74103 15.7245 4.18825 16.2779 4.74485 16.7067C5.30145 17.1355 5.95175 17.4276 6.64294 17.5591V22.5387C5.94667 22.6701 5.29166 22.9642 4.73182 23.3968C4.17197 23.8295 3.72328 24.3884 3.42267 25.0274C3.12206 25.6665 2.97812 26.3675 3.00269 27.0728C3.02726 27.7781 3.21964 28.4675 3.564 29.0843C3.90836 29.7011 4.39485 30.2276 4.98346 30.6206C5.57207 31.0136 6.24597 31.2618 6.94971 31.3448C7.65345 31.4278 8.36692 31.3432 9.03141 31.098C9.69591 30.8527 10.2924 30.4539 10.7719 29.9342L15.6166 32.7334C15.38 33.4041 15.308 34.1215 15.4064 34.8256C15.5049 35.5297 15.771 36.2001 16.1826 36.781C16.5941 37.3619 17.1392 37.8363 17.7724 38.1647C18.4055 38.4931 19.1083 38.6659 19.8222 38.6688C20.536 38.6717 21.2402 38.5045 21.876 38.1813C22.5118 37.858 23.0608 37.388 23.4771 36.8105C23.8933 36.233 24.1649 35.5647 24.2691 34.8615C24.3733 34.1582 24.3071 33.4403 24.076 32.7676L28.9059 29.9342C29.4098 30.4791 30.0421 30.8902 30.7456 31.1306C31.4491 31.3709 32.2017 31.4329 32.9353 31.3108C33.669 31.1887 34.3605 30.8865 34.9473 30.4314C35.5342 29.9764 35.9979 29.3828 36.2965 28.7045C36.5952 28.0261 36.7193 27.2843 36.6578 26.5462C36.5963 25.808 36.3509 25.0968 35.944 24.4767C35.5371 23.8567 34.9814 23.3475 34.3273 22.995C33.6731 22.6426 32.941 22.4581 32.1972 22.4582V22.4568ZM32.1972 10.3998C32.7494 10.3998 33.2892 10.5629 33.7483 10.8684C34.2075 11.1739 34.5653 11.6082 34.7766 12.1162C34.988 12.6243 35.0433 13.1833 34.9355 13.7226C34.8278 14.262 34.5619 14.7574 34.1714 15.1462C33.781 15.5351 33.2835 15.7999 32.7419 15.9072C32.2003 16.0144 31.6389 15.9594 31.1288 15.7489C30.6186 15.5385 30.1826 15.1821 29.8758 14.7249C29.569 14.2677 29.4052 13.7301 29.4052 13.1802C29.4061 12.4431 29.7006 11.7364 30.224 11.2152C30.7474 10.6939 31.457 10.4007 32.1972 10.3998ZM19.8406 3.01303C20.3276 3.0128 20.8061 3.13949 21.2287 3.38049C21.6513 3.62149 22.0032 3.96842 22.2494 4.38681C22.4957 4.80519 22.6277 5.28046 22.6324 5.76539C22.637 6.25032 22.5142 6.72802 22.2761 7.15103L22.2659 7.1658C22.2626 7.17184 22.2599 7.17855 22.2565 7.18459C22.0112 7.60688 21.6586 7.95744 21.2342 8.20105C20.8098 8.44466 20.3284 8.57274 19.8385 8.57243C19.3487 8.57211 18.8675 8.44341 18.4434 8.19925C18.0193 7.95509 17.6671 7.60407 17.4224 7.18147C17.1776 6.75887 17.0489 6.27956 17.0491 5.79171C17.0492 5.30386 17.1783 4.82465 17.4234 4.40222C17.6685 3.9798 18.0208 3.62904 18.4451 3.38519C18.8694 3.14134 19.3507 3.01298 19.8406 3.01303ZM4.692 13.1802C4.692 12.6303 4.85575 12.0927 5.16253 11.6355C5.46932 11.1783 5.90536 10.8219 6.41553 10.6115C6.92569 10.401 7.48707 10.346 8.02865 10.4533C8.57024 10.5605 9.06772 10.8253 9.45819 11.2142C9.84865 11.603 10.1146 12.0984 10.2223 12.6378C10.33 13.1771 10.2747 13.7362 10.0634 14.2442C9.85209 14.7523 9.49424 15.1865 9.0351 15.492C8.57596 15.7975 8.03617 15.9606 7.48397 15.9606C6.74377 15.9597 6.03414 15.6665 5.51074 15.1452C4.98733 14.624 4.6929 13.9173 4.692 13.1802ZM7.48397 29.6953C6.74349 29.6965 6.03288 29.4047 5.50847 28.8841C4.98405 28.3635 4.68878 27.6567 4.68762 26.9193C4.68646 26.1819 4.9795 25.4743 5.50227 24.952C6.02505 24.4298 6.73473 24.1357 7.47521 24.1346H7.49273C8.2332 24.1357 8.94289 24.4298 9.46566 24.952C9.98844 25.4743 10.2815 26.1819 10.2803 26.9193C10.2792 27.6567 9.98389 28.3635 9.45947 28.8841C8.93505 29.4047 8.22444 29.6965 7.48397 29.6953ZM19.8406 36.9909C19.3515 36.9916 18.8708 36.8642 18.4467 36.6216C18.0226 36.379 17.67 36.0296 17.4243 35.6085C17.1786 35.1874 17.0483 34.7093 17.0466 34.2222C17.0449 33.7352 17.1718 33.2562 17.4145 32.8334C17.4186 32.8267 17.424 32.8207 17.428 32.8133C17.4321 32.8059 17.4395 32.7918 17.4449 32.7811C17.6959 32.3644 18.0522 32.0206 18.4782 31.7838C18.9043 31.5471 19.3852 31.4257 19.873 31.4317C20.3609 31.4377 20.8386 31.571 21.2587 31.8182C21.6787 32.0654 22.0263 32.418 22.2668 32.8407C22.5074 33.2634 22.6325 33.7415 22.6296 34.2273C22.6268 34.7132 22.4961 35.1898 22.2507 35.6097C22.0052 36.0296 21.6535 36.3781 21.2306 36.6204C20.8078 36.8628 20.3285 36.9905 19.8406 36.9909ZM32.1972 29.6953C31.645 29.6953 31.1053 29.5323 30.6461 29.2268C30.187 28.9213 29.8292 28.4871 29.6178 27.9791C29.4065 27.4711 29.3512 26.9121 29.4588 26.3728C29.5665 25.8335 29.8324 25.338 30.2227 24.9492C30.6131 24.5603 31.1106 24.2955 31.6521 24.1881C32.1936 24.0807 32.755 24.1357 33.2652 24.346C33.7754 24.5564 34.2114 24.9126 34.5183 25.3698C34.8252 25.8269 34.989 26.3644 34.9892 26.9143C34.9885 27.6515 34.6941 28.3584 34.1707 28.8798C33.6473 29.4011 32.9375 29.6944 32.1972 29.6953Z" fill="url(#paint0_linear_165_281)"/>
<path d="M27.5179 16.2857C27.5179 16.1384 27.479 15.9937 27.405 15.8661C27.3311 15.7386 27.2248 15.6326 27.0967 15.5589L20.5208 11.7786L20.5134 11.7752C20.4952 11.7645 20.4756 11.7558 20.4568 11.7464L20.4366 11.737C20.4143 11.7269 20.3914 11.7189 20.3692 11.7108L20.3577 11.7068C20.2745 11.68 20.1877 11.6664 20.1003 11.6665H20.0922C20.0654 11.6665 20.0387 11.6678 20.012 11.6705H20.0039C19.9774 11.6731 19.9511 11.6772 19.9251 11.6826L19.9136 11.686C19.8887 11.6913 19.8644 11.698 19.8408 11.7054L19.8011 11.7202C19.7402 11.7429 19.6821 11.7724 19.6279 11.8081C19.2195 12.0316 17.8966 12.7926 13.0863 15.5663C12.9586 15.6399 12.8525 15.7457 12.7789 15.873C12.7052 16.0003 12.6664 16.1448 12.6665 16.2917V23.8544C12.6665 23.8597 12.6665 23.8644 12.6665 23.8691C12.6665 23.8987 12.6665 23.9275 12.6726 23.957C12.6726 23.9705 12.6773 23.9832 12.6793 23.9966C12.6813 24.0101 12.6867 24.0349 12.6908 24.0537C12.6948 24.0725 12.6989 24.0832 12.7036 24.098C12.7083 24.1127 12.7144 24.1302 12.7197 24.1463C12.7251 24.1624 12.7312 24.1765 12.7379 24.1913C12.7447 24.206 12.7521 24.2208 12.7602 24.2356C12.8004 24.3156 12.8535 24.3886 12.9172 24.4516C12.9233 24.4577 12.93 24.4624 12.9367 24.4684C12.957 24.4872 12.9778 24.506 13.0001 24.5235L13.0351 24.5463C13.0526 24.5584 13.0702 24.5711 13.089 24.5818L19.6804 28.3507C19.8079 28.4235 19.9523 28.4618 20.0993 28.4618C20.2462 28.4618 20.3906 28.4235 20.5181 28.3507L27.0879 24.6033H27.0913C27.0987 24.5993 27.1048 24.5939 27.1115 24.5899C27.1358 24.5751 27.1601 24.5597 27.183 24.5429L27.2092 24.5201C27.2288 24.504 27.2477 24.4886 27.2659 24.4704C27.284 24.4523 27.2881 24.4463 27.2989 24.4342C27.3097 24.4221 27.3265 24.4047 27.3386 24.3886C27.3589 24.3624 27.3776 24.3351 27.3946 24.3067L27.4013 24.2966V24.2906C27.417 24.2635 27.4309 24.2355 27.4431 24.2067C27.4471 24.1986 27.4498 24.1899 27.4532 24.1812C27.4628 24.1575 27.4711 24.1333 27.4781 24.1087C27.4781 24.1007 27.4829 24.0926 27.4855 24.0839C27.4938 24.0525 27.5001 24.0207 27.5044 23.9886C27.509 23.9546 27.5113 23.9202 27.5112 23.8859C27.5112 23.8859 27.5112 23.8805 27.5112 23.8779L27.5179 16.2857ZM25.8331 22.4142L20.942 19.5821V13.9556L25.8331 16.7675V22.4142ZM19.2572 13.9556V19.5821L14.3506 22.4008V16.7803C15.9733 15.8441 17.9863 14.6838 19.2572 13.9556ZM20.0996 26.6562L15.1963 23.8524L20.0976 21.0337L24.9894 23.8664L20.0996 26.6562Z" fill="url(#paint1_linear_165_281)"/>
<defs>
<linearGradient id="paint0_linear_165_281" x1="4.62044" y1="1.33356" x2="28.0586" y2="1.7293" gradientUnits="userSpaceOnUse">
<stop stop-color="#227BFF"/>
<stop offset="1" stop-color="#451DFF"/>
</linearGradient>
<linearGradient id="paint1_linear_165_281" x1="13.3805" y1="11.6665" x2="23.7081" y2="11.8373" gradientUnits="userSpaceOnUse">
<stop stop-color="#227BFF"/>
<stop offset="1" stop-color="#451DFF"/>
</linearGradient>
</defs>
</svg>
