<svg width="40" height="40" viewBox="0 0 40 40" fill="none" xmlns="http://www.w3.org/2000/svg">
<path d="M32.1972 22.4567C31.4714 22.4565 30.7565 22.6322 30.1141 22.9686C29.4718 23.305 28.9212 23.792 28.51 24.3875C28.0987 24.9831 27.8391 25.6693 27.7536 26.387C27.6681 27.1048 27.7592 27.8324 28.019 28.5073L23.2411 31.3132C22.8236 30.826 22.3055 30.4343 21.7221 30.1649C21.1386 29.8955 20.5037 29.7547 19.8606 29.7521C19.2175 29.7496 18.5814 29.8854 17.9959 30.1501C17.4103 30.4149 16.889 30.8025 16.4677 31.2863L11.6628 28.5113C11.8975 27.9029 11.9952 27.2506 11.9491 26.6004C11.903 25.9503 11.7142 25.3181 11.3961 24.7485C11.0779 24.179 10.6381 23.6859 10.1077 23.304C9.57729 22.9221 8.96921 22.6608 8.32634 22.5385V17.559C8.97749 17.4352 9.59289 17.169 10.1281 16.7794C10.6632 16.3898 11.1048 15.8867 11.4208 15.3064C11.7368 14.7261 11.9193 14.0831 11.9552 13.4239C11.9912 12.7647 11.8795 12.1058 11.6284 11.4949L16.4576 8.70781C16.8778 9.19345 17.3984 9.58294 17.9837 9.8496C18.5691 10.1163 19.2054 10.2538 19.8491 10.2528C20.4928 10.2517 21.1287 10.1122 21.7132 9.84369C22.2977 9.57518 22.8171 9.18404 23.2357 8.69707L28.0588 11.4862C27.6308 12.5153 27.6035 13.6665 27.9824 14.7146C28.3613 15.7627 29.119 16.6325 30.1076 17.1538C31.0961 17.6752 32.2443 17.8107 33.3278 17.5339C34.4113 17.2571 35.3522 16.5878 35.9666 15.6569C36.581 14.726 36.8247 13.6004 36.6501 12.5001C36.4755 11.3998 35.8952 10.4039 35.0225 9.70704C34.1498 9.01017 33.0475 8.66245 31.9311 8.73183C30.8146 8.80121 29.7643 9.28271 28.9854 10.0822L24.0747 7.24212C24.3069 6.57015 24.3744 5.85263 24.2717 5.14939C24.1689 4.44615 23.8988 3.77757 23.4839 3.19938C23.069 2.6212 22.5213 2.15017 21.8865 1.82556C21.2516 1.50096 20.5481 1.33219 19.8345 1.33332C19.1209 1.33445 18.4179 1.50545 17.7841 1.83207C17.1503 2.15869 16.6041 2.63145 16.1911 3.21095C15.778 3.79045 15.5101 4.45989 15.4095 5.16345C15.309 5.86701 15.3789 6.58431 15.6132 7.25554L10.7052 10.0883C10.2168 9.58374 9.61582 9.20102 8.95103 8.97118C8.28625 8.74133 7.5764 8.67085 6.87913 8.76544C6.18186 8.86003 5.51682 9.11704 4.938 9.51559C4.35917 9.91414 3.88288 10.443 3.5478 11.0592C3.21271 11.6755 3.02827 12.3617 3.00945 13.0623C2.99064 13.7628 3.13797 14.4579 3.4395 15.0911C3.74103 15.7243 4.18825 16.2777 4.74485 16.7065C5.30145 17.1353 5.95175 17.4274 6.64294 17.559V22.5385C5.94667 22.6699 5.29166 22.964 4.73182 23.3967C4.17197 23.8293 3.72328 24.3882 3.42267 25.0273C3.12206 25.6663 2.97812 26.3673 3.00269 27.0726C3.02726 27.7779 3.21964 28.4673 3.564 29.0841C3.90836 29.7009 4.39485 30.2275 4.98346 30.6204C5.57207 31.0134 6.24597 31.2616 6.94971 31.3446C7.65345 31.4276 8.36692 31.343 9.03141 31.0978C9.69591 30.8526 10.2924 30.4537 10.7719 29.9341L15.6166 32.7332C15.38 33.404 15.308 34.1213 15.4064 34.8254C15.5049 35.5295 15.771 36.2 16.1826 36.7808C16.5941 37.3617 17.1392 37.8361 17.7724 38.1645C18.4055 38.4929 19.1083 38.6657 19.8222 38.6686C20.536 38.6715 21.2402 38.5044 21.876 38.1811C22.5118 37.8578 23.0608 37.3878 23.4771 36.8103C23.8933 36.2328 24.1649 35.5646 24.2691 34.8613C24.3733 34.158 24.3071 33.4401 24.076 32.7675L28.9059 29.9341C29.4098 30.4789 30.0421 30.8901 30.7456 31.1304C31.4491 31.3708 32.2017 31.4327 32.9353 31.3106C33.669 31.1886 34.3605 30.8863 34.9473 30.4313C35.5342 29.9762 35.9979 29.3827 36.2965 28.7043C36.5952 28.0259 36.7193 27.2841 36.6578 26.546C36.5963 25.8078 36.3509 25.0966 35.944 24.4766C35.5371 23.8565 34.9814 23.3473 34.3273 22.9949C33.6731 22.6424 32.941 22.4579 32.1972 22.458V22.4567ZM32.1972 10.3997C32.7494 10.3997 33.2892 10.5627 33.7483 10.8682C34.2075 11.1737 34.5653 11.608 34.7766 12.116C34.988 12.6241 35.0433 13.1831 34.9355 13.7224C34.8278 14.2618 34.5619 14.7572 34.1714 15.146C33.781 15.5349 33.2835 15.7997 32.7419 15.907C32.2003 16.0143 31.6389 15.9592 31.1288 15.7488C30.6186 15.5383 30.1826 15.1819 29.8758 14.7247C29.569 14.2675 29.4052 13.7299 29.4052 13.18C29.4061 12.4429 29.7006 11.7362 30.224 11.215C30.7474 10.6938 31.457 10.4005 32.1972 10.3997ZM19.8406 3.01284C20.3276 3.01262 20.8061 3.1393 21.2287 3.38031C21.6513 3.62131 22.0032 3.96824 22.2494 4.38662C22.4957 4.80501 22.6277 5.28028 22.6324 5.7652C22.637 6.25013 22.5142 6.72784 22.2761 7.15085L22.2659 7.16562C22.2626 7.17166 22.2599 7.17837 22.2565 7.18441C22.0112 7.60669 21.6586 7.95725 21.2342 8.20087C20.8098 8.44448 20.3284 8.57256 19.8385 8.57224C19.3487 8.57193 18.8675 8.44322 18.4434 8.19906C18.0193 7.95491 17.6671 7.60389 17.4224 7.18129C17.1776 6.75868 17.0489 6.27938 17.0491 5.79153C17.0492 5.30368 17.1783 4.82446 17.4234 4.40204C17.6685 3.97961 18.0208 3.62886 18.4451 3.38501C18.8694 3.14116 19.3507 3.0128 19.8406 3.01284ZM4.692 13.18C4.692 12.6301 4.85575 12.0926 5.16253 11.6353C5.46932 11.1781 5.90536 10.8217 6.41553 10.6113C6.92569 10.4009 7.48707 10.3458 8.02865 10.4531C8.57024 10.5604 9.06772 10.8252 9.45819 11.214C9.84865 11.6028 10.1146 12.0983 10.2223 12.6376C10.33 13.1769 10.2747 13.736 10.0634 14.244C9.85209 14.7521 9.49424 15.1863 9.0351 15.4918C8.57596 15.7973 8.03617 15.9604 7.48397 15.9604C6.74377 15.9595 6.03414 15.6663 5.51074 15.1451C4.98733 14.6238 4.6929 13.9172 4.692 13.18ZM7.48397 29.6952C6.74349 29.6963 6.03288 29.4045 5.50847 28.8839C4.98405 28.3633 4.68878 27.6565 4.68762 26.9191C4.68646 26.1817 4.9795 25.4741 5.50227 24.9518C6.02505 24.4296 6.73473 24.1356 7.47521 24.1344H7.49273C8.2332 24.1356 8.94289 24.4296 9.46566 24.9518C9.98844 25.4741 10.2815 26.1817 10.2803 26.9191C10.2792 27.6565 9.98389 28.3633 9.45947 28.8839C8.93505 29.4045 8.22444 29.6963 7.48397 29.6952ZM19.8406 36.9907C19.3515 36.9914 18.8708 36.8641 18.4467 36.6214C18.0226 36.3788 17.67 36.0294 17.4243 35.6083C17.1786 35.1872 17.0483 34.7091 17.0466 34.222C17.0449 33.735 17.1718 33.256 17.4145 32.8332C17.4186 32.8265 17.424 32.8205 17.428 32.8131C17.4321 32.8057 17.4395 32.7916 17.4449 32.7809C17.6959 32.3642 18.0522 32.0204 18.4782 31.7836C18.9043 31.5469 19.3852 31.4255 19.873 31.4315C20.3609 31.4375 20.8386 31.5708 21.2587 31.818C21.6787 32.0652 22.0263 32.4178 22.2668 32.8405C22.5074 33.2632 22.6325 33.7413 22.6296 34.2272C22.6268 34.713 22.4961 35.1896 22.2507 35.6095C22.0052 36.0294 21.6535 36.3779 21.2306 36.6202C20.8078 36.8626 20.3285 36.9903 19.8406 36.9907ZM32.1972 29.6952C31.645 29.6952 31.1053 29.5321 30.6461 29.2266C30.187 28.9211 29.8292 28.4869 29.6178 27.9789C29.4065 27.4709 29.3512 26.9119 29.4588 26.3726C29.5665 25.8333 29.8324 25.3379 30.2227 24.949C30.6131 24.5601 31.1106 24.2953 31.6521 24.1879C32.1936 24.0806 32.755 24.1355 33.2652 24.3459C33.7754 24.5562 34.2114 24.9125 34.5183 25.3696C34.8252 25.8267 34.989 26.3642 34.9892 26.9141C34.9885 27.6514 34.6941 28.3582 34.1707 28.8796C33.6473 29.401 32.9375 29.6943 32.1972 29.6952Z" fill="#F9F6F1"/>
<path d="M27.5184 16.2859C27.5184 16.1386 27.4794 15.9939 27.4055 15.8663C27.3316 15.7387 27.2253 15.6328 27.0972 15.5591L20.5213 11.7788L20.5139 11.7754C20.4957 11.7647 20.4761 11.7559 20.4573 11.7465L20.437 11.7372C20.4148 11.7271 20.3919 11.719 20.3697 11.711L20.3582 11.707C20.275 11.6802 20.1882 11.6666 20.1008 11.6667H20.0927C20.0659 11.6667 20.0391 11.668 20.0125 11.6707H20.0044C19.9779 11.6733 19.9516 11.6774 19.9256 11.6828L19.9141 11.6861C19.8892 11.6915 19.8649 11.6982 19.8413 11.7056L19.8016 11.7204C19.7407 11.7431 19.6826 11.7726 19.6284 11.8083C19.22 12.0318 17.8971 12.7928 13.0868 15.5665C12.9591 15.6401 12.853 15.7458 12.7793 15.8732C12.7056 16.0005 12.6669 16.1449 12.667 16.2919V23.8546C12.667 23.8599 12.667 23.8646 12.667 23.8693C12.667 23.8988 12.667 23.9277 12.6731 23.9572C12.6731 23.9707 12.6778 23.9834 12.6798 23.9968C12.6818 24.0102 12.6872 24.0351 12.6913 24.0539C12.6953 24.0727 12.6993 24.0834 12.7041 24.0982C12.7088 24.1129 12.7148 24.1304 12.7202 24.1465C12.7256 24.1626 12.7317 24.1767 12.7384 24.1914C12.7452 24.2062 12.7526 24.221 12.7607 24.2357C12.8009 24.3158 12.8539 24.3887 12.9177 24.4518C12.9237 24.4579 12.9305 24.4626 12.9372 24.4686C12.9574 24.4874 12.9783 24.5062 13.0006 24.5236L13.0356 24.5465C13.0531 24.5585 13.0707 24.5713 13.0895 24.582L19.6809 28.3509C19.8084 28.4237 19.9528 28.462 20.0998 28.462C20.2467 28.462 20.3911 28.4237 20.5186 28.3509L27.0884 24.6035H27.0918C27.0992 24.5995 27.1053 24.5941 27.112 24.5901C27.1363 24.5753 27.1605 24.5599 27.1835 24.5431L27.2097 24.5203C27.2293 24.5042 27.2481 24.4887 27.2663 24.4706C27.2845 24.4525 27.2886 24.4465 27.2994 24.4344C27.3101 24.4223 27.327 24.4049 27.3391 24.3887C27.3594 24.3626 27.3781 24.3352 27.3951 24.3069L27.4018 24.2968V24.2908C27.4175 24.2637 27.4314 24.2357 27.4436 24.2069C27.4476 24.1988 27.4503 24.1901 27.4537 24.1814C27.4633 24.1577 27.4716 24.1335 27.4786 24.1089C27.4786 24.1008 27.4833 24.0928 27.486 24.0841C27.4943 24.0527 27.5006 24.0209 27.5049 23.9888C27.5095 23.9547 27.5117 23.9204 27.5116 23.8861C27.5116 23.8861 27.5116 23.8807 27.5116 23.878L27.5184 16.2859ZM25.8336 22.4144L20.9425 19.5823V13.9558L25.8336 16.7677V22.4144ZM19.2577 13.9558V19.5823L14.3511 22.4009V16.7805C15.9738 15.8443 17.9868 14.684 19.2577 13.9558ZM20.1001 26.6564L15.1968 23.8525L20.0981 21.0339L24.9899 23.8666L20.1001 26.6564Z" fill="#F9F6F1"/>
</svg>
