<svg width="16" height="16" viewBox="0 0 16 16" fill="none" xmlns="http://www.w3.org/2000/svg">
<path d="M10.0002 4.6665V7.33317H10.6669V8.6665H8.66686V3.33317H10.0002L8.0002 0.666504L6.0002 3.33317H7.33353V8.6665H5.33353V7.2865C5.8002 7.03984 6.13353 6.5665 6.13353 5.99984C6.13353 5.19317 5.47353 4.53317 4.66686 4.53317C3.8602 4.53317 3.2002 5.19317 3.2002 5.99984C3.2002 6.5665 3.53353 7.03984 4.0002 7.2865V8.6665C4.0002 9.4065 4.59353 9.99984 5.33353 9.99984H7.33353V12.0332C6.8602 12.2798 6.53353 12.7665 6.53353 13.3332C6.53353 14.1465 7.19353 14.7998 8.0002 14.7998C8.80686 14.7998 9.46686 14.1465 9.46686 13.3332C9.46686 12.7665 9.1402 12.2798 8.66686 12.0332V9.99984H10.6669C11.4069 9.99984 12.0002 9.4065 12.0002 8.6665V7.33317H12.6669V4.6665H10.0002Z" fill="white"/>
</svg>
