<svg width="1533" height="242" viewBox="0 0 1533 242" fill="none" xmlns="http://www.w3.org/2000/svg">
<g clip-path="url(#clip0)">
<path d="M1157.95 121.694C1151.15 117.195 1143.65 113.996 1136.55 109.997C1131.95 107.398 1127.05 105.098 1123.05 101.799C1116.24 96.2 1117.64 85.2024 1124.75 80.4035C1134.95 73.605 1151.85 77.4042 1153.65 91.3011C1153.65 91.601 1153.95 91.801 1154.25 91.801H1169.66C1170.06 91.801 1170.36 91.501 1170.26 91.1011C1169.46 81.5033 1165.75 73.505 1158.95 68.4062C1152.45 63.5073 1145.05 60.9078 1137.15 60.9078C1096.44 60.9078 1092.74 103.998 1114.64 117.595C1117.14 119.195 1138.65 129.992 1146.25 134.691C1153.85 139.39 1156.25 147.988 1152.95 154.787C1149.95 160.986 1142.15 165.285 1134.35 164.785C1125.85 164.285 1119.24 159.686 1116.94 152.487C1116.54 151.188 1116.34 148.688 1116.34 147.589C1116.34 147.289 1116.04 146.989 1115.74 146.989H1099.04C1098.74 146.989 1098.44 147.289 1098.44 147.589C1098.44 159.686 1101.44 166.384 1109.64 172.483C1117.34 178.282 1125.75 180.681 1134.45 180.681C1157.25 180.681 1169.06 167.784 1171.46 154.387C1173.56 141.29 1169.66 129.493 1157.95 121.694V121.694Z" fill="#24292E"/>
<path d="M432.694 63.1091H425.293H417.191C416.891 63.1091 416.691 63.3091 416.591 63.509L402.888 108.698C402.688 109.298 401.888 109.298 401.688 108.698L387.985 63.509C387.885 63.2091 387.685 63.1091 387.384 63.1091H379.283H371.881H361.879C361.579 63.1091 361.279 63.4091 361.279 63.709V179.082C361.279 179.382 361.579 179.682 361.879 179.682H378.583C378.883 179.682 379.183 179.382 379.183 179.082V91.4025C379.183 90.7027 380.183 90.6027 380.383 91.2025L394.186 136.692L395.186 139.891C395.286 140.191 395.486 140.291 395.786 140.291H408.589C408.889 140.291 409.089 140.091 409.189 139.891L410.189 136.692L423.992 91.2025C424.192 90.5027 425.193 90.7027 425.193 91.4025V179.082C425.193 179.382 425.493 179.682 425.793 179.682H442.496C442.796 179.682 443.097 179.382 443.097 179.082V63.709C443.097 63.4091 442.796 63.1091 442.496 63.1091H432.694Z" fill="#24292E"/>
<path d="M902.197 63.1091C901.897 63.1091 901.697 63.3091 901.597 63.509L887.894 108.698C887.694 109.298 886.894 109.298 886.694 108.698L872.991 63.509C872.891 63.2091 872.691 63.1091 872.39 63.1091H846.985C846.685 63.1091 846.385 63.4091 846.385 63.709V179.082C846.385 179.382 846.685 179.682 846.985 179.682H863.689C863.989 179.682 864.289 179.382 864.289 179.082V91.4025C864.289 90.7027 865.289 90.6027 865.489 91.2025L879.292 136.692L880.292 139.891C880.392 140.191 880.592 140.291 880.892 140.291H893.695C893.995 140.291 894.195 140.091 894.295 139.891L895.295 136.692L909.098 91.2025C909.299 90.5027 910.299 90.7027 910.299 91.4025V179.082C910.299 179.382 910.599 179.682 910.899 179.682H927.603C927.903 179.682 928.203 179.382 928.203 179.082V63.709C928.203 63.4091 927.903 63.1091 927.603 63.1091H902.197Z" fill="#24292E"/>
<path d="M686.749 63.1091H655.642H638.938H607.832C607.532 63.1091 607.231 63.4091 607.231 63.709V78.1056C607.231 78.4055 607.532 78.7055 607.832 78.7055H638.338V179.082C638.338 179.382 638.638 179.682 638.938 179.682H655.642C655.942 179.682 656.242 179.382 656.242 179.082V78.7055H686.749C687.049 78.7055 687.349 78.4055 687.349 78.1056V63.709C687.349 63.4091 687.149 63.1091 686.749 63.1091V63.1091Z" fill="#24292E"/>
<path d="M785.272 179.681H800.475C800.875 179.681 801.175 179.281 801.075 178.881L769.668 63.1082C769.568 62.8082 769.368 62.7083 769.068 62.7083H763.267H753.065H747.264C746.964 62.7083 746.763 62.9082 746.663 63.1082L715.257 178.881C715.157 179.281 715.457 179.681 715.857 179.681H731.06C731.36 179.681 731.56 179.481 731.66 179.281L740.762 145.589C740.862 145.289 741.062 145.189 741.362 145.189H774.97C775.27 145.189 775.47 145.389 775.57 145.589L784.672 179.281C784.772 179.481 785.072 179.681 785.272 179.681V179.681ZM745.363 128.693L757.566 83.6034C757.766 83.0035 758.566 83.0035 758.766 83.6034L770.969 128.693C771.069 129.093 770.769 129.493 770.369 129.493H745.963C745.563 129.493 745.263 129.093 745.363 128.693V128.693Z" fill="#24292E"/>
<path d="M1044.53 179.681H1059.73C1060.13 179.681 1060.43 179.281 1060.33 178.881L1028.93 63.1082C1028.83 62.8082 1028.63 62.7083 1028.33 62.7083H1022.52H1012.32H1006.52C1006.22 62.7083 1006.02 62.9082 1005.92 63.1082L974.514 178.881C974.414 179.281 974.714 179.681 975.114 179.681H990.317C990.618 179.681 990.818 179.481 990.918 179.281L1000.02 145.589C1000.12 145.289 1000.32 145.189 1000.62 145.189H1034.23C1034.53 145.189 1034.73 145.389 1034.83 145.589L1043.93 179.281C1044.03 179.481 1044.23 179.681 1044.53 179.681V179.681ZM1004.62 128.693L1016.82 83.6034C1017.02 83.0035 1017.82 83.0035 1018.02 83.6034L1030.23 128.693C1030.33 129.093 1030.03 129.493 1029.63 129.493H1005.22C1004.82 129.493 1004.52 129.093 1004.62 128.693V128.693Z" fill="#24292E"/>
<path d="M510.909 162.584V126.793C510.909 126.493 511.209 126.193 511.509 126.193H556.019C556.319 126.193 556.619 125.893 556.619 125.593V111.196C556.619 110.896 556.319 110.596 556.019 110.596H511.509C511.209 110.596 510.909 110.296 510.909 109.997V79.4037C510.909 79.1038 511.209 78.8039 511.509 78.8039H562.121C562.421 78.8039 562.721 78.5039 562.721 78.204V63.8074C562.721 63.5074 562.421 63.2075 562.121 63.2075H510.909H493.606C493.305 63.2075 493.005 63.5074 493.005 63.8074V78.8039V110.696V126.293V163.284V179.08C493.005 179.38 493.305 179.68 493.606 179.68H510.909H564.221C564.521 179.68 564.821 179.38 564.821 179.08V163.884C564.821 163.584 564.521 163.284 564.221 163.284H511.409C511.109 163.184 510.909 162.984 510.909 162.584Z" fill="#24292E"/>
<path d="M1310.58 178.681L1252.77 118.995C1252.57 118.795 1252.57 118.395 1252.77 118.195L1304.78 64.2074C1305.18 63.8075 1304.88 63.2076 1304.38 63.2076H1283.08C1282.88 63.2076 1282.78 63.3076 1282.68 63.4076L1238.57 109.197C1238.17 109.597 1237.57 109.297 1237.57 108.797V63.8075C1237.57 63.5076 1237.27 63.2076 1236.97 63.2076H1220.26C1219.96 63.2076 1219.66 63.5076 1219.66 63.8075V179.181C1219.66 179.48 1219.96 179.78 1220.26 179.78H1236.97C1237.27 179.78 1237.57 179.48 1237.57 179.181V128.392C1237.57 127.893 1238.27 127.593 1238.57 127.993L1288.58 179.58C1288.68 179.68 1288.88 179.78 1288.98 179.78H1310.28C1310.68 179.68 1310.98 178.981 1310.58 178.681V178.681Z" fill="#24292E"/>
<path d="M1512.38 110.091H1359.98C1348.59 110.091 1339.36 100.86 1339.36 89.4845V44.6061C1339.36 33.231 1348.59 24 1359.98 24H1512.38C1523.76 24 1533 33.231 1533 44.6061V89.4845C1533 100.876 1523.76 110.091 1512.38 110.091Z" fill="#F66A0A"/>
<path d="M1371.47 48.027H1386.48C1388.08 48.027 1389.62 48.3377 1391.06 48.9592C1392.5 49.5807 1393.76 50.4149 1394.86 51.478C1395.94 52.5411 1396.79 53.8004 1397.41 55.2397C1398.04 56.679 1398.35 58.2164 1398.35 59.8683C1398.35 61.2912 1398.09 62.567 1397.56 63.7118C1397.04 64.8567 1396.35 65.8544 1395.48 66.7213C1397.17 67.5881 1398.53 68.8311 1399.59 70.483C1400.64 72.1349 1401.17 74.0158 1401.17 76.1583C1401.17 77.8102 1400.85 79.3313 1400.23 80.7542C1399.61 82.1771 1398.76 83.4202 1397.68 84.4833C1396.6 85.5464 1395.3 86.3805 1393.83 86.9856C1392.35 87.5908 1390.75 87.8852 1389.03 87.8852H1371.49V48.027H1371.47ZM1385.46 64.1371C1386.66 64.1371 1387.65 63.7609 1388.44 62.9922C1389.23 62.2235 1389.62 61.3076 1389.62 60.2118C1389.62 59.1323 1389.23 58.1837 1388.44 57.3823C1387.65 56.5809 1386.66 56.172 1385.46 56.172H1380.4V64.1371H1385.46V64.1371ZM1388.28 79.6748C1389.47 79.6748 1390.47 79.2986 1391.26 78.5299C1392.04 77.7612 1392.44 76.8126 1392.44 75.7004C1392.44 74.6209 1392.03 73.6723 1391.22 72.8873C1390.42 72.1022 1389.42 71.7097 1388.21 71.7097H1380.4V79.6748H1388.28Z" fill="white"/>
<path d="M1407.16 48.0112H1432.45V56.5488H1416.08V63.6798H1429.07V72.2173H1416.08V79.3483H1432.45V87.8858H1407.16V48.0112Z" fill="white"/>
<path d="M1446.43 56.5311H1436.26V47.9935H1465.71V56.5311H1455.42V87.8518H1446.43V56.5311Z" fill="white"/>
<path d="M1479.92 48.0112H1488.01L1505.09 87.8531H1495.76L1492.22 79.43H1475.69L1472.16 87.8531H1462.82L1479.92 48.0112ZM1478.92 71.6939H1488.98L1483.98 59.7381L1478.92 71.6939Z" fill="white"/>
<g clip-path="url(#clip1)">
<path d="M145.555 130.761L149.839 72.3187L167.281 30.6899H92.7188L110.161 72.3187L114.445 130.761L115.771 149.195L115.873 194.572H144.127L144.229 149.195L145.555 130.761Z" fill="url(#paint0_linear)"/>
<path d="M240.11 119.518L186.764 104.021L202.88 128.229L178.808 174.821L210.632 174.416H257.96L240.11 119.518Z" fill="url(#paint1_linear)"/>
<path d="M73.2366 104.021L19.8902 119.518L2.14209 174.416H49.4705L81.1927 174.821L57.1205 128.229L73.2366 104.021Z" fill="url(#paint2_linear)"/>
<path d="M150.859 160.033L144.127 194.572L149.023 197.914L178.807 174.821L179.725 151.626L150.859 160.033Z" fill="url(#paint3_linear)"/>
<path d="M80.3765 151.626L81.1925 174.821L110.977 197.914L115.873 194.572L109.141 160.033L80.3765 151.626Z" fill="url(#paint4_linear)"/>
<path d="M251.432 79.7125L260 38.3876L247.148 0L149.023 72.3186L185.642 104.933L240.11 119.518L251.84 105.844L246.74 102.198L254.9 94.8042L248.678 89.9425L256.838 83.764L251.432 79.7125Z" fill="url(#paint5_linear)"/>
<path d="M0 38.3876L8.67007 79.7125L3.16202 83.764L11.3221 89.9425L5.10004 94.8042L13.2601 102.198L8.16006 105.844L19.8902 119.518L74.4606 104.933L110.977 72.3186L12.8521 0L0 38.3876Z" fill="url(#paint6_linear)"/>
<path d="M57.1206 128.229L80.3768 151.626L81.1928 174.821L57.1206 128.229Z" fill="url(#paint7_linear)"/>
<path d="M202.88 128.229L178.808 174.821L179.726 151.626L202.88 128.229Z" fill="url(#paint8_linear)"/>
<path d="M183.602 214.626L149.023 197.914L151.777 220.298L151.471 229.718L183.602 214.626Z" fill="#D7C1B3" stroke="#D7C1B3" stroke-width="1.42167" stroke-linecap="round" stroke-linejoin="round"/>
<path d="M76.3989 214.626L108.529 229.718L108.325 220.298L110.977 197.914L76.3989 214.626Z" fill="#D7C1B3" stroke="#D7C1B3" stroke-width="1.42167" stroke-linecap="round" stroke-linejoin="round"/>
<path d="M210.632 174.415L183.602 214.626L241.436 230.427L257.96 174.415H210.632Z" fill="url(#paint9_linear)"/>
<path d="M2.14209 174.415L18.5642 230.427L76.3987 214.626L49.4705 174.415H2.14209Z" fill="url(#paint10_linear)"/>
<path d="M12.8521 0L110.977 72.3186L95.5747 30.6898L12.8521 0Z" fill="url(#paint11_linear)"/>
<path d="M164.425 30.6898L149.023 72.3186L247.148 0L164.425 30.6898Z" fill="url(#paint12_linear)"/>
<path d="M73.2367 104.021L57.1206 128.229L114.445 130.761L110.977 72.3186L73.2367 104.021Z" fill="url(#paint13_linear)"/>
<path d="M186.763 104.021L149.023 72.3186L145.555 130.761L202.879 128.229L186.763 104.021Z" fill="url(#paint14_linear)"/>
<path d="M76.3989 214.626L110.977 197.914L81.193 174.821L76.3989 214.626Z" fill="url(#paint15_linear)"/>
<path d="M149.023 197.914L183.602 214.626L178.808 174.821L149.023 197.914Z" fill="url(#paint16_linear)"/>
<path d="M76.3989 214.626L81.1929 174.82L49.4707 174.415L76.3989 214.626Z" fill="url(#paint17_linear)"/>
<path d="M178.808 174.82L183.602 214.626L210.632 174.415L178.808 174.82Z" fill="url(#paint18_linear)"/>
<path d="M202.88 128.229L145.556 130.761L150.86 160.033L159.326 142.409L179.726 151.626L202.88 128.229Z" fill="url(#paint19_linear)"/>
<path d="M80.3773 151.626L100.675 142.409L109.141 160.033L114.446 130.761L57.1211 128.229L80.3773 151.626Z" fill="url(#paint20_linear)"/>
<path fill-rule="evenodd" clip-rule="evenodd" d="M144.229 149.195L150.859 160.033L145.555 130.761L144.229 149.195ZM144.229 149.195L144.229 149.195L144.127 194.571L150.859 160.033L144.229 149.195Z" fill="url(#paint21_linear)"/>
<path fill-rule="evenodd" clip-rule="evenodd" d="M114.445 130.761L109.141 160.033L115.873 194.571L115.771 149.195L115.771 149.195L114.445 130.761Z" fill="url(#paint22_linear)"/>
<path d="M151.655 229.596L151.778 220.298L149.228 218.07H110.773L108.325 220.298L108.529 229.718L76.3989 214.626L87.619 223.742L110.467 239.441H149.534L172.382 223.742L183.602 214.626L151.655 229.596Z" fill="#C0AD9E" stroke="#C0AD9E" stroke-width="1.42167" stroke-linecap="round" stroke-linejoin="round"/>
<path d="M149.023 197.914L144.127 194.571H115.873L110.977 197.914L108.325 220.298L110.773 218.07H149.227L151.777 220.298L149.023 197.914Z" fill="#161616" stroke="#161616" stroke-width="0.142167" stroke-miterlimit="10" stroke-linejoin="round"/>
<path d="M159.325 142.409L150.859 160.033L179.726 151.626L159.325 142.409Z" fill="#161616"/>
<path d="M100.675 142.409L109.141 160.033L80.377 151.626L100.675 142.409Z" fill="#161616"/>
</g>
</g>
<defs>
<linearGradient id="paint0_linear" x1="130" y1="30.6899" x2="130" y2="194.572" gradientUnits="userSpaceOnUse">
<stop stop-color="#21FF47"/>
<stop offset="1" stop-color="#BCD8F0"/>
</linearGradient>
<linearGradient id="paint1_linear" x1="218.384" y1="104.021" x2="218.384" y2="174.821" gradientUnits="userSpaceOnUse">
<stop stop-color="#1CAD68"/>
<stop offset="1" stop-color="#77BDD4"/>
</linearGradient>
<linearGradient id="paint2_linear" x1="41.6674" y1="104.021" x2="41.6674" y2="174.821" gradientUnits="userSpaceOnUse">
<stop stop-color="#1CAD68"/>
<stop offset="1" stop-color="#77BDD4"/>
</linearGradient>
<linearGradient id="paint3_linear" x1="161.926" y1="151.626" x2="161.926" y2="197.914" gradientUnits="userSpaceOnUse">
<stop stop-color="#7BCBC8"/>
<stop offset="1" stop-color="#87B9E6"/>
</linearGradient>
<linearGradient id="paint4_linear" x1="98.1246" y1="151.626" x2="98.1246" y2="197.914" gradientUnits="userSpaceOnUse">
<stop stop-color="#7BCBC8"/>
<stop offset="1" stop-color="#87B9E6"/>
</linearGradient>
<linearGradient id="paint5_linear" x1="204.512" y1="0" x2="204.512" y2="119.518" gradientUnits="userSpaceOnUse">
<stop stop-color="#007715"/>
<stop offset="1" stop-color="#0A3424"/>
</linearGradient>
<linearGradient id="paint6_linear" x1="55.4884" y1="0" x2="55.4884" y2="119.518" gradientUnits="userSpaceOnUse">
<stop stop-color="#007715"/>
<stop offset="1" stop-color="#0A3424"/>
</linearGradient>
<linearGradient id="paint7_linear" x1="69.1567" y1="128.229" x2="69.1567" y2="174.821" gradientUnits="userSpaceOnUse">
<stop stop-color="#42C4A0"/>
<stop offset="1" stop-color="#51ACC7"/>
</linearGradient>
<linearGradient id="paint8_linear" x1="190.844" y1="128.229" x2="190.844" y2="174.821" gradientUnits="userSpaceOnUse">
<stop stop-color="#42C4A0"/>
<stop offset="1" stop-color="#51ACC7"/>
</linearGradient>
<linearGradient id="paint9_linear" x1="220.781" y1="174.415" x2="220.781" y2="230.427" gradientUnits="userSpaceOnUse">
<stop stop-color="#5BAECB"/>
<stop offset="1" stop-color="#4160C1"/>
</linearGradient>
<linearGradient id="paint10_linear" x1="39.2704" y1="174.415" x2="39.2704" y2="230.427" gradientUnits="userSpaceOnUse">
<stop stop-color="#5BAECB"/>
<stop offset="1" stop-color="#4160C1"/>
</linearGradient>
<linearGradient id="paint11_linear" x1="61.9144" y1="0" x2="61.9144" y2="72.3186" gradientUnits="userSpaceOnUse">
<stop stop-color="#01EA28"/>
<stop offset="1" stop-color="#10D24F"/>
</linearGradient>
<linearGradient id="paint12_linear" x1="198.085" y1="0" x2="198.085" y2="72.3186" gradientUnits="userSpaceOnUse">
<stop stop-color="#01EA28"/>
<stop offset="1" stop-color="#10D24F"/>
</linearGradient>
<linearGradient id="paint13_linear" x1="85.7828" y1="72.3186" x2="85.7828" y2="130.761" gradientUnits="userSpaceOnUse">
<stop stop-color="#12DB56"/>
<stop offset="1" stop-color="#4CC9A3"/>
</linearGradient>
<linearGradient id="paint14_linear" x1="174.217" y1="72.3186" x2="174.217" y2="130.761" gradientUnits="userSpaceOnUse">
<stop stop-color="#12DB56"/>
<stop offset="1" stop-color="#4CC9A3"/>
</linearGradient>
<linearGradient id="paint15_linear" x1="93.6881" y1="174.821" x2="93.6881" y2="214.626" gradientUnits="userSpaceOnUse">
<stop stop-color="#5BAECB"/>
<stop offset="1" stop-color="#4160C1"/>
</linearGradient>
<linearGradient id="paint16_linear" x1="166.313" y1="174.821" x2="166.313" y2="214.626" gradientUnits="userSpaceOnUse">
<stop stop-color="#5BAECB"/>
<stop offset="1" stop-color="#4160C1"/>
</linearGradient>
<linearGradient id="paint17_linear" x1="65.3318" y1="174.415" x2="65.3318" y2="214.626" gradientUnits="userSpaceOnUse">
<stop stop-color="#32809D"/>
<stop offset="1" stop-color="#477DD5"/>
</linearGradient>
<linearGradient id="paint18_linear" x1="194.72" y1="174.415" x2="194.72" y2="214.626" gradientUnits="userSpaceOnUse">
<stop stop-color="#32809D"/>
<stop offset="1" stop-color="#477DD5"/>
</linearGradient>
<linearGradient id="paint19_linear" x1="174.218" y1="128.229" x2="174.218" y2="160.033" gradientUnits="userSpaceOnUse">
<stop stop-color="#239777"/>
<stop offset="1" stop-color="#2C8A8D"/>
</linearGradient>
<linearGradient id="paint20_linear" x1="85.7833" y1="128.229" x2="85.7833" y2="160.033" gradientUnits="userSpaceOnUse">
<stop stop-color="#239777"/>
<stop offset="1" stop-color="#2C8A8D"/>
</linearGradient>
<linearGradient id="paint21_linear" x1="147.493" y1="130.761" x2="147.493" y2="194.571" gradientUnits="userSpaceOnUse">
<stop stop-color="#42C4A0"/>
<stop offset="1" stop-color="#51ACC7"/>
</linearGradient>
<linearGradient id="paint22_linear" x1="112.507" y1="130.761" x2="112.507" y2="194.571" gradientUnits="userSpaceOnUse">
<stop stop-color="#42C4A0"/>
<stop offset="1" stop-color="#51ACC7"/>
</linearGradient>
<clipPath id="clip0">
<rect width="1533" height="242" fill="white"/>
</clipPath>
<clipPath id="clip1">
<rect width="260" height="239.948" fill="white"/>
</clipPath>
</defs>
</svg>
