<svg xmlns="http://www.w3.org/2000/svg" viewBox="0 0 100 100"><title>Asset 1</title><g id="Layer_2" data-name="Layer 2"><g id="Layer_1-2" data-name="Layer 1"><path d="M24.9,93.22a49.86,49.86,0,0,0,52-1.09A50.18,50.18,0,0,0,88.32,82.07c-2.72-3.79-5.62-7.7-8.68-11.68-.82-1.07-1.67-2.15-2.52-3.24A32.27,32.27,0,0,1,63.55,79.09L55,70.73Z"/><path d="M6.63,25.16A49.87,49.87,0,0,0,7.88,76.89a50.54,50.54,0,0,0,10,11.41c3.79-2.72,7.71-5.62,11.69-8.68l3.24-2.51A32.22,32.22,0,0,1,20.91,63.54l8.42-8.62Z"/><path d="M75.12,6.79a49.87,49.87,0,0,0-52,1.09,50.54,50.54,0,0,0-11.41,10c2.72,3.79,5.62,7.71,8.68,11.69.82,1.07,1.67,2.16,2.51,3.24A32.31,32.31,0,0,1,36.46,20.9h0l8.05,7.85Z"/><path d="M93.48,74.63a49.82,49.82,0,0,0-1.35-51.5A50.18,50.18,0,0,0,82.07,11.68c-3.79,2.72-7.7,5.62-11.68,8.68-1.07.82-2.15,1.67-3.24,2.52a32.27,32.27,0,0,1,12,13.6l0,.12L71.05,45Z"/></g></g></svg>