<svg id="Layer_1" data-name="Layer 1" xmlns="http://www.w3.org/2000/svg" viewBox="0 0 91 91"><defs><style>.cls-1{fill:#231f20;stroke:#fff;stroke-miterlimit:10;}.cls-2{fill:#fff;}</style></defs><title>CVL_token</title><circle class="cls-1" cx="45.5" cy="45.5" r="45"/><g id="CIVIL_LOGO" data-name="CIVIL LOGO"><path class="cls-2" d="M29.2,45A17.57,17.57,0,0,1,47.05,27.06c6.48,0,11,2.54,14,6.76l-4.23,3c-2.35-3.1-5.26-4.79-10-4.79-7,0-12,5.54-12,13,0,7.61,5.16,13,12.21,13a12.5,12.5,0,0,0,10.52-5.07L61.8,55.8c-3.57,4.79-8.17,7.14-14.94,7.14A17.47,17.47,0,0,1,29.2,45Z"/></g></svg>