<?xml version="1.0" encoding="UTF-8" standalone="no"?>
<!-- Generator: Adobe Illustrator 16.0.0, SVG Export Plug-In . SVG Version: 6.00 Build 0)  -->

<svg
   xmlns:dc="http://purl.org/dc/elements/1.1/"
   xmlns:cc="http://creativecommons.org/ns#"
   xmlns:rdf="http://www.w3.org/1999/02/22-rdf-syntax-ns#"
   xmlns:svg="http://www.w3.org/2000/svg"
   xmlns="http://www.w3.org/2000/svg"
   xmlns:sodipodi="http://sodipodi.sourceforge.net/DTD/sodipodi-0.dtd"
   xmlns:inkscape="http://www.inkscape.org/namespaces/inkscape"
   version="1.1"
   id="Layer_1"
   x="0px"
   y="0px"
   width="1055px"
   height="680px"
   viewBox="0 0 1055 680"
   enable-background="new 0 0 1055 680"
   xml:space="preserve"
   inkscape:version="0.91 r13725"
   sodipodi:docname="gnosis.svg"><metadata
     id="metadata9"><rdf:RDF><cc:Work
         rdf:about=""><dc:format>image/svg+xml</dc:format><dc:type
           rdf:resource="http://purl.org/dc/dcmitype/StillImage" /></cc:Work></rdf:RDF></metadata><defs
     id="defs7" /><sodipodi:namedview
     pagecolor="#ffffff"
     bordercolor="#666666"
     borderopacity="1"
     objecttolerance="10"
     gridtolerance="10"
     guidetolerance="10"
     inkscape:pageopacity="0"
     inkscape:pageshadow="2"
     inkscape:window-width="833"
     inkscape:window-height="707"
     id="namedview5"
     showgrid="false"
     inkscape:zoom="0.29383886"
     inkscape:cx="527.5"
     inkscape:cy="340"
     inkscape:window-x="0"
     inkscape:window-y="0"
     inkscape:window-maximized="0"
     inkscape:current-layer="Layer_1" /><path
     d="m 180.15745,575.08269 0,69.24629 c -18.04707,14.49955 -44.71746,24.43308 -69.10742,24.43308 -52.586837,0 -93.485772,-41.60718 -93.485772,-95.29343 0,-53.67766 41.415893,-94.75214 95.266662,-94.75214 25.40529,0 50.81059,10.20234 68.34766,26.31595 l -17.02592,23.3419 c -13.71275,-13.41573 -32.77515,-21.46517 -51.32174,-21.46517 -36.326471,0 -64.784723,29.25194 -64.784723,66.56069 0,37.57878 28.712665,66.84422 65.039133,66.84422 13.21438,0 28.20268,-4.83236 40.91171,-12.88916 l 0,-52.34223 26.16041,0 z m 178.59333,92.34271 -94.76364,-134.75262 0,134.75262 -29.96615,0 0,-187.90617 29.46777,0 95.26086,135.01652 0,-135.01652 29.47938,0 0,187.90617 -29.47822,0 z m 261.66675,-93.95677 c 0,53.68503 -41.14754,95.29343 -94.24552,95.29343 -53.09799,0 -94.25134,-41.60718 -94.25134,-95.29343 0,-53.94769 41.15451,-94.75214 94.25134,-94.75214 53.09798,0 94.24552,41.07448 94.24552,94.75214 z m -158.01492,0 c 0,37.32102 29.21801,66.84423 64.02381,66.84423 34.80696,0 63.2594,-29.52321 63.2594,-66.84423 0,-37.30874 -28.45244,-66.29679 -63.2594,-66.29679 -35.06138,0 -64.02381,28.98927 -64.02381,66.29679 z m 322.14853,-75.95293 -12.4616,27.90792 c -19.29938,-12.34788 -38.6127,-17.44905 -52.07452,-17.44905 -17.52546,0 -28.95198,6.98281 -28.95198,19.59581 0,41.06712 96.02177,19.06188 95.76852,86.7027 0,33.54915 -27.94246,54.21772 -67.06515,54.21772 -27.95291,0 -54.36191,-12.0717 -72.65874,-29.79078 l 12.95067,-27.38257 c 18.29218,17.7203 41.16845,27.38257 60.21109,27.38257 20.8398,0 33.2921,-8.31947 33.2921,-22.82024 0,-41.86985 -96.05197,-18.51077 -96.05197,-85.35377 0,-32.20634 26.17202,-52.34222 64.80331,-52.34222 23.10744,0 45.72233,7.77941 62.23827,19.33191 z m 48.7776,169.9097 0,-187.90617 29.97312,0 0,187.90617 -29.97312,0 z m 208.82086,-169.9097 -12.4616,27.90792 c -19.2994,-12.34788 -38.60573,-17.44905 -52.06755,-17.44905 -17.53243,0 -28.95197,6.98281 -28.95197,19.59581 0,41.06712 96.02172,19.06188 95.76622,86.7027 0,33.54915 -27.9471,54.21772 -67.06982,54.21772 -27.9471,0 -54.35495,-12.0717 -72.65875,-29.79078 l 12.95764,-27.38257 c 18.28522,17.7203 41.16845,27.38257 60.20645,27.38257 20.83168,0 33.29208,-8.31947 33.29208,-22.82024 0,-41.86985 -96.04033,-18.51077 -96.04033,-85.35377 0,-32.20634 26.16504,-52.34222 64.78936,-52.34222 23.11907,0 45.72927,7.77941 62.23827,19.33191 z M 673.44697,99.277115 660.77511,112.67812 c 10.21021,16.72364 13.20276,38.09921 6.34871,58.27927 -11.70533,34.44885 -47.62288,52.36799 -80.21679,40.00662 -4.60383,-1.73435 -8.89633,-3.99649 -12.84263,-6.67473 l -40.83272,43.13042 -35.95589,-37.98997 c -16.42416,11.61019 -37.64616,15.16358 -57.67045,7.56829 -33.54186,-12.70874 -50.96277,-51.72606 -38.94727,-87.14457 1.83665,-5.40312 4.26229,-10.38891 7.15145,-14.95124 l -15.32287,-16.189709 -2.96118,5.113439 c -16.0652,27.7103 -24.58978,59.55702 -24.66297,92.10582 -0.16961,97.82929 75.00655,177.56145 167.592,177.74679 l 0.3276,0 c 92.39841,0 167.72095,-79.43635 167.8952,-177.05943 0.0616,-32.55371 -8.34335,-64.44707 -24.27379,-92.21506 l -2.95654,-5.126945 z M 426.7813,134.95462 c -4.42725,6.07083 -7.08988,13.6649 -7.08988,21.92054 0,19.89039 15.25085,36.004 34.07625,36.004 7.81943,0 14.99527,-2.81448 20.74686,-7.49219 L 426.7813,134.95462 Z m 167.96258,47.47794 c 5.44955,3.88725 11.9911,6.14816 19.06355,6.14816 18.80682,0 34.07045,-16.11974 34.07045,-36.00399 0,-7.45905 -2.14683,-14.3854 -5.82014,-20.13465 l -47.31386,49.99048 z m -61.24501,38.08571 -138.568,-146.95321 5.3996,-6.059787 C 434.79008,28.82795 481.41738,7.5309355 531.60762,7.5309355 l 0.34038,0 C 582.66797,7.634039 631.27132,30.486199 665.33015,70.236289 l 5.20443,6.059787 L 533.49887,220.51827 Z M 417.69097,73.366218 533.54185,196.22757 647.94642,75.827201 C 617.32972,43.343454 575.48051,24.802003 531.91198,24.711174 l -0.30436,0 c -43.03299,0 -83.17217,17.206014 -113.91665,48.655044 z M 380.71975,315.13539 364.40479,314.00493 C 295.43096,309.26954 200.28512,291.3197 138.71716,232.71762 100.99781,196.82287 93.780142,162.70788 93.494363,161.26811 l -2.080611,-10.32508 251.008118,0 -1.24651,9.69541 c -1.14311,8.96264 -1.72745,18.02102 -1.75068,26.9137 -0.0674,40.43622 11.07916,79.57628 32.23959,113.19785 l 9.05548,14.3854 z m 304.05615,0 9.05548,-14.3854 c 21.04426,-33.40922 32.21404,-72.28539 32.28258,-112.41352 0.0116,-9.22654 -0.57156,-18.54145 -1.72629,-27.6968 l -1.2407,-9.69542 250.97792,0 -2.07364,10.32509 c -0.28578,1.43976 -7.51042,35.55476 -45.23441,71.44951 -61.56797,58.60085 -156.73937,76.55069 -225.72481,81.28731 l -16.31613,1.12923 z"
     id="path3"
     inkscape:connector-curvature="0"
     style="fill:#00a6c4" /></svg>