<svg xmlns="http://www.w3.org/2000/svg" xmlns:ev="http://www.w3.org/2001/xml-events" xmlns:xlink="http://www.w3.org/1999/xlink" baseProfile="full" version="1.1" viewBox="0 0 500 500"><polygon fill="#E4761B" stroke="#E4761B" points="138.958 398.564 80.377 412.453 54.017 326.07"/><polygon fill="#E4761B" stroke="#E4761B" points="54.017 326.07 90.68 333.278 138.958 398.564"/><polygon fill="#F6851B" stroke="#F6851B" points="101.2 261.322 54.017 326.07 69.881 243.683"/><polygon fill="#F6851B" stroke="#F6851B" points="90.68 333.278 54.017 326.07 101.2 261.322"/><polygon fill="#E2761B" stroke="#E2761B" points="138.958 398.564 172.97 382.034 187.816 375.848"/><polygon fill="#763D16" stroke="#763D16" points="125.619 210.791 57.92 197.762 54.183 181.962"/><polygon fill="#763D16" stroke="#763D16" points="60.402 216.792 125.619 210.791 69.881 243.683"/><polygon fill="#763D16" stroke="#763D16" points="60.402 216.792 57.92 197.762 125.619 210.791"/><polygon fill="#763D16" stroke="#763D16" points="69.881 243.683 125.619 210.791 145.612 219.823"/><polygon fill="#763D16" stroke="#763D16" points="69.881 243.683 52.588 222.653 60.402 216.792"/><polygon fill="#763D16" stroke="#763D16" points="45.755 188.543 54.183 181.962 57.92 197.762"/><polygon fill="#763D16" stroke="#763D16" points="60.402 216.792 48.37 205.558 57.92 197.762"/><polygon fill="#763D16" stroke="#763D16" points="145.612 219.823 125.619 210.791 111.394 129.049"/><polygon fill="#763D16" stroke="#763D16" points="111.394 129.049 125.619 210.791 54.183 181.962"/><polygon fill="#763D16" stroke="#763D16" points="54.183 181.962 34.474 119.527 111.394 129.049"/><polygon fill="#F6851B" stroke="#F6851B" points="69.881 243.683 145.612 219.823 101.2 261.322"/><polygon fill="#E4761B" stroke="#E4761B" points="191.374 168.569 40.464 60.198 187.688 96.299"/><polygon fill="#F6851B" stroke="#F6851B" points="187.688 96.299 298.371 89.761 251.053 167.312"/><polygon fill="#F6851B" stroke="#F6851B" points="251.053 167.312 191.374 168.569 187.688 96.299"/><polygon fill="#763D16" stroke="#763D16" points="111.394 129.049 191.374 168.569 145.612 219.823"/><polygon fill="#763D16" stroke="#763D16" points="111.394 129.049 34.474 119.527 40.464 60.198"/><polygon fill="#C0AD9E" stroke="#C0AD9E" points="299.267 393.622 308.317 386.427 272.556 430.233"/><polygon fill="#E2761B" stroke="#E2761B" points="439.613 225.699 431.654 218.477 372.603 163.531"/><polygon fill="#E4761B" stroke="#E4761B" points="174.743 268.985 101.2 261.322 145.612 219.823"/><polygon fill="#E4761B" stroke="#E4761B" points="145.612 219.823 191.374 168.569 174.743 268.985"/><polygon fill="#763D16" stroke="#763D16" points="40.464 60.198 191.374 168.569 111.394 129.049"/><polygon fill="#CD6116" stroke="#CD6116" points="138.958 398.564 90.68 333.278 126.982 337.873"/><polygon fill="#F6851B" stroke="#F6851B" points="101.2 261.322 126.982 337.873 90.68 333.278"/><polygon fill="#E4761B" stroke="#E4761B" points="460.376 353.013 432.462 452.388 304.762 415.535"/><polygon fill="#E4751F" stroke="#E4751F" points="101.2 261.322 128.092 300.511 126.982 337.873"/><polygon fill="#E2761B" stroke="#E2761B" points="411.879 28.785 251.053 167.312 298.371 89.761"/><polygon fill="#763D16" stroke="#763D16" points="419.169 250.52 325.187 220.892 365.96 211.06"/><polygon fill="#CD6116" stroke="#CD6116" points="128.092 300.511 101.2 261.322 174.743 268.985"/><polygon fill="#763D16" stroke="#763D16" points="347.771 118.74 365.96 211.06 325.187 220.892"/><polygon fill="#763D16" stroke="#763D16" points="431.654 218.477 419.169 250.52 365.96 211.06"/><polygon fill="#763D16" stroke="#763D16" points="431.654 218.477 365.96 211.06 436.05 195.424"/><polygon fill="#763D16" stroke="#763D16" points="365.96 211.06 441.558 176.103 436.05 195.424"/><polygon fill="#763D16" stroke="#763D16" points="441.558 176.103 365.96 211.06 347.771 118.74"/><polygon fill="#F6851B" stroke="#F6851B" points="222.483 270.506 174.743 268.985 191.374 168.569"/><polygon fill="#F6851B" stroke="#F6851B" points="191.374 168.569 251.053 167.312 222.483 270.506"/><polygon fill="#763D16" stroke="#763D16" points="325.187 220.892 251.053 167.312 347.771 118.74"/><polygon fill="#E4761B" stroke="#E4761B" points="222.483 270.506 251.053 167.312 325.187 220.892"/><polygon fill="#F6851B" stroke="#F6851B" points="419.169 250.52 327.119 267.862 325.187 220.892"/><polygon fill="#E4761B" stroke="#E4761B" points="325.187 220.892 327.119 267.862 222.483 270.506"/><polygon fill="#CD6116" stroke="#CD6116" points="174.743 268.985 156.147 287.155 128.092 300.511"/><polygon fill="#233447" stroke="#233447" points="163.462 317.195 128.092 300.511 156.147 287.155"/><polygon fill="#F6851B" stroke="#F6851B" points="126.982 337.873 128.092 300.511 163.462 317.195"/><polygon fill="#E4761B" stroke="#E4761B" points="304.762 415.535 339.322 350.421 460.376 353.013"/><polygon fill="#F6851B" stroke="#F6851B" points="327.119 267.862 419.169 250.52 460.376 353.013"/><polygon fill="#F6851B" stroke="#F6851B" points="327.119 267.862 460.376 353.013 339.322 350.421"/><polygon fill="#CD6116" stroke="#CD6116" points="304.762 415.535 276.291 348.337 339.322 350.421"/><polygon fill="#763D16" stroke="#763D16" points="347.771 118.74 251.053 167.312 411.879 28.785"/><polygon fill="#CD6116" stroke="#CD6116" points="156.147 287.155 174.743 268.985 163.462 317.195"/><polygon fill="#763D16" stroke="#763D16" points="419.169 250.52 431.654 218.477 439.613 225.699"/><polygon fill="#C0AD9E" stroke="#C0AD9E" points="194.551 440.385 304.762 415.535 272.556 430.233"/><polygon fill="#763D16" stroke="#763D16" points="431.654 218.477 436.05 195.424 445.814 204.843"/><polygon fill="#F6851B" stroke="#F6851B" points="121.163 383.543 126.982 337.873 163.462 317.195"/><polygon fill="#F6851B" stroke="#F6851B" points="168.208 300.51 174.743 268.985 222.483 270.506"/><polygon fill="#E4751F" stroke="#E4751F" points="163.462 317.195 174.743 268.985 168.208 300.51"/><polygon fill="#763D16" stroke="#763D16" points="450.282 183.906 436.05 195.424 441.558 176.103"/><polygon fill="#D7C1B3" stroke="#D7C1B3" points="183.247 425.96 304.762 415.535 194.551 440.385"/><polygon fill="#E4761B" stroke="#E4761B" points="176.893 388.847 276.291 348.337 304.762 415.535"/><polygon fill="#D7C1B3" stroke="#D7C1B3" points="304.762 415.535 183.247 425.96 176.893 388.847"/><polygon fill="#763D16" stroke="#763D16" points="347.771 118.74 449.115 98.393 441.558 176.103"/><polygon fill="#763D16" stroke="#763D16" points="411.879 28.785 449.115 98.393 347.771 118.74"/><polygon fill="#CD6116" stroke="#CD6116" points="246.158 290.926 226.99 320.862 222.483 270.506"/><polygon fill="#CD6116" stroke="#CD6116" points="280.743 308.109 246.158 290.926 222.483 270.506"/><polygon fill="#CD6116" stroke="#CD6116" points="222.483 270.506 327.119 267.862 280.743 308.109"/><polygon fill="#233447" stroke="#233447" points="226.99 320.862 246.158 290.926 280.743 308.109"/><polygon fill="#F6851B" stroke="#F6851B" points="222.483 270.506 211.55 302.622 168.208 300.51"/><polygon fill="#E2761B" stroke="#E2761B" points="226.99 320.862 211.55 302.622 222.483 270.506"/><polygon fill="#C0AD9E" stroke="#C0AD9E" points="272.556 430.233 189.281 456.088 194.551 440.385"/><polygon fill="#F6851B" stroke="#F6851B" points="163.462 317.195 128.062 378.822 121.163 383.543"/><polygon fill="#F6851B" stroke="#F6851B" points="276.291 348.337 226.99 320.862 280.743 308.109"/><polygon fill="#E4751F" stroke="#E4751F" points="327.119 267.862 276.291 348.337 280.743 308.109"/><polygon fill="#F6851B" stroke="#F6851B" points="339.322 350.421 276.291 348.337 327.119 267.862"/><polygon fill="#F6851B" stroke="#F6851B" points="168.208 300.51 211.55 302.622 169.452 382.641"/><polygon fill="#F6851B" stroke="#F6851B" points="169.452 382.641 128.062 378.822 168.208 300.51"/><polygon fill="#E4751F" stroke="#E4751F" points="211.55 302.622 226.99 320.862 169.452 382.641"/><polygon fill="#F6851B" stroke="#F6851B" points="176.893 388.847 169.452 382.641 226.99 320.862"/><polygon fill="#F6851B" stroke="#F6851B" points="226.99 320.862 276.291 348.337 176.893 388.847"/><polygon fill="#C0AD9E" stroke="#C0AD9E" points="131.839 448.629 118.028 415.944 174.017 422.271"/><polygon fill="#C0AD9E" stroke="#C0AD9E" points="174.017 422.271 189.281 456.088 131.839 448.629"/><polygon fill="#C0AD9E" stroke="#C0AD9E" points="183.247 425.96 194.551 440.385 189.281 456.088"/><polygon fill="#C0AD9E" stroke="#C0AD9E" points="189.281 456.088 174.017 422.271 183.247 425.96"/><polygon fill="#161616" stroke="#161616" points="121.163 383.543 128.062 378.822 117.359 387.256"/><polygon fill="#161616" stroke="#161616" points="117.359 387.256 128.062 378.822 169.452 382.641"/><polygon fill="#161616" stroke="#161616" points="174.017 422.271 118.028 415.944 113.033 392.364"/><polygon fill="#161616" stroke="#161616" points="176.893 388.847 183.247 425.96 174.017 422.271"/><polygon fill="#161616" stroke="#161616" points="169.452 382.641 159.125 391.324 117.359 387.256"/><polygon fill="#161616" stroke="#161616" points="159.125 391.324 169.452 382.641 176.893 388.847"/><polygon fill="#161616" stroke="#161616" points="176.893 388.847 163.868 397.469 159.125 391.324"/><polygon fill="#161616" stroke="#161616" points="174.017 422.271 163.868 397.469 176.893 388.847"/><polygon fill="#161616" stroke="#161616" points="113.033 392.364 117.359 387.256 159.125 391.324"/><polygon fill="#161616" stroke="#161616" points="113.033 392.364 163.868 397.469 174.017 422.271"/><polygon fill="#161616" stroke="#161616" points="159.125 391.324 163.868 397.469 113.033 392.364"/></svg>