<!DOCTYPE svg PUBLIC "-//W3C//DTD SVG 1.1//EN" "http://www.w3.org/Graphics/SVG/1.1/DTD/svg11.dtd"> <svg viewBox="0 0 500 500" version="1.1" baseProfile="full" xmlns="http://www.w3.org/2000/svg" xmlns:xlink="http://www.w3.org/1999/xlink" xmlns:ev="http://www.w3.org/2001/xml-events"><polygon fill="rgb(228,118,27)" stroke="rgb(228,118,27)" points="138.9576052725315,398.56434582173824 80.37732800841331,412.45305249094963 54.017215967178345,326.0700591132045"></polygon><polygon fill="rgb(228,118,27)" stroke="rgb(228,118,27)" points="54.017215967178345,326.0700591132045 90.67973753809929,333.2783638983965 138.9576052725315,398.56434582173824"></polygon><polygon fill="rgb(246,133,27)" stroke="rgb(246,133,27)" points="101.20034798979759,261.3223810913041 54.017215967178345,326.0700591132045 69.881388515234,243.6829522959888"></polygon><polygon fill="rgb(246,133,27)" stroke="rgb(246,133,27)" points="90.67973753809929,333.2783638983965 54.017215967178345,326.0700591132045 101.20034798979759,261.3223810913041"></polygon><polygon fill="rgb(226,118,27)" stroke="rgb(226,118,27)" points="138.9576052725315,398.56434582173824 172.96964353322983,382.03353202342987 187.81604766845703,375.84820514917374"></polygon><polygon fill="rgb(118,61,22)" stroke="rgb(118,61,22)" points="125.61911448836327,210.7912515476346 57.919872254133224,197.76229955255985 54.18318146467209,181.96217340230942"></polygon><polygon fill="rgb(118,61,22)" stroke="rgb(118,61,22)" points="60.40222755074501,216.79186601936817 125.61911448836327,210.7912515476346 69.881388515234,243.6829522959888"></polygon><polygon fill="rgb(118,61,22)" stroke="rgb(118,61,22)" points="60.40222755074501,216.79186601936817 57.919872254133224,197.76229955255985 125.61911448836327,210.7912515476346"></polygon><polygon fill="rgb(118,61,22)" stroke="rgb(118,61,22)" points="69.881388515234,243.6829522959888 125.61911448836327,210.7912515476346 145.61223083734512,219.82252655178308"></polygon><polygon fill="rgb(118,61,22)" stroke="rgb(118,61,22)" points="69.881388515234,243.6829522959888 52.587960332632065,222.65252684801817 60.40222755074501,216.79186601936817"></polygon><polygon fill="rgb(118,61,22)" stroke="rgb(118,61,22)" points="45.75466829538345,188.54288332164288 54.18318146467209,181.96217340230942 57.919872254133224,197.76229955255985"></polygon><polygon fill="rgb(118,61,22)" stroke="rgb(118,61,22)" points="60.40222755074501,216.79186601936817 48.37029245495796,205.55832961946726 57.919872254133224,197.76229955255985"></polygon><polygon fill="rgb(118,61,22)" stroke="rgb(118,61,22)" points="145.61223083734512,219.82252655178308 125.61911448836327,210.7912515476346 111.394266217947,129.0489737391472"></polygon><polygon fill="rgb(118,61,22)" stroke="rgb(118,61,22)" points="111.394266217947,129.0489737391472 125.61911448836327,210.7912515476346 54.18318146467209,181.96217340230942"></polygon><polygon fill="rgb(118,61,22)" stroke="rgb(118,61,22)" points="54.18318146467209,181.96217340230942 34.47445121407509,119.52676472067833 111.394266217947,129.0489737391472"></polygon><polygon fill="rgb(246,133,27)" stroke="rgb(246,133,27)" points="69.881388515234,243.6829522959888 145.61223083734512,219.82252655178308 101.20034798979759,261.3223810913041"></polygon><polygon fill="rgb(228,118,27)" stroke="rgb(228,118,27)" points="191.37420904636383,168.56897784769535 40.46428582072258,60.19819888472557 187.687895745039,96.29911708831787"></polygon><polygon fill="rgb(246,133,27)" stroke="rgb(246,133,27)" points="187.687895745039,96.29911708831787 298.3711814880371,89.76117745041847 251.0526456888765,167.3121717274189"></polygon><polygon fill="rgb(246,133,27)" stroke="rgb(246,133,27)" points="251.0526456888765,167.3121717274189 191.37420904636383,168.56897784769535 187.687895745039,96.29911708831787"></polygon><polygon fill="rgb(118,61,22)" stroke="rgb(118,61,22)" points="111.394266217947,129.0489737391472 191.37420904636383,168.56897784769535 145.61223083734512,219.82252655178308"></polygon><polygon fill="rgb(118,61,22)" stroke="rgb(118,61,22)" points="111.394266217947,129.0489737391472 34.47445121407509,119.52676472067833 40.46428582072258,60.19819888472557"></polygon><polygon fill="rgb(192,173,158)" stroke="rgb(192,173,158)" points="299.2666002213955,393.62216578423977 308.3168405815959,386.4272042065859 272.5555114336312,430.23331063985825"></polygon><polygon fill="rgb(226,118,27)" stroke="rgb(226,118,27)" points="439.61283019185066,225.6992672458291 431.654100805521,218.47657100111246 372.6031640917063,163.5309667736292"></polygon><polygon fill="rgb(228,118,27)" stroke="rgb(228,118,27)" points="174.74273923039436,268.98483351658797 101.20034798979759,261.3223810913041 145.61223083734512,219.82252655178308"></polygon><polygon fill="rgb(228,118,27)" stroke="rgb(228,118,27)" points="145.61223083734512,219.82252655178308 191.37420904636383,168.56897784769535 174.74273923039436,268.98483351658797"></polygon><polygon fill="rgb(118,61,22)" stroke="rgb(118,61,22)" points="40.46428582072258,60.19819888472557 191.37420904636383,168.56897784769535 111.394266217947,129.0489737391472"></polygon><polygon fill="rgb(205,97,22)" stroke="rgb(205,97,22)" points="138.9576052725315,398.56434582173824 90.67973753809929,333.2783638983965 126.98209357261658,337.8730764091015"></polygon><polygon fill="rgb(246,133,27)" stroke="rgb(246,133,27)" points="101.20034798979759,261.3223810913041 126.98209357261658,337.8730764091015 90.67973753809929,333.2783638983965"></polygon><polygon fill="rgb(228,118,27)" stroke="rgb(228,118,27)" points="460.3758936524391,353.0125077366829 432.4620137810707,452.3877562880516 304.7621399909258,415.534881323576"></polygon><polygon fill="rgb(228,117,31)" stroke="rgb(228,117,31)" points="101.20034798979759,261.3223810913041 128.09204304218292,300.5107289738953 126.98209357261658,337.8730764091015"></polygon><polygon fill="rgb(226,118,27)" stroke="rgb(226,118,27)" points="411.8791244626045,28.785047560930252 251.0526456888765,167.3121717274189 298.3711814880371,89.76117745041847"></polygon><polygon fill="rgb(118,61,22)" stroke="rgb(118,61,22)" points="419.1692099571228,250.51979778707027 325.18734838068485,220.89249975979328 365.9595719277859,211.0600401610136"></polygon><polygon fill="rgb(205,97,22)" stroke="rgb(205,97,22)" points="128.09204304218292,300.5107289738953 101.20034798979759,261.3223810913041 174.74273923039436,268.98483351658797"></polygon><polygon fill="rgb(118,61,22)" stroke="rgb(118,61,22)" points="347.7707706987858,118.7403356730938 365.9595719277859,211.0600401610136 325.18734838068485,220.89249975979328"></polygon><polygon fill="rgb(118,61,22)" stroke="rgb(118,61,22)" points="431.654100805521,218.47657100111246 419.1692099571228,250.51979778707027 365.9595719277859,211.0600401610136"></polygon><polygon fill="rgb(118,61,22)" stroke="rgb(118,61,22)" points="431.654100805521,218.47657100111246 365.9595719277859,211.0600401610136 436.0502371788025,195.42364937067032"></polygon><polygon fill="rgb(118,61,22)" stroke="rgb(118,61,22)" points="365.9595719277859,211.0600401610136 441.557982981205,176.10317297279835 436.0502371788025,195.42364937067032"></polygon><polygon fill="rgb(118,61,22)" stroke="rgb(118,61,22)" points="441.557982981205,176.10317297279835 365.9595719277859,211.0600401610136 347.7707706987858,118.7403356730938"></polygon><polygon fill="rgb(246,133,27)" stroke="rgb(246,133,27)" points="222.48265823721886,270.50639243633486 174.74273923039436,268.98483351658797 191.37420904636383,168.56897784769535"></polygon><polygon fill="rgb(246,133,27)" stroke="rgb(246,133,27)" points="191.37420904636383,168.56897784769535 251.0526456888765,167.3121717274189 222.48265823721886,270.50639243633486"></polygon><polygon fill="rgb(118,61,22)" stroke="rgb(118,61,22)" points="325.18734838068485,220.89249975979328 251.0526456888765,167.3121717274189 347.7707706987858,118.7403356730938"></polygon><polygon fill="rgb(228,118,27)" stroke="rgb(228,118,27)" points="222.48265823721886,270.50639243633486 251.0526456888765,167.3121717274189 325.18734838068485,220.89249975979328"></polygon><polygon fill="rgb(246,133,27)" stroke="rgb(246,133,27)" points="419.1692099571228,250.51979778707027 327.1194042414427,267.86152583139483 325.18734838068485,220.89249975979328"></polygon><polygon fill="rgb(228,118,27)" stroke="rgb(228,118,27)" points="325.18734838068485,220.89249975979328 327.1194042414427,267.86152583139483 222.48265823721886,270.50639243633486"></polygon><polygon fill="rgb(205,97,22)" stroke="rgb(205,97,22)" points="174.74273923039436,268.98483351658797 156.14689002931118,287.1547083556652 128.09204304218292,300.5107289738953"></polygon><polygon fill="rgb(35,52,71)" stroke="rgb(35,52,71)" points="163.4618063867092,317.1948776319623 128.09204304218292,300.5107289738953 156.14689002931118,287.1547083556652"></polygon><polygon fill="rgb(246,133,27)" stroke="rgb(246,133,27)" points="126.98209357261658,337.8730764091015 128.09204304218292,300.5107289738953 163.4618063867092,317.1948776319623"></polygon><polygon fill="rgb(228,118,27)" stroke="rgb(228,118,27)" points="304.7621399909258,415.534881323576 339.32217049598694,350.4214768856764 460.3758936524391,353.0125077366829"></polygon><polygon fill="rgb(246,133,27)" stroke="rgb(246,133,27)" points="327.1194042414427,267.86152583139483 419.1692099571228,250.51979778707027 460.3758936524391,353.0125077366829"></polygon><polygon fill="rgb(246,133,27)" stroke="rgb(246,133,27)" points="327.1194042414427,267.86152583139483 460.3758936524391,353.0125077366829 339.32217049598694,350.4214768856764"></polygon><polygon fill="rgb(205,97,22)" stroke="rgb(205,97,22)" points="304.7621399909258,415.534881323576 276.29136272519827,348.33696779608727 339.32217049598694,350.4214768856764"></polygon><polygon fill="rgb(118,61,22)" stroke="rgb(118,61,22)" points="347.7707706987858,118.7403356730938 251.0526456888765,167.3121717274189 411.8791244626045,28.785047560930252"></polygon><polygon fill="rgb(205,97,22)" stroke="rgb(205,97,22)" points="156.14689002931118,287.1547083556652 174.74273923039436,268.98483351658797 163.4618063867092,317.1948776319623"></polygon><polygon fill="rgb(118,61,22)" stroke="rgb(118,61,22)" points="419.1692099571228,250.51979778707027 431.654100805521,218.47657100111246 439.61283019185066,225.6992672458291"></polygon><polygon fill="rgb(192,173,158)" stroke="rgb(192,173,158)" points="194.55132594704628,440.3847269117832 304.7621399909258,415.534881323576 272.5555114336312,430.23331063985825"></polygon><polygon fill="rgb(118,61,22)" stroke="rgb(118,61,22)" points="431.654100805521,218.47657100111246 436.0502371788025,195.42364937067032 445.81387561559677,204.84332574158907"></polygon><polygon fill="rgb(246,133,27)" stroke="rgb(246,133,27)" points="121.16262564063072,383.5431909263134 126.98209357261658,337.8730764091015 163.4618063867092,317.1948776319623"></polygon><polygon fill="rgb(246,133,27)" stroke="rgb(246,133,27)" points="168.20779065787792,300.510478913784 174.74273923039436,268.98483351658797 222.48265823721886,270.50639243633486"></polygon><polygon fill="rgb(228,117,31)" stroke="rgb(228,117,31)" points="163.4618063867092,317.1948776319623 174.74273923039436,268.98483351658797 168.20779065787792,300.510478913784"></polygon><polygon fill="rgb(118,61,22)" stroke="rgb(118,61,22)" points="450.2822887599468,183.90644077956676 436.0502371788025,195.42364937067032 441.557982981205,176.10317297279835"></polygon><polygon fill="rgb(215,193,179)" stroke="rgb(215,193,179)" points="183.24668157100677,425.95981934666634 304.7621399909258,415.534881323576 194.55132594704628,440.3847269117832"></polygon><polygon fill="rgb(228,118,27)" stroke="rgb(228,118,27)" points="176.8926990479231,388.8468418568373 276.29136272519827,348.33696779608727 304.7621399909258,415.534881323576"></polygon><polygon fill="rgb(215,193,179)" stroke="rgb(215,193,179)" points="304.7621399909258,415.534881323576 183.24668157100677,425.95981934666634 176.8926990479231,388.8468418568373"></polygon><polygon fill="rgb(118,61,22)" stroke="rgb(118,61,22)" points="347.7707706987858,118.7403356730938 449.11507830023766,98.3931884765625 441.557982981205,176.10317297279835"></polygon><polygon fill="rgb(118,61,22)" stroke="rgb(118,61,22)" points="411.8791244626045,28.785047560930252 449.11507830023766,98.3931884765625 347.7707706987858,118.7403356730938"></polygon><polygon fill="rgb(205,97,22)" stroke="rgb(205,97,22)" points="246.1578542292118,290.9257368631661 226.9900080934167,320.8615830615163 222.48265823721886,270.50639243633486"></polygon><polygon fill="rgb(205,97,22)" stroke="rgb(205,97,22)" points="280.74317437037826,308.109141536057 246.1578542292118,290.9257368631661 222.48265823721886,270.50639243633486"></polygon><polygon fill="rgb(205,97,22)" stroke="rgb(205,97,22)" points="222.48265823721886,270.50639243633486 327.1194042414427,267.86152583139483 280.74317437037826,308.109141536057"></polygon><polygon fill="rgb(35,52,71)" stroke="rgb(35,52,71)" points="226.9900080934167,320.8615830615163 246.1578542292118,290.9257368631661 280.74317437037826,308.109141536057"></polygon><polygon fill="rgb(246,133,27)" stroke="rgb(246,133,27)" points="222.48265823721886,270.50639243633486 211.54969251155853,302.62193448096514 168.20779065787792,300.510478913784"></polygon><polygon fill="rgb(226,118,27)" stroke="rgb(226,118,27)" points="226.9900080934167,320.8615830615163 211.54969251155853,302.62193448096514 222.48265823721886,270.50639243633486"></polygon><polygon fill="rgb(192,173,158)" stroke="rgb(192,173,158)" points="272.5555114336312,430.23331063985825 189.28066501021385,456.08787775039673 194.55132594704628,440.3847269117832"></polygon><polygon fill="rgb(246,133,27)" stroke="rgb(246,133,27)" points="163.4618063867092,317.1948776319623 128.06171451509,378.8222560733557 121.16262564063072,383.5431909263134"></polygon><polygon fill="rgb(246,133,27)" stroke="rgb(246,133,27)" points="276.29136272519827,348.33696779608727 226.9900080934167,320.8615830615163 280.74317437037826,308.109141536057"></polygon><polygon fill="rgb(228,117,31)" stroke="rgb(228,117,31)" points="327.1194042414427,267.86152583139483 276.29136272519827,348.33696779608727 280.74317437037826,308.109141536057"></polygon><polygon fill="rgb(246,133,27)" stroke="rgb(246,133,27)" points="339.32217049598694,350.4214768856764 276.29136272519827,348.33696779608727 327.1194042414427,267.86152583139483"></polygon><polygon fill="rgb(246,133,27)" stroke="rgb(246,133,27)" points="168.20779065787792,300.510478913784 211.54969251155853,302.62193448096514 169.4518465846777,382.64050993323326"></polygon><polygon fill="rgb(246,133,27)" stroke="rgb(246,133,27)" points="169.4518465846777,382.64050993323326 128.06171451509,378.8222560733557 168.20779065787792,300.510478913784"></polygon><polygon fill="rgb(228,117,31)" stroke="rgb(228,117,31)" points="211.54969251155853,302.62193448096514 226.9900080934167,320.8615830615163 169.4518465846777,382.64050993323326"></polygon><polygon fill="rgb(246,133,27)" stroke="rgb(246,133,27)" points="176.8926990479231,388.8468418568373 169.4518465846777,382.64050993323326 226.9900080934167,320.8615830615163"></polygon><polygon fill="rgb(246,133,27)" stroke="rgb(246,133,27)" points="226.9900080934167,320.8615830615163 276.29136272519827,348.33696779608727 176.8926990479231,388.8468418568373"></polygon><polygon fill="rgb(192,173,158)" stroke="rgb(192,173,158)" points="131.83911238610744,448.6293808221817 118.02779963612556,415.94417971372604 174.0170323252678,422.2708845734596"></polygon><polygon fill="rgb(192,173,158)" stroke="rgb(192,173,158)" points="174.0170323252678,422.2708845734596 189.28066501021385,456.08787775039673 131.83911238610744,448.6293808221817"></polygon><polygon fill="rgb(192,173,158)" stroke="rgb(192,173,158)" points="183.24668157100677,425.95981934666634 194.55132594704628,440.3847269117832 189.28066501021385,456.08787775039673"></polygon><polygon fill="rgb(192,173,158)" stroke="rgb(192,173,158)" points="189.28066501021385,456.08787775039673 174.0170323252678,422.2708845734596 183.24668157100677,425.95981934666634"></polygon><polygon fill="rgb(22,22,22)" stroke="rgb(22,22,22)" points="121.16262564063072,383.5431909263134 128.06171451509,378.8222560733557 117.35859227180481,387.2563155144453"></polygon><polygon fill="rgb(22,22,22)" stroke="rgb(22,22,22)" points="117.35859227180481,387.2563155144453 128.06171451509,378.8222560733557 169.4518465846777,382.64050993323326"></polygon><polygon fill="rgb(22,22,22)" stroke="rgb(22,22,22)" points="174.0170323252678,422.2708845734596 118.02779963612556,415.94417971372604 113.03333160281181,392.36448745429516"></polygon><polygon fill="rgb(22,22,22)" stroke="rgb(22,22,22)" points="176.8926990479231,388.8468418568373 183.24668157100677,425.95981934666634 174.0170323252678,422.2708845734596"></polygon><polygon fill="rgb(22,22,22)" stroke="rgb(22,22,22)" points="169.4518465846777,382.64050993323326 159.12532195448875,391.3239653259516 117.35859227180481,387.2563155144453"></polygon><polygon fill="rgb(22,22,22)" stroke="rgb(22,22,22)" points="159.12532195448875,391.3239653259516 169.4518465846777,382.64050993323326 176.8926990479231,388.8468418568373"></polygon><polygon fill="rgb(22,22,22)" stroke="rgb(22,22,22)" points="176.8926990479231,388.8468418568373 163.8679177761078,397.4689625054598 159.12532195448875,391.3239653259516"></polygon><polygon fill="rgb(22,22,22)" stroke="rgb(22,22,22)" points="174.0170323252678,422.2708845734596 163.8679177761078,397.4689625054598 176.8926990479231,388.8468418568373"></polygon><polygon fill="rgb(22,22,22)" stroke="rgb(22,22,22)" points="113.03333160281181,392.36448745429516 117.35859227180481,387.2563155144453 159.12532195448875,391.3239653259516"></polygon><polygon fill="rgb(22,22,22)" stroke="rgb(22,22,22)" points="113.03333160281181,392.36448745429516 163.8679177761078,397.4689625054598 174.0170323252678,422.2708845734596"></polygon><polygon fill="rgb(22,22,22)" stroke="rgb(22,22,22)" points="159.12532195448875,391.3239653259516 163.8679177761078,397.4689625054598 113.03333160281181,392.36448745429516"></polygon></svg>