<svg width="64" height="64" viewBox="0 0 64 64" fill="none" xmlns="http://www.w3.org/2000/svg">
<g clip-path="url(#clip0_1095_28)">
<circle cx="32" cy="32" r="32" fill="url(#paint0_linear_1095_28)"/>
<path d="M9.771 39.5789C5.87626 34.6765 6.14753 27.4314 10.5837 22.8548C15.3097 17.9817 22.9706 17.9817 27.6966 22.8548C32.4215 27.7291 32.4215 35.6305 27.6966 40.5048C23.1144 45.2308 15.7716 45.3735 11.0228 40.9351L21.7069 29.9146L22.9902 31.2382L16.4667 37.9676C18.9038 39.0699 21.8507 38.5913 23.8455 36.5339C26.4449 33.8529 26.4449 29.5067 23.8455 26.8269C21.2471 24.1459 17.0332 24.1459 14.4338 26.8269C12.1275 29.2056 11.8682 32.8967 13.6559 35.5709L9.771 39.5789Z" fill="white"/>
<path d="M41.8942 34.1629V32.2965H56.96C56.6539 38.7024 51.6523 43.834 45.4305 44.1059C38.3088 44.4183 32.4542 38.2832 32.866 30.9437C33.2321 24.412 38.6531 19.231 44.9098 19.231C51.1664 19.231 56.3096 24.1424 56.9154 30.4302H51.4355C50.869 27.2447 48.1628 24.8312 44.9098 24.8312C40.8124 24.8312 37.5822 28.6616 38.4025 33.0415C38.9102 35.7483 40.9769 37.8731 43.6035 38.39C46.9601 39.0496 49.9811 37.0989 51.0934 34.1629H41.8942Z" fill="white"/>
</g>
<defs>
<linearGradient id="paint0_linear_1095_28" x1="58.6667" y1="-3.3668e-06" x2="-8.67622" y2="17.3056" gradientUnits="userSpaceOnUse">
<stop stop-color="#FFDB3B"/>
<stop offset="0.18191" stop-color="#FF6270"/>
<stop offset="0.366601" stop-color="#FF1CE6" stop-opacity="0.95"/>
<stop offset="0.607299" stop-color="#B14EFF"/>
<stop offset="0.798508" stop-color="#3BADFF"/>
<stop offset="0.974305" stop-color="#6BE5FF"/>
</linearGradient>
<clipPath id="clip0_1095_28">
<rect width="64" height="64" fill="white"/>
</clipPath>
</defs>
</svg>
