<svg width="252" height="252" viewBox="0 0 252 252" fill="none" xmlns="http://www.w3.org/2000/svg">
<g clip-path="url(#clip0_33272_25814)">
<path d="M0 126C0 56.4121 56.4121 0 126 0C195.588 0 252 56.4121 252 126C252 195.588 195.588 252 126 252C56.4121 252 0 195.588 0 126Z" fill="#FEFEFE"/>
<path d="M149.246 119.242C161.312 111.553 169.315 98.0548 169.315 82.6875C169.315 58.7666 149.923 39.375 126.002 39.375C106.191 39.375 89.4868 52.6762 84.3318 70.8355C101.224 71.3289 116.211 79.4123 126.002 91.7941C127.31 93.4463 128.524 95.1757 129.638 96.9743C133.047 102.475 135.515 108.619 136.819 115.183C141.167 116.047 145.331 117.421 149.246 119.242Z" fill="#073387"/>
<path d="M115.186 115.184C116.05 110.837 117.424 106.674 119.244 102.76C111.556 90.6924 98.0563 82.6875 82.6875 82.6875C58.7666 82.6875 39.375 102.079 39.375 126C39.375 145.814 52.6789 162.52 70.8408 167.672C71.3339 150.78 79.4178 135.792 91.7997 126C92.1147 125.751 92.4328 125.505 92.7533 125.263C99.2581 120.344 106.887 116.834 115.186 115.184Z" fill="#073387"/>
<path d="M102.762 132.757C90.6949 140.445 82.6899 153.944 82.6899 169.312C82.6899 193.234 102.082 212.625 126.002 212.625C145.814 212.625 162.519 199.324 167.674 181.164C150.782 180.671 135.794 172.588 126.002 160.206C120.996 153.875 117.348 146.421 115.499 138.283C115.388 137.796 115.284 137.307 115.186 136.816C110.839 135.952 106.676 134.577 102.762 132.757Z" fill="#073387"/>
<path d="M132.759 149.245C140.447 161.31 153.945 169.313 169.312 169.313C193.234 169.313 212.625 149.921 212.625 126C212.625 106.19 199.326 89.4876 181.17 84.331C180.676 101.221 172.592 116.209 160.211 126C153.879 131.008 146.424 134.656 138.283 136.505C137.797 136.616 137.309 136.719 136.819 136.817C135.955 141.166 134.58 145.329 132.759 149.245Z" fill="#073387"/>
</g>
<defs>
<clipPath id="clip0_33272_25814">
<rect width="252" height="252" fill="white"/>
</clipPath>
</defs>
</svg>