<svg width="32" height="32" viewBox="0 0 32 32" fill="none" xmlns="http://www.w3.org/2000/svg">
<path d="M0 16C0 7.16344 7.16344 0 16 0V0C24.8366 0 32 7.16344 32 16V16C32 24.8366 24.8366 32 16 32V32C7.16344 32 0 24.8366 0 16V16Z" fill="#073387"/>
<path d="M18.9519 15.1418C20.4841 14.1655 21.5003 12.4514 21.5003 10.5C21.5003 7.46243 19.0379 5 16.0003 5C13.4846 5 11.3634 6.68904 10.7088 8.99498C12.8538 9.05764 14.757 10.0841 16.0003 11.6564V11.6564C16.1663 11.8662 16.3205 12.0858 16.462 12.3142C16.8948 13.0127 17.2082 13.7929 17.3739 14.6264C17.926 14.7361 18.4547 14.9106 18.9519 15.1418Z" fill="#FEFEFE"/>
<path d="M14.6268 14.6266C14.7365 14.0746 14.911 13.5459 15.1421 13.0489C14.1658 11.5165 12.4516 10.5 10.5 10.5C7.46243 10.5 5 12.9624 5 16C5 18.516 6.68938 20.6374 8.99566 21.2917C9.05827 19.1467 10.0848 17.2434 11.6571 16C11.6971 15.9684 11.7375 15.9371 11.7782 15.9064C12.6042 15.2818 13.573 14.836 14.6268 14.6266Z" fill="#FEFEFE"/>
<path d="M13.0491 16.858C11.5168 17.8343 10.5003 19.5484 10.5003 21.5C10.5003 24.5376 12.9628 27 16.0003 27C18.5161 27 20.6373 25.311 21.2919 23.005C19.1469 22.9424 17.2437 21.9159 16.0003 20.3436C15.3646 19.5397 14.9013 18.5931 14.6665 17.5597C14.6524 17.4979 14.6392 17.4358 14.6268 17.3734C14.0748 17.2637 13.5461 17.0892 13.0491 16.858Z" fill="#FEFEFE"/>
<path d="M16.8583 18.9517C17.8346 20.4838 19.5486 21.5 21.5 21.5C24.5376 21.5 27 19.0376 27 16C27 13.4845 25.3113 11.3635 23.0057 10.7087C22.943 12.8535 21.9165 14.7567 20.3443 16C19.5402 16.6359 18.5935 17.0992 17.5598 17.334C17.4981 17.348 17.4361 17.3612 17.3738 17.3736C17.2641 17.9258 17.0895 18.4545 16.8583 18.9517Z" fill="#FEFEFE"/>
</svg>