<svg width="128" height="128" viewBox="0 0 128 128" fill="none" xmlns="http://www.w3.org/2000/svg">
<path fill-rule="evenodd" clip-rule="evenodd" d="M64 128C99.3453 128 128 99.3453 128 64C128 28.6547 99.3453 0 64 0C28.6547 0 0 28.6547 0 64C0 99.3453 28.6547 128 64 128ZM64.261 121.994C96.2897 121.994 122.252 96.0287 122.252 64.003C122.252 31.9773 96.2897 6.00933 64.261 6.00933C32.2327 6.00933 6.27067 31.9713 6.27067 64C6.27067 96.0287 32.2327 121.994 64.261 121.994ZM64 117.551C93.576 117.551 117.551 93.576 117.551 64C117.551 34.424 93.576 10.449 64 10.449C34.424 10.449 10.449 34.424 10.449 64C10.449 93.576 34.424 117.551 64 117.551ZM64.132 111.022C90.172 111.022 111.283 89.911 111.283 63.871C111.283 37.831 90.172 16.7197 64.132 16.7197C38.092 16.7197 16.9807 37.828 16.9807 63.871C16.9807 89.914 38.089 111.022 64.132 111.022ZM63.736 72.696C61.1153 72.696 58.57 72.915 56.1053 73.3323L59.8997 66.7437C61.1813 66.6597 62.463 66.6177 63.736 66.6177C66.7167 66.6177 69.7483 66.8637 72.678 67.335L57.9453 41.745L33.4183 84.3427L29.9123 78.2553L57.8883 29.666L57.9453 29.7653L57.9997 29.669L91.763 88.308H84.754L76.8623 74.602C72.75 73.3593 68.3557 72.696 63.736 72.696ZM93.9453 84.4447L61.2563 27.673H68.2653L97.4483 78.3573L93.9453 84.4447ZM61.5027 55.6823L48.0817 78.9937C52.8847 77.5407 58.537 76.8923 63.871 76.8923C64.3033 76.8923 64.7353 76.8983 65.1677 76.9073C68.1963 76.9793 71.2583 77.3007 74.191 77.85L78.6693 85.6277C74.0857 83.9557 69.124 82.971 63.871 82.971C56.1023 82.971 48.9673 84.898 42.7537 88.248L42.8527 88.071L42.7177 88.305H35.7087L57.9997 49.5917L61.5027 55.6823Z" fill="url(#paint0_linear_221_148)"/>
<defs>
<linearGradient id="paint0_linear_221_148" x1="100.847" y1="120.459" x2="26.0057" y2="5.78167" gradientUnits="userSpaceOnUse">
<stop offset="0.0076157" stop-color="#645AFF"/>
<stop offset="0.5038" stop-color="#E40C5B"/>
<stop offset="1" stop-color="#FF4C3B"/>
</linearGradient>
</defs>
</svg>
