<svg width="72" height="78" viewBox="0 0 72 78" fill="none" xmlns="http://www.w3.org/2000/svg">
<g filter="url(#filter0_f_15171_119242)">
<path d="M58.9088 69.3698C58.9088 71.1064 49.0546 72.5141 36.8987 72.5141C24.7429 72.5141 14.8887 71.1064 14.8887 69.3698C14.8887 67.6333 24.7429 66.2255 36.8987 66.2255C49.0546 66.2255 58.9088 67.6333 58.9088 69.3698Z" fill="#858B9A" fill-opacity="0.2"/>
</g>
<path d="M43.9231 51.7827L28.2784 49.5884L38.5624 19.6317C38.792 18.9631 39.4574 18.5458 40.1594 18.63L58.3918 20.8164C58.9723 20.886 59.5101 21.1567 59.9115 21.5818L60.2353 21.924C60.5994 22.3095 60.7333 22.8591 60.5869 23.3687L54.3731 44.9975C53.0663 49.5465 48.6102 52.44 43.9231 51.7827Z" fill="#686E7D" stroke="#686E7D"/>
<path d="M45.043 50.2385L27.6488 47.7988L35.9202 19.184C36.126 18.4727 36.8202 18.0182 37.5545 18.1135L58.4099 20.8207C59.3204 20.9389 59.9123 21.8402 59.6588 22.7225L53.2927 44.8822C52.2609 48.4733 48.7432 50.7573 45.043 50.2385Z" fill="#131416" stroke="#686E7D"/>
<path d="M35.558 34.1006C39.4357 34.6445 42.3501 37.9158 42.4447 41.8303L42.5077 44.4327L42.5289 44.4357C42.7735 47.4052 44.7614 49.8528 47.4824 50.2346L42.6315 49.5542L42.6517 50.4081L20.6956 47.0692L20.6987 46.478L18.4918 46.1685L19.1939 41.1628L20.7238 41.3774L20.7711 32.0267L35.558 34.1006ZM47.6913 50.2639L47.4824 50.2346C47.5523 50.2444 47.6225 50.2511 47.6921 50.2581L47.6913 50.2639Z" fill="#686E7D"/>
<path d="M37.8668 35.402C37.8591 35.4568 37.8164 35.5 37.7619 35.5096C36.2935 35.7689 35.0124 36.6701 34.2688 37.9501C34.109 38.2251 34.0056 38.5279 33.9197 38.8342L28.5907 57.8186C28.5092 58.1091 28.2254 58.2945 27.9266 58.2526C27.6469 58.2134 26.807 57.383 26.7405 57.1085C26.6072 56.5582 26.9519 56.6889 26.5171 56.3868C25.4815 55.6673 23.9769 56.1496 23.0313 57.4539C22.9865 57.5156 22.9117 57.5493 22.8361 57.5387C22.7431 57.5256 22.1055 56.9752 22.0934 56.8821C21.7933 55.9893 22.2645 56.0767 21.7486 55.718C20.7128 54.9984 19.2074 55.4807 18.2617 56.7852C18.217 56.8468 18.1424 56.8804 18.0671 56.8698C17.9743 56.8568 17.5169 56.3314 17.5049 56.2385C17.1463 55.7628 17.4955 55.4078 16.9792 55.049C15.9435 54.3295 14.439 54.8118 13.4933 56.1161C13.4485 56.1779 13.3737 56.2115 13.2981 56.2009C13.2051 56.1879 12.5698 55.2125 12.5577 55.1193C12.4689 54.4338 12.7266 54.7389 12.2106 54.3802C11.2163 53.6895 9.78936 54.1061 8.84005 55.2946C8.71909 55.446 8.53064 55.5322 8.33871 55.5053C8.03884 55.4633 7.06078 54.6523 7.13482 54.3587L12.0488 38.4869C12.9883 34.7622 16.5627 32.3346 20.3633 32.8218L20.3643 32.8211L20.3652 32.8204L37.7597 35.26C37.8285 35.2697 37.8764 35.3332 37.8668 35.402Z" fill="#686E7D"/>
<mask id="path-6-inside-1_15171_119242" fill="white">
<path d="M35.1858 34.0484C35.9807 34.16 35.7937 35.1464 35.1625 35.6422C34.5555 36.119 33.9862 36.7233 33.49 37.4171C33.3063 37.674 33.1789 37.9658 33.0935 38.2699L27.8747 56.8661C27.793 57.157 27.5089 57.3427 27.2097 57.3007C26.9295 57.2614 26.7213 57.0307 26.6547 56.7558C26.5214 56.2061 26.2344 55.7374 25.8 55.4355C24.765 54.7166 23.263 55.1989 22.3172 56.5014C22.272 56.5637 22.1965 56.5976 22.1203 56.5869C22.0264 56.5737 21.9549 56.4969 21.9426 56.4029C21.8535 55.7182 21.5467 55.1249 21.0313 54.7666C19.9963 54.0476 18.4945 54.5299 17.5487 55.8322C17.5033 55.8947 17.4276 55.9287 17.3511 55.918C17.2569 55.9048 17.1852 55.8277 17.1729 55.7333C17.0839 55.049 16.7777 54.456 16.2625 54.0978C15.2276 53.3787 13.7258 53.861 12.78 55.1634C12.7346 55.2259 12.6589 55.2599 12.5824 55.2492C12.4881 55.2359 12.4164 55.1589 12.4041 55.0645C12.3148 54.3801 12.0081 53.787 11.4928 53.4288C10.4991 52.7388 9.075 53.1557 8.12599 54.3425C8.00469 54.4942 7.81583 54.5806 7.62348 54.5536C7.32282 54.5115 7.12523 54.2178 7.19948 53.9234L11.0214 38.7701C12.1408 34.3322 16.4104 31.4448 20.9408 32.0515C20.9411 32.0515 20.9413 32.0513 20.9414 32.0511C20.9414 32.0508 20.9417 32.0506 20.9419 32.0506L35.1858 34.0484Z"/>
</mask>
<path d="M35.1858 34.0484C35.9807 34.16 35.7937 35.1464 35.1625 35.6422C34.5555 36.119 33.9862 36.7233 33.49 37.4171C33.3063 37.674 33.1789 37.9658 33.0935 38.2699L27.8747 56.8661C27.793 57.157 27.5089 57.3427 27.2097 57.3007C26.9295 57.2614 26.7213 57.0307 26.6547 56.7558C26.5214 56.2061 26.2344 55.7374 25.8 55.4355C24.765 54.7166 23.263 55.1989 22.3172 56.5014C22.272 56.5637 22.1965 56.5976 22.1203 56.5869C22.0264 56.5737 21.9549 56.4969 21.9426 56.4029C21.8535 55.7182 21.5467 55.1249 21.0313 54.7666C19.9963 54.0476 18.4945 54.5299 17.5487 55.8322C17.5033 55.8947 17.4276 55.9287 17.3511 55.918C17.2569 55.9048 17.1852 55.8277 17.1729 55.7333C17.0839 55.049 16.7777 54.456 16.2625 54.0978C15.2276 53.3787 13.7258 53.861 12.78 55.1634C12.7346 55.2259 12.6589 55.2599 12.5824 55.2492C12.4881 55.2359 12.4164 55.1589 12.4041 55.0645C12.3148 54.3801 12.0081 53.787 11.4928 53.4288C10.4991 52.7388 9.075 53.1557 8.12599 54.3425C8.00469 54.4942 7.81583 54.5806 7.62348 54.5536C7.32282 54.5115 7.12523 54.2178 7.19948 53.9234L11.0214 38.7701C12.1408 34.3322 16.4104 31.4448 20.9408 32.0515C20.9411 32.0515 20.9413 32.0513 20.9414 32.0511C20.9414 32.0508 20.9417 32.0506 20.9419 32.0506L35.1858 34.0484Z" fill="#131416"/>
<path d="M35.1858 34.0484L35.3249 33.0581L35.3247 33.0581L35.1858 34.0484ZM25.8 55.4355L26.3708 54.6144L26.3705 54.6142L25.8 55.4355ZM21.0313 54.7666L21.6021 53.9455L21.6018 53.9454L21.0313 54.7666ZM16.2625 54.0978L16.8334 53.2767L16.8331 53.2766L16.2625 54.0978ZM11.4928 53.4288L12.0636 52.6077L12.0632 52.6074L11.4928 53.4288ZM11.0214 38.7701L10.0517 38.5255L10.0517 38.5255L11.0214 38.7701ZM20.9408 32.0515L20.8081 33.0426L20.9408 32.0515ZM17.1729 55.7333L18.1646 55.6043L17.1729 55.7333ZM17.5487 55.8322L18.3579 56.4198L17.5487 55.8322ZM21.9426 56.4029L20.951 56.532L21.9426 56.4029ZM8.12599 54.3425L7.34498 53.718L8.12599 54.3425ZM26.6547 56.7558L25.6828 56.9914L26.6547 56.7558ZM27.8747 56.8661L28.8375 57.1363L27.8747 56.8661ZM12.4041 55.0645L13.3957 54.9351L12.4041 55.0645ZM33.49 37.4171L32.6766 36.8354L33.49 37.4171ZM33.0935 38.2699L34.0563 38.5401L33.0935 38.2699ZM22.3172 56.5014L21.5081 55.9139L22.3172 56.5014ZM12.78 55.1634L11.9709 54.5757L12.78 55.1634ZM35.1625 35.6422L35.7802 36.4286L35.1625 35.6422ZM35.1625 35.6422L34.5448 34.8558C33.8557 35.397 33.2222 36.0725 32.6766 36.8354L33.49 37.4171L34.3034 37.9988C34.7503 37.374 35.2553 36.8409 35.7802 36.4286L35.1625 35.6422ZM33.0935 38.2699L32.1307 37.9997L26.9119 56.5959L27.8747 56.8661L28.8375 57.1363L34.0563 38.5401L33.0935 38.2699ZM26.6547 56.7558L27.6265 56.5201C27.4471 55.7799 27.0424 55.0812 26.3708 54.6144L25.8 55.4355L25.2292 56.2566C25.4263 56.3936 25.5958 56.6323 25.6828 56.9914L26.6547 56.7558ZM25.8 55.4355L26.3705 54.6142C24.6987 53.453 22.6178 54.3854 21.5081 55.9139L22.3172 56.5014L23.1264 57.0889C23.9081 56.0124 24.8312 55.9801 25.2296 56.2568L25.8 55.4355ZM21.9426 56.4029L22.9343 56.2737C22.8178 55.3799 22.4017 54.5014 21.6021 53.9455L21.0313 54.7666L20.4605 55.5877C20.6917 55.7485 20.8891 56.0565 20.951 56.532L21.9426 56.4029ZM21.0313 54.7666L21.6018 53.9454C19.9301 52.784 17.8493 53.7165 16.7396 55.2446L17.5487 55.8322L18.3579 56.4198C19.1396 55.3434 20.0625 55.3113 20.4607 55.5879L21.0313 54.7666ZM17.1729 55.7333L18.1646 55.6043C18.0484 54.7112 17.633 53.8327 16.8334 53.2767L16.2625 54.0978L15.6917 54.9188C15.9224 55.0793 16.1194 55.3867 16.1813 55.8623L17.1729 55.7333ZM16.2625 54.0978L16.8331 53.2766C15.1614 52.115 13.0806 53.0477 11.9709 54.5757L12.78 55.1634L13.5891 55.751C14.3709 54.6744 15.2938 54.6424 15.6919 54.919L16.2625 54.0978ZM12.4041 55.0645L13.3957 54.9351C13.2792 54.0416 12.863 53.1634 12.0636 52.6077L11.4928 53.4288L10.922 54.2499C11.1532 54.4106 11.3505 54.7185 11.4125 55.1938L12.4041 55.0645ZM11.4928 53.4288L12.0632 52.6074C10.4614 51.4952 8.46932 52.3119 7.34498 53.718L8.12599 54.3425L8.90701 54.967C9.68068 53.9995 10.5369 53.9825 10.9224 54.2502L11.4928 53.4288ZM7.19948 53.9234L8.16911 54.1679L11.991 39.0146L11.0214 38.7701L10.0517 38.5255L6.22984 53.6788L7.19948 53.9234ZM11.0214 38.7701L11.991 39.0147C12.9861 35.0699 16.7811 32.5034 20.8081 33.0426L20.9408 32.0515L21.0735 31.0603C16.0396 30.3863 11.2956 33.5945 10.0517 38.5255L11.0214 38.7701ZM20.9419 32.0506L20.803 33.0409L35.0469 35.0387L35.1858 34.0484L35.3247 33.0581L21.0808 31.0603L20.9419 32.0506ZM20.9414 32.0511L21.9317 32.19C21.855 32.7366 21.3497 33.1176 20.803 33.0409L20.9419 32.0506L21.0808 31.0603C20.5336 30.9836 20.0278 31.365 19.9511 31.9122L20.9414 32.0511ZM20.9408 32.0515L20.8081 33.0426C21.348 33.1149 21.8545 32.74 21.9317 32.19L20.9414 32.0511L19.9511 31.9122C20.0282 31.3626 20.5342 30.9881 21.0735 31.0603L20.9408 32.0515ZM7.62348 54.5536L7.76238 53.5633C8.05079 53.6038 8.24033 53.8855 8.16911 54.1679L7.19948 53.9234L6.22984 53.6788C6.01012 54.55 6.59486 55.4192 7.48458 55.5439L7.62348 54.5536ZM17.3511 55.918L17.49 54.9277C17.8713 54.9812 18.1228 55.283 18.1646 55.6043L17.1729 55.7333L16.1813 55.8623C16.2476 56.3724 16.6425 56.8284 17.2122 56.9083L17.3511 55.918ZM17.5487 55.8322L16.7396 55.2446C16.9009 55.0225 17.1829 54.8846 17.49 54.9277L17.3511 55.918L17.2122 56.9083C17.6724 56.9728 18.1058 56.767 18.3579 56.4198L17.5487 55.8322ZM22.1203 56.5869L22.2592 55.5966C22.6406 55.6501 22.8924 55.9521 22.9343 56.2737L21.9426 56.4029L20.951 56.532C21.0174 57.0418 21.4121 57.4974 21.9814 57.5772L22.1203 56.5869ZM8.12599 54.3425L7.34498 53.718C7.41687 53.6281 7.56371 53.5355 7.76238 53.5633L7.62348 54.5536L7.48458 55.5439C8.06794 55.6258 8.59252 55.3604 8.90701 54.967L8.12599 54.3425ZM27.2097 57.3007L27.3486 56.3104C27.4491 56.3245 27.5229 56.3726 27.565 56.4153C27.6037 56.4547 27.6197 56.4922 27.6265 56.5201L26.6547 56.7558L25.6828 56.9914C25.8234 57.5712 26.2968 58.1825 27.0708 58.291L27.2097 57.3007ZM27.8747 56.8661L26.9119 56.5959C26.9655 56.4048 27.1521 56.2829 27.3486 56.3104L27.2097 57.3007L27.0708 58.291C27.8657 58.4025 28.6206 57.9091 28.8375 57.1363L27.8747 56.8661ZM12.5824 55.2492L12.7213 54.2588C13.1025 54.3123 13.3538 54.614 13.3957 54.9351L12.4041 55.0645L11.4125 55.1938C11.479 55.7037 11.8738 56.1596 12.4435 56.2395L12.5824 55.2492ZM33.49 37.4171L32.6766 36.8354C32.4119 37.2055 32.2405 37.6086 32.1307 37.9997L33.0935 38.2699L34.0563 38.5401C34.1173 38.3231 34.2006 38.1425 34.3034 37.9988L33.49 37.4171ZM22.3172 56.5014L21.5081 55.9139C21.6695 55.6914 21.9518 55.5535 22.2592 55.5966L22.1203 56.5869L21.9814 57.5772C22.4413 57.6417 22.8745 57.436 23.1264 57.0889L22.3172 56.5014ZM12.78 55.1634L11.9709 54.5757C12.1322 54.3536 12.4142 54.2158 12.7213 54.2588L12.5824 55.2492L12.4435 56.2395C12.9036 56.304 13.337 56.0981 13.5891 55.751L12.78 55.1634ZM35.1858 34.0484L35.0468 35.0387C35.0289 35.0362 34.9013 35.0055 34.7978 34.8634C34.7059 34.7371 34.7115 34.6295 34.7123 34.62C34.7131 34.61 34.7109 34.6426 34.6764 34.7028C34.6438 34.7597 34.5972 34.8146 34.5448 34.8558L35.1625 35.6422L35.7802 36.4286C36.2831 36.0335 36.6537 35.4203 36.7056 34.7824C36.7327 34.4504 36.6755 34.0444 36.4147 33.6862C36.1425 33.3123 35.7401 33.1165 35.3249 33.0581L35.1858 34.0484Z" fill="#686E7D" mask="url(#path-6-inside-1_15171_119242)"/>
<path d="M46.7891 16.3251C50.2668 10.6158 57.8428 8.8851 63.7107 12.4594C69.5785 16.0337 71.5161 23.5595 68.0384 29.2687C67.2469 30.5682 66.2424 31.6606 65.0947 32.5322L69.2679 40.1693C69.7552 41.0611 69.4277 42.1788 68.5359 42.6661C67.6441 43.1534 66.5258 42.8256 66.0385 41.9338L61.8566 34.2807C58.4508 35.4925 54.4999 35.1951 51.1168 33.1344C45.249 29.5601 43.3114 22.0343 46.7891 16.3251Z" fill="#686E7D"/>
<rect x="60.7104" y="32.1833" width="3.68032" height="12.9515" rx="1.84016" transform="rotate(-28.653 60.7104 32.1833)" fill="#686E7D"/>
<path d="M61.9828 33.057C61.6803 32.5034 61.8838 31.8094 62.4374 31.5069C62.991 31.2044 63.685 31.408 63.9875 31.9616L68.6415 40.4788C68.944 41.0324 68.7405 41.7264 68.1869 42.0289C67.6333 42.3314 66.9393 42.1279 66.6368 41.5743L61.9828 33.057Z" fill="#686E7D"/>
<path opacity="0.5" d="M63.6485 34.5479C63.4856 34.2498 63.5952 33.876 63.8934 33.7131C64.1915 33.5502 64.5653 33.6598 64.7282 33.9579L67.9096 39.7802C68.0725 40.0783 67.9628 40.4521 67.6647 40.615C67.3665 40.7779 66.9928 40.6683 66.8299 40.3701L63.6485 34.5479Z" fill="#131416"/>
<ellipse cx="57.4139" cy="22.7969" rx="12.1043" ry="12.4406" transform="rotate(-1.76248 57.4139 22.7969)" fill="#686E7D"/>
<circle cx="57.4036" cy="22.4608" r="11.4319" transform="rotate(-1.76248 57.4036 22.4608)" fill="#686E7D"/>
<circle cx="57.4036" cy="22.4608" r="11.4319" transform="rotate(-1.76248 57.4036 22.4608)" fill="#131416"/>
<mask id="mask0_15171_119242" style="mask-type:alpha" maskUnits="userSpaceOnUse" x="45" y="10" width="24" height="25">
<circle cx="57.4039" cy="22.4605" r="11.0626" transform="rotate(-1.76248 57.4039 22.4605)" fill="#131416" stroke="#858B9A" stroke-opacity="0.2"/>
</mask>
<g mask="url(#mask0_15171_119242)">
<g opacity="0.6" filter="url(#filter1_f_15171_119242)">
<path d="M42.6661 66.0359L13.8466 61.9937L29.9663 15.0373C30.196 14.3686 30.8614 13.9504 31.5635 14.0346L60.8865 17.5517C61.467 17.6213 62.0048 17.8921 62.4063 18.3171L63.7123 19.6994C64.0764 20.0849 64.2103 20.6345 64.0639 21.1441L53.116 59.2507C51.8092 63.7998 47.3533 66.6933 42.6661 66.0359Z" fill="#686E7D" stroke="#686E7D"/>
<path d="M43.4681 63.5446L12.8991 59.2572L25.8943 14.3012C26.1 13.5898 26.7943 13.1344 27.5287 13.2297L61.569 17.6491C62.4795 17.7673 63.0714 18.6686 62.818 19.551L51.7188 58.1885C50.687 61.7798 47.1684 64.0636 43.4681 63.5446Z" fill="#131416" stroke="#686E7D"/>
</g>
</g>
<defs>
<filter id="filter0_f_15171_119242" x="9.88867" y="61.2255" width="54.02" height="16.2886" filterUnits="userSpaceOnUse" color-interpolation-filters="sRGB">
<feFlood flood-opacity="0" result="BackgroundImageFix"/>
<feBlend mode="normal" in="SourceGraphic" in2="BackgroundImageFix" result="shape"/>
<feGaussianBlur stdDeviation="2.5" result="effect1_foregroundBlur_15171_119242"/>
</filter>
<filter id="filter1_f_15171_119242" x="-19.1597" y="11.7175" width="84.7817" height="64.326" filterUnits="userSpaceOnUse" color-interpolation-filters="sRGB">
<feFlood flood-opacity="0" result="BackgroundImageFix"/>
<feBlend mode="normal" in="SourceGraphic" in2="BackgroundImageFix" result="shape"/>
<feGaussianBlur stdDeviation="0.5" result="effect1_foregroundBlur_15171_119242"/>
</filter>
</defs>
</svg>
