<svg width="56" height="64" fill="none" xmlns="http://www.w3.org/2000/svg"><path d="M54.5 20c.75 0 1.5-.625 1.5-1.5v-5c0-.75-.75-1.5-1.5-1.5H52V6c0-3.25-2.75-6-6-6H6C2.625 0 0 2.75 0 6v52c0 3.375 2.625 6 6 6h40c3.25 0 6-2.625 6-6v-6h2.5c.75 0 1.5-.625 1.5-1.5v-5c0-.75-.75-1.5-1.5-1.5H52v-8h2.5c.75 0 1.5-.625 1.5-1.5v-5c0-.75-.75-1.5-1.5-1.5H52v-8h2.5zM26 16c4.375 0 8 3.625 8 8 0 4.5-3.625 8-8 8-4.5 0-8-3.5-8-8 0-4.375 3.5-8 8-8zm14 29.625C40 47 38.75 48 37.125 48H14.75c-1.5 0-2.75-1-2.75-2.375V43.25c0-4 3.75-7.25 8.375-7.25H21c1.5.75 3.125 1 5 1 1.75 0 3.375-.25 4.875-1h.625c4.625 0 8.5 3.25 8.5 7.25v2.375z" fill="#D6D9DC"/></svg>