
<svg width="14" height="14" viewBox="0 0 14 14" fill="none" xmlns="http://www.w3.org/2000/svg">
<path d="M3.28348 10.8571V12H0.140625V10.8571H3.28348ZM6.42634 9.71429C6.5811 9.71429 6.71503 9.77083 6.82813 9.88393C6.94122 9.99702 6.99777 10.131 6.99777 10.2857V12.5714C6.99777 12.7262 6.94122 12.8601 6.82813 12.9732C6.71503 13.0863 6.5811 13.1429 6.42634 13.1429H4.14062C3.98586 13.1429 3.85193 13.0863 3.73884 12.9732C3.62574 12.8601 3.5692 12.7262 3.5692 12.5714V10.2857C3.5692 10.131 3.62574 9.99702 3.73884 9.88393C3.85193 9.77083 3.98586 9.71429 4.14062 9.71429H6.42634ZM7.85491 6.28571V7.42857H0.140625V6.28571H7.85491ZM2.14062 1.71428V2.85714H0.140625V1.71428H2.14062ZM13.8549 10.8571V12H7.28348V10.8571H13.8549ZM5.28348 0.571428C5.43824 0.571428 5.57217 0.627976 5.68527 0.741071C5.79836 0.854166 5.85491 0.988095 5.85491 1.14286V3.42857C5.85491 3.58333 5.79836 3.71726 5.68527 3.83036C5.57217 3.94345 5.43824 4 5.28348 4H2.99777C2.84301 4 2.70908 3.94345 2.59598 3.83036C2.48289 3.71726 2.42634 3.58333 2.42634 3.42857V1.14286C2.42634 0.988095 2.48289 0.854166 2.59598 0.741071C2.70908 0.627976 2.84301 0.571428 2.99777 0.571428H5.28348ZM10.9978 5.14286C11.1525 5.14286 11.2865 5.1994 11.3996 5.3125C11.5126 5.42559 11.5692 5.55952 11.5692 5.71429V8C11.5692 8.15476 11.5126 8.28869 11.3996 8.40179C11.2865 8.51488 11.1525 8.57143 10.9978 8.57143H8.71205C8.55729 8.57143 8.42336 8.51488 8.31027 8.40179C8.19717 8.28869 8.14062 8.15476 8.14062 8V5.71429C8.14062 5.55952 8.19717 5.42559 8.31027 5.3125C8.42336 5.1994 8.55729 5.14286 8.71205 5.14286H10.9978ZM13.8549 6.28571V7.42857H11.8549V6.28571H13.8549ZM13.8549 1.71428V2.85714H6.14063V1.71428H13.8549Z" fill="#24292E"/>
</svg>
