<svg width="112" height="41" xmlns="http://www.w3.org/2000/svg"><g fill-rule="nonzero" fill="none"><g fill="#FFF"><path d="M58.038 22.793l-1.44 1.76v2.2h-4.035V16.238h4.034v4.07l3.336-4.051h4.393l-3.615 4.106 3.833 6.371h-4.436zM72.614 16.32l-.376 3.502c-.122-.1-.297-.174-.515-.229a3.133 3.133 0 0 0-.742-.082c-.63 0-1.136.174-1.52.532-.384.357-.576.88-.576 1.558v5.16H64.84V16.276h3.616l.122 2.457c.236-.853.603-1.513 1.1-1.971.49-.458 1.118-.688 1.878-.688.463-.009.821.074 1.057.248zM81.923 17.503c.952.954 1.432 2.301 1.432 4.015 0 1.715-.48 3.062-1.432 4.015-.952.954-2.288 1.44-4.008 1.44-1.72 0-3.057-.477-4.009-1.44-.952-.953-1.432-2.3-1.432-4.015 0-1.714.48-3.061 1.432-4.015.952-.953 2.288-1.439 4.009-1.439 1.72 0 3.056.477 4.008 1.44zm-5.074 2.035c-.21.367-.305 1.027-.305 1.98 0 .954.104 1.614.305 1.98.21.367.56.56 1.066.56s.864-.184 1.065-.56c.21-.366.306-1.026.306-1.98 0-.953-.105-1.613-.306-1.98-.21-.366-.559-.559-1.065-.559-.507 0-.856.184-1.066.56zM99.922 17.008c.585.633.882 1.513.882 2.668v7.086H96.77V20.72c0-.532-.087-.917-.253-1.146-.166-.23-.419-.348-.75-.348-.429 0-.76.165-.988.504-.235.339-.349.834-.349 1.485v5.536h-4.035v-6.04c0-.532-.087-.917-.253-1.146-.166-.23-.42-.348-.751-.348-.41 0-.742.165-.978.504-.236.339-.358.843-.358 1.512v5.518h-4.035V16.276h3.633l.096 2.163c.306-.77.751-1.356 1.328-1.76.576-.403 1.275-.605 2.087-.605.76 0 1.397.184 1.93.541.524.367.9.89 1.126 1.577.306-.688.743-1.21 1.32-1.577.576-.366 1.24-.54 1.999-.54 1.004-.01 1.799.302 2.384.934zM112 24.424h-.122c-.463 0-.699-.275-.699-.843v-3.355c0-2.778-1.668-4.171-4.995-4.171-1.476 0-2.629.312-3.45.926-.82.614-1.301 1.476-1.45 2.594h3.502c.07-.156.166-.284.271-.376.253-.22.577-.32.978-.32.358 0 .638.11.839.338.2.22.297.541.297.945v.394l-2.114.458c-1.397.293-2.401.715-2.995 1.256-.603.54-.9 1.256-.9 2.136 0 .825.262 1.457.786 1.897.524.44 1.293.66 2.306.66.89 0 1.633-.146 2.227-.449.594-.302 1.039-.715 1.327-1.247.157.56.49.981.987 1.265.498.285 1.127.431 1.886.431.463 0 .9-.11 1.302-.311v-2.228H112zm-4.82-1.164c0 .394-.132.697-.394.917-.262.22-.559.32-.908.32a.892.892 0 0 1-.611-.21c-.157-.138-.227-.34-.227-.605 0-.541.35-.908 1.039-1.091l1.1-.294v.963zM51.76 24.433c-.464 0-.7-.275-.7-.843v-3.355c0-2.778-1.668-4.17-4.995-4.17-1.476 0-2.628.31-3.45.925-.803.605-1.283 1.448-1.44 2.53h3.52c.069-.128.148-.238.244-.32.253-.22.576-.322.978-.322.358 0 .637.11.838.34.201.22.297.54.297.944v.394l-2.113.458c-1.398.294-2.402.715-2.996 1.256-.602.54-.9 1.256-.9 2.136 0 .825.263 1.457.787 1.897.524.44 1.292.66 2.305.66.891 0 1.633-.146 2.227-.449.594-.302 1.04-.715 1.328-1.246.157.559.489.98.986 1.265.498.284 1.127.43 1.887.43.498 0 .96-.119 1.397-.366v-2.182a1.17 1.17 0 0 1-.2.018zm-4.69-1.173c0 .394-.132.697-.393.917-.262.22-.56.32-.909.32a.892.892 0 0 1-.611-.21c-.157-.138-.227-.34-.227-.605 0-.541.35-.908 1.04-1.091l1.1-.294v.963z"/></g><path fill="#CCC" d="M1.328 0L0 2.028l5.933 33.064 1.594-1.851z"/><path fill="#E6E6E6" d="M5.933 35.092L39.406 41 41 39.501l-33.473-6.26z"/><path fill="#FFF" d="M1.328 0l28.957 9.963L41 39.501l-33.473-6.26z"/><path fill="#AA0087" d="M35.82 30.428l-20.465-4.77-4.8-20.509-5.862-2.063 5.58 27.633 27.725 5.573-1.01-2.716"/><path fill="#F10000" d="M32.756 22.158v-.01l-11.211-2.636-2.763-11.444-4.773-1.702 4.012 16.603 16.497 3.941-1.762-4.752"/><path fill="#CF0000" d="M21.182 19.883l10.963 3.112.61-.846L21.989 19z"/><path fill="#AF0000" d="M33.562 26.698l-1.417-3.703.61-.846 1.763 4.761zM21.988 19.001L18.782 8.068l-.673.829 3.073 10.986"/><path fill="#FFA600" d="M28.868 11.639l-6.756-2.39 2.125 7.565 7.297 2.01-2.666-7.185"/><path fill="#F17100" d="M30.259 18.48l1.275.336-2.666-7.177-6.756-2.39.336 1.102 5.597 1.931z"/><path fill="#E25D00" d="M28.868 11.639l-.823.635 2.214 6.207 1.275.344z"/><path fill="#CF0000" d="M18.782 8.068l-.673.829-3.808-1.305-.292-1.226z"/><path fill="#C2009D" d="M10.556 5.15l-.94.837L4.96 4.409l-.266-1.323z"/><path fill="#930077" d="M10.556 5.15l-.94.837 4.508 20.888 1.231-1.217z"/><path fill="#C2009D" d="M35.82 30.428l-.815 1.34-20.88-4.893 1.23-1.217z"/><path fill="#930077" d="M35.82 30.428l-.815 1.34 1.47 4.215 1.523.309z"/></g></svg>