<svg width="433" height="105" viewBox="0 0 433 105" fill="none" xmlns="http://www.w3.org/2000/svg">
<path d="M157.797 83.43H168.756L149.378 19.1317H136.518L117.135 83.43H128.095L132.334 68.3795H153.474L157.797 83.43ZM142.766 28.3678H143.13C144.578 36.25 147.33 47.1748 150.934 59.4093H134.864C138.488 47.1847 141.319 36.25 142.766 28.3678Z" fill="white"/>
<path d="M263.136 59.611C263.136 46.6627 256.888 37.0623 242.852 37.0623C229.721 37.0623 221.386 46.2098 221.386 60.3348C221.386 75.0112 228.816 84.5181 242.985 84.5181C252.359 84.5181 260.162 80.5203 262.865 73.0172C263.431 71.4467 263.643 70.5112 263.82 68.8521C263.835 68.6945 263.85 68.3548 263.85 68.3548H253.727C253.727 68.3548 253.683 68.7782 253.669 68.8521C252.861 72.9236 248.917 76.0056 242.985 76.0056C236.511 76.0056 232.075 70.5703 232.075 63.2346H263.008C263.097 62.0579 263.136 60.7926 263.136 59.611ZM252.359 56.3518H231.981C231.981 50.1927 235.605 44.4866 242.581 44.4866C249.37 44.4866 252.452 49.6512 252.359 56.3518Z" fill="white"/>
<path d="M293.193 84.5034C308.046 84.5034 316.106 75.0851 317.012 61.5017L317.14 59.4192H305.959C305.417 69.7434 301.252 75.2673 293.646 75.2673C285.133 75.2673 280.968 67.7494 280.968 53.713V47.7509C280.968 33.621 284.951 26.8318 293.646 26.8318C301.164 26.8318 305.417 32.4444 305.959 42.5864H317.174L317.1 40.8681C315.924 25.02 307.5 17.5907 293.734 17.5907C277.616 17.5907 269.556 29.1851 269.556 47.9281V54.166C269.556 72.909 277.345 84.5034 293.193 84.5034Z" fill="white"/>
<path d="M344.454 84.5181C357.314 84.5181 366.461 75.6413 366.461 60.7926C366.461 45.939 357.314 37.0623 344.454 37.0623C331.594 37.0623 322.447 45.939 322.447 60.7926C322.447 75.4591 331.594 84.5181 344.454 84.5181ZM344.454 76.1878C337.571 76.1878 333.495 70.6589 333.495 60.7926C333.495 50.9214 337.571 45.3926 344.454 45.3926C351.337 45.3926 355.413 51.01 355.413 60.7926C355.413 70.6589 351.337 76.1878 344.454 76.1878Z" fill="white"/>
<path d="M385.913 19.1418H375.319V30.0813H385.913V19.1418ZM375.319 83.4303H385.913V75.2822V38.1506H368.588V46.2987H375.319V75.2822V83.4303Z" fill="white"/>
<path fill-rule="evenodd" clip-rule="evenodd" d="M183.841 38.1503H173.793V101.09H184.388V84.8725V79.2698C188.991 81.2539 192.161 84.5181 197.336 84.5181C209.383 84.5181 216.173 74.9176 216.173 60.6991C216.173 46.8449 209.654 37.0623 197.789 37.0623C192.403 37.0623 188.435 40.6612 183.841 43.0343V38.1503ZM184.117 59.7046V61.9693C184.117 70.5703 188.188 76.1878 194.618 76.1878C201.23 76.1878 205.125 70.1174 205.125 60.6991C205.125 51.3694 201.501 45.3926 194.712 45.3926C188.371 45.3926 184.117 50.5571 184.117 59.7046Z" fill="white"/>
<path d="M403.475 38.1503H393.333V83.43H403.928V58.9809C403.928 53.452 406.192 45.8455 414.34 45.8455C418.417 45.8455 422.311 48.0216 422.311 56.6226V83.43H433V55.4459C433 47.928 431.459 43.5808 428.564 40.7745C425.664 37.9682 421.676 37.0623 418.146 37.0623C412.243 37.0623 408.068 40.6612 403.475 43.0343V38.1503Z" fill="white"/>
<mask id="mask0_1_228" style="mask-type:alpha" maskUnits="userSpaceOnUse" x="0" y="0" width="105" height="105">
<path d="M104.221 52.1132C104.221 23.3315 80.89 0 52.1132 0C23.3316 0 0 23.3315 0 52.1132C0 80.8899 23.3316 104.222 52.1132 104.222C80.89 104.222 104.221 80.8899 104.221 52.1132Z" fill="#0054FA"/>
</mask>
<g mask="url(#mask0_1_228)">
<g filter="url(#filter0_i_1_228)">
<path d="M82.1847 115.54C81.6579 115.54 81.2148 115.54 80.8259 115.54C80.7422 115.54 80.6585 115.54 80.5797 115.54C80.2006 115.54 79.8167 115.535 79.4425 115.525C77.3747 115.466 75.2922 115.24 73.249 114.846C71.1073 115.22 68.941 115.422 66.7895 115.456C66.5631 115.456 66.3366 115.461 66.0954 115.461C65.8492 115.461 65.9034 115.461 65.8147 115.461H65.7508C65.16 115.461 64.5741 115.461 63.9784 115.456H63.8947C63.2694 115.456 62.5703 115.452 61.9254 115.452C61.2755 115.452 61.4577 115.452 61.2263 115.452L37.4516 115.54V115.314C35.9254 115.22 34.409 115.033 32.9025 114.762C30.6181 115.176 28.2893 115.388 25.9705 115.388H17.8174C5.04637 115.388 -6.69569 109.548 -14.4056 99.3671L-14.4745 99.2785C-22.465 88.6688 -24.7297 74.7851 -20.5351 62.1272L-17.6746 53.541C-16.5078 50.0306 -15.0112 46.604 -13.2142 43.3497C-13.3865 41.8235 -13.4751 40.2776 -13.4751 38.7465C-13.4751 36.1814 -13.2289 33.6114 -12.7414 31.0956C-12.7119 30.0617 -12.643 29.0278 -12.5298 28.0136C-11.8799 22.081 -9.84166 16.306 -6.62674 11.2793C-5.00205 7.07481 -2.77181 3.18541 1.33514e-05 -0.280603C8.26624 -10.654 21.1259 -16.8475 34.4089 -16.8475C47.697 -16.8475 39.9723 -16.5817 42.6949 -16.0549C44.9006 -15.6266 46.6632 -15.1146 50.1538 -14.0462H50.1586C50.6165 -13.9084 50.8922 -13.8197 51.0596 -13.7754C55.594 -12.52 59.9068 -10.5999 63.8947 -8.06931C66.9176 -6.14922 69.7091 -3.88942 72.2052 -1.36377C75.9026 0.398777 79.3884 2.58965 82.5837 5.16454C86.1334 5.94735 89.6091 7.13388 92.9176 8.68965C97.6686 10.9248 102.026 13.8887 105.856 17.4876C109.671 21.0718 112.877 25.2073 115.392 29.7811C116.8 32.3363 117.977 35.0145 118.913 37.7667C120.468 39.8935 121.808 42.1091 122.989 44.5166C124.333 47.2342 125.111 49.5826 125.465 50.6411L125.618 51.0645L125.82 51.7243C125.859 51.8277 125.933 52.0542 126.096 52.5268L126.11 52.5711C127.336 56.1405 128.252 58.9172 128.877 62.2454L128.887 62.2897C130.453 70.7282 129.685 79.4425 126.662 87.4823C126.642 87.5364 126.618 87.6152 126.593 87.6939L126.495 87.9549C126.372 88.3044 126.258 88.6048 126.17 88.8411C123.486 96.1276 118.794 102.464 112.601 107.18C106.24 112.025 98.6828 114.876 90.7316 115.427L90.2049 115.466L88.6638 115.53H86.0889C85.8821 115.53 85.6557 115.53 85.4095 115.53C84.9566 115.53 84.474 115.53 83.9866 115.53H83.9128C83.322 115.53 82.7312 115.53 82.1798 115.53L82.1847 115.54Z" fill="#0054FA"/>
</g>
<path d="M34.4089 -16.5275C37.7321 -16.5275 39.736 -16.5078 40.9176 -16.4734C41.2671 -16.4635 41.5428 -16.4537 41.7595 -16.4439C41.7496 -16.4242 41.7447 -16.4094 41.7447 -16.3897C41.7004 -16.1878 41.8186 -16.05 41.9072 -15.981C41.9909 -15.922 42.0942 -15.8776 42.2025 -15.8432C42.2567 -15.8235 42.3207 -15.8038 42.3946 -15.789L42.6358 -15.7349C44.8218 -15.3115 46.5695 -14.8093 50.0601 -13.741L50.1044 -13.7262H50.1094C50.3161 -13.6622 50.4836 -13.608 50.6263 -13.5686L50.9709 -13.4652H50.9759C55.333 -12.259 59.4931 -10.4275 63.3481 -8.02988L63.7173 -7.7985C66.7255 -5.88826 69.4973 -3.64321 71.9737 -1.13725L72.0131 -1.09296L72.0672 -1.07325C75.7449 0.679451 79.2061 2.85552 82.3817 5.41564L82.4408 5.46486L82.5146 5.47964C85.8181 6.20829 89.0576 7.29144 92.1593 8.69951L92.7797 8.98504C97.3535 11.1316 101.558 13.9625 105.275 17.3892L105.634 17.7239C109.307 21.1702 112.414 25.1384 114.875 29.5153L115.112 29.9387C116.51 32.4742 117.677 35.1377 118.602 37.8701L118.622 37.9193L118.652 37.9587C120.099 39.9379 121.359 41.9958 122.477 44.2113L122.699 44.6593C124.033 47.3523 124.806 49.691 125.155 50.7446L125.16 50.7494V50.7544L125.313 51.1729L125.515 51.8178V51.8227L125.52 51.8277C125.554 51.936 125.623 52.1477 125.79 52.6302V52.6351L125.81 52.6843C127.036 56.2488 127.942 59.0059 128.557 62.3045V62.3094V62.3143L128.567 62.3488C130.123 70.7282 129.365 79.3785 126.366 87.3641C126.342 87.4232 126.312 87.5118 126.288 87.5856L126.194 87.8417C126.13 88.0189 126.071 88.1814 126.017 88.3291L125.869 88.7278L125.864 88.7327C123.284 95.7337 118.839 101.853 112.975 106.481L112.404 106.924C106.294 111.577 99.0618 114.378 91.4504 115.048L90.7119 115.107L90.1852 115.141L88.6637 115.205H81.6579L81.6629 115.215H80.5797C80.3926 115.215 80.2006 115.215 80.0135 115.215L79.4522 115.2C77.3992 115.141 75.3363 114.92 73.3079 114.526L73.2489 114.516L73.1898 114.526C71.2008 114.876 69.1871 115.072 67.1834 115.127L66.7845 115.132C66.6713 115.132 66.5532 115.132 66.4449 115.136C66.3267 115.136 66.2135 115.136 66.0953 115.136H65.7507C65.4553 115.136 65.1599 115.136 64.8645 115.136L63.9783 115.132H63.8946C63.5845 115.132 63.2546 115.132 62.9198 115.132C62.585 115.127 62.2502 115.127 61.9253 115.127H61.2213L37.7765 115.215V115.008L37.4713 114.994C35.9598 114.895 34.4532 114.713 32.9614 114.442L32.9024 114.432L32.8482 114.442C30.5835 114.856 28.2696 115.063 25.9704 115.063H17.8174C5.34661 115.063 -6.13451 109.455 -13.7903 99.6428L-14.1496 99.1751L-14.2185 99.0815C-22.145 88.5555 -24.3902 74.785 -20.23 62.2306L-17.3695 53.6443C-16.2076 50.1537 -14.7208 46.7468 -12.9287 43.5023L-12.8794 43.4137L-12.8893 43.3103C-13.0616 41.7939 -13.1502 40.2678 -13.1502 38.7465C-13.1502 36.206 -12.909 33.6508 -12.4265 31.1547L-12.4216 31.1301V31.1055C-12.392 30.2094 -12.3378 29.3134 -12.2492 28.4272L-12.205 28.053V28.0481C-11.5649 22.1647 -9.54631 16.4389 -6.35601 11.4565L-6.33642 11.427L-6.32656 11.3975C-4.76095 7.35051 -2.63896 3.60386 -0.00499432 0.246167L0.251027 -0.0787882C8.45326 -10.3734 21.2243 -16.5275 34.4089 -16.5275Z" stroke="url(#paint0_linear_1_228)" stroke-width="1.31185" stroke-miterlimit="10"/>
<path d="M79.408 76.139L79.5459 76.6559L79.6148 76.907C79.728 77.3205 80.1269 77.6357 80.5503 77.6357C80.5798 77.6357 80.6389 77.6357 80.6734 77.6357H80.9441C82.485 77.6455 84.7302 77.6307 86.2762 77.6357H87.8762L88.0976 77.6258C89.2152 77.547 90.2441 76.7691 90.6232 75.7057C90.7315 75.4152 91.0615 74.5093 91.1747 74.1992C91.7704 72.6237 91.9378 70.8907 91.6276 69.2414C91.3913 67.986 90.1114 64.5003 89.7028 63.2054C89.4861 62.6146 89.2694 61.8122 88.9888 61.2657C88.6934 60.6601 88.334 60.1185 87.8909 59.6065C87.3149 58.9419 84.9468 56.1011 84.4544 55.5152L84.1049 55.1066C83.391 54.309 83.6963 53.1865 83.5191 52.2216C82.9283 46.7173 78.0935 42.178 72.5843 41.9318C71.4273 41.8875 69.5565 41.9171 68.3503 41.9121C67.5478 41.9367 66.7355 41.7743 66.0265 41.3903C65.3914 41.09 64.7612 40.4105 64.259 39.9231L61.2066 36.9297C60.7783 36.5162 60.1136 35.8466 59.6852 35.4478C58.4347 34.2712 56.9824 33.316 55.4069 32.6317C54.7078 32.3215 51.2319 30.9578 50.4688 30.6377C49.75 30.3423 49.0805 29.9091 48.5094 29.3774C47.9826 28.8949 47.5197 28.2106 47.1012 27.6493C46.7911 27.2456 46.1511 26.3742 45.8262 25.9557C44.5757 24.3507 42.7736 23.2331 40.8142 22.7211C40.0658 22.5192 36.2405 21.3032 35.4922 21.1604C33.321 20.7419 30.9774 21.6232 29.6136 23.3759C29.0967 24.0011 28.7472 24.7741 28.5207 25.552C28.4025 26.0197 28.3139 26.576 28.2548 27.0634C28.0234 28.7078 27.1274 30.2439 25.8129 31.2581L25.5766 31.4304C25.5569 31.4452 25.5422 31.455 25.5323 31.4698L25.4978 31.4944C25.0892 31.8046 25.0153 32.4594 25.3501 32.8532C25.3649 32.8729 25.4042 32.9173 25.4288 32.9468L26.1132 33.769L26.0787 33.7296C26.2905 33.9462 26.3594 34.2908 26.2413 34.5665C26.1231 34.8029 25.8967 35.2607 25.7785 35.5069C25.5028 36.0583 24.9465 37.1808 24.6707 37.7322C24.0356 38.9532 24.6954 40.5976 26.0197 41.0161L27.1865 41.405C27.5262 41.5035 27.8118 41.7497 27.9792 42.0599L28.2597 42.6309L28.4025 42.9116C28.7127 43.5811 29.4414 43.9799 30.1651 43.9257C30.3965 43.9257 34.3844 43.9257 35.4922 43.9257C35.6349 43.9257 35.7531 44.0439 35.7531 44.1867C35.7531 44.3245 35.6644 44.4181 35.5413 44.4427L33.6311 44.8218C33.3554 44.8809 33.1585 45.1172 33.1585 45.3929V45.8803C33.1585 47.4016 32.4987 48.854 31.3565 49.8584L24.8972 55.53C21.8448 58.2083 19.5554 61.6595 18.2754 65.5243L15.4297 74.0663C15.154 74.8835 15.2721 75.7992 15.7891 76.4885C16.2765 77.1236 17.0051 77.4929 17.8125 77.4929H25.9655C26.5022 77.4929 26.9403 77.0547 26.9403 76.5131V75.5974C26.9403 75.3414 26.8369 75.0903 26.6547 74.9032L26.2462 74.4946C25.9852 74.2287 25.8671 73.8447 25.9704 73.4952C26.0985 73.0717 26.4775 72.7911 26.9108 72.7911H29.0869C29.6236 72.7911 30.0617 72.3578 30.0617 71.8163V70.2507C30.0617 69.0839 30.6082 67.9761 31.5437 67.277L31.7307 67.1342C34.5124 65.0418 36.2158 61.758 36.1765 58.2723C36.1568 56.5393 36.9248 54.9244 38.2787 53.8561L39.9575 52.5219C40.1151 52.3939 40.1989 52.1969 40.1742 51.9951C40.0807 51.2516 39.9084 50.5181 39.6671 49.8091C39.4948 49.2971 39.1304 48.2288 38.9581 47.7167C37.8946 44.7775 38.2196 41.3509 39.864 38.7021C40.8979 37.0036 42.4488 35.6399 44.2261 34.862C44.3541 34.8029 44.5018 34.862 44.5658 34.99C44.6249 35.1082 44.5806 35.2558 44.4624 35.3297C40.4942 37.8012 38.515 42.8919 40.1299 47.3228C40.2924 47.8299 40.6616 48.9426 40.8142 49.4251C41.5428 51.6357 41.6413 54.053 41.085 56.3079L37.9882 67.7201L37.8898 68.0746C37.4565 69.4827 37.6534 71.0236 38.3624 72.3037C38.387 72.3726 38.5397 72.6582 38.5692 72.7124C38.8942 73.313 38.8302 74.0515 38.8302 74.6964V76.1734C38.8203 76.4983 38.8203 76.907 39.0714 77.163C39.288 77.419 39.6277 77.5175 39.9526 77.4929H48.7802C48.8688 77.4929 49.1839 77.4929 49.2676 77.4879C49.7944 77.4387 50.1882 76.9366 50.1439 76.4098V75.6713C50.1439 75.5088 50.1291 75.3463 50.0602 75.1986C49.9962 75.046 49.8583 74.9032 49.7402 74.79L49.2134 74.2632C48.7506 73.8102 48.6964 73.0028 49.0854 72.4908C49.2183 72.3037 50.0061 71.2009 50.1538 70.9941C50.9169 69.8815 52.379 67.8974 53.1175 66.7945C54.7816 64.2492 55.3133 61.0195 54.5896 58.0753C54.4271 57.2581 53.9398 56.1504 53.669 55.3528C53.3293 54.373 52.448 52.1231 52.1772 51.1335C51.7439 49.6516 51.744 48.1007 51.8425 46.5843C51.8917 45.6834 51.9458 44.7775 52.0295 43.8716C52.0443 43.7387 52.1526 43.6304 52.2954 43.6304C52.4381 43.6304 52.5465 43.7387 52.5662 43.8716C52.6892 45.26 52.7483 46.668 52.8173 48.0465C52.9108 49.4792 53.2456 50.8233 53.7871 52.1526C54.1465 53.093 55.0229 55.3921 55.3626 56.2931C55.6432 57.0217 55.85 57.7898 55.9829 58.5628C56.0814 59.1487 56.4704 59.6459 57.0169 59.8723C57.8341 60.2071 58.6858 60.5075 59.5868 60.7586C60.5075 61.0195 61.4822 60.5813 61.8958 59.7148C61.9647 59.5671 62.0435 59.4194 62.1173 59.2717C62.7131 58.1147 63.5205 57.0759 64.3131 56.0518C65.0467 55.1115 65.8049 54.1908 66.5927 53.285C66.6813 53.1816 66.8339 53.1668 66.952 53.2456C67.0604 53.3244 67.0997 53.4819 67.0308 53.5951C66.1249 55.1115 65.0467 56.7559 64.0669 58.2033C62.905 60.0003 62.0878 62.0337 61.7382 64.1507C61.4724 65.8443 60.9703 69.0248 60.6995 70.7528C60.5862 71.3879 60.5271 72.2446 60.1825 72.8108C59.8773 73.4065 59.1683 73.889 58.671 74.3075L58.3018 74.6078L58.2526 74.6472L58.228 74.6718C57.9523 74.9081 57.8439 75.302 57.9522 75.6516C58.0605 76.0208 58.2082 76.6313 58.3116 76.971C58.4396 77.3255 58.804 77.5717 59.1831 77.5618H61.0884C62.659 77.552 64.2738 77.5618 65.8443 77.5618C65.9132 77.5618 66.1298 77.5618 66.2037 77.5618C66.8979 77.5618 67.592 77.3353 68.1484 76.9168C68.8573 76.4048 69.1971 75.686 69.4778 74.8491C69.6895 74.278 70.8956 71.0187 71.1319 70.3738C71.3436 69.7731 71.5997 69.1232 71.8754 68.5521C72.7468 66.7551 73.9629 65.1354 75.4793 63.8406C77.3156 62.3291 78.6793 60.3745 79.6 58.1443C79.6542 58.0113 79.7921 57.9424 79.925 57.9818C80.0579 58.0163 80.1465 58.1492 80.1268 58.2871C79.8216 60.1579 78.9206 61.9057 77.68 63.3384C77.1827 63.9144 76.8922 64.6332 76.8922 65.3914V66.0215C76.8922 66.3268 76.8922 66.6862 76.9464 66.9915C77.0744 67.7497 77.483 68.4488 78.0591 68.9559L78.448 69.3202L80.0185 70.7676L80.8062 71.4913C81.0228 71.6784 81.1952 71.9197 81.2691 72.2003C81.4365 72.7665 81.1754 73.3917 80.688 73.7216C80.4862 73.889 80.0628 74.2238 79.856 74.3912C79.7625 74.4798 79.5902 74.5979 79.5065 74.6915C79.2702 74.9376 79.1766 75.3069 79.2652 75.6368L79.3982 76.1488H79.4031L79.408 76.139Z" fill="white"/>
</g>
<defs>
<filter id="filter0_i_1_228" x="-22.6039" y="-16.8475" width="152.282" height="138.218" filterUnits="userSpaceOnUse" color-interpolation-filters="sRGB">
<feFlood flood-opacity="0" result="BackgroundImageFix"/>
<feBlend mode="normal" in="SourceGraphic" in2="BackgroundImageFix" result="shape"/>
<feColorMatrix in="SourceAlpha" type="matrix" values="0 0 0 0 0 0 0 0 0 0 0 0 0 0 0 0 0 0 127 0" result="hardAlpha"/>
<feOffset dy="5.83044"/>
<feGaussianBlur stdDeviation="2.91522"/>
<feComposite in2="hardAlpha" operator="arithmetic" k2="-1" k3="1"/>
<feColorMatrix type="matrix" values="0 0 0 0 0 0 0 0 0 0 0 0 0 0 0 0 0 0 0.25 0"/>
<feBlend mode="normal" in2="shape" result="effect1_innerShadow_1_228"/>
</filter>
<linearGradient id="paint0_linear_1_228" x1="-4.03719" y1="13.3422" x2="89.7715" y2="99.2785" gradientUnits="userSpaceOnUse">
<stop offset="0.125" stop-color="#89D0FF"/>
<stop offset="0.4" stop-color="#EBBF9A"/>
<stop offset="0.635" stop-color="#EB8280"/>
<stop offset="0.88" stop-color="#A281FF"/>
</linearGradient>
</defs>
</svg>
