<svg version="1.1" id="Layer_1" xmlns="http://www.w3.org/2000/svg" xmlns:xlink="http://www.w3.org/1999/xlink" x="0px" y="0px"
	 width="100%" viewBox="0 0 1280 1280" enable-background="new 0 0 1280 1280" xml:space="preserve">
<path fill="#FFFFFF" opacity="1.000000" stroke="none"
	d="
M591.000000,1281.000000
	C394.000000,1281.000000 197.500000,1281.000000 1.000000,1281.000000
	C1.000000,854.333313 1.000000,427.666656 1.000000,1.000000
	C427.666656,1.000000 854.333313,1.000000 1281.000000,1.000000
	C1281.000000,427.666656 1281.000000,854.333313 1281.000000,1281.000000
	C1051.166626,1281.000000 821.333313,1281.000000 591.000000,1281.000000
M495.003510,881.729492
	C495.239380,882.670166 495.475220,883.610779 495.711090,884.551453
	C496.177246,884.316772 496.643372,884.082092 497.109528,883.847412
	C496.406342,882.898254 495.703186,881.949158 494.998047,880.181030
	C494.859100,878.623169 494.720123,877.065247 494.581177,875.507385
	C493.915436,875.717529 493.249725,875.927673 492.584015,876.137817
	C493.389343,877.758545 494.194672,879.379272 495.003510,881.729492
M495.710205,848.878784
	C498.872192,844.081604 497.647552,835.415833 492.871185,833.332153
	C493.614807,838.804688 494.307526,843.902344 494.264526,849.150085
	C493.826538,850.817017 493.388519,852.483887 492.950500,854.150818
	C493.633606,854.239136 494.316711,854.327393 494.999817,854.415649
	C494.999817,852.610413 494.999817,850.805237 495.710205,848.878784
M976.070129,616.767151
	C960.382690,616.713867 944.695312,616.660522 928.796204,615.945496
	C926.920959,615.239502 925.045715,614.533508 923.302612,613.877258
	C923.669006,612.009766 924.335083,610.602234 924.102417,609.363586
	C923.690613,607.172302 922.102783,605.085693 922.095825,602.951721
	C921.968018,563.980469 922.002502,525.008667 922.002502,486.036957
	C922.002502,484.237335 922.002441,482.437744 922.002441,480.638123
	C922.418335,480.958008 922.834290,481.277863 923.250183,481.597748
	C925.166992,480.101593 927.083740,478.605438 929.922668,476.927826
	C949.299500,476.912415 968.676514,476.920319 988.053040,476.841431
	C989.773865,476.834442 991.492371,476.262482 993.715820,475.308838
	C993.804443,456.162750 993.899658,437.016663 993.951538,417.870453
	C993.953186,417.265167 993.509705,416.658722 993.141113,415.428497
	C992.756592,414.720245 992.372009,414.011993 991.867493,412.451141
	C990.257141,411.967438 988.652649,411.089172 987.035522,411.065369
	C977.877686,410.930359 968.716858,411.000000 959.557007,411.000000
	C924.749695,411.000000 889.942261,410.967896 855.135437,411.096283
	C853.423462,411.102600 851.716614,412.510071 849.190308,413.478241
	C847.789368,413.494629 846.388489,413.510986 845.001343,412.664490
	C845.346741,411.218353 846.017334,409.755951 845.946167,408.330566
	C845.874756,406.899902 845.063904,405.506134 844.577148,404.096191
	C842.547241,404.842102 839.279358,405.091370 838.740295,406.435333
	C837.547546,409.408691 837.726746,412.932373 837.299377,416.638794
	C842.643555,415.244324 843.055298,418.239105 843.053528,422.363434
	C842.986938,573.449402 842.998535,724.535461 842.984070,875.621460
	C842.983887,877.104858 843.319580,878.974792 842.580505,880.007202
	C838.631104,885.525269 842.763000,889.430664 845.239746,893.456909
	C845.950134,894.611633 848.433594,894.675659 850.971436,895.532654
	C850.020569,893.146179 849.574036,892.025574 848.767944,890.002441
	C851.365112,890.002441 853.290466,890.002502 855.215759,890.002502
	C899.358887,890.002502 943.502014,890.026001 987.644897,889.917175
	C989.426697,889.912781 991.205383,888.656311 993.049561,887.223083
	C993.122498,886.465088 993.195496,885.707031 993.744019,884.286072
	C993.828125,865.397949 993.927002,846.509888 993.948792,827.621704
	C993.949768,826.759338 993.256714,825.896179 992.164429,824.997620
	C991.445923,824.934082 990.727417,824.870544 990.020081,824.058044
	C990.161499,822.831421 990.302856,821.604858 990.448242,820.343445
	C982.647644,819.881042 975.221252,819.203003 967.784363,819.056091
	C956.798950,818.839172 945.806152,819.005676 934.816467,818.997986
	C927.887390,818.993103 927.003418,818.126038 927.002502,811.279541
	C926.997314,772.649170 926.977905,734.018738 927.050171,695.388550
	C927.054932,692.844177 927.780212,690.301147 928.170349,687.757568
	C926.761414,687.420166 925.436646,686.179260 925.334961,684.845093
	C925.280945,684.135986 927.249023,683.025024 928.479065,682.525269
	C930.236572,681.811157 932.150146,681.086304 934.004028,681.068054
	C946.657532,680.943481 959.353394,680.416260 971.948059,681.286194
	C977.121155,681.643555 983.255981,680.408142 987.788086,684.999695
	C988.296753,685.515015 990.272949,684.581909 991.568542,684.320496
	C991.068237,683.183777 990.856934,681.690552 989.999023,680.994812
	C988.750793,679.982544 987.036621,679.544800 985.460693,677.993042
	C985.535950,675.654846 985.611145,673.316711 986.528198,670.919006
	C987.350037,669.682129 988.867126,668.455627 988.885803,667.206726
	C989.066467,655.119934 989.097961,643.027222 988.851135,630.942810
	C988.824097,629.614624 986.788635,628.327515 985.479248,626.136841
	C985.456238,623.167908 985.433228,620.198975 986.221069,617.109436
	C986.984436,616.792419 987.747864,616.475464 988.511292,616.158508
	C988.365112,615.589355 988.218994,615.020203 988.072815,614.451111
	C984.379333,615.169067 980.685852,615.887085 976.070129,616.767151
M321.141083,588.679810
	C321.041016,589.116699 320.940948,589.553528 320.150482,590.137390
	C319.113373,592.086426 317.018951,594.149231 317.214386,595.965637
	C318.310913,606.157593 315.244781,615.442139 311.997528,624.972229
	C310.374664,624.428772 308.944733,623.950012 307.684265,623.527954
	C307.684265,629.031677 307.684265,634.196167 307.684265,639.360657
	C310.072083,631.049011 310.072083,631.049011 314.536682,630.452820
	C313.330841,636.995300 312.210571,643.228760 311.023132,649.449402
	C310.442200,652.492798 308.784882,655.696899 309.327728,658.496033
	C310.006134,661.994324 309.392914,663.824463 305.747650,664.880432
	C306.810547,668.741882 307.912994,672.316223 308.714813,675.956787
	C308.920197,676.889343 308.508606,678.495422 307.809998,678.996155
	C304.849457,681.118530 305.735809,683.746216 306.253174,686.514343
	C306.674530,688.768494 307.047028,691.119446 306.865295,693.381287
	C306.417267,698.957275 305.716766,704.517334 304.963593,710.062927
	C304.482635,713.603821 304.766693,717.874695 302.861908,720.456421
	C299.614014,724.858704 297.772339,731.837952 299.770477,736.908203
	C300.811890,739.550659 300.747650,742.628906 301.182800,745.510376
	C300.331024,745.720764 299.479248,745.931152 298.627472,746.141541
	C297.761200,743.259155 296.894928,740.376831 296.028656,737.494507
	C295.402374,746.601624 289.043213,755.129578 294.556549,765.744995
	C294.897736,760.421204 295.154510,756.414368 295.411316,752.407532
	C295.933594,752.441467 296.455902,752.475464 296.978180,752.509399
	C299.841370,760.890747 296.534607,769.243713 296.104706,777.888489
	C294.650360,777.206360 293.606476,776.363098 293.119049,775.271362
	C292.616730,774.146301 292.656403,772.779236 292.458954,771.518066
	C292.125519,771.591675 291.792114,771.665222 291.458679,771.738831
	C291.458679,777.366943 291.458679,782.995056 291.458679,789.077271
	C293.207489,788.443542 294.396423,788.012756 296.297241,787.323975
	C295.556641,789.502380 295.489410,791.312012 294.550598,792.197205
	C288.934570,797.492126 290.080383,803.610168 291.895020,809.949097
	C292.223053,811.094971 292.157867,812.415710 292.011902,813.624084
	C291.398468,818.701599 290.458801,823.751160 290.101227,828.843445
	C289.912689,831.528931 290.676147,834.281372 291.136444,837.752747
	C291.016968,838.498047 290.897491,839.243347 290.098907,840.152466
	C290.076569,841.772949 290.054230,843.393372 290.159790,845.762817
	C290.032501,846.505310 289.905212,847.247864 289.054077,848.190308
	C287.537872,851.351135 286.021667,854.512024 284.505463,857.672852
	C284.227478,857.534668 283.949493,857.396484 283.671539,857.258301
	C281.890839,865.512878 280.110138,873.767395 278.195435,882.643127
	C277.059174,883.373413 274.863831,884.784302 271.917450,886.677856
	C275.604309,888.293396 278.866150,888.665710 279.834320,890.353638
	C282.311340,894.671997 286.128326,894.921753 290.036133,894.944824
	C309.348022,895.059082 328.660980,895.006409 347.973480,894.972595
	C349.122864,894.970581 350.271667,894.620850 351.420776,894.432922
	C351.384705,893.956116 351.348633,893.479248 351.312561,893.002441
	C344.450470,893.002441 337.588348,893.002502 330.726257,893.002502
	C323.567291,893.002502 316.407104,893.084961 309.249725,892.978333
	C302.570129,892.878784 295.819824,893.445129 289.200073,891.575623
	C290.861633,890.356934 292.516968,890.029846 294.173126,890.025757
	C309.989349,889.986755 325.807953,890.155273 341.620880,889.923950
	C347.594452,889.836609 353.162994,889.888733 357.011536,895.434937
	C357.490448,896.125122 358.576538,896.393921 359.369751,896.851318
	C362.997253,891.136963 362.866211,890.164673 358.132446,886.646973
	C358.253143,886.214355 358.235565,885.546936 358.541046,885.325989
	C359.306549,884.772034 360.281647,884.510071 361.055695,883.964905
	C362.039581,883.272034 363.741791,881.764893 363.708008,881.721436
	C359.557770,876.401306 369.067749,869.034729 361.131012,864.260803
	C360.448639,863.850403 360.304169,862.076721 360.377991,860.967529
	C360.584015,857.872437 361.036163,854.793762 361.402863,851.606750
	C362.825653,852.021118 364.088654,852.388977 365.752563,852.873657
	C365.567627,844.402832 360.964294,836.712585 364.004181,827.628845
	C364.833771,829.849915 365.332642,831.185486 366.306183,833.791992
	C367.384491,824.466553 368.290070,816.635010 369.195648,808.803528
	C368.622040,808.729553 368.048462,808.655518 367.474854,808.581543
	C367.133087,811.208191 366.791321,813.834778 366.449554,816.461426
	C365.971039,816.408264 365.492554,816.355042 365.014038,816.301880
	C365.014038,811.712830 364.268188,806.966187 365.196136,802.573120
	C366.455872,796.609436 368.996490,790.916199 371.814392,784.940002
	C373.214386,784.994690 374.614349,785.049377 376.632904,785.654968
	C382.776154,785.769958 388.919006,785.940491 395.062775,785.986206
	C403.036835,786.045532 403.835907,787.429199 401.980713,795.125610
	C401.083313,798.848450 400.128754,803.880859 401.861847,806.661072
	C406.665466,814.367065 405.850067,822.517822 405.895355,830.703491
	C405.901428,831.804932 404.810089,833.207031 403.834290,833.963135
	C401.110718,836.073242 401.232025,838.370605 404.507935,840.396179
	C404.894623,838.755798 405.273376,837.149109 405.652100,835.542419
	C406.008331,835.584778 406.364563,835.627197 406.720795,835.669617
	C407.133148,840.250366 407.545532,844.831177 407.957916,849.411926
	C407.565125,849.454590 407.172333,849.497253 406.779541,849.539917
	C405.878113,848.483459 404.976715,847.427002 403.724426,845.959351
	C403.724426,857.676331 403.724426,868.730591 403.724426,879.784790
	C404.345612,879.847168 404.966766,879.909546 405.587952,879.971924
	C406.289001,875.137085 406.990051,870.302246 407.691101,865.467407
	C408.286133,865.528992 408.881134,865.590637 409.476166,865.652222
	C409.476166,872.863403 409.476166,880.074585 409.476166,887.873718
	C405.223694,890.163330 404.200714,892.436401 406.225006,896.776062
	C407.220490,896.240540 416.118835,894.885864 417.907410,894.991028
	C418.239319,895.010559 418.573242,894.998779 418.906189,894.996643
	C439.534515,894.862000 460.162872,894.724854 480.791260,894.601685
	C481.398315,894.598083 482.036743,894.648499 482.608124,894.834534
	C484.419342,895.424561 487.365875,897.061218 487.791595,896.552124
	C489.272583,894.781372 490.747833,892.236755 490.647186,890.059326
	C490.366760,883.993713 489.294128,877.964661 488.540680,871.971741
	C490.056702,870.557983 491.648712,869.073364 493.240753,867.588684
	C492.695068,867.524231 492.149414,867.459778 491.603729,867.395325
	C490.732513,864.866211 489.908722,862.319153 488.966309,859.816833
	C488.596375,858.834656 488.194336,857.547424 487.406677,857.093323
	C483.596039,854.896423 484.894165,852.108215 485.900787,848.848450
	C487.611023,849.580017 488.895752,850.129578 490.229279,850.699951
	C491.909576,843.460449 491.360931,838.624390 488.713928,836.552124
	C488.095520,838.952576 487.476562,841.355103 486.857635,843.757629
	C486.237579,843.655273 485.617523,843.552917 484.997467,843.450562
	C484.997467,841.377380 484.856537,839.292297 485.031097,837.233948
	C485.281250,834.283630 484.364075,832.363953 480.991547,831.262390
	C480.988190,830.511414 480.984833,829.760437 481.580414,828.434387
	C481.505066,824.494568 481.875641,820.484070 481.265381,816.628967
	C479.815155,807.467896 477.937073,798.390137 479.416290,789.027466
	C479.594574,787.898987 478.968964,786.535461 478.428772,785.419922
	C475.859924,780.115356 474.423218,774.884033 477.966156,769.342834
	C478.640625,768.287964 478.856537,766.401978 478.397156,765.254578
	C476.574554,760.701782 476.034302,756.298523 477.566559,751.475586
	C478.550781,748.377625 478.793701,744.975525 478.891510,741.695496
	C478.936249,740.196533 477.829468,738.663330 477.244934,737.145630
	C476.497009,738.667114 475.247955,740.142517 475.103088,741.719360
	C474.777954,745.259338 475.001190,748.849609 475.001190,752.419434
	C474.513397,752.397827 474.025635,752.376160 473.537842,752.354553
	C473.064148,749.453796 471.712402,746.356262 472.308868,743.695374
	C473.382904,738.903992 471.366638,733.431885 475.863434,729.169800
	C477.127716,727.971619 476.343872,724.317688 476.045929,721.844788
	C475.714844,719.096191 474.482574,716.429871 474.340668,713.691528
	C474.171204,710.421753 475.011292,707.105774 474.915344,703.824402
	C474.822296,700.641541 473.559906,697.948181 469.635864,698.000366
	C466.333557,698.044250 466.280884,695.873596 465.908081,693.347839
	C465.294678,689.191833 464.089874,685.123047 462.894928,680.372314
	C462.922821,679.917847 462.950745,679.463379 463.565765,678.463135
	C463.565765,668.815552 463.565765,659.168030 463.565765,649.062744
	C463.168671,650.154602 462.795135,651.181702 462.421570,652.208801
	C461.825043,651.855408 461.228546,651.501953 460.632019,651.148560
	C461.484711,644.676453 462.337402,638.204407 463.380646,630.286072
	C461.346771,632.169495 460.562195,632.895996 458.981476,634.359741
	C458.820221,631.466492 458.989410,629.510986 458.520844,627.722595
	C458.165894,626.367859 456.997681,625.226196 455.973816,623.266541
	C455.972229,622.515747 455.970673,621.764893 456.577118,620.434998
	C455.797089,607.792175 455.017090,595.149414 454.223267,582.282654
	C455.353485,582.282654 457.041992,582.282654 460.375122,582.282654
	C458.179230,577.639648 456.385101,573.829102 454.574921,570.026184
	C453.737640,568.267151 452.955597,566.473694 451.991974,564.785156
	C450.860107,562.801880 449.558136,560.915710 448.064056,558.222046
	C448.049530,557.146362 448.034973,556.070679 448.583710,554.473450
	C448.350708,548.709839 448.039215,542.947815 447.920288,537.181824
	C447.866699,534.584473 448.387726,531.972900 448.301025,529.379333
	C448.211273,526.694397 447.395813,524.015198 447.469543,521.349243
	C447.530670,519.138000 448.422638,516.949829 449.036530,514.373779
	C447.140167,514.373779 445.793488,514.373779 443.870270,514.373779
	C448.112823,503.415680 446.794586,492.555328 446.720459,481.742584
	C446.254822,481.713867 445.789185,481.685181 445.323547,481.656464
	C445.098633,484.663971 444.873718,487.671509 444.648834,490.679016
	C444.060150,490.854553 443.471466,491.030090 442.882812,491.205597
	C442.257111,489.728088 441.169342,488.275604 441.087585,486.768616
	C440.772827,480.965332 443.021667,474.924072 439.143311,469.462097
	C438.671875,468.798157 438.857025,467.451233 439.111847,466.523560
	C440.822601,460.295288 442.478851,454.044373 444.470551,447.903870
	C445.709747,444.083374 444.357605,435.600372 442.065704,433.803009
	C440.743896,436.259186 439.376862,438.799377 437.525116,442.240265
	C435.592163,437.703613 434.375031,434.847046 432.939301,431.265350
	C432.953705,430.513458 432.968109,429.761536 433.582611,428.429352
	C433.582611,422.447754 433.582611,416.466125 433.582611,410.459442
	C430.634552,410.640167 429.090546,410.734802 426.760315,410.877655
	C428.542450,408.093964 429.847900,406.054871 431.651306,403.237946
	C429.232513,403.237946 427.942139,403.113831 426.683228,403.260223
	C422.111908,403.791779 417.555908,404.873901 412.985535,404.921387
	C394.370270,405.114807 375.751495,405.050476 357.135406,404.903931
	C355.735992,404.892914 354.333435,403.514221 352.958954,402.724915
	C352.059692,402.208466 351.185394,401.139221 350.342529,401.180786
	C349.540955,401.220337 348.251984,402.286072 348.114960,403.065430
	C347.393585,407.169128 344.094360,408.292847 340.961212,408.868622
	C336.185608,409.746277 337.016174,412.884674 337.277679,416.026459
	C337.648102,420.476410 338.009583,424.927124 338.359161,429.378784
	C338.584747,432.251160 338.782288,435.125702 339.110352,438.665955
	C339.030396,439.107513 338.950439,439.549103 338.159698,440.159180
	C338.122223,442.112762 338.084747,444.066345 338.170502,446.684082
	C338.073120,447.119812 337.975739,447.555573 337.144012,448.170135
	C336.525574,450.262360 335.907135,452.354584 335.254272,454.563354
	C333.798370,454.084320 332.333740,453.602386 330.998444,453.163025
	C329.992554,457.759857 328.484253,461.976410 328.285400,466.253845
	C328.048523,471.349609 325.281799,476.387268 328.465485,481.770477
	C329.743774,483.931824 328.675964,487.480743 328.675964,490.398102
	C328.357941,490.396637 328.039886,490.395142 327.721863,490.393677
	C326.988739,487.731659 326.255646,485.069641 325.316071,481.657959
	C324.464569,489.004425 322.837921,495.374847 323.256683,501.607849
	C323.665314,507.689423 326.179016,513.626709 327.720490,519.639709
	C327.866943,520.210999 327.670624,520.870178 327.618561,521.735229
	C326.009277,521.735229 324.653076,521.735229 322.325287,521.735229
	C323.324127,525.628357 324.190796,529.006165 325.084351,532.488831
	C324.246674,532.903687 323.162415,533.440613 323.394104,533.325867
	C323.691986,536.732544 324.070404,539.203735 324.052399,541.672058
	C324.043915,542.829285 323.091522,543.948792 322.877716,545.141113
	C322.207703,548.877136 321.655212,552.635376 321.126648,556.394836
	C320.989655,557.369202 320.690216,558.711182 321.174652,559.319397
	C324.446930,563.428040 321.849030,567.424072 321.417114,571.561462
	C320.849487,576.999268 321.117157,582.524231 321.141083,588.679810
M653.149658,722.312500
	C653.149658,774.794556 653.149658,827.276611 653.149658,880.256775
	C647.727295,879.030457 647.986572,875.950806 647.987488,872.934448
	C648.001831,825.440674 647.930054,777.946716 648.102356,730.453552
	C648.119446,725.728821 649.403198,720.963074 650.507141,716.313293
	C650.877869,714.751709 652.268494,712.627502 653.618835,712.238342
	C660.593384,710.228638 667.705688,707.396057 674.684448,712.561462
	C675.304749,713.020569 676.809937,712.377625 677.873474,712.119934
	C679.112549,711.819580 680.313721,711.069336 681.538452,711.053223
	C687.839417,710.969971 694.142700,711.053589 700.444885,711.110046
	C700.715759,711.112488 700.983887,711.421936 701.404297,711.681702
	C701.132141,712.607361 700.849792,713.567810 700.426025,715.009216
	C702.164673,714.818420 703.377136,714.685364 703.258667,714.698364
	C704.511841,711.019775 704.778687,706.476929 706.550537,705.784302
	C710.796082,704.124695 715.092285,699.985718 720.180237,703.192932
	C723.628113,701.053528 723.894165,696.043335 729.368225,695.284729
	C732.357239,694.870544 735.412354,690.923401 737.361389,687.880249
	C741.007019,682.188232 744.680176,676.686829 750.229614,672.644592
	C751.355591,671.824341 752.174683,670.582947 752.312378,670.432800
	C751.533997,667.516846 750.368042,665.556641 750.692810,663.886292
	C751.476868,659.854553 752.929993,655.949585 754.186951,652.016968
	C754.372131,651.437744 754.991455,650.519836 755.353882,650.545593
	C761.754028,651.000732 759.448730,646.911133 759.077881,643.711548
	C758.995667,643.002380 759.616333,642.211670 760.054932,641.099548
	C761.111023,644.311646 761.811523,647.014221 762.988831,649.489990
	C763.197937,649.929810 766.496948,649.470520 766.501526,649.353333
	C766.596252,646.929443 767.324585,643.862366 766.141846,642.172180
	C761.044067,634.886841 759.275085,626.487122 759.184631,618.192627
	C758.763428,579.535583 759.045654,540.871338 758.932678,502.210052
	C758.920532,498.051208 759.669250,494.528992 762.185669,491.096985
	C765.427002,486.676270 764.283813,478.800201 759.831604,475.711121
	C756.574951,473.451569 752.428528,472.324738 754.579590,466.958801
	C754.729370,466.585175 753.521545,465.801453 753.230469,465.091400
	C752.414246,463.100494 751.217957,461.067139 751.144836,459.015869
	C751.032593,455.865723 751.732971,452.686584 752.078125,449.612854
	C749.692932,449.066010 747.476501,449.238007 746.641541,448.246582
	C743.336792,444.322937 740.508789,440.001587 737.403381,435.903900
	C736.556091,434.785950 735.490417,433.332214 734.295654,433.067474
	C729.613464,432.030060 727.754822,428.014130 724.724487,425.125732
	C721.714722,422.256927 721.107361,416.578674 714.377747,417.423462
	C708.798401,418.123901 702.912781,416.385040 695.722290,415.561920
	C698.492798,411.456970 700.457153,408.546387 702.574097,405.409821
	C699.764404,405.073456 697.222534,403.857880 695.350891,407.520844
	C694.804443,408.590393 691.166748,409.422546 690.149231,408.690674
	C683.720154,404.066071 676.144165,405.459351 669.376831,405.300598
	C640.063477,404.612885 610.724792,404.999786 581.395386,405.037628
	C580.451111,405.038849 579.507324,405.492676 578.563354,405.735535
	C578.610291,406.155792 578.657288,406.576080 578.704285,406.996338
	C580.447083,406.996338 582.189880,406.996338 583.932678,406.996338
	C612.262268,406.996338 640.592163,406.943390 668.921082,407.083282
	C671.577942,407.096405 674.228760,408.326508 676.882385,408.991577
	C676.838257,409.656525 676.794189,410.321442 676.750061,410.986389
	C675.473450,411.261139 674.187683,411.801147 672.922058,411.757385
	C669.956604,411.654846 667.001343,411.045532 664.041077,411.039032
	C636.711487,410.978851 609.381592,411.026245 582.052124,410.946411
	C580.405090,410.941589 578.698303,410.270630 577.133972,409.629639
	C575.830750,409.095642 574.696167,408.150146 573.486816,407.386902
	C573.324524,408.758820 573.162231,410.130707 572.814270,413.071747
	C571.442078,411.504303 570.338135,410.606110 569.711365,409.449341
	C568.524231,407.258545 566.995239,406.269501 565.262817,408.442078
	C564.100464,409.899750 563.260132,411.951599 563.106628,413.806427
	C562.782837,417.718323 563.002686,421.675385 563.002686,425.613922
	C563.002380,575.760803 563.002319,725.907715 563.004761,876.054626
	C563.004761,877.720459 563.004517,879.387878 563.080811,881.051025
	C563.100769,881.486633 563.407837,881.908997 563.623108,882.435486
	C564.608765,882.104919 565.471375,881.815552 567.565613,881.113159
	C566.692932,883.973877 565.987427,885.996155 565.474915,888.066162
	C565.117004,889.511658 564.400269,891.366150 564.977478,892.412842
	C565.623535,893.584290 567.483826,894.524231 568.931213,894.722778
	C571.799316,895.116211 574.746765,894.975708 577.661438,894.977661
	C600.158447,894.992737 622.655701,895.042664 645.152283,894.947571
	C649.867920,894.927612 655.635620,887.472839 655.103516,882.689575
	C654.920288,881.041443 655.001160,879.361328 655.001038,877.695801
	C654.996826,827.369080 655.010986,777.042358 654.939087,726.715698
	C654.936646,725.028076 654.072205,723.341675 653.149658,722.312500
M841.000000,519.500000
	C841.000000,486.232758 841.000000,452.965485 841.000000,419.698242
	C840.565613,419.702942 840.131287,419.707642 839.696899,419.712341
	C839.696899,572.571655 839.696899,725.430908 839.696899,878.290222
	C840.131287,878.289978 840.565613,878.289795 841.000000,878.289612
	C841.000000,759.026428 841.000000,639.763184 841.000000,519.500000
M988.076660,405.000732
	C942.283997,405.000732 896.491333,405.000732 850.698669,405.000732
	C850.704224,405.432587 850.709778,405.864410 850.715332,406.296265
	C897.578491,406.296265 944.441650,406.296265 991.304810,406.296265
	C991.313354,405.989868 991.321838,405.683441 991.330322,405.377045
	C990.538635,405.252594 989.746948,405.128143 988.076660,405.000732
M761.005066,516.834595
	C761.005066,552.323792 761.005066,587.813049 761.005066,623.302246
	C761.901855,623.297302 762.798645,623.292358 763.695435,623.287415
	C763.695435,582.763428 763.695435,542.239380 763.695435,502.420807
	C762.892883,506.451111 761.950745,511.182373 761.005066,516.834595
M953.500000,687.000000
	C960.781372,687.000000 968.062744,687.000000 975.344116,687.000000
	C975.322815,686.562317 975.301575,686.124695 975.280273,685.687012
	C960.418823,685.687012 945.557373,685.687012 930.695923,685.687012
	C930.695374,686.124695 930.694824,686.562317 930.694336,687.000000
	C937.962891,687.000000 945.231445,687.000000 953.500000,687.000000
M683.761169,720.929260
	C687.423950,719.429688 691.086731,717.930115 694.749512,716.430542
	C694.629639,715.934998 694.509705,715.439453 694.389771,714.943909
	C689.524231,714.180542 684.658630,713.417114 679.304932,712.577148
	C680.943848,716.205933 681.964661,718.466248 683.761169,720.929260
M310.681122,596.469421
	C312.368500,600.022827 308.536316,605.315369 314.733673,608.653076
	C314.380676,603.403015 314.182739,599.210510 313.728149,595.046021
	C313.660065,594.422363 312.388916,593.929932 311.674316,593.376831
	C311.246277,594.161560 310.818207,594.946289 310.681122,596.469421
M460.002441,616.343201
	C460.002441,618.765198 460.002441,621.187195 460.002441,623.609192
	C460.668152,623.671997 461.333862,623.734802 461.999573,623.797607
	C462.646149,619.060242 463.292725,614.322876 463.992615,609.194580
	C458.730927,609.577515 460.392456,613.085144 460.002441,616.343201
M448.733398,460.694885
	C447.132172,460.571808 444.483093,459.817352 444.110992,460.434906
	C442.498505,463.111023 442.062439,466.123932 445.217621,469.288757
	C446.591278,466.344788 447.734406,463.894867 448.733398,460.694885
M745.414246,684.902466
	C744.563599,685.874512 743.712952,686.846558 742.531433,688.196777
	C748.711731,689.271606 750.632385,686.561218 748.812073,679.475952
	C747.554626,681.463135 746.670532,682.860352 745.414246,684.902466
M289.002441,746.197571
	C289.157928,747.617493 289.313416,749.037354 289.468933,750.457275
	C289.789734,750.396301 290.110565,750.335327 290.431396,750.274292
	C290.431396,744.745789 290.431396,739.217285 290.431396,733.688782
	C289.955078,733.688904 289.478760,733.688965 289.002441,733.689087
	C289.002441,737.550293 289.002441,741.411560 289.002441,746.197571
M669.822876,714.971008
	C670.023560,714.355042 670.224182,713.739136 670.424866,713.123169
	C666.509583,713.123169 662.594299,713.123169 658.679016,713.123169
	C658.674500,713.746460 658.669922,714.369751 658.665405,714.993042
	C662.103333,714.993042 665.541260,714.993042 669.822876,714.971008
M730.355774,700.666870
	C732.171326,700.592163 734.147583,700.912659 735.731628,700.268616
	C736.474121,699.966675 736.460083,697.804260 736.788879,696.485046
	C736.284241,696.186340 735.779602,695.887573 735.274963,695.588867
	C733.726624,697.064209 732.178284,698.539551 730.355774,700.666870
M273.274658,862.929749
	C273.927216,865.515076 274.579773,868.100403 275.232300,870.685669
	C275.727844,870.529053 276.223358,870.372375 276.718872,870.215698
	C276.676636,867.291199 278.303284,863.810974 273.274658,862.929749
M310.665344,612.515381
	C309.887390,611.372803 309.109436,610.230164 308.331512,609.087585
	C307.917633,609.265564 307.503754,609.443542 307.089874,609.621460
	C307.192657,611.663940 307.295471,613.706360 307.398254,615.748840
	C307.849854,615.862793 308.301422,615.976807 308.753021,616.090820
	C309.302551,615.126526 309.852081,614.162231 310.665344,612.515381
M305.002472,648.363037
	C305.171661,649.733154 305.340881,651.103271 305.510101,652.473389
	C305.844421,652.407593 306.178741,652.341736 306.513062,652.275879
	C306.513062,649.077332 306.513062,645.878845 306.513062,642.680298
	C306.109741,642.652588 305.706451,642.624817 305.303131,642.597107
	C305.202911,644.231384 305.102692,645.865723 305.002472,648.363037
M761.232361,467.254822
	C762.390991,468.262238 763.549561,469.269684 764.708191,470.277100
	C764.842651,464.603333 764.494568,464.385956 761.232361,467.254822
M322.635315,464.549042
	C322.706909,466.562531 322.778473,468.576019 322.850067,470.589478
	C323.664703,470.458588 324.479370,470.327667 325.294037,470.196747
	C324.654602,468.270477 324.015198,466.344177 322.635315,464.549042
M748.272949,437.581024
	C748.012756,436.104248 747.752502,434.627502 747.492249,433.150757
	C746.776184,433.403625 746.060120,433.656525 745.344055,433.909363
	C746.079956,435.213379 746.815857,436.517426 748.272949,437.581024
M765.005798,628.502686
	C765.190674,629.510681 765.375549,630.518677 765.560425,631.526672
	C765.977234,631.491943 766.393982,631.457275 766.810791,631.422546
	C766.810791,629.479370 766.810791,627.536133 766.810791,625.592957
	C766.352295,625.580200 765.893738,625.567383 765.435242,625.554626
	C765.293030,626.290039 765.150818,627.025452 765.005798,628.502686
M293.571167,726.413452
	C296.854980,724.331238 296.865448,723.915344 293.163605,721.172791
	C293.163605,722.980652 293.163605,724.401367 293.571167,726.413452
M367.002991,877.393799
	C367.218262,878.414734 367.433533,879.435669 367.648804,880.456604
	C367.922180,880.386902 368.195557,880.317261 368.468933,880.247620
	C368.468933,878.042908 368.468933,875.838196 368.468933,873.633545
	C368.158783,873.618591 367.848663,873.603699 367.538513,873.588806
	C367.359985,874.594055 367.181488,875.599365 367.002991,877.393799
M460.177338,594.135559
	C460.177338,595.609009 460.177338,597.082520 460.177338,598.555969
	C463.174652,596.616577 464.682770,594.765503 460.177338,594.135559
M448.819366,438.814850
	C448.819366,437.065155 448.819366,435.315430 448.819366,433.565735
	C448.145508,433.687317 447.471649,433.808868 446.797821,433.930450
	C447.317413,435.753906 447.837006,437.577393 448.819366,438.814850
M477.036224,707.945374
	C477.116669,709.440857 477.197113,710.936340 477.277557,712.431824
	C477.918671,712.228882 478.559784,712.025879 479.200867,711.822876
	C478.522461,710.284363 477.844055,708.745850 477.036224,707.945374
M480.997223,779.930542
	C480.943573,779.284180 480.889923,778.637817 480.836273,777.991455
	C480.485291,777.965698 480.134277,777.939880 479.783264,777.914124
	C479.602997,779.699158 479.422699,781.484131 479.242432,783.269104
	C479.686829,783.319336 480.131226,783.369507 480.575623,783.419678
	C480.715759,782.496582 480.855927,781.573425 480.997223,779.930542
M833.287720,886.127686
	C834.129272,885.977905 834.970825,885.828125 835.812378,885.678284
	C835.345886,884.927185 834.879395,884.176086 834.412903,883.425110
	C833.971497,884.098145 833.530029,884.771179 833.287720,886.127686
M735.170044,421.220215
	C734.556824,421.838379 733.943604,422.456573 733.330383,423.074768
	C734.175354,423.315125 735.020325,423.555481 735.865295,423.795837
	C735.842773,423.041504 735.820190,422.287170 735.170044,421.220215
M689.791321,401.055878
	C689.388672,401.428680 688.986023,401.801483 688.583374,402.174286
	C689.847656,402.371246 691.112000,402.568176 692.376282,402.765106
	C692.423157,402.375610 692.469971,401.986115 692.516846,401.596619
	C691.844543,401.406250 691.172302,401.215851 689.791321,401.055878
M992.362976,673.575928
	C991.905823,674.764282 991.448669,675.952698 990.991577,677.141113
	C991.527222,677.248291 992.062927,677.355469 992.598572,677.462646
	C992.668884,676.346680 992.739136,675.230652 992.362976,673.575928
M767.054626,485.209137
	C767.427734,485.611969 767.800842,486.014801 768.173950,486.417633
	C768.371094,485.152740 768.568176,483.887817 768.765259,482.622925
	C768.375549,482.576019 767.985840,482.529114 767.596130,482.482208
	C767.405518,483.154816 767.214844,483.827454 767.054626,485.209137
M767.209045,473.078003
	C767.323730,474.218140 767.438416,475.358276 767.553101,476.498444
	C768.087646,476.352600 768.622192,476.206757 769.156677,476.060913
	C768.660278,474.890594 768.163879,473.720306 767.209045,473.078003
M753.385925,687.106567
	C752.724670,686.998047 752.063354,686.889587 751.402161,686.781128
	C751.467163,687.351379 751.532166,687.921570 751.597107,688.491821
	C752.282593,688.226990 752.968140,687.962158 753.385925,687.106567
M978.645935,688.927063
	C979.234070,688.580505 979.822266,688.233948 980.410461,687.887451
	C979.904785,687.619263 979.130432,687.006836 978.946350,687.150574
	C978.486084,687.509949 978.293640,688.212341 978.645935,688.927063
M725.359497,703.675049
	C726.039490,703.946472 726.719482,704.217957 727.399475,704.489441
	C727.468750,703.919617 727.537964,703.349792 727.607239,702.779968
	C726.947876,702.881714 726.288513,702.983459 725.359497,703.675049
M988.532776,613.303894
	C989.201416,612.958496 989.870056,612.613159 990.538635,612.267761
	C990.310669,611.914185 990.082703,611.560547 989.854675,611.207031
	C989.292419,611.749207 988.730164,612.291382 988.532776,613.303894
M448.731171,444.902802
	C448.232147,444.957764 447.733124,445.012726 447.234100,445.067688
	C447.348846,445.514801 447.463562,445.961914 447.578278,446.409058
	C448.004303,446.106445 448.430328,445.803833 448.731171,444.902802
M401.142670,819.490356
	C401.569366,819.793640 401.996063,820.096863 402.422760,820.400085
	C402.536438,819.951416 402.650085,819.502686 402.763733,819.054016
	C402.264160,819.000366 401.764618,818.946655 401.142670,819.490356
M765.143860,495.490173
	C765.569946,495.793030 765.995972,496.095886 766.422058,496.398743
	C766.535461,495.950592 766.648865,495.502441 766.762268,495.054352
	C766.263489,495.000763 765.764771,494.947174 765.143860,495.490173
M463.142853,575.490540
	C463.569366,575.793640 463.995880,576.096741 464.422424,576.399780
	C464.535950,575.951294 464.649475,575.502747 464.763000,575.054260
	C464.263702,575.000671 463.764404,574.947021 463.142853,575.490540
M495.275421,890.881104
	C495.467651,891.424805 495.659882,891.968567 495.852081,892.512268
	C496.130768,892.384827 496.409424,892.257385 496.688110,892.129883
	C496.362213,891.570190 496.036316,891.010498 495.275421,890.881104
M991.703064,624.570007
	C991.989624,624.296509 992.276123,624.023010 992.562683,623.749573
	C992.449219,623.631042 992.243530,623.403198 992.235718,623.409729
	C991.933594,623.664978 991.649353,623.941467 991.703064,624.570007
M495.432281,862.703918
	C495.704712,862.989258 495.977142,863.274597 496.249542,863.559937
	C496.367645,863.446960 496.594574,863.242004 496.588104,863.234314
	C496.333893,862.933350 496.058380,862.650391 495.432281,862.703918
M992.296814,619.430969
	C992.010681,619.704102 991.724548,619.977173 991.438416,620.250244
	C991.551636,620.368652 991.757080,620.596252 991.764832,620.589722
	C992.066589,620.334839 992.350342,620.058594 992.296814,619.430969
M977.430786,609.703308
	C977.703918,609.989441 977.977051,610.275574 978.250183,610.561707
	C978.368591,610.448425 978.596191,610.242981 978.589661,610.235229
	C978.334778,609.933472 978.058533,609.649719 977.430786,609.703308
M927.430298,609.703064
	C927.703613,609.989441 927.976990,610.275818 928.250305,610.562073
	C928.368835,610.448730 928.596558,610.243103 928.590088,610.235474
	C928.334961,609.933411 928.058533,609.649414 927.430298,609.703064
M463.391937,580.202026
	C463.785858,580.206177 464.179779,580.210327 464.573730,580.214539
	C464.575256,580.051086 464.587708,579.745483 464.576691,579.744629
	C464.184723,579.714478 463.790527,579.712830 463.391937,580.202026
M571.295410,401.434235
	C571.010864,401.705750 570.726257,401.977295 570.441711,402.248810
	C570.554321,402.366577 570.758606,402.592896 570.766235,402.586456
	C571.066345,402.333038 571.348572,402.058472 571.295410,401.434235
z"/>
<path fill="#0455F9" opacity="1.000000" stroke="none"
	d="
M320.840912,589.990417
	C320.940948,589.553528 321.041016,589.116699 321.282532,588.004639
	C325.278198,555.265930 329.161438,523.205933 332.973450,491.137390
	C334.682007,476.764099 336.247803,462.373840 337.878357,447.991302
	C337.975739,447.555573 338.073120,447.119812 338.301788,446.026459
	C338.578888,443.576111 338.724701,441.783386 338.870483,439.990662
	C338.950439,439.549103 339.030396,439.107513 339.238953,437.985596
	C340.349884,429.603516 341.332245,421.901825 342.302612,414.294067
	C372.070343,414.294067 401.383453,414.294067 430.540558,414.294067
	C431.409393,419.529785 432.195984,424.269714 432.982544,429.009644
	C432.968109,429.761536 432.953705,430.513458 432.990479,432.059143
	C436.259186,459.908722 439.428833,486.970337 442.714233,514.017883
	C444.375000,527.690002 446.245026,541.336792 448.020416,554.994995
	C448.034973,556.070679 448.049530,557.146362 448.128174,559.024170
	C449.535095,571.034058 450.821655,582.248901 452.238098,593.447327
	C453.401672,602.646362 454.719604,611.825928 455.969116,621.014099
	C455.970673,621.764893 455.972229,622.515747 456.031616,624.053589
	C456.402985,627.471680 456.696716,630.105286 457.033386,632.733276
	C459.009583,648.159180 460.995789,663.583862 462.978638,679.008911
	C462.950745,679.463379 462.922821,679.917847 462.957397,681.125366
	C467.541168,719.556885 472.039642,757.238098 476.597656,794.912109
	C477.973999,806.288147 479.515594,817.644226 480.981445,829.009460
	C480.984833,829.760437 480.988190,830.511414 481.038513,832.049683
	C483.248413,851.070190 485.411346,869.303345 487.598206,887.738098
	C462.232330,887.738098 437.818695,887.738098 412.804779,887.738098
	C410.011200,853.416199 407.235718,819.316406 404.451080,785.104126
	C394.617676,785.104126 385.316010,785.104126 376.014343,785.104126
	C374.614349,785.049377 373.214386,784.994690 370.971832,784.929810
	C368.366058,784.919678 366.602814,784.919678 364.661255,784.919678
	C361.853058,819.625549 359.096344,853.695007 356.355225,887.571655
	C332.250122,887.571655 309.038086,887.571655 285.511566,887.571655
	C286.965759,874.080200 288.371857,861.035278 289.777893,847.990356
	C289.905212,847.247864 290.032501,846.505310 290.270660,845.068726
	C290.513702,842.912659 290.645874,841.450684 290.778015,839.988647
	C290.897491,839.243347 291.016968,838.498047 291.264587,837.033569
	C295.188873,805.267456 299.019104,774.224670 302.772156,743.172546
	C307.045502,707.815491 311.277618,672.453491 315.471649,637.086914
	C317.332306,621.396484 319.055359,605.689758 320.840912,589.990417
M396.284454,687.029175
	C392.485443,638.966553 388.686462,590.903931 384.887451,542.841309
	C384.403320,542.856018 383.919189,542.870728 383.435059,542.885437
	C378.972534,602.429565 374.510010,661.973633 370.039307,721.626770
	C380.025177,721.626770 389.410980,721.626770 399.267029,721.626770
	C398.299713,710.118774 397.367371,699.026428 396.284454,687.029175
z"/>
<path fill="#F2F8FC" opacity="1.000000" stroke="none"
	d="
M653.379639,721.983582
	C654.072205,723.341675 654.936646,725.028076 654.939087,726.715698
	C655.010986,777.042358 654.996826,827.369080 655.001038,877.695801
	C655.001160,879.361328 654.920288,881.041443 655.103516,882.689575
	C655.635620,887.472839 649.867920,894.927612 645.152283,894.947571
	C622.655701,895.042664 600.158447,894.992737 577.661438,894.977661
	C574.746765,894.975708 571.799316,895.116211 568.931213,894.722778
	C567.483826,894.524231 565.623535,893.584290 564.977478,892.412842
	C564.400269,891.366150 565.117004,889.511658 565.474915,888.066162
	C565.987427,885.996155 566.692932,883.973877 567.565613,881.113159
	C565.471375,881.815552 564.608765,882.104919 563.623108,882.435486
	C563.407837,881.908997 563.100769,881.486633 563.080811,881.051025
	C563.004517,879.387878 563.004761,877.720459 563.004761,876.054626
	C563.002319,725.907715 563.002380,575.760803 563.002686,425.613922
	C563.002686,421.675385 562.782837,417.718323 563.106628,413.806427
	C563.260132,411.951599 564.100464,409.899750 565.262817,408.442078
	C566.995239,406.269501 568.524231,407.258545 569.711365,409.449341
	C570.338135,410.606110 571.442078,411.504303 572.814270,413.071747
	C573.162231,410.130707 573.324524,408.758820 573.486816,407.386902
	C574.696167,408.150146 575.830750,409.095642 577.133972,409.629639
	C578.698303,410.270630 580.405090,410.941589 582.052124,410.946411
	C609.381592,411.026245 636.711487,410.978851 664.041077,411.039032
	C667.001343,411.045532 669.956604,411.654846 672.922058,411.757385
	C674.187683,411.801147 675.473450,411.261139 676.750061,410.986389
	C676.794189,410.321442 676.838257,409.656525 676.882385,408.991577
	C674.228760,408.326508 671.577942,407.096405 668.921082,407.083282
	C640.592163,406.943390 612.262268,406.996338 583.932678,406.996338
	C582.189880,406.996338 580.447083,406.996338 578.704285,406.996338
	C578.657288,406.576080 578.610291,406.155792 578.563354,405.735535
	C579.507324,405.492676 580.451111,405.038849 581.395386,405.037628
	C610.724792,404.999786 640.063477,404.612885 669.376831,405.300598
	C676.144165,405.459351 683.720154,404.066071 690.149231,408.690674
	C691.166748,409.422546 694.804443,408.590393 695.350891,407.520844
	C697.222534,403.857880 699.764404,405.073456 702.574097,405.409821
	C700.457153,408.546387 698.492798,411.456970 695.722290,415.561920
	C702.912781,416.385040 708.798401,418.123901 714.377747,417.423462
	C721.107361,416.578674 721.714722,422.256927 724.724487,425.125732
	C727.754822,428.014130 729.613464,432.030060 734.295654,433.067474
	C735.490417,433.332214 736.556091,434.785950 737.403381,435.903900
	C740.508789,440.001587 743.336792,444.322937 746.641541,448.246582
	C747.476501,449.238007 749.692932,449.066010 752.078125,449.612854
	C751.732971,452.686584 751.032593,455.865723 751.144836,459.015869
	C751.217957,461.067139 752.414246,463.100494 753.230469,465.091400
	C753.521545,465.801453 754.729370,466.585175 754.579590,466.958801
	C752.428528,472.324738 756.574951,473.451569 759.831604,475.711121
	C764.283813,478.800201 765.427002,486.676270 762.185669,491.096985
	C759.669250,494.528992 758.920532,498.051208 758.932678,502.210052
	C759.045654,540.871338 758.763428,579.535583 759.184631,618.192627
	C759.275085,626.487122 761.044067,634.886841 766.141846,642.172180
	C767.324585,643.862366 766.596252,646.929443 766.501526,649.353333
	C766.496948,649.470520 763.197937,649.929810 762.988831,649.489990
	C761.811523,647.014221 761.111023,644.311646 760.054932,641.099548
	C759.616333,642.211670 758.995667,643.002380 759.077881,643.711548
	C759.448730,646.911133 761.754028,651.000732 755.353882,650.545593
	C754.991455,650.519836 754.372131,651.437744 754.186951,652.016968
	C752.929993,655.949585 751.476868,659.854553 750.692810,663.886292
	C750.368042,665.556641 751.533997,667.516846 752.312378,670.432800
	C752.174683,670.582947 751.355591,671.824341 750.229614,672.644592
	C744.680176,676.686829 741.007019,682.188232 737.361389,687.880249
	C735.412354,690.923401 732.357239,694.870544 729.368225,695.284729
	C723.894165,696.043335 723.628113,701.053528 720.180237,703.192932
	C715.092285,699.985718 710.796082,704.124695 706.550537,705.784302
	C704.778687,706.476929 704.511841,711.019775 703.258667,714.698364
	C703.377136,714.685364 702.164673,714.818420 700.426025,715.009216
	C700.849792,713.567810 701.132141,712.607361 701.404297,711.681702
	C700.983887,711.421936 700.715759,711.112488 700.444885,711.110046
	C694.142700,711.053589 687.839417,710.969971 681.538452,711.053223
	C680.313721,711.069336 679.112549,711.819580 677.873474,712.119934
	C676.809937,712.377625 675.304749,713.020569 674.684448,712.561462
	C667.705688,707.396057 660.593384,710.228638 653.618835,712.238342
	C652.268494,712.627502 650.877869,714.751709 650.507141,716.313293
	C649.403198,720.963074 648.119446,725.728821 648.102356,730.453552
	C647.930054,777.946716 648.001831,825.440674 647.987488,872.934448
	C647.986572,875.950806 647.727295,879.030457 653.149658,880.256775
	C653.149658,827.276611 653.149658,774.794556 653.379639,721.983582
M644.798157,800.500427
	C644.798157,770.206970 644.798157,739.913574 644.798157,708.985962
	C655.330627,708.985962 665.306030,709.342957 675.246826,708.908752
	C693.738342,708.101074 711.156799,703.563416 726.061768,691.955200
	C746.173645,676.291687 754.996765,654.672913 755.781067,630.101746
	C756.801208,598.140259 756.299316,566.128845 756.353943,534.138733
	C756.377014,520.644287 756.669678,507.120300 755.917847,493.661194
	C754.663086,471.198975 747.864380,450.759491 730.805725,435.028259
	C713.669006,419.225006 692.636047,413.976898 670.004761,413.874237
	C638.178406,413.729858 606.350830,413.831482 574.523804,413.827911
	C572.750854,413.827728 570.977966,413.827850 569.073975,413.827850
	C569.073975,572.189697 569.073975,729.870789 569.073975,887.690063
	C594.380310,887.690063 619.298035,887.690063 644.798706,887.690063
	C644.798706,858.751892 644.798706,830.126160 644.798157,800.500427
M759.235107,638.596802
	C759.349487,637.148926 759.463867,635.701050 759.578247,634.253174
	C758.814026,634.331238 758.049744,634.409241 757.285522,634.487244
	C757.689941,635.921692 758.094299,637.356079 759.235107,638.596802
z"/>
<path fill="#356DE2" opacity="1.000000" stroke="none"
	d="
M993.211914,475.952942
	C991.492371,476.262482 989.773865,476.834442 988.053040,476.841431
	C968.676514,476.920319 949.299500,476.912415 929.025452,476.931396
	C925.760315,476.964813 923.392395,476.994629 920.941528,476.937500
	C920.858582,476.850555 920.693604,476.675873 920.857300,476.360382
	C923.266052,471.957672 926.492004,475.267792 929.106079,475.230255
	C948.432373,474.952850 967.765686,474.965027 987.093750,475.170319
	C991.155457,475.213440 992.160034,473.883240 992.116882,470.032074
	C991.935852,453.869995 991.843811,437.700897 992.160767,421.542999
	C992.255493,416.714600 990.580383,415.812927 986.187317,415.827118
	C942.028137,415.969910 897.868286,415.913849 853.708618,415.914642
	C845.935242,415.914795 845.931702,415.916656 845.931641,423.498779
	C845.930969,574.141541 845.930603,724.784363 845.937195,875.427124
	C845.937317,877.257629 845.840271,879.117432 846.118286,880.912476
	C846.663391,884.432190 848.331482,886.175659 852.446350,886.161438
	C897.272034,886.005920 942.098511,886.028137 986.924500,886.131897
	C990.654480,886.140564 992.199585,885.392578 992.140381,881.209412
	C991.902100,864.382080 991.936951,847.548340 992.121033,830.719666
	C992.162170,826.959839 991.014038,825.893250 987.297058,825.929138
	C969.301575,826.103210 951.303406,826.030334 933.306458,825.975952
	C931.539917,825.970581 929.774902,825.493835 928.466980,825.132874
	C949.286194,824.955566 969.647522,824.881348 990.008911,824.807007
	C990.727417,824.870544 991.445923,824.934082 992.600098,825.476685
	C993.113281,845.620117 993.190857,865.284607 993.268433,884.949036
	C993.195496,885.707031 993.122498,886.465088 992.552551,887.654419
	C942.835754,888.085693 893.615967,888.085693 844.106201,888.085693
	C844.106201,885.666382 844.106201,884.181763 844.106262,882.697205
	C844.113220,727.890381 844.117493,573.083496 844.162659,418.276672
	C844.163147,416.693512 844.700745,415.110474 844.987549,413.527344
	C846.388489,413.510986 847.789368,413.494629 850.056641,413.481873
	C895.625305,413.505371 940.327576,413.528931 985.029907,413.534698
	C987.349060,413.535004 989.668274,413.384216 991.987427,413.303772
	C992.372009,414.011993 992.756592,414.720245 993.137573,416.200745
	C993.159912,436.632965 993.185913,456.292969 993.211914,475.952942
z"/>
<path fill="#F9FCFD" opacity="1.000000" stroke="none"
	d="
M990.014526,824.432556
	C969.647522,824.881348 949.286194,824.955566 928.099976,825.074890
	C926.535645,825.160583 925.796204,825.201233 924.664185,825.136597
	C923.189331,825.017944 922.107117,825.004578 921.015686,824.993530
	C921.006470,824.995850 921.004211,824.977417 920.950256,824.513184
	C920.894104,776.029175 920.891846,728.009399 920.941650,679.986938
	C920.993713,679.984253 921.002258,679.880371 921.470215,679.902222
	C941.246094,679.923035 960.554077,679.951233 979.861633,679.874634
	C981.749451,679.867188 983.634705,679.215027 985.521179,678.862061
	C987.036621,679.544800 988.750793,679.982544 989.999023,680.994812
	C990.856934,681.690552 991.068237,683.183777 991.568542,684.320496
	C990.272949,684.581909 988.296753,685.515015 987.788086,684.999695
	C983.255981,680.408142 977.121155,681.643555 971.948059,681.286194
	C959.353394,680.416260 946.657532,680.943481 934.004028,681.068054
	C932.150146,681.086304 930.236572,681.811157 928.479065,682.525269
	C927.249023,683.025024 925.280945,684.135986 925.334961,684.845093
	C925.436646,686.179260 926.761414,687.420166 928.170349,687.757568
	C927.780212,690.301147 927.054932,692.844177 927.050171,695.388550
	C926.977905,734.018738 926.997314,772.649170 927.002502,811.279541
	C927.003418,818.126038 927.887390,818.993103 934.816467,818.997986
	C945.806152,819.005676 956.798950,818.839172 967.784363,819.056091
	C975.221252,819.203003 982.647644,819.881042 990.448242,820.343445
	C990.302856,821.604858 990.161499,822.831421 990.014526,824.432556
z"/>
<path fill="#F4FAFC" opacity="1.000000" stroke="none"
	d="
M376.323608,785.379517
	C385.316010,785.104126 394.617676,785.104126 404.451080,785.104126
	C407.235718,819.316406 410.011200,853.416199 412.804779,887.738098
	C437.818695,887.738098 462.232330,887.738098 487.598206,887.738098
	C485.411346,869.303345 483.248413,851.070190 481.144836,832.412109
	C484.364075,832.363953 485.281250,834.283630 485.031097,837.233948
	C484.856537,839.292297 484.997467,841.377380 484.997467,843.450562
	C485.617523,843.552917 486.237579,843.655273 486.857635,843.757629
	C487.476562,841.355103 488.095520,838.952576 488.713928,836.552124
	C491.360931,838.624390 491.909576,843.460449 490.229279,850.699951
	C488.895752,850.129578 487.611023,849.580017 485.900787,848.848450
	C484.894165,852.108215 483.596039,854.896423 487.406677,857.093323
	C488.194336,857.547424 488.596375,858.834656 488.966309,859.816833
	C489.908722,862.319153 490.732513,864.866211 491.603729,867.395325
	C492.149414,867.459778 492.695068,867.524231 493.240753,867.588684
	C491.648712,869.073364 490.056702,870.557983 488.540680,871.971741
	C489.294128,877.964661 490.366760,883.993713 490.647186,890.059326
	C490.747833,892.236755 489.272583,894.781372 487.791595,896.552124
	C487.365875,897.061218 484.419342,895.424561 482.608124,894.834534
	C482.036743,894.648499 481.398315,894.598083 480.791260,894.601685
	C460.162872,894.724854 439.534515,894.862000 418.906189,894.996643
	C418.573242,894.998779 418.239319,895.010559 417.907410,894.991028
	C416.118835,894.885864 407.220490,896.240540 406.225006,896.776062
	C404.200714,892.436401 405.223694,890.163330 409.476166,887.873718
	C409.476166,880.074585 409.476166,872.863403 409.476166,865.652222
	C408.881134,865.590637 408.286133,865.528992 407.691101,865.467407
	C406.990051,870.302246 406.289001,875.137085 405.587952,879.971924
	C404.966766,879.909546 404.345612,879.847168 403.724426,879.784790
	C403.724426,868.730591 403.724426,857.676331 403.724426,845.959351
	C404.976715,847.427002 405.878113,848.483459 406.779541,849.539917
	C407.172333,849.497253 407.565125,849.454590 407.957916,849.411926
	C407.545532,844.831177 407.133148,840.250366 406.720795,835.669617
	C406.364563,835.627197 406.008331,835.584778 405.652100,835.542419
	C405.273376,837.149109 404.894623,838.755798 404.507935,840.396179
	C401.232025,838.370605 401.110718,836.073242 403.834290,833.963135
	C404.810089,833.207031 405.901428,831.804932 405.895355,830.703491
	C405.850067,822.517822 406.665466,814.367065 401.861847,806.661072
	C400.128754,803.880859 401.083313,798.848450 401.980713,795.125610
	C403.835907,787.429199 403.036835,786.045532 395.062775,785.986206
	C388.919006,785.940491 382.776154,785.769958 376.323608,785.379517
M405.259125,859.974365
	C406.479431,859.717896 407.699707,859.461426 408.920013,859.204895
	C408.284729,857.436035 407.649475,855.667175 407.014221,853.898315
	C406.362915,854.081360 405.711639,854.264343 405.060333,854.447388
	C405.060333,856.024719 405.060333,857.602051 405.259125,859.974365
z"/>
<path fill="#F4FAFC" opacity="1.000000" stroke="none"
	d="
M289.416016,848.090332
	C288.371857,861.035278 286.965759,874.080200 285.511566,887.571655
	C309.038086,887.571655 332.250122,887.571655 356.355225,887.571655
	C359.096344,853.695007 361.853058,819.625549 364.661255,784.919678
	C366.602814,784.919678 368.366058,784.919678 370.558472,785.013306
	C368.996490,790.916199 366.455872,796.609436 365.196136,802.573120
	C364.268188,806.966187 365.014038,811.712830 365.014038,816.301880
	C365.492554,816.355042 365.971039,816.408264 366.449554,816.461426
	C366.791321,813.834778 367.133087,811.208191 367.474854,808.581543
	C368.048462,808.655518 368.622040,808.729553 369.195648,808.803528
	C368.290070,816.635010 367.384491,824.466553 366.306183,833.791992
	C365.332642,831.185486 364.833771,829.849915 364.004181,827.628845
	C360.964294,836.712585 365.567627,844.402832 365.752563,852.873657
	C364.088654,852.388977 362.825653,852.021118 361.402863,851.606750
	C361.036163,854.793762 360.584015,857.872437 360.377991,860.967529
	C360.304169,862.076721 360.448639,863.850403 361.131012,864.260803
	C369.067749,869.034729 359.557770,876.401306 363.708008,881.721436
	C363.741791,881.764893 362.039581,883.272034 361.055695,883.964905
	C360.281647,884.510071 359.306549,884.772034 358.541046,885.325989
	C358.235565,885.546936 358.253143,886.214355 358.132446,886.646973
	C362.866211,890.164673 362.997253,891.136963 359.369751,896.851318
	C358.576538,896.393921 357.490448,896.125122 357.011536,895.434937
	C353.162994,889.888733 347.594452,889.836609 341.620880,889.923950
	C325.807953,890.155273 309.989349,889.986755 294.173126,890.025757
	C292.516968,890.029846 290.861633,890.356934 289.200073,891.575623
	C295.819824,893.445129 302.570129,892.878784 309.249725,892.978333
	C316.407104,893.084961 323.567291,893.002502 330.726257,893.002502
	C337.588348,893.002502 344.450470,893.002441 351.312561,893.002441
	C351.348633,893.479248 351.384705,893.956116 351.420776,894.432922
	C350.271667,894.620850 349.122864,894.970581 347.973480,894.972595
	C328.660980,895.006409 309.348022,895.059082 290.036133,894.944824
	C286.128326,894.921753 282.311340,894.671997 279.834320,890.353638
	C278.866150,888.665710 275.604309,888.293396 271.917450,886.677856
	C274.863831,884.784302 277.059174,883.373413 278.195435,882.643127
	C280.110138,873.767395 281.890839,865.512878 283.671539,857.258301
	C283.949493,857.396484 284.227478,857.534668 284.505463,857.672852
	C286.021667,854.512024 287.537872,851.351135 289.416016,848.090332
z"/>
<path fill="#F4FAFC" opacity="1.000000" stroke="none"
	d="
M320.495697,590.063904
	C319.055359,605.689758 317.332306,621.396484 315.471649,637.086914
	C311.277618,672.453491 307.045502,707.815491 302.772156,743.172546
	C299.019104,774.224670 295.188873,805.267456 291.201233,836.658936
	C290.676147,834.281372 289.912689,831.528931 290.101227,828.843445
	C290.458801,823.751160 291.398468,818.701599 292.011902,813.624084
	C292.157867,812.415710 292.223053,811.094971 291.895020,809.949097
	C290.080383,803.610168 288.934570,797.492126 294.550598,792.197205
	C295.489410,791.312012 295.556641,789.502380 296.297241,787.323975
	C294.396423,788.012756 293.207489,788.443542 291.458679,789.077271
	C291.458679,782.995056 291.458679,777.366943 291.458679,771.738831
	C291.792114,771.665222 292.125519,771.591675 292.458954,771.518066
	C292.656403,772.779236 292.616730,774.146301 293.119049,775.271362
	C293.606476,776.363098 294.650360,777.206360 296.104706,777.888489
	C296.534607,769.243713 299.841370,760.890747 296.978180,752.509399
	C296.455902,752.475464 295.933594,752.441467 295.411316,752.407532
	C295.154510,756.414368 294.897736,760.421204 294.556549,765.744995
	C289.043213,755.129578 295.402374,746.601624 296.028656,737.494507
	C296.894928,740.376831 297.761200,743.259155 298.627472,746.141541
	C299.479248,745.931152 300.331024,745.720764 301.182800,745.510376
	C300.747650,742.628906 300.811890,739.550659 299.770477,736.908203
	C297.772339,731.837952 299.614014,724.858704 302.861908,720.456421
	C304.766693,717.874695 304.482635,713.603821 304.963593,710.062927
	C305.716766,704.517334 306.417267,698.957275 306.865295,693.381287
	C307.047028,691.119446 306.674530,688.768494 306.253174,686.514343
	C305.735809,683.746216 304.849457,681.118530 307.809998,678.996155
	C308.508606,678.495422 308.920197,676.889343 308.714813,675.956787
	C307.912994,672.316223 306.810547,668.741882 305.747650,664.880432
	C309.392914,663.824463 310.006134,661.994324 309.327728,658.496033
	C308.784882,655.696899 310.442200,652.492798 311.023132,649.449402
	C312.210571,643.228760 313.330841,636.995300 314.536682,630.452820
	C310.072083,631.049011 310.072083,631.049011 307.684265,639.360657
	C307.684265,634.196167 307.684265,629.031677 307.684265,623.527954
	C308.944733,623.950012 310.374664,624.428772 311.997528,624.972229
	C315.244781,615.442139 318.310913,606.157593 317.214386,595.965637
	C317.018951,594.149231 319.113373,592.086426 320.495697,590.063904
z"/>
<path fill="#F4FAFC" opacity="1.000000" stroke="none"
	d="
M433.282593,428.719482
	C432.195984,424.269714 431.409393,419.529785 430.540558,414.294067
	C401.383453,414.294067 372.070343,414.294067 342.302612,414.294067
	C341.332245,421.901825 340.349884,429.603516 339.179993,437.652252
	C338.782288,435.125702 338.584747,432.251160 338.359161,429.378784
	C338.009583,424.927124 337.648102,420.476410 337.277679,416.026459
	C337.016174,412.884674 336.185608,409.746277 340.961212,408.868622
	C344.094360,408.292847 347.393585,407.169128 348.114960,403.065430
	C348.251984,402.286072 349.540955,401.220337 350.342529,401.180786
	C351.185394,401.139221 352.059692,402.208466 352.958954,402.724915
	C354.333435,403.514221 355.735992,404.892914 357.135406,404.903931
	C375.751495,405.050476 394.370270,405.114807 412.985535,404.921387
	C417.555908,404.873901 422.111908,403.791779 426.683228,403.260223
	C427.942139,403.113831 429.232513,403.237946 431.651306,403.237946
	C429.847900,406.054871 428.542450,408.093964 426.760315,410.877655
	C429.090546,410.734802 430.634552,410.640167 433.582611,410.459442
	C433.582611,416.466125 433.582611,422.447754 433.282593,428.719482
z"/>
<path fill="#F9FCFD" opacity="1.000000" stroke="none"
	d="
M841.000000,520.000000
	C841.000000,639.763184 841.000000,759.026428 841.000000,878.289612
	C840.565613,878.289795 840.131287,878.289978 839.696899,878.290222
	C839.696899,725.430908 839.696899,572.571655 839.696899,419.712341
	C840.131287,419.707642 840.565613,419.702942 841.000000,419.698242
	C841.000000,452.965485 841.000000,486.232758 841.000000,520.000000
z"/>
<path fill="#F9FCFD" opacity="1.000000" stroke="none"
	d="
M844.994446,413.095947
	C844.700745,415.110474 844.163147,416.693512 844.162659,418.276672
	C844.117493,573.083496 844.113220,727.890381 844.106262,882.697205
	C844.106201,884.181763 844.106201,885.666382 844.106201,888.085693
	C893.615967,888.085693 942.835754,888.085693 992.520508,888.034424
	C991.205383,888.656311 989.426697,889.912781 987.644897,889.917175
	C943.502014,890.026001 899.358887,890.002502 855.215759,890.002502
	C853.290466,890.002502 851.365112,890.002441 848.767944,890.002441
	C849.574036,892.025574 850.020569,893.146179 850.971436,895.532654
	C848.433594,894.675659 845.950134,894.611633 845.239746,893.456909
	C842.763000,889.430664 838.631104,885.525269 842.580505,880.007202
	C843.319580,878.974792 842.983887,877.104858 842.984070,875.621460
	C842.998535,724.535461 842.986938,573.449402 843.053528,422.363434
	C843.055298,418.239105 842.643555,415.244324 837.299377,416.638794
	C837.726746,412.932373 837.547546,409.408691 838.740295,406.435333
	C839.279358,405.091370 842.547241,404.842102 844.577148,404.096191
	C845.063904,405.506134 845.874756,406.899902 845.946167,408.330566
	C846.017334,409.755951 845.346741,411.218353 844.994446,413.095947
z"/>
<path fill="#F4FAFC" opacity="1.000000" stroke="none"
	d="
M337.511169,448.080719
	C336.247803,462.373840 334.682007,476.764099 332.973450,491.137390
	C329.161438,523.205933 325.278198,555.265930 321.224792,587.670593
	C321.117157,582.524231 320.849487,576.999268 321.417114,571.561462
	C321.849030,567.424072 324.446930,563.428040 321.174652,559.319397
	C320.690216,558.711182 320.989655,557.369202 321.126648,556.394836
	C321.655212,552.635376 322.207703,548.877136 322.877716,545.141113
	C323.091522,543.948792 324.043915,542.829285 324.052399,541.672058
	C324.070404,539.203735 323.691986,536.732544 323.394104,533.325867
	C323.162415,533.440613 324.246674,532.903687 325.084351,532.488831
	C324.190796,529.006165 323.324127,525.628357 322.325287,521.735229
	C324.653076,521.735229 326.009277,521.735229 327.618561,521.735229
	C327.670624,520.870178 327.866943,520.210999 327.720490,519.639709
	C326.179016,513.626709 323.665314,507.689423 323.256683,501.607849
	C322.837921,495.374847 324.464569,489.004425 325.316071,481.657959
	C326.255646,485.069641 326.988739,487.731659 327.721863,490.393677
	C328.039886,490.395142 328.357941,490.396637 328.675964,490.398102
	C328.675964,487.480743 329.743774,483.931824 328.465485,481.770477
	C325.281799,476.387268 328.048523,471.349609 328.285400,466.253845
	C328.484253,461.976410 329.992554,457.759857 330.998444,453.163025
	C332.333740,453.602386 333.798370,454.084320 335.254272,454.563354
	C335.907135,452.354584 336.525574,450.262360 337.511169,448.080719
z"/>
<path fill="#F4FAFC" opacity="1.000000" stroke="none"
	d="
M481.280945,828.721924
	C479.515594,817.644226 477.973999,806.288147 476.597656,794.912109
	C472.039642,757.238098 467.541168,719.556885 463.077118,681.447998
	C464.089874,685.123047 465.294678,689.191833 465.908081,693.347839
	C466.280884,695.873596 466.333557,698.044250 469.635864,698.000366
	C473.559906,697.948181 474.822296,700.641541 474.915344,703.824402
	C475.011292,707.105774 474.171204,710.421753 474.340668,713.691528
	C474.482574,716.429871 475.714844,719.096191 476.045929,721.844788
	C476.343872,724.317688 477.127716,727.971619 475.863434,729.169800
	C471.366638,733.431885 473.382904,738.903992 472.308868,743.695374
	C471.712402,746.356262 473.064148,749.453796 473.537842,752.354553
	C474.025635,752.376160 474.513397,752.397827 475.001190,752.419434
	C475.001190,748.849609 474.777954,745.259338 475.103088,741.719360
	C475.247955,740.142517 476.497009,738.667114 477.244934,737.145630
	C477.829468,738.663330 478.936249,740.196533 478.891510,741.695496
	C478.793701,744.975525 478.550781,748.377625 477.566559,751.475586
	C476.034302,756.298523 476.574554,760.701782 478.397156,765.254578
	C478.856537,766.401978 478.640625,768.287964 477.966156,769.342834
	C474.423218,774.884033 475.859924,780.115356 478.428772,785.419922
	C478.968964,786.535461 479.594574,787.898987 479.416290,789.027466
	C477.937073,798.390137 479.815155,807.467896 481.265381,816.628967
	C481.875641,820.484070 481.505066,824.494568 481.280945,828.721924
z"/>
<path fill="#356DE2" opacity="1.000000" stroke="none"
	d="
M985.490967,678.427551
	C983.634705,679.215027 981.749451,679.867188 979.861633,679.874634
	C960.554077,679.951233 941.246094,679.923035 921.558472,679.516602
	C922.882568,678.764709 924.585266,678.128235 926.290588,678.120911
	C943.944031,678.045349 961.598816,677.979248 979.251038,678.144104
	C982.922485,678.178406 984.164795,677.175476 984.119751,673.379639
	C983.932129,657.560120 984.073608,641.737000 984.007812,625.915527
	C984.000366,624.123718 983.729187,622.215027 983.044373,620.585876
	C982.594360,619.515259 981.186890,618.118591 980.198547,618.110962
	C962.380066,617.973206 944.554138,617.759216 926.743469,618.165039
	C919.437500,618.331543 919.063110,618.650330 919.062561,611.429504
	C919.059509,569.793274 919.093140,528.156982 918.989136,486.520996
	C918.981567,483.495636 917.982483,480.472748 917.418335,477.302002
	C918.116211,477.168579 919.404907,476.922241 920.693604,476.675873
	C920.693604,476.675873 920.858582,476.850555 920.890503,477.402222
	C920.922485,524.101318 920.922485,570.248718 920.922485,616.607178
	C924.092834,616.607178 926.550354,616.607178 929.007874,616.607178
	C944.695312,616.660522 960.382690,616.713867 976.959595,616.768433
	C980.369446,616.923218 982.889832,617.076660 985.410217,617.230042
	C985.433228,620.198975 985.456238,623.167908 985.476074,627.036011
	C985.544067,642.282898 985.615234,656.630737 985.686401,670.978516
	C985.611145,673.316711 985.535950,675.654846 985.490967,678.427551
z"/>
<path fill="#F4FAFC" opacity="1.000000" stroke="none"
	d="
M448.302063,554.734253
	C446.245026,541.336792 444.375000,527.690002 442.714233,514.017883
	C439.428833,486.970337 436.259186,459.908722 433.099792,432.421692
	C434.375031,434.847046 435.592163,437.703613 437.525116,442.240265
	C439.376862,438.799377 440.743896,436.259186 442.065704,433.803009
	C444.357605,435.600372 445.709747,444.083374 444.470551,447.903870
	C442.478851,454.044373 440.822601,460.295288 439.111847,466.523560
	C438.857025,467.451233 438.671875,468.798157 439.143311,469.462097
	C443.021667,474.924072 440.772827,480.965332 441.087585,486.768616
	C441.169342,488.275604 442.257111,489.728088 442.882812,491.205597
	C443.471466,491.030090 444.060150,490.854553 444.648834,490.679016
	C444.873718,487.671509 445.098633,484.663971 445.323547,481.656464
	C445.789185,481.685181 446.254822,481.713867 446.720459,481.742584
	C446.794586,492.555328 448.112823,503.415680 443.870270,514.373779
	C445.793488,514.373779 447.140167,514.373779 449.036530,514.373779
	C448.422638,516.949829 447.530670,519.138000 447.469543,521.349243
	C447.395813,524.015198 448.211273,526.694397 448.301025,529.379333
	C448.387726,531.972900 447.866699,534.584473 447.920288,537.181824
	C448.039215,542.947815 448.350708,548.709839 448.302063,554.734253
z"/>
<path fill="#F9FCFD" opacity="1.000000" stroke="none"
	d="
M988.515991,405.002197
	C989.746948,405.128143 990.538635,405.252594 991.330322,405.377045
	C991.321838,405.683441 991.313354,405.989868 991.304810,406.296265
	C944.441650,406.296265 897.578491,406.296265 850.715332,406.296265
	C850.709778,405.864410 850.704224,405.432587 850.698669,405.000732
	C896.491333,405.000732 942.283997,405.000732 988.515991,405.002197
z"/>
<path fill="#F9FCFD" opacity="1.000000" stroke="none"
	d="
M991.927490,412.877441
	C989.668274,413.384216 987.349060,413.535004 985.029907,413.534698
	C940.327576,413.528931 895.625305,413.505371 850.465210,413.375305
	C851.716614,412.510071 853.423462,411.102600 855.135437,411.096283
	C889.942261,410.967896 924.749695,411.000000 959.557007,411.000000
	C968.716858,411.000000 977.877686,410.930359 987.035522,411.065369
	C988.652649,411.089172 990.257141,411.967438 991.927490,412.877441
z"/>
<path fill="#F2F8FC" opacity="1.000000" stroke="none"
	d="
M761.006836,516.374146
	C761.950745,511.182373 762.892883,506.451111 763.695435,502.420807
	C763.695435,542.239380 763.695435,582.763428 763.695435,623.287415
	C762.798645,623.292358 761.901855,623.297302 761.005066,623.302246
	C761.005066,587.813049 761.005066,552.323792 761.006836,516.374146
z"/>
<path fill="#F4FAFC" opacity="1.000000" stroke="none"
	d="
M456.273132,620.724548
	C454.719604,611.825928 453.401672,602.646362 452.238098,593.447327
	C450.821655,582.248901 449.535095,571.034058 448.261108,559.406860
	C449.558136,560.915710 450.860107,562.801880 451.991974,564.785156
	C452.955597,566.473694 453.737640,568.267151 454.574921,570.026184
	C456.385101,573.829102 458.179230,577.639648 460.375122,582.282654
	C457.041992,582.282654 455.353485,582.282654 454.223267,582.282654
	C455.017090,595.149414 455.797089,607.792175 456.273132,620.724548
z"/>
<path fill="#F9FCFD" opacity="1.000000" stroke="none"
	d="
M928.902039,616.276367
	C926.550354,616.607178 924.092834,616.607178 920.922485,616.607178
	C920.922485,570.248718 920.922485,524.101318 920.973511,477.489197
	C923.392395,476.994629 925.760315,476.964813 928.564392,477.022156
	C927.083740,478.605438 925.166992,480.101593 923.250183,481.597748
	C922.834290,481.277863 922.418335,480.958008 922.002441,480.638123
	C922.002441,482.437744 922.002502,484.237335 922.002502,486.036957
	C922.002502,525.008667 921.968018,563.980469 922.095825,602.951721
	C922.102783,605.085693 923.690613,607.172302 924.102417,609.363586
	C924.335083,610.602234 923.669006,612.009766 923.302612,613.877258
	C925.045715,614.533508 926.920959,615.239502 928.902039,616.276367
z"/>
<path fill="#F4FAFC" opacity="1.000000" stroke="none"
	d="
M463.272186,678.736023
	C460.995789,663.583862 459.009583,648.159180 457.033386,632.733276
	C456.696716,630.105286 456.402985,627.471680 456.140381,624.415222
	C456.997681,625.226196 458.165894,626.367859 458.520844,627.722595
	C458.989410,629.510986 458.820221,631.466492 458.981476,634.359741
	C460.562195,632.895996 461.346771,632.169495 463.380646,630.286072
	C462.337402,638.204407 461.484711,644.676453 460.632019,651.148560
	C461.228546,651.501953 461.825043,651.855408 462.421570,652.208801
	C462.795135,651.181702 463.168671,650.154602 463.565765,649.062744
	C463.565765,659.168030 463.565765,668.815552 463.272186,678.736023
z"/>
<path fill="#F9FCFD" opacity="1.000000" stroke="none"
	d="
M986.107300,670.948730
	C985.615234,656.630737 985.544067,642.282898 985.578796,627.478271
	C986.788635,628.327515 988.824097,629.614624 988.851135,630.942810
	C989.097961,643.027222 989.066467,655.119934 988.885803,667.206726
	C988.867126,668.455627 987.350037,669.682129 986.107300,670.948730
z"/>
<path fill="#F9FCFD" opacity="1.000000" stroke="none"
	d="
M953.000000,687.000000
	C945.231445,687.000000 937.962891,687.000000 930.694336,687.000000
	C930.694824,686.562317 930.695374,686.124695 930.695923,685.687012
	C945.557373,685.687012 960.418823,685.687012 975.280273,685.687012
	C975.301575,686.124695 975.322815,686.562317 975.344116,687.000000
	C968.062744,687.000000 960.781372,687.000000 953.000000,687.000000
z"/>
<path fill="#F2F8FC" opacity="1.000000" stroke="none"
	d="
M683.373352,720.827881
	C681.964661,718.466248 680.943848,716.205933 679.304932,712.577148
	C684.658630,713.417114 689.524231,714.180542 694.389771,714.943909
	C694.509705,715.439453 694.629639,715.934998 694.749512,716.430542
	C691.086731,717.930115 687.423950,719.429688 683.373352,720.827881
z"/>
<path fill="#F9FCFD" opacity="1.000000" stroke="none"
	d="
M993.463867,475.630890
	C993.185913,456.292969 993.159912,436.632965 993.203857,416.512878
	C993.509705,416.658722 993.953186,417.265167 993.951538,417.870453
	C993.899658,437.016663 993.804443,456.162750 993.463867,475.630890
z"/>
<path fill="#F9FCFD" opacity="1.000000" stroke="none"
	d="
M993.506226,884.617554
	C993.190857,865.284607 993.113281,845.620117 992.961304,825.494507
	C993.256714,825.896179 993.949768,826.759338 993.948792,827.621704
	C993.927002,846.509888 993.828125,865.397949 993.506226,884.617554
z"/>
<path fill="#F4FAFC" opacity="1.000000" stroke="none"
	d="
M310.535645,596.100220
	C310.818207,594.946289 311.246277,594.161560 311.674316,593.376831
	C312.388916,593.929932 313.660065,594.422363 313.728149,595.046021
	C314.182739,599.210510 314.380676,603.403015 314.733673,608.653076
	C308.536316,605.315369 312.368500,600.022827 310.535645,596.100220
z"/>
<path fill="#F4FAFC" opacity="1.000000" stroke="none"
	d="
M495.000214,849.000000
	C494.307526,843.902344 493.614807,838.804688 492.871185,833.332153
	C497.647552,835.415833 498.872192,844.081604 495.355103,848.939392
	C495.000000,849.000000 495.000214,849.000000 495.000214,849.000000
z"/>
<path fill="#F4FAFC" opacity="1.000000" stroke="none"
	d="
M460.002441,615.908447
	C460.392456,613.085144 458.730927,609.577515 463.992615,609.194580
	C463.292725,614.322876 462.646149,619.060242 461.999573,623.797607
	C461.333862,623.734802 460.668152,623.671997 460.002441,623.609192
	C460.002441,621.187195 460.002441,618.765198 460.002441,615.908447
z"/>
<path fill="#F4FAFC" opacity="1.000000" stroke="none"
	d="
M448.805481,461.069946
	C447.734406,463.894867 446.591278,466.344788 445.217621,469.288757
	C442.062439,466.123932 442.498505,463.111023 444.110992,460.434906
	C444.483093,459.817352 447.132172,460.571808 448.805481,461.069946
z"/>
<path fill="#F2F8FC" opacity="1.000000" stroke="none"
	d="
M745.600342,684.580017
	C746.670532,682.860352 747.554626,681.463135 748.812073,679.475952
	C750.632385,686.561218 748.711731,689.271606 742.531433,688.196777
	C743.712952,686.846558 744.563599,685.874512 745.600342,684.580017
z"/>
<path fill="#F4FAFC" opacity="1.000000" stroke="none"
	d="
M289.002441,745.735229
	C289.002441,741.411560 289.002441,737.550293 289.002441,733.689087
	C289.478760,733.688965 289.955078,733.688904 290.431396,733.688782
	C290.431396,739.217285 290.431396,744.745789 290.431396,750.274292
	C290.110565,750.335327 289.789734,750.396301 289.468933,750.457275
	C289.313416,749.037354 289.157928,747.617493 289.002441,745.735229
z"/>
<path fill="#F2F8FC" opacity="1.000000" stroke="none"
	d="
M669.401001,714.982056
	C665.541260,714.993042 662.103333,714.993042 658.665405,714.993042
	C658.669922,714.369751 658.674500,713.746460 658.679016,713.123169
	C662.594299,713.123169 666.509583,713.123169 670.424866,713.123169
	C670.224182,713.739136 670.023560,714.355042 669.401001,714.982056
z"/>
<path fill="#F2F8FC" opacity="1.000000" stroke="none"
	d="
M730.492859,700.340881
	C732.178284,698.539551 733.726624,697.064209 735.274963,695.588867
	C735.779602,695.887573 736.284241,696.186340 736.788879,696.485046
	C736.460083,697.804260 736.474121,699.966675 735.731628,700.268616
	C734.147583,700.912659 732.171326,700.592163 730.492859,700.340881
z"/>
<path fill="#F4FAFC" opacity="1.000000" stroke="none"
	d="
M273.530884,862.652954
	C278.303284,863.810974 276.676636,867.291199 276.718872,870.215698
	C276.223358,870.372375 275.727844,870.529053 275.232300,870.685669
	C274.579773,868.100403 273.927216,865.515076 273.530884,862.652954
z"/>
<path fill="#F9FCFD" opacity="1.000000" stroke="none"
	d="
M985.815674,617.169739
	C982.889832,617.076660 980.369446,616.923218 977.420715,616.687439
	C980.685852,615.887085 984.379333,615.169067 988.072815,614.451111
	C988.218994,615.020203 988.365112,615.589355 988.511292,616.158508
	C987.747864,616.475464 986.984436,616.792419 985.815674,617.169739
z"/>
<path fill="#F4FAFC" opacity="1.000000" stroke="none"
	d="
M310.533478,612.856689
	C309.852081,614.162231 309.302551,615.126526 308.753021,616.090820
	C308.301422,615.976807 307.849854,615.862793 307.398254,615.748840
	C307.295471,613.706360 307.192657,611.663940 307.089874,609.621460
	C307.503754,609.443542 307.917633,609.265564 308.331512,609.087585
	C309.109436,610.230164 309.887390,611.372803 310.533478,612.856689
z"/>
<path fill="#F4FAFC" opacity="1.000000" stroke="none"
	d="
M305.002441,647.931519
	C305.102692,645.865723 305.202911,644.231384 305.303131,642.597107
	C305.706451,642.624817 306.109741,642.652588 306.513062,642.680298
	C306.513062,645.878845 306.513062,649.077332 306.513062,652.275879
	C306.178741,652.341736 305.844421,652.407593 305.510101,652.473389
	C305.340881,651.103271 305.171661,649.733154 305.002441,647.931519
z"/>
<path fill="#F2F8FC" opacity="1.000000" stroke="none"
	d="
M761.193848,466.887573
	C764.494568,464.385956 764.842651,464.603333 764.708191,470.277100
	C763.549561,469.269684 762.390991,468.262238 761.193848,466.887573
z"/>
<path fill="#F4FAFC" opacity="1.000000" stroke="none"
	d="
M323.005554,464.483459
	C324.015198,466.344177 324.654602,468.270477 325.294037,470.196747
	C324.479370,470.327667 323.664703,470.458588 322.850067,470.589478
	C322.778473,468.576019 322.706909,466.562531 323.005554,464.483459
z"/>
<path fill="#F2F8FC" opacity="1.000000" stroke="none"
	d="
M747.912354,437.701233
	C746.815857,436.517426 746.079956,435.213379 745.344055,433.909363
	C746.060120,433.656525 746.776184,433.403625 747.492249,433.150757
	C747.752502,434.627502 748.012756,436.104248 747.912354,437.701233
z"/>
<path fill="#F2F8FC" opacity="1.000000" stroke="none"
	d="
M765.007202,628.131775
	C765.150818,627.025452 765.293030,626.290039 765.435242,625.554626
	C765.893738,625.567383 766.352295,625.580200 766.810791,625.592957
	C766.810791,627.536133 766.810791,629.479370 766.810791,631.422546
	C766.393982,631.457275 765.977234,631.491943 765.560425,631.526672
	C765.375549,630.518677 765.190674,629.510681 765.007202,628.131775
z"/>
<path fill="#F4FAFC" opacity="1.000000" stroke="none"
	d="
M293.367371,726.117798
	C293.163605,724.401367 293.163605,722.980652 293.163605,721.172791
	C296.865448,723.915344 296.854980,724.331238 293.367371,726.117798
z"/>
<path fill="#F4FAFC" opacity="1.000000" stroke="none"
	d="
M367.002991,876.999207
	C367.181488,875.599365 367.359985,874.594055 367.538513,873.588806
	C367.848663,873.603699 368.158783,873.618591 368.468933,873.633545
	C368.468933,875.838196 368.468933,878.042908 368.468933,880.247620
	C368.195557,880.317261 367.922180,880.386902 367.648804,880.456604
	C367.433533,879.435669 367.218262,878.414734 367.002991,876.999207
z"/>
<path fill="#F4FAFC" opacity="1.000000" stroke="none"
	d="
M460.386230,593.844360
	C464.682770,594.765503 463.174652,596.616577 460.177338,598.555969
	C460.177338,597.082520 460.177338,595.609009 460.386230,593.844360
z"/>
<path fill="#F4FAFC" opacity="1.000000" stroke="none"
	d="
M448.588013,439.107849
	C447.837006,437.577393 447.317413,435.753906 446.797821,433.930450
	C447.471649,433.808868 448.145508,433.687317 448.819366,433.565735
	C448.819366,435.315430 448.819366,437.065155 448.588013,439.107849
z"/>
<path fill="#F4FAFC" opacity="1.000000" stroke="none"
	d="
M477.100922,707.576355
	C477.844055,708.745850 478.522461,710.284363 479.200867,711.822876
	C478.559784,712.025879 477.918671,712.228882 477.277557,712.431824
	C477.197113,710.936340 477.116669,709.440857 477.100922,707.576355
z"/>
<path fill="#F4FAFC" opacity="1.000000" stroke="none"
	d="
M480.996643,780.290405
	C480.855927,781.573425 480.715759,782.496582 480.575623,783.419678
	C480.131226,783.369507 479.686829,783.319336 479.242432,783.269104
	C479.422699,781.484131 479.602997,779.699158 479.783264,777.914124
	C480.134277,777.939880 480.485291,777.965698 480.836273,777.991455
	C480.889923,778.637817 480.943573,779.284180 480.996643,780.290405
z"/>
<path fill="#F4FAFC" opacity="1.000000" stroke="none"
	d="
M494.999908,849.000000
	C494.999817,850.805237 494.999817,852.610413 494.999817,854.415649
	C494.316711,854.327393 493.633606,854.239136 492.950500,854.150818
	C493.388519,852.483887 493.826538,850.817017 494.632385,849.075073
	C495.000214,849.000000 495.000000,849.000000 494.999908,849.000000
z"/>
<path fill="#F4FAFC" opacity="1.000000" stroke="none"
	d="
M338.515076,440.074921
	C338.724701,441.783386 338.578888,443.576111 338.240173,445.694397
	C338.084747,444.066345 338.122223,442.112762 338.515076,440.074921
z"/>
<path fill="#F4FAFC" opacity="1.000000" stroke="none"
	d="
M494.999023,880.590515
	C494.194672,879.379272 493.389343,877.758545 492.584015,876.137817
	C493.249725,875.927673 493.915436,875.717529 494.581177,875.507385
	C494.720123,877.065247 494.859100,878.623169 494.999023,880.590515
z"/>
<path fill="#F9FCFD" opacity="1.000000" stroke="none"
	d="
M833.188171,885.786011
	C833.530029,884.771179 833.971497,884.098145 834.412842,883.425049
	C834.879395,884.176086 835.345886,884.927185 835.812378,885.678284
	C834.970825,885.828125 834.129272,885.977905 833.188171,885.786011
z"/>
<path fill="#F2F8FC" opacity="1.000000" stroke="none"
	d="
M735.483887,421.376526
	C735.820190,422.287170 735.842773,423.041504 735.865295,423.795837
	C735.020325,423.555481 734.175354,423.315125 733.330383,423.074768
	C733.943604,422.456573 734.556824,421.838379 735.483887,421.376526
z"/>
<path fill="#F2F8FC" opacity="1.000000" stroke="none"
	d="
M690.145630,401.040680
	C691.172302,401.215851 691.844543,401.406250 692.516846,401.596619
	C692.469971,401.986115 692.423157,402.375610 692.376282,402.765106
	C691.112000,402.568176 689.847656,402.371246 688.583374,402.174286
	C688.986023,401.801483 689.388672,401.428680 690.145630,401.040680
z"/>
<path fill="#F4FAFC" opacity="1.000000" stroke="none"
	d="
M290.438477,840.070557
	C290.645874,841.450684 290.513702,842.912659 290.206726,844.694275
	C290.054230,843.393372 290.076569,841.772949 290.438477,840.070557
z"/>
<path fill="#F9FCFD" opacity="1.000000" stroke="none"
	d="
M992.586182,673.845337
	C992.739136,675.230652 992.668884,676.346680 992.598572,677.462646
	C992.062927,677.355469 991.527222,677.248291 990.991577,677.141113
	C991.448669,675.952698 991.905823,674.764282 992.586182,673.845337
z"/>
<path fill="#F2F8FC" opacity="1.000000" stroke="none"
	d="
M767.039429,484.854614
	C767.214844,483.827454 767.405518,483.154816 767.596130,482.482208
	C767.985840,482.529114 768.375549,482.576019 768.765259,482.622925
	C768.568176,483.887817 768.371094,485.152740 768.173950,486.417633
	C767.800842,486.014801 767.427734,485.611969 767.039429,484.854614
z"/>
<path fill="#F2F8FC" opacity="1.000000" stroke="none"
	d="
M767.438232,472.813995
	C768.163879,473.720306 768.660278,474.890594 769.156677,476.060913
	C768.622192,476.206757 768.087646,476.352600 767.553101,476.498444
	C767.438416,475.358276 767.323730,474.218140 767.438232,472.813995
z"/>
<path fill="#F4FAFC" opacity="1.000000" stroke="none"
	d="
M495.001770,881.364746
	C495.703186,881.949158 496.406342,882.898254 497.109528,883.847412
	C496.643372,884.082092 496.177246,884.316772 495.711090,884.551453
	C495.475220,883.610779 495.239380,882.670166 495.001770,881.364746
z"/>
<path fill="#F2F8FC" opacity="1.000000" stroke="none"
	d="
M753.519775,687.401978
	C752.968140,687.962158 752.282593,688.226990 751.597168,688.491821
	C751.532166,687.921570 751.467163,687.351379 751.402100,686.781128
	C752.063354,686.889587 752.724670,686.998047 753.519775,687.401978
z"/>
<path fill="#F9FCFD" opacity="1.000000" stroke="none"
	d="
M978.319824,688.852051
	C978.293640,688.212341 978.486084,687.509949 978.946350,687.150574
	C979.130432,687.006836 979.904785,687.619263 980.410461,687.887451
	C979.822266,688.233948 979.234070,688.580505 978.319824,688.852051
z"/>
<path fill="#F2F8FC" opacity="1.000000" stroke="none"
	d="
M725.494324,703.380127
	C726.288513,702.983459 726.947876,702.881714 727.607239,702.779968
	C727.537964,703.349792 727.468750,703.919617 727.399475,704.489441
	C726.719482,704.217957 726.039490,703.946472 725.494324,703.380127
z"/>
<path fill="#F9FCFD" opacity="1.000000" stroke="none"
	d="
M988.350342,613.068726
	C988.730164,612.291382 989.292419,611.749207 989.854675,611.207031
	C990.082703,611.560547 990.310669,611.914185 990.538635,612.267822
	C989.870056,612.613159 989.201416,612.958496 988.350342,613.068726
z"/>
<path fill="#F4FAFC" opacity="1.000000" stroke="none"
	d="
M448.793762,445.202026
	C448.430328,445.803833 448.004303,446.106445 447.578278,446.409058
	C447.463562,445.961914 447.348846,445.514801 447.234100,445.067688
	C447.733124,445.012726 448.232147,444.957764 448.793762,445.202026
z"/>
<path fill="#F4FAFC" opacity="1.000000" stroke="none"
	d="
M401.203857,819.191650
	C401.764618,818.946655 402.264160,819.000366 402.763733,819.054016
	C402.650085,819.502686 402.536438,819.951416 402.422760,820.400085
	C401.996063,820.096863 401.569366,819.793640 401.203857,819.191650
z"/>
<path fill="#F2F8FC" opacity="1.000000" stroke="none"
	d="
M765.204956,495.191895
	C765.764771,494.947174 766.263489,495.000763 766.762268,495.054321
	C766.648865,495.502441 766.535461,495.950592 766.422058,496.398743
	C765.995972,496.095886 765.569946,495.793030 765.204956,495.191895
z"/>
<path fill="#F4FAFC" opacity="1.000000" stroke="none"
	d="
M463.203979,575.192017
	C463.764404,574.947021 464.263702,575.000671 464.763000,575.054260
	C464.649475,575.502747 464.535950,575.951294 464.422424,576.399780
	C463.995880,576.096741 463.569366,575.793640 463.203979,575.192017
z"/>
<path fill="#F4FAFC" opacity="1.000000" stroke="none"
	d="
M495.492920,890.666016
	C496.036316,891.010498 496.362213,891.570190 496.688110,892.129883
	C496.409424,892.257385 496.130768,892.384827 495.852081,892.512268
	C495.659882,891.968567 495.467651,891.424805 495.492920,890.666016
z"/>
<path fill="#F9FCFD" opacity="1.000000" stroke="none"
	d="
M991.532959,624.392578
	C991.649353,623.941467 991.933594,623.664978 992.235718,623.409729
	C992.243530,623.403198 992.449219,623.631042 992.562622,623.749512
	C992.276123,624.023010 991.989624,624.296509 991.532959,624.392578
z"/>
<path fill="#F4FAFC" opacity="1.000000" stroke="none"
	d="
M495.608978,862.534485
	C496.058380,862.650391 496.333893,862.933350 496.588104,863.234314
	C496.594574,863.242004 496.367645,863.446960 496.249542,863.559937
	C495.977142,863.274597 495.704712,862.989258 495.608978,862.534485
z"/>
<path fill="#F9FCFD" opacity="1.000000" stroke="none"
	d="
M992.466614,619.608032
	C992.350342,620.058594 992.066589,620.334839 991.764832,620.589722
	C991.757080,620.596252 991.551636,620.368652 991.438416,620.250244
	C991.724548,619.977173 992.010681,619.704102 992.466614,619.608032
z"/>
<path fill="#F9FCFD" opacity="1.000000" stroke="none"
	d="
M977.607910,609.533447
	C978.058533,609.649719 978.334778,609.933472 978.589661,610.235229
	C978.596191,610.242981 978.368591,610.448425 978.250183,610.561707
	C977.977051,610.275574 977.703918,609.989441 977.607910,609.533447
z"/>
<path fill="#F9FCFD" opacity="1.000000" stroke="none"
	d="
M927.607544,609.533081
	C928.058533,609.649414 928.334961,609.933411 928.590088,610.235474
	C928.596558,610.243103 928.368835,610.448730 928.250366,610.562134
	C927.976990,610.275818 927.703613,609.989441 927.607544,609.533081
z"/>
<path fill="#F4FAFC" opacity="1.000000" stroke="none"
	d="
M463.394287,579.954590
	C463.790527,579.712830 464.184723,579.714478 464.576691,579.744629
	C464.587708,579.745483 464.575256,580.051086 464.573730,580.214478
	C464.179779,580.210327 463.785858,580.206177 463.394287,579.954590
z"/>
<path fill="#F2F8FC" opacity="1.000000" stroke="none"
	d="
M571.464233,401.610443
	C571.348572,402.058472 571.066345,402.333038 570.766235,402.586456
	C570.758606,402.592896 570.554321,402.366577 570.441711,402.248810
	C570.726257,401.977295 571.010864,401.705750 571.464233,401.610443
z"/>
<path fill="#F4FAFC" opacity="1.000000" stroke="none"
	d="
M396.359741,687.481689
	C397.367371,699.026428 398.299713,710.118774 399.267029,721.626770
	C389.410980,721.626770 380.025177,721.626770 370.039307,721.626770
	C374.510010,661.973633 378.972534,602.429565 383.435059,542.885437
	C383.919189,542.870728 384.403320,542.856018 384.887451,542.841309
	C388.686462,590.903931 392.485443,638.966553 396.359741,687.481689
z"/>
<path fill="#0355FA" opacity="1.000000" stroke="none"
	d="
M644.798462,801.000488
	C644.798706,830.126160 644.798706,858.751892 644.798706,887.690063
	C619.298035,887.690063 594.380310,887.690063 569.073975,887.690063
	C569.073975,729.870789 569.073975,572.189697 569.073975,413.827850
	C570.977966,413.827850 572.750854,413.827728 574.523804,413.827911
	C606.350830,413.831482 638.178406,413.729858 670.004761,413.874237
	C692.636047,413.976898 713.669006,419.225006 730.805725,435.028259
	C747.864380,450.759491 754.663086,471.198975 755.917847,493.661194
	C756.669678,507.120300 756.377014,520.644287 756.353943,534.138733
	C756.299316,566.128845 756.801208,598.140259 755.781067,630.101746
	C754.996765,654.672913 746.173645,676.291687 726.061768,691.955200
	C711.156799,703.563416 693.738342,708.101074 675.246826,708.908752
	C665.306030,709.342957 655.330627,708.985962 644.798157,708.985962
	C644.798157,739.913574 644.798157,770.206970 644.798462,801.000488
M644.072388,571.500000
	C644.065491,596.815491 644.128235,622.131409 643.988831,647.446167
	C643.963135,652.115723 645.542603,654.272705 650.372131,653.985596
	C654.189392,653.758667 658.030640,653.943604 661.861267,653.932312
	C670.776733,653.905945 678.553589,647.847473 679.799561,639.264221
	C680.891235,631.744507 681.788086,624.123657 681.848633,616.540161
	C682.081116,587.395813 682.044922,558.248108 681.897034,529.102661
	C681.829651,515.818054 681.501770,502.524719 680.860291,489.256256
	C680.310303,477.879852 673.343506,467.669342 659.080017,469.008087
	C654.949890,469.395721 650.752563,469.067566 646.586060,469.067566
	C645.149597,470.409851 644.123840,473.236694 644.114380,476.066895
	C644.009766,507.544281 644.062378,539.022217 644.072388,571.500000
z"/>
<path fill="#FFFFFF" opacity="1.000000" stroke="none"
	d="
M758.866882,638.693604
	C758.094299,637.356079 757.689941,635.921692 757.285522,634.487244
	C758.049744,634.409241 758.814026,634.331238 759.578247,634.253174
	C759.463867,635.701050 759.349487,637.148926 758.866882,638.693604
z"/>
<path fill="#0255FB" opacity="1.000000" stroke="none"
	d="
M920.857300,476.360382
	C919.404907,476.922241 918.116211,477.168579 917.418335,477.302002
	C917.982483,480.472748 918.981567,483.495636 918.989136,486.520996
	C919.093140,528.156982 919.059509,569.793274 919.062561,611.429504
	C919.063110,618.650330 919.437500,618.331543 926.743469,618.165039
	C944.554138,617.759216 962.380066,617.973206 980.198547,618.110962
	C981.186890,618.118591 982.594360,619.515259 983.044373,620.585876
	C983.729187,622.215027 984.000366,624.123718 984.007812,625.915527
	C984.073608,641.737000 983.932129,657.560120 984.119751,673.379639
	C984.164795,677.175476 982.922485,678.178406 979.251038,678.144104
	C961.598816,677.979248 943.944031,678.045349 926.290588,678.120911
	C924.585266,678.128235 922.882568,678.764709 921.090454,679.494751
	C921.002258,679.880371 920.993713,679.984253 920.580627,680.048218
	C919.792480,681.733398 919.417358,683.354675 919.026245,685.446411
	C919.006042,730.528503 918.991638,775.140198 919.035767,819.751770
	C919.037476,821.495911 919.600159,823.239441 920.177246,825.004395
	C920.636780,825.009460 920.820496,824.993469 921.004211,824.977417
	C921.004211,824.977417 921.006470,824.995850 921.050537,825.340942
	C921.876221,826.394775 922.657776,827.103516 923.439331,827.812256
	C923.978516,826.955505 924.517639,826.098694 925.056763,825.241821
	C925.796204,825.201233 926.535645,825.160583 927.642090,825.177917
	C929.774902,825.493835 931.539917,825.970581 933.306458,825.975952
	C951.303406,826.030334 969.301575,826.103210 987.297058,825.929138
	C991.014038,825.893250 992.162170,826.959839 992.121033,830.719666
	C991.936951,847.548340 991.902100,864.382080 992.140381,881.209412
	C992.199585,885.392578 990.654480,886.140564 986.924500,886.131897
	C942.098511,886.028137 897.272034,886.005920 852.446350,886.161438
	C848.331482,886.175659 846.663391,884.432190 846.118286,880.912476
	C845.840271,879.117432 845.937317,877.257629 845.937195,875.427124
	C845.930603,724.784363 845.930969,574.141541 845.931641,423.498779
	C845.931702,415.916656 845.935242,415.914795 853.708618,415.914642
	C897.868286,415.913849 942.028137,415.969910 986.187317,415.827118
	C990.580383,415.812927 992.255493,416.714600 992.160767,421.542999
	C991.843811,437.700897 991.935852,453.869995 992.116882,470.032074
	C992.160034,473.883240 991.155457,475.213440 987.093750,475.170319
	C967.765686,474.965027 948.432373,474.952850 929.106079,475.230255
	C926.492004,475.267792 923.266052,471.957672 920.857300,476.360382
z"/>
<path fill="#356DE2" opacity="1.000000" stroke="none"
	d="
M920.950256,824.513184
	C920.820496,824.993469 920.636780,825.009460 920.180664,824.538208
	C919.910767,779.609192 919.924011,735.167419 919.878601,690.725708
	C919.876648,688.808838 919.333374,686.892456 919.042236,684.975891
	C919.417358,683.354675 919.792480,681.733398 920.528564,680.050903
	C920.891846,728.009399 920.894104,776.029175 920.950256,824.513184
z"/>
<path fill="#356DE2" opacity="1.000000" stroke="none"
	d="
M924.664185,825.136597
	C924.517639,826.098694 923.978516,826.955505 923.439331,827.812256
	C922.657776,827.103516 921.876221,826.394775 921.059753,825.338623
	C922.107117,825.004578 923.189331,825.017944 924.664185,825.136597
z"/>
<path fill="#FFFFFF" opacity="1.000000" stroke="none"
	d="
M405.159729,859.576904
	C405.060333,857.602051 405.060333,856.024719 405.060333,854.447388
	C405.711639,854.264343 406.362915,854.081360 407.014221,853.898315
	C407.649475,855.667175 408.284729,857.436035 408.920013,859.204895
	C407.699707,859.461426 406.479431,859.717896 405.159729,859.576904
z"/>
<path fill="#356DE2" opacity="1.000000" stroke="none"
	d="
M644.072449,571.000000
	C644.062378,539.022217 644.009766,507.544281 644.114380,476.066895
	C644.123840,473.236694 645.149597,470.409851 646.586060,469.067566
	C650.752563,469.067566 654.949890,469.395721 659.080017,469.008087
	C673.343506,467.669342 680.310303,477.879852 680.860291,489.256256
	C681.501770,502.524719 681.829651,515.818054 681.897034,529.102661
	C682.044922,558.248108 682.081116,587.395813 681.848633,616.540161
	C681.788086,624.123657 680.891235,631.744507 679.799561,639.264221
	C678.553589,647.847473 670.776733,653.905945 661.861267,653.932312
	C658.030640,653.943604 654.189392,653.758667 650.372131,653.985596
	C645.542603,654.272705 643.963135,652.115723 643.988831,647.446167
	C644.128235,622.131409 644.065491,596.815491 644.072449,571.000000
M645.793091,476.598083
	C645.793091,534.845032 645.793091,593.092041 645.793091,651.762878
	C652.519104,651.762878 658.880798,652.378906 665.032898,651.510376
	C668.244995,651.056885 671.713318,648.545471 673.974548,645.995789
	C679.521606,639.740845 679.830750,631.575806 679.866211,623.799683
	C680.055542,582.334412 680.068359,540.867126 679.818970,499.402405
	C679.783569,493.515961 678.490845,487.493805 676.854736,481.800385
	C675.210205,476.077759 671.099609,471.786652 664.870605,471.224487
	C658.671204,470.665039 652.381897,471.101959 645.992737,471.101959
	C645.906433,472.998505 645.846680,474.310333 645.793091,476.598083
z"/>
<path fill="#0455F9" opacity="1.000000" stroke="none"
	d="
M919.026306,685.446411
	C919.333374,686.892456 919.876648,688.808838 919.878601,690.725708
	C919.924011,735.167419 919.910767,779.609192 919.904907,824.517090
	C919.600159,823.239441 919.037476,821.495911 919.035767,819.751770
	C918.991638,775.140198 919.006042,730.528503 919.026306,685.446411
z"/>
<path fill="#FBFEFE" opacity="1.000000" stroke="none"
	d="
M645.790039,476.110107
	C645.846680,474.310333 645.906433,472.998505 645.992737,471.101959
	C652.381897,471.101959 658.671204,470.665039 664.870605,471.224487
	C671.099609,471.786652 675.210205,476.077759 676.854736,481.800385
	C678.490845,487.493805 679.783569,493.515961 679.818970,499.402405
	C680.068359,540.867126 680.055542,582.334412 679.866211,623.799683
	C679.830750,631.575806 679.521606,639.740845 673.974548,645.995789
	C671.713318,648.545471 668.244995,651.056885 665.032898,651.510376
	C658.880798,652.378906 652.519104,651.762878 645.793091,651.762878
	C645.793091,593.092041 645.793091,534.845032 645.790039,476.110107
z"/>
</svg>