<svg width="730" height="731" viewBox="0 0 730 731" fill="none" xmlns="http://www.w3.org/2000/svg">
<mask id="mask0_8704_1987" style="mask-type:alpha" maskUnits="userSpaceOnUse" x="0" y="0" width="730" height="731">
<path d="M729.84 365.65C729.84 164.22 566.55 0.919922 365.11 0.919922C163.68 0.919922 0.379883 164.22 0.379883 365.65C0.379883 567.09 163.68 730.39 365.11 730.39C566.55 730.39 729.84 567.09 729.84 365.65Z" fill="#0054FA"/>
</mask>
<g mask="url(#mask0_8704_1987)">
<g filter="url(#filter0_i_8704_1987)">
<path d="M575.59 809.59C571.91 809.59 568.81 809.59 566.09 809.59C565.5 809.59 564.91 809.59 564.35 809.59C561.7 809.59 559.01 809.55 556.4 809.48C541.92 809.07 527.36 807.49 513.03 804.72C498.08 807.34 482.9 808.78 467.83 809C466.24 809 464.66 809.03 462.97 809.03C461.27 809.03 461.64 809.03 461.01 809.03H460.57C456.44 809.03 452.32 809.03 448.15 809H447.57C443.22 809 438.32 808.96 433.79 808.96C429.25 808.96 430.51 808.96 428.89 808.96L262.51 809.59V808C251.82 807.34 241.21 806.05 230.68 804.13C214.69 807.04 198.37 808.52 182.16 808.52H125.09C35.7101 808.52 -46.48 767.66 -100.46 696.41L-100.94 695.79C-156.86 621.51 -172.7 524.33 -143.34 435.76L-123.34 375.67C-115.16 351.1 -104.69 327.12 -92.0901 304.31C-93.3101 293.63 -93.9399 282.83 -93.9399 272.11C-93.9399 254.17 -92.2001 236.16 -88.8201 218.55C-88.5901 211.33 -88.12 204.11 -87.3 197C-82.7701 155.48 -68.52 115.06 -46 79.8799C-34.62 50.4399 -19.0401 23.22 0.379883 -1.02002C58.2199 -73.64 148.23 -117 241.21 -117C334.2 -117 280.16 -115.12 299.2 -111.44C314.64 -108.45 326.98 -104.88 351.41 -97.3999H351.44C354.65 -96.4099 356.57 -95.82 357.74 -95.48C389.47 -86.72 419.68 -73.2701 447.57 -55.55C468.75 -42.1001 488.28 -26.3001 505.74 -8.61011C531.64 3.72989 556.03 19.0501 578.39 37.0701C603.22 42.5601 627.54 50.85 650.71 61.75C683.98 77.37 714.45 98.1101 741.27 123.31C767.98 148.4 790.42 177.36 808.03 209.37C817.86 227.24 826.12 245.99 832.64 265.26C843.54 280.15 852.9 295.66 861.19 312.49C870.58 331.5 876.04 347.97 878.5 355.37L879.57 358.32L881.01 362.93C881.27 363.66 881.78 365.25 882.93 368.56L883.04 368.86C891.62 393.84 898.03 413.29 902.38 436.57L902.45 436.9C913.43 495.96 908.05 556.93 886.9 613.22C886.76 613.59 886.57 614.15 886.39 614.7L885.73 616.5C884.84 618.97 884.07 621.07 883.44 622.73C864.65 673.72 831.83 718.07 788.46 751.08C743.96 784.98 691.05 804.95 635.42 808.81L631.74 809.07L620.94 809.51H602.93C601.45 809.51 599.87 809.51 598.17 809.51C595.01 809.51 591.62 809.51 588.19 809.51H587.67C583.55 809.51 579.42 809.51 575.55 809.51L575.59 809.59Z" fill="#0054FA"/>
</g>
<path d="M241.21 -114.44C264.46 -114.44 278.49 -114.32 286.75 -114.09C289.01 -114.03 290.81 -113.96 292.25 -113.88C292.25 -113.86 292.25 -113.85 292.24 -113.84C291.92 -112.28 292.85 -111.2 293.5 -110.7C294.12 -110.23 294.89 -109.91 295.65 -109.67C296.26 -109.48 296.98 -109.29 297.83 -109.11L298.72 -108.93C314.01 -105.97 326.23 -102.43 350.66 -94.96L351.03 -94.8401H351.06C353.26 -94.1601 354.84 -93.6701 355.99 -93.3301L357.05 -93.02H357.06C387.55 -84.59 416.64 -71.81 443.59 -55.03L446.19 -53.3899C467.21 -40.0499 486.59 -24.3601 503.92 -6.82007L504.23 -6.5L504.64 -6.30005C530.36 5.94995 554.58 21.1701 576.79 39.0601L577.25 39.4399L577.84 39.5701C601.71 44.8401 625.11 52.7301 647.46 63.0601L649.62 64.0701C682.13 79.3301 711.95 99.52 738.27 124.01L739.52 125.18C765.62 149.69 787.61 177.93 804.96 209.12L805.79 210.61C815.55 228.34 823.74 246.96 830.21 266.08L830.34 266.46L830.57 266.77C841.05 281.07 850.09 295.95 858.12 312.06L858.89 313.62H858.9C868.21 332.47 873.62 348.8 876.08 356.18L876.1 356.25L877.15 359.13L878.57 363.69L878.58 363.73L878.6 363.77C878.86 364.53 879.34 366 880.51 369.4L880.52 369.43L880.53 369.46L880.63 369.73C889.21 394.69 895.56 413.97 899.86 437.04L899.87 437.08L899.88 437.13L899.94 437.4C910.83 495.99 905.49 556.48 884.51 612.33C884.34 612.76 884.14 613.35 883.98 613.84L883.32 615.62V615.63V615.64C882.44 618.1 881.67 620.18 881.05 621.83H881.04V621.84C862.71 671.58 830.9 714.96 788.92 747.51L786.91 749.05C743.49 782.12 692.01 801.81 637.83 806.07L635.24 806.26L631.59 806.52L620.91 806.96H571.42L571.45 807.03H564.35C562.38 807.03 560.39 807.01 558.42 806.97L556.47 806.92C542.13 806.52 527.71 804.95 513.52 802.21L513.06 802.12L512.59 802.2C498.69 804.63 484.6 806.04 470.59 806.38L467.83 806.44C467.02 806.44 466.21 806.45 465.41 806.46C464.6 806.47 463.8 806.48 462.96 806.48H460.57C456.44 806.48 452.33 806.48 448.18 806.44H447.57C445.4 806.44 443.09 806.43 440.75 806.42C438.42 806.41 436.06 806.4 433.79 806.4H428.88L265.07 807.02V805.6L262.67 805.45C252.08 804.79 241.57 803.52 231.13 801.62L230.68 801.54L230.22 801.62C214.38 804.5 198.21 805.96 182.16 805.96H125.09C37.2003 805.96 -43.6597 766.11 -97.1597 696.52L-98.4197 694.87L-98.4298 694.86L-98.8997 694.23C-154.31 620.64 -170.01 524.33 -140.91 436.57L-120.91 376.48C-112.78 352.06 -102.38 328.22 -89.8599 305.55L-89.4598 304.83L-89.5499 304.02C-90.7599 293.43 -91.3797 282.74 -91.3797 272.11C-91.3797 254.34 -89.6599 236.48 -86.2999 219.03L-86.2598 218.83V218.63C-86.0498 211.91 -85.6197 205.21 -84.9097 198.6L-84.7598 197.29V197.27C-80.2698 156.15 -66.1499 116.11 -43.8499 81.26L-43.7098 81.04L-43.6199 80.8C-32.6799 52.52 -17.8298 26.3001 0.580246 2.84009L2.38005 0.570068C59.7401 -71.4299 149 -114.44 241.21 -114.44Z" stroke="url(#paint0_linear_8704_1987)" stroke-width="5.11569" stroke-miterlimit="10"/>
<g filter="url(#filter1_i_8704_1987)">
<path d="M575.59 776.43C571.94 776.43 568.84 776.43 566.08 776.43C565.49 776.43 564.9 776.43 564.35 776.43C562.03 776.43 559.67 776.43 557.35 776.32C542.58 775.92 527.8 774.08 513.32 770.94C498.14 773.97 482.71 775.62 467.35 775.84C465.91 775.84 464.47 775.84 462.96 775.84C461.45 775.84 461.75 775.84 461.16 775.84H460.6C456.51 775.84 452.39 775.84 448.26 775.81H447.93C443.47 775.81 438.42 775.77 433.78 775.77C429.14 775.77 430.43 775.77 428.73 775.77L295.63 776.25V775.29H282.73C281.63 775.29 280.52 775.29 279.41 775.29C263.02 775.29 246.63 773.6 230.6 770.28C214.65 773.6 198.36 775.25 182.08 775.25H125.01C46.1303 775.25 -26.4798 739.19 -74.1198 676.3L-74.5197 675.75C-123.86 610.24 -137.82 524.4 -111.88 446.15L-91.8796 386.1C-83.2196 360.02 -71.7197 334.71 -57.7197 310.91C-59.7497 298.09 -60.7797 285.05 -60.7797 272.04C-60.7797 255.28 -59.0897 238.52 -55.7397 222.12C-55.5897 214.9 -55.1498 207.65 -54.3698 200.54C-50.2498 162.88 -37.0897 126.45 -16.2797 94.9099C-6.03972 67.3899 8.30037 42.0801 26.3104 19.6101C77.8904 -45.1599 158.21 -83.8401 241.21 -83.8401C324.21 -83.8401 275.91 -82.1799 292.9 -78.8999C306.86 -76.2099 317.95 -72.97 341.71 -65.71H341.79C345.4 -64.57 347.42 -63.9799 348.53 -63.6499C377.23 -55.7299 404.57 -43.6101 429.77 -27.5801C450.51 -14.3901 469.45 1.19009 486.13 18.8401C514.1 31.5801 540.11 48.0501 563.61 67.8301C588.74 72.7301 613.24 80.73 636.6 91.71C666.7 105.85 694.29 124.61 718.57 147.45C742.74 170.14 763.07 196.37 778.99 225.33C788.72 243.01 796.71 261.62 802.86 280.74C813.95 295.29 823.31 310.54 831.45 327.12C839.89 344.18 844.75 358.88 847.15 366.17L848.14 368.9L849.47 373.17C849.65 373.73 850.17 375.27 851.57 379.33L851.68 379.62C860.04 404.01 865.83 421.54 869.81 442.69V442.99C879.75 496.11 874.89 551 855.84 601.7C855.7 602.1 855.47 602.73 855.22 603.39L854.55 605.16C853.67 607.59 852.93 609.65 852.31 611.24C835.69 656.3 806.66 695.53 768.34 724.71C729 754.66 682.24 772.31 633.1 775.73L629.89 775.95L620.24 776.36H603.07C601.56 776.36 599.9 776.36 598.17 776.36C594.97 776.36 591.54 776.36 588.08 776.36H587.52C583.43 776.36 579.34 776.36 575.48 776.36L575.59 776.43Z" fill="#0054FA"/>
</g>
<path d="M241.21 -81.28C261.96 -81.28 274.47 -81.18 281.84 -80.97C283.67 -80.92 285.17 -80.86 286.38 -80.8C286.23 -79.43 287.07 -78.48 287.65 -78.03C288.24 -77.58 288.97 -77.2801 289.65 -77.0601C290.2 -76.8901 290.85 -76.72 291.62 -76.55L292.41 -76.3899H292.42C306.23 -73.7299 317.19 -70.53 340.97 -63.27L341.33 -63.1599H341.4C344.79 -62.0799 346.74 -61.52 347.79 -61.2L347.85 -61.1899C375.42 -53.5799 401.71 -42.0599 426.04 -26.8999L428.39 -25.4299V-25.4199C448.96 -12.3499 467.73 3.10009 484.28 20.5901L484.62 20.96L485.07 21.1599C512.82 33.8099 538.64 50.16 561.97 69.79L562.47 70.22L563.12 70.3501C587.26 75.0501 610.82 82.64 633.33 93.01L635.51 94.02C664.9 107.84 691.88 126.07 715.69 148.25L716.82 149.31C740.42 171.47 760.33 197.03 776.01 225.22L776.75 226.56C786.4 244.1 794.33 262.56 800.43 281.52L800.56 281.94L800.83 282.29C811.47 296.25 820.5 310.87 828.4 326.71L829.16 328.25V328.26C837.51 345.14 842.33 359.7 844.72 366.97L844.73 367.01L844.75 367.05L845.72 369.71L847.03 373.93L847.04 373.98C847.23 374.54 847.75 376.1 849.15 380.16L849.16 380.19L849.17 380.22L849.27 380.49C857.6 404.77 863.31 422.1 867.25 442.94V443.22L867.29 443.46C877.15 496.12 872.33 550.54 853.45 600.8L853.44 600.82C853.28 601.26 853.08 601.84 852.83 602.46V602.48L852.82 602.49L852.16 604.26L852.15 604.27V604.29C851.25 606.75 850.54 608.76 849.93 610.3L849.92 610.33L849.91 610.35C833.72 654.26 805.62 692.57 768.56 721.31L766.79 722.67C728.45 751.86 683.01 769.24 635.2 773.01L632.92 773.18L629.75 773.4L620.18 773.8H567.03L567.14 773.88H564.35C562.02 773.88 559.72 773.88 557.47 773.77H557.45H557.42L556.05 773.72C541.9 773.25 527.75 771.45 513.86 768.44L513.35 768.33L512.82 768.44C497.79 771.43 482.51 773.07 467.31 773.29H460.6C456.51 773.29 452.4 773.29 448.28 773.25H447.93C445.71 773.25 443.34 773.24 440.93 773.23C438.54 773.22 436.11 773.21 433.78 773.21H428.73L298.18 773.68V772.73H279.42C263.2 772.73 246.97 771.06 231.12 767.78L230.6 767.67L230.08 767.78C214.3 771.06 198.19 772.7 182.08 772.7H125.01C46.9398 772.7 -24.9103 737.01 -72.0603 674.78L-72.4602 674.23L-72.4702 674.22L-72.4802 674.21L-73.6203 672.69C-121.52 608.05 -134.93 523.81 -109.45 446.96H-109.46L-89.4502 386.91C-80.8502 361 -69.4302 335.85 -55.5202 312.21L-55.0603 311.42L-55.2002 310.51C-57.2002 297.82 -58.2202 284.91 -58.2202 272.04C-58.2202 255.45 -56.5502 238.86 -53.2302 222.64L-53.1802 222.41V222.18C-53.0302 215.02 -52.5903 207.84 -51.8303 200.81C-47.7503 163.57 -34.7301 127.52 -14.1401 96.3201L-13.9802 96.0801L-13.8801 95.8101C-4.0501 69.3901 9.57967 45.0401 26.6497 23.3101L28.3098 21.21V21.2C79.3998 -42.9501 158.98 -81.28 241.21 -81.28Z" stroke="url(#paint1_linear_8704_1987)" stroke-width="5.11569" stroke-miterlimit="10"/>
<g filter="url(#filter2_i_8704_1987)">
<path d="M575.59 743.28C571.94 743.28 568.85 743.28 566.2 743.28H566.01C565.46 743.28 564.91 743.28 564.39 743.28C562.4 743.28 560.38 743.28 558.39 743.2C543.32 742.76 528.32 740.7 513.7 736.98C498.3 740.55 482.57 742.46 466.87 742.69C465.62 742.69 464.37 742.69 463.04 742.69C461.71 742.69 461.9 742.69 461.34 742.69H460.75C456.67 742.69 452.54 742.69 448.41 742.65H448.12C443.62 742.65 438.54 742.61 433.82 742.61C429.11 742.61 430.4 742.61 428.67 742.61L328.82 742.17H282.55C281.52 742.17 280.49 742.17 279.49 742.17C263.02 742.17 246.67 740.22 230.68 736.35C214.8 740.22 198.51 742.17 182.16 742.17H125.09C56.6698 742.17 -6.29015 710.89 -47.6301 656.33L-47.9602 655.89C-90.8002 599.01 -102.93 524.51 -80.3801 456.62L-60.3704 396.6C-52.3804 372.58 -41.7704 349.26 -28.8404 327.34C-26.8803 324.03 -24.8603 320.71 -22.7603 317.39C-25.9603 302.55 -27.5803 287.37 -27.5803 272.08C-27.5803 256.53 -25.8903 240.99 -22.5703 225.84C-22.5703 218.59 -22.1304 211.33 -21.3604 204.18C-17.6704 170.4 -5.63023 137.98 13.5298 110.09C22.6298 84.4901 35.6397 61.0501 52.2197 40.3501C97.5697 -16.6399 168.19 -50.6799 241.21 -50.6799C314.23 -50.6799 338.33 -32.08 339.36 -31.78C365 -24.75 389.43 -13.9201 411.98 0.409912C432.28 13.3099 450.59 28.7501 466.43 46.3601C467.05 46.6101 467.64 46.8699 468.2 47.1299C497.71 60.0599 524.79 77.4499 548.77 98.8899C574.15 103.02 598.91 110.68 622.49 121.73C649.42 134.41 674.11 151.17 695.84 171.61C717.47 191.95 735.67 215.38 749.93 241.32C759.54 258.82 767.28 277.27 772.95 296.28C784.26 310.5 793.69 325.43 801.69 341.75C809.24 357.03 813.63 370.45 815.76 376.89V376.97L816.72 379.51L817.94 383.38C818.05 383.74 818.53 385.14 820.22 390.08L820.33 390.38C828.25 413.4 833.67 429.87 837.24 448.77V448.99C846.08 496.22 841.74 545 824.79 590.05C824.64 590.5 824.35 591.23 824.09 591.97L823.46 593.74C822.58 596.13 821.88 598.12 821.29 599.67C806.88 638.79 781.65 672.91 748.34 698.26C714.15 724.27 673.55 739.63 630.89 742.61L628.13 742.8L619.65 743.16H603.33C601.75 743.16 600.09 743.16 598.29 743.16C595.08 743.16 591.62 743.16 588.12 743.16H587.6C583.55 743.16 579.5 743.16 575.63 743.16L575.59 743.28Z" fill="#0054FA"/>
</g>
<path d="M241.21 -48.1299C277.51 -48.1299 301.53 -43.4999 316.53 -38.8999C324.03 -36.5999 329.29 -34.3001 332.71 -32.5801C334.42 -31.7201 335.67 -31 336.53 -30.48C336.97 -30.22 337.29 -30.0301 337.56 -29.8601C337.69 -29.7801 337.82 -29.6999 337.94 -29.6299C337.97 -29.6199 338.15 -29.5099 338.4 -29.4199L338.66 -29.3301L338.67 -29.3201H338.68C363.29 -22.5701 386.76 -12.29 408.5 1.25L410.6 2.57007C430.71 15.3501 448.84 30.6301 464.53 48.0701L464.92 48.5L465.46 48.72C466.05 48.96 466.6 49.21 467.12 49.45L467.14 49.46L467.17 49.47C496.43 62.29 523.28 79.54 547.07 100.8L547.62 101.3L548.36 101.41C573.51 105.5 598.04 113.09 621.4 124.05C647.26 136.21 671.02 152.18 692.06 171.59L694.09 173.48C715.52 193.63 733.56 216.85 747.68 242.55C757.21 259.89 764.88 278.18 770.5 297.02L770.64 297.49L770.95 297.88C781.8 311.51 790.89 325.79 798.65 341.36L799.39 342.87L799.4 342.88C806.72 357.7 811.03 370.73 813.21 377.31V377.43L813.37 377.87L814.3 380.34L815.5 384.14C815.64 384.61 816.16 386.14 817.8 390.91L817.81 390.95L817.83 390.98L817.91 391.21C825.8 414.14 831.15 430.41 834.68 449.01V449.23L834.73 449.46C843.48 496.23 839.18 544.53 822.4 589.15L822.38 589.2L822.36 589.24C822.31 589.41 822.22 589.65 822.09 590C821.96 590.33 821.82 590.72 821.68 591.12L821.06 592.85C820.16 595.31 819.49 597.22 818.9 598.76L818.89 598.77V598.79C804.87 636.85 780.49 670.11 748.33 695.04L746.79 696.22C713.53 721.53 674.13 736.64 632.69 739.91L630.71 740.06L627.97 740.24L619.59 740.61H573.78L573.75 740.72H564.39C562.39 740.72 560.41 740.72 558.48 740.65H558.46C543.58 740.21 528.77 738.17 514.33 734.5L513.72 734.34L513.12 734.48C497.91 738.01 482.37 739.91 466.87 740.13H460.75C456.66 740.13 452.55 740.13 448.44 740.09H448.12C445.88 740.09 443.49 740.08 441.06 740.07C438.64 740.06 436.19 740.05 433.82 740.05H428.68L328.84 739.61H279.49C263.23 739.61 247.07 737.68 231.28 733.86L230.68 733.72L230.07 733.86C214.39 737.68 198.31 739.61 182.16 739.61H125.09C57.9998 739.61 -3.76012 709.19 -44.6301 656.05L-45.5903 654.79L-45.9102 654.35L-46.9001 653.03C-88.4401 596.99 -100.06 524 -77.9502 457.42L-57.9502 397.41C-50.2602 374.31 -40.1303 351.85 -27.8303 330.69L-26.6301 328.64C-24.6901 325.35 -22.6803 322.06 -20.6003 318.76L-20.0403 317.88L-20.2603 316.85C-23.4203 302.19 -25.0303 287.19 -25.0303 272.08C-25.0303 256.72 -23.3503 241.35 -20.0703 226.39L-20.0203 226.12V225.84C-20.0203 218.69 -19.5803 211.53 -18.8103 204.46C-15.1803 171.1 -3.28035 139.08 15.6396 111.54L15.8298 111.26L15.9397 110.95C24.6697 86.4 37.0197 63.8799 52.6897 43.8799L54.2097 41.95L54.2197 41.9399C99.0797 -14.4401 168.97 -48.1299 241.21 -48.1299Z" stroke="url(#paint2_linear_8704_1987)" stroke-width="5.11569" stroke-miterlimit="10"/>
<g filter="url(#filter3_i_8704_1987)">
<path d="M575.59 710.12C571.95 710.12 568.89 710.12 566.27 710.12H565.87C565.35 710.12 564.84 710.12 564.36 710.12C562.66 710.12 560.97 710.12 559.31 710.04C543.95 709.6 528.77 707.13 514.03 702.64C498.41 706.99 482.38 709.31 466.28 709.53C465.22 709.53 464.15 709.53 462.97 709.53C461.79 709.53 461.83 709.53 461.27 709.53H460.8C456.71 709.53 452.58 709.53 448.45 709.49H448.2C443.66 709.49 438.54 709.45 433.75 709.45C428.96 709.45 430.22 709.45 428.49 709.45L361.91 708.13C361.54 708.13 361.17 708.2 360.84 708.24L358.71 708.42L356.57 708.57C352.41 708.87 347.73 709.01 342.68 709.01C337.63 709.01 341.24 709.01 340.58 709.01H282.26C281.34 709.01 280.38 709.01 279.46 709.01C262.88 709.01 246.52 706.66 230.64 702.01C214.88 706.66 198.59 708.98 182.12 708.98H125.06C67.1002 708.98 13.7901 682.49 -21.2099 636.29L-21.4999 635.92C-57.7899 587.73 -68.0299 524.62 -48.9499 467.04L-28.9799 407.06C-21.7199 385.22 -12.11 364.07 -0.350002 344.18C3.81 337.14 8.23001 330.25 12.91 323.51C8.01001 306.82 5.5001 289.58 5.5001 272.08C5.5001 257.71 7.20015 243.42 10.5501 229.53C10.4401 222.27 10.7701 214.98 11.5501 207.79C14.8201 177.91 25.7701 149.55 43.3001 125.34C51.2201 101.58 62.9002 79.9901 78.0802 61.05C117.21 11.87 178.14 -17.49 241.18 -17.49C304.22 -17.49 317.55 -5.77988 330.19 0.120117C342.83 6.01012 416.59 38.58 446.5 73.99C449.74 75.31 452.47 76.45 454.83 77.49C483.12 89.86 508.91 106.88 531.49 128.03L531.79 128.29C532.49 128.95 533.15 129.58 533.85 130.24C585.47 136.47 634.54 159.49 673.11 195.78C692.2 213.72 708.3 234.43 720.86 257.31C730.4 274.66 737.81 293 742.89 311.98C754.54 325.79 764.04 340.35 771.92 356.41C778.45 369.6 782.35 381.53 784.27 387.28L784.45 387.83L785.3 390.15L786.37 393.54C786.59 394.28 787.44 396.75 788.87 400.91L788.98 401.21C796.39 422.8 801.51 438.2 804.64 454.92V455.14C812.38 496.44 808.58 539.1 793.7 578.52C793.48 579.11 793.11 580.18 792.74 581.17L792.3 582.43C791.45 584.75 790.75 586.66 790.2 588.17C777.97 621.41 756.56 650.36 728.27 671.91C699.27 694.02 664.79 707.02 628.57 709.57L626.29 709.71L618.96 710.01H603.48C601.86 710.01 600.13 710.01 598.29 710.01C595.05 710.01 591.55 710.01 588.05 710.01H587.49C583.48 710.01 579.43 710.01 575.63 710.01L575.59 710.12Z" fill="#0054FA"/>
</g>
<path d="M241.18 -14.9299C272.55 -14.9299 291.39 -12.0199 303.88 -8.43994C316.42 -4.83994 322.47 -0.660058 329.11 2.43994C335.46 5.39994 356.96 14.97 380.62 28.22C404.35 41.51 429.91 58.3099 444.55 75.6399L444.95 76.1201L445.53 76.3501C447.96 77.3401 450.08 78.23 451.98 79.04L453.8 79.8301C481.83 92.0901 507.37 108.95 529.75 129.9L529.81 129.96L530.07 130.18C530.4 130.5 530.73 130.81 531.06 131.12C531.4 131.45 531.74 131.77 532.09 132.1L532.71 132.68L533.55 132.78C583.81 138.84 631.66 161.02 669.57 195.97L671.36 197.65C689.66 214.85 705.19 234.62 717.44 256.42L718.62 258.54C728.06 275.71 735.39 293.87 740.42 312.64L740.57 313.19L740.94 313.63C752.45 327.28 761.84 341.66 769.63 357.53L771.92 356.41L769.63 357.54C775.26 368.93 778.92 379.38 781.03 385.66L781.84 388.09L782.02 388.64L782.05 388.71L782.87 390.97L783.93 394.31C784.18 395.15 785.05 397.68 786.45 401.75L786.46 401.78L786.48 401.81L786.58 402.07C793.95 423.56 798.99 438.74 802.08 455.16V455.38L802.13 455.61C809.66 495.81 806.14 537.32 791.99 575.79L791.31 577.62H791.3C791.13 578.1 790.63 579.5 790.34 580.29L790.33 580.32L789.9 581.55L787.8 587.3C775.92 619.55 755.28 647.73 728.02 668.88L726.72 669.88C698.12 691.68 664.11 704.51 628.4 707.01L626.18 707.16L618.9 707.45H573.79L573.75 707.56H564.36C562.65 707.56 561.02 707.56 559.42 707.49H559.4H559.38C544.25 707.05 529.29 704.62 514.78 700.19L514.06 699.98L513.35 700.18C497.93 704.46 482.13 706.75 466.25 706.97H460.79C456.7 706.97 452.59 706.97 448.48 706.93H448.2C445.94 706.93 443.53 706.92 441.08 706.92C438.64 706.91 436.15 706.9 433.75 706.9H428.49L361.96 705.57H361.94H361.91C361.39 705.57 360.65 705.68 360.57 705.69L358.53 705.87L356.39 706.02C352.3 706.31 347.68 706.45 342.68 706.45H279.46C263.13 706.45 247.01 704.13 231.36 699.56L230.64 699.35L229.92 699.56C214.39 704.13 198.35 706.42 182.12 706.42H125.06C67.9004 706.42 15.3504 680.3 -19.1696 634.74L-19.1896 634.72L-19.2096 634.69L-19.4696 634.36C-55.2396 586.85 -65.3397 524.63 -46.5197 467.85L-26.5497 407.87C-19.3497 386.2 -9.80957 365.22 1.85043 345.48C5.98043 338.49 10.3703 331.66 15.0103 324.97L15.7103 323.96L15.3604 322.79C10.5304 306.33 8.06039 289.33 8.06039 272.08C8.06039 257.91 9.73037 243.82 13.0404 230.13L13.1104 229.81V229.49C13.0004 222.34 13.3304 215.15 14.0904 208.07C17.3204 178.63 28.1002 150.69 45.3802 126.84L45.6104 126.52L45.7303 126.15C53.3103 103.4 64.3803 82.6799 78.6803 64.4099L80.0804 62.6499C118.72 14.0799 178.92 -14.9299 241.18 -14.9299Z" stroke="url(#paint3_linear_8704_1987)" stroke-width="5.11569" stroke-miterlimit="10"/>
<g filter="url(#filter4_i_8704_1987)">
<path d="M575.59 676.96C572.01 676.96 568.99 676.96 566.41 676.96H565.75C565.27 676.96 564.83 676.96 564.39 676.96C563.02 676.96 561.62 676.96 560.26 676.88C544.68 676.44 529.13 673.35 514.54 667.78C498.85 673.2 482.23 676.15 465.8 676.37C464.99 676.37 464.1 676.37 463 676.37C461.89 676.37 461.97 676.37 461.45 676.37H460.94C456.85 676.37 452.72 676.37 448.59 676.33H448.37C443.8 676.33 438.65 676.3 433.82 676.3C428.99 676.3 430.21 676.3 428.44 676.3L395.17 674.97C389.61 674.2 384.12 673.05 378.67 671.62C371.82 673.35 364.85 674.53 357.82 675.19L356.12 675.34L354.43 675.45C351 675.67 347.06 675.82 342.78 675.82C338.51 675.82 341.46 675.82 340.87 675.82H282.07C281.22 675.82 280.37 675.82 279.53 675.82C262.87 675.82 246.26 672.83 230.71 667.08C215.24 672.83 198.73 675.82 182.19 675.82H125.12C77.6298 675.82 33.9798 654.12 5.27976 616.24L5.05979 615.95C-24.6802 576.46 -33.0802 524.69 -17.4202 477.46L2.54978 417.52C9.06978 397.89 17.7297 378.88 28.2697 361.01C34.8197 349.92 42.1198 339.24 50.0798 329.11C42.5598 310.87 38.7697 291.68 38.7697 272.08C38.7697 258.85 40.4997 245.81 43.9197 233.17C43.5897 225.91 43.8098 218.62 44.5898 211.4C47.4198 185.43 57.2997 161.18 73.2497 140.78C79.9197 118.78 90.2698 98.92 104.05 81.76C136.91 40.38 188.38 19.8299 241.21 15.6599C294.04 11.4999 320.35 31.8001 321.12 32.0201C362.61 43.2201 399.7 67.68 425.68 100.95C425.83 101.13 425.97 101.32 426.12 101.54C433.53 104.49 438.02 106.37 441.48 107.88C466.31 118.74 488.97 133.66 508.79 152.27L509.01 152.49C511.89 155.18 514.73 158.02 517.49 160.71C517.49 160.71 518.56 161.74 519 162.18C567.63 165.46 614.09 185.87 650.38 219.95C666.96 235.53 680.88 253.47 691.79 273.29C701.22 290.46 708.22 308.66 712.6 327.52C714.04 329.25 715.37 330.8 716.03 331.57C726.6 343.84 735.15 356.77 742.15 371.07C747.64 382.12 750.92 392.18 752.72 397.63C752.72 397.63 753.02 398.48 753.06 398.66L753.83 400.8L754.71 403.56C755.08 404.7 756.78 409.68 757.51 411.85L757.59 412C764.55 432.22 769.3 446.55 772.03 461.03V461.22C778.62 496.55 775.38 533.09 762.63 566.88C762.41 567.5 761.9 568.9 761.46 570.12L761.09 571.11C760.24 573.4 759.58 575.28 759.02 576.75C748.97 604.05 731.36 627.89 708.11 645.61C684.27 663.77 655.94 674.45 626.21 676.55L624.37 676.66L618.18 676.92H603.55C601.89 676.92 600.09 676.92 598.21 676.92C594.93 676.92 591.43 676.92 587.86 676.92H587.3C583.32 676.92 579.31 676.92 575.51 676.92L575.59 676.96Z" fill="#0054FA"/>
</g>
<path d="M241.41 18.2099C267.46 16.1599 286.89 20.14 299.85 24.62C306.34 26.85 311.22 29.2199 314.51 31.0299C316.15 31.9299 317.4 32.6999 318.26 33.2399C318.7 33.5199 319.03 33.7398 319.29 33.9098C319.41 33.9798 319.54 34.0698 319.65 34.1298C319.7 34.1598 319.78 34.2099 319.86 34.2499C319.89 34.2699 320.02 34.3398 320.21 34.4098L320.42 34.4799L320.45 34.4899C361.41 45.5499 398.04 69.6999 423.66 102.52L423.67 102.54L423.68 102.55C423.83 102.74 423.91 102.84 423.99 102.96L424.43 103.62L425.17 103.92C432.56 106.86 437.03 108.72 440.46 110.22C465.02 120.97 487.42 135.72 507.03 154.12L507.24 154.33L507.27 154.36C508.69 155.69 510.1 157.06 511.5 158.43L515.7 162.54L515.71 162.55C515.72 162.55 515.72 162.55 515.72 162.56C515.73 162.57 515.74 162.58 515.76 162.59C515.79 162.62 515.83 162.66 515.88 162.71C515.99 162.81 516.14 162.96 516.3 163.11C516.62 163.43 516.98 163.78 517.19 163.99L517.87 164.67L518.83 164.73C566.11 167.92 611.32 187.5 646.94 220.24L648.63 221.81C664.5 236.73 677.91 253.83 688.53 272.69L689.55 274.53C698.87 291.49 705.78 309.47 710.11 328.1L710.25 328.69L710.63 329.16C711.36 330.03 712.06 330.86 712.66 331.56L714.09 333.24C724.52 345.35 732.95 358.1 739.85 372.19L739.86 372.2V372.21C745.26 383.08 748.49 392.98 750.29 398.43L750.3 398.45L750.31 398.47C750.31 398.47 750.31 398.47 750.31 398.48C750.31 398.48 750.31 398.49 750.32 398.5C750.33 398.52 750.34 398.56 750.35 398.59C750.38 398.67 750.41 398.78 750.45 398.89C750.49 399 750.52 399.1 750.55 399.18C750.55 399.21 750.56 399.23 750.56 399.24L750.58 399.35L750.65 399.53L751.4 401.62L752.28 404.34V404.35C752.65 405.51 754.36 410.52 755.09 412.67L755.15 412.84L755.22 412.99C762.13 433.05 766.78 447.13 769.47 461.28V461.45L769.51 461.69C776.02 496.56 772.82 532.63 760.24 565.97L760.23 566L760.22 566.03L759.05 569.25L758.69 570.22C757.8 572.61 757.2 574.34 756.63 575.85L756.62 575.87C746.89 602.29 729.96 625.41 707.62 642.75L706.56 643.57C683.12 661.43 655.27 671.93 626.05 674L624.21 674.11L618.14 674.36H564.68L564.76 674.4H564.39C563.01 674.4 561.68 674.4 560.4 674.33H560.37H560.33L558.9 674.28C544.08 673.7 529.33 670.68 515.45 665.39L514.58 665.06L513.71 665.37C498.27 670.69 481.94 673.59 465.8 673.81H460.94C456.84 673.81 452.73 673.81 448.62 673.77H448.37C446.09 673.77 443.67 673.77 441.2 673.76C438.74 673.75 436.24 673.74 433.82 673.74H428.49L395.4 672.42C390 671.66 384.65 670.55 379.32 669.14L378.68 668.97L378.04 669.14C371.74 670.73 365.34 671.85 358.87 672.52L357.59 672.64L355.92 672.79L354.26 672.9C350.89 673.11 347 673.26 342.78 673.26H279.53C263.18 673.26 246.86 670.33 231.6 664.69L230.71 664.36L229.82 664.69C214.63 670.33 198.43 673.26 182.19 673.26H125.12C78.8001 673.26 36.2 652.27 7.97997 615.57L7.31005 614.7L7.10009 614.42V614.41L6.41991 613.5C-22.2501 574.8 -30.27 524.35 -14.99 478.27L4.97997 418.33C11.44 398.87 20.02 380.02 30.47 362.31C36.97 351.32 44.2001 340.73 52.0901 330.69L53.01 329.51L52.4399 328.13C45.0499 310.2 41.3201 291.34 41.3201 272.08C41.3201 259.07 43.0299 246.26 46.3899 233.84L46.5 233.46L46.48 233.06C46.15 225.93 46.3699 218.76 47.1299 211.67C49.9099 186.17 59.61 162.38 75.26 142.35L75.5601 141.97L75.6999 141.52C82.0699 120.5 91.85 101.48 104.78 84.9499L106.04 83.36L106.05 83.35C138.35 42.69 189.06 22.3399 241.41 18.2099Z" stroke="url(#paint4_linear_8704_1987)" stroke-width="5.11569" stroke-miterlimit="10"/>
<g filter="url(#filter5_i_8704_1987)">
<path d="M575.59 643.8C572.06 643.8 569.11 643.8 566.53 643.8H565.57C565.17 643.8 564.76 643.8 564.39 643.8C563.32 643.8 562.29 643.8 561.26 643.77C545.31 643.33 529.39 639.2 515.25 631.83C499.66 639.02 482.53 642.99 465.33 643.22C464.66 643.22 463.93 643.22 463.04 643.22C462.16 643.22 462.01 643.22 461.53 643.22H461.09C456.96 643.22 452.84 643.22 448.71 643.18H448.56C443.96 643.18 438.76 643.14 433.86 643.14C428.96 643.14 430.18 643.14 428.34 643.14C425.98 643.14 414.63 643.18 414.52 643.18C402.4 643.18 390.32 641.08 378.93 636.99C371.12 639.68 363.02 641.41 354.73 642.18L353.47 642.29L352.18 642.37C349.46 642.55 346.29 642.66 342.79 642.66C339.29 642.66 341.61 642.66 341.06 642.66H281.74C281.01 642.66 280.27 642.66 279.53 642.66C262.36 642.66 245.67 638.57 230.68 630.95C215.8 638.57 199.18 642.66 182.2 642.66H125.13C88.0998 642.66 54.0599 625.75 31.6999 596.24L31.5099 596.02C8.33993 565.22 1.77993 524.81 14.0099 487.93L33.9799 428.03C45.6199 392.95 64.63 360.83 89.61 333.79C86.22 328.37 83.28 322.66 80.81 316.73C74.88 302.44 71.8898 287.44 71.8898 272.08C71.8898 260 73.7298 248.21 77.4198 236.86C76.7198 229.6 76.75 222.31 77.57 215.05C79.96 193.2 88.99 172.79 103.35 156.47C103.39 156.33 103.98 153.86 103.98 153.86L104.61 151.76C110.02 133.26 118.57 116.68 129.99 102.46C156.63 68.9 198.22 48.8601 241.25 48.8601C284.28 48.8601 310.66 63.52 312.17 63.96C346.92 73.29 377.94 93.6599 399.6 121.4C401.33 123.65 403.32 126.26 405.31 128.95C417.73 133.93 424.17 136.5 428.23 138.27C449.63 147.63 469.12 160.49 486.21 176.48L486.4 176.62C488.98 179.06 491.7 181.75 494.32 184.32L494.43 184.43C495.72 185.69 497.05 187.01 497.89 187.82L498.3 188.19L505.08 194.82C507.73 194.86 510.09 194.93 512.23 195.01H512.85C555.29 196.89 596.11 214.35 627.8 244.12C656.06 270.68 675.03 305.27 681.99 342.48C685.75 346.98 689.66 351.58 691.02 353.24C699.75 363.37 706.79 373.98 712.53 385.73C716.99 394.72 719.72 403.05 721.34 408.02V408.13C721.52 408.58 721.71 409.2 721.86 409.61L722.52 411.45L723.18 413.51C723.66 415.02 725.17 419.41 726.28 422.69V422.8C732.8 441.62 737.22 454.88 739.5 467.19V467.34C744.99 496.74 742.27 527.17 731.66 555.28C731.36 556.05 730.66 557.97 730.14 559.4L730 559.81C729.19 562.02 728.52 563.86 728.01 565.26C720.16 586.66 706.34 605.34 688.07 619.23C669.39 633.45 647.21 641.85 623.93 643.47L622.57 643.58L617.56 643.8H603.78C602.08 643.8 600.24 643.8 598.29 643.8C594.97 643.8 591.44 643.8 587.86 643.8H587.35C583.37 643.8 579.39 643.8 575.59 643.8Z" fill="#0054FA"/>
</g>
<path d="M241.25 51.4199C262.48 51.4199 279.58 55.0299 291.54 58.6899C297.52 60.5199 302.21 62.36 305.5 63.77C307.14 64.47 308.44 65.07 309.38 65.51C309.83 65.72 310.24 65.91 310.53 66.05C310.7 66.12 310.96 66.2401 311.21 66.3401L311.46 66.4199L311.48 66.4299L311.51 66.4399C345.19 75.4699 375.32 95.06 396.58 121.7L397.58 122.97C399.31 125.21 401.28 127.81 403.25 130.47L403.69 131.06L404.36 131.33C415.24 135.69 421.5 138.19 425.58 139.92L427.2 140.62C448.34 149.86 467.58 162.55 484.47 178.35L484.54 178.41L484.62 178.47L484.71 178.55C487.24 180.94 489.92 183.58 492.51 186.13L492.62 186.24L492.63 186.26L492.65 186.27C493.88 187.47 495.28 188.87 496.13 189.67L496.15 189.7L496.17 189.72L496.56 190.07L503.29 196.65L504.02 197.37L505.04 197.38C507.67 197.42 510.01 197.49 512.14 197.56L512.18 197.57H512.8C554.59 199.43 594.81 216.63 626.05 245.98C653.91 272.18 672.62 306.29 679.48 342.95L679.6 343.61L680.03 344.12C683.81 348.65 687.69 353.21 689.04 354.86L689.06 354.89L689.08 354.91C697.67 364.88 704.59 375.31 710.24 386.86V386.87C714.5 395.46 717.15 403.44 718.78 408.43V408.64L718.98 409.12C719.15 409.53 719.2 409.78 719.45 410.47L720.09 412.26L720.75 414.29C721.22 415.78 722.64 419.92 723.72 423.11V423.23L723.86 423.63C730.35 442.38 734.69 455.41 736.94 467.43V467.57L736.99 467.81C742.31 496.29 739.79 525.76 729.75 553.07L729.26 554.36C728.96 555.16 728.26 557.09 727.74 558.53L727.6 558.93L725.61 564.38C718.05 585 704.83 603.03 687.36 616.55L686.52 617.2C668.24 631.12 646.53 639.34 623.75 640.92H623.72L622.41 641.03L617.49 641.25H564.39C563.32 641.25 562.33 641.25 561.35 641.21H561.34H561.33C545.77 640.78 530.23 636.75 516.43 629.56L515.31 628.98L514.18 629.51C498.91 636.55 482.13 640.44 465.29 640.66H461.09C456.96 640.66 452.85 640.66 448.73 640.62H448.56C446.27 640.62 443.82 640.61 441.33 640.6C438.85 640.59 436.32 640.58 433.86 640.58H428.34C427.15 640.58 423.72 640.59 420.58 640.6C419.01 640.61 417.5 640.61 416.39 640.61C415.83 640.62 415.37 640.62 415.04 640.62C414.88 640.62 414.75 640.62 414.66 640.62C414.62 640.62 414.58 640.62 414.56 640.62C414.53 640.62 414.52 640.62 414.52 640.62C402.69 640.62 390.9 638.57 379.8 634.58L378.95 634.28L378.1 634.57C370.96 637.03 363.57 638.67 356 639.48L354.49 639.64L353.29 639.74L352.04 639.81L352.03 639.82H352.01C349.35 640 346.24 640.1 342.79 640.1H279.53C262.77 640.1 246.48 636.11 231.84 628.67L230.68 628.07L229.51 628.67C214.99 636.11 198.77 640.1 182.2 640.1H125.13C88.8998 640.1 55.6099 623.57 33.7399 594.7L33.6998 594.65L33.6598 594.61L33.5199 594.44C10.8899 564.32 4.47981 524.81 16.4398 488.74L36.4098 428.84V428.83C47.9398 394.11 66.7599 362.3 91.4899 335.52L92.8199 334.09L91.7799 332.43C88.6699 327.47 85.9498 322.25 83.6298 316.83L83.1698 315.75C77.3698 301.76 74.4498 287.1 74.4498 272.08C74.4498 260.26 76.25 248.74 79.85 237.65L80.0099 237.14L79.9598 236.61C79.3198 229.97 79.3098 223.3 79.9698 216.66L80.11 215.33C82.44 194 91.2499 174.09 105.27 158.16L105.68 157.7L105.84 157.09C105.86 157 106.02 156.33 106.17 155.7C106.24 155.39 106.32 155.07 106.38 154.84C106.4 154.72 106.43 154.63 106.44 154.56C106.45 154.54 106.45 154.53 106.45 154.51L107.06 152.49V152.48C112.39 134.29 120.79 118.01 131.99 104.07V104.06V104.05C158.14 71.1101 199 51.4199 241.25 51.4199Z" stroke="url(#paint5_linear_8704_1987)" stroke-width="5.11569" stroke-miterlimit="10"/>
<g filter="url(#filter6_i_8704_1987)">
<path d="M575.59 610.65C572.13 610.65 569.18 610.65 566.64 610.65H565.38C565.05 610.65 564.68 610.65 564.39 610.65C563.65 610.65 562.92 610.65 562.22 610.65C551.16 610.36 540.15 607.48 530.35 602.36C525.37 599.75 520.66 596.54 516.42 592.86C501.61 603.72 483.3 609.84 464.81 610.1C464.29 610.1 463.7 610.1 463.04 610.1C462.37 610.1 462.01 610.1 461.56 610.1H461.16C457.03 610.1 452.91 610.1 448.74 610.06H448.67C443.77 610.06 438.72 610.02 433.86 610.02C428.99 610.02 430.1 610.02 428.22 610.02C428.22 610.02 414.66 610.06 414.52 610.06C402.14 610.06 389.98 606.89 379.18 600.85C370.67 605.42 361.32 608.29 351.63 609.21L350.78 609.29L349.93 609.36C347.94 609.51 345.55 609.58 342.79 609.58C340.02 609.58 341.75 609.58 341.27 609.58H281.37C280.74 609.58 280.15 609.58 279.53 609.58C261.4 609.58 243.98 602.95 230.64 591.16C217.23 603.02 200.13 609.55 182.19 609.55H125.12C98.6 609.55 74.1698 597.42 58.1398 576.24L58.0299 576.09C41.3799 553.99 36.74 524.96 45.54 498.4L65.4799 438.53C78.1499 400.4 100.81 366.21 131.02 339.69L135.07 336.11C124.87 327.64 116.72 316.66 111.49 304.02C102.94 283.43 102.98 260.59 111.45 240.44C110.09 233.29 109.76 225.92 110.57 218.63C112.49 200.98 120.92 184.51 133.89 172.65C134.44 169.55 135.07 166.61 135.73 163.88L136.07 162.44L136.47 161.04C140.67 146.71 147.23 133.97 155.92 123.13C176.33 97.3499 208.24 81.98 241.29 81.98C274.33 81.98 302 95.4999 303.36 95.9099C331.29 103.31 356.2 119.63 373.51 141.78C375.35 144.17 377.67 147.27 379.92 150.32C381.1 151.91 382.28 153.49 382.91 154.34L383.05 154.56C383.46 155.11 383.9 155.7 384.34 156.25C386.7 157.18 389.43 158.28 391.9 159.28C403.65 163.95 411.09 166.94 414.92 168.63C432.86 176.48 449.22 187.24 463.55 200.68L463.66 200.8C465.95 202.97 468.56 205.51 471.07 207.98C472.47 209.34 473.91 210.78 474.9 211.74L475.08 211.92L491.48 227.98C492.73 227.98 494.02 227.98 495.31 227.98C502.16 227.98 506.99 228.06 511 228.2H511.41C545.93 229.75 579.2 243.97 605.1 268.32C630.3 292.01 646.47 323.4 650.67 356.78C651.41 357.66 653.1 359.65 653.1 359.65C657.93 365.44 663.94 372.58 665.89 374.87C672.78 382.83 678.3 391.19 682.8 400.4C686.22 407.29 688.44 413.96 689.87 418.38C690.13 419.19 690.5 420.29 690.61 420.66L691.12 422.06L691.57 423.46C692.19 425.41 693.59 429.54 694.99 433.56C701 451.06 705.05 463.25 706.97 473.31V473.42C711.35 496.89 709.18 521.16 700.67 543.64C700.37 544.45 699.6 546.58 699.01 548.17L698.9 548.46C698.16 550.49 697.46 552.44 696.95 553.73C691.27 569.24 681.29 582.76 668.02 592.86C654.5 603.17 638.48 609.21 621.68 610.39L620.76 610.47L616.89 610.61H603.99C602.23 610.61 600.35 610.61 598.36 610.61C595 610.61 591.39 610.61 587.75 610.61H587.38C583.44 610.61 579.46 610.61 575.7 610.61L575.59 610.65Z" fill="#0054FA"/>
</g>
<path d="M241.29 84.54C273.84 84.54 300.75 97.8001 302.64 98.3601L302.67 98.3701L302.71 98.3799C330.1 105.65 354.52 121.65 371.48 143.33V143.34C373.31 145.71 375.62 148.79 377.86 151.84H377.87V151.85C379.03 153.41 380.18 154.96 380.81 155.81L380.92 155.98L380.96 156.03L380.99 156.07C381.41 156.64 381.87 157.26 382.35 157.85L382.77 158.39L383.41 158.64C384.58 159.09 385.85 159.6 387.12 160.11L390.94 161.65H390.95C401.25 165.75 408.2 168.54 412.3 170.28L413.89 170.97L413.9 170.98C431.56 178.7 447.66 189.29 461.78 202.52L461.85 202.6L461.88 202.63L461.9 202.65C464.17 204.81 466.78 207.34 469.27 209.8L469.28 209.81C470.61 211.11 472.11 212.6 473.09 213.54V213.55L473.28 213.74L473.29 213.75L489.69 229.81L490.43 230.54H495.31C502.15 230.54 506.94 230.62 510.91 230.76H510.96H511.33C544.68 232.27 576.87 245.82 602.15 269.07L603.35 270.19C628.13 293.48 644.01 324.33 648.13 357.1L648.23 357.84L648.71 358.42C649.08 358.87 649.7 359.6 650.21 360.2C650.47 360.51 650.71 360.79 650.88 360.99C650.96 361.09 651.03 361.17 651.08 361.22C651.11 361.25 651.13 361.27 651.14 361.29C651.14 361.3 651.15 361.3 651.15 361.31H651.16C655.98 367.09 661.98 374.24 663.94 376.53L663.95 376.54C670.7 384.34 676.1 392.51 680.5 401.52L680.51 401.54C683.43 407.41 685.45 413.13 686.87 417.42L687.44 419.17C687.72 420.06 688.05 421.05 688.16 421.4L688.18 421.47L688.21 421.55L688.7 422.89L689.13 424.23V424.24C689.77 426.23 691.17 430.37 692.57 434.39C698.55 451.8 702.52 463.76 704.41 473.56V473.66L704.45 473.89C708.75 496.89 706.62 520.69 698.27 542.73V542.75L698.26 542.76C697.97 543.58 697.2 545.7 696.61 547.27L696.5 547.57V547.58L696.49 547.59C695.75 549.65 695.07 551.54 694.57 552.78L694.56 552.82L694.54 552.85C689.21 567.43 679.95 580.2 667.67 589.89L666.48 590.82H666.47C653.35 600.84 637.8 606.7 621.5 607.84H621.47L620.6 607.91L616.84 608.06H575.28L575.17 608.09H562.25C551.94 607.81 541.64 605.2 532.42 600.55L531.53 600.09C526.73 597.57 522.18 594.48 518.1 590.93L516.56 589.58L514.91 590.79C500.53 601.35 482.74 607.29 464.77 607.54H461.16C457.03 607.54 452.91 607.54 448.76 607.5H448.67C446.22 607.5 443.74 607.49 441.26 607.49C438.78 607.48 436.3 607.47 433.86 607.47H428.18C428.15 607.47 428.11 607.47 428.06 607.47C427.96 607.47 427.82 607.47 427.63 607.47C427.26 607.47 426.73 607.47 426.09 607.47C424.82 607.48 423.12 607.48 421.42 607.49C419.71 607.49 418 607.49 416.71 607.5C416.07 607.5 415.53 607.5 415.14 607.5C414.95 607.5 414.79 607.5 414.69 607.5C414.63 607.5 414.59 607.5 414.56 607.5H414.52C402.57 607.5 390.85 604.45 380.43 598.62L379.21 597.93L377.97 598.6C369.76 603.01 360.74 605.78 351.4 606.67L350.56 606.74L349.74 606.81C347.84 606.95 345.51 607.02 342.79 607.02H279.53C262.02 607.02 245.2 600.62 232.33 589.25L230.64 587.75L228.94 589.25C216 600.7 199.51 606.99 182.19 606.99H125.12C99.8004 606.99 76.4702 595.61 60.9202 575.66L60.1802 574.7L60.0804 574.56V574.55L59.3304 573.55C43.8004 552.25 39.5603 524.58 47.9703 499.2L67.9002 439.34C80.2402 402.23 102.14 368.89 131.31 342.84L132.71 341.61V341.6L136.76 338.03L139 336.05L136.71 334.14C127.13 326.19 119.42 315.96 114.34 304.19L113.86 303.04H113.85L113.47 302.11C105.57 282.38 105.74 260.64 113.81 241.43L114.11 240.72L113.97 239.96C112.73 233.48 112.38 226.83 112.98 220.23L113.11 218.91V218.9C114.96 201.88 123.1 185.98 135.62 174.54L136.26 173.95L136.41 173.1C136.95 170.06 137.57 167.16 138.22 164.49L138.23 164.46L138.54 163.09L138.93 161.75C143.04 147.73 149.45 135.29 157.92 124.74V124.73L157.93 124.72C177.85 99.55 209.01 84.54 241.29 84.54Z" stroke="url(#paint6_linear_8704_1987)" stroke-width="5.11569" stroke-miterlimit="10"/>
<g filter="url(#filter7_i_8704_1987)">
<path d="M575.59 577.49C572.13 577.49 569.22 577.49 566.75 577.49H565.16C564.91 577.49 564.61 577.49 564.39 577.49C563.99 577.49 563.58 577.49 563.17 577.49C550.72 577.16 534.59 571.52 528.84 560.54C523.09 549.57 521.95 524.92 521.95 524.92C521.95 524.92 509.72 556.68 497.08 565.92C487.72 572.92 476.08 576.83 464.25 576.98C463.89 576.98 463.48 576.98 462.96 576.98C462.45 576.98 462.08 576.98 461.68 576.98H461.2C457.11 576.98 452.98 576.98 448.82 576.94C443.88 576.94 438.76 576.9 433.79 576.9C428.81 576.9 429.95 576.9 428.04 576.9C428.04 576.9 414.59 576.94 414.48 576.94C399.74 576.94 386.3 568.65 379.56 555.87C378.49 557.82 377.23 559.66 375.8 561.43C369.06 569.83 359.11 575.24 348.46 576.24H348.06C348.06 576.28 347.65 576.31 347.65 576.31C346.03 576.42 343.89 576.42 342.75 576.42C341.61 576.42 341.9 576.42 341.5 576.42H280.86C280.38 576.42 279.93 576.42 279.46 576.42C267.92 576.42 257.13 571.71 249.58 563.38C244.49 557.89 241.1 551 239.74 543.34C239.08 539.51 239 536.12 239.08 533.54V523.7C239.08 523.33 239.08 522.97 239.08 522.63C235.21 529.75 229.24 535.53 222.02 539.21C220.58 559.95 203.23 576.42 182.12 576.42H125.05C108.99 576.42 94.2099 569.05 84.4899 556.27L84.4199 556.2C74.3199 542.79 71.5198 525.1 76.8998 508.86L96.83 449.03C107.63 416.46 127 387.28 152.76 364.62L186.69 334.82C180.35 330.99 174.97 325.61 171.14 319.13C158.03 314.56 147.45 304.54 142 291.35C136.4 277.79 136.91 262.72 143.44 249.97C144.28 248.24 145.54 245.77 146.79 243.23C143.8 236.75 142.59 229.45 143.4 222.23C144.58 211.59 149.99 201.75 158.32 195.23C158.76 194.9 159.13 194.6 159.46 194.35L159.61 194.23L161.01 193.2C163.22 191.43 164.8 188.63 165.25 185.83C165.72 182.15 166.54 176.81 167.75 171.8L167.94 171.1L168.16 170.4C171.14 160.23 175.71 151.28 181.71 143.84C195.9 125.86 218.08 115.14 241.14 115.14C264.2 115.14 293.09 127.52 294.56 127.88C315.6 133.45 334.31 145.6 347.24 162.18C348.87 164.25 351.04 167.19 353.18 170.07C354.43 171.76 355.64 173.38 356.38 174.38L356.46 174.49C357.08 175.34 357.74 176.22 358.41 177.1C359.66 178.8 361.54 181.34 362.39 182.19L362.61 182.37C363.64 183.33 364.86 184.14 366.14 184.66L366.44 184.77C368.36 185.58 374.03 187.82 379.52 190.03C390.64 194.46 398.2 197.51 401.51 198.95C415.99 205.29 429.22 213.98 440.79 224.81H440.86C442.89 226.77 445.35 229.2 447.71 231.52C449.22 233.03 450.66 234.43 451.77 235.5L473.32 256.61C473.83 257.12 474.35 257.64 474.9 258.19C475.75 259 476.96 260.25 477.89 261.06H478.33H479.03C480.24 261.06 481.53 261.06 482.9 261.06C484.26 261.06 486.65 261.06 488.64 261.06C490.82 261.06 493.03 261.06 495.2 261.06C501.61 261.06 506.07 261.14 509.64 261.25H509.86C536.46 262.43 562.18 273.48 582.3 292.42C602.15 311.09 614.75 335.7 617.81 361.82C618.29 364.96 618.47 367.76 618.55 370.11C620.72 372.69 623.96 376.56 627.61 380.91C632.77 387.1 638.66 394.1 640.69 396.45C645.7 402.28 649.75 408.35 653 415.02C655.39 419.81 657.01 424.71 658.3 428.69C658.71 429.94 659.11 431.16 659.41 431.97L659.66 432.67L659.88 433.37C660.62 435.73 662.06 439.93 663.57 444.35C668.91 459.93 672.82 471.57 674.29 479.42C677.53 496.99 675.91 515.12 669.54 531.92C669.21 532.84 668.4 534.98 667.73 536.86C666.96 538.99 666.22 541.02 665.74 542.23C662.24 551.81 656.05 560.18 647.84 566.48C639.47 572.85 629.6 576.61 619.28 577.31H618.84L616.12 577.45H604.07C602.26 577.45 600.31 577.45 598.29 577.45C594.79 577.45 591.03 577.45 587.23 577.45C583.33 577.45 579.35 577.45 575.63 577.45L575.59 577.49Z" fill="#0054FA"/>
</g>
<mask id="mask1_8704_1987" style="mask-type:luminance" maskUnits="userSpaceOnUse" x="74" y="115" width="602" height="463">
<path d="M575.59 577.49C572.13 577.49 569.22 577.49 566.75 577.49H565.16C564.91 577.49 564.61 577.49 564.39 577.49C563.99 577.49 563.58 577.49 563.17 577.49C550.72 577.16 534.59 571.52 528.84 560.54C523.09 549.57 521.95 524.92 521.95 524.92C521.95 524.92 509.72 556.68 497.08 565.92C487.72 572.92 476.08 576.83 464.25 576.98C463.89 576.98 463.48 576.98 462.96 576.98C462.45 576.98 462.08 576.98 461.68 576.98H461.2C457.11 576.98 452.98 576.98 448.82 576.94C443.88 576.94 438.76 576.9 433.79 576.9C428.81 576.9 429.95 576.9 428.04 576.9C428.04 576.9 414.59 576.94 414.48 576.94C399.74 576.94 386.3 568.65 379.56 555.87C378.49 557.82 377.23 559.66 375.8 561.43C369.06 569.83 359.11 575.24 348.46 576.24H348.06C348.06 576.28 347.65 576.31 347.65 576.31C346.03 576.42 343.89 576.42 342.75 576.42C341.61 576.42 341.9 576.42 341.5 576.42H280.86C280.38 576.42 279.93 576.42 279.46 576.42C267.92 576.42 257.13 571.71 249.58 563.38C244.49 557.89 241.1 551 239.74 543.34C239.08 539.51 239 536.12 239.08 533.54V523.7C239.08 523.33 239.08 522.97 239.08 522.63C235.21 529.75 229.24 535.53 222.02 539.21C220.58 559.95 203.23 576.42 182.12 576.42H125.05C108.99 576.42 94.2099 569.05 84.4899 556.27L84.4199 556.2C74.3199 542.79 71.5198 525.1 76.8998 508.86L96.83 449.03C107.63 416.46 127 387.28 152.76 364.62L186.69 334.82C180.35 330.99 174.97 325.61 171.14 319.13C158.03 314.56 147.45 304.54 142 291.35C136.4 277.79 136.91 262.72 143.44 249.97C144.28 248.24 145.54 245.77 146.79 243.23C143.8 236.75 142.59 229.45 143.4 222.23C144.58 211.59 149.99 201.75 158.32 195.23C158.76 194.9 159.13 194.6 159.46 194.35L159.61 194.23L161.01 193.2C163.22 191.43 164.8 188.63 165.25 185.83C165.72 182.15 166.54 176.81 167.75 171.8L167.94 171.1L168.16 170.4C171.14 160.23 175.71 151.28 181.71 143.84C195.9 125.86 218.08 115.14 241.14 115.14C264.2 115.14 293.09 127.52 294.56 127.88C315.6 133.45 334.31 145.6 347.24 162.18C348.87 164.25 351.04 167.19 353.18 170.07C354.43 171.76 355.64 173.38 356.38 174.38L356.46 174.49C357.08 175.34 357.74 176.22 358.41 177.1C359.66 178.8 361.54 181.34 362.39 182.19L362.61 182.37C363.64 183.33 364.86 184.14 366.14 184.66L366.44 184.77C368.36 185.58 374.03 187.82 379.52 190.03C390.64 194.46 398.2 197.51 401.51 198.95C415.99 205.29 429.22 213.98 440.79 224.81H440.86C442.89 226.77 445.35 229.2 447.71 231.52C449.22 233.03 450.66 234.43 451.77 235.5L473.32 256.61C473.83 257.12 474.35 257.64 474.9 258.19C475.75 259 476.96 260.25 477.89 261.06H478.33H479.03C480.24 261.06 481.53 261.06 482.9 261.06C484.26 261.06 486.65 261.06 488.64 261.06C490.82 261.06 493.03 261.06 495.2 261.06C501.61 261.06 506.07 261.14 509.64 261.25H509.86C536.46 262.43 562.18 273.48 582.3 292.42C602.15 311.09 614.75 335.7 617.81 361.82C618.29 364.96 618.47 367.76 618.55 370.11C620.72 372.69 623.96 376.56 627.61 380.91C632.77 387.1 638.66 394.1 640.69 396.45C645.7 402.28 649.75 408.35 653 415.02C655.39 419.81 657.01 424.71 658.3 428.69C658.71 429.94 659.11 431.16 659.41 431.97L659.66 432.67L659.88 433.37C660.62 435.73 662.06 439.93 663.57 444.35C668.91 459.93 672.82 471.57 674.29 479.42C677.53 496.99 675.91 515.12 669.54 531.92C669.21 532.84 668.4 534.98 667.73 536.86C666.96 538.99 666.22 541.02 665.74 542.23C662.24 551.81 656.05 560.18 647.84 566.48C639.47 572.85 629.6 576.61 619.28 577.31H618.84L616.12 577.45H604.07C602.26 577.45 600.31 577.45 598.29 577.45C594.79 577.45 591.03 577.45 587.23 577.45C583.33 577.45 579.35 577.45 575.63 577.45L575.59 577.49Z" fill="white"/>
</mask>
<g mask="url(#mask1_8704_1987)">
<path d="M575.59 577.49C572.13 577.49 569.22 577.49 566.75 577.49H565.16C564.91 577.49 564.61 577.49 564.39 577.49C563.99 577.49 563.58 577.49 563.17 577.49C550.72 577.16 534.59 571.52 528.84 560.54C523.09 549.57 521.95 524.92 521.95 524.92C521.95 524.92 509.72 556.68 497.08 565.92C487.72 572.92 476.08 576.83 464.25 576.98C463.89 576.98 463.48 576.98 462.96 576.98C462.45 576.98 462.08 576.98 461.68 576.98H461.2C457.11 576.98 452.98 576.98 448.82 576.94C443.88 576.94 438.76 576.9 433.79 576.9C428.81 576.9 429.95 576.9 428.04 576.9C428.04 576.9 414.59 576.94 414.48 576.94C399.74 576.94 386.3 568.65 379.56 555.87C378.49 557.82 377.23 559.66 375.8 561.43C369.06 569.83 359.11 575.24 348.46 576.24H348.06C348.06 576.28 347.65 576.31 347.65 576.31C346.03 576.42 343.89 576.42 342.75 576.42C341.61 576.42 341.9 576.42 341.5 576.42H280.86C280.38 576.42 279.93 576.42 279.46 576.42C267.92 576.42 257.13 571.71 249.58 563.38C244.49 557.89 241.1 551 239.74 543.34C239.08 539.51 239 536.12 239.08 533.54V523.7C239.08 523.33 239.08 522.97 239.08 522.63C235.21 529.75 229.24 535.53 222.02 539.21C220.58 559.95 203.23 576.42 182.12 576.42H125.05C108.99 576.42 94.2099 569.05 84.4899 556.27L84.4199 556.2C74.3199 542.79 71.5198 525.1 76.8998 508.86L96.83 449.03C107.63 416.46 127 387.28 152.76 364.62L186.69 334.82C180.35 330.99 174.97 325.61 171.14 319.13C158.03 314.56 147.45 304.54 142 291.35C136.4 277.79 136.91 262.72 143.44 249.97C144.28 248.24 145.54 245.77 146.79 243.23C143.8 236.75 142.59 229.45 143.4 222.23C144.58 211.59 149.99 201.75 158.32 195.23C158.76 194.9 159.13 194.6 159.46 194.35L159.61 194.23L161.01 193.2C163.22 191.43 164.8 188.63 165.25 185.83C165.72 182.15 166.54 176.81 167.75 171.8L167.94 171.1L168.16 170.4C171.14 160.23 175.71 151.28 181.71 143.84C195.9 125.86 218.08 115.14 241.14 115.14C264.2 115.14 293.09 127.52 294.56 127.88C315.6 133.45 334.31 145.6 347.24 162.18C348.87 164.25 351.04 167.19 353.18 170.07C354.43 171.76 355.64 173.38 356.38 174.38L356.46 174.49C357.08 175.34 357.74 176.22 358.41 177.1C359.66 178.8 361.54 181.34 362.39 182.19L362.61 182.37C363.64 183.33 364.86 184.14 366.14 184.66L366.44 184.77C368.36 185.58 374.03 187.82 379.52 190.03C390.64 194.46 398.2 197.51 401.51 198.95C415.99 205.29 429.22 213.98 440.79 224.81H440.86C442.89 226.77 445.35 229.2 447.71 231.52C449.22 233.03 450.66 234.43 451.77 235.5L473.32 256.61C473.83 257.12 474.35 257.64 474.9 258.19C475.75 259 476.96 260.25 477.89 261.06H478.33H479.03C480.24 261.06 481.53 261.06 482.9 261.06C484.26 261.06 486.65 261.06 488.64 261.06C490.82 261.06 493.03 261.06 495.2 261.06C501.61 261.06 506.07 261.14 509.64 261.25H509.86C536.46 262.43 562.18 273.48 582.3 292.42C602.15 311.09 614.75 335.7 617.81 361.82C618.29 364.96 618.47 367.76 618.55 370.11C620.72 372.69 623.96 376.56 627.61 380.91C632.77 387.1 638.66 394.1 640.69 396.45C645.7 402.28 649.75 408.35 653 415.02C655.39 419.81 657.01 424.71 658.3 428.69C658.71 429.94 659.11 431.16 659.41 431.97L659.66 432.67L659.88 433.37C660.62 435.73 662.06 439.93 663.57 444.35C668.91 459.93 672.82 471.57 674.29 479.42C677.53 496.99 675.91 515.12 669.54 531.92C669.21 532.84 668.4 534.98 667.73 536.86C666.96 538.99 666.22 541.02 665.74 542.23C662.24 551.81 656.05 560.18 647.84 566.48C639.47 572.85 629.6 576.61 619.28 577.31H618.84L616.12 577.45H604.07C602.26 577.45 600.31 577.45 598.29 577.45C594.79 577.45 591.03 577.45 587.23 577.45C583.33 577.45 579.35 577.45 575.63 577.45L575.59 577.49Z" stroke="url(#paint7_linear_8704_1987)" stroke-width="10.2314" stroke-miterlimit="10"/>
</g>
<g filter="url(#filter8_d_8704_1987)">
<path d="M556.17 533.83L557.13 537.44L557.61 539.21C558.38 542.09 561.18 544.3 564.17 544.3C564.35 544.3 564.76 544.3 565.01 544.3H566.89C577.69 544.37 593.42 544.26 604.21 544.3H615.41L616.96 544.22C624.81 543.67 631.99 538.22 634.64 530.78C635.42 528.75 637.7 522.41 638.51 520.24C642.68 509.22 643.85 497.1 641.68 485.53C640.02 476.77 631.07 452.38 628.2 443.31C626.69 439.15 625.18 433.55 623.22 429.72C621.16 425.48 618.62 421.69 615.52 418.12C611.51 413.47 594.93 393.58 591.47 389.49L589.03 386.62C584.02 381.02 586.16 373.17 584.94 366.43C580.78 327.89 546.96 296.14 508.39 294.4C500.28 294.11 487.2 294.29 478.77 294.26C473.13 294.44 467.46 293.3 462.48 290.61C458.06 288.51 453.64 283.76 450.14 280.33L428.77 259.4C425.75 256.49 421.11 251.82 418.12 249.02C409.36 240.8 399.19 234.09 388.17 229.31C383.27 227.13 358.96 217.59 353.61 215.34C348.57 213.28 343.89 210.26 339.91 206.54C336.23 203.15 332.98 198.36 330.04 194.45C327.86 191.62 323.4 185.5 321.12 182.59C312.35 171.35 299.75 163.54 286.05 159.93C280.82 158.53 254.03 150.02 248.8 149.03C233.58 146.08 217.19 152.27 207.65 164.54C204.04 168.92 201.57 174.3 199.98 179.75C199.17 183.03 198.55 186.94 198.14 190.33C196.52 201.86 190.26 212.62 181.05 219.69L179.39 220.91C179.24 221.02 179.13 221.09 179.09 221.16L178.84 221.35C175.96 223.52 175.45 228.09 177.81 230.85C177.92 231 178.17 231.3 178.36 231.52L183.15 237.26L182.89 237.01C184.4 238.52 184.88 240.91 184.03 242.86C183.22 244.52 181.64 247.73 180.79 249.42C178.87 253.29 174.97 261.14 173.05 265C168.59 273.55 173.24 285.08 182.48 287.99L190.66 290.72C193.02 291.42 195.05 293.11 196.19 295.29L198.18 299.3L199.17 301.26C201.35 305.93 206.43 308.73 211.52 308.37C213.14 308.37 241.03 308.37 248.8 308.37C249.79 308.37 250.6 309.18 250.6 310.17C250.6 311.17 249.98 311.79 249.13 311.98L235.76 314.63C233.84 315.03 232.44 316.69 232.44 318.64V322.03C232.44 332.68 227.84 342.85 219.84 349.89L174.64 389.56C153.27 408.32 137.24 432.48 128.29 459.52L108.36 519.32C106.44 525.03 107.25 531.44 110.9 536.26C114.29 540.72 119.41 543.3 125.05 543.3H182.12C185.87 543.3 188.93 540.24 188.93 536.45V530.04C188.93 528.23 188.19 526.46 186.94 525.18L184.07 522.3C182.26 520.46 181.42 517.77 182.15 515.3C183.04 512.35 185.69 510.4 188.71 510.4H203.96C207.72 510.4 210.78 507.34 210.78 503.55V492.61C210.78 484.43 214.61 476.69 221.17 471.79L222.46 470.8C241.95 456.14 253.85 433.18 253.59 408.76C253.44 396.64 258.82 385.33 268.29 377.85L280.04 368.53C281.15 367.64 281.74 366.24 281.55 364.84C280.89 359.65 279.71 354.49 278.02 349.55C276.8 345.94 274.26 338.47 273.04 334.89C265.6 314.33 267.88 290.35 279.38 271.78C286.64 259.92 297.47 250.38 309.92 244.93C310.8 244.52 311.84 244.93 312.28 245.81C312.72 246.66 312.39 247.69 311.58 248.21C283.8 265.48 269.95 301.11 281.26 332.13C282.4 335.7 284.98 343.48 286.05 346.87C291.13 362.34 291.83 379.25 287.93 395.02L266.26 474.89L265.56 477.39C262.54 487.23 263.9 498.02 268.88 506.98C269.06 507.45 270.13 509.44 270.32 509.85C272.6 514.05 272.16 519.21 272.16 523.74V534.05C272.08 536.34 272.08 539.21 273.85 540.98C275.36 542.79 277.72 543.49 280 543.3H341.79C342.41 543.3 344.63 543.3 345.21 543.26C348.9 542.93 351.66 539.4 351.33 535.71V530.55C351.33 529.41 351.22 528.27 350.74 527.24C350.3 526.17 349.34 525.18 348.49 524.36L344.81 520.68C341.57 517.51 341.2 511.88 343.93 508.3C344.85 506.98 350.37 499.28 351.4 497.8C356.75 490.03 366.99 476.14 372.15 468.4C383.79 450.61 387.51 427.99 382.46 407.39C381.32 401.68 377.89 393.91 376.01 388.35C373.62 381.5 367.47 365.73 365.55 358.8C362.53 348.45 362.53 337.58 363.23 326.97C363.56 320.67 363.93 314.33 364.52 308C364.63 307.04 365.4 306.3 366.4 306.3C367.39 306.3 368.17 307.04 368.28 308C369.16 317.69 369.57 327.56 370.05 337.21C370.71 347.23 373.03 356.63 376.83 365.95C379.37 372.51 385.48 388.61 387.88 394.91C389.83 400.03 391.27 405.41 392.19 410.82C392.89 414.91 395.61 418.37 399.45 419.96C405.16 422.32 411.12 424.42 417.42 426.18C423.87 427.99 430.69 424.93 433.6 418.85C434.08 417.82 434.63 416.79 435.15 415.76C439.31 407.65 444.95 400.39 450.51 393.25C455.63 386.65 460.93 380.21 466.46 373.87C467.09 373.13 468.16 373.02 468.97 373.57C469.74 374.13 470 375.23 469.52 376.04C463.18 386.65 455.63 398.15 448.78 408.28C440.64 420.88 434.92 435.1 432.49 449.91C430.61 461.77 427.11 484.02 425.2 496.11C424.42 500.57 424.02 506.57 421.59 510.51C419.45 514.71 414.51 518.06 411.01 521.01L408.44 523.11L408.1 523.37L407.92 523.55C406 525.21 405.23 527.98 406 530.41C406.74 532.99 407.77 537.26 408.51 539.65C409.39 542.12 411.94 543.85 414.59 543.78H427.92C438.94 543.71 450.21 543.78 461.23 543.78C461.71 543.78 463.22 543.78 463.73 543.78C468.6 543.78 473.46 542.2 477.37 539.25C482.3 535.67 484.7 530.66 486.65 524.81C488.12 520.79 496.56 497.99 498.22 493.46C499.73 489.26 501.5 484.72 503.45 480.71C509.53 468.15 518.04 456.8 528.65 447.74C541.51 437.16 551.05 423.49 557.5 407.87C557.87 406.95 558.86 406.47 559.78 406.73C560.7 406.99 561.33 407.91 561.18 408.87C559.04 421.98 552.74 434.21 544.05 444.24C540.59 448.25 538.56 453.3 538.56 458.6V463.02C538.56 465.16 538.56 467.67 538.93 469.8C539.81 475.11 542.69 480.01 546.7 483.55L549.43 486.09L560.44 496.22L565.93 501.3C567.44 502.59 568.66 504.29 569.18 506.24C570.36 510.22 568.51 514.6 565.12 516.89C563.69 518.06 560.74 520.42 559.3 521.6C558.64 522.19 557.42 523.04 556.83 523.7C555.18 525.4 554.55 528.01 555.14 530.3L556.1 533.91H556.13L556.17 533.83Z" fill="white"/>
</g>
</g>
<defs>
<filter id="filter0_i_8704_1987" x="-157.824" y="-117" width="1065.82" height="930.001" filterUnits="userSpaceOnUse" color-interpolation-filters="sRGB">
<feFlood flood-opacity="0" result="BackgroundImageFix"/>
<feBlend mode="normal" in="SourceGraphic" in2="BackgroundImageFix" result="shape"/>
<feColorMatrix in="SourceAlpha" type="matrix" values="0 0 0 0 0 0 0 0 0 0 0 0 0 0 0 0 0 0 127 0" result="hardAlpha"/>
<feOffset dy="3.41046"/>
<feGaussianBlur stdDeviation="1.70523"/>
<feComposite in2="hardAlpha" operator="arithmetic" k2="-1" k3="1"/>
<feColorMatrix type="matrix" values="0 0 0 0 0 0 0 0 0 0 0 0 0 0 0 0 0 0 0.25 0"/>
<feBlend mode="normal" in2="shape" result="effect1_innerShadow_8704_1987"/>
</filter>
<filter id="filter1_i_8704_1987" x="-124.688" y="-83.8401" width="999.528" height="863.68" filterUnits="userSpaceOnUse" color-interpolation-filters="sRGB">
<feFlood flood-opacity="0" result="BackgroundImageFix"/>
<feBlend mode="normal" in="SourceGraphic" in2="BackgroundImageFix" result="shape"/>
<feColorMatrix in="SourceAlpha" type="matrix" values="0 0 0 0 0 0 0 0 0 0 0 0 0 0 0 0 0 0 127 0" result="hardAlpha"/>
<feOffset dy="3.41046"/>
<feGaussianBlur stdDeviation="1.70523"/>
<feComposite in2="hardAlpha" operator="arithmetic" k2="-1" k3="1"/>
<feColorMatrix type="matrix" values="0 0 0 0 0 0 0 0 0 0 0 0 0 0 0 0 0 0 0.25 0"/>
<feBlend mode="normal" in2="shape" result="effect1_innerShadow_8704_1987"/>
</filter>
<filter id="filter2_i_8704_1987" x="-91.5176" y="-50.6799" width="933.226" height="797.37" filterUnits="userSpaceOnUse" color-interpolation-filters="sRGB">
<feFlood flood-opacity="0" result="BackgroundImageFix"/>
<feBlend mode="normal" in="SourceGraphic" in2="BackgroundImageFix" result="shape"/>
<feColorMatrix in="SourceAlpha" type="matrix" values="0 0 0 0 0 0 0 0 0 0 0 0 0 0 0 0 0 0 127 0" result="hardAlpha"/>
<feOffset dy="3.41046"/>
<feGaussianBlur stdDeviation="1.70523"/>
<feComposite in2="hardAlpha" operator="arithmetic" k2="-1" k3="1"/>
<feColorMatrix type="matrix" values="0 0 0 0 0 0 0 0 0 0 0 0 0 0 0 0 0 0 0.25 0"/>
<feBlend mode="normal" in2="shape" result="effect1_innerShadow_8704_1987"/>
</filter>
<filter id="filter3_i_8704_1987" x="-58.3779" y="-17.49" width="866.929" height="731.021" filterUnits="userSpaceOnUse" color-interpolation-filters="sRGB">
<feFlood flood-opacity="0" result="BackgroundImageFix"/>
<feBlend mode="normal" in="SourceGraphic" in2="BackgroundImageFix" result="shape"/>
<feColorMatrix in="SourceAlpha" type="matrix" values="0 0 0 0 0 0 0 0 0 0 0 0 0 0 0 0 0 0 127 0" result="hardAlpha"/>
<feOffset dy="3.41046"/>
<feGaussianBlur stdDeviation="1.70523"/>
<feComposite in2="hardAlpha" operator="arithmetic" k2="-1" k3="1"/>
<feColorMatrix type="matrix" values="0 0 0 0 0 0 0 0 0 0 0 0 0 0 0 0 0 0 0.25 0"/>
<feBlend mode="normal" in2="shape" result="effect1_innerShadow_8704_1987"/>
</filter>
<filter id="filter4_i_8704_1987" x="-25.1611" y="15.0981" width="800.517" height="665.272" filterUnits="userSpaceOnUse" color-interpolation-filters="sRGB">
<feFlood flood-opacity="0" result="BackgroundImageFix"/>
<feBlend mode="normal" in="SourceGraphic" in2="BackgroundImageFix" result="shape"/>
<feColorMatrix in="SourceAlpha" type="matrix" values="0 0 0 0 0 0 0 0 0 0 0 0 0 0 0 0 0 0 127 0" result="hardAlpha"/>
<feOffset dy="3.41046"/>
<feGaussianBlur stdDeviation="1.70523"/>
<feComposite in2="hardAlpha" operator="arithmetic" k2="-1" k3="1"/>
<feColorMatrix type="matrix" values="0 0 0 0 0 0 0 0 0 0 0 0 0 0 0 0 0 0 0.25 0"/>
<feBlend mode="normal" in2="shape" result="effect1_innerShadow_8704_1987"/>
</filter>
<filter id="filter5_i_8704_1987" x="7.9624" y="48.8601" width="734.303" height="598.35" filterUnits="userSpaceOnUse" color-interpolation-filters="sRGB">
<feFlood flood-opacity="0" result="BackgroundImageFix"/>
<feBlend mode="normal" in="SourceGraphic" in2="BackgroundImageFix" result="shape"/>
<feColorMatrix in="SourceAlpha" type="matrix" values="0 0 0 0 0 0 0 0 0 0 0 0 0 0 0 0 0 0 127 0" result="hardAlpha"/>
<feOffset dy="3.41046"/>
<feGaussianBlur stdDeviation="1.70523"/>
<feComposite in2="hardAlpha" operator="arithmetic" k2="-1" k3="1"/>
<feColorMatrix type="matrix" values="0 0 0 0 0 0 0 0 0 0 0 0 0 0 0 0 0 0 0.25 0"/>
<feBlend mode="normal" in2="shape" result="effect1_innerShadow_8704_1987"/>
</filter>
<filter id="filter6_i_8704_1987" x="41.167" y="81.98" width="668.007" height="532.08" filterUnits="userSpaceOnUse" color-interpolation-filters="sRGB">
<feFlood flood-opacity="0" result="BackgroundImageFix"/>
<feBlend mode="normal" in="SourceGraphic" in2="BackgroundImageFix" result="shape"/>
<feColorMatrix in="SourceAlpha" type="matrix" values="0 0 0 0 0 0 0 0 0 0 0 0 0 0 0 0 0 0 127 0" result="hardAlpha"/>
<feOffset dy="3.41046"/>
<feGaussianBlur stdDeviation="1.70523"/>
<feComposite in2="hardAlpha" operator="arithmetic" k2="-1" k3="1"/>
<feColorMatrix type="matrix" values="0 0 0 0 0 0 0 0 0 0 0 0 0 0 0 0 0 0 0.25 0"/>
<feBlend mode="normal" in2="shape" result="effect1_innerShadow_8704_1987"/>
</filter>
<filter id="filter7_i_8704_1987" x="74.2139" y="115.14" width="601.7" height="465.761" filterUnits="userSpaceOnUse" color-interpolation-filters="sRGB">
<feFlood flood-opacity="0" result="BackgroundImageFix"/>
<feBlend mode="normal" in="SourceGraphic" in2="BackgroundImageFix" result="shape"/>
<feColorMatrix in="SourceAlpha" type="matrix" values="0 0 0 0 0 0 0 0 0 0 0 0 0 0 0 0 0 0 127 0" result="hardAlpha"/>
<feOffset dy="3.41046"/>
<feGaussianBlur stdDeviation="1.70523"/>
<feComposite in2="hardAlpha" operator="arithmetic" k2="-1" k3="1"/>
<feColorMatrix type="matrix" values="0 0 0 0 0 0 0 0 0 0 0 0 0 0 0 0 0 0 0.25 0"/>
<feBlend mode="normal" in2="shape" result="effect1_innerShadow_8704_1987"/>
</filter>
<filter id="filter8_d_8704_1987" x="64.7213" y="105.672" width="620.659" height="481.283" filterUnits="userSpaceOnUse" color-interpolation-filters="sRGB">
<feFlood flood-opacity="0" result="BackgroundImageFix"/>
<feColorMatrix in="SourceAlpha" type="matrix" values="0 0 0 0 0 0 0 0 0 0 0 0 0 0 0 0 0 0 127 0" result="hardAlpha"/>
<feOffset/>
<feGaussianBlur stdDeviation="21.3154"/>
<feComposite in2="hardAlpha" operator="out"/>
<feColorMatrix type="matrix" values="0 0 0 0 0 0 0 0 0 0 0 0 0 0 0 0 0 0 0.6 0"/>
<feBlend mode="normal" in2="BackgroundImageFix" result="effect1_dropShadow_8704_1987"/>
<feBlend mode="normal" in="SourceGraphic" in2="effect1_dropShadow_8704_1987" result="shape"/>
</filter>
<linearGradient id="paint0_linear_8704_1987" x1="-27.8597" y1="94.2901" x2="628.69" y2="695.76" gradientUnits="userSpaceOnUse">
<stop offset="0.125" stop-color="#89D0FF"/>
<stop offset="0.4" stop-color="#EBBF9A"/>
<stop offset="0.635" stop-color="#EB8280"/>
<stop offset="0.88" stop-color="#A281FF"/>
</linearGradient>
<linearGradient id="paint1_linear_8704_1987" x1="25.2098" y1="111.98" x2="634.56" y2="679.98" gradientUnits="userSpaceOnUse">
<stop offset="0.125" stop-color="#89D0FF"/>
<stop offset="0.4" stop-color="#EBBF9A"/>
<stop offset="0.635" stop-color="#EB8280"/>
<stop offset="0.88" stop-color="#A281FF"/>
</linearGradient>
<linearGradient id="paint2_linear_8704_1987" x1="74.3498" y1="123.77" x2="607.06" y2="658.15" gradientUnits="userSpaceOnUse">
<stop offset="0.125" stop-color="#89D0FF"/>
<stop offset="0.4" stop-color="#EBBF9A"/>
<stop offset="0.635" stop-color="#EB8280"/>
<stop offset="0.88" stop-color="#A281FF"/>
</linearGradient>
<linearGradient id="paint3_linear_8704_1987" x1="60.5903" y1="159.15" x2="621.21" y2="642.97" gradientUnits="userSpaceOnUse">
<stop offset="0.125" stop-color="#89D0FF"/>
<stop offset="0.4" stop-color="#EBBF9A"/>
<stop offset="0.635" stop-color="#EB8280"/>
<stop offset="0.88" stop-color="#A281FF"/>
</linearGradient>
<linearGradient id="paint4_linear_8704_1987" x1="80.24" y1="125.74" x2="618.49" y2="654.16" gradientUnits="userSpaceOnUse">
<stop offset="0.125" stop-color="#89D0FF"/>
<stop offset="0.4" stop-color="#EBBF9A"/>
<stop offset="0.635" stop-color="#EB8280"/>
<stop offset="0.88" stop-color="#A281FF"/>
</linearGradient>
<linearGradient id="paint5_linear_8704_1987" x1="70.4098" y1="135.57" x2="609.7" y2="640.57" gradientUnits="userSpaceOnUse">
<stop offset="0.125" stop-color="#89D0FF"/>
<stop offset="0.4" stop-color="#EBBF9A"/>
<stop offset="0.635" stop-color="#EB8280"/>
<stop offset="0.88" stop-color="#A281FF"/>
</linearGradient>
<linearGradient id="paint6_linear_8704_1987" x1="94.0003" y1="113.95" x2="598.09" y2="633.88" gradientUnits="userSpaceOnUse">
<stop offset="0.125" stop-color="#89D0FF"/>
<stop offset="0.4" stop-color="#EBBF9A"/>
<stop offset="0.635" stop-color="#EB8280"/>
<stop offset="0.88" stop-color="#A281FF"/>
</linearGradient>
<linearGradient id="paint7_linear_8704_1987" x1="93.9999" y1="125.74" x2="602.65" y2="629.92" gradientUnits="userSpaceOnUse">
<stop offset="0.125" stop-color="#89D0FF"/>
<stop offset="0.4" stop-color="#EBBF9A"/>
<stop offset="0.635" stop-color="#EB8280"/>
<stop offset="0.88" stop-color="#A281FF"/>
</linearGradient>
</defs>
</svg>
