<svg xmlns="http://www.w3.org/2000/svg" width="730" height="731" fill="none"><mask id="a" width="730" height="731" x="0" y="0" maskUnits="userSpaceOnUse" style="mask-type:alpha"><path fill="#0054FA" d="M729.84 365.65C729.84 164.22 566.55.92 365.11.92 163.68.92.38 164.22.38 365.65c0 201.44 163.3 364.74 364.73 364.74 201.44 0 364.73-163.3 364.73-364.74Z"/></mask><g mask="url(#a)"><g filter="url(#b)"><path fill="#0054FA" d="M575.59 809.59h-11.24c-2.65 0-5.34-.04-7.95-.11-14.48-.41-29.04-1.99-43.37-4.76a286.675 286.675 0 0 1-45.2 4.28c-1.59 0-3.17.03-4.86.03h-2.4c-4.13 0-8.25 0-12.42-.03h-.58c-4.35 0-9.25-.04-13.78-.04h-4.9l-166.38.63V808c-10.69-.66-21.3-1.95-31.83-3.87a271.677 271.677 0 0 1-48.52 4.39h-57.07c-89.38 0-171.57-40.86-225.55-112.11l-.48-.62c-55.92-74.28-71.76-171.46-42.4-260.03l20-60.09c8.18-24.57 18.65-48.55 31.25-71.36a284.387 284.387 0 0 1-1.85-32.2c0-17.94 1.74-35.95 5.12-53.56.23-7.22.7-14.44 1.52-21.55 4.53-41.52 18.78-81.94 41.3-117.12C-34.62 50.44-19.04 23.22.38-1.02 58.22-73.64 148.23-117 241.21-117c92.99 0 38.95 1.88 57.99 5.56 15.44 2.99 27.78 6.56 52.21 14.04h.03c3.21.99 5.13 1.58 6.3 1.92 31.73 8.76 61.94 22.21 89.83 39.93a331.505 331.505 0 0 1 58.17 46.94 368.053 368.053 0 0 1 72.65 45.68 345.182 345.182 0 0 1 72.32 24.68c33.27 15.62 63.74 36.36 90.56 61.56a348.058 348.058 0 0 1 66.76 86.06 346.607 346.607 0 0 1 24.61 55.89c10.9 14.89 20.26 30.4 28.55 47.23 9.39 19.01 14.85 35.48 17.31 42.88l1.07 2.95 1.44 4.61c.26.73.77 2.32 1.92 5.63l.11.3c8.58 24.98 14.99 44.43 19.34 67.71l.07.33c10.98 59.06 5.6 120.03-15.55 176.32-.14.37-.33.93-.51 1.48l-.66 1.8a410.8 410.8 0 0 1-2.29 6.23c-18.79 50.99-51.61 95.34-94.98 128.35-44.5 33.9-97.41 53.87-153.04 57.73l-3.68.26-10.8.44h-45.39l.04.08Z"/></g><path stroke="url(#c)" stroke-miterlimit="10" stroke-width="5.116" d="M241.21-114.44c23.25 0 37.28.12 45.54.35 2.26.06 4.06.13 5.5.21 0 .02 0 .03-.01.04-.32 1.56.61 2.64 1.26 3.14.62.47 1.39.79 2.15 1.03.61.19 1.33.38 2.18.56l.89.18c15.29 2.96 27.51 6.5 51.94 13.97l.37.12h.03c2.2.68 3.78 1.17 4.93 1.51l1.06.31h.01c30.49 8.43 59.58 21.21 86.53 37.99l2.6 1.64c21.02 13.34 40.4 29.03 57.73 46.57l.31.32.41.2a365.7 365.7 0 0 1 72.15 45.36l.46.38.59.13a341.792 341.792 0 0 1 69.62 23.49l2.16 1.01c32.51 15.26 62.33 35.45 88.65 59.94l1.25 1.17a345.102 345.102 0 0 1 65.44 83.94l.83 1.49a343.53 343.53 0 0 1 24.42 55.47l.13.38.23.31c10.48 14.3 19.52 29.18 27.55 45.29l.77 1.56h.01c9.31 18.85 14.72 35.18 17.18 42.56l.02.07 1.05 2.88 1.42 4.56.01.04.02.04c.26.76.74 2.23 1.91 5.63l.01.03.01.03.1.27c8.58 24.96 14.93 44.24 19.23 67.31l.01.04.01.05.06.27c10.89 58.59 5.55 119.08-15.43 174.93-.17.43-.37 1.02-.53 1.51l-.66 1.78v.02c-.88 2.46-1.65 4.54-2.27 6.19h-.01v.01c-18.33 49.74-50.14 93.12-92.12 125.67l-2.01 1.54c-43.42 33.07-94.9 52.76-149.08 57.02l-2.59.19-3.65.26-10.68.44h-49.49l.03.07h-7.1c-1.97 0-3.96-.02-5.93-.06l-1.95-.05c-14.34-.4-28.76-1.97-42.95-4.71l-.46-.09-.47.08c-13.9 2.43-27.99 3.84-42 4.18l-2.76.06c-.81 0-1.62.01-2.42.02-.81.01-1.61.02-2.45.02h-2.39c-4.13 0-8.24 0-12.39-.04h-.61c-2.17 0-4.48-.01-6.82-.02-2.33-.01-4.69-.02-6.96-.02h-4.91l-163.81.62v-1.42l-2.4-.15c-10.59-.66-21.1-1.93-31.54-3.83l-.45-.08-.46.08a269.381 269.381 0 0 1-48.06 4.34h-57.07c-87.89 0-168.75-39.85-222.25-109.44l-1.26-1.65-.01-.01-.47-.63c-55.41-73.59-71.11-169.9-42.01-257.66l20-60.09c8.13-24.42 18.53-48.26 31.05-70.93l.4-.72-.09-.81a281.587 281.587 0 0 1-1.83-31.91c0-17.77 1.72-35.63 5.08-53.08l.04-.2v-.2c.21-6.72.64-13.42 1.35-20.03l.15-1.31v-.02c4.49-41.12 18.61-81.16 40.91-116.01l.14-.22.09-.24C-32.68 52.52-17.83 26.3.58 2.84L2.38.57c57.36-72 146.62-115.01 238.83-115.01Z"/><g filter="url(#d)"><path fill="#0054FA" d="M575.59 776.43h-11.24c-2.32 0-4.68 0-7-.11-14.77-.4-29.55-2.24-44.03-5.38-15.18 3.03-30.61 4.68-45.97 4.9h-6.75c-4.09 0-8.21 0-12.34-.03h-.33c-4.46 0-9.51-.04-14.15-.04h-5.05l-133.1.48v-.96h-16.22c-16.39 0-32.78-1.69-48.81-5.01-15.95 3.32-32.24 4.97-48.52 4.97h-57.07c-78.88 0-151.49-36.06-199.13-98.95l-.4-.55c-49.34-65.51-63.3-151.35-37.36-229.6l20-60.05c8.66-26.08 20.16-51.39 34.16-75.19a248.952 248.952 0 0 1-3.06-38.87c0-16.76 1.69-33.52 5.04-49.92.15-7.22.59-14.47 1.37-21.58 4.12-37.66 17.28-74.09 38.09-105.63C-6.04 67.39 8.3 42.08 26.31 19.61c51.58-64.77 131.9-103.45 214.9-103.45s34.7 1.66 51.69 4.94c13.96 2.69 25.05 5.93 48.81 13.19h.08c3.61 1.14 5.63 1.73 6.74 2.06 28.7 7.92 56.04 20.04 81.24 36.07 20.74 13.19 39.68 28.77 56.36 46.42 27.97 12.74 53.98 29.21 77.48 48.99a311.81 311.81 0 0 1 72.99 23.88c30.1 14.14 57.69 32.9 81.97 55.74a314.5 314.5 0 0 1 60.42 77.88c9.73 17.68 17.72 36.29 23.87 55.41 11.09 14.55 20.45 29.8 28.59 46.38 8.44 17.06 13.3 31.76 15.7 39.05l.99 2.73 1.33 4.27c.18.56.7 2.1 2.1 6.16l.11.29c8.36 24.39 14.15 41.92 18.13 63.07v.3c9.94 53.12 5.08 108.01-13.97 158.71-.14.4-.37 1.03-.62 1.69l-.67 1.77c-.88 2.43-1.62 4.49-2.24 6.08-16.62 45.06-45.65 84.29-83.97 113.47-39.34 29.95-86.1 47.6-135.24 51.02l-3.21.22-9.65.41h-44.76l.11.07Z"/></g><path stroke="url(#e)" stroke-miterlimit="10" stroke-width="5.116" d="M241.21-81.28c20.75 0 33.26.1 40.63.31 1.83.05 3.33.11 4.54.17-.15 1.37.69 2.32 1.27 2.77.59.45 1.32.75 2 .97.55.17 1.2.34 1.97.51l.79.16h.01c13.81 2.66 24.77 5.86 48.55 13.12l.36.11h.07c3.39 1.08 5.34 1.64 6.39 1.96l.06.01a297.298 297.298 0 0 1 78.19 34.29l2.35 1.47v.01c20.57 13.07 39.34 28.52 55.89 46.01l.34.37.45.2c27.75 12.65 53.57 29 76.9 48.63l.5.43.65.13c24.14 4.7 47.7 12.29 70.21 22.66l2.18 1.01a312.624 312.624 0 0 1 80.18 54.23l1.13 1.06a312.165 312.165 0 0 1 59.19 75.91l.74 1.34c9.65 17.54 17.58 36 23.68 54.96l.13.42.27.35c10.64 13.96 19.67 28.58 27.57 44.42l.76 1.54v.01c8.35 16.88 13.17 31.44 15.56 38.71l.01.04.02.04.97 2.66 1.31 4.22.01.05c.19.56.71 2.12 2.11 6.18l.01.03.01.03.1.27c8.33 24.28 14.04 41.61 17.98 62.45v.28l.04.24c9.86 52.66 5.04 107.08-13.84 157.34l-.01.02c-.16.44-.36 1.02-.61 1.64v.02l-.01.01-.66 1.77-.01.01v.02c-.9 2.46-1.61 4.47-2.22 6.01l-.01.03-.01.02c-16.19 43.91-44.29 82.22-81.35 110.96l-1.77 1.36c-38.34 29.19-83.78 46.57-131.59 50.34l-2.28.17-3.17.22-9.57.4h-53.15l.11.08h-2.79c-2.33 0-4.63 0-6.88-.11h-.05l-1.37-.05c-14.15-.47-28.3-2.27-42.19-5.28l-.51-.11-.53.11c-15.03 2.99-30.31 4.63-45.51 4.85h-6.71c-4.09 0-8.2 0-12.32-.04h-.35c-2.22 0-4.59-.01-7-.02-2.39-.01-4.82-.02-7.15-.02h-5.05l-130.55.47v-.95h-18.76c-16.22 0-32.45-1.67-48.3-4.95l-.52-.11-.52.11a236.036 236.036 0 0 1-48 4.92h-57.07c-78.07 0-149.92-35.69-197.07-97.92l-.4-.55-.01-.01-.01-.01-1.14-1.52c-47.9-64.64-61.31-148.88-35.83-225.73h-.01l20.01-60.05c8.6-25.91 20.02-51.06 33.93-74.7l.46-.79-.14-.91c-2-12.69-3.02-25.6-3.02-38.47 0-16.59 1.67-33.18 4.99-49.4l.05-.23v-.23c.15-7.16.59-14.34 1.35-21.37 4.08-37.24 17.1-73.29 37.69-104.49l.16-.24.1-.27c9.83-26.42 23.46-50.77 40.53-72.5l1.66-2.1v-.01C79.4-42.95 158.98-81.28 241.21-81.28Z"/><g filter="url(#f)"><path fill="#0054FA" d="M575.59 743.28h-11.2c-1.99 0-4.01 0-6-.08-15.07-.44-30.07-2.5-44.69-6.22a221.97 221.97 0 0 1-46.83 5.71h-6.12c-4.08 0-8.21 0-12.34-.04h-.29c-4.5 0-9.58-.04-14.3-.04h-5.15l-99.85-.44H279.49c-16.47 0-32.82-1.95-48.81-5.82a204.921 204.921 0 0 1-48.52 5.82h-57.07c-68.42 0-131.38-31.28-172.72-85.84l-.33-.44c-42.84-56.88-54.97-131.38-32.42-199.27l20.01-60.02c7.99-24.02 18.6-47.34 31.53-69.26 1.96-3.31 3.98-6.63 6.08-9.95-3.2-14.84-4.82-30.02-4.82-45.31 0-15.55 1.69-31.09 5.01-46.24 0-7.25.44-14.51 1.21-21.66 3.69-33.78 15.73-66.2 34.89-94.09 9.1-25.6 22.11-49.04 38.69-69.74 45.35-56.99 115.97-91.03 188.99-91.03 73.02 0 97.12 18.6 98.15 18.9C365-24.75 389.43-13.92 411.98.41c20.3 12.9 38.61 28.34 54.45 45.95.62.25 1.21.51 1.77.77 29.51 12.93 56.59 30.32 80.57 51.76 25.38 4.13 50.14 11.79 73.72 22.84 26.93 12.68 51.62 29.44 73.35 49.88 21.63 20.34 39.83 43.77 54.09 69.71 9.61 17.5 17.35 35.95 23.02 54.96 11.31 14.22 20.74 29.15 28.74 45.47 7.55 15.28 11.94 28.7 14.07 35.14v.08l.96 2.54 1.22 3.87c.11.36.59 1.76 2.28 6.7l.11.3c7.92 23.02 13.34 39.49 16.91 58.39v.22c8.84 47.23 4.5 96.01-12.45 141.06-.15.45-.44 1.18-.7 1.92l-.63 1.77c-.88 2.39-1.58 4.38-2.17 5.93-14.41 39.12-39.64 73.24-72.95 98.59-34.19 26.01-74.79 41.37-117.45 44.35l-2.76.19-8.48.36h-44.02l-.04.12Z"/></g><path stroke="url(#g)" stroke-miterlimit="10" stroke-width="5.116" d="M241.21-48.13c36.3 0 60.32 4.63 75.32 9.23 7.5 2.3 12.76 4.6 16.18 6.32 1.71.86 2.96 1.58 3.82 2.1.44.26.76.45 1.03.62.13.08.26.16.38.23.03.01.21.12.46.21l.26.09.01.01h.01c24.61 6.75 48.08 17.03 69.82 30.57l2.1 1.32c20.11 12.78 38.24 28.06 53.93 45.5l.39.43.54.22c.59.24 1.14.49 1.66.73l.02.01.03.01a300.794 300.794 0 0 1 79.9 51.33l.55.5.74.11c25.15 4.09 49.68 11.68 73.04 22.64a279.333 279.333 0 0 1 70.66 47.54l2.03 1.89c21.43 20.15 39.47 43.37 53.59 69.07 9.53 17.34 17.2 35.63 22.82 54.47l.14.47.31.39c10.85 13.63 19.94 27.91 27.7 43.48l.74 1.51.01.01c7.32 14.82 11.63 27.85 13.81 34.43v.12l.16.44.93 2.47 1.2 3.8c.14.47.66 2 2.3 6.77l.01.04.02.03.08.23c7.89 22.93 13.24 39.2 16.77 57.8v.22l.05.23c8.75 46.77 4.45 95.07-12.33 139.69l-.02.05-.02.04c-.05.17-.14.41-.27.76-.13.33-.27.72-.41 1.12l-.62 1.73c-.9 2.46-1.57 4.37-2.16 5.91l-.01.01v.02c-14.02 38.06-38.4 71.32-70.56 96.25l-1.54 1.18c-33.26 25.31-72.66 40.42-114.1 43.69l-1.98.15-2.74.18-8.38.37h-45.81l-.03.11h-9.36c-2 0-3.98 0-5.91-.07h-.02c-14.88-.44-29.69-2.48-44.13-6.15l-.61-.16-.6.14a218.544 218.544 0 0 1-46.25 5.65h-6.12c-4.09 0-8.2 0-12.31-.04h-.32c-2.24 0-4.63-.01-7.06-.02-2.42-.01-4.87-.02-7.24-.02h-5.14l-99.84-.44h-49.35c-16.26 0-32.42-1.93-48.21-5.75l-.6-.14-.61.14a202.38 202.38 0 0 1-47.91 5.75h-57.07c-67.09 0-128.85-30.42-169.72-83.56l-.96-1.26-.32-.44-.99-1.32C-88.44 596.99-100.06 524-77.95 457.42l20-60.01c7.69-23.1 17.82-45.56 30.12-66.72l1.2-2.05c1.94-3.29 3.95-6.58 6.03-9.88l.56-.88-.22-1.03a212.423 212.423 0 0 1-4.77-44.77c0-15.36 1.68-30.73 4.96-45.69l.05-.27v-.28c0-7.15.44-14.31 1.21-21.38 3.63-33.36 15.53-65.38 34.45-92.92l.19-.28.11-.31c8.73-24.55 21.08-47.07 36.75-67.07l1.52-1.93.01-.01c44.86-56.38 114.75-90.07 186.99-90.07Z"/><g filter="url(#h)"><path fill="#0054FA" d="M575.59 710.12h-11.23c-1.7 0-3.39 0-5.05-.08-15.36-.44-30.54-2.91-45.28-7.4-15.62 4.35-31.65 6.67-47.75 6.89H460.8c-4.09 0-8.22 0-12.35-.04h-.25c-4.54 0-9.66-.04-14.45-.04h-5.26l-66.58-1.32c-.37 0-.74.07-1.07.11l-2.13.18-2.14.15c-4.16.3-8.84.44-13.89.44h-63.22c-16.58 0-32.94-2.35-48.82-7-15.76 4.65-32.05 6.97-48.52 6.97h-57.06c-57.96 0-111.27-26.49-146.27-72.69l-.29-.37c-36.29-48.19-46.53-111.3-27.45-168.88l19.97-59.98A325.42 325.42 0 0 1-.35 344.18c4.16-7.04 8.58-13.93 13.26-20.67a182.18 182.18 0 0 1-7.41-51.43c0-14.37 1.7-28.66 5.05-42.55-.11-7.26.22-14.55 1-21.74 3.27-29.88 14.22-58.24 31.75-82.45 7.92-23.76 19.6-45.35 34.78-64.29 39.13-49.18 100.06-78.54 163.1-78.54 63.04 0 76.37 11.71 89.01 17.61 12.64 5.89 86.4 38.46 116.31 73.87 3.24 1.32 5.97 2.46 8.33 3.5 28.29 12.37 54.08 29.39 76.66 50.54l.3.26c.7.66 1.36 1.29 2.06 1.95 51.62 6.23 100.69 29.25 139.26 65.54 19.09 17.94 35.19 38.65 47.75 61.53 9.54 17.35 16.95 35.69 22.03 54.67 11.65 13.81 21.15 28.37 29.03 44.43 6.53 13.19 10.43 25.12 12.35 30.87l.18.55.85 2.32 1.07 3.39c.22.74 1.07 3.21 2.5 7.37l.11.3c7.41 21.59 12.53 36.99 15.66 53.71v.22c7.74 41.3 3.94 83.96-10.94 123.38-.22.59-.59 1.66-.96 2.65l-.44 1.26c-.85 2.32-1.55 4.23-2.1 5.74-12.23 33.24-33.64 62.19-61.93 83.74-29 22.11-63.48 35.11-99.7 37.66l-2.28.14-7.33.3h-43.33l-.04.11Z"/></g><path stroke="url(#i)" stroke-miterlimit="10" stroke-width="5.116" d="M241.18-14.93c31.37 0 50.21 2.91 62.7 6.49 12.54 3.6 18.59 7.78 25.23 10.88 6.35 2.96 27.85 12.53 51.51 25.78 23.73 13.29 49.29 30.09 63.93 47.42l.4.48.58.23c2.43.99 4.55 1.88 6.45 2.69l1.82.79c28.03 12.26 53.57 29.12 75.95 50.07l.06.06.26.22c.33.32.66.63.99.94.34.33.68.65 1.03.98l.62.58.84.1c50.26 6.06 98.11 28.24 136.02 63.19l1.79 1.68c18.3 17.2 33.83 36.97 46.08 58.77l1.18 2.12c9.44 17.17 16.77 35.33 21.8 54.1l.15.55.37.44c11.51 13.65 20.9 28.03 28.69 43.9l2.29-1.12-2.29 1.13c5.63 11.39 9.29 21.84 11.4 28.12l.81 2.43.18.55.03.07.82 2.26 1.06 3.34c.25.84 1.12 3.37 2.52 7.44l.01.03.02.03.1.26c7.37 21.49 12.41 36.67 15.5 53.09v.22l.05.23c7.53 40.2 4.01 81.71-10.14 120.18l-.68 1.83h-.01c-.17.48-.67 1.88-.96 2.67l-.01.03-.43 1.23-2.1 5.75c-11.88 32.25-32.52 60.43-59.78 81.58l-1.3 1c-28.6 21.8-62.61 34.63-98.32 37.13l-2.22.15-7.28.29h-45.11l-.04.11h-9.39c-1.71 0-3.34 0-4.94-.07h-.04a169.37 169.37 0 0 1-44.6-7.3l-.72-.21-.71.2c-15.42 4.28-31.22 6.57-47.1 6.79h-5.46c-4.09 0-8.2 0-12.31-.04h-.28c-2.26 0-4.67-.01-7.12-.01-2.44-.01-4.93-.02-7.33-.02h-5.26l-66.53-1.33h-.05c-.52 0-1.26.11-1.34.12l-2.04.18-2.14.15c-4.09.29-8.71.43-13.71.43h-63.22c-16.33 0-32.45-2.32-48.1-6.89l-.72-.21-.72.21c-15.53 4.57-31.57 6.86-47.8 6.86h-57.06c-57.16 0-109.71-26.12-144.23-71.68l-.02-.02-.02-.03-.26-.33c-35.77-47.51-45.87-109.73-27.05-166.51l19.97-59.98c7.2-21.67 16.74-42.65 28.4-62.39 4.13-6.99 8.52-13.82 13.16-20.51l.7-1.01-.35-1.17a179.72 179.72 0 0 1-7.3-50.71c0-14.17 1.67-28.26 4.98-41.95l.07-.32v-.32c-.11-7.15.22-14.34.98-21.42 3.23-29.44 14.01-57.38 31.29-81.23l.23-.32.12-.37c7.58-22.75 18.65-43.47 32.95-61.74l1.4-1.76c38.64-48.57 98.84-77.58 161.1-77.58Z"/><g filter="url(#j)"><path fill="#0054FA" d="M575.59 676.96h-11.2c-1.37 0-2.77 0-4.13-.08-15.58-.44-31.13-3.53-45.72-9.1-15.69 5.42-32.31 8.37-48.74 8.59H460.94c-4.09 0-8.22 0-12.35-.04h-.22c-4.57 0-9.72-.03-14.55-.03h-5.38l-33.27-1.33c-5.56-.77-11.05-1.92-16.5-3.35a137.67 137.67 0 0 1-20.85 3.57l-1.7.15-1.69.11c-3.43.22-7.37.37-11.65.37H279.53c-16.66 0-33.27-2.99-48.82-8.74a139.624 139.624 0 0 1-48.52 8.74h-57.07c-47.49 0-91.14-21.7-119.84-59.58l-.22-.29c-29.74-39.49-38.14-91.26-22.48-138.49l19.97-59.94c6.52-19.63 15.18-38.64 25.72-56.51a292.13 292.13 0 0 1 21.81-31.9c-7.52-18.24-11.31-37.43-11.31-57.03 0-13.23 1.73-26.27 5.15-38.91-.33-7.26-.11-14.55.67-21.77 2.83-25.97 12.71-50.22 28.66-70.62 6.67-22 17.02-41.86 30.8-59.02 32.86-41.38 84.33-61.93 137.16-66.1 52.83-4.16 79.14 16.14 79.91 16.36 41.49 11.2 78.58 35.66 104.56 68.93.15.18.29.37.44.59 7.41 2.95 11.9 4.83 15.36 6.34a236.563 236.563 0 0 1 67.31 44.39l.22.22c2.88 2.69 5.72 5.53 8.48 8.22 0 0 1.07 1.03 1.51 1.47 48.63 3.28 95.09 23.69 131.38 57.77 16.58 15.58 30.5 33.52 41.41 53.34 9.43 17.17 16.43 35.37 20.81 54.23 1.44 1.73 2.77 3.28 3.43 4.05 10.57 12.27 19.12 25.2 26.12 39.5 5.49 11.05 8.77 21.11 10.57 26.56 0 0 .3.85.34 1.03l.77 2.14.88 2.76c.37 1.14 2.07 6.12 2.8 8.29l.08.15c6.96 20.22 11.71 34.55 14.44 49.03v.19c6.59 35.33 3.35 71.87-9.4 105.66-.22.62-.73 2.02-1.17 3.24l-.37.99c-.85 2.29-1.51 4.17-2.07 5.64-10.05 27.3-27.66 51.14-50.91 68.86-23.84 18.16-52.17 28.84-81.9 30.94l-1.84.11-6.19.26h-42.67l.08.04Z"/></g><path stroke="url(#k)" stroke-miterlimit="10" stroke-width="5.116" d="M241.41 18.21c26.05-2.05 45.48 1.93 58.44 6.41 6.49 2.23 11.37 4.6 14.66 6.41 1.64.9 2.89 1.67 3.75 2.21.44.28.77.5 1.03.67.12.07.25.16.36.22.05.03.13.08.21.12.03.02.16.09.35.16l.21.07.03.01c40.96 11.06 77.59 35.21 103.21 68.03l.01.02.01.01c.15.19.23.29.31.41l.44.66.74.3c7.39 2.94 11.86 4.8 15.29 6.3a234.337 234.337 0 0 1 66.57 43.9l.21.21.03.03c1.42 1.33 2.83 2.7 4.23 4.07l4.2 4.11.01.01c.01 0 .01 0 .01.01.01.01.02.02.04.03l.12.12c.11.1.26.25.42.4.32.32.68.67.89.88l.68.68.96.06c47.28 3.19 92.49 22.77 128.11 55.51l1.69 1.57c15.87 14.92 29.28 32.02 39.9 50.88l1.02 1.84c9.32 16.96 16.23 34.94 20.56 53.57l.14.59.38.47c.73.87 1.43 1.7 2.03 2.4l1.43 1.68c10.43 12.11 18.86 24.86 25.76 38.95l.01.01v.01c5.4 10.87 8.63 20.77 10.43 26.22l.01.02.01.02v.01s0 .01.01.02c.01.02.02.06.03.09.03.08.06.19.1.3.04.11.07.21.1.29 0 .03.01.05.01.06l.02.11.07.18.75 2.09.88 2.72v.01c.37 1.16 2.08 6.17 2.81 8.32l.06.17.07.15c6.91 20.06 11.56 34.14 14.25 48.29v.17l.04.24c6.51 34.87 3.31 70.94-9.27 104.28l-.01.03-.01.03-1.17 3.22-.36.97c-.89 2.39-1.49 4.12-2.06 5.63l-.01.02c-9.73 26.42-26.66 49.54-49 66.88l-1.06.82c-23.44 17.86-51.29 28.36-80.51 30.43l-1.84.11-6.07.25h-53.46l.08.04h-.37c-1.38 0-2.71 0-3.99-.07h-.07l-1.43-.05c-14.82-.58-29.57-3.6-43.45-8.89l-.87-.33-.87.31c-15.44 5.32-31.77 8.22-47.91 8.44h-4.86c-4.1 0-8.21 0-12.32-.04h-.25c-2.28 0-4.7 0-7.17-.01-2.46-.01-4.96-.02-7.38-.02h-5.33l-33.09-1.32c-5.4-.76-10.75-1.87-16.08-3.28l-.64-.17-.64.17c-6.3 1.59-12.7 2.71-19.17 3.38l-1.28.12-1.67.15-1.66.11c-3.37.21-7.26.36-11.48.36h-63.25c-16.35 0-32.67-2.93-47.93-8.57l-.89-.33-.89.33a137.16 137.16 0 0 1-47.63 8.57h-57.07c-46.32 0-88.92-20.99-117.14-57.69l-.67-.87-.21-.28v-.01l-.68-.91c-28.67-38.7-36.69-89.15-21.41-135.23l19.97-59.94a290.653 290.653 0 0 1 25.49-56.02 290.81 290.81 0 0 1 21.62-31.62l.92-1.18-.57-1.38c-7.39-17.93-11.12-36.79-11.12-56.05 0-13.01 1.71-25.82 5.07-38.24l.11-.38-.02-.4c-.33-7.13-.11-14.3.65-21.39 2.78-25.5 12.48-49.29 28.13-69.32l.3-.38.14-.45c6.37-21.02 16.15-40.04 29.08-56.57l1.26-1.59.01-.01c32.3-40.66 83.01-61.01 135.36-65.14Z"/><g filter="url(#l)"><path fill="#0054FA" d="M575.59 643.8h-11.2c-1.07 0-2.1 0-3.13-.03-15.95-.44-31.87-4.57-46.01-11.94-15.59 7.19-32.72 11.16-49.92 11.39h-4.24c-4.13 0-8.25 0-12.38-.04h-.15c-4.6 0-9.8-.04-14.7-.04h-5.52c-2.36 0-13.71.04-13.82.04-12.12 0-24.2-2.1-35.59-6.19-7.81 2.69-15.91 4.42-24.2 5.19l-1.26.11-1.29.08c-2.72.18-5.89.29-9.39.29h-63.26c-17.17 0-33.86-4.09-48.85-11.71a106.434 106.434 0 0 1-48.48 11.71h-57.07c-37.03 0-71.07-16.91-93.43-46.42l-.19-.22c-23.17-30.8-29.73-71.21-17.5-108.09l19.97-59.9a259.228 259.228 0 0 1 55.63-94.24c-3.39-5.42-6.33-11.13-8.8-17.06-5.93-14.29-8.92-29.29-8.92-44.65 0-12.08 1.84-23.87 5.53-35.22-.7-7.26-.67-14.55.15-21.81 2.39-21.85 11.42-42.26 25.78-58.58.04-.14.63-2.61.63-2.61l.63-2.1c5.41-18.5 13.96-35.08 25.38-49.3 26.64-33.56 68.23-53.6 111.26-53.6s69.41 14.66 70.92 15.1c34.75 9.33 65.77 29.7 87.43 57.44 1.73 2.25 3.72 4.86 5.71 7.55 12.42 4.98 18.86 7.55 22.92 9.32 21.4 9.36 40.89 22.22 57.98 38.21l.19.14c2.58 2.44 5.3 5.13 7.92 7.7l.11.11c1.29 1.26 2.62 2.58 3.46 3.39l.41.37 6.78 6.63c2.65.04 5.01.11 7.15.19h.62c42.44 1.88 83.26 19.34 114.95 49.11 28.26 26.56 47.23 61.15 54.19 98.36 3.76 4.5 7.67 9.1 9.03 10.76 8.73 10.13 15.77 20.74 21.51 32.49 4.46 8.99 7.19 17.32 8.81 22.29v.11c.18.45.37 1.07.52 1.48l.66 1.84.66 2.06c.48 1.51 1.99 5.9 3.1 9.18v.11c6.52 18.82 10.94 32.08 13.22 44.39v.15c5.49 29.4 2.77 59.83-7.84 87.94-.3.77-1 2.69-1.52 4.12l-.14.41c-.81 2.21-1.48 4.05-1.99 5.45-7.85 21.4-21.67 40.08-39.94 53.97-18.68 14.22-40.86 22.62-64.14 24.24l-1.36.11-5.01.22h-41.97Z"/></g><path stroke="url(#m)" stroke-miterlimit="10" stroke-width="5.116" d="M241.25 51.42c21.23 0 38.33 3.61 50.29 7.27 5.98 1.83 10.67 3.67 13.96 5.08 1.64.7 2.94 1.3 3.88 1.74.45.21.86.4 1.15.54.17.07.43.19.68.29l.25.08.02.01.03.01c33.68 9.03 63.81 28.62 85.07 55.26l1 1.27c1.73 2.24 3.7 4.84 5.67 7.5l.44.59.67.27c10.88 4.36 17.14 6.86 21.22 8.59l1.62.7c21.14 9.24 40.38 21.93 57.27 37.73l.07.06.08.06.09.08c2.53 2.39 5.21 5.03 7.8 7.58l.11.11.01.02.02.01c1.23 1.2 2.63 2.6 3.48 3.4l.02.03.02.02.39.35 6.73 6.58.73.72 1.02.01c2.63.04 4.97.11 7.1.18l.04.01h.62c41.79 1.86 82.01 19.06 113.25 48.41 27.86 26.2 46.57 60.31 53.43 96.97l.12.66.43.51c3.78 4.53 7.66 9.09 9.01 10.74l.02.03.02.02c8.59 9.97 15.51 20.4 21.16 31.95v.01c4.26 8.59 6.91 16.57 8.54 21.56v.21l.2.48c.17.41.22.66.47 1.35l.64 1.79.66 2.03c.47 1.49 1.89 5.63 2.97 8.82v.12l.14.4c6.49 18.75 10.83 31.78 13.08 43.8v.14l.05.24c5.32 28.48 2.8 57.95-7.24 85.26l-.49 1.29c-.3.8-1 2.73-1.52 4.17l-.14.4-1.99 5.45c-7.56 20.62-20.78 38.65-38.25 52.17l-.84.65c-18.28 13.92-39.99 22.14-62.77 23.72h-.03l-1.31.11-4.92.22h-53.1c-1.07 0-2.06 0-3.04-.04h-.02c-15.56-.43-31.1-4.46-44.9-11.65l-1.12-.58-1.13.53c-15.27 7.04-32.05 10.93-48.89 11.15h-4.2c-4.13 0-8.24 0-12.36-.04h-.17c-2.29 0-4.74-.01-7.23-.02-2.48-.01-5.01-.02-7.47-.02h-5.52c-1.19 0-4.62.01-7.76.02-1.57.01-3.08.01-4.19.01-.56.01-1.02.01-1.35.01h-.52c-11.83 0-23.62-2.05-34.72-6.04l-.85-.3-.85.29c-7.14 2.46-14.53 4.1-22.1 4.91l-1.51.16-1.2.1-1.25.07-.01.01h-.02c-2.66.18-5.77.28-9.22.28h-63.26c-16.76 0-33.05-3.99-47.69-11.43l-1.16-.6-1.17.6a103.816 103.816 0 0 1-47.31 11.43h-57.07c-36.23 0-69.52-16.53-91.39-45.4l-.04-.05-.04-.04-.14-.17c-22.63-30.12-29.04-69.63-17.08-105.7l19.97-59.9v-.01a256.955 256.955 0 0 1 55.08-93.31l1.33-1.43-1.04-1.66c-3.11-4.96-5.83-10.18-8.15-15.6l-.46-1.08c-5.8-13.99-8.72-28.65-8.72-43.67 0-11.82 1.8-23.34 5.4-34.43l.16-.51-.05-.53c-.64-6.64-.65-13.31.01-19.95l.14-1.33c2.33-21.33 11.14-41.24 25.16-57.17l.41-.46.16-.61c.02-.09.18-.76.33-1.39.07-.31.15-.63.21-.86.02-.12.05-.21.06-.28.01-.02.01-.03.01-.05l.61-2.02v-.01c5.33-18.19 13.73-34.47 24.93-48.41v-.02C158.14 71.11 199 51.42 241.25 51.42Z"/><g filter="url(#n)"><path fill="#0054FA" d="M575.59 610.65h-13.37c-11.06-.29-22.07-3.17-31.87-8.29a73.088 73.088 0 0 1-13.93-9.5c-14.81 10.86-33.12 16.98-51.61 17.24h-3.65c-4.13 0-8.25 0-12.42-.04h-.07c-4.9 0-9.95-.04-14.81-.04h-5.64l-13.7.04a72.38 72.38 0 0 1-35.34-9.21c-8.51 4.57-17.86 7.44-27.55 8.36l-.85.08-.85.07c-1.99.15-4.38.22-7.14.22H279.53c-18.13 0-35.55-6.63-48.89-18.42-13.41 11.86-30.51 18.39-48.45 18.39h-57.07c-26.52 0-50.95-12.13-66.98-33.31l-.11-.15c-16.65-22.1-21.29-51.13-12.49-77.69l19.94-59.87a226.831 226.831 0 0 1 65.54-98.84l4.05-3.58c-10.2-8.47-18.35-19.45-23.58-32.09-8.55-20.59-8.51-43.43-.04-63.58-1.36-7.15-1.69-14.52-.88-21.81 1.92-17.65 10.35-34.12 23.32-45.98.55-3.1 1.18-6.04 1.84-8.77l.34-1.44.4-1.4c4.2-14.33 10.76-27.07 19.45-37.91 20.41-25.78 52.32-41.15 85.37-41.15 33.04 0 60.71 13.52 62.07 13.93 27.93 7.4 52.84 23.72 70.15 45.87 1.84 2.39 4.16 5.49 6.41 8.54 1.18 1.59 2.36 3.17 2.99 4.02l.14.22c.41.55.85 1.14 1.29 1.69 2.36.93 5.09 2.03 7.56 3.03 11.75 4.67 19.19 7.66 23.02 9.35 17.94 7.85 34.3 18.61 48.63 32.05l.11.12c2.29 2.17 4.9 4.71 7.41 7.18 1.4 1.36 2.84 2.8 3.83 3.76l.18.18 16.4 16.06h3.83c6.85 0 11.68.08 15.69.22h.41c34.52 1.55 67.79 15.77 93.69 40.12 25.2 23.69 41.37 55.08 45.57 88.46.74.88 2.43 2.87 2.43 2.87 4.83 5.79 10.84 12.93 12.79 15.22 6.89 7.96 12.41 16.32 16.91 25.53 3.42 6.89 5.64 13.56 7.07 17.98.26.81.63 1.91.74 2.28l.51 1.4.45 1.4c.62 1.95 2.02 6.08 3.42 10.1 6.01 17.5 10.06 29.69 11.98 39.75v.11c4.38 23.47 2.21 47.74-6.3 70.22-.3.81-1.07 2.94-1.66 4.53l-.11.29c-.74 2.03-1.44 3.98-1.95 5.27-5.68 15.51-15.66 29.03-28.93 39.13-13.52 10.31-29.54 16.35-46.34 17.53l-.92.08-3.87.14H575.7l-.11.04Z"/></g><path stroke="url(#o)" stroke-miterlimit="10" stroke-width="5.116" d="M241.29 84.54c32.55 0 59.46 13.26 61.35 13.82l.03.01.04.01c27.39 7.27 51.81 23.27 68.77 44.95v.01c1.83 2.37 4.14 5.45 6.38 8.5h.01v.01c1.16 1.56 2.31 3.11 2.94 3.96l.11.17.04.05.03.04c.42.57.88 1.19 1.36 1.78l.42.54.64.25c1.17.45 2.44.96 3.71 1.47l3.82 1.54h.01c10.3 4.1 17.25 6.89 21.35 8.63l1.59.69.01.01a168.55 168.55 0 0 1 47.88 31.54l.07.08.03.03.02.02c2.27 2.16 4.88 4.69 7.37 7.15l.01.01c1.33 1.3 2.83 2.79 3.81 3.73v.01l.19.19.01.01 16.4 16.06.74.73h4.88c6.84 0 11.63.08 15.6.22h.42c33.35 1.51 65.54 15.06 90.82 38.31l1.2 1.12c24.78 23.29 40.66 54.14 44.78 86.91l.1.74.48.58c.37.45.99 1.18 1.5 1.78.26.31.5.59.67.79.08.1.15.18.2.23.03.03.05.05.06.07 0 .01.01.01.01.02h.01c4.82 5.78 10.82 12.93 12.78 15.22l.01.01c6.75 7.8 12.15 15.97 16.55 24.98l.01.02c2.92 5.87 4.94 11.59 6.36 15.88l.57 1.75c.28.89.61 1.88.72 2.23l.02.07.03.08.49 1.34.43 1.34v.01c.64 1.99 2.04 6.13 3.44 10.15 5.98 17.41 9.95 29.37 11.84 39.17v.1l.04.23c4.3 23 2.17 46.8-6.18 68.84v.02l-.01.01c-.29.82-1.06 2.94-1.65 4.51l-.11.3v.01l-.01.01c-.74 2.06-1.42 3.95-1.92 5.19l-.01.04-.02.03c-5.33 14.58-14.59 27.35-26.87 37.04l-1.19.93h-.01c-13.12 10.02-28.67 15.88-44.97 17.02h-.03l-.87.07-3.76.15h-41.56l-.11.03h-12.92c-10.31-.28-20.61-2.89-29.83-7.54l-.89-.46c-4.8-2.52-9.35-5.61-13.43-9.16l-1.54-1.35-1.65 1.21c-14.38 10.56-32.17 16.5-50.14 16.75h-3.61c-4.13 0-8.25 0-12.4-.04h-.09c-2.45 0-4.93-.01-7.41-.01-2.48-.01-4.96-.02-7.4-.02h-7.77c-1.27.01-2.97.01-4.67.02-1.71 0-3.42 0-4.71.01h-2.19a69.76 69.76 0 0 1-34.09-8.88l-1.22-.69-1.24.67c-8.21 4.41-17.23 7.18-26.57 8.07l-.84.07-.82.07c-1.9.14-4.23.21-6.95.21h-63.26c-17.51 0-34.33-6.4-47.2-17.77l-1.69-1.5-1.7 1.5c-12.94 11.45-29.43 17.74-46.75 17.74h-57.07c-25.32 0-48.65-11.38-64.2-31.33l-.74-.96-.1-.14v-.01l-.75-1c-15.53-21.3-19.77-48.97-11.36-74.35l19.93-59.86c12.34-37.11 34.24-70.45 63.41-96.5l1.4-1.23v-.01l4.05-3.57 2.24-1.98-2.29-1.91c-9.58-7.95-17.29-18.18-22.37-29.95l-.48-1.15h-.01l-.38-.93c-7.9-19.73-7.73-41.47.34-60.68l.3-.71-.14-.76a70.902 70.902 0 0 1-.99-19.73l.13-1.32v-.01c1.85-17.02 9.99-32.92 22.51-44.36l.64-.59.15-.85c.54-3.04 1.16-5.94 1.81-8.61l.01-.03.31-1.37.39-1.34c4.11-14.02 10.52-26.46 18.99-37.01v-.01l.01-.01c19.92-25.17 51.08-40.18 83.36-40.18Z"/><g filter="url(#p)"><path fill="#0054FA" d="M575.59 577.49h-12.42c-12.45-.33-28.58-5.97-34.33-16.95-5.75-10.97-6.89-35.62-6.89-35.62s-12.23 31.76-24.87 41c-9.36 7-21 10.91-32.83 11.06H461.2c-4.09 0-8.22 0-12.38-.04-4.94 0-10.06-.04-15.03-.04h-5.75l-13.56.04c-14.74 0-28.18-8.29-34.92-21.07-1.07 1.95-2.33 3.79-3.76 5.56-6.74 8.4-16.69 13.81-27.34 14.81h-.4c0 .04-.41.07-.41.07-1.62.11-3.76.11-4.9.11h-63.29c-11.54 0-22.33-4.71-29.88-13.04-5.09-5.49-8.48-12.38-9.84-20.04-.66-3.83-.74-7.22-.66-9.8v-10.91c-3.87 7.12-9.84 12.9-17.06 16.58-1.44 20.74-18.79 37.21-39.9 37.21h-57.07c-16.06 0-30.84-7.37-40.56-20.15l-.07-.07c-10.1-13.41-12.9-31.1-7.52-47.34l19.93-59.83c10.8-32.57 30.17-61.75 55.93-84.41l33.93-29.8a45.27 45.27 0 0 1-15.55-15.69c-13.11-4.57-23.69-14.59-29.14-27.78-5.6-13.56-5.09-28.63 1.44-41.38.84-1.73 2.1-4.2 3.35-6.74a39.706 39.706 0 0 1-3.39-21c1.18-10.64 6.59-20.48 14.92-27 .44-.33.81-.63 1.14-.88l.15-.12 1.4-1.03c2.21-1.77 3.79-4.57 4.24-7.37.47-3.68 1.29-9.02 2.5-14.03l.19-.7.22-.7c2.98-10.17 7.55-19.12 13.55-26.56 14.19-17.98 36.37-28.7 59.43-28.7 23.06 0 51.95 12.38 53.42 12.74 21.04 5.57 39.75 17.72 52.68 34.3 1.63 2.07 3.8 5.01 5.94 7.89 1.25 1.69 2.46 3.31 3.2 4.31l.08.11c.62.85 1.28 1.73 1.95 2.61 1.25 1.7 3.13 4.24 3.98 5.09l.22.18c1.03.96 2.25 1.77 3.53 2.29l.3.11c1.92.81 7.59 3.05 13.08 5.26 11.12 4.43 18.68 7.48 21.99 8.92a138.791 138.791 0 0 1 39.28 25.86h.07c2.03 1.96 4.49 4.39 6.85 6.71 1.51 1.51 2.95 2.91 4.06 3.98l21.55 21.11 1.58 1.58c.85.81 2.06 2.06 2.99 2.87h17.31c6.41 0 10.87.08 14.44.19h.22c26.6 1.18 52.32 12.23 72.44 31.17 19.85 18.67 32.45 43.28 35.51 69.4.48 3.14.66 5.94.74 8.29 2.17 2.58 5.41 6.45 9.06 10.8 5.16 6.19 11.05 13.19 13.08 15.54 5.01 5.83 9.06 11.9 12.31 18.57 2.39 4.79 4.01 9.69 5.3 13.67.41 1.25.81 2.47 1.11 3.28l.25.7.22.7c.74 2.36 2.18 6.56 3.69 10.98 5.34 15.58 9.25 27.22 10.72 35.07a97.89 97.89 0 0 1-4.75 52.5c-.33.92-1.14 3.06-1.81 4.94-.77 2.13-1.51 4.16-1.99 5.37-3.5 9.58-9.69 17.95-17.9 24.25-8.37 6.37-18.24 10.13-28.56 10.83h-.44l-2.72.14h-40.49l-.04.04Z"/></g><mask id="q" width="602" height="463" x="74" y="115" maskUnits="userSpaceOnUse" style="mask-type:luminance"><path fill="#fff" d="M575.59 577.49h-12.42c-12.45-.33-28.58-5.97-34.33-16.95-5.75-10.97-6.89-35.62-6.89-35.62s-12.23 31.76-24.87 41c-9.36 7-21 10.91-32.83 11.06H461.2c-4.09 0-8.22 0-12.38-.04-4.94 0-10.06-.04-15.03-.04h-5.75l-13.56.04c-14.74 0-28.18-8.29-34.92-21.07-1.07 1.95-2.33 3.79-3.76 5.56-6.74 8.4-16.69 13.81-27.34 14.81h-.4c0 .04-.41.07-.41.07-1.62.11-3.76.11-4.9.11h-63.29c-11.54 0-22.33-4.71-29.88-13.04-5.09-5.49-8.48-12.38-9.84-20.04-.66-3.83-.74-7.22-.66-9.8v-10.91c-3.87 7.12-9.84 12.9-17.06 16.58-1.44 20.74-18.79 37.21-39.9 37.21h-57.07c-16.06 0-30.84-7.37-40.56-20.15l-.07-.07c-10.1-13.41-12.9-31.1-7.52-47.34l19.93-59.83c10.8-32.57 30.17-61.75 55.93-84.41l33.93-29.8a45.27 45.27 0 0 1-15.55-15.69c-13.11-4.57-23.69-14.59-29.14-27.78-5.6-13.56-5.09-28.63 1.44-41.38.84-1.73 2.1-4.2 3.35-6.74a39.706 39.706 0 0 1-3.39-21c1.18-10.64 6.59-20.48 14.92-27 .44-.33.81-.63 1.14-.88l.15-.12 1.4-1.03c2.21-1.77 3.79-4.57 4.24-7.37.47-3.68 1.29-9.02 2.5-14.03l.19-.7.22-.7c2.98-10.17 7.55-19.12 13.55-26.56 14.19-17.98 36.37-28.7 59.43-28.7 23.06 0 51.95 12.38 53.42 12.74 21.04 5.57 39.75 17.72 52.68 34.3 1.63 2.07 3.8 5.01 5.94 7.89 1.25 1.69 2.46 3.31 3.2 4.31l.08.11c.62.85 1.28 1.73 1.95 2.61 1.25 1.7 3.13 4.24 3.98 5.09l.22.18c1.03.96 2.25 1.77 3.53 2.29l.3.11c1.92.81 7.59 3.05 13.08 5.26 11.12 4.43 18.68 7.48 21.99 8.92a138.791 138.791 0 0 1 39.28 25.86h.07c2.03 1.96 4.49 4.39 6.85 6.71 1.51 1.51 2.95 2.91 4.06 3.98l21.55 21.11 1.58 1.58c.85.81 2.06 2.06 2.99 2.87h17.31c6.41 0 10.87.08 14.44.19h.22c26.6 1.18 52.32 12.23 72.44 31.17 19.85 18.67 32.45 43.28 35.51 69.4.48 3.14.66 5.94.74 8.29 2.17 2.58 5.41 6.45 9.06 10.8 5.16 6.19 11.05 13.19 13.08 15.54 5.01 5.83 9.06 11.9 12.31 18.57 2.39 4.79 4.01 9.69 5.3 13.67.41 1.25.81 2.47 1.11 3.28l.25.7.22.7c.74 2.36 2.18 6.56 3.69 10.98 5.34 15.58 9.25 27.22 10.72 35.07a97.89 97.89 0 0 1-4.75 52.5c-.33.92-1.14 3.06-1.81 4.94-.77 2.13-1.51 4.16-1.99 5.37-3.5 9.58-9.69 17.95-17.9 24.25-8.37 6.37-18.24 10.13-28.56 10.83h-.44l-2.72.14h-40.49l-.04.04Z"/></mask><g mask="url(#q)"><path stroke="url(#r)" stroke-miterlimit="10" stroke-width="10.231" d="M575.59 577.49h-12.42c-12.45-.33-28.58-5.97-34.33-16.95-5.75-10.97-6.89-35.62-6.89-35.62s-12.23 31.76-24.87 41c-9.36 7-21 10.91-32.83 11.06H461.2c-4.09 0-8.22 0-12.38-.04-4.94 0-10.06-.04-15.03-.04h-5.75l-13.56.04c-14.74 0-28.18-8.29-34.92-21.07-1.07 1.95-2.33 3.79-3.76 5.56-6.74 8.4-16.69 13.81-27.34 14.81h-.4c0 .04-.41.07-.41.07-1.62.11-3.76.11-4.9.11h-63.29c-11.54 0-22.33-4.71-29.88-13.04-5.09-5.49-8.48-12.38-9.84-20.04-.66-3.83-.74-7.22-.66-9.8v-10.91c-3.87 7.12-9.84 12.9-17.06 16.58-1.44 20.74-18.79 37.21-39.9 37.21h-57.07c-16.06 0-30.84-7.37-40.56-20.15l-.07-.07c-10.1-13.41-12.9-31.1-7.52-47.34l19.93-59.83c10.8-32.57 30.17-61.75 55.93-84.41l33.93-29.8a45.27 45.27 0 0 1-15.55-15.69c-13.11-4.57-23.69-14.59-29.14-27.78-5.6-13.56-5.09-28.63 1.44-41.38.84-1.73 2.1-4.2 3.35-6.74a39.706 39.706 0 0 1-3.39-21c1.18-10.64 6.59-20.48 14.92-27 .44-.33.81-.63 1.14-.88l.15-.12 1.4-1.03c2.21-1.77 3.79-4.57 4.24-7.37.47-3.68 1.29-9.02 2.5-14.03l.19-.7.22-.7c2.98-10.17 7.55-19.12 13.55-26.56 14.19-17.98 36.37-28.7 59.43-28.7 23.06 0 51.95 12.38 53.42 12.74 21.04 5.57 39.75 17.72 52.68 34.3 1.63 2.07 3.8 5.01 5.94 7.89 1.25 1.69 2.46 3.31 3.2 4.31l.08.11c.62.85 1.28 1.73 1.95 2.61 1.25 1.7 3.13 4.24 3.98 5.09l.22.18c1.03.96 2.25 1.77 3.53 2.29l.3.11c1.92.81 7.59 3.05 13.08 5.26 11.12 4.43 18.68 7.48 21.99 8.92a138.791 138.791 0 0 1 39.28 25.86h.07c2.03 1.96 4.49 4.39 6.85 6.71 1.51 1.51 2.95 2.91 4.06 3.98l21.55 21.11 1.58 1.58c.85.81 2.06 2.06 2.99 2.87h17.31c6.41 0 10.87.08 14.44.19h.22c26.6 1.18 52.32 12.23 72.44 31.17 19.85 18.67 32.45 43.28 35.51 69.4.48 3.14.66 5.94.74 8.29 2.17 2.58 5.41 6.45 9.06 10.8 5.16 6.19 11.05 13.19 13.08 15.54 5.01 5.83 9.06 11.9 12.31 18.57 2.39 4.79 4.01 9.69 5.3 13.67.41 1.25.81 2.47 1.11 3.28l.25.7.22.7c.74 2.36 2.18 6.56 3.69 10.98 5.34 15.58 9.25 27.22 10.72 35.07a97.89 97.89 0 0 1-4.75 52.5c-.33.92-1.14 3.06-1.81 4.94-.77 2.13-1.51 4.16-1.99 5.37-3.5 9.58-9.69 17.95-17.9 24.25-8.37 6.37-18.24 10.13-28.56 10.83h-.44l-2.72.14h-40.49l-.04.04Z"/></g><g filter="url(#s)"><path fill="#fff" d="m556.17 533.83.96 3.61.48 1.77c.77 2.88 3.57 5.09 6.56 5.09H566.89c10.8.07 26.53-.04 37.32 0h11.2l1.55-.08c7.85-.55 15.03-6 17.68-13.44.78-2.03 3.06-8.37 3.87-10.54 4.17-11.02 5.34-23.14 3.17-34.71-1.66-8.76-10.61-33.15-13.48-42.22-1.51-4.16-3.02-9.76-4.98-13.59-2.06-4.24-4.6-8.03-7.7-11.6-4.01-4.65-20.59-24.54-24.05-28.63l-2.44-2.87c-5.01-5.6-2.87-13.45-4.09-20.19-4.16-38.54-37.98-70.29-76.55-72.03-8.11-.29-21.19-.11-29.62-.14-5.64.18-11.31-.96-16.29-3.65-4.42-2.1-8.84-6.85-12.34-10.28l-21.37-20.93c-3.02-2.91-7.66-7.58-10.65-10.38-8.76-8.22-18.93-14.93-29.95-19.71-4.9-2.18-29.21-11.72-34.56-13.97a45.24 45.24 0 0 1-13.7-8.8c-3.68-3.39-6.93-8.18-9.87-12.09-2.18-2.83-6.64-8.95-8.92-11.86-8.77-11.24-21.37-19.05-35.07-22.66-5.23-1.4-32.02-9.91-37.25-10.9-15.22-2.95-31.61 3.24-41.15 15.51-3.61 4.38-6.08 9.76-7.67 15.21-.81 3.28-1.43 7.19-1.84 10.58-1.62 11.53-7.88 22.29-17.09 29.36l-1.66 1.22c-.15.11-.26.18-.3.25l-.25.19c-2.88 2.17-3.39 6.74-1.03 9.5.11.15.36.45.55.67l4.79 5.74-.26-.25c1.51 1.51 1.99 3.9 1.14 5.85-.81 1.66-2.39 4.87-3.24 6.56-1.92 3.87-5.82 11.72-7.74 15.58-4.46 8.55.19 20.08 9.43 22.99l8.18 2.73c2.36.7 4.39 2.39 5.53 4.57l1.99 4.01.99 1.96c2.18 4.67 7.26 7.47 12.35 7.11h37.28c.99 0 1.8.81 1.8 1.8 0 1-.62 1.62-1.47 1.81l-13.37 2.65c-1.92.4-3.32 2.06-3.32 4.01v3.39c0 10.65-4.6 20.82-12.6 27.86l-45.2 39.67a160.07 160.07 0 0 0-46.35 69.96l-19.93 59.8c-1.92 5.71-1.11 12.12 2.54 16.94 3.39 4.46 8.51 7.04 14.15 7.04h57.07c3.75 0 6.81-3.06 6.81-6.85v-6.41c0-1.81-.74-3.58-1.99-4.86l-2.87-2.88c-1.81-1.84-2.65-4.53-1.92-7 .89-2.95 3.54-4.9 6.56-4.9h15.25c3.76 0 6.82-3.06 6.82-6.85v-10.94c0-8.18 3.83-15.92 10.39-20.82l1.29-.99c19.49-14.66 31.39-37.62 31.13-62.04-.15-12.12 5.23-23.43 14.7-30.91l11.75-9.32c1.11-.89 1.7-2.29 1.51-3.69a77.646 77.646 0 0 0-3.53-15.29c-1.22-3.61-3.76-11.08-4.98-14.66-7.44-20.56-5.16-44.54 6.34-63.11 7.26-11.86 18.09-21.4 30.54-26.85.88-.41 1.92 0 2.36.88.44.85.11 1.88-.7 2.4-27.78 17.27-41.63 52.9-30.32 83.92 1.14 3.57 3.72 11.35 4.79 14.74 5.08 15.47 5.78 32.38 1.88 48.15l-21.67 79.87-.7 2.5c-3.02 9.84-1.66 20.63 3.32 29.59.18.47 1.25 2.46 1.44 2.87 2.28 4.2 1.84 9.36 1.84 13.89v10.31c-.08 2.29-.08 5.16 1.69 6.93 1.51 1.81 3.87 2.51 6.15 2.32h61.79c.62 0 2.84 0 3.42-.04 3.69-.33 6.45-3.86 6.12-7.55v-5.16c0-1.14-.11-2.28-.59-3.31-.44-1.07-1.4-2.06-2.25-2.88l-3.68-3.68c-3.24-3.17-3.61-8.8-.88-12.38.92-1.32 6.44-9.02 7.47-10.5 5.35-7.77 15.59-21.66 20.75-29.4 11.64-17.79 15.36-40.41 10.31-61.01-1.14-5.71-4.57-13.48-6.45-19.04-2.39-6.85-8.54-22.62-10.46-29.55-3.02-10.35-3.02-21.22-2.32-31.83.33-6.3.7-12.64 1.29-18.97.11-.96.88-1.7 1.88-1.7.99 0 1.77.74 1.88 1.7.88 9.69 1.29 19.56 1.77 29.21.66 10.02 2.98 19.42 6.78 28.74 2.54 6.56 8.65 22.66 11.05 28.96 1.95 5.12 3.39 10.5 4.31 15.91.7 4.09 3.42 7.55 7.26 9.14 5.71 2.36 11.67 4.46 17.97 6.22a13.783 13.783 0 0 0 16.18-7.33c.48-1.03 1.03-2.06 1.55-3.09 4.16-8.11 9.8-15.37 15.36-22.51 5.12-6.6 10.42-13.04 15.95-19.38.63-.74 1.7-.85 2.51-.3.77.56 1.03 1.66.55 2.47-6.34 10.61-13.89 22.11-20.74 32.24-8.14 12.6-13.86 26.82-16.29 41.63-1.88 11.86-5.38 34.11-7.29 46.2-.78 4.46-1.18 10.46-3.61 14.4-2.14 4.2-7.08 7.55-10.58 10.5l-2.57 2.1-.34.26-.18.18c-1.92 1.66-2.69 4.43-1.92 6.86.74 2.58 1.77 6.85 2.51 9.24.88 2.47 3.43 4.2 6.08 4.13h13.33c11.02-.07 22.29 0 33.31 0h2.5c4.87 0 9.73-1.58 13.64-4.53 4.93-3.58 7.33-8.59 9.28-14.44 1.47-4.02 9.91-26.82 11.57-31.35 1.51-4.2 3.28-8.74 5.23-12.75 6.08-12.56 14.59-23.91 25.2-32.97 12.86-10.58 22.4-24.25 28.85-39.87.37-.92 1.36-1.4 2.28-1.14.92.26 1.55 1.18 1.4 2.14-2.14 13.11-8.44 25.34-17.13 35.37-3.46 4.01-5.49 9.06-5.49 14.36v4.42c0 2.14 0 4.65.37 6.78.88 5.31 3.76 10.21 7.77 13.75l2.73 2.54 11.01 10.13 5.49 5.08c1.51 1.29 2.73 2.99 3.25 4.94 1.18 3.98-.67 8.36-4.06 10.65-1.43 1.17-4.38 3.53-5.82 4.71-.66.59-1.88 1.44-2.47 2.1-1.65 1.7-2.28 4.31-1.69 6.6l.96 3.61h.03l.04-.08Z"/></g></g><defs><filter id="b" width="1065.82" height="930.001" x="-157.824" y="-117" color-interpolation-filters="sRGB" filterUnits="userSpaceOnUse"><feFlood flood-opacity="0" result="BackgroundImageFix"/><feBlend in="SourceGraphic" in2="BackgroundImageFix" result="shape"/><feColorMatrix in="SourceAlpha" result="hardAlpha" values="0 0 0 0 0 0 0 0 0 0 0 0 0 0 0 0 0 0 127 0"/><feOffset dy="3.41"/><feGaussianBlur stdDeviation="1.705"/><feComposite in2="hardAlpha" k2="-1" k3="1" operator="arithmetic"/><feColorMatrix values="0 0 0 0 0 0 0 0 0 0 0 0 0 0 0 0 0 0 0.25 0"/><feBlend in2="shape" result="effect1_innerShadow_8704_1987"/></filter><filter id="d" width="999.528" height="863.68" x="-124.688" y="-83.84" color-interpolation-filters="sRGB" filterUnits="userSpaceOnUse"><feFlood flood-opacity="0" result="BackgroundImageFix"/><feBlend in="SourceGraphic" in2="BackgroundImageFix" result="shape"/><feColorMatrix in="SourceAlpha" result="hardAlpha" values="0 0 0 0 0 0 0 0 0 0 0 0 0 0 0 0 0 0 127 0"/><feOffset dy="3.41"/><feGaussianBlur stdDeviation="1.705"/><feComposite in2="hardAlpha" k2="-1" k3="1" operator="arithmetic"/><feColorMatrix values="0 0 0 0 0 0 0 0 0 0 0 0 0 0 0 0 0 0 0.25 0"/><feBlend in2="shape" result="effect1_innerShadow_8704_1987"/></filter><filter id="f" width="933.226" height="797.37" x="-91.518" y="-50.68" color-interpolation-filters="sRGB" filterUnits="userSpaceOnUse"><feFlood flood-opacity="0" result="BackgroundImageFix"/><feBlend in="SourceGraphic" in2="BackgroundImageFix" result="shape"/><feColorMatrix in="SourceAlpha" result="hardAlpha" values="0 0 0 0 0 0 0 0 0 0 0 0 0 0 0 0 0 0 127 0"/><feOffset dy="3.41"/><feGaussianBlur stdDeviation="1.705"/><feComposite in2="hardAlpha" k2="-1" k3="1" operator="arithmetic"/><feColorMatrix values="0 0 0 0 0 0 0 0 0 0 0 0 0 0 0 0 0 0 0.25 0"/><feBlend in2="shape" result="effect1_innerShadow_8704_1987"/></filter><filter id="h" width="866.929" height="731.021" x="-58.378" y="-17.49" color-interpolation-filters="sRGB" filterUnits="userSpaceOnUse"><feFlood flood-opacity="0" result="BackgroundImageFix"/><feBlend in="SourceGraphic" in2="BackgroundImageFix" result="shape"/><feColorMatrix in="SourceAlpha" result="hardAlpha" values="0 0 0 0 0 0 0 0 0 0 0 0 0 0 0 0 0 0 127 0"/><feOffset dy="3.41"/><feGaussianBlur stdDeviation="1.705"/><feComposite in2="hardAlpha" k2="-1" k3="1" operator="arithmetic"/><feColorMatrix values="0 0 0 0 0 0 0 0 0 0 0 0 0 0 0 0 0 0 0.25 0"/><feBlend in2="shape" result="effect1_innerShadow_8704_1987"/></filter><filter id="j" width="800.517" height="665.272" x="-25.161" y="15.098" color-interpolation-filters="sRGB" filterUnits="userSpaceOnUse"><feFlood flood-opacity="0" result="BackgroundImageFix"/><feBlend in="SourceGraphic" in2="BackgroundImageFix" result="shape"/><feColorMatrix in="SourceAlpha" result="hardAlpha" values="0 0 0 0 0 0 0 0 0 0 0 0 0 0 0 0 0 0 127 0"/><feOffset dy="3.41"/><feGaussianBlur stdDeviation="1.705"/><feComposite in2="hardAlpha" k2="-1" k3="1" operator="arithmetic"/><feColorMatrix values="0 0 0 0 0 0 0 0 0 0 0 0 0 0 0 0 0 0 0.25 0"/><feBlend in2="shape" result="effect1_innerShadow_8704_1987"/></filter><filter id="l" width="734.303" height="598.35" x="7.962" y="48.86" color-interpolation-filters="sRGB" filterUnits="userSpaceOnUse"><feFlood flood-opacity="0" result="BackgroundImageFix"/><feBlend in="SourceGraphic" in2="BackgroundImageFix" result="shape"/><feColorMatrix in="SourceAlpha" result="hardAlpha" values="0 0 0 0 0 0 0 0 0 0 0 0 0 0 0 0 0 0 127 0"/><feOffset dy="3.41"/><feGaussianBlur stdDeviation="1.705"/><feComposite in2="hardAlpha" k2="-1" k3="1" operator="arithmetic"/><feColorMatrix values="0 0 0 0 0 0 0 0 0 0 0 0 0 0 0 0 0 0 0.25 0"/><feBlend in2="shape" result="effect1_innerShadow_8704_1987"/></filter><filter id="n" width="668.007" height="532.08" x="41.167" y="81.98" color-interpolation-filters="sRGB" filterUnits="userSpaceOnUse"><feFlood flood-opacity="0" result="BackgroundImageFix"/><feBlend in="SourceGraphic" in2="BackgroundImageFix" result="shape"/><feColorMatrix in="SourceAlpha" result="hardAlpha" values="0 0 0 0 0 0 0 0 0 0 0 0 0 0 0 0 0 0 127 0"/><feOffset dy="3.41"/><feGaussianBlur stdDeviation="1.705"/><feComposite in2="hardAlpha" k2="-1" k3="1" operator="arithmetic"/><feColorMatrix values="0 0 0 0 0 0 0 0 0 0 0 0 0 0 0 0 0 0 0.25 0"/><feBlend in2="shape" result="effect1_innerShadow_8704_1987"/></filter><filter id="p" width="601.7" height="465.761" x="74.214" y="115.14" color-interpolation-filters="sRGB" filterUnits="userSpaceOnUse"><feFlood flood-opacity="0" result="BackgroundImageFix"/><feBlend in="SourceGraphic" in2="BackgroundImageFix" result="shape"/><feColorMatrix in="SourceAlpha" result="hardAlpha" values="0 0 0 0 0 0 0 0 0 0 0 0 0 0 0 0 0 0 127 0"/><feOffset dy="3.41"/><feGaussianBlur stdDeviation="1.705"/><feComposite in2="hardAlpha" k2="-1" k3="1" operator="arithmetic"/><feColorMatrix values="0 0 0 0 0 0 0 0 0 0 0 0 0 0 0 0 0 0 0.25 0"/><feBlend in2="shape" result="effect1_innerShadow_8704_1987"/></filter><filter id="s" width="620.659" height="481.283" x="64.721" y="105.672" color-interpolation-filters="sRGB" filterUnits="userSpaceOnUse"><feFlood flood-opacity="0" result="BackgroundImageFix"/><feColorMatrix in="SourceAlpha" result="hardAlpha" values="0 0 0 0 0 0 0 0 0 0 0 0 0 0 0 0 0 0 127 0"/><feOffset/><feGaussianBlur stdDeviation="21.315"/><feComposite in2="hardAlpha" operator="out"/><feColorMatrix values="0 0 0 0 0 0 0 0 0 0 0 0 0 0 0 0 0 0 0.6 0"/><feBlend in2="BackgroundImageFix" result="effect1_dropShadow_8704_1987"/><feBlend in="SourceGraphic" in2="effect1_dropShadow_8704_1987" result="shape"/></filter><linearGradient id="c" x1="-27.86" x2="628.69" y1="94.29" y2="695.76" gradientUnits="userSpaceOnUse"><stop offset=".125" stop-color="#89D0FF"/><stop offset=".4" stop-color="#EBBF9A"/><stop offset=".635" stop-color="#EB8280"/><stop offset=".88" stop-color="#A281FF"/></linearGradient><linearGradient id="e" x1="25.21" x2="634.56" y1="111.98" y2="679.98" gradientUnits="userSpaceOnUse"><stop offset=".125" stop-color="#89D0FF"/><stop offset=".4" stop-color="#EBBF9A"/><stop offset=".635" stop-color="#EB8280"/><stop offset=".88" stop-color="#A281FF"/></linearGradient><linearGradient id="g" x1="74.35" x2="607.06" y1="123.77" y2="658.15" gradientUnits="userSpaceOnUse"><stop offset=".125" stop-color="#89D0FF"/><stop offset=".4" stop-color="#EBBF9A"/><stop offset=".635" stop-color="#EB8280"/><stop offset=".88" stop-color="#A281FF"/></linearGradient><linearGradient id="i" x1="60.59" x2="621.21" y1="159.15" y2="642.97" gradientUnits="userSpaceOnUse"><stop offset=".125" stop-color="#89D0FF"/><stop offset=".4" stop-color="#EBBF9A"/><stop offset=".635" stop-color="#EB8280"/><stop offset=".88" stop-color="#A281FF"/></linearGradient><linearGradient id="k" x1="80.24" x2="618.49" y1="125.74" y2="654.16" gradientUnits="userSpaceOnUse"><stop offset=".125" stop-color="#89D0FF"/><stop offset=".4" stop-color="#EBBF9A"/><stop offset=".635" stop-color="#EB8280"/><stop offset=".88" stop-color="#A281FF"/></linearGradient><linearGradient id="m" x1="70.41" x2="609.7" y1="135.57" y2="640.57" gradientUnits="userSpaceOnUse"><stop offset=".125" stop-color="#89D0FF"/><stop offset=".4" stop-color="#EBBF9A"/><stop offset=".635" stop-color="#EB8280"/><stop offset=".88" stop-color="#A281FF"/></linearGradient><linearGradient id="o" x1="94" x2="598.09" y1="113.95" y2="633.88" gradientUnits="userSpaceOnUse"><stop offset=".125" stop-color="#89D0FF"/><stop offset=".4" stop-color="#EBBF9A"/><stop offset=".635" stop-color="#EB8280"/><stop offset=".88" stop-color="#A281FF"/></linearGradient><linearGradient id="r" x1="94" x2="602.65" y1="125.74" y2="629.92" gradientUnits="userSpaceOnUse"><stop offset=".125" stop-color="#89D0FF"/><stop offset=".4" stop-color="#EBBF9A"/><stop offset=".635" stop-color="#EB8280"/><stop offset=".88" stop-color="#A281FF"/></linearGradient></defs></svg>