<svg width="421" height="421" viewBox="0 0 421 421" fill="none" xmlns="http://www.w3.org/2000/svg">
<rect width="421" height="421" fill="#6B6B6B"/>
<path d="M420.89 0H0V420.89H420.89V0Z" fill="white"/>
<path d="M112.52 132.21H141.7L160.52 288.68H135.78L133.03 254.64H119.92L117.17 288.68H93.7002L112.52 132.21ZM124.14 201.77L121.6 233.91H131.33L128.58 201.77L126.68 174.71H126.05L124.15 201.77H124.14ZM212.36 288.68H187.2V132.21H220.18C238.15 132.21 249.15 142.78 249.15 161.81V200.29C249.15 219.11 238.15 229.68 220.18 229.68H212.36V288.67V288.68ZM212.57 210.87H218.07C222.3 210.87 223.99 207.06 223.99 200.3V161.82C223.99 154.84 222.3 151.04 218.07 151.04H212.57V210.88V210.87ZM278.14 288.68V132.21H327.19V152.93H303.3V199.24H324.65V219.96H303.3V267.96H327.19V288.68H278.14Z" fill="#0054FA"/>
</svg>
