<?xml version="1.0" encoding="UTF-8"?>
<svg id="Layer_1" data-name="Layer 1" xmlns="http://www.w3.org/2000/svg" viewBox="0 0 373.1 420.29">
  <defs>
    <style>
      .cls-1 {
        fill: #1b4add;
      }
    </style>
  </defs>
  <path class="cls-1" d="m187.11,26.09c1.03,0,1.98.26,2.93.77l154.13,89.64c1.81,1.03,2.93,2.93,2.84,4.99l-.6,178.33c0,2.07-1.12,3.96-2.93,4.99l-154.65,88.6c-.86.52-1.89.77-2.93.77s-1.98-.26-2.93-.77L28.85,303.78c-1.81-1.03-2.93-2.93-2.84-4.99l.6-178.33c0-2.07,1.12-3.96,2.93-4.99L184.27,26.78c.86-.43,1.89-.69,2.84-.69m.09-26.09c-5.51,0-11.02,1.38-15.93,4.22L16.62,92.82C6.72,98.51.6,109.01.6,120.38l-.6,178.33c0,11.37,6.03,21.87,15.84,27.64l154.13,89.64c4.91,2.84,10.42,4.31,15.93,4.31s11.02-1.38,15.93-4.22l154.65-88.6c9.9-5.68,16.02-16.19,16.02-27.55l.6-178.33c0-11.37-6.03-21.87-15.84-27.64L203.13,4.31c-4.91-2.84-10.42-4.31-15.93-4.31h0Z"/>
  <path class="cls-1" d="m218.45,97.21h-22.56c-1.72,0-3.19,1.03-3.79,2.67l-72.67,199.16c-.52,1.29.52,2.67,1.89,2.67h22.56c1.72,0,3.19-1.03,3.79-2.67l72.67-199.16c.52-1.29-.52-2.67-1.89-2.67Zm-39.52,0h-22.56c-1.72,0-3.19,1.03-3.79,2.67l-72.59,199.08c-.52,1.29.52,2.67,1.89,2.67h22.56c1.72,0,3.19-1.03,3.79-2.67l72.59-199.08c.52-1.29-.43-2.67-1.89-2.67Zm29.28,77.15c-.6-1.81-3.19-1.81-3.79,0l-11.71,32.2c-.34.86-.34,1.89,0,2.76l32.72,89.64c.6,1.55,2.07,2.67,3.79,2.67h22.56c1.38,0,2.41-1.38,1.89-2.67l-45.46-124.6Zm84.9,124.6l-65.18-178.76c-.6-1.81-3.19-1.81-3.79,0l-11.71,32.2c-.34.86-.34,1.89,0,2.76l52.44,143.8c.6,1.55,2.07,2.67,3.79,2.67h22.56c1.46.09,2.41-1.38,1.89-2.67Z"/>
</svg>