<?xml version="1.0" encoding="utf-8"?>
<!-- Generator: Adobe Illustrator 27.1.0, SVG Export Plug-In . SVG Version: 6.00 Build 0)  -->
<svg version="1.1" id="Layer_1" xmlns="http://www.w3.org/2000/svg" xmlns:xlink="http://www.w3.org/1999/xlink" x="0px" y="0px"
	 viewBox="0 0 1080 1218.5" style="enable-background:new 0 0 1080 1218.5;" xml:space="preserve">
<style type="text/css">
	.st0{fill:#213147;}
	.st1{fill:#12AAFF;}
	.st2{fill:#9DCCED;}
	.st3{fill:#FFFFFF;}
</style>
<g>
	<path class="st0" d="M41,370.4v477.7c0,30.5,16.3,58.7,42.7,73.9l413.7,238.9c26.4,15.2,58.9,15.2,85.3,0L996.4,922
		c26.4-15.2,42.7-43.4,42.7-73.9V370.4c0-30.5-16.3-58.7-42.7-73.9L582.7,57.6c-26.4-15.2-58.9-15.2-85.3,0L83.6,296.5
		C57.2,311.7,41,339.9,41,370.4z"/>
	<g>
		<g>
			<g>
				<path class="st1" d="M630.3,701.9l-59,161.8c-1.6,4.5-1.6,9.4,0,13.9L672.8,1156l117.4-67.8L649.3,701.9
					C646.1,693,633.5,693,630.3,701.9z"/>
			</g>
			<g>
				<path class="st1" d="M748.6,429.8c-3.2-8.9-15.8-8.9-19,0l-59,161.8c-1.6,4.5-1.6,9.4,0,13.9l166.3,455.8l117.4-67.8
					L748.6,429.8z"/>
			</g>
		</g>
	</g>
	<path class="st2" d="M540,75.5c2.9,0,5.8,0.8,8.4,2.2l447.7,258.5c5.2,3,8.4,8.6,8.4,14.5v516.9c0,6-3.2,11.5-8.4,14.5
		l-447.7,258.5c-2.5,1.5-5.5,2.2-8.4,2.2c-2.9,0-5.8-0.8-8.4-2.2L83.9,882.3c-5.2-3-8.4-8.6-8.4-14.5V350.8c0-6,3.2-11.5,8.4-14.5
		L531.6,77.8C534.2,76.3,537.1,75.5,540,75.5 M540,0c-15.9,0-31.9,4.1-46.2,12.4L46.2,270.8c-28.6,16.5-46.2,47-46.2,80v516.9
		c0,33,17.6,63.5,46.2,80l447.7,258.5c14.3,8.2,30.2,12.4,46.2,12.4c15.9,0,31.9-4.1,46.2-12.4l447.7-258.5
		c28.6-16.5,46.2-47,46.2-80V350.8c0-33-17.6-63.5-46.2-80L586.2,12.4C571.9,4.1,555.9,0,540,0L540,0z"/>
	<polygon class="st0" points="243.9,1061.9 285.1,949.1 368,1018 290.5,1088.8 	"/>
	<g>
		<path class="st3" d="M502.3,313.8H388.8c-8.5,0-16.1,5.3-19,13.3l-243.3,667l117.4,67.8l267.9-734.5
			C514.3,320.8,509.4,313.8,502.3,313.8z"/>
		<path class="st3" d="M700.9,313.8H587.4c-8.5,0-16.1,5.3-19,13.3l-277.8,761.6l117.4,67.8l302.4-829.1
			C712.8,320.8,707.9,313.8,700.9,313.8z"/>
	</g>
</g>
</svg>
