<svg width="346" height="360" viewBox="0 0 346 360" fill="none" xmlns="http://www.w3.org/2000/svg">
<rect width="346" height="360" fill="#213147"/>
<mask id="mask0_2614_45487" style="mask-type:luminance" maskUnits="userSpaceOnUse" x="71" y="66" width="202" height="228">
<path d="M273 66H71V294H273V66Z" fill="white"/>
</mask>
<g mask="url(#mask0_2614_45487)">
<path d="M78.668 135.307V224.693C78.668 230.4 81.7167 235.676 86.6545 238.52L164.032 283.222C168.969 286.066 175.048 286.066 179.986 283.222L257.363 238.52C262.301 235.676 265.35 230.4 265.35 224.693V135.307C265.35 129.6 262.301 124.324 257.363 121.479L179.986 76.7777C175.048 73.9335 168.969 73.9335 164.032 76.7777L86.6357 121.479C81.698 124.324 78.668 129.6 78.668 135.307Z" fill="#213147"/>
<path d="M188.889 197.337L177.853 227.612C177.554 228.454 177.554 229.371 177.853 230.213L196.838 282.306L218.796 269.62L192.442 197.337C191.844 195.672 189.487 195.672 188.889 197.337Z" fill="#12AAFF"/>
<path d="M211.015 146.423C210.416 144.758 208.059 144.758 207.461 146.423L196.426 176.698C196.126 177.54 196.126 178.457 196.426 179.299L227.53 264.586L249.488 251.9L211.015 146.423Z" fill="#12AAFF"/>
<path d="M172 80.1272C172.542 80.1272 173.085 80.2769 173.571 80.5389L257.308 128.908C258.28 129.47 258.879 130.517 258.879 131.621V228.341C258.879 229.464 258.28 230.493 257.308 231.054L173.571 279.424C173.104 279.704 172.542 279.835 172 279.835C171.458 279.835 170.915 279.686 170.429 279.424L86.6924 231.092C85.7198 230.53 85.1213 229.483 85.1213 228.379V131.64C85.1213 130.517 85.7198 129.488 86.6924 128.927L170.429 80.5576C170.915 80.2769 171.458 80.1272 172 80.1272ZM172 66C169.026 66 166.034 66.7672 163.359 68.3202L79.6411 116.671C74.2919 119.758 71 125.465 71 131.64V228.36C71 234.535 74.2919 240.242 79.6411 243.329L163.378 291.698C166.052 293.233 169.026 294.019 172.019 294.019C174.993 294.019 177.985 293.252 180.66 291.698L264.396 243.329C269.746 240.242 273.037 234.535 273.037 228.36V131.64C273.037 125.465 269.746 119.758 264.396 116.671L180.641 68.3202C177.966 66.7672 174.974 66 172 66Z" fill="#9DCCED"/>
<path d="M116.619 264.699L124.325 243.592L139.83 256.484L125.335 269.732L116.619 264.699Z" fill="#213147"/>
<path d="M164.949 124.717H143.72C142.13 124.717 140.709 125.708 140.166 127.205L94.6602 252.011L116.618 264.698L166.726 127.262C167.193 126.027 166.277 124.717 164.949 124.717Z" fill="white"/>
<path d="M202.095 124.717H180.866C179.276 124.717 177.855 125.708 177.312 127.205L125.354 269.712L147.312 282.399L203.872 127.262C204.321 126.027 203.404 124.717 202.095 124.717Z" fill="white"/>
</g>
</svg>
