<?xml version="1.0" encoding="utf-8"?>
<!-- Generator: Adobe Illustrator 27.1.0, SVG Export Plug-In . SVG Version: 6.00 Build 0)  -->
<svg version="1.1" id="Layer_1" xmlns="http://www.w3.org/2000/svg" xmlns:xlink="http://www.w3.org/1999/xlink" x="0px" y="0px"
	 viewBox="0 0 1080 1218.5" style="enable-background:new 0 0 1080 1218.5;" xml:space="preserve">
<style type="text/css">
	.st0{fill:#1B4ADD;}
</style>
<g>
	<path class="st0" d="M541.8,76.4c2.9,0,5.8,0.8,8.4,2.3l446.1,259.5c5.2,3,8.4,8.6,8.3,14.5l-1.7,516.1c0,6-3.2,11.5-8.4,14.5
		l-447.8,256.6c-2.5,1.5-5.5,2.2-8.4,2.2c-2.9,0-5.8-0.8-8.4-2.3L83.8,880.3c-5.2-3-8.4-8.6-8.3-14.5l1.7-516.1
		c0-6,3.2-11.5,8.4-14.5L533.4,78.6C535.9,77.1,538.8,76.4,541.8,76.4 M542,1c-15.9-0.1-31.8,4-46.1,12.2L48.1,269.7
		c-28.6,16.4-46.2,46.7-46.4,79.7L0,865.5c-0.1,32.9,17.4,63.4,45.8,80L491.9,1205c14.2,8.3,30.1,12.4,46.1,12.5
		c15.9,0.1,31.8-4,46.1-12.2l447.8-256.6c28.6-16.4,46.2-46.7,46.4-79.7L1080,353c0.1-32.9-17.4-63.4-45.8-80L588.1,13.5
		C573.8,5.2,557.9,1,542,1L542,1z"/>
	<path class="st0" d="M632.4,282.3H567c-4.9,0-9.3,3.1-11,7.7L345.8,866.4c-1.4,3.8,1.4,7.8,5.5,7.8h65.4c4.9,0,9.3-3.1,11-7.7
		l210.3-576.5C639.2,286.3,636.4,282.3,632.4,282.3z M518,282.3h-65.4c-4.9,0-9.3,3.1-11,7.7L231.4,866.4c-1.4,3.8,1.4,7.8,5.5,7.8
		h65.4c4.9,0,9.3-3.1,11-7.7l210.3-576.5C524.9,286.3,522.1,282.3,518,282.3z M602.7,505.8c-1.9-5.1-9.1-5.1-11,0l-34,93.2
		c-0.9,2.6-0.9,5.4,0,8l94.7,259.6c1.7,4.6,6.1,7.7,11,7.7h65.4c4.1,0,6.9-4,5.5-7.8L602.7,505.8z M848.6,866.4L659.9,349.1
		c-1.9-5.1-9.1-5.1-11,0l-34,93.2c-0.9,2.6-0.9,5.4,0,8l151.9,416.3c1.7,4.6,6.1,7.7,11,7.7h65.4C847.1,874.2,850,870.2,848.6,866.4
		z"/>
</g>
</svg>
