<?xml version="1.0" encoding="UTF-8"?>
<svg id="Layer_1" data-name="Layer 1" xmlns="http://www.w3.org/2000/svg" viewBox="0 0 372.84 420.63">
  <defs>
    <style>
      .cls-1 {
        fill: #f70;
      }
    </style>
  </defs>
  <path class="cls-1" d="m186.42,26.09c1.03,0,1.98.26,2.93.77l154.56,89.21c1.81,1.03,2.93,2.93,2.93,4.99v178.41c0,2.07-1.12,3.96-2.93,4.99l-154.56,89.29c-.86.52-1.89.77-2.93.77s-1.98-.26-2.93-.77L29.02,304.56c-1.81-1.03-2.93-2.93-2.93-4.99V121.07c0-2.07,1.12-3.96,2.93-4.99L183.49,26.87c.95-.52,1.89-.77,2.93-.77m0-26.09c-5.51,0-11.02,1.46-15.93,4.31L15.93,93.51C6.11,99.19,0,109.7,0,121.07v178.41c0,11.37,6.11,21.87,15.93,27.64l154.56,89.21c4.91,2.84,10.42,4.31,15.93,4.31s11.02-1.46,15.93-4.31l154.56-89.21c9.9-5.68,15.93-16.19,15.93-27.64V121.07c0-11.37-6.11-21.87-15.93-27.64L202.35,4.22c-4.91-2.84-10.42-4.22-15.93-4.22h0Z"/>
  <g>
    <path class="cls-1" d="m146.98,118.91h-20.15c-1.55,0-2.84.95-3.36,2.41l-65.01,177.98c-.43,1.21.43,2.41,1.72,2.41h20.15c1.55,0,2.84-.95,3.36-2.41l64.92-178.07c.52-1.12-.34-2.32-1.64-2.32Z"/>
    <path class="cls-1" d="m173.16,187.97c-.6-1.55-2.84-1.55-3.36,0l-10.51,28.76c-.26.77-.26,1.64,0,2.5l29.28,80.17c.52,1.46,1.89,2.41,3.36,2.41h20.15c1.29,0,2.15-1.21,1.72-2.41l-40.64-111.42Z"/>
    <path class="cls-1" d="m182.29,118.91h-20.15c-1.55,0-2.84.95-3.36,2.41l-64.92,177.98c-.43,1.21.43,2.41,1.72,2.41h20.15c1.55,0,2.84-.95,3.36-2.41l64.92-178.07c.43-1.12-.43-2.32-1.72-2.32Z"/>
    <path class="cls-1" d="m190.81,139.49c-.6-1.55-2.84-1.55-3.36,0l-10.5,28.76c-.26.77-.26,1.64,0,2.5l46.93,128.56c.52,1.46,1.89,2.41,3.36,2.41h20.15c1.29,0,2.15-1.21,1.72-2.41l-58.29-159.81Z"/>
    <path class="cls-1" d="m312.65,118.91h-20.15c-1.55,0-2.84.95-3.36,2.41l-47.01,128.56c-.26.77-.26,1.64,0,2.5l10.51,28.76c.6,1.55,2.84,1.55,3.36,0l58.29-159.81c.43-1.21-.43-2.41-1.64-2.41Z"/>
    <path class="cls-1" d="m234.98,232.66c.6,1.55,2.84,1.55,3.36,0l40.64-111.34c.43-1.21-.43-2.41-1.72-2.41h-20.15c-1.55,0-2.84.95-3.36,2.41l-29.28,80.17c-.26.77-.26,1.64,0,2.5l10.5,28.67Z"/>
  </g>
</svg>