<?xml version="1.0" encoding="UTF-8" standalone="no"?>
<svg
   width="256"
   height="256"
   viewBox="0 0 256 256"
   fill="none"
   version="1.1"
   id="svg4"
   xmlns="http://www.w3.org/2000/svg"
   xmlns:svg="http://www.w3.org/2000/svg">
  <defs
     id="defs4" />
  <rect
     style="fill:#0b53bf;fill-opacity:1;stroke-width:1.27158"
     id="rect4"
     width="256"
     height="256"
     x="0"
     y="0" />
  <path
     d="M150.921 35.2922V51.6852C183.627 61.5527 207.579 91.9509 207.579 127.999C207.579 164.048 183.627 194.446 150.921 204.313V220.706C192.619 210.52 223.495 172.88 223.495 127.999C223.495 83.1179 192.619 45.4781 150.921 35.2922Z"
     fill="white"
     id="path2" />
  <path
     d="M48.4233 127.999C48.4233 91.9509 72.3759 61.5527 105.082 51.6852V35.2922C63.3837 45.4781 32.5079 83.1179 32.5079 127.999C32.5079 172.88 63.3837 210.52 105.082 220.706V204.313C72.3759 194.525 48.4233 164.048 48.4233 127.999Z"
     fill="white"
     id="path3" />
  <path
     d="M162.22 145.746C162.22 113.199 111.211 126.568 111.211 108.583C111.211 102.137 116.384 97.9995 126.251 97.9995C138.028 97.9995 142.087 103.729 143.36 111.448H159.594C158.145 96.9619 149.831 87.8153 135.96 85.0906V72.2963H120.044V84.6338C104.847 86.5691 95.2957 95.4189 95.2957 108.583C95.2957 141.289 146.384 129.035 146.384 146.7C146.384 153.385 139.938 157.841 129.036 157.841C114.792 157.841 110.097 151.555 108.346 142.881H92.5106C93.5365 158.748 103.32 168.678 120.044 171.156V183.704H135.96V171.323C152.282 169.214 162.22 159.719 162.22 145.746Z"
     fill="white"
     id="path4" />
</svg>
