<?xml version="1.0" encoding="UTF-8"?>
<svg id="Layer_2" data-name="Layer 2" xmlns="http://www.w3.org/2000/svg" xmlns:xlink="http://www.w3.org/1999/xlink" viewBox="0 0 1000 1000">
  <defs>
    <style>
      .cls-1 {
        fill: #fff;
      }

      .cls-2 {
        fill: url(#linear-gradient);
      }
    </style>
    <linearGradient id="linear-gradient" x1="3.27" y1="808.86" x2="731.4" y2="356.12" gradientUnits="userSpaceOnUse">
      <stop offset="0" stop-color="#94a0c7"/>
      <stop offset="1" stop-color="#dee3ef"/>
    </linearGradient>
  </defs>
  <g id="Layer_1" data-name="Layer 1">
    <g>
      <rect class="cls-2" width="1000" height="1000" rx="271.44" ry="271.44"/>
      <path class="cls-1" d="M495.65,227.77c-27.95,53.17-183.61,390.12-257.41,439.34-2.11,1.41-2.89,4.15-1.77,6.45,5.6,11.49,23.74,46.52,60.69,99.9.75,1.09,2.12,1.63,3.41,1.35,56.01-12.29,84.83-19.66,93.16-21.85,1.62-.43,2.91-1.64,3.43-3.26,7.36-22.55,61.66-234.82,99.84-336.68,1.06-2.83,4.98-2.85,6.06-.03,36.81,96.13,92.36,313.72,99.79,336.7.52,1.62,1.81,2.84,3.44,3.27,8.34,2.19,37.16,9.56,93.15,21.85,1.28.28,2.65-.26,3.41-1.35,36.95-53.38,55.09-88.41,60.69-99.9,1.12-2.3.34-5.04-1.77-6.45-73.8-49.22-229.46-386.17-257.41-439.34-1.86-3.53-6.83-3.53-8.69,0Z"/>
    </g>
  </g>
</svg>