<svg width="10" height="10" viewBox="0 0 10 10" fill="none" xmlns="http://www.w3.org/2000/svg">
<path d="M8.67589 0.641872C8.65169 0.642635 8.62756 0.644749 8.6036 0.648202H4.79279C4.55863 0.644896 4.34082 0.767704 4.22278 0.969601C4.10473 1.1715 4.10473 1.4212 4.22278 1.6231C4.34082 1.825 4.55863 1.9478 4.79279 1.9445H7.12113L0.437932 8.61587C0.268309 8.77843 0.19998 9.01984 0.259298 9.24697C0.318616 9.47411 0.496311 9.65149 0.723852 9.71071C0.951393 9.76992 1.19322 9.70171 1.35608 9.53239L8.03927 2.86102V5.18524C8.03596 5.41898 8.15899 5.6364 8.36124 5.75424C8.56349 5.87208 8.81364 5.87208 9.0159 5.75424C9.21815 5.6364 9.34118 5.41898 9.33787 5.18524V1.37863C9.36404 1.18976 9.30558 0.998955 9.17804 0.857009C9.0505 0.715062 8.86682 0.636369 8.67589 0.641872Z" fill="#359BDD"/>
</svg>
