<svg fill="none" height="10" viewBox="0 0 10 10" width="10" xmlns="http://www.w3.org/2000/svg"><path d="m8.67589.641872c-.0242.000763-.04833.002877-.07229.00633h-3.81081c-.23416-.003306-.45197.119502-.57001.321399-.11805.201899-.11805.451599 0 .653499.11804.2019.33585.3247.57001.3214h2.32834l-6.683198 6.67137c-.169623.16256-.237952.40397-.178634.6311.059318.22714.237013.40452.464554.46374.227541.05921.469368-.009.632228-.17832l6.68319-6.67137v2.32422c-.00331.23374.11972.45116.32197.569s.4524.11784.65466 0c.20225-.11784.32528-.33526.32197-.569v-3.80661c.02617-.18887-.03229-.379675-.15983-.521621-.12754-.141947-.31122-.22064-.50215-.215137z" fill="#359bdd"/></svg>