<svg width="360" height="360" viewBox="0 0 360 360" fill="none" xmlns="http://www.w3.org/2000/svg">
<rect width="360" height="360" fill="#FF394A"/>
<path d="M232.147 198.754C235.252 193.465 242.964 193.465 246.035 198.754L279.031 255.125C282.136 260.413 278.247 266.999 272.071 266.999H206.077C199.901 266.999 196.046 260.413 199.117 255.125L232.113 198.754H232.147Z" fill="white"/>
<path d="M212.216 161.22C215.219 155.965 215.219 149.481 212.216 144.192L185.157 96.9668C182.12 91.6777 174.545 91.6777 171.508 96.9668L80.9468 255.057C77.9097 260.346 81.6971 266.965 87.7713 266.965H141.856C147.895 266.965 153.457 263.724 156.46 258.469L212.182 161.185L212.216 161.22Z" fill="white"/>
</svg>
