<svg width="44" height="45" viewBox="0 0 44 45" fill="none" xmlns="http://www.w3.org/2000/svg">
<rect y="0.5" width="44" height="44" rx="12" fill="#2F3237"/>
<path d="M30.091 19.8493C28.2819 19.8493 27.5422 18.6288 28.4418 17.1318C28.9615 16.2641 28.6517 15.158 27.7421 14.6622L26.013 13.7183C25.2234 13.2701 24.2039 13.5371 23.7341 14.2904L23.6242 14.4715C22.7246 15.9685 21.2454 15.9685 20.3358 14.4715L20.2259 14.2904C19.7761 13.5371 18.7566 13.2701 17.967 13.7183L16.2379 14.6622C15.3283 15.158 15.0185 16.2736 15.5382 17.1413C16.4478 18.6288 15.7081 19.8493 13.8991 19.8493C12.8596 19.8493 12 20.6597 12 21.6609V23.3391C12 24.3307 12.8496 25.1507 13.8991 25.1507C15.7081 25.1507 16.4478 26.3712 15.5382 27.8682C15.0185 28.7359 15.3283 29.842 16.2379 30.3378L17.967 31.2817C18.7566 31.7299 19.7761 31.4629 20.2459 30.7096L20.3558 30.5285C21.2554 29.0315 22.7346 29.0315 23.6442 30.5285L23.7541 30.7096C24.2239 31.4629 25.2434 31.7299 26.033 31.2817L27.7621 30.3378C28.6717 29.842 28.9815 28.7264 28.4618 27.8682C27.5522 26.3712 28.2919 25.1507 30.101 25.1507C31.1404 25.1507 32 24.3403 32 23.3391V21.6609C31.99 20.6693 31.1404 19.8493 30.091 19.8493ZM21.995 25.5989C20.2059 25.5989 18.7466 24.2068 18.7466 22.5C18.7466 20.7932 20.2059 19.4011 21.995 19.4011C23.7841 19.4011 25.2434 20.7932 25.2434 22.5C25.2434 24.2068 23.7841 25.5989 21.995 25.5989Z" fill="#82848E"/>
</svg>
