<svg width="80" height="80" viewBox="0 0 80 80" fill="none" xmlns="http://www.w3.org/2000/svg">
<rect width="80" height="80" rx="13.4149" fill="black"/>
<rect width="80" height="80" rx="13.4149" fill="#814625"/>
<path d="M52.3122 48.3965V45.2188C54.1532 44.548 55.4937 42.4648 55.4937 39.9992C55.4937 37.5335 54.1532 35.4445 52.3122 34.7795V31.6018C54.046 30.9722 55.3388 29.0832 55.4818 26.8H53.3727V27.7709C53.3727 28.5183 52.9438 29.1774 52.3122 29.5069V29.0538C52.3122 28.3888 51.7641 27.8474 51.0909 27.8474H50.9837C50.3104 27.8474 49.7623 28.3888 49.7623 29.0538V29.5069C49.1308 29.1774 48.7018 28.5242 48.7018 27.7709V26.8H46.5928C46.7357 29.0832 48.0286 30.9722 49.7623 31.6018V34.7795C47.9273 35.4445 46.5808 37.5276 46.5808 39.9992C46.5808 42.4707 47.9213 44.5538 49.7623 45.2188V48.3965C48.0286 49.0261 46.7357 50.9151 46.5928 53.1983H48.7018V52.2274C48.7018 51.48 49.1308 50.821 49.7623 50.4914V50.9445C49.7623 51.6095 50.3104 52.1509 50.9837 52.1509H51.0909C51.7641 52.1509 52.3122 51.6095 52.3122 50.9445V50.4914C52.9438 50.821 53.3727 51.4741 53.3727 52.2274V53.1983H55.4818C55.3388 50.9151 54.046 49.0261 52.3122 48.3965ZM48.7018 41.3879V38.6045C48.7018 37.8572 49.1308 37.1981 49.7623 36.8685V37.3217C49.7623 37.9866 50.3104 38.528 50.9837 38.528H51.0909C51.7641 38.528 52.3122 37.9866 52.3122 37.3217V36.8685C52.9438 37.1981 53.3727 37.8513 53.3727 38.6045V41.3879C53.3727 42.1353 52.9438 42.7943 52.3122 43.1239V42.6708C52.3122 42.0058 51.7641 41.4644 51.0909 41.4644H50.9837C50.3104 41.4644 49.7623 42.0058 49.7623 42.6708V43.1239C49.1367 42.7943 48.7018 42.1412 48.7018 41.3879Z" fill="white"/>
<path d="M65.2526 41.688V38.3044C67.0935 37.6335 68.434 35.5504 68.434 33.0847C68.434 30.6191 67.0935 28.53 65.2526 27.8651V26.8H62.7086V27.8651C60.8676 28.5359 59.5271 30.6191 59.5271 33.0847C59.5271 35.5504 60.8676 37.6394 62.7086 38.3044V41.688C60.8676 42.3589 59.5271 44.442 59.5271 46.9077C59.5271 49.3733 60.8676 51.4623 62.7086 52.1273V53.1924H65.2526V52.1273C67.0935 51.4565 68.434 49.3733 68.434 46.9077C68.434 44.442 67.0935 42.3589 65.2526 41.688ZM61.6421 34.4735V31.6901C61.6421 30.9427 62.0711 30.2836 62.7026 29.9541V30.4072C62.7026 31.0722 63.2508 31.6136 63.924 31.6136H64.0253C64.6985 31.6136 65.2466 31.0722 65.2466 30.4072V29.9541C65.8781 30.2836 66.3071 30.9368 66.3071 31.6901V34.4735C66.3071 35.2208 65.8781 35.8799 65.2466 36.2094V35.7563C65.2466 35.0914 64.6985 34.55 64.0253 34.55H63.918C63.2448 34.55 62.6967 35.0914 62.6967 35.7563V36.2094C62.0771 35.8799 61.6421 35.2267 61.6421 34.4735ZM66.3131 48.3023C66.3131 49.0497 65.8841 49.7087 65.2526 50.0383V49.3733C65.2526 48.7084 64.7045 48.167 64.0312 48.167H63.9299C63.2567 48.167 62.7086 48.7084 62.7086 49.3733V50.0383C62.0771 49.7087 61.6481 49.0555 61.6481 48.3023V45.5189C61.6481 44.7715 62.0771 44.1125 62.7086 43.7829V44.0242C62.7086 44.6892 63.2567 45.2306 63.9299 45.2306H64.0372C64.7104 45.2306 65.2585 44.6892 65.2585 44.0242V43.7829C65.8901 44.1125 66.319 44.7657 66.319 45.5189V48.3023H66.3131Z" fill="white"/>
<path d="M37.6059 37.3048C37.5821 37.1695 37.5523 37.04 37.5046 36.9164C37.5225 36.887 41.4785 31.4437 37.8144 28.0777C34.1563 24.7117 29.8846 29.1017 29.8608 29.1252C29.1816 28.9133 28.4964 28.7839 27.8172 28.725C27.8172 28.725 27.8172 28.725 27.8113 28.725C26.4172 28.4955 24.463 28.725 24.463 28.725C23.7898 28.7839 23.1106 28.9133 22.4373 29.1193C22.4135 29.0958 18.1418 24.7059 14.4837 28.0718C10.8256 31.4378 14.7756 36.887 14.7935 36.9105C14.7518 37.04 14.716 37.1695 14.6922 37.2989C14.299 39.6292 11.6001 40.3471 11.6001 44.4075C11.6001 48.5444 14.4182 51.8045 20.1734 51.8045H22.5327C22.5446 51.8162 23.4561 53.0991 25.3388 53.1756C25.3388 53.1756 25.7737 53.2227 26.7746 53.1874C28.7705 53.1874 29.7416 51.828 29.7476 51.8104H32.1069C37.8621 51.8104 40.6801 48.5503 40.6801 44.4134C40.698 40.3589 37.9991 39.6351 37.6059 37.3048Z" fill="white"/>
</svg>
