<?xml version="1.0" encoding="utf-8"?>
<!-- Generator: Adobe Illustrator 16.0.0, SVG Export Plug-In . SVG Version: 6.00 Build 0)  -->
<!DOCTYPE svg PUBLIC "-//W3C//DTD SVG 1.1//EN" "http://www.w3.org/Graphics/SVG/1.1/DTD/svg11.dtd">
<svg version="1.1" xmlns="http://www.w3.org/2000/svg" xmlns:xlink="http://www.w3.org/1999/xlink" x="0px" y="0px"
	 width="1201.521px" height="295.145px" viewBox="0 0 1201.521 295.145" enable-background="new 0 0 1201.521 295.145"
	 xml:space="preserve">
<g id="Layer_1">
	<g id="Ebene_2">
		<g id="Ebene_3">
			<path fill="#191919" d="M446.587,216.289c24.075,0,36.821-10.764,36.821-29.175c0-18.41-13.029-29.457-36.821-29.457H399.38
				v58.632H446.587z M399.38,126.784h46.357c20.394,0,31.723-9.441,31.723-26.059s-10.479-24.358-31.439-24.358h-46.735
				L399.38,126.784z M523.063,190.23c0,35.122-24.076,56.648-62.313,56.648H359.632V45.776h95.735
				c35.405,0,60.614,18.883,60.614,51.834c0.827,19.958-12.009,37.929-31.157,43.619c24.643,7.647,37.766,23.792,37.766,49.001"/>
			<rect x="548.743" y="45.776" fill="#191919" width="36.821" height="36.821"/>
			<rect x="548.743" y="102.141" fill="#191919" width="36.821" height="144.737"/>
			<path fill="#191919" d="M701.788,244.896c-10.482,3.597-21.491,5.415-32.573,5.381c-28.324,0-41.07-13.313-41.07-40.786v-79.309
				H602.37v-27.758h25.774V57.389h36.822v45.035h34.556v28.324h-34.556v74.776c0,9.913,4.248,13.313,14.445,13.313
				c6.143-0.329,12.227-1.375,18.127-3.116L701.788,244.896z"/>
			<path fill="#191919" d="M811.497,216.289c24.075,0,36.821-10.764,36.821-29.175c0-18.41-13.029-29.457-36.821-29.457H764.29
				v58.632H811.497z M764.29,126.784h46.451c20.394,0,31.724-9.441,31.724-26.059s-10.764-24.358-31.534-24.358h-46.735
				L764.29,126.784z M888.35,190.23c0,35.122-24.075,56.648-62.313,56.648H724.542V45.776h95.735
				c35.405,0,60.613,18.883,60.613,51.834c0.828,19.958-12.008,37.929-31.156,43.619c24.643,7.647,38.237,23.792,38.237,49.001"/>
			<path fill="#191919" d="M942.732,174.369c0,28.324,15.012,45.885,37.766,45.885s37.766-17.844,37.766-45.885
				c0-28.042-15.012-45.886-37.766-45.886S942.732,147.366,942.732,174.369 M1056.029,174.369c0,45.885-31.44,77.041-75.531,77.041
				c-44.092,0-75.531-31.156-75.531-77.041c0-45.886,31.439-77.042,75.531-77.042
				C1024.589,97.327,1056.029,128.483,1056.029,174.369"/>
			<polygon fill="#191919" points="1161.112,246.878 1128.539,197.311 1095.683,246.878 1056.029,246.878 1108.146,170.969 
				1060.844,102.141 1100.781,102.141 1129.105,144.627 1156.863,102.141 1196.423,102.141 1149.782,169.553 1201.521,246.878 			
				"/>
		</g>
	</g>
	<g>
	</g>
</g>
<g id="Layer_2">
	<g>
		<polygon fill="#191919" points="0,223.182 0,154.572 55.419,130.739 55.419,23.95 110.376,0 110.376,175.167 		"/>
		<polygon fill="#191919" points="248.403,223.76 248.403,155.267 192.984,131.317 192.984,24.644 137.912,0.579 137.912,175.745 		
			"/>
		<polygon fill="#191919" points="124.375,199.232 14.23,247.363 124.259,295.145 234.751,247.131 		"/>
	</g>
</g>
<g id="Layer_3" display="none">
	<rect x="-55.424" y="0.509" display="inline" opacity="0.4" fill="#5492CE" width="681.623" height="45.267"/>
	<rect x="-55.424" y="246.878" display="inline" opacity="0.4" fill="#5492CE" width="681.623" height="45.267"/>
</g>
</svg>
