<?xml version="1.0" encoding="UTF-8" standalone="no"?>
<svg
   width="512"
   height="512"
   viewBox="0 0 4608 4640"
   fill="none"
   version="1.1"
   id="svg2"
   sodipodi:docname="bitcoin-logo.svg"
   inkscape:version="1.4 (e7c3feb1, 2024-10-09)"
   xmlns:inkscape="http://www.inkscape.org/namespaces/inkscape"
   xmlns:sodipodi="http://sodipodi.sourceforge.net/DTD/sodipodi-0.dtd"
   xmlns="http://www.w3.org/2000/svg"
   xmlns:svg="http://www.w3.org/2000/svg">
  <defs
     id="defs2" />
  <sodipodi:namedview
     id="namedview2"
     pagecolor="#ffffff"
     bordercolor="#000000"
     borderopacity="0.25"
     inkscape:showpageshadow="2"
     inkscape:pageopacity="0.0"
     inkscape:pagecheckerboard="0"
     inkscape:deskcolor="#d1d1d1"
     inkscape:zoom="0.74388109"
     inkscape:cx="172.74266"
     inkscape:cy="235.25265"
     inkscape:window-width="1512"
     inkscape:window-height="949"
     inkscape:window-x="0"
     inkscape:window-y="33"
     inkscape:window-maximized="0"
     inkscape:current-layer="svg2" />
  <rect
     style="fill:#f7931a;fill-opacity:1;stroke-width:41.4445"
     id="rect2"
     width="4640"
     height="4640"
     x="-16"
     y="0" />
  <g
     id="g2"
     transform="matrix(32.22214,0,0,32.222224,-0.50004921,-8.0005945)">
    <path
       d="M 103.736,61.991 C 105.169,52.409 97.873,47.26 87.898,43.824 l 3.235,-12.978 -7.899,-1.969 -3.151,12.636 c -2.079,-0.518 -4.21,-1.006 -6.331,-1.489 l 3.171,-12.72 -7.894,-1.969 -3.239,12.976 c -1.719,-0.392 -3.406,-0.778 -5.045,-1.186 l 0.008,-0.04 -10.894,-2.72 -2.102,8.437 c 0,0 5.861,1.343 5.737,1.427 3.2,0.799 3.777,2.916 3.681,4.594 L 53.49,63.608 c 0.22,0.057 0.505,0.136 0.821,0.264 -0.264,-0.066 -0.545,-0.137 -0.834,-0.207 l -5.166,20.71 c -0.392,0.972 -1.385,2.431 -3.621,1.877 0.079,0.114 -5.745,-1.433 -5.745,-1.433 l -3.92,9.041 10.28,2.563 c 1.911,0.479 3.788,0.979 5.632,1.453 l -3.267,13.127 7.891,1.969 3.237,-12.987 c 2.158,0.584 4.25,1.125 6.298,1.634 l -3.226,12.926 7.9,1.969 3.27,-13.102 c 13.473,2.548 23.604,1.52 27.866,-10.663 3.437,-9.81 -0.17,-15.469 -7.258,-19.16 5.161,-1.19 9.051,-4.586 10.088,-11.598 z M 85.687,87.302 c -2.444,9.811 -18.96,4.507 -24.318,3.176 l 4.338,-17.389 c 5.355,1.335 22.53,3.981 19.98,14.213 z m 2.44,-25.452 c -2.226,8.924 -15.975,4.389 -20.435,3.277 l 3.932,-15.772 c 4.459,1.112 18.824,3.187 16.503,12.495 z"
       fill="#ffffff"
       id="path2" />
  </g>
</svg>
