<svg width="96" height="96" viewBox="0 0 96 96" fill="none" xmlns="http://www.w3.org/2000/svg">
<rect width="96" height="96" fill="#5FD15C"/>
<path d="M68.0993 40.5274C69.0401 34.2386 64.2519 30.8579 57.7047 28.6027L59.8285 20.0838L54.6431 18.7915L52.5754 27.0859C51.2122 26.7462 49.812 26.4257 48.4208 26.1082L50.5032 17.7591L45.3207 16.4668L43.1954 24.9827C42.0671 24.7258 40.9594 24.4717 39.8842 24.2044L39.8901 24.1778L32.7388 22.3922L31.3594 27.9307C31.3594 27.9307 35.2067 28.8124 35.1255 28.867C37.2257 29.3914 37.6053 30.7811 37.5418 31.8829L35.1226 41.5878C35.2673 41.6247 35.4549 41.6779 35.6616 41.7606C35.4888 41.7178 35.3042 41.6705 35.1137 41.6247L31.7227 55.2198C31.4657 55.8578 30.8144 56.8149 29.3463 56.4515C29.398 56.5269 25.5772 55.5107 25.5772 55.5107L23.0029 61.4465L29.751 63.1287C31.0064 63.4433 32.2367 63.7726 33.4477 64.0828L31.3018 72.6992L36.4813 73.9915L38.6066 65.4667C40.0215 65.8507 41.3951 66.2051 42.7391 66.5389L40.6211 75.0238L45.8066 76.3162L47.9526 67.716C56.7949 69.3894 63.444 68.7144 66.2428 60.7169C68.4981 54.2775 66.1306 50.563 61.4783 48.1409C64.8663 47.3596 67.4184 45.1309 68.0993 40.5274ZM56.2514 57.1413C54.649 63.5806 43.8069 60.0995 40.2918 59.2267L43.1393 47.8115C46.6544 48.6888 57.9263 50.4257 56.2514 57.1413ZM57.8554 40.4343C56.3932 46.2918 47.3692 43.3158 44.4419 42.5862L47.0236 32.2329C49.9509 32.9625 59.3781 34.3243 57.8554 40.4343Z" fill="white"/>
</svg>
