<svg width="96" height="96" viewBox="0 0 96 96" fill="none" xmlns="http://www.w3.org/2000/svg">
<g clip-path="url(#clip0_7875_4964)">
<rect width="96" height="96" fill="#F7931A"/>
<path d="M94.5638 59.6114C88.1523 85.326 62.1047 100.975 36.3842 94.5629C10.6745 88.1522 -4.97659 62.1059 1.43769 36.3935C7.84634 10.6761 33.8939 -4.97442 59.6064 1.43632C85.325 7.84707 100.975 33.8962 94.5631 59.6119L94.5635 59.6114H94.5638Z" fill="#F7931A"/>
<path d="M70.8461 42.0422C71.8015 35.6544 66.9378 32.2208 60.287 29.9302L62.4446 21.2774L57.1768 19.965L55.0764 28.3899C53.6916 28.0446 52.2694 27.7191 50.8559 27.3965L52.9714 18.916L47.7069 17.6035L45.5482 26.2535C44.4022 25.9926 43.2766 25.7347 42.1845 25.463L42.1906 25.4358L34.9262 23.622L33.5249 29.2477C33.5249 29.2477 37.4332 30.1435 37.3508 30.1986C39.484 30.7309 39.8697 32.1429 39.8057 33.262L37.348 43.1196C37.4949 43.1569 37.6854 43.2108 37.8957 43.2953C37.7199 43.2517 37.5329 43.204 37.3389 43.1576L33.894 56.9666C33.6333 57.6146 32.9716 58.5871 31.4802 58.2178C31.533 58.2943 27.6515 57.2624 27.6515 57.2624L25.0361 63.2917L31.8913 65.0004C33.1666 65.3202 34.4163 65.6548 35.6471 65.9694L33.4672 74.7214L38.7289 76.0339L40.8876 67.3748C42.3251 67.765 43.7201 68.1249 45.0857 68.4641L42.9342 77.0824L48.2023 78.3949L50.3819 69.6593C59.3646 71.3591 66.1189 70.6738 68.9619 62.5498C71.2527 56.0091 68.8478 52.2364 64.1221 49.7762C67.5641 48.9825 70.1567 46.7189 70.8479 42.0429L70.8463 42.0417L70.8461 42.0422ZM58.8104 58.9174C57.1824 65.4582 46.1686 61.9224 42.5977 61.0358L45.4905 49.4409C49.0611 50.3322 60.5118 52.0961 58.8106 58.9174H58.8104ZM60.4395 41.9474C58.9544 47.8969 49.7875 44.8743 46.8139 44.1331L49.4365 33.6172C52.4102 34.3584 61.9865 35.7417 60.44 41.9474H60.4395Z" fill="white"/>
</g>
<defs>
<clipPath id="clip0_7875_4964">
<rect width="96" height="96" fill="white"/>
</clipPath>
</defs>
</svg>
