<svg width="1080" height="1080" viewBox="0 0 1080 1080" fill="none" xmlns="http://www.w3.org/2000/svg">
<rect width="1080" height="1080" rx="540" fill="black"/>
<path d="M749.423 605.091L915.671 359.338C916.794 357.54 917.439 355.485 917.547 353.368C917.654 351.251 917.219 349.141 916.284 347.239C915.349 345.336 913.944 343.704 912.202 342.497C910.461 341.289 908.44 340.546 906.331 340.338L578.194 305.453L749.423 605.091Z" fill="#A2A3A5"/>
<path d="M905.742 447.164L788.372 639.966L909.166 712.228C910.111 712.851 911.209 713.204 912.34 713.25C913.471 713.296 914.593 713.033 915.585 712.488C916.578 711.943 917.403 711.138 917.973 710.16C918.542 709.181 918.834 708.065 918.817 706.933V450.278C919.022 449.419 919.055 448.528 918.915 447.657C918.776 446.785 918.466 445.949 918.003 445.197C917.541 444.445 916.934 443.792 916.219 443.274C915.505 442.756 914.695 442.384 913.836 442.18C912.977 441.975 912.087 441.942 911.216 442.082C910.344 442.222 909.509 442.532 908.757 442.995C908.006 443.457 907.352 444.064 906.835 444.779C906.318 445.494 905.946 446.305 905.742 447.164Z" fill="white"/>
<path d="M888.906 276.477L582.25 138.182C580.333 137.281 578.218 136.884 576.105 137.029C573.992 137.174 571.951 137.855 570.175 139.009C568.398 140.162 566.945 141.75 565.953 143.622C564.961 145.494 564.462 147.588 564.504 149.707V253.116L885.17 288.313C886.69 288.652 888.283 288.408 889.633 287.63C890.983 286.851 891.992 285.595 892.461 284.108C892.93 282.622 892.825 281.014 892.167 279.601C891.509 278.188 890.345 277.073 888.906 276.477Z" fill="white"/>
<path d="M760.646 682.95L636.116 908.146C634.753 910.527 634.193 913.284 634.52 916.009C634.846 918.734 636.041 921.281 637.927 923.273C639.813 925.265 642.291 926.596 644.993 927.07C647.695 927.543 650.477 927.132 652.927 925.9L890.78 770.163C891.681 769.604 892.425 768.824 892.94 767.898C893.456 766.971 893.727 765.928 893.727 764.868C893.727 763.807 893.456 762.764 892.94 761.837C892.425 760.911 891.681 760.131 890.78 759.572L760.646 682.95Z" fill="white"/>
<path d="M539.314 665.194H367.15L517.832 930.57C520.089 934.242 523.248 937.274 527.008 939.377C530.769 941.481 535.005 942.585 539.314 942.585C543.622 942.585 547.858 941.481 551.619 939.377C555.379 937.274 558.538 934.242 560.795 930.57L711.477 665.194H539.314Z" fill="url(#paint0_linear_576_34)"/>
<path d="M170.689 712.228L290.238 639.655L172.869 447.164C172.08 446.069 170.972 445.244 169.697 444.804C168.422 444.364 167.042 444.329 165.746 444.704C164.45 445.079 163.302 445.846 162.459 446.9C161.616 447.954 161.12 449.243 161.038 450.59L161.038 706.933C161.021 708.065 161.313 709.181 161.883 710.16C162.452 711.138 163.278 711.943 164.27 712.488C165.263 713.033 166.385 713.296 167.516 713.25C168.647 713.204 169.744 712.851 170.689 712.228Z" fill="white"/>
<path d="M317.961 682.955L189.383 758.643C188.482 759.202 187.739 759.982 187.223 760.908C186.707 761.835 186.437 762.878 186.437 763.938C186.437 764.999 186.707 766.042 187.223 766.968C187.739 767.895 188.482 768.675 189.383 769.233L427.236 924.97C429.687 926.203 432.469 926.613 435.171 926.14C437.872 925.667 440.35 924.336 442.236 922.344C444.123 920.352 445.318 917.805 445.644 915.08C445.97 912.355 445.41 909.598 444.048 907.216L319.517 682.021L317.961 682.955Z" fill="white"/>
<path d="M193.395 288.313L514.06 253.116V149.707C514.102 147.588 513.604 145.494 512.611 143.622C511.619 141.75 510.166 140.162 508.39 139.009C506.613 137.855 504.572 137.174 502.459 137.029C500.346 136.884 498.231 137.281 496.314 138.182L189.659 276.477C188.219 277.073 187.056 278.188 186.397 279.601C185.739 281.014 185.634 282.622 186.103 284.108C186.573 285.595 187.582 286.851 188.932 287.63C190.282 288.408 191.874 288.652 193.395 288.313Z" fill="white"/>
<path d="M329.142 605.091L500.371 305.453L172.234 340.338C170.125 340.546 168.104 341.289 166.363 342.497C164.621 343.704 163.216 345.336 162.281 347.239C161.346 349.141 160.911 351.251 161.019 353.368C161.126 355.485 161.772 357.54 162.894 359.338L329.142 605.091Z" fill="url(#paint1_linear_576_34)"/>
<defs>
<linearGradient id="paint0_linear_576_34" x1="539.314" y1="942.585" x2="539.314" y2="665.194" gradientUnits="userSpaceOnUse">
<stop stop-color="#AFB0B1"/>
<stop offset="1" stop-color="#9B9C9E"/>
</linearGradient>
<linearGradient id="paint1_linear_576_34" x1="330.687" y1="605.091" x2="330.687" y2="305.453" gradientUnits="userSpaceOnUse">
<stop stop-color="#AFB0B1"/>
<stop offset="1" stop-color="#9B9C9E"/>
</linearGradient>
</defs>
</svg>