<svg width="312" height="152" viewBox="0 0 312 152" fill="none" xmlns="http://www.w3.org/2000/svg">
<path d="M47.3226 54.4875L47.3694 55.607C47.5231 55.242 47.5351 54.8417 47.3226 54.4875Z" fill="url(#paint0_linear_6861_7376)"/>
<path d="M254.363 111.221C253.535 110.656 253.323 109.527 253.887 108.698C256.145 105.392 258.942 104.739 261.191 104.214C263.24 103.735 264.86 103.357 266.322 101.217C267.784 99.0769 267.547 97.431 267.247 95.3472C266.917 93.0621 266.508 90.2188 268.766 86.9122C271.024 83.6062 273.821 82.9528 276.07 82.429C278.12 81.9514 279.739 81.5724 281.2 79.4329C282.661 77.2935 282.425 75.6471 282.123 73.5637C281.794 71.2787 281.384 68.4356 283.641 65.1295C285.899 61.8234 288.696 61.17 290.945 60.6463C292.995 60.1686 294.615 59.7894 296.075 57.6502C296.64 56.8217 297.769 56.6096 298.598 57.1743C299.426 57.7392 299.638 58.8684 299.073 59.6969C296.816 63.003 294.018 63.6564 291.769 64.1801C289.719 64.6578 288.1 65.0367 286.639 67.1762C285.179 69.3157 285.415 70.9621 285.716 73.0455C286.045 75.3305 286.456 78.1736 284.198 81.4796C281.941 84.7857 279.143 85.4392 276.895 85.9629C274.844 86.4406 273.225 86.8197 271.765 88.9589C270.303 91.099 270.54 92.7449 270.84 94.8287C271.169 97.1137 271.579 99.9571 269.321 103.264C267.063 106.57 264.265 107.223 262.017 107.748C259.968 108.227 258.348 108.605 256.886 110.745C256.321 111.572 255.192 111.786 254.363 111.221Z" fill="#82FDB8"/>
<path d="M260.689 74.2954C263.582 75.6711 259.505 62.6288 254.344 65.1325C249.182 67.6361 245.826 76.174 250.725 72.6463C254.868 69.663 256.069 72.0998 260.689 74.2954Z" fill="#86E29B"/>
<mask id="path-4-inside-1_6861_7376" fill="white">
<path d="M49.425 40.6982C49.425 39.3011 50.5577 38.1685 51.9548 38.1685H255.601C256.999 38.1685 258.131 39.3011 258.131 40.6982V61.7578C258.131 63.1549 256.999 64.2875 255.601 64.2875H51.9548C50.5577 64.2875 49.425 63.1549 49.425 61.7578V40.6982Z"/>
</mask>
<path d="M49.425 40.6982C49.425 39.3011 50.5577 38.1685 51.9548 38.1685H255.601C256.999 38.1685 258.131 39.3011 258.131 40.6982V61.7578C258.131 63.1549 256.999 64.2875 255.601 64.2875H51.9548C50.5577 64.2875 49.425 63.1549 49.425 61.7578V40.6982Z" fill="#FFD33D" fill-opacity="0.15"/>
<path d="M49.425 38.1685H258.131H49.425ZM258.131 64.2875H49.425H258.131ZM51.9548 64.2875C49.1605 64.2875 46.8953 62.0223 46.8953 59.228V43.228C46.8953 40.4337 49.1605 38.1685 51.9548 38.1685C51.9548 38.1685 51.9548 39.3011 51.9548 40.6982V61.7578C51.9548 63.1549 51.9548 64.2875 51.9548 64.2875ZM258.131 38.1685V64.2875V38.1685Z" fill="#FFD33D" mask="url(#path-4-inside-1_6861_7376)"/>
<path d="M64.6036 44.4929C61.1188 44.4929 58.2792 47.3326 58.2792 50.8173C58.2792 54.3021 61.1188 57.1418 64.6036 57.1418C68.0884 57.1418 70.928 54.3021 70.928 50.8173C70.928 47.3326 68.0884 44.4929 64.6036 44.4929ZM64.1293 48.2876C64.1293 48.0283 64.3443 47.8132 64.6036 47.8132C64.8629 47.8132 65.0779 48.0283 65.0779 48.2876V51.4498C65.0779 51.7091 64.8629 51.9241 64.6036 51.9241C64.3443 51.9241 64.1293 51.7091 64.1293 51.4498V48.2876ZM65.1855 53.5874C65.1538 53.6697 65.1096 53.7329 65.0526 53.7962C64.9894 53.8531 64.9198 53.8973 64.8439 53.929C64.768 53.9606 64.6858 53.9796 64.6036 53.9796C64.5214 53.9796 64.4392 53.9606 64.3633 53.929C64.2874 53.8973 64.2178 53.8531 64.1546 53.7962C64.0976 53.7329 64.0534 53.6697 64.0218 53.5874C63.9901 53.5116 63.9712 53.4293 63.9712 53.3471C63.9712 53.2649 63.9901 53.1827 64.0218 53.1068C64.0534 53.0309 64.0976 52.9613 64.1546 52.8981C64.2178 52.8412 64.2874 52.7969 64.3633 52.7653C64.5151 52.702 64.6921 52.702 64.8439 52.7653C64.9198 52.7969 64.9894 52.8412 65.0526 52.8981C65.1096 52.9613 65.1538 53.0309 65.1855 53.1068C65.2171 53.1827 65.236 53.2649 65.236 53.3471C65.236 53.4293 65.2171 53.5116 65.1855 53.5874Z" fill="#FFD33D"/>
<path d="M79.5294 54.228V48.1768H77.4448V47.0435H82.8079V48.1768H80.7133V54.228H79.5294ZM84.7768 54.228H83.6637V46.6387H84.7768V49.8566C85.0939 49.3304 85.6066 49.0673 86.3149 49.0673C86.9018 49.0673 87.3707 49.2596 87.7215 49.6441C88.0723 50.0286 88.2477 50.5413 88.2477 51.1822V54.228H87.1346V51.3643C87.1346 50.9596 87.0401 50.6459 86.8512 50.4233C86.6623 50.1939 86.406 50.0792 86.0822 50.0792C85.6977 50.0792 85.384 50.2242 85.1411 50.5143C84.8982 50.8044 84.7768 51.2125 84.7768 51.7387V54.228ZM90.2285 48.0655C90.0261 48.0655 89.8507 47.9947 89.7023 47.853C89.5539 47.7046 89.4797 47.5258 89.4797 47.3167C89.4797 47.1143 89.5539 46.9423 89.7023 46.8006C89.8507 46.6522 90.0261 46.578 90.2285 46.578C90.4376 46.578 90.613 46.6522 90.7547 46.8006C90.8963 46.9423 90.9672 47.1143 90.9672 47.3167C90.9672 47.5258 90.8963 47.7046 90.7547 47.853C90.613 47.9947 90.4376 48.0655 90.2285 48.0655ZM89.6719 54.228V49.1685H90.785V54.228H89.6719ZM93.8897 54.3292C93.4242 54.3292 93.0127 54.2415 92.6552 54.0661C92.2976 53.884 92.0311 53.6141 91.8558 53.2566L92.6754 52.6697C92.7766 52.8856 92.9385 53.0576 93.1611 53.1858C93.3837 53.3072 93.6266 53.3679 93.8897 53.3679C94.0988 53.3679 94.2708 53.3207 94.4058 53.2262C94.5474 53.1318 94.6183 53.0002 94.6183 52.8316C94.6183 52.6832 94.5609 52.5618 94.4462 52.4673C94.3383 52.3729 94.1359 52.2784 93.8391 52.184L93.3939 52.0625C92.4966 51.8197 92.0548 51.3036 92.0683 50.5143C92.0683 50.0758 92.2403 49.725 92.5843 49.4619C92.9284 49.1988 93.3601 49.0673 93.8796 49.0673C94.6621 49.0673 95.2322 49.354 95.5897 49.9274L94.8206 50.5143C94.5643 50.1703 94.2439 49.9982 93.8593 49.9982C93.6772 49.9982 93.5187 50.0421 93.3837 50.1298C93.2488 50.2107 93.1814 50.3254 93.1814 50.4738C93.1814 50.6088 93.2252 50.7235 93.3129 50.8179C93.4006 50.9123 93.5591 50.9967 93.7885 51.0709L94.3046 51.2227C94.7768 51.3643 95.131 51.5566 95.3671 51.7994C95.6032 52.0356 95.7212 52.356 95.7212 52.7608C95.7212 53.2397 95.5492 53.6209 95.2052 53.9042C94.8611 54.1876 94.4226 54.3292 93.8897 54.3292ZM99.8139 48.0655C99.6116 48.0655 99.4362 47.9947 99.2877 47.853C99.1393 47.7046 99.0651 47.5258 99.0651 47.3167C99.0651 47.1143 99.1393 46.9423 99.2877 46.8006C99.4362 46.6522 99.6116 46.578 99.8139 46.578C100.023 46.578 100.198 46.6522 100.34 46.8006C100.482 46.9423 100.553 47.1143 100.553 47.3167C100.553 47.5258 100.482 47.7046 100.34 47.853C100.198 47.9947 100.023 48.0655 99.8139 48.0655ZM99.2574 54.228V49.1685H100.37V54.228H99.2574ZM103.475 54.3292C103.01 54.3292 102.598 54.2415 102.241 54.0661C101.883 53.884 101.617 53.6141 101.441 53.2566L102.261 52.6697C102.362 52.8856 102.524 53.0576 102.747 53.1858C102.969 53.3072 103.212 53.3679 103.475 53.3679C103.684 53.3679 103.856 53.3207 103.991 53.2262C104.133 53.1318 104.204 53.0002 104.204 52.8316C104.204 52.6832 104.146 52.5618 104.032 52.4673C103.924 52.3729 103.721 52.2784 103.425 52.184L102.979 52.0625C102.082 51.8197 101.64 51.3036 101.654 50.5143C101.654 50.0758 101.826 49.725 102.17 49.4619C102.514 49.1988 102.946 49.0673 103.465 49.0673C104.248 49.0673 104.818 49.354 105.175 49.9274L104.406 50.5143C104.15 50.1703 103.829 49.9982 103.445 49.9982C103.263 49.9982 103.104 50.0421 102.969 50.1298C102.834 50.2107 102.767 50.3254 102.767 50.4738C102.767 50.6088 102.811 50.7235 102.898 50.8179C102.986 50.9123 103.145 50.9967 103.374 51.0709L103.89 51.2227C104.362 51.3643 104.716 51.5566 104.953 51.7994C105.189 52.0356 105.307 52.356 105.307 52.7608C105.307 53.2397 105.135 53.6209 104.791 53.9042C104.447 54.1876 104.008 54.3292 103.475 54.3292ZM110.917 54.3292C110.229 54.3292 109.649 54.0729 109.177 53.5602C108.711 53.0475 108.479 52.4268 108.479 51.6983C108.479 50.9697 108.711 50.349 109.177 49.8363C109.649 49.3236 110.229 49.0673 110.917 49.0673C111.261 49.0673 111.578 49.1449 111.868 49.3C112.159 49.4484 112.381 49.6306 112.536 49.8465V49.1685H113.649V54.228H112.536V53.55C112.381 53.7659 112.159 53.9514 111.868 54.1066C111.578 54.255 111.261 54.3292 110.917 54.3292ZM110.037 52.8518C110.32 53.1622 110.681 53.3173 111.12 53.3173C111.558 53.3173 111.919 53.1622 112.202 52.8518C112.486 52.5415 112.627 52.157 112.627 51.6983C112.627 51.2395 112.486 50.855 112.202 50.5447C111.919 50.2344 111.558 50.0792 111.12 50.0792C110.681 50.0792 110.32 50.2344 110.037 50.5447C109.754 50.855 109.612 51.2395 109.612 51.6983C109.612 52.157 109.754 52.5415 110.037 52.8518ZM119.148 54.3292C118.682 54.3292 118.271 54.2415 117.913 54.0661C117.556 53.884 117.289 53.6141 117.114 53.2566L117.934 52.6697C118.035 52.8856 118.197 53.0576 118.419 53.1858C118.642 53.3072 118.885 53.3679 119.148 53.3679C119.357 53.3679 119.529 53.3207 119.664 53.2262C119.806 53.1318 119.876 53.0002 119.876 52.8316C119.876 52.6832 119.819 52.5618 119.704 52.4673C119.596 52.3729 119.394 52.2784 119.097 52.184L118.652 52.0625C117.755 51.8197 117.313 51.3036 117.326 50.5143C117.326 50.0758 117.498 49.725 117.843 49.4619C118.187 49.1988 118.618 49.0673 119.138 49.0673C119.92 49.0673 120.49 49.354 120.848 49.9274L120.079 50.5143C119.822 50.1703 119.502 49.9982 119.118 49.9982C118.935 49.9982 118.777 50.0421 118.642 50.1298C118.507 50.2107 118.44 50.3254 118.44 50.4738C118.44 50.6088 118.483 50.7235 118.571 50.8179C118.659 50.9123 118.817 50.9967 119.047 51.0709L119.563 51.2227C120.035 51.3643 120.389 51.5566 120.625 51.7994C120.861 52.0356 120.979 52.356 120.979 52.7608C120.979 53.2397 120.807 53.6209 120.463 53.9042C120.119 54.1876 119.681 54.3292 119.148 54.3292ZM123.945 54.3292C123.365 54.3292 122.906 54.137 122.569 53.7524C122.232 53.3612 122.063 52.8417 122.063 52.1941V49.1685H123.176V52.0119C123.176 52.4167 123.264 52.7371 123.439 52.9733C123.615 53.2026 123.864 53.3173 124.188 53.3173C124.566 53.3173 124.866 53.1756 125.089 52.8923C125.311 52.6022 125.423 52.1907 125.423 51.6578V49.1685H126.536V54.228H125.423V53.5399C125.126 54.0661 124.633 54.3292 123.945 54.3292ZM129.642 54.3292C129.177 54.3292 128.765 54.2415 128.408 54.0661C128.05 53.884 127.784 53.6141 127.609 53.2566L128.428 52.6697C128.529 52.8856 128.691 53.0576 128.914 53.1858C129.137 53.3072 129.379 53.3679 129.642 53.3679C129.852 53.3679 130.024 53.3207 130.159 53.2262C130.3 53.1318 130.371 53.0002 130.371 52.8316C130.371 52.6832 130.314 52.5618 130.199 52.4673C130.091 52.3729 129.889 52.2784 129.592 52.184L129.147 52.0625C128.249 51.8197 127.808 51.3036 127.821 50.5143C127.821 50.0758 127.993 49.725 128.337 49.4619C128.681 49.1988 129.113 49.0673 129.632 49.0673C130.415 49.0673 130.985 49.354 131.342 49.9274L130.573 50.5143C130.317 50.1703 129.997 49.9982 129.612 49.9982C129.43 49.9982 129.271 50.0421 129.137 50.1298C129.002 50.2107 128.934 50.3254 128.934 50.4738C128.934 50.6088 128.978 50.7235 129.066 50.8179C129.153 50.9123 129.312 50.9967 129.541 51.0709L130.057 51.2227C130.53 51.3643 130.884 51.5566 131.12 51.7994C131.356 52.0356 131.474 52.356 131.474 52.7608C131.474 53.2397 131.302 53.6209 130.958 53.9042C130.614 54.1876 130.175 54.3292 129.642 54.3292ZM133.742 56.3429H132.629V49.1685H133.742V49.8465C133.897 49.6306 134.12 49.4484 134.41 49.3C134.706 49.1449 135.027 49.0673 135.371 49.0673C136.059 49.0673 136.636 49.3236 137.101 49.8363C137.573 50.349 137.81 50.9697 137.81 51.6983C137.81 52.4268 137.573 53.0475 137.101 53.5602C136.636 54.0729 136.059 54.3292 135.371 54.3292C135.027 54.3292 134.706 54.255 134.41 54.1066C134.12 53.9514 133.897 53.7659 133.742 53.55V56.3429ZM135.169 53.3173C135.607 53.3173 135.968 53.1622 136.251 52.8518C136.535 52.5415 136.676 52.157 136.676 51.6983C136.676 51.2395 136.535 50.855 136.251 50.5447C135.968 50.2344 135.607 50.0792 135.169 50.0792C134.723 50.0792 134.359 50.2344 134.076 50.5447C133.792 50.855 133.651 51.2395 133.651 51.6983C133.651 52.157 133.792 52.5415 134.076 52.8518C134.359 53.1622 134.723 53.3173 135.169 53.3173ZM139.5 48.0655C139.297 48.0655 139.122 47.9947 138.974 47.853C138.825 47.7046 138.751 47.5258 138.751 47.3167C138.751 47.1143 138.825 46.9423 138.974 46.8006C139.122 46.6522 139.297 46.578 139.5 46.578C139.709 46.578 139.884 46.6522 140.026 46.8006C140.168 46.9423 140.238 47.1143 140.238 47.3167C140.238 47.5258 140.168 47.7046 140.026 47.853C139.884 47.9947 139.709 48.0655 139.5 48.0655ZM138.943 54.228V49.1685H140.056V54.228H138.943ZM143.859 54.3292C143.097 54.3292 142.459 54.0796 141.947 53.5804C141.441 53.0745 141.188 52.4471 141.188 51.6983C141.188 50.9494 141.441 50.3254 141.947 49.8262C142.459 49.3203 143.097 49.0673 143.859 49.0673C144.379 49.0673 144.844 49.1921 145.256 49.4417C145.674 49.6913 145.994 50.032 146.217 50.4637L145.245 50.9899C145.117 50.7201 144.932 50.5042 144.689 50.3423C144.446 50.1804 144.169 50.0994 143.859 50.0994C143.414 50.0994 143.046 50.2546 142.756 50.5649C142.466 50.8685 142.321 51.2463 142.321 51.6983C142.321 52.1502 142.466 52.5314 142.756 52.8417C143.046 53.1453 143.414 53.2971 143.859 53.2971C144.169 53.2971 144.446 53.2161 144.689 53.0542C144.932 52.8923 145.117 52.6764 145.245 52.4066L146.217 52.9328C145.994 53.3645 145.674 53.7052 145.256 53.9548C144.844 54.2044 144.379 54.3292 143.859 54.3292ZM147.791 48.0655C147.588 48.0655 147.413 47.9947 147.264 47.853C147.116 47.7046 147.042 47.5258 147.042 47.3167C147.042 47.1143 147.116 46.9423 147.264 46.8006C147.413 46.6522 147.588 46.578 147.791 46.578C148 46.578 148.175 46.6522 148.317 46.8006C148.459 46.9423 148.529 47.1143 148.529 47.3167C148.529 47.5258 148.459 47.7046 148.317 47.853C148.175 47.9947 148 48.0655 147.791 48.0655ZM147.234 54.228V49.1685H148.347V54.228H147.234ZM154.012 53.5703C153.506 54.0762 152.879 54.3292 152.13 54.3292C151.381 54.3292 150.75 54.0762 150.238 53.5703C149.732 53.0576 149.479 52.4336 149.479 51.6983C149.479 50.9629 149.732 50.3423 150.238 49.8363C150.75 49.3236 151.381 49.0673 152.13 49.0673C152.879 49.0673 153.506 49.3236 154.012 49.8363C154.525 50.3423 154.781 50.9629 154.781 51.6983C154.781 52.4336 154.525 53.0576 154.012 53.5703ZM152.13 53.2971C152.568 53.2971 152.929 53.1453 153.213 52.8417C153.503 52.5314 153.648 52.1502 153.648 51.6983C153.648 51.2463 153.503 50.8685 153.213 50.5649C152.929 50.2546 152.568 50.0994 152.13 50.0994C151.685 50.0994 151.317 50.2546 151.027 50.5649C150.744 50.8685 150.602 51.2463 150.602 51.6983C150.602 52.1502 150.744 52.5314 151.027 52.8417C151.317 53.1453 151.685 53.2971 152.13 53.2971ZM157.712 54.3292C157.132 54.3292 156.673 54.137 156.336 53.7524C155.998 53.3612 155.83 52.8417 155.83 52.1941V49.1685H156.943V52.0119C156.943 52.4167 157.031 52.7371 157.206 52.9733C157.381 53.2026 157.631 53.3173 157.955 53.3173C158.333 53.3173 158.633 53.1756 158.855 52.8923C159.078 52.6022 159.189 52.1907 159.189 51.6578V49.1685H160.302V54.228H159.189V53.5399C158.892 54.0661 158.4 54.3292 157.712 54.3292ZM163.409 54.3292C162.944 54.3292 162.532 54.2415 162.174 54.0661C161.817 53.884 161.55 53.6141 161.375 53.2566L162.195 52.6697C162.296 52.8856 162.458 53.0576 162.68 53.1858C162.903 53.3072 163.146 53.3679 163.409 53.3679C163.618 53.3679 163.79 53.3207 163.925 53.2262C164.067 53.1318 164.138 53.0002 164.138 52.8316C164.138 52.6832 164.08 52.5618 163.966 52.4673C163.858 52.3729 163.655 52.2784 163.358 52.184L162.913 52.0625C162.016 51.8197 161.574 51.3036 161.588 50.5143C161.588 50.0758 161.76 49.725 162.104 49.4619C162.448 49.1988 162.879 49.0673 163.399 49.0673C164.181 49.0673 164.751 49.354 165.109 49.9274L164.34 50.5143C164.084 50.1703 163.763 49.9982 163.379 49.9982C163.197 49.9982 163.038 50.0421 162.903 50.1298C162.768 50.2107 162.701 50.3254 162.701 50.4738C162.701 50.6088 162.745 50.7235 162.832 50.8179C162.92 50.9123 163.078 50.9967 163.308 51.0709L163.824 51.2227C164.296 51.3643 164.65 51.5566 164.886 51.7994C165.123 52.0356 165.241 52.356 165.241 52.7608C165.241 53.2397 165.069 53.6209 164.724 53.9042C164.38 54.1876 163.942 54.3292 163.409 54.3292ZM168.777 54.228V49.1685H169.89V50.0691C169.984 49.7857 170.156 49.5564 170.406 49.381C170.662 49.2056 170.935 49.1179 171.226 49.1179C171.401 49.1179 171.546 49.1314 171.661 49.1584V50.3018C171.499 50.2411 171.313 50.2107 171.104 50.2107C170.767 50.2107 170.48 50.349 170.244 50.6256C170.008 50.8955 169.89 51.2733 169.89 51.759V54.228H168.777ZM174.73 54.3292C173.961 54.3292 173.327 54.083 172.827 53.5905C172.335 53.0981 172.089 52.4673 172.089 51.6983C172.089 50.9494 172.338 50.3254 172.838 49.8262C173.337 49.3203 173.968 49.0673 174.73 49.0673C175.431 49.0673 176.012 49.2899 176.47 49.7352C176.936 50.1804 177.169 50.7943 177.169 51.5768C177.169 51.7117 177.165 51.8332 177.158 51.9411H173.182C173.209 52.3526 173.367 52.6866 173.657 52.9429C173.947 53.1925 174.308 53.3173 174.74 53.3173C175.388 53.3173 175.87 53.061 176.187 52.5483L177.037 53.1554C176.551 53.9379 175.782 54.3292 174.73 54.3292ZM173.232 51.1316H176.045C175.985 50.7808 175.826 50.5076 175.57 50.3119C175.32 50.1096 175.027 50.0084 174.689 50.0084C174.339 50.0084 174.025 50.1062 173.748 50.3018C173.478 50.4975 173.306 50.774 173.232 51.1316ZM183.119 56.3429H182.006V53.55C181.851 53.7659 181.628 53.9514 181.338 54.1066C181.048 54.255 180.731 54.3292 180.387 54.3292C179.699 54.3292 179.119 54.0729 178.647 53.5602C178.181 53.0475 177.948 52.4268 177.948 51.6983C177.948 50.9697 178.181 50.349 178.647 49.8363C179.119 49.3236 179.699 49.0673 180.387 49.0673C180.731 49.0673 181.048 49.1449 181.338 49.3C181.628 49.4484 181.851 49.6306 182.006 49.8465V49.1685H183.119V56.3429ZM179.507 52.8518C179.79 53.1622 180.151 53.3173 180.59 53.3173C181.028 53.3173 181.389 53.1622 181.672 52.8518C181.956 52.5415 182.097 52.157 182.097 51.6983C182.097 51.2395 181.956 50.855 181.672 50.5447C181.389 50.2344 181.028 50.0792 180.59 50.0792C180.151 50.0792 179.79 50.2344 179.507 50.5447C179.223 50.855 179.082 51.2395 179.082 51.6983C179.082 52.157 179.223 52.5415 179.507 52.8518ZM186.439 54.3292C185.858 54.3292 185.4 54.137 185.062 53.7524C184.725 53.3612 184.556 52.8417 184.556 52.1941V49.1685H185.67V52.0119C185.67 52.4167 185.757 52.7371 185.933 52.9733C186.108 53.2026 186.358 53.3173 186.681 53.3173C187.059 53.3173 187.359 53.1756 187.582 52.8923C187.805 52.6022 187.916 52.1907 187.916 51.6578V49.1685H189.029V54.228H187.916V53.5399C187.619 54.0661 187.127 54.3292 186.439 54.3292ZM192.814 54.3292C192.045 54.3292 191.411 54.083 190.911 53.5905C190.419 53.0981 190.173 52.4673 190.173 51.6983C190.173 50.9494 190.422 50.3254 190.921 49.8262C191.421 49.3203 192.051 49.0673 192.814 49.0673C193.515 49.0673 194.095 49.2899 194.554 49.7352C195.02 50.1804 195.252 50.7943 195.252 51.5768C195.252 51.7117 195.249 51.8332 195.242 51.9411H191.266C191.292 52.3526 191.451 52.6866 191.741 52.9429C192.031 53.1925 192.392 53.3173 192.824 53.3173C193.471 53.3173 193.954 53.061 194.271 52.5483L195.121 53.1554C194.635 53.9379 193.866 54.3292 192.814 54.3292ZM191.316 51.1316H194.129C194.068 50.7808 193.91 50.5076 193.654 50.3119C193.404 50.1096 193.111 50.0084 192.773 50.0084C192.422 50.0084 192.109 50.1062 191.832 50.3018C191.562 50.4975 191.39 50.774 191.316 51.1316ZM198.006 54.3292C197.54 54.3292 197.129 54.2415 196.771 54.0661C196.414 53.884 196.147 53.6141 195.972 53.2566L196.791 52.6697C196.893 52.8856 197.054 53.0576 197.277 53.1858C197.5 53.3072 197.743 53.3679 198.006 53.3679C198.215 53.3679 198.387 53.3207 198.522 53.2262C198.663 53.1318 198.734 53.0002 198.734 52.8316C198.734 52.6832 198.677 52.5618 198.562 52.4673C198.454 52.3729 198.252 52.2784 197.955 52.184L197.51 52.0625C196.613 51.8197 196.171 51.3036 196.184 50.5143C196.184 50.0758 196.356 49.725 196.7 49.4619C197.044 49.1988 197.476 49.0673 197.995 49.0673C198.778 49.0673 199.348 49.354 199.706 49.9274L198.937 50.5143C198.68 50.1703 198.36 49.9982 197.975 49.9982C197.793 49.9982 197.635 50.0421 197.5 50.1298C197.365 50.2107 197.297 50.3254 197.297 50.4738C197.297 50.6088 197.341 50.7235 197.429 50.8179C197.517 50.9123 197.675 50.9967 197.904 51.0709L198.42 51.2227C198.893 51.3643 199.247 51.5566 199.483 51.7994C199.719 52.0356 199.837 52.356 199.837 52.7608C199.837 53.2397 199.665 53.6209 199.321 53.9042C198.977 54.1876 198.539 54.3292 198.006 54.3292ZM203.118 54.2786C202.606 54.2786 202.187 54.137 201.864 53.8536C201.547 53.5635 201.388 53.1453 201.388 52.5989V50.1602H200.336V49.1685H201.388V47.7619H202.501V49.1685H203.948V50.1602H202.501V52.4167C202.501 52.727 202.569 52.9496 202.704 53.0846C202.838 53.2127 203.054 53.2768 203.351 53.2768C203.594 53.2768 203.793 53.2431 203.948 53.1756V54.1673C203.705 54.2415 203.429 54.2786 203.118 54.2786Z" fill="white"/>
<mask id="path-8-inside-2_6861_7376" fill="white">
<path d="M49.425 78.6448C49.425 77.2476 50.5577 76.115 51.9548 76.115H255.601C256.999 76.115 258.131 77.2476 258.131 78.6448V99.7043C258.131 101.101 256.999 102.234 255.601 102.234H51.9548C50.5577 102.234 49.425 101.101 49.425 99.7043V78.6448Z"/>
</mask>
<path d="M49.425 78.6448C49.425 77.2476 50.5577 76.115 51.9548 76.115H255.601C256.999 76.115 258.131 77.2476 258.131 78.6448V99.7043C258.131 101.101 256.999 102.234 255.601 102.234H51.9548C50.5577 102.234 49.425 101.101 49.425 99.7043V78.6448Z" fill="#FF5263" fill-opacity="0.15"/>
<path d="M49.425 76.115H258.131H49.425ZM258.131 102.234H49.425H258.131ZM51.9548 102.234C49.1605 102.234 46.8953 99.9688 46.8953 97.1745V81.1745C46.8953 78.3802 49.1605 76.115 51.9548 76.115C51.9548 76.115 51.9548 77.2476 51.9548 78.6448V99.7043C51.9548 101.101 51.9548 102.234 51.9548 102.234ZM258.131 76.115V102.234V76.115Z" fill="#FF5263" mask="url(#path-8-inside-2_6861_7376)"/>
<path d="M69.9249 90.512L66.4355 83.8313C65.9666 82.9324 65.3178 82.4395 64.6036 82.4395C63.8894 82.4395 63.2406 82.9324 62.7717 83.8313L59.2823 90.512C58.8407 91.3645 58.7916 92.1822 59.146 92.826C59.5004 93.4697 60.1983 93.8234 61.1142 93.8234H68.093C69.0089 93.8234 69.7068 93.4697 70.0612 92.826C70.4156 92.1822 70.3665 91.3587 69.9249 90.512ZM64.1947 86.4989C64.1947 86.2612 64.3801 86.064 64.6036 86.064C64.8271 86.064 65.0125 86.2612 65.0125 86.4989V89.3986C65.0125 89.6364 64.8271 89.8335 64.6036 89.8335C64.3801 89.8335 64.1947 89.6364 64.1947 89.3986V86.4989ZM64.9907 91.5501C64.9634 91.5733 64.9362 91.5965 64.9089 91.6197C64.8762 91.6429 64.8435 91.6603 64.8108 91.6719C64.7781 91.6893 64.7454 91.7009 64.7072 91.7067C64.6745 91.7125 64.6363 91.7183 64.6036 91.7183C64.5709 91.7183 64.5327 91.7125 64.4946 91.7067C64.4619 91.7009 64.4291 91.6893 64.3964 91.6719C64.3637 91.6603 64.331 91.6429 64.2983 91.6197C64.271 91.5965 64.2438 91.5733 64.2165 91.5501C64.1184 91.4399 64.0584 91.2891 64.0584 91.1384C64.0584 90.9876 64.1184 90.8368 64.2165 90.7266C64.2438 90.7034 64.271 90.6802 64.2983 90.657C64.331 90.6338 64.3637 90.6164 64.3964 90.6048C64.4291 90.5874 64.4619 90.5758 64.4946 90.57C64.5654 90.5526 64.6418 90.5526 64.7072 90.57C64.7454 90.5758 64.7781 90.5874 64.8108 90.6048C64.8435 90.6164 64.8762 90.6338 64.9089 90.657C64.9362 90.6802 64.9634 90.7034 64.9907 90.7266C65.0888 90.8368 65.1488 90.9876 65.1488 91.1384C65.1488 91.2891 65.0888 91.4399 64.9907 91.5501Z" fill="#FF5263"/>
<path d="M79.5294 92.1746V86.1233H77.4448V84.99H82.8079V86.1233H80.7133V92.1746H79.5294ZM84.7768 92.1746H83.6637V84.5852H84.7768V87.8031C85.0939 87.2769 85.6066 87.0138 86.3149 87.0138C86.9018 87.0138 87.3707 87.2061 87.7215 87.5906C88.0723 87.9751 88.2477 88.4878 88.2477 89.1287V92.1746H87.1346V89.3109C87.1346 88.9061 87.0401 88.5924 86.8512 88.3698C86.6623 88.1404 86.406 88.0257 86.0822 88.0257C85.6977 88.0257 85.384 88.1708 85.1411 88.4609C84.8982 88.7509 84.7768 89.1591 84.7768 89.6853V92.1746ZM90.2285 86.012C90.0261 86.012 89.8507 85.9412 89.7023 85.7995C89.5539 85.6511 89.4797 85.4724 89.4797 85.2632C89.4797 85.0608 89.5539 84.8888 89.7023 84.7472C89.8507 84.5987 90.0261 84.5245 90.2285 84.5245C90.4376 84.5245 90.613 84.5987 90.7547 84.7472C90.8963 84.8888 90.9672 85.0608 90.9672 85.2632C90.9672 85.4724 90.8963 85.6511 90.7547 85.7995C90.613 85.9412 90.4376 86.012 90.2285 86.012ZM89.6719 92.1746V87.115H90.785V92.1746H89.6719ZM93.8897 92.2758C93.4242 92.2758 93.0127 92.1881 92.6552 92.0127C92.2976 91.8305 92.0311 91.5607 91.8558 91.2031L92.6754 90.6162C92.7766 90.8321 92.9385 91.0041 93.1611 91.1323C93.3837 91.2537 93.6266 91.3144 93.8897 91.3144C94.0988 91.3144 94.2708 91.2672 94.4058 91.1728C94.5474 91.0783 94.6183 90.9468 94.6183 90.7781C94.6183 90.6297 94.5609 90.5083 94.4462 90.4138C94.3383 90.3194 94.1359 90.2249 93.8391 90.1305L93.3939 90.0091C92.4966 89.7662 92.0548 89.2501 92.0683 88.4609C92.0683 88.0224 92.2403 87.6716 92.5843 87.4085C92.9284 87.1454 93.3601 87.0138 93.8796 87.0138C94.6621 87.0138 95.2322 87.3005 95.5897 87.8739L94.8206 88.4609C94.5643 88.1168 94.2439 87.9448 93.8593 87.9448C93.6772 87.9448 93.5187 87.9886 93.3837 88.0763C93.2488 88.1573 93.1814 88.272 93.1814 88.4204C93.1814 88.5553 93.2252 88.67 93.3129 88.7644C93.4006 88.8589 93.5591 88.9432 93.7885 89.0174L94.3046 89.1692C94.7768 89.3109 95.131 89.5031 95.3671 89.746C95.6032 89.9821 95.7212 90.3025 95.7212 90.7073C95.7212 91.1863 95.5492 91.5674 95.2052 91.8507C94.8611 92.1341 94.4226 92.2758 93.8897 92.2758ZM99.8139 86.012C99.6116 86.012 99.4362 85.9412 99.2877 85.7995C99.1393 85.6511 99.0651 85.4724 99.0651 85.2632C99.0651 85.0608 99.1393 84.8888 99.2877 84.7472C99.4362 84.5987 99.6116 84.5245 99.8139 84.5245C100.023 84.5245 100.198 84.5987 100.34 84.7472C100.482 84.8888 100.553 85.0608 100.553 85.2632C100.553 85.4724 100.482 85.6511 100.34 85.7995C100.198 85.9412 100.023 86.012 99.8139 86.012ZM99.2574 92.1746V87.115H100.37V92.1746H99.2574ZM103.475 92.2758C103.01 92.2758 102.598 92.1881 102.241 92.0127C101.883 91.8305 101.617 91.5607 101.441 91.2031L102.261 90.6162C102.362 90.8321 102.524 91.0041 102.747 91.1323C102.969 91.2537 103.212 91.3144 103.475 91.3144C103.684 91.3144 103.856 91.2672 103.991 91.1728C104.133 91.0783 104.204 90.9468 104.204 90.7781C104.204 90.6297 104.146 90.5083 104.032 90.4138C103.924 90.3194 103.721 90.2249 103.425 90.1305L102.979 90.0091C102.082 89.7662 101.64 89.2501 101.654 88.4609C101.654 88.0224 101.826 87.6716 102.17 87.4085C102.514 87.1454 102.946 87.0138 103.465 87.0138C104.248 87.0138 104.818 87.3005 105.175 87.8739L104.406 88.4609C104.15 88.1168 103.829 87.9448 103.445 87.9448C103.263 87.9448 103.104 87.9886 102.969 88.0763C102.834 88.1573 102.767 88.272 102.767 88.4204C102.767 88.5553 102.811 88.67 102.898 88.7644C102.986 88.8589 103.145 88.9432 103.374 89.0174L103.89 89.1692C104.362 89.3109 104.716 89.5031 104.953 89.746C105.189 89.9821 105.307 90.3025 105.307 90.7073C105.307 91.1863 105.135 91.5674 104.791 91.8507C104.447 92.1341 104.008 92.2758 103.475 92.2758ZM110.917 92.2758C110.229 92.2758 109.649 92.0194 109.177 91.5067C108.711 90.994 108.479 90.3734 108.479 89.6448C108.479 88.9162 108.711 88.2956 109.177 87.7829C109.649 87.2702 110.229 87.0138 110.917 87.0138C111.261 87.0138 111.578 87.0914 111.868 87.2466C112.159 87.395 112.381 87.5771 112.536 87.793V87.115H113.649V92.1746H112.536V91.4966C112.381 91.7125 112.159 91.898 111.868 92.0531C111.578 92.2015 111.261 92.2758 110.917 92.2758ZM110.037 90.7984C110.32 91.1087 110.681 91.2638 111.12 91.2638C111.558 91.2638 111.919 91.1087 112.202 90.7984C112.486 90.488 112.627 90.1035 112.627 89.6448C112.627 89.1861 112.486 88.8015 112.202 88.4912C111.919 88.1809 111.558 88.0257 111.12 88.0257C110.681 88.0257 110.32 88.1809 110.037 88.4912C109.754 88.8015 109.612 89.1861 109.612 89.6448C109.612 90.1035 109.754 90.488 110.037 90.7984ZM119.613 92.2758C118.925 92.2758 118.345 92.0194 117.873 91.5067C117.407 90.994 117.175 90.3734 117.175 89.6448C117.175 88.9162 117.407 88.2956 117.873 87.7829C118.345 87.2702 118.925 87.0138 119.613 87.0138C119.957 87.0138 120.274 87.0914 120.565 87.2466C120.855 87.395 121.077 87.5771 121.232 87.793V84.5852H122.346V92.1746H121.232V91.4966C121.077 91.7125 120.855 91.898 120.565 92.0531C120.274 92.2015 119.957 92.2758 119.613 92.2758ZM118.733 90.7984C119.016 91.1087 119.377 91.2638 119.816 91.2638C120.254 91.2638 120.615 91.1087 120.898 90.7984C121.182 90.488 121.323 90.1035 121.323 89.6448C121.323 89.1861 121.182 88.8015 120.898 88.4912C120.615 88.1809 120.254 88.0257 119.816 88.0257C119.377 88.0257 119.016 88.1809 118.733 88.4912C118.45 88.8015 118.308 89.1861 118.308 89.6448C118.308 90.1035 118.45 90.488 118.733 90.7984ZM126.14 92.2758C125.371 92.2758 124.737 92.0295 124.238 91.5371C123.746 91.0446 123.499 90.4138 123.499 89.6448C123.499 88.896 123.749 88.272 124.248 87.7728C124.747 87.2668 125.378 87.0138 126.14 87.0138C126.842 87.0138 127.422 87.2364 127.881 87.6817C128.346 88.1269 128.579 88.7408 128.579 89.5234C128.579 89.6583 128.576 89.7797 128.569 89.8876H124.592C124.619 90.2992 124.778 90.6331 125.068 90.8894C125.358 91.139 125.719 91.2638 126.151 91.2638C126.798 91.2638 127.28 91.0075 127.598 90.4948L128.448 91.1019C127.962 91.8845 127.193 92.2758 126.14 92.2758ZM124.643 89.0781H127.456C127.395 88.7273 127.237 88.4541 126.98 88.2585C126.731 88.0561 126.437 87.9549 126.1 87.9549C125.749 87.9549 125.435 88.0527 125.159 88.2484C124.889 88.444 124.717 88.7206 124.643 89.0781ZM132.031 92.2758C131.268 92.2758 130.631 92.0261 130.118 91.5269C129.612 91.021 129.359 90.3936 129.359 89.6448C129.359 88.896 129.612 88.272 130.118 87.7728C130.631 87.2668 131.268 87.0138 132.031 87.0138C132.55 87.0138 133.015 87.1386 133.427 87.3882C133.845 87.6378 134.166 87.9785 134.388 88.4103L133.417 88.9365C133.289 88.6666 133.103 88.4507 132.86 88.2888C132.617 88.1269 132.341 88.046 132.031 88.046C131.585 88.046 131.218 88.2011 130.928 88.5115C130.637 88.815 130.492 89.1928 130.492 89.6448C130.492 90.0968 130.637 90.4779 130.928 90.7882C131.218 91.0918 131.585 91.2436 132.031 91.2436C132.341 91.2436 132.617 91.1627 132.86 91.0007C133.103 90.8388 133.289 90.623 133.417 90.3531L134.388 90.8793C134.166 91.3111 133.845 91.6517 133.427 91.9013C133.015 92.1509 132.55 92.2758 132.031 92.2758ZM137.692 92.2758C136.923 92.2758 136.289 92.0295 135.79 91.5371C135.298 91.0446 135.051 90.4138 135.051 89.6448C135.051 88.896 135.301 88.272 135.8 87.7728C136.299 87.2668 136.93 87.0138 137.692 87.0138C138.394 87.0138 138.974 87.2364 139.433 87.6817C139.898 88.1269 140.131 88.7408 140.131 89.5234C140.131 89.6583 140.128 89.7797 140.121 89.8876H136.144C136.171 90.2992 136.33 90.6331 136.62 90.8894C136.91 91.139 137.271 91.2638 137.702 91.2638C138.35 91.2638 138.832 91.0075 139.15 90.4948L140 91.1019C139.514 91.8845 138.745 92.2758 137.692 92.2758ZM136.195 89.0781H139.008C138.947 88.7273 138.789 88.4541 138.532 88.2585C138.283 88.0561 137.989 87.9549 137.652 87.9549C137.301 87.9549 136.987 88.0527 136.711 88.2484C136.441 88.444 136.269 88.7206 136.195 89.0781ZM142.388 94.2894H141.275V87.115H142.388V87.793C142.544 87.5771 142.766 87.395 143.056 87.2466C143.353 87.0914 143.674 87.0138 144.018 87.0138C144.706 87.0138 145.282 87.2702 145.748 87.7829C146.22 88.2956 146.456 88.9162 146.456 89.6448C146.456 90.3734 146.22 90.994 145.748 91.5067C145.282 92.0194 144.706 92.2758 144.018 92.2758C143.674 92.2758 143.353 92.2015 143.056 92.0531C142.766 91.898 142.544 91.7125 142.388 91.4966V94.2894ZM143.815 91.2638C144.254 91.2638 144.615 91.1087 144.898 90.7984C145.181 90.488 145.323 90.1035 145.323 89.6448C145.323 89.1861 145.181 88.8015 144.898 88.4912C144.615 88.1809 144.254 88.0257 143.815 88.0257C143.37 88.0257 143.006 88.1809 142.722 88.4912C142.439 88.8015 142.297 89.1861 142.297 89.6448C142.297 90.1035 142.439 90.488 142.722 90.7984C143.006 91.1087 143.37 91.2638 143.815 91.2638ZM149.687 92.2252C149.174 92.2252 148.756 92.0835 148.432 91.8002C148.115 91.5101 147.957 91.0918 147.957 90.5454V88.1067H146.904V87.115H147.957V85.7085H149.07V87.115H150.517V88.1067H149.07V90.3632C149.07 90.6736 149.137 90.8962 149.272 91.0311C149.407 91.1593 149.623 91.2234 149.92 91.2234C150.162 91.2234 150.361 91.1896 150.517 91.1222V92.1138C150.274 92.1881 149.997 92.2252 149.687 92.2252ZM152.129 86.012C151.926 86.012 151.751 85.9412 151.603 85.7995C151.454 85.6511 151.38 85.4724 151.38 85.2632C151.38 85.0608 151.454 84.8888 151.603 84.7472C151.751 84.5987 151.926 84.5245 152.129 84.5245C152.338 84.5245 152.513 84.5987 152.655 84.7472C152.797 84.8888 152.868 85.0608 152.868 85.2632C152.868 85.4724 152.797 85.6511 152.655 85.7995C152.513 85.9412 152.338 86.012 152.129 86.012ZM151.572 92.1746V87.115H152.685V92.1746H151.572ZM155.76 92.1746L153.473 87.115H154.707L156.245 90.6668L157.794 87.115H159.038L156.741 92.1746H155.76ZM161.972 92.2758C161.203 92.2758 160.569 92.0295 160.07 91.5371C159.577 91.0446 159.331 90.4138 159.331 89.6448C159.331 88.896 159.581 88.272 160.08 87.7728C160.579 87.2668 161.21 87.0138 161.972 87.0138C162.674 87.0138 163.254 87.2364 163.713 87.6817C164.178 88.1269 164.411 88.7408 164.411 89.5234C164.411 89.6583 164.408 89.7797 164.401 89.8876H160.424C160.451 90.2992 160.61 90.6331 160.9 90.8894C161.19 91.139 161.551 91.2638 161.982 91.2638C162.63 91.2638 163.112 91.0075 163.429 90.4948L164.279 91.1019C163.794 91.8845 163.025 92.2758 161.972 92.2758ZM160.475 89.0781H163.288C163.227 88.7273 163.068 88.4541 162.812 88.2585C162.563 88.0561 162.269 87.9549 161.932 87.9549C161.581 87.9549 161.267 88.0527 160.991 88.2484C160.721 88.444 160.549 88.7206 160.475 89.0781ZM167.937 92.1746V87.115H169.05V88.0156C169.144 87.7323 169.316 87.5029 169.566 87.3275C169.822 87.1521 170.095 87.0644 170.386 87.0644C170.561 87.0644 170.706 87.0779 170.821 87.1049V88.2484C170.659 88.1876 170.473 88.1573 170.264 88.1573C169.927 88.1573 169.64 88.2956 169.404 88.5722C169.168 88.842 169.05 89.2198 169.05 89.7055V92.1746H167.937ZM173.89 92.2758C173.121 92.2758 172.487 92.0295 171.987 91.5371C171.495 91.0446 171.249 90.4138 171.249 89.6448C171.249 88.896 171.498 88.272 171.998 87.7728C172.497 87.2668 173.128 87.0138 173.89 87.0138C174.591 87.0138 175.172 87.2364 175.63 87.6817C176.096 88.1269 176.329 88.7408 176.329 89.5234C176.329 89.6583 176.325 89.7797 176.318 89.8876H172.342C172.369 90.2992 172.527 90.6331 172.817 90.8894C173.107 91.139 173.468 91.2638 173.9 91.2638C174.548 91.2638 175.03 91.0075 175.347 90.4948L176.197 91.1019C175.711 91.8845 174.942 92.2758 173.89 92.2758ZM172.392 89.0781H175.205C175.145 88.7273 174.986 88.4541 174.73 88.2585C174.48 88.0561 174.187 87.9549 173.849 87.9549C173.499 87.9549 173.185 88.0527 172.908 88.2484C172.638 88.444 172.466 88.7206 172.392 89.0781ZM182.279 94.2894H181.166V91.4966C181.011 91.7125 180.788 91.898 180.498 92.0531C180.208 92.2015 179.891 92.2758 179.547 92.2758C178.859 92.2758 178.279 92.0194 177.807 91.5067C177.341 90.994 177.109 90.3734 177.109 89.6448C177.109 88.9162 177.341 88.2956 177.807 87.7829C178.279 87.2702 178.859 87.0138 179.547 87.0138C179.891 87.0138 180.208 87.0914 180.498 87.2466C180.788 87.395 181.011 87.5771 181.166 87.793V87.115H182.279V94.2894ZM178.667 90.7984C178.95 91.1087 179.311 91.2638 179.75 91.2638C180.188 91.2638 180.549 91.1087 180.832 90.7984C181.116 90.488 181.257 90.1035 181.257 89.6448C181.257 89.1861 181.116 88.8015 180.832 88.4912C180.549 88.1809 180.188 88.0257 179.75 88.0257C179.311 88.0257 178.95 88.1809 178.667 88.4912C178.384 88.8015 178.242 89.1861 178.242 89.6448C178.242 90.1035 178.384 90.488 178.667 90.7984ZM185.599 92.2758C185.018 92.2758 184.56 92.0835 184.222 91.699C183.885 91.3077 183.717 90.7882 183.717 90.1406V87.115H184.83V89.9585C184.83 90.3632 184.917 90.6837 185.093 90.9198C185.268 91.1492 185.518 91.2638 185.842 91.2638C186.219 91.2638 186.519 91.1222 186.742 90.8388C186.965 90.5488 187.076 90.1373 187.076 89.6043V87.115H188.189V92.1746H187.076V91.4865C186.779 92.0127 186.287 92.2758 185.599 92.2758ZM191.974 92.2758C191.205 92.2758 190.571 92.0295 190.071 91.5371C189.579 91.0446 189.333 90.4138 189.333 89.6448C189.333 88.896 189.582 88.272 190.081 87.7728C190.581 87.2668 191.211 87.0138 191.974 87.0138C192.675 87.0138 193.256 87.2364 193.714 87.6817C194.18 88.1269 194.412 88.7408 194.412 89.5234C194.412 89.6583 194.409 89.7797 194.402 89.8876H190.426C190.453 90.2992 190.611 90.6331 190.901 90.8894C191.191 91.139 191.552 91.2638 191.984 91.2638C192.632 91.2638 193.114 91.0075 193.431 90.4948L194.281 91.1019C193.795 91.8845 193.026 92.2758 191.974 92.2758ZM190.476 89.0781H193.289C193.229 88.7273 193.07 88.4541 192.814 88.2585C192.564 88.0561 192.271 87.9549 191.933 87.9549C191.582 87.9549 191.269 88.0527 190.992 88.2484C190.722 88.444 190.55 88.7206 190.476 89.0781ZM197.166 92.2758C196.7 92.2758 196.289 92.1881 195.931 92.0127C195.574 91.8305 195.307 91.5607 195.132 91.2031L195.951 90.6162C196.053 90.8321 196.214 91.0041 196.437 91.1323C196.66 91.2537 196.903 91.3144 197.166 91.3144C197.375 91.3144 197.547 91.2672 197.682 91.1728C197.823 91.0783 197.894 90.9468 197.894 90.7781C197.894 90.6297 197.837 90.5083 197.722 90.4138C197.614 90.3194 197.412 90.2249 197.115 90.1305L196.67 90.0091C195.773 89.7662 195.331 89.2501 195.344 88.4609C195.344 88.0224 195.516 87.6716 195.86 87.4085C196.204 87.1454 196.636 87.0138 197.156 87.0138C197.938 87.0138 198.508 87.3005 198.866 87.8739L198.097 88.4609C197.84 88.1168 197.52 87.9448 197.135 87.9448C196.953 87.9448 196.795 87.9886 196.66 88.0763C196.525 88.1573 196.457 88.272 196.457 88.4204C196.457 88.5553 196.501 88.67 196.589 88.7644C196.677 88.8589 196.835 88.9432 197.064 89.0174L197.581 89.1692C198.053 89.3109 198.407 89.5031 198.643 89.746C198.879 89.9821 198.997 90.3025 198.997 90.7073C198.997 91.1863 198.825 91.5674 198.481 91.8507C198.137 92.1341 197.699 92.2758 197.166 92.2758ZM202.278 92.2252C201.766 92.2252 201.348 92.0835 201.024 91.8002C200.707 91.5101 200.548 91.0918 200.548 90.5454V88.1067H199.496V87.115H200.548V85.7085H201.661V87.115H203.108V88.1067H201.661V90.3632C201.661 90.6736 201.729 90.8962 201.864 91.0311C201.999 91.1593 202.214 91.2234 202.511 91.2234C202.754 91.2234 202.953 91.1896 203.108 91.1222V92.1138C202.865 92.1881 202.589 92.2252 202.278 92.2252Z" fill="white"/>
<path d="M241.769 68.3709C242.705 67.9679 243.136 66.8828 242.733 65.9476C242.33 65.0124 241.245 64.5811 240.31 64.984C239.375 65.387 238.944 66.4718 239.347 67.407C239.75 68.3423 240.834 68.7738 241.769 68.3709Z" fill="url(#paint1_linear_6861_7376)"/>
<path d="M241.276 110.045C240.977 110.045 240.682 109.978 240.408 109.841L224.471 101.891C223.743 101.528 223.299 100.745 223.351 99.9106C223.401 99.075 223.938 98.3579 224.706 98.0937L246.653 90.5451C247.388 90.2926 248.199 90.5009 248.732 91.0813C249.266 91.6631 249.423 92.5104 249.134 93.2522L243.127 108.75C242.921 109.279 242.512 109.698 241.996 109.902C241.764 109.998 241.52 110.045 241.276 110.045ZM230.615 100.391L240.217 105.183L243.838 95.8422L230.615 100.391Z" fill="url(#paint2_linear_6861_7376)"/>
<path fill-rule="evenodd" clip-rule="evenodd" d="M225.228 0.067937C235.225 0.627712 245.117 4.81202 251.924 12.1546C258.252 18.9814 262.553 28.8491 260.774 37.8481C258.852 50.1203 253.237 61.7945 244.834 70.9444C243.838 72.0297 242.635 73.1554 241.162 73.1611C238.842 73.1706 237.463 70.2614 238.015 68.0067C238.489 66.0732 239.847 64.5324 241.179 63.0216C241.4 62.7712 241.62 62.5215 241.835 62.2711C246.148 57.2527 248.961 50.9605 249.826 44.3995C250.069 42.5509 249.536 39.9661 247.671 39.9965C246.134 40.0215 245.691 41.6588 245.236 43.3386C244.797 44.9605 244.347 46.622 242.892 46.9103C241.517 47.1835 240.293 45.765 240.173 44.3692C240.067 43.1328 240.543 41.9426 241.007 40.781C241.067 40.6312 241.127 40.4818 241.185 40.3329C243.032 35.6058 243.462 30.3677 242.556 25.3774C233.006 20.6251 222.142 18.484 211.513 19.4624C206.762 19.8992 202.088 20.9248 197.416 21.9499C192.002 23.138 186.591 24.3253 181.066 24.5943C179.774 24.6562 178.326 24.6154 177.541 23.4278C176.882 22.4305 177.005 21.1117 177.752 20.1791C179.288 18.2613 181.693 18.1858 183.927 18.1157L184.001 18.1134C194.183 17.7904 204.316 15.9646 213.97 12.7144C214.027 12.6962 214.085 12.6737 214.142 12.651C216.363 11.7532 215.648 8.40632 213.252 8.42295C209.792 8.44711 207.453 8.84542 202.916 10.2397C194.749 12.7898 192.872 10.0466 196.602 7.57187C205.191 2.42638 215.231 -0.490384 225.228 0.067937Z" fill="url(#paint3_linear_6861_7376)"/>
<path d="M171.742 16.3118C170.57 16.3118 169.385 15.9994 168.314 15.346C165.213 13.4493 164.232 9.38418 166.129 6.28179C168.025 3.18093 172.091 2.20013 175.193 4.09683C178.294 5.99359 179.275 10.0587 177.378 13.1611C176.136 15.1906 173.965 16.3118 171.742 16.3118ZM171.761 4.96751C170.159 4.96751 168.593 5.77628 167.698 7.24001C166.331 9.47626 167.037 12.4096 169.275 13.7768C171.513 15.1438 174.445 14.4377 175.811 12.1999C177.179 9.96362 176.472 7.03023 174.235 5.66314C173.461 5.19235 172.605 4.96751 171.761 4.96751Z" fill="#FFB0EB"/>
<path d="M272.165 28.0695C273.184 28.0695 274.009 27.2439 274.009 26.2255C274.009 25.2072 273.184 24.3816 272.165 24.3816C271.146 24.3816 270.321 25.2072 270.321 26.2255C270.321 27.2439 271.146 28.0695 272.165 28.0695Z" fill="url(#paint4_linear_6861_7376)"/>
<path d="M211.637 26.6947C221.312 25.4634 222.674 30.0657 215.059 37.4822C207.445 44.8986 206.863 39.563 208.533 35.0603C210.203 30.5576 207.71 30.5123 204.296 31.3664C200.88 32.2205 201.461 29.2765 211.637 26.6947Z" fill="#75C4FD"/>
<path d="M39.1251 53.4022C39.8676 53.4989 40.6189 53.2789 41.2982 52.9645C42.6187 52.3549 43.7666 51.379 44.5818 50.1761C46.8422 46.84 43.3789 44.8313 40.7581 47.2024C39.4571 48.3793 34.9908 52.8608 39.1251 53.4022Z" fill="url(#paint5_linear_6861_7376)"/>
<path d="M101.208 128.879C94.1551 130.25 85.2191 122.539 92.7789 113.319C98.1613 106.727 98.3153 111.254 98.024 116.683C98.1523 120.083 98.6729 121.501 103.524 122.195C108.375 122.889 108.261 127.509 101.208 128.879Z" fill="url(#paint6_linear_6861_7376)"/>
<path d="M18.0984 90.2282C16.5142 89.3592 14.4195 90.4786 12.9649 91.1395C12.7764 91.2256 12.0023 91.6253 11.7291 91.7144C10.745 92.0357 9.27698 92.8193 8.53006 93.7395C7.74236 95.2169 9.70704 96.4483 12.5652 96.4419C14.3 96.5191 16.2694 95.8614 17.6785 94.8665C18.4798 94.3011 19.221 93.5207 19.2526 92.4829C19.2798 91.5956 18.901 90.669 18.0984 90.2282Z" fill="url(#paint7_linear_6861_7376)"/>
<path d="M40.2672 117.677C39.4207 117.677 38.5636 117.451 37.7895 116.978C35.5473 115.608 34.8396 112.668 36.2097 110.426C37.5798 108.184 40.5192 107.476 42.7615 108.846C43.848 109.51 44.61 110.557 44.9088 111.795C45.2075 113.032 45.0053 114.311 44.3414 115.398C43.4436 116.866 41.8742 117.677 40.2672 117.677ZM40.2808 109.477C39.1234 109.477 37.9917 110.061 37.3444 111.12C36.8661 111.903 36.7212 112.825 36.9355 113.717C37.1513 114.609 37.7005 115.365 38.4837 115.843C40.0997 116.832 42.2183 116.32 43.2067 114.704C43.685 113.921 43.8298 112.999 43.6155 112.107C43.3998 111.215 42.8505 110.459 42.0674 109.981C41.5091 109.64 40.8919 109.477 40.2808 109.477Z" fill="#FFD23D"/>
<path d="M86.6857 111.835C87.7041 111.835 88.5297 111.01 88.5297 109.991C88.5297 108.973 87.7041 108.148 86.6857 108.148C85.6674 108.148 84.8418 108.973 84.8418 109.991C84.8418 111.01 85.6674 111.835 86.6857 111.835Z" fill="url(#paint8_linear_6861_7376)"/>
<path d="M95.8128 149.449L98.0096 147.725C98.2692 147.519 98.4809 147.075 98.4809 146.735V143.337C98.4849 142.864 98.1414 142.343 97.722 142.176L95.8128 149.449ZM95.8128 149.449C95.4254 149.755 94.7903 149.755 94.4029 149.449M95.8128 149.449H94.4029M94.4029 149.449L92.2062 147.725M94.4029 149.449L92.2062 147.725M92.2062 147.725C91.9466 147.523 91.7349 147.075 91.7349 146.735M92.2062 147.725L91.7349 146.735M91.7349 143.337C91.7349 142.864 92.0784 142.343 92.5017 142.176L91.7349 143.337ZM91.7349 143.337V146.735M91.7349 143.337V146.735M95.4112 141.607L97.6046 142.469C97.6048 142.469 97.6051 142.469 97.6053 142.47C97.7416 142.524 97.8851 142.646 97.9957 142.815C98.1061 142.984 98.1661 143.172 98.1647 143.335L98.1647 143.335V143.337V146.735C98.1647 146.845 98.1282 146.995 98.0571 147.144C97.9858 147.294 97.8948 147.412 97.8138 147.476C97.8136 147.477 97.8135 147.477 97.8133 147.477L95.6176 149.2L95.6168 149.2C95.3443 149.416 94.8715 149.416 94.599 149.2L94.5981 149.2L92.4014 147.476L92.4014 147.476L92.3999 147.475C92.3211 147.414 92.2304 147.297 92.1588 147.146C92.0876 146.996 92.0511 146.846 92.0511 146.735V143.337C92.0511 143.173 92.1122 142.984 92.2234 142.816C92.335 142.647 92.4795 142.525 92.6179 142.47C92.618 142.47 92.6181 142.47 92.6182 142.47L94.8133 141.606C94.8799 141.581 94.9879 141.562 95.1119 141.562C95.2358 141.562 95.3438 141.581 95.4105 141.606C95.4107 141.606 95.4109 141.606 95.4112 141.607ZM95.8514 143.858L94.5747 145.198L94.3723 144.986C94.1319 144.733 93.7314 144.733 93.4909 144.986C93.2591 145.229 93.2588 145.622 93.4901 145.866C93.4904 145.866 93.4907 145.866 93.4909 145.867L94.1286 146.545L94.1286 146.545L94.13 146.546C94.2511 146.673 94.4104 146.737 94.5707 146.737C94.7309 146.737 94.8903 146.673 95.0114 146.546L96.7273 144.744C96.9657 144.5 96.9647 144.101 96.7328 143.858C96.4924 143.605 96.0919 143.605 95.8514 143.858Z" fill="#1098FC" stroke="#1098FC" stroke-width="0.632443"/>
<path d="M104.86 148.053C103.972 148.053 103.259 147.636 102.97 147.082L103.54 146.657C103.836 147.112 104.268 147.393 104.875 147.393C105.429 147.393 105.869 147.097 105.869 146.588C105.869 146.156 105.604 145.867 105.095 145.678L104.382 145.404C103.532 145.093 103.16 144.653 103.16 143.917C103.16 143.036 103.881 142.482 104.845 142.482C105.52 142.482 106.082 142.786 106.416 143.219L105.9 143.674C105.627 143.348 105.293 143.143 104.83 143.143C104.298 143.143 103.858 143.439 103.858 143.886C103.858 144.342 104.124 144.547 104.67 144.752L105.323 145.002C106.12 145.306 106.575 145.761 106.575 146.558C106.575 147.469 105.854 148.053 104.86 148.053ZM109.342 148.038C108.158 148.038 107.376 147.18 107.376 146.065C107.376 144.949 108.188 144.091 109.35 144.091C110.336 144.091 111.156 144.782 111.156 145.996C111.156 146.065 111.156 146.11 111.148 146.194H108.037C108.059 146.899 108.598 147.438 109.35 147.438C109.934 147.438 110.298 147.18 110.533 146.778L111.05 147.135C110.708 147.689 110.131 148.038 109.342 148.038ZM108.082 145.662H110.488C110.389 145.04 109.904 144.668 109.327 144.668C108.758 144.668 108.204 145.032 108.082 145.662ZM113.933 148.038C112.779 148.038 111.944 147.165 111.944 146.065C111.944 144.964 112.779 144.091 113.933 144.091C114.722 144.091 115.352 144.501 115.686 145.108L115.117 145.427C114.904 144.994 114.479 144.699 113.933 144.699C113.143 144.699 112.604 145.306 112.604 146.065C112.604 146.824 113.143 147.431 113.933 147.431C114.479 147.431 114.904 147.135 115.117 146.702L115.686 147.021C115.352 147.628 114.722 148.038 113.933 148.038ZM118.033 148.038C117.206 148.038 116.636 147.438 116.636 146.497V144.167H117.289V146.399C117.289 147.036 117.623 147.438 118.147 147.438C118.731 147.438 119.202 146.922 119.202 146.049V144.167H119.854V147.962H119.202V147.378C118.951 147.825 118.519 148.038 118.033 148.038ZM121.243 147.962V144.167H121.895V144.903C122.04 144.418 122.525 144.129 122.958 144.129C123.056 144.129 123.155 144.137 123.254 144.16V144.835C123.132 144.782 123.026 144.774 122.897 144.774C122.419 144.774 121.895 145.192 121.895 146.08V147.962H121.243ZM124.514 143.15C124.248 143.15 124.043 142.953 124.043 142.687C124.043 142.437 124.248 142.224 124.514 142.224C124.78 142.224 124.969 142.437 124.969 142.687C124.969 142.953 124.78 143.15 124.514 143.15ZM124.18 147.962V144.167H124.833V147.962H124.18ZM127.7 148C127.033 148 126.539 147.628 126.539 146.839V144.767H125.735V144.167H126.539V143.112H127.192V144.167H128.285V144.767H127.192V146.755C127.192 147.241 127.404 147.4 127.822 147.4C127.981 147.4 128.163 147.378 128.285 147.324V147.909C128.125 147.962 127.936 148 127.7 148ZM130.286 149.548H129.557L130.385 147.765L128.723 144.167H129.444L130.749 147.051L132.047 144.167H132.775L130.286 149.548ZM136.967 148.038C135.904 148.038 135.107 147.15 135.107 146.065C135.107 144.979 135.904 144.091 136.967 144.091C137.544 144.091 138.052 144.387 138.303 144.752V144.167H138.955V147.962H138.303V147.378C138.052 147.742 137.544 148.038 136.967 148.038ZM137.065 147.438C137.824 147.438 138.356 146.831 138.356 146.065C138.356 145.298 137.824 144.691 137.065 144.691C136.299 144.691 135.768 145.298 135.768 146.065C135.768 146.831 136.299 147.438 137.065 147.438ZM141.905 148.038C140.843 148.038 140.046 147.15 140.046 146.065C140.046 144.979 140.843 144.091 141.905 144.091C142.482 144.091 142.991 144.387 143.241 144.752V142.27H143.894V147.962H143.241V147.378C142.991 147.742 142.482 148.038 141.905 148.038ZM142.004 147.438C142.763 147.438 143.294 146.831 143.294 146.065C143.294 145.298 142.763 144.691 142.004 144.691C141.237 144.691 140.706 145.298 140.706 146.065C140.706 146.831 141.237 147.438 142.004 147.438ZM146.464 147.962L144.711 144.167H145.44L146.738 147.044L148.035 144.167H148.764L147.011 147.962H146.464ZM149.915 143.15C149.65 143.15 149.445 142.953 149.445 142.687C149.445 142.437 149.65 142.224 149.915 142.224C150.181 142.224 150.371 142.437 150.371 142.687C150.371 142.953 150.181 143.15 149.915 143.15ZM149.582 147.962V144.167H150.234V147.962H149.582ZM153.322 148.038C152.168 148.038 151.334 147.165 151.334 146.065C151.334 144.964 152.168 144.091 153.322 144.091C154.111 144.091 154.741 144.501 155.075 145.108L154.506 145.427C154.293 144.994 153.868 144.699 153.322 144.699C152.533 144.699 151.994 145.306 151.994 146.065C151.994 146.824 152.533 147.431 153.322 147.431C153.868 147.431 154.293 147.135 154.506 146.702L155.075 147.021C154.741 147.628 154.111 148.038 153.322 148.038ZM157.749 148.038C156.565 148.038 155.783 147.18 155.783 146.065C155.783 144.949 156.595 144.091 157.756 144.091C158.743 144.091 159.562 144.782 159.562 145.996C159.562 146.065 159.562 146.11 159.555 146.194H156.443C156.466 146.899 157.005 147.438 157.756 147.438C158.34 147.438 158.705 147.18 158.94 146.778L159.456 147.135C159.115 147.689 158.538 148.038 157.749 148.038ZM156.489 145.662H158.895C158.796 145.04 158.31 144.668 157.733 144.668C157.164 144.668 156.61 145.032 156.489 145.662ZM164.624 148.038C164.047 148.038 163.539 147.742 163.288 147.378V147.962H162.636V142.27H163.288V144.752C163.539 144.387 164.047 144.091 164.624 144.091C165.686 144.091 166.483 144.979 166.483 146.065C166.483 147.15 165.686 148.038 164.624 148.038ZM164.525 147.438C165.284 147.438 165.815 146.831 165.815 146.065C165.815 145.298 165.284 144.691 164.525 144.691C163.766 144.691 163.235 145.298 163.235 146.065C163.235 146.831 163.766 147.438 164.525 147.438ZM168.509 149.548H167.781L168.608 147.765L166.946 144.167H167.667L168.972 147.051L170.27 144.167H170.999L168.509 149.548Z" fill="#D6D9DC"/>
<path d="M173.725 147.962V142.573H175.494C176.495 142.573 177.103 143.241 177.103 144C177.103 144.539 176.867 144.888 176.526 145.101C177.049 145.29 177.459 145.67 177.459 146.391C177.459 147.286 176.746 147.962 175.653 147.962H173.725ZM174.431 147.324H175.683C176.412 147.324 176.769 146.953 176.769 146.414C176.769 145.89 176.412 145.495 175.691 145.495H174.431V147.324ZM174.431 144.888H175.494C176.07 144.888 176.412 144.539 176.412 144.053C176.412 143.598 176.07 143.211 175.494 143.211H174.431V144.888ZM178.55 147.962V142.27H179.203V147.962H178.55ZM182.283 148.038C181.13 148.038 180.295 147.157 180.295 146.065C180.295 144.972 181.13 144.091 182.283 144.091C183.422 144.091 184.264 144.972 184.264 146.065C184.264 147.157 183.422 148.038 182.283 148.038ZM182.283 147.431C183.073 147.431 183.596 146.824 183.596 146.065C183.596 145.306 183.073 144.699 182.283 144.699C181.494 144.699 180.963 145.306 180.963 146.065C180.963 146.824 181.494 147.431 182.283 147.431ZM187.051 148.038C185.898 148.038 185.063 147.165 185.063 146.065C185.063 144.964 185.898 144.091 187.051 144.091C187.841 144.091 188.471 144.501 188.805 145.108L188.235 145.427C188.023 144.994 187.598 144.699 187.051 144.699C186.262 144.699 185.723 145.306 185.723 146.065C185.723 146.824 186.262 147.431 187.051 147.431C187.598 147.431 188.023 147.135 188.235 146.702L188.805 147.021C188.471 147.628 187.841 148.038 187.051 148.038ZM192.518 147.962L190.461 146.065V147.962H189.808V142.27H190.461V145.647L192.115 144.167H192.981L191.114 145.844L193.398 147.962H192.518ZM195.376 148.038C194.314 148.038 193.517 147.15 193.517 146.065C193.517 144.979 194.314 144.091 195.376 144.091C195.953 144.091 196.462 144.387 196.712 144.752V144.167H197.365V147.962H196.712V147.378C196.462 147.742 195.953 148.038 195.376 148.038ZM195.475 147.438C196.234 147.438 196.765 146.831 196.765 146.065C196.765 145.298 196.234 144.691 195.475 144.691C194.709 144.691 194.177 145.298 194.177 146.065C194.177 146.831 194.709 147.438 195.475 147.438ZM199.085 143.15C198.82 143.15 198.615 142.953 198.615 142.687C198.615 142.437 198.82 142.224 199.085 142.224C199.351 142.224 199.541 142.437 199.541 142.687C199.541 142.953 199.351 143.15 199.085 143.15ZM198.751 147.962V144.167H199.404V147.962H198.751ZM202.363 148.038C201.3 148.038 200.504 147.15 200.504 146.065C200.504 144.979 201.3 144.091 202.363 144.091C202.94 144.091 203.448 144.387 203.699 144.752V142.27H204.351V147.962H203.699V147.378C203.448 147.742 202.94 148.038 202.363 148.038ZM202.462 147.438C203.22 147.438 203.752 146.831 203.752 146.065C203.752 145.298 203.22 144.691 202.462 144.691C201.695 144.691 201.164 145.298 201.164 146.065C201.164 146.831 201.695 147.438 202.462 147.438Z" fill="#1098FC"/>
<path fill-rule="evenodd" clip-rule="evenodd" d="M49.425 75.5399C49.1559 74.5375 48.9312 73.5193 48.7488 72.4937L49.425 80.673V75.5399ZM51.145 101.476L51.8195 109.635C53.584 111.517 55.7802 113.033 58.0268 114.252C60.6792 115.689 63.5474 116.939 66.3563 118.039C69.1637 119.139 72.3028 120.146 75.3644 119.75C78.0285 119.405 80.7551 117.603 79.8244 114.605C79.0023 112.352 76.6106 110.59 72.7187 108.524C71.8404 108.059 71.612 106.899 72.2807 106.161C72.2852 106.155 72.293 106.148 72.2975 106.143C72.8847 105.495 73.9654 105.221 74.8501 105.076C77.0884 104.711 79.3274 104.913 81.5603 105.115C84.0129 105.336 86.4583 105.557 88.8875 105.025C90.0994 104.76 91.3002 104.432 92.5016 104.103C94.5544 103.542 96.6088 102.981 98.7221 102.734C99.8198 102.605 101.299 102.442 102.266 103.104C103.282 103.8 103.289 105.363 102.936 106.442C102.811 106.82 102.413 107.802 101.999 108.821C101.511 110.024 101.003 111.277 100.9 111.646C100.272 113.896 100.628 116.501 102.981 117.59C105.502 118.754 108.054 117.074 110.114 115.719C110.154 115.693 110.193 115.667 110.233 115.641C112.775 113.964 114.996 111.9 116.951 109.578C118.297 107.977 119.534 106.3 120.567 104.505L120.345 101.823H52.5872C52.0677 101.823 51.5774 101.698 51.145 101.476Z" fill="url(#paint9_linear_6861_7376)"/>
<path fill-rule="evenodd" clip-rule="evenodd" d="M49.425 50.5422C43.2948 57.2579 37.0181 63.8981 29.6421 69.1967C28.4892 70.0246 27.2337 70.8474 25.8171 70.9378C24.3998 71.0283 22.8199 70.1005 22.7067 68.685C22.623 67.6291 23.2387 66.8117 23.8555 65.9928C24.4833 65.1594 25.1122 64.3244 25.0063 63.2347C24.7698 60.7991 21.2148 58.8272 18.9709 58.7165C14.6036 58.5018 9.3417 62.9355 5.57718 66.1075C4.90473 66.6741 4.28006 67.2005 3.7168 67.6529C2.09471 68.9551 0.388065 70.5526 0.285483 72.629C0.0481016 77.4043 3.06791 76.4398 5.95988 75.5161C9.0061 74.5431 11.9105 73.6155 10.7169 79.4891C10.0966 82.54 12.6344 85.5833 15.6468 86.3745C18.6566 87.165 21.8757 86.1721 24.5838 84.6403C26.0405 83.8173 27.4009 82.8415 28.7617 81.8654C29.9326 81.0256 31.1038 80.1855 32.3369 79.4423C34.03 78.4209 36.4636 77.6885 37.7766 79.1659C39.3716 80.9601 37.5413 83.6202 36.1759 85.594C33.4911 89.4753 32.6102 94.5513 33.8295 99.11C34.2456 100.665 34.9534 102.244 36.4807 102.986C37.2485 103.359 38.1522 103.407 38.9086 103.01C40.4581 102.197 40.4417 100.257 40.0116 98.716C39.328 94.7126 42.3896 94.9106 42.4845 96.7092C42.907 104.593 48.6786 110.059 56.4109 111.892L55.5866 101.823H52.5872C50.8408 101.823 49.425 100.408 49.425 98.6611V50.5422Z" fill="url(#paint10_linear_6861_7376)"/>
<defs>
<linearGradient id="paint0_linear_6861_7376" x1="56.8739" y1="55.0466" x2="8.26696" y2="55.0466" gradientUnits="userSpaceOnUse">
<stop stop-color="#FFE466"/>
<stop offset="1" stop-color="#FFAFEA"/>
</linearGradient>
<linearGradient id="paint1_linear_6861_7376" x1="239.346" y1="67.4072" x2="242.733" y2="65.9478" gradientUnits="userSpaceOnUse">
<stop stop-color="#75C3FC"/>
<stop offset="1" stop-color="#75C3FC"/>
</linearGradient>
<linearGradient id="paint2_linear_6861_7376" x1="223.346" y1="100.244" x2="249.277" y2="100.244" gradientUnits="userSpaceOnUse">
<stop stop-color="#75C3FC"/>
<stop offset="0.0929" stop-color="#81C2F6"/>
<stop offset="1" stop-color="#F0B8BD"/>
</linearGradient>
<linearGradient id="paint3_linear_6861_7376" x1="238.05" y1="44.1699" x2="261.178" y2="44.1699" gradientUnits="userSpaceOnUse">
<stop stop-color="#FFE466"/>
<stop offset="1" stop-color="#FFAFEA"/>
</linearGradient>
<linearGradient id="paint4_linear_6861_7376" x1="270.322" y1="26.2254" x2="274.009" y2="26.2254" gradientUnits="userSpaceOnUse">
<stop stop-color="#75C3FC"/>
<stop offset="1" stop-color="#75C3FC"/>
</linearGradient>
<linearGradient id="paint5_linear_6861_7376" x1="72.1178" y1="20.2799" x2="21.602" y2="69.2044" gradientUnits="userSpaceOnUse">
<stop stop-color="#FFE466"/>
<stop offset="1" stop-color="#FFAFEA"/>
</linearGradient>
<linearGradient id="paint6_linear_6861_7376" x1="125.541" y1="119.542" x2="102.63" y2="119.542" gradientUnits="userSpaceOnUse">
<stop stop-color="#FFE466"/>
<stop offset="1" stop-color="#FFAFEA"/>
</linearGradient>
<linearGradient id="paint7_linear_6861_7376" x1="19.2545" y1="93.1798" x2="8.35551" y2="93.1798" gradientUnits="userSpaceOnUse">
<stop stop-color="#FFE466"/>
<stop offset="1" stop-color="#FFAFEA"/>
</linearGradient>
<linearGradient id="paint8_linear_6861_7376" x1="84.8422" y1="109.991" x2="88.5298" y2="109.991" gradientUnits="userSpaceOnUse">
<stop stop-color="#75C3FC"/>
<stop offset="1" stop-color="#75C3FC"/>
</linearGradient>
<linearGradient id="paint9_linear_6861_7376" x1="50.8078" y1="97.3897" x2="119.505" y2="91.7099" gradientUnits="userSpaceOnUse">
<stop stop-color="#FFE466"/>
<stop offset="1" stop-color="#FFAFEA"/>
</linearGradient>
<linearGradient id="paint10_linear_6861_7376" x1="47.4681" y1="80.2297" x2="-6.62396" y2="80.2297" gradientUnits="userSpaceOnUse">
<stop stop-color="#FFE466"/>
<stop offset="1" stop-color="#FFAFEA"/>
</linearGradient>
</defs>
</svg>
