<svg width="305" height="162" viewBox="0 0 305 162" fill="none" xmlns="http://www.w3.org/2000/svg">
<rect width="305" height="162" fill="#F2F4F6"/>
<rect width="305" height="162" fill="#F2F4F6"/>
<rect x="51" y="45" width="198" height="25" rx="3" fill="#F2F4F6"/>
<rect x="51" y="81" width="198" height="24.5" rx="3" fill="#F2F4F6"/>
<path d="M48.8335 60.7246L48.8779 61.7873C49.0238 61.4408 49.0352 61.0608 48.8335 60.7246Z" fill="url(#paint0_linear_5971_51952)"/>
<path d="M245.376 114.581C244.589 114.045 244.388 112.973 244.924 112.187C247.067 109.048 249.723 108.428 251.857 107.929C253.802 107.475 255.34 107.116 256.728 105.084C258.116 103.053 257.891 101.491 257.606 99.5123C257.293 97.3432 256.904 94.644 259.048 91.5051C261.192 88.3667 263.847 87.7464 265.982 87.2492C267.928 86.7958 269.465 86.4361 270.852 84.4051C272.238 82.3741 272.014 80.8112 271.728 78.8334C271.416 76.6643 271.026 73.9653 273.169 70.8269C275.312 67.6885 277.968 67.0682 280.102 66.571C282.049 66.1176 283.586 65.7576 284.972 63.7269C285.509 62.9404 286.58 62.7391 287.367 63.2751C288.153 63.8114 288.355 64.8833 287.819 65.6698C285.675 68.8082 283.02 69.4285 280.885 69.9257C278.939 70.3791 277.402 70.7388 276.015 72.7698C274.628 74.8008 274.853 76.3637 275.139 78.3415C275.451 80.5106 275.841 83.2096 273.698 86.348C271.555 89.4864 268.899 90.1067 266.765 90.6039C264.818 91.0574 263.281 91.4173 261.895 93.448C260.507 95.4795 260.732 97.042 261.017 99.0202C261.33 101.189 261.719 103.888 259.575 107.027C257.431 110.166 254.776 110.786 252.642 111.285C250.696 111.739 249.158 112.098 247.77 114.129C247.234 114.914 246.162 115.117 245.376 114.581Z" fill="#82FDB8"/>
<path d="M251.381 79.5282C254.127 80.8341 250.257 68.4532 245.357 70.8299C240.457 73.2066 237.271 81.3115 241.922 77.9627C245.855 75.1307 246.995 77.4439 251.381 79.5282Z" fill="#86E29B"/>
<mask id="path-7-inside-1_5971_51952" fill="white">
<path d="M50.8291 47.7288C50.8291 46.4025 51.9043 45.3273 53.2306 45.3273H246.551C247.877 45.3273 248.952 46.4025 248.952 47.7288V67.5318C248.952 68.8581 247.877 69.9333 246.551 69.9333H53.2306C51.9043 69.9333 50.8291 68.8581 50.8291 67.5318V47.7288Z"/>
</mask>
<path d="M50.8291 47.7288C50.8291 46.4025 51.9043 45.3273 53.2306 45.3273H246.551C247.877 45.3273 248.952 46.4025 248.952 47.7288V67.5318C248.952 68.8581 247.877 69.9333 246.551 69.9333H53.2306C51.9043 69.9333 50.8291 68.8581 50.8291 67.5318V47.7288Z" fill="#FFD33D" fill-opacity="0.1"/>
<path d="M65.2381 51.3311C61.9301 51.3311 59.2344 54.0267 59.2344 57.3348C59.2344 60.6429 61.9301 63.3385 65.2381 63.3385C68.5462 63.3385 71.2419 60.6429 71.2419 57.3348C71.2419 54.0267 68.5462 51.3311 65.2381 51.3311ZM64.7878 54.9333C64.7878 54.6871 64.992 54.483 65.2381 54.483C65.4843 54.483 65.6884 54.6871 65.6884 54.9333V57.9352C65.6884 58.1813 65.4843 58.3854 65.2381 58.3854C64.992 58.3854 64.7878 58.1813 64.7878 57.9352V54.9333ZM65.7905 59.9644C65.7604 60.0425 65.7184 60.1025 65.6644 60.1626C65.6043 60.2166 65.5383 60.2586 65.4663 60.2886C65.3942 60.3187 65.3162 60.3367 65.2381 60.3367C65.1601 60.3367 65.082 60.3187 65.01 60.2886C64.9379 60.2586 64.8719 60.2166 64.8118 60.1626C64.7578 60.1025 64.7158 60.0425 64.6858 59.9644C64.6558 59.8924 64.6377 59.8143 64.6377 59.7363C64.6377 59.6582 64.6558 59.5802 64.6858 59.5081C64.7158 59.4361 64.7578 59.3701 64.8118 59.31C64.8719 59.256 64.9379 59.214 65.01 59.1839C65.1541 59.1239 65.3222 59.1239 65.4663 59.1839C65.5383 59.214 65.6043 59.256 65.6644 59.31C65.7184 59.3701 65.7604 59.4361 65.7905 59.5081C65.8205 59.5802 65.8385 59.6582 65.8385 59.7363C65.8385 59.8143 65.8205 59.8924 65.7905 59.9644Z" fill="#F66A0A"/>
<path d="M79.407 61.1302V55.3859H77.4281V54.31H82.5193V55.3859H80.5309V61.1302H79.407ZM84.3883 61.1302H83.3317V53.9258H84.3883V56.9805C84.6893 56.481 85.176 56.2312 85.8484 56.2312C86.4056 56.2312 86.8507 56.4137 87.1837 56.7787C87.5167 57.1438 87.6832 57.6305 87.6832 58.2388V61.1302H86.6265V58.4118C86.6265 58.0275 86.5369 57.7297 86.3576 57.5184C86.1782 57.3007 85.9349 57.1918 85.6275 57.1918C85.2625 57.1918 84.9647 57.3295 84.7341 57.6049C84.5036 57.8802 84.3883 58.2677 84.3883 58.7672V61.1302ZM89.5636 55.2802C89.3714 55.2802 89.2049 55.213 89.064 55.0785C88.9232 54.9376 88.8527 54.7679 88.8527 54.5694C88.8527 54.3772 88.9232 54.2139 89.064 54.0795C89.2049 53.9386 89.3714 53.8681 89.5636 53.8681C89.7621 53.8681 89.9286 53.9386 90.0631 54.0795C90.1975 54.2139 90.2648 54.3772 90.2648 54.5694C90.2648 54.7679 90.1975 54.9376 90.0631 55.0785C89.9286 55.213 89.7621 55.2802 89.5636 55.2802ZM89.0352 61.1302V56.3273H90.0919V61.1302H89.0352ZM93.0391 61.2263C92.5972 61.2263 92.2066 61.1431 91.8672 60.9766C91.5278 60.8036 91.2748 60.5475 91.1083 60.2081L91.8864 59.6509C91.9825 59.8559 92.1362 60.0192 92.3475 60.1408C92.5588 60.2561 92.7894 60.3137 93.0391 60.3137C93.2376 60.3137 93.4009 60.2689 93.529 60.1793C93.6635 60.0896 93.7307 59.9647 93.7307 59.8046C93.7307 59.6637 93.6763 59.5485 93.5674 59.4588C93.465 59.3692 93.2729 59.2795 92.9911 59.1898L92.5684 59.0746C91.7167 58.844 91.2972 58.3541 91.31 57.6049C91.31 57.1886 91.4733 56.8556 91.7999 56.6058C92.1265 56.3561 92.5364 56.2312 93.0295 56.2312C93.7724 56.2312 94.3135 56.5034 94.6529 57.0477L93.9229 57.6049C93.6795 57.2783 93.3753 57.1149 93.0103 57.1149C92.8374 57.1149 92.6869 57.1566 92.5588 57.2398C92.4307 57.3167 92.3667 57.4255 92.3667 57.5664C92.3667 57.6945 92.4083 57.8034 92.4916 57.893C92.5748 57.9827 92.7253 58.0627 92.9431 58.1332L93.433 58.2773C93.8812 58.4118 94.2174 58.5943 94.4416 58.8248C94.6657 59.049 94.7778 59.3531 94.7778 59.7374C94.7778 60.1921 94.6145 60.5539 94.2879 60.8229C93.9613 61.0918 93.545 61.2263 93.0391 61.2263ZM98.663 55.2802C98.4708 55.2802 98.3043 55.213 98.1635 55.0785C98.0226 54.9376 97.9521 54.7679 97.9521 54.5694C97.9521 54.3772 98.0226 54.2139 98.1635 54.0795C98.3043 53.9386 98.4708 53.8681 98.663 53.8681C98.8615 53.8681 99.028 53.9386 99.1625 54.0795C99.297 54.2139 99.3642 54.3772 99.3642 54.5694C99.3642 54.7679 99.297 54.9376 99.1625 55.0785C99.028 55.213 98.8615 55.2802 98.663 55.2802ZM98.1346 61.1302V56.3273H99.1913V61.1302H98.1346ZM102.139 61.2263C101.697 61.2263 101.306 61.1431 100.967 60.9766C100.627 60.8036 100.374 60.5475 100.208 60.2081L100.986 59.6509C101.082 59.8559 101.236 60.0192 101.447 60.1408C101.658 60.2561 101.889 60.3137 102.139 60.3137C102.337 60.3137 102.5 60.2689 102.628 60.1793C102.763 60.0896 102.83 59.9647 102.83 59.8046C102.83 59.6637 102.776 59.5485 102.667 59.4588C102.564 59.3692 102.372 59.2795 102.091 59.1898L101.668 59.0746C100.816 58.844 100.397 58.3541 100.409 57.6049C100.409 57.1886 100.573 56.8556 100.899 56.6058C101.226 56.3561 101.636 56.2312 102.129 56.2312C102.872 56.2312 103.413 56.5034 103.752 57.0477L103.022 57.6049C102.779 57.2783 102.475 57.1149 102.11 57.1149C101.937 57.1149 101.786 57.1566 101.658 57.2398C101.53 57.3167 101.466 57.4255 101.466 57.5664C101.466 57.6945 101.508 57.8034 101.591 57.893C101.674 57.9827 101.825 58.0627 102.042 58.1332L102.532 58.2773C102.981 58.4118 103.317 58.5943 103.541 58.8248C103.765 59.049 103.877 59.3531 103.877 59.7374C103.877 60.1921 103.714 60.5539 103.387 60.8229C103.061 61.0918 102.644 61.2263 102.139 61.2263ZM109.203 61.2263C108.55 61.2263 107.999 60.983 107.551 60.4963C107.109 60.0096 106.888 59.4204 106.888 58.7288C106.888 58.0371 107.109 57.448 107.551 56.9613C107.999 56.4745 108.55 56.2312 109.203 56.2312C109.53 56.2312 109.831 56.3048 110.106 56.4521C110.382 56.593 110.593 56.7659 110.74 56.9709V56.3273H111.797V61.1302H110.74V60.4866C110.593 60.6916 110.382 60.8677 110.106 61.015C109.831 61.1559 109.53 61.2263 109.203 61.2263ZM108.368 59.8238C108.637 60.1184 108.979 60.2657 109.395 60.2657C109.812 60.2657 110.154 60.1184 110.423 59.8238C110.692 59.5293 110.827 59.1642 110.827 58.7288C110.827 58.2933 110.692 57.9283 110.423 57.6337C110.154 57.3391 109.812 57.1918 109.395 57.1918C108.979 57.1918 108.637 57.3391 108.368 57.6337C108.099 57.9283 107.964 58.2933 107.964 58.7288C107.964 59.1642 108.099 59.5293 108.368 59.8238ZM117.017 61.2263C116.575 61.2263 116.184 61.1431 115.845 60.9766C115.505 60.8036 115.252 60.5475 115.086 60.2081L115.864 59.6509C115.96 59.8559 116.114 60.0192 116.325 60.1408C116.536 60.2561 116.767 60.3137 117.017 60.3137C117.215 60.3137 117.378 60.2689 117.506 60.1793C117.641 60.0896 117.708 59.9647 117.708 59.8046C117.708 59.6637 117.654 59.5485 117.545 59.4588C117.442 59.3692 117.25 59.2795 116.969 59.1898L116.546 59.0746C115.694 58.844 115.275 58.3541 115.287 57.6049C115.287 57.1886 115.451 56.8556 115.777 56.6058C116.104 56.3561 116.514 56.2312 117.007 56.2312C117.75 56.2312 118.291 56.5034 118.63 57.0477L117.9 57.6049C117.657 57.2783 117.353 57.1149 116.988 57.1149C116.815 57.1149 116.664 57.1566 116.536 57.2398C116.408 57.3167 116.344 57.4255 116.344 57.5664C116.344 57.6945 116.386 57.8034 116.469 57.893C116.552 57.9827 116.703 58.0627 116.92 58.1332L117.41 58.2773C117.859 58.4118 118.195 58.5943 118.419 58.8248C118.643 59.049 118.755 59.3531 118.755 59.7374C118.755 60.1921 118.592 60.5539 118.265 60.8229C117.939 61.0918 117.522 61.2263 117.017 61.2263ZM121.571 61.2263C121.02 61.2263 120.585 61.0438 120.264 60.6788C119.944 60.3073 119.784 59.8142 119.784 59.1994V56.3273H120.841V59.0265C120.841 59.4108 120.924 59.715 121.09 59.9391C121.257 60.1568 121.494 60.2657 121.801 60.2657C122.16 60.2657 122.445 60.1312 122.656 59.8623C122.868 59.5869 122.973 59.1962 122.973 58.6903V56.3273H124.03V61.1302H122.973V60.477C122.691 60.9766 122.224 61.2263 121.571 61.2263ZM126.979 61.2263C126.537 61.2263 126.146 61.1431 125.807 60.9766C125.468 60.8036 125.215 60.5475 125.048 60.2081L125.826 59.6509C125.922 59.8559 126.076 60.0192 126.287 60.1408C126.499 60.2561 126.729 60.3137 126.979 60.3137C127.178 60.3137 127.341 60.2689 127.469 60.1793C127.603 60.0896 127.671 59.9647 127.671 59.8046C127.671 59.6637 127.616 59.5485 127.507 59.4588C127.405 59.3692 127.213 59.2795 126.931 59.1898L126.508 59.0746C125.657 58.844 125.237 58.3541 125.25 57.6049C125.25 57.1886 125.413 56.8556 125.74 56.6058C126.066 56.3561 126.476 56.2312 126.969 56.2312C127.712 56.2312 128.253 56.5034 128.593 57.0477L127.863 57.6049C127.619 57.2783 127.315 57.1149 126.95 57.1149C126.777 57.1149 126.627 57.1566 126.499 57.2398C126.371 57.3167 126.307 57.4255 126.307 57.5664C126.307 57.6945 126.348 57.8034 126.431 57.893C126.515 57.9827 126.665 58.0627 126.883 58.1332L127.373 58.2773C127.821 58.4118 128.157 58.5943 128.381 58.8248C128.606 59.049 128.718 59.3531 128.718 59.7374C128.718 60.1921 128.554 60.5539 128.228 60.8229C127.901 61.0918 127.485 61.2263 126.979 61.2263ZM130.87 63.1379H129.814V56.3273H130.87V56.9709C131.018 56.7659 131.229 56.593 131.504 56.4521C131.786 56.3048 132.09 56.2312 132.417 56.2312C133.07 56.2312 133.618 56.4745 134.06 56.9613C134.508 57.448 134.732 58.0371 134.732 58.7288C134.732 59.4204 134.508 60.0096 134.06 60.4963C133.618 60.983 133.07 61.2263 132.417 61.2263C132.09 61.2263 131.786 61.1559 131.504 61.015C131.229 60.8677 131.018 60.6916 130.87 60.4866V63.1379ZM132.225 60.2657C132.641 60.2657 132.984 60.1184 133.253 59.8238C133.522 59.5293 133.656 59.1642 133.656 58.7288C133.656 58.2933 133.522 57.9283 133.253 57.6337C132.984 57.3391 132.641 57.1918 132.225 57.1918C131.802 57.1918 131.456 57.3391 131.187 57.6337C130.918 57.9283 130.784 58.2933 130.784 58.7288C130.784 59.1642 130.918 59.5293 131.187 59.8238C131.456 60.1184 131.802 60.2657 132.225 60.2657ZM136.336 55.2802C136.144 55.2802 135.978 55.213 135.837 55.0785C135.696 54.9376 135.626 54.7679 135.626 54.5694C135.626 54.3772 135.696 54.2139 135.837 54.0795C135.978 53.9386 136.144 53.8681 136.336 53.8681C136.535 53.8681 136.701 53.9386 136.836 54.0795C136.97 54.2139 137.038 54.3772 137.038 54.5694C137.038 54.7679 136.97 54.9376 136.836 55.0785C136.701 55.213 136.535 55.2802 136.336 55.2802ZM135.808 61.1302V56.3273H136.865V61.1302H135.808ZM140.475 61.2263C139.751 61.2263 139.146 60.9894 138.659 60.5155C138.179 60.0352 137.939 59.4396 137.939 58.7288C137.939 58.0179 138.179 57.4255 138.659 56.9516C139.146 56.4713 139.751 56.2312 140.475 56.2312C140.968 56.2312 141.41 56.3497 141.8 56.5866C142.197 56.8236 142.502 57.147 142.713 57.5568L141.791 58.0563C141.669 57.8002 141.493 57.5952 141.262 57.4416C141.032 57.2879 140.769 57.211 140.475 57.211C140.052 57.211 139.703 57.3583 139.428 57.6529C139.152 57.9411 139.015 58.2997 139.015 58.7288C139.015 59.1578 139.152 59.5196 139.428 59.8142C139.703 60.1024 140.052 60.2465 140.475 60.2465C140.769 60.2465 141.032 60.1697 141.262 60.016C141.493 59.8623 141.669 59.6573 141.791 59.4012L142.713 59.9007C142.502 60.3105 142.197 60.6339 141.8 60.8709C141.41 61.1078 140.968 61.2263 140.475 61.2263ZM144.207 55.2802C144.015 55.2802 143.848 55.213 143.707 55.0785C143.567 54.9376 143.496 54.7679 143.496 54.5694C143.496 54.3772 143.567 54.2139 143.707 54.0795C143.848 53.9386 144.015 53.8681 144.207 53.8681C144.405 53.8681 144.572 53.9386 144.706 54.0795C144.841 54.2139 144.908 54.3772 144.908 54.5694C144.908 54.7679 144.841 54.9376 144.706 55.0785C144.572 55.213 144.405 55.2802 144.207 55.2802ZM143.679 61.1302V56.3273H144.735V61.1302H143.679ZM150.113 60.5059C149.633 60.9862 149.037 61.2263 148.326 61.2263C147.615 61.2263 147.016 60.9862 146.53 60.5059C146.049 60.0192 145.809 59.4268 145.809 58.7288C145.809 58.0307 146.049 57.4416 146.53 56.9613C147.016 56.4745 147.615 56.2312 148.326 56.2312C149.037 56.2312 149.633 56.4745 150.113 56.9613C150.6 57.4416 150.843 58.0307 150.843 58.7288C150.843 59.4268 150.6 60.0192 150.113 60.5059ZM148.326 60.2465C148.742 60.2465 149.085 60.1024 149.354 59.8142C149.629 59.5196 149.767 59.1578 149.767 58.7288C149.767 58.2997 149.629 57.9411 149.354 57.6529C149.085 57.3583 148.742 57.211 148.326 57.211C147.903 57.211 147.554 57.3583 147.279 57.6529C147.01 57.9411 146.876 58.2997 146.876 58.7288C146.876 59.1578 147.01 59.5196 147.279 59.8142C147.554 60.1024 147.903 60.2465 148.326 60.2465ZM153.625 61.2263C153.074 61.2263 152.639 61.0438 152.319 60.6788C151.998 60.3073 151.838 59.8142 151.838 59.1994V56.3273H152.895V59.0265C152.895 59.4108 152.978 59.715 153.145 59.9391C153.311 60.1568 153.548 60.2657 153.856 60.2657C154.214 60.2657 154.499 60.1312 154.711 59.8623C154.922 59.5869 155.028 59.1962 155.028 58.6903V56.3273H156.084V61.1302H155.028V60.477C154.746 60.9766 154.278 61.2263 153.625 61.2263ZM159.033 61.2263C158.591 61.2263 158.201 61.1431 157.861 60.9766C157.522 60.8036 157.269 60.5475 157.103 60.2081L157.881 59.6509C157.977 59.8559 158.13 60.0192 158.342 60.1408C158.553 60.2561 158.784 60.3137 159.033 60.3137C159.232 60.3137 159.395 60.2689 159.523 60.1793C159.658 60.0896 159.725 59.9647 159.725 59.8046C159.725 59.6637 159.671 59.5485 159.562 59.4588C159.459 59.3692 159.267 59.2795 158.985 59.1898L158.563 59.0746C157.711 58.844 157.291 58.3541 157.304 57.6049C157.304 57.1886 157.468 56.8556 157.794 56.6058C158.121 56.3561 158.531 56.2312 159.024 56.2312C159.767 56.2312 160.308 56.5034 160.647 57.0477L159.917 57.6049C159.674 57.2783 159.37 57.1149 159.005 57.1149C158.832 57.1149 158.681 57.1566 158.553 57.2398C158.425 57.3167 158.361 57.4255 158.361 57.5664C158.361 57.6945 158.403 57.8034 158.486 57.893C158.569 57.9827 158.72 58.0627 158.937 58.1332L159.427 58.2773C159.875 58.4118 160.212 58.5943 160.436 58.8248C160.66 59.049 160.772 59.3531 160.772 59.7374C160.772 60.1921 160.609 60.5539 160.282 60.8229C159.956 61.0918 159.539 61.2263 159.033 61.2263ZM164.129 61.1302V56.3273H165.186V57.1822C165.275 56.9132 165.438 56.6955 165.675 56.529C165.919 56.3625 166.178 56.2792 166.453 56.2792C166.62 56.2792 166.758 56.292 166.867 56.3177V57.4031C166.713 57.3455 166.537 57.3167 166.338 57.3167C166.018 57.3167 165.746 57.448 165.522 57.7105C165.298 57.9667 165.186 58.3253 165.186 58.7864V61.1302H164.129ZM169.78 61.2263C169.05 61.2263 168.448 60.9926 167.974 60.5251C167.507 60.0576 167.273 59.4588 167.273 58.7288C167.273 58.0179 167.51 57.4255 167.984 56.9516C168.458 56.4713 169.056 56.2312 169.78 56.2312C170.446 56.2312 170.997 56.4425 171.432 56.8652C171.874 57.2879 172.095 57.8706 172.095 58.6135C172.095 58.7416 172.092 58.8568 172.086 58.9593H168.31C168.336 59.3499 168.486 59.6669 168.762 59.9103C169.037 60.1472 169.38 60.2657 169.79 60.2657C170.404 60.2657 170.862 60.0224 171.163 59.5357L171.97 60.112C171.509 60.8549 170.779 61.2263 169.78 61.2263ZM168.358 58.1908H171.029C170.971 57.8578 170.821 57.5984 170.577 57.4127C170.34 57.2206 170.062 57.1246 169.742 57.1246C169.409 57.1246 169.111 57.2174 168.848 57.4031C168.592 57.5888 168.429 57.8514 168.358 58.1908ZM177.744 63.1379H176.688V60.4866C176.54 60.6916 176.329 60.8677 176.054 61.015C175.778 61.1559 175.477 61.2263 175.151 61.2263C174.497 61.2263 173.947 60.983 173.498 60.4963C173.056 60.0096 172.836 59.4204 172.836 58.7288C172.836 58.0371 173.056 57.448 173.498 56.9613C173.947 56.4745 174.497 56.2312 175.151 56.2312C175.477 56.2312 175.778 56.3048 176.054 56.4521C176.329 56.593 176.54 56.7659 176.688 56.9709V56.3273H177.744V63.1379ZM174.315 59.8238C174.584 60.1184 174.926 60.2657 175.343 60.2657C175.759 60.2657 176.102 60.1184 176.371 59.8238C176.64 59.5293 176.774 59.1642 176.774 58.7288C176.774 58.2933 176.64 57.9283 176.371 57.6337C176.102 57.3391 175.759 57.1918 175.343 57.1918C174.926 57.1918 174.584 57.3391 174.315 57.6337C174.046 57.9283 173.911 58.2933 173.911 58.7288C173.911 59.1642 174.046 59.5293 174.315 59.8238ZM180.895 61.2263C180.344 61.2263 179.909 61.0438 179.589 60.6788C179.269 60.3073 179.108 59.8142 179.108 59.1994V56.3273H180.165V59.0265C180.165 59.4108 180.248 59.715 180.415 59.9391C180.581 60.1568 180.818 60.2657 181.126 60.2657C181.484 60.2657 181.769 60.1312 181.981 59.8623C182.192 59.5869 182.298 59.1962 182.298 58.6903V56.3273H183.354V61.1302H182.298V60.477C182.016 60.9766 181.548 61.2263 180.895 61.2263ZM186.947 61.2263C186.217 61.2263 185.615 60.9926 185.141 60.5251C184.674 60.0576 184.44 59.4588 184.44 58.7288C184.44 58.0179 184.677 57.4255 185.151 56.9516C185.625 56.4713 186.223 56.2312 186.947 56.2312C187.613 56.2312 188.164 56.4425 188.599 56.8652C189.041 57.2879 189.262 57.8706 189.262 58.6135C189.262 58.7416 189.259 58.8568 189.252 58.9593H185.477C185.503 59.3499 185.653 59.6669 185.929 59.9103C186.204 60.1472 186.547 60.2657 186.957 60.2657C187.571 60.2657 188.029 60.0224 188.33 59.5357L189.137 60.112C188.676 60.8549 187.946 61.2263 186.947 61.2263ZM185.525 58.1908H188.196C188.138 57.8578 187.988 57.5984 187.744 57.4127C187.507 57.2206 187.229 57.1246 186.909 57.1246C186.576 57.1246 186.278 57.2174 186.015 57.4031C185.759 57.5888 185.596 57.8514 185.525 58.1908ZM191.876 61.2263C191.434 61.2263 191.043 61.1431 190.704 60.9766C190.364 60.8036 190.111 60.5475 189.945 60.2081L190.723 59.6509C190.819 59.8559 190.973 60.0192 191.184 60.1408C191.395 60.2561 191.626 60.3137 191.876 60.3137C192.074 60.3137 192.237 60.2689 192.366 60.1793C192.5 60.0896 192.567 59.9647 192.567 59.8046C192.567 59.6637 192.513 59.5485 192.404 59.4588C192.302 59.3692 192.109 59.2795 191.828 59.1898L191.405 59.0746C190.553 58.844 190.134 58.3541 190.147 57.6049C190.147 57.1886 190.31 56.8556 190.636 56.6058C190.963 56.3561 191.373 56.2312 191.866 56.2312C192.609 56.2312 193.15 56.5034 193.489 57.0477L192.759 57.6049C192.516 57.2783 192.212 57.1149 191.847 57.1149C191.674 57.1149 191.523 57.1566 191.395 57.2398C191.267 57.3167 191.203 57.4255 191.203 57.5664C191.203 57.6945 191.245 57.8034 191.328 57.893C191.411 57.9827 191.562 58.0627 191.78 58.1332L192.269 58.2773C192.718 58.4118 193.054 58.5943 193.278 58.8248C193.502 59.049 193.614 59.3531 193.614 59.7374C193.614 60.1921 193.451 60.5539 193.124 60.8229C192.798 61.0918 192.382 61.2263 191.876 61.2263ZM196.729 61.1783C196.243 61.1783 195.845 61.0438 195.538 60.7748C195.237 60.4995 195.087 60.1024 195.087 59.5837V57.2686H194.088V56.3273H195.087V54.992H196.143V56.3273H197.517V57.2686H196.143V59.4108C196.143 59.7054 196.207 59.9167 196.335 60.0448C196.463 60.1664 196.668 60.2273 196.95 60.2273C197.181 60.2273 197.37 60.1953 197.517 60.1312V61.0726C197.286 61.1431 197.024 61.1783 196.729 61.1783Z" fill="#24272A"/>
<path d="M50.8291 45.3273H248.952H50.8291ZM248.952 69.9333H50.8291H248.952ZM53.2306 69.9333C50.578 69.9333 48.4276 67.7829 48.4276 65.1303V50.1303C48.4276 47.4776 50.578 45.3273 53.2306 45.3273C53.2306 45.3273 53.2306 46.4025 53.2306 47.7288V67.5318C53.2306 68.8581 53.2306 69.9333 53.2306 69.9333ZM248.952 45.3273V69.9333V45.3273Z" fill="#F66A0A" mask="url(#path-7-inside-1_5971_51952)"/>
<mask id="path-11-inside-2_5971_51952" fill="white">
<path d="M50.8291 83.7512C50.8291 82.4249 51.9043 81.3497 53.2306 81.3497H246.551C247.877 81.3497 248.952 82.4249 248.952 83.7512V103.554C248.952 104.881 247.877 105.956 246.551 105.956H53.2306C51.9043 105.956 50.8291 104.881 50.8291 103.554V83.7512Z"/>
</mask>
<path d="M50.8291 83.7512C50.8291 82.4249 51.9043 81.3497 53.2306 81.3497H246.551C247.877 81.3497 248.952 82.4249 248.952 83.7512V103.554C248.952 104.881 247.877 105.956 246.551 105.956H53.2306C51.9043 105.956 50.8291 104.881 50.8291 103.554V83.7512Z" fill="#D73847" fill-opacity="0.1"/>
<path d="M70.2895 95.0166L66.9771 88.6746C66.532 87.8213 65.9161 87.3534 65.2381 87.3534C64.5601 87.3534 63.9442 87.8213 63.4991 88.6746L60.1866 95.0166C59.7674 95.8259 59.7208 96.6021 60.0572 97.2132C60.3936 97.8243 61.0561 98.1601 61.9256 98.1601H68.5505C69.42 98.1601 70.0825 97.8243 70.4189 97.2132C70.7554 96.6021 70.7088 95.8204 70.2895 95.0166ZM64.8499 91.207C64.8499 90.9813 65.0259 90.7942 65.2381 90.7942C65.4503 90.7942 65.6263 90.9813 65.6263 91.207V93.9596C65.6263 94.1854 65.4503 94.3725 65.2381 94.3725C65.0259 94.3725 64.8499 94.1854 64.8499 93.9596V91.207ZM65.6056 96.0021C65.5797 96.0241 65.5538 96.0461 65.5279 96.0681C65.4969 96.0902 65.4658 96.1067 65.4348 96.1177C65.4037 96.1342 65.3726 96.1452 65.3364 96.1507C65.3054 96.1562 65.2691 96.1617 65.2381 96.1617C65.207 96.1617 65.1708 96.1562 65.1346 96.1507C65.1035 96.1452 65.0725 96.1342 65.0414 96.1177C65.0104 96.1067 64.9793 96.0902 64.9482 96.0681C64.9224 96.0461 64.8965 96.0241 64.8706 96.0021C64.7774 95.8975 64.7205 95.7543 64.7205 95.6112C64.7205 95.4681 64.7774 95.3249 64.8706 95.2203C64.8965 95.1983 64.9224 95.1763 64.9482 95.1543C64.9793 95.1323 65.0104 95.1157 65.0414 95.1047C65.0725 95.0882 65.1035 95.0772 65.1346 95.0717C65.2019 95.0552 65.2743 95.0552 65.3364 95.0717C65.3726 95.0772 65.4037 95.0882 65.4348 95.1047C65.4658 95.1157 65.4969 95.1323 65.5279 95.1543C65.5538 95.1763 65.5797 95.1983 65.6056 95.2203C65.6987 95.3249 65.7556 95.4681 65.7556 95.6112C65.7556 95.7543 65.6987 95.8975 65.6056 96.0021Z" fill="#D73847"/>
<path d="M79.407 97.1527V91.4083H77.4281V90.3325H82.5193V91.4083H80.5309V97.1527H79.407ZM84.3883 97.1527H83.3317V89.9482H84.3883V93.0029C84.6893 92.5034 85.176 92.2537 85.8484 92.2537C86.4056 92.2537 86.8507 92.4362 87.1837 92.8012C87.5167 93.1662 87.6832 93.6529 87.6832 94.2613V97.1527H86.6265V94.4342C86.6265 94.05 86.5369 93.7522 86.3576 93.5409C86.1782 93.3231 85.9349 93.2143 85.6275 93.2143C85.2625 93.2143 84.9647 93.3519 84.7341 93.6273C84.5036 93.9027 84.3883 94.2901 84.3883 94.7896V97.1527ZM89.5636 91.3027C89.3714 91.3027 89.2049 91.2354 89.064 91.1009C88.9232 90.9601 88.8527 90.7903 88.8527 90.5918C88.8527 90.3997 88.9232 90.2364 89.064 90.1019C89.2049 89.961 89.3714 89.8906 89.5636 89.8906C89.7621 89.8906 89.9286 89.961 90.0631 90.1019C90.1975 90.2364 90.2648 90.3997 90.2648 90.5918C90.2648 90.7903 90.1975 90.9601 90.0631 91.1009C89.9286 91.2354 89.7621 91.3027 89.5636 91.3027ZM89.0352 97.1527V92.3497H90.0919V97.1527H89.0352ZM93.0391 97.2488C92.5972 97.2488 92.2066 97.1655 91.8672 96.999C91.5278 96.8261 91.2748 96.5699 91.1083 96.2305L91.8864 95.6734C91.9825 95.8783 92.1362 96.0416 92.3475 96.1633C92.5588 96.2786 92.7894 96.3362 93.0391 96.3362C93.2376 96.3362 93.4009 96.2914 93.529 96.2017C93.6635 96.1121 93.7307 95.9872 93.7307 95.8271C93.7307 95.6862 93.6763 95.5709 93.5674 95.4813C93.465 95.3916 93.2729 95.302 92.9911 95.2123L92.5684 95.097C91.7167 94.8665 91.2972 94.3766 91.31 93.6273C91.31 93.2111 91.4733 92.878 91.7999 92.6283C92.1265 92.3785 92.5364 92.2537 93.0295 92.2537C93.7724 92.2537 94.3135 92.5258 94.6529 93.0702L93.9229 93.6273C93.6795 93.3007 93.3753 93.1374 93.0103 93.1374C92.8374 93.1374 92.6869 93.179 92.5588 93.2623C92.4307 93.3391 92.3667 93.448 92.3667 93.5889C92.3667 93.717 92.4083 93.8258 92.4916 93.9155C92.5748 94.0052 92.7253 94.0852 92.9431 94.1556L93.433 94.2997C93.8812 94.4342 94.2174 94.6167 94.4416 94.8473C94.6657 95.0714 94.7778 95.3756 94.7778 95.7598C94.7778 96.2145 94.6145 96.5764 94.2879 96.8453C93.9613 97.1143 93.545 97.2488 93.0391 97.2488ZM98.663 91.3027C98.4708 91.3027 98.3043 91.2354 98.1635 91.1009C98.0226 90.9601 97.9521 90.7903 97.9521 90.5918C97.9521 90.3997 98.0226 90.2364 98.1635 90.1019C98.3043 89.961 98.4708 89.8906 98.663 89.8906C98.8615 89.8906 99.028 89.961 99.1625 90.1019C99.297 90.2364 99.3642 90.3997 99.3642 90.5918C99.3642 90.7903 99.297 90.9601 99.1625 91.1009C99.028 91.2354 98.8615 91.3027 98.663 91.3027ZM98.1346 97.1527V92.3497H99.1913V97.1527H98.1346ZM102.139 97.2488C101.697 97.2488 101.306 97.1655 100.967 96.999C100.627 96.8261 100.374 96.5699 100.208 96.2305L100.986 95.6734C101.082 95.8783 101.236 96.0416 101.447 96.1633C101.658 96.2786 101.889 96.3362 102.139 96.3362C102.337 96.3362 102.5 96.2914 102.628 96.2017C102.763 96.1121 102.83 95.9872 102.83 95.8271C102.83 95.6862 102.776 95.5709 102.667 95.4813C102.564 95.3916 102.372 95.302 102.091 95.2123L101.668 95.097C100.816 94.8665 100.397 94.3766 100.409 93.6273C100.409 93.2111 100.573 92.878 100.899 92.6283C101.226 92.3785 101.636 92.2537 102.129 92.2537C102.872 92.2537 103.413 92.5258 103.752 93.0702L103.022 93.6273C102.779 93.3007 102.475 93.1374 102.11 93.1374C101.937 93.1374 101.786 93.179 101.658 93.2623C101.53 93.3391 101.466 93.448 101.466 93.5889C101.466 93.717 101.508 93.8258 101.591 93.9155C101.674 94.0052 101.825 94.0852 102.042 94.1556L102.532 94.2997C102.981 94.4342 103.317 94.6167 103.541 94.8473C103.765 95.0714 103.877 95.3756 103.877 95.7598C103.877 96.2145 103.714 96.5764 103.387 96.8453C103.061 97.1143 102.644 97.2488 102.139 97.2488ZM109.203 97.2488C108.55 97.2488 107.999 97.0054 107.551 96.5187C107.109 96.032 106.888 95.4428 106.888 94.7512C106.888 94.0596 107.109 93.4704 107.551 92.9837C107.999 92.497 108.55 92.2537 109.203 92.2537C109.53 92.2537 109.831 92.3273 110.106 92.4746C110.382 92.6155 110.593 92.7884 110.74 92.9933V92.3497H111.797V97.1527H110.74V96.5091C110.593 96.714 110.382 96.8901 110.106 97.0374C109.831 97.1783 109.53 97.2488 109.203 97.2488ZM108.368 95.8463C108.637 96.1409 108.979 96.2882 109.395 96.2882C109.812 96.2882 110.154 96.1409 110.423 95.8463C110.692 95.5517 110.827 95.1867 110.827 94.7512C110.827 94.3157 110.692 93.9507 110.423 93.6561C110.154 93.3615 109.812 93.2143 109.395 93.2143C108.979 93.2143 108.637 93.3615 108.368 93.6561C108.099 93.9507 107.964 94.3157 107.964 94.7512C107.964 95.1867 108.099 95.5517 108.368 95.8463ZM117.458 97.2488C116.805 97.2488 116.254 97.0054 115.806 96.5187C115.364 96.032 115.143 95.4428 115.143 94.7512C115.143 94.0596 115.364 93.4704 115.806 92.9837C116.254 92.497 116.805 92.2537 117.458 92.2537C117.785 92.2537 118.086 92.3273 118.361 92.4746C118.637 92.6155 118.848 92.7884 118.995 92.9933V89.9482H120.052V97.1527H118.995V96.5091C118.848 96.714 118.637 96.8901 118.361 97.0374C118.086 97.1783 117.785 97.2488 117.458 97.2488ZM116.623 95.8463C116.892 96.1409 117.234 96.2882 117.651 96.2882C118.067 96.2882 118.409 96.1409 118.678 95.8463C118.947 95.5517 119.082 95.1867 119.082 94.7512C119.082 94.3157 118.947 93.9507 118.678 93.6561C118.409 93.3615 118.067 93.2143 117.651 93.2143C117.234 93.2143 116.892 93.3615 116.623 93.6561C116.354 93.9507 116.219 94.3157 116.219 94.7512C116.219 95.1867 116.354 95.5517 116.623 95.8463ZM123.654 97.2488C122.924 97.2488 122.322 97.015 121.849 96.5475C121.381 96.08 121.147 95.4813 121.147 94.7512C121.147 94.0404 121.384 93.448 121.858 92.9741C122.332 92.4938 122.931 92.2537 123.654 92.2537C124.321 92.2537 124.871 92.465 125.307 92.8877C125.749 93.3103 125.97 93.8931 125.97 94.6359C125.97 94.764 125.966 94.8793 125.96 94.9818H122.185C122.21 95.3724 122.361 95.6894 122.636 95.9328C122.912 96.1697 123.254 96.2882 123.664 96.2882C124.279 96.2882 124.737 96.0448 125.038 95.5581L125.845 96.1345C125.384 96.8773 124.654 97.2488 123.654 97.2488ZM122.233 94.2133H124.903C124.846 93.8803 124.695 93.6209 124.452 93.4352C124.215 93.2431 123.936 93.147 123.616 93.147C123.283 93.147 122.985 93.2399 122.723 93.4256C122.467 93.6113 122.303 93.8739 122.233 94.2133ZM129.246 97.2488C128.522 97.2488 127.917 97.0118 127.43 96.5379C126.95 96.0576 126.71 95.4621 126.71 94.7512C126.71 94.0404 126.95 93.448 127.43 92.9741C127.917 92.4938 128.522 92.2537 129.246 92.2537C129.739 92.2537 130.181 92.3721 130.572 92.6091C130.969 92.846 131.273 93.1694 131.484 93.5793L130.562 94.0788C130.44 93.8226 130.264 93.6177 130.034 93.464C129.803 93.3103 129.541 93.2335 129.246 93.2335C128.823 93.2335 128.474 93.3808 128.199 93.6753C127.924 93.9635 127.786 94.3221 127.786 94.7512C127.786 95.1803 127.924 95.5421 128.199 95.8367C128.474 96.1249 128.823 96.269 129.246 96.269C129.541 96.269 129.803 96.1921 130.034 96.0384C130.264 95.8847 130.44 95.6798 130.562 95.4236L131.484 95.9231C131.273 96.333 130.969 96.6564 130.572 96.8933C130.181 97.1303 129.739 97.2488 129.246 97.2488ZM134.621 97.2488C133.891 97.2488 133.289 97.015 132.815 96.5475C132.347 96.08 132.114 95.4813 132.114 94.7512C132.114 94.0404 132.35 93.448 132.824 92.9741C133.298 92.4938 133.897 92.2537 134.621 92.2537C135.287 92.2537 135.837 92.465 136.273 92.8877C136.715 93.3103 136.936 93.8931 136.936 94.6359C136.936 94.764 136.933 94.8793 136.926 94.9818H133.151C133.177 95.3724 133.327 95.6894 133.602 95.9328C133.878 96.1697 134.22 96.2882 134.63 96.2882C135.245 96.2882 135.703 96.0448 136.004 95.5581L136.811 96.1345C136.35 96.8773 135.62 97.2488 134.621 97.2488ZM133.199 94.2133H135.869C135.812 93.8803 135.661 93.6209 135.418 93.4352C135.181 93.2431 134.902 93.147 134.582 93.147C134.249 93.147 133.951 93.2399 133.689 93.4256C133.433 93.6113 133.269 93.8739 133.199 94.2133ZM139.079 99.1604H138.022V92.3497H139.079V92.9933C139.226 92.7884 139.437 92.6155 139.713 92.4746C139.994 92.3273 140.299 92.2537 140.625 92.2537C141.278 92.2537 141.826 92.497 142.268 92.9837C142.716 93.4704 142.94 94.0596 142.94 94.7512C142.94 95.4428 142.716 96.032 142.268 96.5187C141.826 97.0054 141.278 97.2488 140.625 97.2488C140.299 97.2488 139.994 97.1783 139.713 97.0374C139.437 96.8901 139.226 96.714 139.079 96.5091V99.1604ZM140.433 96.2882C140.849 96.2882 141.192 96.1409 141.461 95.8463C141.73 95.5517 141.864 95.1867 141.864 94.7512C141.864 94.3157 141.73 93.9507 141.461 93.6561C141.192 93.3615 140.849 93.2143 140.433 93.2143C140.01 93.2143 139.665 93.3615 139.396 93.6561C139.127 93.9507 138.992 94.3157 138.992 94.7512C138.992 95.1867 139.127 95.5517 139.396 95.8463C139.665 96.1409 140.01 96.2882 140.433 96.2882ZM146.007 97.2007C145.52 97.2007 145.123 97.0663 144.816 96.7973C144.515 96.5219 144.364 96.1249 144.364 95.6061V93.2911H143.365V92.3497H144.364V91.0145H145.421V92.3497H146.795V93.2911H145.421V95.4332C145.421 95.7278 145.485 95.9392 145.613 96.0672C145.741 96.1889 145.946 96.2497 146.228 96.2497C146.458 96.2497 146.647 96.2177 146.795 96.1537V97.0951C146.564 97.1655 146.302 97.2007 146.007 97.2007ZM148.325 91.3027C148.133 91.3027 147.967 91.2354 147.826 91.1009C147.685 90.9601 147.614 90.7903 147.614 90.5918C147.614 90.3997 147.685 90.2364 147.826 90.1019C147.967 89.961 148.133 89.8906 148.325 89.8906C148.524 89.8906 148.69 89.961 148.825 90.1019C148.959 90.2364 149.026 90.3997 149.026 90.5918C149.026 90.7903 148.959 90.9601 148.825 91.1009C148.69 91.2354 148.524 91.3027 148.325 91.3027ZM147.797 97.1527V92.3497H148.853V97.1527H147.797ZM151.772 97.1527L149.601 92.3497H150.773L152.233 95.7214L153.703 92.3497H154.884L152.704 97.1527H151.772ZM157.669 97.2488C156.939 97.2488 156.337 97.015 155.864 96.5475C155.396 96.08 155.162 95.4813 155.162 94.7512C155.162 94.0404 155.399 93.448 155.873 92.9741C156.347 92.4938 156.946 92.2537 157.669 92.2537C158.335 92.2537 158.886 92.465 159.322 92.8877C159.764 93.3103 159.984 93.8931 159.984 94.6359C159.984 94.764 159.981 94.8793 159.975 94.9818H156.2C156.225 95.3724 156.376 95.6894 156.651 95.9328C156.927 96.1697 157.269 96.2882 157.679 96.2882C158.294 96.2882 158.752 96.0448 159.053 95.5581L159.86 96.1345C159.399 96.8773 158.668 97.2488 157.669 97.2488ZM156.248 94.2133H158.918C158.861 93.8803 158.71 93.6209 158.467 93.4352C158.23 93.2431 157.951 93.147 157.631 93.147C157.298 93.147 157 93.2399 156.738 93.4256C156.481 93.6113 156.318 93.8739 156.248 94.2133ZM163.331 97.1527V92.3497H164.388V93.2047C164.478 92.9357 164.641 92.7179 164.878 92.5514C165.121 92.3849 165.381 92.3017 165.656 92.3017C165.823 92.3017 165.96 92.3145 166.069 92.3401V93.4256C165.915 93.368 165.739 93.3391 165.541 93.3391C165.221 93.3391 164.948 93.4704 164.724 93.733C164.5 93.9891 164.388 94.3478 164.388 94.8089V97.1527H163.331ZM168.983 97.2488C168.253 97.2488 167.651 97.015 167.177 96.5475C166.709 96.08 166.476 95.4813 166.476 94.7512C166.476 94.0404 166.713 93.448 167.186 92.9741C167.66 92.4938 168.259 92.2537 168.983 92.2537C169.649 92.2537 170.199 92.465 170.635 92.8877C171.077 93.3103 171.298 93.8931 171.298 94.6359C171.298 94.764 171.295 94.8793 171.288 94.9818H167.513C167.539 95.3724 167.689 95.6894 167.964 95.9328C168.24 96.1697 168.582 96.2882 168.992 96.2882C169.607 96.2882 170.065 96.0448 170.366 95.5581L171.173 96.1345C170.712 96.8773 169.982 97.2488 168.983 97.2488ZM167.561 94.2133H170.232C170.174 93.8803 170.023 93.6209 169.78 93.4352C169.543 93.2431 169.264 93.147 168.944 93.147C168.611 93.147 168.314 93.2399 168.051 93.4256C167.795 93.6113 167.631 93.8739 167.561 94.2133ZM176.947 99.1604H175.89V96.5091C175.743 96.714 175.532 96.8901 175.256 97.0374C174.981 97.1783 174.68 97.2488 174.353 97.2488C173.7 97.2488 173.149 97.0054 172.701 96.5187C172.259 96.032 172.038 95.4428 172.038 94.7512C172.038 94.0596 172.259 93.4704 172.701 92.9837C173.149 92.497 173.7 92.2537 174.353 92.2537C174.68 92.2537 174.981 92.3273 175.256 92.4746C175.532 92.6155 175.743 92.7884 175.89 92.9933V92.3497H176.947V99.1604ZM173.517 95.8463C173.786 96.1409 174.129 96.2882 174.545 96.2882C174.962 96.2882 175.304 96.1409 175.573 95.8463C175.842 95.5517 175.977 95.1867 175.977 94.7512C175.977 94.3157 175.842 93.9507 175.573 93.6561C175.304 93.3615 174.962 93.2143 174.545 93.2143C174.129 93.2143 173.786 93.3615 173.517 93.6561C173.249 93.9507 173.114 94.3157 173.114 94.7512C173.114 95.1867 173.249 95.5517 173.517 95.8463ZM180.098 97.2488C179.547 97.2488 179.112 97.0663 178.791 96.7012C178.471 96.3298 178.311 95.8367 178.311 95.2219V92.3497H179.368V95.049C179.368 95.4332 179.451 95.7374 179.618 95.9616C179.784 96.1793 180.021 96.2882 180.328 96.2882C180.687 96.2882 180.972 96.1537 181.183 95.8847C181.395 95.6093 181.5 95.2187 181.5 94.7128V92.3497H182.557V97.1527H181.5V96.4995C181.219 96.999 180.751 97.2488 180.098 97.2488ZM186.15 97.2488C185.42 97.2488 184.818 97.015 184.344 96.5475C183.876 96.08 183.643 95.4813 183.643 94.7512C183.643 94.0404 183.879 93.448 184.353 92.9741C184.827 92.4938 185.426 92.2537 186.15 92.2537C186.816 92.2537 187.366 92.465 187.802 92.8877C188.244 93.3103 188.465 93.8931 188.465 94.6359C188.465 94.764 188.462 94.8793 188.455 94.9818H184.68C184.706 95.3724 184.856 95.6894 185.131 95.9328C185.407 96.1697 185.749 96.2882 186.159 96.2882C186.774 96.2882 187.232 96.0448 187.533 95.5581L188.34 96.1345C187.879 96.8773 187.149 97.2488 186.15 97.2488ZM184.728 94.2133H187.398C187.341 93.8803 187.19 93.6209 186.947 93.4352C186.71 93.2431 186.431 93.147 186.111 93.147C185.778 93.147 185.48 93.2399 185.218 93.4256C184.962 93.6113 184.798 93.8739 184.728 94.2133ZM191.078 97.2488C190.636 97.2488 190.246 97.1655 189.906 96.999C189.567 96.8261 189.314 96.5699 189.147 96.2305L189.926 95.6734C190.022 95.8783 190.175 96.0416 190.387 96.1633C190.598 96.2786 190.829 96.3362 191.078 96.3362C191.277 96.3362 191.44 96.2914 191.568 96.2017C191.703 96.1121 191.77 95.9872 191.77 95.8271C191.77 95.6862 191.715 95.5709 191.607 95.4813C191.504 95.3916 191.312 95.302 191.03 95.2123L190.608 95.097C189.756 94.8665 189.336 94.3766 189.349 93.6273C189.349 93.2111 189.513 92.878 189.839 92.6283C190.166 92.3785 190.576 92.2537 191.069 92.2537C191.812 92.2537 192.353 92.5258 192.692 93.0702L191.962 93.6273C191.719 93.3007 191.414 93.1374 191.049 93.1374C190.877 93.1374 190.726 93.179 190.598 93.2623C190.47 93.3391 190.406 93.448 190.406 93.5889C190.406 93.717 190.447 93.8258 190.531 93.9155C190.614 94.0052 190.764 94.0852 190.982 94.1556L191.472 94.2997C191.92 94.4342 192.257 94.6167 192.481 94.8473C192.705 95.0714 192.817 95.3756 192.817 95.7598C192.817 96.2145 192.654 96.5764 192.327 96.8453C192 97.1143 191.584 97.2488 191.078 97.2488ZM195.932 97.2007C195.445 97.2007 195.048 97.0663 194.741 96.7973C194.44 96.5219 194.289 96.1249 194.289 95.6061V93.2911H193.29V92.3497H194.289V91.0145H195.346V92.3497H196.72V93.2911H195.346V95.4332C195.346 95.7278 195.41 95.9392 195.538 96.0672C195.666 96.1889 195.871 96.2497 196.153 96.2497C196.383 96.2497 196.572 96.2177 196.72 96.1537V97.0951C196.489 97.1655 196.226 97.2007 195.932 97.2007Z" fill="#24272A"/>
<path d="M50.8291 81.3497H248.952H50.8291ZM248.952 105.956H50.8291H248.952ZM53.2306 105.956C50.578 105.956 48.4276 103.805 48.4276 101.153V86.1527C48.4276 83.5001 50.578 81.3497 53.2306 81.3497C53.2306 81.3497 53.2306 82.4249 53.2306 83.7512V103.554C53.2306 104.881 53.2306 105.956 53.2306 105.956ZM248.952 81.3497V105.956V81.3497Z" fill="#D73847" mask="url(#path-11-inside-2_5971_51952)"/>
<path d="M233.42 73.904C234.308 73.5214 234.718 72.4914 234.335 71.6036C233.953 70.7158 232.923 70.3063 232.035 70.6889C231.147 71.0714 230.738 72.1012 231.12 72.989C231.503 73.8768 232.533 74.2865 233.42 73.904Z" fill="url(#paint1_linear_5971_51952)"/>
<path d="M232.952 113.465C232.668 113.465 232.388 113.401 232.128 113.271L216.999 105.725C216.308 105.38 215.887 104.636 215.936 103.844C215.984 103.051 216.493 102.37 217.223 102.12L238.056 94.9538C238.754 94.7141 239.524 94.9118 240.03 95.4629C240.537 96.0151 240.686 96.8194 240.411 97.5236L234.709 112.236C234.513 112.737 234.125 113.135 233.636 113.329C233.415 113.421 233.183 113.465 232.952 113.465ZM222.831 104.3L231.947 108.849L235.384 99.9823L222.831 104.3Z" fill="url(#paint2_linear_5971_51952)"/>
<path fill-rule="evenodd" clip-rule="evenodd" d="M217.718 9.06449C227.207 9.59588 236.598 13.568 243.06 20.5382C249.067 27.0183 253.149 36.3846 251.462 44.9267C249.638 56.5774 244.307 67.6606 236.329 76.3471C235.384 77.3773 234.242 78.446 232.844 78.4514C230.641 78.4604 229.332 75.6986 229.856 73.5583C230.306 71.7228 231.596 70.2602 232.86 68.826C233.07 68.5882 233.279 68.3513 233.483 68.1135C237.577 63.3496 240.247 57.3764 241.068 51.1482C241.299 49.3933 240.793 46.9395 239.023 46.9684C237.564 46.9922 237.143 48.5464 236.711 50.1411C236.294 51.6807 235.867 53.258 234.486 53.5316C233.181 53.791 232.019 52.4444 231.905 51.1193C231.805 49.9457 232.256 48.8159 232.697 47.7131C232.754 47.5709 232.811 47.4291 232.866 47.2878C234.619 42.8003 235.028 37.8279 234.167 33.0906C225.101 28.5793 214.788 26.5468 204.698 27.4755C200.188 27.8902 195.751 28.8638 191.316 29.8368C186.176 30.9647 181.04 32.0919 175.795 32.3472C174.568 32.4059 173.194 32.3672 172.449 31.2399C171.823 30.2931 171.94 29.0411 172.649 28.1559C174.107 26.3353 176.391 26.2636 178.511 26.1971L178.581 26.1949C188.247 25.8883 197.866 24.1551 207.031 21.0697C207.085 21.0525 207.139 21.031 207.194 21.0095C209.302 20.1572 208.623 16.9801 206.349 16.9959C203.064 17.0188 200.844 17.3969 196.537 18.7205C188.784 21.1413 187.002 18.5371 190.543 16.1879C198.697 11.3033 208.228 8.53448 217.718 9.06449Z" fill="url(#paint3_linear_5971_51952)"/>
<path d="M166.943 24.4847C165.831 24.4847 164.706 24.1882 163.689 23.5679C160.746 21.7673 159.815 17.9084 161.615 14.9633C163.416 12.0197 167.275 11.0886 170.22 12.8891C173.163 14.6897 174.095 18.5487 172.294 21.4937C171.115 23.4204 169.054 24.4847 166.943 24.4847ZM166.962 13.7157C165.441 13.7157 163.954 14.4834 163.105 15.8729C161.807 17.9958 162.477 20.7804 164.601 22.0782C166.726 23.376 169.509 22.7056 170.807 20.5813C172.105 18.4584 171.434 15.6738 169.31 14.376C168.575 13.9291 167.763 13.7157 166.962 13.7157Z" fill="#FFB0EB"/>
<path d="M262.275 35.646C263.242 35.646 264.025 34.8623 264.025 33.8956C264.025 32.9289 263.242 32.1451 262.275 32.1451C261.308 32.1451 260.524 32.9289 260.524 33.8956C260.524 34.8623 261.308 35.646 262.275 35.646Z" fill="url(#paint4_linear_5971_51952)"/>
<path d="M204.816 34.3413C214 33.1724 215.293 37.5413 208.065 44.5817C200.837 51.6221 200.284 46.5571 201.869 42.2826C203.455 38.0083 201.088 37.9653 197.847 38.7761C194.604 39.5868 195.156 36.7922 204.816 34.3413Z" fill="#75C4FD"/>
<path d="M41.0516 59.6942C41.7565 59.7861 42.4697 59.5771 43.1145 59.2787C44.3681 58.7 45.4578 57.7736 46.2316 56.6317C48.3774 53.4647 45.0897 51.5579 42.6018 53.8087C41.3668 54.926 37.127 59.1803 41.0516 59.6942Z" fill="url(#paint5_linear_5971_51952)"/>
<path d="M99.9864 131.344C93.2912 132.645 84.8084 125.326 91.9848 116.573C97.0943 110.315 97.2404 114.612 96.964 119.766C97.0857 122.994 97.5799 124.34 102.185 124.999C106.79 125.658 106.682 130.044 99.9864 131.344Z" fill="url(#paint6_linear_5971_51952)"/>
<path d="M21.0911 94.653C19.5871 93.8281 17.5987 94.8908 16.2178 95.5181C16.0389 95.5998 15.3041 95.9792 15.0447 96.0639C14.1105 96.3689 12.7169 97.1128 12.0079 97.9863C11.2601 99.3888 13.1252 100.558 15.8384 100.552C17.4852 100.625 19.3548 100.001 20.6924 99.0562C21.4531 98.5194 22.1567 97.7786 22.1867 96.7934C22.2126 95.951 21.8529 95.0715 21.0911 94.653Z" fill="url(#paint7_linear_5971_51952)"/>
<path d="M42.1357 120.71C41.3321 120.71 40.5185 120.496 39.7836 120.046C37.655 118.746 36.9832 115.955 38.2839 113.827C39.5845 111.698 42.3749 111.026 44.5035 112.327C45.5349 112.957 46.2582 113.951 46.5419 115.126C46.8255 116.3 46.6335 117.515 46.0033 118.546C45.151 119.941 43.6612 120.71 42.1357 120.71ZM42.1486 112.926C41.0499 112.926 39.9756 113.48 39.3611 114.486C38.907 115.229 38.7695 116.104 38.9729 116.951C39.1777 117.797 39.6991 118.515 40.4426 118.969C41.9767 119.908 43.9878 119.422 44.9261 117.888C45.3801 117.144 45.5176 116.269 45.3142 115.423C45.1094 114.576 44.588 113.858 43.8446 113.404C43.3146 113.081 42.7287 112.926 42.1486 112.926Z" fill="#FFD23D"/>
<path d="M86.2006 115.165C87.1674 115.165 87.9511 114.381 87.9511 113.414C87.9511 112.447 87.1674 111.664 86.2006 111.664C85.2339 111.664 84.4502 112.447 84.4502 113.414C84.4502 114.381 85.2339 115.165 86.2006 115.165Z" fill="url(#paint8_linear_5971_51952)"/>
<path d="M97.1962 148.294V145.069C97.2 144.619 96.8739 144.126 96.4758 143.966L96.3659 144.246L96.365 144.245C96.4944 144.297 96.6307 144.413 96.7356 144.573C96.8404 144.733 96.8973 144.912 96.896 145.067L96.896 145.067V145.069V148.294C96.896 148.399 96.8614 148.541 96.7939 148.683C96.7262 148.825 96.6399 148.937 96.5629 148.998L96.5635 148.998L96.7488 149.234L96.5625 148.999L94.4781 150.634L94.4773 150.635C94.2186 150.839 93.7698 150.839 93.5111 150.635L93.5103 150.634L91.425 148.998L91.425 148.998L91.4236 148.997C91.3487 148.939 91.2627 148.828 91.1947 148.685C91.1271 148.542 91.0924 148.4 91.0924 148.294V145.069C91.0924 144.913 91.1504 144.734 91.256 144.574C91.3619 144.414 91.4991 144.298 91.6305 144.245L91.6301 144.246L91.5202 143.966C91.1183 144.126 90.7922 144.619 90.7922 145.069V148.294C90.7922 148.617 90.9932 149.043 91.2396 149.234L93.325 150.87C93.6928 151.161 94.2956 151.161 94.6634 150.87L96.7488 149.234C96.9952 149.039 97.1962 148.617 97.1962 148.294ZM94.2821 143.426L96.3643 144.245L91.6308 144.245L93.7146 143.426C93.7778 143.401 93.8804 143.384 93.998 143.384C94.1157 143.384 94.2182 143.401 94.2815 143.426C94.2817 143.426 94.2819 143.426 94.2821 143.426ZM94.7001 145.563L93.488 146.836L93.2959 146.634C93.0677 146.394 92.6875 146.394 92.4593 146.634C92.2392 146.865 92.2389 147.238 92.4585 147.469C92.4588 147.47 92.459 147.47 92.4593 147.47L93.0646 148.114L93.0646 148.114L93.0659 148.115C93.1809 148.236 93.3321 148.296 93.4842 148.296C93.6364 148.296 93.7876 148.236 93.9026 148.115L95.5315 146.405C95.7578 146.172 95.7569 145.794 95.5368 145.563C95.3085 145.323 94.9283 145.323 94.7001 145.563Z" fill="#0376C9" stroke="#0376C9" stroke-width="0.600374"/>
<path d="M103.252 150.172C102.409 150.172 101.732 149.776 101.458 149.25L101.998 148.847C102.279 149.279 102.69 149.546 103.266 149.546C103.792 149.546 104.21 149.265 104.21 148.782C104.21 148.371 103.958 148.097 103.475 147.917L102.798 147.658C101.991 147.363 101.638 146.945 101.638 146.246C101.638 145.41 102.323 144.884 103.238 144.884C103.879 144.884 104.412 145.172 104.729 145.583L104.239 146.015C103.98 145.706 103.663 145.511 103.223 145.511C102.719 145.511 102.301 145.792 102.301 146.217C102.301 146.649 102.553 146.844 103.072 147.038L103.691 147.276C104.448 147.564 104.88 147.997 104.88 148.753C104.88 149.618 104.196 150.172 103.252 150.172ZM107.507 150.158C106.383 150.158 105.641 149.344 105.641 148.285C105.641 147.226 106.411 146.412 107.514 146.412C108.45 146.412 109.228 147.067 109.228 148.22C109.228 148.285 109.228 148.328 109.221 148.407H106.267C106.289 149.077 106.801 149.589 107.514 149.589C108.069 149.589 108.414 149.344 108.638 148.962L109.128 149.301C108.803 149.827 108.256 150.158 107.507 150.158ZM106.311 147.903H108.594C108.501 147.312 108.04 146.959 107.492 146.959C106.952 146.959 106.426 147.305 106.311 147.903ZM111.864 150.158C110.769 150.158 109.977 149.329 109.977 148.285C109.977 147.24 110.769 146.412 111.864 146.412C112.614 146.412 113.212 146.801 113.529 147.377L112.988 147.68C112.787 147.269 112.383 146.988 111.864 146.988C111.115 146.988 110.604 147.564 110.604 148.285C110.604 149.005 111.115 149.582 111.864 149.582C112.383 149.582 112.787 149.301 112.988 148.89L113.529 149.193C113.212 149.769 112.614 150.158 111.864 150.158ZM115.757 150.158C114.972 150.158 114.431 149.589 114.431 148.695V146.484H115.051V148.602C115.051 149.207 115.368 149.589 115.865 149.589C116.42 149.589 116.866 149.099 116.866 148.27V146.484H117.486V150.086H116.866V149.531C116.629 149.956 116.218 150.158 115.757 150.158ZM118.804 150.086V146.484H119.423V147.183C119.56 146.721 120.021 146.448 120.432 146.448C120.526 146.448 120.619 146.455 120.713 146.476V147.118C120.598 147.067 120.497 147.06 120.374 147.06C119.921 147.06 119.423 147.456 119.423 148.299V150.086H118.804ZM121.909 145.518C121.657 145.518 121.463 145.331 121.463 145.079C121.463 144.841 121.657 144.639 121.909 144.639C122.161 144.639 122.342 144.841 122.342 145.079C122.342 145.331 122.161 145.518 121.909 145.518ZM121.592 150.086V146.484H122.212V150.086H121.592ZM124.934 150.122C124.3 150.122 123.832 149.769 123.832 149.02V147.053H123.068V146.484H123.832V145.482H124.451V146.484H125.489V147.053H124.451V148.94C124.451 149.402 124.653 149.553 125.049 149.553C125.201 149.553 125.374 149.531 125.489 149.481V150.036C125.338 150.086 125.157 150.122 124.934 150.122ZM127.389 151.592H126.697L127.482 149.899L125.905 146.484H126.589L127.828 149.221L129.06 146.484H129.752L127.389 151.592ZM133.731 150.158C132.722 150.158 131.966 149.315 131.966 148.285C131.966 147.255 132.722 146.412 133.731 146.412C134.278 146.412 134.761 146.693 134.999 147.038V146.484H135.618V150.086H134.999V149.531C134.761 149.877 134.278 150.158 133.731 150.158ZM133.824 149.589C134.545 149.589 135.049 149.012 135.049 148.285C135.049 147.557 134.545 146.981 133.824 146.981C133.097 146.981 132.592 147.557 132.592 148.285C132.592 149.012 133.097 149.589 133.824 149.589ZM138.419 150.158C137.41 150.158 136.654 149.315 136.654 148.285C136.654 147.255 137.41 146.412 138.419 146.412C138.966 146.412 139.449 146.693 139.687 147.038V144.683H140.306V150.086H139.687V149.531C139.449 149.877 138.966 150.158 138.419 150.158ZM138.512 149.589C139.233 149.589 139.737 149.012 139.737 148.285C139.737 147.557 139.233 146.981 138.512 146.981C137.785 146.981 137.28 147.557 137.28 148.285C137.28 149.012 137.785 149.589 138.512 149.589ZM142.747 150.086L141.082 146.484H141.774L143.006 149.214L144.238 146.484H144.93L143.265 150.086H142.747ZM146.023 145.518C145.771 145.518 145.576 145.331 145.576 145.079C145.576 144.841 145.771 144.639 146.023 144.639C146.275 144.639 146.455 144.841 146.455 145.079C146.455 145.331 146.275 145.518 146.023 145.518ZM145.706 150.086V146.484H146.325V150.086H145.706ZM149.257 150.158C148.161 150.158 147.369 149.329 147.369 148.285C147.369 147.24 148.161 146.412 149.257 146.412C150.006 146.412 150.604 146.801 150.921 147.377L150.38 147.68C150.179 147.269 149.775 146.988 149.257 146.988C148.507 146.988 147.996 147.564 147.996 148.285C147.996 149.005 148.507 149.582 149.257 149.582C149.775 149.582 150.179 149.301 150.38 148.89L150.921 149.193C150.604 149.769 150.006 150.158 149.257 150.158ZM153.459 150.158C152.335 150.158 151.593 149.344 151.593 148.285C151.593 147.226 152.364 146.412 153.466 146.412C154.402 146.412 155.18 147.067 155.18 148.22C155.18 148.285 155.18 148.328 155.173 148.407H152.219C152.241 149.077 152.753 149.589 153.466 149.589C154.021 149.589 154.366 149.344 154.59 148.962L155.08 149.301C154.755 149.827 154.208 150.158 153.459 150.158ZM152.263 147.903H154.547C154.453 147.312 153.992 146.959 153.444 146.959C152.904 146.959 152.378 147.305 152.263 147.903ZM159.985 150.158C159.438 150.158 158.955 149.877 158.717 149.531V150.086H158.098V144.683H158.717V147.038C158.955 146.693 159.438 146.412 159.985 146.412C160.994 146.412 161.751 147.255 161.751 148.285C161.751 149.315 160.994 150.158 159.985 150.158ZM159.892 149.589C160.612 149.589 161.117 149.012 161.117 148.285C161.117 147.557 160.612 146.981 159.892 146.981C159.171 146.981 158.667 147.557 158.667 148.285C158.667 149.012 159.171 149.589 159.892 149.589ZM163.674 151.592H162.982L163.767 149.899L162.19 146.484H162.874L164.113 149.221L165.345 146.484H166.037L163.674 151.592Z" fill="#535A61"/>
<path d="M168.625 150.086V144.971H170.304C171.255 144.971 171.831 145.605 171.831 146.325C171.831 146.837 171.608 147.168 171.284 147.37C171.781 147.55 172.17 147.91 172.17 148.595C172.17 149.445 171.493 150.086 170.455 150.086H168.625ZM169.295 149.481H170.484C171.176 149.481 171.514 149.128 171.514 148.616C171.514 148.119 171.176 147.744 170.491 147.744H169.295V149.481ZM169.295 147.168H170.304C170.852 147.168 171.176 146.837 171.176 146.376C171.176 145.943 170.852 145.576 170.304 145.576H169.295V147.168ZM173.206 150.086V144.683H173.825V150.086H173.206ZM176.749 150.158C175.654 150.158 174.862 149.322 174.862 148.285C174.862 147.247 175.654 146.412 176.749 146.412C177.83 146.412 178.63 147.247 178.63 148.285C178.63 149.322 177.83 150.158 176.749 150.158ZM176.749 149.582C177.499 149.582 177.996 149.005 177.996 148.285C177.996 147.564 177.499 146.988 176.749 146.988C176 146.988 175.496 147.564 175.496 148.285C175.496 149.005 176 149.582 176.749 149.582ZM181.276 150.158C180.181 150.158 179.388 149.329 179.388 148.285C179.388 147.24 180.181 146.412 181.276 146.412C182.025 146.412 182.623 146.801 182.94 147.377L182.4 147.68C182.198 147.269 181.794 146.988 181.276 146.988C180.526 146.988 180.015 147.564 180.015 148.285C180.015 149.005 180.526 149.582 181.276 149.582C181.794 149.582 182.198 149.301 182.4 148.89L182.94 149.193C182.623 149.769 182.025 150.158 181.276 150.158ZM186.465 150.086L184.512 148.285V150.086H183.893V144.683H184.512V147.889L186.083 146.484H186.904L185.132 148.076L187.301 150.086H186.465ZM189.179 150.158C188.17 150.158 187.413 149.315 187.413 148.285C187.413 147.255 188.17 146.412 189.179 146.412C189.726 146.412 190.209 146.693 190.446 147.038V146.484H191.066V150.086H190.446V149.531C190.209 149.877 189.726 150.158 189.179 150.158ZM189.272 149.589C189.993 149.589 190.497 149.012 190.497 148.285C190.497 147.557 189.993 146.981 189.272 146.981C188.545 146.981 188.04 147.557 188.04 148.285C188.04 149.012 188.545 149.589 189.272 149.589ZM192.699 145.518C192.447 145.518 192.253 145.331 192.253 145.079C192.253 144.841 192.447 144.639 192.699 144.639C192.952 144.639 193.132 144.841 193.132 145.079C193.132 145.331 192.952 145.518 192.699 145.518ZM192.382 150.086V146.484H193.002V150.086H192.382ZM195.811 150.158C194.802 150.158 194.046 149.315 194.046 148.285C194.046 147.255 194.802 146.412 195.811 146.412C196.358 146.412 196.841 146.693 197.079 147.038V144.683H197.698V150.086H197.079V149.531C196.841 149.877 196.358 150.158 195.811 150.158ZM195.904 149.589C196.625 149.589 197.129 149.012 197.129 148.285C197.129 147.557 196.625 146.981 195.904 146.981C195.177 146.981 194.672 147.557 194.672 148.285C194.672 149.012 195.177 149.589 195.904 149.589Z" fill="#0376C9"/>
<path fill-rule="evenodd" clip-rule="evenodd" d="M50.8292 80.7094C50.5737 79.7579 50.3604 78.7915 50.1873 77.8179L50.8292 85.5817V80.7094ZM52.4619 105.331L53.1023 113.076C54.7773 114.862 56.8622 116.302 58.9948 117.459C61.5127 118.823 64.2355 120.009 66.9019 121.054C69.567 122.098 72.5469 123.054 75.4533 122.678C77.9823 122.35 80.5707 120.64 79.6872 117.793C78.9068 115.655 76.6363 113.983 72.9417 112.021C72.108 111.58 71.8911 110.478 72.526 109.778C72.5281 109.775 72.531 109.772 72.5339 109.769C72.5368 109.766 72.5397 109.763 72.5419 109.761C73.0993 109.146 74.1252 108.885 74.965 108.748C77.0898 108.402 79.2153 108.594 81.335 108.785C83.6633 108.995 85.9846 109.205 88.2907 108.7C89.4411 108.448 90.5811 108.137 91.7216 107.825C93.6703 107.292 95.6205 106.759 97.6266 106.525C98.6686 106.402 100.073 106.247 100.991 106.876C101.955 107.537 101.962 109.02 101.626 110.045C101.508 110.403 101.13 111.336 100.738 112.303C100.274 113.445 99.7918 114.634 99.6944 114.985C99.0977 117.121 99.4358 119.593 101.669 120.627C104.063 121.732 106.486 120.138 108.441 118.851C108.479 118.826 108.516 118.802 108.553 118.777C110.967 117.185 113.075 115.226 114.931 113.022C116.209 111.502 117.383 109.91 118.364 108.206L118.153 105.66H53.831C53.3379 105.66 52.8725 105.541 52.4619 105.331Z" fill="url(#paint9_linear_5971_51952)"/>
<path fill-rule="evenodd" clip-rule="evenodd" d="M50.8292 56.9795C45.0099 63.3546 39.0514 69.6581 32.0495 74.688C30.955 75.4739 29.7632 76.255 28.4184 76.3409C27.073 76.4267 25.5732 75.546 25.4658 74.2023C25.3863 73.1999 25.9708 72.424 26.5563 71.6466C27.1522 70.8554 27.7493 70.0628 27.6487 69.0283C27.4242 66.7163 24.0495 64.8443 21.9193 64.7392C17.7735 64.5355 12.7784 68.7444 9.20479 71.7555C8.56644 72.2934 7.97345 72.7931 7.43875 73.2225C5.89891 74.4587 4.2788 75.9752 4.18142 77.9463C3.95608 82.4795 6.82277 81.5638 9.56809 80.687C12.4598 79.7634 15.2169 78.8828 14.0839 84.4585C13.4951 87.3547 15.9042 90.2437 18.7638 90.9948C21.621 91.7453 24.6769 90.8027 27.2477 89.3486C28.6305 88.5673 29.9219 87.641 31.2137 86.7143C32.3252 85.9171 33.437 85.1196 34.6076 84.4141C36.2149 83.4445 38.5251 82.7493 39.7715 84.1517C41.2856 85.855 39.5481 88.3802 38.2519 90.2539C35.7033 93.9384 34.867 98.757 36.0245 103.085C36.4196 104.561 37.0914 106.059 38.5413 106.764C39.2702 107.118 40.1281 107.164 40.8461 106.787C42.317 106.015 42.3014 104.173 41.8932 102.71C41.2442 98.9101 44.1506 99.098 44.2406 100.806C44.6417 108.29 50.1207 113.478 57.4609 115.218L56.6783 105.66H53.8311C52.1732 105.66 50.8292 104.316 50.8292 102.658V56.9795Z" fill="url(#paint10_linear_5971_51952)"/>
<defs>
<linearGradient id="paint0_linear_5971_51952" x1="57.9004" y1="61.2553" x2="11.7582" y2="61.2553" gradientUnits="userSpaceOnUse">
<stop stop-color="#FFE466"/>
<stop offset="1" stop-color="#FFAFEA"/>
</linearGradient>
<linearGradient id="paint1_linear_5971_51952" x1="231.12" y1="72.9892" x2="234.335" y2="71.6038" gradientUnits="userSpaceOnUse">
<stop stop-color="#75C3FC"/>
<stop offset="1" stop-color="#75C3FC"/>
</linearGradient>
<linearGradient id="paint2_linear_5971_51952" x1="215.931" y1="104.161" x2="240.547" y2="104.161" gradientUnits="userSpaceOnUse">
<stop stop-color="#75C3FC"/>
<stop offset="0.0929" stop-color="#81C2F6"/>
<stop offset="1" stop-color="#F0B8BD"/>
</linearGradient>
<linearGradient id="paint3_linear_5971_51952" x1="229.889" y1="50.9302" x2="251.845" y2="50.9302" gradientUnits="userSpaceOnUse">
<stop stop-color="#FFE466"/>
<stop offset="1" stop-color="#FFAFEA"/>
</linearGradient>
<linearGradient id="paint4_linear_5971_51952" x1="260.525" y1="33.8954" x2="264.025" y2="33.8954" gradientUnits="userSpaceOnUse">
<stop stop-color="#75C3FC"/>
<stop offset="1" stop-color="#75C3FC"/>
</linearGradient>
<linearGradient id="paint5_linear_5971_51952" x1="72.3713" y1="28.2514" x2="24.4171" y2="74.6952" gradientUnits="userSpaceOnUse">
<stop stop-color="#FFE466"/>
<stop offset="1" stop-color="#FFAFEA"/>
</linearGradient>
<linearGradient id="paint6_linear_5971_51952" x1="123.086" y1="122.48" x2="101.336" y2="122.48" gradientUnits="userSpaceOnUse">
<stop stop-color="#FFE466"/>
<stop offset="1" stop-color="#FFAFEA"/>
</linearGradient>
<linearGradient id="paint7_linear_5971_51952" x1="22.1885" y1="97.455" x2="11.8422" y2="97.455" gradientUnits="userSpaceOnUse">
<stop stop-color="#FFE466"/>
<stop offset="1" stop-color="#FFAFEA"/>
</linearGradient>
<linearGradient id="paint8_linear_5971_51952" x1="84.4506" y1="113.413" x2="87.9512" y2="113.413" gradientUnits="userSpaceOnUse">
<stop stop-color="#75C3FC"/>
<stop offset="1" stop-color="#75C3FC"/>
</linearGradient>
<linearGradient id="paint9_linear_5971_51952" x1="52.1419" y1="101.451" x2="117.355" y2="96.0597" gradientUnits="userSpaceOnUse">
<stop stop-color="#FFE466"/>
<stop offset="1" stop-color="#FFAFEA"/>
</linearGradient>
<linearGradient id="paint10_linear_5971_51952" x1="48.9716" y1="85.1616" x2="-2.37766" y2="85.1616" gradientUnits="userSpaceOnUse">
<stop stop-color="#FFE466"/>
<stop offset="1" stop-color="#FFAFEA"/>
</linearGradient>
</defs>
</svg>
