<svg width="472" height="230" viewBox="0 0 472 230" fill="none" xmlns="http://www.w3.org/2000/svg">
<path d="M71.8424 82.3037L71.9131 83.9946C72.1452 83.4434 72.1634 82.8387 71.8424 82.3037Z" fill="url(#paint0_linear_6657_17714)"/>
<path d="M384.579 167.999C383.327 167.146 383.007 165.44 383.859 164.189C387.27 159.196 391.495 158.208 394.892 157.415C397.987 156.692 400.434 156.121 402.643 152.889C404.851 149.656 404.492 147.17 404.039 144.022C403.541 140.571 402.922 136.276 406.334 131.281C409.744 126.287 413.97 125.3 417.367 124.509C420.463 123.788 422.909 123.215 425.116 119.984C427.322 116.752 426.965 114.265 426.51 111.118C426.013 107.667 425.393 103.372 428.803 98.3783C432.213 93.3845 436.439 92.3975 439.835 91.6063C442.932 90.8848 445.378 90.3121 447.584 87.0808C448.438 85.8294 450.143 85.509 451.395 86.3619C452.646 87.2152 452.967 88.9209 452.113 90.1723C448.703 95.1662 444.477 96.1532 441.081 96.9443C437.984 97.6658 435.538 98.2381 433.332 101.47C431.125 104.702 431.482 107.188 431.937 110.335C432.435 113.787 433.055 118.082 429.644 123.075C426.234 128.069 422.009 129.056 418.612 129.847C415.515 130.569 413.069 131.141 410.863 134.373C408.655 137.605 409.014 140.091 409.467 143.239C409.964 146.691 410.583 150.986 407.171 155.98C403.761 160.974 399.536 161.961 396.14 162.754C393.044 163.478 390.597 164.048 388.388 167.281C387.535 168.53 385.83 168.853 384.579 167.999Z" fill="#82FDB8"/>
<path d="M394.134 112.224C398.504 114.302 392.346 94.6012 384.549 98.3831C376.752 102.165 371.682 115.061 379.083 109.733C385.341 105.226 387.155 108.907 394.134 112.224Z" fill="#86E29B"/>
<mask id="path-4-inside-1_6657_17714" fill="white">
<path d="M75.018 62.059C75.018 59.9486 76.7288 58.2378 78.8392 58.2378H386.449C388.559 58.2378 390.27 59.9486 390.27 62.059V92.7015C390.27 94.8119 388.559 96.5227 386.449 96.5227H78.8392C76.7288 96.5227 75.018 94.8119 75.018 92.7015V62.059Z"/>
</mask>
<path d="M75.018 62.059C75.018 59.9486 76.7288 58.2378 78.8392 58.2378H386.449C388.559 58.2378 390.27 59.9486 390.27 62.059V92.7015C390.27 94.8119 388.559 96.5227 386.449 96.5227H78.8392C76.7288 96.5227 75.018 94.8119 75.018 92.7015V62.059Z" fill="#FFD33D" fill-opacity="0.1"/>
<path d="M75.018 58.2378H390.27H75.018ZM390.27 96.5227H75.018H390.27ZM78.8392 96.5227C74.6184 96.5227 71.1968 93.1011 71.1968 88.8803V65.8803C71.1968 61.6594 74.6184 58.2378 78.8392 58.2378C78.8392 58.2378 78.8392 59.9486 78.8392 62.059V92.7015C78.8392 94.8119 78.8392 96.5227 78.8392 96.5227ZM390.27 58.2378V96.5227V58.2378Z" fill="#F66A0A" mask="url(#path-4-inside-1_6657_17714)"/>
<path d="M97.9454 67.7908C92.6817 67.7908 88.3923 72.0801 88.3923 77.3439C88.3923 82.6076 92.6817 86.8969 97.9454 86.8969C103.209 86.8969 107.499 82.6076 107.499 77.3439C107.499 72.0801 103.209 67.7908 97.9454 67.7908ZM97.2289 73.5226C97.2289 73.1309 97.5537 72.8061 97.9454 72.8061C98.3371 72.8061 98.6619 73.1309 98.6619 73.5226V78.2992C98.6619 78.6908 98.3371 79.0156 97.9454 79.0156C97.5537 79.0156 97.2289 78.6908 97.2289 78.2992V73.5226ZM98.8243 81.5281C98.7765 81.6523 98.7097 81.7478 98.6237 81.8434C98.5282 81.9293 98.4231 81.9962 98.3084 82.044C98.1938 82.0917 98.0696 82.1204 97.9454 82.1204C97.8212 82.1204 97.697 82.0917 97.5824 82.044C97.4678 81.9962 97.3627 81.9293 97.2672 81.8434C97.1812 81.7478 97.1143 81.6523 97.0665 81.5281C97.0188 81.4135 96.9901 81.2893 96.9901 81.1651C96.9901 81.0409 97.0188 80.9167 97.0665 80.8021C97.1143 80.6874 97.1812 80.5824 97.2672 80.4868C97.3627 80.4008 97.4678 80.334 97.5824 80.2862C97.8117 80.1907 98.0792 80.1907 98.3084 80.2862C98.4231 80.334 98.5282 80.4008 98.6237 80.4868C98.7097 80.5824 98.7765 80.6874 98.8243 80.8021C98.8721 80.9167 98.9007 81.0409 98.9007 81.1651C98.9007 81.2893 98.8721 81.4135 98.8243 81.5281Z" fill="#BF5208"/>
<path d="M120.491 82.8801V73.7397H117.342V72.0278H125.443V73.7397H122.279V82.8801H120.491ZM128.417 82.8801H126.736V71.4164H128.417V76.277C128.896 75.4822 129.67 75.0848 130.74 75.0848C131.627 75.0848 132.335 75.3752 132.865 75.9561C133.395 76.5369 133.66 77.3113 133.66 78.2794V82.8801H131.978V78.5545C131.978 77.9431 131.836 77.4693 131.55 77.133C131.265 76.7865 130.878 76.6133 130.389 76.6133C129.808 76.6133 129.334 76.8324 128.967 77.2706C128.6 77.7087 128.417 78.3252 128.417 79.12V82.8801ZM136.652 73.5716C136.346 73.5716 136.081 73.4646 135.857 73.2506C135.633 73.0264 135.521 72.7564 135.521 72.4405C135.521 72.1348 135.633 71.875 135.857 71.661C136.081 71.4368 136.346 71.3247 136.652 71.3247C136.968 71.3247 137.233 71.4368 137.447 71.661C137.661 71.875 137.768 72.1348 137.768 72.4405C137.768 72.7564 137.661 73.0264 137.447 73.2506C137.233 73.4646 136.968 73.5716 136.652 73.5716ZM135.811 82.8801V75.2377H137.492V82.8801H135.811ZM142.182 83.033C141.479 83.033 140.857 82.9005 140.317 82.6356C139.777 82.3604 139.375 81.9528 139.11 81.4128L140.348 80.5262C140.501 80.8523 140.745 81.1122 141.082 81.3058C141.418 81.4892 141.785 81.5809 142.182 81.5809C142.498 81.5809 142.758 81.5096 142.962 81.3669C143.176 81.2243 143.283 81.0256 143.283 80.7708C143.283 80.5466 143.196 80.3632 143.023 80.2205C142.86 80.0779 142.554 79.9352 142.106 79.7926L141.433 79.6092C140.078 79.2423 139.41 78.4628 139.431 77.2706C139.431 76.6082 139.691 76.0783 140.21 75.6809C140.73 75.2835 141.382 75.0848 142.167 75.0848C143.349 75.0848 144.21 75.5179 144.75 76.384L143.588 77.2706C143.201 76.7509 142.717 76.491 142.136 76.491C141.861 76.491 141.622 76.5573 141.418 76.6897C141.214 76.812 141.112 76.9852 141.112 77.2094C141.112 77.4132 141.178 77.5864 141.311 77.7291C141.443 77.8718 141.683 77.9991 142.029 78.1112L142.809 78.3405C143.522 78.5545 144.057 78.8449 144.414 79.2117C144.77 79.5684 144.949 80.0524 144.949 80.6638C144.949 81.3873 144.689 81.963 144.169 82.391C143.649 82.819 142.987 83.033 142.182 83.033ZM151.131 73.5716C150.825 73.5716 150.56 73.4646 150.336 73.2506C150.112 73.0264 150 72.7564 150 72.4405C150 72.1348 150.112 71.875 150.336 71.661C150.56 71.4368 150.825 71.3247 151.131 71.3247C151.447 71.3247 151.712 71.4368 151.926 71.661C152.14 71.875 152.247 72.1348 152.247 72.4405C152.247 72.7564 152.14 73.0264 151.926 73.2506C151.712 73.4646 151.447 73.5716 151.131 73.5716ZM150.29 82.8801V75.2377H151.971V82.8801H150.29ZM156.661 83.033C155.958 83.033 155.336 82.9005 154.796 82.6356C154.256 82.3604 153.854 81.9528 153.589 81.4128L154.827 80.5262C154.98 80.8523 155.224 81.1122 155.56 81.3058C155.897 81.4892 156.264 81.5809 156.661 81.5809C156.977 81.5809 157.237 81.5096 157.441 81.3669C157.655 81.2243 157.762 81.0256 157.762 80.7708C157.762 80.5466 157.675 80.3632 157.502 80.2205C157.339 80.0779 157.033 79.9352 156.585 79.7926L155.912 79.6092C154.557 79.2423 153.889 78.4628 153.91 77.2706C153.91 76.6082 154.17 76.0783 154.689 75.6809C155.209 75.2835 155.861 75.0848 156.646 75.0848C157.828 75.0848 158.689 75.5179 159.229 76.384L158.067 77.2706C157.68 76.7509 157.196 76.491 156.615 76.491C156.34 76.491 156.101 76.5573 155.897 76.6897C155.693 76.812 155.591 76.9852 155.591 77.2094C155.591 77.4132 155.657 77.5864 155.79 77.7291C155.922 77.8718 156.162 77.9991 156.508 78.1112L157.288 78.3405C158.001 78.5545 158.536 78.8449 158.893 79.2117C159.249 79.5684 159.428 80.0524 159.428 80.6638C159.428 81.3873 159.168 81.963 158.648 82.391C158.128 82.819 157.466 83.033 156.661 83.033ZM167.902 83.033C166.863 83.033 165.987 82.6458 165.273 81.8713C164.57 81.0969 164.219 80.1594 164.219 79.0589C164.219 77.9584 164.57 77.0209 165.273 76.2465C165.987 75.472 166.863 75.0848 167.902 75.0848C168.422 75.0848 168.901 75.202 169.339 75.4364C169.777 75.6605 170.114 75.9357 170.348 76.2617V75.2377H172.029V82.8801H170.348V81.856C170.114 82.1821 169.777 82.4623 169.339 82.6967C168.901 82.9209 168.422 83.033 167.902 83.033ZM166.573 80.8014C167.001 81.2701 167.546 81.5045 168.208 81.5045C168.87 81.5045 169.416 81.2701 169.844 80.8014C170.272 80.3326 170.486 79.7518 170.486 79.0589C170.486 78.366 170.272 77.7851 169.844 77.3164C169.416 76.8477 168.87 76.6133 168.208 76.6133C167.546 76.6133 167.001 76.8477 166.573 77.3164C166.145 77.7851 165.931 78.366 165.931 79.0589C165.931 79.7518 166.145 80.3326 166.573 80.8014ZM180.335 83.033C179.632 83.033 179.01 82.9005 178.47 82.6356C177.93 82.3604 177.527 81.9528 177.262 81.4128L178.501 80.5262C178.653 80.8523 178.898 81.1122 179.234 81.3058C179.57 81.4892 179.937 81.5809 180.335 81.5809C180.651 81.5809 180.91 81.5096 181.114 81.3669C181.328 81.2243 181.435 81.0256 181.435 80.7708C181.435 80.5466 181.349 80.3632 181.175 80.2205C181.012 80.0779 180.707 79.9352 180.258 79.7926L179.586 79.6092C178.231 79.2423 177.563 78.4628 177.583 77.2706C177.583 76.6082 177.843 76.0783 178.363 75.6809C178.883 75.2835 179.535 75.0848 180.319 75.0848C181.501 75.0848 182.363 75.5179 182.903 76.384L181.741 77.2706C181.354 76.7509 180.87 76.491 180.289 76.491C180.014 76.491 179.774 76.5573 179.57 76.6897C179.367 76.812 179.265 76.9852 179.265 77.2094C179.265 77.4132 179.331 77.5864 179.463 77.7291C179.596 77.8718 179.835 77.9991 180.182 78.1112L180.961 78.3405C181.675 78.5545 182.21 78.8449 182.566 79.2117C182.923 79.5684 183.101 80.0524 183.101 80.6638C183.101 81.3873 182.841 81.963 182.322 82.391C181.802 82.819 181.14 83.033 180.335 83.033ZM187.581 83.033C186.705 83.033 186.012 82.7426 185.503 82.1617C184.993 81.5707 184.738 80.7861 184.738 79.8079V75.2377H186.42V79.5327C186.42 80.1441 186.552 80.6281 186.817 80.9848C187.082 81.3313 187.459 81.5045 187.948 81.5045C188.519 81.5045 188.972 81.2905 189.309 80.8625C189.645 80.4243 189.813 79.8028 189.813 78.9978V75.2377H191.494V82.8801H189.813V81.8408C189.365 82.6356 188.621 83.033 187.581 83.033ZM196.187 83.033C195.484 83.033 194.862 82.9005 194.322 82.6356C193.782 82.3604 193.38 81.9528 193.115 81.4128L194.353 80.5262C194.506 80.8523 194.75 81.1122 195.086 81.3058C195.423 81.4892 195.789 81.5809 196.187 81.5809C196.503 81.5809 196.763 81.5096 196.966 81.3669C197.18 81.2243 197.287 81.0256 197.287 80.7708C197.287 80.5466 197.201 80.3632 197.028 80.2205C196.865 80.0779 196.559 79.9352 196.11 79.7926L195.438 79.6092C194.083 79.2423 193.415 78.4628 193.436 77.2706C193.436 76.6082 193.695 76.0783 194.215 75.6809C194.735 75.2835 195.387 75.0848 196.172 75.0848C197.354 75.0848 198.215 75.5179 198.755 76.384L197.593 77.2706C197.206 76.7509 196.722 76.491 196.141 76.491C195.866 76.491 195.626 76.5573 195.423 76.6897C195.219 76.812 195.117 76.9852 195.117 77.2094C195.117 77.4132 195.183 77.5864 195.316 77.7291C195.448 77.8718 195.688 77.9991 196.034 78.1112L196.814 78.3405C197.527 78.5545 198.062 78.8449 198.418 79.2117C198.775 79.5684 198.953 80.0524 198.953 80.6638C198.953 81.3873 198.694 81.963 198.174 82.391C197.654 82.819 196.992 83.033 196.187 83.033ZM202.379 86.0747H200.697V75.2377H202.379V76.2617C202.613 75.9357 202.949 75.6605 203.388 75.4364C203.836 75.202 204.32 75.0848 204.84 75.0848C205.879 75.0848 206.75 75.472 207.453 76.2465C208.167 77.0209 208.523 77.9584 208.523 79.0589C208.523 80.1594 208.167 81.0969 207.453 81.8713C206.75 82.6458 205.879 83.033 204.84 83.033C204.32 83.033 203.836 82.9209 203.388 82.6967C202.949 82.4623 202.613 82.1821 202.379 81.856V86.0747ZM204.534 81.5045C205.196 81.5045 205.742 81.2701 206.169 80.8014C206.597 80.3326 206.811 79.7518 206.811 79.0589C206.811 78.366 206.597 77.7851 206.169 77.3164C205.742 76.8477 205.196 76.6133 204.534 76.6133C203.861 76.6133 203.311 76.8477 202.883 77.3164C202.455 77.7851 202.241 78.366 202.241 79.0589C202.241 79.7518 202.455 80.3326 202.883 80.8014C203.311 81.2701 203.861 81.5045 204.534 81.5045ZM211.076 73.5716C210.771 73.5716 210.506 73.4646 210.282 73.2506C210.057 73.0264 209.945 72.7564 209.945 72.4405C209.945 72.1348 210.057 71.875 210.282 71.661C210.506 71.4368 210.771 71.3247 211.076 71.3247C211.392 71.3247 211.657 71.4368 211.871 71.661C212.085 71.875 212.192 72.1348 212.192 72.4405C212.192 72.7564 212.085 73.0264 211.871 73.2506C211.657 73.4646 211.392 73.5716 211.076 73.5716ZM210.236 82.8801V75.2377H211.917V82.8801H210.236ZM217.661 83.033C216.51 83.033 215.547 82.6559 214.772 81.9019C214.008 81.1376 213.626 80.19 213.626 79.0589C213.626 77.9278 214.008 76.9852 214.772 76.2312C215.547 75.4669 216.51 75.0848 217.661 75.0848C218.446 75.0848 219.149 75.2733 219.771 75.6504C220.402 76.0274 220.886 76.542 221.223 77.1941L219.755 77.9889C219.562 77.5813 219.281 77.2553 218.915 77.0107C218.548 76.7662 218.13 76.6439 217.661 76.6439C216.989 76.6439 216.433 76.8782 215.995 77.347C215.557 77.8055 215.338 78.3762 215.338 79.0589C215.338 79.7416 215.557 80.3174 215.995 80.7861C216.433 81.2446 216.989 81.4739 217.661 81.4739C218.13 81.4739 218.548 81.3516 218.915 81.1071C219.281 80.8625 219.562 80.5364 219.755 80.1288L221.223 80.9237C220.886 81.5758 220.402 82.0904 219.771 82.4674C219.149 82.8445 218.446 83.033 217.661 83.033ZM223.6 73.5716C223.294 73.5716 223.029 73.4646 222.805 73.2506C222.581 73.0264 222.469 72.7564 222.469 72.4405C222.469 72.1348 222.581 71.875 222.805 71.661C223.029 71.4368 223.294 71.3247 223.6 71.3247C223.916 71.3247 224.181 71.4368 224.395 71.661C224.609 71.875 224.716 72.1348 224.716 72.4405C224.716 72.7564 224.609 73.0264 224.395 73.2506C224.181 73.4646 223.916 73.5716 223.6 73.5716ZM222.759 82.8801V75.2377H224.44V82.8801H222.759ZM232.997 81.8866C232.233 82.6509 231.285 83.033 230.154 83.033C229.023 83.033 228.07 82.6509 227.296 81.8866C226.532 81.1122 226.15 80.1696 226.15 79.0589C226.15 77.9482 226.532 77.0107 227.296 76.2465C228.07 75.472 229.023 75.0848 230.154 75.0848C231.285 75.0848 232.233 75.472 232.997 76.2465C233.772 77.0107 234.159 77.9482 234.159 79.0589C234.159 80.1696 233.772 81.1122 232.997 81.8866ZM230.154 81.4739C230.817 81.4739 231.362 81.2446 231.79 80.7861C232.228 80.3174 232.447 79.7416 232.447 79.0589C232.447 78.3762 232.228 77.8055 231.79 77.347C231.362 76.8782 230.817 76.6439 230.154 76.6439C229.482 76.6439 228.926 76.8782 228.488 77.347C228.06 77.8055 227.846 78.3762 227.846 79.0589C227.846 79.7416 228.06 80.3174 228.488 80.7861C228.926 81.2446 229.482 81.4739 230.154 81.4739ZM238.586 83.033C237.71 83.033 237.017 82.7426 236.507 82.1617C235.998 81.5707 235.743 80.7861 235.743 79.8079V75.2377H237.424V79.5327C237.424 80.1441 237.557 80.6281 237.822 80.9848C238.087 81.3313 238.464 81.5045 238.953 81.5045C239.523 81.5045 239.977 81.2905 240.313 80.8625C240.649 80.4243 240.817 79.8028 240.817 78.9978V75.2377H242.499V82.8801H240.817V81.8408C240.369 82.6356 239.625 83.033 238.586 83.033ZM247.191 83.033C246.488 83.033 245.867 82.9005 245.327 82.6356C244.787 82.3604 244.384 81.9528 244.119 81.4128L245.357 80.5262C245.51 80.8523 245.755 81.1122 246.091 81.3058C246.427 81.4892 246.794 81.5809 247.191 81.5809C247.507 81.5809 247.767 81.5096 247.971 81.3669C248.185 81.2243 248.292 81.0256 248.292 80.7708C248.292 80.5466 248.205 80.3632 248.032 80.2205C247.869 80.0779 247.563 79.9352 247.115 79.7926L246.442 79.6092C245.087 79.2423 244.42 78.4628 244.44 77.2706C244.44 76.6082 244.7 76.0783 245.22 75.6809C245.739 75.2835 246.391 75.0848 247.176 75.0848C248.358 75.0848 249.219 75.5179 249.759 76.384L248.598 77.2706C248.21 76.7509 247.726 76.491 247.146 76.491C246.87 76.491 246.631 76.5573 246.427 76.6897C246.223 76.812 246.121 76.9852 246.121 77.2094C246.121 77.4132 246.188 77.5864 246.32 77.7291C246.453 77.8718 246.692 77.9991 247.039 78.1112L247.818 78.3405C248.531 78.5545 249.066 78.8449 249.423 79.2117C249.78 79.5684 249.958 80.0524 249.958 80.6638C249.958 81.3873 249.698 81.963 249.178 82.391C248.659 82.819 247.996 83.033 247.191 83.033ZM255.299 82.8801V75.2377H256.981V76.598C257.123 76.17 257.383 75.8236 257.76 75.5586C258.147 75.2937 258.56 75.1612 258.998 75.1612C259.263 75.1612 259.482 75.1816 259.656 75.2224V76.9496C259.411 76.8579 259.131 76.812 258.815 76.812C258.305 76.812 257.872 77.0209 257.516 77.4387C257.159 77.8463 256.981 78.4169 256.981 79.1506V82.8801H255.299ZM264.292 83.033C263.13 83.033 262.172 82.661 261.418 81.9172C260.674 81.1733 260.302 80.2205 260.302 79.0589C260.302 77.9278 260.679 76.9852 261.433 76.2312C262.187 75.4669 263.14 75.0848 264.292 75.0848C265.351 75.0848 266.228 75.4211 266.921 76.0936C267.624 76.7662 267.975 77.6934 267.975 78.8755C267.975 79.0793 267.97 79.2627 267.96 79.4257H261.953C261.994 80.0473 262.233 80.5517 262.671 80.9389C263.11 81.316 263.655 81.5045 264.307 81.5045C265.285 81.5045 266.014 81.1173 266.493 80.3428L267.777 81.2599C267.043 82.442 265.881 83.033 264.292 83.033ZM262.029 78.2029H266.279C266.187 77.6731 265.947 77.2604 265.56 76.9649C265.183 76.6592 264.74 76.5063 264.23 76.5063C263.701 76.5063 263.227 76.6541 262.809 76.9496C262.401 77.2451 262.141 77.6629 262.029 78.2029ZM276.964 86.0747H275.283V81.856C275.048 82.1821 274.712 82.4623 274.274 82.6967C273.836 82.9209 273.357 83.033 272.837 83.033C271.798 83.033 270.921 82.6458 270.208 81.8713C269.505 81.0969 269.153 80.1594 269.153 79.0589C269.153 77.9584 269.505 77.0209 270.208 76.2465C270.921 75.472 271.798 75.0848 272.837 75.0848C273.357 75.0848 273.836 75.202 274.274 75.4364C274.712 75.6605 275.048 75.9357 275.283 76.2617V75.2377H276.964V86.0747ZM271.507 80.8014C271.935 81.2701 272.48 81.5045 273.143 81.5045C273.805 81.5045 274.35 81.2701 274.778 80.8014C275.206 80.3326 275.42 79.7518 275.42 79.0589C275.42 78.366 275.206 77.7851 274.778 77.3164C274.35 76.8477 273.805 76.6133 273.143 76.6133C272.48 76.6133 271.935 76.8477 271.507 77.3164C271.079 77.7851 270.865 78.366 270.865 79.0589C270.865 79.7518 271.079 80.3326 271.507 80.8014ZM281.978 83.033C281.101 83.033 280.409 82.7426 279.899 82.1617C279.39 81.5707 279.135 80.7861 279.135 79.8079V75.2377H280.816V79.5327C280.816 80.1441 280.949 80.6281 281.214 80.9848C281.478 81.3313 281.855 81.5045 282.345 81.5045C282.915 81.5045 283.369 81.2905 283.705 80.8625C284.041 80.4243 284.209 79.8028 284.209 78.9978V75.2377H285.891V82.8801H284.209V81.8408C283.761 82.6356 283.017 83.033 281.978 83.033ZM291.607 83.033C290.446 83.033 289.488 82.661 288.734 81.9172C287.99 81.1733 287.618 80.2205 287.618 79.0589C287.618 77.9278 287.995 76.9852 288.749 76.2312C289.503 75.4669 290.456 75.0848 291.607 75.0848C292.667 75.0848 293.543 75.4211 294.236 76.0936C294.94 76.7662 295.291 77.6934 295.291 78.8755C295.291 79.0793 295.286 79.2627 295.276 79.4257H289.269C289.31 80.0473 289.549 80.5517 289.987 80.9389C290.425 81.316 290.971 81.5045 291.623 81.5045C292.601 81.5045 293.329 81.1173 293.808 80.3428L295.092 81.2599C294.359 82.442 293.197 83.033 291.607 83.033ZM289.345 78.2029H293.594C293.503 77.6731 293.263 77.2604 292.876 76.9649C292.499 76.6592 292.056 76.5063 291.546 76.5063C291.016 76.5063 290.543 76.6541 290.125 76.9496C289.717 77.2451 289.457 77.6629 289.345 78.2029ZM299.45 83.033C298.747 83.033 298.125 82.9005 297.585 82.6356C297.045 82.3604 296.642 81.9528 296.377 81.4128L297.616 80.5262C297.768 80.8523 298.013 81.1122 298.349 81.3058C298.686 81.4892 299.052 81.5809 299.45 81.5809C299.766 81.5809 300.025 81.5096 300.229 81.3669C300.443 81.2243 300.55 81.0256 300.55 80.7708C300.55 80.5466 300.464 80.3632 300.29 80.2205C300.127 80.0779 299.822 79.9352 299.373 79.7926L298.701 79.6092C297.346 79.2423 296.678 78.4628 296.698 77.2706C296.698 76.6082 296.958 76.0783 297.478 75.6809C297.998 75.2835 298.65 75.0848 299.434 75.0848C300.617 75.0848 301.478 75.5179 302.018 76.384L300.856 77.2706C300.469 76.7509 299.985 76.491 299.404 76.491C299.129 76.491 298.889 76.5573 298.686 76.6897C298.482 76.812 298.38 76.9852 298.38 77.2094C298.38 77.4132 298.446 77.5864 298.579 77.7291C298.711 77.8718 298.95 77.9991 299.297 78.1112L300.076 78.3405C300.79 78.5545 301.325 78.8449 301.681 79.2117C302.038 79.5684 302.216 80.0524 302.216 80.6638C302.216 81.3873 301.956 81.963 301.437 82.391C300.917 82.819 300.255 83.033 299.45 83.033ZM307.173 82.9566C306.398 82.9566 305.766 82.7426 305.277 82.3146C304.798 81.8764 304.559 81.2446 304.559 80.4193V76.7356H302.969V75.2377H304.559V73.1131H306.24V75.2377H308.426V76.7356H306.24V80.1441C306.24 80.6129 306.342 80.9491 306.546 81.1529C306.75 81.3465 307.076 81.4433 307.524 81.4433C307.891 81.4433 308.192 81.3924 308.426 81.2905V82.7884C308.059 82.9005 307.641 82.9566 307.173 82.9566Z" fill="#24272A"/>
<mask id="path-8-inside-2_6657_17714" fill="white">
<path d="M75.018 119.377C75.018 117.267 76.7288 115.556 78.8392 115.556H386.449C388.559 115.556 390.27 117.267 390.27 119.377V150.02C390.27 152.13 388.559 153.841 386.449 153.841H78.8392C76.7288 153.841 75.018 152.13 75.018 150.02V119.377Z"/>
</mask>
<path d="M75.018 119.377C75.018 117.267 76.7288 115.556 78.8392 115.556H386.449C388.559 115.556 390.27 117.267 390.27 119.377V150.02C390.27 152.13 388.559 153.841 386.449 153.841H78.8392C76.7288 153.841 75.018 152.13 75.018 150.02V119.377Z" fill="#D73847" fill-opacity="0.1"/>
<path d="M75.018 115.556H390.27H75.018ZM390.27 153.841H75.018H390.27ZM78.8392 153.841C74.6184 153.841 71.1968 150.419 71.1968 146.199V123.199C71.1968 118.978 74.6184 115.556 78.8392 115.556C78.8392 115.556 78.8392 117.267 78.8392 119.377V150.02C78.8392 152.13 78.8392 153.841 78.8392 153.841ZM390.27 115.556V153.841V115.556Z" fill="#D73847" mask="url(#path-8-inside-2_6657_17714)"/>
<path d="M105.983 137.303L100.713 127.212C100.004 125.854 99.0243 125.109 97.9454 125.109C96.8666 125.109 95.8866 125.854 95.1783 127.212L89.9076 137.303C89.2405 138.591 89.1664 139.826 89.7017 140.798C90.237 141.771 91.2912 142.305 92.6747 142.305H103.216C104.6 142.305 105.654 141.771 106.189 140.798C106.724 139.826 106.65 138.582 105.983 137.303ZM97.3278 131.241C97.3278 130.882 97.6078 130.584 97.9454 130.584C98.2831 130.584 98.5631 130.882 98.5631 131.241V135.621C98.5631 135.98 98.2831 136.278 97.9454 136.278C97.6078 136.278 97.3278 135.98 97.3278 135.621V131.241ZM98.5302 138.871C98.489 138.906 98.4478 138.941 98.4066 138.976C98.3572 139.011 98.3078 139.038 98.2584 139.055C98.209 139.081 98.1596 139.099 98.1019 139.108C98.0525 139.116 97.9948 139.125 97.9454 139.125C97.896 139.125 97.8384 139.116 97.7807 139.108C97.7313 139.099 97.6819 139.081 97.6325 139.055C97.5831 139.038 97.5337 139.011 97.4842 138.976C97.4431 138.941 97.4019 138.906 97.3607 138.871C97.2125 138.705 97.1219 138.477 97.1219 138.249C97.1219 138.021 97.2125 137.794 97.3607 137.627C97.4019 137.592 97.4431 137.557 97.4842 137.522C97.5337 137.487 97.5831 137.461 97.6325 137.443C97.6819 137.417 97.7313 137.399 97.7807 137.391C97.8878 137.364 98.0031 137.364 98.1019 137.391C98.1596 137.399 98.209 137.417 98.2584 137.443C98.3078 137.461 98.3572 137.487 98.4066 137.522C98.4478 137.557 98.489 137.592 98.5302 137.627C98.6784 137.794 98.769 138.021 98.769 138.249C98.769 138.477 98.6784 138.705 98.5302 138.871Z" fill="#D73847"/>
<path d="M120.491 140.199V131.058H117.342V129.346H125.443V131.058H122.279V140.199H120.491ZM128.417 140.199H126.736V128.735H128.417V133.596C128.896 132.801 129.67 132.403 130.74 132.403C131.627 132.403 132.335 132.694 132.865 133.275C133.395 133.855 133.66 134.63 133.66 135.598V140.199H131.978V135.873C131.978 135.262 131.836 134.788 131.55 134.452C131.265 134.105 130.878 133.932 130.389 133.932C129.808 133.932 129.334 134.151 128.967 134.589C128.6 135.027 128.417 135.644 128.417 136.439V140.199ZM136.652 130.89C136.346 130.89 136.081 130.783 135.857 130.569C135.633 130.345 135.521 130.075 135.521 129.759C135.521 129.453 135.633 129.194 135.857 128.98C136.081 128.755 136.346 128.643 136.652 128.643C136.968 128.643 137.233 128.755 137.447 128.98C137.661 129.194 137.768 129.453 137.768 129.759C137.768 130.075 137.661 130.345 137.447 130.569C137.233 130.783 136.968 130.89 136.652 130.89ZM135.811 140.199V132.556H137.492V140.199H135.811ZM142.182 140.352C141.479 140.352 140.857 140.219 140.317 139.954C139.777 139.679 139.375 139.271 139.11 138.731L140.348 137.845C140.501 138.171 140.745 138.431 141.082 138.624C141.418 138.808 141.785 138.9 142.182 138.9C142.498 138.9 142.758 138.828 142.962 138.686C143.176 138.543 143.283 138.344 143.283 138.089C143.283 137.865 143.196 137.682 143.023 137.539C142.86 137.396 142.554 137.254 142.106 137.111L141.433 136.928C140.078 136.561 139.41 135.781 139.431 134.589C139.431 133.927 139.691 133.397 140.21 133C140.73 132.602 141.382 132.403 142.167 132.403C143.349 132.403 144.21 132.836 144.75 133.703L143.588 134.589C143.201 134.069 142.717 133.81 142.136 133.81C141.861 133.81 141.622 133.876 141.418 134.008C141.214 134.131 141.112 134.304 141.112 134.528C141.112 134.732 141.178 134.905 141.311 135.048C141.443 135.19 141.683 135.318 142.029 135.43L142.809 135.659C143.522 135.873 144.057 136.164 144.414 136.53C144.77 136.887 144.949 137.371 144.949 137.982C144.949 138.706 144.689 139.282 144.169 139.71C143.649 140.138 142.987 140.352 142.182 140.352ZM151.131 130.89C150.825 130.89 150.56 130.783 150.336 130.569C150.112 130.345 150 130.075 150 129.759C150 129.453 150.112 129.194 150.336 128.98C150.56 128.755 150.825 128.643 151.131 128.643C151.447 128.643 151.712 128.755 151.926 128.98C152.14 129.194 152.247 129.453 152.247 129.759C152.247 130.075 152.14 130.345 151.926 130.569C151.712 130.783 151.447 130.89 151.131 130.89ZM150.29 140.199V132.556H151.971V140.199H150.29ZM156.661 140.352C155.958 140.352 155.336 140.219 154.796 139.954C154.256 139.679 153.854 139.271 153.589 138.731L154.827 137.845C154.98 138.171 155.224 138.431 155.56 138.624C155.897 138.808 156.264 138.9 156.661 138.9C156.977 138.9 157.237 138.828 157.441 138.686C157.655 138.543 157.762 138.344 157.762 138.089C157.762 137.865 157.675 137.682 157.502 137.539C157.339 137.396 157.033 137.254 156.585 137.111L155.912 136.928C154.557 136.561 153.889 135.781 153.91 134.589C153.91 133.927 154.17 133.397 154.689 133C155.209 132.602 155.861 132.403 156.646 132.403C157.828 132.403 158.689 132.836 159.229 133.703L158.067 134.589C157.68 134.069 157.196 133.81 156.615 133.81C156.34 133.81 156.101 133.876 155.897 134.008C155.693 134.131 155.591 134.304 155.591 134.528C155.591 134.732 155.657 134.905 155.79 135.048C155.922 135.19 156.162 135.318 156.508 135.43L157.288 135.659C158.001 135.873 158.536 136.164 158.893 136.53C159.249 136.887 159.428 137.371 159.428 137.982C159.428 138.706 159.168 139.282 158.648 139.71C158.128 140.138 157.466 140.352 156.661 140.352ZM167.902 140.352C166.863 140.352 165.987 139.964 165.273 139.19C164.57 138.415 164.219 137.478 164.219 136.377C164.219 135.277 164.57 134.34 165.273 133.565C165.987 132.791 166.863 132.403 167.902 132.403C168.422 132.403 168.901 132.521 169.339 132.755C169.777 132.979 170.114 133.254 170.348 133.58V132.556H172.029V140.199H170.348V139.175C170.114 139.501 169.777 139.781 169.339 140.015C168.901 140.239 168.422 140.352 167.902 140.352ZM166.573 138.12C167.001 138.589 167.546 138.823 168.208 138.823C168.87 138.823 169.416 138.589 169.844 138.12C170.272 137.651 170.486 137.07 170.486 136.377C170.486 135.685 170.272 135.104 169.844 134.635C169.416 134.166 168.87 133.932 168.208 133.932C167.546 133.932 167.001 134.166 166.573 134.635C166.145 135.104 165.931 135.685 165.931 136.377C165.931 137.07 166.145 137.651 166.573 138.12ZM181.038 140.352C179.998 140.352 179.122 139.964 178.409 139.19C177.706 138.415 177.354 137.478 177.354 136.377C177.354 135.277 177.706 134.34 178.409 133.565C179.122 132.791 179.998 132.403 181.038 132.403C181.558 132.403 182.036 132.521 182.475 132.755C182.913 132.979 183.249 133.254 183.483 133.58V128.735H185.165V140.199H183.483V139.175C183.249 139.501 182.913 139.781 182.475 140.015C182.036 140.239 181.558 140.352 181.038 140.352ZM179.708 138.12C180.136 138.589 180.681 138.823 181.344 138.823C182.006 138.823 182.551 138.589 182.979 138.12C183.407 137.651 183.621 137.07 183.621 136.377C183.621 135.685 183.407 135.104 182.979 134.635C182.551 134.166 182.006 133.932 181.344 133.932C180.681 133.932 180.136 134.166 179.708 134.635C179.28 135.104 179.066 135.685 179.066 136.377C179.066 137.07 179.28 137.651 179.708 138.12ZM190.897 140.352C189.735 140.352 188.777 139.98 188.023 139.236C187.28 138.492 186.908 137.539 186.908 136.377C186.908 135.246 187.285 134.304 188.039 133.55C188.793 132.786 189.746 132.403 190.897 132.403C191.957 132.403 192.833 132.74 193.526 133.412C194.229 134.085 194.581 135.012 194.581 136.194C194.581 136.398 194.576 136.581 194.565 136.744H188.558C188.599 137.366 188.839 137.87 189.277 138.258C189.715 138.635 190.26 138.823 190.912 138.823C191.891 138.823 192.619 138.436 193.098 137.661L194.382 138.579C193.648 139.761 192.487 140.352 190.897 140.352ZM188.635 135.522H192.884C192.792 134.992 192.553 134.579 192.166 134.283C191.789 133.978 191.345 133.825 190.836 133.825C190.306 133.825 189.832 133.973 189.414 134.268C189.007 134.564 188.747 134.981 188.635 135.522ZM199.794 140.352C198.643 140.352 197.68 139.975 196.905 139.22C196.141 138.456 195.759 137.509 195.759 136.377C195.759 135.246 196.141 134.304 196.905 133.55C197.68 132.786 198.643 132.403 199.794 132.403C200.579 132.403 201.282 132.592 201.903 132.969C202.535 133.346 203.019 133.861 203.355 134.513L201.888 135.308C201.694 134.9 201.414 134.574 201.047 134.329C200.681 134.085 200.263 133.962 199.794 133.962C199.121 133.962 198.566 134.197 198.128 134.666C197.69 135.124 197.471 135.695 197.471 136.377C197.471 137.06 197.69 137.636 198.128 138.105C198.566 138.563 199.121 138.793 199.794 138.793C200.263 138.793 200.681 138.67 201.047 138.426C201.414 138.181 201.694 137.855 201.888 137.447L203.355 138.242C203.019 138.894 202.535 139.409 201.903 139.786C201.282 140.163 200.579 140.352 199.794 140.352ZM208.346 140.352C207.185 140.352 206.227 139.98 205.473 139.236C204.729 138.492 204.357 137.539 204.357 136.377C204.357 135.246 204.734 134.304 205.488 133.55C206.242 132.786 207.195 132.403 208.346 132.403C209.406 132.403 210.282 132.74 210.975 133.412C211.678 134.085 212.03 135.012 212.03 136.194C212.03 136.398 212.025 136.581 212.015 136.744H206.008C206.048 137.366 206.288 137.87 206.726 138.258C207.164 138.635 207.709 138.823 208.362 138.823C209.34 138.823 210.068 138.436 210.547 137.661L211.831 138.579C211.098 139.761 209.936 140.352 208.346 140.352ZM206.084 135.522H210.333C210.242 134.992 210.002 134.579 209.615 134.283C209.238 133.978 208.795 133.825 208.285 133.825C207.755 133.825 207.281 133.973 206.864 134.268C206.456 134.564 206.196 134.981 206.084 135.522ZM215.44 143.393H213.758V132.556H215.44V133.58C215.674 133.254 216.01 132.979 216.448 132.755C216.897 132.521 217.381 132.403 217.901 132.403C218.94 132.403 219.811 132.791 220.514 133.565C221.228 134.34 221.584 135.277 221.584 136.377C221.584 137.478 221.228 138.415 220.514 139.19C219.811 139.964 218.94 140.352 217.901 140.352C217.381 140.352 216.897 140.239 216.448 140.015C216.01 139.781 215.674 139.501 215.44 139.175V143.393ZM217.595 138.823C218.257 138.823 218.802 138.589 219.23 138.12C219.658 137.651 219.872 137.07 219.872 136.377C219.872 135.685 219.658 135.104 219.23 134.635C218.802 134.166 218.257 133.932 217.595 133.932C216.922 133.932 216.372 134.166 215.944 134.635C215.516 135.104 215.302 135.685 215.302 136.377C215.302 137.07 215.516 137.651 215.944 138.12C216.372 138.589 216.922 138.823 217.595 138.823ZM226.464 140.275C225.69 140.275 225.058 140.061 224.569 139.633C224.09 139.195 223.85 138.563 223.85 137.738V134.054H222.261V132.556H223.85V130.432H225.532V132.556H227.717V134.054H225.532V137.463C225.532 137.931 225.634 138.268 225.837 138.472C226.041 138.665 226.367 138.762 226.816 138.762C227.182 138.762 227.483 138.711 227.717 138.609V140.107C227.351 140.219 226.933 140.275 226.464 140.275ZM230.153 130.89C229.847 130.89 229.582 130.783 229.358 130.569C229.134 130.345 229.022 130.075 229.022 129.759C229.022 129.453 229.134 129.194 229.358 128.98C229.582 128.755 229.847 128.643 230.153 128.643C230.469 128.643 230.733 128.755 230.947 128.98C231.161 129.194 231.268 129.453 231.268 129.759C231.268 130.075 231.161 130.345 230.947 130.569C230.733 130.783 230.469 130.89 230.153 130.89ZM229.312 140.199V132.556H230.993V140.199H229.312ZM235.637 140.199L232.183 132.556H234.047L236.371 137.921L238.709 132.556H240.589L237.12 140.199H235.637ZM245.021 140.352C243.86 140.352 242.902 139.98 242.148 139.236C241.404 138.492 241.032 137.539 241.032 136.377C241.032 135.246 241.409 134.304 242.163 133.55C242.917 132.786 243.87 132.403 245.021 132.403C246.081 132.403 246.957 132.74 247.65 133.412C248.353 134.085 248.705 135.012 248.705 136.194C248.705 136.398 248.7 136.581 248.69 136.744H242.683C242.723 137.366 242.963 137.87 243.401 138.258C243.839 138.635 244.384 138.823 245.036 138.823C246.015 138.823 246.743 138.436 247.222 137.661L248.506 138.579C247.772 139.761 246.611 140.352 245.021 140.352ZM242.759 135.522H247.008C246.917 134.992 246.677 134.579 246.29 134.283C245.913 133.978 245.47 133.825 244.96 133.825C244.43 133.825 243.956 133.973 243.539 134.268C243.131 134.564 242.871 134.981 242.759 135.522ZM254.031 140.199V132.556H255.712V133.917C255.855 133.489 256.114 133.142 256.491 132.877C256.879 132.612 257.291 132.48 257.73 132.48C257.994 132.48 258.214 132.5 258.387 132.541V134.268C258.142 134.176 257.862 134.131 257.546 134.131C257.037 134.131 256.604 134.34 256.247 134.757C255.89 135.165 255.712 135.736 255.712 136.469V140.199H254.031ZM263.023 140.352C261.861 140.352 260.903 139.98 260.149 139.236C259.405 138.492 259.033 137.539 259.033 136.377C259.033 135.246 259.41 134.304 260.164 133.55C260.919 132.786 261.871 132.403 263.023 132.403C264.083 132.403 264.959 132.74 265.652 133.412C266.355 134.085 266.706 135.012 266.706 136.194C266.706 136.398 266.701 136.581 266.691 136.744H260.684C260.725 137.366 260.964 137.87 261.403 138.258C261.841 138.635 262.386 138.823 263.038 138.823C264.016 138.823 264.745 138.436 265.224 137.661L266.508 138.579C265.774 139.761 264.612 140.352 263.023 140.352ZM260.761 135.522H265.01C264.918 134.992 264.679 134.579 264.291 134.283C263.914 133.978 263.471 133.825 262.962 133.825C262.432 133.825 261.958 133.973 261.54 134.268C261.133 134.564 260.873 134.981 260.761 135.522ZM275.695 143.393H274.014V139.175C273.779 139.501 273.443 139.781 273.005 140.015C272.567 140.239 272.088 140.352 271.568 140.352C270.529 140.352 269.653 139.964 268.939 139.19C268.236 138.415 267.885 137.478 267.885 136.377C267.885 135.277 268.236 134.34 268.939 133.565C269.653 132.791 270.529 132.403 271.568 132.403C272.088 132.403 272.567 132.521 273.005 132.755C273.443 132.979 273.779 133.254 274.014 133.58V132.556H275.695V143.393ZM270.238 138.12C270.666 138.589 271.212 138.823 271.874 138.823C272.536 138.823 273.081 138.589 273.509 138.12C273.937 137.651 274.151 137.07 274.151 136.377C274.151 135.685 273.937 135.104 273.509 134.635C273.081 134.166 272.536 133.932 271.874 133.932C271.212 133.932 270.666 134.166 270.238 134.635C269.81 135.104 269.596 135.685 269.596 136.377C269.596 137.07 269.81 137.651 270.238 138.12ZM280.709 140.352C279.833 140.352 279.14 140.061 278.63 139.48C278.121 138.889 277.866 138.105 277.866 137.126V132.556H279.547V136.851C279.547 137.463 279.68 137.947 279.945 138.303C280.21 138.65 280.587 138.823 281.076 138.823C281.646 138.823 282.1 138.609 282.436 138.181C282.772 137.743 282.941 137.121 282.941 136.316V132.556H284.622V140.199H282.941V139.159C282.492 139.954 281.748 140.352 280.709 140.352ZM290.339 140.352C289.177 140.352 288.219 139.98 287.465 139.236C286.721 138.492 286.349 137.539 286.349 136.377C286.349 135.246 286.726 134.304 287.48 133.55C288.234 132.786 289.187 132.403 290.339 132.403C291.398 132.403 292.275 132.74 292.968 133.412C293.671 134.085 294.022 135.012 294.022 136.194C294.022 136.398 294.017 136.581 294.007 136.744H288C288.041 137.366 288.28 137.87 288.718 138.258C289.157 138.635 289.702 138.823 290.354 138.823C291.332 138.823 292.061 138.436 292.54 137.661L293.824 138.579C293.09 139.761 291.928 140.352 290.339 140.352ZM288.076 135.522H292.326C292.234 134.992 291.994 134.579 291.607 134.283C291.23 133.978 290.787 133.825 290.277 133.825C289.748 133.825 289.274 133.973 288.856 134.268C288.448 134.564 288.189 134.981 288.076 135.522ZM298.181 140.352C297.478 140.352 296.856 140.219 296.316 139.954C295.776 139.679 295.374 139.271 295.109 138.731L296.347 137.845C296.5 138.171 296.744 138.431 297.08 138.624C297.417 138.808 297.784 138.9 298.181 138.9C298.497 138.9 298.757 138.828 298.961 138.686C299.175 138.543 299.282 138.344 299.282 138.089C299.282 137.865 299.195 137.682 299.022 137.539C298.859 137.396 298.553 137.254 298.105 137.111L297.432 136.928C296.077 136.561 295.409 135.781 295.43 134.589C295.43 133.927 295.69 133.397 296.209 133C296.729 132.602 297.381 132.403 298.166 132.403C299.348 132.403 300.209 132.836 300.749 133.703L299.587 134.589C299.2 134.069 298.716 133.81 298.135 133.81C297.86 133.81 297.621 133.876 297.417 134.008C297.213 134.131 297.111 134.304 297.111 134.528C297.111 134.732 297.177 134.905 297.31 135.048C297.442 135.19 297.682 135.318 298.028 135.43L298.808 135.659C299.521 135.873 300.056 136.164 300.413 136.53C300.769 136.887 300.948 137.371 300.948 137.982C300.948 138.706 300.688 139.282 300.168 139.71C299.648 140.138 298.986 140.352 298.181 140.352ZM305.904 140.275C305.13 140.275 304.498 140.061 304.009 139.633C303.53 139.195 303.29 138.563 303.29 137.738V134.054H301.701V132.556H303.29V130.432H304.972V132.556H307.157V134.054H304.972V137.463C304.972 137.931 305.073 138.268 305.277 138.472C305.481 138.665 305.807 138.762 306.255 138.762C306.622 138.762 306.923 138.711 307.157 138.609V140.107C306.79 140.219 306.373 140.275 305.904 140.275Z" fill="#24272A"/>
<path d="M365.555 103.274C366.968 102.666 367.62 101.027 367.011 99.6142C366.402 98.2015 364.763 97.55 363.351 98.1587C361.938 98.7674 361.287 100.406 361.896 101.819C362.504 103.231 364.143 103.883 365.555 103.274Z" fill="url(#paint1_linear_6657_17714)"/>
<path d="M364.81 166.224C364.358 166.224 363.913 166.121 363.499 165.915L339.427 153.907C338.326 153.359 337.656 152.175 337.734 150.915C337.81 149.653 338.621 148.57 339.782 148.171L372.931 136.769C374.042 136.387 375.267 136.702 376.072 137.579C376.88 138.457 377.116 139.737 376.679 140.858L367.606 164.268C367.295 165.066 366.676 165.699 365.898 166.007C365.547 166.153 365.178 166.224 364.81 166.224ZM348.706 151.641L363.211 158.879L368.68 144.77L348.706 151.641Z" fill="url(#paint2_linear_6657_17714)"/>
<path fill-rule="evenodd" clip-rule="evenodd" d="M340.57 0.102619C355.669 0.948163 370.612 7.26858 380.894 18.3595C390.452 28.6714 396.949 43.5765 394.263 57.1695C391.359 75.7068 382.878 93.3409 370.184 107.162C368.679 108.801 366.863 110.502 364.638 110.51C361.133 110.525 359.05 106.13 359.884 102.725C360.6 99.8039 362.652 97.4766 364.664 95.1945C364.997 94.8162 365.33 94.4391 365.655 94.0608C372.169 86.4804 376.418 76.9761 377.724 67.0657C378.091 64.2733 377.287 60.369 374.47 60.4149C372.149 60.4528 371.479 62.9259 370.792 65.4632C370.128 67.9131 369.449 70.4228 367.251 70.8583C365.174 71.271 363.326 69.1282 363.143 67.0199C362.984 65.1524 363.703 63.3546 364.404 61.5999C364.495 61.3736 364.585 61.148 364.673 60.9231C367.463 53.7827 368.113 45.8705 366.744 38.3327C352.318 31.1544 335.908 27.9202 319.853 29.398C312.676 30.0578 305.616 31.607 298.56 33.1554C290.381 34.95 282.208 36.7435 273.863 37.1498C271.911 37.2433 269.723 37.1817 268.538 35.3879C267.542 33.8814 267.729 31.8893 268.857 30.4807C271.176 27.5837 274.81 27.4697 278.184 27.3638L278.295 27.3603C293.676 26.8726 308.982 24.1147 323.564 19.2052C323.65 19.1777 323.737 19.1436 323.824 19.1094C327.179 17.7533 326.099 12.6978 322.479 12.7229C317.253 12.7594 313.72 13.3611 306.867 15.4671C294.531 19.3191 291.695 15.1754 297.33 11.4374C310.304 3.66506 325.469 -0.740727 340.57 0.102619Z" fill="url(#paint3_linear_6657_17714)"/>
<path d="M259.778 24.639C258.008 24.639 256.219 24.1671 254.6 23.1802C249.916 20.3152 248.435 14.1748 251.3 9.48864C254.165 4.80476 260.305 3.32327 264.991 6.18824C269.675 9.05331 271.157 15.1936 268.292 19.8798C266.415 22.9455 263.136 24.639 259.778 24.639ZM259.808 7.50341C257.388 7.50341 255.022 8.72506 253.67 10.936C251.605 14.3139 252.671 18.7447 256.051 20.8098C259.432 22.8748 263.861 21.8081 265.925 18.4279C267.991 15.0501 266.924 10.6192 263.544 8.55416C262.375 7.84303 261.082 7.50341 259.808 7.50341Z" fill="#FFB0EB"/>
<path d="M411.468 42.399C413.007 42.399 414.253 41.1519 414.253 39.6137C414.253 38.0754 413.007 36.8284 411.468 36.8284C409.929 36.8284 408.683 38.0754 408.683 39.6137C408.683 41.1519 409.929 42.399 411.468 42.399Z" fill="url(#paint4_linear_6657_17714)"/>
<path d="M320.04 40.3227C334.654 38.4628 336.711 45.4146 325.209 56.6172C313.708 67.8198 312.828 59.7604 315.351 52.959C317.874 46.1577 314.108 46.0893 308.952 47.3794C303.791 48.6694 304.669 44.2226 320.04 40.3227Z" fill="#75C4FD"/>
<path d="M59.46 80.6641C60.5816 80.8103 61.7165 80.4779 62.7425 80.0031C64.7371 79.0822 66.471 77.6081 67.7024 75.7911C71.1167 70.7519 65.8854 67.7178 61.9266 71.2993C59.9616 73.0771 53.2152 79.8464 59.46 80.6641Z" fill="url(#paint5_linear_6657_17714)"/>
<path d="M153.236 194.673C142.583 196.743 129.085 185.096 140.504 171.169C148.634 161.211 148.867 168.049 148.427 176.25C148.621 181.385 149.407 183.527 156.735 184.576C164.063 185.624 163.89 192.604 153.236 194.673Z" fill="url(#paint6_linear_6657_17714)"/>
<path d="M27.6991 136.29C25.306 134.978 22.1421 136.669 19.9448 137.667C19.6602 137.797 18.4909 138.4 18.0782 138.535C16.5917 139.02 14.3742 140.204 13.246 141.594C12.0562 143.826 15.0239 145.686 19.3411 145.676C21.9615 145.793 24.9363 144.799 27.0648 143.296C28.2751 142.442 29.3948 141.264 29.4425 139.696C29.4836 138.356 28.9114 136.956 27.6991 136.29Z" fill="url(#paint7_linear_6657_17714)"/>
<path d="M61.1852 177.751C59.9065 177.751 58.6119 177.411 57.4426 176.695C54.0556 174.626 52.9867 170.186 55.0562 166.799C57.1258 163.412 61.5658 162.343 64.9528 164.413C66.5939 165.415 67.745 166.997 68.1962 168.867C68.6475 170.735 68.3421 172.668 67.3392 174.309C65.9831 176.527 63.6126 177.751 61.1852 177.751ZM61.2057 165.366C59.4575 165.366 57.748 166.247 56.7702 167.847C56.0477 169.03 55.8289 170.423 56.1526 171.77C56.4785 173.117 57.3081 174.259 58.4911 174.982C60.9322 176.475 64.1323 175.702 65.6252 173.261C66.3477 172.078 66.5665 170.686 66.2428 169.339C65.917 167.991 65.0873 166.849 63.9043 166.127C63.061 165.612 62.1288 165.366 61.2057 165.366Z" fill="#FFD23D"/>
<path d="M131.301 168.928C132.839 168.928 134.086 167.68 134.086 166.142C134.086 164.604 132.839 163.358 131.301 163.358C129.762 163.358 128.515 164.604 128.515 166.142C128.515 167.68 129.762 168.928 131.301 168.928Z" fill="url(#paint8_linear_6657_17714)"/>
<path d="M139.586 222.763L139.586 222.763L139.584 222.761C139.465 222.669 139.328 222.492 139.22 222.265C139.112 222.038 139.057 221.811 139.057 221.644V216.512C139.057 216.264 139.149 215.979 139.317 215.724C139.486 215.469 139.704 215.284 139.913 215.201C139.913 215.201 139.914 215.201 139.914 215.201L143.229 213.897C143.33 213.858 143.493 213.83 143.68 213.83C143.868 213.83 144.031 213.858 144.131 213.897C144.132 213.897 144.132 213.897 144.132 213.897L147.446 215.2C147.446 215.201 147.446 215.201 147.447 215.201C147.653 215.284 147.869 215.468 148.036 215.723C148.203 215.977 148.294 216.261 148.292 216.508L148.292 216.508V216.512V221.644C148.292 221.811 148.237 222.036 148.129 222.262C148.022 222.488 147.884 222.667 147.762 222.764C147.761 222.764 147.761 222.764 147.761 222.764L144.444 225.367L144.443 225.368C144.031 225.693 143.317 225.693 142.906 225.368L142.904 225.367L139.586 222.763ZM142.195 221.356L142.195 221.356L142.197 221.358C142.38 221.551 142.621 221.646 142.863 221.646C143.105 221.646 143.346 221.551 143.529 221.358L146.12 218.637C146.481 218.267 146.479 217.665 146.129 217.298L145.783 217.627L146.129 217.298C145.766 216.916 145.161 216.916 144.798 217.298L142.869 219.323L142.563 219.002C142.2 218.62 141.595 218.62 141.232 219.002C140.882 219.37 140.881 219.963 141.231 220.331C141.231 220.331 141.232 220.332 141.232 220.332L142.195 221.356Z" fill="#0376C9" stroke="#0376C9" stroke-width="0.955308"/>
<path d="M158.405 223.859C157.064 223.859 155.986 223.228 155.551 222.391L156.411 221.749C156.858 222.437 157.511 222.861 158.428 222.861C159.265 222.861 159.93 222.414 159.93 221.646C159.93 220.993 159.529 220.557 158.761 220.27L157.683 219.858C156.399 219.388 155.837 218.723 155.837 217.611C155.837 216.281 156.926 215.444 158.382 215.444C159.403 215.444 160.251 215.903 160.755 216.556L159.976 217.244C159.563 216.751 159.059 216.441 158.359 216.441C157.557 216.441 156.892 216.889 156.892 217.565C156.892 218.253 157.293 218.562 158.119 218.872L159.105 219.25C160.308 219.709 160.996 220.396 160.996 221.6C160.996 222.976 159.907 223.859 158.405 223.859ZM165.175 223.836C163.387 223.836 162.206 222.54 162.206 220.855C162.206 219.17 163.433 217.874 165.187 217.874C166.677 217.874 167.915 218.918 167.915 220.752C167.915 220.855 167.915 220.924 167.903 221.05H163.203C163.238 222.116 164.052 222.93 165.187 222.93C166.069 222.93 166.619 222.54 166.975 221.933L167.754 222.471C167.239 223.308 166.367 223.836 165.175 223.836ZM163.272 220.247H166.906C166.757 219.307 166.023 218.746 165.152 218.746C164.292 218.746 163.455 219.296 163.272 220.247ZM172.109 223.836C170.367 223.836 169.106 222.517 169.106 220.855C169.106 219.193 170.367 217.874 172.109 217.874C173.302 217.874 174.253 218.493 174.757 219.411L173.898 219.892C173.577 219.239 172.935 218.792 172.109 218.792C170.917 218.792 170.103 219.709 170.103 220.855C170.103 222.001 170.917 222.918 172.109 222.918C172.935 222.918 173.577 222.471 173.898 221.818L174.757 222.299C174.253 223.217 173.302 223.836 172.109 223.836ZM178.303 223.836C177.053 223.836 176.193 222.93 176.193 221.508V217.989H177.179V221.359C177.179 222.322 177.684 222.93 178.475 222.93C179.357 222.93 180.068 222.15 180.068 220.832V217.989H181.054V223.721H180.068V222.838C179.69 223.515 179.036 223.836 178.303 223.836ZM183.151 223.721V217.989H184.137V219.101C184.355 218.367 185.088 217.932 185.742 217.932C185.891 217.932 186.04 217.943 186.189 217.978V218.998C186.006 218.918 185.845 218.906 185.65 218.906C184.928 218.906 184.137 219.537 184.137 220.878V223.721H183.151ZM188.092 216.453C187.691 216.453 187.382 216.155 187.382 215.754C187.382 215.375 187.691 215.054 188.092 215.054C188.494 215.054 188.78 215.375 188.78 215.754C188.78 216.155 188.494 216.453 188.092 216.453ZM187.588 223.721V217.989H188.574V223.721H187.588ZM192.906 223.778C191.897 223.778 191.152 223.217 191.152 222.024V218.895H189.936V217.989H191.152V216.396H192.138V217.989H193.788V218.895H192.138V221.898C192.138 222.632 192.459 222.873 193.089 222.873C193.33 222.873 193.605 222.838 193.788 222.758V223.641C193.548 223.721 193.261 223.778 192.906 223.778ZM196.811 226.117H195.711L196.96 223.423L194.45 217.989H195.539L197.51 222.345L199.471 217.989H200.571L196.811 226.117ZM206.903 223.836C205.298 223.836 204.094 222.494 204.094 220.855C204.094 219.216 205.298 217.874 206.903 217.874C207.774 217.874 208.542 218.322 208.92 218.872V217.989H209.906V223.721H208.92V222.838C208.542 223.388 207.774 223.836 206.903 223.836ZM207.052 222.93C208.198 222.93 209 222.013 209 220.855C209 219.697 208.198 218.78 207.052 218.78C205.894 218.78 205.091 219.697 205.091 220.855C205.091 222.013 205.894 222.93 207.052 222.93ZM214.362 223.836C212.757 223.836 211.554 222.494 211.554 220.855C211.554 219.216 212.757 217.874 214.362 217.874C215.233 217.874 216.002 218.322 216.38 218.872V215.123H217.366V223.721H216.38V222.838C216.002 223.388 215.233 223.836 214.362 223.836ZM214.511 222.93C215.658 222.93 216.46 222.013 216.46 220.855C216.46 219.697 215.658 218.78 214.511 218.78C213.353 218.78 212.551 219.697 212.551 220.855C212.551 222.013 213.353 222.93 214.511 222.93ZM221.249 223.721L218.601 217.989H219.701L221.661 222.334L223.622 217.989H224.722L222.074 223.721H221.249ZM226.462 216.453C226.06 216.453 225.751 216.155 225.751 215.754C225.751 215.375 226.06 215.054 226.462 215.054C226.863 215.054 227.149 215.375 227.149 215.754C227.149 216.155 226.863 216.453 226.462 216.453ZM225.957 223.721V217.989H226.943V223.721H225.957ZM231.607 223.836C229.865 223.836 228.604 222.517 228.604 220.855C228.604 219.193 229.865 217.874 231.607 217.874C232.799 217.874 233.751 218.493 234.255 219.411L233.395 219.892C233.074 219.239 232.432 218.792 231.607 218.792C230.415 218.792 229.601 219.709 229.601 220.855C229.601 222.001 230.415 222.918 231.607 222.918C232.432 222.918 233.074 222.471 233.395 221.818L234.255 222.299C233.751 223.217 232.799 223.836 231.607 223.836ZM238.293 223.836C236.505 223.836 235.324 222.54 235.324 220.855C235.324 219.17 236.551 217.874 238.305 217.874C239.795 217.874 241.033 218.918 241.033 220.752C241.033 220.855 241.033 220.924 241.022 221.05H236.322C236.356 222.116 237.17 222.93 238.305 222.93C239.188 222.93 239.738 222.54 240.093 221.933L240.873 222.471C240.357 223.308 239.486 223.836 238.293 223.836ZM236.39 220.247H240.024C239.875 219.307 239.142 218.746 238.271 218.746C237.411 218.746 236.574 219.296 236.39 220.247ZM248.679 223.836C247.808 223.836 247.039 223.388 246.661 222.838V223.721H245.675V215.123H246.661V218.872C247.039 218.322 247.808 217.874 248.679 217.874C250.284 217.874 251.487 219.216 251.487 220.855C251.487 222.494 250.284 223.836 248.679 223.836ZM248.53 222.93C249.676 222.93 250.479 222.013 250.479 220.855C250.479 219.697 249.676 218.78 248.53 218.78C247.383 218.78 246.581 219.697 246.581 220.855C246.581 222.013 247.383 222.93 248.53 222.93ZM254.548 226.117H253.447L254.697 223.423L252.186 217.989H253.275L255.247 222.345L257.207 217.989H258.308L254.548 226.117Z" fill="#535A61"/>
<path d="M262.427 223.721V215.582H265.098C266.611 215.582 267.528 216.591 267.528 217.737C267.528 218.551 267.173 219.078 266.657 219.399C267.448 219.686 268.067 220.259 268.067 221.348C268.067 222.701 266.989 223.721 265.338 223.721H262.427ZM263.493 222.758H265.384C266.485 222.758 267.023 222.196 267.023 221.382C267.023 220.591 266.485 219.995 265.396 219.995H263.493V222.758ZM263.493 219.078H265.098C265.969 219.078 266.485 218.551 266.485 217.817C266.485 217.129 265.969 216.545 265.098 216.545H263.493V219.078ZM269.715 223.721V215.123H270.701V223.721H269.715ZM275.353 223.836C273.611 223.836 272.35 222.506 272.35 220.855C272.35 219.204 273.611 217.874 275.353 217.874C277.073 217.874 278.345 219.204 278.345 220.855C278.345 222.506 277.073 223.836 275.353 223.836ZM275.353 222.918C276.545 222.918 277.336 222.001 277.336 220.855C277.336 219.709 276.545 218.792 275.353 218.792C274.161 218.792 273.359 219.709 273.359 220.855C273.359 222.001 274.161 222.918 275.353 222.918ZM282.556 223.836C280.813 223.836 279.552 222.517 279.552 220.855C279.552 219.193 280.813 217.874 282.556 217.874C283.748 217.874 284.699 218.493 285.204 219.411L284.344 219.892C284.023 219.239 283.381 218.792 282.556 218.792C281.363 218.792 280.55 219.709 280.55 220.855C280.55 222.001 281.363 222.918 282.556 222.918C283.381 222.918 284.023 222.471 284.344 221.818L285.204 222.299C284.699 223.217 283.748 223.836 282.556 223.836ZM290.813 223.721L287.706 220.855V223.721H286.72V215.123H287.706V220.225L290.205 217.989H291.512L288.692 220.523L292.142 223.721H290.813ZM295.131 223.836C293.526 223.836 292.322 222.494 292.322 220.855C292.322 219.216 293.526 217.874 295.131 217.874C296.002 217.874 296.77 218.322 297.148 218.872V217.989H298.134V223.721H297.148V222.838C296.77 223.388 296.002 223.836 295.131 223.836ZM295.28 222.93C296.426 222.93 297.228 222.013 297.228 220.855C297.228 219.697 296.426 218.78 295.28 218.78C294.122 218.78 293.319 219.697 293.319 220.855C293.319 222.013 294.122 222.93 295.28 222.93ZM300.733 216.453C300.332 216.453 300.022 216.155 300.022 215.754C300.022 215.375 300.332 215.054 300.733 215.054C301.134 215.054 301.421 215.375 301.421 215.754C301.421 216.155 301.134 216.453 300.733 216.453ZM300.229 223.721V217.989H301.215V223.721H300.229ZM305.684 223.836C304.079 223.836 302.875 222.494 302.875 220.855C302.875 219.216 304.079 217.874 305.684 217.874C306.555 217.874 307.323 218.322 307.701 218.872V215.123H308.687V223.721H307.701V222.838C307.323 223.388 306.555 223.836 305.684 223.836ZM305.833 222.93C306.979 222.93 307.782 222.013 307.782 220.855C307.782 219.697 306.979 218.78 305.833 218.78C304.675 218.78 303.872 219.697 303.872 220.855C303.872 222.013 304.675 222.93 305.833 222.93Z" fill="#0376C9"/>
<path fill-rule="evenodd" clip-rule="evenodd" d="M75.018 114.104C74.6115 112.59 74.272 111.052 73.9965 109.502L75.018 121.858V114.104ZM77.6159 153.28L78.6349 165.604C81.3001 168.447 84.6175 170.737 88.011 172.578C92.0174 174.749 96.3498 176.637 100.593 178.299C104.833 179.96 109.575 181.482 114.199 180.884C118.224 180.362 122.342 177.64 120.936 173.111C119.695 169.708 116.082 167.047 110.203 163.926C108.876 163.223 108.531 161.471 109.542 160.356C109.548 160.348 109.56 160.337 109.567 160.329C110.454 159.351 112.086 158.937 113.423 158.718C116.804 158.167 120.186 158.472 123.559 158.777C127.263 159.111 130.957 159.445 134.626 158.641C136.457 158.241 138.271 157.745 140.085 157.249C143.186 156.401 146.289 155.553 149.481 155.18C151.14 154.985 153.374 154.739 154.835 155.739C156.37 156.791 156.38 159.151 155.846 160.782C155.658 161.352 155.056 162.836 154.432 164.375C153.695 166.191 152.927 168.084 152.772 168.642C151.822 172.041 152.36 175.975 155.914 177.62C159.723 179.378 163.578 176.841 166.689 174.794C166.749 174.754 166.809 174.715 166.868 174.676C170.709 172.143 174.063 169.025 177.016 165.519C179.049 163.1 180.918 160.567 182.478 157.855L182.143 153.805H79.7946C79.0098 153.805 78.2692 153.615 77.6159 153.28Z" fill="url(#paint9_linear_6657_17714)"/>
<path fill-rule="evenodd" clip-rule="evenodd" d="M75.018 76.3445C65.7583 86.4885 56.2773 96.5186 45.1358 104.522C43.3943 105.773 41.498 107.016 39.3581 107.152C37.2173 107.289 34.8309 105.887 34.6599 103.749C34.5335 102.154 35.4634 100.92 36.3951 99.6826C37.3434 98.4237 38.2934 97.1625 38.1334 95.5164C37.7761 91.8376 32.4063 88.8589 29.0169 88.6917C22.42 88.3675 14.472 95.0646 8.78563 99.856C7.7699 100.712 6.82633 101.507 5.97552 102.19C3.52535 104.157 0.947449 106.57 0.792498 109.707C0.433932 116.92 4.99538 115.463 9.3637 114.068C13.965 112.598 18.3521 111.197 16.5492 120.069C15.6123 124.677 19.4457 129.274 23.9958 130.469C28.5421 131.663 33.4046 130.164 37.4953 127.85C39.6956 126.607 41.7505 125.133 43.8061 123.658C45.5746 122.39 47.3437 121.121 49.2064 119.998C51.7637 118.455 55.4398 117.349 57.423 119.581C59.8323 122.291 57.0676 126.309 55.0051 129.29C50.9498 135.153 49.6191 142.82 51.4609 149.706C52.0895 152.055 53.1585 154.44 55.4656 155.561C56.6253 156.124 57.9904 156.198 59.133 155.598C61.4735 154.369 61.4487 151.438 60.799 149.111C59.7664 143.064 64.391 143.363 64.5343 146.08C65.1725 157.989 73.8906 166.245 85.5702 169.013L84.3251 153.805H79.7946C77.1566 153.805 75.018 151.666 75.018 149.028V76.3445Z" fill="url(#paint10_linear_6657_17714)"/>
<defs>
<linearGradient id="paint0_linear_6657_17714" x1="86.2696" y1="83.1482" x2="12.8486" y2="83.1482" gradientUnits="userSpaceOnUse">
<stop stop-color="#FFE466"/>
<stop offset="1" stop-color="#FFAFEA"/>
</linearGradient>
<linearGradient id="paint1_linear_6657_17714" x1="361.895" y1="101.819" x2="367.01" y2="99.6145" gradientUnits="userSpaceOnUse">
<stop stop-color="#75C3FC"/>
<stop offset="1" stop-color="#75C3FC"/>
</linearGradient>
<linearGradient id="paint2_linear_6657_17714" x1="337.726" y1="151.419" x2="376.895" y2="151.419" gradientUnits="userSpaceOnUse">
<stop stop-color="#75C3FC"/>
<stop offset="0.0929" stop-color="#81C2F6"/>
<stop offset="1" stop-color="#F0B8BD"/>
</linearGradient>
<linearGradient id="paint3_linear_6657_17714" x1="359.937" y1="66.7189" x2="394.873" y2="66.7189" gradientUnits="userSpaceOnUse">
<stop stop-color="#FFE466"/>
<stop offset="1" stop-color="#FFAFEA"/>
</linearGradient>
<linearGradient id="paint4_linear_6657_17714" x1="408.684" y1="39.6134" x2="414.253" y2="39.6134" gradientUnits="userSpaceOnUse">
<stop stop-color="#75C3FC"/>
<stop offset="1" stop-color="#75C3FC"/>
</linearGradient>
<linearGradient id="paint5_linear_6657_17714" x1="109.296" y1="30.6327" x2="32.9913" y2="104.534" gradientUnits="userSpaceOnUse">
<stop stop-color="#FFE466"/>
<stop offset="1" stop-color="#FFAFEA"/>
</linearGradient>
<linearGradient id="paint6_linear_6657_17714" x1="189.992" y1="180.569" x2="155.384" y2="180.569" gradientUnits="userSpaceOnUse">
<stop stop-color="#FFE466"/>
<stop offset="1" stop-color="#FFAFEA"/>
</linearGradient>
<linearGradient id="paint7_linear_6657_17714" x1="29.4454" y1="140.749" x2="12.9824" y2="140.749" gradientUnits="userSpaceOnUse">
<stop stop-color="#FFE466"/>
<stop offset="1" stop-color="#FFAFEA"/>
</linearGradient>
<linearGradient id="paint8_linear_6657_17714" x1="128.516" y1="166.141" x2="134.086" y2="166.141" gradientUnits="userSpaceOnUse">
<stop stop-color="#75C3FC"/>
<stop offset="1" stop-color="#75C3FC"/>
</linearGradient>
<linearGradient id="paint9_linear_6657_17714" x1="77.1067" y1="147.108" x2="180.874" y2="138.528" gradientUnits="userSpaceOnUse">
<stop stop-color="#FFE466"/>
<stop offset="1" stop-color="#FFAFEA"/>
</linearGradient>
<linearGradient id="paint10_linear_6657_17714" x1="72.0621" y1="121.188" x2="-9.64425" y2="121.188" gradientUnits="userSpaceOnUse">
<stop stop-color="#FFE466"/>
<stop offset="1" stop-color="#FFAFEA"/>
</linearGradient>
</defs>
</svg>
