<svg width="360" height="360" viewBox="0 0 360 360" fill="none" xmlns="http://www.w3.org/2000/svg">
<rect width="360" height="360" fill="#F0B90B"/>
<path d="M105.306 179.535L105.423 223.394L142.007 245.323V271L84.0131 236.352V166.71L105.306 179.535ZM105.306 135.677V161.235L84 148.396V122.839L105.306 110L126.716 122.839L105.306 135.677ZM157.284 122.839L178.59 110L200 122.839L178.59 135.677L157.284 122.839Z" fill="white"/>
<path d="M120 213.781V188.232L141.643 201.007V226.436L120 213.781ZM157.163 253.796L178.806 266.571L200.555 253.796V279.226L178.806 292L157.163 279.226V253.796ZM231.595 122.774L253.238 110L274.987 122.774V148.204L253.238 160.978V135.549L231.595 122.774ZM253.238 222.826L253.357 179.187L275 166.413V235.706L216.088 270.181V244.632L253.238 222.826Z" fill="white"/>
<path d="M238 214.081L217 227V201.04L238 188V214.081Z" fill="white"/>
<path d="M237.881 145.225L238 170.775L200.68 192.596V236.344L179.007 249L157.334 236.344V192.596L120.013 170.775V145.225L141.779 132.45L178.874 154.376L216.194 132.45L237.973 145.225H237.881ZM120 101.596L178.887 67L237.881 101.596L216.208 114.371L178.887 92.4446L141.673 114.371L120 101.596Z" fill="white"/>
</svg>
