<svg width="512" height="512" viewBox="0 0 100 100" fill="none" xmlns="http://www.w3.org/2000/svg">
  <rect width="100%" height="100%" fill="#F25D00"/>
  <path
    d="M100 50C100 77.6142 77.6142 100 50 100C22.3858 100 0 77.6142 0 50C0 22.3858 22.3858 0 50 0C77.6142 0 100 22.3858 100 50Z"
    fill="#F25D00"/>
  <path
    d="M31.1151 39.6537V54.8987C31.1151 55.4233 31.5404 55.8487 32.0651 55.8487H47.3101C47.8347 55.8487 48.26 55.4233 48.26 54.8987V39.6537C48.26 39.129 47.8347 38.7037 47.3101 38.7037H32.0651C31.5404 38.7037 31.1151 39.129 31.1151 39.6537Z"
    fill="white"/>
  <path
    d="M31.1208 61.0783V76.3233C31.1208 76.848 31.5462 77.2733 32.0709 77.2733H47.3158C47.8405 77.2733 48.2659 76.848 48.2659 76.3233V61.0783C48.2659 60.5537 47.8405 60.1283 47.3158 60.1283H32.0709C31.5462 60.1283 31.1208 60.5537 31.1208 61.0783Z"
    fill="white"/>
  <path
    d="M52.5434 61.0798V76.3248C52.5434 76.8495 52.9687 77.2748 53.4934 77.2748H68.7384C69.2631 77.2748 69.6884 76.8495 69.6884 76.3248V61.0798C69.6884 60.5551 69.2631 60.1298 68.7384 60.1298H53.4934C52.9687 60.1298 52.5434 60.5551 52.5434 61.0798Z"
    fill="white"/>
  <path
    d="M52.5434 39.6487V54.8937C52.5434 55.4184 52.9687 55.8437 53.4934 55.8437H68.7384C69.2631 55.8437 69.6884 55.4184 69.6884 54.8937V39.6487C69.6884 39.124 69.2631 38.6987 68.7384 38.6987H53.4934C52.9687 38.6987 52.5434 39.124 52.5434 39.6487Z"
    fill="white"/>
  <path
    d="M47.3101 17.2744H32.0651C31.5404 17.2744 31.1151 17.6998 31.1151 18.2245V33.4694C31.1151 33.9941 31.5404 34.4194 32.0651 34.4194H47.3101C47.8347 34.4194 48.2601 33.9941 48.2601 33.4694V18.2245C48.2601 17.6998 47.8347 17.2744 47.3101 17.2744Z"
    fill="white"/>
</svg>
