<svg width="30" height="30" viewBox="0 0 30 30" fill="none" xmlns="http://www.w3.org/2000/svg">
  <circle cx="15" cy="15" r="15" fill="#F1B71B" />
  <circle cx="15" cy="15" r="14.5" stroke="#999999" stroke-opacity="0.1" />
  <path d="M15.025 5.22217L12.252 6.78225V12.8932L15.025 14.2515L17.8469 12.8932V6.80961L15.025 5.22217Z"
    fill="white" />
  <path d="M12.752 12.5814V7.07465L15.025 5.79586L17.3469 7.10202V12.579L15.0269 13.6957L12.752 12.5814Z"
    stroke="#999999" stroke-opacity="0.1" />
  <path d="M15.025 24.7773L12.252 23.1881V16.9633L15.025 15.5796L17.8469 16.9633V23.16L15.025 24.7773Z" fill="white" />
  <path d="M15.025 24.201L12.752 22.8984V17.2726L15.0269 16.1374L17.3469 17.275V22.8702L15.025 24.201Z" stroke="#999999"
    stroke-opacity="0.1" />
  <path d="M10.5161 7.57959L7 10.2094V19.9654L10.5161 22.4313V7.57959Z" fill="white" />
  <path d="M7.5 19.7054V10.4598L10.0161 8.57794V21.4699L7.5 19.7054Z" stroke="#999999" stroke-opacity="0.1" />
  <path d="M19.582 7.57959L22.9992 10.2384V20.1017L19.582 22.5955V7.57959Z" fill="white" />
  <path d="M22.4992 19.8476L20.082 21.6116V8.60216L22.4992 10.4829V19.8476Z" stroke="#999999" stroke-opacity="0.1" />
</svg>