<svg xmlns="http://www.w3.org/2000/svg" xmlns:xlink="http://www.w3.org/1999/xlink" viewBox="0 0 352.5 352.5"><defs><style>.cls-1{fill:url(#linear-gradient);}.cls-2{fill:#f11387;}.cls-2,.cls-4{stroke:#e6e6e6;stroke-miterlimit:10;}.cls-3{opacity:0.85;fill:url(#radial-gradient);}.cls-4{fill:#8375aa;stroke-width:0.25px;}.cls-5{fill:#fff;}</style><linearGradient id="linear-gradient" x1="387.69" y1="29.25" x2="-32.74" y2="321.55" gradientUnits="userSpaceOnUse"><stop offset="0.04" stop-color="#fff"/><stop offset="0.06" stop-color="#faf4f7"/><stop offset="0.16" stop-color="#ddb2c9"/><stop offset="0.26" stop-color="#c67da4"/><stop offset="0.34" stop-color="#b65889"/><stop offset="0.4" stop-color="#ac4079"/><stop offset="0.44" stop-color="#a83873"/><stop offset="0.65" stop-color="#853778"/><stop offset="1" stop-color="#4e3680"/></linearGradient><radialGradient id="radial-gradient" cx="173.99" cy="176.97" r="160.76" gradientUnits="userSpaceOnUse"><stop offset="0.07" stop-color="#a83873"/><stop offset="0.53" stop-color="#a13672"/><stop offset="0.62" stop-color="#742b6d"/><stop offset="0.71" stop-color="#471f68"/><stop offset="0.79" stop-color="#2b1965"/><stop offset="0.84" stop-color="#211664"/><stop offset="0.96" stop-color="#1e1564"/></radialGradient></defs><g id="Layer_2" data-name="Layer 2"><g id="LOGO_03" data-name="LOGO 03"><circle class="cls-1" cx="176.25" cy="176.25" r="176.25"/><path class="cls-2" d="M128,157.5a131.51,131.51,0,0,1,5-30c2.86-10.47,6.05-22.18,15-35A92.76,92.76,0,0,1,170.5,70c5.3-3.74,13.27-9.36,25-12.5,12.28-3.29,32.18-4.81,45-2.5,1.2.22,4.63.88,5,0,.65-1.56-8.82-6.84-10-7.5a93.19,93.19,0,0,0-27.5-10c-27.13-5-54.8,0-65,2.5-8.82,2.12-18.29,5.07-32.5,12.5a137.39,137.39,0,0,0-50,45,140.38,140.38,0,0,0-15,125c10.87,29.55,29,47,37.5,55A154.14,154.14,0,0,0,135.5,310c11.42,4.15,38.28,13.53,72.5,7.5a132.56,132.56,0,0,0,50-20c23.32-15.43,35.18-33.79,37.5-37.5,11.27-18,17.38-38.79,15-40-1.19-.6-4.05,5.18-12.5,15-7.13,8.28-17.14,19.7-32.5,27.5A80.31,80.31,0,0,1,243,270c-20.55,3.56-37-2.14-45-5-25.41-9.13-40.82-26.35-47.5-35C148.84,227.85,126.45,198,128,157.5Z"/><path class="cls-3" d="M235.5,50s-15-5-52.54,5.65c-34.64,9.83-56.27,37.25-60.88,43.84-33,47.17-16.58,101.07-14.61,107.16,3.67,11.38,15.07,46.67,51.14,65.75,31.73,16.78,76,14,101.89.1,28.48-15.27,42.5-37.5,47.34-42-.86,2.82-5.2,16.26-12.34,27-25,37.5-61.33,50.32-67.5,52.5C162.09,333.32,103.81,290,100.5,287.5,86,276.77,49.4,247,41.71,196.9,34.35,149,55,111.17,60.5,102.5,91,54.36,138.08,42.12,148,40c9.5-2,42.28-7.43,75,5C231.25,48.14,235.5,50,235.5,50Z"/><circle class="cls-2" cx="69.25" cy="181.25" r="12.5"/><circle class="cls-2" cx="150.5" cy="295" r="8.75"/><circle class="cls-2" cx="116.75" cy="191.25" r="5"/><circle class="cls-2" cx="105.5" cy="135" r="8.75"/><circle class="cls-2" cx="105.5" cy="258" r="18.75"/><circle class="cls-2" cx="101.75" cy="91.25" r="10"/><circle class="cls-2" cx="195.5" cy="287.5" r="11.25"/><circle class="cls-4" cx="245.5" cy="292.5" r="3.75"/><circle class="cls-2" cx="155.5" cy="50" r="6.25"/><path class="cls-5" d="M240.33,122.2l20-5,5-20,5,20s17.52,5,18.76,5-18.76,5-18.76,5l-5,20-5-20Z"/><path class="cls-5" d="M185.77,201.9l10.17-2.54,2.54-10.16L201,199.36s8.9,2.54,9.53,2.54-9.53,2.54-9.53,2.54l-2.54,10.17-2.54-10.17Z"/><circle class="cls-5" cx="159.08" cy="150.45" r="3.75"/><circle class="cls-5" cx="210.58" cy="138.95" r="7.5"/><circle class="cls-5" cx="210.83" cy="80.2" r="5"/><circle class="cls-5" cx="264.58" cy="201.45" r="3.75"/><circle class="cls-5" cx="245.58" cy="241.95" r="7.5"/></g></g></svg>