<?xml version="1.0" encoding="utf-8"?>
<!-- Generator: Adobe Illustrator 22.0.1, SVG Export Plug-In . SVG Version: 6.00 Build 0)  -->
<svg version="1.1" id="Layer_1" xmlns="http://www.w3.org/2000/svg" xmlns:xlink="http://www.w3.org/1999/xlink" x="0px" y="0px"
	 viewBox="0 0 24.1 24" style="enable-background:new 0 0 24.1 24;" xml:space="preserve">
<style type="text/css">
	.st0{fill:#0066CC;}
</style>
<g>
	<path class="st0" d="M20.8,6.8h-3.5l-2-2c0,0,0,0,0,0l0,0l0,0c-0.3-0.3-0.7-0.5-1.2-0.5H9.9c-0.5,0-0.9,0.2-1.2,0.5l0,0l-2,2H3.1
		c-0.9,0-1.7,0.7-1.7,1.7v10c0,0.9,0.8,1.7,1.7,1.7h17.8c0.9,0,1.7-0.7,1.7-1.7v-10C22.5,7.6,21.8,6.8,20.8,6.8z M21.7,18.5
		c0,0.5-0.4,0.8-0.8,0.8H3.1c-0.5,0-0.8-0.4-0.8-0.8v-10c0-0.5,0.4-0.8,0.8-0.8h3.6H7l0.2-0.2l1-1l0,0.1l1-1
		c0.2-0.2,0.4-0.3,0.6-0.3h4.2c0.2,0,0.4,0.1,0.6,0.2l2,2L17,7.7h0.4h3.5c0.5,0,0.8,0.4,0.8,0.8V18.5L21.7,18.5z"/>
	<path class="st0" d="M11.9,9.4c-2.1,0-3.8,1.7-3.8,3.7c0,2.1,1.7,3.8,3.8,3.8c2.1,0,3.8-1.7,3.8-3.8S14,9.4,11.9,9.4z M11.9,16
		c-1.6,0-3-1.3-3-2.9s1.3-2.9,3-2.9s3,1.3,3,2.9S13.6,16,11.9,16z"/>
</g>
</svg>
