<?xml version="1.0" encoding="utf-8"?>
<!-- Generator: Adobe Illustrator 16.0.0, SVG Export Plug-In . SVG Version: 6.00 Build 0)  -->
<!DOCTYPE svg PUBLIC "-//W3C//DTD SVG 1.1//EN" "http://www.w3.org/Graphics/SVG/1.1/DTD/svg11.dtd">
<svg version="1.1" id="Layer_1" xmlns="http://www.w3.org/2000/svg" xmlns:xlink="http://www.w3.org/1999/xlink" x="0px" y="0px"
	 width="24.088px" height="24px" viewBox="113.789 0 24.088 24" enable-background="new 113.789 0 24.088 24" xml:space="preserve" fill="#F7861C">
<g>
	<path d="M134.613,6.85h-3.499l-2.035-2.009c-0.003-0.002-0.004-0.004-0.006-0.006l-0.004-0.003l0,0
		c-0.306-0.298-0.725-0.482-1.189-0.482h-4.23c-0.491,0-0.93,0.209-1.238,0.539l-0.003-0.005l-1.991,1.966h-3.571
		c-0.935,0-1.691,0.747-1.691,1.667v10c0,0.92,0.757,1.668,1.691,1.668h17.768c0.934,0,1.691-0.748,1.691-1.668v-10
		C136.305,7.597,135.547,6.85,134.613,6.85z M135.459,18.518c0,0.459-0.381,0.834-0.846,0.834h-17.768
		c-0.466,0-0.846-0.374-0.846-0.834v-10c0-0.459,0.38-0.833,0.846-0.833h3.571h0.351l0.248-0.245l1.024-1.011l0.021,0.062
		l0.971-1.035c0.164-0.175,0.385-0.271,0.618-0.271h4.23c0.223,0,0.435,0.086,0.602,0.247l2.033,2.008l0.247,0.245h0.353h3.499
		c0.465,0,0.846,0.374,0.846,0.833V18.518L135.459,18.518z"/>
	<path d="M125.729,9.351c-2.104,0-3.808,1.678-3.808,3.749c0,2.072,1.703,3.752,3.808,3.752c2.104,0,3.808-1.68,3.808-3.752
		C129.537,11.028,127.833,9.351,125.729,9.351z M125.729,16.018c-1.633,0-2.962-1.31-2.962-2.918s1.329-2.916,2.962-2.916
		s2.961,1.307,2.961,2.916S127.362,16.018,125.729,16.018z"/>
</g>
</svg>
