<svg enable-background="new 113.789 0 24.088 24" fill="#f7861c" height="24" viewBox="113.789 0 24.088 24" width="24.088" xmlns="http://www.w3.org/2000/svg"><path d="m134.613 6.85h-3.499l-2.035-2.009c-.003-.002-.004-.004-.006-.006l-.004-.003c-.306-.298-.725-.482-1.189-.482h-4.23c-.491 0-.93.209-1.238.539l-.003-.005-1.991 1.966h-3.571c-.935 0-1.691.747-1.691 1.667v10c0 .92.757 1.668 1.691 1.668h17.768c.934 0 1.691-.748 1.691-1.668v-10c-.001-.92-.759-1.667-1.693-1.667zm.846 11.668c0 .459-.381.834-.846.834h-17.768c-.466 0-.846-.374-.846-.834v-10c0-.459.38-.833.846-.833h3.571.351l.248-.245 1.024-1.011.021.062.971-1.035c.164-.175.385-.271.618-.271h4.23c.223 0 .435.086.602.247l2.033 2.008.247.245h.353 3.499c.465 0 .846.374.846.833z"/><path d="m125.729 9.351c-2.104 0-3.808 1.678-3.808 3.749 0 2.072 1.703 3.752 3.808 3.752 2.104 0 3.808-1.68 3.808-3.752s-1.704-3.749-3.808-3.749zm0 6.667c-1.633 0-2.962-1.31-2.962-2.918s1.329-2.916 2.962-2.916 2.961 1.307 2.961 2.916-1.328 2.918-2.961 2.918z"/></svg>