<svg fill="#f7861c" height="24" viewBox="113.789 0 24.088 24" width="24.088" xmlns="http://www.w3.org/2000/svg">
    <path d="M134.613 6.85h-3.499l-2.035-2.009-.006-.006-.004-.003a1.698 1.698 0 00-1.189-.482h-4.23c-.491 0-.93.209-1.238.539l-.003-.005-1.991 1.966h-3.571c-.935 0-1.691.747-1.691 1.667v10c0 .92.757 1.668 1.691 1.668h17.768a1.68 1.68 0 001.691-1.668v-10a1.682 1.682 0 00-1.693-1.667zm.846 11.668a.843.843 0 01-.846.834h-17.768a.841.841 0 01-.846-.834v-10c0-.459.38-.833.846-.833h3.922l.248-.245 1.024-1.011.021.062.971-1.035a.843.843 0 01.618-.271h4.23c.223 0 .435.086.602.247l2.033 2.008.247.245H134.613c.465 0 .846.374.846.833z"/>
    <path d="M125.729 9.351c-2.104 0-3.808 1.678-3.808 3.749 0 2.072 1.703 3.752 3.808 3.752 2.104 0 3.808-1.68 3.808-3.752s-1.704-3.749-3.808-3.749zm0 6.667c-1.633 0-2.962-1.31-2.962-2.918s1.329-2.916 2.962-2.916 2.961 1.307 2.961 2.916-1.328 2.918-2.961 2.918z"/>
</svg>
