<svg width="26" height="27" viewBox="0 0 26 27" fill="none" xmlns="http://www.w3.org/2000/svg">
<path id="logo" fill-rule="evenodd" clip-rule="evenodd" d="M0 5.51104C0 5.29325 0 5.18436 0.0423832 5.10118C0.0796646 5.02801 0.139153 4.96852 0.212321 4.93124C0.295503 4.88886 0.404394 4.88886 0.622176 4.88886H4.6716C4.88938 4.88886 4.99827 4.88886 5.08145 4.84648C5.15462 4.80919 5.21411 4.74971 5.25139 4.67654C5.29377 4.59336 5.29377 4.48446 5.29377 4.26668V0.622177C5.29377 0.404394 5.29377 0.295503 5.33615 0.212321C5.37344 0.139153 5.43292 0.0796646 5.50609 0.0423832C5.58927 0 5.69816 0 5.91595 0H25.8739C26.0917 0 26.2006 0 26.2838 0.0423832C26.3569 0.0796646 26.4164 0.139153 26.4537 0.212321C26.4961 0.295503 26.4961 0.404395 26.4961 0.622177L26.4961 27.3778C26.4961 27.5956 26.4961 27.7045 26.4537 27.7877C26.4164 27.8608 26.3569 27.9203 26.2838 27.9576C26.2006 28 26.0917 28 25.8739 28H5.92114C5.70335 28 5.59446 28 5.51128 27.9576C5.43811 27.9203 5.37863 27.8608 5.34134 27.7877C5.29896 27.7045 5.29896 27.5956 5.29896 27.3778V23.7316C5.29896 23.5138 5.29896 23.4049 5.25658 23.3217C5.2193 23.2485 5.15981 23.189 5.08664 23.1518C5.00346 23.1094 4.89457 23.1094 4.67678 23.1094H0.622176C0.404394 23.1094 0.295503 23.1094 0.212321 23.067C0.139153 23.0297 0.0796646 22.9702 0.0423832 22.8971C0 22.8139 0 22.705 0 22.4872V5.51104ZM9.3991 5.1225C9.3991 4.90472 9.3991 4.79583 9.44148 4.71265C9.47876 4.63948 9.53825 4.57999 9.61142 4.54271C9.6946 4.50033 9.80349 4.50033 10.0213 4.50033H20.99C21.2077 4.50033 21.3166 4.50033 21.3998 4.54271C21.473 4.57999 21.5325 4.63948 21.5698 4.71265C21.6121 4.79583 21.6121 4.90472 21.6121 5.1225V8.81932C21.6121 9.03711 21.6121 9.146 21.5698 9.22918C21.5325 9.30235 21.473 9.36184 21.3998 9.39912C21.3166 9.4415 21.2077 9.4415 20.99 9.4415H10.0213C9.80349 9.4415 9.6946 9.4415 9.61142 9.39912C9.53825 9.36184 9.47876 9.30235 9.44148 9.22918C9.3991 9.146 9.3991 9.03711 9.3991 8.81932V5.1225ZM21.6121 19.1225C21.6121 18.9047 21.6121 18.7958 21.5698 18.7126C21.5325 18.6395 21.473 18.58 21.3998 18.5427C21.3166 18.5003 21.2077 18.5003 20.99 18.5003H10.0213C9.80349 18.5003 9.6946 18.5003 9.61142 18.4579C9.53825 18.4207 9.47876 18.3612 9.44148 18.288C9.3991 18.2048 9.3991 18.0959 9.3991 17.8781V10.0649C9.3991 9.8471 9.3991 9.73821 9.35671 9.65503C9.31943 9.58186 9.25994 9.52237 9.18678 9.48509C9.10359 9.44271 8.9947 9.44271 8.77692 9.44271H5.13605C4.91827 9.44271 4.80938 9.44271 4.7262 9.48509C4.65303 9.52237 4.59354 9.58186 4.55626 9.65503C4.51388 9.73821 4.51388 9.8471 4.51388 10.0649L4.51388 17.8794C4.51388 18.0971 4.51388 18.206 4.55626 18.2892C4.59354 18.3624 4.65303 18.4219 4.7262 18.4591C4.80938 18.5015 4.91827 18.5015 5.13605 18.5015L8.77692 18.5015C8.9947 18.5015 9.10359 18.5015 9.18678 18.5439C9.25994 18.5812 9.31943 18.6407 9.35671 18.7139C9.3991 18.797 9.3991 18.9059 9.3991 19.1237V22.8193C9.3991 23.0371 9.3991 23.146 9.44148 23.2292C9.47876 23.3023 9.53825 23.3618 9.61142 23.3991C9.6946 23.4415 9.80349 23.4415 10.0213 23.4415H20.99C21.2077 23.4415 21.3166 23.4415 21.3998 23.3991C21.473 23.3618 21.5325 23.3023 21.5698 23.2292C21.6121 23.146 21.6121 23.0371 21.6121 22.8193V19.1225Z" fill="black"/>
</svg>
