<svg width="27" height="21" viewBox="0 0 27 21" fill="none" xmlns="http://www.w3.org/2000/svg">
<rect x="0.660034" y="1.35059" width="25.16" height="18.2984" rx="2.5" fill="white" stroke="#F4F4F4"/>
<path d="M13.1715 8.93577C13.1578 10.1059 14.1337 10.7589 14.8687 11.1471C15.624 11.5455 15.8777 11.8009 15.8747 12.1572C15.8691 12.7023 15.2722 12.9429 14.7138 12.9523C13.7394 12.9686 13.1729 12.6671 12.7225 12.4391L12.3715 14.2193C12.8234 14.4449 13.6601 14.6418 14.5278 14.6504C16.5645 14.6504 17.897 13.5607 17.9042 11.8712C17.9122 9.72702 15.1678 9.60834 15.1866 8.64994C15.193 8.35933 15.4489 8.04922 16.0095 7.97036C16.287 7.93053 17.053 7.90005 17.9215 8.33352L18.2624 6.61121C17.7953 6.42689 17.1951 6.25039 16.4477 6.25039C14.5307 6.25039 13.1824 7.35491 13.1715 8.93577ZM21.5378 6.39874C21.1659 6.39874 20.8525 6.63387 20.7127 6.99469L17.8033 14.5239H19.8385L20.2435 13.3107H22.7305L22.9655 14.5239H24.7593L23.1939 6.39874H21.5378ZM21.8226 8.59365L22.4099 11.6447H20.8013L21.8226 8.59365ZM10.7039 6.39884L9.09965 14.5238H11.0391L12.6426 6.39864H10.7039V6.39884ZM7.83487 6.39864L5.81625 11.929L4.99968 7.22677C4.90387 6.70185 4.5255 6.39874 4.10531 6.39874H0.805496L0.759277 6.63468C1.43671 6.79401 2.2064 7.05099 2.67271 7.32595C2.95809 7.49391 3.03946 7.64074 3.13321 8.03987L4.67981 14.5239H6.72928L9.8714 6.39874H7.83487" fill="url(#paint0_linear_11435_1631)"/>
<defs>
<linearGradient id="paint0_linear_11435_1631" x1="11.793" y1="14.8189" x2="12.0565" y2="6.19317" gradientUnits="userSpaceOnUse">
<stop stop-color="#222357"/>
<stop offset="1" stop-color="#254AA5"/>
</linearGradient>
</defs>
</svg>
