<svg width="27" height="21" viewBox="0 0 27 21" fill="none" xmlns="http://www.w3.org/2000/svg">
<rect x="0.5" y="1.35059" width="25.16" height="18.2984" rx="2.5" fill="black" stroke="#F4F4F4"/>
<path d="M10.668 5.23389H16.3498V15.4431H10.668V5.23389Z" fill="#FF5F00"/>
<path d="M11.0275 10.3402C11.0275 8.26591 12.0015 6.42604 13.4985 5.23554C12.3983 4.36975 11.0095 3.84668 9.49433 3.84668C5.90473 3.84668 3.00073 6.75068 3.00073 10.3402C3.00073 13.9296 5.90473 16.8337 9.49425 16.8337C11.0094 16.8337 12.3983 16.3106 13.4985 15.4448C12.0015 14.2723 11.0275 12.4145 11.0275 10.3402Z" fill="#EB001B"/>
<path d="M24.0149 10.3402C24.0149 13.9296 21.1109 16.8337 17.5214 16.8337C16.0062 16.8337 14.6174 16.3106 13.5171 15.4448C15.0322 14.2544 15.9882 12.4145 15.9882 10.3402C15.9882 8.26591 15.0142 6.42604 13.5171 5.23554C14.6173 4.36975 16.0062 3.84668 17.5214 3.84668C21.1109 3.84668 24.015 6.76876 24.015 10.3402H24.0149Z" fill="#F79E1B"/>
</svg>
