<svg width="27" height="19" viewBox="0 0 27 19" fill="none" xmlns="http://www.w3.org/2000/svg">
<path d="M2.46995 18.725C1.28252 18.725 0.319946 17.8684 0.319946 16.8125V2.7875C0.319946 1.73124 1.28252 0.875 2.46995 0.875H23.9699C25.1569 0.875 26.1199 1.73124 26.1199 2.7875V2.88432H22.7382L21.9767 4.77969L21.2197 2.88432H16.866V5.40125L15.6073 2.88432H12.0867L8.42724 10.2423H11.3745V16.7687H20.4986L21.9274 15.3702L23.3563 16.7687H26.1199V16.8125C26.1199 17.8684 25.1569 18.725 23.9699 18.725H2.46995ZM21.9364 14.1031L20.0462 15.9479H17.8111L20.8345 13.0911L17.8111 10.2024H20.1134L21.9722 12.0631L23.8535 10.2024H26.1199L23.0741 13.0752L26.1199 15.9479H23.8177L21.9364 14.1031ZM26.1199 11.4296V14.7486L24.3596 13.0791L26.1199 11.4296ZM14.0979 14.6251H17.8156V15.9479H12.351V10.2423H17.8156V11.5611H14.0979V12.4536H17.7215V13.7405H14.0979V14.6291V14.6251ZM24.3865 5.40523L22.7337 9.41352H21.1929L19.5445 5.41719V9.41352H17.8111V3.70391H20.5523L21.9812 7.26195L23.4235 3.70391H26.1199V9.41352H24.3865V5.40523ZM15.3028 8.27H12.351L11.818 9.41352H9.89192L12.6869 3.70391H14.9803L17.8156 9.41352H15.8403L15.3028 8.27ZM13.8246 5.11836L12.9512 6.98703H14.6936L13.8246 5.11836Z" fill="#006FCF"/>
</svg>
