<!DOCTYPE svg PUBLIC "-//W3C//DTD SVG 20010904//EN" "http://www.w3.org/TR/2001/REC-SVG-20010904/DTD/svg10.dtd">
<svg version="1.0" xmlns="http://www.w3.org/2000/svg" width="200px" height="200px" viewBox="0 0 2000 2000" preserveAspectRatio="xMidYMid meet">
<g id="layer101" fill="#5da43d" stroke="none">
 <path d="M663 1790 c-221 -58 -390 -225 -459 -456 -29 -93 -24 -257 9 -360 29 -88 83 -178 148 -249 43 -47 157 -127 197 -139 12 -4 22 -13 22 -20 0 -18 86 -146 128 -189 61 -63 176 -134 265 -163 105 -34 267 -39 362 -10 105 31 213 94 284 166 124 124 180 253 188 430 6 128 -9 197 -69 320 -50 103 -159 217 -255 268 -54 29 -66 40 -99 100 -55 99 -161 200 -265 251 -46 22 -111 48 -144 56 -81 21 -223 18 -312 -5z m237 -160 c83 -13 194 -67 245 -119 l39 -41 -45 0 c-68 0 -191 -35 -272 -77 -101 -52 -219 -172 -270 -273 -39 -80 -67 -172 -68 -230 0 -19 -4 -43 -8 -54 -6 -16 -12 -13 -49 29 -137 156 -149 396 -28 572 65 96 187 172 306 193 64 11 78 11 150 0z m375 -357 c14 -14 16 -33 13 -122 -3 -94 -7 -114 -35 -174 -85 -181 -276 -292 -470 -274 -36 4 -68 8 -70 10 -2 2 -6 34 -10 70 -20 214 114 417 322 489 69 24 227 25 250 1z m310 -238 c58 -119 66 -240 23 -364 -105 -307 -500 -413 -743 -199 -42 37 -45 43 -29 49 11 4 35 8 54 8 58 1 150 29 230 68 101 51 221 169 273 270 42 81 77 204 77 272 l0 45 41 -39 c22 -22 56 -71 74 -110z"/>
 </g>
<g id="layer102" fill="#35d07f" stroke="none">
 <path d="M655 1786 c-93 -26 -127 -42 -212 -103 -113 -79 -207 -221 -239 -361 -20 -85 -20 -239 1 -317 33 -126 120 -260 219 -337 57 -44 137 -90 144 -83 2 2 -3 26 -12 52 -9 26 -19 74 -23 106 l-6 58 48 -30 c26 -17 64 -36 84 -42 48 -15 59 -25 66 -59 3 -15 21 -53 40 -84 l34 -56 -33 0 c-28 0 -69 9 -165 36 -24 7 -24 7 8 -53 68 -128 200 -240 341 -290 89 -32 254 -43 353 -23 80 15 208 76 274 129 287 231 310 683 49 946 -63 63 -166 135 -194 135 -6 0 -3 -23 8 -57 9 -32 20 -81 24 -110 l7 -52 -58 35 c-32 19 -74 40 -94 46 -30 8 -39 17 -47 47 -6 20 -27 62 -46 94 l-35 58 47 -6 c45 -6 131 -28 168 -42 36 -14 -50 121 -126 197 -77 77 -150 123 -257 162 -89 32 -262 34 -368 4z m285 -164 c74 -19 159 -65 204 -111 l37 -38 -63 -7 c-172 -19 -286 -73 -403 -190 -118 -119 -184 -268 -185 -416 l0 -54 -38 37 c-92 90 -137 213 -130 357 3 73 9 97 40 161 44 91 90 145 168 197 111 75 242 97 370 64z m336 -345 c18 -18 24 -98 13 -174 -13 -94 -57 -182 -126 -254 -103 -108 -205 -150 -354 -146 -49 2 -92 7 -96 11 -16 16 -15 162 1 226 55 216 269 372 486 354 36 -3 70 -10 76 -17z m310 -243 c47 -95 62 -182 46 -277 -27 -157 -124 -286 -269 -354 -68 -33 -89 -38 -170 -41 -123 -6 -204 18 -304 90 -94 68 -97 78 -22 78 77 0 192 33 273 77 37 21 97 69 140 112 113 113 167 231 186 399 l7 63 39 -38 c22 -21 55 -70 74 -109z"/>
 </g>
<g id="layer103" fill="#facc5c" stroke="none">
 <path d="M655 1786 c-93 -26 -127 -42 -212 -103 -113 -79 -207 -221 -239 -361 -20 -85 -20 -239 1 -317 33 -126 120 -260 219 -337 57 -44 137 -90 144 -83 2 2 -3 26 -12 52 -9 26 -19 75 -23 108 -5 53 -11 66 -48 105 -92 100 -130 207 -123 350 3 73 9 97 40 161 42 88 88 142 160 192 179 124 421 108 577 -38 41 -38 54 -44 117 -54 39 -6 90 -17 113 -26 24 -8 46 -15 48 -15 2 0 -11 28 -29 62 -67 127 -210 244 -365 300 -89 32 -262 34 -368 4z"/>
 <path d="M1285 1268 c23 -69 6 -208 -35 -296 -33 -71 -123 -171 -187 -209 -76 -44 -157 -63 -259 -59 l-93 3 19 -50 c11 -27 31 -67 45 -88 25 -38 26 -39 88 -39 81 0 195 32 277 77 37 21 97 69 140 112 113 114 169 234 186 402 6 65 6 66 -24 87 -35 26 -132 72 -149 72 -7 0 -11 -6 -8 -12z"/>
 </g>

</svg>