<svg fill="none" height="20" viewBox="0 0 20 20" width="20" xmlns="http://www.w3.org/2000/svg"><g clip-rule="evenodd" fill-rule="evenodd"><path d="m.833374 10c0-5.0626 4.104056-9.166656 9.166626-9.166656 5.0626 0 9.1667 4.104056 9.1667 9.166656s-4.1041 9.1667-9.1667 9.1667c-5.06257 0-9.166626-4.1041-9.166626-9.1667z" fill="#28a745"/><path d="m14.4256 6.70245c.3255.32544.3255.85308 0 1.17852l-5.17257 5.41663c-.32543.3255-.85307.3255-1.17851 0l-2.5-2.5c-.32543-.3254-.32543-.85304 0-1.17848.32544-.32544.85308-.32544 1.17851 0l1.91075 1.91078 4.58332-4.82745c.3254-.32543.8531-.32543 1.1785 0z" fill="#fff"/></g></svg>