<?xml version="1.0" encoding="UTF-8"?>
<svg id="Layer_2" data-name="Layer 2" xmlns="http://www.w3.org/2000/svg" viewBox="0 0 773.18 773.18">
  <g id="Layer_1-2" data-name="Layer 1">
    <g>
      <rect style="fill: #ff1156;" width="100%" height="100%"/>
      <g>
        <path style="fill: #fff;" d="M272.92,237.02l80.93-49.94c7.12-4.03,7.12-12.35,1.99-17.45l-67.6-65.34c-1.33-1.32-3.48-1.32-4.8.01l-6.39,6.42c-8.17,8.22-8.14,21.5.08,29.68l26.39,24.35c4.48,4.46,3.63,11.94-1.75,15.27l-31.54,19.31c-9.85,6.11-12.88,19.04-6.78,28.89l4.77,7.69c.99,1.6,3.09,2.09,4.68,1.1Z"/>
        <path style="fill: #fff;" d="M351.02,504.96c6.65-28.75-1.23-58.93-21.08-80.76l-51.1-57.94c-28.44-32.26-21.41-82.28,14.82-105.45l83.61-53.45c5.4-3.45,12.44-2.82,17.15,1.52,30.58,28.21,137.01,129.87,132.28,234.86,0,0,.13,163.03-160.43,224.05-23.59,8.96-47.48-12.6-41.3-37.07,22.18-87.88,26.05-125.77,26.05-125.77ZM371.94,253.92c-12.79,8.1-37.56,23.8-58.7,37.2-14.15,8.97-17,28.4-6.05,41.07l53.42,61.77c30.61,33.67,42.76,80.21,32.51,124.54l-8.96,39.29c-3.89,17.06,16.24,29,29.49,17.56,56.29-48.59,135.21-165.39-29.39-320.28-3.35-3.16-8.45-3.62-12.34-1.15Z"/>
      </g>
    </g>
  </g>
</svg>