<svg width="288" height="288" xmlns="http://www.w3.org/2000/svg">

 <g>
  <title>background</title>
  <rect fill="none" id="canvas_background" height="402" width="582" y="-1" x="-1"/>
 </g>
 <g>
  <title>Layer 1</title>
  <path fill="#ffffff" id="svg_1" d="m122,25l15,-21c4,-5 10,-5 14,0l16,22c4,5 2,10 -5,10l-12,0l0,118c0,3 3,3 5,1l25,-25c4,-4 6,-10 6,-16l0,-24c-7,0 -12,-5 -12,-12l0,-12c0,-6 5,-12 12,-12l12,0c7,0 12,5 12,12l0,12c0,7 -5,12 -12,12l0,24c0,10 -3,18 -10,25l-31,31c-4,4 -7,6 -7,16l0,49c12,3 21,13 21,26c0,15 -12,27 -27,27s-27,-12 -27,-27c0,-13 9,-23 21,-26l0,-13c0,-10 -3,-13 -7,-17l-31,-31c-6,-6 -10,-14 -10,-24l0,-25c-7,-2 -12,-9 -12,-17c0,-10 8,-18 18,-18s18,8 18,18c0,8 -5,15 -12,17l0,25c0,7 3,12 7,16l25,25c2,2 4,2 4,-1l0,-154l-12,0c-7,0 -9,-5 -4,-11z"/>
 </g>
</svg>