<svg height="288" width="288" xmlns="http://www.w3.org/2000/svg">
    <path d="M-1-1h582v402H-1z" fill="none"/>
    <path d="M122 25l15-21c4-5 10-5 14 0l16 22c4 5 2 10-5 10h-12v118c0 3 3 3 5 1l25-25c4-4 6-10 6-16V90c-7 0-12-5-12-12V66c0-6 5-12 12-12h12c7 0 12 5 12 12v12c0 7-5 12-12 12v24c0 10-3 18-10 25l-31 31c-4 4-7 6-7 16v49c12 3 21 13 21 26 0 15-12 27-27 27s-27-12-27-27c0-13 9-23 21-26v-13c0-10-3-13-7-17l-31-31c-6-6-10-14-10-24v-25c-7-2-12-9-12-17 0-10 8-18 18-18s18 8 18 18c0 8-5 15-12 17v25c0 7 3 12 7 16l25 25c2 2 4 2 4-1V36h-12c-7 0-9-5-4-11z" fill="#fff"/>
</svg>
