<?xml version="1.0" encoding="utf-8"?>
<!-- Generator: Adobe Illustrator 26.0.1, SVG Export Plug-In . SVG Version: 6.00 Build 0)  -->
<svg version="1.1" id="Layer_1" xmlns="http://www.w3.org/2000/svg" xmlns:xlink="http://www.w3.org/1999/xlink" x="0px" y="0px"
	 viewBox="0 0 273.1 99.2" style="enable-background:new 0 0 273.1 99.2;" xml:space="preserve">
<style type="text/css">
	.st0{fill:none;stroke:#3897D3;}
	.st1{fill:#565353;}
	.st2{fill:#5A5858;}
	.st3{fill:#3F3B39;}
	.st4{fill:#A8AAAA;}
	.st5{fill:#878889;}
	.st6{fill:#666565;}
	.st7{fill:#FFFFFF;}
	.st8{fill:#FFFFFF;stroke:#3897D3;}
	.st9{fill:#3897D3;}
	.st10{fill-rule:evenodd;clip-rule:evenodd;fill:#FFFFFF;}
	.st11{fill-rule:evenodd;clip-rule:evenodd;fill:#DAEFFD;}
	.st12{fill-rule:evenodd;clip-rule:evenodd;fill:#3897D3;}
	.st13{fill:none;stroke:#3897D3;stroke-width:3;}
</style>
<image style="overflow:visible;" width="382" height="487" xlink:href="7DF341E0.jpg"  transform="matrix(0.9999 0 0 0.9999 -1492.2589 -591.4642)">
</image>
<image style="overflow:visible;" width="362" height="590" xlink:href="7DF341E1.jpg"  transform="matrix(1 0 0 1 -1086.87 -645.7469)">
</image>
<image style="overflow:visible;" width="362" height="633" xlink:href="7DF341E7.jpg"  transform="matrix(1 0 0 1 -701.4333 -649.5841)">
</image>
<g>
	<path class="st0" d="M71.1,209.7l6.1,5.3l-6.1,5.3 M63.7,214.9h13.5"/>
</g>
<g>
	<g>
		<g>
			<path class="st1" d="M645.7-253.1h-90h-90v75.5c1.7,50.1,41.4,90.3,90,90.3c48.7,0,88.4-40.2,90-90.3V-253.1z"/>
			<path class="st2" d="M645.7-382.1H465.6v-4.6c0-6.6,4.3-8.2,8.2-8.2h163.7c3.9,0,8.2,2,8.2,8.2V-382.1z"/>
			<rect x="477.9" y="-382.1" class="st3" width="155.4" height="129"/>
			<rect x="633.4" y="-382.1" class="st4" width="12.3" height="129"/>
			
				<rect x="465.6" y="-382.1" transform="matrix(-1 -1.224647e-16 1.224647e-16 -1 943.5563 -635.1805)" class="st4" width="12.3" height="129"/>
			<path class="st5" d="M645.6-175.9v-77.2h-12.3v119.6l0.8-1.2C647.3-155.6,645.6-175.9,645.6-175.9z"/>
			<path class="st5" d="M477.9-253.1h-12.3v77.2c0,0-1.7,20.4,11.5,41.2l0.8,1.2V-253.1z"/>
			<rect x="645.7" y="-342" class="st3" width="3.4" height="54.2"/>
			<path class="st6" d="M555.7-244.8c-38.9,0-70.5,31.6-70.5,70.5s31.6,70.5,70.5,70.5c38.9,0,70.5-31.6,70.5-70.5
				S594.6-244.8,555.7-244.8z M555.7-131.9c-23.4,0-42.4-19-42.4-42.4s19-42.4,42.4-42.4c23.4,0,42.4,19,42.4,42.4
				S579.1-131.9,555.7-131.9z"/>
			<path class="st3" d="M555.7-242.7c-37.7,0-68.3,30.6-68.3,68.3c0,37.7,30.6,68.3,68.3,68.3c37.7,0,68.3-30.6,68.3-68.3
				C624-212.1,593.4-242.7,555.7-242.7z M555.7-129.6c-24.7,0-44.7-20-44.7-44.7s20-44.7,44.7-44.7c24.7,0,44.7,20,44.7,44.7
				S580.3-129.6,555.7-129.6z"/>
			<g>
				<path class="st7" d="M561.1-226.6c-0.2,0-0.3-0.1-0.4-0.2l-5.4-5.4l-5.4,5.4c-0.2,0.2-0.6,0.2-0.8,0c-0.2-0.2-0.2-0.6,0-0.8
					l5.8-5.8c0.2-0.2,0.6-0.2,0.8,0l5.8,5.8c0.2,0.2,0.2,0.6,0,0.8C561.4-226.7,561.2-226.6,561.1-226.6z"/>
				<path class="st7" d="M555.2-113.9c-0.2,0-0.3-0.1-0.4-0.2l-5.8-5.8c-0.2-0.2-0.2-0.6,0-0.8c0.2-0.2,0.6-0.2,0.8,0l5.4,5.4
					l5.4-5.4c0.2-0.2,0.6-0.2,0.8,0c0.2,0.2,0.2,0.6,0,0.8l-5.8,5.8C555.6-113.9,555.4-113.9,555.2-113.9z"/>
				<path class="st7" d="M502.6-171.4h-9.9l3.6-3.6l0.8,0.8l-1.6,1.6h7.1c1.4,0,1.9-0.5,1.9-1.7c0-1.3-0.5-1.7-1.9-1.7h-1.8v-1.2
					h1.8c2,0,3.1,1,3.1,2.9C505.7-173,505.1-171.4,502.6-171.4z"/>
				<g>
					<path class="st7" d="M612.2-174.2c0,2.4-1.4,3.6-3.2,3.6c-1.8,0-3.1-1.4-3.1-3.5c0-2.2,1.4-3.6,3.2-3.6
						C611-177.7,612.2-176.3,612.2-174.2z M606.9-174.1c0,1.5,0.8,2.8,2.2,2.8c1.4,0,2.2-1.3,2.2-2.9c0-1.4-0.7-2.8-2.2-2.8
						C607.6-177,606.9-175.6,606.9-174.1z"/>
					<path class="st7" d="M612.8-177.6h0.9v3.3h0c0.2-0.3,0.4-0.5,0.5-0.7l2.1-2.6h1.1l-2.5,2.9l2.7,4h-1.1l-2.3-3.4l-0.7,0.8v2.6
						h-0.9V-177.6z"/>
				</g>
			</g>
			<path class="st6" d="M559-154.3h-6.7c-9.2,0-16.7-7.5-16.7-16.7v-6.7c0-9.2,7.5-16.7,16.7-16.7h6.7c9.2,0,16.7,7.5,16.7,16.7v6.7
				C575.7-161.8,568.2-154.3,559-154.3z"/>
			<path class="st3" d="M559.6-155.1h-6.1c-8.4,0-15.3-6.8-15.3-15.3v-6.1c0-8.4,6.8-15.3,15.3-15.3h6.1c8.4,0,15.3,6.8,15.3,15.3
				v6.1C574.9-161.9,568.1-155.1,559.6-155.1z"/>
		</g>
		<g>
			<g>
				<path class="st7" d="M529.2-293.5c0-2-0.7-3.7-2.2-5c-1.5-1.3-3.4-1.9-5.7-1.9h-7.7v3.4h7.7c1.2,0,2.1,0.3,2.9,1
					c0.8,0.7,1.2,1.5,1.2,2.6s-0.4,1.9-1.2,2.6c-0.8,0.6-1.7,1-2.9,1h-3.8v-5.2h-3.9v8.6h7.7c2.3,0,4.2-0.7,5.7-2
					C528.4-289.8,529.2-291.5,529.2-293.5z"/>
				<path class="st7" d="M533.9-293.5c0,2,0.8,3.7,2.3,5.1c1.5,1.4,3.4,2,5.7,2h6.8v-3.4h-6.8c-1.2,0-2.1-0.3-2.9-1
					c-0.8-0.7-1.2-1.5-1.2-2.5c0-1,0.4-1.9,1.2-2.6c0.8-0.7,1.7-1,2.9-1h6.8v-3.4h-6.8c-2.3,0-4.3,0.6-5.7,1.9
					C534.7-297.2,533.9-295.6,533.9-293.5z"/>
				<path class="st7" d="M583.5-300.4h-3.9v8.2l-8.5-7.6c-0.6-0.5-1-0.6-1.6-0.6c-0.5,0-1,0.2-1.3,0.5c-0.3,0.3-0.4,0.7-0.4,1.2
					v12.3h3.9v-8.2l8.5,7.6c0.7,0.6,1.2,0.7,1.7,0.7c1,0,1.5-0.6,1.5-1.8V-300.4z"/>
				<polygon class="st7" points="600.4,-300.4 584.9,-300.4 584.9,-297 590.7,-297 590.7,-286.4 594.6,-286.4 594.6,-297 
					600.4,-297 				"/>
			</g>
			<polygon class="st7" points="561.4,-297 564.6,-300.4 550.6,-300.4 550.6,-286.4 563.9,-286.4 563.9,-289.8 554.5,-289.8 
				554.5,-291.8 563.9,-291.8 563.9,-295.1 554.5,-295.1 554.5,-297 			"/>
			<polygon class="st7" points="532.4,-297.3 530.6,-297.3 529.2,-301 533.8,-301 			"/>
			<polygon class="st7" points="553.6,-341.2 556.6,-343 556.6,-347.1 553.6,-348.9 553.6,-348.9 			"/>
			<path class="st7" d="M542.5-323.1v-11.7l10.1-5.8v-8.2l-16.7,9.6c-0.3,0.2-0.5,0.5-0.5,0.9v19.3c0,0,0,0,0,0.1L542.5-323.1z"/>
			<path class="st7" d="M563.2-322.3l-10.1,5.8l-10-5.8l-7.1,4.1l16.6,9.6c0.2,0.1,0.3,0.1,0.5,0.1c0.2,0,0.4,0,0.5-0.1l16.7-9.6
				c0,0,0,0,0,0L563.2-322.3z"/>
			<g>
				<path class="st7" d="M570.3-339.2l-6.6-3.8v4.2l-7.1,4.1l7.1,4.1v7.5l7.1,4.1v-19.3C570.8-338.7,570.6-339.1,570.3-339.2z"/>
			</g>
			<polygon class="st7" points="549.6,-330.8 549.6,-322.6 556.5,-326.6 556.5,-334.7 			"/>
		</g>
	</g>
</g>
<g>
	<path class="st1" d="M887.9-256.8h-90h-90v75.5c1.7,50.1,41.4,90.3,90,90.3c48.7,0,88.4-40.2,90-90.3V-256.8z"/>
	<path class="st2" d="M887.9-385.8H707.8v-4.6c0-6.6,4.3-8.2,8.2-8.2h163.7c3.9,0,8.2,2,8.2,8.2V-385.8z"/>
	<rect x="720.1" y="-385.8" class="st3" width="155.4" height="129"/>
	<rect x="875.5" y="-385.8" class="st4" width="12.3" height="129"/>
	
		<rect x="707.8" y="-385.8" transform="matrix(-1 -1.224647e-16 1.224647e-16 -1 1427.8691 -642.6579)" class="st4" width="12.3" height="129"/>
	<path class="st5" d="M887.8-179.7v-77.2h-12.3v119.6l0.8-1.2C889.5-159.3,887.8-179.7,887.8-179.7z"/>
	<path class="st5" d="M720.1-256.8h-12.3v77.2c0,0-1.7,20.4,11.5,41.2l0.8,1.2V-256.8z"/>
	<rect x="887.9" y="-345.7" class="st3" width="3.4" height="54.2"/>
	<path class="st6" d="M797.8-248.5c-38.9,0-70.5,31.6-70.5,70.5s31.6,70.5,70.5,70.5c38.9,0,70.5-31.6,70.5-70.5
		S836.7-248.5,797.8-248.5z M797.8-135.6c-23.4,0-42.4-19-42.4-42.4s19-42.4,42.4-42.4c23.4,0,42.4,19,42.4,42.4
		S821.2-135.6,797.8-135.6z"/>
	<path class="st3" d="M797.8-246.4c-37.7,0-68.3,30.6-68.3,68.3c0,37.7,30.6,68.3,68.3,68.3c37.7,0,68.3-30.6,68.3-68.3
		C866.2-215.8,835.6-246.4,797.8-246.4z M797.8-133.4c-24.7,0-44.7-20-44.7-44.7s20-44.7,44.7-44.7c24.7,0,44.7,20,44.7,44.7
		S822.5-133.4,797.8-133.4z"/>
	<g>
		<path class="st7" d="M803.2-230.4c-0.2,0-0.3-0.1-0.4-0.2l-5.4-5.4l-5.4,5.4c-0.2,0.2-0.6,0.2-0.8,0c-0.2-0.2-0.2-0.6,0-0.8
			l5.8-5.8c0.2-0.2,0.6-0.2,0.8,0l5.8,5.8c0.2,0.2,0.2,0.6,0,0.8C803.5-230.4,803.4-230.4,803.2-230.4z"/>
		<path class="st7" d="M797.4-117.6c-0.2,0-0.3-0.1-0.4-0.2l-5.8-5.8c-0.2-0.2-0.2-0.6,0-0.8s0.6-0.2,0.8,0l5.4,5.4l5.4-5.4
			c0.2-0.2,0.6-0.2,0.8,0c0.2,0.2,0.2,0.6,0,0.8l-5.8,5.8C797.7-117.7,797.6-117.6,797.4-117.6z"/>
		<path class="st7" d="M744.8-175.1h-9.9l3.6-3.6l0.8,0.8l-1.6,1.6h7.1c1.4,0,1.9-0.5,1.9-1.7c0-1.3-0.5-1.7-1.9-1.7H743v-1.2h1.8
			c2,0,3.1,1,3.1,2.9C747.8-176.7,747.3-175.1,744.8-175.1z"/>
		<g>
			<path class="st7" d="M854.3-178c0,2.4-1.4,3.6-3.2,3.6c-1.8,0-3.1-1.4-3.1-3.5c0-2.2,1.4-3.6,3.2-3.6
				C853.1-181.4,854.3-180,854.3-178z M849-177.8c0,1.5,0.8,2.8,2.2,2.8c1.4,0,2.2-1.3,2.2-2.9c0-1.4-0.7-2.8-2.2-2.8
				C849.7-180.7,849-179.3,849-177.8z"/>
			<path class="st7" d="M855-181.3h0.9v3.3h0c0.2-0.3,0.4-0.5,0.5-0.7l2.1-2.6h1.1l-2.5,2.9l2.7,4h-1.1l-2.3-3.4l-0.7,0.8v2.6H855
				V-181.3z"/>
		</g>
	</g>
	<path class="st6" d="M801.2-158.1h-6.7c-9.2,0-16.7-7.5-16.7-16.7v-6.7c0-9.2,7.5-16.7,16.7-16.7h6.7c9.2,0,16.7,7.5,16.7,16.7v6.7
		C817.8-165.5,810.4-158.1,801.2-158.1z"/>
	<path class="st3" d="M801.8-158.8h-6.1c-8.4,0-15.3-6.8-15.3-15.3v-6.1c0-8.4,6.8-15.3,15.3-15.3h6.1c8.4,0,15.3,6.8,15.3,15.3v6.1
		C817.1-165.7,810.2-158.8,801.8-158.8z"/>
</g>
<g>
	<g>
		<path class="st7" d="M771.3-297.3c0-2-0.7-3.7-2.2-5c-1.5-1.3-3.4-1.9-5.7-1.9h-7.7v3.4h7.7c1.2,0,2.1,0.3,2.9,1
			c0.8,0.7,1.2,1.5,1.2,2.6s-0.4,1.9-1.2,2.6c-0.8,0.6-1.7,1-2.9,1h-3.8v-5.2h-3.9v8.6h7.7c2.3,0,4.2-0.7,5.7-2
			C770.6-293.5,771.3-295.2,771.3-297.3z"/>
		<path class="st7" d="M776.1-297.3c0,2,0.8,3.7,2.3,5.1c1.5,1.4,3.4,2,5.7,2h6.8v-3.4H784c-1.2,0-2.1-0.3-2.9-1
			c-0.8-0.7-1.2-1.5-1.2-2.5c0-1,0.4-1.9,1.2-2.6c0.8-0.7,1.7-1,2.9-1h6.8v-3.4H784c-2.3,0-4.3,0.6-5.7,1.9
			C776.8-301,776.1-299.3,776.1-297.3z"/>
		<path class="st7" d="M825.6-304.1h-3.9v8.2l-8.5-7.6c-0.6-0.5-1-0.6-1.6-0.6c-0.5,0-1,0.2-1.3,0.5c-0.3,0.3-0.4,0.7-0.4,1.2v12.3
			h3.9v-8.2l8.5,7.6c0.7,0.6,1.2,0.7,1.7,0.7c1,0,1.5-0.6,1.5-1.8V-304.1z"/>
		<polygon class="st7" points="842.5,-304.1 827.1,-304.1 827.1,-300.7 832.9,-300.7 832.9,-290.1 836.8,-290.1 836.8,-300.7 
			842.5,-300.7 		"/>
	</g>
	<polygon class="st7" points="803.5,-300.7 806.7,-304.1 792.7,-304.1 792.7,-290.1 806.1,-290.1 806.1,-293.6 796.6,-293.6 
		796.6,-295.5 806.1,-295.5 806.1,-298.8 796.6,-298.8 796.6,-300.7 	"/>
	<polygon class="st7" points="774.5,-301.1 772.7,-301.1 771.4,-304.7 775.9,-304.7 	"/>
	<polygon class="st7" points="795.8,-345 798.8,-346.7 798.8,-350.9 795.8,-352.6 795.8,-352.6 	"/>
	<path class="st7" d="M784.7-326.9v-11.7l10.1-5.8v-8.2L778-343c-0.3,0.2-0.5,0.5-0.5,0.9v19.3c0,0,0,0,0,0.1L784.7-326.9z"/>
	<path class="st7" d="M805.3-326l-10.1,5.8l-10-5.8l-7.1,4.1l16.6,9.6c0.2,0.1,0.3,0.1,0.5,0.1c0.2,0,0.4,0,0.5-0.1l16.7-9.6
		c0,0,0,0,0,0L805.3-326z"/>
	<g>
		<path class="st7" d="M812.5-343l-6.6-3.8v4.2l-7.1,4.1l7.1,4.1v7.5l7.1,4.1v-19.3C813-342.5,812.8-342.8,812.5-343z"/>
	</g>
	<polygon class="st7" points="791.7,-334.5 791.7,-326.3 798.6,-330.3 798.6,-338.5 	"/>
</g>
<g>
	<g>
		<path class="st8" d="M48.4,204.9h-5.1c-0.3,0-0.6-0.2-0.6-0.6v-21.1c0-0.3,0.2-0.6,0.6-0.6h5.1c0.3,0,0.6,0.2,0.6,0.6v21.1
			C49,204.7,48.7,204.9,48.4,204.9z"/>
		<path class="st8" d="M18.7,264.3L18.7,264.3c-15,0-27.1-12.1-27.1-27.1v-64.4c0-1.4,1.1-2.4,2.4-2.4h49.3c1.4,0,2.4,1.1,2.4,2.4
			v64.4C45.8,252.2,33.7,264.3,18.7,264.3z"/>
		<path class="st8" d="M40.9,213H-3.4c-0.7,0-1.2-0.5-1.2-1.2v-35.4c0-0.7,0.5-1.2,1.2-1.2h44.3c0.7,0,1.2,0.5,1.2,1.2v35.4
			C42.1,212.4,41.6,213,40.9,213z"/>
		<g>
			<circle class="st8" cx="18.7" cy="237.2" r="19.4"/>
			<circle class="st8" cx="18.7" cy="237.2" r="9.7"/>
		</g>
	</g>
	<g>
		<polygon class="st9" points="19,186.9 20.7,185.9 20.7,183.6 19,182.6 19,182.6 		"/>
		<path class="st9" d="M12.7,197.2v-6.6l5.7-3.3v-4.7L9,188c-0.2,0.1-0.3,0.3-0.3,0.5v10.9c0,0,0,0,0,0L12.7,197.2z"/>
		<path class="st9" d="M24.5,197.6l-5.7,3.3l-5.7-3.3L9,200l9.4,5.4c0.1,0.1,0.2,0.1,0.3,0.1c0.1,0,0.2,0,0.3-0.1l9.5-5.5
			c0,0,0,0,0,0L24.5,197.6z"/>
		<g>
			<path class="st9" d="M28.5,188l-3.7-2.2v2.4l-4,2.3l4,2.3v4.2l4,2.3v-10.9C28.8,188.3,28.7,188.2,28.5,188z"/>
		</g>
		<polygon class="st9" points="16.7,192.9 16.7,197.5 20.7,195.2 20.7,190.6 		"/>
	</g>
</g>
<path class="st10" d="M181.3,254.5H97.9c-0.5,0-1-0.1-1.4-0.3c-0.4-0.2-0.8-0.5-1.2-0.8c-0.3-0.3-0.6-0.7-0.8-1.2
	c-0.2-0.4-0.3-0.9-0.3-1.4V183c0-0.5,0.1-1,0.3-1.4c0.2-0.4,0.5-0.9,0.8-1.2c0.3-0.3,0.7-0.6,1.2-0.8c0.4-0.2,0.9-0.3,1.4-0.3h83.4
	c0.5,0,1,0.1,1.4,0.3c0.4,0.2,0.8,0.5,1.2,0.8c0.3,0.3,0.6,0.7,0.8,1.2c0.2,0.4,0.3,0.9,0.3,1.4v67.8c0,0.5-0.1,1-0.3,1.4
	c-0.2,0.4-0.5,0.9-0.8,1.2c-0.3,0.3-0.7,0.6-1.2,0.8C182.2,254.4,181.7,254.5,181.3,254.5z"/>
<path class="st0" d="M181.3,254.5H97.9c-0.5,0-1-0.1-1.4-0.3c-0.4-0.2-0.8-0.5-1.2-0.8c-0.3-0.3-0.6-0.7-0.8-1.2
	c-0.2-0.4-0.3-0.9-0.3-1.4V183c0-0.5,0.1-1,0.3-1.4c0.2-0.4,0.5-0.9,0.8-1.2c0.3-0.3,0.7-0.6,1.2-0.8c0.4-0.2,0.9-0.3,1.4-0.3h83.4
	c0.5,0,1,0.1,1.4,0.3c0.4,0.2,0.8,0.5,1.2,0.8c0.3,0.3,0.6,0.7,0.8,1.2c0.2,0.4,0.3,0.9,0.3,1.4v67.8c0,0.5-0.1,1-0.3,1.4
	c-0.2,0.4-0.5,0.9-0.8,1.2c-0.3,0.3-0.7,0.6-1.2,0.8C182.2,254.4,181.7,254.5,181.3,254.5L181.3,254.5z"/>
<path class="st11" d="M189.4,255H89.9c-0.2,0-0.3,0-0.5-0.1c-0.1-0.1-0.3-0.2-0.4-0.3c-0.1-0.1-0.2-0.2-0.3-0.4
	c-0.1-0.1-0.1-0.3-0.1-0.5v-4.5c0-0.7,0.5-1.2,1.2-1.2h99.5c0.7,0,1.2,0.5,1.2,1.2v4.5C190.7,254.4,190.1,255,189.4,255z"/>
<path class="st0" d="M189.4,255H89.9c-0.2,0-0.3,0-0.5-0.1c-0.1-0.1-0.3-0.2-0.4-0.3c-0.1-0.1-0.2-0.2-0.3-0.4
	c-0.1-0.1-0.1-0.3-0.1-0.5v-4.5c0-0.7,0.5-1.2,1.2-1.2h99.5c0.7,0,1.2,0.5,1.2,1.2v4.5C190.7,254.4,190.1,255,189.4,255z"/>
<path class="st10" d="M98.5,243h82.4v-58.8H98.5V243z"/>
<path class="st0" d="M98.5,243h82.4v-58.8H98.5V243z"/>
<path class="st10" d="M142.2,230.8h-5.1c-0.1,0-0.2,0-0.2-0.1l-3-2.1l-1.3-1.1l-7.3,2c-0.1,0-0.2,0-0.3,0c-0.1-0.1-0.2-0.1-0.2-0.3
	l-2.1-7.3c0-0.1,0-0.2,0-0.3l2.2-7.1l-1.3-1.6c0,0-0.1-0.1-0.1-0.2c0-0.1,0-0.1,0-0.2s0-0.1,0.1-0.2c0-0.1,0.1-0.1,0.1-0.1l0.2-0.2
	l-0.7-0.6c0,0-0.1-0.1-0.1-0.2c0-0.1,0-0.1,0-0.2c0-0.1,0-0.1,0-0.2c0-0.1,0.1-0.1,0.1-0.1l0.4-0.3l-0.6-0.5c-0.1,0-0.1-0.1-0.1-0.2
	c0-0.1,0-0.1,0-0.2c0-0.1,0-0.1,0-0.2c0-0.1,0.1-0.1,0.1-0.2l0.5-0.3l-1.1-5.2c0-0.1,0-0.2,0-0.2l1.6-5c0-0.1,0-0.1,0.1-0.1
	c0,0,0.1-0.1,0.1-0.1c0.1,0,0.1,0,0.2,0c0.1,0,0.1,0,0.2,0l10.7,4h8.8l10.7-4c0.1,0,0.1,0,0.2,0c0.1,0,0.1,0,0.2,0
	c0.1,0,0.1,0.1,0.1,0.1c0,0,0.1,0.1,0.1,0.2l1.6,5c0,0.1,0,0.2,0,0.2l-1.1,5.2l0.4,0.3c0.1,0,0.1,0.1,0.1,0.2c0,0.1,0,0.1,0,0.2
	s0,0.1,0,0.2c0,0.1-0.1,0.1-0.1,0.2l-0.6,0.5l0.4,0.3c0.1,0.1,0.2,0.2,0.2,0.3c0,0.1,0,0.1,0,0.2s-0.1,0.1-0.1,0.2l-0.7,0.6l0.2,0.2
	c0,0,0.1,0.1,0.1,0.1c0,0.1,0.1,0.1,0.1,0.2c0,0.1,0,0.1,0,0.2c0,0.1,0,0.1-0.1,0.2l-1.3,1.6l2.3,7.1c0,0.1,0,0.2,0,0.3l-2.1,7.3
	c0,0.1-0.1,0.2-0.2,0.3c-0.1,0.1-0.2,0.1-0.3,0l-7.3-2l-1.4,1.1l-3,2.1C142.3,230.8,142.2,230.8,142.2,230.8z"/>
<path class="st0" d="M142.2,230.8h-5.1c-0.1,0-0.2,0-0.2-0.1l-3-2.1l-1.3-1.1l-7.3,2c-0.1,0-0.2,0-0.3,0c-0.1-0.1-0.2-0.1-0.2-0.3
	l-2.1-7.3c0-0.1,0-0.2,0-0.3l2.2-7.1l-1.3-1.6c0,0-0.1-0.1-0.1-0.2c0-0.1,0-0.1,0-0.2s0-0.1,0.1-0.2c0-0.1,0.1-0.1,0.1-0.1l0.2-0.2
	l-0.7-0.6c0,0-0.1-0.1-0.1-0.2c0-0.1,0-0.1,0-0.2c0-0.1,0-0.1,0-0.2c0-0.1,0.1-0.1,0.1-0.1l0.4-0.3l-0.6-0.5c-0.1,0-0.1-0.1-0.1-0.2
	c0-0.1,0-0.1,0-0.2c0-0.1,0-0.1,0-0.2c0-0.1,0.1-0.1,0.1-0.2l0.5-0.3l-1.1-5.2c0-0.1,0-0.2,0-0.2l1.6-5c0-0.1,0-0.1,0.1-0.1
	c0,0,0.1-0.1,0.1-0.1c0.1,0,0.1,0,0.2,0c0.1,0,0.1,0,0.2,0l10.7,4h8.8l10.7-4c0.1,0,0.1,0,0.2,0c0.1,0,0.1,0,0.2,0
	c0.1,0,0.1,0.1,0.1,0.1c0,0,0.1,0.1,0.1,0.2l1.6,5c0,0.1,0,0.2,0,0.2l-1.1,5.2l0.4,0.3c0.1,0,0.1,0.1,0.1,0.2c0,0.1,0,0.1,0,0.2
	s0,0.1,0,0.2c0,0.1-0.1,0.1-0.1,0.2l-0.6,0.5l0.4,0.3c0.1,0.1,0.2,0.2,0.2,0.3c0,0.1,0,0.1,0,0.2s-0.1,0.1-0.1,0.2l-0.7,0.6l0.2,0.2
	c0,0,0.1,0.1,0.1,0.1c0,0.1,0.1,0.1,0.1,0.2c0,0.1,0,0.1,0,0.2c0,0.1,0,0.1-0.1,0.2l-1.3,1.6l2.3,7.1c0,0.1,0,0.2,0,0.3l-2.1,7.3
	c0,0.1-0.1,0.2-0.2,0.3c-0.1,0.1-0.2,0.1-0.3,0l-7.3-2l-1.4,1.1l-3,2.1C142.3,230.8,142.2,230.8,142.2,230.8L142.2,230.8z"/>
<path class="st12" d="M140.8,225.9h-2.6l-0.4,0.4l-0.2,2.1h3.8l-0.2-2.1L140.8,225.9z M143.6,217.5l-1.1,2.3
	c-0.1,0.2,0.1,0.4,0.3,0.3l3.6-1.1c0.2-0.1,0.2-0.4,0-0.5l-2.6-1.2c0,0-0.1,0-0.1,0s-0.1,0-0.1,0
	C143.7,217.4,143.6,217.4,143.6,217.5C143.6,217.4,143.6,217.5,143.6,217.5L143.6,217.5z M135.4,217.4l-2.6,1.2
	c-0.2,0.1-0.2,0.4,0,0.5l3.6,1.1c0.2,0.1,0.4-0.1,0.3-0.3l-1.1-2.3c0,0,0-0.1-0.1-0.1c0,0,0,0-0.1,0
	C135.5,217.4,135.5,217.4,135.4,217.4C135.5,217.4,135.4,217.4,135.4,217.4"/>
<g>
	<g>
		<path class="st0" d="M78.4,41.6l6.1,5.3l-6.1,5.3 M71.1,46.8h13.5"/>
	</g>
	<g>
		<path class="st0" d="M153.1,41.6l6.1,5.3l-6.1,5.3 M145.7,46.8h13.5"/>
	</g>
	<g>
		<g>
			<path class="st8" d="M59.9,37.2h-5.1c-0.3,0-0.6-0.2-0.6-0.6V15.5c0-0.3,0.2-0.6,0.6-0.6h5.1c0.3,0,0.6,0.2,0.6,0.6v21.1
				C60.4,36.9,60.2,37.2,59.9,37.2z"/>
			<path class="st8" d="M30.2,96.6L30.2,96.6c-15,0-27.1-12.1-27.1-27.1V5.1c0-1.4,1.1-2.4,2.4-2.4h49.3c1.4,0,2.4,1.1,2.4,2.4v64.4
				C57.3,84.5,45.2,96.6,30.2,96.6z"/>
			<path class="st8" d="M52.3,45.2H8.1c-0.7,0-1.2-0.5-1.2-1.2V8.6c0-0.7,0.5-1.2,1.2-1.2h44.3c0.7,0,1.2,0.5,1.2,1.2V44
				C53.6,44.7,53,45.2,52.3,45.2z"/>
			<g>
				<circle class="st8" cx="30.2" cy="69.5" r="19.4"/>
				<circle class="st8" cx="30.2" cy="69.5" r="9.7"/>
			</g>
		</g>
		<g>
			<polygon class="st9" points="30.5,19.2 32.2,18.2 32.2,15.8 30.5,14.8 30.5,14.8 			"/>
			<path class="st9" d="M24.2,29.4v-6.6l5.7-3.3v-4.7l-9.5,5.5c-0.2,0.1-0.3,0.3-0.3,0.5v10.9c0,0,0,0,0,0L24.2,29.4z"/>
			<path class="st9" d="M35.9,29.9l-5.7,3.3l-5.7-3.3l-4,2.3l9.4,5.4c0.1,0.1,0.2,0.1,0.3,0.1c0.1,0,0.2,0,0.3-0.1l9.5-5.5
				c0,0,0,0,0,0L35.9,29.9z"/>
			<g>
				<path class="st9" d="M40,20.3l-3.7-2.2v2.4l-4,2.3l4,2.3v4.2l4,2.3V20.8C40.2,20.6,40.1,20.4,40,20.3z"/>
			</g>
			<polygon class="st9" points="28.2,25.1 28.2,29.7 32.1,27.5 32.1,22.8 			"/>
		</g>
	</g>
	<path class="st10" d="M260.6,86.8h-83.4c-0.5,0-1-0.1-1.4-0.3c-0.4-0.2-0.8-0.5-1.2-0.8c-0.3-0.3-0.6-0.7-0.8-1.2
		c-0.2-0.4-0.3-0.9-0.3-1.4V15.3c0-0.5,0.1-1,0.3-1.4c0.2-0.4,0.5-0.9,0.8-1.2c0.3-0.3,0.7-0.6,1.2-0.8c0.4-0.2,0.9-0.3,1.4-0.3
		h83.4c0.5,0,1,0.1,1.4,0.3c0.4,0.2,0.8,0.5,1.2,0.8c0.3,0.3,0.6,0.7,0.8,1.2c0.2,0.4,0.3,0.9,0.3,1.4v67.8c0,0.5-0.1,1-0.3,1.4
		c-0.2,0.4-0.5,0.9-0.8,1.2c-0.3,0.3-0.7,0.6-1.2,0.8C261.6,86.7,261.1,86.8,260.6,86.8z"/>
	<path class="st0" d="M260.6,86.8h-83.4c-0.5,0-1-0.1-1.4-0.3c-0.4-0.2-0.8-0.5-1.2-0.8c-0.3-0.3-0.6-0.7-0.8-1.2
		c-0.2-0.4-0.3-0.9-0.3-1.4V15.3c0-0.5,0.1-1,0.3-1.4c0.2-0.4,0.5-0.9,0.8-1.2c0.3-0.3,0.7-0.6,1.2-0.8c0.4-0.2,0.9-0.3,1.4-0.3
		h83.4c0.5,0,1,0.1,1.4,0.3c0.4,0.2,0.8,0.5,1.2,0.8c0.3,0.3,0.6,0.7,0.8,1.2c0.2,0.4,0.3,0.9,0.3,1.4v67.8c0,0.5-0.1,1-0.3,1.4
		c-0.2,0.4-0.5,0.9-0.8,1.2c-0.3,0.3-0.7,0.6-1.2,0.8C261.6,86.7,261.1,86.8,260.6,86.8L260.6,86.8z"/>
	<path class="st11" d="M268.8,87.2h-99.5c-0.2,0-0.3,0-0.5-0.1c-0.1-0.1-0.3-0.2-0.4-0.3c-0.1-0.1-0.2-0.2-0.3-0.4
		c-0.1-0.1-0.1-0.3-0.1-0.5v-4.5c0-0.7,0.5-1.2,1.2-1.2h99.5c0.7,0,1.2,0.5,1.2,1.2V86C270,86.7,269.4,87.2,268.8,87.2z"/>
	<path class="st0" d="M268.8,87.2h-99.5c-0.2,0-0.3,0-0.5-0.1c-0.1-0.1-0.3-0.2-0.4-0.3c-0.1-0.1-0.2-0.2-0.3-0.4
		c-0.1-0.1-0.1-0.3-0.1-0.5v-4.5c0-0.7,0.5-1.2,1.2-1.2h99.5c0.7,0,1.2,0.5,1.2,1.2V86C270,86.7,269.4,87.2,268.8,87.2z"/>
	<path class="st10" d="M177.8,75.3h82.4V16.5h-82.4V75.3z"/>
	<path class="st0" d="M177.8,75.3h82.4V16.5h-82.4V75.3z"/>
	<path class="st10" d="M221.5,63.1h-5.1c-0.1,0-0.2,0-0.2-0.1l-3-2.1l-1.3-1.1l-7.3,2c-0.1,0-0.2,0-0.3,0c-0.1-0.1-0.2-0.1-0.2-0.3
		l-2.1-7.3c0-0.1,0-0.2,0-0.3l2.2-7.1l-1.3-1.6c0,0-0.1-0.1-0.1-0.2c0-0.1,0-0.1,0-0.2c0-0.1,0-0.1,0.1-0.2c0-0.1,0.1-0.1,0.1-0.1
		l0.2-0.2l-0.7-0.6c0,0-0.1-0.1-0.1-0.2c0-0.1,0-0.1,0-0.2c0-0.1,0-0.1,0-0.2c0-0.1,0.1-0.1,0.1-0.1l0.4-0.3l-0.6-0.5
		c-0.1,0-0.1-0.1-0.1-0.2c0-0.1,0-0.1,0-0.2c0-0.1,0-0.1,0-0.2c0-0.1,0.1-0.1,0.1-0.2l0.5-0.3l-1.1-5.2c0-0.1,0-0.2,0-0.2l1.6-5
		c0-0.1,0-0.1,0.1-0.1c0,0,0.1-0.1,0.1-0.1c0.1,0,0.1,0,0.2,0c0.1,0,0.1,0,0.2,0l10.7,4h8.8l10.7-4c0.1,0,0.1,0,0.2,0
		c0.1,0,0.1,0,0.2,0c0.1,0,0.1,0.1,0.1,0.1c0,0,0.1,0.1,0.1,0.2l1.6,5c0,0.1,0,0.2,0,0.2l-1.1,5.2l0.4,0.3c0.1,0,0.1,0.1,0.1,0.2
		c0,0.1,0,0.1,0,0.2c0,0.1,0,0.1,0,0.2c0,0.1-0.1,0.1-0.1,0.2l-0.6,0.5l0.4,0.3c0.1,0.1,0.2,0.2,0.2,0.3c0,0.1,0,0.1,0,0.2
		c0,0.1-0.1,0.1-0.1,0.2l-0.7,0.6l0.2,0.2c0,0,0.1,0.1,0.1,0.1c0,0.1,0.1,0.1,0.1,0.2c0,0.1,0,0.1,0,0.2c0,0.1,0,0.1-0.1,0.2
		l-1.3,1.6L236,54c0,0.1,0,0.2,0,0.3l-2.1,7.3c0,0.1-0.1,0.2-0.2,0.3c-0.1,0.1-0.2,0.1-0.3,0l-7.3-2l-1.4,1.1l-3,2.1
		C221.7,63.1,221.6,63.1,221.5,63.1z"/>
	<path class="st0" d="M221.5,63.1h-5.1c-0.1,0-0.2,0-0.2-0.1l-3-2.1l-1.3-1.1l-7.3,2c-0.1,0-0.2,0-0.3,0c-0.1-0.1-0.2-0.1-0.2-0.3
		l-2.1-7.3c0-0.1,0-0.2,0-0.3l2.2-7.1l-1.3-1.6c0,0-0.1-0.1-0.1-0.2c0-0.1,0-0.1,0-0.2c0-0.1,0-0.1,0.1-0.2c0-0.1,0.1-0.1,0.1-0.1
		l0.2-0.2l-0.7-0.6c0,0-0.1-0.1-0.1-0.2c0-0.1,0-0.1,0-0.2c0-0.1,0-0.1,0-0.2c0-0.1,0.1-0.1,0.1-0.1l0.4-0.3l-0.6-0.5
		c-0.1,0-0.1-0.1-0.1-0.2c0-0.1,0-0.1,0-0.2c0-0.1,0-0.1,0-0.2c0-0.1,0.1-0.1,0.1-0.2l0.5-0.3l-1.1-5.2c0-0.1,0-0.2,0-0.2l1.6-5
		c0-0.1,0-0.1,0.1-0.1c0,0,0.1-0.1,0.1-0.1c0.1,0,0.1,0,0.2,0c0.1,0,0.1,0,0.2,0l10.7,4h8.8l10.7-4c0.1,0,0.1,0,0.2,0
		c0.1,0,0.1,0,0.2,0c0.1,0,0.1,0.1,0.1,0.1c0,0,0.1,0.1,0.1,0.2l1.6,5c0,0.1,0,0.2,0,0.2l-1.1,5.2l0.4,0.3c0.1,0,0.1,0.1,0.1,0.2
		c0,0.1,0,0.1,0,0.2c0,0.1,0,0.1,0,0.2c0,0.1-0.1,0.1-0.1,0.2l-0.6,0.5l0.4,0.3c0.1,0.1,0.2,0.2,0.2,0.3c0,0.1,0,0.1,0,0.2
		c0,0.1-0.1,0.1-0.1,0.2l-0.7,0.6l0.2,0.2c0,0,0.1,0.1,0.1,0.1c0,0.1,0.1,0.1,0.1,0.2c0,0.1,0,0.1,0,0.2c0,0.1,0,0.1-0.1,0.2
		l-1.3,1.6L236,54c0,0.1,0,0.2,0,0.3l-2.1,7.3c0,0.1-0.1,0.2-0.2,0.3c-0.1,0.1-0.2,0.1-0.3,0l-7.3-2l-1.4,1.1l-3,2.1
		C221.7,63.1,221.6,63.1,221.5,63.1L221.5,63.1z"/>
	<path class="st12" d="M220.1,58.2h-2.6l-0.4,0.4l-0.2,2.1h3.8l-0.2-2.1L220.1,58.2z M222.9,49.7l-1.1,2.3c-0.1,0.2,0.1,0.4,0.3,0.3
		l3.6-1.1c0.2-0.1,0.2-0.4,0-0.5l-2.6-1.2c0,0-0.1,0-0.1,0c0,0-0.1,0-0.1,0C223,49.6,223,49.6,222.9,49.7
		C222.9,49.7,222.9,49.7,222.9,49.7L222.9,49.7z M214.7,49.6l-2.6,1.2c-0.2,0.1-0.2,0.4,0,0.5l3.6,1.1c0.2,0.1,0.4-0.1,0.3-0.3
		l-1.1-2.3c0,0,0-0.1-0.1-0.1c0,0,0,0-0.1,0C214.9,49.6,214.9,49.6,214.7,49.6C214.8,49.6,214.8,49.6,214.7,49.6"/>
	<g>
		<g>
			<path class="st8" d="M133.7,28.4h-11.1c-0.8,0-1.4-0.6-1.4-1.4v-3.4c0-0.8,0.6-1.4,1.4-1.4h11.1c0.8,0,1.4,0.6,1.4,1.4V27
				C135.2,27.7,134.5,28.4,133.7,28.4z"/>
			<path class="st9" d="M130.3,29.8h-10.2c-0.4,0-0.7-0.3-0.7-0.7v-7.6c0-0.4,0.3-0.7,0.7-0.7h10.2c0.4,0,0.7,0.3,0.7,0.7V29
				C131,29.4,130.7,29.8,130.3,29.8z"/>
		</g>
		<g>
			<path class="st13" d="M121.6,25.6h-17.2c-4.6,0-8.4,3.8-8.4,8.4v3.7c0,4.6,3.8,8.4,8.4,8.4h13.3"/>
			<path class="st13" d="M113.1,46.1h13.3c4.6,0,8.4,3.8,8.4,8.4v3.7c0,4.6-3.8,8.4-9.4,8.4h-16.7"/>
		</g>
		<g>
			<path class="st8" d="M96.4,69.7h13.5c0.4,0-0.3-0.3-0.3-0.7v-4.8c0-0.4,0.7-0.7,0.3-0.7H96.4c-0.4,0-0.7,0.3-0.7,0.7V69
				C95.7,69.4,96,69.7,96.4,69.7z"/>
			<path class="st9" d="M100.5,71.1h10.2c0.4,0,0.7-0.3,0.7-0.7v-7.6c0-0.4-0.3-0.7-0.7-0.7h-10.2c-0.4,0-0.7,0.3-0.7,0.7v7.6
				C99.8,70.7,100.1,71.1,100.5,71.1z"/>
		</g>
	</g>
</g>
</svg>
