<svg xmlns="http://www.w3.org/2000/svg" width="19" height="22">
    <path fill="#60DB97" fill-rule="evenodd" d="M2.639 0h7.917L19 8.381v11A2.629 2.629 0 0 1 16.361 22H2.639A2.629 2.629 0 0 1 0 19.381V2.619A2.629 2.629 0 0 1 2.639 0z"/>
    <path fill="#449A6A" fill-rule="evenodd" d="M13.495 8.006a2.502 2.502 0 0 1-2.502-2.502V0L19 8.006h-5.505zM7.214 8H4.786A.786.786 0 0 1 4 7.214v-.428C4 6.352 4.352 6 4.786 6h2.428c.434 0 .786.352.786.786v.428A.786.786 0 0 1 7.214 8zm-2.428 3h9.428c.434 0 .786.352.786.786v.428a.786.786 0 0 1-.786.786H4.786A.786.786 0 0 1 4 12.214v-.428c0-.434.352-.786.786-.786zm0 5h9.428c.434 0 .786.352.786.786v.428a.786.786 0 0 1-.786.786H4.786A.786.786 0 0 1 4 17.214v-.428c0-.434.352-.786.786-.786z"/>
</svg>
