<svg width="24" height="24" viewBox="0 0 24 24" fill="none" xmlns="http://www.w3.org/2000/svg">
<mask id="mask0_3887_44765" style="mask-type:alpha" maskUnits="userSpaceOnUse" x="0" y="0" width="24" height="24">
<rect width="24" height="24" fill="#D9D9D9"/>
</mask>
<g mask="url(#mask0_3887_44765)">
<path d="M5.65043 4.84238L4.59668 3.78863C5.54785 2.80663 6.65551 2.04513 7.91968 1.50413C9.18385 0.962965 10.5441 0.692383 12.0004 0.692383C13.4568 0.692383 14.817 0.962965 16.0812 1.50413C17.3453 2.04513 18.453 2.80663 19.4042 3.78863L18.3504 4.84238C17.5504 4.02188 16.6046 3.37513 15.5129 2.90213C14.4213 2.42897 13.2504 2.19238 12.0004 2.19238C10.7504 2.19238 9.5796 2.42897 8.48793 2.90213C7.39626 3.37513 6.45043 4.02188 5.65043 4.84238ZM8.45043 7.64238L7.39668 6.58863C7.99785 5.9873 8.68726 5.52097 9.46493 5.18963C10.2424 4.85813 11.0876 4.69238 12.0004 4.69238C12.9133 4.69238 13.7584 4.85813 14.5359 5.18963C15.3136 5.52097 16.003 5.9873 16.6042 6.58863L15.5504 7.64238C15.1004 7.19238 14.5713 6.83822 13.9629 6.57988C13.3546 6.32155 12.7004 6.19238 12.0004 6.19238C11.3004 6.19238 10.6463 6.32155 10.0379 6.57988C9.4296 6.83822 8.90043 7.19238 8.45043 7.64238ZM12.0004 23.6924C11.1274 23.6924 10.3771 23.3786 9.74943 22.7511C9.12193 22.1235 8.80818 21.3731 8.80818 20.5001V12.4694C8.80818 11.5964 9.12193 10.846 9.74943 10.2184C10.3771 9.59088 11.1274 9.27713 12.0004 9.27713C12.8734 9.27713 13.6238 9.59088 14.2514 10.2184C14.8789 10.846 15.1927 11.5964 15.1927 12.4694V20.5001C15.1927 21.3731 14.8789 22.1235 14.2514 22.7511C13.6238 23.3786 12.8734 23.6924 12.0004 23.6924ZM12.0004 14.5001C12.5504 14.5001 13.0213 14.3043 13.4129 13.9126C13.8046 13.521 14.0004 13.0501 14.0004 12.5001C14.0004 11.9501 13.8046 11.4793 13.4129 11.0876C13.0213 10.696 12.5504 10.5001 12.0004 10.5001C11.4504 10.5001 10.9796 10.696 10.5879 11.0876C10.1963 11.4793 10.0004 11.9501 10.0004 12.5001C10.0004 13.0501 10.1963 13.521 10.5879 13.9126C10.9796 14.3043 11.4504 14.5001 12.0004 14.5001Z" fill="#8B99FF"/>
</g>
</svg>
