<svg enable-background="new 189.192 0 24.088 24" fill="#f7861c" height="24" viewBox="189.192 0 24.088 24" width="24.088" xmlns="http://www.w3.org/2000/svg"><g fill="#f7861c"><path d="m204.655 7.169h-8.962c-1.1 0-1.991.891-1.991 1.991v8.963c0 1.1.892 1.99 1.991 1.99h8.962c1.101 0 1.991-.891 1.991-1.99v-8.963c0-1.1-.89-1.991-1.991-1.991zm.996 10.954c0 .549-.446.994-.996.994h-8.962c-.549 0-.995-.445-.995-.994v-8.963c0-.55.446-.996.995-.996h8.962c.55 0 .996.446.996.996z"/><path d="m196.689 11.152h6.969v-.996h-6.969z"/><path d="m196.689 13.144h6.969v-.996h-6.969z"/><path d="m196.689 15.135h6.969v-.996h-6.969z"/><path d="m196.689 17.126h3.982v-.994h-3.982z"/><path d="m207.643 4.182h-8.962c-1.101 0-1.991.892-1.991 1.991h.995c0-.549.446-.996.996-.996h8.962c.549 0 .995.447.995.996v8.962c0 .55-.446.997-.995.997v.994c1.101 0 1.991-.891 1.991-1.991v-8.963c0-1.099-.891-1.99-1.991-1.99z"/></g></svg>