<?xml version="1.0" encoding="utf-8"?>
<!-- Generator: Adobe Illustrator 22.0.1, SVG Export Plug-In . SVG Version: 6.00 Build 0)  -->
<svg version="1.1" id="Layer_1" xmlns="http://www.w3.org/2000/svg" xmlns:xlink="http://www.w3.org/1999/xlink" x="0px" y="0px"
	 viewBox="0 0 24.1 24" style="enable-background:new 0 0 24.1 24;" xml:space="preserve">
<style type="text/css">
	.st0{fill:#0066CC;}
</style>
<g>
	<g>
		<path class="st0" d="M15.5,7.2h-9c-1.1,0-2,0.9-2,2v9c0,1.1,0.9,2,2,2h9c1.1,0,2-0.9,2-2v-9C17.5,8.1,16.6,7.2,15.5,7.2z
			 M16.5,18.1c0,0.5-0.4,1-1,1h-9c-0.5,0-1-0.4-1-1v-9c0-0.6,0.4-1,1-1h9c0.6,0,1,0.4,1,1V18.1z"/>
	</g>
</g>
<path class="st0" d="M7.5,11.2h7v-1h-7V11.2z"/>
<path class="st0" d="M7.5,13.1h7v-1h-7V13.1z"/>
<path class="st0" d="M7.5,15.1h7v-1h-7V15.1z"/>
<path class="st0" d="M7.5,17.1h4v-1h-4V17.1z"/>
<path class="st0" d="M18.5,4.2h-9c-1.1,0-2,0.9-2,2h1c0-0.5,0.4-1,1-1h9c0.5,0,1,0.4,1,1v9c0,0.6-0.4,1-1,1v1c1.1,0,2-0.9,2-2v-9
	C20.4,5.1,19.6,4.2,18.5,4.2z"/>
</svg>
