<svg width="600" height="600" viewBox="0 0 600 600" fill="none" xmlns="http://www.w3.org/2000/svg">
<path fill-rule="evenodd" clip-rule="evenodd" d="M301.285 122.583L148.91 210.649V386.782L301.285 474.848L453.66 386.782V210.649L301.285 122.583ZM307.684 78.2006C303.724 75.9119 298.845 75.9119 294.885 78.2006L113.713 182.91C109.753 185.199 107.314 189.429 107.314 194.006V403.425C107.314 408.002 109.753 412.232 113.713 414.521L294.885 519.23C298.845 521.519 303.724 521.519 307.684 519.23L488.856 414.521C492.816 412.232 495.255 408.002 495.255 403.425V194.006C495.255 189.429 492.816 185.199 488.856 182.91L307.684 78.2006Z" fill="#FF9211"/>
<path d="M301.285 186.379L204.1 242.547V354.884L300.645 410.682C301.041 410.911 301.285 411.334 301.285 411.792L301.285 431.025C301.285 432.011 300.218 432.628 299.365 432.135L189.702 368.753C186.732 367.037 184.902 363.865 184.902 360.432V236.999C184.902 233.566 186.732 230.394 189.702 228.677L296.485 166.961C299.455 165.245 303.114 165.245 306.084 166.961L416.185 230.365C417.032 230.852 417.04 232.072 416.2 232.571C409.702 236.429 406.375 238.145 399.106 242.192C398.712 242.411 398.23 242.409 397.84 242.184L301.285 186.379Z" fill="#FF9211"/>
<path d="M317.283 301.086C317.283 300.613 317.544 300.178 317.962 299.955L414.592 248.469C415.445 248.015 416.473 248.633 416.473 249.6V374.851C416.473 375.308 416.231 375.73 415.836 375.959L319.206 432.126C318.352 432.622 317.283 432.006 317.283 431.018V301.086Z" fill="#FF9211"/>
</svg>
