<?xml version="1.0" encoding="UTF-8" standalone="no"?>
<svg
   width="250"
   height="250"
   viewBox="0 0 250 250"
   fill="none"
   version="1.1"
   id="svg10"
   sodipodi:docname="Cronos EVM Icon.svg"
   inkscape:version="1.4 (e7c3feb1, 2024-10-09)"
   xmlns:inkscape="http://www.inkscape.org/namespaces/inkscape"
   xmlns:sodipodi="http://sodipodi.sourceforge.net/DTD/sodipodi-0.dtd"
   xmlns="http://www.w3.org/2000/svg"
   xmlns:svg="http://www.w3.org/2000/svg">
  <sodipodi:namedview
     id="namedview10"
     pagecolor="#ffffff"
     bordercolor="#000000"
     borderopacity="0.25"
     inkscape:showpageshadow="2"
     inkscape:pageopacity="0.0"
     inkscape:pagecheckerboard="0"
     inkscape:deskcolor="#d1d1d1"
     inkscape:zoom="1.7033208"
     inkscape:cx="65.75391"
     inkscape:cy="29.06088"
     inkscape:window-width="1920"
     inkscape:window-height="1050"
     inkscape:window-x="0"
     inkscape:window-y="30"
     inkscape:window-maximized="0"
     inkscape:current-layer="svg10" />
  <rect width="100%" height="100%" fill="white"/>
  <g
     id="g11"
     transform="matrix(1.8048,0,0,1.8048,0.735,0.956)">
    <g
       id="g10"
       transform="translate(15.5,6.3)">
      <path
         d="M 53.5021,0.417191 0.232056,31.3972 v 61.8 L 53.5021,124.177 106.752,93.1972 v -61.83 z M 90.972,84.0372 53.5021,105.787 16.0321,84.0372 v -43.5 l 37.47,-21.77 37.4699,21.77 z"
         fill="#002d74"
         id="path1" />
      <path
         style="mix-blend-mode:multiply;fill:url(#paint0_linear_1208_184)"
         d="M 53.5021,124.127 106.752,93.1472 v -61.79 L 53.5021,0.377197 V 18.7172 l 37.47,21.81 v 43.5 l -37.47,21.7498 v 18.34 z"
         fill="url(#paint0_linear_1208_184)"
         id="path2" />
      <path
         style="mix-blend-mode:multiply;fill:url(#paint1_linear_1208_184)"
         d="M 53.5021,105.787 16.032,84.0372 v -43.5 l 37.4701,-21.77 V 0.417191 L 0.252045,31.3572 v 61.85 L 53.5021,124.127 Z"
         fill="url(#paint1_linear_1208_184)"
         id="path3" />
      <path
         d="m 78.3721,76.7272 -24.87,14.44 -24.89,-14.44 v -28.88 l 24.89,-14.46 24.87,14.46 -10.37,6.01 -14.5,-8.43 -14.52,8.43 v 16.86 l 14.52,8.43 14.5,-8.43 z"
         fill="#002d74"
         id="path4" />
    </g>
  </g>
  <defs
     id="defs10">
    <linearGradient
       id="paint0_linear_1208_184"
       x1="80.132103"
       y1="124.127"
       x2="80.132103"
       y2="62.2672"
       gradientUnits="userSpaceOnUse">
      <stop
         stop-color="#002D74"
         id="stop7" />
      <stop
         offset="1"
         stop-color="#002D74"
         stop-opacity="0"
         id="stop8" />
    </linearGradient>
    <linearGradient
       id="paint1_linear_1208_184"
       x1="26.882"
       y1="0.417191"
       x2="26.882"
       y2="62.287201"
       gradientUnits="userSpaceOnUse">
      <stop
         stop-color="#002D74"
         id="stop9" />
      <stop
         offset="1"
         stop-color="#002D74"
         stop-opacity="0"
         id="stop10" />
    </linearGradient>
  </defs>
</svg>
