<?xml version="1.0" encoding="UTF-8" standalone="no"?>
<svg
   width="125"
   height="125"
   viewBox="0 0 125 125"
   fill="none"
   version="1.1"
   id="svg7"
   sodipodi:docname="cronos.svg"
   inkscape:version="1.4 (e7c3feb1, 2024-10-09)"
   xmlns:inkscape="http://www.inkscape.org/namespaces/inkscape"
   xmlns:sodipodi="http://sodipodi.sourceforge.net/DTD/sodipodi-0.dtd"
   xmlns="http://www.w3.org/2000/svg"
   xmlns:svg="http://www.w3.org/2000/svg">
  <sodipodi:namedview
     id="namedview7"
     pagecolor="#ffffff"
     bordercolor="#000000"
     borderopacity="0.25"
     inkscape:showpageshadow="2"
     inkscape:pageopacity="0.0"
     inkscape:pagecheckerboard="0"
     inkscape:deskcolor="#d1d1d1"
     inkscape:zoom="1.0690487"
     inkscape:cx="-13.095756"
     inkscape:cy="61.737134"
     inkscape:window-width="1744"
     inkscape:window-height="729"
     inkscape:window-x="0"
     inkscape:window-y="25"
     inkscape:window-maximized="0"
     inkscape:current-layer="svg7" />
  <g
     id="g7"
     transform="translate(9.007972)">
    <path
       d="M 53.5021,0.417191 0.232056,31.3972 v 61.8 L 53.5021,124.177 106.752,93.1972 v -61.83 z M 90.972,84.0372 53.5021,105.787 16.0321,84.0372 v -43.5 l 37.47,-21.77 37.4699,21.77 z"
       fill="#002d74"
       id="path1" />
    <path
       style="mix-blend-mode:multiply;fill:url(#paint0_linear_1133_91)"
       d="M 53.5021,124.127 106.752,93.1472 v -61.79 L 53.5021,0.377197 V 18.7172 l 37.47,21.81 v 43.5 l -37.47,21.7498 v 18.34 z"
       fill="url(#paint0_linear_1133_91)"
       id="path2" />
    <path
       style="mix-blend-mode:multiply;fill:url(#paint1_linear_1133_91)"
       d="m 53.5021,105.787 -37.47,-21.7498 v -43.5 l 37.47,-21.77 V 0.417191 L 0.252075,31.3572 v 61.85 L 53.5021,124.127 Z"
       fill="url(#paint1_linear_1133_91)"
       id="path3" />
    <path
       d="m 78.3721,76.7272 -24.87,14.44 -24.89,-14.44 v -28.88 l 24.89,-14.46 24.87,14.46 -10.37,6.01 -14.5,-8.43 -14.52,8.43 v 16.86 l 14.52,8.43 14.5,-8.43 z"
       fill="#002d74"
       id="path4" />
  </g>
  <defs
     id="defs7">
    <linearGradient
       id="paint0_linear_1133_91"
       x1="80.132103"
       y1="124.127"
       x2="80.132103"
       y2="62.2672"
       gradientUnits="userSpaceOnUse">
      <stop
         stop-color="#002D74"
         id="stop4" />
      <stop
         offset="1"
         stop-color="#002D74"
         stop-opacity="0"
         id="stop5" />
    </linearGradient>
    <linearGradient
       id="paint1_linear_1133_91"
       x1="26.882099"
       y1="0.417191"
       x2="26.882099"
       y2="62.287201"
       gradientUnits="userSpaceOnUse">
      <stop
         stop-color="#002D74"
         id="stop6" />
      <stop
         offset="1"
         stop-color="#002D74"
         stop-opacity="0"
         id="stop7" />
    </linearGradient>
  </defs>
</svg>
