<svg width="162" height="32" fill="none" xmlns="http://www.w3.org/2000/svg"><g clip-path="url(#a)"><path fill="none" d="M.813.082h161v31h-161z"/><path d="M117.469 8.638h1.03l2.39 5.65 2.4-5.65h1.01l-3.02 7.1h-.78l-3.03-7.1ZM126.795 15.838c-.386 0-.74-.067-1.06-.2a2.436 2.436 0 0 1-1.35-1.37 2.91 2.91 0 0 1-.18-1.03c0-.367.064-.707.19-1.02.127-.32.304-.597.53-.83.234-.233.51-.417.83-.55.32-.133.67-.2 1.05-.2.327 0 .634.057.92.17.287.107.537.27.75.49.22.213.394.477.52.79.127.307.19.66.19 1.06v.13c0 .033-.003.077-.01.13h-4.1c.007.233.054.45.14.65.094.2.214.373.36.52.154.147.334.263.54.35.214.08.444.12.69.12.387 0 .704-.077.95-.23.254-.16.457-.373.61-.64l.68.47c-.226.367-.53.657-.91.87-.373.213-.82.32-1.34.32Zm1.51-3.13a1.56 1.56 0 0 0-.19-.55c-.086-.16-.2-.297-.34-.41a1.408 1.408 0 0 0-.46-.26 1.636 1.636 0 0 0-.54-.09 1.732 1.732 0 0 0-1.04.35 1.512 1.512 0 0 0-.38.41c-.106.16-.18.343-.22.55h3.17ZM130.406 10.738h.86v.97c.046-.16.12-.303.22-.43s.213-.233.34-.32a1.59 1.59 0 0 1 .4-.2c.146-.047.293-.07.44-.07.133 0 .263.013.39.04v.89a.782.782 0 0 0-.23-.06 1.348 1.348 0 0 0-.24-.02c-.16 0-.32.037-.48.11-.154.067-.294.17-.42.31-.12.14-.22.32-.3.54-.08.213-.12.467-.12.76v2.48h-.86v-5ZM134.438 17.828l1.09-2.35-2.19-4.74h.95l1.72 3.8 1.71-3.8h.96l-3.28 7.09h-.96ZM141.724 15.738v-7.5h.86v3.27c.173-.3.4-.52.68-.66s.583-.21.91-.21c.28 0 .537.047.77.14.233.093.43.23.59.41.167.173.297.387.39.64.093.247.14.523.14.83v3.08h-.85v-2.95c0-.42-.11-.75-.33-.99-.213-.247-.497-.37-.85-.37-.2 0-.39.04-.57.12-.173.08-.327.2-.46.36-.127.153-.23.343-.31.57-.073.227-.11.487-.11.78v2.48h-.86ZM148.053 9.398a.599.599 0 0 1-.62-.61c0-.167.06-.31.18-.43s.266-.18.44-.18c.173 0 .316.06.43.18.113.12.17.263.17.43 0 .173-.057.32-.17.44a.584.584 0 0 1-.43.17Zm-.44 1.34h.86v5h-.86v-5ZM152.283 14.928c.247 0 .473-.043.68-.13.213-.087.393-.207.54-.36a1.7 1.7 0 0 0 .34-.56c.087-.213.13-.447.13-.7a1.81 1.81 0 0 0-.13-.69 1.573 1.573 0 0 0-.34-.56 1.54 1.54 0 0 0-.54-.36 1.632 1.632 0 0 0-.68-.14c-.253 0-.483.047-.69.14a1.554 1.554 0 0 0-.53.36 1.7 1.7 0 0 0-.35.56c-.08.213-.12.443-.12.69 0 .253.04.487.12.7.087.213.203.4.35.56.147.153.323.273.53.36.207.087.437.13.69.13Zm-.05 3c-.54 0-1.013-.1-1.42-.3-.407-.2-.717-.44-.93-.72l.6-.6c.2.253.443.457.73.61.293.153.633.23 1.02.23.213 0 .42-.033.62-.1s.377-.173.53-.32c.16-.14.287-.32.38-.54.093-.213.14-.47.14-.77v-.57a2.015 2.015 0 0 1-.72.63c-.307.167-.647.25-1.02.25-.347 0-.67-.063-.97-.19-.3-.133-.56-.313-.78-.54a2.643 2.643 0 0 1-.52-.81 2.8 2.8 0 0 1-.18-1.01c0-.353.06-.683.18-.99.127-.313.3-.583.52-.81.22-.233.48-.413.78-.54.3-.133.623-.2.97-.2.373 0 .713.083 1.02.25.307.16.547.367.72.62v-.77h.86v4.71c0 .42-.067.783-.2 1.09-.127.313-.303.57-.53.77a2.17 2.17 0 0 1-.8.46c-.307.107-.64.16-1 .16ZM156.382 15.738v-7.5h.86v3.27c.174-.3.4-.52.68-.66s.584-.21.91-.21c.28 0 .537.047.77.14.234.093.43.23.59.41.167.173.297.387.39.64.094.247.14.523.14.83v3.08h-.85v-2.95c0-.42-.11-.75-.33-.99-.213-.247-.496-.37-.85-.37-.2 0-.39.04-.57.12-.173.08-.326.2-.46.36-.126.153-.23.343-.31.57-.073.227-.11.487-.11.78v2.48h-.86Z" fill="#F66A0A"/><path opacity=".3" d="M45.774 22.738c-10.764 7.42-19.417 8-19.417 8h110.251s-8.653-.58-19.417-8c-10.764-7.42-23.364-22-35.709-22-12.344 0-24.944 14.58-35.708 22Z" fill="#037DD6"/><mask id="b" style="mask-type:alpha" maskUnits="userSpaceOnUse" x="26" y="0" width="111" height="31"><path d="M45.774 22.605c-10.764 7.42-19.417 8-19.417 8h110.251s-8.653-.58-19.417-8c-10.764-7.42-23.364-22-35.709-22-12.344 0-24.944 14.58-35.708 22Z" fill="#EAF6FF"/></mask><g mask="url(#b)"><path fill="#F66A0A" stroke="#fff" stroke-width="2" d="M118.254-5.209h20.706v39.25h-20.706z"/></g></g><defs><clipPath id="a"><path fill="#fff" transform="translate(.813 .082)" d="M0 0h161v31H0z"/></clipPath></defs></svg>
