<svg width="162" height="32" fill="none" xmlns="http://www.w3.org/2000/svg"><g clip-path="url(#a)"><path fill="none" d="M.813.082h161v31h-161z"/><path d="M26.047 8.638h.93v6.22h3.43v.88h-4.36v-7.1ZM33.46 15.838c-.38 0-.73-.067-1.05-.2a2.573 2.573 0 0 1-1.38-1.38c-.127-.32-.19-.66-.19-1.02s.063-.697.19-1.01c.133-.32.316-.597.55-.83.233-.233.51-.417.83-.55.32-.14.67-.21 1.05-.21.373 0 .72.07 1.04.21.32.133.596.317.83.55.233.233.413.51.54.83.133.313.2.65.2 1.01s-.068.7-.2 1.02a2.438 2.438 0 0 1-.54.82c-.234.233-.51.42-.83.56-.32.133-.667.2-1.04.2Zm0-.8c.26 0 .496-.047.71-.14.212-.093.392-.22.54-.38.152-.167.27-.357.35-.57.086-.22.13-.457.13-.71 0-.247-.044-.48-.13-.7-.08-.22-.198-.41-.35-.57a1.518 1.518 0 0 0-.54-.39 1.752 1.752 0 0 0-.71-.14c-.26 0-.498.047-.71.14a1.62 1.62 0 0 0-.55.39 1.73 1.73 0 0 0-.36.57c-.08.22-.12.453-.12.7 0 .253.04.49.12.71.086.213.206.403.36.57.152.16.336.287.55.38.212.093.45.14.71.14ZM40.284 12.148l-1.23 3.59h-.76l-1.7-5h.9l1.21 3.65 1.25-3.65h.66l1.25 3.65 1.21-3.65h.91l-1.7 5h-.76l-1.24-3.59Z" fill="#F66A0A"/><path opacity=".3" d="M45.774 22.738c-10.764 7.42-19.417 8-19.417 8h110.251s-8.653-.58-19.417-8c-10.764-7.42-23.364-22-35.709-22-12.344 0-24.944 14.58-35.708 22Z" fill="#037DD6"/><mask id="b" style="mask-type:alpha" maskUnits="userSpaceOnUse" x="26" y="0" width="111" height="31"><path d="M45.774 22.605c-10.764 7.42-19.417 8-19.417 8h110.251s-8.653-.58-19.417-8c-10.764-7.42-23.364-22-35.709-22-12.344 0-24.944 14.58-35.708 22Z" fill="#EAF6FF"/></mask><g mask="url(#b)"><path fill="#F66A0A" stroke="#fff" stroke-width="2" d="M24.607 16.738h20.706v17.303H24.607z"/></g></g><defs><clipPath id="a"><path fill="#fff" transform="translate(.813 .082)" d="M0 0h161v31H0z"/></clipPath></defs></svg>
