<svg width="162" height="47" fill="none" xmlns="http://www.w3.org/2000/svg"><path fill="none" d="M.813.082h161v46h-161z"/><path d="m64.268 1.505 2.63 3.54 2.65-3.54h.84v7.1h-.92v-5.52l-2.56 3.44-2.56-3.44v5.52h-.93v-7.1h.85ZM74.257 8.705a2.73 2.73 0 0 1-1.06-.2 2.432 2.432 0 0 1-1.35-1.37 2.91 2.91 0 0 1-.18-1.03c0-.367.064-.707.19-1.02.127-.32.304-.596.53-.83.234-.233.51-.417.83-.55.32-.133.67-.2 1.05-.2.327 0 .634.057.92.17.287.107.537.27.75.49.22.213.394.477.52.79.127.307.19.66.19 1.06v.13c0 .034-.003.077-.01.13h-4.1c.007.233.054.45.14.65.094.2.214.373.36.52.154.147.334.263.54.35.214.08.444.12.69.12.387 0 .704-.077.95-.23.254-.16.457-.373.61-.64l.68.47c-.226.367-.53.657-.91.87-.373.213-.82.32-1.34.32Zm1.51-3.13a1.58 1.58 0 0 0-.19-.55c-.086-.16-.2-.296-.34-.41a1.42 1.42 0 0 0-.46-.26 1.639 1.639 0 0 0-.54-.09 1.728 1.728 0 0 0-1.04.35 1.498 1.498 0 0 0-.38.41 1.49 1.49 0 0 0-.22.55h3.17ZM79.928 8.705c-.353 0-.68-.066-.98-.2a2.57 2.57 0 0 1-.77-.56 2.732 2.732 0 0 1-.52-.83 2.8 2.8 0 0 1-.18-1.01c0-.36.06-.697.18-1.01.127-.313.3-.587.52-.82a2.36 2.36 0 0 1 1.75-.77c.38 0 .727.087 1.04.26.313.167.553.37.72.61v-3.27h.86v7.5h-.86v-.77c-.167.24-.407.447-.72.62a2.18 2.18 0 0 1-1.04.25Zm.13-.79a1.606 1.606 0 0 0 1.22-.52c.153-.167.27-.36.35-.58.087-.22.13-.457.13-.71 0-.253-.043-.49-.13-.71-.08-.22-.197-.41-.35-.57a1.542 1.542 0 0 0-.53-.39 1.657 1.657 0 0 0-.69-.14c-.253 0-.487.047-.7.14a1.65 1.65 0 0 0-.54.39c-.147.16-.263.35-.35.57-.08.22-.12.457-.12.71 0 .253.04.49.12.71.087.22.203.413.35.58.153.16.333.287.54.38.213.093.447.14.7.14ZM84.607 2.265a.599.599 0 0 1-.62-.61c0-.167.06-.31.18-.43s.266-.18.44-.18c.173 0 .317.06.43.18.113.12.17.263.17.43 0 .173-.057.32-.17.44a.583.583 0 0 1-.43.17Zm-.44 1.34h.86v5h-.86v-5ZM88.427 8.705c-.273 0-.523-.046-.75-.14-.227-.1-.42-.236-.58-.41a1.916 1.916 0 0 1-.38-.63 2.614 2.614 0 0 1-.13-.85v-3.07h.86v2.94c0 .42.1.753.3 1 .207.247.483.37.83.37.193 0 .373-.04.54-.12.173-.087.32-.207.44-.36.127-.16.227-.353.3-.58.073-.227.11-.483.11-.77v-2.48h.86v5h-.86v-.77a1.654 1.654 0 0 1-.66.66c-.267.14-.56.21-.88.21ZM98.888 5.665c0-.407-.083-.737-.25-.99-.166-.253-.413-.38-.74-.38-.4 0-.727.157-.98.47-.247.314-.377.74-.39 1.28v2.56h-.86v-2.94c0-.407-.083-.737-.25-.99-.16-.253-.403-.38-.73-.38-.407 0-.74.163-1 .49-.253.327-.38.774-.38 1.34v2.48h-.86v-5h.86v.77a1.63 1.63 0 0 1 .61-.63c.26-.16.56-.24.9-.24.374 0 .69.097.95.29.267.187.463.447.59.78.133-.327.343-.587.63-.78.293-.193.63-.29 1.01-.29.273 0 .517.05.73.15.22.094.404.23.55.41.153.173.27.387.35.64.08.247.12.524.12.83v3.07h-.86v-2.94Z" fill="#037DD6"/><path opacity=".3" d="M45.774 37.738c-10.764 7.42-19.417 8-19.417 8h110.251s-8.653-.58-19.417-8c-10.764-7.42-23.364-22-35.709-22-12.344 0-24.944 14.58-35.708 22Z" fill="#037DD6"/><mask id="a" style="mask-type:alpha" maskUnits="userSpaceOnUse" x="26" y="15" width="111" height="31"><path d="M45.774 37.605c-10.764 7.42-19.417 8-19.417 8h110.251s-8.653-.58-19.417-8c-10.764-7.42-23.364-22-35.709-22-12.344 0-24.944 14.58-35.708 22Z" fill="#EAF6FF"/></mask><g mask="url(#a)"><path fill="#037DD6" stroke="#fff" stroke-width="2" d="M62.313 9.791h37.343v39.25H62.313z"/></g></svg>
