<svg width="111" height="49" fill="none" xmlns="http://www.w3.org/2000/svg"><path d="m38 4.334 2.63 3.54 2.65-3.54h.84v7.1h-.92v-5.52l-2.56 3.44-2.56-3.44v5.52h-.93v-7.1H38Zm9.99 7.2a2.73 2.73 0 0 1-1.06-.2 2.431 2.431 0 0 1-1.35-1.37 2.91 2.91 0 0 1-.18-1.03c0-.367.063-.707.19-1.02.126-.32.303-.597.53-.83.233-.234.51-.417.83-.55.32-.134.67-.2 1.05-.2.326 0 .633.056.92.17.286.106.536.27.75.49.22.213.393.476.52.79.126.306.19.66.19 1.06v.13c0 .033-.004.076-.01.13h-4.1c.006.233.053.45.14.65.093.2.213.373.36.52.153.146.333.263.54.35.213.08.443.12.69.12.386 0 .703-.077.95-.23.253-.16.456-.374.61-.64l.68.47c-.227.366-.53.656-.91.87-.374.213-.82.32-1.34.32Zm1.51-3.13a1.579 1.579 0 0 0-.19-.55c-.087-.16-.2-.297-.34-.41a1.419 1.419 0 0 0-.46-.26 1.639 1.639 0 0 0-.54-.09 1.729 1.729 0 0 0-1.04.35 1.5 1.5 0 0 0-.38.41c-.107.16-.18.343-.22.55h3.17Zm4.16 3.13c-.353 0-.68-.067-.98-.2a2.57 2.57 0 0 1-.77-.56 2.73 2.73 0 0 1-.52-.83 2.8 2.8 0 0 1-.18-1.01c0-.36.06-.697.18-1.01.127-.314.3-.587.52-.82a2.359 2.359 0 0 1 1.75-.77c.38 0 .727.086 1.04.26.314.166.554.37.72.61v-3.27h.86v7.5h-.86v-.77a2.08 2.08 0 0 1-.72.62 2.18 2.18 0 0 1-1.04.25Zm.13-.79a1.607 1.607 0 0 0 1.22-.52c.154-.167.27-.36.35-.58.087-.22.13-.457.13-.71 0-.254-.043-.49-.13-.71-.08-.22-.196-.41-.35-.57a1.544 1.544 0 0 0-.53-.39 1.658 1.658 0 0 0-.69-.14c-.253 0-.486.046-.7.14a1.648 1.648 0 0 0-.54.39 1.82 1.82 0 0 0-.35.57c-.08.22-.12.456-.12.71 0 .253.04.49.12.71.087.22.204.413.35.58.154.16.334.286.54.38.214.093.447.14.7.14Zm4.55-5.65a.599.599 0 0 1-.62-.61c0-.167.06-.31.18-.43s.266-.18.44-.18c.172 0 .316.06.43.18.112.12.17.263.17.43 0 .173-.058.32-.17.44a.583.583 0 0 1-.43.17Zm-.44 1.34h.86v5h-.86v-5Zm4.26 5.1c-.274 0-.524-.047-.75-.14-.227-.1-.42-.237-.58-.41a1.917 1.917 0 0 1-.38-.63 2.617 2.617 0 0 1-.13-.85v-3.07h.86v2.94c0 .42.1.753.3 1 .206.246.483.37.83.37.193 0 .373-.04.54-.12.173-.087.32-.207.44-.36.126-.16.226-.354.3-.58.073-.227.11-.484.11-.77v-2.48h.86v5h-.86v-.77a1.654 1.654 0 0 1-.66.66c-.267.14-.56.21-.88.21Zm10.46-3.04c0-.407-.083-.737-.25-.99-.166-.254-.413-.38-.74-.38-.4 0-.726.156-.98.47-.246.313-.376.74-.39 1.28v2.56h-.86v-2.94c0-.407-.083-.737-.25-.99-.16-.254-.403-.38-.73-.38-.406 0-.74.163-1 .49-.253.326-.38.773-.38 1.34v2.48h-.86v-5h.86v.77a1.63 1.63 0 0 1 .61-.63c.26-.16.56-.24.9-.24.374 0 .69.096.95.29.267.186.464.446.59.78.134-.327.344-.587.63-.78.294-.194.63-.29 1.01-.29.274 0 .517.05.73.15.22.093.404.23.55.41.154.173.27.386.35.64.08.246.12.523.12.83v3.07h-.86v-2.94Z" fill="#037DD6"/><path opacity=".3" d="M19.506 40.566c-10.763 7.42-19.416 8-19.416 8h110.25s-8.653-.58-19.417-8c-10.763-7.42-23.363-22-35.708-22-12.345 0-24.945 14.58-35.709 22Z" fill="#037DD6"/><mask id="a" style="mask-type:alpha" maskUnits="userSpaceOnUse" x="0" y="18" width="111" height="31"><path d="M19.506 40.434c-10.763 7.42-19.416 8-19.416 8h110.25s-8.653-.58-19.417-8c-10.763-7.42-23.363-22-35.708-22-12.345 0-24.945 14.58-35.709 22Z" fill="#EAF6FF"/></mask><g mask="url(#a)"><path fill="#037DD6" stroke="#fff" stroke-width="2" d="M36.047 12.619H73.39v39.25H36.047z"/></g></svg>