<svg width="125" height="31" fill="none" xmlns="http://www.w3.org/2000/svg"><path d="M14.233 8.738h.93v6.22h3.43v.88h-4.36v-7.1Zm7.412 7.2c-.38 0-.73-.067-1.05-.2a2.679 2.679 0 0 1-.83-.56 2.569 2.569 0 0 1-.55-.82c-.126-.32-.19-.66-.19-1.02s.064-.697.19-1.01a2.54 2.54 0 0 1 .55-.83c.234-.233.51-.417.83-.55.32-.14.67-.21 1.05-.21.374 0 .72.07 1.04.21.32.133.597.317.83.55.234.233.414.51.54.83.134.313.2.65.2 1.01s-.066.7-.2 1.02a2.44 2.44 0 0 1-.54.82 2.68 2.68 0 0 1-.83.56c-.32.133-.666.2-1.04.2Zm0-.8c.26 0 .497-.047.71-.14.214-.093.394-.22.54-.38.154-.167.27-.357.35-.57.087-.22.13-.457.13-.71 0-.247-.043-.48-.13-.7-.08-.22-.196-.41-.35-.57a1.52 1.52 0 0 0-.54-.39 1.754 1.754 0 0 0-.71-.14c-.26 0-.496.047-.71.14a1.619 1.619 0 0 0-.55.39c-.153.16-.273.35-.36.57-.08.22-.12.453-.12.7 0 .253.04.49.12.71.087.213.207.403.36.57.154.16.337.287.55.38.214.093.45.14.71.14Zm6.825-2.89-1.23 3.59h-.76l-1.7-5h.9l1.21 3.65 1.25-3.65h.66l1.25 3.65 1.21-3.65h.91l-1.7 5h-.76l-1.24-3.59Z" fill="#F66A0A"/><path opacity=".3" d="M33.96 22.838c-10.764 7.42-19.417 8-19.417 8h110.25s-8.653-.58-19.416-8c-10.764-7.42-23.364-22-35.709-22-12.345 0-24.945 14.58-35.709 22Z" fill="#037DD6"/><mask id="a" style="mask-type:alpha" maskUnits="userSpaceOnUse" x="14" y="0" width="111" height="31"><path d="M33.96 22.705c-10.764 7.42-19.417 8-19.417 8h110.25s-8.653-.58-19.416-8c-10.764-7.42-23.364-22-35.709-22-12.345 0-24.945 14.58-35.709 22Z" fill="#EAF6FF"/></mask><g mask="url(#a)"><path fill="#F66A0A" stroke="#fff" stroke-width="2" d="M12.793 16.838h20.706v17.303H12.793z"/></g></svg>