<svg width="136" height="31" fill="none" xmlns="http://www.w3.org/2000/svg"><path d="M91.201 8.705h1.03l2.39 5.65 2.4-5.65h1.01l-3.02 7.1h-.78l-3.03-7.1Zm9.327 7.2a2.73 2.73 0 0 1-1.06-.2 2.431 2.431 0 0 1-1.35-1.37 2.91 2.91 0 0 1-.18-1.03c0-.367.063-.707.19-1.02.126-.32.303-.597.53-.83.233-.234.51-.417.83-.55.32-.134.67-.2 1.05-.2.326 0 .633.056.92.17.286.106.536.27.75.49.22.213.393.476.52.79.126.306.19.66.19 1.06v.13c0 .033-.004.076-.01.13h-4.1c.006.233.053.45.14.65.093.2.213.373.36.52.153.146.333.263.54.35.213.08.443.12.69.12.386 0 .703-.077.95-.23a1.82 1.82 0 0 0 .61-.64l.68.47a2.48 2.48 0 0 1-.91.87c-.374.213-.82.32-1.34.32Zm1.51-3.13a1.601 1.601 0 0 0-.19-.55c-.087-.16-.2-.297-.34-.41a1.431 1.431 0 0 0-.46-.26 1.645 1.645 0 0 0-.54-.09 1.73 1.73 0 0 0-1.04.35 1.5 1.5 0 0 0-.38.41c-.107.16-.18.343-.22.55h3.17Zm2.1-1.97h.86v.97c.047-.16.12-.304.22-.43a1.556 1.556 0 0 1 .74-.52c.147-.047.294-.07.44-.07.134 0 .264.013.39.04v.89a.78.78 0 0 0-.23-.06 1.342 1.342 0 0 0-.24-.02c-.16 0-.32.036-.48.11-.153.066-.293.17-.42.31-.12.14-.22.32-.3.54-.08.213-.12.466-.12.76v2.48h-.86v-5Zm4.032 7.09 1.09-2.35-2.19-4.74h.95l1.72 3.8 1.71-3.8h.96l-3.28 7.09h-.96Zm7.287-2.09v-7.5h.86v3.27c.173-.3.4-.52.68-.66s.583-.21.91-.21c.28 0 .536.046.77.14.233.093.43.23.59.41.166.173.296.386.39.64.093.246.14.523.14.83v3.08h-.85v-2.95c0-.42-.11-.75-.33-.99-.214-.247-.497-.37-.85-.37-.2 0-.39.04-.57.12-.174.08-.327.2-.46.36-.127.153-.23.343-.31.57-.074.226-.11.486-.11.78v2.48h-.86Zm6.328-6.34a.599.599 0 0 1-.62-.61c0-.167.06-.31.18-.43s.267-.18.44-.18a.602.602 0 0 1 .6.61c0 .173-.056.32-.17.44a.581.581 0 0 1-.43.17Zm-.44 1.34h.86v5h-.86v-5Zm4.671 4.19c.246 0 .473-.044.68-.13.213-.087.393-.207.54-.36.146-.16.26-.347.34-.56.086-.214.13-.447.13-.7 0-.247-.044-.477-.13-.69a1.588 1.588 0 0 0-.34-.56 1.542 1.542 0 0 0-.54-.36 1.637 1.637 0 0 0-.68-.14c-.254 0-.484.046-.69.14a1.548 1.548 0 0 0-.53.36c-.147.153-.264.34-.35.56-.08.213-.12.443-.12.69 0 .253.04.486.12.7.086.213.203.4.35.56.146.153.323.273.53.36.206.086.436.13.69.13Zm-.05 3c-.54 0-1.014-.1-1.42-.3-.407-.2-.717-.44-.93-.72l.6-.6c.2.253.443.456.73.61.293.153.633.23 1.02.23.213 0 .42-.034.62-.1.2-.067.376-.174.53-.32.16-.14.286-.32.38-.54.093-.214.14-.47.14-.77v-.57a2.032 2.032 0 0 1-.72.63c-.307.166-.647.25-1.02.25-.347 0-.67-.064-.97-.19-.3-.134-.56-.314-.78-.54a2.623 2.623 0 0 1-.52-.81 2.8 2.8 0 0 1-.18-1.01c0-.354.06-.684.18-.99.126-.314.3-.584.52-.81.22-.234.48-.414.78-.54.3-.134.623-.2.97-.2.373 0 .713.083 1.02.25.306.16.546.366.72.62v-.77h.86v4.71c0 .42-.067.783-.2 1.09-.127.313-.304.57-.53.77-.227.206-.494.36-.8.46-.307.106-.64.16-1 .16Zm4.149-2.19v-7.5h.86v3.27c.173-.3.4-.52.68-.66s.583-.21.91-.21c.28 0 .537.046.77.14.233.093.43.23.59.41.167.173.297.386.39.64.093.246.14.523.14.83v3.08h-.85v-2.95c0-.42-.11-.75-.33-.99-.213-.247-.497-.37-.85-.37-.2 0-.39.04-.57.12-.173.08-.327.2-.46.36-.127.153-.23.343-.31.57-.073.226-.11.486-.11.78v2.48h-.86Z" fill="#F66A0A"/><path opacity=".3" d="M19.506 22.805c-10.763 7.42-19.416 8-19.416 8h110.25s-8.653-.58-19.417-8c-10.763-7.42-23.363-22-35.708-22-12.345 0-24.945 14.58-35.709 22Z" fill="#037DD6"/><mask id="a" style="mask-type:alpha" maskUnits="userSpaceOnUse" x="0" y="0" width="111" height="31"><path d="M19.506 22.672c-10.763 7.42-19.416 8-19.416 8h110.25s-8.653-.58-19.417-8c-10.763-7.42-23.363-22-35.708-22-12.345 0-24.945 14.58-35.709 22Z" fill="#EAF6FF"/></mask><g mask="url(#a)"><path fill="#F66A0A" stroke="#fff" stroke-width="2" d="M91.986-5.143h20.706v39.25H91.986z"/></g></svg>