<svg xmlns="http://www.w3.org/2000/svg" id="prefix___3_5" width="88" height="25" data-name="_p3 – 5" viewBox="0 0 88 25">
    <g id="prefix__gr_68" data-name="gr 68" transform="translate(25.89 7.494)">
        <g id="prefix__gr_67" data-name="gr 67">
            <path id="prefix__p_59" d="M87.193 26.231a4.465 4.465 0 0 0-1.593-3.547 6.127 6.127 0 0 0-4.1-1.364h-5.51v2.461h5.515a3.062 3.062 0 0 1 2.077.721 2.358 2.358 0 0 1 .837 1.856 2.292 2.292 0 0 1-.83 1.828 3.134 3.134 0 0 1-2.081.689H78.8v-3.723h-2.806v6.176h5.515a5.891 5.891 0 0 0 4.081-1.455 4.73 4.73 0 0 0 1.603-3.642z" class="prefix__cls-1" data-name="p 59" transform="translate(-75.99 -21.32)"/>
            <path id="prefix__p_60" d="M117.53 26.237a4.712 4.712 0 0 0 1.61 3.638 5.891 5.891 0 0 0 4.081 1.455h4.84v-2.446h-4.84a3.1 3.1 0 0 1-2.07-.7 2.293 2.293 0 0 1-.83-1.821 2.363 2.363 0 0 1 .83-1.856 3.034 3.034 0 0 1 2.074-.721h4.84V21.33h-4.84a6.143 6.143 0 0 0-4.106 1.364 4.453 4.453 0 0 0-1.589 3.543z" class="prefix__cls-1" data-name="p 60" transform="translate(-102.928 -21.326)"/>
            <path id="prefix__p_61" d="M197.61 21.33h-2.81v5.884l-6.071-5.459a1.445 1.445 0 0 0-1.118-.411 1.171 1.171 0 0 0-.9.341 1.22 1.22 0 0 0-.313.868v8.781h2.805v-5.87l6.071 5.459a1.633 1.633 0 0 0 1.241.485c.738 0 1.1-.425 1.1-1.294V21.33z" class="prefix__cls-1" data-name="p 61" transform="translate(-147.589 -21.326)"/>
            <path id="prefix__p_62" d="M232.3 21.33h-11.05v2.461h4.123v7.544h2.805v-7.544h4.12z" class="prefix__cls-1" data-name="p 62" transform="translate(-170.188 -21.326)"/>
        </g>
    </g>
    <path id="prefix__p_63" d="M159.089 23.791l2.311-2.461h-10.02v10h9.533v-2.45h-6.728v-1.388h6.728v-2.348h-6.728v-1.353z" class="prefix__cls-1" data-name="p 63" transform="translate(-98.722 -13.832)"/>
    <path id="prefix__p_64" d="M110.2 22.723h-1.3l-.981-2.643h3.259z" class="prefix__cls-1" data-name="p 64" transform="translate(-70.348 -13.022)"/>
    <g id="prefix__gr_70" data-name="gr 70">
        <path id="prefix__p_65" d="M32.04 4.721l1.86-1.076V1.076L32.04 0z" class="prefix__cls-1" data-name="p 65" transform="translate(-20.777)"/>
        <path id="prefix__p_66" d="M4.4 15.906V8.679l6.23-3.593V0L.316 5.955A.632.632 0 0 0 0 6.5v11.948z" class="prefix__cls-1" data-name="p 66"/>
        <path id="prefix__p_67" d="M17.817 46.69l-6.229 3.6-6.193-3.579L.99 49.256l10.282 5.937a.635.635 0 0 0 .633 0l10.314-5.955h.007z" class="prefix__cls-1" data-name="p 67" transform="translate(-.642 -30.278)"/>
        <g id="prefix__gr_69" data-name="gr 69" transform="translate(13.094 3.596)">
            <path id="prefix__p_68" d="M45.732 12.589l-4.088-2.359v2.57l-4.394 2.534 4.394 2.534v4.626l4.4 2.541v-11.9a.647.647 0 0 0-.312-.546z" class="prefix__cls-1" data-name="p 68" transform="translate(-37.25 -10.23)"/>
        </g>
        <path id="prefix__p_69" d="M24.93 27.3v5.037l4.274-2.468V24.83z" class="prefix__cls-1" data-name="p 69" transform="translate(-16.167 -16.102)"/>
    </g>
</svg>
