<?xml version="1.0" encoding="UTF-8" standalone="no"?><!DOCTYPE svg PUBLIC "-//W3C//DTD SVG 1.1//EN" "http://www.w3.org/Graphics/SVG/1.1/DTD/svg11.dtd"><svg width="100%" height="100%" viewBox="0 0 80 78" version="1.1" xmlns="http://www.w3.org/2000/svg" xmlns:xlink="http://www.w3.org/1999/xlink" xml:space="preserve" xmlns:serif="http://www.serif.com/" style="fill-rule:evenodd;clip-rule:evenodd;"><g><circle cx="34" cy="34" r="34" style="fill:#fff;"/><circle cx="34" cy="34" r="32.5" style="fill:none;stroke:#38393a;stroke-width:3px;"/><g><circle cx="63" cy="61" r="17" style="fill:#fff;"/><circle cx="63" cy="61" r="15.5" style="fill:none;stroke:#38393a;stroke-width:3px;"/><path d="M65.077,59.423l6.423,0l0,4.154l-6.423,0l0,6.423l-4.154,0l0,-6.423l-6.423,0l0,-4.154l6.423,0l0,-6.423l4.154,0l0,6.423Z" style="fill:#38393a;"/></g><path id="logo" d="M46.869,31.127l-2.351,-4.049l5.225,-5.746l2.35,4.049l-5.224,5.746Zm-6.269,-3.787l3.37,-3.918l-4.845,0l-3.944,4.323l-1.815,-1.881l4.361,-4.793l11.623,0l-5.262,5.734l-3.488,0.535Zm5.877,4.048l-4.048,0.784l-2.481,-4.179l4.179,-0.653l2.35,4.048Zm-5.484,-5.224l-1.045,-2.22l3.003,0l-1.958,2.22Zm-0.693,3.422l-1.619,1.789l-3.16,-3.278l3.774,-4.153l1.332,2.573l-1.332,1.476l1.005,1.593Zm5.786,18.257l-22.593,-24.16l3.721,-3.657l22.79,24.16l-3.918,3.657Zm-28.993,-24.421l3.787,-3.657l5.877,0l-3.787,3.657l-5.877,0Zm19.59,21.025l1.436,-1.305l1.306,1.305l-2.742,0Zm8.881,3.788l-5.511,0l-3.41,-3.278l4.088,0.014l-16.847,-18.415l-2.873,0l3.8,4.271l-1.449,-0.222l-6.138,-6.53l5.876,0l22.464,24.16Zm-21.81,-21.157l2.742,3.004l-1.045,0.653l-3.395,-3.657l1.698,0Zm5.981,6.622l-6.112,6.7l7.444,0l-3.435,2.99l-10.277,0.013l10.617,-11.636l1.763,1.933Zm0.026,14.274l-10.186,0l-2.22,-4.049l10.186,0l2.22,4.049Zm-4.963,-8.097l5.277,-5.799l3.068,3.369l-2.207,2.43l-6.138,0Zm6.791,0.653l2.481,4.18l-3.656,3.133l-2.35,-4.179l3.525,-3.134Z" style="fill:#38393a;"/></g></svg>