<svg width="89" height="72" viewBox="0 0 89 72" fill="none" xmlns="http://www.w3.org/2000/svg">
<g clip-path="url(#clip0_8_44015)">
<path d="M88.2 25.9L68.3 38.6C84 26.2 84 12.9 84 12.9L63.2 33.2C77.2 10.3 72.1 0.800003 72.1 0.800003L55.5 28.4C51.9 27.4 48.1 26.9 44.4 26.9H44.1C40.3 26.9 36.6 27.4 33 28.4L16.4 0.800003C16.4 0.800003 10.6 9.49999 24.6 32.4L4.50002 12.9C4.50002 12.9 2.50001 24.8 19.2 37.9C19.1 38 0.300015 25.9 0.300015 25.9C0.300015 25.9 -0.199984 37.3 16.4 46.4V46.7C16.4 59.1 28.8 71.9 44.1 72H44.4C59.7 71.9 72.1 59.1 72.1 46.7V46.4C88.7 37.3 88.2 25.9 88.2 25.9ZM34.9 59.1C34.9 59.1 30 59.4 27.2 56.5C24.4 53.6 24.7 48.6 24.7 48.6C24.7 48.6 29.6 48.3 32.4 51.2C35.3 54.1 34.9 59.1 34.9 59.1ZM61.4 56.6C58.6 59.5 53.7 59.2 53.7 59.2C53.7 59.2 53.4 54.2 56.2 51.3C59 48.4 63.9 48.7 63.9 48.7C63.9 48.7 64.2 53.7 61.4 56.6Z" fill="url(#paint0_linear_8_44015)"/>
</g>
<defs>
<linearGradient id="paint0_linear_8_44015" x1="19.0169" y1="55.162" x2="71.8572" y2="-2.5074" gradientUnits="userSpaceOnUse">
<stop stop-color="#E61C58"/>
<stop offset="1" stop-color="#A84895"/>
</linearGradient>
<clipPath id="clip0_8_44015">
<rect width="89" height="72" fill="white"/>
</clipPath>
</defs>
</svg>
