<?xml version="1.0" encoding="utf-8"?>
<!-- Generator: Adobe Illustrator 16.0.0, SVG Export Plug-In . SVG Version: 6.00 Build 0)  -->
<!DOCTYPE svg PUBLIC "-//W3C//DTD SVG 1.1//EN" "http://www.w3.org/Graphics/SVG/1.1/DTD/svg11.dtd">
<svg version="1.1" id="Layer_1" xmlns="http://www.w3.org/2000/svg" xmlns:xlink="http://www.w3.org/1999/xlink" x="0px" y="0px"
	 width="24.088px" height="24px" viewBox="138.01 0 24.088 24" enable-background="new 138.01 0 24.088 24" xml:space="preserve" fill="#F7861C">
<g>
	<polygon fill="#F7861C" points="157.551,17.075 156.55,17.075 156.55,19.149 142.569,19.149 142.569,17.075 141.568,17.075 
		141.568,20.145 141.955,20.145 141.955,20.15 157.006,20.15 157.006,20.145 157.551,20.145 	"/>
	<polygon fill="#F7861C" points="152.555,10.275 152.555,11.26 152.555,11.268 151.562,11.268 151.562,12.252 150.565,12.252 
		150.565,4.171 149.564,4.171 149.564,12.236 148.564,12.236 148.564,11.252 147.564,11.252 147.564,11.236 147.564,11.221 
		147.564,10.236 146.563,10.236 146.563,11.221 146.563,11.236 146.563,12.221 147.563,12.221 147.563,12.236 147.563,12.252 
		147.563,13.236 148.563,13.236 148.563,14.221 149.564,14.221 149.564,15.725 150.565,15.725 150.565,14.236 151.563,14.236 
		151.563,13.252 152.563,13.252 152.563,12.268 152.563,12.26 153.556,12.26 153.556,11.275 153.556,11.26 153.556,10.275 	"/>
</g>
</svg>
