<svg width="13" height="13" viewBox="0 0 13 13" fill="none" xmlns="http://www.w3.org/2000/svg">
<path d="M8.66555 3.36981C8.38934 3.36981 8.19599 3.59078 8.18218 3.85319L8.26504 7.11251L4.30138 3.14884C4.10803 2.95549 3.83181 2.95549 3.63846 3.14884L3.19652 3.59078C3.01698 3.77032 3.00317 4.06035 3.19652 4.2537L7.16019 8.21736L3.92849 8.1345C3.65227 8.1345 3.44511 8.34166 3.4313 8.60406V9.21173C3.44511 9.47413 3.65227 9.68129 3.90087 9.68129H9.28703C9.53562 9.68129 9.74278 9.47413 9.74278 9.22554V3.83938C9.74278 3.59078 9.53562 3.38362 9.27322 3.36981H8.66555Z" fill="#D73A49"/>
</svg>
