<svg width="12" height="11" fill="none" xmlns="http://www.w3.org/2000/svg"><path d="M7.92 1.883a.189.189 0 0 0-.273 0L3.389 6.141l-.195 1.817c-.04.234.176.449.41.41l1.816-.196 4.258-4.257a.189.189 0 0 0 0-.274L7.92 1.883Zm3.165-.449-.958-.957a.766.766 0 0 0-1.074 0l-.683.684a.189.189 0 0 0 0 .273l1.757 1.758a.189.189 0 0 0 .274 0l.684-.684a.766.766 0 0 0 0-1.074ZM7.569 7.02v1.973h-6.25v-6.25h4.473c.078 0 .136-.02.175-.059l.782-.781c.136-.156.039-.41-.176-.41H1.006a.938.938 0 0 0-.937.937v6.875c0 .528.41.938.937.938h6.875c.508 0 .938-.41.938-.938V6.24c0-.215-.254-.313-.41-.176l-.782.781c-.039.04-.058.098-.058.176Z" fill="#037DD6"/></svg>
