<?xml version="1.0" encoding="utf-8"?>
<!-- Generator: Adobe Illustrator 27.0.0, SVG Export Plug-In . SVG Version: 6.00 Build 0)  -->
<svg version="1.1" id="Layer_1" xmlns="http://www.w3.org/2000/svg" xmlns:xlink="http://www.w3.org/1999/xlink" x="0px" y="0px"
	 viewBox="0 0 16 16" style="enable-background:new 0 0 16 16;" xml:space="preserve">
<style type="text/css">
	.st0{clip-path:url(#SVGID_00000049219081063209108480000015261406342604772797_);}
	.st1{fill:#00EDBE;}
	.st2{fill:#141BEB;}
</style>
<g>
	<defs>
		<rect id="SVGID_1_" width="16" height="16"/>
	</defs>
	<clipPath id="SVGID_00000049219159712989087530000003037092963150026668_">
		<use xlink:href="#SVGID_1_"  style="overflow:visible;"/>
	</clipPath>
	<g style="clip-path:url(#SVGID_00000049219159712989087530000003037092963150026668_);">
		<path class="st1" d="M8,0C6.4,0,4.9,0.5,3.6,1.4C2.4,2.3,1.4,3.5,0.8,5C0.2,6.5,0,8.1,0.4,9.6c0.3,1.5,1.1,3,2.2,4.1
			c1.1,1.1,2.5,1.9,4,2.2c1.5,0.3,3.1,0.1,4.6-0.5c1.4-0.6,2.7-1.6,3.5-2.9C15.5,11.1,16,9.6,16,8c0-2.1-0.9-4.2-2.4-5.7
			C12.1,0.8,10.1,0,8,0z"/>
		<path class="st2" d="M11.2,5c0-0.4,0.1-0.8,0.3-1.1H5c-0.1,0-0.1,0-0.2,0C4.8,4,4.7,4,4.7,4c0,0-0.1,0.1-0.1,0.1
			c0,0.1,0,0.1,0,0.2v1.4c0,0.1,0,0.1,0,0.2C4.6,6,4.6,6,4.7,6.1c0,0,0.1,0.1,0.1,0.1c0.1,0,0.1,0,0.2,0h6.4
			C11.2,5.8,11.1,5.4,11.2,5"/>
		<path class="st2" d="M3.5,8c0,0.4-0.1,0.8-0.3,1.1h6.4c0.1,0,0.1,0,0.2,0C9.9,9.1,10,9.1,10,9c0,0,0.1-0.1,0.1-0.1
			c0-0.1,0-0.1,0-0.2V7.3c0-0.1,0-0.1,0-0.2c0-0.1-0.1-0.1-0.1-0.1c0,0-0.1-0.1-0.1-0.1c-0.1,0-0.1,0-0.2,0H3.3
			C3.5,7.2,3.6,7.6,3.5,8"/>
		<path class="st2" d="M11.2,11c0-0.4,0.1-0.8,0.3-1.1H5c-0.1,0-0.1,0-0.2,0c-0.1,0-0.1,0.1-0.1,0.1c0,0-0.1,0.1-0.1,0.1
			c0,0.1,0,0.1,0,0.2v1.4c0,0.1,0,0.1,0,0.2c0,0.1,0.1,0.1,0.1,0.1c0,0,0.1,0.1,0.1,0.1c0.1,0,0.1,0,0.2,0h6.4
			C11.2,11.8,11.1,11.4,11.2,11"/>
	</g>
</g>
</svg>
