<?xml version="1.0" encoding="UTF-8"?>
<svg id="Layer_1" xmlns="http://www.w3.org/2000/svg" xmlns:xlink="http://www.w3.org/1999/xlink" viewBox="0 0 186 186"><defs><style>.cls-1{fill:url(#New_Gradient_Swatch_2-2);}.cls-2{fill:url(#New_Gradient_Swatch_2);}</style><linearGradient id="New_Gradient_Swatch_2" x1="110.9" y1="-10" x2="7.44" y2="168.13" gradientUnits="userSpaceOnUse"><stop offset="0" stop-color="#52ffd8"/><stop offset="1" stop-color="#0091eb"/></linearGradient><linearGradient id="New_Gradient_Swatch_2-2" x1="74.96" y1="195.43" x2="177.76" y2="18.19" xlink:href="#New_Gradient_Swatch_2"/></defs><path class="cls-2" d="M89.96,108.49l-11.22,2.58,23.1-32.65-13.79,2.99L140.23,7.3,55.87,97.14l23.32-4.93-32.73,34.29,22.21-4.76-13.24,26.34c-17.54-11.95-29.12-32.03-29.21-54.81-.14-36.73,29.63-66.72,66.36-66.86,7.72-.03,15.15,1.27,22.06,3.67l8.08-8.61c-9.29-3.9-19.49-6.03-30.18-5.99-42.76.16-77.41,35.08-77.25,77.83.1,27.03,14.1,50.82,35.18,64.62l-13.45,26.77,52.94-76.19Z"/><path class="cls-1" d="M135.15,28.07l13.5-26.75-52.18,74.11,13.79-2.99-23.1,32.65,11.22-2.58-52.94,76.19,83.26-91.31-19.94,4.24,28.52-33.59-19.33,4.1,12.23-24.23c17.57,11.94,29.17,32.05,29.26,54.85.14,36.73-29.63,66.72-66.36,66.86-7.9.03-15.49-1.33-22.54-3.84l-7.89,8.65c9.37,3.97,19.66,6.16,30.46,6.11,42.76-.16,77.41-35.08,77.25-77.83-.1-27.05-14.12-50.84-35.23-64.64Z"/></svg>