<svg width="60" height="60" viewBox="0 0 60 60" fill="none" xmlns="http://www.w3.org/2000/svg">
<path d="M12.881 29.231L8.26715 28.4034C7.5027 28.2663 6.77185 28.7749 6.63475 29.5394C6.49764 30.3038 7.00624 31.0347 7.7707 31.1718L12.3846 31.9993C13.149 32.1364 13.8799 31.6278 14.017 30.8634C14.1541 30.0989 13.6455 29.3681 12.881 29.231Z" fill="#43AEFC"/>
<path d="M14.8495 19.505L11.0772 16.7224C10.4522 16.2614 9.57177 16.3943 9.11082 17.0193C8.64987 17.6443 8.78269 18.5247 9.40769 18.9857L13.1799 21.7681C13.8049 22.229 14.6854 22.0962 15.1463 21.4712C15.6075 20.8464 15.4745 19.9659 14.8495 19.505Z" fill="#86E29B"/>
<path d="M18.3285 14.081C18.6642 14.7814 19.504 15.0769 20.2044 14.7412C20.9048 14.4054 21.2003 13.5656 20.8646 12.8652L18.8384 8.6384C18.5027 7.938 17.6628 7.6425 16.9624 7.97825C16.262 8.31399 15.9665 9.15385 16.3021 9.85425L18.3285 14.081Z" fill="#F66A0A"/>
<path d="M53.475 29.435C53.3378 28.6706 52.607 28.162 51.8426 28.2991L47.2287 29.1266C46.4643 29.2637 45.9557 29.9946 46.0928 30.759C46.2299 31.5235 46.9607 32.0321 47.7252 31.895L52.339 31.0674C53.1035 30.9303 53.6121 30.1995 53.475 29.435Z" fill="#EE82EE"/>
<path d="M47.3126 21.4335L50.9192 18.4393C51.5167 17.9433 51.5991 17.0567 51.103 16.4591C50.6069 15.8614 49.7204 15.7792 49.1227 16.2753L45.5161 19.2695C44.9186 19.7656 44.8362 20.6521 45.3323 21.2497C45.8284 21.8474 46.7149 21.9296 47.3126 21.4335Z" fill="#FFDF70"/>
<path d="M42.5635 7.97845C41.8631 7.64271 41.0232 7.93842 40.6875 8.6386L38.6613 12.8656C38.3256 13.566 38.6213 14.4058 39.3215 14.7416C40.0219 15.0773 40.8617 14.7816 41.1975 14.0814L43.2236 9.85445C43.5596 9.15405 43.2639 8.3142 42.5635 7.97845Z" fill="#E88F97"/>
<path d="M30.0259 11.25H30.0324C30.7972 11.2439 31.4123 10.6193 31.4064 9.85448L31.3703 5.12438C31.3642 4.35933 30.7394 3.74393 29.9744 3.74998H29.9679C29.2031 3.75604 28.588 4.38083 28.5939 5.14548L28.63 9.87558C28.6361 10.6406 29.2609 11.256 30.0259 11.25Z" fill="#BBC0C5"/>
<path d="M42.1845 26.259C42.0691 25.283 41.48 24.4316 40.6076 23.9807C39.931 23.6316 39.1625 23.5594 38.4336 23.7719L39.5836 21.5211C40.3681 19.9847 39.7598 18.0906 38.2271 17.2986C37.4783 16.9123 36.625 16.8414 35.823 17.0994C35.5805 17.1773 35.3537 17.2857 35.1418 17.4154C35.1217 17.184 35.0787 16.9531 35.0064 16.7264C34.7515 15.9266 34.1998 15.2738 33.4541 14.8889C32.7084 14.5039 31.857 14.432 31.0572 14.6869C30.7582 14.7822 30.4798 14.9191 30.2281 15.092C30.1207 14.0746 29.522 13.1283 28.5472 12.6248C27.0078 11.831 25.108 12.4353 24.3125 13.9748L21.4386 19.5393C20.2603 20.0666 19.299 21.0276 18.7837 22.2754L16.6638 27.4079C15.9722 29.0816 16.2179 31.0216 17.3046 32.4705L23.3386 40.516C23.399 40.5964 23.4324 40.6958 23.4324 40.7966V51.1816C23.4324 52.1828 24.0646 53.0722 25.0052 53.3953C26.2507 53.8238 28.2609 54.3328 30.7817 54.3328C32.5753 54.3328 34.6278 54.075 36.8462 53.3472C37.7956 53.0355 38.4337 52.1437 38.4337 51.1281V42.7351C38.4337 42.3392 38.6021 41.9597 38.896 41.6937C39.9796 40.7118 41.8478 38.5425 42.1874 34.9972V26.6882C42.1874 26.6186 42.1943 26.3432 42.1843 26.2589L42.1845 26.259ZM37.4685 25.6793C37.7138 25.2017 38.1314 24.8484 38.6431 24.6845C39.1548 24.522 39.7002 24.5664 40.1771 24.8136C40.7722 25.1208 41.1746 25.7021 41.2533 26.3687C41.2589 26.4144 41.2502 26.6187 41.2502 26.6883L41.2504 27.2415L41.2525 34.9521C40.9453 38.138 39.2498 40.1081 38.267 40.9986C38.2236 41.0378 38.1912 41.0859 38.1511 41.128C37.7478 41.5525 37.5101 42.1093 37.5005 42.697C37.5003 42.7097 37.4964 42.722 37.4964 42.7349V51.1279C37.4964 51.7376 37.1179 52.2714 36.5544 52.4564C31.4784 54.1218 27.3309 53.2034 25.3104 52.5091C24.7479 52.3156 24.3702 51.7822 24.3702 51.1816V40.7961C24.3702 40.4939 24.27 40.1941 24.0887 39.9529L18.0547 31.9079C17.1657 30.7224 16.9649 29.1349 17.5301 27.7655L19.65 22.633C19.8971 22.035 20.2694 21.5176 20.7287 21.1043C21.1289 20.7442 21.5992 20.4723 22.1076 20.2875C22.5619 20.1225 23.0453 20.0248 23.5488 20.0248H24.8402C25.5754 20.0246 26.3896 20.0244 27.2074 20.0242H27.2649C27.5992 20.0242 27.933 20.024 28.2629 20.024H28.3203C28.6041 20.024 28.883 20.0238 29.1561 20.0238L28.8406 20.6291C28.7129 20.8736 28.7221 21.1605 28.8654 21.3963C29.0082 21.632 29.2582 21.7731 29.5342 21.7731H32.3559C32.3625 21.7731 32.369 21.7715 32.3756 21.7715C32.3418 21.8477 32.3055 21.9229 32.2655 21.9963C32.2623 22.0022 32.2594 22.0084 32.2563 22.0143C32.1106 22.2772 31.9256 22.5201 31.7039 22.7358C31.1106 23.3135 30.3287 23.633 29.4965 23.6133L27.3272 23.5942C26.8569 23.5996 26.4182 23.8305 26.1545 24.2176C26.1319 24.251 26.102 24.2776 26.0821 24.3133L24.7885 26.6325L24.6571 26.868C24.443 27.252 24.419 27.7038 24.5917 28.1083C24.592 28.1092 24.592 28.1104 24.5926 28.1114C24.6721 28.2967 24.7907 28.4553 24.9333 28.5868C25.0579 28.7016 25.2047 28.7884 25.3653 28.8514C25.4184 28.8721 25.4688 28.8981 25.5249 28.9126C25.5438 28.9175 26.1393 29.0757 26.9448 29.4161C27.0848 29.4753 27.2317 29.5409 27.3825 29.6112C27.5213 29.676 27.6637 29.7456 27.8086 29.8202C28.2643 30.0547 28.7412 30.3381 29.1946 30.6739C29.3266 30.7717 29.4563 30.8739 29.583 30.9807C29.6313 31.0213 29.6788 31.0627 29.726 31.1047C29.8098 31.1793 29.892 31.2559 29.9721 31.3348C30.0588 31.4202 30.1428 31.5081 30.2243 31.5983C30.4331 31.8293 30.6241 32.076 30.7879 32.3409C30.8783 32.4868 30.9586 32.6391 31.0317 32.7954C31.0987 32.9385 31.1604 33.0846 31.211 33.2368C31.3584 33.6809 31.4319 34.1637 31.4067 34.687V38.3102C31.4067 38.5694 31.6162 38.779 31.8754 38.779C32.1346 38.779 32.3442 38.5694 32.3442 38.3102V37.7567L32.3438 34.7098C32.3776 34.009 32.269 33.3751 32.0629 32.7991C32.1559 32.7141 32.2449 32.6235 32.3199 32.5174L32.5119 32.2467C32.7188 32.2235 32.925 32.187 33.1279 32.1219C33.3281 32.0577 33.5189 31.9747 33.6986 31.8749C33.7234 32.2567 33.8219 32.6294 33.9875 32.9727L33.7939 33.5167C33.5441 34.2161 33.759 34.9802 34.2865 35.4632C34.4016 35.5686 34.5266 35.6651 34.6705 35.7395C34.9332 35.8751 35.217 35.9401 35.4983 35.9401C36.0723 35.9401 36.6354 35.669 36.9846 35.1766L37.4518 34.5176C37.4803 34.5094 37.5092 34.5063 37.5375 34.4973C38.2891 34.2565 38.9012 33.7366 39.261 33.0342L40.3112 30.9848C40.4294 30.7545 40.3381 30.4721 40.1079 30.354C39.8772 30.2358 39.5948 30.327 39.477 30.5573L38.4268 32.6067C38.319 32.8174 38.1729 32.9987 38.0051 33.1555C37.9989 33.0881 37.9948 33.0208 37.9786 32.9542C37.8839 32.5659 37.626 32.2382 37.271 32.0548L37.2034 32.0198L36.177 31.4893C35.8224 31.3067 35.4071 31.2856 35.0376 31.4317C34.8866 31.4913 34.754 31.5815 34.6349 31.6866C34.6347 31.3769 34.6974 31.0634 34.8485 30.7696L34.8823 30.704C34.9101 30.6559 34.9397 30.6093 34.9653 30.5595L36.1233 28.2933L37.4685 25.6793ZM30.219 20.0123H33.553C33.5421 20.041 33.5269 20.0672 33.5138 20.0947C33.4206 20.2931 33.2806 20.4617 33.1079 20.5873C33.0587 20.623 33.0069 20.655 32.9532 20.6836C32.9483 20.6861 32.944 20.6892 32.9392 20.6918C32.8405 20.7425 32.7351 20.7789 32.6255 20.8029C32.5374 20.8222 32.4478 20.8357 32.3556 20.8357H29.7903L30.2134 20.0234L30.219 20.0123ZM29.0425 29.4243C28.8144 29.2846 28.5866 29.1553 28.363 29.0381L28.4827 28.8692C28.6796 28.826 28.8733 28.7702 29.0585 28.6905C29.0241 28.9358 29.019 29.1817 29.0425 29.4243ZM25.862 27.3364C25.8962 27.2397 25.9665 27.1686 26.0519 27.1166C26.0739 27.1032 26.0913 27.0838 26.1161 27.0741C26.2357 27.0264 26.3661 27.0319 26.481 27.0924L27.5751 27.6579C27.691 27.7174 27.7714 27.82 27.8021 27.9458C27.8066 27.9647 27.8015 27.9831 27.8036 28.002C27.8158 28.1094 27.7968 28.2163 27.7329 28.3065L27.5052 28.6278C26.5695 28.2198 25.8468 28.0274 25.7582 28.0045C25.7132 27.993 25.675 27.976 25.6412 27.9563L25.862 27.3364ZM28.7237 27.8045C28.7188 27.7778 28.7196 27.7506 28.7132 27.7241C28.6185 27.3358 28.3606 27.0081 28.0056 26.8247L26.9114 26.2592C26.6745 26.1369 26.4093 26.0936 26.1481 26.1184L26.9003 24.7695C26.9841 24.6193 27.1622 24.5307 27.3159 24.5315L29.4853 24.5508C30.0484 24.5602 30.6001 24.4481 31.1103 24.2324L29.7747 26.8186C29.5384 27.276 29.1597 27.6069 28.7237 27.8045ZM30.3185 30.3131L30.463 29.9075C30.506 29.7858 30.5966 29.6922 30.7171 29.6452C30.7702 29.6241 30.8251 29.6135 30.8796 29.6135C30.9491 29.6135 31.0179 29.6299 31.082 29.6633L32.1761 30.2282C32.2919 30.2878 32.3724 30.3903 32.4031 30.5167C32.4337 30.643 32.4089 30.7708 32.3339 30.877L32.014 31.3282L31.6247 31.8772C31.4177 31.535 31.1751 31.2192 30.9083 30.928C30.7425 30.7469 30.5681 30.575 30.3864 30.4129C30.3603 30.3897 30.3337 30.3674 30.3073 30.3444L30.3185 30.3131ZM36.841 32.8875C36.9568 32.9471 37.0373 33.0496 37.0679 33.1754C37.0986 33.3018 37.0738 33.4299 36.9988 33.5362L36.8963 33.6809L36.2377 34.6098L36.2203 34.6344C35.9685 34.9891 35.4882 35.1072 35.1011 34.9063C35.0212 34.8649 34.9525 34.8104 34.8912 34.7498C34.6648 34.5262 34.5722 34.192 34.6656 33.8774C34.6701 33.8621 34.672 33.8465 34.6773 33.8315L35.0195 32.8696L35.1273 32.5667C35.1712 32.4444 35.2615 32.351 35.3818 32.3034C35.4349 32.2829 35.4902 32.2723 35.5447 32.2723C35.6138 32.2723 35.683 32.2887 35.747 32.3221L36.5818 32.7536L36.841 32.8875ZM36.1103 17.9915C36.3328 17.92 36.5613 17.8849 36.7883 17.8849C37.1354 17.8849 37.4799 17.9677 37.7973 18.1316C38.8725 18.6872 39.2996 20.0161 38.749 21.0943L35.2463 27.9493L34.089 30.1977C33.8963 30.5454 33.6207 30.8292 33.2843 31.0264C33.3572 30.7911 33.3738 30.5401 33.3144 30.2954C33.2197 29.9067 32.9619 29.579 32.6068 29.3954L31.5127 28.8305C31.1597 28.6483 30.7435 28.6268 30.3732 28.7733C30.2218 28.8329 30.089 28.9233 29.9699 29.0288C29.9832 28.7229 30.0554 28.4157 30.2035 28.126L33.6771 21.328C34.0086 21.0815 34.2756 20.7472 34.4287 20.3476C34.4972 20.1692 34.5017 19.9786 34.4592 19.7978L34.7039 19.3187L34.8049 19.123C34.8082 19.1165 34.8105 19.1099 34.8138 19.1034L34.8218 19.0878C35.0904 18.5618 35.5482 18.1722 36.1103 17.9913L36.1103 17.9915ZM31.3424 15.5802C31.9045 15.4013 32.5014 15.4515 33.0242 15.7222C33.5479 15.9923 33.9348 16.4501 34.1137 17.0112C34.2912 17.5692 34.242 18.1628 33.9754 18.6839L33.8744 18.8815L33.7613 19.1005C33.6936 19.085 33.6242 19.0749 33.5533 19.0749H29.9352C29.9067 19.0749 29.8797 19.0813 29.8524 19.0864C29.5174 19.0866 29.166 19.0866 28.8047 19.0868L30.0534 16.6694C30.3233 16.1458 30.7811 15.7591 31.3424 15.5802L31.3424 15.5802ZM25.1459 14.405C25.7035 13.3251 27.0365 12.8999 28.1172 13.4579C29.1974 14.0155 29.6223 15.3485 29.0642 16.4288L27.6914 19.0868C26.7136 19.087 25.7203 19.0872 24.84 19.0874H23.5486C23.2568 19.0874 22.9701 19.1142 22.6892 19.1611L25.1459 14.405Z" fill="black"/>
</svg>
