<svg width="72" height="72" viewBox="0 0 72 72" fill="none" xmlns="http://www.w3.org/2000/svg">
<path d="M64.6466 42.0758C65.1928 40.9076 63.9586 38.9167 62.667 38.9167L33.854 39.5686C31.3849 39.5686 29.1393 40.9961 28.0952 43.2295L19.3251 61.9885C18.4513 63.8577 19.8182 66.0002 21.8846 66.0002H51.6629C52.7603 66.0002 53.7583 65.3657 54.2224 64.3731L64.6466 42.0758Z" fill="#686E7D"/>
<path d="M59.0161 39.0001H37.0278C35.0778 39.0001 33.6548 39.0004 32.5249 39.1231C31.4076 39.2445 30.621 39.4824 29.936 39.9297C29.2498 40.378 28.7 41.0146 28.1089 42.0118C27.5124 43.0182 26.8958 44.3515 26.0532 46.1749L21.0483 57.0049C20.1728 58.8996 19.5403 60.271 19.2222 61.3389C18.9061 62.4 18.939 63.0398 19.2437 63.5421C19.5449 64.0385 20.075 64.3404 21.1245 64.502C22.1859 64.6654 23.6473 64.6671 25.6743 64.6671H48.7397C49.6125 64.6671 50.2276 64.6669 50.7114 64.6143C51.1825 64.5631 51.4846 64.4655 51.7397 64.2989C51.9961 64.1314 52.2146 63.8878 52.4653 63.4649C52.7215 63.0327 52.9889 62.4553 53.3657 61.6397L61.7378 43.5225C62.2876 42.3328 62.6756 41.4903 62.8696 40.8389C63.0617 40.1942 63.0249 39.8587 62.8755 39.6124C62.7296 39.372 62.4653 39.1983 61.8315 39.1006C61.1858 39.0012 60.2895 39.0001 59.0161 39.0001Z" fill="#131416" stroke="#686E7D"/>
<path d="M15.0491 29.0332C14.8247 27.7404 14.7126 27.0941 14.8841 26.5861C15.055 26.0797 15.4117 25.6568 15.8823 25.4022C16.3545 25.1469 17.0117 25.1469 18.3261 25.1469L46.0697 25.1469C47.5141 25.1469 48.2363 25.1469 48.8281 25.3957C49.4198 25.6447 49.9222 26.0667 50.2689 26.6063C50.6155 27.1458 50.7388 27.8561 50.9853 29.2767L54.0583 46.9873C54.2826 48.2801 54.3947 48.9264 54.2232 49.4344C54.0523 49.9408 53.6956 50.3637 53.225 50.6183C52.7528 50.8736 52.0956 50.8736 50.7812 50.8736H24.4373C22.5114 50.8736 21.5484 50.8736 20.7595 50.5418C19.9704 50.2099 19.3007 49.6472 18.8384 48.9278C18.3762 48.2084 18.2118 47.2613 17.8832 45.3671L15.0491 29.0332Z" fill="#131416"/>
<path d="M16.3701 24.6708H44.1133C44.8426 24.6708 45.3642 24.6716 45.7773 24.7011C46.1842 24.7302 46.4521 24.786 46.6777 24.8808C47.1765 25.0906 47.6006 25.4459 47.8926 25.9003C48.0247 26.1059 48.1254 26.3604 48.2236 26.7558C48.3232 27.1569 48.4117 27.6695 48.5361 28.3867L51.6094 46.0966C51.723 46.7514 51.8026 47.2129 51.835 47.5742C51.8669 47.931 51.8466 48.1399 51.793 48.2988C51.6625 48.6849 51.3906 49.0076 51.0312 49.2021C50.8833 49.2821 50.6801 49.3376 50.3223 49.3671C49.96 49.397 49.4908 49.3974 48.8252 49.3974H22.4814C21.5116 49.3974 20.81 49.3973 20.252 49.3574C19.6996 49.3179 19.3214 49.2409 18.9971 49.1044C18.3012 48.8117 17.7103 48.3158 17.3027 47.6816C17.1129 47.3861 16.973 47.0274 16.8398 46.4911C16.7053 45.9492 16.5854 45.2595 16.4199 44.3056L13.5859 27.9716C13.4724 27.3171 13.3927 26.8563 13.3604 26.4951C13.3284 26.1383 13.3479 25.9293 13.4014 25.7704C13.5318 25.3841 13.8045 25.0607 14.1641 24.8661C14.3121 24.7861 14.5151 24.7306 14.873 24.7011C15.2354 24.6713 15.7045 24.6708 16.3701 24.6708Z" fill="#686E7D" stroke="#686E7D"/>
<path d="M32.1373 35.9548C32.0643 35.3588 32.5294 34.8333 33.1299 34.8333H42.8701C43.3754 34.8333 43.8013 35.2102 43.8627 35.7117C43.9357 36.3077 43.4706 36.8333 42.8701 36.8333H33.1299C32.6246 36.8333 32.1987 36.4563 32.1373 35.9548Z" fill="#131416"/>
<path d="M33.1363 38.954C33.0638 38.3582 33.5288 37.8333 34.129 37.8333H40.871C41.3766 37.8333 41.8027 38.2106 41.8637 38.7125C41.9362 39.3083 41.4712 39.8333 40.871 39.8333H34.129C33.6234 39.8333 33.1973 39.4559 33.1363 38.954Z" fill="#131416"/>
<path d="M31.3314 30.6085C31.1591 29.6857 31.8672 28.8333 32.8059 28.8333H43.1941C43.9164 28.8333 44.5361 29.348 44.6686 30.058C44.8409 30.9808 44.1328 31.8333 43.1941 31.8333H32.8059C32.0836 31.8333 31.4639 31.3185 31.3314 30.6085Z" fill="#131416"/>
<ellipse cx="4.00991" cy="5.22276" rx="4.00991" ry="5.22276" transform="matrix(0.981223 -0.192878 0.157796 0.987472 18.894 28.3799)" fill="#131416"/>
<path d="M33.7362 49.6003C33.6107 48.1561 33.2694 46.7492 32.7318 45.46C32.1942 44.1707 31.4709 43.0244 30.603 42.0865C29.7352 41.1485 28.7399 40.4373 27.6739 39.9934C26.6079 39.5495 25.4921 39.3816 24.3903 39.4994C23.2885 39.6172 22.2222 40.0182 21.2522 40.6797C20.2823 41.3412 19.4277 42.2501 18.7373 43.3546C18.0469 44.4591 17.5343 45.7375 17.2285 47.1169C16.9228 48.4963 16.83 49.9496 16.9555 51.3938L25.3458 50.4971L33.7362 49.6003Z" fill="#131416"/>
<path d="M7.49441 44.3701C6.85277 43.1959 7.70419 41.7642 9.04416 41.7642L38.2686 41.7404C40.5942 41.7404 42.7341 43.0084 43.8477 45.0464L52.473 60.8308C55.5836 66.5234 25.1014 65.0241 20.4573 65.0241C19.4237 65.0241 18.4726 64.4605 17.9777 63.5548L7.49441 44.3701Z" fill="#131416"/>
<path d="M6.51687 45.3465C5.87523 44.1723 6.72665 42.7406 8.06662 42.7406H37.3324C39.658 42.7406 41.7979 44.0086 42.9115 46.0466L51.5368 61.831C52.5634 63.7098 51.2011 66.0004 49.0572 66.0004H35.456H19.4797C18.4461 66.0004 17.4951 65.4369 17.0002 64.5311L6.51687 45.3465Z" fill="#686E7D"/>
<path d="M10.6509 43.5928H32.8071C34.6667 43.5928 36.0247 43.5931 37.1069 43.7021C38.178 43.8101 38.9381 44.0218 39.606 44.4199C40.2735 44.818 40.8196 45.3856 41.4224 46.2754C42.0316 47.1747 42.6764 48.3675 43.5581 50.002L47.8315 57.9258C48.8401 59.7954 49.5688 61.1473 49.9507 62.2031C50.3305 63.2533 50.3176 63.8776 50.0229 64.3701C49.7281 64.8628 49.1832 65.1699 48.0767 65.334C46.9641 65.499 45.4256 65.5 43.2983 65.5H20.4712C19.6391 65.5 19.0513 65.4999 18.5874 65.4531C18.1348 65.4075 17.8409 65.3207 17.5913 65.1719C17.3418 65.0231 17.1263 64.8057 16.8716 64.4297C16.6106 64.0443 16.3314 63.5289 15.937 62.7979L7.98193 48.0508C7.34867 46.8769 6.90228 46.046 6.66943 45.4023C6.43868 44.7644 6.46831 44.4429 6.60889 44.208C6.74967 43.9728 7.01941 43.794 7.69189 43.6943C8.37023 43.5938 9.31506 43.5928 10.6509 43.5928Z" fill="#131416" stroke="#686E7D"/>
<mask id="path-13-inside-1_8138_4839" fill="white">
<path d="M55.5576 5.99957C56.8046 5.99957 57.8163 7.01044 57.8164 8.25739V13.1695C57.8164 13.7218 58.2641 14.1695 58.8164 14.1695H63.7471C64.9915 14.1697 65.9998 15.1789 66 16.4234C66 17.668 64.9916 18.6771 63.7471 18.6773H58.8164C58.2641 18.6773 57.8164 19.125 57.8164 19.6773V24.0269C57.8162 25.2738 56.8045 26.2847 55.5576 26.2847C54.3109 26.2845 53.3 25.2736 53.2998 24.0269V19.6773C53.2998 19.125 52.8521 18.6773 52.2998 18.6773H47.3682C46.1234 18.6772 45.1143 17.6681 45.1143 16.4234C45.1145 15.1788 46.1236 14.1696 47.3682 14.1695H52.2998C52.8521 14.1695 53.2998 13.7218 53.2998 13.1695V8.25739C53.2999 7.01058 54.3108 5.9998 55.5576 5.99957Z"/>
</mask>
<path d="M55.5576 5.99957C56.8046 5.99957 57.8163 7.01044 57.8164 8.25739V13.1695C57.8164 13.7218 58.2641 14.1695 58.8164 14.1695H63.7471C64.9915 14.1697 65.9998 15.1789 66 16.4234C66 17.668 64.9916 18.6771 63.7471 18.6773H58.8164C58.2641 18.6773 57.8164 19.125 57.8164 19.6773V24.0269C57.8162 25.2738 56.8045 26.2847 55.5576 26.2847C54.3109 26.2845 53.3 25.2736 53.2998 24.0269V19.6773C53.2998 19.125 52.8521 18.6773 52.2998 18.6773H47.3682C46.1234 18.6772 45.1143 17.6681 45.1143 16.4234C45.1145 15.1788 46.1236 14.1696 47.3682 14.1695H52.2998C52.8521 14.1695 53.2998 13.7218 53.2998 13.1695V8.25739C53.2999 7.01058 54.3108 5.9998 55.5576 5.99957Z" fill="#686E7D"/>
<path d="M55.5576 5.99957V5.69957H55.5576L55.5576 5.99957ZM57.8164 8.25739H58.1164V8.25736L57.8164 8.25739ZM63.7471 14.1695L63.7471 13.8695H63.7471V14.1695ZM66 16.4234H66.3V16.4234L66 16.4234ZM63.7471 18.6773V18.9773H63.7471L63.7471 18.6773ZM57.8164 24.0269L58.1164 24.027V24.0269H57.8164ZM55.5576 26.2847L55.5576 26.5847H55.5576V26.2847ZM53.2998 24.0269H52.9998V24.027L53.2998 24.0269ZM47.3682 18.6773L47.3681 18.9773H47.3682V18.6773ZM45.1143 16.4234L44.8143 16.4234V16.4234H45.1143ZM47.3682 14.1695V13.8695H47.3681L47.3682 14.1695ZM53.2998 8.25739L52.9998 8.25736V8.25739H53.2998ZM55.5576 5.99957V6.29957C56.639 6.29957 57.5163 7.17627 57.5164 8.25741L57.8164 8.25739L58.1164 8.25736C58.1163 6.8446 56.9701 5.69957 55.5576 5.69957V5.99957ZM57.8164 8.25739H57.5164V13.1695H57.8164H58.1164V8.25739H57.8164ZM58.8164 14.1695V14.4695H63.7471V14.1695V13.8695H58.8164V14.1695ZM63.7471 14.1695L63.747 14.4695C64.8257 14.4697 65.6998 15.3445 65.7 16.4235L66 16.4234L66.3 16.4234C66.2998 15.0134 65.1574 13.8698 63.7471 13.8695L63.7471 14.1695ZM66 16.4234H65.7C65.7 17.5025 64.8258 18.3771 63.747 18.3773L63.7471 18.6773L63.7471 18.9773C65.1574 18.977 66.3 17.8336 66.3 16.4234H66ZM63.7471 18.6773V18.3773H58.8164V18.6773V18.9773H63.7471V18.6773ZM57.8164 19.6773H57.5164V24.0269H57.8164H58.1164V19.6773H57.8164ZM57.8164 24.0269L57.5164 24.0269C57.5162 25.108 56.639 25.9847 55.5576 25.9847V26.2847V26.5847C56.9701 26.5847 58.1162 25.4396 58.1164 24.027L57.8164 24.0269ZM55.5576 26.2847L55.5577 25.9847C54.4766 25.9845 53.6 25.1079 53.5998 24.0269L53.2998 24.0269L52.9998 24.027C53 25.4393 54.1452 26.5845 55.5576 26.5847L55.5576 26.2847ZM53.2998 24.0269H53.5998V19.6773H53.2998H52.9998V24.0269H53.2998ZM52.2998 18.6773V18.3773H47.3682V18.6773V18.9773H52.2998V18.6773ZM47.3682 18.6773L47.3682 18.3773C46.2891 18.3772 45.4143 17.5024 45.4143 16.4234H45.1143H44.8143C44.8143 17.8338 45.9578 18.9772 47.3681 18.9773L47.3682 18.6773ZM45.1143 16.4234L45.4143 16.4234C45.4144 15.3445 46.2893 14.4696 47.3682 14.4695L47.3682 14.1695L47.3681 13.8695C45.9578 13.8696 44.8145 15.0132 44.8143 16.4234L45.1143 16.4234ZM47.3682 14.1695V14.4695H52.2998V14.1695V13.8695H47.3682V14.1695ZM53.2998 13.1695H53.5998V8.25739H53.2998H52.9998V13.1695H53.2998ZM53.2998 8.25739L53.5998 8.25741C53.5999 7.1763 54.4765 6.29977 55.5577 6.29957L55.5576 5.99957L55.5576 5.69957C54.1452 5.69983 52.9999 6.84486 52.9998 8.25736L53.2998 8.25739ZM52.2998 14.1695V14.4695C53.0178 14.4695 53.5998 13.8875 53.5998 13.1695H53.2998H52.9998C52.9998 13.5561 52.6864 13.8695 52.2998 13.8695V14.1695ZM53.2998 19.6773H53.5998C53.5998 18.9593 53.0178 18.3773 52.2998 18.3773V18.6773V18.9773C52.6864 18.9773 52.9998 19.2907 52.9998 19.6773H53.2998ZM58.8164 18.6773V18.3773C58.0984 18.3773 57.5164 18.9593 57.5164 19.6773H57.8164H58.1164C58.1164 19.2907 58.4298 18.9773 58.8164 18.9773V18.6773ZM57.8164 13.1695H57.5164C57.5164 13.8875 58.0984 14.4695 58.8164 14.4695V14.1695V13.8695C58.4298 13.8695 58.1164 13.5561 58.1164 13.1695H57.8164Z" fill="#686E7D" mask="url(#path-13-inside-1_8138_4839)"/>
<mask id="path-15-inside-2_8138_4839" fill="white">
<path d="M55.2759 6.56274C56.367 6.56274 57.2514 7.44722 57.2515 8.53833V13.7336C57.2515 14.2859 57.6992 14.7336 58.2515 14.7336H63.4644C64.5535 14.7337 65.436 15.6162 65.436 16.7053C65.436 17.7945 64.5535 18.6769 63.4644 18.677H58.2515C57.6992 18.677 57.2515 19.1247 57.2515 19.677V24.8723C57.2512 25.9633 56.3669 26.8479 55.2759 26.8479C54.1849 26.8478 53.3005 25.9632 53.3003 24.8723V19.677C53.3003 19.1247 52.8526 18.677 52.3003 18.677H47.0864C45.9975 18.6767 45.1147 17.7943 45.1147 16.7053C45.1148 15.6163 45.9975 14.7339 47.0864 14.7336H52.3003C52.8526 14.7336 53.3003 14.2859 53.3003 13.7336V8.53833C53.3003 7.44727 54.1848 6.56283 55.2759 6.56274Z"/>
</mask>
<path d="M55.2759 6.56274C56.367 6.56274 57.2514 7.44722 57.2515 8.53833V13.7336C57.2515 14.2859 57.6992 14.7336 58.2515 14.7336H63.4644C64.5535 14.7337 65.436 15.6162 65.436 16.7053C65.436 17.7945 64.5535 18.6769 63.4644 18.677H58.2515C57.6992 18.677 57.2515 19.1247 57.2515 19.677V24.8723C57.2512 25.9633 56.3669 26.8479 55.2759 26.8479C54.1849 26.8478 53.3005 25.9632 53.3003 24.8723V19.677C53.3003 19.1247 52.8526 18.677 52.3003 18.677H47.0864C45.9975 18.6767 45.1147 17.7943 45.1147 16.7053C45.1148 15.6163 45.9975 14.7339 47.0864 14.7336H52.3003C52.8526 14.7336 53.3003 14.2859 53.3003 13.7336V8.53833C53.3003 7.44727 54.1848 6.56283 55.2759 6.56274Z" fill="#131416"/>
<path d="M55.2759 6.56274V5.56274H55.2758L55.2759 6.56274ZM57.2515 8.53833H58.2515V8.53828L57.2515 8.53833ZM63.4644 14.7336L63.4644 13.7336H63.4644V14.7336ZM65.436 16.7053H66.436V16.7053L65.436 16.7053ZM63.4644 18.677V19.677H63.4644L63.4644 18.677ZM57.2515 24.8723L58.2515 24.8725V24.8723H57.2515ZM55.2759 26.8479L55.2758 27.8479H55.2759V26.8479ZM53.3003 24.8723H52.3003V24.8725L53.3003 24.8723ZM47.0864 18.677L47.0862 19.677H47.0864V18.677ZM45.1147 16.7053L44.1147 16.7053V16.7053H45.1147ZM47.0864 14.7336V13.7336H47.0862L47.0864 14.7336ZM53.3003 8.53833L52.3003 8.53828V8.53833H53.3003ZM55.2759 6.56274V7.56274C55.8147 7.56274 56.2514 7.99947 56.2515 8.53838L57.2515 8.53833L58.2515 8.53828C58.2514 6.89497 56.9193 5.56274 55.2759 5.56274V6.56274ZM57.2515 8.53833H56.2515V13.7336H57.2515H58.2515V8.53833H57.2515ZM58.2515 14.7336V15.7336H63.4644V14.7336V13.7336H58.2515V14.7336ZM63.4644 14.7336L63.4643 15.7336C64.0012 15.7337 64.436 16.1685 64.436 16.7053L65.436 16.7053L66.436 16.7053C66.436 15.0638 65.1057 13.7338 63.4644 13.7336L63.4644 14.7336ZM65.436 16.7053H64.436C64.436 17.2421 64.0012 17.677 63.4643 17.677L63.4644 18.677L63.4644 19.677C65.1057 19.6769 66.436 18.3468 66.436 16.7053H65.436ZM63.4644 18.677V17.677H58.2515V18.677V19.677H63.4644V18.677ZM57.2515 19.677H56.2515V24.8723H57.2515H58.2515V19.677H57.2515ZM57.2515 24.8723L56.2515 24.8721C56.2513 25.4111 55.8144 25.8479 55.2759 25.8479V26.8479V27.8479C56.9194 27.8479 58.2511 26.5154 58.2515 24.8725L57.2515 24.8723ZM55.2759 26.8479L55.276 25.8479C54.7374 25.8479 54.3004 25.411 54.3003 24.8721L53.3003 24.8723L52.3003 24.8725C52.3006 26.5154 53.6325 27.8478 55.2758 27.8479L55.2759 26.8479ZM53.3003 24.8723H54.3003V19.677H53.3003H52.3003V24.8723H53.3003ZM52.3003 18.677V17.677H47.0864V18.677V19.677H52.3003V18.677ZM47.0864 18.677L47.0867 17.677C46.5496 17.6769 46.1147 17.2418 46.1147 16.7053H45.1147H44.1147C44.1147 18.3469 45.4454 19.6766 47.0862 19.677L47.0864 18.677ZM45.1147 16.7053L46.1147 16.7053C46.1148 16.1688 46.5496 15.7338 47.0867 15.7336L47.0864 14.7336L47.0862 13.7336C45.4454 13.734 44.1148 15.0638 44.1147 16.7053L45.1147 16.7053ZM47.0864 14.7336V15.7336H52.3003V14.7336V13.7336H47.0864V14.7336ZM53.3003 13.7336H54.3003V8.53833H53.3003H52.3003V13.7336H53.3003ZM53.3003 8.53833L54.3003 8.53838C54.3003 7.9996 54.7371 7.56279 55.276 7.56274L55.2759 6.56274L55.2758 5.56274C53.6326 5.56287 52.3004 6.89495 52.3003 8.53828L53.3003 8.53833ZM52.3003 14.7336V15.7336C53.4049 15.7336 54.3003 14.8382 54.3003 13.7336H53.3003H52.3003V13.7336V14.7336ZM53.3003 19.677H54.3003C54.3003 18.5724 53.4049 17.677 52.3003 17.677V18.677V19.677V19.677H53.3003ZM58.2515 18.677V17.677C57.1469 17.677 56.2515 18.5724 56.2515 19.677H57.2515H58.2515V19.677V18.677ZM57.2515 13.7336H56.2515C56.2515 14.8382 57.1469 15.7336 58.2515 15.7336V14.7336V13.7336V13.7336H57.2515Z" fill="#686E7D" mask="url(#path-15-inside-2_8138_4839)"/>
</svg>
