<svg width="72" height="78" viewBox="0 0 72 78" fill="none" xmlns="http://www.w3.org/2000/svg">
<g filter="url(#filter0_f_8865_11392)">
<path d="M58.9088 69.3698C58.9088 71.1064 49.0546 72.5141 36.8987 72.5141C24.7429 72.5141 14.8887 71.1064 14.8887 69.3698C14.8887 67.6333 24.7429 66.2255 36.8987 66.2255C49.0546 66.2255 58.9088 67.6333 58.9088 69.3698Z" fill="#B7BBC8" fill-opacity="0.4"/>
</g>
<path d="M62.8231 32.3455L56.1913 58.5675C55.8352 59.9754 54.5218 60.9261 53.0731 60.8245L20.6246 58.55C18.6647 58.4126 17.3637 56.4597 17.9919 54.5981L26.2652 30.0809C26.6833 28.8419 27.8558 28.0164 29.1632 28.0406L59.9701 28.6105C61.902 28.6462 63.2968 30.4723 62.8231 32.3455Z" fill="#B7BBC8" fill-opacity="0.4"/>
<path d="M62.8231 32.3455L56.1913 58.5675C55.8352 59.9754 54.5218 60.9261 53.0731 60.8245L20.6246 58.55C18.6647 58.4126 17.3637 56.4597 17.9919 54.5981L26.2652 30.0809C26.6833 28.8419 27.8558 28.0164 29.1632 28.0406L59.9701 28.6105C61.902 28.6462 63.2968 30.4723 62.8231 32.3455Z" stroke="#858B9A" stroke-width="1.5"/>
<path d="M62.8231 32.3455L56.1913 58.5675C55.8352 59.9754 54.5218 60.9261 53.0731 60.8245L20.6246 58.55C18.6647 58.4126 17.3637 56.4597 17.9919 54.5981L26.2652 30.0809C26.6833 28.8419 27.8558 28.0164 29.1632 28.0406L59.9701 28.6105C61.902 28.6462 63.2968 30.4723 62.8231 32.3455Z" stroke="#858B9A" stroke-width="1.5"/>
<g opacity="0.5">
<path d="M63.075 31.2376L56.4209 59.2797C56.3147 59.7276 55.9843 60.0886 55.5477 60.2341C54.5524 60.5659 53.583 59.6681 53.8374 58.6503L60.8275 30.69C61.0281 29.8875 61.9818 29.5489 62.6436 30.0452C63.0118 30.3214 63.1813 30.7897 63.075 31.2376Z" fill="#858B9A"/>
<path d="M63.075 31.2376L56.4209 59.2797C56.3147 59.7276 55.9843 60.0886 55.5477 60.2341C54.5524 60.5659 53.583 59.6681 53.8374 58.6503L60.8275 30.69C61.0281 29.8875 61.9818 29.5489 62.6436 30.0452C63.0118 30.3214 63.1813 30.7897 63.075 31.2376Z" fill="#858B9A"/>
</g>
<path d="M62.8231 32.3455L56.1913 58.5675C55.8352 59.9754 54.5218 60.9261 53.0731 60.8245L20.6246 58.55C18.6647 58.4126 17.3637 56.4597 17.9919 54.5981L26.2652 30.0809C26.6833 28.8419 27.8558 28.0164 29.1632 28.0406L59.9701 28.6105C61.902 28.6462 63.2968 30.4723 62.8231 32.3455Z" stroke="#858B9A" stroke-width="1.5"/>
<path d="M62.8231 32.3455L56.1913 58.5675C55.8352 59.9754 54.5218 60.9261 53.0731 60.8245L20.6246 58.55C18.6647 58.4126 17.3637 56.4597 17.9919 54.5981L26.2652 30.0809C26.6833 28.8419 27.8558 28.0164 29.1632 28.0406L59.9701 28.6105C61.902 28.6462 63.2968 30.4723 62.8231 32.3455Z" stroke="#858B9A" stroke-width="1.5"/>
<path d="M14.093 21.0573C13.8687 19.7645 13.7565 19.1181 13.928 18.6101C14.099 18.1038 14.4556 17.6808 14.9263 17.4263C15.3984 17.1709 16.0556 17.1709 17.37 17.1709L45.1137 17.1709C46.5581 17.1709 47.2803 17.1709 47.872 17.4198C48.4638 17.6687 48.9661 18.0907 49.3128 18.6303C49.6595 19.1698 49.7827 19.8802 50.0292 21.3008L53.299 39.9455C53.5233 41.2383 53.6354 41.8847 53.4639 42.3926C53.293 42.899 52.9363 43.3219 52.4657 43.5765C51.9935 43.8319 51.3363 43.8319 50.0219 43.8319H23.6779C21.7521 43.8319 20.7891 43.8319 20.0002 43.5C19.2111 43.1681 18.5414 42.6054 18.0791 41.886C17.6169 41.1666 17.2558 39.2854 16.9271 37.3912L14.093 21.0573Z" fill="white"/>
<path d="M14.093 21.0573C13.8687 19.7645 13.7565 19.1181 13.928 18.6101C14.099 18.1038 14.4556 17.6808 14.9263 17.4263C15.3984 17.1709 16.0556 17.1709 17.37 17.1709L45.1137 17.1709C46.5581 17.1709 47.2803 17.1709 47.872 17.4198C48.4638 17.6687 48.9661 18.0907 49.3128 18.6303C49.6595 19.1698 49.7827 19.8802 50.0292 21.3008L53.299 39.9455C53.5233 41.2383 53.6354 41.8847 53.4639 42.3926C53.293 42.899 52.9363 43.3219 52.4657 43.5765C51.9935 43.8319 51.3363 43.8319 50.0219 43.8319H23.6779C21.7521 43.8319 20.7891 43.8319 20.0002 43.5C19.2111 43.1681 18.5414 42.6054 18.0791 41.886C17.6169 41.1666 17.2558 39.2854 16.9271 37.3912L14.093 21.0573Z" fill="#B7BBC8" fill-opacity="0.4"/>
<path d="M16.3701 18.671H44.1133C44.8426 18.671 45.3642 18.6717 45.7773 18.7012C46.1842 18.7304 46.4521 18.7861 46.6777 18.8809C47.1765 19.0907 47.6006 19.446 47.8926 19.9005C48.0247 20.106 48.1254 20.3605 48.2236 20.7559C48.3232 21.1571 48.4117 21.6696 48.5361 22.3868L51.6094 40.0967C51.723 40.7515 51.8026 41.213 51.835 41.5743C51.8669 41.9311 51.8466 42.1401 51.793 42.2989C51.6625 42.685 51.3906 43.0078 51.0312 43.2022C50.8833 43.2822 50.6801 43.3377 50.3223 43.3672C49.96 43.3971 49.4908 43.3975 48.8252 43.3975H22.4814C21.5116 43.3975 20.81 43.3974 20.252 43.3575C19.6996 43.318 19.3214 43.241 18.9971 43.1046C18.3012 42.8118 17.7103 42.3159 17.3027 41.6817C17.1129 41.3862 16.973 41.0276 16.8398 40.4913C16.7053 39.9493 16.5854 39.2596 16.4199 38.3057L13.5859 21.9717C13.4724 21.3172 13.3927 20.8564 13.3604 20.4952C13.3284 20.1385 13.3479 19.9294 13.4014 19.7706C13.5318 19.3842 13.8045 19.0608 14.1641 18.8663C14.3121 18.7862 14.5151 18.7307 14.873 18.7012C15.2354 18.6714 15.7045 18.671 16.3701 18.671Z" fill="#858B9A" stroke="#858B9A"/>
<path d="M33.1373 31.1215C33.0643 30.5255 33.5294 30 34.1299 30H43.8701C44.3754 30 44.8013 30.3769 44.8627 30.8785C44.9357 31.4745 44.4706 32 43.8701 32H34.1299C33.6246 32 33.1987 31.6231 33.1373 31.1215Z" fill="white"/>
<path d="M34.1363 34.1207C34.0638 33.525 34.5288 33 35.129 33H41.871C42.3766 33 42.8027 33.3774 42.8637 33.8793C42.9362 34.475 42.4712 35 41.871 35H35.129C34.6234 35 34.1973 34.6226 34.1363 34.1207Z" fill="white"/>
<path d="M32.3314 25.7752C32.1591 24.8525 32.8672 24 33.8059 24H44.1941C44.9164 24 45.5361 24.5147 45.6686 25.2248C45.8409 26.1475 45.1328 27 44.1941 27H33.8059C33.0836 27 32.4639 26.4853 32.3314 25.7752Z" fill="white"/>
<ellipse cx="4.00991" cy="5.22276" rx="4.00991" ry="5.22276" transform="matrix(0.981223 -0.192878 0.157796 0.987472 18.894 22.5468)" fill="white"/>
<path d="M33.7362 43.1644C33.6107 41.7202 33.2694 40.3133 32.7318 39.024C32.1942 37.7348 31.4709 36.5885 30.603 35.6505C29.7352 34.7126 28.7399 34.0013 27.6739 33.5574C26.6079 33.1135 25.4921 32.9457 24.3903 33.0634C23.2885 33.1812 22.2222 33.5823 21.2522 34.2438C20.2823 34.9052 19.4277 35.8142 18.7373 36.9187C18.0469 38.0232 17.5343 39.3016 17.2285 40.681C16.9228 42.0603 16.83 43.5136 16.9555 44.9579L25.3458 44.0611L33.7362 43.1644Z" fill="white"/>
<path d="M47.704 40.9706L54.7722 58.141C55.3371 59.5135 54.2629 61.0016 52.7824 60.8974L18.095 58.457C17.0701 58.3849 16.1533 57.7932 15.6654 56.889L7.52819 41.8091C6.41823 39.7521 7.98283 37.2721 10.3173 37.3881L45.0788 39.1162C46.2391 39.1739 47.2618 39.8963 47.704 40.9706Z" fill="white"/>
<g opacity="0.5">
<path d="M47.6036 39.8956L55.3261 58.3864C55.6466 59.1537 55.0829 59.9999 54.2514 59.9999C53.7939 59.9999 53.3788 59.7321 53.1903 59.3153L44.931 41.0579C44.4946 40.0933 45.2 38.9999 46.2588 38.9999C46.8467 38.9999 47.377 39.3531 47.6036 39.8956Z" fill="#858B9A"/>
<path d="M47.6036 39.8956L55.3261 58.3864C55.6466 59.1537 55.0829 59.9999 54.2514 59.9999C53.7939 59.9999 53.3788 59.7321 53.1903 59.3153L44.931 41.0579C44.4946 40.0933 45.2 38.9999 46.2588 38.9999C46.8467 38.9999 47.377 39.3531 47.6036 39.8956Z" fill="#858B9A"/>
<path d="M10.0296 37.5353L46.2103 39.1759C46.674 39.1969 47.0772 39.5006 47.2252 39.9406C47.4776 40.6906 46.897 41.4598 46.1065 41.4226L7.16335 39.5899C6.64893 39.5657 6.50263 38.8736 6.96324 38.6433L8.55202 37.8489C9.00973 37.62 9.51836 37.5121 10.0296 37.5353Z" fill="#858B9A"/>
<path d="M10.0296 37.5353L46.2103 39.1759C46.674 39.1969 47.0772 39.5006 47.2252 39.9406C47.4776 40.6906 46.897 41.4598 46.1065 41.4226L7.16335 39.5899C6.64893 39.5657 6.50263 38.8736 6.96324 38.6433L8.55202 37.8489C9.00973 37.62 9.51836 37.5121 10.0296 37.5353Z" fill="#858B9A"/>
</g>
<path d="M47.704 40.9706L54.7722 58.141C55.3371 59.5135 54.2629 61.0016 52.7824 60.8974L18.095 58.457C17.0701 58.3849 16.1533 57.7932 15.6654 56.889L7.52819 41.8091C6.41823 39.7521 7.98283 37.2721 10.3173 37.3881L45.0788 39.1162C46.2391 39.1739 47.2618 39.8963 47.704 40.9706Z" stroke="#858B9A" stroke-width="1.5"/>
<path d="M47.704 40.9706L54.7722 58.141C55.3371 59.5135 54.2629 61.0016 52.7824 60.8974L18.095 58.457C17.0701 58.3849 16.1533 57.7932 15.6654 56.889L7.52819 41.8091C6.41823 39.7521 7.98283 37.2721 10.3173 37.3881L45.0788 39.1162C46.2391 39.1739 47.2618 39.8963 47.704 40.9706Z" stroke="#858B9A" stroke-width="1.5"/>
<mask id="path-16-inside-1_8865_11392" fill="white">
<path d="M58.5576 0.999512C59.8046 0.999512 60.8163 2.01038 60.8164 3.25732V8.16943C60.8164 8.72172 61.2641 9.16943 61.8164 9.16943H66.7471C67.9915 9.16969 68.9998 10.1789 69 11.4233C69 12.668 67.9916 13.677 66.7471 13.6772H61.8164C61.2641 13.6772 60.8164 14.125 60.8164 14.6772V19.0269C60.8162 20.2737 59.8045 21.2847 58.5576 21.2847C57.3109 21.2844 56.3 20.2736 56.2998 19.0269V14.6772C56.2998 14.125 55.8521 13.6772 55.2998 13.6772H50.3682C49.1234 13.6772 48.1143 12.6681 48.1143 11.4233C48.1145 10.1788 49.1236 9.1695 50.3682 9.16943H55.2998C55.8521 9.16943 56.2998 8.72172 56.2998 8.16943V3.25732C56.2999 2.01052 57.3108 0.999738 58.5576 0.999512Z"/>
</mask>
<path d="M58.5576 0.999512C59.8046 0.999512 60.8163 2.01038 60.8164 3.25732V8.16943C60.8164 8.72172 61.2641 9.16943 61.8164 9.16943H66.7471C67.9915 9.16969 68.9998 10.1789 69 11.4233C69 12.668 67.9916 13.677 66.7471 13.6772H61.8164C61.2641 13.6772 60.8164 14.125 60.8164 14.6772V19.0269C60.8162 20.2737 59.8045 21.2847 58.5576 21.2847C57.3109 21.2844 56.3 20.2736 56.2998 19.0269V14.6772C56.2998 14.125 55.8521 13.6772 55.2998 13.6772H50.3682C49.1234 13.6772 48.1143 12.6681 48.1143 11.4233C48.1145 10.1788 49.1236 9.1695 50.3682 9.16943H55.2998C55.8521 9.16943 56.2998 8.72172 56.2998 8.16943V3.25732C56.2999 2.01052 57.3108 0.999738 58.5576 0.999512Z" fill="#858B9A"/>
<path d="M58.5576 0.999512V0.699512H58.5576L58.5576 0.999512ZM60.8164 3.25732H61.1164V3.2573L60.8164 3.25732ZM66.7471 9.16943L66.7471 8.86943H66.7471V9.16943ZM69 11.4233H69.3V11.4233L69 11.4233ZM66.7471 13.6772V13.9772H66.7471L66.7471 13.6772ZM60.8164 19.0269L61.1164 19.0269V19.0269H60.8164ZM58.5576 21.2847L58.5576 21.5847H58.5576V21.2847ZM56.2998 19.0269H55.9998V19.0269L56.2998 19.0269ZM50.3682 13.6772L50.3681 13.9772H50.3682V13.6772ZM48.1143 11.4233L47.8143 11.4233V11.4233H48.1143ZM50.3682 9.16943V8.86943H50.3681L50.3682 9.16943ZM56.2998 3.25732L55.9998 3.2573V3.25732H56.2998ZM58.5576 0.999512V1.29951C59.639 1.29951 60.5163 2.17621 60.5164 3.25735L60.8164 3.25732L61.1164 3.2573C61.1163 1.84454 59.9701 0.699512 58.5576 0.699512V0.999512ZM60.8164 3.25732H60.5164V8.16943H60.8164H61.1164V3.25732H60.8164ZM61.8164 9.16943V9.46943H66.7471V9.16943V8.86943H61.8164V9.16943ZM66.7471 9.16943L66.747 9.46943C67.8257 9.46965 68.6998 10.3444 68.7 11.4234L69 11.4233L69.3 11.4233C69.2998 10.0133 68.1574 8.86972 66.7471 8.86943L66.7471 9.16943ZM69 11.4233H68.7C68.7 12.5024 67.8258 13.377 66.747 13.3772L66.7471 13.6772L66.7471 13.9772C68.1574 13.977 69.3 12.8335 69.3 11.4233H69ZM66.7471 13.6772V13.3772H61.8164V13.6772V13.9772H66.7471V13.6772ZM60.8164 14.6772H60.5164V19.0269H60.8164H61.1164V14.6772H60.8164ZM60.8164 19.0269L60.5164 19.0268C60.5162 20.1079 59.639 20.9847 58.5576 20.9847V21.2847V21.5847C59.9701 21.5847 61.1162 20.4395 61.1164 19.0269L60.8164 19.0269ZM58.5576 21.2847L58.5577 20.9847C57.4766 20.9845 56.6 20.1079 56.5998 19.0268L56.2998 19.0269L55.9998 19.0269C56 20.4393 57.1452 21.5844 58.5576 21.5847L58.5576 21.2847ZM56.2998 19.0269H56.5998V14.6772H56.2998H55.9998V19.0269H56.2998ZM55.2998 13.6772V13.3772H50.3682V13.6772V13.9772H55.2998V13.6772ZM50.3682 13.6772L50.3682 13.3772C49.2891 13.3772 48.4143 12.5024 48.4143 11.4233H48.1143H47.8143C47.8143 12.8338 48.9578 13.9772 50.3681 13.9772L50.3682 13.6772ZM48.1143 11.4233L48.4143 11.4234C48.4144 10.3444 49.2893 9.46949 50.3682 9.46943L50.3682 9.16943L50.3681 8.86943C48.9578 8.86951 47.8145 10.0131 47.8143 11.4233L48.1143 11.4233ZM50.3682 9.16943V9.46943H55.2998V9.16943V8.86943H50.3682V9.16943ZM56.2998 8.16943H56.5998V3.25732H56.2998H55.9998V8.16943H56.2998ZM56.2998 3.25732L56.5998 3.25735C56.5999 2.17624 57.4765 1.29971 58.5577 1.29951L58.5576 0.999512L58.5576 0.699512C57.1452 0.699768 55.9999 1.8448 55.9998 3.2573L56.2998 3.25732ZM55.2998 9.16943V9.46943C56.0178 9.46943 56.5998 8.8874 56.5998 8.16943H56.2998H55.9998C55.9998 8.55603 55.6864 8.86943 55.2998 8.86943V9.16943ZM56.2998 14.6772H56.5998C56.5998 13.9593 56.0178 13.3772 55.2998 13.3772V13.6772V13.9772C55.6864 13.9772 55.9998 14.2906 55.9998 14.6772H56.2998ZM61.8164 13.6772V13.3772C61.0984 13.3772 60.5164 13.9593 60.5164 14.6772H60.8164H61.1164C61.1164 14.2906 61.4298 13.9772 61.8164 13.9772V13.6772ZM60.8164 8.16943H60.5164C60.5164 8.8874 61.0984 9.46943 61.8164 9.46943V9.16943V8.86943C61.4298 8.86943 61.1164 8.55603 61.1164 8.16943H60.8164Z" fill="#858B9A" mask="url(#path-16-inside-1_8865_11392)"/>
<mask id="path-18-inside-2_8865_11392" fill="white">
<path d="M58.2759 1.56271C59.367 1.56271 60.2514 2.44719 60.2515 3.5383V8.73361C60.2515 9.2859 60.6992 9.73361 61.2515 9.73361H66.4644C67.5535 9.73369 68.436 10.6162 68.436 11.7053C68.436 12.7944 67.5535 13.6769 66.4644 13.677H61.2515C60.6992 13.677 60.2515 14.1247 60.2515 14.677V19.8723C60.2512 20.9632 59.3669 21.8479 58.2759 21.8479C57.1849 21.8478 56.3005 20.9632 56.3003 19.8723V14.677C56.3003 14.1247 55.8526 13.677 55.3003 13.677H50.0864C48.9975 13.6767 48.1147 12.7943 48.1147 11.7053C48.1148 10.6163 48.9975 9.73387 50.0864 9.73361H55.3003C55.8526 9.73361 56.3003 9.2859 56.3003 8.73361V3.5383C56.3003 2.44724 57.1848 1.5628 58.2759 1.56271Z"/>
</mask>
<path d="M58.2759 1.56271C59.367 1.56271 60.2514 2.44719 60.2515 3.5383V8.73361C60.2515 9.2859 60.6992 9.73361 61.2515 9.73361H66.4644C67.5535 9.73369 68.436 10.6162 68.436 11.7053C68.436 12.7944 67.5535 13.6769 66.4644 13.677H61.2515C60.6992 13.677 60.2515 14.1247 60.2515 14.677V19.8723C60.2512 20.9632 59.3669 21.8479 58.2759 21.8479C57.1849 21.8478 56.3005 20.9632 56.3003 19.8723V14.677C56.3003 14.1247 55.8526 13.677 55.3003 13.677H50.0864C48.9975 13.6767 48.1147 12.7943 48.1147 11.7053C48.1148 10.6163 48.9975 9.73387 50.0864 9.73361H55.3003C55.8526 9.73361 56.3003 9.2859 56.3003 8.73361V3.5383C56.3003 2.44724 57.1848 1.5628 58.2759 1.56271Z" fill="white"/>
<path d="M58.2759 1.56271V0.562714H58.2758L58.2759 1.56271ZM60.2515 3.5383H61.2515V3.53825L60.2515 3.5383ZM66.4644 9.73361L66.4644 8.73361H66.4644V9.73361ZM68.436 11.7053H69.436V11.7053L68.436 11.7053ZM66.4644 13.677V14.677H66.4644L66.4644 13.677ZM60.2515 19.8723L61.2515 19.8725V19.8723H60.2515ZM58.2759 21.8479L58.2758 22.8479H58.2759V21.8479ZM56.3003 19.8723H55.3003V19.8725L56.3003 19.8723ZM50.0864 13.677L50.0862 14.677H50.0864V13.677ZM48.1147 11.7053L47.1147 11.7053V11.7053H48.1147ZM50.0864 9.73361V8.73361H50.0862L50.0864 9.73361ZM56.3003 3.5383L55.3003 3.53825V3.5383H56.3003ZM58.2759 1.56271V2.56271C58.8147 2.56271 59.2514 2.99944 59.2515 3.53834L60.2515 3.5383L61.2515 3.53825C61.2514 1.89494 59.9193 0.562714 58.2759 0.562714V1.56271ZM60.2515 3.5383H59.2515V8.73361H60.2515H61.2515V3.5383H60.2515ZM61.2515 9.73361V10.7336H66.4644V9.73361V8.73361H61.2515V9.73361ZM66.4644 9.73361L66.4643 10.7336C67.0012 10.7337 67.436 11.1685 67.436 11.7053L68.436 11.7053L69.436 11.7053C69.436 10.0638 68.1057 8.73373 66.4644 8.73361L66.4644 9.73361ZM68.436 11.7053H67.436C67.436 12.2421 67.0012 12.6769 66.4643 12.677L66.4644 13.677L66.4644 14.677C68.1057 14.6768 69.436 13.3468 69.436 11.7053H68.436ZM66.4644 13.677V12.677H61.2515V13.677V14.677H66.4644V13.677ZM60.2515 14.677H59.2515V19.8723H60.2515H61.2515V14.677H60.2515ZM60.2515 19.8723L59.2515 19.8721C59.2513 20.4111 58.8144 20.8479 58.2759 20.8479V21.8479V22.8479C59.9194 22.8479 61.2511 21.5154 61.2515 19.8725L60.2515 19.8723ZM58.2759 21.8479L58.276 20.8479C57.7374 20.8478 57.3004 20.411 57.3003 19.8721L56.3003 19.8723L55.3003 19.8725C55.3006 21.5154 56.6325 22.8477 58.2758 22.8479L58.2759 21.8479ZM56.3003 19.8723H57.3003V14.677H56.3003H55.3003V19.8723H56.3003ZM55.3003 13.677V12.677H50.0864V13.677V14.677H55.3003V13.677ZM50.0864 13.677L50.0867 12.677C49.5496 12.6768 49.1147 12.2418 49.1147 11.7053H48.1147H47.1147C47.1147 13.3468 48.4454 14.6766 50.0862 14.677L50.0864 13.677ZM48.1147 11.7053L49.1147 11.7053C49.1148 11.1688 49.5496 10.7337 50.0867 10.7336L50.0864 9.73361L50.0862 8.73361C48.4454 8.734 47.1148 10.0638 47.1147 11.7053L48.1147 11.7053ZM50.0864 9.73361V10.7336H55.3003V9.73361V8.73361H50.0864V9.73361ZM56.3003 8.73361H57.3003V3.5383H56.3003H55.3003V8.73361H56.3003ZM56.3003 3.5383L57.3003 3.53835C57.3003 2.99957 57.7371 2.56276 58.276 2.56271L58.2759 1.56271L58.2758 0.562714C56.6326 0.562841 55.3004 1.89492 55.3003 3.53825L56.3003 3.5383ZM55.3003 9.73361V10.7336C56.4049 10.7336 57.3003 9.83818 57.3003 8.73361H56.3003H55.3003V8.73361V9.73361ZM56.3003 14.677H57.3003C57.3003 13.5724 56.4049 12.677 55.3003 12.677V13.677V14.677V14.677H56.3003ZM61.2515 13.677V12.677C60.1469 12.677 59.2515 13.5724 59.2515 14.677H60.2515H61.2515V14.677V13.677ZM60.2515 8.73361H59.2515C59.2515 9.83818 60.1469 10.7336 61.2515 10.7336V9.73361V8.73361V8.73361H60.2515Z" fill="#858B9A" mask="url(#path-18-inside-2_8865_11392)"/>
<defs>
<filter id="filter0_f_8865_11392" x="9.88867" y="61.2255" width="54.02" height="16.2886" filterUnits="userSpaceOnUse" color-interpolation-filters="sRGB">
<feFlood flood-opacity="0" result="BackgroundImageFix"/>
<feBlend mode="normal" in="SourceGraphic" in2="BackgroundImageFix" result="shape"/>
<feGaussianBlur stdDeviation="2.5" result="effect1_foregroundBlur_8865_11392"/>
</filter>
</defs>
</svg>
