<svg viewBox="0 0 72.52 80.95" xmlns="http://www.w3.org/2000/svg" xmlns:xlink="http://www.w3.org/1999/xlink">
    <linearGradient id="a" gradientUnits="userSpaceOnUse" x1="41.95" x2="12.57" y1="2.57" y2="34.42">
        <stop offset=".58" stop-color="#a0a8d4"/>
        <stop offset=".73" stop-color="#8791c7"/>
        <stop offset=".91" stop-color="#6470b4"/>
    </linearGradient>
    <linearGradient id="b" x1="42.57" x2="71.96" xlink:href="#a" y1="81.66" y2="49.81"/>
    <linearGradient id="c" gradientUnits="userSpaceOnUse" x1="42.26" x2="42.26" y1="1.24" y2="82.84">
        <stop offset="0" stop-color="#513eff"/>
        <stop offset=".18" stop-color="#5157ff"/>
        <stop offset=".57" stop-color="#5298ff"/>
        <stop offset="1" stop-color="#52e5ff"/>
    </linearGradient>
    <path d="M15.28 34.39c.8 1.71 2.78 5.09 2.78 5.09L40.95 1.64l-22.34 15.6a9.75 9.75 0 00-3.18 3.5 16.19 16.19 0 00-.15 13.65z" fill="url(#a)" transform="translate(-6 -1.64)"/>
    <path d="M.21 45.21a25.47 25.47 0 0010 18.51l24.71 17.23S19.46 58.67 6.42 36.5a22.39 22.39 0 01-2.62-7.56 12.1 12.1 0 010-3.63c-.34.63-1 1.92-1 1.92a29.35 29.35 0 00-2.67 8.55 52.28 52.28 0 00.08 9.43z" fill="#a0a8d4"/>
    <path d="M69.25 49.84c-.8-1.71-2.78-5.09-2.78-5.09L43.58 82.59 65.92 67a9.75 9.75 0 003.18-3.5 16.19 16.19 0 00.15-13.66z" fill="url(#b)" transform="translate(-6 -1.64)"/>
    <path d="M72.32 35.74a25.47 25.47 0 00-10-18.51L37.61 0s15.45 22.28 28.5 44.45a22.39 22.39 0 012.61 7.56 12.1 12.1 0 010 3.63c.34-.63 1-1.92 1-1.92a29.35 29.35 0 002.67-8.55 52.28 52.28 0 00-.07-9.43z" fill="#a0a8d4"/>
    <path d="M15.43 20.74a9.75 9.75 0 013.18-3.5l22.34-15.6-22.89 37.85s-2-3.38-2.78-5.09a16.19 16.19 0 01.15-13.66zM6.21 46.85a25.47 25.47 0 0010 18.51l24.71 17.23s-15.46-22.28-28.5-44.45a22.39 22.39 0 01-2.62-7.56 12.1 12.1 0 010-3.63c-.34.63-1 1.92-1 1.92a29.35 29.35 0 00-2.67 8.55 52.28 52.28 0 00.08 9.43zm63 3c-.8-1.71-2.78-5.09-2.78-5.09L43.58 82.59 65.92 67a9.75 9.75 0 003.18-3.5 16.19 16.19 0 00.15-13.66zm9.07-12.46a25.47 25.47 0 00-10-18.51L43.61 1.64s15.45 22.28 28.5 44.45a22.39 22.39 0 012.61 7.56 12.1 12.1 0 010 3.63c.34-.63 1-1.92 1-1.92a29.35 29.35 0 002.67-8.55 52.28 52.28 0 00-.07-9.43z" fill="url(#c)" transform="translate(-6 -1.64)"/>
</svg>
