<?xml version="1.0" encoding="UTF-8"?>
<!DOCTYPE svg PUBLIC "-//W3C//DTD SVG 1.1//EN" "http://www.w3.org/Graphics/SVG/1.1/DTD/svg11.dtd">
<svg xmlns="http://www.w3.org/2000/svg" version="1.1" width="200px" height="200px" style="shape-rendering:geometricPrecision; text-rendering:geometricPrecision; image-rendering:optimizeQuality; fill-rule:evenodd; clip-rule:evenodd" xmlns:xlink="http://www.w3.org/1999/xlink">
<g><path style="opacity:0.986" fill="#000000" d="M 85.5,-0.5 C 94.8333,-0.5 104.167,-0.5 113.5,-0.5C 161.167,9.16667 189.833,37.8333 199.5,85.5C 199.5,94.8333 199.5,104.167 199.5,113.5C 189.833,161.167 161.167,189.833 113.5,199.5C 104.167,199.5 94.8333,199.5 85.5,199.5C 37.8333,189.833 9.16667,161.167 -0.5,113.5C -0.5,104.167 -0.5,94.8333 -0.5,85.5C 9.16667,37.8333 37.8333,9.16667 85.5,-0.5 Z"/></g>
<g><path style="opacity:1" fill="#3eb83d" d="M 100.5,12.5 C 100.5,29.1667 100.5,45.8333 100.5,62.5C 87.0345,69.3998 73.7011,76.5664 60.5,84C 55.9536,86.6152 51.287,88.6152 46.5,90C 63.8763,64.0802 81.3763,38.2468 99,12.5C 99.69,11.2617 100.19,11.2617 100.5,12.5 Z"/></g>
<g><path style="opacity:1" fill="#108315" d="M 100.5,12.5 C 118.702,38.5032 136.202,64.8366 153,91.5C 135.357,81.9323 117.857,72.2656 100.5,62.5C 100.5,45.8333 100.5,29.1667 100.5,12.5 Z"/></g>
<g><path style="opacity:1" fill="#108314" d="M 100.5,71.5 C 117.298,80.066 133.965,88.8993 150.5,98C 151.738,98.69 151.738,99.19 150.5,99.5C 133.766,100.069 117.099,101.403 100.5,103.5C 100.5,92.8333 100.5,82.1667 100.5,71.5 Z"/></g>
<g><path style="opacity:1" fill="#3cb83c" d="M 100.5,71.5 C 100.5,82.1667 100.5,92.8333 100.5,103.5C 83.4781,102.403 66.4781,101.07 49.5,99.5C 48.2617,99.19 48.2617,98.69 49.5,98C 66.2391,88.6307 83.2391,79.7974 100.5,71.5 Z"/></g>
<g><path style="opacity:1" fill="#186717" d="M 49.5,99.5 C 66.4781,101.07 83.4781,102.403 100.5,103.5C 100.5,111.167 100.5,118.833 100.5,126.5C 100.565,126.938 100.399,127.272 100,127.5C 83.024,118.266 66.1906,108.932 49.5,99.5 Z"/></g>
<g><path style="opacity:1" fill="#064c05" d="M 150.5,99.5 C 134.16,109.005 117.493,118.005 100.5,126.5C 100.5,118.833 100.5,111.167 100.5,103.5C 117.099,101.403 133.766,100.069 150.5,99.5 Z"/></g>
<g><path style="opacity:1" fill="#108315" d="M 100.5,185.5 C 100.5,168.833 100.5,152.167 100.5,135.5C 118.023,125.246 135.689,115.913 153.5,107.5C 135.81,133.566 118.144,159.566 100.5,185.5 Z"/></g>
<g><path style="opacity:1" fill="#3eb83d" d="M 100.5,135.5 C 100.5,152.167 100.5,168.833 100.5,185.5C 100.565,185.938 100.399,186.272 100,186.5C 81.8333,160.167 63.6667,133.833 45.5,107.5C 46.0016,106.479 46.6683,106.312 47.5,107C 64.8752,117.021 82.5419,126.521 100.5,135.5 Z"/></g>
</svg>
