<?xml version="1.0" encoding="UTF-8"?>
<!DOCTYPE svg PUBLIC "-//W3C//DTD SVG 1.1//EN" "http://www.w3.org/Graphics/SVG/1.1/DTD/svg11.dtd">
<svg xmlns="http://www.w3.org/2000/svg" version="1.1" width="200px" height="200px" style="shape-rendering:geometricPrecision; text-rendering:geometricPrecision; image-rendering:optimizeQuality; fill-rule:evenodd; clip-rule:evenodd" xmlns:xlink="http://www.w3.org/1999/xlink">
<g><path style="opacity:0.984" fill="#010101" d="M 85.5,-0.5 C 94.8333,-0.5 104.167,-0.5 113.5,-0.5C 161.167,9.16667 189.833,37.8333 199.5,85.5C 199.5,94.8333 199.5,104.167 199.5,113.5C 189.833,161.167 161.167,189.833 113.5,199.5C 104.167,199.5 94.8333,199.5 85.5,199.5C 37.8333,189.833 9.16667,161.167 -0.5,113.5C -0.5,104.167 -0.5,94.8333 -0.5,85.5C 9.16667,37.8333 37.8333,9.16667 85.5,-0.5 Z"/></g>
<g><path style="opacity:1" fill="#fafafa" d="M 100.5,12.5 C 100.5,29.1667 100.5,45.8333 100.5,62.5C 82.5321,71.983 64.5321,81.1497 46.5,90C 64.3712,64.4261 81.8712,38.5928 99,12.5C 99.69,11.2617 100.19,11.2617 100.5,12.5 Z"/></g>
<g><path style="opacity:1" fill="#d3d3d3" d="M 100.5,12.5 C 118.702,38.5032 136.202,64.8366 153,91.5C 135.714,81.4405 118.214,71.7738 100.5,62.5C 100.5,45.8333 100.5,29.1667 100.5,12.5 Z"/></g>
<g><path style="opacity:1" fill="#fbfbfb" d="M 100.5,71.5 C 100.5,82.1667 100.5,92.8333 100.5,103.5C 83.5369,101.676 66.5369,100.342 49.5,99.5C 48.2617,99.19 48.2617,98.69 49.5,98C 66.5535,89.1409 83.5535,80.3076 100.5,71.5 Z"/></g>
<g><path style="opacity:1" fill="#e9e9e9" d="M 100.5,71.5 C 116.675,80.4213 133.008,89.088 149.5,97.5C 147.342,99.22 144.675,100.053 141.5,100C 127.837,101.278 114.17,102.444 100.5,103.5C 100.5,92.8333 100.5,82.1667 100.5,71.5 Z"/></g>
<g><path style="opacity:1" fill="#e8e8e8" d="M 49.5,99.5 C 66.5369,100.342 83.5369,101.676 100.5,103.5C 100.5,111.167 100.5,118.833 100.5,126.5C 83.0173,118.261 66.0173,109.261 49.5,99.5 Z"/></g>
<g><path style="opacity:1" fill="#d4d4d4" d="M 149.5,97.5 C 151.233,98.0076 151.566,98.841 150.5,100C 133.965,109.101 117.298,117.934 100.5,126.5C 100.5,118.833 100.5,111.167 100.5,103.5C 114.17,102.444 127.837,101.278 141.5,100C 144.675,100.053 147.342,99.22 149.5,97.5 Z"/></g>
<g><path style="opacity:1" fill="#fbfbfb" d="M 99.5,135.5 C 99.8298,152.009 99.4964,168.342 98.5,184.5C 81.3878,158.881 64.0545,133.381 46.5,108C 64.3297,116.584 81.9963,125.75 99.5,135.5 Z"/></g>
<g><path style="opacity:1" fill="#d4d4d4" d="M 98.5,184.5 C 99.4964,168.342 99.8298,152.009 99.5,135.5C 117.678,126.494 135.512,116.827 153,106.5C 135.898,133.32 118.232,159.987 100,186.5C 99.2828,185.956 98.7828,185.289 98.5,184.5 Z"/></g>
</svg>
