<?xml version="1.0" encoding="UTF-8" standalone="no"?>
<svg viewBox="0 0 415.99531 660.69679" xmlns="http://www.w3.org/2000/svg" id="Layer_1" width="415.995" height="660.697" preserveAspectRatio="xMidYMid">
  <g id="g5417" fill="none" stroke="#2cd982" stroke-linecap="round" stroke-linejoin="round" stroke-miterlimit="10" stroke-width="4" transform="matrix(4.29023 0 0 4.29023 -676.53 -395.903)">
    <path id="polygon5387" d="M194.9 115.4l56.6 53.1-72.1-28.1z"/>
    <path id="polygon5389" d="M194.9 115.4l10.1 9.4 1.7-28.5z"/>
    <path id="path5391" d="M232.2 161l-7.4 50.6s13.6-22 13.8-22.2c.2-.2-6.4-28.4-6.4-28.4z"/>
    <path id="polygon5393" d="M203.9 150l28.3 11-27.4 16.8z"/>
    <path id="polygon5395" d="M193.4 219.3l38.8-58.3-54.3 33.2z"/>
    <path id="polygon5397" d="M232.2 161l-7.4 50.6-7.9-27.6z"/>
    <path id="polygon5399" d="M193.4 219.3l31.4-7.7-18.1 29.2z"/>
    <path id="polygon5401" d="M177.9 194.2l26.5-28.6-42.4 2.9z"/>
    <path id="polygon5403" d="M177.9 194.2l26.5-28.6.4 12.2z"/>
    <path id="polygon5405" d="M162 168.5l42.4-2.9-25-25.2z"/>
    <path id="polygon5407" d="M203.9 150l.5 15.6-25-25.2z"/>
    <path id="polygon5409" d="M232.2 161l19.3 7.5-12.9 20.9z"/>
    <path id="polygon5411" d="M193.4 219.3l31.4-7.7-7.9-27.6z"/>
    <path id="polygon5413" d="M224.8 143.5l26.7 25-44.8-72.2z"/>
    <path id="polygon5415" d="M205 124.8l19.8 18.7-18.1-47.2z"/>
  </g>
</svg>
