<?xml version="1.0" standalone="no"?><!DOCTYPE svg PUBLIC "-//W3C//DTD SVG 1.1//EN" "http://www.w3.org/Graphics/SVG/1.1/DTD/svg11.dtd"><svg t="1578467893631" class="icon" viewBox="0 0 1025 1024" version="1.1" xmlns="http://www.w3.org/2000/svg" p-id="6658" xmlns:xlink="http://www.w3.org/1999/xlink" width="200.1953125" height="200"><defs><style type="text/css"></style></defs><path d="M512 512m-512 0a512 512 0 1 0 1024 0 512 512 0 1 0-1024 0Z" fill="#009BFC" p-id="6659"></path><path d="M248.32 675.84l39.936 68.096h162.304l-40.96-69.12z" fill="#C6C6C6" p-id="6660"></path><path d="M472.064 623.104l-62.464 51.712 40.96 69.12 61.44-52.736z" fill="#D8D8D8" p-id="6661"></path><path d="M656.896 426.496l84.992-92.672 39.936 69.12-84.992 92.16z" fill="#FFFFFF" p-id="6662"></path><path d="M588.288 439.296l68.608-12.8 39.936 68.608-68.608 13.312z" fill="#D8D8D8" p-id="6663"></path><path d="M472.064 623.104H360.96l223.232-246.272h59.904l-55.808 62.464 68.608-12.8 84.992-92.672h-180.736L248.32 675.84l161.28-1.024z" fill="#FFFFFF" p-id="6664"></path><path d="M603.136 464.896l-142.848 158.208H360.96l223.232-246.272 23.552 40.96-19.456 21.504z" fill="#D8D8D8" p-id="6665"></path><path d="M644.096 376.832h-59.904l23.552 40.96z" fill="#C6C6C6" p-id="6666"></path><path d="M308.736 314.368L241.664 376.832l99.328 1.024 66.56-63.488z" fill="#FFFFFF" p-id="6667"></path><path d="M379.392 492.032l-44.032-13.824L241.664 376.832l99.328 1.024 339.968 368.128h-87.552L533.504 689.152h59.904L349.184 423.424h-32.256z" fill="#9B9B9B" p-id="6668"></path><path d="M407.552 314.368l-66.56 63.488 339.968 368.128 66.56-62.464zM316.928 423.424H349.184l48.128 51.712-17.92 16.896zM533.504 689.152h59.904l-27.648-30.208z" fill="#FFFFFF" p-id="6669"></path></svg>