<?xml version="1.0" standalone="no"?><!DOCTYPE svg PUBLIC "-//W3C//DTD SVG 1.1//EN" "http://www.w3.org/Graphics/SVG/1.1/DTD/svg11.dtd"><svg width="18" height="15" viewBox="0 0 18 15" fill="none" xmlns="http://www.w3.org/2000/svg"><path d="M12.0809 5.7846L12.7994 7.02802L15.1258 6.59139L17.9049 3.56592L16.5492 1.22004H10.7275L8.69902 3.43757L6.10675 0.614947H5.99902L2.83718 0.580566L0.580688 2.72819L3.65085 6.05162L5.16473 6.52607L5.66554 6.05162L5.98413 6.39542L0.809891 12.0567L2.1851 14.4083L7.40289 14.3682L9.47487 12.5862L8.11227 10.2609H8.02975L8.77581 9.43579L10.7034 11.533L9.67199 12.4807L11.7348 14.4358H14.5941L16.8517 12.3237L11.4678 6.45731L12.0809 5.7846ZM11.2386 6.20289L9.91265 4.75892L11.4792 3.02615L12.0408 3.98995L11.5216 4.56295L11.4368 4.65807L11.4999 4.7658L11.9044 5.46715L11.2386 6.20289ZM12.278 3.72063L11.8116 2.90811H13.0115L12.278 3.72063ZM12.3227 5.51758L11.9147 4.80934L13.7071 4.477L14.7683 6.31062L12.9748 6.64755L12.3227 5.51758ZM15.0731 6.14445L14.0096 4.31083L16.4163 1.68647L17.4786 3.52008L15.0731 6.14445ZM16.0621 1.56041L13.7071 4.12403L12.1118 4.42314L12.4556 4.03579L13.5306 2.84508L13.7816 2.56431H11.4334L11.3818 2.62046L9.67886 4.50451L8.93166 3.69198L10.8822 1.56041H16.0621ZM2.97356 0.92437L5.57271 0.95302L3.84567 2.59754L1.24767 2.56889L2.97356 0.92437ZM5.13264 6.08142L3.56031 4.35323H4.10467L5.43404 5.79835L5.13264 6.08142ZM6.98574 7.47955L4.16541 10.6047H7.53697L6.00246 11.8745L1.41842 11.9043L6.22135 6.65442L6.98574 7.47955ZM1.32216 12.2492L5.96694 12.2183L7.04189 14.0267L2.38451 14.0634L1.32216 12.2492ZM7.3857 13.9316L6.28782 12.0842L7.96787 10.693L9.0371 12.5128L7.3857 13.9316ZM1.21902 2.9127L3.83765 2.94135L14.1414 14.092H11.8803L10.3619 12.6572H12.2035L4.25824 4.00943H2.78676L4.5688 5.97598L3.84109 5.74678L1.21902 2.9127ZM6.00705 1.0149L16.3761 12.3054L14.5425 14.0233L4.15509 2.77747L6.00705 1.0149ZM10.9429 11.7885L11.4208 12.3134H10.3699L10.9429 11.7885ZM7.2138 7.74313L8.54431 9.18137L7.56791 10.2644H4.93553L7.2138 7.74313Z" fill="black" stroke="black" stroke-width="0.3"/></svg>
