<svg xmlns="http://www.w3.org/2000/svg" width="34" height="35" viewBox="0 0 34 35" fill="none">
  <g>
    <path d="M17 34C7.61116 34 0 26.3888 0 17C0 7.61116 7.61116 0 17 0C26.3888 0 34 7.61116 34 17C34 26.3888 26.3888 34 17 34Z" fill="#627EEA"/>
    <path d="M17.002 9.2998L17.1112 9.66445V20.245L17.002 20.3521L12.0032 17.449L17.002 9.2998Z" fill="#C0CBF6"/>
    <path d="M17.0007 9.2998L21.9997 17.449L17.0007 20.3521V15.2166V9.2998Z" fill="white"/>
    <path d="M17.0016 21.2806L17.0632 21.3543V25.1233L17.0016 25.2999L11.9997 18.379L17.0016 21.2806Z" fill="#C0CBF6"/>
    <path d="M17.0007 25.2999V21.2805L21.9997 18.3789L17.0007 25.2999Z" fill="white"/>
    <path d="M17.0023 20.3579L12.0035 17.4548L17.0023 15.2224V20.3579Z" fill="#8197EE"/>
    <path d="M21.9997 17.4546L17.0007 20.3577V15.2222L21.9997 17.4546Z" fill="#C0CBF6"/>
  </g>
</svg>