<?xml version="1.0" standalone="no"?><!DOCTYPE svg PUBLIC "-//W3C//DTD SVG 1.1//EN" "http://www.w3.org/Graphics/SVG/1.1/DTD/svg11.dtd"><svg width="50" height="50" viewBox="0 0 50 50" fill="none" xmlns="http://www.w3.org/2000/svg"><path fill-rule="evenodd" clip-rule="evenodd" d="M25 49C38.2548 49 49 38.2548 49 25C49 11.7452 38.2548 1 25 1C11.7452 1 1 11.7452 1 25C1 38.2548 11.7452 49 25 49Z" fill="white" stroke="#D8D8D8"/><mask id="mask0" mask-type="alpha" maskUnits="userSpaceOnUse" x="0" y="0" width="50" height="50"><path fill-rule="evenodd" clip-rule="evenodd" d="M25 49C38.2548 49 49 38.2548 49 25C49 11.7452 38.2548 1 25 1C11.7452 1 1 11.7452 1 25C1 38.2548 11.7452 49 25 49Z" fill="white" stroke="white"/></mask><g mask="url(#mask0)"><path d="M29.8892 22.0952L31.007 24.0294L34.6258 23.3502L38.9488 18.6439L36.8399 14.9947H27.7839L24.6285 18.4442L20.5961 14.0535H20.4285L15.5101 14L12 17.3407L16.7758 22.5105L19.1307 23.2486L19.9098 22.5105L20.4053 23.0453L12.3565 31.8518L14.4958 35.5098L22.6123 35.4475L25.8354 32.6754L23.7158 29.0583H23.5874L24.748 27.7748L27.7464 31.0371L26.142 32.5114L29.3508 35.5526H33.7986L37.3105 32.2671L28.9355 23.1416L29.8892 22.0952ZM28.5789 22.7458L26.5164 20.4997L28.9533 17.8042L29.8268 19.3035L29.0193 20.1948L28.8874 20.3428L28.9854 20.5104L29.6147 21.6014L28.5789 22.7458ZM30.1958 18.8846L29.4703 17.6206H31.3368L30.1958 18.8846ZM30.2654 21.6798L29.6307 20.5781L32.4188 20.0611L34.0696 22.9134L31.2797 23.4375L30.2654 21.6798ZM34.5438 22.6549L32.8895 19.8026L36.6331 15.7203L38.2857 18.5726L34.5438 22.6549ZM36.0823 15.5242L32.4188 19.5121L29.9374 19.9773L30.4722 19.3748L32.1443 17.5226L32.5347 17.0858H28.882L28.8018 17.1732L26.1527 20.1039L24.9904 18.84L28.0245 15.5242H36.0823ZM15.7222 14.5348L19.7654 14.5794L17.0789 17.1375L13.0375 17.093L15.7222 14.5348ZM19.0808 22.5569L16.635 19.8686H17.4817L19.5497 22.1166L19.0808 22.5569ZM21.9634 24.7317L17.5762 29.5931H22.8209L20.4339 31.5683L13.3031 31.6147L20.7744 23.4482L21.9634 24.7317ZM13.1534 32.1513L20.3786 32.1031L22.0508 34.9162L14.8059 34.9733L13.1534 32.1513ZM22.5856 34.7683L20.8778 31.8946L23.4912 29.7304L25.1544 32.5613L22.5856 34.7683ZM12.993 17.6278L17.0664 17.6723L33.0945 35.0178H29.5772L27.2152 32.7859H30.08L17.7206 19.3338H15.4317L18.2037 22.3929L17.0717 22.0363L12.993 17.6278ZM20.441 14.6756L36.5707 32.2386L33.7184 34.9109L17.5602 17.4174L20.441 14.6756ZM28.119 31.4346L28.8624 32.2511H27.2277L28.119 31.4346ZM22.3182 25.1418L24.3879 27.379L22.869 29.0637H18.7742L22.3182 25.1418Z" fill="black" stroke="black" stroke-width="0.3"/></g></svg>
