<?xml version="1.0" encoding="UTF-8"?>
<svg id="Layer_1" xmlns="http://www.w3.org/2000/svg" version="1.1" viewBox="-94 -94 700 700">
  <!-- Generator: Adobe Illustrator 29.4.0, SVG Export Plug-In . SVG Version: 2.1.0 Build 152)  -->
  <defs>
    <style>
      .st0 {
        fill: #38ff9c;
      }
    </style>
  </defs>
  <rect x="-94" y="-94" height="100%" width="100%" fill="black"/>
  <path class="st0" d="M300.14,234.71c-6.02,0-12.05-2.3-16.65-6.9-9.2-9.19-9.2-24.11,0-33.3l60.89-60.89c9.19-9.19,24.11-9.19,33.3,0,9.2,9.19,9.2,24.11,0,33.3l-60.89,60.89c-4.59,4.59-10.63,6.9-16.65,6.9Z"/>
  <path class="st0" d="M256,497.75c-133.31,0-241.76-108.45-241.76-241.75S122.69,14.24,256,14.24s241.76,108.45,241.76,241.76-108.45,241.76-241.76,241.76h0ZM256,61.33c-107.33,0-194.67,87.33-194.67,194.67s87.33,194.67,194.67,194.67,194.67-87.33,194.67-194.67S363.33,61.33,256,61.33Z"/>
  <path class="st0" d="M150.96,383.42c-6.02,0-12.05-2.3-16.65-6.9-9.19-9.19-9.2-24.11,0-33.3l60.89-60.89c9.19-9.19,24.11-9.2,33.3,0,9.19,9.2,9.2,24.11,0,33.3l-60.89,60.89c-4.59,4.59-10.63,6.9-16.65,6.9Z"/>
  <path class="st0" d="M250.73,171.24c-42.09,3.02-76.12,36.87-78.98,78.99-.15,2.28-1.15,4.43-2.78,6.05l-34.2,34.25c-1.93,1.95-5.28,1.07-5.98-1.59-2.77-10.6-4.49-21.98-4.49-33.3,0-72.8,59.22-132.03,132.02-132.03,11.86,0,23.37,1.58,34.31,4.52,2.21.6,2.94,3.37,1.32,5l-35.34,35.37c-1.58,1.58-3.67,2.56-5.89,2.72h0Z"/>
  <path class="st0" d="M342.68,254.78l35.37-35.35c1.62-1.62,4.4-.89,5,1.32,2.95,10.95,4.52,22.45,4.52,34.31,0,72.8-59.22,132.02-132.02,132.02-11.3,0-22.68-1.72-33.3-4.49-2.66-.7-3.53-4.04-1.59-5.98l34.25-34.2c1.62-1.62,3.77-2.61,6.05-2.78,42.13-2.85,75.97-36.88,78.99-78.98.17-2.23,1.15-4.31,2.72-5.89h.01Z"/>
</svg>