<?xml version="1.0" encoding="UTF-8"?>
<svg id="Layer_1" xmlns="http://www.w3.org/2000/svg" version="1.1" viewBox="-94 -94 700 700">
  <!-- Generator: Adobe Illustrator 29.4.0, SVG Export Plug-In . SVG Version: 2.1.0 Build 152)  -->
  <rect x="-94" y="-94" width="100%" height="100%" fill="white"></rect>
  <path style="fill: #2c2ce5;" d="M433.89,374.38c-5.17-91.44-120.2-133.01-131.21-137.28-.45,0-.45-.67,0-1.12l118.63-119.08v-12.81c0-2.02-1.8-3.82-3.82-3.82h-218.61V28.6h0V7.04l-80.66,16.85v12.13h4.49s19.77,0,19.77,19.77v44.26h-62.46c-1.12,0-2.25,1.12-2.25,2.25v28.08h64.93v152.55c0,47.86,30.78,81.11,84.7,76.61,11.46-.9,22.02-5.39,31.01-11.23,4.04-2.7,6.52-6.96,6.52-11.91v-15.05c-17.52,11.68-32.35,11.01-32.35,11.01-34.15,0-33.48-43.36-33.48-43.36v-158.62h157.27l-113.24,114.14c0,15.05-.45,26.74-.45,26.96,0,.45,0,.67.67.67,103.8,17.52,131.88,84.7,131.88,104.25,0,0,11.23,95.04-83.8,101.55,0,0-62.24,2.7-73.24-22.24-.45-.9,0-1.8.9-2.25,10.34-4.72,17.3-13.93,17.3-26.29,0-18.42-11.23-33.48-34.82-33.48s-34.82,15.05-34.82,33.48c0,0-8.99,79.98,124.47,77.74,152.33-2.7,142.89-130.54,142.89-130.54h-.22Z"/>
</svg>