<?xml version="1.0" encoding="UTF-8"?><svg id="Layer_1" xmlns="http://www.w3.org/2000/svg" xmlns:xlink="http://www.w3.org/1999/xlink" viewBox="0 0 165.18 166.75"><defs><linearGradient id="linear-gradient" x1="92.54" y1="47.12" x2="60.77" y2="162.86" gradientUnits="userSpaceOnUse"><stop offset="0" stop-color="#31abe2"/><stop offset="1" stop-color="#3a54a5"/></linearGradient></defs><circle cx="82.59" cy="83.38" r="75.95" fill="#7ad0e4"/><path d="m155.05,60.58c-1.11,6.63-3.78,14.07-9.63,20.32-2.9,3.1-8.59,9.17-17.2,10.5-8.08,1.24-11.6-2.8-18.08-.29-6.45,2.5-6.04,7.7-12.24,12.83-7.8,6.45-22.06,9.46-30.03,4.08-11.08-7.48-2.54-26.18-14.87-34.69-6.89-4.76-13.28-1.49-18.66-7.87-3.02-3.58-3.59-7.67-4.08-16.03-.33-5.56-.59-12.47-.55-20.53C15.48,42.68,6.64,61.99,6.64,83.38c0,41.94,34,75.95,75.95,75.95s75.95-34,75.95-75.95c0-7.94-1.22-15.6-3.48-22.8Z" fill="url(#linear-gradient)"/><path d="m40.46,33.67c.53,4.14,1.36,10.56,6.12,15.74,4.3,4.68,6.76,2.85,13.99,8.16,3.92,2.88,11.3,8.3,12.83,16.62.89,4.86-.54,7.01,1.51,9.91,3.32,4.69,11.42,3.88,12.24,3.79,8.34-.94,13.68-8.51,14.79-10.94.06-.13.19-.44.45-.82,1.51-2.25,4.54-2.89,7.15-3.11,6.54-.56,8.32,1.71,12.24,1.17,4.59-.64,7.53-4.47,9.91-7.58,6.5-8.48,9.17-21.41,10.29-30.54-13.92-17.45-35.35-28.64-59.41-28.64-15.26,0-29.47,4.51-41.37,12.25-.94,4.02-1.42,8.77-.75,13.99Z" fill="#31abe2"/><path d="m66.12,26.09c1.45,5.24,5.31,10.06,6.12,11.08,5.25,6.57,8.07,5.46,11.08,10.79,3.78,6.69,2.86,12.25,5.54,13.7,2.98,1.62,7.35,1.6,14.58-6.71,5.26-6.03,9.71,1.41,16.62-.58,7.1-2.05,10.88-8.91,12.24-11.37,2.57-4.66,3.32-9.58,3.1-14.19-13.67-13.23-32.29-21.38-52.81-21.38-4.75,0-9.39.44-13.9,1.27-2.46,4.89-4.31,11.14-2.57,17.39Z" fill="#56b8e9"/></svg>