<svg width="107" height="66" viewBox="0 0 107 66" fill="none" xmlns="http://www.w3.org/2000/svg">
<g clip-path="url(#clip0_6910_2365)">
<path d="M41.5694 2.2112C23.1164 9.25268 21.4265 27.3594 16.0866 35.8092C10.7468 44.2589 -1.55525 49.0203 0.134586 53.3793C1.82442 57.7384 14.1264 53.044 23.8599 55.8606C33.5934 58.6772 46.8417 70.8825 65.2947 63.841C69.7683 62.1284 73.8138 59.4725 77.1515 56.0568C80.4893 52.6411 83.0396 48.5471 84.6264 44.0577C84.7878 43.6931 84.7965 43.2799 84.6507 42.9089C84.505 42.5379 84.2166 42.2395 83.8491 42.0794C83.4816 41.9193 83.065 41.9107 82.6911 42.0553C82.3172 42.1999 82.0164 42.486 81.8551 42.8506C79.9487 46.6648 77.1258 49.955 73.6353 52.4314C70.1448 54.9077 66.0939 56.4941 61.8396 57.0507C57.5853 57.6073 53.2584 57.117 49.2401 55.623C45.2219 54.129 41.6359 51.6773 38.7981 48.4838C37.1561 46.6547 35.79 44.5991 34.7424 42.3812C34.4045 41.7776 34.1341 41.107 33.8637 40.5035C33.5934 39.8999 33.3906 39.1622 33.1878 38.4916C38.798 35.9433 45.1518 33.1937 52.4519 30.4442C59.752 27.6947 66.0382 25.4816 71.7837 23.738C75.7041 22.5309 79.2865 21.525 82.4634 20.7202L83.207 20.5861C83.44 20.522 83.6889 20.5489 83.9025 20.6611C84.1162 20.7733 84.2785 20.9625 84.356 21.1897C84.4765 21.4469 84.5672 21.7169 84.6264 21.9944C85.2873 23.7795 85.7849 25.6199 86.1135 27.4935C86.1444 27.673 86.2183 27.8425 86.3288 27.9878C86.4394 28.1332 86.5834 28.2502 86.7489 28.329C86.9143 28.4078 87.0964 28.4461 87.2798 28.4407C87.4633 28.4354 87.6428 28.3865 87.8033 28.2982C90.4395 26.8899 92.8728 25.4816 95.0358 24.2075C103.147 19.2449 107.608 15.02 106.662 12.6728C105.716 10.3257 99.6322 10.1245 90.3043 11.801C87.3302 12.3375 84.0181 13.0752 80.5032 14.0141L78.6782 14.4835C75.6365 15.2882 72.5272 16.16 69.2827 17.166C63.1993 19.0437 56.6427 21.3238 49.8834 23.8722C43.124 26.4205 37.649 28.7677 32.1063 31.2489C32.0792 26.9931 33.102 22.7953 35.0856 19.0216C37.0691 15.248 39.9531 12.0132 43.4861 9.59924C47.019 7.18532 51.0936 5.66563 55.3544 5.17273C59.6152 4.67982 63.9329 5.22867 67.9308 6.7714C68.222 6.87024 68.5354 6.88489 68.8346 6.81364C69.1339 6.7424 69.4065 6.58819 69.6207 6.36903C69.7833 6.20237 69.9041 6 69.9732 5.77835C70.0422 5.5567 70.0576 5.32202 70.0181 5.09336C69.9786 4.8647 69.8853 4.6485 69.7458 4.46233C69.6063 4.27615 69.4244 4.12525 69.2151 4.02187C65.0181 1.74038 60.3694 0.396244 55.5941 0.0834845C50.8188 -0.229275 46.0323 0.496895 41.5694 2.2112Z" fill="black"/>
</g>
<defs>
<clipPath id="clip0_6910_2365">
<rect width="106.798" height="65.9888" fill="white"/>
</clipPath>
</defs>
</svg>
