<svg width="18" height="18" viewBox="0 0 18 18" fill="none" xmlns="http://www.w3.org/2000/svg">
<path fill-rule="evenodd" clip-rule="evenodd" d="M9 18C13.9706 18 18 13.9706 18 9C18 4.02944 13.9706 0 9 0C4.02944 0 0 4.02944 0 9C0 13.9706 4.02944 18 9 18Z" fill="#FFC100"/>
<path d="M9 4.5C9.38463 4.5 9.70163 4.78953 9.74495 5.16253L9.75 5.25V11.25C9.75 11.6642 9.41421 12 9 12C8.61537 12 8.29837 11.7105 8.25505 11.3375L8.25 11.25V5.25C8.25 4.83579 8.58579 4.5 9 4.5Z" fill="white"/>
<path fill-rule="evenodd" clip-rule="evenodd" d="M9 14.25C9.41421 14.25 9.75 13.9142 9.75 13.5C9.75 13.0858 9.41421 12.75 9 12.75C8.58579 12.75 8.25 13.0858 8.25 13.5C8.25 13.9142 8.58579 14.25 9 14.25Z" fill="white"/>
</svg>

