<svg height="16" viewBox="0 0 16 16" width="16" xmlns="http://www.w3.org/2000/svg"><g fill="#fff"><path d="m15.4802977.06475437c-.1025949-.04204829-.2110765-.06475437-.3212399-.06475437h-5.0456532c-.46420012 0-.84094222.37675272-.84094222.84096588 0 .46505413.3767421.84096588.84094222.84096588h3.0156187l-4.34908367 4.34920615c-.3288084.32881766-.3288084.86114906 0 1.18912575.16398373.16482932.37926494.24640301.59454614.24640301.21528121 0 .43056241-.08157369.59454614-.24640301l4.34908369-4.34920614v3.01570365c0 .46505414.3767421.84096588.8409422.84096588s.8409422-.37591174.8409422-.84096588v-5.04579529c0-.10932556-.0218645-.21781016-.0647525-.32124897-.0857762-.20519567-.2489189-.36918402-.4549498-.45496254z"/><path d="m6.94696439 8.59808771c-.10259495-.0420483-.2110765-.06475438-.32123993-.06475438h-5.04565322c-.46420009 0-.8409422.37675272-.8409422.84096589 0 .46505413.37674211.84096588.8409422.84096588h3.01561875l-4.34908369 4.3492061c-.3288084.3288177-.3288084.8611491 0 1.1891258.16398373.1648293.37926494.246403.59454614.246403s.43056241-.0815737.59454614-.246403l4.34908368-4.3492061v3.0157036c0 .4650541.37674211.8409659.8409422.8409659.4642001 0 .84094221-.3759118.84094221-.8409659v-5.04579528c0-.10932557-.0218645-.21781017-.06475255-.32124897-.08577611-.20519568-.2489189-.36918402-.45494973-.45496254z" transform="matrix(-1 0 0 -1 7.466666 24.533334)"/></g></svg>