<?xml version="1.0" encoding="UTF-8"?><svg id="Layer_1" xmlns="http://www.w3.org/2000/svg" viewBox="0 0 425.2 425.2"><defs><style>.cls-1{fill:#e62359;}</style></defs><path class="cls-1" d="M299.96,168.13l-177.15-.13c-48.29,0-88.46,38.19-89.72,87.28-.03,1.31,1.04,2.39,2.36,2.4l177.15,.11v.03c48.29,0,88.46-38.19,89.72-87.28,.03-1.31-1.04-2.39-2.36-2.4Z"/><path class="cls-1" d="M389.74,33.65l-266.93-.13c-48.29,0-88.46,38.19-89.72,87.28-.03,1.31,1.04,2.39,2.36,2.4l266.93,.11v.03c48.29,0,88.46-38.19,89.72-87.28,.03-1.31-1.04-2.39-2.36-2.4Z"/><circle class="cls-1" cx="77.98" cy="346.79" r="44.89" transform="translate(-126.77 56.24) rotate(-22.5)"/></svg>