<svg width="578" height="578" viewBox="0 0 578 578" fill="none" xmlns="http://www.w3.org/2000/svg">
<g clip-path="url(#clip0_32_616)">
<path d="M485.998 485.996C594.857 377.137 594.857 200.643 485.998 91.784C377.14 -17.0746 200.645 -17.0746 91.7861 91.784C-17.0725 200.643 -17.0725 377.137 91.7861 485.996C200.645 594.855 377.14 594.855 485.998 485.996Z" fill="#E62058"/>
<path d="M363.35 264.89L231.04 264.79C194.97 264.79 164.97 293.31 164.03 329.98C164 330.96 164.81 331.77 165.79 331.77L298.1 331.85V331.87C334.17 331.87 364.17 303.35 365.11 266.68C365.14 265.7 364.33 264.89 363.35 264.89Z" fill="white"/>
<path d="M430.41 164.45L231.05 164.35C194.98 164.35 164.98 192.87 164.04 229.54C164.01 230.52 164.82 231.33 165.8 231.33L365.16 231.41V231.43C401.23 231.43 431.23 202.91 432.17 166.24C432.2 165.26 431.39 164.45 430.41 164.45Z" fill="white"/>
<path d="M197.56 431.86C216.078 431.86 231.09 416.848 231.09 398.33C231.09 379.812 216.078 364.8 197.56 364.8C179.042 364.8 164.03 379.812 164.03 398.33C164.03 416.848 179.042 431.86 197.56 431.86Z" fill="white"/>
</g>
<defs>
<clipPath id="clip0_32_616">
<rect width="577.78" height="577.78" fill="white"/>
</clipPath>
</defs>
</svg>
