<svg xmlns="http://www.w3.org/2000/svg" width="375" height="375" viewBox="0 0 375 375" fill="none">
<rect x="0.121094" y="0.121094" width="374.657" height="374.657" rx="42.4242" fill="black"/>
<path d="M289.875 133.141V106.976H95.8896V133.141H182.229C165.934 142.963 151.374 155.267 139.049 169.498H95.8896V195.663H120.206C104.768 221.747 95.8896 252.034 95.8896 284.31H122.545C122.545 251.193 133.471 220.557 151.938 195.643H202.325C176.254 216.723 159.584 248.65 159.584 284.31H186.239C186.239 235.403 226.766 195.643 276.568 195.643H289.896V169.477H176.567C203.495 146.839 238.423 133.12 276.568 133.12H289.896L289.875 133.141Z" fill="white"/>
</svg>
