<svg xmlns="http://www.w3.org/2000/svg" viewBox="0 0 865.21 811.6"><g data-name="Layer 2"><g data-name="Layer 6"><path d="M164.19 482.24a17.47 17.47 0 0 0-1.77.08c-5.32.5-6.81 2.31-6.81 7.89q0 149 .07 298.09c0 12.19-8.88 23.45-23.12 23.3-36.63-.4-73.27-.29-109.9-.06-14.43.09-22.59-8.4-22.6-22.49Q0 637.74.15 486.44c0-14.22 6.14-21.05 21.12-21.18 30.11-.26 60.22 0 90.33-.13a27.42 27.42 0 0 0 17.4-5.85c5.94-4.68 7.41-11.27 7.48-18q.39-36.39 0-72.77a22.6 22.6 0 0 0-23.14-22.84c-27.59.34-55.2.16-82.8.06a97.28 97.28 0 0 1-15.84-1.13c-6.19-1-11-4.41-12.67-10.92-.91-3.63-1.91-7.37-1.92-11.06q-.18-70.26 0-140.52c0-6.56.6-13.46 6.47-17.87 2.62-2 6-3.78 9.18-4 10.94-.78 21.93-1 32.91-1.13 14.55-.17 29.1.07 43.66-.09 8-.09 15.94-.4 23.88-1 6.29-.5 11.12-4.36 15.92-8.07 5.85-4.52 11.66-9.08 17.56-13.53 6.51-4.91 7.9-11.89 7.91-19.37q.06-49.68 0-99.36c0-9.29 6.86-16.15 16.28-16.16h97.35c192-.32 397.84-1.14 590-1.45a3.92 3.92 0 0 1 3.93 3.92v9.82a3.93 3.93 0 0 1-3.92 3.92H753.83a30.13 30.13 0 0 0-21.72 9c-32.25 32.27-64.45 64.64-96.92 96.74-9.65 9.55-20 18.4-30.26 27.31-6.85 5.95-15.35 8.19-24.19 8.2q-154.58.15-309.14.11c-30.38 0-60.76.46-91.14 1.06-8.4.17-17 1.25-21.47 10.13-1.21 2.4-1.68 5.19-2.34 7.83a13.05 13.05 0 0 0 0 3l-1 107.7c-.11 10-9.6 18.76-20.3 18.77-33.29 0-66.58 0-99.87.06a42.62 42.62 0 0 0-8.78 1c-5.53 1.19-8.72 4.63-8.55 8.78a11 11 0 0 0 10.18 10.19c1.49.14 3 0 4.52 0l756.38-.16c11.08-.14 21.12 10.09 21 20.78-.39 38.14-.15 76.28-.15 114.42 0 11.61-8 19.53-19.61 19.53z" data-name="Layer 4 copy 2"/></g></g></svg>