<svg height="64" width="50" xmlns="http://www.w3.org/2000/svg"><g fill="#60db97" fill-rule="evenodd"><path d="m49.996 32c0 .032 0 .064-.003.095-.003.032-.009.062-.015.093-.007.033-.013.065-.023.098-.008.027-.019.053-.03.08a1.07 1.07 0 0 1 -.047.104l-.012.027-18 31.001a1.004 1.004 0 0 1 -1.366.364.992.992 0 0 1 -.366-1.359l17.711-30.503-17.711-30.503a.992.992 0 0 1 .366-1.359 1.004 1.004 0 0 1 1.366.364l18 31.001.012.027c.018.034.033.069.047.104.011.027.022.053.03.08.01.033.016.065.023.098.006.031.012.061.015.093.003.031.003.063.003.095z"/><path d="m34.996 32c0 .032 0 .064-.003.095-.003.032-.009.062-.015.093-.007.033-.013.065-.023.098-.008.027-.019.053-.03.08a1.07 1.07 0 0 1 -.047.104l-.012.027-18 31.001a1.004 1.004 0 0 1 -1.366.364.992.992 0 0 1 -.366-1.359l17.711-30.503-17.711-30.503a.992.992 0 0 1 .366-1.359 1.004 1.004 0 0 1 1.366.364l18 31.001.012.027c.018.034.033.069.047.104.011.027.022.053.03.08.01.033.016.065.023.098.006.031.012.061.015.093.003.031.003.063.003.095z" opacity=".502"/><path d="m19.996 32c0 .032 0 .064-.003.096-.003.03-.009.061-.015.092-.007.033-.013.065-.023.098-.008.027-.019.053-.03.08a1.07 1.07 0 0 1 -.047.104l-.012.027-18 31.001a1.004 1.004 0 0 1 -1.366.364.992.992 0 0 1 -.366-1.359l17.711-30.503-17.711-30.503a.992.992 0 0 1 .366-1.359 1.004 1.004 0 0 1 1.366.364l18 31.001.012.027c.018.034.033.069.047.104.011.027.022.053.03.08.01.033.016.065.023.098.006.031.012.062.015.092.003.032.003.064.003.096z" opacity=".2"/></g></svg>