<svg xmlns="http://www.w3.org/2000/svg" width="20" height="64">
    <path fill="#60DB97" fill-rule="evenodd" d="M19.996 32c0 .031 0 .062-.003.093-.003.03-.009.059-.015.089-.007.032-.013.064-.023.095a1.023 1.023 0 0 1-.077.179c-.005.008-.007.017-.012.026l-18 30.061a1.02 1.02 0 0 1-1.366.353.947.947 0 0 1-.366-1.318L17.845 32 .134 2.422A.947.947 0 0 1 .5 1.104a1.02 1.02 0 0 1 1.366.353l18 30.061c.005.009.007.018.012.026a1.023 1.023 0 0 1 .077.179c.01.031.016.063.023.095.006.03.012.059.015.089a.963.963 0 0 1 .003.093z"/>
</svg>
