<svg version="1.2" xmlns="http://www.w3.org/2000/svg" viewBox="0 0 284 284" width="512" height="512">
	<title>Fraxtal</title>
	<style>
		.s0 { fill: #ffffff } 
		.s1 { fill: #000000 } 
	</style>
	<path class="s0" d="m141.7 283.5c-19.1 0-37.7-3.8-55.1-11.2-16.9-7.1-32.1-17.3-45.1-30.3-13-13.1-23.2-28.2-30.4-45.1-7.4-17.5-11.1-36-11.1-55.2 0-19.1 3.7-37.7 11.1-55.1 7.2-16.9 17.4-32.1 30.4-45.1 13-13 28.2-23.2 45.1-30.4 17.4-7.4 36-11.1 55.1-11.1 19.2 0 37.7 3.7 55.2 11.1 16.9 7.2 32 17.4 45.1 30.4 13 13 23.2 28.2 30.3 45.1 7.4 17.4 11.2 36 11.2 55.1 0 19.2-3.8 37.7-11.2 55.2-7.1 16.9-17.3 32-30.3 45.1-13.1 13-28.2 23.2-45.1 30.3-17.5 7.4-36 11.2-55.2 11.2z"/>
	<path fill-rule="evenodd" class="s1" d="m141.7 275.9c-74.2 0-134.2-59.9-134.2-134.2 0-74.2 60-134.2 134.2-134.2 74.3 0 134.2 60 134.2 134.2 0 74.3-59.9 134.2-134.2 134.2z"/>
	<g>
		<path class="s0" d="m234.9 97h-25.7c-1.7-5.4-4.7-10.6-9-14.9-4.3-4.3-9.4-7.4-15-9.1v-25.7h-18.2v24.9c-6.5 1.4-12.4 4.6-17.1 9.4l-12.2 12.1c-3.5 3.6-3.5 9.4 0 12.9 3.6 3.6 9.4 3.6 12.9 0l12.2-12.1c3.2-3.2 7.4-4.9 12-4.8 4.7 0 9.1 1.9 12.5 5.3 6.8 6.9 7.1 17.8 0.5 24.4l-25.6 25.6c-6.6 6.6-17.6 6.4-24.5-0.5-3.5-3.6-9.3-3.6-12.9 0-3.5 3.6-3.5 9.3 0 12.9 7.1 7.1 16.4 10.7 25.6 10.7 9 0 17.9-3.4 24.7-10.2l25.6-25.6c4.8-4.8 7.9-10.7 9.3-17h24.9c0 0 0-18.3 0-18.3z"/>
		<path class="s0" d="m131.4 175.8l-12.2 12.2c-6.6 6.6-17.6 6.4-24.4-0.5-6.9-6.9-7.2-17.9-0.6-24.5l25.6-25.5c6.6-6.6 17.6-6.4 24.5 0.5 3.5 3.5 9.3 3.5 12.9 0 3.5-3.6 3.5-9.4 0-12.9-14-14-36.6-14.3-50.3-0.6l-25.6 25.6c-4.8 4.9-7.9 10.8-9.3 17.1h-24.9v18.3h25.7c1.7 5.4 4.7 10.6 9.1 14.9 4.3 4.3 9.4 7.3 14.9 9v25.7h18.2v-24.9c6.3-1.4 12.3-4.4 17.1-9.3l12.2-12.2c3.6-3.5 3.6-9.3 0-12.9-3.6-3.5-9.4-3.5-12.9 0z"/>
	</g>
</svg>