<?xml version="1.0" encoding="UTF-8"?>
<svg id="Layer_2" data-name="Layer 2" xmlns="http://www.w3.org/2000/svg" viewBox="0 0 1200 1200">
  <defs>
    <style>
      .cls-1 {
        fill: #fff;
      }

      .cls-2 {
        fill: #ff008c;
      }
    </style>
  </defs>
  <g id="Layer_1-2" data-name="Layer 1">
    <g>
      <rect class="cls-2" width="1200" height="1200"/>
      <path class="cls-1" d="M493.97,956.83c-13.99,0-27.32-5.6-37.45-15.6-18.12-17.87-20.52-47.34-5.6-68.41l132.2-184.28-219.36-21.2c-23.85-2.13-43.58-17.74-51.17-40.8-7.73-23.07-1.47-47.34,16.53-63.61l341.16-305.9c9.6-8.8,22.39-13.87,35.72-13.87,14.13,0,27.45,5.6,37.58,15.73,17.99,17.74,20.39,47.2,5.46,68.27l-132.2,184.28,219.22,21.07c23.99,2.27,43.71,18,51.44,41.07,7.6,22.94,1.2,47.34-16.66,63.47l-341.16,305.9c-9.46,8.8-22.26,13.87-35.72,13.87Z"/>
    </g>
  </g>
</svg>