<svg width="1024" height="1024" viewBox="0 0 1024 1024" fill="none" xmlns="http://www.w3.org/2000/svg">
<path d="M200.86 233.729C157.884 259.16 111.967 350.619 212.469 421.083C312.919 491.547 298.938 505.01 309.72 526.779C320.503 548.548 314.003 569.439 314.003 569.439C314.003 569.439 208.032 597.914 242.186 705.002C276.34 812.091 305.387 847.581 367.349 874.353C426.319 899.836 451.393 886.63 460.216 881.833C469.038 877.036 523.726 840.05 555.816 856.144C623.506 890.138 676.543 895.451 719.519 869.865C762.547 844.331 801.809 825.039 829.205 736.778C856.652 648.518 862.534 567.995 829.205 522.807C795.876 477.568 749.959 451.827 749.959 451.827C749.959 451.827 751.249 448.474 744.284 378.784C734.533 280.774 641.357 140.929 576.969 144.231C516.348 147.326 445.718 186.323 465.633 259.263C481.781 318.43 598.122 482.984 537.192 517.958C455.933 564.539 422.192 102.86 200.809 233.781L200.86 233.729Z" fill="#C0FF0E"/>
<path d="M747.12 459.513C745.624 370.479 717.3 274.636 661.219 205.1C632.069 168.63 585.481 142.425 539.202 159.603C473.938 181.784 448.761 222.897 478.117 288.357C493.13 321.938 515.934 352.786 528.936 387.553C536.158 404.834 542.35 422.579 547.354 440.737C551.997 459.565 556.486 478.393 552.823 498.201C548.334 524.613 517.791 531.576 499.631 513.161C485.133 498.717 477.498 480.818 469.604 462.815C455.158 428.46 444.375 392.867 429.93 358.924C403.824 296.043 350.374 235.483 280.673 225.889C246.88 222.071 214.737 236.618 189.818 259.367C171.916 275.1 156.747 296.817 158.295 321.526C163.661 373.419 214.273 411.695 253.174 441.975C285.832 464.569 324.939 523.89 315.962 564.693L313.434 564.178C315.91 528.533 288.979 494.642 265.504 470.449C252.245 457.811 235.632 449.815 220.98 438.673C205.606 427.686 190.592 415.822 177.023 401.997C126.308 352.682 115.835 290.266 171.916 239.919C218.71 194.164 284.129 184.466 341.191 217.48C392.989 246.883 430.6 295.734 451.031 350.31C464.703 385.232 473.989 421.393 486.011 456.47C491.892 472.667 498.29 490.412 509.485 503.102C519.494 515.327 538.893 512.542 541.937 495.622C546.116 478.857 542.556 459.874 538.738 442.903C529.916 407.413 515.934 372.542 496.845 341.334C477.033 309.249 454.642 276.802 451.598 237.392C447.677 194.319 481.78 160.841 518.049 144.695C535.488 136.287 556.279 130.148 577.071 131.489C676.18 139.485 729.011 262.255 745.211 347.421C752.176 384.458 754.704 422.527 749.596 459.668L747.017 459.462L747.12 459.513Z" fill="#231F20"/>
<path d="M380.452 689.682C410.427 728.834 467.901 747.507 514.695 733.889C540.853 726.1 560.871 705.466 570.776 680.448C580.579 652.85 592.497 613.698 575.523 587.493C567.733 576.248 552.306 570.213 539.15 574.391C518.771 582.541 497.464 584.605 476.207 585.327C446.026 586.101 415.69 582.025 386.695 573.514C378.44 571.038 369.979 569.697 361.208 569.49C298.007 568.768 244.97 614.523 246.879 680.087C249.046 778.252 326.486 884.876 431.167 883.277C443.446 882.606 455.983 880.079 465.579 873.579C487.093 857.949 513.715 847.271 540.904 848.045C554.628 848.458 568.248 851.553 580.889 856.608C589.917 860.012 597.914 865.48 606.891 868.575C621.234 873.424 636.454 874.25 651.725 873.94C706.155 871.567 761.514 846.239 791.489 799.917C814.602 763.292 830.183 721.148 838.954 678.849C846.435 639.903 848.447 599.409 835.291 561.908C821.258 519.041 754.6 464.001 708.941 476.639C665.5 489.844 651.312 553.293 643.419 593.477C637.382 630.05 635.577 668.222 645.276 704.073C651.312 726.461 664.159 748.487 686.705 756.38C720.24 766.336 763.268 754.935 782.976 724.346C796.855 703.558 801.962 677.147 801.446 652.231L804.026 651.973C806.864 678.178 803.355 705.518 790.044 728.782C769.356 765.51 722.149 780.624 682.061 770.617C639.394 757.669 623.143 709.696 618.912 669.822C612.927 610.19 624.071 523.219 663.54 475.865C695.579 438.363 747.687 442.851 786.175 467.044C821.722 489.071 853.348 521.466 864.286 562.63C881.569 628.606 865.215 698.709 839.212 759.888C817.595 811.936 784.937 855.112 731.177 876.261C693.205 891.221 651.261 896.379 611.431 886.372C598.378 883.174 587.234 875.281 575.317 869.607C553.029 859.393 527.697 857.588 504.274 865.222C492.459 868.885 481.521 874.611 470.79 881.575C458.614 889.312 444.736 891.479 431.374 891.995C377.717 892.459 327.931 863.623 293.519 824.058C235.838 757.102 196.37 632.836 282.633 572.224C314.001 550.043 355.687 540.706 393.04 551.488C419.765 559.174 447.78 562.63 475.64 562.475C494.471 562.062 514.18 560.412 531.411 553.602C553.699 545.916 580.063 556.078 592.755 575.629C601.68 588.938 603.95 604.31 603.796 618.341C603.228 645.371 594.509 672.917 582.23 696.8C554.318 749.829 490.808 762.054 438.906 739.925C414.554 729.969 391.751 713.978 378.182 691.074L380.349 689.682H380.452Z" fill="#231F20"/>
<path d="M185.176 263.442C137.711 304.709 156.336 369.447 211.901 414.945C267.466 460.442 297.905 464.104 317.923 552.055C342.791 439.86 165.88 417.73 185.176 263.442Z" fill="#658900"/>
<path d="M584.242 616.019C585.945 650.838 568.145 729.711 497.67 739.821C433.386 743.484 398.974 713.668 380.555 690.455C494.265 776.652 566.391 699.173 584.242 616.019Z" fill="#658900"/>
<path d="M252.555 723.16C269.477 794.862 324.629 876.107 411.047 882.504C474.815 891.789 470.791 849.851 539.46 848.406C599.514 850.212 590.485 879.099 658.278 873.631C726.07 868.163 790.819 834.788 819.917 743.381C724.11 939.092 615.25 831.59 539.718 838.863C450.102 853.874 386.695 929.652 252.503 723.212L252.555 723.16Z" fill="#658900"/>
<path d="M406.611 777.943C425.39 750.655 444.222 769.741 507.887 763.397C571.552 757.052 603.849 685.35 602.972 632.579C582.49 729.454 540.751 749.572 485.186 749.933C414.247 750.397 406.662 777.995 406.662 777.995L406.611 777.943Z" fill="#658900"/>
<path d="M491.014 183.95C483.74 204.893 481.212 233.523 523.982 306.256C566.752 379.042 602.661 527.707 564.895 542.254C527.129 556.801 477.549 549.063 421.623 348.968C455.261 423.094 481.109 530.596 524.395 524.973C567.681 519.35 560.303 469.469 526.665 380.383C490.395 301.407 431.632 245.49 490.963 183.95H491.014Z" fill="#658900"/>
<path d="M616.696 650.891C616.696 775.673 668.494 803.735 736.081 787.537C803.667 771.34 804.441 681.893 804.441 681.893C804.441 681.893 802.428 769.895 705.28 772.475C674.995 769.947 626.859 762.467 616.644 650.891H616.696Z" fill="#658900"/>
</svg>
