<?xml version="1.0" encoding="UTF-8"?>
<svg xmlns="http://www.w3.org/2000/svg" xmlns:xlink="http://www.w3.org/1999/xlink" width="512px" height="512px" viewBox="0 0 512 512" version="1.1">
<defs>
<linearGradient id="linear0" gradientUnits="userSpaceOnUse" x1="16.035801" y1="17.349001" x2="220.679398" y2="222.005096" gradientTransform="matrix(2.048,0,0,-2.048,0,514.723844)">
<stop offset="0" style="stop-color:rgb(66.666667%,30.588235%,61.176471%);stop-opacity:1;"/>
<stop offset="1" style="stop-color:rgb(15.686275%,66.666667%,88.235294%);stop-opacity:1;"/>
</linearGradient>
</defs>
<g id="surface1">
<path style=" stroke:none;fill-rule:nonzero;fill:url(#linear0);" d="M 256.203125 1.84375 C 115.710938 1.84375 2.046875 115.507812 2.046875 256 C 2.046875 396.492188 115.710938 509.953125 256 509.953125 C 396.289062 509.953125 509.953125 396.289062 509.953125 256 C 509.953125 115.710938 396.492188 1.84375 256.203125 1.84375 Z M 431.921875 319.898438 C 430.285156 319.898438 428.851562 319.898438 427.210938 319.898438 C 400.382812 318.667969 374.375 328.089844 355.328125 346.929688 L 353.484375 348.773438 C 332.59375 369.664062 320.71875 397.925781 321.535156 427.210938 C 321.535156 427.621094 321.535156 428.03125 321.535156 428.441406 C 321.535156 467.761719 285.492188 498.484375 244.53125 489.675781 C 215.039062 483.328125 194.96875 456.703125 196.199219 426.394531 C 196.199219 426.1875 196.199219 425.984375 196.199219 425.777344 C 197.425781 400.792969 188.210938 376.421875 170.597656 358.808594 L 161.382812 349.59375 C 141.925781 330.136719 115.507812 319.898438 87.859375 319.898438 C 87.65625 319.898438 87.65625 319.898438 87.449219 319.898438 C 52.019531 319.898438 23.347656 290.609375 24.78125 254.769531 C 26.007812 222.003906 52.839844 195.378906 85.605469 194.355469 C 85.8125 194.355469 86.222656 194.355469 86.425781 194.355469 C 117.964844 193.945312 148.070312 181.453125 170.394531 159.128906 C 188.414062 141.105469 198.246094 116.121094 196.199219 90.523438 C 195.992188 87.65625 195.992188 84.582031 196.199219 81.511719 C 198.246094 50.175781 223.640625 24.984375 254.976562 22.9375 C 292.453125 20.683594 323.378906 51.40625 321.535156 88.679688 C 320.511719 108.75 309.863281 126.363281 294.296875 137.214844 L 266.238281 109.566406 C 261.53125 104.859375 253.746094 104.859375 248.832031 109.566406 L 110.386719 248.011719 C 104.652344 253.746094 104.652344 262.964844 110.386719 268.492188 L 248.21875 406.324219 C 253.335938 411.441406 261.53125 411.441406 266.648438 406.324219 L 394.445312 278.527344 C 398.335938 274.636719 395.671875 267.671875 389.9375 267.671875 L 319.078125 267.671875 C 309.65625 267.671875 301.054688 272.589844 295.9375 280.574219 C 288.152344 292.863281 274.433594 301.054688 258.867188 301.054688 C 233.675781 301.054688 213.402344 279.757812 215.039062 254.15625 C 216.472656 232.859375 233.675781 215.449219 254.976562 213.605469 C 269.722656 212.378906 283.035156 218.316406 291.839844 228.351562 C 302.078125 240.027344 316.824219 246.785156 332.1875 246.785156 C 350.824219 246.785156 369.253906 238.183594 378.46875 222.003906 C 378.46875 222.003906 378.46875 221.796875 378.675781 221.796875 C 389.9375 205.414062 408.984375 194.558594 430.488281 194.558594 C 465.921875 194.558594 494.59375 224.050781 493.160156 259.6875 C 491.726562 292.453125 464.894531 319.078125 431.921875 319.898438 Z M 431.921875 319.898438 "/>
</g>
</svg>
