<?xml version="1.0" encoding="utf-8"?>
<!-- Generator: Adobe Illustrator 26.3.0, SVG Export Plug-In . SVG Version: 6.00 Build 0)  -->
<svg version="1.1" id="Capa_1" xmlns="http://www.w3.org/2000/svg" xmlns:xlink="http://www.w3.org/1999/xlink" x="0px" y="0px"
	 viewBox="0 0 189.3 200" style="enable-background:new 0 0 189.3 200;" xml:space="preserve">
<style type="text/css">
	.st0{fill:url(#SVGID_1_);}
</style>
<g>
	<linearGradient id="SVGID_1_" gradientUnits="userSpaceOnUse" x1="28.2468" y1="167.2327" x2="154.5369" y2="40.9425">
		<stop  offset="0" style="stop-color:#AA4E9C"/>
		<stop  offset="1" style="stop-color:#28AAE1"/>
	</linearGradient>
	<path class="st0" d="M95.5,23.4C53.3,23.4,19,57.7,19,99.9s34.3,76.6,76.5,76.6s76.5-34.3,76.5-76.6S137.8,23.4,95.5,23.4z
		 M148.5,119.3c-0.5,0-1,0-1.4,0c-8.1-0.4-16,2.5-21.7,8.2l-0.6,0.6c-6.3,6.3-9.9,14.8-9.6,23.7c0,0.1,0,0.2,0,0.4
		c0,11.8-10.9,21.1-23.2,18.4c-8.9-2-15-10-14.6-19.1c0-0.1,0-0.1,0-0.2c0.4-7.5-2.4-14.9-7.7-20.2l-2.8-2.8
		c-5.9-5.9-13.8-9-22.1-8.9c0,0-0.1,0-0.1,0c-10.7,0-19.3-8.9-18.9-19.6c0.4-9.9,8.5-17.9,18.3-18.2c0.1,0,0.2,0,0.3,0
		c9.5-0.1,18.6-3.9,25.3-10.6c5.4-5.4,8.4-13,7.8-20.6c-0.1-0.9-0.1-1.8,0-2.7c0.6-9.4,8.3-17.1,17.7-17.6
		c11.3-0.7,20.6,8.6,20.1,19.8c-0.3,6-3.5,11.4-8.2,14.6l-8.5-8.5c-1.4-1.4-3.8-1.4-5.2,0L51.6,97.6c-1.7,1.7-1.7,4.5,0,6.2l8.1,8.1
		L84.9,137l8.3,8.3c1.5,1.5,4,1.5,5.5,0l38.5-38.5c1.2-1.2,0.3-3.2-1.3-3.2h-6.5h-1.4h-13.5c-2.8,0-5.4,1.5-7,3.9
		c-2.3,3.7-6.5,6.1-11.2,6.1c-7.6,0-13.7-6.4-13.2-14.2c0.4-6.4,5.6-11.7,12-12.2c4.4-0.4,8.4,1.4,11.1,4.4
		c3.1,3.5,7.5,5.5,12.2,5.5h0c5.6,0,11.2-2.6,13.9-7.4c0,0,0,0,0-0.1c3.4-5,9.1-8.2,15.6-8.2c10.7,0,19.3,8.9,18.9,19.6
		C166.5,111,158.4,119,148.5,119.3z"/>
</g>
</svg>
