<?xml version="1.0" encoding="UTF-8"?>
<svg width="110px" height="112px" viewBox="0 0 110 112" version="1.1" xmlns="http://www.w3.org/2000/svg" xmlns:xlink="http://www.w3.org/1999/xlink">
    <!-- Generator: Sketch 50.2 (55047) - http://www.bohemiancoding.com/sketch -->
    <title>gnosis_safe_logo_2018</title>
    <desc>Created with Sketch.</desc>
    <defs>
        <polygon id="path-1" points="42.8630398 0.381140303 0.617836588 0.381140303 0.617836588 75.9587408 42.8630398 75.9587408 42.8630398 0.381140303"></polygon>
        <linearGradient x1="50%" y1="100%" x2="50%" y2="4.48626894%" id="linearGradient-3">
            <stop stop-color="#34AAFD" offset="0%"></stop>
            <stop stop-color="#00CFEE" offset="100%"></stop>
        </linearGradient>
    </defs>
    <g id="Browser-extension" stroke="none" stroke-width="1" fill="none" fill-rule="evenodd">
        <g id="0.-Post-install" transform="translate(-675.000000, -125.000000)">
            <g id="#logo" transform="translate(545.000000, 125.000000)">
                <g id="gnosis_safe_logo_2018" transform="translate(130.000000, 0.000000)">
                    <g>
                        <path d="M17.4762898,99.0592638 C16.8056196,98.4904887 15.9824791,98.0043729 15.0058717,97.5950123 C14.0302608,97.1915559 12.9201173,96.826477 11.6744446,96.4997757 C10.6151245,96.2212924 9.73717442,95.9792186 9.04657347,95.768634 C8.35198637,95.5590335 7.80588345,95.3435287 7.40726819,95.104407 C7.00765638,94.8751257 6.73061877,94.613371 6.57814843,94.3240632 C6.42468156,94.0347555 6.34894466,93.6923095 6.34894466,93.2967255 L6.34894466,93.2268586 C6.34894466,92.6236421 6.61402381,92.1168615 7.14218904,91.712421 C7.6713508,91.3060125 8.46559172,91.1023162 9.52291871,91.1023162 C10.5812422,91.1023162 11.6405623,91.3168369 12.6978893,91.7468624 C13.7562128,92.1739358 14.8344671,92.7623917 15.9406245,93.5053419 L18.7628206,89.4648736 C17.4942275,88.4690251 16.1000706,87.7014739 14.5853326,87.1671401 C13.067605,86.6347745 11.4033862,86.3671156 9.59167985,86.3671156 C8.32209022,86.3671156 7.1621198,86.5393226 6.10778242,86.8906249 C5.05444158,87.2360229 4.14659531,87.7359153 3.38723323,88.3873498 C2.62986422,89.0338641 2.03991363,89.8112557 1.61837798,90.7027959 C1.19783888,91.5953202 0.988565861,92.6000251 0.988565861,93.7139584 L0.988565861,93.7838253 C0.988565861,94.9941945 1.18189426,95.9988994 1.57054415,96.8146685 C1.95720096,97.6274856 2.50430041,98.3045051 3.20984943,98.8496633 C3.91539845,99.3977736 4.77242128,99.8543682 5.78291098,100.226335 C6.79340068,100.597318 7.92347496,100.934844 9.17114074,101.23596 C10.2035543,101.491811 11.043636,101.736837 11.6913858,101.967102 C12.3391356,102.201304 12.8443804,102.432553 13.2071203,102.661834 C13.5718533,102.895052 13.8189947,103.145982 13.9495412,103.412657 C14.0770981,103.6813 14.1418731,103.98832 14.1418731,104.338639 L14.1418731,104.405553 C14.1418731,105.127839 13.8299567,105.685789 13.2071203,106.09515 C12.5852805,106.500575 11.7093235,106.703287 10.5812422,106.703287 C9.17114074,106.703287 7.8696619,106.434644 6.68378148,105.903262 C5.49690452,105.370897 4.3369341,104.648611 3.20984943,103.744278 L0,107.537753 C1.48185225,108.862271 3.1281333,109.845327 4.93884315,110.482984 C6.74855646,111.119658 8.59514168,111.441439 10.4776023,111.441439 C11.8149565,111.441439 13.0357157,111.270217 14.137887,110.934659 C15.2380651,110.600085 16.1847764,110.110033 16.9820069,109.472375 C17.7742547,108.832749 18.3931049,108.042565 18.8365644,107.103791 C19.2810204,106.165017 19.5022519,105.091429 19.5022519,103.88106 L19.5022519,103.813161 C19.5022519,102.746462 19.3308473,101.827368 18.9920244,101.062769 C18.6502118,100.295218 18.1449669,99.628039 17.4762898,99.0592638" id="Fill-1" fill="#28B2FA"></path>
                        <polygon id="Fill-3" fill="#28B2FA" points="62.6858097 111.441441 67.9163847 111.441441 67.9163847 101.73525 79.2684991 101.73525 79.2684991 96.7191705 67.9163847 96.7191705 67.9163847 91.3821831 80.7950436 91.3821831 80.7950436 86.3671156 62.6858097 86.3671156"></polygon>
                        <polygon id="Fill-5" fill="#28B2FA" points="96.564224 106.536297 96.564224 101.271823 107.952564 101.271823 107.952564 96.3616197 96.564224 96.3616197 96.564224 91.2752931 109.504943 91.2752931 109.504943 86.3671144 91.3200685 86.3671144 91.3200685 111.441439 109.675588 111.441439 109.675588 106.536297"></polygon>
                        <path d="M42.6939327,101.591207 L38.0915625,101.591207 L39.4799123,96.5128248 C38.6625619,96.1399612 38.0915625,95.2846865 38.0915625,94.2897135 C38.0915625,92.9510226 39.1208893,91.8666026 40.3956121,91.8666026 C41.6655607,91.8666026 42.6939327,92.9510226 42.6939327,94.2897135 C42.6939327,95.2846865 42.1219784,96.1399612 41.3084474,96.5128248 L42.6939327,101.591207 Z M42.7941918,86.3671156 L37.9951228,86.3671156 L27.8603599,111.441439 L33.1654986,111.441439 L35.3272758,105.860546 L45.3302696,105.860546 L47.4920468,111.441439 L52.9346838,111.441439 L42.7941918,86.3671156 Z" id="Fill-8" fill="#28B2FA"></path>
                        <g id="face" transform="translate(18.000000, 0.000000)">
                            <path d="M25.1835578,38.7497342 L14.2301226,27.8603599 C13.2428249,29.1860845 12.6463959,30.8318465 12.6463959,32.6082567 C12.6463959,36.9064808 16.1449739,40.3975218 20.4333901,40.3975218 C22.2145764,40.3975218 23.8661482,39.8020092 25.1835578,38.7497342" id="Fill-10" fill="#28B2FA"></path>
                            <g id="Group-17" transform="translate(0.109234, 0.000000)">
                                <mask id="mask-2" fill="white">
                                    <use xlink:href="#path-1"></use>
                                </mask>
                                <g id="Clip-16"></g>
                                <path d="M11.9349757,13.9696165 C18.5670106,7.45725733 27.256502,3.91934429 36.5755138,3.91934429 L36.6340515,3.91934429 C36.7367324,3.91934429 36.8394133,3.92516323 36.9411346,3.92710287 L36.9411346,39.3042936 L11.9349757,13.9696165 Z M36.5083394,0.380461427 C25.6922976,0.380461427 15.6266901,4.80770184 8.2470999,12.7001186 L7.05715298,13.9696165 L36.9411346,44.3027596 L36.9411346,49.741525 L36.8230996,49.8608132 L29.134507,42.0265858 C25.5675451,44.4259271 21.0035229,45.1232296 16.6928442,43.6044873 C9.4360872,40.9500827 5.68199657,32.9248002 8.31139542,25.6588889 C8.68469329,24.5222567 9.24703918,23.5087921 9.87080168,22.563215 L6.55814298,19.2124777 L5.93342084,20.2870412 C2.49409037,25.9769907 0.618004694,32.5475392 0.618004694,39.3101126 C0.557547713,59.4717557 16.8118389,75.9568012 36.7578444,75.9568012 L42.8630398,75.9587408 L42.8630398,0.386280363 L36.5083394,0.380461427 Z" id="Fill-15" fill="url(#linearGradient-3)" mask="url(#mask-2)"></path>
                            </g>
                            <path d="M73.4748293,39.0054837 C73.4748293,22.1114547 59.727729,8.36692735 42.8284335,8.35810796 L42.8284335,12.0250138 C57.7050296,12.0328533 69.8069096,24.1320746 69.8069096,39.0054837 C69.8069096,53.8749731 57.7050296,65.9761544 42.8284335,65.9839938 L42.8284335,69.6508997 C59.727729,69.6420803 73.4748293,55.8975529 73.4748293,39.0054837" id="Fill-18" fill="url(#linearGradient-3)"></path>
                            <path d="M50.229187,38.3842381 L48.7677992,47.3626118 L55.9240697,47.3626118 L54.4646514,38.3842381 C56.0924641,37.603468 57.2229716,35.9637543 57.2229716,34.0586366 C57.2229716,31.4065276 55.0407375,29.2533779 52.3474116,29.2533779 C49.6560551,29.2533779 47.4718515,31.4065276 47.4718515,34.0586366 C47.4688972,35.9656845 48.5974352,37.603468 50.229187,38.3842381" id="Fill-20" fill="#28B2FA"></path>
                            <path d="M48.5185662,18.0569212 C50.3117125,18.5141254 51.0027254,15.8367374 49.2104968,15.3758755 C47.4182681,14.9168424 46.7272553,17.5960593 48.5185662,18.0569212" id="Fill-22" fill="#28B2FA"></path>
                            <path d="M56.3422142,21.942662 C57.7418766,23.1162245 59.5030052,21.019737 58.1033428,19.8470794 C56.7036804,18.6753265 54.9434577,20.7709092 56.3422142,21.942662" id="Fill-24" fill="#28B2FA"></path>
                            <path d="M61.5617722,29.8595148 C62.3681828,31.5122381 64.834637,30.2973223 64.0282264,28.6445991 C63.2236319,26.9964363 60.7553615,28.2095279 61.5617722,29.8595148" id="Fill-26" fill="#28B2FA"></path>
                            <path d="M48.5185662,59.9524792 C50.3117125,59.4932102 51.0027254,62.1738041 49.2104968,62.6330731 C47.4182681,63.0923421 46.7272553,60.413578 48.5185662,59.9524792" id="Fill-28" fill="#28B2FA"></path>
                            <path d="M56.3422142,54.6731594 C57.7418766,53.4998556 59.5030052,55.5967856 58.1033428,56.7682801 C56.7036804,57.9415839 54.9434577,55.8446539 56.3422142,54.6731594" id="Fill-30" fill="#28B2FA"></path>
                            <path d="M61.5617722,48.1485098 C62.3681828,46.4973362 64.834637,47.7117831 64.0282264,49.3647802 C63.2236319,51.0123069 60.7553615,49.7996835 61.5617722,48.1485098" id="Fill-32" fill="#28B2FA"></path>
                            <path d="M64.1880616,39.0038132 C64.1880616,40.8620914 66.9740976,40.8620914 66.9740976,39.0038132 C66.9740976,37.1473767 64.1880616,37.1473767 64.1880616,39.0038132" id="Fill-34" fill="#28B2FA"></path>
                        </g>
                    </g>
                </g>
            </g>
        </g>
    </g>
</svg>