<svg xmlns="http://www.w3.org/2000/svg" xmlns:xlink="http://www.w3.org/1999/xlink" width="360" height="360"><defs><linearGradient id="a" x1="4.049%" x2="97.403%" y1="64.687%" y2="34.844%"><stop offset="10%" stop-color="#D39820"/><stop offset="100%" stop-color="#FFFD96"/></linearGradient><path id="b" d="M180 360c99.411 0 180-80.59 180-180C360 80.589 279.411 0 180 0S0 80.589 0 180c0 99.41 80.589 180 180 180Z"/></defs><g fill="none" fill-rule="evenodd"><path fill="url(#a)" fill-rule="nonzero" d="M180 360c99.411 0 180-80.589 180-180S279.411 0 180 0 0 80.589 0 180s80.589 180 180 180Z"/><g><mask id="c" fill="#fff"><use xlink:href="#b"/></mask><g fill="#000" fill-rule="nonzero" mask="url(#c)"><path d="m168.414 289.159-20.772-25.117c-.696-.844-.66-2.09.11-2.915l6.142-6.564c.66-.715.77-1.778.275-2.622l-4.877-8.378c-.623-1.1-.201-2.548.954-3.08l27.463-13.31c1.504-.752 3.227.458 3.08 2.126l-1.265 17.197c-.238 3.117-1.65 6.069-3.96 8.159l-10.706 9.717c-.66.605-.917 1.595-.569 2.438l7.829 20.075c.495 1.284-.275 2.732-1.65 2.952a2.11 2.11 0 0 1-2.035-.752"/><path d="m262.226 289.25 17.967-36.704c2.237-4.62-2.071-9.68-6.911-8.158l-20.13 6.417-10.946-58.356c-.312-1.67-2.42-2.127-3.41-.789l-10.45 14.392c-1.998 2.732-2.273 6.38-.77 9.442l18.774 37.456-29.023 9.258 1.577-54.488c0-.183.073-.348.183-.531l17.619-24.696c.238-.348.697-.495 1.082-.311l3.025 1.21c.605.256 1.228-.184 1.265-.807 0 0-5.959-24.585-1.467-35.677.66-1.705.147-3.649-1.265-4.785-1.925-1.559-4.308-2.805-8.067-2.805-3.19 0-7.022-1.247-10.707-3.264 4.675 1.1 9.406 1.559 12.834 1.559 6.912 0 9.148 4.253 12.595 6.746-.312 2.475.349 5.079 3.465 6.985 5.225 3.19 4.767 6.527 3.795 8.47-.275.606.349 1.21.954.844 3.08-1.943 2.64-6.032-.99-9.864-1.834-1.943-1.229-3.648.073-4.931 8.14-1.485 8.947-9.369 8.947-9.369-.147.037-2.42 1.1-4.987 1.21-5.867.294-14.172-4.437-15.657-7.333 0 0 9.222 6.948 13.292 5.922 4.07-.99 3.465-4.547 3.337-5.244-.147-.752-1.925-2.585-3.337-2.878-1.412-.257-5.188-2.842-4.987-3.832.184-.99 2.072 1.1 3.264.605 1.155-.458 3.831-.953 4.693 1.485 0 0 1.76-3.153 3.887-2.622 1.613.385 1.081 2.127-.624 3.19-1.723 1.027-1.925 1.669-1.925 1.815-.036.147-1.045 5.61.697 6.417.458.22.99.147 1.503-.146 1.724-.807 2.659-2.696 2.494-4.62-.202-2.31-.88-4.75-1.082-6.71-.238-1.944-1.467-4.217-2.805-6.307-.66-.789-1.375-1.559-2.108-2.384-3.117-3.483-6.344-7.058-7.444-10.578-1.301-4.18.807-10.506 2.384-14.19.238-.57-.532-.752-1.082-.422-2.53 1.485-3.025 5.005-4.84 4.326-.99-.348-13.439-8.763-14.062-8.618-10.45 2.018-19.305 8.508-19.305 8.508s-.275.789-.734 2.09c-5.115-4.546-14.74-8.965-18.132-10.395-4.601-1.943-1.686 11.276 2.842 16.042 2.658 2.805 8.067 3.612 12.064 3.795-.184.569-.349 1.1-.569 1.705-3.263 6.142-6.948 10.927-9.442 13.842-.806.917.184 2.347 1.339 1.889a29.375 29.375 0 0 0 2.951-1.412c-.348.715-.623 1.448-.953 2.2-7.718 13.402-16.482 20.259-21.395 23.265-.954.605-.459 2.127.66 1.944 2.988-.422 5.922-1.559 8.763-3.044-4.693 5.354-11.642 11.312-22.422 18.059-9.442 5.885-13.255 18.627-13.255 18.627-1.008 1.247-2.988.22-2.53-1.338.66-2.31-1.833-4.217-3.832-2.952l-29.15 17.912a.727.727 0 0 1-.66.11l-17.93-3.758c-.844-.184-1.467.825-.917 1.521l14.098 18.096a.962.962 0 0 1 .147.88l-9.644 27.207c-.88 2.475-2.915 4.363-5.408 5.041l-9.607 2.549c-3.41.88-6.032 3.612-6.838 7.058L69.833 309.29l-3.025.953c-4.418 1.412-7.443 5.574-7.443 10.249v43.432H283.64V301.37c0-6.747-5.42-12.119-12.075-12.119h-9.339Zm-32.028-184.473c5.115.348 7.865 3.08 7.865 3.08s-1.119 2.512-4.492 1.888c-3.923-.751-3.373-4.968-3.373-4.968Zm-29.06-2.53c-5.756-1.907-5.334-9.937-5.334-9.937 12.357 1.357 14.062 11.459 14.062 11.459s-2.989.385-8.727-1.522ZM94.915 278.543a7.712 7.712 0 0 1 4.491-3.575l21.726-6.49a15.265 15.265 0 0 0 9.643-8.763l13.365-32.451c.385-.953 1.797-.678 1.797.348v6.032c0 1.174 1.192 1.944 2.237 1.449 27.372-12.797 40.554-21.396 40.554-21.396.495-.256 1.082 0 1.302.532l17.967 51.04-128.703 41.105 15.62-27.85v.02Z"/><path d="M196.722 70.182c7.682-2.127 19.965 5.17 24.182 15.327.184.385.605.605 1.009.421 1.576-.678 9.863-4.07 11.476-3.3 2.347 1.137 8.636 6.49 9.827 5.959.459-.22-13.2-26.108-33.514-26.108-15.253 0-25.043 10.927-24.035 12.137 0 0 5.922-3.006 11.055-4.436ZM240.371 63.453c8.709 5.17 4.345 17.564 4.382 17.729 0 0 3.153 7.59 3.868 7.132 3.887-2.549 5.225-4.015 5.115-5.244-.238-3.41-.311-10.578-2.456-14.41-3.502-6.307-13.127-6.49-10.945-5.17l.036-.037ZM251.74 104.246c.66 2.2 2.31 4.473 4.254 6.783.312.349.917.294 1.118-.146.349-.715.844-1.596 1.192-2.274.147-.257-.11-.532-.385-.495-1.228.257-2.53-.422-2.53-.422s1.192-2.273 2.842-2.585c.458-.11.843-.385.953-.843.11-.532.184-1.063.184-1.21 0-.22-.037-.605-.11-1.063 1.925-.495 4.601-1.559 6.38-3.942 1.375-1.778 2.603-9.002 1.155-8.966-2.109.037-6.142 2.127-9.754 4.933-.275-.569-.568-1.1-.88-1.595-.238-.349-.77-.349-.953.073-1.412 3.337-4.639 7.938-3.447 11.77h-.037l.019-.018Z"/></g></g></g></svg>