<svg width="1096" height="1096" viewBox="0 0 1096 1096" fill="none" xmlns="http://www.w3.org/2000/svg">
<rect width="1096" height="1096" fill="url(#paint0_linear_2386_29779)"/>
<path d="M932.341 327.012C926.783 317.407 914.396 314.244 904.912 320.01L395.528 629.384C382.547 605.134 375.191 577.424 375.191 548C375.191 452.465 452.729 375.019 548.378 375.019C589.448 375.019 627.153 389.335 656.842 413.19L548.477 487.49L830.095 325.084C836.165 321.592 838.243 313.832 834.73 307.786C831.035 301.394 822.673 299.5 816.57 303.684L747.609 350.966C696.791 299.697 626.312 267.935 548.378 267.935C393.516 267.935 267.98 393.322 267.98 548C267.98 597.803 281.01 644.557 303.821 685.084L161 771.822L307.632 691.641C356.602 773.355 446.082 828.066 548.378 828.066C703.24 828.066 828.776 702.679 828.776 548C828.776 539.269 828.776 540.758 828.776 514.557C828.776 488.357 839.421 454.836 877.136 434.656C880.369 432.926 881.54 428.874 879.709 425.694C877.911 422.597 873.953 421.526 870.852 423.322L536.469 616.155C573.795 600.307 602.328 590.67 640.151 583.08C718.94 567.272 720.945 604.789 690.518 647.107C670.144 675.442 624.118 720.949 548.411 720.949C486.674 720.949 432.508 688.692 401.829 640.126L924.705 354.244C934.453 348.923 937.9 336.617 932.341 327.012Z" fill="white"/>
<defs>
<linearGradient id="paint0_linear_2386_29779" x1="109.451" y1="1096" x2="807.019" y2="-1.28109e-05" gradientUnits="userSpaceOnUse">
<stop offset="0.0230088" stop-color="#E57536"/>
<stop offset="0.604747"/>
</linearGradient>
</defs>
</svg>
