<svg height="85" viewBox="0 0 108 85" width="108" xmlns="http://www.w3.org/2000/svg"><g fill="none" fill-rule="evenodd" transform="translate(1 1)"><path d="m96.2021481 83h-86.40429618c-2.09704723 0-3.79785192-1.7077879-3.79785192-3.8148649v-70.37027017c0-2.10707706 1.70080469-3.81486493 3.79785192-3.81486493h86.40429618c2.0976802 0 3.7978519 1.70778787 3.7978519 3.81486493v70.37027017c0 2.107077-1.7001717 3.8148649-3.7978519 3.8148649" fill="#fefefe"/><path d="m96.2021481 83h-86.40429618c-2.09704723 0-3.79785192-1.7077879-3.79785192-3.8148649v-70.37027017c0-2.10707706 1.70080469-3.81486493 3.79785192-3.81486493h86.40429618c2.0976802 0 3.7978519 1.70778787 3.7978519 3.81486493v70.37027017c0 2.107077-1.7001717 3.8148649-3.7978519 3.8148649z" stroke="#3098dc"/><path d="m104.729634 83h-103.45926769c-.70187739 0-1.27036631-.5497543-1.27036631-1.2285012v-4.5429976c0-.6787469.56848892-1.2285012 1.27036631-1.2285012h103.45926769c.701242 0 1.270366.5497543 1.270366 1.2285012v4.5429976c0 .6787469-.569124 1.2285012-1.270366 1.2285012" fill="#d9f0ff"/><path d="m104.729634 83h-103.45926769c-.70187739 0-1.27036631-.5497543-1.27036631-1.2285012v-4.5429976c0-.6787469.56848892-1.2285012 1.27036631-1.2285012h103.45926769c.701242 0 1.270366.5497543 1.270366 1.2285012v4.5429976c0 .6787469-.569124 1.2285012-1.270366 1.2285012z" stroke="#3098dc"/><path d="m10 71h86v-61h-86z" fill="#fefefe"/><g stroke="#3098dc"><path d="m10 71h86v-61h-86z"/><rect fill="#fff" height="53" rx="2" width="77" x="14.5" y="14.5"/><path d="m14.5 21.5h77v-5.5c0-.8284271-.6715729-1.5-1.5-1.5h-74c-.8284271 0-1.5.6715729-1.5 1.5z" fill="#fff"/><g fill="#d9f0ff"><circle cx="18" cy="18" r="1"/><circle cx="22.769231" cy="18" r="1"/><circle cx="27.538462" cy="18" r="1"/></g></g><g transform="translate(73)"><path d="m19.2986136 29.0578722h-4.6514679c-.0815554 0-.159736-.024129-.2266677-.0696452l-2.7526341-1.8710967-1.2103941-.9722904-6.71791208 1.8146129c-.20866924.0559355-.42802504-.0641613-.48876972-.2681613l-1.94776706-6.5685806c-.02249803-.075129-.02137312-.1535484.00281226-.228129l2.06925642-6.3261936-1.24189132-1.4312903c-.0719937-.0828065-.10574075-.1924839-.09224193-.3005161.01349882-.1080323.07255615-.206742.16311072-.2703549l.22216806-.1568387-.62038321-.5555161c-.08661742-.0784194-.13386328-.1886452-.12992613-.3032581.00449961-.1151613.06018224-.2220967.15186171-.2928387l.34984439-.2698064-.56976264-.4260968c-.09842889-.0734839-.15748622-.1913871-.15636132-.313129.0011249-.1222904.06074469-.2390968.16142337-.3120323l.41846338-.30435484-.99441297-4.68541935c-.01462372-.06690323-.01012412-.13819355.01293636-.20454839l1.51580486-4.47483871c.03430949-.10090322.10911545-.18425806.20641943-.22922581.09730399-.04551612.20979414-.05045161.31047283-.01370967l9.81589099 3.5996129h8.1487869l9.8153286-3.5996129c.1006787-.03729033.2137313-.03180645.3110353.01370967.0978664.04551613.1726723.12887097.2064194.22922581l1.5163673 4.47648387c.0219356.06361291.0264352.13380645.0123739.20180645l-.9837264 4.68816129.411714.30490323c.1001162.07403225.1574862.18754835.1580486.31038705.0005625.1211936-.0579324.238-.1557988.3120323l-.5703251.4266452.3492819.2698064c.0922419.0712903.1473621.1782258.1512993.2928387.0044996.1151613-.0427463.2253871-.1293637.3027097l-.6203832.5560645.2227305.1573871c.0899921.0630645.1490494.1617742.1625483.2703549.0134988.1080322-.0208107.2177096-.0928044.3005161l-1.2407664 1.4301935 2.0805054 6.3256452c.0247478.0734839.0258727.153.0039372.2286774l-1.9612659 6.5696774c-.0601822.2034516-.2801005.3224516-.4882073.2676129l-6.7179121-1.8146129-1.2469534.9986129-2.7160748 1.8447742c-.0669316.0455162-.1456747.0696452-.2266677.0696452z" fill="#fff" stroke="#3098dc"/><g fill="#3098dc"><path d="m18.0235556 24.6774194h-2.3667928l-.4105891.3175161-.1563613 1.913871h3.5006936l-.1569237-1.913871z"/><path d="m20.5891522 17.1247473-.9786643 2.0992258c-.0793056.17.0781806.3537097.25704.2999677l3.3370205-1.0013548c.1901083-.0570323.2092317-.3213548.028685-.4047097l-2.3583562-1.0978709c-.1074281-.0499033-.2351044-.0032904-.285725.1047419"/><path d="m13.0701367 17.0200164-2.3549814 1.0973226c-.1799843.0839032-.1614234.3476774.0292474.4052581l3.3364581 1.0013548c.1788593.0537419.3363455-.1305161.25704-.3005161l-.9820391-2.0992258c-.0506206-.1074839-.1782969-.1540968-.285725-.1041936"/></g></g><text fill="#3098dc" font-family="RobotoMono-Bold, Roboto Mono" font-size="10" font-weight="bold"><tspan x="24.495117" y="43">LOGIN WITH </tspan><tspan x="30.496094" y="56">METAMASK</tspan></text></g></svg>