<?xml version="1.0" encoding="UTF-8"?>
<svg width="224px" height="114px" viewBox="0 0 224 114" version="1.1" xmlns="http://www.w3.org/2000/svg" xmlns:xlink="http://www.w3.org/1999/xlink">
    <!-- Generator: Sketch 61.2 (89653) - https://sketch.com -->
    <title>hardware-wallet-step-1</title>
    <desc>Created with Sketch.</desc>
    <g id="页面-1" stroke="none" stroke-width="1" fill="none" fill-rule="evenodd">
        <g id="画板" transform="translate(-438.000000, -205.000000)">
            <g id="hardware-wallet-step-1" transform="translate(439.000000, 206.000000)">
                <polygon id="路径" fill="#D9F0FF" fill-rule="nonzero" points="17 16 83 16 83 24 17 24"></polygon>
                <g id="编组" transform="translate(104.000000, 38.000000)" stroke="#3098DC">
                    <path d="M7.333,0 L13.425,5.29 L7.333,10.58 M0,5.21 L13.5,5.21" id="形状"></path>
                </g>
                <path d="M214.536,82.19 L131.162,82.19 C132.599349,83.0219654 133.299111,84.7152951 132.86839,86.319233 C132.437669,87.923171 130.983764,89.038156 129.323,89.038156 C127.662236,89.038156 126.208331,87.923171 125.77761,86.319233 C125.346889,84.7152951 126.046651,83.0219654 127.484,82.19 L127.484,10.677 C126.192482,42.567026 99.293526,67.3720179 67.4035,66.0805 C35.513474,64.7889821 10.7084821,37.890026 12,6 L95.374,6 L95.374,73.835 C93.9372673,73.0030885 93.237949,71.3102655 93.6686509,69.7069023 C94.0993527,68.1035391 95.5527959,66.9889995 97.213,66.9889995 C98.8732041,66.9889995 100.326647,68.1035391 100.757349,69.7069023 C101.188051,71.3102655 100.488733,73.0030885 99.052,73.835" id="路径" fill="#FEFEFE" fill-rule="nonzero"></path>
                <path d="M214.536,82.19 L131.162,82.19 C132.599349,83.0219654 133.299111,84.7152951 132.86839,86.319233 C132.437669,87.923171 130.983764,89.038156 129.323,89.038156 C127.662236,89.038156 126.208331,87.923171 125.77761,86.319233 C125.346889,84.7152951 126.046651,83.0219654 127.484,82.19 L127.484,10.677 C126.192482,42.567026 99.293526,67.3720179 67.4035,66.0805 C35.513474,64.7889821 10.7084821,37.890026 12,6 L95.374,6 L95.374,73.835 C93.9372673,73.0030885 93.237949,71.3102655 93.6686509,69.7069023 C94.0993527,68.1035391 95.5527959,66.9889995 97.213,66.9889995 C98.8732041,66.9889995 100.326647,68.1035391 100.757349,69.7069023 C101.188051,71.3102655 100.488733,73.0030885 99.052,73.835 L214.536,82.19 Z" id="路径" stroke="#3098DC"></path>
                <path d="M222.706,82.63 L123.222,82.63 C102.06121,113.343107 60.0091072,121.08679 29.296,99.926 C-1.41710722,78.7652098 -9.16079019,36.7131072 12,6 L12,1.467 C12,0.79 12.547,0.241 13.222,0.241 L112.706,0.241 C113.38,0.241 113.927,0.79 113.927,1.467 L113.927,6 C113.927,6.677 113.38,7.226 112.706,7.226" id="路径" fill="#D9F0FF" fill-rule="nonzero"></path>
                <path d="M222.706,82.63 L123.222,82.63 C102.06121,113.343107 60.0091072,121.08679 29.296,99.926 C-1.41710722,78.7652098 -9.16079019,36.7131072 12,6 L12,1.467 C12,0.79 12.547,0.241 13.222,0.241 L112.706,0.241 C113.38,0.241 113.927,0.79 113.927,1.467 L113.927,6 C113.927,6.677 113.38,7.226 112.706,7.226 L222.706,82.63 Z" id="路径" stroke="#3098DC"></path>
                <polygon id="路径" fill="#FEFEFE" fill-rule="nonzero" points="131.772 70.695 214.155 70.695 214.155 11.903 131.772 11.903"></polygon>
                <polygon id="路径" stroke="#3098DC" points="131.772 70.695 214.155 70.695 214.155 11.903 131.772 11.903"></polygon>
                <g id="CONF" transform="translate(155.000000, 26.000000)" stroke="#3098DC">
                    <ellipse id="椭圆形" fill="#FFFFFF" cx="18" cy="14.9361702" rx="17.5" ry="14.4361702"></ellipse>
                    <path d="M21.8297872,20.6808511 C20.6938788,20.5664686 19.8878408,20.4042138 19.411673,20.1940866 C18.9355053,19.9839594 18.4649476,19.3802568 18,18.3829787 C17.7477975,19.3214761 17.3705535,19.9251787 16.868268,20.1940866 C16.3659824,20.4629945 15.4666307,20.6252493 14.1702128,20.6808511" id="路径-7" stroke-linecap="round" stroke-linejoin="round"></path>
                    <line x1="17.9897149" y1="18.4867645" x2="17.9897149" y2="22.1446975" id="路径-8" stroke-linecap="round"></line>
                    <path d="M15.3191489,21.0254945 C15.3191489,22.0636012 15.3191489,22.5826546 15.3191489,22.5826546 C15.3191489,22.5826546 17.0505631,22.5826546 20.5133914,22.5826546 L20.5133914,20.8794465" id="路径-9" stroke-linecap="round" stroke-linejoin="round"></path>
                    <path d="M2.01961436,9.02225316 C0.674451463,6.30612118 0.900162068,4.15223986 2.69674618,2.56060921 C4.49333029,0.968978557 6.57546543,0.857401097 8.9431516,2.22587683 L6.71596576,3.61249169 C5.6049397,3.27040392 4.73401218,3.38840176 4.10318318,3.96648521 C3.47235418,4.54456865 3.32287778,5.46723321 3.65475399,6.73447889 L2.01961436,9.02225316 Z" id="路径-3"></path>
                    <path d="M28.4383807,9.27727358 C27.0932178,6.5611416 27.3189284,4.40726029 29.1155125,2.81562963 C30.9120966,1.22399898 32.9942318,1.11242152 35.3619179,2.48089725 L33.1347321,3.86751211 C32.023706,3.52542435 31.1527785,3.64342219 30.5219495,4.22150563 C29.8911205,4.79958908 29.7416441,5.72225364 30.0735203,6.98949931 L28.4383807,9.27727358 Z" id="路径-3备份" transform="translate(31.468193, 5.404594) scale(-1, 1) translate(-31.468193, -5.404594) "></path>
                    <path d="M14.5588015,17.7572723 C15.7579787,14.1124917 16.9050449,12.2901014 18,12.2901014 C19.0949551,12.2901014 20.2351646,14.1124917 21.4206283,17.7572723 L14.5588015,17.7572723 Z" id="路径-4"></path>
                    <path d="M9.19148936,13.0212766 C9.47315492,13.7100233 9.87903092,14.0543966 10.4091174,14.0543966 C10.9392038,14.0543966 11.3194398,13.7100233 11.5498255,13.0212766 L9.19148936,13.0212766 Z" id="路径-5" fill="#1732E6"></path>
                    <path d="M24.5106383,13.0212766 C24.7923039,13.7100233 25.1981799,14.0543966 25.7282663,14.0543966 C26.2583527,14.0543966 26.6385888,13.7100233 26.8689744,13.0212766 L24.5106383,13.0212766 Z" id="路径-5备份" fill="#1732E6"></path>
                    <line x1="6.12765957" y1="12.2553191" x2="14.5531915" y2="12.2553191" id="直线" stroke-linecap="square"></line>
                    <line x1="21.4468085" y1="12.2553191" x2="29.8723404" y2="12.2553191" id="直线备份" stroke-linecap="square"></line>
                    <circle id="椭圆形" cx="10.3404255" cy="12.2553191" r="4.4787234"></circle>
                    <circle id="椭圆形备份-5" cx="25.6595745" cy="12.2553191" r="4.4787234"></circle>
                </g>
                <g id="编组" transform="translate(13.000000, 16.000000)">
                    <g stroke="#3098DC">
                        <path d="M66.957,59 L3.686,59 C1.65,59 0,57.332 0,55.274 L0,3.726 C0,1.67 1.65,0 3.686,0 L66.957,0 C68.992,0 70.643,1.669 70.643,3.726 L70.643,55.274 C70.643,57.332 68.993,59 66.957,59 Z" id="路径"></path>
                        <path d="M66.957,7.453 L3.686,7.453 C1.65,7.453 0,5.784 0,3.726 C0,1.67 1.65,0 3.686,0 L66.957,0 C68.992,0 70.643,1.669 70.643,3.726 M66.957,7.453 C68.992,7.453 70.643,9.121 70.643,11.179 M70.643,23.599 L85.532,23.599 L85.532,19.874 L70.642,19.874 L70.643,23.599 Z M70.643,38.653 L85.532,38.653 L85.532,23.6 L70.642,23.6 L70.643,38.653 Z" id="形状"></path>
                    </g>
                    <g id="conluxmeta" transform="translate(27.000000, 26.000000)" fill="#3098DC">
                        <path d="M14.6422018,5.58715596 L13.4862385,3.59633028 L16.0550459,0.770642202 L17.2110092,2.76146789 L14.6422018,5.58715596 Z M11.559633,3.72477064 L13.2165138,1.79816514 L10.833945,1.79816514 L8.89449541,3.92385321 L8.00183486,2.99908257 L10.146789,0.642201835 L15.8623853,0.642201835 L13.2743119,3.46146789 L11.559633,3.72477064 Z M14.4495413,5.71559633 L12.4587156,6.10091743 L11.2385321,4.04587156 L13.293578,3.72477064 L14.4495413,5.71559633 Z M11.7522936,3.14678899 L11.2385321,2.05504587 L12.7155963,2.05504587 L11.7522936,3.14678899 Z M11.4119266,4.8293578 L10.6155963,5.70917431 L9.06146789,4.09724771 L10.9174312,2.05504587 L11.5724771,3.32018349 L10.9174312,4.04587156 L11.4119266,4.8293578 Z M14.2568807,13.8073394 L3.14678899,1.9266055 L4.97706422,0.128440367 L16.1834862,12.0091743 L14.2568807,13.8073394 Z M0,1.79816514 L1.86238532,0 L4.75229358,0 L2.88990826,1.79816514 L0,1.79816514 Z M9.63302752,12.1376147 L10.3394495,11.4954128 L10.9816514,12.1376147 L9.63302752,12.1376147 Z M14,14 L11.2899083,14 L9.61376147,12.3880734 L11.6238532,12.3944954 L3.33944954,3.33944954 L1.9266055,3.33944954 L3.79541284,5.43944954 L3.08256881,5.33027523 L0.0642201835,2.11926606 L2.95412844,2.11926606 L14,14 Z M3.27522936,3.59633028 L4.62385321,5.0733945 L4.11009174,5.39449541 L2.44036697,3.59633028 L3.27522936,3.59633028 Z M6.21651376,6.85229358 L3.21100917,10.146789 L6.87155963,10.146789 L5.18256881,11.6174312 L0.128440367,11.6238532 L5.34954128,5.90183486 L6.21651376,6.85229358 Z M6.2293578,13.8715596 L1.22018349,13.8715596 L0.128440367,11.8807339 L5.13761468,11.8807339 L6.2293578,13.8715596 Z M3.78899083,9.88990826 L6.38348624,7.03853211 L7.89266055,8.69541284 L6.80733945,9.88990826 L3.78899083,9.88990826 Z M7.12844037,10.2110092 L8.34862385,12.266055 L6.55045872,13.8073394 L5.39449541,11.7522936 L7.12844037,10.2110092 Z" id="形状_12"></path>
                    </g>
                    <path d="M50.467,32.964 C50.467,24.363 43.57,17.389 35.062,17.389 C26.554,17.389 19.657,24.363 19.657,32.964 C19.657,41.566 26.554,48.539 35.062,48.539 C43.57,48.539 50.467,41.566 50.467,32.964 Z" id="路径" stroke="#3098DC"></path>
                </g>
            </g>
        </g>
    </g>
</svg>