<svg height="85" width="108" xmlns="http://www.w3.org/2000/svg">
    <g fill="none" fill-rule="evenodd">
        <path d="M97.202 84H10.798A3.807 3.807 0 017 80.185V9.815C7 7.708 8.7 6 10.798 6h86.404A3.806 3.806 0 01101 9.815v70.37C101 82.292 99.3 84 97.202 84" fill="#fefefe"/>
        <path d="M97.202 84H10.798A3.807 3.807 0 017 80.185V9.815C7 7.708 8.7 6 10.798 6h86.404A3.806 3.806 0 01101 9.815v70.37C101 82.292 99.3 84 97.202 84z" stroke="#3098dc"/>
        <path d="M105.73 84H2.27C1.568 84 1 83.45 1 82.771V78.23C1 77.549 1.568 77 2.27 77h103.46c.7 0 1.27.55 1.27 1.229v4.542c0 .68-.57 1.229-1.27 1.229" fill="#d9f0ff"/>
        <path d="M105.73 84H2.27C1.568 84 1 83.45 1 82.771V78.23C1 77.549 1.568 77 2.27 77h103.46c.7 0 1.27.55 1.27 1.229v4.542c0 .68-.57 1.229-1.27 1.229z" stroke="#3098dc"/>
        <path d="M11 72h86V11H11z" fill="#fefefe"/>
        <g stroke="#3098dc" transform="translate(1 1)">
            <path d="M10 71h86V10H10z"/>
            <rect fill="#fff" height="53" rx="2" width="77" x="14.5" y="14.5"/>
            <path d="M14.5 21.5h77V16a1.5 1.5 0 00-1.5-1.5H16a1.5 1.5 0 00-1.5 1.5z" fill="#fff"/>
            <g fill="#d9f0ff">
                <circle cx="18" cy="18" r="1"/>
                <circle cx="22.769" cy="18" r="1"/>
                <circle cx="27.538" cy="18" r="1"/>
            </g>
        </g>
        <path d="M93.299 30.058h-4.652a.401.401 0 01-.227-.07l-2.752-1.87-1.21-.973-6.718 1.814a.403.403 0 01-.49-.268l-1.947-6.568a.38.38 0 01.003-.228l2.07-6.327-1.243-1.43a.386.386 0 01.071-.572l.222-.157-.62-.555a.39.39 0 01-.13-.303.39.39 0 01.152-.293l.35-.27-.57-.426a.39.39 0 01-.157-.313.391.391 0 01.162-.312l.418-.305-.994-4.685a.379.379 0 01.013-.205l1.516-4.474c.034-.101.109-.185.206-.23a.406.406 0 01.31-.013l9.816 3.6h8.15l9.815-3.6a.405.405 0 01.31.013.392.392 0 01.207.23l1.516 4.476a.383.383 0 01.013.202l-.984 4.688.412.305a.386.386 0 01.002.622l-.57.427.349.27a.387.387 0 01.022.595l-.62.556.222.158a.387.387 0 01.07.57l-1.24 1.43 2.08 6.326a.382.382 0 01.004.23l-1.962 6.569a.403.403 0 01-.488.267l-6.718-1.814-1.247.998-2.716 1.845a.402.402 0 01-.226.07z" fill="#fff" stroke="#3098dc"/>
        <g fill="#3098dc">
            <path d="M92.024 25.677h-2.367l-.41.318-.157 1.914h3.5l-.156-1.914zM94.59 18.125l-.98 2.099c-.079.17.079.354.258.3l3.337-1.001a.217.217 0 00.028-.405l-2.358-1.098a.215.215 0 00-.286.105M87.07 18.02l-2.355 1.097a.218.218 0 00.03.406l3.336 1.001a.217.217 0 00.257-.3l-.982-2.1a.216.216 0 00-.286-.104"/>
        </g>
        <text fill="#3098dc" font-family="RobotoMono-Bold, Roboto Mono" font-size="10" font-weight="bold" transform="translate(1 1)">
            <tspan x="24.495" y="43">LOGIN WITH </tspan><tspan x="30.496" y="56">METAMASK</tspan>
        </text>
    </g>
</svg>
