<svg height="78" width="213" xmlns="http://www.w3.org/2000/svg">
    <g fill="none" fill-rule="evenodd">
        <path d="M5 10h66v8H5a4 4 0 110-8z" fill="#d9f0ff"/>
        <g stroke="#3098dc">
            <path d="M99.333 32l6.092 5.29-6.092 5.29M92 37.21h13.5"/>
        </g>
        <path d="M202.536 76.19h-83.374a3.671 3.671 0 01-3.665-3.678V4.677A3.671 3.671 0 01119.162 1h83.374a3.67 3.67 0 013.665 3.677v67.835a3.67 3.67 0 01-3.665 3.678" fill="#fefefe"/>
        <path d="M202.536 76.19h-83.374a3.671 3.671 0 01-3.665-3.678V4.677A3.671 3.671 0 01119.162 1h83.374a3.67 3.67 0 013.665 3.677v67.835a3.67 3.67 0 01-3.665 3.678z" stroke="#3098dc"/>
        <path d="M210.706 76.63h-99.484A1.223 1.223 0 01110 75.404v-4.533c0-.677.547-1.226 1.222-1.226h99.484c.674 0 1.221.549 1.221 1.226v4.533c0 .677-.547 1.226-1.221 1.226" fill="#d9f0ff"/>
        <path d="M210.706 76.63h-99.484A1.223 1.223 0 01110 75.404v-4.533c0-.677.547-1.226 1.222-1.226h99.484c.674 0 1.221.549 1.221 1.226v4.533c0 .677-.547 1.226-1.221 1.226z" stroke="#3098dc"/>
        <path d="M119.772 64.695h82.383V5.903h-82.383z" fill="#fefefe"/>
        <path d="M119.772 64.695h82.383V5.903h-82.383z" stroke="#3098dc"/>
        <path d="M163.433 52.476h-5.051a.427.427 0 01-.247-.077l-2.989-2.092-1.314-1.086-7.295 2.028a.435.435 0 01-.531-.3l-2.115-7.341a.437.437 0 01.003-.255l2.247-7.07-1.349-1.6a.44.44 0 01.077-.638l.242-.176-.674-.62a.442.442 0 01.024-.667l.38-.301-.62-.477a.44.44 0 01.006-.698l.455-.34-1.08-5.237a.435.435 0 01.014-.229l1.646-5.001a.434.434 0 01.561-.271l10.66 4.023h8.849l10.658-4.023a.429.429 0 01.562.271l1.647 5.003a.44.44 0 01.013.226l-1.068 5.24.447.34a.443.443 0 01.002.696l-.619.477.38.301c.1.08.16.2.164.328a.436.436 0 01-.14.338l-.674.621.242.176a.437.437 0 01.075.638l-1.347 1.599 2.26 7.07a.439.439 0 01.003.255l-2.13 7.343a.436.436 0 01-.53.299l-7.295-2.028-1.354 1.116-2.95 2.062a.428.428 0 01-.245.077" fill="#fefefe"/>
        <path d="M163.433 52.476h-5.051a.427.427 0 01-.247-.077l-2.989-2.092-1.314-1.086-7.295 2.028a.435.435 0 01-.531-.3l-2.115-7.341a.437.437 0 01.003-.255l2.247-7.07-1.349-1.6a.44.44 0 01.077-.638l.242-.176-.674-.62a.442.442 0 01.024-.667l.38-.301-.62-.477a.44.44 0 01.006-.698l.455-.34-1.08-5.237a.435.435 0 01.014-.229l1.646-5.001a.434.434 0 01.561-.271l10.66 4.023h8.849l10.658-4.023a.429.429 0 01.562.271l1.647 5.003a.44.44 0 01.013.226l-1.068 5.24.447.34a.443.443 0 01.002.696l-.619.477.38.301c.1.08.16.2.164.328a.436.436 0 01-.14.338l-.674.621.242.176a.437.437 0 01.075.638l-1.347 1.599 2.26 7.07a.439.439 0 01.003.255l-2.13 7.343a.436.436 0 01-.53.299l-7.295-2.028-1.354 1.116-2.95 2.062a.428.428 0 01-.245.077z" stroke="#3098dc"/>
        <g fill="#3098dc">
            <path d="M162.048 47.58h-2.57l-.446.356-.17 2.139h3.802l-.17-2.14zM164.834 39.14l-1.063 2.346c-.086.19.085.395.28.335l3.623-1.12c.207-.063.227-.358.031-.452l-2.56-1.227a.231.231 0 00-.31.117M156.67 39.022l-2.558 1.227c-.196.094-.176.388.031.453l3.624 1.119c.194.06.365-.146.279-.336l-1.067-2.346a.231.231 0 00-.31-.117"/>
        </g>
        <g>
            <g stroke="#3098dc">
                <path d="M67.957 69H4.686C2.65 69 1 67.332 1 65.274V13.726C1 11.67 2.65 10 4.686 10h63.271c2.035 0 3.686 1.669 3.686 3.726v51.548c0 2.058-1.65 3.726-3.686 3.726z"/>
                <path d="M67.957 17.453H4.686C2.65 17.453 1 15.784 1 13.726 1 11.67 2.65 10 4.686 10h63.271c2.035 0 3.686 1.669 3.686 3.726M67.957 17.453c2.035 0 3.686 1.668 3.686 3.726M71.643 33.599h14.889v-3.725h-14.89zM71.643 48.653h14.889V33.6h-14.89z"/>
            </g>
            <path d="M36.278 32.358l-6.311 10.478 6.311 3.732 6.312-3.73zm-.095 15.405l-6.312-3.73 6.312 8.9 6.316-8.9-6.317 3.73z" fill="#3098dc"/>
            <path d="M51.467 42.964c0-8.601-6.897-15.575-15.405-15.575s-15.405 6.974-15.405 15.575c0 8.602 6.897 15.575 15.405 15.575s15.405-6.973 15.405-15.575z" stroke="#3098dc"/>
        </g>
    </g>
</svg>
