<svg height="78" viewBox="0 0 213 78" width="213" xmlns="http://www.w3.org/2000/svg"><g fill="none" fill-rule="evenodd" transform="translate(1 1)"><path d="m4 9h66v8h-66c-2.209139 0-4-1.790861-4-4 0-2.209139 1.790861-4 4-4z" fill="#d9f0ff"/><g stroke="#3098dc" transform="translate(91 31)"><path d="m7.33333333 0 6.09199997 5.29042105-6.09199997 5.28984215"/><path d="m0 5.21052632h13.5"/></g><g transform="translate(109)"><path d="m92.535988 75.1897419h-83.37431135c-2.02350899 0-3.66467066-1.646258-3.66467066-3.6774193v-67.83490325c0-2.03116129 1.64116167-3.67741935 3.66467066-3.67741935h83.37431135c2.0241198 0 3.6646707 1.64625806 3.6646707 3.67741935v67.83490325c0 2.0311613-1.6405509 3.6774193-3.6646707 3.6774193" fill="#fefefe"/><path d="m92.535988 75.1897419h-83.37431135c-2.02350899 0-3.66467066-1.646258-3.66467066-3.6774193v-67.83490325c0-2.03116129 1.64116167-3.67741935 3.66467066-3.67741935h83.37431135c2.0241198 0 3.6646707 1.64625806 3.6646707 3.67741935v67.83490325c0 2.0311613-1.6405509 3.6774193-3.6646707 3.6774193z" stroke="#3098dc"/><path d="m100.70576 75.6298065h-99.48420311c-.67491018 0-1.22155689-.5485484-1.22155689-1.2258065v-4.5330323c0-.677258.54664671-1.2258064 1.22155689-1.2258064h99.48420311c.6743 0 1.221557.5485484 1.221557 1.2258064v4.5330323c0 .6772581-.547257 1.2258065-1.221557 1.2258065" fill="#d9f0ff"/><path d="m100.70576 75.6298065h-99.48420311c-.67491018 0-1.22155689-.5485484-1.22155689-1.2258065v-4.5330323c0-.677258.54664671-1.2258064 1.22155689-1.2258064h99.48420311c.6743 0 1.221557.5485484 1.221557 1.2258064v4.5330323c0 .6772581-.547257 1.2258065-1.221557 1.2258065z" stroke="#3098dc"/><path d="m9.77245509 63.6953548h82.38301801v-58.79212899h-82.38301801z" fill="#fefefe"/><path d="m9.77245509 63.6953548h82.38301801v-58.79212899h-82.38301801z" stroke="#3098dc"/><path d="m53.4327111 51.4764454h-5.0511377c-.0885629 0-.1734611-.0269678-.2461438-.0778387l-2.9891497-2.0912258-1.3143952-1.0866774-7.2951377 2.0280967c-.2265988.0625162-.4648024-.0717096-.5307665-.2997096l-2.1151257-7.3413549c-.0244311-.0839677-.0232096-.1716129.0030539-.2549677l2.2470539-7.0704516-1.3485988-1.5996775c-.0781797-.0925483-.1148264-.215129-.1001677-.3358709.0146587-.120742.0787904-.2310645.1771258-.3021613l.2412574-.1752903-.6736886-.620871c-.0940599-.0876452-.1453652-.2108387-.1410898-.3389355.0048862-.1287097.0653533-.2482258.1649102-.3272903l.3799042-.3015484-.6187186-.4762258c-.1068862-.082129-.171018-.2139032-.1697964-.3499678.0012216-.1366774.0659641-.2672258.1752934-.3487419l.4544192-.3401613-1.0798563-5.2366451c-.0158803-.0747742-.010994-.1544517.0140479-.2286129l1.6460479-5.0012904c.0372575-.1127742.118491-.2059354.2241557-.2561935.1056647-.050871.2278203-.0563871.3371497-.0153226l10.6593054 4.0230968h8.8489581l10.6586946-4.0230968c.1093293-.0416774.2320958-.0355484.3377604.0153226.1062755.050871.187509.1440322.2241557.2561935l1.6466587 5.0031291c.0238204.0710967.0287066.1495484.0134371.2255484l-1.0682515 5.2397096.4470899.3407742c.1087185.082742.1710179.2096129.1716287.3469033.0006108.1354516-.0629102.266-.1691856.3487419l-.6193294.4768387.3792935.3015484c.1001676.0796774.1600239.1991935.1642994.3272903.0048862.1287097-.0464192.2519032-.1404791.3383226l-.6736886.6214839.2418683.1759032c.0977245.0704839.1618562.1808064.1765149.3021613.0146587.1207419-.0225988.2433226-.1007784.3358709l-1.3473773 1.5984517 2.2592695 7.0698387c.0268742.082129.0280958.171.0042754.2555806l-2.1297844 7.3425807c-.0653533.2273871-.3041676.3603871-.5301557.2990967l-7.2951377-2.0280967-1.3540958 1.1160967-2.9494491 2.0618065c-.0726826.0508709-.1581916.0778387-.2461437.0778387" fill="#fefefe"/><path d="m53.4327111 51.4764454h-5.0511377c-.0885629 0-.1734611-.0269678-.2461438-.0778387l-2.9891497-2.0912258-1.3143952-1.0866774-7.2951377 2.0280967c-.2265988.0625162-.4648024-.0717096-.5307665-.2997096l-2.1151257-7.3413549c-.0244311-.0839677-.0232096-.1716129.0030539-.2549677l2.2470539-7.0704516-1.3485988-1.5996775c-.0781797-.0925483-.1148264-.215129-.1001677-.3358709.0146587-.120742.0787904-.2310645.1771258-.3021613l.2412574-.1752903-.6736886-.620871c-.0940599-.0876452-.1453652-.2108387-.1410898-.3389355.0048862-.1287097.0653533-.2482258.1649102-.3272903l.3799042-.3015484-.6187186-.4762258c-.1068862-.082129-.171018-.2139032-.1697964-.3499678.0012216-.1366774.0659641-.2672258.1752934-.3487419l.4544192-.3401613-1.0798563-5.2366451c-.0158803-.0747742-.010994-.1544517.0140479-.2286129l1.6460479-5.0012904c.0372575-.1127742.118491-.2059354.2241557-.2561935.1056647-.050871.2278203-.0563871.3371497-.0153226l10.6593054 4.0230968h8.8489581l10.6586946-4.0230968c.1093293-.0416774.2320958-.0355484.3377604.0153226.1062755.050871.187509.1440322.2241557.2561935l1.6466587 5.0031291c.0238204.0710967.0287066.1495484.0134371.2255484l-1.0682515 5.2397096.4470899.3407742c.1087185.082742.1710179.2096129.1716287.3469033.0006108.1354516-.0629102.266-.1691856.3487419l-.6193294.4768387.3792935.3015484c.1001676.0796774.1600239.1991935.1642994.3272903.0048862.1287097-.0464192.2519032-.1404791.3383226l-.6736886.6214839.2418683.1759032c.0977245.0704839.1618562.1808064.1765149.3021613.0146587.1207419-.0225988.2433226-.1007784.3358709l-1.3473773 1.5984517 2.2592695 7.0698387c.0268742.082129.0280958.171.0042754.2555806l-2.1297844 7.3425807c-.0653533.2273871-.3041676.3603871-.5301557.2990967l-7.2951377-2.0280967-1.3540958 1.1160967-2.9494491 2.0618065c-.0726826.0508709-.1581916.0778387-.2461437.0778387z" stroke="#3098dc"/><g fill="#3098dc"><path d="m52.0480958 46.5806452h-2.5701557l-.4458682.3548709-.1697965 2.1390323h3.8014851l-.1704072-2.1390323z"/><path d="m54.8341371 38.1394234-1.0627545 2.3461936c-.0861198.19.0848982.3953226.2791257.3352581l3.6237486-1.1191613c.2064431-.063742.2272095-.3591613.0311497-.4523226l-2.5609941-1.2270323c-.1166586-.0557742-.2553053-.0036774-.3102754.1170645"/><path d="m46.6690624 38.0223713-2.5573293 1.2264193c-.1954491.0937742-.1752934.3885807.0317605.4529355l3.6231377 1.1191613c.1942276.0600645.3652455-.145871.2791258-.335871l-1.0664192-2.3461935c-.0549701-.120129-.1936168-.1722258-.3102755-.1164516"/></g></g><g transform="translate(0 9)"><g stroke="#3098dc"><path d="m66.9571429 59h-63.27142861c-2.03512858 0-3.68571429-1.6681474-3.68571429-3.7263158v-51.54736841c0-2.05754737 1.65058571-3.72631579 3.68571429-3.72631579h63.27142861c2.0351285 0 3.6857142 1.66876842 3.6857142 3.72631579v51.54736841c0 2.0581684-1.6505857 3.7263158-3.6857142 3.7263158z"/><path d="m66.9571429 7.45263158h-63.27142861c-2.03512858 0-3.68571429-1.66814737-3.68571429-3.72631579 0-2.05754737 1.65058571-3.72631579 3.68571429-3.72631579h63.27142861c2.0351285 0 3.6857142 1.66876842 3.6857142 3.72631579"/><path d="m66.9571429 7.45263158c2.0351285 0 3.6857142 1.66876842 3.6857142 3.72631582"/><path d="m70.6428571 23.5987579h14.8890572v-3.7250737h-14.8890572z"/><path d="m70.6428571 38.6530737h14.8890572v-15.0530737h-14.8890572z"/></g><path d="m35.2784286 22.3578947-6.3117857 10.477779 6.3117857 3.7325263 6.3117857-3.7294211zm-.0952143 15.4052106-6.3117857-3.7294211 6.3117857 8.8984421 6.3154714-8.8984421-6.3167 3.7294211z" fill="#3098dc"/><path d="m50.4672571 32.9642316c0-8.601579-6.8972-15.5747579-15.4050571-15.5747579s-15.4050571 6.9731789-15.4050571 15.5747579c0 8.6022 6.8972 15.5747579 15.4050571 15.5747579s15.4050571-6.9725579 15.4050571-15.5747579z" stroke="#3098dc"/></g></g></svg>