<?xml version="1.0" encoding="UTF-8"?>
<svg width="146px" height="86px" viewBox="0 0 146 86" version="1.1" xmlns="http://www.w3.org/2000/svg" xmlns:xlink="http://www.w3.org/1999/xlink">
    <!-- Generator: Sketch 61.2 (89653) - https://sketch.com -->
    <title>hardware-wallet-step-3</title>
    <desc>Created with Sketch.</desc>
    <g id="页面-1" stroke="none" stroke-width="1" fill="none" fill-rule="evenodd">
        <g id="画板" transform="translate(-209.000000, -205.000000)">
            <g id="hardware-wallet-step-3" transform="translate(210.000000, 206.000000)">
                <path d="M134.202,84 L47.798,84 C32.7928451,85.9288772 17.8984665,79.7060782 8.72543254,67.6756714 C-0.44760141,55.6452646 -2.50568861,39.6349548 3.3264325,25.675671 C9.1585536,11.7163872 21.994845,1.92887672 37,0 L37,9.815 C44,7.708 45.7,6 47.798,6 L134.202,6 C133.130204,23.3634652 122.876524,38.8361721 107.303424,46.5897015 C91.7303238,54.343231 73.2037269,53.1996374 58.7024234,43.5897015 C44.20112,33.9797655 35.9282028,17.3634652 37,0 L37,70.37 C138,82.292 136.3,84 134.202,84" id="路径" fill="#FEFEFE" fill-rule="nonzero"></path>
                <path d="M134.202,84 L47.798,84 C32.7928451,85.9288772 17.8984665,79.7060782 8.72543254,67.6756714 C-0.44760141,55.6452646 -2.50568861,39.6349548 3.3264325,25.675671 C9.1585536,11.7163872 21.994845,1.92887672 37,0 L37,9.815 C44,7.708 45.7,6 47.798,6 L134.202,6 C133.130204,23.3634652 122.876524,38.8361721 107.303424,46.5897015 C91.7303238,54.343231 73.2037269,53.1996374 58.7024234,43.5897015 C44.20112,33.9797655 35.9282028,17.3634652 37,0 L37,70.37 C138,82.292 136.3,84 134.202,84 Z" id="路径" stroke="#3098DC"></path>
                <path d="M142.73,84 L39.27,84 C38.568,84 38,83.45 38,82.771 L38,78.23 C38,77.549 38.568,77 39.27,77 L142.73,77 C143.43,77 144,77.55 144,78.229 L144,82.771 C144,83.451 143.43,84 142.73,84" id="路径" fill="#D9F0FF" fill-rule="nonzero"></path>
                <path d="M142.73,84 L39.27,84 C38.568,84 38,83.45 38,82.771 L38,78.23 C38,77.549 38.568,77 39.27,77 L142.73,77 C143.43,77 144,77.55 144,78.229 L144,82.771 C144,83.451 143.43,84 142.73,84 Z" id="路径" stroke="#3098DC"></path>
                <polygon id="路径" fill="#FEFEFE" fill-rule="nonzero" points="48 72 134 72 134 11 48 11"></polygon>
                <g id="编组" transform="translate(48.000000, 11.000000)" stroke="#3098DC">
                    <polygon id="路径" points="0 61 86 61 86 0 0 0"></polygon>
                    <rect id="矩形" fill="#FFFFFF" fill-rule="nonzero" x="4.5" y="4.5" width="77" height="53" rx="2"></rect>
                    <path d="M4.5,11.5 L81.5,11.5 L81.5,6 C81.0358984,6.26794919 80.4641016,6.26794919 80,6 L6,6 C6.46410162,5.73205081 7.03589838,5.73205081 7.5,6 L4.5,11.5 Z" id="路径" fill="#FFFFFF" fill-rule="nonzero"></path>
                    <g transform="translate(7.000000, 7.000000)" fill="#D9F0FF" fill-rule="nonzero" id="椭圆形">
                        <circle cx="1" cy="1" r="1"></circle>
                        <circle cx="5.769" cy="1" r="1"></circle>
                        <circle cx="10.538" cy="1" r="1"></circle>
                    </g>
                </g>
                <g id="编组" transform="translate(62.000000, 27.000000)" fill="#3098DC" font-family="Helvetica" font-size="10" font-weight="normal">
                    <text id="LOGIN-WITH">
                        <tspan x="0.495" y="10">LOGIN WITH</tspan>
                    </text>
                    <text id="CONFLUX-PORTAL">
                        <tspan x="0" y="23">CONFLUX </tspan>
                        <tspan x="0" y="35">PORTAL</tspan>
                    </text>
                </g>
                <g id="CONF" transform="translate(109.000000, 3.000000)" stroke="#3098DC">
                    <ellipse id="椭圆形" fill="#FFFFFF" cx="18" cy="14.9361702" rx="17.5" ry="14.4361702"></ellipse>
                    <path d="M21.8297872,20.6808511 C20.6938788,20.5664686 19.8878408,20.4042138 19.411673,20.1940866 C18.9355053,19.9839594 18.4649476,19.3802568 18,18.3829787 C17.7477975,19.3214761 17.3705535,19.9251787 16.868268,20.1940866 C16.3659824,20.4629945 15.4666307,20.6252493 14.1702128,20.6808511" id="路径-7" stroke-linecap="round" stroke-linejoin="round"></path>
                    <line x1="17.9897149" y1="18.4867645" x2="17.9897149" y2="22.1446975" id="路径-8" stroke-linecap="round"></line>
                    <path d="M15.3191489,21.0254945 C15.3191489,22.0636012 15.3191489,22.5826546 15.3191489,22.5826546 C15.3191489,22.5826546 17.0505631,22.5826546 20.5133914,22.5826546 L20.5133914,20.8794465" id="路径-9" stroke-linecap="round" stroke-linejoin="round"></path>
                    <path d="M2.01961436,9.02225316 C0.674451463,6.30612118 0.900162068,4.15223986 2.69674618,2.56060921 C4.49333029,0.968978557 6.57546543,0.857401097 8.9431516,2.22587683 L6.71596576,3.61249169 C5.6049397,3.27040392 4.73401218,3.38840176 4.10318318,3.96648521 C3.47235418,4.54456865 3.32287778,5.46723321 3.65475399,6.73447889 L2.01961436,9.02225316 Z" id="路径-3" fill="#FFFFFF"></path>
                    <path d="M28.4383807,9.27727358 C27.0932178,6.5611416 27.3189284,4.40726029 29.1155125,2.81562963 C30.9120966,1.22399898 32.9942318,1.11242152 35.3619179,2.48089725 L33.1347321,3.86751211 C32.023706,3.52542435 31.1527785,3.64342219 30.5219495,4.22150563 C29.8911205,4.79958908 29.7416441,5.72225364 30.0735203,6.98949931 L28.4383807,9.27727358 Z" id="路径-3备份" fill="#FFFFFF" transform="translate(31.468193, 5.404594) scale(-1, 1) translate(-31.468193, -5.404594) "></path>
                    <path d="M14.5588015,17.7572723 C15.7579787,14.1124917 16.9050449,12.2901014 18,12.2901014 C19.0949551,12.2901014 20.2351646,14.1124917 21.4206283,17.7572723 L14.5588015,17.7572723 Z" id="路径-4"></path>
                    <path d="M9.19148936,13.0212766 C9.47315492,13.7100233 9.87903092,14.0543966 10.4091174,14.0543966 C10.9392038,14.0543966 11.3194398,13.7100233 11.5498255,13.0212766 L9.19148936,13.0212766 Z" id="路径-5" fill="#1732E6"></path>
                    <path d="M24.5106383,13.0212766 C24.7923039,13.7100233 25.1981799,14.0543966 25.7282663,14.0543966 C26.2583527,14.0543966 26.6385888,13.7100233 26.8689744,13.0212766 L24.5106383,13.0212766 Z" id="路径-5备份" fill="#1732E6"></path>
                    <line x1="6.12765957" y1="12.2553191" x2="14.5531915" y2="12.2553191" id="直线" stroke-linecap="square"></line>
                    <line x1="21.4468085" y1="12.2553191" x2="29.8723404" y2="12.2553191" id="直线备份" stroke-linecap="square"></line>
                    <circle id="椭圆形" cx="10.3404255" cy="12.2553191" r="4.4787234"></circle>
                    <circle id="椭圆形备份-5" cx="25.6595745" cy="12.2553191" r="4.4787234"></circle>
                </g>
            </g>
        </g>
    </g>
</svg>