<svg data-name="Layer 1" xmlns="http://www.w3.org/2000/svg" viewBox="0 0 300 300"><defs><linearGradient id="a" x1="71.37" y1="228.63" x2="228.63" y2="71.37" gradientUnits="userSpaceOnUse"><stop offset="0" stop-color="#00aee9"/><stop offset="1" stop-color="#69fabd"/></linearGradient></defs><path d="M201.17 60a38.81 38.81 0 0 0-38.84 38.71v42.92c-4 .27-8.09.44-12.33.44s-8.31.17-12.33.41V98.71a38.84 38.84 0 0 0-77.67 0v102.58a38.84 38.84 0 0 0 77.67 0v-42.92c4-.27 8.09-.44 12.33-.44s8.31-.17 12.33-.41v43.77a38.84 38.84 0 0 0 77.67 0V98.71A38.81 38.81 0 0 0 201.17 60ZM98.83 75.86a22.91 22.91 0 0 1 22.92 22.85v45.45a130.64 130.64 0 0 0-33 9.33 60 60 0 0 0-12.8 7.64V98.71a22.91 22.91 0 0 1 22.88-22.85Zm22.92 125.43a22.92 22.92 0 0 1-45.84 0V191c0-9.09 7.2-17.7 19.27-23.06a113 113 0 0 1 26.57-7.77Zm79.42 22.85a22.91 22.91 0 0 1-22.92-22.85v-45.45a130.64 130.64 0 0 0 33-9.33 60 60 0 0 0 12.8-7.64v62.42a22.91 22.91 0 0 1-22.88 22.85Zm3.65-92.14a113 113 0 0 1-26.57 7.77V98.71a22.92 22.92 0 0 1 45.84 0V109c0 9.05-7.2 17.66-19.27 23Z" style="fill:url(#a)"/><path style="fill:none" d="M0 0h300v300H0z"/></svg>