<svg height="24" viewBox="51.64 0 24.088 24" width="24.088" xmlns="http://www.w3.org/2000/svg">
    <path d="M67.495 2.012C65.976.858 64.266.461 62.096.461c-1.646 0-3.053.337-4.168 1.087-1.646 1.121-2.419 3.003-2.419 5.979h4.241c0-.794-.078-1.65.385-2.384.465-.734 1.11-1.297 2.22-1.297 1.126 0 1.707.325 2.254.999.464.574.641 1.258.641 1.987 0 .63-.321 1.209-.701 1.734a3.713 3.713 0 01-.834.85s-2.293 1.364-3.098 2.656c-.602.961-.817 2.166-.866 3.606-.006.105.031.32.396.32h3.412s.388-.243.393-.342c.021-.526.089-1.331.183-1.635.182-.575.534-1.076 1.087-1.507l1.144-.791c1.032-.807 1.854-1.463 2.22-1.982.623-.851 1.06-1.899 1.06-3.142-.002-2.024-.749-3.521-2.151-4.587zm-5.691 16.183c-1.431-.044-2.613.95-2.661 2.501-.046 1.557 1.075 2.578 2.512 2.623 1.489.044 2.645-.916 2.688-2.468.045-1.552-1.049-2.612-2.539-2.656z"/>
</svg>
