<?xml version="1.0" encoding="utf-8"?>
<!-- Generator: Adobe Illustrator 16.0.0, SVG Export Plug-In . SVG Version: 6.00 Build 0)  -->
<!DOCTYPE svg PUBLIC "-//W3C//DTD SVG 1.1//EN" "http://www.w3.org/Graphics/SVG/1.1/DTD/svg11.dtd">
<svg version="1.1" id="Layer_1" xmlns="http://www.w3.org/2000/svg" xmlns:xlink="http://www.w3.org/1999/xlink" x="0px" y="0px"
	 width="24.088px" height="24px" viewBox="51.64 0 24.088 24" enable-background="new 51.64 0 24.088 24" xml:space="preserve">
<g>
	<path d="M67.495,2.012c-1.519-1.154-3.229-1.551-5.399-1.551c-1.646,0-3.053,0.337-4.168,1.087
		c-1.646,1.121-2.419,3.003-2.419,5.979h4.241c0-0.794-0.078-1.65,0.385-2.384c0.465-0.734,1.11-1.297,2.22-1.297
		c1.126,0,1.707,0.325,2.254,0.999c0.464,0.574,0.641,1.258,0.641,1.987c0,0.63-0.321,1.209-0.701,1.734
		c-0.211,0.309-0.486,0.584-0.834,0.85c0,0-2.293,1.364-3.098,2.656c-0.602,0.961-0.817,2.166-0.866,3.606
		c-0.006,0.105,0.031,0.32,0.396,0.32c0.36,0,3.092,0,3.412,0s0.388-0.243,0.393-0.342c0.021-0.526,0.089-1.331,0.183-1.635
		c0.182-0.575,0.534-1.076,1.087-1.507l1.144-0.791c1.032-0.807,1.854-1.463,2.22-1.982c0.623-0.851,1.06-1.899,1.06-3.142
		C69.644,4.575,68.897,3.078,67.495,2.012z M61.804,18.195c-1.431-0.044-2.613,0.95-2.661,2.501
		c-0.046,1.557,1.075,2.578,2.512,2.623c1.489,0.044,2.645-0.916,2.688-2.468C64.388,19.299,63.294,18.239,61.804,18.195z"/>
</g>
</svg>
