<?xml version="1.0" encoding="utf-8"?>
<!-- Generator: Adobe Illustrator 28.1.0, SVG Export Plug-In . SVG Version: 6.00 Build 0)  -->
<svg version="1.1" id="Layer_1" xmlns="http://www.w3.org/2000/svg" xmlns:xlink="http://www.w3.org/1999/xlink" x="0px" y="0px"
	 viewBox="0 0 120 120" style="enable-background:new 0 0 120 120;" xml:space="preserve">
<style type="text/css">
	.st0{fill:#FF6C15;}
</style>
<path class="st0" d="M71.5,0c-0.6-0.1-1.2,0.3-1.3,0.9l-7.4,43h-5.6l-7.4-43c-0.1-0.6-0.7-1-1.3-0.9C22,5.2,1.7,28.2,0.1,56.2
	c0,0-0.1,1.2-0.1,1.8c0,0.1,0,0.1,0,0.2c0,0.2,0,0.4,0,0.7c0,0.1,0,0.1,0,0.3c0,0.3,0,0.6,0,0.9c0,29.7,20.9,54.5,48.5,60
	c0.6,0.1,1.2-0.3,1.3-0.9l7.4-43h5.6l7.4,43.1c0.1,0.6,0.7,1,1.3,0.9c26.4-5.3,46.7-28.2,48.4-56.2c0,0,0.1-1.2,0.1-1.8
	c0-0.1,0-0.1,0-0.2c0-0.2,0-0.4,0-0.7c0-0.1,0-0.1,0-0.3c0-0.3,0-0.6,0-0.9C120,30.2,99.2,5.5,71.5,0z"/>
</svg>
