<svg height="12" viewBox="0 0 16 12" width="16" xmlns="http://www.w3.org/2000/svg"><g fill="#fff" fill-rule="evenodd"><path d="m12.7924541.68552564-10.290344 10.56651376.70809248.7259986 10.28934392-10.56651379z"/><path d="m4.53087507 6.33167913c0-1.96748692 1.554203-3.56221927 3.47045328-3.56221927.40205251 0 .78110202.08420351 1.14014892.21256252l.88111503-.90467431c-.65308525-.14581584-1.32617316-.2392612-2.02126395-.2392612-3.36043891 0-6.31282452 1.79086493-8.00104502 4.49359226.75709889 1.21170906 1.77723213 2.22523182 2.96638744 2.99127839l1.77223147-1.81961734c-.12601645-.36864708-.20802717-.75885847-.20802717-1.17166105"/><path d="m13.0194751 3.34029805-1.7681102 1.82064421c.1257234.36864708.2075434.75885848.2075434 1.17063418 0 1.9685138-1.55058867 3.56324615-3.46238273 3.56324615-.40211534 0-.77928557-.08420351-1.13849531-.2135894l-.87906605.90467431c.65256436.1458158 1.32408701.2402881 2.01756136.2402881 3.35162643 0 6.29714633-1.79189182 7.98243863-4.49461916-.7553382-1.21170906-1.774097-2.22523181-2.9594891-2.99127839"/><path d="m8.00102831 8.7499629c1.30116995 0 2.35430749-1.08232318 2.35430749-2.41828377 0-.07393479-.0140018-.14478896-.0210027-.21769688l-2.54533248 2.61441633c.07100927.00616124.14001829.02156432.21202769.02156432"/><path d="m8.00102831 3.9139088c-1.30116994 0-2.35430749 1.08232318-2.35430749 2.41725689 0 .07496167.01400182.14581584.02100274.21769689l2.54533244-2.61338947c-.07100927-.00616123-.14001828-.02156431-.21202769-.02156431"/></g></svg>