<svg height="12" width="16" xmlns="http://www.w3.org/2000/svg">
    <g fill="#fff" fill-rule="evenodd">
        <path d="M12.792.686L2.502 11.252l.708.726L13.5 1.412zM4.53 6.332c0-1.968 1.555-3.563 3.471-3.563.402 0 .781.085 1.14.213l.882-.905A9.25 9.25 0 008 1.838c-3.36 0-6.312 1.791-8 4.494a9.649 9.649 0 002.966 2.991l1.772-1.82a3.606 3.606 0 01-.208-1.171M13.02 3.34L11.25 5.16c.126.37.208.76.208 1.172 0 1.968-1.55 3.563-3.462 3.563-.403 0-.78-.084-1.139-.214l-.879.905c.653.146 1.324.24 2.018.24 3.351 0 6.297-1.792 7.982-4.494a9.649 9.649 0 00-2.96-2.992"/>
        <path d="M8.001 8.75c1.301 0 2.354-1.082 2.354-2.418 0-.074-.014-.145-.02-.218L7.788 8.728c.071.007.14.022.212.022M8.001 3.914c-1.301 0-2.354 1.082-2.354 2.417 0 .075.014.146.02.218l2.546-2.614c-.071-.006-.14-.021-.212-.021"/>
    </g>
</svg>
