<?xml version="1.0" standalone="no"?>
<!DOCTYPE svg PUBLIC "-//W3C//DTD SVG 20010904//EN"
 "http://www.w3.org/TR/2001/REC-SVG-20010904/DTD/svg10.dtd">
<svg version="1.0" xmlns="http://www.w3.org/2000/svg"
 width="512.000000pt" height="512.000000pt" viewBox="0 0 512.000000 512.000000"
 preserveAspectRatio="xMidYMid meet">

<g transform="translate(0.000000,512.000000) scale(0.100000,-0.100000)"
fill="#2373D0" stroke="none">
<path d="M2379 4962 c-87 -92 -92 -94 -326 -127 -89 -13 -171 -29 -182 -35
-13 -6 -27 -31 -36 -64 -18 -60 -46 -81 -150 -111 -130 -36 -179 -59 -227
-105 -52 -50 -60 -83 -37 -149 14 -39 29 -40 29 -1 0 33 6 36 105 44 33 3 75
8 93 12 55 11 40 -22 -26 -55 -71 -36 -92 -58 -67 -67 10 -4 43 6 83 27 59 30
77 34 159 37 85 4 103 1 201 -31 59 -20 121 -38 139 -42 44 -9 129 15 254 70
174 77 312 102 411 75 53 -15 132 -91 165 -158 27 -55 28 -63 28 -209 0 -83 2
-150 3 -148 14 14 44 167 49 246 5 82 3 101 -15 142 -47 105 -142 184 -251
207 -134 28 -270 2 -486 -93 -44 -20 -114 -41 -155 -48 -65 -10 -80 -10 -112
4 -25 10 -38 23 -38 35 0 17 8 19 73 18 173 0 354 100 442 244 19 32 42 63 50
70 23 19 204 13 304 -10 164 -39 299 -125 381 -243 80 -112 95 -161 94 -302
-1 -134 -27 -242 -85 -358 -36 -70 -99 -166 -123 -186 -32 -27 -35 0 -7 57 44
86 81 179 81 201 0 14 -9 21 -31 26 -17 4 -32 5 -33 3 -1 -1 -15 -25 -31 -53
-37 -64 -107 -139 -215 -228 -115 -96 -234 -212 -277 -269 -19 -27 -39 -48
-44 -48 -5 0 -79 -40 -163 -90 -85 -49 -161 -90 -169 -90 -15 0 -71 139 -122
300 -29 91 -150 341 -217 447 -22 35 -38 66 -35 69 2 3 23 -3 45 -12 72 -28
67 -10 -19 62 -300 252 -525 300 -873 183 -120 -40 -188 -80 -262 -153 -79
-80 -136 -178 -176 -303 -18 -57 -38 -104 -43 -107 -15 -5 -34 11 -79 67 -21
26 -41 45 -43 43 -3 -2 7 -46 22 -98 18 -63 25 -108 23 -138 -4 -41 -64 -203
-117 -320 -32 -69 -28 -112 14 -159 43 -47 44 -68 9 -204 -56 -220 -22 -337
98 -337 l33 0 -29 23 -29 23 37 76 c20 41 36 85 36 97 0 26 28 40 41 20 4 -7
5 -49 2 -91 -4 -53 -3 -78 5 -78 19 0 27 23 33 102 4 58 13 92 38 143 33 67
58 96 184 214 85 78 102 116 122 269 22 164 43 257 75 327 56 125 116 166 250
173 83 4 87 3 167 -37 45 -23 109 -62 144 -87 57 -42 60 -44 40 -16 -38 54
-174 172 -228 199 -47 23 -62 25 -131 21 -98 -6 -160 -35 -229 -105 -92 -94
-151 -248 -173 -451 -11 -112 -23 -159 -56 -224 -26 -52 -57 -78 -91 -78 -29
0 -29 7 3 53 32 48 52 103 70 195 27 140 15 232 -47 354 -16 32 -29 66 -29 77
0 34 87 165 161 245 148 159 333 233 516 208 125 -18 249 -92 356 -215 88
-101 187 -274 187 -328 0 -41 -28 -14 -100 97 -41 62 -79 114 -85 114 -5 -1
-21 -10 -34 -20 l-23 -20 35 -73 c44 -87 60 -150 87 -332 24 -161 51 -274 85
-357 13 -32 19 -60 14 -63 -5 -4 -9 -90 -9 -196 0 -179 -1 -189 -19 -189 -27
0 -171 27 -267 50 -92 22 -393 45 -496 37 -38 -2 -68 -2 -68 1 0 4 17 23 37
44 20 21 31 38 25 38 -7 0 -56 -16 -108 -36 -355 -133 -514 -327 -579 -709
-26 -155 -10 -277 57 -410 34 -68 111 -176 157 -219 17 -17 31 -35 31 -42 0
-13 -51 -34 -85 -34 -23 0 -88 -20 -83 -26 2 -1 48 -14 103 -29 60 -15 112
-36 133 -51 18 -15 74 -81 123 -148 49 -66 101 -136 116 -155 l26 -34 72 6
c86 8 81 10 223 -125 99 -96 138 -118 203 -118 33 0 47 6 75 34 38 38 46 63
15 46 -35 -18 -49 -11 -79 43 -16 28 -44 65 -61 81 -17 17 -31 36 -31 43 0 23
34 14 94 -27 63 -43 76 -47 76 -27 0 18 -34 54 -69 72 -40 20 -106 98 -136
159 -13 28 -35 106 -49 173 -32 165 -48 190 -199 311 -213 172 -283 269 -281
389 1 144 78 233 286 333 59 29 75 40 56 40 -38 0 -243 -69 -280 -94 -115 -77
-161 -258 -103 -411 43 -115 128 -219 270 -330 147 -115 209 -195 203 -263 -4
-54 -27 -47 -61 20 -38 76 -165 196 -252 239 -47 23 -87 34 -152 41 -138 14
-128 8 -177 106 -108 216 -131 395 -76 574 25 83 105 202 163 245 155 116 439
171 630 122 52 -14 46 -29 -10 -29 -62 0 -226 -20 -235 -28 -4 -4 -3 -23 1
-42 l7 -35 64 -3 c92 -3 161 -23 363 -103 99 -39 216 -78 260 -87 45 -10 89
-24 98 -33 8 -8 88 -57 177 -108 89 -51 162 -95 162 -98 0 -10 -89 -120 -160
-198 -82 -89 -205 -270 -281 -412 -28 -51 -55 -91 -59 -88 -5 3 -12 26 -16 51
-19 127 -58 -121 -51 -324 6 -194 27 -261 130 -410 60 -87 213 -236 293 -285
104 -63 181 -82 324 -82 87 1 146 6 194 19 90 23 98 16 68 -67 -12 -34 -22
-68 -22 -76 0 -8 33 19 73 61 93 98 103 101 439 137 79 8 104 26 119 87 14 55
32 66 166 105 59 17 126 40 149 51 87 40 128 109 108 180 -12 40 -34 49 -34
14 0 -29 -9 -32 -115 -40 -38 -3 -81 -8 -94 -12 -19 -6 -22 -4 -19 12 2 12 29
32 71 52 65 33 88 62 47 62 -11 0 -42 -11 -68 -25 -112 -58 -209 -57 -382 5
-157 56 -194 54 -369 -19 -143 -60 -226 -81 -317 -81 -103 0 -156 22 -214 87
-67 77 -82 133 -78 300 2 78 0 135 -5 128 -21 -38 -50 -188 -51 -265 -1 -74 3
-92 26 -135 33 -63 113 -139 175 -167 36 -16 74 -22 153 -26 126 -5 202 11
338 69 51 22 119 46 150 54 104 27 202 14 210 -28 3 -15 -6 -17 -69 -17 -121
0 -285 -60 -369 -136 -22 -20 -60 -66 -84 -104 -25 -38 -55 -72 -67 -75 -33
-11 -193 4 -278 26 -103 26 -224 87 -292 148 -66 59 -132 156 -160 237 -51
143 -8 394 98 569 52 86 102 145 122 145 14 0 7 -21 -40 -117 -32 -65 -58
-127 -59 -138 0 -14 10 -24 30 -32 30 -11 31 -10 66 45 51 80 98 127 268 265
87 71 175 152 213 198 59 70 78 85 214 164 83 48 158 89 168 92 16 4 26 -13
59 -99 22 -56 54 -145 72 -197 33 -102 155 -348 220 -446 43 -66 38 -77 -26
-50 -83 35 -46 -8 111 -127 90 -69 231 -140 320 -163 171 -44 473 13 640 120
130 84 228 225 280 405 29 103 37 106 101 35 63 -70 66 -62 28 62 -33 104 -30
119 56 336 33 82 60 164 60 182 0 23 -11 46 -35 75 -42 50 -43 65 -10 204 53
224 20 337 -97 335 -33 0 -33 0 -10 -16 28 -20 28 -41 -3 -100 -14 -26 -31
-67 -37 -91 -8 -31 -15 -42 -27 -40 -13 3 -16 18 -17 78 -1 92 -2 100 -13 100
-15 0 -23 -32 -26 -104 -6 -124 -68 -221 -237 -366 -49 -42 -84 -118 -97 -210
-32 -225 -43 -284 -67 -349 -51 -139 -137 -203 -274 -205 -65 -1 -84 3 -144
31 -37 18 -96 52 -130 76 -90 63 -94 65 -57 21 47 -55 158 -151 210 -182 37
-22 56 -26 120 -25 230 2 375 191 416 543 8 69 25 153 36 188 25 75 70 132
105 132 13 0 24 -3 24 -7 0 -5 -16 -39 -35 -78 -47 -93 -68 -196 -63 -311 3
-82 8 -99 46 -178 23 -48 42 -96 42 -107 0 -26 -73 -145 -131 -213 -107 -125
-246 -213 -374 -237 -75 -14 -208 -6 -266 17 -103 41 -220 135 -307 248 -48
62 -142 239 -142 268 0 40 22 22 84 -70 36 -53 74 -108 85 -122 l20 -25 27 26
26 27 -36 73 c-39 80 -65 182 -91 354 -19 128 -47 244 -76 318 -18 46 -20 72
-19 246 0 107 2 196 4 198 5 5 162 -25 246 -47 102 -26 265 -42 442 -44 82 0
148 -4 148 -8 0 -3 -19 -21 -41 -39 -23 -18 -38 -34 -32 -36 15 -5 179 55 258
94 244 123 373 301 435 603 50 242 4 420 -161 624 -38 47 -69 90 -69 96 0 10
5 12 104 31 32 6 54 14 50 19 -5 4 -47 18 -94 30 -47 11 -100 31 -118 43 -30
20 -152 173 -230 289 -38 55 -56 62 -129 53 -48 -6 -59 -4 -91 19 -20 14 -66
56 -102 92 -118 122 -188 158 -253 130 -32 -13 -77 -58 -77 -77 0 -5 11 -4 24
3 34 15 52 5 76 -42 11 -22 37 -59 56 -80 62 -68 19 -77 -65 -14 -40 31 -71
43 -71 28 0 -19 28 -48 74 -78 37 -24 64 -52 92 -97 53 -85 61 -105 84 -234
27 -149 47 -184 156 -275 243 -204 320 -308 318 -430 -2 -149 -101 -255 -323
-347 -68 -28 -40 -30 60 -4 180 46 257 96 299 193 49 113 44 226 -14 343 -51
101 -120 180 -243 278 -152 121 -229 228 -204 284 16 35 31 25 64 -40 37 -71
172 -202 248 -238 62 -31 140 -49 205 -49 64 0 80 -12 119 -91 144 -285 138
-552 -15 -755 -105 -139 -358 -224 -610 -203 -102 8 -130 15 -130 35 0 11 19
14 94 14 51 0 114 3 140 6 l47 7 -3 41 -3 41 -85 6 c-100 8 -123 15 -335 101
-88 36 -200 76 -249 88 -48 12 -95 29 -105 39 -9 9 -85 56 -169 105 -84 48
-152 93 -152 99 0 13 92 135 160 212 71 81 198 275 266 407 30 60 59 106 64
103 5 -3 12 -26 16 -51 4 -26 10 -42 15 -37 15 15 39 203 39 306 0 242 -80
419 -274 605 -142 136 -239 188 -402 212 -78 12 -188 3 -295 -25 -83 -22 -88
-15 -61 76 12 40 21 74 19 75 -2 2 -37 -32 -78 -74z m352 -2121 l154 -89 0
-192 0 -191 -159 -92 -159 -91 -64 35 c-35 19 -109 61 -166 94 l-102 61 -3
182 -2 183 47 29 c122 76 270 158 284 159 9 1 85 -39 170 -88z"/>
</g>
</svg>
