<svg xmlns="http://www.w3.org/2000/svg" width="125" height="124" viewBox="0 0 125 124" fill="none"><script xmlns=""/>
<g clip-path="url(#clip0_1241_2316)">
<circle cx="62.5" cy="61.9998" r="62" fill="#E53E76"/>
<path d="M99.8616 68.2098C100.886 67.1865 102.205 65.8695 103.514 64.5633C106.434 61.6479 106.436 56.9194 103.516 54.0025L100.422 50.9125C89.3454 61.9756 72.7701 64.1985 59.4821 57.5825C68.463 59.2411 77.7705 57.9489 86.0179 53.5202C91.5353 50.5569 92.583 43.0831 88.1537 38.659L69.89 20.4172C65.8088 16.341 59.1927 16.341 55.1131 20.4172L35.4271 40.0796C48.3917 34.5782 63.9656 37.1287 74.5097 47.7328C58.4235 39.9343 38.496 42.7013 25.1399 56.0398C24.1154 57.0631 22.7952 58.3817 21.4859 59.6894C18.5671 62.6063 18.5686 67.3318 21.4859 70.2471L24.5781 73.3356C35.6546 62.2724 52.2298 60.0496 65.5179 66.6655C56.5369 65.0069 47.2294 66.2992 38.982 70.7279C33.4647 73.6911 32.4169 81.165 36.8463 85.5891L55.11 103.831C59.1911 107.907 65.8073 107.907 69.8869 103.831L89.5729 84.1685C76.6083 89.6699 61.0343 87.1194 50.4887 76.5153C66.5749 84.3138 86.5023 81.5468 99.8585 68.2082L99.8616 68.2098Z" fill="#F6F6EC"/>
</g>
<defs>
<clipPath id="clip0_1241_2316">
<rect width="124" height="124" fill="white" transform="translate(0.5)"/>
</clipPath>
</defs>
</svg>