<?xml version="1.0" encoding="UTF-8"?>
<svg xmlns="http://www.w3.org/2000/svg" xmlns:xlink="http://www.w3.org/1999/xlink" width="400px" height="400px" viewBox="0 0 400 400" version="1.1">
<g id="surface1">
<path style=" stroke:none;fill-rule:evenodd;fill:rgb(96.470588%,32.54902%,63.529412%);fill-opacity:1;" d="M 0.0117188 0 L 399.8125 0 L 399.8125 399 L 0.0117188 399 Z M 0.0117188 0 "/>
<path style=" stroke:none;fill-rule:evenodd;fill:rgb(100%,100%,100%);fill-opacity:1;" d="M 37.710938 199.507812 L 199.96875 37.726562 L 362.109375 199.546875 L 199.96875 361.273438 Z M 295.78125 150.949219 C 289.039062 158.460938 274.339844 177.378906 274.339844 199.507812 C 274.339844 221.632812 289.039062 240.550781 295.78125 248.0625 C 252.472656 245.777344 217.851562 199.507812 217.851562 199.507812 C 217.851562 199.507812 252.472656 153.234375 295.78125 150.949219 Z M 104.277344 150.949219 C 147.582031 153.234375 182.207031 199.507812 182.207031 199.507812 C 182.207031 199.507812 147.582031 245.777344 104.277344 248.0625 C 111.015625 240.550781 125.714844 221.632812 125.714844 199.507812 C 125.714844 177.378906 111.015625 158.460938 104.277344 150.949219 Z M 97.414062 151.234375 C 90.5625 158.925781 76.222656 177.652344 76.222656 199.507812 C 76.222656 221.445312 90.675781 240.230469 97.496094 247.867188 L 132.570312 282.878906 L 132.738281 282.71875 C 146.777344 269.023438 170.121094 251.023438 196.734375 249.652344 C 190.035156 257.101562 175.261719 276.042969 175.261719 298.210938 C 175.261719 320.378906 190.035156 339.320312 196.734375 346.773438 L 199.96875 350.152344 L 203.199219 346.773438 C 209.902344 339.320312 224.675781 320.378906 224.675781 298.210938 C 224.675781 276.042969 209.902344 257.101562 203.199219 249.652344 C 229.917969 251.027344 253.339844 269.164062 267.363281 282.878906 L 303.269531 247.039062 L 303.351562 246.945312 C 310.449219 238.808594 323.832031 220.617188 323.832031 199.507812 C 323.832031 178.3125 310.34375 160.058594 303.269531 151.972656 L 267.53125 116.300781 L 267.367188 116.460938 C 253.339844 130.175781 229.917969 148.308594 203.199219 149.6875 C 209.902344 142.234375 224.675781 123.292969 224.675781 101.125 C 224.675781 78.957031 209.902344 60.015625 203.199219 52.566406 L 199.96875 48.859375 L 196.734375 52.566406 C 190.035156 60.015625 175.261719 78.957031 175.261719 101.125 C 175.261719 123.292969 190.035156 142.234375 196.734375 149.6875 C 169.914062 148.304688 146.414062 130.03125 132.402344 116.300781 Z M 97.414062 151.234375 "/>
</g>
</svg>
