<svg xmlns="http://www.w3.org/2000/svg" xmlns:xlink="http://www.w3.org/1999/xlink" width="400px" height="400px" viewBox="0 0 400 400" version="1.1"><script xmlns=""/>
<g id="surface1">
<path style=" stroke:none;fill-rule:nonzero;fill:rgb(96.470588%,16.078432%,48.627451%);fill-opacity:1;" d="M 358.539062 221.664062 C 362.886719 217.320312 368.484375 211.734375 374.039062 206.191406 C 386.433594 193.820312 386.4375 173.753906 374.046875 161.375 L 360.917969 148.265625 C 313.914062 195.210938 243.578125 204.640625 187.191406 176.566406 C 225.300781 183.605469 264.796875 178.121094 299.796875 159.328125 C 323.207031 146.753906 327.65625 115.039062 308.859375 96.265625 L 231.359375 18.859375 C 214.039062 1.5625 185.964844 1.5625 168.652344 18.859375 L 85.117188 102.296875 C 140.128906 78.949219 206.21875 89.773438 250.960938 134.769531 C 182.699219 101.679688 98.140625 113.421875 41.464844 170.023438 C 37.117188 174.363281 31.515625 179.960938 25.957031 185.507812 C 13.570312 197.886719 13.578125 217.9375 25.957031 230.308594 L 39.078125 243.414062 C 86.082031 196.46875 156.417969 187.035156 212.804688 215.109375 C 174.695312 208.074219 135.199219 213.558594 100.203125 232.347656 C 76.789062 244.925781 72.34375 276.640625 91.136719 295.414062 L 168.640625 372.820312 C 185.957031 390.117188 214.035156 390.117188 231.34375 372.820312 L 314.878906 289.382812 C 259.867188 312.730469 193.777344 301.90625 149.03125 256.910156 C 217.289062 290 301.851562 278.257812 358.527344 221.65625 Z M 358.539062 221.664062 "/>
</g>
</svg>