<svg width="36" height="37" viewBox="0 0 36 37" fill="none" xmlns="http://www.w3.org/2000/svg">
<path d="M14.9788 6.40208C16.4997 4.88127 18.9681 4.88127 20.4891 6.40208C22.01 7.92289 22.01 10.3911 20.4891 11.9119L15.8982 16.5024L19.5728 20.1766L24.1636 15.5861C25.6846 14.0653 28.153 14.0653 29.6739 15.5861C31.1949 17.107 31.1949 19.5751 29.6739 21.096L21.4085 29.3607C19.3795 31.3895 16.0914 31.3895 14.0625 29.3607L6.71645 22.0153C4.68749 19.9865 4.68749 16.6987 6.71645 14.6699L14.9819 6.4052M11.3042 2.73095L3.03876 10.9957C-1.01292 15.047 -1.01292 21.6351 3.03876 25.6864L10.3848 33.0318C14.4365 37.0831 21.0251 37.0831 25.0768 33.0318L33.3423 24.7671C36.8859 21.2237 36.8859 15.4553 33.3423 11.9119C31.5439 10.1137 29.1784 9.22866 26.8159 9.2536C26.8409 6.89447 25.9557 4.526 24.1574 2.72783C20.6137 -0.815527 14.8448 -0.815527 11.3011 2.72783L11.3042 2.73095Z" fill="#B771E5"/>
</svg>
