<?xml version="1.0" encoding="utf-8"?>
<!-- Generator: Adobe Illustrator 26.3.1, SVG Export Plug-In . SVG Version: 6.00 Build 0)  -->
<svg version="1.1" id="Layer_1" xmlns="http://www.w3.org/2000/svg" xmlns:xlink="http://www.w3.org/1999/xlink" x="0px" y="0px"
	 viewBox="0 0 1920 1080" style="enable-background:new 0 0 1920 1080;" xml:space="preserve">
<path d="M941.04,318.27c-77.32,0-140,62.68-140,140s62.68,140,140,140c77.32,0,140-62.68,140-140S1018.36,318.27,941.04,318.27z
	 M952.52,417.7l5.44-6.35l18.87-22h17.07l-36.1,42.03c0,0-4.02-4.76-5.39-6.35C950.61,422.89,950.67,419.72,952.52,417.7z
	 M907.17,389.34c0,0,30.23,36.18,41.17,47.4c1.74,1.75,1.43,4.05-0.16,5.91c-5.81,6.84-5.97,6.95-5.97,6.95l-52.01-60.26H907.17z
	 M931.74,497.93l-5.44,6.35l-18.87,22h-17.07l36.1-42.03c0,0,4.02,4.76,5.39,6.35C933.65,492.73,933.6,495.91,931.74,497.93z
	 M932.43,460.99c-14.69,17.02-56.02,65.3-56.02,65.3h-18.34l56.24-65.13c1.8-2.08,1.8-5.2,0-7.22l-55.81-64.58h17.65l56.13,65.13
	C933.7,456.39,933.96,459.18,932.43,460.99z M976.83,526.28l-38.11-44.44l-1.9-2.41c-1.8-2.08-1.74-5.31,0.11-7.34l71.03-82.75h17.6
	L954.1,471c-1.85,2.03-1.9,5.25-0.11,7.33l41.22,47.95H976.83z M1009.28,526.28c0,0-30.76-35.91-41.02-47.89
	c-1.16-1.37-1.59-3.23-1.16-4.93c0.32-0.93,1-1.97,1.64-2.68l4.76-5.25l52.48,60.75H1009.28z"/>
</svg>