<svg width="1234" height="1235" viewBox="0 0 1234 1235" fill="none" xmlns="http://www.w3.org/2000/svg">
<g clip-path="url(#clip0_90_6439)">
<path d="M681.785 316.104L679.934 319.806C744.102 347.571 780.505 404.952 780.505 467.886C780.505 535.756 736.081 597.456 649.701 649.901L635.51 658.539C570.725 698.027 538.024 742.451 538.024 796.13C538.024 865.234 592.32 915.827 666.977 915.827C786.675 915.827 925.5 788.109 925.5 617.817C925.5 590.052 921.798 562.904 915.011 536.99L910.692 538.224C912.543 552.415 913.16 562.904 913.16 572.776C913.16 673.347 856.396 759.727 761.378 817.108L752.123 822.661C731.762 834.384 714.486 841.171 697.21 841.171C674.381 841.171 657.105 826.363 657.105 804.768C657.105 786.258 669.445 767.748 709.55 744.302L721.273 737.515C810.121 685.687 859.481 612.881 859.481 532.054C859.481 429.632 782.973 345.103 681.785 316.104ZM552.215 918.912L554.066 915.21C489.898 887.446 453.495 830.065 453.495 767.131C453.495 699.261 497.919 637.561 584.299 585.116L598.49 576.478C663.275 536.99 695.976 492.566 695.976 438.887C695.976 369.783 641.68 319.189 567.023 319.189C447.325 319.189 308.5 446.908 308.5 617.2C308.5 644.965 312.202 672.113 318.989 698.027L323.308 696.793C321.457 682.602 320.84 672.113 320.84 662.241C320.84 561.67 377.604 475.29 472.622 417.909L481.877 412.356C502.238 400.633 519.514 393.846 536.79 393.846C559.619 393.846 576.895 408.654 576.895 430.249C576.895 448.759 564.555 467.269 524.45 490.715L512.727 497.502C423.879 549.33 374.519 622.136 374.519 702.963C374.519 805.385 451.027 889.914 552.215 918.912Z" fill="#4D3DFF"/>
</g>
<defs>
<clipPath id="clip0_90_6439">
<rect width="617" height="617" fill="white" transform="translate(308.5 308.699)"/>
</clipPath>
</defs>
</svg>
