<svg width="512" height="512" viewBox="0 0 512 512" fill="none" xmlns="http://www.w3.org/2000/svg">
<rect width="512" height="512" fill="#4D3DFF"/>
<path d="M292.75 85L291.7 87.1003C328.1 102.853 348.75 135.407 348.75 171.113C348.75 209.618 323.55 244.623 274.55 274.378L266.5 279.278C229.75 301.682 211.2 326.885 211.2 357.34C211.2 396.546 242 425.25 284.35 425.25C352.25 425.25 431 352.789 431 256.175C431 240.423 428.9 225.02 425.05 210.318L422.6 211.018C423.65 219.07 424 225.02 424 230.621C424 287.68 391.8 336.687 337.9 369.242L332.65 372.392C321.1 379.043 311.3 382.894 301.5 382.894C288.55 382.894 278.75 374.492 278.75 362.241C278.75 351.739 285.75 341.237 308.5 327.936L315.15 324.085C365.55 294.681 393.55 253.375 393.55 207.518C393.55 149.409 350.15 101.452 292.75 85ZM219.25 427L220.3 424.9C183.9 409.147 163.25 376.593 163.25 340.887C163.25 302.382 188.45 267.377 237.45 237.622L245.5 232.722C282.25 210.318 300.8 185.115 300.8 154.66C300.8 115.454 270 86.7503 227.65 86.7503C159.75 86.7503 81 159.211 81 255.825C81 271.577 83.1 286.98 86.95 301.682L89.4 300.982C88.35 292.93 88 286.98 88 281.379C88 224.32 120.2 175.313 174.1 142.758L179.35 139.608C190.9 132.957 200.7 129.106 210.5 129.106C223.45 129.106 233.25 137.508 233.25 149.759C233.25 160.261 226.25 170.763 203.5 184.064L196.85 187.915C146.45 217.319 118.45 258.625 118.45 304.482C118.45 362.591 161.85 410.548 219.25 427Z" fill="white"/>
</svg>
