<svg width="100" height="100" viewBox="0 0 100 100" fill="none" xmlns="http://www.w3.org/2000/svg">
<g clip-path="url(#clip0_347_112)">
<path d="M0 0H100V100H0V0Z" fill="#101114"/>
<path d="M50 98C76.5054 98 98 76.5063 98 50C98 23.4937 76.5054 2 50 2C23.4946 2.02005 2 23.4937 2 50C2 76.5063 23.4946 98 50 98Z" fill="url(#paint0_linear_347_112)"/>
<path fill-rule="evenodd" clip-rule="evenodd" d="M100 50C100 22.3857 77.6142 -1.20706e-06 50 0C22.3857 1.20706e-06 -1.20706e-06 22.3857 0 50C1.20706e-06 77.6142 22.3857 100 50 100C77.6142 100 100 77.6142 100 50ZM57.1364 87.4207C57.1364 90.8127 54.3524 93.5698 50.4007 93.6491C50.2913 93.6502 50.1818 93.6505 50.072 93.6509H49.928C25.8534 93.612 6.3492 74.0836 6.3492 50C6.3492 25.8924 25.8923 6.34927 50 6.34927C50.1298 6.34927 50.26 6.34985 50.3895 6.35098C54.8487 6.4304 57.1364 9.18742 57.1364 12.5792C57.1364 16.0312 54.0847 18.5715 50.852 18.5715C47.6189 18.5715 47.4604 18.5715 44.3658 18.8194C41.2709 19.0674 38.0709 21.6076 38.0709 25.0494C38.0709 28.5117 40.8836 31.2998 44.3658 31.2998H71.8109C75.2829 31.2998 78.0953 34.088 78.0953 37.5298C78.0953 40.9716 75.2829 43.7596 71.8109 43.7596H29.5381C26.056 43.7596 23.2435 46.5582 23.2435 50.0102C23.2435 53.452 26.056 56.2404 29.5381 56.2404H50.852C54.324 56.2404 57.1364 59.0284 57.1364 62.4804C57.1364 65.9222 54.324 68.7105 50.852 68.7105H44.3658C40.8836 68.7105 38.0709 71.4985 38.0709 74.9404C38.0709 78.3924 40.9535 80.9124 44.3658 81.1705C44.6345 81.1909 44.8807 81.2095 45.1073 81.2269C46.308 81.3182 46.964 81.3684 47.6211 81.3956C48.4124 81.4287 49.2051 81.4287 50.9524 81.4287C54.4244 81.4287 57.1364 83.9789 57.1364 87.4207Z" fill="#101114"/>
</g>
<defs>
<linearGradient id="paint0_linear_347_112" x1="91.6646" y1="0.520698" x2="40.8663" y2="100.688" gradientUnits="userSpaceOnUse">
<stop stop-color="#B6D0F7"/>
<stop offset="0.229167" stop-color="#EEF4E1"/>
<stop offset="0.432292" stop-color="#D599FF"/>
<stop offset="0.581415" stop-color="#BFD1F9"/>
<stop offset="0.701803" stop-color="#FAFCFE"/>
<stop offset="0.802083" stop-color="#BAE4E2"/>
<stop offset="1" stop-color="#8049F2"/>
</linearGradient>
<clipPath id="clip0_347_112">
<rect width="100" height="100" fill="white"/>
</clipPath>
</defs>
</svg>
