<svg width="360" height="360" viewBox="0 0 360 360" fill="none" xmlns="http://www.w3.org/2000/svg">
<g clip-path="url(#clip0_350_100)">
<rect width="360" height="360" fill="#101114"/>
<path d="M360 0H0V360H360V0Z" fill="#101114"/>
<path d="M179 277.88C233.601 277.88 277.88 233.603 277.88 179C277.88 124.397 233.601 80.12 179 80.12C124.399 80.1613 80.12 124.397 80.12 179C80.12 233.603 124.399 277.88 179 277.88Z" fill="#101114"/>
<path fill-rule="evenodd" clip-rule="evenodd" d="M282 179C282 122.115 235.885 76 179 76C122.115 76 76 122.115 76 179C76 235.885 122.115 282 179 282C235.885 282 282 235.885 282 179ZM193.701 256.087C193.701 263.074 187.966 268.754 179.826 268.917C179.6 268.919 179.375 268.92 179.148 268.921H178.852C129.258 268.841 89.0794 228.612 89.0794 179C89.0794 129.338 129.338 89.0795 179 89.0795C179.267 89.0795 179.536 89.0807 179.802 89.083C188.988 89.2466 193.701 94.9261 193.701 101.913C193.701 109.024 187.415 114.257 180.755 114.257C174.095 114.257 173.768 114.257 167.394 114.768C161.018 115.279 154.426 120.512 154.426 127.602C154.426 134.734 160.22 140.478 167.394 140.478H223.93C231.083 140.478 236.876 146.221 236.876 153.311C236.876 160.402 231.083 166.145 223.93 166.145H136.849C129.675 166.145 123.882 171.91 123.882 179.021C123.882 186.111 129.675 191.855 136.849 191.855H180.755C187.907 191.855 193.701 197.598 193.701 204.71C193.701 211.8 187.907 217.544 180.755 217.544H167.394C160.22 217.544 154.426 223.287 154.426 230.377C154.426 237.488 160.364 242.679 167.394 243.211C167.947 243.253 168.454 243.291 168.921 243.327C171.394 243.515 172.746 243.619 174.099 243.675C175.729 243.743 177.362 243.743 180.962 243.743C188.114 243.743 193.701 248.997 193.701 256.087Z" fill="url(#paint0_linear_350_100)"/>
</g>
<defs>
<linearGradient id="paint0_linear_350_100" x1="264.829" y1="77.0726" x2="160.184" y2="283.417" gradientUnits="userSpaceOnUse">
<stop stop-color="#B6D0F7"/>
<stop offset="0.229167" stop-color="#EEF4E1"/>
<stop offset="0.432292" stop-color="#D599FF"/>
<stop offset="0.581415" stop-color="#BFD1F9"/>
<stop offset="0.701803" stop-color="#FAFCFE"/>
<stop offset="0.802083" stop-color="#BAE4E2"/>
<stop offset="1" stop-color="#8049F2"/>
</linearGradient>
<clipPath id="clip0_350_100">
<rect width="360" height="360" fill="white"/>
</clipPath>
</defs>
</svg>
