<svg width="100" height="100" viewBox="0 0 100 100" fill="none" xmlns="http://www.w3.org/2000/svg">
<path d="M50 0C77.6142 -1.20706e-06 100 22.3858 100 50C100 77.6142 77.6142 100 50 100C22.3858 100 1.20706e-06 77.6142 0 50C-1.20706e-06 22.3858 22.3858 1.20706e-06 50 0Z" fill="#7132F5"/>
<path d="M50.4008 93.6491C54.3524 93.57 57.1364 90.8128 57.1364 87.4208C57.1364 83.979 54.4242 81.4286 50.9524 81.4286C49.2051 81.4286 48.4125 81.4286 47.6212 81.3957C46.8402 81.3632 46.0606 81.2987 44.3657 81.1704C40.9536 80.9122 38.0711 78.3924 38.0711 74.9404C38.0711 71.4986 40.8836 68.7104 44.3657 68.7104H50.852C54.3239 68.7104 57.1364 65.9223 57.1364 62.4804C57.1364 59.0284 54.3239 56.2402 50.852 56.2402H29.5381C26.056 56.2402 23.2435 53.4521 23.2435 50.0102C23.2435 46.5582 26.056 43.7598 29.5381 43.7598L71.8109 43.7598C75.2828 43.7598 78.0953 40.9716 78.0953 37.5298C78.0953 34.088 75.2828 31.2998 71.8109 31.2998H44.3657C40.8836 31.2998 38.0711 28.5117 38.0711 25.0494C38.0711 21.6076 41.2711 19.0674 44.3657 18.8194C47.4603 18.5715 47.6191 18.5715 50.8519 18.5715C54.0849 18.5715 57.1364 16.0313 57.1364 12.5792C57.1364 9.18744 54.8489 6.43042 50.3896 6.35099C50.2599 6.34986 50.13 6.34929 50 6.34929C25.8923 6.34929 6.34921 25.8924 6.34921 50.0001C6.34921 74.0837 25.8534 93.6119 49.928 93.6508H50.072C50.1817 93.6506 50.2913 93.6501 50.4008 93.6491Z" fill="#F0EFFF"/>
</svg>
