<svg width="328" height="114" viewBox="0 0 328 114" fill="none" xmlns="http://www.w3.org/2000/svg">
<g clip-path="url(#clip0_1344_4478)">
<rect width="328" height="114" fill="#F2F4F6"/>
<g opacity="0.8" filter="url(#filter0_f_1344_4478)">
<path d="M277.679 215.325L152.424 402.875L598.645 423.026L583.771 -53.5996L277.679 215.325Z" fill="#E27625" stroke="#E27625" stroke-width="7.65217" stroke-linecap="round" stroke-linejoin="round"/>
<path d="M-293.003 -294.625L-225.679 26.2251L-268.735 58.0001L-204.542 106.05L-253.078 143.25L-189.668 200.6L-229.593 229.275L-138 335.45L277.69 215.325L572.039 -31.1249L-192.799 -593L-293.003 -294.625Z" fill="#763E1A" stroke="#763E1A" stroke-width="7.65217" stroke-linecap="round" stroke-linejoin="round"/>
</g>
<rect width="328" height="136" fill="url(#paint0_linear_1344_4478)"/>
<g clip-path="url(#clip1_1344_4478)">
<path opacity="0.5" d="M270.868 140.582C264.795 152.08 249.314 157.285 229.081 156.317C208.864 155.35 183.98 148.219 159.228 135.146C134.475 122.072 114.556 105.54 102.36 89.3881C90.1534 73.2222 85.725 57.5013 91.7978 46.0034C97.8706 34.5055 113.351 29.3 133.585 30.2679C153.802 31.235 178.685 38.3657 203.438 51.4392C228.191 64.5128 248.109 81.045 260.306 97.197C272.512 113.363 276.941 129.084 270.868 140.582Z" fill="url(#paint1_radial_1344_4478)" fill-opacity="0.75" stroke="white" stroke-width="0.394925"/>
<path opacity="0.5" d="M243.842 122.668C236.528 136.517 220.475 144.122 200.364 145.168C180.258 146.215 156.14 140.701 132.784 128.365C109.428 116.029 91.2766 99.2183 80.8055 82.0222C70.3314 64.8213 67.5624 47.2762 74.8772 33.4267C82.192 19.5773 98.244 11.9728 118.356 10.9262C138.462 9.87988 162.58 15.394 185.936 27.7298C209.292 40.0655 227.443 56.8763 237.914 74.0724C248.388 91.2733 251.157 108.818 243.842 122.668Z" fill="url(#paint2_radial_1344_4478)" fill-opacity="0.5" stroke="white" stroke-width="0.474924"/>
<path opacity="0.5" d="M266.145 25.0877C268.823 29.726 268.557 35.808 265.719 42.8719C262.882 49.933 257.487 57.9416 249.969 66.3966C234.933 83.305 211.434 101.965 183.034 118.362C154.633 134.759 126.724 145.78 104.563 150.347C93.4812 152.631 83.8482 153.298 76.3146 152.225C68.778 151.151 63.3779 148.34 60.7 143.702C58.0221 139.063 58.2881 132.981 61.1262 125.918C63.9632 118.856 69.3579 110.848 76.8766 102.393C91.9125 85.4844 115.412 66.8245 143.812 50.4277C172.212 34.0308 200.122 23.0099 222.283 18.4427C233.364 16.1588 242.997 15.4911 250.531 16.5648C258.067 17.6389 263.468 20.4495 266.145 25.0877Z" fill="url(#paint3_radial_1344_4478)" fill-opacity="0.5" stroke="white" stroke-width="0.394925"/>
<path opacity="0.5" d="M286.805 75.1055C287.009 76.9384 286.375 78.8376 284.946 80.7825C283.517 82.7285 281.301 84.708 278.368 86.6911C272.502 90.6569 263.803 94.6129 252.908 98.3353C231.121 105.779 200.592 112.274 166.489 116.053C132.385 119.833 101.176 120.179 78.2872 117.685C66.8413 116.439 57.4873 114.483 50.8953 111.898C47.5991 110.605 45.0036 109.159 43.1832 107.573C41.3638 105.988 40.3294 104.274 40.1263 102.441C39.9232 100.608 40.5571 98.7086 41.9854 96.7637C43.4144 94.8177 45.6303 92.8381 48.5635 90.8551C54.4296 86.8893 63.1285 82.9333 74.0237 79.2109C95.811 71.7672 126.339 65.2719 160.443 61.4928C194.546 57.7137 225.756 57.3677 248.645 59.8607C260.09 61.1074 269.444 63.0629 276.036 65.6482C279.333 66.941 281.928 68.3873 283.749 69.9733C285.568 71.5583 286.602 73.2726 286.805 75.1055Z" fill="url(#paint4_radial_1344_4478)" stroke="white" stroke-width="0.394925"/>
<rect x="52.9463" y="72.946" width="20.1589" height="20.1589" rx="10.0794" fill="#0376C9"/>
<path d="M67.5298 79.1965L63.6773 77.1627C63.2718 76.9461 62.7802 76.9461 62.3747 77.1627L58.5222 79.1965C58.2395 79.3469 58.0675 79.6357 58.0675 79.9666C58.0675 80.2916 58.2395 80.5864 58.5222 80.7368L62.3747 82.7706C62.5775 82.8789 62.8048 82.9331 63.026 82.9331C63.2472 82.9331 63.4745 82.8789 63.6773 82.7706L67.5298 80.7368C67.8124 80.5864 67.9845 80.2976 67.9845 79.9666C67.9845 79.6357 67.8124 79.3469 67.5298 79.1965Z" fill="white"/>
<path d="M61.8689 83.309L58.3675 81.4499C58.0905 81.3167 57.6775 81.4203 57.419 81.5777C57.1544 81.7412 57.0005 82.0136 57.0005 82.3162V85.6516C57.0005 86.2266 57.3267 86.7825 57.8498 87.0428L61.4381 88.9586C61.5611 89.0191 61.6966 89.0494 61.832 89.0494C61.992 89.0494 62.152 89.007 62.2936 88.9222C62.5582 88.7649 62.7121 88.3029 62.7121 88.0002V84.6649C62.7182 84.0838 62.392 83.5632 61.8689 83.309Z" fill="white"/>
<path d="M68.633 81.5801C68.3683 81.4228 67.9528 81.3107 67.682 81.4499L64.1892 83.3108C63.666 83.571 63.3398 84.0854 63.3398 84.6663V88.0005C63.3398 88.3031 63.4937 88.7669 63.7584 88.9242C63.8999 89.0089 64.0599 89.0513 64.22 89.0513C64.3554 89.0513 64.4908 89.021 64.6139 88.9605L68.2021 87.0428C68.7253 86.7826 69.0515 86.2336 69.0515 85.6526V82.3184C69.0515 82.0158 68.8976 81.7435 68.633 81.5801Z" fill="white"/>
<rect x="52.9463" y="72.946" width="20.1589" height="20.1589" rx="10.0794" stroke="#ADD5F3" stroke-width="0.5"/>
<rect x="175.946" y="15.946" width="20.1589" height="20.1589" rx="10.0794" fill="#0376C9"/>
<path d="M190.53 22.1965L186.677 20.1627C186.272 19.9461 185.78 19.9461 185.375 20.1627L181.522 22.1965C181.24 22.3469 181.068 22.6357 181.068 22.9666C181.068 23.2916 181.24 23.5864 181.522 23.7368L185.375 25.7706C185.577 25.8789 185.805 25.9331 186.026 25.9331C186.247 25.9331 186.475 25.8789 186.677 25.7706L190.53 23.7368C190.812 23.5864 190.984 23.2976 190.984 22.9666C190.984 22.6357 190.812 22.3469 190.53 22.1965Z" fill="white"/>
<path d="M184.869 26.309L181.368 24.4499C181.091 24.3167 180.678 24.4203 180.419 24.5777C180.154 24.7412 180 25.0136 180 25.3162V28.6516C180 29.2266 180.327 29.7825 180.85 30.0428L184.438 31.9586C184.561 32.0191 184.697 32.0494 184.832 32.0494C184.992 32.0494 185.152 32.007 185.294 31.9222C185.558 31.7649 185.712 31.3029 185.712 31.0002V27.6649C185.718 27.0838 185.392 26.5632 184.869 26.309Z" fill="white"/>
<path d="M191.633 24.5801C191.368 24.4228 190.953 24.3107 190.682 24.4499L187.189 26.3108C186.666 26.571 186.34 27.0854 186.34 27.6663V31.0005C186.34 31.3031 186.494 31.7669 186.758 31.9242C186.9 32.0089 187.06 32.0513 187.22 32.0513C187.355 32.0513 187.491 32.021 187.614 31.9605L191.202 30.0428C191.725 29.7826 192.052 29.2336 192.052 28.6526V25.3184C192.052 25.0158 191.898 24.7435 191.633 24.5801Z" fill="white"/>
<rect x="175.946" y="15.946" width="20.1589" height="20.1589" rx="10.0794" stroke="#D1E8FA" stroke-width="0.5"/>
<rect x="83.9463" y="6.94604" width="20.1589" height="20.1589" rx="10.0794" fill="#0376C9"/>
<path d="M98.5298 13.1965L94.6773 11.1627C94.2718 10.9461 93.7802 10.9461 93.3747 11.1627L89.5222 13.1965C89.2395 13.3469 89.0675 13.6357 89.0675 13.9666C89.0675 14.2916 89.2395 14.5864 89.5222 14.7368L93.3747 16.7706C93.5775 16.8789 93.8048 16.9331 94.026 16.9331C94.2472 16.9331 94.4745 16.8789 94.6773 16.7706L98.5298 14.7368C98.8124 14.5864 98.9845 14.2976 98.9845 13.9666C98.9845 13.6357 98.8124 13.3469 98.5298 13.1965Z" fill="white"/>
<path d="M92.8689 17.309L89.3675 15.4499C89.0905 15.3167 88.6775 15.4203 88.419 15.5777C88.1544 15.7412 88.0005 16.0136 88.0005 16.3162V19.6516C88.0005 20.2266 88.3267 20.7825 88.8498 21.0428L92.4381 22.9586C92.5611 23.0191 92.6966 23.0494 92.832 23.0494C92.992 23.0494 93.152 23.007 93.2936 22.9222C93.5582 22.7649 93.7121 22.3029 93.7121 22.0002V18.6649C93.7182 18.0838 93.392 17.5632 92.8689 17.309Z" fill="white"/>
<path d="M99.633 15.5801C99.3683 15.4228 98.9528 15.3107 98.682 15.4499L95.1892 17.3108C94.666 17.571 94.3398 18.0854 94.3398 18.6663V22.0005C94.3398 22.3031 94.4937 22.7669 94.7584 22.9242C94.8999 23.0089 95.0599 23.0513 95.22 23.0513C95.3554 23.0513 95.4908 23.021 95.6139 22.9605L99.2021 21.0428C99.7253 20.7826 100.052 20.2336 100.052 19.6526V16.3184C100.052 16.0158 99.8976 15.7435 99.633 15.5801Z" fill="white"/>
<rect x="83.9463" y="6.94604" width="20.1589" height="20.1589" rx="10.0794" stroke="#D1E8FA" stroke-width="0.5"/>
<rect x="245.946" y="7.94604" width="20.1589" height="20.1589" rx="10.0794" fill="#0376C9"/>
<path d="M260.53 14.1965L256.677 12.1627C256.272 11.9461 255.78 11.9461 255.375 12.1627L251.522 14.1965C251.24 14.3469 251.068 14.6357 251.068 14.9666C251.068 15.2916 251.24 15.5864 251.522 15.7368L255.375 17.7706C255.577 17.8789 255.805 17.9331 256.026 17.9331C256.247 17.9331 256.475 17.8789 256.677 17.7706L260.53 15.7368C260.812 15.5864 260.984 15.2976 260.984 14.9666C260.984 14.6357 260.812 14.3469 260.53 14.1965Z" fill="white"/>
<path d="M254.869 18.309L251.368 16.4499C251.091 16.3167 250.678 16.4203 250.419 16.5777C250.154 16.7412 250 17.0136 250 17.3162V20.6516C250 21.2266 250.327 21.7825 250.85 22.0428L254.438 23.9586C254.561 24.0191 254.697 24.0494 254.832 24.0494C254.992 24.0494 255.152 24.007 255.294 23.9222C255.558 23.7649 255.712 23.3029 255.712 23.0002V19.6649C255.718 19.0838 255.392 18.5632 254.869 18.309Z" fill="white"/>
<path d="M261.633 16.5801C261.368 16.4228 260.953 16.3107 260.682 16.4499L257.189 18.3108C256.666 18.571 256.34 19.0854 256.34 19.6663V23.0005C256.34 23.3031 256.494 23.7669 256.758 23.9242C256.9 24.0089 257.06 24.0513 257.22 24.0513C257.355 24.0513 257.491 24.021 257.614 23.9605L261.202 22.0428C261.725 21.7826 262.052 21.2336 262.052 20.6526V17.3184C262.052 17.0158 261.898 16.7435 261.633 16.5801Z" fill="white"/>
<rect x="245.946" y="7.94604" width="20.1589" height="20.1589" rx="10.0794" stroke="#D1E8FA" stroke-width="0.5"/>
<rect x="251.095" y="84.0952" width="19.8607" height="19.8607" rx="9.93033" fill="#0376C9"/>
<path d="M265.53 90.1965L261.677 88.1627C261.272 87.9461 260.78 87.9461 260.375 88.1627L256.522 90.1965C256.24 90.3469 256.068 90.6357 256.068 90.9666C256.068 91.2916 256.24 91.5864 256.522 91.7368L260.375 93.7706C260.577 93.8789 260.805 93.9331 261.026 93.9331C261.247 93.9331 261.475 93.8789 261.677 93.7706L265.53 91.7368C265.812 91.5864 265.984 91.2976 265.984 90.9666C265.984 90.6357 265.812 90.3469 265.53 90.1965Z" fill="white"/>
<path d="M259.869 94.309L256.368 92.4499C256.091 92.3167 255.678 92.4203 255.419 92.5777C255.154 92.7412 255 93.0136 255 93.3162V96.6516C255 97.2266 255.327 97.7825 255.85 98.0428L259.438 99.9586C259.561 100.019 259.697 100.049 259.832 100.049C259.992 100.049 260.152 100.007 260.294 99.9222C260.558 99.7649 260.712 99.3029 260.712 99.0002V95.6649C260.718 95.0838 260.392 94.5632 259.869 94.309Z" fill="white"/>
<path d="M266.633 92.5801C266.368 92.4228 265.953 92.3107 265.682 92.4499L262.189 94.3108C261.666 94.571 261.34 95.0854 261.34 95.6663V99.0005C261.34 99.3031 261.494 99.7669 261.758 99.9242C261.9 100.009 262.06 100.051 262.22 100.051C262.355 100.051 262.491 100.021 262.614 99.9605L266.202 98.0428C266.725 97.7826 267.052 97.2336 267.052 96.6526V93.3184C267.052 93.0158 266.898 92.7435 266.633 92.5801Z" fill="white"/>
<rect x="251.095" y="84.0952" width="19.8607" height="19.8607" rx="9.93033" stroke="#ADD5F3" stroke-width="0.79823"/>
</g>
<path d="M219.089 37L171.379 72.0625L180.251 51.399L219.089 37Z" fill="#E17726" stroke="#E17726" stroke-width="1.62609" stroke-linecap="round" stroke-linejoin="round"/>
<path d="M109.04 37L156.325 72.3898L147.878 51.399L109.04 37Z" fill="#E27625" stroke="#E27625" stroke-width="1.62609" stroke-linecap="round" stroke-linejoin="round"/>
<path d="M137.401 85.7603L129.851 97.0738L156.749 98.2893L155.853 69.5381L137.401 85.7603Z" fill="#E27625" stroke="#E27625" stroke-width="1.62609" stroke-linecap="round" stroke-linejoin="round"/>
<path d="M190.728 85.7602L171.993 69.2107L171.379 98.2892L198.278 97.0737L190.728 85.7602Z" fill="#E27625" stroke="#E27625" stroke-width="1.62609" stroke-linecap="round" stroke-linejoin="round"/>
<path d="M154.249 111.987L140.752 108.06L150.285 103.712L154.249 111.987Z" fill="#233447" stroke="#233447" stroke-width="1.62609" stroke-linecap="round" stroke-linejoin="round"/>
<path d="M173.881 111.987L177.845 103.712L187.425 108.06L173.881 111.987Z" fill="#233447" stroke="#233447" stroke-width="1.62609" stroke-linecap="round" stroke-linejoin="round"/>
<path d="M198.278 97.0737L171.379 98.2892L173.881 111.987L177.845 103.712L187.424 108.06L198.278 97.0737Z" fill="#CC6228" stroke="#CC6228" stroke-width="1.62609" stroke-linecap="round" stroke-linejoin="round"/>
<path d="M140.752 108.06L150.285 103.712L154.249 111.987L156.75 98.2892L129.851 97.0737L140.752 108.06Z" fill="#CC6228" stroke="#CC6228" stroke-width="1.62609" stroke-linecap="round" stroke-linejoin="round"/>
<path d="M129.851 97.0737L141.13 118.906L140.752 108.06L129.851 97.0737Z" fill="#E27525" stroke="#E27525" stroke-width="1.62609" stroke-linecap="round" stroke-linejoin="round"/>
<path d="M187.424 108.06L186.999 118.906L198.278 97.0737L187.424 108.06Z" fill="#E27525" stroke="#E27525" stroke-width="1.62609" stroke-linecap="round" stroke-linejoin="round"/>
<path d="M156.75 98.2893L154.249 111.987L157.41 128.163L158.118 106.845L156.75 98.2893Z" fill="#E27525" stroke="#E27525" stroke-width="1.62609" stroke-linecap="round" stroke-linejoin="round"/>
<path d="M171.378 98.2893L170.057 106.798L170.718 128.163L173.88 111.987L171.378 98.2893Z" fill="#E27525" stroke="#E27525" stroke-width="1.62609" stroke-linecap="round" stroke-linejoin="round"/>
<path d="M173.881 111.987L170.719 128.163L172.984 129.752L187 118.906L187.425 108.06L173.881 111.987Z" fill="#F5841F" stroke="#F5841F" stroke-width="1.62609" stroke-linecap="round" stroke-linejoin="round"/>
<path d="M140.752 108.06L141.13 118.906L155.146 129.752L157.411 128.163L154.249 111.987L140.752 108.06Z" fill="#F5841F" stroke="#F5841F" stroke-width="1.62609" stroke-linecap="round" stroke-linejoin="round"/>
<path d="M221.118 74.3533L225.129 54.9988L219.089 37L172.983 70.8938L190.727 85.7603L215.786 93.0065L221.307 86.6018L218.9 84.872L222.723 81.4125L219.797 79.1685L223.619 76.27L221.118 74.3533Z" fill="#763E1A" stroke="#763E1A" stroke-width="1.62609" stroke-linecap="round" stroke-linejoin="round"/>
<path d="M103 54.9988L107.058 74.3533L104.463 76.27L108.333 79.1685L105.407 81.4125L109.229 84.872L106.822 86.6018L112.344 93.0065L137.402 85.7603L155.146 70.8938L109.04 37L103 54.9988Z" fill="#763E1A" stroke="#763E1A" stroke-width="1.62609" stroke-linecap="round" stroke-linejoin="round"/>
<path d="M215.785 93.0065L190.727 85.7603L198.278 97.0738L186.999 118.906L201.911 118.719H224.185L215.785 93.0065Z" fill="#F5841F" stroke="#F5841F" stroke-width="1.62609" stroke-linecap="round" stroke-linejoin="round"/>
<path d="M137.402 85.7603L112.344 93.0065L103.991 118.719H126.218L141.13 118.906L129.852 97.0738L137.402 85.7603Z" fill="#F5841F" stroke="#F5841F" stroke-width="1.62609" stroke-linecap="round" stroke-linejoin="round"/>
<path d="M171.379 98.2894L172.983 70.8939L180.25 51.3992H147.877L155.145 70.8939L156.749 98.2894L157.363 106.891L157.41 128.163H170.718L170.765 106.891L171.379 98.2894Z" fill="#F5841F" stroke="#F5841F" stroke-width="1.62609" stroke-linecap="round" stroke-linejoin="round"/>
</g>
<defs>
<filter id="filter0_f_1344_4478" x="-552.83" y="-852.827" width="2545.64" height="2379.65" filterUnits="userSpaceOnUse" color-interpolation-filters="sRGB">
<feFlood flood-opacity="0" result="BackgroundImageFix"/>
<feBlend mode="normal" in="SourceGraphic" in2="BackgroundImageFix" result="shape"/>
<feGaussianBlur stdDeviation="128" result="effect1_foregroundBlur_1344_4478"/>
</filter>
<linearGradient id="paint0_linear_1344_4478" x1="164" y1="0" x2="164" y2="136" gradientUnits="userSpaceOnUse">
<stop stop-color="#D2E9FF"/>
<stop offset="1" stop-color="#2F93DC"/>
</linearGradient>
<radialGradient id="paint1_radial_1344_4478" cx="0" cy="0" r="1" gradientUnits="userSpaceOnUse" gradientTransform="translate(181.333 93.2925) rotate(117.841) scale(47.5298 101.454)">
<stop stop-color="white" stop-opacity="0"/>
<stop offset="1" stop-color="#EBEBEB"/>
</radialGradient>
<radialGradient id="paint2_radial_1344_4478" cx="0" cy="0" r="1" gradientUnits="userSpaceOnUse" gradientTransform="translate(159.36 78.0473) rotate(117.841) scale(57.142 95.7796)">
<stop stop-color="white" stop-opacity="0"/>
<stop offset="1" stop-color="#EBEBEB"/>
</radialGradient>
<radialGradient id="paint3_radial_1344_4478" cx="0" cy="0" r="1" gradientUnits="userSpaceOnUse" gradientTransform="translate(163.423 84.3947) rotate(60) scale(39.4193 118.811)">
<stop stop-color="white" stop-opacity="0"/>
<stop offset="1" stop-color="#EBEBEB"/>
</radialGradient>
<radialGradient id="paint4_radial_1344_4478" cx="0" cy="0" r="1" gradientUnits="userSpaceOnUse" gradientTransform="translate(163.466 88.7731) rotate(83.6767) scale(27.6448 124.292)">
<stop stop-color="white" stop-opacity="0"/>
<stop offset="1" stop-color="#EBEBEB"/>
</radialGradient>
<clipPath id="clip0_1344_4478">
<rect width="328" height="114" fill="white"/>
</clipPath>
<clipPath id="clip1_1344_4478">
<rect width="262.027" height="130.9" fill="white" transform="translate(28 5)"/>
</clipPath>
</defs>
</svg>
