<svg width="328" height="114" viewBox="0 0 328 114" fill="none" xmlns="http://www.w3.org/2000/svg">
<g clip-path="url(#clip0_1344_4478)">
<rect width="328" height="114" fill="#F2F4F6"/>
<g opacity="0.8" filter="url(#filter0_f_1344_4478)">
<path d="M277.679 215.325L152.424 402.875L598.645 423.026L583.771 -53.5996L277.679 215.325Z" fill="#E27625" stroke="#E27625" stroke-width="7.65217" stroke-linecap="round" stroke-linejoin="round"/>
<path d="M-293.003 -294.625L-225.679 26.2251L-268.735 58.0001L-204.542 106.05L-253.078 143.25L-189.668 200.6L-229.593 229.275L-138 335.45L277.69 215.325L572.039 -31.1249L-192.799 -593L-293.003 -294.625Z" fill="#763E1A" stroke="#763E1A" stroke-width="7.65217" stroke-linecap="round" stroke-linejoin="round"/>
</g>
<rect width="328" height="136" fill="url(#paint0_linear_1344_4478)"/>
<g clip-path="url(#clip1_1344_4478)">
<path opacity="0.5" d="M269.868 140.582C263.795 152.08 248.314 157.285 228.081 156.317C207.864 155.35 182.98 148.219 158.228 135.146C133.475 122.072 113.556 105.54 101.36 89.3881C89.1534 73.2222 84.725 57.5013 90.7978 46.0034C96.8706 34.5055 112.351 29.3 132.585 30.2679C152.802 31.235 177.685 38.3657 202.438 51.4392C227.191 64.5128 247.109 81.045 259.306 97.197C271.512 113.363 275.941 129.084 269.868 140.582Z" fill="url(#paint1_radial_1344_4478)" fill-opacity="0.75" stroke="white" stroke-width="0.394925"/>
<path opacity="0.5" d="M242.842 122.668C235.528 136.517 219.475 144.122 199.364 145.168C179.258 146.215 155.14 140.701 131.784 128.365C108.428 116.029 90.2766 99.2183 79.8055 82.0222C69.3314 64.8213 66.5624 47.2762 73.8772 33.4267C81.192 19.5773 97.244 11.9728 117.356 10.9262C137.462 9.87988 161.58 15.394 184.936 27.7298C208.292 40.0655 226.443 56.8763 236.914 74.0724C247.388 91.2733 250.157 108.818 242.842 122.668Z" fill="url(#paint2_radial_1344_4478)" fill-opacity="0.5" stroke="white" stroke-width="0.474924"/>
<path opacity="0.5" d="M265.145 25.0877C267.823 29.726 267.557 35.808 264.719 42.8719C261.882 49.933 256.487 57.9416 248.969 66.3966C233.933 83.305 210.434 101.965 182.034 118.362C153.633 134.759 125.724 145.78 103.563 150.347C92.4812 152.631 82.8482 153.298 75.3146 152.225C67.778 151.151 62.3779 148.34 59.7 143.702C57.0221 139.063 57.2881 132.981 60.1262 125.918C62.9632 118.856 68.3579 110.848 75.8766 102.393C90.9125 85.4844 114.412 66.8245 142.812 50.4277C171.212 34.0308 199.122 23.0099 221.283 18.4427C232.364 16.1588 241.997 15.4911 249.531 16.5648C257.067 17.6389 262.468 20.4495 265.145 25.0877Z" fill="url(#paint3_radial_1344_4478)" fill-opacity="0.5" stroke="white" stroke-width="0.394925"/>
<path opacity="0.5" d="M285.805 75.1055C286.009 76.9384 285.375 78.8376 283.946 80.7825C282.517 82.7285 280.301 84.708 277.368 86.6911C271.502 90.6569 262.803 94.6129 251.908 98.3353C230.121 105.779 199.592 112.274 165.489 116.053C131.385 119.833 100.176 120.179 77.2872 117.685C65.8413 116.439 56.4873 114.483 49.8953 111.898C46.5991 110.605 44.0036 109.159 42.1832 107.573C40.3638 105.988 39.3294 104.274 39.1263 102.441C38.9232 100.608 39.5571 98.7086 40.9854 96.7637C42.4144 94.8177 44.6303 92.8381 47.5635 90.8551C53.4296 86.8893 62.1285 82.9333 73.0237 79.2109C94.811 71.7672 125.339 65.2719 159.443 61.4928C193.546 57.7137 224.756 57.3677 247.645 59.8607C259.09 61.1074 268.444 63.0629 275.036 65.6482C278.333 66.941 280.928 68.3873 282.749 69.9733C284.568 71.5583 285.602 73.2726 285.805 75.1055Z" fill="url(#paint4_radial_1344_4478)" stroke="white" stroke-width="0.394925"/>
<rect x="98.8579" y="72.8542" width="10.9994" height="10.9994" rx="5.49968" fill="#C2C2C2"/>
<path d="M106.756 76.3153L104.705 75.2325C104.489 75.1172 104.227 75.1172 104.011 75.2325L101.96 76.3153C101.81 76.3954 101.718 76.5492 101.718 76.7254C101.718 76.8984 101.81 77.0554 101.96 77.1355L104.011 78.2183C104.119 78.276 104.24 78.3048 104.358 78.3048C104.476 78.3048 104.597 78.276 104.705 78.2183L106.756 77.1355C106.906 77.0554 106.998 76.9016 106.998 76.7254C106.998 76.5492 106.906 76.3954 106.756 76.3153Z" fill="white"/>
<path d="M103.742 78.5049L101.878 77.5151C101.73 77.4442 101.51 77.4994 101.373 77.5832C101.232 77.6702 101.15 77.8152 101.15 77.9764V79.7522C101.15 80.0584 101.324 80.3543 101.602 80.4929L103.513 81.5129C103.578 81.5452 103.65 81.5613 103.722 81.5613C103.808 81.5613 103.893 81.5387 103.968 81.4936C104.109 81.4098 104.191 81.1639 104.191 81.0027V79.2269C104.194 78.9175 104.021 78.6403 103.742 78.5049Z" fill="white"/>
<path d="M107.343 77.5845C107.202 77.5007 106.981 77.441 106.837 77.5151L104.977 78.5059C104.699 78.6444 104.525 78.9183 104.525 79.2276V81.0029C104.525 81.1639 104.607 81.4109 104.748 81.4946C104.823 81.5397 104.909 81.5623 104.994 81.5623C105.066 81.5623 105.138 81.5462 105.203 81.514L107.114 80.4929C107.393 80.3544 107.566 80.0621 107.566 79.7528V77.9775C107.566 77.8164 107.484 77.6714 107.343 77.5845Z" fill="white"/>
<rect x="76.3848" y="9.94604" width="20.1589" height="20.1589" rx="10.0794" fill="#0376C9"/>
<path d="M90.9683 16.1965L87.1158 14.1627C86.7102 13.9461 86.2187 13.9461 85.8132 14.1627L81.9607 16.1965C81.678 16.3469 81.506 16.6357 81.506 16.9666C81.506 17.2916 81.678 17.5864 81.9607 17.7368L85.8132 19.7706C86.0159 19.8789 86.2433 19.9331 86.4645 19.9331C86.6857 19.9331 86.913 19.8789 87.1158 19.7706L90.9683 17.7368C91.2509 17.5864 91.423 17.2976 91.423 16.9666C91.423 16.6357 91.2509 16.3469 90.9683 16.1965Z" fill="white"/>
<path d="M85.3074 20.309L81.806 18.4499C81.529 18.3167 81.116 18.4203 80.8575 18.5777C80.5928 18.7412 80.439 19.0136 80.439 19.3162V22.6516C80.439 23.2266 80.7652 23.7825 81.2883 24.0428L84.8765 25.9586C84.9996 26.0191 85.135 26.0494 85.2704 26.0494C85.4305 26.0494 85.5905 26.007 85.732 25.9222C85.9967 25.7649 86.1506 25.3029 86.1506 25.0002V21.6649C86.1567 21.0838 85.8305 20.5632 85.3074 20.309Z" fill="white"/>
<path d="M92.0715 18.5801C91.8068 18.4228 91.3913 18.3107 91.1205 18.4499L87.6277 20.3108C87.1045 20.571 86.7783 21.0854 86.7783 21.6663V25.0005C86.7783 25.3031 86.9322 25.7669 87.1968 25.9242C87.3384 26.0089 87.4984 26.0513 87.6584 26.0513C87.7938 26.0513 87.9293 26.021 88.0523 25.9605L91.6406 24.0428C92.1638 23.7826 92.49 23.2336 92.49 22.6526V19.3184C92.49 19.0158 92.3361 18.7435 92.0715 18.5801Z" fill="white"/>
<rect x="76.3848" y="9.94604" width="20.1589" height="20.1589" rx="10.0794" stroke="#D1E8FA" stroke-width="0.5"/>
<rect x="51.9463" y="72.946" width="20.1589" height="20.1589" rx="10.0794" fill="#0376C9"/>
<path d="M66.5298 79.1965L62.6773 77.1627C62.2718 76.9461 61.7802 76.9461 61.3747 77.1627L57.5222 79.1965C57.2395 79.3469 57.0675 79.6357 57.0675 79.9666C57.0675 80.2916 57.2395 80.5864 57.5222 80.7368L61.3747 82.7706C61.5775 82.8789 61.8048 82.9331 62.026 82.9331C62.2472 82.9331 62.4745 82.8789 62.6773 82.7706L66.5298 80.7368C66.8124 80.5864 66.9845 80.2976 66.9845 79.9666C66.9845 79.6357 66.8124 79.3469 66.5298 79.1965Z" fill="white"/>
<path d="M60.8689 83.309L57.3675 81.4499C57.0905 81.3167 56.6775 81.4203 56.419 81.5777C56.1544 81.7412 56.0005 82.0136 56.0005 82.3162V85.6516C56.0005 86.2266 56.3267 86.7825 56.8498 87.0428L60.4381 88.9586C60.5611 89.0191 60.6966 89.0494 60.832 89.0494C60.992 89.0494 61.152 89.007 61.2936 88.9222C61.5582 88.7649 61.7121 88.3029 61.7121 88.0002V84.6649C61.7182 84.0838 61.392 83.5632 60.8689 83.309Z" fill="white"/>
<path d="M67.633 81.5801C67.3683 81.4228 66.9528 81.3107 66.682 81.4499L63.1892 83.3108C62.666 83.571 62.3398 84.0854 62.3398 84.6663V88.0005C62.3398 88.3031 62.4937 88.7669 62.7584 88.9242C62.8999 89.0089 63.0599 89.0513 63.22 89.0513C63.3554 89.0513 63.4908 89.021 63.6139 88.9605L67.2021 87.0428C67.7253 86.7826 68.0515 86.2336 68.0515 85.6526V82.3184C68.0515 82.0158 67.8976 81.7435 67.633 81.5801Z" fill="white"/>
<rect x="51.9463" y="72.946" width="20.1589" height="20.1589" rx="10.0794" stroke="#ADD5F3" stroke-width="0.5"/>
<rect x="155.385" y="24.946" width="20.1589" height="20.1589" rx="10.0794" fill="#0376C9"/>
<path d="M169.968 31.1965L166.116 29.1627C165.71 28.9461 165.219 28.9461 164.813 29.1627L160.961 31.1965C160.678 31.3469 160.506 31.6357 160.506 31.9666C160.506 32.2916 160.678 32.5864 160.961 32.7368L164.813 34.7706C165.016 34.8789 165.243 34.9331 165.464 34.9331C165.686 34.9331 165.913 34.8789 166.116 34.7706L169.968 32.7368C170.251 32.5864 170.423 32.2976 170.423 31.9666C170.423 31.6357 170.251 31.3469 169.968 31.1965Z" fill="white"/>
<path d="M164.307 35.309L160.806 33.4499C160.529 33.3167 160.116 33.4203 159.857 33.5777C159.593 33.7412 159.439 34.0136 159.439 34.3162V37.6516C159.439 38.2266 159.765 38.7825 160.288 39.0428L163.877 40.9586C164 41.0191 164.135 41.0494 164.27 41.0494C164.43 41.0494 164.59 41.007 164.732 40.9222C164.997 40.7649 165.151 40.3029 165.151 40.0002V36.6649C165.157 36.0838 164.831 35.5632 164.307 35.309Z" fill="white"/>
<path d="M171.071 33.5801C170.807 33.4228 170.391 33.3107 170.12 33.4499L166.628 35.3108C166.105 35.571 165.778 36.0854 165.778 36.6663V40.0005C165.778 40.3031 165.932 40.7669 166.197 40.9242C166.338 41.0089 166.498 41.0513 166.658 41.0513C166.794 41.0513 166.929 41.021 167.052 40.9605L170.641 39.0428C171.164 38.7826 171.49 38.2336 171.49 37.6526V34.3184C171.49 34.0158 171.336 33.7435 171.071 33.5801Z" fill="white"/>
<rect x="155.385" y="24.946" width="20.1589" height="20.1589" rx="10.0794" stroke="#D1E8FA" stroke-width="0.5"/>
<rect x="213.946" y="7.94604" width="20.1589" height="20.1589" rx="10.0794" fill="#0376C9"/>
<path d="M228.53 14.1965L224.677 12.1627C224.272 11.9461 223.78 11.9461 223.375 12.1627L219.522 14.1965C219.24 14.3469 219.068 14.6357 219.068 14.9666C219.068 15.2916 219.24 15.5864 219.522 15.7368L223.375 17.7706C223.577 17.8789 223.805 17.9331 224.026 17.9331C224.247 17.9331 224.475 17.8789 224.677 17.7706L228.53 15.7368C228.812 15.5864 228.984 15.2976 228.984 14.9666C228.984 14.6357 228.812 14.3469 228.53 14.1965Z" fill="white"/>
<path d="M222.869 18.309L219.368 16.4499C219.091 16.3167 218.678 16.4203 218.419 16.5777C218.154 16.7412 218 17.0136 218 17.3162V20.6516C218 21.2266 218.327 21.7825 218.85 22.0428L222.438 23.9586C222.561 24.0191 222.697 24.0494 222.832 24.0494C222.992 24.0494 223.152 24.007 223.294 23.9222C223.558 23.7649 223.712 23.3029 223.712 23.0002V19.6649C223.718 19.0838 223.392 18.5632 222.869 18.309Z" fill="white"/>
<path d="M229.633 16.5801C229.368 16.4228 228.953 16.3107 228.682 16.4499L225.189 18.3108C224.666 18.571 224.34 19.0854 224.34 19.6663V23.0005C224.34 23.3031 224.494 23.7669 224.758 23.9242C224.9 24.0089 225.06 24.0513 225.22 24.0513C225.355 24.0513 225.491 24.021 225.614 23.9605L229.202 22.0428C229.725 21.7826 230.052 21.2336 230.052 20.6526V17.3184C230.052 17.0158 229.898 16.7435 229.633 16.5801Z" fill="white"/>
<rect x="213.946" y="7.94604" width="20.1589" height="20.1589" rx="10.0794" stroke="#D1E8FA" stroke-width="0.5"/>
<rect x="250.095" y="84.0952" width="19.8607" height="19.8607" rx="9.93033" fill="#0376C9"/>
<path d="M264.53 90.1965L260.677 88.1627C260.272 87.9461 259.78 87.9461 259.375 88.1627L255.522 90.1965C255.24 90.3469 255.068 90.6357 255.068 90.9666C255.068 91.2916 255.24 91.5864 255.522 91.7368L259.375 93.7706C259.577 93.8789 259.805 93.9331 260.026 93.9331C260.247 93.9331 260.475 93.8789 260.677 93.7706L264.53 91.7368C264.812 91.5864 264.984 91.2976 264.984 90.9666C264.984 90.6357 264.812 90.3469 264.53 90.1965Z" fill="white"/>
<path d="M258.869 94.309L255.368 92.4499C255.091 92.3167 254.678 92.4203 254.419 92.5777C254.154 92.7412 254 93.0136 254 93.3162V96.6516C254 97.2266 254.327 97.7825 254.85 98.0428L258.438 99.9586C258.561 100.019 258.697 100.049 258.832 100.049C258.992 100.049 259.152 100.007 259.294 99.9222C259.558 99.7649 259.712 99.3029 259.712 99.0002V95.6649C259.718 95.0838 259.392 94.5632 258.869 94.309Z" fill="white"/>
<path d="M265.633 92.5801C265.368 92.4228 264.953 92.3107 264.682 92.4499L261.189 94.3108C260.666 94.571 260.34 95.0854 260.34 95.6663V99.0005C260.34 99.3031 260.494 99.7669 260.758 99.9242C260.9 100.009 261.06 100.051 261.22 100.051C261.355 100.051 261.491 100.021 261.614 99.9605L265.202 98.0428C265.725 97.7826 266.052 97.2336 266.052 96.6526V93.3184C266.052 93.0158 265.898 92.7435 265.633 92.5801Z" fill="white"/>
<rect x="250.095" y="84.0952" width="19.8607" height="19.8607" rx="9.93033" stroke="#ADD5F3" stroke-width="0.79823"/>
</g>
<path d="M207.089 37L159.379 72.0625L168.251 51.399L207.089 37Z" fill="#E17726" stroke="#E17726" stroke-width="1.62609" stroke-linecap="round" stroke-linejoin="round"/>
<path d="M97.04 37L144.325 72.3898L135.878 51.399L97.04 37Z" fill="#E27625" stroke="#E27625" stroke-width="1.62609" stroke-linecap="round" stroke-linejoin="round"/>
<path d="M125.401 85.7603L117.851 97.0738L144.749 98.2893L143.853 69.5381L125.401 85.7603Z" fill="#E27625" stroke="#E27625" stroke-width="1.62609" stroke-linecap="round" stroke-linejoin="round"/>
<path d="M178.728 85.7602L159.993 69.2107L159.379 98.2892L186.278 97.0737L178.728 85.7602Z" fill="#E27625" stroke="#E27625" stroke-width="1.62609" stroke-linecap="round" stroke-linejoin="round"/>
<path d="M142.249 111.987L128.752 108.06L138.285 103.712L142.249 111.987Z" fill="#233447" stroke="#233447" stroke-width="1.62609" stroke-linecap="round" stroke-linejoin="round"/>
<path d="M161.881 111.987L165.845 103.712L175.425 108.06L161.881 111.987Z" fill="#233447" stroke="#233447" stroke-width="1.62609" stroke-linecap="round" stroke-linejoin="round"/>
<path d="M186.278 97.0737L159.379 98.2892L161.881 111.987L165.845 103.712L175.424 108.06L186.278 97.0737Z" fill="#CC6228" stroke="#CC6228" stroke-width="1.62609" stroke-linecap="round" stroke-linejoin="round"/>
<path d="M128.752 108.06L138.285 103.712L142.249 111.987L144.75 98.2892L117.851 97.0737L128.752 108.06Z" fill="#CC6228" stroke="#CC6228" stroke-width="1.62609" stroke-linecap="round" stroke-linejoin="round"/>
<path d="M117.851 97.0737L129.13 118.906L128.752 108.06L117.851 97.0737Z" fill="#E27525" stroke="#E27525" stroke-width="1.62609" stroke-linecap="round" stroke-linejoin="round"/>
<path d="M175.424 108.06L174.999 118.906L186.278 97.0737L175.424 108.06Z" fill="#E27525" stroke="#E27525" stroke-width="1.62609" stroke-linecap="round" stroke-linejoin="round"/>
<path d="M144.75 98.2893L142.249 111.987L145.41 128.163L146.118 106.845L144.75 98.2893Z" fill="#E27525" stroke="#E27525" stroke-width="1.62609" stroke-linecap="round" stroke-linejoin="round"/>
<path d="M159.378 98.2893L158.057 106.798L158.718 128.163L161.88 111.987L159.378 98.2893Z" fill="#E27525" stroke="#E27525" stroke-width="1.62609" stroke-linecap="round" stroke-linejoin="round"/>
<path d="M161.881 111.987L158.719 128.163L160.984 129.752L175 118.906L175.425 108.06L161.881 111.987Z" fill="#F5841F" stroke="#F5841F" stroke-width="1.62609" stroke-linecap="round" stroke-linejoin="round"/>
<path d="M128.752 108.06L129.13 118.906L143.146 129.752L145.411 128.163L142.249 111.987L128.752 108.06Z" fill="#F5841F" stroke="#F5841F" stroke-width="1.62609" stroke-linecap="round" stroke-linejoin="round"/>
<path d="M209.118 74.3533L213.129 54.9988L207.089 37L160.983 70.8938L178.727 85.7603L203.786 93.0065L209.307 86.6018L206.9 84.872L210.723 81.4125L207.797 79.1685L211.619 76.27L209.118 74.3533Z" fill="#763E1A" stroke="#763E1A" stroke-width="1.62609" stroke-linecap="round" stroke-linejoin="round"/>
<path d="M91 54.9988L95.0584 74.3533L92.4629 76.27L96.3326 79.1685L93.4067 81.4125L97.2292 84.872L94.8225 86.6018L100.344 93.0065L125.402 85.7603L143.146 70.8938L97.0404 37L91 54.9988Z" fill="#763E1A" stroke="#763E1A" stroke-width="1.62609" stroke-linecap="round" stroke-linejoin="round"/>
<path d="M203.785 93.0065L178.727 85.7603L186.278 97.0738L174.999 118.906L189.911 118.719H212.185L203.785 93.0065Z" fill="#F5841F" stroke="#F5841F" stroke-width="1.62609" stroke-linecap="round" stroke-linejoin="round"/>
<path d="M125.402 85.7603L100.344 93.0065L91.9912 118.719H114.218L129.13 118.906L117.852 97.0738L125.402 85.7603Z" fill="#F5841F" stroke="#F5841F" stroke-width="1.62609" stroke-linecap="round" stroke-linejoin="round"/>
<path d="M159.379 98.2894L160.983 70.8939L168.25 51.3992H135.877L143.145 70.8939L144.749 98.2894L145.363 106.891L145.41 128.163H158.718L158.765 106.891L159.379 98.2894Z" fill="#F5841F" stroke="#F5841F" stroke-width="1.62609" stroke-linecap="round" stroke-linejoin="round"/>
</g>
<defs>
<filter id="filter0_f_1344_4478" x="-552.83" y="-852.827" width="2545.64" height="2379.65" filterUnits="userSpaceOnUse" color-interpolation-filters="sRGB">
<feFlood flood-opacity="0" result="BackgroundImageFix"/>
<feBlend mode="normal" in="SourceGraphic" in2="BackgroundImageFix" result="shape"/>
<feGaussianBlur stdDeviation="128" result="effect1_foregroundBlur_1344_4478"/>
</filter>
<linearGradient id="paint0_linear_1344_4478" x1="164" y1="0" x2="164" y2="136" gradientUnits="userSpaceOnUse">
<stop stop-color="#D2E9FF"/>
<stop offset="1" stop-color="#2F93DC"/>
</linearGradient>
<radialGradient id="paint1_radial_1344_4478" cx="0" cy="0" r="1" gradientUnits="userSpaceOnUse" gradientTransform="translate(180.333 93.2925) rotate(117.841) scale(47.5298 101.454)">
<stop stop-color="white" stop-opacity="0"/>
<stop offset="1" stop-color="#EBEBEB"/>
</radialGradient>
<radialGradient id="paint2_radial_1344_4478" cx="0" cy="0" r="1" gradientUnits="userSpaceOnUse" gradientTransform="translate(158.36 78.0473) rotate(117.841) scale(57.142 95.7796)">
<stop stop-color="white" stop-opacity="0"/>
<stop offset="1" stop-color="#EBEBEB"/>
</radialGradient>
<radialGradient id="paint3_radial_1344_4478" cx="0" cy="0" r="1" gradientUnits="userSpaceOnUse" gradientTransform="translate(162.423 84.3947) rotate(60) scale(39.4193 118.811)">
<stop stop-color="white" stop-opacity="0"/>
<stop offset="1" stop-color="#EBEBEB"/>
</radialGradient>
<radialGradient id="paint4_radial_1344_4478" cx="0" cy="0" r="1" gradientUnits="userSpaceOnUse" gradientTransform="translate(162.466 88.7731) rotate(83.6767) scale(27.6448 124.292)">
<stop stop-color="white" stop-opacity="0"/>
<stop offset="1" stop-color="#EBEBEB"/>
</radialGradient>
<clipPath id="clip0_1344_4478">
<rect width="328" height="114" fill="white"/>
</clipPath>
<clipPath id="clip1_1344_4478">
<rect width="262.027" height="130.9" fill="white" transform="translate(27 5)"/>
</clipPath>
</defs>
</svg>
