<svg width="80" height="80" viewBox="0 0 80 80" fill="none" xmlns="http://www.w3.org/2000/svg">
<mask id="mask0_476_2424" style="mask-type:alpha" maskUnits="userSpaceOnUse" x="48" y="2" width="17" height="19">
<path d="M48.4053 2V20.2024L64.2021 11.1147L48.4053 2Z" fill="white"/>
</mask>
<g mask="url(#mask0_476_2424)">
<rect x="-1.21777" y="-2.24414" width="86.0815" height="84.7951" fill="url(#paint0_linear_476_2424)"/>
</g>
<mask id="mask1_476_2424" style="mask-type:alpha" maskUnits="userSpaceOnUse" x="64" y="11" width="16" height="19">
<path opacity="0.9" d="M64.2026 11.1133V29.3156L79.9995 20.2023L64.2026 11.1133Z" fill="white"/>
</mask>
<g mask="url(#mask1_476_2424)">
<rect x="-1.2168" y="-2.24219" width="86.0815" height="84.7951" fill="url(#paint1_linear_476_2424)"/>
</g>
<mask id="mask2_476_2424" style="mask-type:alpha" maskUnits="userSpaceOnUse" x="48" y="20" width="17" height="19">
<path opacity="0.8" d="M48.4043 20.2031V38.4041L64.2012 29.3165L48.4043 20.2031Z" fill="white"/>
</mask>
<g mask="url(#mask2_476_2424)">
<rect x="-1.21826" y="-2.24023" width="86.0815" height="84.7951" fill="url(#paint2_linear_476_2424)"/>
</g>
<mask id="mask3_476_2424" style="mask-type:alpha" maskUnits="userSpaceOnUse" x="64" y="29" width="16" height="19">
<path opacity="0.8" d="M64.2026 29.3145V47.5155L79.9995 38.4021L64.2026 29.3145Z" fill="white"/>
</mask>
<g mask="url(#mask3_476_2424)">
<rect x="-1.2168" y="-2.24219" width="86.0815" height="84.7951" fill="url(#paint3_linear_476_2424)"/>
</g>
<mask id="mask4_476_2424" style="mask-type:alpha" maskUnits="userSpaceOnUse" x="48" y="38" width="17" height="19">
<path opacity="0.8" d="M48.4043 38.4062V56.6073L64.2012 47.5196L48.4043 38.4062Z" fill="white"/>
</mask>
<g mask="url(#mask4_476_2424)">
<rect x="-1.21826" y="-2.24414" width="86.0815" height="84.7951" fill="url(#paint4_linear_476_2424)"/>
</g>
<mask id="mask5_476_2424" style="mask-type:alpha" maskUnits="userSpaceOnUse" x="64" y="47" width="16" height="19">
<path d="M64.2026 47.5117V65.7127L79.9995 56.5994L64.2026 47.5117Z" fill="white"/>
</mask>
<g mask="url(#mask5_476_2424)">
<rect x="-1.2168" y="-2.24414" width="86.0815" height="84.7951" fill="url(#paint5_linear_476_2424)"/>
</g>
<mask id="mask6_476_2424" style="mask-type:alpha" maskUnits="userSpaceOnUse" x="7" y="19" width="17" height="19">
<path opacity="0.4" d="M7.57422 19.5859V37.7869L23.3711 28.6736L7.57422 19.5859Z" fill="white"/>
</mask>
<g mask="url(#mask6_476_2424)">
<rect x="-1.21729" y="-2.24219" width="86.0815" height="84.7951" fill="url(#paint6_linear_476_2424)"/>
</g>
<mask id="mask7_476_2424" style="mask-type:alpha" maskUnits="userSpaceOnUse" x="27" y="26" width="17" height="19">
<path opacity="0.2" d="M27.5083 26.3555V44.5565L43.2782 35.4688L27.5083 26.3555Z" fill="white"/>
</mask>
<g mask="url(#mask7_476_2424)">
<rect x="-1.21826" y="-2.24219" width="86.0815" height="84.7951" fill="url(#paint7_linear_476_2424)"/>
</g>
<mask id="mask8_476_2424" style="mask-type:alpha" maskUnits="userSpaceOnUse" x="15" y="37" width="17" height="20">
<path opacity="0.3" d="M15.7939 37.8691V56.0701L31.5908 46.9568L15.7939 37.8691Z" fill="white"/>
</mask>
<g mask="url(#mask8_476_2424)">
<rect x="-1.21777" y="-2.24023" width="86.0815" height="84.7951" fill="url(#paint8_linear_476_2424)"/>
</g>
<mask id="mask9_476_2424" style="mask-type:alpha" maskUnits="userSpaceOnUse" x="26" y="51" width="16" height="19">
<path opacity="0.9" d="M26.2061 51.6035V69.8045L41.9759 60.6912L26.2061 51.6035Z" fill="white"/>
</mask>
<g mask="url(#mask9_476_2424)">
<rect x="-1.21777" y="-2.24219" width="86.0815" height="84.7951" fill="url(#paint9_linear_476_2424)"/>
</g>
<mask id="mask10_476_2424" style="mask-type:alpha" maskUnits="userSpaceOnUse" x="48" y="59" width="17" height="19">
<path opacity="0.7" d="M48.2803 59.4355V77.6338L64.0501 68.5205L48.2803 59.4355Z" fill="white"/>
</mask>
<g mask="url(#mask10_476_2424)">
<rect x="-1.21582" y="-2.24219" width="86.0815" height="84.7951" fill="url(#paint10_linear_476_2424)"/>
</g>
<mask id="mask11_476_2424" style="mask-type:alpha" maskUnits="userSpaceOnUse" x="30" y="17" width="16" height="19">
<path opacity="0.9" d="M30.1353 17.3691V35.5701L45.9051 26.4825L30.1353 17.3691Z" fill="white"/>
</mask>
<g mask="url(#mask11_476_2424)">
<rect x="-1.21729" y="-2.24219" width="86.0815" height="84.7951" fill="url(#paint11_linear_476_2424)"/>
</g>
<mask id="mask12_476_2424" style="mask-type:alpha" maskUnits="userSpaceOnUse" x="32" y="2" width="17" height="19">
<path opacity="0.8" d="M48.4082 2V20.2024L32.6113 11.1147L48.4082 2Z" fill="white"/>
</mask>
<g mask="url(#mask12_476_2424)">
<rect x="-1.21582" y="-2.24414" width="86.0815" height="84.7951" fill="url(#paint12_linear_476_2424)"/>
</g>
<mask id="mask13_476_2424" style="mask-type:alpha" maskUnits="userSpaceOnUse" x="14" y="9" width="17" height="19">
<path opacity="0.6" d="M30.1387 9.73633V27.9333L14.3418 18.824L30.1387 9.73633Z" fill="white"/>
</mask>
<g mask="url(#mask13_476_2424)">
<rect x="-1.21729" y="-2.24023" width="86.0815" height="84.7951" fill="url(#paint13_linear_476_2424)"/>
</g>
<mask id="mask14_476_2424" style="mask-type:alpha" maskUnits="userSpaceOnUse" x="30" y="18" width="16" height="19">
<path opacity="0.6" d="M45.9316 18.748V36.949L30.1348 27.8357L45.9316 18.748Z" fill="white"/>
</mask>
<g mask="url(#mask14_476_2424)">
<rect x="-1.21729" y="-2.24219" width="86.0815" height="84.7951" fill="url(#paint14_linear_476_2424)"/>
</g>
<mask id="mask15_476_2424" style="mask-type:alpha" maskUnits="userSpaceOnUse" x="11" y="26" width="17" height="19">
<path opacity="0.95" d="M27.4331 26.3555V44.5565L11.6362 35.4688L27.4331 26.3555Z" fill="white"/>
</mask>
<g mask="url(#mask15_476_2424)">
<rect x="-1.21777" y="-2.24219" width="86.0815" height="84.7951" fill="url(#paint15_linear_476_2424)"/>
</g>
<mask id="mask16_476_2424" style="mask-type:alpha" maskUnits="userSpaceOnUse" x="32" y="38" width="17" height="19">
<path opacity="0.6" d="M48.4056 38.4062V56.6073L32.6357 47.5196L48.4056 38.4062Z" fill="white"/>
</mask>
<g mask="url(#mask16_476_2424)">
<rect x="-1.2168" y="-2.24414" width="86.0815" height="84.7951" fill="url(#paint16_linear_476_2424)"/>
</g>
<mask id="mask17_476_2424" style="mask-type:alpha" maskUnits="userSpaceOnUse" x="0" y="42" width="16" height="19">
<path opacity="0.55" d="M15.7955 42.6426V60.8436L0 51.7289L15.7955 42.6426Z" fill="white"/>
</mask>
<g mask="url(#mask17_476_2424)">
<rect x="-1.21777" y="-2.24023" width="86.0815" height="84.7951" fill="url(#paint17_linear_476_2424)"/>
</g>
<mask id="mask18_476_2424" style="mask-type:alpha" maskUnits="userSpaceOnUse" x="64" y="20" width="16" height="19">
<path d="M79.998 20.2031V38.4041L64.2012 29.3165L79.998 20.2031Z" fill="white"/>
</mask>
<g mask="url(#mask18_476_2424)">
<rect x="-1.21582" y="-2.24023" width="86.0815" height="84.7951" fill="url(#paint18_linear_476_2424)"/>
</g>
<mask id="mask19_476_2424" style="mask-type:alpha" maskUnits="userSpaceOnUse" x="48" y="29" width="17" height="19">
<path opacity="0.95" d="M64.2007 29.3145V47.5155L48.4038 38.4021L64.2007 29.3145Z" fill="white"/>
</mask>
<g mask="url(#mask19_476_2424)">
<rect x="-1.21777" y="-2.24023" width="86.0815" height="84.7951" fill="url(#paint19_linear_476_2424)"/>
</g>
<mask id="mask20_476_2424" style="mask-type:alpha" maskUnits="userSpaceOnUse" x="64" y="38" width="16" height="19">
<path opacity="0.9" d="M79.997 38.4062V56.6073L64.2002 47.5196L79.997 38.4062Z" fill="white"/>
</mask>
<g mask="url(#mask20_476_2424)">
<rect x="-1.2168" y="-2.24023" width="86.0815" height="84.7951" fill="url(#paint20_linear_476_2424)"/>
</g>
<mask id="mask21_476_2424" style="mask-type:alpha" maskUnits="userSpaceOnUse" x="48" y="47" width="17" height="19">
<path opacity="0.7" d="M64.2007 47.5137V65.7147L48.4038 56.6013L64.2007 47.5137Z" fill="white"/>
</mask>
<g mask="url(#mask21_476_2424)">
<rect x="-1.21777" y="-2.24219" width="86.0815" height="84.7951" fill="url(#paint21_linear_476_2424)"/>
</g>
<mask id="mask22_476_2424" style="mask-type:alpha" maskUnits="userSpaceOnUse" x="29" y="55" width="16" height="19">
<path opacity="0.4" d="M44.9111 55.0996V73.3006L29.1143 64.213L44.9111 55.0996Z" fill="white"/>
</mask>
<g mask="url(#mask22_476_2424)">
<rect x="-1.21777" y="-2.24023" width="86.0815" height="84.7951" fill="url(#paint22_linear_476_2424)"/>
</g>
<mask id="mask23_476_2424" style="mask-type:alpha" maskUnits="userSpaceOnUse" x="48" y="11" width="17" height="19">
<path d="M64.2016 11.1133V29.3156L48.4048 20.2023L64.2016 11.1133Z" fill="white"/>
</mask>
<g mask="url(#mask23_476_2424)">
<rect x="-1.2168" y="-2.24219" width="86.0815" height="84.7951" fill="url(#paint23_linear_476_2424)"/>
</g>
<defs>
<linearGradient id="paint0_linear_476_2424" x1="10.0103" y1="46.2899" x2="111.12" y2="63.5539" gradientUnits="userSpaceOnUse">
<stop offset="0.0696236" stop-color="#77FE9E"/>
<stop offset="0.368551" stop-color="#72A7FF"/>
<stop offset="1" stop-color="#EC02D5"/>
</linearGradient>
<linearGradient id="paint1_linear_476_2424" x1="10.0112" y1="46.2918" x2="111.121" y2="63.5558" gradientUnits="userSpaceOnUse">
<stop offset="0.0696236" stop-color="#77FE9E"/>
<stop offset="0.368551" stop-color="#72A7FF"/>
<stop offset="1" stop-color="#EC02D5"/>
</linearGradient>
<linearGradient id="paint2_linear_476_2424" x1="10.0098" y1="46.2938" x2="111.119" y2="63.5578" gradientUnits="userSpaceOnUse">
<stop offset="0.0696236" stop-color="#77FE9E"/>
<stop offset="0.368551" stop-color="#72A7FF"/>
<stop offset="1" stop-color="#EC02D5"/>
</linearGradient>
<linearGradient id="paint3_linear_476_2424" x1="10.0112" y1="46.2918" x2="111.121" y2="63.5558" gradientUnits="userSpaceOnUse">
<stop offset="0.0696236" stop-color="#77FE9E"/>
<stop offset="0.368551" stop-color="#72A7FF"/>
<stop offset="1" stop-color="#EC02D5"/>
</linearGradient>
<linearGradient id="paint4_linear_476_2424" x1="10.0098" y1="46.2899" x2="111.119" y2="63.5539" gradientUnits="userSpaceOnUse">
<stop offset="0.0696236" stop-color="#77FE9E"/>
<stop offset="0.368551" stop-color="#72A7FF"/>
<stop offset="1" stop-color="#EC02D5"/>
</linearGradient>
<linearGradient id="paint5_linear_476_2424" x1="10.0112" y1="46.2899" x2="111.121" y2="63.5539" gradientUnits="userSpaceOnUse">
<stop offset="0.0696236" stop-color="#77FE9E"/>
<stop offset="0.368551" stop-color="#72A7FF"/>
<stop offset="1" stop-color="#EC02D5"/>
</linearGradient>
<linearGradient id="paint6_linear_476_2424" x1="10.0107" y1="46.2918" x2="111.12" y2="63.5558" gradientUnits="userSpaceOnUse">
<stop offset="0.0696236" stop-color="#77FE9E"/>
<stop offset="0.368551" stop-color="#72A7FF"/>
<stop offset="1" stop-color="#EC02D5"/>
</linearGradient>
<linearGradient id="paint7_linear_476_2424" x1="10.0098" y1="46.2918" x2="111.119" y2="63.5558" gradientUnits="userSpaceOnUse">
<stop offset="0.0696236" stop-color="#77FE9E"/>
<stop offset="0.368551" stop-color="#72A7FF"/>
<stop offset="1" stop-color="#EC02D5"/>
</linearGradient>
<linearGradient id="paint8_linear_476_2424" x1="10.0103" y1="46.2938" x2="111.12" y2="63.5578" gradientUnits="userSpaceOnUse">
<stop offset="0.0696236" stop-color="#77FE9E"/>
<stop offset="0.368551" stop-color="#72A7FF"/>
<stop offset="1" stop-color="#EC02D5"/>
</linearGradient>
<linearGradient id="paint9_linear_476_2424" x1="10.0103" y1="46.2918" x2="111.12" y2="63.5558" gradientUnits="userSpaceOnUse">
<stop offset="0.0696236" stop-color="#77FE9E"/>
<stop offset="0.368551" stop-color="#72A7FF"/>
<stop offset="1" stop-color="#EC02D5"/>
</linearGradient>
<linearGradient id="paint10_linear_476_2424" x1="10.0122" y1="46.2918" x2="111.122" y2="63.5558" gradientUnits="userSpaceOnUse">
<stop offset="0.0696236" stop-color="#77FE9E"/>
<stop offset="0.368551" stop-color="#72A7FF"/>
<stop offset="1" stop-color="#EC02D5"/>
</linearGradient>
<linearGradient id="paint11_linear_476_2424" x1="10.0107" y1="46.2918" x2="111.12" y2="63.5558" gradientUnits="userSpaceOnUse">
<stop offset="0.0696236" stop-color="#77FE9E"/>
<stop offset="0.368551" stop-color="#72A7FF"/>
<stop offset="1" stop-color="#EC02D5"/>
</linearGradient>
<linearGradient id="paint12_linear_476_2424" x1="10.0122" y1="46.2899" x2="111.122" y2="63.5539" gradientUnits="userSpaceOnUse">
<stop offset="0.0696236" stop-color="#77FE9E"/>
<stop offset="0.368551" stop-color="#72A7FF"/>
<stop offset="1" stop-color="#EC02D5"/>
</linearGradient>
<linearGradient id="paint13_linear_476_2424" x1="10.0107" y1="46.2938" x2="111.12" y2="63.5578" gradientUnits="userSpaceOnUse">
<stop offset="0.0696236" stop-color="#77FE9E"/>
<stop offset="0.368551" stop-color="#72A7FF"/>
<stop offset="1" stop-color="#EC02D5"/>
</linearGradient>
<linearGradient id="paint14_linear_476_2424" x1="10.0107" y1="46.2918" x2="111.12" y2="63.5558" gradientUnits="userSpaceOnUse">
<stop offset="0.0696236" stop-color="#77FE9E"/>
<stop offset="0.368551" stop-color="#72A7FF"/>
<stop offset="1" stop-color="#EC02D5"/>
</linearGradient>
<linearGradient id="paint15_linear_476_2424" x1="10.0103" y1="46.2918" x2="111.12" y2="63.5558" gradientUnits="userSpaceOnUse">
<stop offset="0.0696236" stop-color="#77FE9E"/>
<stop offset="0.368551" stop-color="#72A7FF"/>
<stop offset="1" stop-color="#EC02D5"/>
</linearGradient>
<linearGradient id="paint16_linear_476_2424" x1="10.0112" y1="46.2899" x2="111.121" y2="63.5539" gradientUnits="userSpaceOnUse">
<stop offset="0.0696236" stop-color="#77FE9E"/>
<stop offset="0.368551" stop-color="#72A7FF"/>
<stop offset="1" stop-color="#EC02D5"/>
</linearGradient>
<linearGradient id="paint17_linear_476_2424" x1="10.0103" y1="46.2938" x2="111.12" y2="63.5578" gradientUnits="userSpaceOnUse">
<stop offset="0.0696236" stop-color="#77FE9E"/>
<stop offset="0.368551" stop-color="#72A7FF"/>
<stop offset="1" stop-color="#EC02D5"/>
</linearGradient>
<linearGradient id="paint18_linear_476_2424" x1="10.0122" y1="46.2938" x2="111.122" y2="63.5578" gradientUnits="userSpaceOnUse">
<stop offset="0.0696236" stop-color="#77FE9E"/>
<stop offset="0.368551" stop-color="#72A7FF"/>
<stop offset="1" stop-color="#EC02D5"/>
</linearGradient>
<linearGradient id="paint19_linear_476_2424" x1="10.0103" y1="46.2938" x2="111.12" y2="63.5578" gradientUnits="userSpaceOnUse">
<stop offset="0.0696236" stop-color="#77FE9E"/>
<stop offset="0.368551" stop-color="#72A7FF"/>
<stop offset="1" stop-color="#EC02D5"/>
</linearGradient>
<linearGradient id="paint20_linear_476_2424" x1="10.0112" y1="46.2938" x2="111.121" y2="63.5578" gradientUnits="userSpaceOnUse">
<stop offset="0.0696236" stop-color="#77FE9E"/>
<stop offset="0.368551" stop-color="#72A7FF"/>
<stop offset="1" stop-color="#EC02D5"/>
</linearGradient>
<linearGradient id="paint21_linear_476_2424" x1="10.0103" y1="46.2918" x2="111.12" y2="63.5558" gradientUnits="userSpaceOnUse">
<stop offset="0.0696236" stop-color="#77FE9E"/>
<stop offset="0.368551" stop-color="#72A7FF"/>
<stop offset="1" stop-color="#EC02D5"/>
</linearGradient>
<linearGradient id="paint22_linear_476_2424" x1="10.0103" y1="46.2938" x2="111.12" y2="63.5578" gradientUnits="userSpaceOnUse">
<stop offset="0.0696236" stop-color="#77FE9E"/>
<stop offset="0.368551" stop-color="#72A7FF"/>
<stop offset="1" stop-color="#EC02D5"/>
</linearGradient>
<linearGradient id="paint23_linear_476_2424" x1="10.0112" y1="46.2918" x2="111.121" y2="63.5558" gradientUnits="userSpaceOnUse">
<stop offset="0.0696236" stop-color="#77FE9E"/>
<stop offset="0.368551" stop-color="#72A7FF"/>
<stop offset="1" stop-color="#EC02D5"/>
</linearGradient>
</defs>
</svg>
