<svg width="80" height="80" viewBox="0 0 80 80" fill="none" xmlns="http://www.w3.org/2000/svg">
<circle cx="40" cy="40" r="40" fill="#110F1C"/>
<mask id="mask0_476_3426" style="mask-type:alpha" maskUnits="userSpaceOnUse" x="44" y="17" width="10" height="12">
<path d="M44.043 17.2031V28.1245L53.5211 22.6719L44.043 17.2031Z" fill="white"/>
</mask>
<g mask="url(#mask0_476_3426)">
<rect x="14.269" y="14.6562" width="51.6489" height="50.877" fill="url(#paint0_linear_476_3426)"/>
</g>
<mask id="mask1_476_3426" style="mask-type:alpha" maskUnits="userSpaceOnUse" x="53" y="22" width="10" height="12">
<path opacity="0.9" d="M53.5215 22.668V33.5894L62.9996 28.1214L53.5215 22.668Z" fill="white"/>
</mask>
<g mask="url(#mask1_476_3426)">
<rect x="14.2695" y="14.6562" width="51.6489" height="50.877" fill="url(#paint1_linear_476_3426)"/>
</g>
<mask id="mask2_476_3426" style="mask-type:alpha" maskUnits="userSpaceOnUse" x="44" y="28" width="10" height="12">
<path opacity="0.8" d="M44.0425 28.125V39.0456L53.5206 33.593L44.0425 28.125Z" fill="white"/>
</mask>
<g mask="url(#mask2_476_3426)">
<rect x="14.269" y="14.6582" width="51.6489" height="50.877" fill="url(#paint2_linear_476_3426)"/>
</g>
<mask id="mask3_476_3426" style="mask-type:alpha" maskUnits="userSpaceOnUse" x="53" y="33" width="10" height="12">
<path opacity="0.8" d="M53.5215 33.5879V44.5085L62.9996 39.0405L53.5215 33.5879Z" fill="white"/>
</mask>
<g mask="url(#mask3_476_3426)">
<rect x="14.2695" y="14.6562" width="51.6489" height="50.877" fill="url(#paint3_linear_476_3426)"/>
</g>
<mask id="mask4_476_3426" style="mask-type:alpha" maskUnits="userSpaceOnUse" x="44" y="39" width="10" height="11">
<path opacity="0.8" d="M44.0425 39.0469V49.9675L53.5206 44.5149L44.0425 39.0469Z" fill="white"/>
</mask>
<g mask="url(#mask4_476_3426)">
<rect x="14.269" y="14.6562" width="51.6489" height="50.877" fill="url(#paint4_linear_476_3426)"/>
</g>
<mask id="mask5_476_3426" style="mask-type:alpha" maskUnits="userSpaceOnUse" x="53" y="44" width="10" height="12">
<path d="M53.5215 44.5078V55.4284L62.9996 49.9604L53.5215 44.5078Z" fill="white"/>
</mask>
<g mask="url(#mask5_476_3426)">
<rect x="14.2695" y="14.6543" width="51.6489" height="50.877" fill="url(#paint5_linear_476_3426)"/>
</g>
<mask id="mask6_476_3426" style="mask-type:alpha" maskUnits="userSpaceOnUse" x="19" y="27" width="11" height="12">
<path opacity="0.4" d="M19.5444 27.7539V38.6745L29.0226 33.2065L19.5444 27.7539Z" fill="white"/>
</mask>
<g mask="url(#mask6_476_3426)">
<rect x="14.2695" y="14.6562" width="51.6489" height="50.877" fill="url(#paint6_linear_476_3426)"/>
</g>
<mask id="mask7_476_3426" style="mask-type:alpha" maskUnits="userSpaceOnUse" x="31" y="31" width="10" height="12">
<path opacity="0.2" d="M31.5059 31.8125V42.7331L40.9678 37.2805L31.5059 31.8125Z" fill="white"/>
</mask>
<g mask="url(#mask7_476_3426)">
<rect x="14.2695" y="14.6543" width="51.6489" height="50.877" fill="url(#paint7_linear_476_3426)"/>
</g>
<mask id="mask8_476_3426" style="mask-type:alpha" maskUnits="userSpaceOnUse" x="24" y="38" width="10" height="12">
<path opacity="0.3" d="M24.4766 38.7227V49.6433L33.9547 44.1752L24.4766 38.7227Z" fill="white"/>
</mask>
<g mask="url(#mask8_476_3426)">
<rect x="14.2695" y="14.6562" width="51.6489" height="50.877" fill="url(#paint8_linear_476_3426)"/>
</g>
<mask id="mask9_476_3426" style="mask-type:alpha" maskUnits="userSpaceOnUse" x="30" y="46" width="11" height="12">
<path opacity="0.9" d="M30.7236 46.9648V57.8854L40.1856 52.4174L30.7236 46.9648Z" fill="white"/>
</mask>
<g mask="url(#mask9_476_3426)">
<rect x="14.2695" y="14.6562" width="51.6489" height="50.877" fill="url(#paint9_linear_476_3426)"/>
</g>
<mask id="mask10_476_3426" style="mask-type:alpha" maskUnits="userSpaceOnUse" x="43" y="51" width="11" height="12">
<path opacity="0.7" d="M43.9683 51.6641V62.583L53.4302 57.115L43.9683 51.6641Z" fill="white"/>
</mask>
<g mask="url(#mask10_476_3426)">
<rect x="14.2705" y="14.6582" width="51.6489" height="50.877" fill="url(#paint10_linear_476_3426)"/>
</g>
<mask id="mask11_476_3426" style="mask-type:alpha" maskUnits="userSpaceOnUse" x="33" y="26" width="10" height="12">
<path opacity="0.9" d="M33.082 26.4219V37.3425L42.5439 31.8899L33.082 26.4219Z" fill="white"/>
</mask>
<g mask="url(#mask11_476_3426)">
<rect x="14.2705" y="14.6562" width="51.6489" height="50.877" fill="url(#paint11_linear_476_3426)"/>
</g>
<mask id="mask12_476_3426" style="mask-type:alpha" maskUnits="userSpaceOnUse" x="34" y="17" width="11" height="12">
<path opacity="0.8" d="M44.045 17.2031V28.1245L34.5669 22.6719L44.045 17.2031Z" fill="white"/>
</mask>
<g mask="url(#mask12_476_3426)">
<rect x="14.2705" y="14.6562" width="51.6489" height="50.877" fill="url(#paint12_linear_476_3426)"/>
</g>
<mask id="mask13_476_3426" style="mask-type:alpha" maskUnits="userSpaceOnUse" x="23" y="21" width="11" height="12">
<path opacity="0.6" d="M33.0831 21.8438V32.7619L23.605 27.2963L33.0831 21.8438Z" fill="white"/>
</mask>
<g mask="url(#mask13_476_3426)">
<rect x="14.2695" y="14.6562" width="51.6489" height="50.877" fill="url(#paint13_linear_476_3426)"/>
</g>
<mask id="mask14_476_3426" style="mask-type:alpha" maskUnits="userSpaceOnUse" x="33" y="27" width="10" height="12">
<path opacity="0.6" d="M42.5582 27.248V38.1686L33.0801 32.7006L42.5582 27.248Z" fill="white"/>
</mask>
<g mask="url(#mask14_476_3426)">
<rect x="14.2695" y="14.6562" width="51.6489" height="50.877" fill="url(#paint14_linear_476_3426)"/>
</g>
<mask id="mask15_476_3426" style="mask-type:alpha" maskUnits="userSpaceOnUse" x="21" y="31" width="11" height="12">
<path opacity="0.95" d="M31.4605 31.8125V42.7331L21.9824 37.2805L31.4605 31.8125Z" fill="white"/>
</mask>
<g mask="url(#mask15_476_3426)">
<rect x="14.2695" y="14.6543" width="51.6489" height="50.877" fill="url(#paint15_linear_476_3426)"/>
</g>
<mask id="mask16_476_3426" style="mask-type:alpha" maskUnits="userSpaceOnUse" x="34" y="39" width="11" height="11">
<path opacity="0.6" d="M44.0439 39.0469V49.9675L34.582 44.5149L44.0439 39.0469Z" fill="white"/>
</mask>
<g mask="url(#mask16_476_3426)">
<rect x="14.2705" y="14.6562" width="51.6489" height="50.877" fill="url(#paint16_linear_476_3426)"/>
</g>
<mask id="mask17_476_3426" style="mask-type:alpha" maskUnits="userSpaceOnUse" x="15" y="41" width="10" height="12">
<path opacity="0.55" d="M24.4773 41.5859V52.5065L15 47.0377L24.4773 41.5859Z" fill="white"/>
</mask>
<g mask="url(#mask17_476_3426)">
<rect x="14.2695" y="14.6562" width="51.6489" height="50.877" fill="url(#paint17_linear_476_3426)"/>
</g>
<mask id="mask18_476_3426" style="mask-type:alpha" maskUnits="userSpaceOnUse" x="53" y="28" width="10" height="12">
<path d="M62.9996 28.125V39.0456L53.5215 33.593L62.9996 28.125Z" fill="white"/>
</mask>
<g mask="url(#mask18_476_3426)">
<rect x="14.271" y="14.6582" width="51.6489" height="50.877" fill="url(#paint18_linear_476_3426)"/>
</g>
<mask id="mask19_476_3426" style="mask-type:alpha" maskUnits="userSpaceOnUse" x="44" y="33" width="10" height="12">
<path opacity="0.95" d="M53.5206 33.5898V44.5104L44.0425 39.0424L53.5206 33.5898Z" fill="white"/>
</mask>
<g mask="url(#mask19_476_3426)">
<rect x="14.2695" y="14.6562" width="51.6489" height="50.877" fill="url(#paint19_linear_476_3426)"/>
</g>
<mask id="mask20_476_3426" style="mask-type:alpha" maskUnits="userSpaceOnUse" x="53" y="39" width="10" height="11">
<path opacity="0.9" d="M62.9981 39.0469V49.9675L53.52 44.5149L62.9981 39.0469Z" fill="white"/>
</mask>
<g mask="url(#mask20_476_3426)">
<rect x="14.2695" y="14.6602" width="51.6489" height="50.877" fill="url(#paint20_linear_476_3426)"/>
</g>
<mask id="mask21_476_3426" style="mask-type:alpha" maskUnits="userSpaceOnUse" x="44" y="44" width="10" height="12">
<path opacity="0.7" d="M53.5206 44.5117V55.4323L44.0425 49.9643L53.5206 44.5117Z" fill="white"/>
</mask>
<g mask="url(#mask21_476_3426)">
<rect x="14.2695" y="14.6582" width="51.6489" height="50.877" fill="url(#paint21_linear_476_3426)"/>
</g>
<mask id="mask22_476_3426" style="mask-type:alpha" maskUnits="userSpaceOnUse" x="32" y="49" width="10" height="11">
<path opacity="0.4" d="M41.9464 49.0625V59.9831L32.4683 54.5305L41.9464 49.0625Z" fill="white"/>
</mask>
<g mask="url(#mask22_476_3426)">
<rect x="14.269" y="14.6582" width="51.6489" height="50.877" fill="url(#paint22_linear_476_3426)"/>
</g>
<mask id="mask23_476_3426" style="mask-type:alpha" maskUnits="userSpaceOnUse" x="44" y="22" width="10" height="12">
<path d="M53.5206 22.668V33.5894L44.0425 28.1214L53.5206 22.668Z" fill="white"/>
</mask>
<g mask="url(#mask23_476_3426)">
<rect x="14.2695" y="14.6543" width="51.6489" height="50.877" fill="url(#paint23_linear_476_3426)"/>
</g>
<defs>
<linearGradient id="paint0_linear_476_3426" x1="21.0059" y1="43.7767" x2="81.6716" y2="54.1351" gradientUnits="userSpaceOnUse">
<stop offset="0.0696236" stop-color="#77FE9E"/>
<stop offset="0.368551" stop-color="#72A7FF"/>
<stop offset="1" stop-color="#EC02D5"/>
</linearGradient>
<linearGradient id="paint1_linear_476_3426" x1="21.0063" y1="43.7767" x2="81.6721" y2="54.1351" gradientUnits="userSpaceOnUse">
<stop offset="0.0696236" stop-color="#77FE9E"/>
<stop offset="0.368551" stop-color="#72A7FF"/>
<stop offset="1" stop-color="#EC02D5"/>
</linearGradient>
<linearGradient id="paint2_linear_476_3426" x1="21.0059" y1="43.7786" x2="81.6716" y2="54.137" gradientUnits="userSpaceOnUse">
<stop offset="0.0696236" stop-color="#77FE9E"/>
<stop offset="0.368551" stop-color="#72A7FF"/>
<stop offset="1" stop-color="#EC02D5"/>
</linearGradient>
<linearGradient id="paint3_linear_476_3426" x1="21.0063" y1="43.7767" x2="81.6721" y2="54.1351" gradientUnits="userSpaceOnUse">
<stop offset="0.0696236" stop-color="#77FE9E"/>
<stop offset="0.368551" stop-color="#72A7FF"/>
<stop offset="1" stop-color="#EC02D5"/>
</linearGradient>
<linearGradient id="paint4_linear_476_3426" x1="21.0059" y1="43.7767" x2="81.6716" y2="54.1351" gradientUnits="userSpaceOnUse">
<stop offset="0.0696236" stop-color="#77FE9E"/>
<stop offset="0.368551" stop-color="#72A7FF"/>
<stop offset="1" stop-color="#EC02D5"/>
</linearGradient>
<linearGradient id="paint5_linear_476_3426" x1="21.0063" y1="43.7747" x2="81.6721" y2="54.1331" gradientUnits="userSpaceOnUse">
<stop offset="0.0696236" stop-color="#77FE9E"/>
<stop offset="0.368551" stop-color="#72A7FF"/>
<stop offset="1" stop-color="#EC02D5"/>
</linearGradient>
<linearGradient id="paint6_linear_476_3426" x1="21.0063" y1="43.7767" x2="81.6721" y2="54.1351" gradientUnits="userSpaceOnUse">
<stop offset="0.0696236" stop-color="#77FE9E"/>
<stop offset="0.368551" stop-color="#72A7FF"/>
<stop offset="1" stop-color="#EC02D5"/>
</linearGradient>
<linearGradient id="paint7_linear_476_3426" x1="21.0063" y1="43.7747" x2="81.6721" y2="54.1331" gradientUnits="userSpaceOnUse">
<stop offset="0.0696236" stop-color="#77FE9E"/>
<stop offset="0.368551" stop-color="#72A7FF"/>
<stop offset="1" stop-color="#EC02D5"/>
</linearGradient>
<linearGradient id="paint8_linear_476_3426" x1="21.0063" y1="43.7767" x2="81.6721" y2="54.1351" gradientUnits="userSpaceOnUse">
<stop offset="0.0696236" stop-color="#77FE9E"/>
<stop offset="0.368551" stop-color="#72A7FF"/>
<stop offset="1" stop-color="#EC02D5"/>
</linearGradient>
<linearGradient id="paint9_linear_476_3426" x1="21.0063" y1="43.7767" x2="81.6721" y2="54.1351" gradientUnits="userSpaceOnUse">
<stop offset="0.0696236" stop-color="#77FE9E"/>
<stop offset="0.368551" stop-color="#72A7FF"/>
<stop offset="1" stop-color="#EC02D5"/>
</linearGradient>
<linearGradient id="paint10_linear_476_3426" x1="21.0073" y1="43.7786" x2="81.6731" y2="54.137" gradientUnits="userSpaceOnUse">
<stop offset="0.0696236" stop-color="#77FE9E"/>
<stop offset="0.368551" stop-color="#72A7FF"/>
<stop offset="1" stop-color="#EC02D5"/>
</linearGradient>
<linearGradient id="paint11_linear_476_3426" x1="21.0073" y1="43.7767" x2="81.6731" y2="54.1351" gradientUnits="userSpaceOnUse">
<stop offset="0.0696236" stop-color="#77FE9E"/>
<stop offset="0.368551" stop-color="#72A7FF"/>
<stop offset="1" stop-color="#EC02D5"/>
</linearGradient>
<linearGradient id="paint12_linear_476_3426" x1="21.0073" y1="43.7767" x2="81.6731" y2="54.1351" gradientUnits="userSpaceOnUse">
<stop offset="0.0696236" stop-color="#77FE9E"/>
<stop offset="0.368551" stop-color="#72A7FF"/>
<stop offset="1" stop-color="#EC02D5"/>
</linearGradient>
<linearGradient id="paint13_linear_476_3426" x1="21.0063" y1="43.7767" x2="81.6721" y2="54.1351" gradientUnits="userSpaceOnUse">
<stop offset="0.0696236" stop-color="#77FE9E"/>
<stop offset="0.368551" stop-color="#72A7FF"/>
<stop offset="1" stop-color="#EC02D5"/>
</linearGradient>
<linearGradient id="paint14_linear_476_3426" x1="21.0063" y1="43.7767" x2="81.6721" y2="54.1351" gradientUnits="userSpaceOnUse">
<stop offset="0.0696236" stop-color="#77FE9E"/>
<stop offset="0.368551" stop-color="#72A7FF"/>
<stop offset="1" stop-color="#EC02D5"/>
</linearGradient>
<linearGradient id="paint15_linear_476_3426" x1="21.0063" y1="43.7747" x2="81.6721" y2="54.1331" gradientUnits="userSpaceOnUse">
<stop offset="0.0696236" stop-color="#77FE9E"/>
<stop offset="0.368551" stop-color="#72A7FF"/>
<stop offset="1" stop-color="#EC02D5"/>
</linearGradient>
<linearGradient id="paint16_linear_476_3426" x1="21.0073" y1="43.7767" x2="81.6731" y2="54.1351" gradientUnits="userSpaceOnUse">
<stop offset="0.0696236" stop-color="#77FE9E"/>
<stop offset="0.368551" stop-color="#72A7FF"/>
<stop offset="1" stop-color="#EC02D5"/>
</linearGradient>
<linearGradient id="paint17_linear_476_3426" x1="21.0063" y1="43.7767" x2="81.6721" y2="54.1351" gradientUnits="userSpaceOnUse">
<stop offset="0.0696236" stop-color="#77FE9E"/>
<stop offset="0.368551" stop-color="#72A7FF"/>
<stop offset="1" stop-color="#EC02D5"/>
</linearGradient>
<linearGradient id="paint18_linear_476_3426" x1="21.0078" y1="43.7786" x2="81.6736" y2="54.137" gradientUnits="userSpaceOnUse">
<stop offset="0.0696236" stop-color="#77FE9E"/>
<stop offset="0.368551" stop-color="#72A7FF"/>
<stop offset="1" stop-color="#EC02D5"/>
</linearGradient>
<linearGradient id="paint19_linear_476_3426" x1="21.0063" y1="43.7767" x2="81.6721" y2="54.1351" gradientUnits="userSpaceOnUse">
<stop offset="0.0696236" stop-color="#77FE9E"/>
<stop offset="0.368551" stop-color="#72A7FF"/>
<stop offset="1" stop-color="#EC02D5"/>
</linearGradient>
<linearGradient id="paint20_linear_476_3426" x1="21.0063" y1="43.7806" x2="81.6721" y2="54.139" gradientUnits="userSpaceOnUse">
<stop offset="0.0696236" stop-color="#77FE9E"/>
<stop offset="0.368551" stop-color="#72A7FF"/>
<stop offset="1" stop-color="#EC02D5"/>
</linearGradient>
<linearGradient id="paint21_linear_476_3426" x1="21.0063" y1="43.7786" x2="81.6721" y2="54.137" gradientUnits="userSpaceOnUse">
<stop offset="0.0696236" stop-color="#77FE9E"/>
<stop offset="0.368551" stop-color="#72A7FF"/>
<stop offset="1" stop-color="#EC02D5"/>
</linearGradient>
<linearGradient id="paint22_linear_476_3426" x1="21.0059" y1="43.7786" x2="81.6716" y2="54.137" gradientUnits="userSpaceOnUse">
<stop offset="0.0696236" stop-color="#77FE9E"/>
<stop offset="0.368551" stop-color="#72A7FF"/>
<stop offset="1" stop-color="#EC02D5"/>
</linearGradient>
<linearGradient id="paint23_linear_476_3426" x1="21.0063" y1="43.7747" x2="81.6721" y2="54.1331" gradientUnits="userSpaceOnUse">
<stop offset="0.0696236" stop-color="#77FE9E"/>
<stop offset="0.368551" stop-color="#72A7FF"/>
<stop offset="1" stop-color="#EC02D5"/>
</linearGradient>
</defs>
</svg>
