<?xml version="1.0" encoding="utf-8"?>
<!-- Generator: Adobe Illustrator 24.0.0, SVG Export Plug-In . SVG Version: 6.00 Build 0)  -->
<svg version="1.1" id="CIRCLE_OUTLINE_BLACK" xmlns="http://www.w3.org/2000/svg" xmlns:xlink="http://www.w3.org/1999/xlink"
	 x="0px" y="0px" viewBox="0 0 512 512" style="enable-background:new 0 0 512 512;" xml:space="preserve">
<style type="text/css">
	.st0{fill:#040404;}
	.st1{fill:#BFF007;}
</style>
<circle class="st0" cx="256" cy="256" r="256"/>
<path class="st1" d="M258.7,180.3c0-12,9.8-21.7,21.8-21.7h39.1v-52.9h-39.1c-41.4,0-75,33.4-75,74.6c0,10.7,2.3,21,6.4,30.2
	c-32.2,13.5-53.5,42.3-58.5,78.7c-5.8,39.9,10.3,83,45.3,103.9c31.3,19.6,80.1,18.3,106.5-8.9v18h54.4V202h-79.1
	C268.5,202,258.7,192.3,258.7,180.3 M306.5,254.9v50.2c-0.1,27.8-22.7,50.3-50.5,50.2c-27.8,0.1-50.4-22.4-50.5-50.2
	c0.1-27.8,22.7-50.3,50.5-50.2H306.5z"/>
</svg>
