<?xml version="1.0" encoding="UTF-8"?>
<svg version="1.1" xmlns="http://www.w3.org/2000/svg" width="1432" height="1582">
<path d="M0 0 C1.07506349 0.004369 1.07506349 0.004369 2.17184544 0.00882626 C2.92632465 0.00797024 3.68080387 0.00711422 4.4581461 0.00623226 C7.01352843 0.00456707 9.56884633 0.01011682 12.12422276 0.01555538 C13.97662161 0.01586147 15.82902057 0.01572864 17.68141937 0.01519012 C22.6600723 0.01496356 27.63870139 0.0207762 32.61734867 0.02780056 C37.28227918 0.03347864 41.94720377 0.03376276 46.61213779 0.03447628 C60.27168687 0.03973197 73.93123148 0.05369301 87.59077549 0.06658077 C118.09515049 0.08720577 148.59952549 0.10783077 180.02827549 0.12908077 C180.35827549 106.71908077 180.68827549 213.30908077 181.02827549 323.12908077 C184.98827549 315.86908077 188.94827549 308.60908077 193.02827549 301.12908077 C195.34008151 297.11184409 197.65907856 293.11097364 200.02827549 289.12908077 C204.50379248 281.53456411 208.84636747 273.8890919 213.02827549 266.12908077 C217.76845953 257.33312428 222.7486393 248.70016583 227.81733799 240.09001827 C231.68193211 233.50148116 235.40476456 226.85292191 239.02827549 220.12908077 C243.76845953 211.33312428 248.7486393 202.70016583 253.81733799 194.09001827 C257.68193211 187.50148116 261.40476456 180.85292191 265.02827549 174.12908077 C269.76845953 165.33312428 274.7486393 156.70016583 279.81733799 148.09001827 C283.68193211 141.50148116 287.40476456 134.85292191 291.02827549 128.12908077 C295.21025916 120.36892926 299.55632873 112.72577438 304.02827549 105.12908077 C309.06461847 96.5714315 313.91430153 87.93629899 318.63423252 79.20061398 C322.44979712 72.15099454 326.39300679 65.18292943 330.38813877 58.2338171 C334.317497 51.39276243 338.18214549 44.51723139 342.02827549 37.62908077 C346.56642365 29.51102633 351.11796197 21.40102231 355.71577549 13.31658077 C356.2088419 12.44517452 356.7019083 11.57376827 357.20991611 10.67595577 C357.6694669 9.87029171 358.12901768 9.06462765 358.60249424 8.23454952 C359.00041172 7.53483028 359.3983292 6.83511105 359.80830479 6.11418819 C360.41219028 5.13156002 360.41219028 5.13156002 361.02827549 4.12908077 C361.39614076 3.43805893 361.76400602 2.74703709 362.14301872 2.03507519 C364.45915227 -0.30653561 366.0376061 -0.34781616 369.25754565 -0.38724446 C369.96863256 -0.3755931 370.67971947 -0.36394173 371.41235447 -0.35193729 C372.17037493 -0.35535499 372.92839539 -0.35877269 373.70938617 -0.36229396 C376.25706302 -0.3688985 378.80369328 -0.34685534 381.35127354 -0.32502079 C383.17435271 -0.32389286 384.9974337 -0.3245251 386.82051182 -0.32679081 C391.776946 -0.32794103 396.73299495 -0.30438196 401.6893394 -0.27649498 C406.86632933 -0.25153255 412.04332756 -0.2491434 417.22036839 -0.24439335 C427.02703523 -0.23194839 436.83352425 -0.1991062 446.6401127 -0.15899539 C457.80318542 -0.11432497 468.96626652 -0.09230254 480.12940633 -0.07221365 C503.09579474 -0.03037491 526.06202516 0.04000669 549.02827549 0.12908077 C548.37638236 4.94078167 547.48139369 9.41812144 546.09248447 14.07390499 C545.89625996 14.73669209 545.70003544 15.39947918 545.49786472 16.08235073 C544.84470401 18.28424245 544.18453486 20.48396756 543.52436924 22.68376827 C543.05355384 24.2659628 542.58319304 25.84829267 542.11325169 27.43074703 C541.10170515 30.83357504 540.08707851 34.23546349 539.07002354 37.63664913 C537.44118946 43.08384544 535.81916673 48.53305536 534.19819736 53.9825964 C532.21981315 60.63220952 530.23988122 67.28135775 528.25791454 73.92990398 C524.80717043 85.50609121 521.36841191 97.08578778 517.93843174 108.66814327 C517.57119905 109.90818678 517.57119905 109.90818678 517.19654751 111.17328167 C515.96587867 115.32916628 514.73544237 119.48511969 513.50511265 123.6411047 C511.26464696 131.20885506 509.02209096 138.7759861 506.77972317 146.34317303 C505.5291579 150.5634511 504.2787232 154.78376786 503.02827549 159.00408077 C502.52827612 160.69158096 502.02827612 162.37908096 501.52827549 164.06658077 C501.28077549 164.90189327 501.03327549 165.73720577 500.77827549 166.59783077 C475.62471104 251.4911108 475.62471104 251.4911108 450.47114658 336.38439083 C450.21219388 337.25835664 449.95324118 338.13232244 449.68644142 339.03277206 C449.16150125 340.80444428 448.63656012 342.57611621 448.11161804 344.34778786 C446.80029126 348.77350049 445.48898082 353.19921797 444.17770481 357.62494564 C441.87269749 365.40458892 439.56759294 373.1842033 437.26183128 380.96362305 C436.03676674 385.09687775 434.81179286 389.23015931 433.58686924 393.36345577 C433.34972643 394.16364573 433.11258362 394.96383568 432.86825466 395.78827381 C429.77302944 406.23312098 426.68248627 416.67933929 423.59691334 427.12704182 C422.27804075 431.59201472 420.95797485 436.05663503 419.63813877 440.5213232 C418.6183911 443.9731037 417.6006439 447.42546979 416.58296299 450.87786007 C415.98280904 452.90824636 415.38255561 454.93860325 414.78218174 456.96892452 C414.51365894 457.88228573 414.24513615 458.79564693 413.9684763 459.73668575 C413.60277782 460.97107388 413.60277782 460.97107388 413.22969151 462.23039913 C413.02006275 462.94094952 412.810434 463.6514999 412.59445286 464.38358212 C412.02827549 466.12908077 412.02827549 466.12908077 411.02827549 468.12908077 C367.46827549 468.45908077 323.90827549 468.78908077 279.02827549 469.12908077 C286.28827549 472.75908077 293.54827549 476.38908077 301.02827549 480.12908077 C310.02827549 484.87908077 310.02827549 484.87908077 312.59150791 486.23869991 C319.78511424 490.04285851 327.05926646 493.68457515 334.34077549 497.31658077 C334.97464176 497.63279385 335.60850803 497.94900692 336.26158237 498.27480221 C340.84905964 500.56241763 345.43846684 502.84614741 350.02827549 505.12908077 C355.25873059 507.73066645 360.48839493 510.33382193 365.71577549 512.94158077 C366.35125309 513.25855923 366.98673069 513.57553768 367.64146519 513.90212154 C375.71960452 517.93492327 383.74589574 522.0500507 391.71528721 526.29363155 C398.86606467 530.08278732 406.09944482 533.70457965 413.34077549 537.31658077 C414.29266254 537.79144421 414.29266254 537.79144421 415.26377964 538.27590084 C419.8505244 540.56315022 424.43920003 542.84651209 429.02827549 545.12908077 C434.25873059 547.73066645 439.48839527 550.33382125 444.71577549 552.94158077 C445.35158543 553.2587254 445.98739536 553.57587002 446.64247227 553.90262508 C453.95950383 557.55546702 461.24748554 561.25296339 468.46577549 565.09783077 C476.50310541 569.37825992 484.63038509 573.47081094 492.77827549 577.53533077 C493.43484135 577.86289364 494.0914072 578.1904565 494.767869 578.52794552 C499.51991944 580.89784182 504.27389927 583.2638546 509.02827549 585.62908077 C514.44622649 588.32442479 519.86339238 591.02132777 525.27827549 593.72283077 C526.26421192 594.21465847 526.26421192 594.21465847 527.27006626 594.71642208 C535.48877196 598.81960578 543.65843693 603.00043346 551.7663126 607.31914425 C558.89966953 611.10057545 566.11646288 614.7130638 573.34077549 618.31658077 C573.9754575 618.63320171 574.6101395 618.94982265 575.2640543 619.27603817 C579.85070749 621.56324179 584.43929168 623.84655768 589.02827549 626.12908077 C633.40844203 648.20341338 633.40844203 648.20341338 643.02827549 654.12908077 C638.30692911 662.44649771 633.2568664 670.45636606 627.90327549 678.37908077 C626.29822981 680.76824543 624.69635433 683.1595289 623.09468174 685.55095577 C622.68092793 686.16817501 622.26717411 686.78539425 621.8408823 687.4213171 C617.12747462 694.45990889 612.48239703 701.5430299 607.84077549 708.62908077 C606.95895712 709.97471403 606.07712103 711.32033568 605.19526768 712.66594601 C603.84760837 714.72249297 602.50003429 716.77909556 601.15269566 718.83585262 C595.99425261 726.70970572 590.82375727 734.57563021 585.65327549 742.44158077 C584.68752466 743.91097399 583.72178575 745.38037505 582.75605869 746.8497839 C580.81591874 749.80179954 578.87572917 752.75378257 576.93550205 755.70574093 C572.61117042 762.28508656 568.28748948 768.86485979 563.96376133 775.44460201 C561.56862621 779.0894459 559.1734487 782.73426192 556.77827549 786.37908077 C555.81994195 787.83741397 554.86160862 789.29574731 553.90327549 790.75408077 C528.02827549 830.12908077 528.02827549 830.12908077 502.15327549 869.50408077 C501.67901127 870.2257896 501.20474705 870.94749844 500.71611118 871.69107723 C499.7566678 873.1510949 498.79721547 874.61110669 497.83775425 876.07111263 C495.45883169 879.69112777 493.08005887 883.31124112 490.70161533 886.93157101 C486.1875481 893.80226904 481.67182615 900.67186569 477.15126133 907.53829098 C475.00253702 910.80224104 472.85460735 914.06671367 470.70674229 917.33122921 C469.67703072 918.89578232 468.6469246 920.46007583 467.61641026 922.0241003 C466.19282103 924.18475151 464.77056085 926.34627184 463.34858799 928.50798702 C462.71130268 929.47406635 462.71130268 929.47406635 462.06114292 930.45966244 C459.91185204 933.71625215 459.91185204 933.71625215 458.02827549 937.12908077 C457.03827549 937.12908077 456.04827549 937.12908077 455.02827549 937.12908077 C453.18843174 935.21501827 453.18843174 935.21501827 451.09077549 932.50408077 C450.29800205 931.50119015 449.50522861 930.49829952 448.68843174 929.46501827 C448.26062412 928.92328976 447.83281651 928.38156124 447.39204502 927.82341671 C445.0097029 924.86361464 442.51457472 922.00155912 440.02827549 919.12908077 C436.47278051 915.00526433 432.96032003 910.85696172 429.52827549 906.62908077 C425.14114647 901.22831905 420.61604137 895.95440377 416.07905674 890.67986202 C409.83400228 883.41877074 403.63196399 876.12354648 397.59077549 868.69158077 C393.17914494 863.27337498 388.63503907 857.97637227 384.07905674 852.67986202 C377.83400228 845.41877074 371.63196399 838.12354648 365.59077549 830.69158077 C361.17681319 825.27051121 356.63044744 819.97066103 352.07124424 814.67204952 C347.81475624 809.72349362 343.60660543 804.73429537 339.39595127 799.74675655 C338.00368132 798.09999098 336.60822076 796.4559801 335.21186924 794.81267452 C330.9608749 789.80673425 326.73263257 784.78867697 322.59077549 779.69158077 C318.17914494 774.27337498 313.63503907 768.97637227 309.07905674 763.67986202 C302.83400228 756.41877074 296.63196399 749.12354648 290.59077549 741.69158077 C286.17681319 736.27051121 281.63044744 730.97066103 277.07124424 725.67204952 C272.81475624 720.72349362 268.60660543 715.73429537 264.39595127 710.74675655 C263.00368132 709.09999098 261.60822076 707.4559801 260.21186924 705.81267452 C255.9608749 700.80673425 251.73263257 695.78867697 247.59077549 690.69158077 C243.17914494 685.27337498 238.63503907 679.97637227 234.07905674 674.67986202 C227.83400228 667.41877074 221.63196399 660.12354648 215.59077549 652.69158077 C212.1715216 648.49217626 208.68326059 644.36020625 205.15327549 640.25408077 C204.64780186 639.66610714 204.14232822 639.07813351 203.62153721 638.47234249 C202.59812592 637.28221578 201.57468841 636.09211163 200.55122471 634.90202999 C198.09847318 632.0466466 195.65387512 629.18448181 193.21577549 626.31658077 C192.38433018 625.34076046 191.55288486 624.36494015 190.69624424 623.35954952 C187.38704445 619.35265607 184.21875884 615.23113079 181.02827549 611.12908077 C180.69827549 687.02908077 180.36827549 762.92908077 180.02827549 841.12908077 C73.43827549 841.12908077 -33.15172451 841.12908077 -142.97172451 841.12908077 C-142.27819118 836.27434747 -141.55309798 832.2749784 -140.17191982 827.66814327 C-139.79846432 826.4134071 -139.42500881 825.15867092 -139.04023647 823.86591244 C-138.62684507 822.49528049 -138.21338038 821.12467065 -137.79984951 819.75408077 C-137.36566519 818.3015352 -136.93195121 816.84884896 -136.49867153 815.39603329 C-135.56763814 812.2774612 -134.63357992 809.15981766 -133.69712734 806.04286861 C-132.19810202 801.05302783 -130.70606774 796.06111412 -129.21537685 791.06877804 C-128.70473888 789.35888961 -128.19408818 787.64900499 -127.68342495 785.93912411 C-127.42882629 785.08663019 -127.17422764 784.23413628 -126.91191387 783.35580921 C-126.13075529 780.74114503 -125.34893061 778.12668088 -124.56690884 775.51227474 C-119.7559201 759.42639199 -114.98967103 743.32745666 -110.23427868 727.22506618 C-108.50225698 721.36118236 -106.76852319 715.49780429 -105.03503895 709.63435268 C-104.59415299 708.14305106 -104.15328718 706.65174347 -103.71244144 705.16042995 C-97.1988131 683.1259444 -90.668925 661.09627488 -84.1399374 639.06633663 C-83.89005912 638.22320321 -83.64018084 637.38006979 -83.38273048 636.51138687 C-83.0073513 635.24479374 -83.0073513 635.24479374 -82.62438869 633.95261288 C-82.24849071 632.68426885 -82.24849071 632.68426885 -81.86499882 631.3903017 C-81.35769966 629.67860076 -80.8503945 627.9669016 -80.34308338 626.2552042 C-76.72565087 614.04969078 -73.11007543 601.84362865 -69.4958601 589.63716221 C-50.96535485 527.05359739 -50.96535485 527.05359739 -42.15333462 497.45207882 C-41.41404866 494.96788769 -40.67536935 492.48351594 -39.9373312 489.99895382 C-38.94149294 486.64725548 -37.94331005 483.2962652 -36.94438076 479.94548702 C-36.65397915 478.96648937 -36.36357754 477.98749172 -36.06437588 476.97882748 C-35.80056118 476.09585491 -35.53674648 475.21288235 -35.2649374 474.30315304 C-35.03754375 473.53930798 -34.81015011 472.77546291 -34.57586575 471.98847103 C-33.97172451 470.12908077 -33.97172451 470.12908077 -32.97172451 468.12908077 C-69.27172451 468.12908077 -105.57172451 468.12908077 -142.97172451 468.12908077 C-142.30889017 463.48924038 -141.67085049 459.65942726 -140.37138271 455.26653194 C-140.04113598 454.14141705 -139.71088924 453.01630215 -139.37063503 451.85709286 C-139.00825237 450.64102856 -138.64586971 449.42496426 -138.27250576 448.17204952 C-137.88615566 446.86288992 -137.50022668 445.55360598 -137.1146841 444.24420834 C-136.06459844 440.68256711 -135.00834801 437.12278064 -133.95096493 433.56330013 C-132.81912971 429.7493479 -131.69297561 425.93371798 -130.56596279 422.11833858 C-127.7093419 412.45283883 -124.84146488 402.790692 -121.97172451 393.12908077 C-121.51934735 391.60574646 -121.06697502 390.08241071 -120.61460781 388.55907345 C-116.84587853 375.8689564 -113.07371256 363.17986114 -109.29680061 350.49217701 C-101.8649369 325.52635511 -94.47288464 300.54891315 -87.09672451 275.56658077 C-84.89372841 268.10560521 -82.69063324 260.6446589 -80.48734951 253.18376827 C-80.21516598 252.26206907 -79.94298244 251.34036987 -79.66255093 250.39074039 C-73.98240461 231.15694467 -68.28863657 211.92719591 -62.58983517 192.69892025 C-61.84720111 190.19318886 -61.10461677 187.68744273 -60.36204433 185.18169308 C-55.62548939 169.19879453 -50.88748358 153.21632649 -46.14764404 137.2344017 C-43.84427067 129.46773166 -41.54146111 121.70089454 -39.23890591 113.9339819 C-38.23440796 110.5456774 -37.22969511 107.15743675 -36.22480679 103.76924801 C-31.05379026 86.33314614 -25.8949738 68.89363043 -20.78046703 51.44085789 C-20.06324332 48.99348628 -19.34566967 46.54621752 -18.62800503 44.09897518 C-16.60773175 37.20885305 -14.58871861 30.31838233 -12.57787704 23.42550087 C-11.77495191 20.6753438 -10.96949151 17.92593395 -10.16338062 15.17670918 C-9.61386792 13.29930539 -9.06775545 11.42090742 -8.52172756 9.54248714 C-8.19786572 8.43926617 -7.87400387 7.33604519 -7.54032803 6.19939327 C-7.2596397 5.23791378 -6.97895138 4.27643429 -6.68975735 3.28581905 C-5.39993212 -0.58839855 -3.84494328 0.0118381 0 0 Z " fill="#F2FE00" transform="translate(465.97172451019287,321.8709192276001)"/>
<path d="M0 0 C3.465 1.485 3.465 1.485 7 3 C6.34 3.66 5.68 4.32 5 5 C3.68 5 2.36 5 1 5 C0.67 3.35 0.34 1.7 0 0 Z " fill="#EBFD12" transform="translate(815,827)"/>
</svg>
