<?xml version="1.0" encoding="utf-8"?>
<!-- Generator: Adobe Illustrator 22.0.0, SVG Export Plug-In . SVG Version: 6.00 Build 0)  -->
<svg version="1.1" id="图层_1" xmlns="http://www.w3.org/2000/svg" xmlns:xlink="http://www.w3.org/1999/xlink" x="0px" y="0px"
	 viewBox="0 0 800 500" style="enable-background:new 0 0 800 500;" xml:space="preserve">
<style type="text/css">
	.st0{fill-rule:evenodd;clip-rule:evenodd;fill:#41E6AF;}
</style>
<g>
	<path class="st0" d="M407.8,250l56.5,97.9h15.1l45.6-79h-28.9l-24.3,42L436.7,250l35.2-60.9l24.3,42.1H525l-45.6-79h-15.1
		L407.8,250L407.8,250z M395.6,257.1l56.5,97.9l-7.5,13l-91.2,0l14.4-25h48.6l-35.2-60.9l-70.4,0l24.3,42.1l-14.4,25l-45.6-79
		l7.5-13L395.6,257.1L395.6,257.1z M389.2,305.9L378.3,287l-21.8,0l-9.1,15.8c1.3-0.3,2.7-0.4,4.1-0.5c4.7-0.1,10.3,1.4,15.4,4.4
		c5.2,3,9.2,7.1,11.5,11.2c0.7,1.2,1.3,2.5,1.6,3.8L389.2,305.9L389.2,305.9z M375.4,329.8c3.1-5.4-1.7-14-10.7-19.2
		c-9-5.2-18.9-5.1-22,0.3c-3.1,5.4,1.7,14,10.7,19.2C362.4,335.3,372.3,335.2,375.4,329.8L375.4,329.8z M395.6,242.9l-113.1,0
		l-7.5-13l45.6-79l14.4,25l-24.3,42l70.4,0l35.2-60.9h-48.6l-14.4-25l91.2,0l7.5,13L395.6,242.9L395.6,242.9z M356.5,213l21.8,0
		l10.9-18.9l-9.1-15.8c-0.4,1.3-0.9,2.5-1.6,3.8c-2.3,4.1-6.3,8.2-11.5,11.2c-5.2,3-10.7,4.5-15.4,4.4c-1.4,0-2.8-0.2-4.1-0.5
		L356.5,213L356.5,213z M342.7,189.1c3.1,5.4,12.9,5.5,22,0.3c9-5.2,13.8-13.8,10.7-19.2c-3.1-5.4-12.9-5.5-22-0.3
		C344.4,175.1,339.6,183.7,342.7,189.1L342.7,189.1z M453.3,231.1h18.3c-0.9,1-1.7,2.1-2.4,3.3c-2.4,4.1-3.9,9.6-3.9,15.6
		s1.5,11.5,3.9,15.6c0.7,1.2,1.5,2.3,2.4,3.3l-18.3,0L442.4,250L453.3,231.1L453.3,231.1z M480.9,231.1c6.2,0,11.2,8.5,11.2,18.9
		c0,10.4-5,18.9-11.2,18.9c-6.2,0-11.2-8.5-11.2-18.9C469.7,239.6,474.7,231.1,480.9,231.1z"/>
</g>
</svg>
