<svg width="100" height="100" viewBox="0 0 100 100" fill="none" xmlns="http://www.w3.org/2000/svg">
<circle cx="50" cy="50" r="50" fill="white"/>
<g clip-path="url(#clip0_1668_110415)">
<mask id="mask0_1668_110415" style="mask-type:luminance" maskUnits="userSpaceOnUse" x="15" y="15" width="70" height="70">
<path d="M85 15H15V85H85V15Z" fill="white"/>
</mask>
<g mask="url(#mask0_1668_110415)">
<path d="M71.7273 40.6947C70.221 42.8669 69.457 45.4539 69.457 48.0953C69.457 48.1062 69.457 48.1171 69.457 48.1281C69.457 49.9509 69.1732 51.7082 68.6601 53.3565C66.4225 60.4842 59.7204 65.6363 51.8396 65.5381C42.4307 65.4289 34.7462 57.7444 34.637 48.3354C34.5497 40.4545 39.6908 33.7526 46.8186 31.5149C48.4667 30.991 50.2242 30.7181 52.047 30.7181C52.047 30.7181 52.0689 30.7181 52.0797 30.7181C54.1318 30.7181 56.1293 30.1287 57.8103 28.9608L64.9271 24.0052C61.0849 21.9531 56.7078 20.7852 52.047 20.7852C49.1872 20.7852 46.4256 21.2218 43.8386 22.0404C32.7487 25.5224 24.7041 35.892 24.7041 48.1281C24.7041 63.1693 37.0056 75.4709 52.047 75.4709C64.2939 75.4709 74.6526 67.4263 78.1346 56.3363C78.9533 53.7494 79.3899 50.9879 79.3899 48.1281C79.3899 43.2489 78.1128 38.6753 75.8751 34.7131L71.7165 40.6838L71.7273 40.6947Z" fill="#000E8E"/>
<path d="M58.6832 68.8999C58.4758 68.8999 58.2575 68.8999 58.0501 68.8999C53.16 68.7907 50.1692 63.9334 51.5882 59.6873C52.4832 56.9912 74.5104 25.6752 74.5104 25.6752C74.5104 25.6752 42.7795 47.1129 40.5965 47.9534C36.2413 49.6344 31.122 46.5235 31.1001 41.4588C31.1001 41.415 31.1001 41.3714 31.1001 41.3278C31.1001 28.9717 39.2102 18.5256 50.3985 15C50.2674 15 50.1364 15 49.9945 15C30.6744 15 15 30.6744 15 49.9945C15 69.3802 30.6089 84.9891 49.9945 84.9891C69.3256 84.9891 84.9891 69.3146 84.9891 49.9945C84.9891 49.8636 84.9891 49.7326 84.9891 49.5907C81.4744 60.7789 71.0175 68.889 58.6722 68.889L58.6832 68.8999Z" fill="#0029E2"/>
<path d="M73.6153 70.7447C62.056 70.7993 58.2247 80.9178 50.6385 79.2804C44.7115 78.0034 45.3883 71.465 37.2891 68.7799C31.0565 66.706 28.4695 69.8605 25.0312 67.2518C20.5341 63.8462 23.7868 57.5917 18.4711 50.3985C17.6524 49.2851 16.4408 47.8989 15.1528 46.7637C15.0546 47.8334 15 48.903 15 49.9946C15 69.3802 30.6089 84.9891 49.9945 84.9891C61.3901 84.9891 71.5195 79.5424 77.9051 71.1049C76.3987 70.8429 74.8596 70.7337 73.6044 70.7447H73.6153Z" fill="#000E8E"/>
<path d="M77.7081 21.4288L77.1951 18.7764L76.6822 21.4288C76.5184 22.2474 75.8744 22.8914 75.0558 23.0552L72.4033 23.5682L75.0558 24.0812C75.8744 24.245 76.5184 24.889 76.6822 25.7076L77.1951 28.36L77.7081 25.7076C77.8719 24.889 78.5159 24.245 79.3345 24.0812L81.987 23.5682L79.3345 23.0552C78.5159 22.8914 77.8719 22.2474 77.7081 21.4288Z" fill="#000E8E"/>
</g>
</g>
<defs>
<clipPath id="clip0_1668_110415">
<rect width="70" height="70" fill="white" transform="translate(15 15)"/>
</clipPath>
</defs>
</svg>
