<svg viewBox="0 0 197.4 48.6" xmlns="http://www.w3.org/2000/svg">
    <g fill="#1d2028">
        <path d="M34.1 0H15.5v25.1h25.1V6.5c0-3.6-2.9-6.5-6.5-6.5zM9.7 0H6.5C2.9 0 0 2.9 0 6.5v3.2h9.7zM0 15.5h9.7v9.7H0zM31 40.6h3.2c3.6 0 6.5-2.9 6.5-6.5V31H31zM15.5 31h9.7v9.7h-9.7zM0 31v3.2c0 3.6 2.9 6.5 6.5 6.5h3.2V31zM65.4 2.6h-3.8v35.5h20.1v-3.4H65.4zM93.9 12c-7.4 0-12.6 5.5-12.6 13.4v.9c.1 3.4 1.6 6.6 4.1 9 2.4 2.2 5.5 3.5 8.8 3.5h.5c3.5 0 6.8-1.3 9.4-3.5l.1-.1-1.7-2.8-.2.1c-2.1 1.9-4.7 3-7.5 3-4.6 0-9.3-3-9.6-9.7h19.2v-.2s.1-1.2.1-1.8c0-7.2-4.2-11.8-10.6-11.8zm-8.6 10.6c.8-4.5 4.1-7.4 8.4-7.4 3.2 0 6.7 1.9 7 7.4zM126.5 15v1.3c-1.6-2.7-4.6-4.4-7.7-4.4h-.3c-6.8 0-11.5 5.4-11.5 13.3 0 8 4.5 13.4 11.2 13.4 5.3 0 7.7-3.2 8.5-4.6v3.9h3.6V2.6h-3.7V15zm-7.8 20.3c-4.7 0-7.8-4-7.8-10 0-5.8 3.3-9.9 7.9-9.9 3.9 0 7.8 3.1 7.8 9.9 0 7.4-4.1 10-7.9 10zM152.2 15.5v.2c-.7-1.2-2.9-3.8-8.2-3.8-6.7 0-11.1 5.1-11.1 12.9s4.6 13.1 11.4 13.1c3.7 0 6.2-1.3 7.9-4v3.5c0 4.9-3.1 7.7-8.6 7.7-2.3 0-4.7-.6-6.8-1.7l-.2-.1-1.4 3.1.2.1c2.6 1.3 5.5 2 8.3 2 5.9 0 12.2-3 12.2-11.3V12.6h-3.7zm-7.4 19.1c-4.9 0-8.1-3.8-8.1-9.7 0-6 2.8-9.4 7.6-9.4 5.3 0 7.8 3.1 7.8 9.4.1 6.2-2.5 9.7-7.3 9.7zM171 12c-7.4 0-12.5 5.5-12.5 13.3v.9c.1 3.4 1.6 6.6 4.1 9 2.4 2.2 5.5 3.5 8.8 3.5h.5c3.5 0 6.8-1.3 9.4-3.5l.1-.1-1.8-2.8-.2.1c-2.1 1.9-4.7 3-7.5 3-4.6 0-9.3-3-9.6-9.7h19.3v-.2s.1-1.2.1-1.8c0-7.1-4.2-11.7-10.7-11.7zm-8.5 10.6c.8-4.5 4.1-7.4 8.4-7.4 3.2 0 6.7 1.9 7 7.4zM197.3 12.5c-.5-.1-.9-.1-1.4-.2-3.5 0-6.4 2.2-7.9 5.9V12.5h-3.7l.1 25.3v.2h3.8V27.3c0-1.6.2-3.3.7-4.8 1.2-3.9 3.9-6.4 7.1-6.4.4 0 .8 0 1.2.1h.2v-3.7z"/>
    </g>
</svg>
