<svg version="1.1" id="Layer_1" xmlns="http://www.w3.org/2000/svg" xmlns:xlink="http://www.w3.org/1999/xlink" x="0px" y="0px"
	 viewBox="0 0 197.4 48.6" style="enable-background:new 0 0 197.4 48.6;" xml:space="preserve">
<style type="text/css">
	.st0{fill:#1D2028;}
</style>
<title>Fichier 8</title>
<g>
	<path class="st0" d="M34.1,0H15.5v25.1h25.1V6.5C40.6,2.9,37.7,0,34.1,0z"/>
	<path class="st0" d="M9.7,0H6.5C2.9,0,0,2.9,0,6.5v3.2h9.7V0z"/>
	<rect y="15.5" class="st0" width="9.7" height="9.7"/>
	<path class="st0" d="M31,40.6h3.2c3.6,0,6.5-2.9,6.5-6.5V31H31V40.6z"/>
	<rect x="15.5" y="31" class="st0" width="9.7" height="9.7"/>
	<path class="st0" d="M0,31v3.2c0,3.6,2.9,6.5,6.5,6.5h3.2V31H0z"/>
	<g>
		<polygon class="st0" points="65.4,2.6 61.6,2.6 61.6,38.1 81.7,38.1 81.7,34.7 65.4,34.7 		"/>
		<path class="st0" d="M93.9,12c-7.4,0-12.6,5.5-12.6,13.4c0,0.3,0,0.6,0,0.9c0.1,3.4,1.6,6.6,4.1,9c2.4,2.2,5.5,3.5,8.8,3.5
			c0.2,0,0.3,0,0.5,0c3.5,0,6.8-1.3,9.4-3.5l0.1-0.1l-1.7-2.8l-0.2,0.1c-2.1,1.9-4.7,3-7.5,3c-4.6,0-9.3-3-9.6-9.7h19.2v-0.2
			c0,0,0.1-1.2,0.1-1.8C104.5,16.6,100.3,12,93.9,12z M85.3,22.6c0.8-4.5,4.1-7.4,8.4-7.4c3.2,0,6.7,1.9,7,7.4H85.3z"/>
		<path class="st0" d="M126.5,15c0,0.4,0,0.9,0,1.3c-1.6-2.7-4.6-4.4-7.7-4.4c-0.1,0-0.2,0-0.3,0c-6.8,0-11.5,5.4-11.5,13.3
			c0,8,4.5,13.4,11.2,13.4c5.3,0,7.7-3.2,8.5-4.6c0,0.4,0,0.8,0,1.1v2.8h3.6V2.6h-3.7V15H126.5z M118.7,35.3c-4.7,0-7.8-4-7.8-10
			c0-5.8,3.3-9.9,7.9-9.9c3.9,0,7.8,3.1,7.8,9.9C126.6,32.7,122.5,35.3,118.7,35.3z"/>
		<path class="st0" d="M152.2,15.5c0,0.1,0,0.2,0,0.2c-0.7-1.2-2.9-3.8-8.2-3.8c-6.7,0-11.1,5.1-11.1,12.9s4.6,13.1,11.4,13.1
			c3.7,0,6.2-1.3,7.9-4c0,0.4,0,0.8,0,1.2v2.3c0,4.9-3.1,7.7-8.6,7.7c-2.3,0-4.7-0.6-6.8-1.7l-0.2-0.1l-1.4,3.1l0.2,0.1
			c2.6,1.3,5.5,2,8.3,2c5.9,0,12.2-3,12.2-11.3V12.6h-3.7L152.2,15.5L152.2,15.5z M144.8,34.6c-4.9,0-8.1-3.8-8.1-9.7
			c0-6,2.8-9.4,7.6-9.4c5.3,0,7.8,3.1,7.8,9.4C152.2,31.1,149.6,34.6,144.8,34.6z"/>
		<path class="st0" d="M171,12c-7.4,0-12.5,5.5-12.5,13.3c0,0.3,0,0.6,0,0.9c0.1,3.4,1.6,6.6,4.1,9c2.4,2.2,5.5,3.5,8.8,3.5
			c0.2,0,0.3,0,0.5,0c3.5,0,6.8-1.3,9.4-3.5l0.1-0.1l-1.8-2.8l-0.2,0.1c-2.1,1.9-4.7,3-7.5,3c-4.6,0-9.3-3-9.6-9.7h19.3v-0.2
			c0,0,0.1-1.2,0.1-1.8C181.7,16.6,177.5,12,171,12z M162.5,22.6c0.8-4.5,4.1-7.4,8.4-7.4c3.2,0,6.7,1.9,7,7.4H162.5z"/>
		<path class="st0" d="M197.3,12.5c-0.5-0.1-0.9-0.1-1.4-0.2c-3.5,0-6.4,2.2-7.9,5.9c0-0.3,0-0.7,0-1.1v-4.6h-3.7l0.1,25.3V38h3.8
			V27.3c0-1.6,0.2-3.3,0.7-4.8c1.2-3.9,3.9-6.4,7.1-6.4c0.4,0,0.8,0,1.2,0.1h0.2v-3.7L197.3,12.5z"/>
	</g>
</g>
</svg>
