<?xml version="1.0" encoding="UTF-8"?>
<svg id="Layer_1" data-name="Layer 1" xmlns="http://www.w3.org/2000/svg" viewBox="0 0 300 300">
  <defs>
    <style>
      .cls-1 {
        fill: #28d358;
      }

      .cls-1, .cls-2 {
        stroke-width: 0px;
      }

      .cls-2 {
        fill: #fff;
      }
    </style>
  </defs>
  <circle class="cls-1" cx="150" cy="150" r="150"/>
  <path class="cls-2" d="M94.84,130.42c0,13.49,10.93,24.42,24.42,24.42s24.42-10.93,24.42-24.42-10.93-24.42-24.42-24.42-24.42,10.93-24.42,24.42Z"/>
  <path class="cls-2" d="M156.39,130.42c0,13.49,10.93,24.42,24.42,24.42s24.42-10.93,24.42-24.42-10.93-24.42-24.42-24.42-24.42,10.93-24.42,24.42Z"/>
  <path class="cls-2" d="M265.73,245.44v-83.23h-31.4c-6.35,41.98-40.98,72.56-84.33,72.56-47.9,0-86.17-37.33-86.17-86.14s38.27-86.84,86.18-86.84c41.76,0,76.18,28.91,84.34,68.65h31.4c-8.59-56.5-57.89-99.77-115.75-99.77-63.93,0-115.75,52.82-115.75,117.95s51.82,117.95,115.75,117.95c40.23,0,68.28-18.63,85.49-47.97.41.12.83.21,1.22.33v53.48c10.83-7.68,20.59-16.76,29.02-26.98Z"/>
</svg>