<svg width="10" height="9" viewBox="0 0 10 9" fill="none" xmlns="http://www.w3.org/2000/svg">
<path d="M4.12476 0.974243C3.92944 1.16956 3.94897 1.46252 4.12476 1.65784L6.48804 3.90393L0.882568 3.90393C0.609131 3.90393 0.413818 4.09924 0.413818 4.37268L0.413818 4.99768C0.413818 5.25159 0.609131 5.46643 0.882568 5.46643L6.48804 5.46643L4.14429 7.69299C3.94897 7.88831 3.94897 8.18127 4.12476 8.37659L4.55444 8.80627C4.74976 8.98206 5.04272 8.98206 5.21851 8.80627L9.0271 4.99768C9.20288 4.8219 9.20288 4.52893 9.0271 4.35315L5.21851 0.544555C5.04272 0.368774 4.74976 0.368774 4.55444 0.544555L4.12476 0.974243Z" fill="#BBC0C5"/>
</svg>
