<svg width="32" height="32" viewBox="0 0 32 32" fill="none" xmlns="http://www.w3.org/2000/svg">
<path d="M13.6614 16.3711C13.2264 16.8526 13.2273 17.6426 13.6639 18.1259L16.8352 21.6365C17.2719 22.1199 17.9846 22.1209 18.4204 21.6394C18.8553 21.158 18.8545 20.3679 18.4178 19.8846L15.2466 16.374C14.8099 15.8906 14.0971 15.8897 13.6614 16.3711Z" fill="url(#paint0_linear_8_44024)"/>
<path d="M24.4522 14.9604C24.8889 14.477 24.8897 13.687 24.4548 13.2056C24.0199 12.7241 23.3063 12.7251 22.8696 13.2085L18.4212 18.1329C17.9846 18.6162 18.0631 18.5293 17.6273 19.0117C16.6418 20.1026 15.2939 19.9326 14.8573 19.4492L16.836 21.6396C17.2709 22.1211 17.9846 22.1201 18.4212 21.6368L24.4522 14.9604Z" fill="url(#paint1_linear_8_44024)"/>
<path d="M30.8151 13.2312C30.3802 12.7498 29.6665 12.7507 29.2299 13.2341L26.0586 16.7447C25.622 17.2281 25.6211 18.0171 26.056 18.4995C26.4909 18.981 27.2046 18.98 27.6412 18.4966L30.8125 14.986C31.2491 14.5027 31.25 13.7136 30.8151 13.2312Z" fill="url(#paint2_linear_8_44024)"/>
<path d="M18.4409 14.6287C18.8759 14.1472 18.875 13.3572 18.4383 12.8738L15.2671 9.36324C14.8304 8.87988 14.1176 8.87892 13.6819 9.36038C13.2469 9.84183 13.2478 10.6318 13.6845 11.1152L16.8557 14.6258C17.2924 15.1092 18.0052 15.1101 18.4409 14.6287Z" fill="url(#paint3_linear_8_44024)"/>
<path d="M7.64771 16.0396C7.21107 16.523 7.2102 17.313 7.64512 17.7944C8.08004 18.2759 8.79369 18.2749 9.23033 17.7916L13.6787 12.8672C14.1154 12.3838 14.0369 12.4707 14.4726 11.9883C15.4581 10.8974 16.806 11.0674 17.2427 11.5508L15.2639 9.36038C14.829 8.87892 14.1154 8.87988 13.6787 9.36324L7.64771 16.0396Z" fill="url(#paint4_linear_8_44024)"/>
<path d="M1.32554 17.7802C1.76046 18.2617 2.4741 18.2607 2.91075 17.7773L6.08202 14.2667C6.51867 13.7834 6.51953 12.9934 6.08461 12.5119C5.64969 12.0305 4.93605 12.0314 4.49941 12.5148L1.32813 16.0254C0.891488 16.5088 0.890625 17.2978 1.32554 17.7802Z" fill="url(#paint5_linear_8_44024)"/>
<defs>
<linearGradient id="paint0_linear_8_44024" x1="10.6721" y1="13.1318" x2="19.7456" y2="21.2314" gradientUnits="userSpaceOnUse">
<stop offset="0.12" stop-color="#6978FF"/>
<stop offset="0.19" stop-color="#5F87FF"/>
<stop offset="0.35" stop-color="#4DA4FF"/>
<stop offset="0.51" stop-color="#40B9FF"/>
<stop offset="0.66" stop-color="#38C6FF"/>
<stop offset="0.81" stop-color="#36CBFF"/>
<stop offset="1" stop-color="#67FFFC"/>
</linearGradient>
<linearGradient id="paint1_linear_8_44024" x1="8.90393" y1="29.4403" x2="35.9095" y2="4.36235" gradientUnits="userSpaceOnUse">
<stop offset="0.39" stop-color="#6978FF"/>
<stop offset="0.44" stop-color="#6184FF"/>
<stop offset="0.65" stop-color="#49AAFF"/>
<stop offset="0.81" stop-color="#3BC2FF"/>
<stop offset="0.91" stop-color="#36CBFF"/>
<stop offset="1" stop-color="#67FFFC"/>
</linearGradient>
<linearGradient id="paint2_linear_8_44024" x1="30.2369" y1="14.0145" x2="9.41344" y2="31.4781" gradientUnits="userSpaceOnUse">
<stop offset="0.05" stop-color="#6978FF"/>
<stop offset="0.12" stop-color="#5F87FF"/>
<stop offset="0.3" stop-color="#4DA4FF"/>
<stop offset="0.48" stop-color="#40B9FF"/>
<stop offset="0.65" stop-color="#38C6FF"/>
<stop offset="0.81" stop-color="#36CBFF"/>
<stop offset="1" stop-color="#67FFFC"/>
</linearGradient>
<linearGradient id="paint3_linear_8_44024" x1="14.8235" y1="10.1676" x2="18.1266" y2="14.1462" gradientUnits="userSpaceOnUse">
<stop offset="0.12" stop-color="#6978FF"/>
<stop offset="0.19" stop-color="#5F87FF"/>
<stop offset="0.35" stop-color="#4DA4FF"/>
<stop offset="0.51" stop-color="#40B9FF"/>
<stop offset="0.66" stop-color="#38C6FF"/>
<stop offset="0.81" stop-color="#36CBFF"/>
<stop offset="1" stop-color="#67FFFC"/>
</linearGradient>
<linearGradient id="paint4_linear_8_44024" x1="3.85685" y1="24.9761" x2="16.8414" y2="11.1773" gradientUnits="userSpaceOnUse">
<stop offset="0.31" stop-color="#6978FF"/>
<stop offset="0.36" stop-color="#5F87FF"/>
<stop offset="0.48" stop-color="#4DA4FF"/>
<stop offset="0.59" stop-color="#40B9FF"/>
<stop offset="0.7" stop-color="#38C6FF"/>
<stop offset="0.81" stop-color="#36CBFF"/>
<stop offset="1" stop-color="#67FFFC"/>
</linearGradient>
<linearGradient id="paint5_linear_8_44024" x1="15.1074" y1="0.676192" x2="1.22684" y2="15.0492" gradientUnits="userSpaceOnUse">
<stop stop-color="#6978FF"/>
<stop offset="0.09" stop-color="#5F87FF"/>
<stop offset="0.28" stop-color="#4DA4FF"/>
<stop offset="0.46" stop-color="#40B9FF"/>
<stop offset="0.64" stop-color="#38C6FF"/>
<stop offset="0.81" stop-color="#36CBFF"/>
<stop offset="1" stop-color="#67FFFC"/>
</linearGradient>
</defs>
</svg>
