<?xml version="1.0" encoding="UTF-8"?>
<svg id="Layer_1" data-name="Layer 1" xmlns="http://www.w3.org/2000/svg" version="1.1" viewBox="0 0 500 500">
  <defs>
    <style>
      .cls-1 {
        fill: #4070f4;
      }

      .cls-1, .cls-2 {
        stroke-width: 0px;
      }

      .cls-2 {
        fill: #f7f9fb;
      }
    </style>
  </defs>
  <rect class="cls-1" x="-11" y="-15" width="520" height="520"/>
  <g>
    <path class="cls-2" d="M219.8,412.9l42.7-47.9c.7-.7.2-2-.9-2h-46.9c-.3,0-.7-.2-.9-.4l-39.8-44.7c-.3-.4-.4-.9-.2-1.4l66.5-114.2c.2-.4.2-.8,0-1.2l-27.7-47.6c-.5-.8-1.6-.8-2.1,0l-98.6,169.2c-.2.4-.2,1,.2,1.4l79.2,88.8c.2.2.6.4.9.4h26.8c.3,0,.7-.2.9-.4"/>
    <path class="cls-2" d="M249,87.3l-27.7,47.6c-.2.4-.2.8,0,1.2l28.7,49.4,76.2,130.9c.2.4.2,1-.2,1.4l-40.2,45.2h0l-43,48.3c-.7.7-.2,2,.9,2h64.2c.3,0,.7-.2.9-.4l79.2-88.8c.3-.4.4-1,.2-1.4L251,87.3c-.5-.8-1.6-.8-2.1,0"/>
  </g>
</svg>