<svg width="8" height="9" viewBox="0 0 8 9" fill="none" xmlns="http://www.w3.org/2000/svg">
<path d="M7.03125 3.9375H6.60938V2.67188C6.60938 1.19883 5.41055 0 3.9375 0C2.46445 0 1.26562 1.19883 1.26562 2.67188V3.9375H0.84375C0.37793 3.9375 0 4.31543 0 4.78125V8.15625C0 8.62207 0.37793 9 0.84375 9H7.03125C7.49707 9 7.875 8.62207 7.875 8.15625V4.78125C7.875 4.31543 7.49707 3.9375 7.03125 3.9375ZM5.20312 3.9375H2.67188V2.67188C2.67188 1.97402 3.23965 1.40625 3.9375 1.40625C4.63535 1.40625 5.20312 1.97402 5.20312 2.67188V3.9375Z" fill="#EAF6FF"/>
</svg>
