<svg height="128" viewBox="0 0 128 128" width="128" xmlns="http://www.w3.org/2000/svg" xmlns:xlink="http://www.w3.org/1999/xlink"><mask id="a" fill="#fff"><path d="m0 82.118h126.527v-82.118h-126.527z" fill="#fff" fill-rule="evenodd"/></mask><g fill="#1b243d" fill-rule="evenodd" transform="translate(1 23)"><path d="m6.8811 74.2729c-.191-.224-.415-.401-.67-.534-.256-.132-.525-.198-.808-.198h-5.403v8.536h.958v-7.674h4.268c.2 0 .381.052.54.157s.294.237.404.397c.109.159.193.337.253.533.059.196.088.386.088.568 0 .164-.022.337-.068.52-.045.182-.121.351-.226.506s-.234.283-.389.383-.343.151-.561.151h-1.273v.861h1.437c.283 0 .549-.066.8-.198s.472-.31.664-.533c.191-.224.341-.48.451-.767s.164-.59.164-.909c0-.357-.057-.689-.171-.999s-.267-.577-.458-.8"/><path d="m16.43 79.1157c-.183.405-.431.764-.746 1.073-.315.311-.679.557-1.094.739-.415.183-.855.274-1.32.274s-.905-.091-1.32-.274c-.416-.182-.778-.428-1.088-.739-.31-.309-.557-.668-.739-1.073-.182-.406-.273-.837-.273-1.293 0-.447.091-.878.273-1.293s.429-.777.739-1.088c.31-.309.675-.558 1.094-.745.42-.187.862-.28 1.328-.28.464 0 .904.093 1.319.28s.778.436 1.088.745c.31.311.556.673.739 1.088.182.415.273.846.273 1.293 0 .456-.091.887-.273 1.293m-.089-4.351c-.388-.387-.846-.695-1.375-.923s-1.094-.342-1.696-.342-1.168.114-1.696.342c-.53.228-.988.536-1.375.923-.388.388-.696.844-.924 1.369-.228.524-.342 1.083-.342 1.675 0 .593.114 1.152.342 1.676.228.525.536.981.924 1.368.387.388.845.696 1.375.923.528.229 1.094.342 1.696.342s1.167-.113 1.696-.342c.529-.227.987-.535 1.375-.923.387-.387.695-.843.923-1.368.228-.524.342-1.083.342-1.676 0-.592-.114-1.151-.342-1.675-.228-.525-.536-.981-.923-1.369"/><path d="m26.2249 74.2729c-.192-.224-.416-.401-.67-.534-.256-.132-.525-.198-.808-.198h-5.403v8.536h.957v-7.674h4.269c.2 0 .38.052.54.157.159.105.294.237.404.397.109.159.193.337.253.533.059.196.088.386.088.568 0 .164-.023.337-.068.52-.046.182-.121.351-.226.506s-.234.283-.39.383c-.154.1-.342.151-.56.151h-1.314l2.285 4.459h1.026l-1.82-3.598c.283 0 .55-.066.801-.198.25-.132.469-.31.657-.533.186-.224.334-.48.444-.767.109-.287.164-.59.164-.909 0-.357-.057-.689-.171-.999s-.267-.577-.458-.8"/><path d="m35.8694 73.5405h-7.456v.862h3.242v7.674h.958v-7.674h3.256z"/><path d="m35.3084 82.0766h6.115l-.589-.861h-4.021l2.968-6.075 3.448 6.936h1.067l-4.515-8.987z"/><path d="m46.7859 73.5405h-.958v8.536h6.499v-.861h-5.541z"/><path d="m66.0471 81.27-5.403-7.729h-1.601v8.536h.958v-7.743l5.499 7.743h1.505v-8.536h-.958z"/><path d="m68.9202 82.0766h6.498v-.861h-5.54v-6.813h5.54v-.862h-6.498z"/><path d="m71.218 78.479h4.091v-.861h-4.091z" mask="url(#a)"/><path d="m77.2923 74.4028h3.242v7.674h.958v-7.674h3.256v-.862h-7.456z" mask="url(#a)"/><path d="m95.8284 81.3657-4.159-8.276-4.09 8.208v-7.757h-.958v8.536h1.642l3.406-6.977 3.448 6.977h1.669v-8.536h-.958z" mask="url(#a)"/><path d="m106.0203 79.1157c-.183.405-.431.764-.746 1.073-.314.311-.679.557-1.094.739-.415.183-.855.274-1.32.274s-.905-.091-1.32-.274c-.416-.182-.778-.428-1.088-.739-.31-.309-.557-.668-.739-1.073-.182-.406-.273-.837-.273-1.293 0-.447.091-.878.273-1.293s.429-.777.739-1.088c.31-.309.675-.558 1.094-.745.42-.187.863-.28 1.328-.28s.905.093 1.32.28c.414.187.777.436 1.087.745.31.311.556.673.739 1.088.182.415.273.846.273 1.293 0 .456-.091.887-.273 1.293m-.089-4.351c-.388-.387-.846-.695-1.375-.923s-1.094-.342-1.696-.342-1.168.114-1.696.342c-.53.228-.988.536-1.375.923-.388.388-.696.844-.924 1.369-.228.524-.342 1.083-.342 1.675 0 .593.114 1.152.342 1.676.228.525.536.981.924 1.368.387.388.845.696 1.375.923.528.229 1.094.342 1.696.342s1.167-.113 1.696-.342c.529-.227.987-.535 1.375-.923.388-.387.695-.843.923-1.368.228-.524.342-1.083.342-1.676 0-.592-.114-1.151-.342-1.675-.228-.525-.535-.981-.923-1.369" mask="url(#a)"/><path d="m115.8152 74.2729c-.192-.224-.415-.401-.67-.534-.256-.132-.525-.198-.808-.198h-5.403v8.536h.957v-7.674h4.269c.2 0 .38.052.54.157.159.105.294.237.404.397.109.159.193.337.253.533.059.196.088.386.088.568 0 .164-.023.337-.068.52-.046.182-.121.351-.226.506s-.234.283-.39.383c-.154.1-.342.151-.56.151h-1.314l2.285 4.459h1.026l-1.82-3.598c.283 0 .55-.066.801-.198.25-.132.469-.31.657-.533.186-.224.334-.48.444-.767.109-.287.164-.59.164-.909 0-.357-.057-.689-.171-.999s-.267-.577-.458-.8" mask="url(#a)"/><path d="m126.5266 73.5405h-1.04l-2.12 4.31 2.12 4.226h1.04l-2.093-4.226z" mask="url(#a)"/><path d="m119.2078 73.5405h-.958v8.536h.958v-3.803h2.9v-.862h-2.9z" mask="url(#a)"/><path d="m72.4627 48.06c-5.114 0-10.873-1.958-16.216-5.515-.481-.32-1.004-.311-1.168.019-.165.33.091.857.572 1.177 5.797 3.859 12.046 5.984 17.594 5.984 4.597 0 8.294-1.444 10.691-4.177 2.35-2.678 3.252-6.346 2.61-10.606-.066-.438-.528-.906-1.032-1.046-.503-.14-.858.102-.792.54.592 3.926-.24 7.307-2.406 9.775-2.208 2.519-5.616 3.849-9.853 3.849" mask="url(#a)"/><path d="m84.5081 28.4746c-.216-.46-.764-.833-1.223-.833-.46 0-.657.373-.442.833.402.854.751 1.714 1.037 2.556.154.456.672.873 1.156.932.038.005.076.008.112.008.411 0 .626-.306.483-.725-.31-.913-.687-1.845-1.123-2.771" mask="url(#a)"/><path d="m71.5769 13.6919c-6-4.171-12.501-6.468-18.307-6.468-4.643 0-8.363 1.471-10.757 4.254-2.316 2.691-3.205 6.52-2.503 10.781.072.439.538.905 1.041 1.039.092.024.18.036.26.036.357 0 .578-.23.519-.589-.646-3.927.174-7.456 2.308-9.937 2.206-2.564 5.634-3.92 9.915-3.92 5.351 0 11.343 2.117 16.873 5.962.475.33 1.005.339 1.185.019s-.059-.847-.534-1.177" mask="url(#a)"/><path d="m42.6355 25.9184c-.155-.456-.672-.874-1.156-.933s-.751.262-.595.718c.309.913.687 1.845 1.123 2.771.215.46.763.832 1.223.832s.657-.372.441-.832c-.402-.855-.75-1.715-1.036-2.556" mask="url(#a)"/><path d="m48.9544 5.5986c.041 0 .081-.003.119-.009 1.048-.168 2.162-.252 3.311-.252.459 0 .656-.373.441-.833-.216-.459-.764-.832-1.224-.832-1.23 0-2.423.091-3.546.27-.423.068-.538.491-.257.946.256.413.751.71 1.156.71" mask="url(#a)"/><path d="m38.4558 28.4746c3.134 6.669 8.685 12.927 15.63 17.621.238.161.487.241.699.241.214 0 .389-.082.475-.247.17-.326-.08-.854-.559-1.177-6.478-4.379-11.656-10.216-14.58-16.438-2.42-5.15-3.056-10.024-1.837-14.095 1.18-3.944 4.108-6.851 8.243-8.186.385-.124.427-.583.095-1.026-.333-.443-.913-.7-1.297-.577-4.434 1.432-7.573 4.548-8.838 8.774-1.306 4.365-.625 9.589 1.969 15.11" mask="url(#a)"/><path d="m77.4417 51.3588c-1.048.168-2.162.253-3.311.253-.459 0-.657.372-.44.832.215.459.763.832 1.223.832 1.23 0 2.423-.091 3.547-.271.422-.067.537-.49.256-.945-.281-.454-.852-.768-1.275-.701" mask="url(#a)"/><path d="m88.0589 28.4741c-3.134-6.668-8.684-12.926-15.627-17.619-.478-.324-1.004-.321-1.174.005-.17.327.08.854.558 1.177 6.478 4.379 11.655 10.216 14.579 16.437 2.369 5.04 3.028 9.831 1.906 13.854-1.084 3.89-3.854 6.821-7.799 8.25-.376.137-.402.603-.06 1.042.279.357.715.586 1.071.586.081 0 .158-.011.229-.037 4.229-1.534 7.198-4.674 8.361-8.844 1.202-4.313.496-9.448-2.044-14.851" mask="url(#a)"/><path d="m36.5716 28.4746c-.216-.46-.764-.833-1.224-.833-.459 0-.657.373-.441.833 2.796 5.948 7.293 11.641 13.007 16.465.269.227.582.348.842.348.167 0 .313-.05.41-.154.248-.268.091-.787-.352-1.161-5.378-4.54-9.611-9.899-12.242-15.498" mask="url(#a)"/><path d="m56.8172 49.5649c-1.689-.961-3.356-2.038-4.954-3.201-.469-.341-1.007-.367-1.204-.06-.196.309.025.835.493 1.176 1.697 1.235 3.468 2.379 5.262 3.399.207.119.414.176.592.176.248 0 .442-.111.507-.322.111-.363-.2-.886-.696-1.168" mask="url(#a)"/><path d="m75.7991 55.1606c-4.867 0-10.25-1.322-15.569-3.824-.506-.238-.958-.112-1.011.282-.052.394.315.905.82 1.143 5.652 2.659 11.372 4.063 16.543 4.063.459 0 .656-.372.441-.832-.217-.46-.764-.832-1.224-.832" mask="url(#a)"/><path d="m71.843 8.6733c3.906 2.479 7.457 5.435 10.553 8.787 3.203 3.468 5.743 7.174 7.548 11.014.216.46.763.832 1.223.832s.657-.372.441-.832c-1.917-4.079-4.615-8.016-8.02-11.702-3.288-3.561-7.06-6.701-11.209-9.334-.486-.308-1-.282-1.148.06-.148.341.126.867.612 1.175" mask="url(#a)"/><path d="m64.1145 4.6572c1.479.606 2.969 1.309 4.428 2.089.196.105.389.155.556.155.26 0 .459-.121.515-.348.091-.375-.24-.894-.74-1.162-1.55-.829-3.133-1.575-4.704-2.219-.507-.207-.931-.044-.947.366-.015.411.385.911.892 1.119" mask="url(#a)"/><path d="m50.7161 1.788c2.948 0 6.069.478 9.276 1.419.103.03.2.045.289.045.347 0 .568-.218.523-.565-.057-.435-.511-.907-1.016-1.056-3.408-1-6.723-1.508-9.855-1.508-.459 0-.657.373-.441.833.216.459.764.832 1.224.832" mask="url(#a)"/><path d="m36.7913 1.5722c.31-.21.234-.712-.168-1.121-.402-.408-.979-.569-1.29-.358-3.009 2.043-5.134 4.845-6.315 8.327-.121.358.181.881.674 1.171.213.124.426.185.61.185.242 0 .433-.106.502-.309 1.12-3.301 3.134-5.957 5.987-7.895" mask="url(#a)"/><path d="m29.3557 10.9082c-.503-.25-.967-.14-1.036.246-.143.807-.239 1.646-.287 2.495-.022.407.371.91.878 1.124.154.065.301.096.431.096.3 0 .513-.162.529-.445.045-.805.136-1.6.272-2.365.068-.386-.284-.901-.787-1.151" mask="url(#a)"/><path d="m96.823 47.3579c-.493-.289-.991-.233-1.112.124-1.12 3.301-3.135 5.957-5.988 7.895-.309.21-.234.712.168 1.121.283.287.651.452.953.452.128 0 .245-.03.337-.093 3.01-2.045 5.135-4.847 6.316-8.328.12-.358-.181-.882-.674-1.171" mask="url(#a)"/><path d="m97.6082 41.9389c-.507-.211-.934-.05-.952.358-.04.884-.135 1.756-.284 2.592-.068.386.284.902.787 1.152.182.089.36.133.515.133.272 0 .477-.133.52-.38.157-.881.258-1.801.3-2.735.018-.408-.378-.91-.886-1.12" mask="url(#a)"/><path d="m70.7937 44.5092c-8.842 0-19.416-7.193-23.571-16.035-4.156-8.841-.343-16.035 8.499-16.035s19.416 7.194 23.571 16.035c4.155 8.842.343 16.035-8.499 16.035m-15.854-33.734c-9.76 0-13.968 7.94-9.382 17.699 4.587 9.76 16.258 17.7 26.018 17.7s13.968-7.94 9.382-17.7c-4.587-9.759-16.259-17.699-26.018-17.699" mask="url(#a)"/><path d="m36.9939 5.7876c-.446-.37-1.004-.45-1.247-.178-1.528 1.714-2.616 3.766-3.233 6.1-.098.37.227.891.725 1.163.199.109.397.162.567.162.256 0 .454-.118.512-.34.582-2.198 1.606-4.13 3.045-5.743.242-.273.077-.793-.369-1.164" mask="url(#a)"/><path d="m90.5696 51.5581c1.633-1.757 2.788-3.883 3.432-6.318.098-.371-.226-.892-.725-1.164s-.982-.193-1.08.178c-.606 2.293-1.694 4.295-3.231 5.95-.249.266-.091.787.352 1.16.269.227.582.348.842.348.167 0 .312-.05.41-.154" mask="url(#a)"/></g></svg>