<?xml version="1.0" encoding="UTF-8"?>
<svg width="128px" height="128px" viewBox="0 0 128 128" version="1.1" xmlns="http://www.w3.org/2000/svg" xmlns:xlink="http://www.w3.org/1999/xlink">
    <!-- Generator: Sketch 49.3 (51167) - http://www.bohemiancoding.com/sketch -->
    <title>logo2</title>
    <desc>Created with Sketch.</desc>
    <defs>
        <polygon id="path-1" points="0 82.118 126.527 82.118 126.527 0 0 0"></polygon>
    </defs>
    <g id="logo2" stroke="none" stroke-width="1" fill="none" fill-rule="evenodd">
        <g id="Page-1" transform="translate(1.000000, 23.000000)">
            <path d="M6.8811,74.2729 C6.6901,74.0489 6.4661,73.8719 6.2111,73.7389 C5.9551,73.6069 5.6861,73.5409 5.4031,73.5409 L0.0001,73.5409 L0.0001,82.0769 L0.9581,82.0769 L0.9581,74.4029 L5.2261,74.4029 C5.4261,74.4029 5.6071,74.4549 5.7661,74.5599 C5.9251,74.6649 6.0601,74.7969 6.1701,74.9569 C6.2791,75.1159 6.3631,75.2939 6.4231,75.4899 C6.4821,75.6859 6.5111,75.8759 6.5111,76.0579 C6.5111,76.2219 6.4891,76.3949 6.4431,76.5779 C6.3981,76.7599 6.3221,76.9289 6.2171,77.0839 C6.1121,77.2389 5.9831,77.3669 5.8281,77.4669 C5.6731,77.5669 5.4851,77.6179 5.2671,77.6179 L3.9941,77.6179 L3.9941,78.4789 L5.4311,78.4789 C5.7141,78.4789 5.9801,78.4129 6.2311,78.2809 C6.4821,78.1489 6.7031,77.9709 6.8951,77.7479 C7.0861,77.5239 7.2361,77.2679 7.3461,76.9809 C7.4561,76.6939 7.5101,76.3909 7.5101,76.0719 C7.5101,75.7149 7.4531,75.3829 7.3391,75.0729 C7.2251,74.7629 7.0721,74.4959 6.8811,74.2729" id="Fill-1" fill="#1B243D"></path>
            <path d="M16.43,79.1157 C16.247,79.5207 15.999,79.8797 15.684,80.1887 C15.369,80.4997 15.005,80.7457 14.59,80.9277 C14.175,81.1107 13.735,81.2017 13.27,81.2017 C12.805,81.2017 12.365,81.1107 11.95,80.9277 C11.534,80.7457 11.172,80.4997 10.862,80.1887 C10.552,79.8797 10.305,79.5207 10.123,79.1157 C9.941,78.7097 9.85,78.2787 9.85,77.8227 C9.85,77.3757 9.941,76.9447 10.123,76.5297 C10.305,76.1147 10.552,75.7527 10.862,75.4417 C11.172,75.1327 11.537,74.8837 11.956,74.6967 C12.376,74.5097 12.818,74.4167 13.284,74.4167 C13.748,74.4167 14.188,74.5097 14.603,74.6967 C15.018,74.8837 15.381,75.1327 15.691,75.4417 C16.001,75.7527 16.247,76.1147 16.43,76.5297 C16.612,76.9447 16.703,77.3757 16.703,77.8227 C16.703,78.2787 16.612,78.7097 16.43,79.1157 M16.341,74.7647 C15.953,74.3777 15.495,74.0697 14.966,73.8417 C14.437,73.6137 13.872,73.4997 13.27,73.4997 C12.668,73.4997 12.102,73.6137 11.574,73.8417 C11.044,74.0697 10.586,74.3777 10.199,74.7647 C9.811,75.1527 9.503,75.6087 9.275,76.1337 C9.047,76.6577 8.933,77.2167 8.933,77.8087 C8.933,78.4017 9.047,78.9607 9.275,79.4847 C9.503,80.0097 9.811,80.4657 10.199,80.8527 C10.586,81.2407 11.044,81.5487 11.574,81.7757 C12.102,82.0047 12.668,82.1177 13.27,82.1177 C13.872,82.1177 14.437,82.0047 14.966,81.7757 C15.495,81.5487 15.953,81.2407 16.341,80.8527 C16.728,80.4657 17.036,80.0097 17.264,79.4847 C17.492,78.9607 17.606,78.4017 17.606,77.8087 C17.606,77.2167 17.492,76.6577 17.264,76.1337 C17.036,75.6087 16.728,75.1527 16.341,74.7647" id="Fill-3" fill="#1B243D"></path>
            <path d="M26.2249,74.2729 C26.0329,74.0489 25.8089,73.8719 25.5549,73.7389 C25.2989,73.6069 25.0299,73.5409 24.7469,73.5409 L19.3439,73.5409 L19.3439,82.0769 L20.3009,82.0769 L20.3009,74.4029 L24.5699,74.4029 C24.7699,74.4029 24.9499,74.4549 25.1099,74.5599 C25.2689,74.6649 25.4039,74.7969 25.5139,74.9569 C25.6229,75.1159 25.7069,75.2939 25.7669,75.4899 C25.8259,75.6859 25.8549,75.8759 25.8549,76.0579 C25.8549,76.2219 25.8319,76.3949 25.7869,76.5779 C25.7409,76.7599 25.6659,76.9289 25.5609,77.0839 C25.4559,77.2389 25.3269,77.3669 25.1709,77.4669 C25.0169,77.5669 24.8289,77.6179 24.6109,77.6179 L23.2969,77.6179 L25.5819,82.0769 L26.6079,82.0769 L24.7879,78.4789 C25.0709,78.4789 25.3379,78.4129 25.5889,78.2809 C25.8389,78.1489 26.0579,77.9709 26.2459,77.7479 C26.4319,77.5239 26.5799,77.2679 26.6899,76.9809 C26.7989,76.6939 26.8539,76.3909 26.8539,76.0719 C26.8539,75.7149 26.7969,75.3829 26.6829,75.0729 C26.5689,74.7629 26.4159,74.4959 26.2249,74.2729" id="Fill-5" fill="#1B243D"></path>
            <polygon id="Fill-7" fill="#1B243D" points="35.8694 73.5405 28.4134 73.5405 28.4134 74.4025 31.6554 74.4025 31.6554 82.0765 32.6134 82.0765 32.6134 74.4025 35.8694 74.4025"></polygon>
            <polygon id="Fill-9" fill="#1B243D" points="35.3084 82.0766 41.4234 82.0766 40.8344 81.2156 36.8134 81.2156 39.7814 75.1406 43.2294 82.0766 44.2964 82.0766 39.7814 73.0896"></polygon>
            <polygon id="Fill-11" fill="#1B243D" points="46.7859 73.5405 45.8279 73.5405 45.8279 82.0765 52.3269 82.0765 52.3269 81.2155 46.7859 81.2155"></polygon>
            <polygon id="Fill-13" fill="#1B243D" points="66.0471 81.27 60.6441 73.541 59.0431 73.541 59.0431 82.077 60.0011 82.077 60.0011 74.334 65.5001 82.077 67.0051 82.077 67.0051 73.541 66.0471 73.541"></polygon>
            <polygon id="Fill-15" fill="#1B243D" points="68.9202 82.0766 75.4182 82.0766 75.4182 81.2156 69.8782 81.2156 69.8782 74.4026 75.4182 74.4026 75.4182 73.5406 68.9202 73.5406"></polygon>
            <mask id="mask-2" fill="white">
                <use xlink:href="#path-1"></use>
            </mask>
            <g id="Clip-18"></g>
            <polygon id="Fill-17" fill="#1B243D" mask="url(#mask-2)" points="71.218 78.479 75.309 78.479 75.309 77.618 71.218 77.618"></polygon>
            <polygon id="Fill-19" fill="#1B243D" mask="url(#mask-2)" points="77.2923 74.4028 80.5343 74.4028 80.5343 82.0768 81.4923 82.0768 81.4923 74.4028 84.7483 74.4028 84.7483 73.5408 77.2923 73.5408"></polygon>
            <polygon id="Fill-20" fill="#1B243D" mask="url(#mask-2)" points="95.8284 81.3657 91.6694 73.0897 87.5794 81.2977 87.5794 73.5407 86.6214 73.5407 86.6214 82.0767 88.2634 82.0767 91.6694 75.0997 95.1174 82.0767 96.7864 82.0767 96.7864 73.5407 95.8284 73.5407"></polygon>
            <path d="M106.0203,79.1157 C105.8373,79.5207 105.5893,79.8797 105.2743,80.1887 C104.9603,80.4997 104.5953,80.7457 104.1803,80.9277 C103.7653,81.1107 103.3253,81.2017 102.8603,81.2017 C102.3953,81.2017 101.9553,81.1107 101.5403,80.9277 C101.1243,80.7457 100.7623,80.4997 100.4523,80.1887 C100.1423,79.8797 99.8953,79.5207 99.7133,79.1157 C99.5313,78.7097 99.4403,78.2787 99.4403,77.8227 C99.4403,77.3757 99.5313,76.9447 99.7133,76.5297 C99.8953,76.1147 100.1423,75.7527 100.4523,75.4417 C100.7623,75.1327 101.1273,74.8837 101.5463,74.6967 C101.9663,74.5097 102.4093,74.4167 102.8743,74.4167 C103.3393,74.4167 103.7793,74.5097 104.1943,74.6967 C104.6083,74.8837 104.9713,75.1327 105.2813,75.4417 C105.5913,75.7527 105.8373,76.1147 106.0203,76.5297 C106.2023,76.9447 106.2933,77.3757 106.2933,77.8227 C106.2933,78.2787 106.2023,78.7097 106.0203,79.1157 M105.9313,74.7647 C105.5433,74.3777 105.0853,74.0697 104.5563,73.8417 C104.0273,73.6137 103.4623,73.4997 102.8603,73.4997 C102.2583,73.4997 101.6923,73.6137 101.1643,73.8417 C100.6343,74.0697 100.1763,74.3777 99.7893,74.7647 C99.4013,75.1527 99.0933,75.6087 98.8653,76.1337 C98.6373,76.6577 98.5233,77.2167 98.5233,77.8087 C98.5233,78.4017 98.6373,78.9607 98.8653,79.4847 C99.0933,80.0097 99.4013,80.4657 99.7893,80.8527 C100.1763,81.2407 100.6343,81.5487 101.1643,81.7757 C101.6923,82.0047 102.2583,82.1177 102.8603,82.1177 C103.4623,82.1177 104.0273,82.0047 104.5563,81.7757 C105.0853,81.5487 105.5433,81.2407 105.9313,80.8527 C106.3193,80.4657 106.6263,80.0097 106.8543,79.4847 C107.0823,78.9607 107.1963,78.4017 107.1963,77.8087 C107.1963,77.2167 107.0823,76.6577 106.8543,76.1337 C106.6263,75.6087 106.3193,75.1527 105.9313,74.7647" id="Fill-21" fill="#1B243D" mask="url(#mask-2)"></path>
            <path d="M115.8152,74.2729 C115.6232,74.0489 115.4002,73.8719 115.1452,73.7389 C114.8892,73.6069 114.6202,73.5409 114.3372,73.5409 L108.9342,73.5409 L108.9342,82.0769 L109.8912,82.0769 L109.8912,74.4029 L114.1602,74.4029 C114.3602,74.4029 114.5402,74.4549 114.7002,74.5599 C114.8592,74.6649 114.9942,74.7969 115.1042,74.9569 C115.2132,75.1159 115.2972,75.2939 115.3572,75.4899 C115.4162,75.6859 115.4452,75.8759 115.4452,76.0579 C115.4452,76.2219 115.4222,76.3949 115.3772,76.5779 C115.3312,76.7599 115.2562,76.9289 115.1512,77.0839 C115.0462,77.2389 114.9172,77.3669 114.7612,77.4669 C114.6072,77.5669 114.4192,77.6179 114.2012,77.6179 L112.8872,77.6179 L115.1722,82.0769 L116.1982,82.0769 L114.3782,78.4789 C114.6612,78.4789 114.9282,78.4129 115.1792,78.2809 C115.4292,78.1489 115.6482,77.9709 115.8362,77.7479 C116.0222,77.5239 116.1702,77.2679 116.2802,76.9809 C116.3892,76.6939 116.4442,76.3909 116.4442,76.0719 C116.4442,75.7149 116.3872,75.3829 116.2732,75.0729 C116.1592,74.7629 116.0062,74.4959 115.8152,74.2729" id="Fill-22" fill="#1B243D" mask="url(#mask-2)"></path>
            <polygon id="Fill-23" fill="#1B243D" mask="url(#mask-2)" points="126.5266 73.5405 125.4866 73.5405 123.3666 77.8505 125.4866 82.0765 126.5266 82.0765 124.4336 77.8505"></polygon>
            <polygon id="Fill-24" fill="#1B243D" mask="url(#mask-2)" points="119.2078 73.5405 118.2498 73.5405 118.2498 82.0765 119.2078 82.0765 119.2078 78.2735 122.1078 78.2735 122.1078 77.4115 119.2078 77.4115"></polygon>
            <path d="M72.4627,48.06 C67.3487,48.06 61.5897,46.102 56.2467,42.545 C55.7657,42.225 55.2427,42.234 55.0787,42.564 C54.9137,42.894 55.1697,43.421 55.6507,43.741 C61.4477,47.6 67.6967,49.725 73.2447,49.725 C77.8417,49.725 81.5387,48.281 83.9357,45.548 C86.2857,42.87 87.1877,39.202 86.5457,34.942 C86.4797,34.504 86.0177,34.036 85.5137,33.896 C85.0107,33.756 84.6557,33.998 84.7217,34.436 C85.3137,38.362 84.4817,41.743 82.3157,44.211 C80.1077,46.73 76.6997,48.06 72.4627,48.06" id="Fill-25" fill="#1B243D" mask="url(#mask-2)"></path>
            <path d="M84.5081,28.4746 C84.2921,28.0146 83.7441,27.6416 83.2851,27.6416 C82.8251,27.6416 82.6281,28.0146 82.8431,28.4746 C83.2451,29.3286 83.5941,30.1886 83.8801,31.0306 C84.0341,31.4866 84.5521,31.9036 85.0361,31.9626 C85.0741,31.9676 85.1121,31.9706 85.1481,31.9706 C85.5591,31.9706 85.7741,31.6646 85.6311,31.2456 C85.3211,30.3326 84.9441,29.4006 84.5081,28.4746" id="Fill-26" fill="#1B243D" mask="url(#mask-2)"></path>
            <path d="M71.5769,13.6919 C65.5769,9.5209 59.0759,7.2239 53.2699,7.2239 C48.6269,7.2239 44.9069,8.6949 42.5129,11.4779 C40.1969,14.1689 39.3079,17.9979 40.0099,22.2589 C40.0819,22.6979 40.5479,23.1639 41.0509,23.2979 C41.1429,23.3219 41.2309,23.3339 41.3109,23.3339 C41.6679,23.3339 41.8889,23.1039 41.8299,22.7449 C41.1839,18.8179 42.0039,15.2889 44.1379,12.8079 C46.3439,10.2439 49.7719,8.8879 54.0529,8.8879 C59.4039,8.8879 65.3959,11.0049 70.9259,14.8499 C71.4009,15.1799 71.9309,15.1889 72.1109,14.8689 C72.2909,14.5489 72.0519,14.0219 71.5769,13.6919" id="Fill-27" fill="#1B243D" mask="url(#mask-2)"></path>
            <path d="M42.6355,25.9184 C42.4805,25.4624 41.9635,25.0444 41.4795,24.9854 C40.9955,24.9264 40.7285,25.2474 40.8845,25.7034 C41.1935,26.6164 41.5715,27.5484 42.0075,28.4744 C42.2225,28.9344 42.7705,29.3064 43.2305,29.3064 C43.6905,29.3064 43.8875,28.9344 43.6715,28.4744 C43.2695,27.6194 42.9215,26.7594 42.6355,25.9184" id="Fill-28" fill="#1B243D" mask="url(#mask-2)"></path>
            <path d="M48.9544,5.5986 C48.9954,5.5986 49.0354,5.5956 49.0734,5.5896 C50.1214,5.4216 51.2354,5.3376 52.3844,5.3376 C52.8434,5.3376 53.0404,4.9646 52.8254,4.5046 C52.6094,4.0456 52.0614,3.6726 51.6014,3.6726 C50.3714,3.6726 49.1784,3.7636 48.0554,3.9426 C47.6324,4.0106 47.5174,4.4336 47.7984,4.8886 C48.0544,5.3016 48.5494,5.5986 48.9544,5.5986" id="Fill-29" fill="#1B243D" mask="url(#mask-2)"></path>
            <path d="M38.4558,28.4746 C41.5898,35.1436 47.1408,41.4016 54.0858,46.0956 C54.3238,46.2566 54.5728,46.3366 54.7848,46.3366 C54.9988,46.3366 55.1738,46.2546 55.2598,46.0896 C55.4298,45.7636 55.1798,45.2356 54.7008,44.9126 C48.2228,40.5336 43.0448,34.6966 40.1208,28.4746 C37.7008,23.3246 37.0648,18.4506 38.2838,14.3796 C39.4638,10.4356 42.3918,7.5286 46.5268,6.1936 C46.9118,6.0696 46.9538,5.6106 46.6218,5.1676 C46.2888,4.7246 45.7088,4.4676 45.3248,4.5906 C40.8908,6.0226 37.7518,9.1386 36.4868,13.3646 C35.1808,17.7296 35.8618,22.9536 38.4558,28.4746" id="Fill-30" fill="#1B243D" mask="url(#mask-2)"></path>
            <path d="M77.4417,51.3588 C76.3937,51.5268 75.2797,51.6118 74.1307,51.6118 C73.6717,51.6118 73.4737,51.9838 73.6907,52.4438 C73.9057,52.9028 74.4537,53.2758 74.9137,53.2758 C76.1437,53.2758 77.3367,53.1848 78.4607,53.0048 C78.8827,52.9378 78.9977,52.5148 78.7167,52.0598 C78.4357,51.6058 77.8647,51.2918 77.4417,51.3588" id="Fill-31" fill="#1B243D" mask="url(#mask-2)"></path>
            <path d="M88.0589,28.4741 C84.9249,21.8061 79.3749,15.5481 72.4319,10.8551 C71.9539,10.5311 71.4279,10.5341 71.2579,10.8601 C71.0879,11.1871 71.3379,11.7141 71.8159,12.0371 C78.2939,16.4161 83.4709,22.2531 86.3949,28.4741 C88.7639,33.5141 89.4229,38.3051 88.3009,42.3281 C87.2169,46.2181 84.4469,49.1491 80.5019,50.5781 C80.1259,50.7151 80.0999,51.1811 80.4419,51.6201 C80.7209,51.9771 81.1569,52.2061 81.5129,52.2061 C81.5939,52.2061 81.6709,52.1951 81.7419,52.1691 C85.9709,50.6351 88.9399,47.4951 90.1029,43.3251 C91.3049,39.0121 90.5989,33.8771 88.0589,28.4741" id="Fill-32" fill="#1B243D" mask="url(#mask-2)"></path>
            <path d="M36.5716,28.4746 C36.3556,28.0146 35.8076,27.6416 35.3476,27.6416 C34.8886,27.6416 34.6906,28.0146 34.9066,28.4746 C37.7026,34.4226 42.1996,40.1156 47.9136,44.9396 C48.1826,45.1666 48.4956,45.2876 48.7556,45.2876 C48.9226,45.2876 49.0686,45.2376 49.1656,45.1336 C49.4136,44.8656 49.2566,44.3466 48.8136,43.9726 C43.4356,39.4326 39.2026,34.0736 36.5716,28.4746" id="Fill-33" fill="#1B243D" mask="url(#mask-2)"></path>
            <path d="M56.8172,49.5649 C55.1282,48.6039 53.4612,47.5269 51.8632,46.3639 C51.3942,46.0229 50.8562,45.9969 50.6592,46.3039 C50.4632,46.6129 50.6842,47.1389 51.1522,47.4799 C52.8492,48.7149 54.6202,49.8589 56.4142,50.8789 C56.6212,50.9979 56.8282,51.0549 57.0062,51.0549 C57.2542,51.0549 57.4482,50.9439 57.5132,50.7329 C57.6242,50.3699 57.3132,49.8469 56.8172,49.5649" id="Fill-34" fill="#1B243D" mask="url(#mask-2)"></path>
            <path d="M75.7991,55.1606 C70.9321,55.1606 65.5491,53.8386 60.2301,51.3366 C59.7241,51.0986 59.2721,51.2246 59.2191,51.6186 C59.1671,52.0126 59.5341,52.5236 60.0391,52.7616 C65.6911,55.4206 71.4111,56.8246 76.5821,56.8246 C77.0411,56.8246 77.2381,56.4526 77.0231,55.9926 C76.8061,55.5326 76.2591,55.1606 75.7991,55.1606" id="Fill-35" fill="#1B243D" mask="url(#mask-2)"></path>
            <path d="M71.843,8.6733 C75.749,11.1523 79.3,14.1083 82.396,17.4603 C85.599,20.9283 88.139,24.6343 89.944,28.4743 C90.16,28.9343 90.707,29.3063 91.167,29.3063 C91.627,29.3063 91.824,28.9343 91.608,28.4743 C89.691,24.3953 86.993,20.4583 83.588,16.7723 C80.3,13.2113 76.528,10.0713 72.379,7.4383 C71.893,7.1303 71.379,7.1563 71.231,7.4983 C71.083,7.8393 71.357,8.3653 71.843,8.6733" id="Fill-36" fill="#1B243D" mask="url(#mask-2)"></path>
            <path d="M64.1145,4.6572 C65.5935,5.2632 67.0835,5.9662 68.5425,6.7462 C68.7385,6.8512 68.9315,6.9012 69.0985,6.9012 C69.3585,6.9012 69.5575,6.7802 69.6135,6.5532 C69.7045,6.1782 69.3735,5.6592 68.8735,5.3912 C67.3235,4.5622 65.7405,3.8162 64.1695,3.1722 C63.6625,2.9652 63.2385,3.1282 63.2225,3.5382 C63.2075,3.9492 63.6075,4.4492 64.1145,4.6572" id="Fill-37" fill="#1B243D" mask="url(#mask-2)"></path>
            <path d="M50.7161,1.788 C53.6641,1.788 56.7851,2.266 59.9921,3.207 C60.0951,3.237 60.1921,3.252 60.2811,3.252 C60.6281,3.252 60.8491,3.034 60.8041,2.687 C60.7471,2.252 60.2931,1.78 59.7881,1.631 C56.3801,0.631 53.0651,0.123 49.9331,0.123 C49.4741,0.123 49.2761,0.496 49.4921,0.956 C49.7081,1.415 50.2561,1.788 50.7161,1.788" id="Fill-38" fill="#1B243D" mask="url(#mask-2)"></path>
            <path d="M36.7913,1.5722 C37.1013,1.3622 37.0253,0.8602 36.6233,0.4512 C36.2213,0.0432 35.6443,-0.1178 35.3333,0.0932 C32.3243,2.1362 30.1993,4.9382 29.0183,8.4202 C28.8973,8.7782 29.1993,9.3012 29.6923,9.5912 C29.9053,9.7152 30.1183,9.7762 30.3023,9.7762 C30.5443,9.7762 30.7353,9.6702 30.8043,9.4672 C31.9243,6.1662 33.9383,3.5102 36.7913,1.5722" id="Fill-39" fill="#1B243D" mask="url(#mask-2)"></path>
            <path d="M29.3557,10.9082 C28.8527,10.6582 28.3887,10.7682 28.3197,11.1542 C28.1767,11.9612 28.0807,12.8002 28.0327,13.6492 C28.0107,14.0562 28.4037,14.5592 28.9107,14.7732 C29.0647,14.8382 29.2117,14.8692 29.3417,14.8692 C29.6417,14.8692 29.8547,14.7072 29.8707,14.4242 C29.9157,13.6192 30.0067,12.8242 30.1427,12.0592 C30.2107,11.6732 29.8587,11.1582 29.3557,10.9082" id="Fill-40" fill="#1B243D" mask="url(#mask-2)"></path>
            <path d="M96.823,47.3579 C96.33,47.0689 95.832,47.1249 95.711,47.4819 C94.591,50.7829 92.576,53.4389 89.723,55.3769 C89.414,55.5869 89.489,56.0889 89.891,56.4979 C90.174,56.7849 90.542,56.9499 90.844,56.9499 C90.972,56.9499 91.089,56.9199 91.181,56.8569 C94.191,54.8119 96.316,52.0099 97.497,48.5289 C97.617,48.1709 97.316,47.6469 96.823,47.3579" id="Fill-41" fill="#1B243D" mask="url(#mask-2)"></path>
            <path d="M97.6082,41.9389 C97.1012,41.7279 96.6742,41.8889 96.6562,42.2969 C96.6162,43.1809 96.5212,44.0529 96.3722,44.8889 C96.3042,45.2749 96.6562,45.7909 97.1592,46.0409 C97.3412,46.1299 97.5192,46.1739 97.6742,46.1739 C97.9462,46.1739 98.1512,46.0409 98.1942,45.7939 C98.3512,44.9129 98.4522,43.9929 98.4942,43.0589 C98.5122,42.6509 98.1162,42.1489 97.6082,41.9389" id="Fill-42" fill="#1B243D" mask="url(#mask-2)"></path>
            <path d="M70.7937,44.5092 C61.9517,44.5092 51.3777,37.3162 47.2227,28.4742 C43.0667,19.6332 46.8797,12.4392 55.7217,12.4392 C64.5637,12.4392 75.1377,19.6332 79.2927,28.4742 C83.4477,37.3162 79.6357,44.5092 70.7937,44.5092 M54.9397,10.7752 C45.1797,10.7752 40.9717,18.7152 45.5577,28.4742 C50.1447,38.2342 61.8157,46.1742 71.5757,46.1742 C81.3357,46.1742 85.5437,38.2342 80.9577,28.4742 C76.3707,18.7152 64.6987,10.7752 54.9397,10.7752" id="Fill-43" fill="#1B243D" mask="url(#mask-2)"></path>
            <path d="M36.9939,5.7876 C36.5479,5.4176 35.9899,5.3376 35.7469,5.6096 C34.2189,7.3236 33.1309,9.3756 32.5139,11.7096 C32.4159,12.0796 32.7409,12.6006 33.2389,12.8726 C33.4379,12.9816 33.6359,13.0346 33.8059,13.0346 C34.0619,13.0346 34.2599,12.9166 34.3179,12.6946 C34.8999,10.4966 35.9239,8.5646 37.3629,6.9516 C37.6049,6.6786 37.4399,6.1586 36.9939,5.7876" id="Fill-44" fill="#1B243D" mask="url(#mask-2)"></path>
            <path d="M90.5696,51.5581 C92.2026,49.8011 93.3576,47.6751 94.0016,45.2401 C94.0996,44.8691 93.7756,44.3481 93.2766,44.0761 C92.7776,43.8041 92.2946,43.8831 92.1966,44.2541 C91.5906,46.5471 90.5026,48.5491 88.9656,50.2041 C88.7166,50.4701 88.8746,50.9911 89.3176,51.3641 C89.5866,51.5911 89.8996,51.7121 90.1596,51.7121 C90.3266,51.7121 90.4716,51.6621 90.5696,51.5581" id="Fill-45" fill="#1B243D" mask="url(#mask-2)"></path>
        </g>
    </g>
</svg>