<svg height="128" width="128" xmlns="http://www.w3.org/2000/svg">
    <mask id="a" fill="#fff">
        <path d="M0 82.118h126.527V0H0z" fill-rule="evenodd"/>
    </mask>
    <g fill="#1b243d" fill-rule="evenodd">
        <path d="M7.881 97.273a2.224 2.224 0 00-.67-.534 1.739 1.739 0 00-.808-.198H1v8.536h.958v-7.674h4.268c.2 0 .381.052.54.157s.294.237.404.397c.11.159.193.337.253.533s.088.386.088.568c0 .164-.022.337-.068.52-.045.182-.12.35-.226.506s-.234.283-.389.383-.343.15-.56.15H4.993v.862h1.437c.283 0 .55-.066.8-.198s.472-.31.664-.533c.191-.224.341-.48.451-.767s.164-.59.164-.91c0-.356-.057-.688-.17-.998s-.268-.577-.459-.8M17.43 102.116a3.52 3.52 0 01-.746 1.073 3.598 3.598 0 01-1.094.739c-.415.183-.855.274-1.32.274s-.905-.091-1.32-.274a3.499 3.499 0 01-1.088-.74 3.57 3.57 0 01-.739-1.072 3.125 3.125 0 01-.273-1.293c0-.447.091-.878.273-1.293s.429-.777.739-1.088a3.63 3.63 0 011.094-.745c.42-.187.862-.28 1.328-.28.464 0 .904.093 1.319.28s.778.436 1.088.745c.31.31.556.673.739 1.088.182.415.273.846.273 1.293 0 .456-.091.887-.273 1.293m-.089-4.351c-.388-.387-.846-.695-1.375-.923s-1.094-.342-1.696-.342-1.168.114-1.696.342c-.53.228-.988.536-1.375.923a4.384 4.384 0 00-.924 1.369 4.155 4.155 0 00-.342 1.675c0 .593.114 1.152.342 1.676a4.324 4.324 0 002.299 2.291c.528.229 1.094.342 1.696.342s1.167-.113 1.696-.342a4.346 4.346 0 001.375-.923c.387-.387.695-.843.923-1.368a4.156 4.156 0 00.342-1.676c0-.592-.114-1.151-.342-1.675a4.398 4.398 0 00-.923-1.37M27.225 97.273a2.249 2.249 0 00-.67-.534 1.739 1.739 0 00-.808-.198h-5.403v8.536h.957v-7.674h4.269c.2 0 .38.052.54.157.159.105.294.237.404.397.109.159.193.337.253.533.059.196.088.386.088.568 0 .164-.023.337-.068.52-.046.182-.121.35-.226.506s-.234.283-.39.383a1.01 1.01 0 01-.56.15h-1.314l2.285 4.46h1.026l-1.82-3.598c.283 0 .55-.066.8-.198s.47-.31.658-.533c.186-.224.334-.48.444-.767.109-.287.164-.59.164-.91 0-.356-.057-.688-.171-.998s-.267-.577-.458-.8M36.87 96.54h-7.457v.862h3.242v7.674h.958v-7.673h3.256zM36.308 105.077h6.115l-.589-.861h-4.02l2.967-6.075 3.448 6.936h1.067l-4.515-8.987zM47.786 96.54h-.958v8.536h6.499v-.86h-5.541zM67.047 104.27l-5.403-7.729h-1.6v8.536H61v-7.743l5.5 7.743h1.504v-8.536h-.958zM69.92 105.077h6.498v-.861h-5.54v-6.813h5.54v-.862H69.92z"/>
        <path d="M71.218 78.479h4.091v-.861h-4.091zM77.292 74.403h3.242v7.674h.958v-7.674h3.256v-.862h-7.456zM95.828 81.366L91.67 73.09l-4.09 8.208V73.54h-.958v8.536h1.642L91.67 75.1l3.448 6.977h1.67V73.54h-.959zM106.02 79.116a3.585 3.585 0 01-1.84 1.812c-.415.183-.855.274-1.32.274s-.905-.091-1.32-.274a3.499 3.499 0 01-1.088-.74 3.57 3.57 0 01-.739-1.072 3.125 3.125 0 01-.273-1.293c0-.447.091-.878.273-1.293s.43-.777.74-1.088a3.63 3.63 0 011.093-.745c.42-.187.863-.28 1.328-.28s.905.093 1.32.28a3.66 3.66 0 011.087.745c.31.31.556.673.74 1.088.181.415.272.846.272 1.293 0 .456-.09.887-.273 1.293m-.089-4.351c-.388-.387-.846-.695-1.375-.923s-1.094-.342-1.696-.342-1.168.114-1.696.342c-.53.228-.988.536-1.375.923a4.384 4.384 0 00-.924 1.369 4.155 4.155 0 00-.342 1.675c0 .593.114 1.152.342 1.676a4.324 4.324 0 002.299 2.291c.528.229 1.094.342 1.696.342s1.167-.113 1.696-.342a4.346 4.346 0 001.375-.923c.388-.387.695-.843.923-1.368a4.156 4.156 0 00.342-1.676c0-.592-.114-1.151-.342-1.675a4.381 4.381 0 00-.923-1.37M115.815 74.273a2.236 2.236 0 00-.67-.534 1.739 1.739 0 00-.808-.198h-5.403v8.536h.957v-7.674h4.27c.2 0 .38.052.54.157.158.105.293.237.403.397.11.159.193.337.253.533s.088.386.088.568c0 .164-.023.337-.068.52-.046.182-.12.35-.226.506s-.234.283-.39.383a1.01 1.01 0 01-.56.15h-1.314l2.285 4.46h1.026l-1.82-3.598c.283 0 .55-.066.801-.198.25-.132.47-.31.657-.533.186-.224.334-.48.444-.767.11-.287.164-.59.164-.91 0-.356-.057-.688-.17-.998s-.268-.577-.459-.8M126.527 73.54h-1.04l-2.12 4.31 2.12 4.227h1.04l-2.093-4.227zM119.208 73.54h-.958v8.536h.958v-3.802h2.9v-.863h-2.9zM72.463 48.06c-5.114 0-10.873-1.958-16.216-5.515-.481-.32-1.004-.311-1.168.019-.165.33.09.857.572 1.177 5.797 3.859 12.046 5.984 17.594 5.984 4.597 0 8.294-1.444 10.69-4.177 2.35-2.678 3.253-6.346 2.61-10.606-.065-.438-.527-.906-1.031-1.046-.503-.14-.858.102-.792.54.592 3.926-.24 7.307-2.406 9.775-2.208 2.519-5.616 3.849-9.853 3.849M84.508 28.475c-.216-.46-.764-.833-1.223-.833-.46 0-.657.373-.442.833.402.854.751 1.714 1.037 2.556.154.456.672.873 1.156.932a.868.868 0 00.112.008c.411 0 .626-.306.483-.725a26.647 26.647 0 00-1.123-2.771M71.577 13.692c-6-4.171-12.501-6.468-18.307-6.468-4.643 0-8.363 1.47-10.757 4.254-2.316 2.69-3.205 6.52-2.503 10.78.072.44.538.906 1.04 1.04.093.024.18.036.26.036.358 0 .579-.23.52-.59-.646-3.926.174-7.455 2.308-9.936 2.206-2.564 5.634-3.92 9.915-3.92 5.35 0 11.343 2.117 16.873 5.962.475.33 1.005.339 1.185.019s-.06-.847-.534-1.177M42.636 25.918c-.156-.456-.673-.874-1.157-.933s-.75.262-.594.718c.309.913.687 1.845 1.123 2.771.214.46.762.832 1.222.832s.658-.372.442-.832a24.811 24.811 0 01-1.036-2.556M48.954 5.599a.766.766 0 00.12-.01 21.005 21.005 0 013.31-.251c.46 0 .656-.373.441-.833-.216-.46-.764-.832-1.224-.832-1.23 0-2.423.09-3.546.27-.423.068-.538.49-.257.946.256.413.751.71 1.156.71" mask="url(#a)" transform="translate(1 23)"/>
        <path d="M38.456 28.475c3.134 6.669 8.685 12.927 15.63 17.62.238.162.487.242.699.242.214 0 .389-.082.475-.247.17-.326-.08-.854-.56-1.177-6.477-4.38-11.655-10.216-14.58-16.438-2.42-5.15-3.055-10.024-1.836-14.095 1.18-3.944 4.108-6.851 8.243-8.186.385-.124.427-.583.095-1.026-.333-.443-.913-.7-1.297-.577-4.434 1.432-7.573 4.548-8.838 8.774-1.306 4.365-.625 9.589 1.969 15.11M77.442 51.359a21.003 21.003 0 01-3.311.253c-.46 0-.657.372-.44.832.215.459.763.832 1.223.832 1.23 0 2.423-.091 3.547-.271.422-.067.537-.49.256-.945-.281-.454-.852-.768-1.275-.701M88.059 28.474c-3.134-6.668-8.684-12.926-15.627-17.619-.478-.324-1.004-.32-1.174.005-.17.327.08.854.558 1.177 6.478 4.38 11.655 10.216 14.579 16.437 2.369 5.04 3.028 9.831 1.906 13.854-1.084 3.89-3.854 6.821-7.8 8.25-.375.137-.401.603-.06 1.042.28.357.716.586 1.072.586a.663.663 0 00.229-.037c4.229-1.534 7.198-4.674 8.36-8.844 1.203-4.313.497-9.448-2.043-14.85" mask="url(#a)" transform="translate(1 23)"/>
        <path d="M36.572 28.475c-.216-.46-.764-.833-1.224-.833-.46 0-.657.373-.441.833 2.796 5.948 7.293 11.64 13.007 16.465.269.227.582.348.842.348.167 0 .313-.05.41-.154.248-.268.09-.787-.352-1.161-5.378-4.54-9.611-9.9-12.242-15.498M56.817 49.565a52.978 52.978 0 01-4.954-3.201c-.469-.341-1.007-.367-1.204-.06-.196.309.025.835.493 1.176a56.127 56.127 0 005.262 3.399c.207.119.414.176.592.176.248 0 .442-.111.507-.322.111-.363-.2-.886-.696-1.168M75.8 55.16c-4.868 0-10.25-1.321-15.57-3.823-.506-.238-.958-.112-1.01.282-.053.394.314.905.82 1.143 5.651 2.659 11.371 4.063 16.542 4.063.46 0 .656-.372.441-.832-.217-.46-.764-.832-1.224-.832M71.843 8.673a53.081 53.081 0 0110.553 8.787c3.203 3.468 5.743 7.174 7.548 11.014.216.46.763.832 1.223.832s.657-.372.441-.832c-1.917-4.079-4.615-8.016-8.02-11.702a56.342 56.342 0 00-11.209-9.334c-.486-.308-1-.282-1.148.06-.148.341.126.867.612 1.175M64.115 4.657a48.191 48.191 0 014.428 2.09 1.2 1.2 0 00.555.154c.26 0 .46-.12.516-.348.09-.375-.24-.894-.74-1.162a51.183 51.183 0 00-4.704-2.219c-.507-.207-.931-.044-.947.366-.015.411.385.911.892 1.12M50.716 1.788c2.948 0 6.07.478 9.276 1.419.103.03.2.045.29.045.346 0 .567-.218.522-.565-.057-.435-.51-.907-1.016-1.056-3.408-1-6.723-1.508-9.855-1.508-.459 0-.657.373-.44.833.215.459.763.832 1.223.832M36.791 1.572c.31-.21.234-.712-.168-1.12-.402-.409-.979-.57-1.29-.359-3.009 2.043-5.134 4.845-6.315 8.327-.12.358.181.881.674 1.171.213.124.426.185.61.185.242 0 .433-.106.502-.309 1.12-3.3 3.134-5.957 5.987-7.895M29.356 10.908c-.503-.25-.967-.14-1.036.246a21.216 21.216 0 00-.287 2.495c-.022.407.37.91.878 1.124.154.065.3.096.43.096.3 0 .514-.162.53-.445.045-.805.136-1.6.272-2.365.068-.386-.284-.9-.787-1.15M96.823 47.358c-.493-.29-.991-.233-1.112.124-1.12 3.3-3.135 5.957-5.988 7.895-.309.21-.234.712.168 1.12.283.288.651.453.953.453.128 0 .245-.03.337-.093 3.01-2.045 5.135-4.847 6.316-8.328.12-.358-.181-.882-.674-1.171M97.608 41.939c-.507-.211-.934-.05-.952.358-.04.884-.135 1.756-.284 2.592-.068.386.284.902.787 1.152.182.089.36.133.515.133.272 0 .477-.133.52-.38.157-.881.258-1.801.3-2.735.018-.408-.378-.91-.886-1.12M70.794 44.51c-8.842 0-19.416-7.194-23.571-16.036-4.156-8.84-.343-16.035 8.499-16.035s19.416 7.194 23.57 16.035c4.156 8.842.344 16.035-8.498 16.035M54.94 10.775c-9.76 0-13.968 7.94-9.382 17.7 4.587 9.76 16.258 17.7 26.018 17.7s13.968-7.94 9.382-17.7c-4.587-9.76-16.26-17.7-26.018-17.7M36.994 5.788c-.446-.37-1.004-.45-1.247-.178-1.528 1.714-2.616 3.766-3.233 6.1-.098.37.227.89.725 1.163.199.109.397.162.567.162.256 0 .454-.118.512-.34.582-2.198 1.606-4.13 3.045-5.743.242-.273.077-.793-.37-1.164M90.57 51.558c1.633-1.757 2.788-3.883 3.432-6.318.098-.37-.226-.892-.725-1.164s-.982-.193-1.08.178c-.606 2.293-1.694 4.295-3.231 5.95-.25.266-.091.787.352 1.16.269.227.582.348.842.348.167 0 .312-.05.41-.154" mask="url(#a)" transform="translate(1 23)"/>
    </g>
</svg>
