<svg xmlns="http://www.w3.org/2000/svg" width="358" height="64" viewBox="0 0 358 64" fill="none"><path d="M36.3252 35.8209C36.8664 37.1245 37.2858 38.2635 37.76 39.5183C37.8516 39.7607 37.8487 40.0288 37.7369 40.2626C36.2757 43.3176 32.2244 48 27.3177 48C20.5812 48 15.9318 43.1536 16.0008 34.3584C16.0698 25.5631 22.0511 17 27.3177 17C32.366 17 35.6674 20.3577 38.2896 25.5631L41.3978 17.635C41.5479 17.252 41.9174 17 42.3288 17H45.6576C46.3412 17 46.8233 17.6706 46.6055 18.3186L41.6467 33.0725C43.5398 37.4095 45.4597 41.4829 46.7773 41.5381C47.9986 41.5894 48.9341 40.7207 49.501 39.9006C49.5699 39.8011 49.8106 39.8917 49.7836 40.0097C47.4231 50.3123 43.1639 46.8477 38.8328 36.1063C34.5816 25.5631 32.1019 20.821 28.2507 20.821C24.3996 20.821 20.416 31.0923 21.7322 38.9995C23.5505 49.9227 31.0656 44.3634 34.353 35.92C34.6924 35.0483 35.9665 34.9569 36.3252 35.8209Z" fill="#FEFEFE"></path><path fill-rule="evenodd" clip-rule="evenodd" d="M2 10H14V15.8047H8.30959V49.1953H14V55H2V10Z" fill="#FEFEFE"></path><path fill-rule="evenodd" clip-rule="evenodd" d="M62 10H51V15.8047H56.2162V49.1953H51V55H62V10Z" fill="#FEFEFE"></path><path d="M112.204 45.5932V41.8305H110.983C109.56 41.8305 109.102 41.2203 109.102 39.8983V28.4576C109.102 23.9322 106.305 19.5593 99.2883 19.5593C92.3221 19.5593 89.2204 23.8305 88.661 27.3898L92.9323 27.8983C93.339 26.0678 94.4577 23.1695 99.1357 23.1695C104.119 23.1695 104.678 26.7797 104.678 27.8475C104.678 28.5593 104.475 29.4237 103.102 29.678L95.6781 30.9492C91.1017 31.7119 88 34.2542 88 38.7797C88 42.5424 90.7966 46.2034 96.8476 46.2034C100.407 46.2034 103.153 44.678 104.882 41.9831C105.187 44.8305 107.932 45.5932 109.712 45.5932H112.204ZM92.4746 38.4746C92.4746 36.4915 93.5424 34.7627 96.5933 34.2542L104.729 32.8305V34.3051C104.729 39.3898 101.475 42.5932 97.356 42.5932C93.9492 42.5932 92.4746 40.7627 92.4746 38.4746Z" fill="#FEFEFE"></path><path d="M118.362 41.8814V45.5932H141.905V41.8814H132.396V10H118.362V13.7119H127.871V41.8814H118.362Z" fill="#FEFEFE"></path><path d="M160.623 19.5593C156.759 19.5593 154.064 21.339 152.284 23.9831V20.1695H147.86V55H152.386V42.0847C154.165 44.5763 156.86 46.2034 160.623 46.2034C167.691 46.2034 171.962 40.5593 171.962 32.678C171.962 24.8475 167.64 19.5593 160.623 19.5593ZM159.962 23.4237C164.742 23.4237 167.335 27.4407 167.335 32.8814C167.335 38.322 164.742 42.2881 159.962 42.2881C155.182 42.2881 152.284 38.2712 152.284 32.8814C152.284 27.339 155.131 23.4237 159.962 23.4237Z" fill="#FEFEFE"></path><path d="M200.494 45.5932V29.1186C200.494 23.8814 197.494 19.5593 190.934 19.5593C187.273 19.5593 184.731 21.0339 183.155 23.2712V10H178.629V45.5932H183.155V31.5593C183.155 26.2712 185.494 23.4746 189.968 23.4746C193.782 23.4746 195.968 25.8136 195.968 29.9322V45.5932H200.494Z" fill="#FEFEFE"></path><path d="M232.229 45.5932V41.8305H231.009C229.585 41.8305 229.127 41.2203 229.127 39.8983V28.4576C229.127 23.9322 226.331 19.5593 219.314 19.5593C212.347 19.5593 209.246 23.8305 208.686 27.3898L212.958 27.8983C213.364 26.0678 214.483 23.1695 219.161 23.1695C224.144 23.1695 224.703 26.7797 224.703 27.8475C224.703 28.5593 224.5 29.4237 223.127 29.678L215.703 30.9492C211.127 31.7119 208.025 34.2542 208.025 38.7797C208.025 42.5424 210.822 46.2034 216.873 46.2034C220.432 46.2034 223.178 44.678 224.907 41.9831C225.212 44.8305 227.958 45.5932 229.737 45.5932H232.229ZM212.5 38.4746C212.5 36.4915 213.568 34.7627 216.619 34.2542L224.754 32.8305V34.3051C224.754 39.3898 221.5 42.5932 217.381 42.5932C213.975 42.5932 212.5 40.7627 212.5 38.4746Z" fill="#FEFEFE"></path><path d="M236.964 45.5932V49.4068H261.778V45.5932H236.964Z" fill="#FEFEFE"></path><path d="M268.394 41.8814V45.5932H291.937V41.8814H282.428V10H268.394V13.7119H277.902V41.8814H268.394Z" fill="#FEFEFE"></path><path d="M322.248 45.5932V41.8305H321.028C319.604 41.8305 319.146 41.2203 319.146 39.8983V28.4576C319.146 23.9322 316.35 19.5593 309.333 19.5593C302.366 19.5593 299.265 23.8305 298.705 27.3898L302.977 27.8983C303.383 26.0678 304.502 23.1695 309.18 23.1695C314.163 23.1695 314.722 26.7797 314.722 27.8475C314.722 28.5593 314.519 29.4237 313.146 29.678L305.722 30.9492C301.146 31.7119 298.044 34.2542 298.044 38.7797C298.044 42.5424 300.841 46.2034 306.892 46.2034C310.451 46.2034 313.197 44.678 314.926 41.9831C315.231 44.8305 317.977 45.5932 319.756 45.5932H322.248ZM302.519 38.4746C302.519 36.4915 303.587 34.7627 306.638 34.2542L314.773 32.8305V34.3051C314.773 39.3898 311.519 42.5932 307.4 42.5932C303.993 42.5932 302.519 40.7627 302.519 38.4746Z" fill="#FEFEFE"></path><path d="M340.661 19.5593C336.847 19.5593 334.203 21.2881 332.423 23.8305V10H327.898V45.5932H332.322V41.9322C334.101 44.5254 336.847 46.2034 340.661 46.2034C347.729 46.2034 352 40.5593 352 32.678C352 24.8475 347.678 19.5593 340.661 19.5593ZM340 23.4237C344.78 23.4237 347.373 27.4407 347.373 32.8814C347.373 38.322 344.78 42.2881 340 42.2881C335.22 42.2881 332.322 38.2712 332.322 32.8814C332.322 27.339 335.169 23.4237 340 23.4237Z" fill="#FEFEFE"></path></svg>