<svg width="166" height="185" viewBox="0 0 166 185" fill="none" xmlns="http://www.w3.org/2000/svg">
<path fill-rule="evenodd" clip-rule="evenodd" d="M165.276 56.9359C165.276 49.1388 161.116 41.934 154.364 38.0354L93.5499 2.92391C86.7975 -0.974638 78.4782 -0.974635 71.7259 2.92391L10.912 38.0354C4.15963 41.934 4.4275e-06 49.1388 4.4275e-06 56.9359L0 127.159C-6.99566e-07 134.956 4.15964 142.161 10.912 146.059L71.7259 181.171C78.4782 185.069 86.7975 185.069 93.5499 181.171L154.364 146.059C161.116 142.161 165.276 134.956 165.276 127.159V56.9359ZM64.0936 48.4204C59.976 48.4204 56.1712 50.6171 54.1124 54.1831L35.5702 86.2997C33.5114 89.8657 33.5114 94.2592 35.5702 97.8252L54.1124 129.942C56.1712 133.508 59.976 135.705 64.0936 135.705H101.178C105.296 135.705 109.1 133.508 111.159 129.942L129.701 97.8252C131.76 94.2592 131.76 89.8657 129.701 86.2997L111.159 54.1831C109.1 50.6171 105.296 48.4204 101.178 48.4204H64.0936Z" fill="#FA2F79"/>
</svg>
