<?xml version="1.0" encoding="utf-8"?>
<!-- Generator: Adobe Illustrator 27.2.0, SVG Export Plug-In . SVG Version: 6.00 Build 0)  -->
<svg version="1.1" id="Layer_1" xmlns="http://www.w3.org/2000/svg" xmlns:xlink="http://www.w3.org/1999/xlink" x="0px" y="0px"
	 viewBox="0 0 1579.4 1579.4" style="enable-background:new 0 0 1579.4 1579.4;" xml:space="preserve">
<style type="text/css">
	.st0{fill:#FFFFFF;}
</style>
<rect y="0" width="1579.4" height="1579.4"/>
<g>
	<path class="st0" d="M557.3,671.7l-119.8-61c-9.4,18.4-17.3,37.7-23.7,57.4l127.9,41.4C545.9,696.5,551.1,683.8,557.3,671.7z"/>
	<path class="st0" d="M659,564.2l66.3,114.3c9.7-5.6,20.1-9.9,30.8-12.8l-34.3-127.6c8.7-2.3,17.6-4.3,26.6-5.7l-21.1-132.8
		c-20.4,3.2-40.7,8.1-60.3,14.5l41,125.8c-13.1,4.3-25.8,9.6-38,15.8L609.8,438c-18.3,9.4-36.1,20.3-52.7,32.5L636.3,579
		C643.6,573.7,651.2,568.8,659,564.2z"/>
	<path class="st0" d="M1015.1,658.9l-114.3,66.4c5.6,9.7,10,20.1,12.9,30.8l127.6-34.4c2.4,8.7,4.3,17.6,5.7,26.5l132.8-21.1
		c-3.2-20.4-8.1-40.7-14.6-60.3L1039.5,708c-4.3-13.1-9.6-25.8-15.8-38l117.7-60.4c-9.4-18.3-20.3-36.1-32.5-52.7l-108.5,79.3
		C1005.6,643.5,1010.5,651.1,1015.1,658.9z"/>
	<path class="st0" d="M968.5,437.4c-18.4-9.4-37.7-17.3-57.4-23.7l-41.3,127.9c12.9,4.2,25.6,9.4,37.8,15.6L968.5,437.4z"/>
	<path class="st0" d="M920.7,561.9l-67.1,116.5c9.7,5.6,18.7,12.5,26.6,20.4l188.2-188.9c-14.6-14.6-30.5-28.1-47.1-40.2
		l-77.6,107.1C936.3,571.4,928.7,566.4,920.7,561.9z"/>
	<path class="st0" d="M561.9,658.5l116.4,67.2c5.6-9.7,12.5-18.7,20.4-26.7L510,510.7c-14.6,14.6-28.1,30.5-40.2,47.1l107,77.7
		C571.5,642.9,566.5,650.6,561.9,658.5z"/>
	<path class="st0" d="M830.4,530.1l20.3-130.7c-20.1-3.1-40.6-4.7-61.1-4.7h-0.3v266.6h0.3c11.2,0,22.4,1.4,33.1,4.3l34.5-129.9
		C848.4,533.3,839.5,531.5,830.4,530.1z"/>
	<path class="st0" d="M665.6,756.6L535.7,722c-2.3,8.8-4.2,17.8-5.6,26.8l-130.7-20.4c-3.1,20.1-4.7,40.8-4.7,61.3h266.6
		C661.3,778.4,662.8,767.3,665.6,756.6z"/>
	<path class="st0" d="M1022.1,907.7l119.8,61c9.4-18.4,17.3-37.7,23.7-57.4l-127.9-41.4C1033.5,882.9,1028.3,895.6,1022.1,907.7z"/>
	<path class="st0" d="M920.3,1015.1L854,900.8c-9.7,5.6-20.1,9.9-30.8,12.8l34.3,127.6c-8.7,2.3-17.6,4.3-26.6,5.7l21.1,132.8
		c20.4-3.2,40.7-8.1,60.3-14.5l-41-125.8c13.1-4.3,25.8-9.6,38-15.8l60.3,117.7c18.3-9.4,36.1-20.3,52.7-32.5l-79.2-108.6
		C935.8,1005.7,928.2,1010.6,920.3,1015.1z"/>
	<path class="st0" d="M564.3,920.5L678.6,854c-5.6-9.7-10-20.1-12.9-30.8l-127.6,34.4c-2.4-8.7-4.3-17.6-5.7-26.5l-132.8,21.1
		c3.2,20.4,8.1,40.7,14.6,60.3l125.7-41.1c4.3,13,9.6,25.8,15.8,38l-117.7,60.4c9.4,18.3,20.3,36.1,32.5,52.7l108.5-79.3
		C573.8,935.9,568.9,928.3,564.3,920.5z"/>
	<path class="st0" d="M610.9,1142c18.4,9.4,37.7,17.3,57.4,23.7l41.3-127.9c-12.9-4.2-25.6-9.4-37.8-15.6L610.9,1142z"/>
	<path class="st0" d="M658.6,1017.5L725.7,901c-9.7-5.6-18.7-12.5-26.6-20.4l-188.2,188.9c14.6,14.6,30.5,28.1,47.1,40.2l77.6-107.1
		C643,1007.9,650.7,1012.9,658.6,1017.5z"/>
	<path class="st0" d="M1017.4,920.9L901,853.7c-5.6,9.7-12.5,18.7-20.4,26.7l188.8,188.3c14.6-14.6,28.1-30.5,40.2-47.1l-107-77.7
		C1007.9,936.4,1012.9,928.8,1017.4,920.9z"/>
	<path class="st0" d="M756.6,913.8l-34.5,129.9c8.8,2.3,17.8,4.2,26.8,5.6L728.6,1180c20.1,3.1,40.6,4.7,61.1,4.7h0.3V918.1h-0.3
		C778.5,918.1,767.3,916.6,756.6,913.8z"/>
	<path class="st0" d="M918.1,789.7c0,11.3-1.4,22.4-4.3,33.1l129.9,34.6c2.3-8.8,4.2-17.8,5.6-26.8L1180,851
		c3.1-20.1,4.7-40.8,4.7-61.3H918.1z"/>
</g>
</svg>
