<svg width="120" height="120" viewBox="0 0 120 120" fill="none" xmlns="http://www.w3.org/2000/svg">
<rect width="120" height="120" fill="white"/>
<path fill-rule="evenodd" clip-rule="evenodd" d="M34.098 94.567C23.721 86.817 17.003 74.443 17.003 60.5C17.003 37.028 36.043 18 59.528 18C78.912 18 100.079 29.577 105.198 47.307C99.479 27.494 81.2 13 59.529 13C33.28 13 12 34.267 12 60.5C12 86.734 33.28 108 59.528 108C85.778 108 107.057 86.734 107.057 60.5V58H104.445L104.097 57.995C102.182 57.9598 100.268 57.8601 98.36 57.696C94.794 57.386 90.727 56.782 87.957 55.676C83.501 53.897 80.985 51.539 78.11 48.78L77.944 48.62C75.064 45.856 71.828 42.75 66.221 40.113C60.698 37.515 54.59 37.932 50.101 38.855C48.1932 39.2499 46.3161 39.7806 44.484 40.443C43.79 40.694 43.234 40.918 42.844 41.082C40.585 42.032 38.393 43.157 36.176 44.2C36.176 44.2 40.526 45.392 42.676 46.058C43.2521 46.2424 43.8212 46.4482 44.382 46.675C45.81 47.2482 47.1824 47.9512 48.482 48.775C50.802 50.265 52.726 52.141 53.515 54.444C48.59 55.091 43.97 57.252 40.515 59.283C38.7658 60.3132 37.077 61.4427 35.457 62.666C34.846 63.129 34.361 63.516 34.027 63.792C33.745 64.024 29.297 67.942 29.297 67.942C29.297 67.942 35.035 68.552 37.867 69.122C39.75 69.502 42.289 70.112 44.938 71.035C47.599 71.963 50.288 73.179 52.518 74.735C54.754 76.295 56.391 78.097 57.198 80.161C59.552 86.171 57.243 92.025 52.607 95.318C48.027 98.572 41.062 99.346 34.098 94.567ZM50.315 102C52.1672 101.4 53.9172 100.521 55.505 99.394C61.814 94.912 65.133 86.704 61.858 78.339C60.571 75.053 58.112 72.539 55.382 70.635C52.647 68.727 49.499 67.33 46.587 66.315C44.8181 65.7024 43.0203 65.1768 41.2 64.74C41.8078 64.3432 42.4246 63.9604 43.05 63.592C46.901 61.329 51.75 59.25 56.4 59.25C63.41 59.25 68.63 61.4 73.614 63.706C74.067 63.916 74.522 64.129 74.979 64.343C79.433 66.432 84.11 68.625 89.545 68.625C94.815 68.625 98.921 67.135 101.75 65.595C99.232 86.666 81.29 103 59.528 103C56.365 103 53.282 102.655 50.315 102ZM96.345 62.525C94.472 63.164 92.201 63.625 89.546 63.625C85.283 63.625 81.62 61.918 76.969 59.751L75.717 59.169C71.061 57.014 65.674 54.73 58.661 54.316C57.721 49.676 54.201 46.506 51.188 44.569C50.8582 44.3573 50.5238 44.1529 50.185 43.956C50.485 43.886 50.795 43.816 51.109 43.752C55.159 42.919 59.996 42.711 64.091 44.637C68.952 46.923 71.694 49.555 74.547 52.293L74.645 52.387C77.58 55.204 80.685 58.157 86.101 60.319C89.111 61.52 93.005 62.166 96.345 62.525Z" fill="url(#paint0_linear_8_44046)"/>
<defs>
<linearGradient id="paint0_linear_8_44046" x1="11.148" y1="61.378" x2="107.909" y2="59.607" gradientUnits="userSpaceOnUse">
<stop stop-color="#29CCB9"/>
<stop offset="0.49" stop-color="#0091FF"/>
<stop offset="1" stop-color="#FF66B7"/>
</linearGradient>
</defs>
</svg>
