<svg width="800" height="800" viewBox="-100 -100 1000 1000" fill="none" xmlns="http://www.w3.org/2000/svg">
<rect x="-100" y="-100" width="1000" height="1000" fill="#000000"/>
<path d="M164.648 280.523L43.3418 218.761C33.8532 237.404 25.7722 256.948 19.3418 276.857L148.871 318.74C153.104 305.647 158.41 292.796 164.658 280.533L164.648 280.523Z" fill="#FFFFFF"/>
<path d="M267.696 171.675L334.886 287.442C344.698 281.751 355.2 277.377 366.126 274.44L331.352 145.174C340.202 142.795 349.195 140.83 358.238 139.402L336.871 4.9516C316.202 8.23261 295.666 13.1845 275.817 19.6554L317.367 146.997C304.152 151.311 291.281 156.668 278.886 163.007L217.812 43.7971C199.24 53.3161 181.276 64.3743 164.395 76.6984L244.648 186.653C252.04 181.265 259.767 176.273 267.686 171.665L267.696 171.675Z" fill="#FFFFFF"/>
<path d="M628.243 267.574L512.517 334.824C518.218 344.627 522.593 355.138 525.539 366.045L654.795 331.209C657.175 340.06 659.139 349.042 660.577 358.075L795.008 336.667C791.717 316.009 786.755 295.462 780.264 275.604L652.942 317.235C648.618 304.019 643.261 291.159 636.912 278.764L756.081 217.609C746.562 199.057 735.484 181.093 723.16 164.222L613.236 244.526C618.633 251.918 623.626 259.635 628.233 267.564L628.243 267.574Z" fill="#FFFFFF"/>
<path d="M581.053 43.2434C562.39 33.7649 542.846 25.694 522.957 19.2738L481.145 148.823C494.228 153.046 507.089 158.352 519.372 164.59L581.053 43.2332V43.2434Z" fill="#FFFFFF"/>
<path d="M532.72 169.299L464.761 287.244C474.604 292.915 483.677 299.861 491.748 307.902L682.351 116.651C667.566 101.917 651.505 88.2362 634.614 75.9831L556.001 184.398C548.508 178.97 540.751 173.917 532.73 169.289L532.72 169.299Z" fill="#FFFFFF"/>
<path d="M169.377 267.152L287.291 335.182C292.962 325.349 299.929 316.266 307.979 308.185L116.81 117.511C102.065 132.296 88.3743 148.347 76.1211 165.228L184.496 243.891C179.068 251.374 174.005 259.131 169.377 267.152Z" fill="#FFFFFF"/>
<path d="M441.265 137.104L461.832 4.75949C441.508 1.6 420.708 0 399.999 0H399.686V270.015H399.999C411.382 270.015 422.643 271.473 433.478 274.349L468.394 142.775C459.463 140.405 450.41 138.532 441.265 137.104Z" fill="#FFFFFF"/>
<path d="M274.36 366.468L142.805 331.46C140.425 340.392 138.542 349.445 137.114 358.589L4.78988 337.962C1.61013 358.357 0 379.238 0 400.007H270.015C270.015 388.605 271.484 377.313 274.37 366.468H274.36Z" fill="#FFFFFF"/>
<path d="M635.352 519.483L756.658 581.244C766.147 562.601 774.228 543.057 780.658 523.148L651.129 481.265C646.896 494.358 641.59 507.209 635.342 519.472L635.352 519.483Z" fill="#FFFFFF"/>
<path d="M532.306 628.315L465.116 512.548C455.304 518.239 444.803 522.614 433.876 525.551L468.651 654.816C459.79 657.196 450.808 659.161 441.765 660.588L463.122 795.029C483.79 791.748 504.327 786.796 524.175 780.325L482.625 652.983C495.851 648.669 508.711 643.313 521.106 636.973L582.18 756.183C600.752 746.664 618.717 735.606 635.598 723.282L555.344 613.328C547.952 618.715 540.225 623.707 532.306 628.315Z" fill="#FFFFFF"/>
<path d="M171.759 532.43L287.496 465.18C281.794 455.377 277.42 444.866 274.473 433.959L145.217 468.795C142.837 459.944 140.873 450.962 139.435 441.929L4.99414 463.337C8.28528 483.995 13.2473 504.542 19.7385 524.4L147.06 482.769C151.384 495.985 156.741 508.845 163.09 521.24L43.9207 582.395C53.4397 600.946 64.5182 618.911 76.8423 635.782L186.766 555.478C181.369 548.086 176.377 540.369 171.769 532.44L171.759 532.43Z" fill="#FFFFFF"/>
<path d="M218.947 756.762C237.611 766.24 257.155 774.311 277.043 780.731L318.856 651.182C305.773 646.959 292.912 641.653 280.628 635.415L218.947 756.772V756.762Z" fill="#FFFFFF"/>
<path d="M267.283 630.707L335.242 512.763C325.399 507.092 316.326 500.145 308.255 492.105L117.652 683.355C132.437 698.089 148.498 711.77 165.389 724.023L244.002 615.608C251.495 621.036 259.252 626.089 267.273 630.717L267.283 630.707Z" fill="#FFFFFF"/>
<path d="M630.622 532.849L512.708 464.819C507.037 474.652 500.07 483.735 492.02 491.816L683.179 682.499C697.923 667.715 711.615 651.664 723.868 634.783L615.493 556.12C620.921 548.636 625.984 540.879 630.612 532.859L630.622 532.849Z" fill="#FFFFFF"/>
<path d="M366.522 525.652L331.605 657.226C340.537 659.596 349.59 661.469 358.735 662.897L338.178 795.241C358.502 798.401 379.302 800.001 400.011 800.001H400.325V529.986H400.011C388.628 529.986 377.368 528.528 366.532 525.652H366.522Z" fill="#FFFFFF"/>
<path d="M529.986 400.004C529.986 411.406 528.518 422.687 525.632 433.543L657.186 468.551C659.566 459.619 661.45 450.566 662.878 441.422L795.212 462.059C798.402 441.665 800.002 420.784 800.002 400.014H529.986V400.004Z" fill="#FFFFFF"/>
</svg>
