<?xml version="1.0" encoding="utf-8"?>
<!-- Generator: Adobe Illustrator 26.4.1, SVG Export Plug-In . SVG Version: 6.00 Build 0)  -->
<svg version="1.1" id="Capa_1" xmlns="http://www.w3.org/2000/svg" xmlns:xlink="http://www.w3.org/1999/xlink" x="0px" y="0px"
	 viewBox="0 0 189.3 200" style="enable-background:new 0 0 189.3 200;" xml:space="preserve">
<style type="text/css">
	.st0{fill-rule:evenodd;clip-rule:evenodd;fill:#FFA723;}
</style>
<g>
	<g>
		<path class="st0" d="M76.6,90.6c2.1,4.6-1.2,10.1-6.5,10.1c-3,0-7.1-2.4-7.1-7.1c0-10-3-14.8-6.4-16.2c0,20.3-13.9,27.7-13.9,50.7
			s13.7,40.9,33,48.4c-6.2-5.3-10.1-13.2-10.1-22c0-26.8,34.5-33.5,21.8-61.7c5,6.6,14,38.6,3.5,59.7c6.4-3.4,17-15.1,21.1-21.1
			c-5.1,28,0.9,25.9,6.3,23.8c2.1-0.8,4-1.6,5.3-0.8c2.3,1.6-3.9,16.7-10.1,22c19.3-7.6,33-26.4,33-48.4c0-49-61.2-51.5-44.4-104.6
			C86,31.2,60.7,56.2,76.6,90.6L76.6,90.6z"/>
	</g>
</g>
</svg>
