<svg width="198" height="198" viewBox="0 0 135 198" fill="none" xmlns="http://www.w3.org/2000/svg">
<path fill-rule="evenodd" clip-rule="evenodd" d="M43.9721 86.5374C46.7508 92.4918 42.5165 99.6371 35.6359 99.6371C31.6663 99.6371 26.5058 96.4614 26.5058 90.3747C26.5058 77.4073 22.6685 71.1883 18.3019 69.4681C18.3019 95.6675 0.306396 105.327 0.306396 135.099C0.306396 164.871 18.0373 187.895 43.0458 197.819C35.1066 190.938 30.0784 180.749 30.0784 169.37C30.0784 134.702 74.6704 125.969 58.2627 89.5808C64.7463 98.1816 76.3905 139.598 62.7615 166.856C71.0977 162.489 84.859 147.405 90.0195 139.598C83.4035 175.854 91.2104 173.075 98.2234 170.428C100.87 169.37 103.516 168.311 105.104 169.502C108.147 171.487 100.076 191.07 92.1366 197.951C117.145 188.159 134.876 163.812 134.876 135.231C134.876 71.7176 55.6162 68.5419 77.4491 0C56.2779 9.65938 23.5948 42.0778 43.9721 86.5374Z" fill="#FFA723"/>
</svg>
