<?xml version="1.0" encoding="UTF-8"?>
<svg id="Layer_1" xmlns="http://www.w3.org/2000/svg" version="1.1" viewBox="0 0 1391.9 1388.8">
  <!-- Generator: Adobe Illustrator 29.1.0, SVG Export Plug-In . SVG Version: 2.1.0 Build 142)  -->
  <defs>
    <style>
      .st0 {
        fill: #fff;
      }

      .st1 {
        fill-rule: evenodd;
      }

      .st1, .st2 {
        fill: #302c2d;
      }

      .st3 {
        fill: none;
        stroke: #302c2d;
        stroke-linecap: round;
        stroke-miterlimit: 12;
        stroke-width: 6px;
      }
    </style>
  </defs>
  <rect class="st0" width="1391.9" height="1388.8"/>
  <g>
    <path class="st1" d="M685.7,30l-29,.2-28.7,2.5-22.9,3.2-27.3,4.2-28.3,5.8-25,6.6-22.9,7.2-27.8,8.1-28.2,11-28.7,11.1-56.4,31.6-60.5,39.4-51,40.5-46.7,48.8-29.1,33.5-26.7,36.6-26.8,42.8-21,39.1-16.1,36.2-14.1,33.2-10.4,36.2-9.1,36.1-6.4,33.7-6.5,36.8-4.4,50.1-1.8,42.6,2.2,36.8,4.4,42.5,6.5,37.7,8.7,38.4,13.1,39.7,12.2,33.6,11.7,29.7,12.9,31.6,19.4,32.7,21.8,35.8,20.9,29,22.2,26.7,35.5,38.7,31.1,29.9,33.5,29.9,37.4,27.3,39.4,23.9,32.9,17.7,37.2,17.1,39.1,15.1,45.1,14.7,44.5,10,47.2,7.6,45.7,4.7,47.4,1,45.1-.6,43.1-5.1,44.7-7.3,45.1-12.8,40.9-13.9,36.8-13.7,35.6-16.3,34.4-17.9,29.1-17.3,30.5-22.5,26.8-21.8,25.9-22.5,27.7-25.3,23.8-25.5,23.9-27.2,18.7-23.9,20.9-28.3,34.6-60.9,25.7-56.8,20.7-59.8,8.1-32.7,6-30.7,5.3-36.1,3.9-31.7,1.9-33.8.5-38.2-2.9-38.1-4.3-33.5-6.6-38.7-6.5-32.6-10.1-37.5-13.5-42-11-24.4-9.9-20.1-12.3-25.6-12.5-23.3-15.4-25.7-19.1-27.6-15.3-21.8-20.4-23.7-24.6-28.5-24.1-24-27.4-23.4-30-23.6-24.9-17.6-31.8-20.2-30.1-16.9-34-18-28.3-12.3-25.2-9-29-7.7-27.6-8.5-49.4-11.5-28.9-4.2-32.5-3.9-32.3-1.9-31.4-.3.4,52.3-1.9,50.2,40.4,1.5,40.2,2.7,49.4,8.2,24.1,5.9,24.2,6.8,23.2,8.1,18.8,7.8,22.7,9.3,22.3,9.8,22.7,12.7,23.6,14.9,20.7,15.4,23.4,17.2,20.5,15.2,17.4,16.3,32.5,34.3,16.2,20.6,18.8,23.4,14.9,20.2,14.4,21.3,21.8,42.4,19.9,44.7,15.4,46.3,11.8,44.1,5.3,46.2,3.5,40.7.6,43.1-1.4,41.4-6.1,38.7-8.2,35.3-8.5,32.5-9.6,28.9-25,60.4-31.7,52.4-36.2,51.8-40.7,43.4-45.7,39-51.8,37.1-49.1,26.9-32,14.8-47.8,17.7-43.1,10.8-53.5,9.9-35.3,2.9h-32.6s-29.2.4-29.2.4l-32-2.1-24.8-4.2-29.6-4.8-28.6-5.6-32-9.8-26.6-10-27.1-10.4-43.9-23.2-40.8-26.2-34.7-22.4-34.2-28.7-36.6-36-29.8-36.2-23.4-33.9-22.4-37.3-21.3-40.1-16.1-43.4-14-41.3-8.9-44.2-6.1-45.5-3-45.4-.7-24.9,1.9-25.4,3.2-30.1,4.7-29.7,6.9-34.3,10.2-41.3,11.6-33.3,14.5-30.7,15.4-30.3,17.9-32.2,31.9-43.8,34.6-41,42.4-39.9,39.1-32.6,50.1-30.5,51.2-27.3,46-16.3,39.1-11.7,36.8-8.5,32.3-5.4,35.4-2,33.2-1.3-1.5-102.1-5.3,7.1"/>
    <path class="st3" d="M685.7,30c-11.2,0-22.5.2-29,.2M685.7,30c-9.9,0-19.7.2-29,.2M656.7,30.2c-6,.5-12,1-28.7,2.5M656.7,30.2c-8.1.7-16.1,1.4-28.7,2.5M628,32.7c-7.2,1-14.3,2-22.9,3.2M628,32.7c-8.6,1.2-17.1,2.4-22.9,3.2M605,35.9c-7.8,1.2-15.6,2.4-27.3,4.2M605,35.9c-10.1,1.6-20.3,3.1-27.3,4.2M577.7,40.1c-11.2,2.3-22.3,4.5-28.3,5.8M577.7,40.1c-11,2.2-22,4.5-28.3,5.8M549.4,45.8c-9.7,2.5-19.3,5.1-25,6.6M549.4,45.8c-8.5,2.2-17,4.5-25,6.6M524.4,52.5c-4.7,1.5-9.3,2.9-22.9,7.2M524.4,52.5c-6.3,2-12.5,3.9-22.9,7.2M501.5,59.7c-10.8,3.1-21.7,6.3-27.8,8.1M501.5,59.7c-6.3,1.8-12.5,3.7-27.8,8.1M473.7,67.8c-5.6,2.2-11.3,4.4-28.2,11M473.7,67.8c-9.8,3.8-19.5,7.6-28.2,11M445.6,78.8c-6.1,2.4-12.3,4.7-28.7,11.1M445.6,78.8c-10.1,3.9-20.2,7.8-28.7,11.1M416.9,89.9c-13.4,7.5-26.8,15-56.4,31.6M416.9,89.9c-14.6,8.2-29.3,16.4-56.4,31.6M360.5,121.5c-19.5,12.7-38.9,25.4-60.5,39.4M360.5,121.5c-13.7,8.9-27.5,17.9-60.5,39.4M300,160.9c-13.4,10.6-26.7,21.2-51,40.5M300,160.9c-15.2,12-30.3,24.1-51,40.5M249,201.4c-10.1,10.6-20.2,21.2-46.7,48.8M249,201.4c-11,11.6-22.1,23.1-46.7,48.8M202.3,250.3c-6.1,7-12.2,14.1-29.1,33.5M202.3,250.3c-8,9.3-16.1,18.5-29.1,33.5M173.2,283.7c-9.2,12.6-18.4,25.3-26.7,36.6M173.2,283.7c-9.4,12.9-18.8,25.9-26.7,36.6M146.6,320.3c-8.4,13.4-16.7,26.7-26.8,42.8M146.6,320.3c-6.7,10.7-13.3,21.3-26.8,42.8M119.7,363.1c-8.3,15.5-16.7,30.9-21,39.1M119.7,363.1c-4.9,9-9.7,18.1-21,39.1M98.7,402.2c-6.3,14.1-12.5,28.2-16.1,36.2M98.7,402.2c-6.4,14.4-12.8,28.7-16.1,36.2M82.6,438.4c-5.6,13.2-11.3,26.5-14.1,33.2M82.6,438.4c-4.3,10.2-8.7,20.4-14.1,33.2M68.5,471.6c-3.7,12.9-7.4,25.8-10.4,36.2M68.5,471.6c-3.5,12.1-7,24.3-10.4,36.2M58.1,507.7c-2.1,8.2-4.1,16.4-9.1,36.1M58.1,507.7c-2.8,10.9-5.5,21.8-9.1,36.1M49.1,543.8c-2,10.8-4.1,21.6-6.4,33.7M49.1,543.8c-1.4,7.3-2.8,14.5-6.4,33.7M42.7,577.5c-1.9,10.9-3.8,21.8-6.5,36.8M42.7,577.5c-2.1,11.6-4.1,23.3-6.5,36.8M36.2,614.2c-1.2,13.9-2.4,27.8-4.4,50.1M36.2,614.2c-.9,10.9-1.9,21.7-4.4,50.1M31.8,664.3c-.5,11.1-1,22.2-1.8,42.6M31.8,664.3c-.6,14.4-1.2,28.8-1.8,42.6M30,707c.5,8.1,1,16.2,2.2,36.8M30,707c.6,9.3,1.1,18.7,2.2,36.8M32.2,743.7c1.4,13.7,2.8,27.4,4.4,42.5M32.2,743.7c1.5,14.2,2.9,28.3,4.4,42.5M36.6,786.2c1.5,8.7,3,17.5,6.5,37.7M36.6,786.2c1.8,10.3,3.6,20.7,6.5,37.7M43.1,823.9c2.8,12.4,5.6,24.8,8.7,38.4M43.1,823.9c3.1,13.6,6.2,27.2,8.7,38.4M51.8,862.4c5.1,15.3,10.1,30.7,13.1,39.7M51.8,862.4c4.7,14.2,9.4,28.5,13.1,39.7M64.9,902c3,8.2,5.9,16.4,12.2,33.6M64.9,902c2.8,7.9,5.7,15.8,12.2,33.6M77,935.6c2.9,7.5,5.9,14.9,11.7,29.7M77,935.6c2.6,6.5,5.2,13.1,11.7,29.7M88.7,965.4c4.1,9.9,8.1,19.8,12.9,31.6M88.7,965.4c3.8,9.2,7.5,18.4,12.9,31.6M101.7,997c7.5,12.6,15,25.3,19.4,32.7M101.7,997c5.9,9.9,11.8,19.8,19.4,32.7M121.1,1029.8c6.4,10.6,12.9,21.2,21.8,35.8M121.1,1029.8c4.9,8,9.8,16.1,21.8,35.8M142.9,1065.5c5.1,7.1,10.1,14.1,20.9,29M142.9,1065.5c5.9,8.3,11.9,16.6,20.9,29M163.8,1094.6c4.6,5.5,9.2,11.1,22.2,26.7M163.8,1094.6c4.8,5.8,9.5,11.5,22.2,26.7M186,1121.3c9.4,10.3,18.8,20.5,35.5,38.7M186,1121.3c13.5,14.7,27,29.4,35.5,38.7M221.6,1160c12.3,11.8,24.5,23.6,31.1,29.9M221.6,1160c7.1,6.8,14.2,13.7,31.1,29.9M252.7,1189.9c13,11.6,26,23.2,33.5,29.9M252.7,1189.9c7.7,6.9,15.5,13.7,33.5,29.9M286.2,1219.8c9.6,7,19.1,14,37.4,27.3M286.2,1219.8c11.8,8.6,23.5,17.1,37.4,27.3M323.6,1247.1c13.4,8.2,26.9,16.3,39.4,23.9M323.6,1247.1c8.4,5.1,16.7,10.2,39.4,23.9M363.1,1271c10.7,5.8,21.5,11.5,32.9,17.7M363.1,1271c9.9,5.3,19.8,10.7,32.9,17.7M396,1288.7c12.8,5.9,25.6,11.8,37.2,17.1M396,1288.7c12.6,5.8,25.1,11.5,37.2,17.1M433.2,1305.8c15.1,5.8,30.1,11.6,39.1,15.1M433.2,1305.8c11.9,4.6,23.8,9.2,39.1,15.1M472.3,1320.9c9.5,3.1,18.9,6.1,45.1,14.7M472.3,1320.9c15.6,5.1,31.3,10.2,45.1,14.7M517.4,1335.5c15.7,3.5,31.5,7.1,44.5,10M517.4,1335.5c9.7,2.2,19.4,4.4,44.5,10M561.8,1345.6c11.5,1.8,22.9,3.7,47.2,7.6M561.8,1345.6c10.2,1.7,20.5,3.3,47.2,7.6M609.1,1353.1c18.1,1.9,36.1,3.7,45.7,4.7M609.1,1353.1c10.3,1.1,20.5,2.1,45.7,4.7M654.8,1357.9c16.1.3,32.1.7,47.4,1M654.8,1357.9c12.1.3,24.1.5,47.4,1M702.1,1358.9c9.7-.1,19.4-.3,45.1-.6M702.1,1358.9c12.8-.2,25.6-.4,45.1-.6M747.2,1358.2c12.5-1.5,25-3,43.1-5.1M747.2,1358.2c8.7-1.1,17.3-2.1,43.1-5.1M790.4,1353.1c16.2-2.6,32.4-5.2,44.7-7.3M790.4,1353.1c10.8-1.8,21.6-3.5,44.7-7.3M835.1,1345.9c12.4-3.5,24.8-7.1,45.1-12.8M835.1,1345.9c14.9-4.2,29.8-8.5,45.1-12.8M880.1,1333.1c13.3-4.5,26.6-9,40.9-13.9M880.1,1333.1c13.3-4.5,26.6-9,40.9-13.9M921,1319.2c13.6-5.1,27.1-10.1,36.8-13.7M921,1319.2c12.9-4.8,25.8-9.6,36.8-13.7M957.8,1305.5c8.4-3.8,16.8-7.7,35.6-16.3M957.8,1305.5c8.7-4,17.4-8,35.6-16.3M993.5,1289.2c8.1-4.2,16.3-8.5,34.4-17.9M993.5,1289.2c10.3-5.3,20.5-10.7,34.4-17.9M1027.9,1271.3c10.8-6.4,21.5-12.8,29.1-17.3M1027.9,1271.3c8.5-5.1,17.1-10.2,29.1-17.3M1057,1254c7.2-5.3,14.4-10.6,30.5-22.5M1057,1254c7.5-5.6,15.1-11.1,30.5-22.5M1087.5,1231.4c6.5-5.3,13-10.6,26.8-21.8M1087.5,1231.4c6.7-5.4,13.3-10.8,26.8-21.8M1114.4,1209.6c8.2-7.1,16.5-14.2,25.9-22.5M1114.4,1209.6c5.2-4.5,10.5-9.1,25.9-22.5M1140.3,1187.1c8.7-7.9,17.3-15.8,27.7-25.3M1140.3,1187.1c7.4-6.8,14.8-13.5,27.7-25.3M1168,1161.9c7.7-8.2,15.3-16.4,23.8-25.5M1168,1161.9c4.8-5.1,9.5-10.2,23.8-25.5M1191.8,1136.4c6.8-7.7,13.5-15.4,23.9-27.2M1191.8,1136.4c9.4-10.7,18.8-21.4,23.9-27.2M1215.7,1109.2c5.3-6.8,10.7-13.7,18.7-23.9M1215.7,1109.2c4-5.1,8-10.2,18.7-23.9M1234.4,1085.3c8.2-11.1,16.4-22.3,20.9-28.3M1234.4,1085.3c5.2-7.1,10.4-14.1,20.9-28.3M1255.2,1057c11.6-20.5,23.2-40.9,34.6-60.9M1255.2,1057c8.5-14.9,17-29.8,34.6-60.9M1289.9,996.1c8.5-18.8,17-37.6,25.7-56.8M1289.9,996.1c8.8-19.5,17.7-39.1,25.7-56.8M1315.6,939.3c8.1-23.3,16.1-46.5,20.7-59.8M1315.6,939.3c4.8-13.8,9.5-27.5,20.7-59.8M1336.3,879.5c2.6-10.6,5.2-21.1,8.1-32.7M1336.3,879.5c3-12,5.9-24,8.1-32.7M1344.4,846.8c1.5-7.9,3.1-15.8,6-30.7M1344.4,846.8c2-10.4,4.1-20.8,6-30.7M1350.4,816.1c1.3-8.6,2.5-17.2,5.3-36.1M1350.4,816.1c1.5-10.5,3.1-21,5.3-36.1M1355.6,780.1c1.3-10.9,2.6-21.8,3.9-31.7M1355.6,780.1c1.1-8.6,2.1-17.2,3.9-31.7M1359.5,748.4c.5-9.8,1.1-19.7,1.9-33.8M1359.5,748.4c.5-9.2,1-18.4,1.9-33.8M1361.4,714.7c.2-13.2.4-26.4.5-38.2M1361.4,714.7c.2-14,.4-27.9.5-38.2M1361.9,676.5c-1-12.7-1.9-25.4-2.9-38.1M1361.9,676.5c-1-13.3-2-26.6-2.9-38.1M1359,638.3c-1.5-11.6-3-23.2-4.3-33.5M1359,638.3c-1.2-9.6-2.5-19.2-4.3-33.5M1354.7,604.8c-2.4-13.9-4.7-27.8-6.6-38.7M1354.7,604.8c-2.2-13.3-4.5-26.6-6.6-38.7M1348.1,566.1c-2.2-10.7-4.3-21.5-6.5-32.6M1348.1,566.1c-2.2-10.9-4.4-21.8-6.5-32.6M1341.6,533.5c-2.1-7.9-4.3-15.8-10.1-37.5M1341.6,533.5c-3.7-13.5-7.3-26.9-10.1-37.5M1331.5,496c-3.6-11.2-7.2-22.3-13.5-42M1331.5,496c-4.7-14.5-9.3-28.9-13.5-42M1318,453.9c-2.9-6.5-5.9-13-11-24.4M1318,453.9c-3.1-6.9-6.2-13.8-11-24.4M1306.9,429.5c-2.2-4.4-4.3-8.8-9.9-20.1M1306.9,429.5c-3.8-7.6-7.5-15.3-9.9-20.1M1297.1,409.4c-4.3-9-8.6-17.9-12.3-25.6M1297.1,409.4c-3.5-7.3-7-14.6-12.3-25.6M1284.8,383.9c-3.1-5.7-6.1-11.4-12.5-23.3M1284.8,383.9c-3-5.6-6-11.2-12.5-23.3M1272.3,360.6c-3.5-5.9-7-11.7-15.4-25.7M1272.3,360.6c-4.9-8.2-9.8-16.4-15.4-25.7M1256.9,334.8c-5.6-8.1-11.2-16.1-19.1-27.6M1256.9,334.8c-6.9-9.9-13.7-19.8-19.1-27.6M1237.7,307.3c-4.6-6.6-9.3-13.2-15.3-21.8M1237.7,307.3c-3.3-4.7-6.7-9.5-15.3-21.8M1222.4,285.5c-6.2-7.2-12.3-14.3-20.4-23.7M1222.4,285.5c-6.1-7.1-12.2-14.1-20.4-23.7M1202.1,261.8c-8-9.3-16.1-18.6-24.6-28.5M1202.1,261.8c-4.9-5.7-9.9-11.4-24.6-28.5M1177.5,233.3c-7.4-7.4-14.9-14.8-24.1-24M1177.5,233.3c-6.2-6.1-12.4-12.3-24.1-24M1153.4,209.3c-8-6.8-16-13.6-27.4-23.4M1153.4,209.3c-10.1-8.7-20.3-17.3-27.4-23.4M1126,186c-10.1-7.9-20.1-15.9-30-23.6M1126,186c-10.9-8.6-21.8-17.1-30-23.6M1096.1,162.4c-8.2-5.9-16.4-11.7-24.9-17.6M1096.1,162.4c-5.2-3.7-10.4-7.4-24.9-17.6M1071.2,144.8c-9.6-6.1-19.1-12.1-31.8-20.2M1071.2,144.8c-12.2-7.7-24.3-15.4-31.8-20.2M1039.4,124.6c-6.6-3.7-13.2-7.4-30.1-16.9M1039.4,124.6c-8.6-4.8-17.2-9.7-30.1-16.9M1009.2,107.6c-10.7-5.6-21.3-11.2-34-18M1009.2,107.6c-7-3.7-14-7.4-34-18M975.2,89.6c-7.8-3.4-15.6-6.8-28.3-12.3M975.2,89.6c-9.8-4.3-19.7-8.6-28.3-12.3M946.9,77.3c-9.4-3.4-18.8-6.8-25.2-9M946.9,77.3c-9.3-3.3-18.5-6.6-25.2-9M921.6,68.3c-7.5-2-15-4-29-7.7M921.6,68.3c-6.5-1.7-13.1-3.5-29-7.7M892.7,60.6c-7.6-2.4-15.3-4.7-27.6-8.5M892.7,60.6c-9-2.8-17.9-5.5-27.6-8.5M865.1,52c-13.6-3.1-27.1-6.3-49.4-11.5M865.1,52c-16.8-3.9-33.6-7.8-49.4-11.5M815.6,40.6c-8.9-1.3-17.9-2.6-28.9-4.2M815.6,40.6c-10.8-1.6-21.5-3.1-28.9-4.2M786.8,36.4c-8.6-1.1-17.2-2.1-32.5-3.9M786.8,36.4c-12.5-1.5-25-3-32.5-3.9M754.3,32.5c-11.2-.7-22.5-1.3-32.3-1.9M754.3,32.5c-10.9-.6-21.9-1.3-32.3-1.9M722,30.6c-9.9,0-19.8-.2-31.4-.3M722,30.6c-7.6,0-15.1-.1-31.4-.3M690.6,30.3c.2,19.1.3,38.3.4,52.3M690.6,30.3c.1,14.8.2,29.5.4,52.3M691,82.6c-.7,18-1.3,36-1.9,50.2M691,82.6c-.5,13.7-1,27.5-1.9,50.2M689.2,132.8c13,.5,26.1,1,40.4,1.5M689.2,132.8c16,.6,31.9,1.2,40.4,1.5M729.5,134.3c10.6.7,21.2,1.4,40.2,2.7M729.5,134.3c9.2.6,18.4,1.2,40.2,2.7M769.8,137.1c13.6,2.2,27.1,4.5,49.4,8.2M769.8,137.1c15,2.5,30,5,49.4,8.2M819.2,145.3c8.3,2,16.6,4.1,24.1,5.9M819.2,145.3c8,2,16.1,4,24.1,5.9M843.3,151.2c6.5,1.8,12.9,3.6,24.2,6.8M843.3,151.2c8.8,2.5,17.6,5,24.2,6.8M867.5,158.1c5.9,2.1,11.8,4.1,23.2,8.1M867.5,158.1c4.7,1.7,9.5,3.3,23.2,8.1M890.6,166.2c4.5,1.9,9.1,3.8,18.8,7.8M890.6,166.2c7,2.9,14,5.8,18.8,7.8M909.5,174c6.7,2.7,13.4,5.5,22.7,9.3M909.5,174c7.6,3.1,15.1,6.1,22.7,9.3M932.2,183.2c7.3,3.2,14.6,6.4,22.3,9.8M932.2,183.2c5.5,2.4,10.9,4.8,22.3,9.8M954.5,193c6.9,3.8,13.7,7.7,22.7,12.7M954.5,193c9,5,17.9,10,22.7,12.7M977.2,205.7c8.2,5.2,16.4,10.4,23.6,14.9M977.2,205.7c8.1,5.1,16.2,10.3,23.6,14.9M1000.7,220.6c7.5,5.6,15,11.1,20.7,15.4M1000.7,220.6c7.4,5.5,14.8,10.9,20.7,15.4M1021.4,236c7.5,5.5,15,11,23.4,17.2M1021.4,236c8.3,6.1,16.6,12.2,23.4,17.2M1044.8,253.2c6.1,4.5,12.2,9,20.5,15.2M1044.8,253.2c7.3,5.4,14.6,10.8,20.5,15.2M1065.4,268.4c6.2,5.8,12.3,11.5,17.4,16.3M1065.4,268.4c3.6,3.3,7.1,6.7,17.4,16.3M1082.8,284.8c12,12.7,24.1,25.4,32.5,34.3M1082.8,284.8c7.2,7.6,14.4,15.2,32.5,34.3M1115.3,319c5.6,7.1,11.2,14.2,16.2,20.6M1115.3,319c5.6,7.1,11.2,14.2,16.2,20.6M1131.5,339.6c7.5,9.3,14.9,18.5,18.8,23.4M1131.5,339.6c6.8,8.5,13.7,17,18.8,23.4M1150.3,363c4.3,5.8,8.6,11.6,14.9,20.2M1150.3,363c3.9,5.3,7.8,10.6,14.9,20.2M1165.2,383.2c3.2,4.7,6.4,9.5,14.4,21.3M1165.2,383.2c3.9,5.7,7.8,11.5,14.4,21.3M1179.6,404.5c8,15.5,15.9,31,21.8,42.4M1179.6,404.5c8.3,16.2,16.6,32.3,21.8,42.4M1201.4,446.9c4.8,10.8,9.7,21.7,19.9,44.7M1201.4,446.9c4.3,9.7,8.6,19.4,19.9,44.7M1221.3,491.6c4,11.9,7.9,23.7,15.4,46.3M1221.3,491.6c5.5,16.3,10.9,32.6,15.4,46.3M1236.8,537.9c3.5,12.9,6.9,25.8,11.8,44.1M1236.8,537.9c4.3,16,8.6,32,11.8,44.1M1248.5,581.9c1.2,10.6,2.4,21.2,5.3,46.2M1248.5,581.9c1.9,16.8,3.8,33.6,5.3,46.2M1253.8,628.1c1.2,14.2,2.4,28.4,3.5,40.7M1253.8,628.1c.9,10.1,1.7,20.2,3.5,40.7M1257.3,668.8c.2,10.5.3,21.1.6,43.1M1257.3,668.8c.2,10,.3,20,.6,43.1M1257.9,711.9c-.3,9.6-.7,19.1-1.4,41.4M1257.9,711.9c-.4,12.2-.8,24.3-1.4,41.4M1256.4,753.3c-1.5,9.9-3.1,19.7-6.1,38.7M1256.4,753.3c-1.9,12.1-3.8,24.1-6.1,38.7M1250.4,792c-2.5,10.6-4.9,21.3-8.2,35.3M1250.4,792c-2.5,10.8-5,21.7-8.2,35.3M1242.2,827.3c-2.6,10-5.2,19.9-8.5,32.5M1242.2,827.3c-3.3,12.5-6.6,25.1-8.5,32.5M1233.7,859.8c-3.5,10.5-7,21.1-9.6,28.9M1233.7,859.8c-3.6,10.9-7.2,21.8-9.6,28.9M1224.1,888.7c-5.9,14.3-11.9,28.6-25,60.4M1224.1,888.7c-9.3,22.5-18.7,45-25,60.4M1199.1,949.1c-11.6,19.2-23.2,38.3-31.7,52.4M1199.1,949.1c-11.8,19.6-23.7,39.1-31.7,52.4M1167.4,1001.5c-13.6,19.5-27.2,38.9-36.2,51.8M1167.4,1001.5c-8.1,11.5-16.1,23-36.2,51.8M1131.3,1053.2c-11.9,12.7-23.8,25.4-40.7,43.4M1131.3,1053.2c-10.2,10.9-20.5,21.8-40.7,43.4M1090.6,1096.6c-11.2,9.6-22.4,19.1-45.7,39M1090.6,1096.6c-10,8.5-19.9,17-45.7,39M1044.8,1135.6c-14.4,10.3-28.8,20.6-51.8,37.1M1044.8,1135.6c-18,12.9-36.1,25.8-51.8,37.1M993,1172.8c-12.7,6.9-25.4,13.9-49.1,26.9M993,1172.8c-13.5,7.4-27,14.8-49.1,26.9M943.9,1199.7c-9.3,4.3-18.7,8.7-32,14.8M943.9,1199.7c-9.1,4.2-18.1,8.4-32,14.8M911.9,1214.5c-10.6,3.9-21.3,7.9-47.8,17.7M911.9,1214.5c-11.6,4.3-23.2,8.6-47.8,17.7M864.1,1232.2c-10.8,2.7-21.6,5.4-43.1,10.8M864.1,1232.2c-11.1,2.8-22.3,5.6-43.1,10.8M821,1243c-12.6,2.3-25.3,4.7-53.5,9.9M821,1243c-10.9,2-21.7,4-53.5,9.9M767.6,1252.9c-11,.9-22,1.8-35.3,2.9M767.6,1252.9c-12.8,1-25.5,2.1-35.3,2.9M732.3,1255.8c-12.7,0-25.4,0-32.6,0M732.3,1255.8c-12.1,0-24.1,0-32.6,0M699.7,1255.8c-10.9.1-21.8.3-29.2.4M699.7,1255.8c-7.5,0-15.1.2-29.2.4M670.5,1256.2c-8.5-.6-17-1.1-32-2.1M670.5,1256.2c-12.5-.8-25-1.6-32-2.1M638.5,1254.2c-9.4-1.6-18.8-3.2-24.8-4.2M638.5,1254.2c-7.5-1.3-14.9-2.6-24.8-4.2M613.7,1250c-7.1-1.1-14.2-2.3-29.6-4.8M613.7,1250c-7.2-1.2-14.4-2.3-29.6-4.8M584.1,1245.2c-6-1.2-12-2.3-28.6-5.6M584.1,1245.2c-6.4-1.3-12.8-2.5-28.6-5.6M555.5,1239.6c-12.2-3.7-24.3-7.4-32-9.8M555.5,1239.6c-11-3.4-22.1-6.7-32-9.8M523.4,1229.9c-10.4-3.9-20.9-7.9-26.6-10M523.4,1229.9c-6.5-2.4-13-4.9-26.6-10M496.9,1219.9c-9.3-3.6-18.6-7.2-27.1-10.4M496.9,1219.9c-6.4-2.5-12.9-4.9-27.1-10.4M469.8,1209.4c-17.4-9.2-34.7-18.4-43.9-23.2M469.8,1209.4c-15.8-8.3-31.6-16.6-43.9-23.2M425.9,1186.3c-11.6-7.4-23.2-14.9-40.8-26.2M425.9,1186.3c-12.3-7.9-24.6-15.8-40.8-26.2M385,1160c-11.5-7.4-22.9-14.8-34.7-22.4M385,1160c-8.8-5.7-17.6-11.4-34.7-22.4M350.3,1137.6c-11.8-9.9-23.6-19.8-34.2-28.7M350.3,1137.6c-8.4-7.1-16.9-14.2-34.2-28.7M316.1,1108.9c-9-8.8-18-17.7-36.6-36M316.1,1108.9c-14.3-14.1-28.6-28.1-36.6-36M279.5,1072.8c-10.8-13.1-21.5-26.2-29.8-36.2M279.5,1072.8c-6.5-7.9-13-15.8-29.8-36.2M249.7,1036.6c-5.6-8.1-11.2-16.3-23.4-33.9M249.7,1036.6c-7.5-10.8-14.9-21.7-23.4-33.9M226.3,1002.7c-8.1-13.5-16.3-27-22.4-37.3M226.3,1002.7c-6.5-10.9-13.1-21.8-22.4-37.3M203.9,965.4c-7.4-13.9-14.8-27.9-21.3-40.1M203.9,965.4c-7.9-14.9-15.8-29.8-21.3-40.1M182.6,925.3c-4.3-11.6-8.6-23.2-16.1-43.4M182.6,925.3c-6.1-16.4-12.2-32.8-16.1-43.4M166.4,881.9c-3.5-10.3-7-20.6-14-41.3M166.4,881.9c-5-14.8-10-29.6-14-41.3M152.4,840.6c-3.5-17.3-6.9-34.5-8.9-44.2M152.4,840.6c-2.8-14.2-5.7-28.3-8.9-44.2M143.6,796.4c-2.2-16.7-4.5-33.3-6.1-45.5M143.6,796.4c-1.7-12.7-3.4-25.3-6.1-45.5M137.4,750.9c-1-15.2-2-30.4-3-45.4M137.4,750.9c-1.2-17.8-2.4-35.6-3-45.4M134.4,705.4c-.2-8.9-.5-17.8-.7-24.9M134.4,705.4c-.2-5.2-.3-10.4-.7-24.9M133.7,680.6c.6-7.6,1.1-15.2,1.9-25.4M133.7,680.6c.4-5.1.8-10.3,1.9-25.4M135.6,655.2c.8-7.1,1.5-14.2,3.2-30.1M135.6,655.2c.7-6.4,1.3-12.9,3.2-30.1M138.8,625.1c1.7-11,3.5-22.1,4.7-29.7M138.8,625.1c1.9-11.7,3.7-23.3,4.7-29.7M143.5,595.3c1.7-8.3,3.4-16.7,6.9-34.3M143.5,595.3c1.6-8.1,3.3-16.3,6.9-34.3M150.4,561c2.4-9.6,4.7-19.2,10.2-41.3M150.4,561c3.4-13.9,6.8-27.7,10.2-41.3M160.6,519.7c4.3-12.4,8.6-24.8,11.6-33.3M160.6,519.7c2.4-6.9,4.8-13.7,11.6-33.3M172.2,486.4c3.8-7.9,7.5-15.8,14.5-30.7M172.2,486.4c3.5-7.3,6.9-14.6,14.5-30.7M186.8,455.7c3.9-7.7,7.8-15.4,15.4-30.3M186.8,455.7c5.1-10,10.3-20.1,15.4-30.3M202.2,425.4c3.8-6.8,7.5-13.5,17.9-32.2M202.2,425.4c4.3-7.7,8.6-15.5,17.9-32.2M220.1,393.3c8.4-11.5,16.7-23,31.9-43.8M220.1,393.3c6.6-9.1,13.3-18.2,31.9-43.8M251.9,349.5c12.1-14.3,24.2-28.6,34.6-41M251.9,349.5c10.9-12.9,21.7-25.7,34.6-41M286.5,308.4c9.1-8.6,18.3-17.2,42.4-39.9M286.5,308.4c13.1-12.4,26.3-24.8,42.4-39.9M328.9,268.5c12.8-10.6,25.5-21.2,39.1-32.6M328.9,268.5c14.2-11.8,28.4-23.7,39.1-32.6M368,235.9c13.6-8.2,27.1-16.5,50.1-30.5M368,235.9c14.9-9.1,29.7-18.1,50.1-30.5M418.1,205.4c14.4-7.6,28.7-15.3,51.2-27.3M418.1,205.4c16.8-8.9,33.5-17.9,51.2-27.3M469.3,178c10.6-3.7,21.1-7.5,46-16.3M469.3,178c14.3-5,28.5-10.1,46-16.3M515.4,161.7c13.6-4.1,27.2-8.1,39.1-11.7M515.4,161.7c10.8-3.2,21.6-6.5,39.1-11.7M554.5,150.1c8.6-2,17.2-4,36.8-8.5M554.5,150.1c10.1-2.3,20.2-4.7,36.8-8.5M591.2,141.5c11.5-2,23-3.9,32.3-5.4M591.2,141.5c10.1-1.7,20.2-3.4,32.3-5.4M623.5,136.1c9.6-.5,19.1-1.1,35.4-2M623.5,136.1c14-.8,28.1-1.6,35.4-2M658.9,134.1c10.7-.4,21.5-.8,33.2-1.3M658.9,134.1c9.1-.4,18.2-.7,33.2-1.3M692.1,132.8c-.4-27.2-.8-54.3-1.5-102.1M692.1,132.8c-.4-27.4-.8-54.8-1.5-102.1M690.6,30.7c-1.9,2.6-3.8,5.1-5.3,7.1M690.6,30.7c-1.2,1.6-2.4,3.2-5.3,7.1M685.4,37.8c.1-3.1.3-6.1.4-7.8M685.4,37.8c.1-2.8.3-5.6.4-7.8"/>
  </g>
  <g>
    <path class="st1" d="M409.1,303.5h165l125.2,359.5,123.3-360.4h162.2l2.2,591.7-14.1-10.6-13.9-8.8-12.7-6.8-13.1-7.1-12.2-6.1-14.1-6.3-12.2-5.1-16.5-6.2-2.5-384.9-127.3,355.1-12-2.1-12.2-1.2-12.7-.2h-13.1l-10.5.5-13.6,1-13.4,1.2-12.3,2.1-127.6-352.5-.3,381.3-18.4,6.8-12.2,5.6-14.9,8-12.4,7.3-12.7,7.5-10,6.1-10.7,6.6-8.8,6.1-11.9,9.5.2-597.6"/>
    <path class="st3" d="M409.1,303.5h165M409.1,303.5h165M574.1,303.5c50,143.6,100.1,287.2,125.2,359.5M574.1,303.5c43.4,124.7,86.9,249.4,125.2,359.5M699.3,663c32.2-94.1,64.4-188.3,123.3-360.4M699.3,663c27.1-79.3,54.3-158.6,123.3-360.4M822.6,302.5h162.2M822.6,302.5h162.2M984.8,302.5c.6,172.4,1.3,344.7,2.2,591.7M984.8,302.5c.7,177.9,1.3,355.7,2.2,591.7M987,894.3c-4-3-8-6-14.1-10.6M987,894.3c-4-3-8-5.9-14.1-10.6M972.9,883.7c-4-2.5-8-5-13.9-8.8M972.9,883.7c-3.3-2-6.5-4.1-13.9-8.8M959,875c-4.3-2.3-8.6-4.6-12.7-6.8M959,875c-4.5-2.4-8.9-4.8-12.7-6.8M946.3,868.2c-2.7-1.5-5.4-2.9-13.1-7.1M946.3,868.2c-3.7-2-7.4-4-13.1-7.1M933.2,861.1c-3.6-1.8-7.2-3.6-12.2-6.1M933.2,861.1c-3.3-1.6-6.5-3.3-12.2-6.1M921,855c-3.6-1.6-7.1-3.2-14.1-6.3M921,855c-5.4-2.5-10.9-4.9-14.1-6.3M906.9,848.7c-3.5-1.5-7-2.9-12.2-5.1M906.9,848.7c-3.6-1.5-7.1-3-12.2-5.1M894.7,843.6c-6.1-2.3-12.1-4.6-16.5-6.2M894.7,843.6c-4.4-1.7-8.8-3.3-16.5-6.2M878.1,837.3c-.8-130.2-1.7-260.4-2.5-384.9M878.1,837.3c-.8-129.6-1.7-259.2-2.5-384.9M875.7,452.4c-42.3,118.1-84.7,236.2-127.3,355.1M875.7,452.4c-42.6,118.9-85.3,237.8-127.3,355.1M748.4,807.5c-3.2-.6-6.5-1.2-12-2.1M748.4,807.5c-2.8-.5-5.5-1-12-2.1M736.4,805.3c-3.4-.4-6.8-.7-12.2-1.2M736.4,805.3c-4.6-.5-9.2-.9-12.2-1.2M724.2,804.1c-5,0-10.1-.2-12.7-.2M724.2,804.1c-3.2,0-6.3-.1-12.7-.2M711.6,803.9h-13.1M711.6,803.9h-13.1M698.4,803.9c-2.3.1-4.5.2-10.5.5M698.4,803.9c-4.1.2-8.2.4-10.5.5M687.9,804.3c-4.6.3-9.3.7-13.6,1M687.9,804.3c-3.8.3-7.5.5-13.6,1M674.3,805.3c-4.4.4-8.7.8-13.4,1.2M674.3,805.3c-3.9.3-7.7.7-13.4,1.2M660.9,806.5c-3.9.7-7.8,1.4-12.3,2.1M660.9,806.5c-3.9.7-7.9,1.4-12.3,2.1M648.6,808.7c-40.1-110.8-80.2-221.6-127.6-352.5M648.6,808.7c-40.1-110.7-80.2-221.5-127.6-352.5M521,456.2c0,78.3-.1,156.5-.3,381.3M521,456.2c0,125.5-.2,251-.3,381.3M520.7,837.5c-4.8,1.7-9.5,3.5-18.4,6.8M520.7,837.5c-4.9,1.8-9.7,3.6-18.4,6.8M502.4,844.3c-4.2,2-8.4,3.9-12.2,5.6M502.4,844.3c-3.8,1.7-7.5,3.5-12.2,5.6M490.2,849.9c-3.5,1.9-7,3.8-14.9,8M490.2,849.9c-4.1,2.2-8.2,4.4-14.9,8M475.3,857.9c-2.7,1.6-5.4,3.2-12.4,7.3M475.3,857.9c-3,1.8-6.1,3.6-12.4,7.3M462.9,865.2c-2.6,1.5-5.2,3.1-12.7,7.5M462.9,865.2c-3.9,2.3-7.9,4.7-12.7,7.5M450.3,872.8c-3.4,2.1-6.8,4.2-10,6.1M450.3,872.8c-2.1,1.3-4.2,2.6-10,6.1M440.3,878.9c-3.4,2.1-6.9,4.2-10.7,6.6M440.3,878.9c-2.9,1.8-5.8,3.5-10.7,6.6M429.6,885.4c-3.4,2.4-6.8,4.7-8.8,6.1M429.6,885.4c-2.2,1.5-4.4,3.1-8.8,6.1M420.8,891.5c-2.9,2.3-5.7,4.6-11.9,9.5M420.8,891.5c-3.4,2.7-6.8,5.4-11.9,9.5M408.9,901.1c0-153.3,0-306.7.2-597.6M408.9,901.1c0-184.1.1-368.3.2-597.6M409.1,303.5h0M409.1,303.5h0"/>
  </g>
  <g>
    <path class="st2" d="M638,984.2c0,3.6-.3,7.3-.9,10.9-.6,3.6-1.6,7.1-2.9,10.6-1.2,3.4-2.8,6.8-4.6,9.9-1.8,3.1-3.9,6.1-6.2,8.9-2.3,2.8-5,5.4-7.7,7.7-2.8,2.3-5.8,4.4-8.9,6.2-3.1,1.8-6.5,3.4-9.9,4.6-3.4,1.3-7,2.2-10.6,2.9-3.6.6-7.3.9-10.9.9s-7.3-.3-10.9-.9c-3.6-.6-7.1-1.6-10.5-2.9-3.4-1.2-6.8-2.8-9.9-4.6-3.2-1.8-6.2-3.9-9-6.2-2.8-2.3-5.4-5-7.7-7.7-2.3-2.8-4.5-5.8-6.3-8.9-1.8-3.1-3.4-6.5-4.6-9.9-1.2-3.4-2.2-7-2.8-10.6-.6-3.6-1-7.3-1-10.9s.3-7.3,1-10.9c.6-3.6,1.6-7.1,2.8-10.5,1.2-3.4,2.8-6.8,4.6-9.9,1.8-3.2,3.9-6.2,6.3-9,2.3-2.8,5-5.4,7.7-7.7,2.8-2.3,5.8-4.5,9-6.3,3.1-1.8,6.5-3.4,9.9-4.6,3.4-1.2,7-2.2,10.5-2.8,3.6-.6,7.3-1,10.9-1s7.3.3,10.9,1c3.6.6,7.1,1.6,10.6,2.8,3.4,1.2,6.8,2.8,9.9,4.6,3.1,1.8,6.1,3.9,8.9,6.3,2.8,2.3,5.4,5,7.7,7.7,2.3,2.8,4.4,5.8,6.2,9,1.8,3.1,3.4,6.5,4.6,9.9,1.3,3.4,2.2,7,2.9,10.5.6,3.6.8,9.1.9,10.9.2,1.8.2-1.8,0,0"/>
    <path class="st3" d="M638,984.2c0,3.6-.3,7.3-.9,10.9-.6,3.6-1.6,7.1-2.9,10.6-1.2,3.4-2.8,6.8-4.6,9.9-1.8,3.1-3.9,6.1-6.2,8.9-2.3,2.8-5,5.4-7.7,7.7-2.8,2.3-5.8,4.4-8.9,6.2-3.1,1.8-6.5,3.4-9.9,4.6-3.4,1.3-7,2.2-10.6,2.9-3.6.6-7.3.9-10.9.9s-7.3-.3-10.9-.9c-3.6-.6-7.1-1.6-10.5-2.9-3.4-1.2-6.8-2.8-9.9-4.6-3.2-1.8-6.2-3.9-9-6.2-2.8-2.3-5.4-5-7.7-7.7-2.3-2.8-4.5-5.8-6.3-8.9-1.8-3.1-3.4-6.5-4.6-9.9-1.2-3.4-2.2-7-2.8-10.6-.6-3.6-1-7.3-1-10.9s.3-7.3,1-10.9c.6-3.6,1.6-7.1,2.8-10.5,1.2-3.4,2.8-6.8,4.6-9.9,1.8-3.2,3.9-6.2,6.3-9,2.3-2.8,5-5.4,7.7-7.7,2.8-2.3,5.8-4.5,9-6.3,3.1-1.8,6.5-3.4,9.9-4.6,3.4-1.2,7-2.2,10.5-2.8,3.6-.6,7.3-1,10.9-1s7.3.3,10.9,1c3.6.6,7.1,1.6,10.6,2.8,3.4,1.2,6.8,2.8,9.9,4.6,3.1,1.8,6.1,3.9,8.9,6.3,2.8,2.3,5.4,5,7.7,7.7,2.3,2.8,4.4,5.8,6.2,9,1.8,3.1,3.4,6.5,4.6,9.9,1.3,3.4,2.2,7,2.9,10.5.6,3.6.8,9.1.9,10.9.2,1.8.2-1.8,0,0"/>
  </g>
  <g>
    <path class="st2" d="M882.1,985.1c0,3.6-.3,7.3-.9,10.9-.6,3.6-1.6,7.1-2.9,10.6-1.2,3.4-2.8,6.8-4.6,9.9-1.8,3.1-3.9,6.1-6.2,8.9-2.3,2.8-5,5.4-7.7,7.7-2.8,2.3-5.8,4.4-8.9,6.2-3.1,1.8-6.5,3.4-9.9,4.6-3.4,1.3-7,2.2-10.6,2.9-3.6.6-7.3.9-10.9.9s-7.3-.3-10.9-.9c-3.6-.6-7.1-1.6-10.5-2.9-3.4-1.2-6.8-2.8-9.9-4.6-3.2-1.8-6.2-3.9-9-6.2-2.8-2.3-5.4-5-7.7-7.7-2.3-2.8-4.5-5.8-6.3-8.9-1.8-3.1-3.4-6.5-4.6-9.9-1.2-3.4-2.2-7-2.8-10.6-.6-3.6-1-7.3-1-10.9s.3-7.3,1-10.9c.6-3.6,1.6-7.1,2.8-10.5,1.2-3.4,2.8-6.8,4.6-9.9,1.8-3.2,3.9-6.2,6.3-9,2.3-2.8,5-5.4,7.7-7.7,2.8-2.3,5.8-4.5,9-6.3,3.1-1.8,6.5-3.4,9.9-4.6,3.4-1.2,7-2.2,10.5-2.8,3.6-.6,7.3-1,10.9-1s7.3.3,10.9,1c3.6.6,7.1,1.6,10.6,2.8,3.4,1.2,6.8,2.8,9.9,4.6,3.1,1.8,6.1,3.9,8.9,6.3,2.8,2.3,5.4,5,7.7,7.7,2.3,2.8,4.4,5.8,6.2,9,1.8,3.1,3.4,6.5,4.6,9.9,1.3,3.4,2.2,7,2.9,10.5.6,3.6.8,9.1.9,10.9.2,1.8.2-1.8,0,0"/>
    <path class="st3" d="M882.1,985.1c0,3.6-.3,7.3-.9,10.9-.6,3.6-1.6,7.1-2.9,10.6-1.2,3.4-2.8,6.8-4.6,9.9-1.8,3.1-3.9,6.1-6.2,8.9-2.3,2.8-5,5.4-7.7,7.7-2.8,2.3-5.8,4.4-8.9,6.2-3.1,1.8-6.5,3.4-9.9,4.6-3.4,1.3-7,2.2-10.6,2.9-3.6.6-7.3.9-10.9.9s-7.3-.3-10.9-.9c-3.6-.6-7.1-1.6-10.5-2.9-3.4-1.2-6.8-2.8-9.9-4.6-3.2-1.8-6.2-3.9-9-6.2-2.8-2.3-5.4-5-7.7-7.7-2.3-2.8-4.5-5.8-6.3-8.9-1.8-3.1-3.4-6.5-4.6-9.9-1.2-3.4-2.2-7-2.8-10.6-.6-3.6-1-7.3-1-10.9s.3-7.3,1-10.9c.6-3.6,1.6-7.1,2.8-10.5,1.2-3.4,2.8-6.8,4.6-9.9,1.8-3.2,3.9-6.2,6.3-9,2.3-2.8,5-5.4,7.7-7.7,2.8-2.3,5.8-4.5,9-6.3,3.1-1.8,6.5-3.4,9.9-4.6,3.4-1.2,7-2.2,10.5-2.8,3.6-.6,7.3-1,10.9-1s7.3.3,10.9,1c3.6.6,7.1,1.6,10.6,2.8,3.4,1.2,6.8,2.8,9.9,4.6,3.1,1.8,6.1,3.9,8.9,6.3,2.8,2.3,5.4,5,7.7,7.7,2.3,2.8,4.4,5.8,6.2,9,1.8,3.1,3.4,6.5,4.6,9.9,1.3,3.4,2.2,7,2.9,10.5.6,3.6.8,9.1.9,10.9.2,1.8.2-1.8,0,0"/>
  </g>
</svg>