<svg fill="none" height="24" width="20" xmlns="http://www.w3.org/2000/svg">
    <path clip-rule="evenodd" d="M0 9.715V3.572l10-2.7 10 2.7v6.143c0 6.33-4.2 11.69-10 13.52-5.8-1.83-10-7.19-10-13.52zm15.388 1.013l.235.17-.541.639.824 2.563-.763 2.616-2.67-.738-.517.426-1.055.733H9.098l-1.054-.733-.518-.426-2.67.738L4.1 14.1l.819-2.563-.542-.639.236-.17-.377-.346.287-.227-.376-.288.254-.19-.4-1.93.593-1.792 3.818 1.433h3.178l3.818-1.433L16 7.748l-.396 1.93.25.189-.377.288.287.227zm-8.003 2.437l1.086-.5.452.958zm3.384.458l.45-.959 1.088.501zM9.242 14.9h1.2l.209.166.117 1.112-.108-.11H9.027l-.104.11.112-1.112z" fill="#fff" fill-rule="evenodd"/>
</svg>
