<svg fill="none" height="24" viewBox="0 0 20 24" width="20" xmlns="http://www.w3.org/2000/svg"><path clip-rule="evenodd" d="m0 9.71495v-6.14337l10-2.698777 10 2.698777v6.14337c0 6.32925-4.2001 11.68915-10 13.52075-5.80005-1.8316-10-7.1915-10-13.52075zm15.3879 1.01275.2353.1703-.5413.6386.8238 2.5635-.7626 2.6157-2.6693-.7379-.5178.4257-1.0546.7331h-1.80307l-1.05454-.7331-.51783-.4257-2.66925.7379-.75797-2.6157.8191-2.5635-.5414-.6386.23544-.1703-.37664-.3452.28718-.2272-.37664-.2884.25422-.1892-.40011-1.92987.59313-1.79256 3.81802 1.43311h3.17766l3.818-1.43311.5932 1.79256-.3954 1.92987.2495.1892-.3767.2884.2871.2272zm-8.00291 2.4375 1.08566-.5011.45281.9584zm3.38351.4573.4512-.9584 1.0873.5011zm-1.52507 1.2776h1.20047l.208.1661.117 1.1118-.1082-.1106h-1.63393l-.10398.1106.11262-1.1118z" fill="#fff" fill-rule="evenodd"/></svg>