<svg width="80" height="80" viewBox="0 0 80 80" fill="none" xmlns="http://www.w3.org/2000/svg">
<rect width="80" height="80" fill="#00CD34"/>
<path d="M16 16C29.2548 16 40 26.7452 40 40C26.7452 40 16 29.2548 16 16Z" fill="#151715"/>
<path d="M64 64C50.7452 64 40 53.2548 40 40C53.2548 40 64 50.7452 64 64Z" fill="#151715"/>
<path d="M40 40C40 33.3726 45.3726 28 52 28C52 34.6274 46.6274 40 40 40Z" fill="#151715"/>
<path d="M40 40C40 46.6274 34.6274 52 28 52C28 45.3726 33.3726 40 40 40Z" fill="#151715"/>
</svg>
