<svg fill="none" height="22" viewBox="0 0 78 22" width="78" xmlns="http://www.w3.org/2000/svg"><path d="m29.5488 2.89062 1.8262 5.15626 1.8164-5.15626h1.9238v7.10938h-1.4697v-1.94336l.1465-3.35449-1.919 5.29785h-1.0058l-1.9141-5.29297.1465 3.34961v1.94336h-1.4648v-7.10938zm9.1846 7.20708c-.7747 0-1.4063-.23767-1.8945-.71293-.4851-.47526-.7276-1.1084-.7276-1.89942v-.13672c0-.5306.1026-1.00423.3076-1.4209.2051-.41992.4948-.74218.8692-.96679.3776-.22787.8073-.3418 1.289-.3418.7227 0 1.2907.22787 1.7041.68359.4167.45573.625 1.10189.625 1.93848v.57617h-3.3642c.0456.34505.1823.62175.4101.83008.2312.20833.5225.3125.8741.3125.5436 0 .9684-.19694 1.2744-.59082l.6933.77637c-.2115.29948-.498.53385-.8593.70312-.3614.16597-.7617.24907-1.2012.24907zm-.1611-4.33598c-.28 0-.5078.0944-.6836.2832-.1726.1888-.2832.45899-.3321.81055h1.9629v-.11231c-.0065-.3125-.0911-.55338-.2539-.72265-.1627-.17253-.3939-.25879-.6933-.25879zm4.8291-2.34375v1.29883h.9033v1.03515h-.9033v2.63672c0 .19531.0374.33529.1123.41992.0748.08464.2181.12696.4297.12696.1562 0 .2946-.0114.415-.03418v1.06933c-.2767.0846-.5615.127-.8545.127-.9896 0-1.4941-.49972-1.5137-1.49907v-2.84668h-.7714v-1.03515h.7714v-1.29883zm4.7509 6.58203c-.0651-.12695-.1123-.28483-.1416-.47363-.3418.38086-.7861.57133-1.333.57133-.5175 0-.9472-.14978-1.289-.44926-.3386-.29948-.5078-.67709-.5078-1.13282 0-.55989.2067-.98958.6201-1.28906.4166-.29948 1.0172-.45084 1.8017-.4541h.6494v-.30273c0-.24414-.0634-.43946-.1904-.58594-.1237-.14649-.3206-.21973-.5908-.21973-.2376 0-.4248.05697-.5615.1709-.1335.11393-.2002.27018-.2002.46875h-1.4112c0-.30599.0944-.58919.2832-.84961.1889-.26042.4558-.46387.8008-.61035.3451-.14974.7325-.22461 1.1621-.22461.6511 0 1.167.16439 1.5479.49316.3841.32553.5762.78451.5762 1.37696v2.29004c.0032.5013.0732.88053.2099 1.13769v.08301zm-1.1669-.98145c.2083 0 .4003-.04557.5761-.13671.1758-.09441.306-.21973.3906-.37598v-.9082h-.5273c-.7064 0-1.0824.24414-1.1279.73242l-.0049.08301c0 .17578.0618.32063.1855.43457.1237.11393.293.17089.5079.17089zm5.4736-6.12793 1.8262 5.15626 1.8164-5.15626h1.9238v7.10938h-1.4697v-1.94336l.1464-3.35449-1.9189 5.29785h-1.0059l-1.914-5.29297.1465 3.34961v1.94336h-1.4649v-7.10938zm9.8144 7.10938c-.0651-.12695-.1123-.28483-.1416-.47363-.3418.38086-.7861.57133-1.333.57133-.5176 0-.9472-.14978-1.289-.44926-.3386-.29948-.5078-.67709-.5078-1.13282 0-.55989.2067-.98958.6201-1.28906.4166-.29948 1.0172-.45084 1.8017-.4541h.6494v-.30273c0-.24414-.0634-.43946-.1904-.58594-.1237-.14649-.3206-.21973-.5908-.21973-.2376 0-.4248.05697-.5615.1709-.1335.11393-.2002.27018-.2002.46875h-1.4112c0-.30599.0944-.58919.2832-.84961s.4558-.46387.8008-.61035c.3451-.14974.7324-.22461 1.1621-.22461.6511 0 1.167.16439 1.5479.49316.3841.32553.5762.78451.5762 1.37696v2.29004c.0032.5013.0732.88053.2099 1.13769v.08301zm-1.167-.98145c.2084 0 .4004-.04557.5762-.13671.1758-.09441.306-.21973.3906-.37598v-.9082h-.5273c-.7064 0-1.0824.24414-1.1279.73242l-.0049.08301c0 .17578.0618.32063.1855.43457.1237.11393.293.17089.5078.17089zm6.3282-.47851c0-.17253-.0863-.30762-.2588-.40527-.1693-.10092-.4427-.19043-.8203-.26856-1.2565-.26367-1.8848-.79753-1.8848-1.60156 0-.46875.1937-.85938.5811-1.17188.3906-.31575.9-.47363 1.5283-.47363.6706 0 1.206.15788 1.6064.47363.4037.31576.6055.72591.6055 1.23047h-1.4111c0-.20182-.0651-.36784-.1954-.49804-.1302-.13347-.3336-.2002-.6103-.2002-.2376 0-.4216.05371-.5518.16113s-.1953.24414-.1953.41016c0 .15625.0733.2832.2198.38086.1497.0944.4003.17741.7519.24902.3516.06836.6478.14649.8887.23438.7454.27343 1.1181.74707 1.1181 1.4209 0 .48177-.2067.87239-.6201 1.17187-.4134.29622-.9472.44438-1.6015.44438-.4427 0-.8366-.0782-1.1817-.23442-.3418-.1595-.6103-.37598-.8056-.64941-.1954-.2767-.293-.57455-.293-.89356h1.3379c.013.25065.1058.44271.2783.57617.1725.13347.4036.2002.6934.2002.2701 0 .4736-.05046.6103-.15137.14-.10416.21-.23926.21-.40527zm4.2041-.65918-.5078.50781v1.61133h-1.4112v-7.5h1.4112v4.15527l.2734-.35156 1.3525-1.58691h1.6944l-1.9092 2.20215 2.0752 3.08105h-1.6211zm-40.3174 10.25394c0-.2767-.0977-.4883-.293-.6348-.1953-.1497-.5469-.306-1.0547-.4688-.5078-.166-.9098-.3287-1.206-.4882-.8073-.4362-1.211-1.0238-1.211-1.7627 0-.3841.1075-.7259.3223-1.0254.2181-.3028.529-.5388.9326-.708.4069-.1693.8627-.2539 1.3672-.2539.5078 0 .9603.0927 1.3574.2783.3972.1823.7048.4411.9229.7764.2213.3352.332.7161.332 1.1425h-1.4648c0-.3255-.1026-.5778-.3076-.7568-.2051-.1823-.4932-.2734-.8643-.2734-.3581 0-.6364.0765-.835.2295-.1985.1497-.2978.3483-.2978.5957 0 .2311.1155.4248.3467.581.2343.1563.5778.3027 1.0302.4395.8334.2506 1.4405.5615 1.8213.9326.3809.3711.5713.8333.5713 1.3867 0 .6152-.2327 1.0986-.6982 1.4502-.4655.3483-1.0921.5225-1.8799.5225-.5469 0-1.0449-.0993-1.4941-.2979-.4493-.2018-.7927-.4769-1.0303-.8252-.2344-.3483-.3516-.7519-.3516-1.2109h1.4697c0 .7845.4688 1.1767 1.4063 1.1767.3483 0 .6201-.07.8154-.2099.1953-.1433.293-.3418.293-.5957zm4.8047 1.9629c-.7748 0-1.4063-.2377-1.8946-.7129-.485-.4753-.7275-1.1084-.7275-1.8994v-.1368c0-.5306.1025-1.0042.3076-1.4209.2051-.4199.4948-.7422.8692-.9668.3776-.2278.8073-.3418 1.289-.3418.7227 0 1.2907.2279 1.7041.6836.4167.4558.625 1.1019.625 1.9385v.5762h-3.3642c.0455.345.1823.6217.4101.8301.2311.2083.5225.3125.8741.3125.5436 0 .9684-.197 1.2744-.5909l.6933.7764c-.2116.2995-.498.5339-.8594.7031-.3613.166-.7617.2491-1.2011.2491zm-.1612-4.336c-.2799 0-.5078.0944-.6836.2832-.1725.1888-.2832.459-.332.8106h1.9629v-.1123c-.0065-.3125-.0911-.5534-.2539-.7227-.1628-.1725-.3939-.2588-.6934-.2588zm5.337 3.1983c.2604 0 .472-.0717.6347-.2149.1628-.1432.2474-.3336.2539-.5713h1.3233c-.0033.3581-.1009.6869-.293.9864-.1921.2962-.4557.5273-.791.6933-.332.1628-.6999.2442-1.1035.2442-.7552 0-1.3509-.2393-1.7871-.7178-.4362-.4818-.6543-1.1459-.6543-1.9922v-.0928c0-.8138.2164-1.4632.6494-1.9482.4329-.485 1.027-.7276 1.7822-.7276.6608 0 1.1898.1888 1.5869.5664.4004.3744.6039.8741.6104 1.4991h-1.3233c-.0065-.2735-.0911-.4948-.2539-.6641-.1627-.1725-.3776-.2588-.6445-.2588-.3288 0-.5778.1205-.7471.3613-.166.2377-.249.625-.249 1.1622v.1464c0 .5437.083.9343.249 1.1719s.4183.3565.7569.3565zm6.1816.5029c-.3483.4232-.8301.6348-1.4453.6348-.5664 0-.9994-.1628-1.2988-.4883-.2963-.3255-.4476-.8024-.4541-1.4307v-3.4619h1.4111v3.4131c0 .5501.2506.8252.7519.8252.4786 0 .8073-.166.9864-.4981v-3.7402h1.416v5.2832h-1.3281zm5.4004-3.4229c-.1921-.026-.3613-.039-.5078-.039-.5339 0-.8838.1806-1.0498.542v3.457h-1.4112v-5.2832h1.333l.0391.6299c.2832-.485.6755-.7276 1.1768-.7276.1562 0 .3027.0212.4394.0635zm3.0176 4.0577c-.7748 0-1.4063-.2377-1.8946-.7129-.485-.4753-.7275-1.1084-.7275-1.8994v-.1368c0-.5306.1025-1.0042.3076-1.4209.2051-.4199.4948-.7422.8692-.9668.3776-.2278.8072-.3418 1.289-.3418.7227 0 1.2907.2279 1.7041.6836.4167.4558.625 1.1019.625 1.9385v.5762h-3.3642c.0455.345.1823.6217.4101.8301.2311.2083.5225.3125.874.3125.5437 0 .9685-.197 1.2745-.5909l.6933.7764c-.2116.2995-.498.5339-.8594.7031-.3613.166-.7617.2491-1.2011.2491zm-.1612-4.336c-.2799 0-.5078.0944-.6836.2832-.1725.1888-.2832.459-.332.8106h1.9629v-.1123c-.0065-.3125-.0911-.5534-.2539-.7227-.1628-.1725-.3939-.2588-.6934-.2588z" fill="#a2a4ac"/><g clip-rule="evenodd" fill-rule="evenodd"><path d="m0 2.65498v6.04369c0 6.22653 4.19995 11.49943 10 13.30133 5.7999-1.8019 10-7.0748 10-13.30133v-6.04369l-10-2.65498z" fill="#a2a4ac"/><path d="m8.47027 11.6-1.08565.493 1.53846.4499zm2.75013 0-.4512.9429 1.5385-.4499zm-.7762 2.2h-1.20048l-.20802.1633-.11262 1.0938.10397-.1087h1.63385l.1083.1087-.117-1.0938zm5.1792-3.93747-.2354-.16756.3766-.33962-.2872-.22343.3767-.28376-.2495-.18614.3954-1.89854-.5932-1.76348-3.818 1.40985h-3.17765l-3.81802-1.40985-.59313 1.76348.40012 1.89854-.25422.18614.37663.28376-.28717.22343.37664.33962-.23544.16756.54139.62817-.81909 2.522.75796 2.5732 2.66925-.7259.51784.4188 1.05453.7212h1.80306l1.0546-.7212.5178-.4188 2.6693.7259.7626-2.5732-.8238-2.522z" fill="#fff"/></g></svg>