<svg fill="none" height="22" width="78" xmlns="http://www.w3.org/2000/svg">
    <path d="M29.549 2.89l1.826 5.157 1.816-5.156h1.924V10h-1.47V8.057l.147-3.355L31.873 10h-1.006l-1.914-5.293.147 3.35V10h-1.465V2.89zm9.184 7.208c-.774 0-1.406-.238-1.894-.713-.485-.475-.728-1.109-.728-1.9V7.35c0-.531.103-1.005.308-1.421.205-.42.495-.742.87-.967a2.446 2.446 0 011.288-.342c.723 0 1.29.228 1.704.684.417.455.625 1.102.625 1.938v.576h-3.364c.046.345.182.622.41.83.231.209.523.313.874.313.544 0 .969-.197 1.275-.59l.693.776c-.212.299-.498.533-.86.703-.36.166-.761.249-1.2.249zm-.16-4.336a.891.891 0 00-.684.283c-.173.189-.283.459-.332.81h1.963v-.112c-.007-.312-.092-.553-.254-.722-.163-.173-.394-.26-.694-.26zM43.4 3.418v1.299h.904v1.035H43.4v2.637c0 .195.038.335.113.42.075.084.218.127.43.127.156 0 .294-.012.414-.035v1.07a2.906 2.906 0 01-.854.127c-.99 0-1.494-.5-1.514-1.5V5.753h-.771V4.717h.771V3.418zM48.152 10a1.567 1.567 0 01-.141-.474c-.342.381-.786.572-1.333.572-.518 0-.947-.15-1.29-.45a1.448 1.448 0 01-.507-1.132c0-.56.207-.99.62-1.29.417-.299 1.017-.45 1.802-.454h.65V6.47c0-.244-.064-.44-.191-.586-.124-.147-.32-.22-.591-.22-.238 0-.425.057-.562.171a.584.584 0 00-.2.469h-1.411c0-.306.094-.59.283-.85.19-.26.456-.464.801-.61.345-.15.733-.225 1.162-.225.651 0 1.167.165 1.548.493.384.326.576.785.576 1.377v2.29c.003.502.073.88.21 1.138V10zm-1.167-.981c.209 0 .4-.046.577-.137a.928.928 0 00.39-.376v-.908h-.527c-.707 0-1.083.244-1.128.732l-.005.083c0 .176.062.32.186.435.123.114.293.17.507.17zM52.46 2.89l1.826 5.156 1.817-5.156h1.923V10h-1.47V8.057l.147-3.355L54.783 10h-1.006l-1.914-5.293.147 3.35V10h-1.465V2.89zM62.273 10a1.567 1.567 0 01-.141-.474c-.342.381-.786.572-1.333.572-.518 0-.947-.15-1.29-.45a1.448 1.448 0 01-.507-1.132c0-.56.207-.99.62-1.29.417-.299 1.017-.45 1.802-.454h.65V6.47c0-.244-.064-.44-.191-.586-.124-.147-.32-.22-.591-.22-.238 0-.425.057-.561.171a.584.584 0 00-.2.469h-1.412c0-.306.095-.59.283-.85s.456-.464.801-.61a2.89 2.89 0 011.162-.225c.651 0 1.167.165 1.548.493.384.326.576.785.576 1.377v2.29c.004.502.074.88.21 1.138V10zm-1.167-.981c.209 0 .4-.046.577-.137a.928.928 0 00.39-.376v-.908h-.527c-.706 0-1.082.244-1.128.732l-.005.083c0 .176.062.32.186.435.123.114.293.17.507.17zm6.329-.479c0-.172-.087-.308-.26-.405-.168-.101-.442-.19-.82-.269-1.256-.263-1.884-.797-1.884-1.601 0-.47.193-.86.58-1.172.391-.316.9-.474 1.53-.474.67 0 1.205.158 1.606.474.403.316.605.726.605 1.23h-1.411a.674.674 0 00-.195-.498c-.13-.133-.334-.2-.61-.2-.238 0-.422.054-.553.161s-.195.244-.195.41c0 .157.073.283.22.381.15.095.4.178.752.25.351.068.648.146.889.234.745.273 1.118.747 1.118 1.42 0 .482-.207.873-.62 1.172-.414.297-.948.445-1.602.445-.443 0-.837-.078-1.182-.235a2.008 2.008 0 01-.805-.65 1.52 1.52 0 01-.293-.893h1.338c.013.251.105.443.278.576.172.134.404.2.693.2.27 0 .474-.05.61-.15.14-.105.21-.24.21-.406zm4.204-.66l-.508.509V10H69.72V2.5h1.41v4.155l.274-.351 1.353-1.587h1.694l-1.909 2.202L74.617 10h-1.62zM31.32 18.136c0-.277-.097-.489-.293-.635-.195-.15-.547-.306-1.054-.469a7.604 7.604 0 01-1.206-.488c-.808-.436-1.211-1.024-1.211-1.763 0-.384.107-.726.322-1.025.218-.303.529-.539.933-.708.406-.17.862-.254 1.367-.254.508 0 .96.093 1.357.278.397.183.705.441.923.777.221.335.332.716.332 1.142h-1.465c0-.325-.102-.578-.307-.757-.205-.182-.494-.273-.865-.273-.358 0-.636.076-.835.23a.71.71 0 00-.297.595c0 .231.115.425.346.581.235.156.578.303 1.03.44.834.25 1.44.561 1.822.932.38.371.571.834.571 1.387 0 .615-.233 1.099-.698 1.45-.466.348-1.092.523-1.88.523-.547 0-1.045-.1-1.494-.298-.45-.202-.793-.477-1.03-.825a2.117 2.117 0 01-.352-1.211h1.47c0 .784.468 1.176 1.406 1.176.348 0 .62-.07.815-.21a.698.698 0 00.293-.595zm4.805 1.963c-.775 0-1.406-.238-1.895-.713-.485-.476-.727-1.109-.727-1.9v-.136c0-.531.102-1.005.308-1.421.205-.42.494-.743.869-.967a2.446 2.446 0 011.289-.342c.722 0 1.29.228 1.704.684.417.455.625 1.102.625 1.938v.576h-3.364c.045.345.182.622.41.83.23.209.522.313.874.313.543 0 .968-.197 1.274-.59l.694.775c-.212.3-.498.534-.86.704-.361.166-.762.249-1.201.249zm-.161-4.336a.891.891 0 00-.684.283c-.172.189-.283.459-.332.81h1.963v-.112c-.006-.312-.091-.553-.254-.723-.163-.172-.394-.258-.693-.258zm5.337 3.198c.26 0 .472-.072.635-.215a.752.752 0 00.253-.571h1.324c-.004.358-.101.687-.293.986a1.953 1.953 0 01-.791.693c-.332.163-.7.245-1.104.245-.755 0-1.35-.24-1.787-.718-.436-.482-.654-1.146-.654-1.992v-.093c0-.814.216-1.463.65-1.948.432-.485 1.026-.728 1.781-.728.661 0 1.19.189 1.587.566.4.375.604.875.61 1.5H42.19c-.006-.274-.09-.495-.253-.665-.163-.172-.378-.258-.645-.258-.329 0-.578.12-.747.361-.166.238-.25.625-.25 1.162v.147c0 .543.084.934.25 1.171s.418.357.757.357zm6.181.503c-.348.423-.83.635-1.445.635-.566 0-1-.163-1.299-.489-.296-.325-.447-.802-.454-1.43v-3.462h1.411v3.413c0 .55.25.825.752.825.479 0 .807-.166.987-.498v-3.74h1.416V20h-1.328zm5.4-3.423a3.84 3.84 0 00-.507-.039c-.534 0-.884.18-1.05.542V20h-1.411v-5.283h1.333l.04.63c.282-.485.675-.728 1.176-.728.156 0 .303.021.44.064zm3.018 4.058c-.774 0-1.406-.238-1.894-.713-.485-.475-.728-1.109-.728-1.9v-.136c0-.531.103-1.005.308-1.421.205-.42.495-.742.87-.967a2.446 2.446 0 011.288-.342c.723 0 1.29.228 1.704.684.417.456.625 1.102.625 1.938v.576H54.71c.046.345.182.622.41.83.231.209.523.313.874.313.544 0 .969-.197 1.275-.59l.693.776c-.212.299-.498.533-.86.703-.36.166-.761.249-1.2.249zm-.16-4.336a.891.891 0 00-.684.283c-.173.189-.284.459-.332.81h1.963v-.112c-.007-.312-.092-.553-.254-.722-.163-.173-.394-.26-.694-.26z" fill="#a2a4ac"/>
    <g clip-rule="evenodd" fill-rule="evenodd">
        <path d="M0 2.655v6.044C0 14.925 4.2 20.199 10 22c5.8-1.802 10-7.075 10-13.301V2.655L10 0z" fill="#a2a4ac"/>
        <path d="M8.47 11.6l-1.085.493 1.538.45zm2.75 0l-.45.943 1.538-.45zm-.776 2.2h-1.2l-.208.163-.113 1.094.104-.109h1.634l.108.11-.117-1.095zm5.18-3.937l-.236-.168.377-.34-.288-.223.377-.284-.25-.186L16 6.763 15.407 5l-3.818 1.41H8.41L4.593 5 4 6.763l.4 1.899-.254.186.377.284-.288.223.377.34-.235.168.541.628-.82 2.522.759 2.573 2.67-.726.517.419L9.098 16h1.803l1.055-.721.518-.419 2.67.726.762-2.573-.824-2.522z" fill="#fff"/>
    </g>
</svg>
