<svg version="1.1" xmlns="http://www.w3.org/2000/svg" width="58px" height="58px" viewBox="0 0 58 58"  preserveAspectRatio="xMinYMin meet"><rect width="100%" height="100%" fill="white" cx="0" cy="0"/><path d="M0,0l2,0 0,2 -2,0 0,-2z M2,0l2,0 0,2 -2,0 0,-2z M4,0l2,0 0,2 -2,0 0,-2z M6,0l2,0 0,2 -2,0 0,-2z M8,0l2,0 0,2 -2,0 0,-2z M10,0l2,0 0,2 -2,0 0,-2z M12,0l2,0 0,2 -2,0 0,-2z M16,0l2,0 0,2 -2,0 0,-2z M18,0l2,0 0,2 -2,0 0,-2z M32,0l2,0 0,2 -2,0 0,-2z M34,0l2,0 0,2 -2,0 0,-2z M36,0l2,0 0,2 -2,0 0,-2z M38,0l2,0 0,2 -2,0 0,-2z M40,0l2,0 0,2 -2,0 0,-2z M44,0l2,0 0,2 -2,0 0,-2z M46,0l2,0 0,2 -2,0 0,-2z M48,0l2,0 0,2 -2,0 0,-2z M50,0l2,0 0,2 -2,0 0,-2z M52,0l2,0 0,2 -2,0 0,-2z M54,0l2,0 0,2 -2,0 0,-2z M56,0l2,0 0,2 -2,0 0,-2z M0,2l2,0 0,2 -2,0 0,-2z M12,2l2,0 0,2 -2,0 0,-2z M26,2l2,0 0,2 -2,0 0,-2z M28,2l2,0 0,2 -2,0 0,-2z M34,2l2,0 0,2 -2,0 0,-2z M40,2l2,0 0,2 -2,0 0,-2z M44,2l2,0 0,2 -2,0 0,-2z M56,2l2,0 0,2 -2,0 0,-2z M0,4l2,0 0,2 -2,0 0,-2z M4,4l2,0 0,2 -2,0 0,-2z M6,4l2,0 0,2 -2,0 0,-2z M8,4l2,0 0,2 -2,0 0,-2z M12,4l2,0 0,2 -2,0 0,-2z M16,4l2,0 0,2 -2,0 0,-2z M22,4l2,0 0,2 -2,0 0,-2z M24,4l2,0 0,2 -2,0 0,-2z M26,4l2,0 0,2 -2,0 0,-2z M30,4l2,0 0,2 -2,0 0,-2z M32,4l2,0 0,2 -2,0 0,-2z M36,4l2,0 0,2 -2,0 0,-2z M38,4l2,0 0,2 -2,0 0,-2z M40,4l2,0 0,2 -2,0 0,-2z M44,4l2,0 0,2 -2,0 0,-2z M48,4l2,0 0,2 -2,0 0,-2z M50,4l2,0 0,2 -2,0 0,-2z M52,4l2,0 0,2 -2,0 0,-2z M56,4l2,0 0,2 -2,0 0,-2z M0,6l2,0 0,2 -2,0 0,-2z M4,6l2,0 0,2 -2,0 0,-2z M6,6l2,0 0,2 -2,0 0,-2z M8,6l2,0 0,2 -2,0 0,-2z M12,6l2,0 0,2 -2,0 0,-2z M16,6l2,0 0,2 -2,0 0,-2z M18,6l2,0 0,2 -2,0 0,-2z M22,6l2,0 0,2 -2,0 0,-2z M30,6l2,0 0,2 -2,0 0,-2z M34,6l2,0 0,2 -2,0 0,-2z M38,6l2,0 0,2 -2,0 0,-2z M44,6l2,0 0,2 -2,0 0,-2z M48,6l2,0 0,2 -2,0 0,-2z M50,6l2,0 0,2 -2,0 0,-2z M52,6l2,0 0,2 -2,0 0,-2z M56,6l2,0 0,2 -2,0 0,-2z M0,8l2,0 0,2 -2,0 0,-2z M4,8l2,0 0,2 -2,0 0,-2z M6,8l2,0 0,2 -2,0 0,-2z M8,8l2,0 0,2 -2,0 0,-2z M12,8l2,0 0,2 -2,0 0,-2z M16,8l2,0 0,2 -2,0 0,-2z M18,8l2,0 0,2 -2,0 0,-2z M20,8l2,0 0,2 -2,0 0,-2z M22,8l2,0 0,2 -2,0 0,-2z M26,8l2,0 0,2 -2,0 0,-2z M28,8l2,0 0,2 -2,0 0,-2z M30,8l2,0 0,2 -2,0 0,-2z M32,8l2,0 0,2 -2,0 0,-2z M38,8l2,0 0,2 -2,0 0,-2z M44,8l2,0 0,2 -2,0 0,-2z M48,8l2,0 0,2 -2,0 0,-2z M50,8l2,0 0,2 -2,0 0,-2z M52,8l2,0 0,2 -2,0 0,-2z M56,8l2,0 0,2 -2,0 0,-2z M0,10l2,0 0,2 -2,0 0,-2z M12,10l2,0 0,2 -2,0 0,-2z M18,10l2,0 0,2 -2,0 0,-2z M24,10l2,0 0,2 -2,0 0,-2z M28,10l2,0 0,2 -2,0 0,-2z M34,10l2,0 0,2 -2,0 0,-2z M36,10l2,0 0,2 -2,0 0,-2z M38,10l2,0 0,2 -2,0 0,-2z M44,10l2,0 0,2 -2,0 0,-2z M56,10l2,0 0,2 -2,0 0,-2z M0,12l2,0 0,2 -2,0 0,-2z M2,12l2,0 0,2 -2,0 0,-2z M4,12l2,0 0,2 -2,0 0,-2z M6,12l2,0 0,2 -2,0 0,-2z M8,12l2,0 0,2 -2,0 0,-2z M10,12l2,0 0,2 -2,0 0,-2z M12,12l2,0 0,2 -2,0 0,-2z M16,12l2,0 0,2 -2,0 0,-2z M20,12l2,0 0,2 -2,0 0,-2z M24,12l2,0 0,2 -2,0 0,-2z M28,12l2,0 0,2 -2,0 0,-2z M32,12l2,0 0,2 -2,0 0,-2z M36,12l2,0 0,2 -2,0 0,-2z M40,12l2,0 0,2 -2,0 0,-2z M44,12l2,0 0,2 -2,0 0,-2z M46,12l2,0 0,2 -2,0 0,-2z M48,12l2,0 0,2 -2,0 0,-2z M50,12l2,0 0,2 -2,0 0,-2z M52,12l2,0 0,2 -2,0 0,-2z M54,12l2,0 0,2 -2,0 0,-2z M56,12l2,0 0,2 -2,0 0,-2z M18,14l2,0 0,2 -2,0 0,-2z M22,14l2,0 0,2 -2,0 0,-2z M26,14l2,0 0,2 -2,0 0,-2z M28,14l2,0 0,2 -2,0 0,-2z M30,14l2,0 0,2 -2,0 0,-2z M32,14l2,0 0,2 -2,0 0,-2z M34,14l2,0 0,2 -2,0 0,-2z M38,14l2,0 0,2 -2,0 0,-2z M0,16l2,0 0,2 -2,0 0,-2z M2,16l2,0 0,2 -2,0 0,-2z M4,16l2,0 0,2 -2,0 0,-2z M6,16l2,0 0,2 -2,0 0,-2z M12,16l2,0 0,2 -2,0 0,-2z M16,16l2,0 0,2 -2,0 0,-2z M26,16l2,0 0,2 -2,0 0,-2z M28,16l2,0 0,2 -2,0 0,-2z M34,16l2,0 0,2 -2,0 0,-2z M36,16l2,0 0,2 -2,0 0,-2z M42,16l2,0 0,2 -2,0 0,-2z M48,16l2,0 0,2 -2,0 0,-2z M50,16l2,0 0,2 -2,0 0,-2z M52,16l2,0 0,2 -2,0 0,-2z M56,16l2,0 0,2 -2,0 0,-2z M0,18l2,0 0,2 -2,0 0,-2z M2,18l2,0 0,2 -2,0 0,-2z M8,18l2,0 0,2 -2,0 0,-2z M14,18l2,0 0,2 -2,0 0,-2z M18,18l2,0 0,2 -2,0 0,-2z M32,18l2,0 0,2 -2,0 0,-2z M34,18l2,0 0,2 -2,0 0,-2z M36,18l2,0 0,2 -2,0 0,-2z M38,18l2,0 0,2 -2,0 0,-2z M42,18l2,0 0,2 -2,0 0,-2z M44,18l2,0 0,2 -2,0 0,-2z M46,18l2,0 0,2 -2,0 0,-2z M48,18l2,0 0,2 -2,0 0,-2z M56,18l2,0 0,2 -2,0 0,-2z M0,20l2,0 0,2 -2,0 0,-2z M6,20l2,0 0,2 -2,0 0,-2z M8,20l2,0 0,2 -2,0 0,-2z M12,20l2,0 0,2 -2,0 0,-2z M16,20l2,0 0,2 -2,0 0,-2z M28,20l2,0 0,2 -2,0 0,-2z M32,20l2,0 0,2 -2,0 0,-2z M40,20l2,0 0,2 -2,0 0,-2z M42,20l2,0 0,2 -2,0 0,-2z M44,20l2,0 0,2 -2,0 0,-2z M52,20l2,0 0,2 -2,0 0,-2z M54,20l2,0 0,2 -2,0 0,-2z M0,22l2,0 0,2 -2,0 0,-2z M10,22l2,0 0,2 -2,0 0,-2z M16,22l2,0 0,2 -2,0 0,-2z M22,22l2,0 0,2 -2,0 0,-2z M24,22l2,0 0,2 -2,0 0,-2z M26,22l2,0 0,2 -2,0 0,-2z M28,22l2,0 0,2 -2,0 0,-2z M30,22l2,0 0,2 -2,0 0,-2z M32,22l2,0 0,2 -2,0 0,-2z M36,22l2,0 0,2 -2,0 0,-2z M38,22l2,0 0,2 -2,0 0,-2z M42,22l2,0 0,2 -2,0 0,-2z M44,22l2,0 0,2 -2,0 0,-2z M56,22l2,0 0,2 -2,0 0,-2z M0,24l2,0 0,2 -2,0 0,-2z M8,24l2,0 0,2 -2,0 0,-2z M12,24l2,0 0,2 -2,0 0,-2z M18,24l2,0 0,2 -2,0 0,-2z M22,24l2,0 0,2 -2,0 0,-2z M30,24l2,0 0,2 -2,0 0,-2z M34,24l2,0 0,2 -2,0 0,-2z M36,24l2,0 0,2 -2,0 0,-2z M40,24l2,0 0,2 -2,0 0,-2z M50,24l2,0 0,2 -2,0 0,-2z M52,24l2,0 0,2 -2,0 0,-2z M4,26l2,0 0,2 -2,0 0,-2z M6,26l2,0 0,2 -2,0 0,-2z M8,26l2,0 0,2 -2,0 0,-2z M10,26l2,0 0,2 -2,0 0,-2z M14,26l2,0 0,2 -2,0 0,-2z M16,26l2,0 0,2 -2,0 0,-2z M20,26l2,0 0,2 -2,0 0,-2z M22,26l2,0 0,2 -2,0 0,-2z M26,26l2,0 0,2 -2,0 0,-2z M32,26l2,0 0,2 -2,0 0,-2z M38,26l2,0 0,2 -2,0 0,-2z M44,26l2,0 0,2 -2,0 0,-2z M52,26l2,0 0,2 -2,0 0,-2z M54,26l2,0 0,2 -2,0 0,-2z M56,26l2,0 0,2 -2,0 0,-2z M0,28l2,0 0,2 -2,0 0,-2z M2,28l2,0 0,2 -2,0 0,-2z M6,28l2,0 0,2 -2,0 0,-2z M12,28l2,0 0,2 -2,0 0,-2z M18,28l2,0 0,2 -2,0 0,-2z M20,28l2,0 0,2 -2,0 0,-2z M24,28l2,0 0,2 -2,0 0,-2z M28,28l2,0 0,2 -2,0 0,-2z M32,28l2,0 0,2 -2,0 0,-2z M34,28l2,0 0,2 -2,0 0,-2z M36,28l2,0 0,2 -2,0 0,-2z M38,28l2,0 0,2 -2,0 0,-2z M44,28l2,0 0,2 -2,0 0,-2z M52,28l2,0 0,2 -2,0 0,-2z M54,28l2,0 0,2 -2,0 0,-2z M56,28l2,0 0,2 -2,0 0,-2z M0,30l2,0 0,2 -2,0 0,-2z M2,30l2,0 0,2 -2,0 0,-2z M4,30l2,0 0,2 -2,0 0,-2z M8,30l2,0 0,2 -2,0 0,-2z M10,30l2,0 0,2 -2,0 0,-2z M14,30l2,0 0,2 -2,0 0,-2z M16,30l2,0 0,2 -2,0 0,-2z M24,30l2,0 0,2 -2,0 0,-2z M26,30l2,0 0,2 -2,0 0,-2z M30,30l2,0 0,2 -2,0 0,-2z M46,30l2,0 0,2 -2,0 0,-2z M48,30l2,0 0,2 -2,0 0,-2z M54,30l2,0 0,2 -2,0 0,-2z M2,32l2,0 0,2 -2,0 0,-2z M4,32l2,0 0,2 -2,0 0,-2z M6,32l2,0 0,2 -2,0 0,-2z M10,32l2,0 0,2 -2,0 0,-2z M12,32l2,0 0,2 -2,0 0,-2z M22,32l2,0 0,2 -2,0 0,-2z M30,32l2,0 0,2 -2,0 0,-2z M32,32l2,0 0,2 -2,0 0,-2z M42,32l2,0 0,2 -2,0 0,-2z M48,32l2,0 0,2 -2,0 0,-2z M50,32l2,0 0,2 -2,0 0,-2z M54,32l2,0 0,2 -2,0 0,-2z M4,34l2,0 0,2 -2,0 0,-2z M6,34l2,0 0,2 -2,0 0,-2z M8,34l2,0 0,2 -2,0 0,-2z M16,34l2,0 0,2 -2,0 0,-2z M24,34l2,0 0,2 -2,0 0,-2z M26,34l2,0 0,2 -2,0 0,-2z M36,34l2,0 0,2 -2,0 0,-2z M40,34l2,0 0,2 -2,0 0,-2z M42,34l2,0 0,2 -2,0 0,-2z M46,34l2,0 0,2 -2,0 0,-2z M50,34l2,0 0,2 -2,0 0,-2z M52,34l2,0 0,2 -2,0 0,-2z M54,34l2,0 0,2 -2,0 0,-2z M0,36l2,0 0,2 -2,0 0,-2z M8,36l2,0 0,2 -2,0 0,-2z M10,36l2,0 0,2 -2,0 0,-2z M12,36l2,0 0,2 -2,0 0,-2z M16,36l2,0 0,2 -2,0 0,-2z M20,36l2,0 0,2 -2,0 0,-2z M22,36l2,0 0,2 -2,0 0,-2z M24,36l2,0 0,2 -2,0 0,-2z M30,36l2,0 0,2 -2,0 0,-2z M34,36l2,0 0,2 -2,0 0,-2z M36,36l2,0 0,2 -2,0 0,-2z M40,36l2,0 0,2 -2,0 0,-2z M42,36l2,0 0,2 -2,0 0,-2z M46,36l2,0 0,2 -2,0 0,-2z M48,36l2,0 0,2 -2,0 0,-2z M52,36l2,0 0,2 -2,0 0,-2z M4,38l2,0 0,2 -2,0 0,-2z M6,38l2,0 0,2 -2,0 0,-2z M14,38l2,0 0,2 -2,0 0,-2z M24,38l2,0 0,2 -2,0 0,-2z M32,38l2,0 0,2 -2,0 0,-2z M34,38l2,0 0,2 -2,0 0,-2z M40,38l2,0 0,2 -2,0 0,-2z M42,38l2,0 0,2 -2,0 0,-2z M44,38l2,0 0,2 -2,0 0,-2z M52,38l2,0 0,2 -2,0 0,-2z M2,40l2,0 0,2 -2,0 0,-2z M10,40l2,0 0,2 -2,0 0,-2z M12,40l2,0 0,2 -2,0 0,-2z M18,40l2,0 0,2 -2,0 0,-2z M20,40l2,0 0,2 -2,0 0,-2z M22,40l2,0 0,2 -2,0 0,-2z M24,40l2,0 0,2 -2,0 0,-2z M26,40l2,0 0,2 -2,0 0,-2z M32,40l2,0 0,2 -2,0 0,-2z M36,40l2,0 0,2 -2,0 0,-2z M38,40l2,0 0,2 -2,0 0,-2z M40,40l2,0 0,2 -2,0 0,-2z M42,40l2,0 0,2 -2,0 0,-2z M44,40l2,0 0,2 -2,0 0,-2z M46,40l2,0 0,2 -2,0 0,-2z M48,40l2,0 0,2 -2,0 0,-2z M50,40l2,0 0,2 -2,0 0,-2z M52,40l2,0 0,2 -2,0 0,-2z M16,42l2,0 0,2 -2,0 0,-2z M18,42l2,0 0,2 -2,0 0,-2z M20,42l2,0 0,2 -2,0 0,-2z M24,42l2,0 0,2 -2,0 0,-2z M26,42l2,0 0,2 -2,0 0,-2z M28,42l2,0 0,2 -2,0 0,-2z M30,42l2,0 0,2 -2,0 0,-2z M32,42l2,0 0,2 -2,0 0,-2z M34,42l2,0 0,2 -2,0 0,-2z M36,42l2,0 0,2 -2,0 0,-2z M40,42l2,0 0,2 -2,0 0,-2z M48,42l2,0 0,2 -2,0 0,-2z M50,42l2,0 0,2 -2,0 0,-2z M52,42l2,0 0,2 -2,0 0,-2z M54,42l2,0 0,2 -2,0 0,-2z M56,42l2,0 0,2 -2,0 0,-2z M0,44l2,0 0,2 -2,0 0,-2z M2,44l2,0 0,2 -2,0 0,-2z M4,44l2,0 0,2 -2,0 0,-2z M6,44l2,0 0,2 -2,0 0,-2z M8,44l2,0 0,2 -2,0 0,-2z M10,44l2,0 0,2 -2,0 0,-2z M12,44l2,0 0,2 -2,0 0,-2z M22,44l2,0 0,2 -2,0 0,-2z M24,44l2,0 0,2 -2,0 0,-2z M26,44l2,0 0,2 -2,0 0,-2z M32,44l2,0 0,2 -2,0 0,-2z M34,44l2,0 0,2 -2,0 0,-2z M36,44l2,0 0,2 -2,0 0,-2z M38,44l2,0 0,2 -2,0 0,-2z M40,44l2,0 0,2 -2,0 0,-2z M44,44l2,0 0,2 -2,0 0,-2z M48,44l2,0 0,2 -2,0 0,-2z M50,44l2,0 0,2 -2,0 0,-2z M54,44l2,0 0,2 -2,0 0,-2z M0,46l2,0 0,2 -2,0 0,-2z M12,46l2,0 0,2 -2,0 0,-2z M30,46l2,0 0,2 -2,0 0,-2z M40,46l2,0 0,2 -2,0 0,-2z M48,46l2,0 0,2 -2,0 0,-2z M50,46l2,0 0,2 -2,0 0,-2z M54,46l2,0 0,2 -2,0 0,-2z M56,46l2,0 0,2 -2,0 0,-2z M0,48l2,0 0,2 -2,0 0,-2z M4,48l2,0 0,2 -2,0 0,-2z M6,48l2,0 0,2 -2,0 0,-2z M8,48l2,0 0,2 -2,0 0,-2z M12,48l2,0 0,2 -2,0 0,-2z M24,48l2,0 0,2 -2,0 0,-2z M28,48l2,0 0,2 -2,0 0,-2z M30,48l2,0 0,2 -2,0 0,-2z M34,48l2,0 0,2 -2,0 0,-2z M36,48l2,0 0,2 -2,0 0,-2z M40,48l2,0 0,2 -2,0 0,-2z M42,48l2,0 0,2 -2,0 0,-2z M44,48l2,0 0,2 -2,0 0,-2z M46,48l2,0 0,2 -2,0 0,-2z M48,48l2,0 0,2 -2,0 0,-2z M52,48l2,0 0,2 -2,0 0,-2z M0,50l2,0 0,2 -2,0 0,-2z M4,50l2,0 0,2 -2,0 0,-2z M6,50l2,0 0,2 -2,0 0,-2z M8,50l2,0 0,2 -2,0 0,-2z M12,50l2,0 0,2 -2,0 0,-2z M16,50l2,0 0,2 -2,0 0,-2z M18,50l2,0 0,2 -2,0 0,-2z M20,50l2,0 0,2 -2,0 0,-2z M22,50l2,0 0,2 -2,0 0,-2z M24,50l2,0 0,2 -2,0 0,-2z M28,50l2,0 0,2 -2,0 0,-2z M32,50l2,0 0,2 -2,0 0,-2z M34,50l2,0 0,2 -2,0 0,-2z M36,50l2,0 0,2 -2,0 0,-2z M42,50l2,0 0,2 -2,0 0,-2z M46,50l2,0 0,2 -2,0 0,-2z M48,50l2,0 0,2 -2,0 0,-2z M50,50l2,0 0,2 -2,0 0,-2z M56,50l2,0 0,2 -2,0 0,-2z M0,52l2,0 0,2 -2,0 0,-2z M4,52l2,0 0,2 -2,0 0,-2z M6,52l2,0 0,2 -2,0 0,-2z M8,52l2,0 0,2 -2,0 0,-2z M12,52l2,0 0,2 -2,0 0,-2z M16,52l2,0 0,2 -2,0 0,-2z M20,52l2,0 0,2 -2,0 0,-2z M22,52l2,0 0,2 -2,0 0,-2z M26,52l2,0 0,2 -2,0 0,-2z M32,52l2,0 0,2 -2,0 0,-2z M34,52l2,0 0,2 -2,0 0,-2z M36,52l2,0 0,2 -2,0 0,-2z M40,52l2,0 0,2 -2,0 0,-2z M46,52l2,0 0,2 -2,0 0,-2z M52,52l2,0 0,2 -2,0 0,-2z M56,52l2,0 0,2 -2,0 0,-2z M0,54l2,0 0,2 -2,0 0,-2z M12,54l2,0 0,2 -2,0 0,-2z M16,54l2,0 0,2 -2,0 0,-2z M18,54l2,0 0,2 -2,0 0,-2z M20,54l2,0 0,2 -2,0 0,-2z M22,54l2,0 0,2 -2,0 0,-2z M28,54l2,0 0,2 -2,0 0,-2z M40,54l2,0 0,2 -2,0 0,-2z M42,54l2,0 0,2 -2,0 0,-2z M44,54l2,0 0,2 -2,0 0,-2z M46,54l2,0 0,2 -2,0 0,-2z M48,54l2,0 0,2 -2,0 0,-2z M50,54l2,0 0,2 -2,0 0,-2z M54,54l2,0 0,2 -2,0 0,-2z M0,56l2,0 0,2 -2,0 0,-2z M2,56l2,0 0,2 -2,0 0,-2z M4,56l2,0 0,2 -2,0 0,-2z M6,56l2,0 0,2 -2,0 0,-2z M8,56l2,0 0,2 -2,0 0,-2z M10,56l2,0 0,2 -2,0 0,-2z M12,56l2,0 0,2 -2,0 0,-2z M16,56l2,0 0,2 -2,0 0,-2z M18,56l2,0 0,2 -2,0 0,-2z M20,56l2,0 0,2 -2,0 0,-2z M24,56l2,0 0,2 -2,0 0,-2z M28,56l2,0 0,2 -2,0 0,-2z M32,56l2,0 0,2 -2,0 0,-2z M36,56l2,0 0,2 -2,0 0,-2z M40,56l2,0 0,2 -2,0 0,-2z M42,56l2,0 0,2 -2,0 0,-2z M44,56l2,0 0,2 -2,0 0,-2z M48,56l2,0 0,2 -2,0 0,-2z M54,56l2,0 0,2 -2,0 0,-2z " stroke="transparent" fill="black"/></svg>
