<svg version="1.1" xmlns="http://www.w3.org/2000/svg" width="74px" height="74px" viewBox="0 0 74 74"  preserveAspectRatio="xMinYMin meet"><rect width="100%" height="100%" fill="white" cx="0" cy="0"/><path d="M8,8l2,0 0,2 -2,0 0,-2z M10,8l2,0 0,2 -2,0 0,-2z M12,8l2,0 0,2 -2,0 0,-2z M14,8l2,0 0,2 -2,0 0,-2z M16,8l2,0 0,2 -2,0 0,-2z M18,8l2,0 0,2 -2,0 0,-2z M20,8l2,0 0,2 -2,0 0,-2z M24,8l2,0 0,2 -2,0 0,-2z M26,8l2,0 0,2 -2,0 0,-2z M40,8l2,0 0,2 -2,0 0,-2z M42,8l2,0 0,2 -2,0 0,-2z M44,8l2,0 0,2 -2,0 0,-2z M46,8l2,0 0,2 -2,0 0,-2z M48,8l2,0 0,2 -2,0 0,-2z M52,8l2,0 0,2 -2,0 0,-2z M54,8l2,0 0,2 -2,0 0,-2z M56,8l2,0 0,2 -2,0 0,-2z M58,8l2,0 0,2 -2,0 0,-2z M60,8l2,0 0,2 -2,0 0,-2z M62,8l2,0 0,2 -2,0 0,-2z M64,8l2,0 0,2 -2,0 0,-2z M8,10l2,0 0,2 -2,0 0,-2z M20,10l2,0 0,2 -2,0 0,-2z M34,10l2,0 0,2 -2,0 0,-2z M36,10l2,0 0,2 -2,0 0,-2z M42,10l2,0 0,2 -2,0 0,-2z M48,10l2,0 0,2 -2,0 0,-2z M52,10l2,0 0,2 -2,0 0,-2z M64,10l2,0 0,2 -2,0 0,-2z M8,12l2,0 0,2 -2,0 0,-2z M12,12l2,0 0,2 -2,0 0,-2z M14,12l2,0 0,2 -2,0 0,-2z M16,12l2,0 0,2 -2,0 0,-2z M20,12l2,0 0,2 -2,0 0,-2z M24,12l2,0 0,2 -2,0 0,-2z M30,12l2,0 0,2 -2,0 0,-2z M32,12l2,0 0,2 -2,0 0,-2z M34,12l2,0 0,2 -2,0 0,-2z M38,12l2,0 0,2 -2,0 0,-2z M40,12l2,0 0,2 -2,0 0,-2z M44,12l2,0 0,2 -2,0 0,-2z M46,12l2,0 0,2 -2,0 0,-2z M48,12l2,0 0,2 -2,0 0,-2z M52,12l2,0 0,2 -2,0 0,-2z M56,12l2,0 0,2 -2,0 0,-2z M58,12l2,0 0,2 -2,0 0,-2z M60,12l2,0 0,2 -2,0 0,-2z M64,12l2,0 0,2 -2,0 0,-2z M8,14l2,0 0,2 -2,0 0,-2z M12,14l2,0 0,2 -2,0 0,-2z M14,14l2,0 0,2 -2,0 0,-2z M16,14l2,0 0,2 -2,0 0,-2z M20,14l2,0 0,2 -2,0 0,-2z M24,14l2,0 0,2 -2,0 0,-2z M26,14l2,0 0,2 -2,0 0,-2z M30,14l2,0 0,2 -2,0 0,-2z M38,14l2,0 0,2 -2,0 0,-2z M42,14l2,0 0,2 -2,0 0,-2z M46,14l2,0 0,2 -2,0 0,-2z M52,14l2,0 0,2 -2,0 0,-2z M56,14l2,0 0,2 -2,0 0,-2z M58,14l2,0 0,2 -2,0 0,-2z M60,14l2,0 0,2 -2,0 0,-2z M64,14l2,0 0,2 -2,0 0,-2z M8,16l2,0 0,2 -2,0 0,-2z M12,16l2,0 0,2 -2,0 0,-2z M14,16l2,0 0,2 -2,0 0,-2z M16,16l2,0 0,2 -2,0 0,-2z M20,16l2,0 0,2 -2,0 0,-2z M24,16l2,0 0,2 -2,0 0,-2z M26,16l2,0 0,2 -2,0 0,-2z M28,16l2,0 0,2 -2,0 0,-2z M30,16l2,0 0,2 -2,0 0,-2z M34,16l2,0 0,2 -2,0 0,-2z M36,16l2,0 0,2 -2,0 0,-2z M38,16l2,0 0,2 -2,0 0,-2z M40,16l2,0 0,2 -2,0 0,-2z M46,16l2,0 0,2 -2,0 0,-2z M52,16l2,0 0,2 -2,0 0,-2z M56,16l2,0 0,2 -2,0 0,-2z M58,16l2,0 0,2 -2,0 0,-2z M60,16l2,0 0,2 -2,0 0,-2z M64,16l2,0 0,2 -2,0 0,-2z M8,18l2,0 0,2 -2,0 0,-2z M20,18l2,0 0,2 -2,0 0,-2z M26,18l2,0 0,2 -2,0 0,-2z M32,18l2,0 0,2 -2,0 0,-2z M36,18l2,0 0,2 -2,0 0,-2z M42,18l2,0 0,2 -2,0 0,-2z M44,18l2,0 0,2 -2,0 0,-2z M46,18l2,0 0,2 -2,0 0,-2z M52,18l2,0 0,2 -2,0 0,-2z M64,18l2,0 0,2 -2,0 0,-2z M8,20l2,0 0,2 -2,0 0,-2z M10,20l2,0 0,2 -2,0 0,-2z M12,20l2,0 0,2 -2,0 0,-2z M14,20l2,0 0,2 -2,0 0,-2z M16,20l2,0 0,2 -2,0 0,-2z M18,20l2,0 0,2 -2,0 0,-2z M20,20l2,0 0,2 -2,0 0,-2z M24,20l2,0 0,2 -2,0 0,-2z M28,20l2,0 0,2 -2,0 0,-2z M32,20l2,0 0,2 -2,0 0,-2z M36,20l2,0 0,2 -2,0 0,-2z M40,20l2,0 0,2 -2,0 0,-2z M44,20l2,0 0,2 -2,0 0,-2z M48,20l2,0 0,2 -2,0 0,-2z M52,20l2,0 0,2 -2,0 0,-2z M54,20l2,0 0,2 -2,0 0,-2z M56,20l2,0 0,2 -2,0 0,-2z M58,20l2,0 0,2 -2,0 0,-2z M60,20l2,0 0,2 -2,0 0,-2z M62,20l2,0 0,2 -2,0 0,-2z M64,20l2,0 0,2 -2,0 0,-2z M26,22l2,0 0,2 -2,0 0,-2z M30,22l2,0 0,2 -2,0 0,-2z M34,22l2,0 0,2 -2,0 0,-2z M36,22l2,0 0,2 -2,0 0,-2z M38,22l2,0 0,2 -2,0 0,-2z M40,22l2,0 0,2 -2,0 0,-2z M42,22l2,0 0,2 -2,0 0,-2z M46,22l2,0 0,2 -2,0 0,-2z M8,24l2,0 0,2 -2,0 0,-2z M10,24l2,0 0,2 -2,0 0,-2z M12,24l2,0 0,2 -2,0 0,-2z M14,24l2,0 0,2 -2,0 0,-2z M20,24l2,0 0,2 -2,0 0,-2z M24,24l2,0 0,2 -2,0 0,-2z M34,24l2,0 0,2 -2,0 0,-2z M36,24l2,0 0,2 -2,0 0,-2z M42,24l2,0 0,2 -2,0 0,-2z M44,24l2,0 0,2 -2,0 0,-2z M50,24l2,0 0,2 -2,0 0,-2z M56,24l2,0 0,2 -2,0 0,-2z M58,24l2,0 0,2 -2,0 0,-2z M60,24l2,0 0,2 -2,0 0,-2z M64,24l2,0 0,2 -2,0 0,-2z M8,26l2,0 0,2 -2,0 0,-2z M10,26l2,0 0,2 -2,0 0,-2z M16,26l2,0 0,2 -2,0 0,-2z M22,26l2,0 0,2 -2,0 0,-2z M26,26l2,0 0,2 -2,0 0,-2z M40,26l2,0 0,2 -2,0 0,-2z M42,26l2,0 0,2 -2,0 0,-2z M44,26l2,0 0,2 -2,0 0,-2z M46,26l2,0 0,2 -2,0 0,-2z M50,26l2,0 0,2 -2,0 0,-2z M52,26l2,0 0,2 -2,0 0,-2z M54,26l2,0 0,2 -2,0 0,-2z M56,26l2,0 0,2 -2,0 0,-2z M64,26l2,0 0,2 -2,0 0,-2z M8,28l2,0 0,2 -2,0 0,-2z M14,28l2,0 0,2 -2,0 0,-2z M16,28l2,0 0,2 -2,0 0,-2z M20,28l2,0 0,2 -2,0 0,-2z M24,28l2,0 0,2 -2,0 0,-2z M36,28l2,0 0,2 -2,0 0,-2z M40,28l2,0 0,2 -2,0 0,-2z M48,28l2,0 0,2 -2,0 0,-2z M50,28l2,0 0,2 -2,0 0,-2z M52,28l2,0 0,2 -2,0 0,-2z M60,28l2,0 0,2 -2,0 0,-2z M62,28l2,0 0,2 -2,0 0,-2z M8,30l2,0 0,2 -2,0 0,-2z M18,30l2,0 0,2 -2,0 0,-2z M24,30l2,0 0,2 -2,0 0,-2z M30,30l2,0 0,2 -2,0 0,-2z M32,30l2,0 0,2 -2,0 0,-2z M34,30l2,0 0,2 -2,0 0,-2z M36,30l2,0 0,2 -2,0 0,-2z M38,30l2,0 0,2 -2,0 0,-2z M40,30l2,0 0,2 -2,0 0,-2z M44,30l2,0 0,2 -2,0 0,-2z M46,30l2,0 0,2 -2,0 0,-2z M50,30l2,0 0,2 -2,0 0,-2z M52,30l2,0 0,2 -2,0 0,-2z M64,30l2,0 0,2 -2,0 0,-2z M8,32l2,0 0,2 -2,0 0,-2z M16,32l2,0 0,2 -2,0 0,-2z M20,32l2,0 0,2 -2,0 0,-2z M26,32l2,0 0,2 -2,0 0,-2z M30,32l2,0 0,2 -2,0 0,-2z M38,32l2,0 0,2 -2,0 0,-2z M42,32l2,0 0,2 -2,0 0,-2z M44,32l2,0 0,2 -2,0 0,-2z M48,32l2,0 0,2 -2,0 0,-2z M58,32l2,0 0,2 -2,0 0,-2z M60,32l2,0 0,2 -2,0 0,-2z M12,34l2,0 0,2 -2,0 0,-2z M14,34l2,0 0,2 -2,0 0,-2z M16,34l2,0 0,2 -2,0 0,-2z M18,34l2,0 0,2 -2,0 0,-2z M22,34l2,0 0,2 -2,0 0,-2z M24,34l2,0 0,2 -2,0 0,-2z M28,34l2,0 0,2 -2,0 0,-2z M30,34l2,0 0,2 -2,0 0,-2z M34,34l2,0 0,2 -2,0 0,-2z M40,34l2,0 0,2 -2,0 0,-2z M46,34l2,0 0,2 -2,0 0,-2z M52,34l2,0 0,2 -2,0 0,-2z M60,34l2,0 0,2 -2,0 0,-2z M62,34l2,0 0,2 -2,0 0,-2z M64,34l2,0 0,2 -2,0 0,-2z M8,36l2,0 0,2 -2,0 0,-2z M10,36l2,0 0,2 -2,0 0,-2z M14,36l2,0 0,2 -2,0 0,-2z M20,36l2,0 0,2 -2,0 0,-2z M26,36l2,0 0,2 -2,0 0,-2z M28,36l2,0 0,2 -2,0 0,-2z M32,36l2,0 0,2 -2,0 0,-2z M36,36l2,0 0,2 -2,0 0,-2z M40,36l2,0 0,2 -2,0 0,-2z M42,36l2,0 0,2 -2,0 0,-2z M44,36l2,0 0,2 -2,0 0,-2z M46,36l2,0 0,2 -2,0 0,-2z M52,36l2,0 0,2 -2,0 0,-2z M60,36l2,0 0,2 -2,0 0,-2z M62,36l2,0 0,2 -2,0 0,-2z M64,36l2,0 0,2 -2,0 0,-2z M8,38l2,0 0,2 -2,0 0,-2z M10,38l2,0 0,2 -2,0 0,-2z M12,38l2,0 0,2 -2,0 0,-2z M16,38l2,0 0,2 -2,0 0,-2z M18,38l2,0 0,2 -2,0 0,-2z M22,38l2,0 0,2 -2,0 0,-2z M24,38l2,0 0,2 -2,0 0,-2z M32,38l2,0 0,2 -2,0 0,-2z M34,38l2,0 0,2 -2,0 0,-2z M38,38l2,0 0,2 -2,0 0,-2z M54,38l2,0 0,2 -2,0 0,-2z M56,38l2,0 0,2 -2,0 0,-2z M62,38l2,0 0,2 -2,0 0,-2z M10,40l2,0 0,2 -2,0 0,-2z M12,40l2,0 0,2 -2,0 0,-2z M14,40l2,0 0,2 -2,0 0,-2z M18,40l2,0 0,2 -2,0 0,-2z M20,40l2,0 0,2 -2,0 0,-2z M30,40l2,0 0,2 -2,0 0,-2z M38,40l2,0 0,2 -2,0 0,-2z M40,40l2,0 0,2 -2,0 0,-2z M50,40l2,0 0,2 -2,0 0,-2z M56,40l2,0 0,2 -2,0 0,-2z M58,40l2,0 0,2 -2,0 0,-2z M62,40l2,0 0,2 -2,0 0,-2z M12,42l2,0 0,2 -2,0 0,-2z M14,42l2,0 0,2 -2,0 0,-2z M16,42l2,0 0,2 -2,0 0,-2z M24,42l2,0 0,2 -2,0 0,-2z M32,42l2,0 0,2 -2,0 0,-2z M34,42l2,0 0,2 -2,0 0,-2z M44,42l2,0 0,2 -2,0 0,-2z M48,42l2,0 0,2 -2,0 0,-2z M50,42l2,0 0,2 -2,0 0,-2z M54,42l2,0 0,2 -2,0 0,-2z M58,42l2,0 0,2 -2,0 0,-2z M60,42l2,0 0,2 -2,0 0,-2z M62,42l2,0 0,2 -2,0 0,-2z M8,44l2,0 0,2 -2,0 0,-2z M16,44l2,0 0,2 -2,0 0,-2z M18,44l2,0 0,2 -2,0 0,-2z M20,44l2,0 0,2 -2,0 0,-2z M24,44l2,0 0,2 -2,0 0,-2z M28,44l2,0 0,2 -2,0 0,-2z M30,44l2,0 0,2 -2,0 0,-2z M32,44l2,0 0,2 -2,0 0,-2z M38,44l2,0 0,2 -2,0 0,-2z M42,44l2,0 0,2 -2,0 0,-2z M44,44l2,0 0,2 -2,0 0,-2z M48,44l2,0 0,2 -2,0 0,-2z M50,44l2,0 0,2 -2,0 0,-2z M54,44l2,0 0,2 -2,0 0,-2z M56,44l2,0 0,2 -2,0 0,-2z M60,44l2,0 0,2 -2,0 0,-2z M12,46l2,0 0,2 -2,0 0,-2z M14,46l2,0 0,2 -2,0 0,-2z M22,46l2,0 0,2 -2,0 0,-2z M32,46l2,0 0,2 -2,0 0,-2z M40,46l2,0 0,2 -2,0 0,-2z M42,46l2,0 0,2 -2,0 0,-2z M48,46l2,0 0,2 -2,0 0,-2z M50,46l2,0 0,2 -2,0 0,-2z M52,46l2,0 0,2 -2,0 0,-2z M60,46l2,0 0,2 -2,0 0,-2z M10,48l2,0 0,2 -2,0 0,-2z M18,48l2,0 0,2 -2,0 0,-2z M20,48l2,0 0,2 -2,0 0,-2z M26,48l2,0 0,2 -2,0 0,-2z M28,48l2,0 0,2 -2,0 0,-2z M30,48l2,0 0,2 -2,0 0,-2z M32,48l2,0 0,2 -2,0 0,-2z M34,48l2,0 0,2 -2,0 0,-2z M40,48l2,0 0,2 -2,0 0,-2z M44,48l2,0 0,2 -2,0 0,-2z M46,48l2,0 0,2 -2,0 0,-2z M48,48l2,0 0,2 -2,0 0,-2z M50,48l2,0 0,2 -2,0 0,-2z M52,48l2,0 0,2 -2,0 0,-2z M54,48l2,0 0,2 -2,0 0,-2z M56,48l2,0 0,2 -2,0 0,-2z M58,48l2,0 0,2 -2,0 0,-2z M60,48l2,0 0,2 -2,0 0,-2z M24,50l2,0 0,2 -2,0 0,-2z M26,50l2,0 0,2 -2,0 0,-2z M28,50l2,0 0,2 -2,0 0,-2z M32,50l2,0 0,2 -2,0 0,-2z M34,50l2,0 0,2 -2,0 0,-2z M36,50l2,0 0,2 -2,0 0,-2z M38,50l2,0 0,2 -2,0 0,-2z M40,50l2,0 0,2 -2,0 0,-2z M42,50l2,0 0,2 -2,0 0,-2z M44,50l2,0 0,2 -2,0 0,-2z M48,50l2,0 0,2 -2,0 0,-2z M56,50l2,0 0,2 -2,0 0,-2z M58,50l2,0 0,2 -2,0 0,-2z M60,50l2,0 0,2 -2,0 0,-2z M62,50l2,0 0,2 -2,0 0,-2z M64,50l2,0 0,2 -2,0 0,-2z M8,52l2,0 0,2 -2,0 0,-2z M10,52l2,0 0,2 -2,0 0,-2z M12,52l2,0 0,2 -2,0 0,-2z M14,52l2,0 0,2 -2,0 0,-2z M16,52l2,0 0,2 -2,0 0,-2z M18,52l2,0 0,2 -2,0 0,-2z M20,52l2,0 0,2 -2,0 0,-2z M30,52l2,0 0,2 -2,0 0,-2z M32,52l2,0 0,2 -2,0 0,-2z M34,52l2,0 0,2 -2,0 0,-2z M40,52l2,0 0,2 -2,0 0,-2z M42,52l2,0 0,2 -2,0 0,-2z M44,52l2,0 0,2 -2,0 0,-2z M46,52l2,0 0,2 -2,0 0,-2z M48,52l2,0 0,2 -2,0 0,-2z M52,52l2,0 0,2 -2,0 0,-2z M56,52l2,0 0,2 -2,0 0,-2z M58,52l2,0 0,2 -2,0 0,-2z M62,52l2,0 0,2 -2,0 0,-2z M8,54l2,0 0,2 -2,0 0,-2z M20,54l2,0 0,2 -2,0 0,-2z M38,54l2,0 0,2 -2,0 0,-2z M48,54l2,0 0,2 -2,0 0,-2z M56,54l2,0 0,2 -2,0 0,-2z M58,54l2,0 0,2 -2,0 0,-2z M62,54l2,0 0,2 -2,0 0,-2z M64,54l2,0 0,2 -2,0 0,-2z M8,56l2,0 0,2 -2,0 0,-2z M12,56l2,0 0,2 -2,0 0,-2z M14,56l2,0 0,2 -2,0 0,-2z M16,56l2,0 0,2 -2,0 0,-2z M20,56l2,0 0,2 -2,0 0,-2z M32,56l2,0 0,2 -2,0 0,-2z M36,56l2,0 0,2 -2,0 0,-2z M38,56l2,0 0,2 -2,0 0,-2z M42,56l2,0 0,2 -2,0 0,-2z M44,56l2,0 0,2 -2,0 0,-2z M48,56l2,0 0,2 -2,0 0,-2z M50,56l2,0 0,2 -2,0 0,-2z M52,56l2,0 0,2 -2,0 0,-2z M54,56l2,0 0,2 -2,0 0,-2z M56,56l2,0 0,2 -2,0 0,-2z M60,56l2,0 0,2 -2,0 0,-2z M8,58l2,0 0,2 -2,0 0,-2z M12,58l2,0 0,2 -2,0 0,-2z M14,58l2,0 0,2 -2,0 0,-2z M16,58l2,0 0,2 -2,0 0,-2z M20,58l2,0 0,2 -2,0 0,-2z M24,58l2,0 0,2 -2,0 0,-2z M26,58l2,0 0,2 -2,0 0,-2z M28,58l2,0 0,2 -2,0 0,-2z M30,58l2,0 0,2 -2,0 0,-2z M32,58l2,0 0,2 -2,0 0,-2z M36,58l2,0 0,2 -2,0 0,-2z M40,58l2,0 0,2 -2,0 0,-2z M42,58l2,0 0,2 -2,0 0,-2z M44,58l2,0 0,2 -2,0 0,-2z M50,58l2,0 0,2 -2,0 0,-2z M54,58l2,0 0,2 -2,0 0,-2z M56,58l2,0 0,2 -2,0 0,-2z M58,58l2,0 0,2 -2,0 0,-2z M64,58l2,0 0,2 -2,0 0,-2z M8,60l2,0 0,2 -2,0 0,-2z M12,60l2,0 0,2 -2,0 0,-2z M14,60l2,0 0,2 -2,0 0,-2z M16,60l2,0 0,2 -2,0 0,-2z M20,60l2,0 0,2 -2,0 0,-2z M24,60l2,0 0,2 -2,0 0,-2z M28,60l2,0 0,2 -2,0 0,-2z M30,60l2,0 0,2 -2,0 0,-2z M34,60l2,0 0,2 -2,0 0,-2z M40,60l2,0 0,2 -2,0 0,-2z M42,60l2,0 0,2 -2,0 0,-2z M44,60l2,0 0,2 -2,0 0,-2z M48,60l2,0 0,2 -2,0 0,-2z M54,60l2,0 0,2 -2,0 0,-2z M60,60l2,0 0,2 -2,0 0,-2z M64,60l2,0 0,2 -2,0 0,-2z M8,62l2,0 0,2 -2,0 0,-2z M20,62l2,0 0,2 -2,0 0,-2z M24,62l2,0 0,2 -2,0 0,-2z M26,62l2,0 0,2 -2,0 0,-2z M28,62l2,0 0,2 -2,0 0,-2z M30,62l2,0 0,2 -2,0 0,-2z M36,62l2,0 0,2 -2,0 0,-2z M48,62l2,0 0,2 -2,0 0,-2z M50,62l2,0 0,2 -2,0 0,-2z M52,62l2,0 0,2 -2,0 0,-2z M54,62l2,0 0,2 -2,0 0,-2z M56,62l2,0 0,2 -2,0 0,-2z M58,62l2,0 0,2 -2,0 0,-2z M62,62l2,0 0,2 -2,0 0,-2z M8,64l2,0 0,2 -2,0 0,-2z M10,64l2,0 0,2 -2,0 0,-2z M12,64l2,0 0,2 -2,0 0,-2z M14,64l2,0 0,2 -2,0 0,-2z M16,64l2,0 0,2 -2,0 0,-2z M18,64l2,0 0,2 -2,0 0,-2z M20,64l2,0 0,2 -2,0 0,-2z M24,64l2,0 0,2 -2,0 0,-2z M26,64l2,0 0,2 -2,0 0,-2z M28,64l2,0 0,2 -2,0 0,-2z M32,64l2,0 0,2 -2,0 0,-2z M36,64l2,0 0,2 -2,0 0,-2z M40,64l2,0 0,2 -2,0 0,-2z M44,64l2,0 0,2 -2,0 0,-2z M48,64l2,0 0,2 -2,0 0,-2z M50,64l2,0 0,2 -2,0 0,-2z M52,64l2,0 0,2 -2,0 0,-2z M56,64l2,0 0,2 -2,0 0,-2z M62,64l2,0 0,2 -2,0 0,-2z " stroke="transparent" fill="black"/></svg>
