<svg xmlns="http://www.w3.org/2000/svg" width="160" height="160" fill="none"><path d="M0 0h160v160H0z" style="fill:#06353d;stroke-width:16.3481;stroke-dasharray:16.3481,16.3481;fill-opacity:1"/><g fill="#95f921"><path d="M125.984 108.23c.015-2.485 9.5-2.379 9.44-4.707-.036-1.382-2.557-1.672-3.086-3.492a3.02 3.02 0 0 1-.061-1.174c.04-.27.107-.56.219-.875a55.486 55.486 0 0 0 3.004-18.04c-.005-30.653-24.853-55.5-55.5-55.5-30.648 0-55.5 24.847-55.5 55.5a55.417 55.417 0 0 0 2.969 17.939c.01.05.03.106.05.162.056.148.102.285.143.422.686 2.46-3.147 3.442-3.147 4.926 0 2.354 8.256 2.038 8.256 4.773 0 2.384-8.164 3.121-8.164 5.531 0 3.324 18.081 2.165 18.305 5.022.178 2.206-6.217 2.339-6.253 4.697-.06 3.762 24.675 2.532 24.675 5.038 0 1.896-11.25 1.21-11.25 3.452 0 2.241 14.808 3.654 31.13 3.654 16.323 0 27.583-1.814 27.583-3.777 0-1.962-10.507-1.555-10.294-3.33.377-3.085 23.699-1.509 23.699-5.082 0-1.881-6.415-2.324-6.207-4.357.295-2.867 19.495-2.445 19.495-5.424 0-2.343-9.516-2.918-9.501-5.353zm-24.868 14.03c0 1.642-7.437 2.39-21.716 2.39-11.676 0-23.272-.732-23.272-2.639 0-1.906 13.832-2.079 23.343-2.064 12.663.026 21.65.61 21.65 2.313zM80 38.934c17.507 0 32.447 10.97 38.328 26.413.682 2.003-1.784 1.881-3.522 1.881h-4.728c-3.375 0-7.625.407-7.625 1.332 0 1.159 10.32 1.093 11.453 1.093 3.33 0 5.937.249 6.319 2.292a41.07 41.07 0 0 1 .782 7.996 40.88 40.88 0 0 1-3.05 15.535c-.64 1.408-1.474 2.14-2.49 2.75-4.88 2.715-13.726 2.227-13.726 3.864 0 2.374 14.9 1.362 14.92 3.426.03 3.152-26.58 1.28-26.58 4.122 0 2.817 21.41 1.505 21.41 4.458 0 1.485-6.877 2.034-14.37 2.222-11.646.153-32.234.066-39.991-.203l.01.01c-5.251-.188-9.72-.905-11.473-1.662-.483-.209-.503-.793-.04-1.032 5.301-2.73 37.677-.554 37.677-3.727 0-3.171-31.99-.975-31.964-3.726.02-1.957 13.98-1.784 25.05-1.784 14.34 0 18.743-.717 18.738-1.748-.01-2.08-17.634-.86-17.7-3.193-.061-2.262 27.892-.61 27.892-2.826 0-1.408-12.144-1.54-24.288-1.495-12.144.046-24.288.066-24.288 1.571 0 1.703 14.37 1.042 14.37 2.75 0 1.347-7.9 1.627-16.144 1.627-5.445 0-9.664-.412-11.733-2.98a4.824 4.824 0 0 1-.478-.797 40.91 40.91 0 0 1-3.756-17.156c0-22.647 18.356-41.003 41.002-41.003z"/><path d="M79.161 91.75c17.66 0 34.857.254 34.857-1.718 0-2.39-24.66-2.11-37.475-2.11-10.161 0-28.38-.32-28.38 1.952 0 2.273 20.4 1.876 30.993 1.876zM90.568 84.969c11.61 0 17.426-.137 17.426-1.535 0-2.024-15.81-.9-15.81-2.908 0-1.764 9.99-.773 9.99-2.664 0-1.489-11.184-1.352-17.284-1.352-6.76 0-13.42.254-13.42 1.525 0 1.642 17.045.722 17.045 2.405 0 2.41-27.044.67-27.044 2.994 0 2.2 17.578 1.535 29.092 1.535zM101.96 74.207c2.486 0 9.78-.152 9.78-1.153 0-1.002-5.403-1.322-11.02-1.312-3.859 0-11.728.066-11.728 1.195 0 1.128 5.973 1.27 12.968 1.27zM106.164 77.893c0 .945 4.173 1.332 7.37 1.332 1.851 0 5.374-.387 5.374-1.134 0-.905-3.62-1.184-5.82-1.215-2.852-.035-6.924.199-6.924 1.012z"/></g></svg>