<svg width="80" height="80" viewBox="0 0 80 80" fill="none" xmlns="http://www.w3.org/2000/svg">
<path d="M51.4 17.4371C58 20.2371 62.4 27.1371 61.9 34.1371C50.1 34.1371 38.3 34.2371 26.5 34.0371C26.5 29.3371 28.1 24.5371 31.5 21.2371C36.5 16.1371 44.8 14.5371 51.4 17.4371Z" fill="#5FC0C1"/>
<path d="M50.9 62.437C51.6 62.437 52.2 62.8371 52.2 63.3371C52.2 63.8371 51.6 64.237 50.9 64.237H31.9C31.2 64.237 30.6 63.8371 30.6 63.3371C30.6 62.8371 31.2 62.437 31.9 62.437H50.9Z" fill="#E1177C"/>
<path d="M27.8 64.237C28.518 64.237 29.1 63.655 29.1 62.937C29.1 62.2191 28.518 61.6371 27.8 61.6371C27.082 61.6371 26.5 62.2191 26.5 62.937C26.5 63.655 27.082 64.237 27.8 64.237Z" fill="#E1177C"/>
<path d="M39.2 59.437C39.918 59.437 40.5 58.855 40.5 58.1371C40.5 57.4191 39.918 56.8371 39.2 56.8371C38.4821 56.8371 37.9 57.4191 37.9 58.1371C37.9 58.855 38.4821 59.437 39.2 59.437Z" fill="#E1177C"/>
<path d="M61.5 56.8371C62.2 56.8371 62.8 57.4371 62.8 58.1371C62.8 58.8371 62.2 59.437 61.5 59.437H42.9C42.2 59.437 41.6 58.8371 41.6 58.1371C41.6 57.4371 42.2 56.8371 42.9 56.8371H61.5Z" fill="#E1177C"/>
<path d="M14.8 54.6371C15.518 54.6371 16.1 54.055 16.1 53.3371C16.1 52.6191 15.518 52.037 14.8 52.037C14.082 52.037 13.5 52.6191 13.5 53.3371C13.5 54.055 14.082 54.6371 14.8 54.6371Z" fill="#E1177C"/>
<path d="M33.3 52.037C34 52.037 34.6 52.6371 34.6 53.3371C34.6 54.0371 34 54.6371 33.3 54.6371H18C17.3 54.6371 16.7 54.0371 16.7 53.3371C16.7 52.6371 17.3 52.037 18 52.037H33.3Z" fill="#E1177C"/>
<path d="M67.6 52.037C68.3 52.037 68.9 52.6371 68.9 53.3371C68.9 54.0371 68.3 54.6371 67.6 54.6371H37.2C36.5 54.6371 35.9 54.0371 35.9 53.3371C35.9 52.6371 36.5 52.037 37.2 52.037H67.6Z" fill="#E1177C"/>
<path d="M61.9 47.237C62.6 47.237 63.2 47.837 63.2 48.537C63.2 49.237 62.6 49.8371 61.9 49.8371H24.6C23.9 49.8371 23.3 49.237 23.3 48.537C23.3 47.837 23.9 47.237 24.6 47.237H61.9Z" fill="#E1177C"/>
<path d="M20.5 49.8371C21.218 49.8371 21.8 49.255 21.8 48.537C21.8 47.8191 21.218 47.237 20.5 47.237C19.782 47.237 19.2 47.8191 19.2 48.537C19.2 49.255 19.782 49.8371 20.5 49.8371Z" fill="#E1177C"/>
<path d="M54.1 42.537C54.8 42.537 55.4 43.1371 55.4 43.8371C55.4 44.5371 54.8 45.1371 54.1 45.1371H16.8C16.1 45.1371 15.5 44.5371 15.5 43.8371C15.5 43.1371 16.1 42.537 16.8 42.537H54.1Z" fill="#E1177C"/>
<path d="M12.3 45.1371C13.018 45.1371 13.6 44.555 13.6 43.8371C13.6 43.1191 13.018 42.537 12.3 42.537C11.582 42.537 11 43.1191 11 43.8371C11 44.555 11.582 45.1371 12.3 45.1371Z" fill="#E1177C"/>
<path d="M20.5 40.3371C21.218 40.3371 21.8 39.755 21.8 39.037C21.8 38.3191 21.218 37.737 20.5 37.737C19.782 37.737 19.2 38.3191 19.2 39.037C19.2 39.755 19.782 40.3371 20.5 40.3371Z" fill="#E1177C"/>
<path d="M65.5 37.737C66.2 37.737 66.8 38.337 66.8 39.037C66.8 39.737 66.2 40.3371 65.5 40.3371H24.9C24.2 40.3371 23.6 39.737 23.6 39.037C23.6 38.337 24.2 37.737 24.9 37.737H65.5Z" fill="#E1177C"/>
</svg>
