<svg xmlns="http://www.w3.org/2000/svg" width="160" height="160" fill="none"><path d="M0 0h160v160H0z" style="fill:#958fdc;stroke-width:17.1511;stroke-dasharray:17.1511,17.1511;fill-opacity:1"/><path fill="#2B1D3C" d="M135.912 80.069c0-30.566-24.89-55.343-55.59-55.343-30.698 0-55.595 24.777-55.595 55.343 0 6.319 1.067 12.388 3.024 18.045.012.025.119.35.119.35.79 2.504-3.13 3.484-3.13 4.983 0 2.348 8.267 2.029 8.267 4.758 0 2.379-8.18 3.116-8.18 5.514 0 3.315 18.11 2.16 18.342 5.008.176 2.198-6.229 2.335-6.266 4.683-.063 3.753 24.714 2.522 24.714 5.02 0 1.892-11.272 1.205-11.272 3.441 0 2.235 14.835 3.646 31.189 3.646 16.353 0 27.631-1.81 27.631-3.765 0-1.954-10.526-1.555-10.306-3.316.376-3.078 23.742-1.504 23.742-5.07 0-1.879-6.423-2.316-6.216-4.34.295-2.859 19.527-2.435 19.527-5.407 0-2.335-9.534-2.91-9.516-5.339.013-2.479 9.516-2.373 9.453-4.696-.05-1.785-4.252-1.742-2.935-5.526a55.092 55.092 0 0 0 3.011-17.99h-.013Zm-17.664 15.716c-1.932 4.353-6.273 3.478-6.762 5.308-.508 1.892 5.351 2.167 5.351 4.146 0 2.404-17.859 1.443-17.683 4.615.113 1.998 12.683 2.335 12.445 4.421-.345 3.022-19.477 1.511-19.665 4.408-.138 2.123 9.34 2.198 9.359 4.134.019 1.629-7.44 2.516-21.73 2.516-16.27 0-24.187-.874-23.284-2.691.84-1.699 15.25-1.386 15.105-4.059-.144-2.666-25.587-1.886-26.352-4.477-.64-2.154 8.362-2.598 8.305-4.646-.056-2.085-11.523-1.611-11.774-4.14-.163-1.654 5.99-1.555 5.727-3.64-.194-1.517-2.734-1.305-4.24-4.434a40.685 40.685 0 0 1-3.795-17.184c0-22.579 18.392-40.887 41.074-40.887s41.074 18.308 41.074 40.887c0 5.57-1.123 10.878-3.149 15.717l-.006.006Z"/><path fill="#2B1D3C" fill-rule="evenodd" d="M27.75 98.114a55.088 55.088 0 0 1-3.023-18.045c0-30.566 24.897-55.343 55.596-55.343 30.699 0 55.589 24.777 55.589 55.343h.013l-.002.446a55.079 55.079 0 0 1-3.009 17.543c-.817 2.347.488 3.221 1.61 3.973.688.46 1.306.875 1.325 1.553.031 1.145-2.261 1.7-4.596 2.265-2.403.582-4.85 1.174-4.857 2.431-.009 1.227 2.42 1.981 4.826 2.728 2.356.731 4.69 1.455 4.69 2.611 0 1.505-4.933 2.139-9.841 2.77-4.783.615-9.54 1.226-9.686 2.637-.106 1.04 1.539 1.661 3.163 2.274 1.536.58 3.053 1.153 3.053 2.066 0 1.852-6.305 2.318-12.418 2.769-5.654.417-11.143.822-11.324 2.301-.108.862 2.356 1.206 4.901 1.562 2.658.372 5.405.756 5.405 1.754 0 1.955-11.278 3.765-27.632 3.765-16.353 0-31.188-1.411-31.188-3.646 0-1.165 3.058-1.536 5.989-1.892 2.695-.328 5.283-.642 5.283-1.549 0-1.122-4.998-1.491-10.498-1.898-6.748-.5-14.25-1.055-14.216-3.122.019-1.183 1.653-1.805 3.248-2.411 1.572-.598 3.105-1.182 3.018-2.272-.111-1.367-4.34-1.811-8.708-2.271-4.735-.498-9.633-1.013-9.633-2.737 0-1.201 2.053-1.986 4.102-2.769 2.04-.779 4.077-1.558 4.077-2.745 0-1.415-2.225-2.011-4.366-2.584-1.987-.532-3.901-1.044-3.901-2.174 0-.612.654-1.138 1.375-1.717 1.042-.837 2.222-1.785 1.755-3.266 0 0-.107-.325-.12-.35Zm-.305.487c.157.497.082.901-.122 1.272-.215.392-.577.752-1.01 1.118-.14.119-.295.244-.452.37-.292.235-.592.476-.83.705-.366.353-.737.809-.737 1.381 0 .442.2.803.49 1.086.28.275.659.492 1.067.673.75.332 1.722.592 2.666.844l.241.065c1.043.28 2.03.558 2.757.925.745.375 1.046.754 1.046 1.165 0 .158-.065.329-.239.525-.178.202-.451.407-.815.616-.73.42-1.715.797-2.748 1.192l-.014.005c-1.008.385-2.062.787-2.862 1.25-.404.234-.77.497-1.038.803-.274.31-.463.685-.463 1.123 0 .652.453 1.115.998 1.435.554.326 1.314.576 2.178.78 1.735.411 4.035.669 6.307.909l.543.057c2.1.221 4.14.435 5.71.747.856.17 1.538.363 2.004.586.495.237.595.432.603.53.022.286-.15.576-.69.913-.532.33-1.27.611-2.074.917l-.003.001c-.781.297-1.624.619-2.272 1.024-.64.401-1.216.963-1.23 1.784-.012.753.6 1.258 1.294 1.6.725.356 1.735.635 2.903.863 2.343.457 5.46.734 8.55.971.633.049 1.265.095 1.89.142 2.437.18 4.761.352 6.598.585 1.156.147 2.09.314 2.728.515.322.101.537.2.662.29a.41.41 0 0 1 .086.075.152.152 0 0 1-.02.027.749.749 0 0 1-.226.166c-.253.137-.645.264-1.162.38-.946.211-2.188.362-3.485.52l-.347.042c-1.401.171-2.843.357-3.934.646-.544.144-1.038.322-1.405.559-.366.236-.689.589-.689 1.088 0 .542.44.924.893 1.185.487.281 1.174.532 2.01.759 1.68.456 4.072.844 6.956 1.161 5.774.635 13.589.988 21.776.988 8.19 0 15.12-.453 20.011-1.154 2.442-.35 4.394-.764 5.745-1.222.673-.228 1.222-.475 1.613-.746.372-.259.708-.617.708-1.09 0-.475-.326-.8-.662-1.01-.343-.215-.804-.38-1.309-.516-1.016-.274-2.355-.466-3.649-.647l-.155-.022c-1.257-.175-2.46-.344-3.351-.568-.467-.117-.807-.241-1.016-.367a.536.536 0 0 1-.164-.134l-.003-.004c.008-.043.04-.12.17-.228.139-.115.36-.237.674-.358.629-.241 1.535-.44 2.648-.609 2.051-.312 4.708-.508 7.427-.709l.683-.051c2.938-.218 5.896-.453 8.121-.86 1.108-.203 2.069-.454 2.763-.784.662-.315 1.259-.791 1.259-1.519 0-.374-.163-.688-.389-.941-.222-.248-.519-.455-.839-.635-.596-.335-1.368-.627-2.102-.904l-.144-.054c-.8-.302-1.54-.591-2.069-.918-.553-.342-.699-.615-.675-.842.01-.101.131-.312.674-.575.506-.245 1.241-.466 2.154-.668 1.777-.394 4.113-.694 6.484-.999l.175-.022c2.415-.311 4.853-.628 6.688-1.057.914-.214 1.711-.463 2.289-.769.548-.289 1.065-.721 1.065-1.363 0-.46-.238-.834-.551-1.127-.31-.29-.731-.537-1.195-.755-.903-.425-2.089-.793-3.24-1.15l-.093-.029c-1.2-.373-2.355-.735-3.209-1.15-.428-.207-.75-.413-.959-.617-.205-.2-.27-.366-.269-.507v-.002c.001-.149.068-.307.268-.49.206-.189.524-.374.95-.553.852-.358 2.001-.642 3.196-.931l.12-.029c1.135-.275 2.303-.557 3.191-.915.459-.185.88-.404 1.19-.678.316-.279.551-.649.538-1.114-.018-.648-.421-1.09-.831-1.421a9.506 9.506 0 0 0-.665-.473l-.022-.016c-.221-.147-.434-.29-.637-.446-.418-.321-.746-.664-.913-1.107-.164-.434-.196-1.03.108-1.904a55.507 55.507 0 0 0 3.036-18.136v-.447h-.015c-.241-30.61-25.24-55.343-56.033-55.343-30.943 0-56.042 24.975-56.042 55.79 0 6.37 1.075 12.488 3.048 18.192l.01.028.004.007.01.03a13.017 13.017 0 0 1 .077.228l.012.036.003.009m33.732 29.859-.002-.005.002.005Zm57.077-32.679a40.598 40.598 0 0 0 3.149-15.717c0-22.579-18.392-40.887-41.074-40.887S39.255 57.483 39.255 80.062a40.685 40.685 0 0 0 3.795 17.184c.839 1.743 1.998 2.45 2.895 2.995.713.434 1.26.767 1.345 1.439.14 1.105-1.522 1.596-3.092 2.061-1.392.411-2.711.801-2.635 1.579.131 1.322 3.326 1.823 6.355 2.298 2.766.434 5.392.847 5.42 1.842.027.992-2.07 1.607-4.167 2.223-2.234.656-4.469 1.312-4.139 2.423.378 1.281 6.785 1.738 13.186 2.194 6.55.468 13.093.935 13.166 2.283.082 1.51-4.481 2.067-8.618 2.572-3.187.389-6.121.748-6.487 1.487-.903 1.817 7.013 2.691 23.285 2.691 14.29 0 21.748-.887 21.729-2.516-.009-.942-2.256-1.443-4.546-1.954-2.418-.539-4.884-1.09-4.813-2.18.093-1.435 4.831-1.788 9.633-2.147 4.896-.365 9.858-.736 10.032-2.261.121-1.063-3.081-1.672-6.267-2.277-3.069-.584-6.123-1.164-6.178-2.144-.094-1.698 4.979-2.212 9.715-2.691 4.111-.416 7.968-.807 7.968-1.924 0-.976-1.425-1.537-2.808-2.083-1.422-.56-2.801-1.104-2.543-2.063.197-.736 1.017-1.034 2.052-1.411 1.539-.56 3.555-1.295 4.71-3.897l.006-.006Zm-.377-.254a40.154 40.154 0 0 0 3.08-15.463c0-22.33-18.189-40.44-40.628-40.44s-40.628 18.11-40.628 40.44c0 6.07 1.352 11.825 3.752 16.993.7 1.454 1.631 2.127 2.444 2.633l.26.159c.316.192.635.386.887.597.344.289.621.654.689 1.179v.001c.1.799-.444 1.323-1.027 1.659-.59.34-1.38.588-2.114.807l-.267.079c-.659.195-1.259.373-1.71.583-.256.118-.423.23-.519.331-.085.089-.093.145-.089.193.013.132.102.299.385.495.283.195.702.376 1.24.543 1.076.332 2.502.571 3.96.801l.4.063c1.31.205 2.62.411 3.631.679.556.148 1.058.323 1.432.547.363.218.715.551.728 1.044m0 0c.012.439-.225.787-.517 1.046-.29.258-.684.474-1.113.662-.802.353-1.843.658-2.847.953l-.214.063c-1.093.321-2.114.632-2.825.987-.357.178-.59.347-.717.499-.109.131-.12.222-.09.321 0-.002.004.017.038.053a.898.898 0 0 0 .184.139c.183.11.456.223.825.334.734.221 1.763.41 3.004.576 2.424.323 5.577.548 8.748.775l.214.015c3.232.23 6.467.465 8.903.81 1.215.172 2.256.375 3.008.627.373.125.703.272.95.452.245.178.476.438.495.799.031.57-.339.984-.774 1.27-.44.288-1.047.517-1.733.707-1.379.383-3.223.651-5.065.885-.485.061-.97.121-1.448.179-1.351.165-2.645.323-3.72.507-.727.125-1.33.258-1.772.406-.22.074-.385.147-.498.215-.119.072-.142.116-.14.112v.001c-.026.05-.023.074-.023.079 0 .006.004.03.042.076.087.107.298.256.711.416.813.316 2.178.591 4.123.813 3.873.443 9.899.661 18.032.661 7.14 0 12.556-.221 16.178-.644 1.816-.211 3.155-.471 4.03-.768.439-.149.731-.298.904-.433.171-.134.171-.209.171-.219v-.001c-.001-.038-.02-.136-.231-.29-.208-.153-.53-.306-.96-.457-.815-.286-1.894-.527-3.019-.778l-.18-.04c-1.168-.261-2.376-.537-3.282-.887-.452-.174-.865-.381-1.168-.638-.308-.261-.548-.62-.518-1.077.041-.635.589-1.027 1.148-1.276.594-.266 1.403-.463 2.325-.622 1.812-.31 4.192-.488 6.557-.664l.155-.012c2.433-.182 4.837-.365 6.655-.689.912-.162 1.644-.355 2.149-.585.534-.243.664-.457.678-.582.001-.009.003-.028-.026-.071a.853.853 0 0 0-.239-.213c-.267-.177-.69-.354-1.252-.528-1.118-.347-2.643-.643-4.214-.942l-.188-.035c-1.495-.285-3.015-.574-4.182-.912-.605-.175-1.146-.372-1.547-.604-.373-.216-.772-.546-.8-1.04v-.001c-.035-.647.404-1.106.927-1.418.53-.318 1.267-.562 2.104-.762 1.683-.402 3.929-.656 6.145-.884l.942-.096c1.902-.193 3.727-.377 5.145-.63.828-.147 1.484-.312 1.923-.501.22-.095.357-.184.433-.257a.275.275 0 0 0 .058-.072c.006-.011.006-.016.006-.019 0-.246-.179-.518-.696-.836-.492-.304-1.152-.564-1.853-.84l-.035-.014c-.686-.271-1.422-.562-1.949-.918-.266-.18-.514-.399-.674-.674a1.258 1.258 0 0 1-.129-.98c.174-.65.688-1.016 1.229-1.276.274-.132.581-.249.894-.363l.211-.078c.251-.09.507-.184.772-.29 1.334-.533 2.78-1.34 3.68-3.366l.033-.077.003-.002" clip-rule="evenodd"/></svg>