<?xml version="1.0" encoding="UTF-8" standalone="no"?>
<svg
   width="80"
   height="80"
   viewBox="0 0 80 80"
   fill="none"
   version="1.1"
   id="svg14"
   sodipodi:docname="moonbeam.svg"
   xml:space="preserve"
   inkscape:version="1.3.2 (091e20e, 2023-11-25, custom)"
   xmlns:inkscape="http://www.inkscape.org/namespaces/inkscape"
   xmlns:sodipodi="http://sodipodi.sourceforge.net/DTD/sodipodi-0.dtd"
   xmlns="http://www.w3.org/2000/svg"
   xmlns:svg="http://www.w3.org/2000/svg"><defs
     id="defs14" /><sodipodi:namedview
     id="namedview14"
     pagecolor="#ffffff"
     bordercolor="#000000"
     borderopacity="0.25"
     inkscape:showpageshadow="2"
     inkscape:pageopacity="0.0"
     inkscape:pagecheckerboard="0"
     inkscape:deskcolor="#d1d1d1"
     inkscape:zoom="11.93125"
     inkscape:cx="68.266108"
     inkscape:cy="59.298062"
     inkscape:window-width="3840"
     inkscape:window-height="2126"
     inkscape:window-x="3829"
     inkscape:window-y="-11"
     inkscape:window-maximized="1"
     inkscape:current-layer="svg14" /><rect
     style="fill:#000000;stroke-width:8.00359;stroke-dasharray:8.00359, 8.00359;fill-opacity:1"
     id="rect14"
     width="80"
     height="80"
     x="0"
     y="0" /><g
     style="fill:none"
     id="g14"
     transform="matrix(0.60195735,0,0,0.60195735,12.5,12.610941)"><path
       d="M 91.3583,45.4564 C 91.3583,20.351 70.9064,0 45.6817,0 20.4571,0 0,20.351 0,45.4564 c 0,5.1903 0.876215,10.1755 2.48433,14.8222 0.01031,0.0205 0.09793,0.2872 0.09793,0.2872 0.64943,2.0566 -2.5719516,2.8619 -2.5719516,4.0928 0,1.9284 6.7932416,1.6668 6.7932416,3.9081 0,1.9541 -6.7210827,2.5593 -6.7210827,4.5287 0,2.7234 14.8802327,1.7746 15.0709327,4.1133 0.1443,1.8053 -5.1182,1.9182 -5.1491,3.8466 -0.05153,3.0824 20.3076,2.072 20.3076,4.1235 0,1.5541 -9.2621,0.9899 -9.2621,2.826 0,1.8361 12.1897,2.9952 25.6267,2.9952 13.437,0 22.7043,-1.4873 22.7043,-3.0927 0,-1.6053 -8.6488,-1.277 -8.4684,-2.7233 0.3093,-2.5285 19.5087,-1.2361 19.5087,-4.1646 0,-1.5438 -5.2779,-1.9028 -5.1078,-3.5645 0.2422,-2.349 16.045,-2.0002 16.045,-4.4415 0,-1.9182 -7.8344,-2.3901 -7.8189,-4.3851 0.0103,-2.0362 7.8189,-1.949 7.7674,-3.8569 -0.0413,-1.4668 -3.4946,-1.4309 -2.4122,-4.539 1.5978,-4.6313 2.474,-9.6011 2.474,-14.776 z M 76.8441,58.3656 c -1.5875,3.5747 -5.1542,2.8567 -5.5563,4.3594 -0.4174,1.554 4.3966,1.7797 4.3966,3.4055 0,1.9746 -14.674,1.1848 -14.5297,3.7902 0.0927,1.6412 10.4218,1.9182 10.2259,3.6312 -0.2835,2.4823 -16.0038,1.2412 -16.1584,3.6209 -0.1134,1.7438 7.6746,1.8053 7.6901,3.3953 0.0154,1.3386 -6.1129,2.0669 -17.8542,2.0669 -13.37,0 -19.8746,-0.7181 -19.1324,-2.2105 0.6906,-1.3951 12.5298,-1.1386 12.4113,-3.3338 -0.1186,-2.1899 -21.024,-1.5488 -21.6528,-3.6773 -0.5258,-1.7694 6.8705,-2.1336 6.8241,-3.8158 -0.0463,-1.713 -9.4682,-1.3232 -9.6744,-3.4004 -0.134,-1.3591 4.9223,-1.2771 4.7058,-2.9901 -0.1598,-1.2463 -2.2473,-1.0719 -3.4843,-3.6414 -1.9946,-4.2928 -3.1183,-9.0728 -3.1183,-14.1144 0,-18.5457 15.1122,-33.5833 33.7498,-33.5833 18.6376,0 33.7497,15.0376 33.7497,33.5833 0,4.5749 -0.9226,8.9343 -2.5874,12.9091 z"
       fill="#ffffff"
       id="path1-2" /></g></svg>