<?xml version="1.0" encoding="UTF-8" standalone="no"?>
<svg
   width="80"
   height="80"
   viewBox="0 0 80 80"
   fill="none"
   version="1.1"
   id="svg14"
   sodipodi:docname="moonriver.svg"
   xml:space="preserve"
   inkscape:version="1.3.2 (091e20e, 2023-11-25, custom)"
   xmlns:inkscape="http://www.inkscape.org/namespaces/inkscape"
   xmlns:sodipodi="http://sodipodi.sourceforge.net/DTD/sodipodi-0.dtd"
   xmlns="http://www.w3.org/2000/svg"
   xmlns:svg="http://www.w3.org/2000/svg"><defs
     id="defs14" /><sodipodi:namedview
     id="namedview14"
     pagecolor="#ffffff"
     bordercolor="#000000"
     borderopacity="0.25"
     inkscape:showpageshadow="2"
     inkscape:pageopacity="0.0"
     inkscape:pagecheckerboard="0"
     inkscape:deskcolor="#d1d1d1"
     inkscape:zoom="11.93125"
     inkscape:cx="68.266108"
     inkscape:cy="59.298062"
     inkscape:window-width="3840"
     inkscape:window-height="2126"
     inkscape:window-x="3829"
     inkscape:window-y="-11"
     inkscape:window-maximized="1"
     inkscape:current-layer="svg14"
     showguides="true"><sodipodi:guide
       position="-46.432687,20.240964"
       orientation="1,0"
       id="guide1"
       inkscape:locked="false" /></sodipodi:namedview><rect
     style="fill:#06353d;stroke-width:8.00359;stroke-dasharray:8.00359, 8.00359;fill-opacity:1"
     id="rect14"
     width="80"
     height="80"
     x="0"
     y="0" /><g
     style="fill:none"
     id="g1"
     transform="matrix(0.30812325,0,0,0.30812325,12.5,12.470728)"><path
       d="m 163.2,134.75 c 0.02,-3.99 15.28,-3.82 15.18,-7.57 -0.06,-2.23 -4.11,-2.69 -4.96,-5.62 -0.14,-0.54 -0.19,-1.16 -0.1,-1.89 0.06,-0.43 0.17,-0.9 0.35,-1.41 3.13,-9.1 4.83,-18.86 4.83,-29.01 C 178.5,39.96 138.54,0 89.25,0 39.96,0 0,39.96 0,89.25 c 0,10.1 1.67999,19.8 4.76999,28.85 0.02,0.08 0.05002,0.17 0.08002,0.26 0.09,0.24 0.15998,0.46 0.22998,0.68 1.1,3.96 -5.060001,5.53 -5.060001,7.92 0,3.78 13.270011,3.28 13.270011,7.68 0,3.83 -13.129996,5.02 -13.129996,8.89 0,5.34 29.079996,3.49 29.439996,8.08 0.28,3.55 -10,3.76 -10.06,7.55 -0.1,6.05 39.68,4.07 39.68,8.1 0,3.05 -18.09,1.94 -18.09,5.55 0,3.61 23.82,5.88 50.07,5.88 26.25,0 44.35,-2.92 44.35,-6.08 0,-3.16 -16.9,-2.5 -16.55,-5.35 0.61,-4.97 38.11,-2.43 38.11,-8.18 0,-3.03 -10.32,-3.74 -9.98,-7 0.47,-4.61 31.35,-3.93 31.35,-8.72 0,-3.77 -15.3,-4.69 -15.28,-8.61 z m -39.98,22.56 c 0,2.64 -11.96,3.84 -34.92,3.84 -18.78,0 -37.43,-1.18 -37.43,-4.25 0,-3.07 22.25,-3.34 37.54,-3.32 20.37,0.04 34.82,0.98 34.81,3.72 z m -33.97,-134 c 28.15,0 52.18,17.64 61.64,42.47 1.09,3.22 -2.87,3.02 -5.67,3.02 h -7.6 c -5.43,0 -12.26,0.65 -12.26,2.14 0,1.86 16.59,1.75 18.42,1.75 5.35,0 9.55,0.4 10.16,3.69 0.82,4.16 1.26,8.46 1.26,12.86 0,8.84 -1.75,17.28 -4.91,24.98 -1.03,2.27 -2.37,3.44 -4.01,4.42 -7.85,4.36 -22.07,3.58 -22.07,6.21 0,3.82 23.96,2.19 23.99,5.51 0.05,5.07 -42.75,2.06 -42.74,6.63 0,4.53 34.43,2.42 34.43,7.17 0,2.39 -11.06,3.27 -23.11,3.57 -18.73,0.25 -51.83,0.1 -64.31,-0.32 0,0 0,0 0.01,0.01 -8.44,-0.3 -15.63,-1.46 -18.45,-2.67 -0.78,-0.33 -0.81,-1.28 -0.07,-1.66 8.53,-4.39 60.59,-0.89 60.59,-5.99 0,-5.1 -51.44,-1.57 -51.4,-5.99 0.03,-3.14 22.48,-2.87 40.28,-2.87 23.06,0 30.14,-1.15 30.13,-2.82 -0.02,-3.34 -28.36,-1.38 -28.46,-5.13 -0.1,-3.64 44.86,-0.98 44.86,-4.54 0,-2.26 -19.53,-2.48 -39.06,-2.4 -19.53,0.07 -39.06,0.11 -39.06,2.53 0,2.74 23.11,1.68 23.11,4.42 0,2.17 -12.7,2.62 -25.97,2.62 -8.75,0 -15.54,-0.66 -18.87,-4.79 -0.27,-0.34 -0.55,-0.84 -0.77,-1.28 -3.86,-8.4 -6.04,-17.74 -6.04,-27.59 0,-36.42 29.52,-65.94 65.94,-65.94 z"
       fill="#ffffff"
       id="path1" /><path
       d="m 87.9103,108.24 c 28.3997,0 56.0497,0.41 56.0597,-2.76 0,-3.84 -39.66,-3.39 -60.2597,-3.39 -16.34,0 -45.64,-0.51 -45.64,3.14 0,3.65 32.8,3.02 49.84,3.02 z"
       fill="#ffffff"
       id="path2" /><path
       d="m 106.25,97.3396 c 18.67,0 28.02,-0.22 28.02,-2.47 0,-3.26 -25.42,-1.45 -25.42,-4.68 0,-2.83 16.06,-1.24 16.06,-4.29 0,-2.4 -17.99,-2.17 -27.79,-2.17 -10.88,0 -21.58,0.41 -21.58,2.45 0,2.64 27.41,1.16 27.41,3.87 0,3.88 -43.49,1.08 -43.49,4.82 0,3.54 28.27,2.47 46.79,2.47 z"
       fill="#ffffff"
       id="path3" /><path
       d="m 124.57,80.0402 c 4,0 15.73,-0.25 15.73,-1.85 0,-1.6 -8.69,-2.12 -17.72,-2.11 -6.21,0 -18.86,0.11 -18.86,1.92 0,1.81 9.6,2.05 20.85,2.04 z"
       fill="#ffffff"
       id="path4" /><path
       d="m 131.34,85.9602 c 0,1.52 6.71,2.14 11.86,2.14 2.97,0 8.64,-0.62 8.64,-1.82 0,-1.46 -5.82,-1.9 -9.36,-1.95 -4.59,-0.06 -11.14,0.32 -11.14,1.63 z"
       fill="#ffffff"
       id="path5" /></g></svg>