<svg width="400" height="400" viewBox="0 0 400 400" fill="none" xmlns="http://www.w3.org/2000/svg">
<g clip-path="url(#clip0_4539_1673)">
<path d="M200 400C310.45 400 400 310.45 400 200C400 89.55 310.45 0 200 0C89.55 0 0 89.55 0 200C0 310.45 89.55 400 200 400Z" fill="url(#paint0_linear_4539_1673)"/>
<path d="M283.28 363.615L281.88 362.932C240.097 342.115 191.947 306.932 145.88 263.432V167.582L250.58 293.465L292.414 293.449C293.597 293.449 294.564 292.482 294.564 291.299V97.9819H250.43V222.682L146.947 97.9819H104.03C102.847 97.9819 101.88 98.9486 101.88 100.132V218.465C64.7136 177.232 38.8635 138.899 24.8302 108.415L23.5969 105.749C18.4635 115.332 14.0802 125.382 10.5469 135.832C35.5135 181.465 78.0469 233.849 125.43 279.049C174.414 325.765 226.43 363.949 272.064 386.432C272.147 386.482 272.247 386.515 272.33 386.565C282.68 382.549 292.614 377.699 302.047 372.082L295.98 369.465C291.88 367.699 287.68 365.765 283.297 363.615H283.28Z" fill="white"/>
<path d="M237.067 159.749V143.183C191.267 100.866 143.517 66.5326 101.601 45.8659C97.0007 43.6159 88.8174 40.0659 83.184 37.6992C79.4174 40.4159 75.7674 43.2492 72.2007 46.1992C79.584 49.1492 89.6007 53.4659 96.2507 56.7159C139.667 78.0826 189.617 114.666 237.067 159.749Z" fill="white"/>
<path d="M309.75 220.333V239.2C330.15 263.766 348.566 297.2 359.816 320.3C362.649 316.55 365.333 312.7 367.9 308.75C355.05 283.633 336.65 250.8 309.75 220.333Z" fill="white"/>
</g>
<defs>
<linearGradient id="paint0_linear_4539_1673" x1="30" y1="40" x2="346.984" y2="368.256" gradientUnits="userSpaceOnUse">
<stop stop-color="#3CF0C8"/>
<stop offset="0.348104" stop-color="#2EE6DC"/>
<stop offset="0.652433" stop-color="#14A0FA"/>
<stop offset="1" stop-color="#6E64FF"/>
</linearGradient>
<clipPath id="clip0_4539_1673">
<rect width="400" height="400" fill="white"/>
</clipPath>
</defs>
</svg>
