<?xml version="1.0" encoding="UTF-8"?>
<svg xmlns="http://www.w3.org/2000/svg" version="1.2" width="30" height="30">
   <g clip-path="url(#clip0_4054_17714)">
      <path d="M21.3022 9.66093C19.6969 7.93016 18.4721 5.87698 17.3683 2.50949C17.0324 1.48626 16.2286 0.946655 15.3576 0.946655C14.4866 0.946655 13.6828 1.48626 13.347 2.50949C12.8007 4.17532 12.2252 5.5165 11.5894 6.6584L17.3392 16.3041L21.3 9.66093H21.3022Z" fill="#30EFA6" />
      <path d="M11.5914 6.65868C10.8906 7.91925 10.1159 8.93576 9.22253 9.86719C7.42683 11.7413 5.14079 13.1384 1.56284 14.2937C0.539604 14.6251 0 15.4334 0 16.3044C0 17.1754 0.539604 17.9836 1.56284 18.315C5.14079 19.4726 7.42683 20.8675 9.22253 22.7416C10.1137 23.6708 10.8884 24.6895 11.5892 25.9478L17.339 16.3044L11.5892 6.65868H11.5914Z" fill="#669DFF" />
      <path d="M29.1571 14.2956C25.5792 13.138 23.2931 11.7431 21.4974 9.86904C21.4325 9.80187 21.3676 9.73023 21.3049 9.66306L17.3441 16.3062L21.3049 22.9516C21.3698 22.8822 21.4325 22.8128 21.4974 22.7457C23.2931 20.8716 25.5792 19.4744 29.1571 18.3191C30.1804 17.9877 30.72 17.1795 30.72 16.3085C30.72 15.4375 30.1804 14.6292 29.1571 14.2978V14.2956Z" fill="#FF76FF" />
      <path d="M11.5912 25.9472C12.2271 27.0913 12.8048 28.4325 13.3511 30.0983C13.687 31.1216 14.4908 31.6612 15.3618 31.6612C16.2327 31.6612 17.0365 31.1216 17.3724 30.0983C18.4762 26.7309 19.701 24.6777 21.3064 22.9469L17.3455 16.3015L11.5957 25.945L11.5912 25.9472Z" fill="#C24DFF" />
   </g>
</svg>
