<svg width="126" height="126" viewBox="0 0 126 126" fill="none" xmlns="http://www.w3.org/2000/svg">
<path fill-rule="evenodd" clip-rule="evenodd" d="M63 126C97.7924 126 126 97.7924 126 63C126 28.2076 97.7924 0 63 0C28.2076 0 0 28.2076 0 63C0 97.7924 28.2076 126 63 126ZM38.6186 36.2161L62.1992 59.7966V37.3729C62.1992 37.1949 62.1991 36.928 62.2881 36.75C62.3771 36.572 62.4661 36.3941 62.6441 36.2161C62.822 36.0381 63 35.9492 63.178 35.8602C63.3559 35.7712 63.6229 35.7712 63.8008 35.7712H90.3178H90.4068C90.4068 35.7712 90.4068 35.7712 90.4958 35.7712C90.6737 35.7712 90.9407 35.8602 91.1186 35.8602C91.2966 35.9492 91.4746 36.0381 91.6525 36.2161C91.8305 36.3941 91.9195 36.572 92.0085 36.75C92.0975 36.928 92.0975 37.1949 92.0975 37.3729V63.7119C92.0975 63.8008 92.0975 63.8008 92.0975 63.8898V90.4068C92.0975 90.6737 92.0975 90.8517 92.0085 91.0297C91.9195 91.2076 91.8305 91.3856 91.6525 91.5635C91.4746 91.7415 91.2966 91.8305 91.1186 91.9195C90.9407 92.0085 90.6737 92.0085 90.4958 92.0085C90.2288 92.0085 90.0508 92.0085 89.7839 91.9195C89.6059 91.8305 89.339 91.7415 89.25 91.5635L65.6695 67.983V90.4068C65.6695 90.5847 65.6695 90.8517 65.5805 91.0297C65.4915 91.2076 65.4025 91.3856 65.2246 91.5635C65.0466 91.7415 64.8686 91.8305 64.6907 91.9195C64.5127 92.0085 64.2458 92.0085 64.0678 92.0085H37.4619H37.3729C37.1949 92.0085 36.928 91.9195 36.75 91.9195C36.572 91.8305 36.3941 91.7415 36.2161 91.5635C36.0381 91.3856 35.9492 91.2076 35.8602 91.0297C35.7712 90.8517 35.7712 90.5847 35.7712 90.4068V63.8898C35.7712 63.7119 35.7712 63.6229 35.8602 63.4449V37.3729C35.8602 37.0169 35.9491 36.75 36.1271 36.3941C36.3051 36.1271 36.572 35.8602 36.928 35.7712C37.1949 35.6822 37.5508 35.5932 37.9068 35.6822C38.0847 35.7712 38.4407 35.9491 38.6186 36.2161Z" fill="#E53B95"/>
</svg>
