<svg width="80" height="80" viewBox="0 0 80 80" fill="none" xmlns="http://www.w3.org/2000/svg">
<path d="M55.18 47.96C56.22 46.84 57.15 45.6 57.96 44.25C59.91 40.98 60.89 37.39 60.89 33.48C60.89 29.57 59.92 25.91 57.98 22.63C56.04 19.34 53.44 16.75 50.17 14.85C46.9 12.95 43.36 12 39.56 12C35.76 12 32.16 12.95 28.87 14.85C25.58 16.75 22.96 19.34 21 22.61C19.04 25.88 18.07 29.45 18.07 33.33C18.07 37.21 19.05 41 21 44.29C21.83 45.69 22.79 46.97 23.86 48.11C20.23 50.32 18 53.29 18 56.55C18 63.36 27.7 68.9 39.63 68.9C51.56 68.9 61.26 63.36 61.26 56.55C61.26 53.22 58.94 50.19 55.17 47.97L55.18 47.96ZM24.12 61.83C21.97 60.23 20.8 58.4 20.8 56.54C20.8 54.25 22.58 51.99 25.8 50.17C25.86 50.14 25.92 50.1 25.99 50.07C26.88 50.79 27.82 51.44 28.83 52.03C28.93 52.09 29.04 52.14 29.14 52.2C25.68 53.9 23.48 56.43 23.48 59.24C23.48 60.14 23.7 61 24.12 61.83ZM39.65 65.73C34.74 65.73 32.06 63.6 32.06 62.5C32.06 61.4 34.74 59.27 39.65 59.27C44.56 59.27 47.24 61.4 47.24 62.5C47.24 63.6 44.56 65.73 39.65 65.73ZM49.95 63.23C50 62.99 50.03 62.75 50.03 62.5C50.03 59.18 45.37 56.49 39.65 56.49C33.93 56.49 29.27 59.19 29.27 62.5C29.27 62.75 29.3 62.99 29.35 63.23C27.45 62.1 26.27 60.7 26.27 59.24C26.27 57.04 28.94 54.98 32.71 53.79C34.82 54.5 37.01 54.85 39.3 54.85C41.75 54.85 44.09 54.47 46.32 53.71C50.24 54.88 53.03 57 53.03 59.24C53.03 60.7 51.85 62.1 49.95 63.23ZM55.18 61.83C55.6 61.01 55.82 60.14 55.82 59.24C55.82 56.36 53.52 53.79 49.93 52.08C49.98 52.05 50.03 52.03 50.08 52C51.15 51.39 52.15 50.7 53.07 49.94C53.21 50.02 53.36 50.09 53.5 50.17C56.72 51.99 58.5 54.25 58.5 56.54C58.5 58.39 57.34 60.23 55.18 61.83Z" fill="#00A84F"/>
</svg>
