<svg width="169" height="237" viewBox="0 0 169 237" fill="none" xmlns="http://www.w3.org/2000/svg">
<path d="M134 62.0095C134.773 62.0095 135.4 61.3804 135.4 60.6044C135.4 59.8283 134.773 59.1992 134 59.1992C133.226 59.1992 132.599 59.8283 132.599 60.6044C132.599 61.3804 133.226 62.0095 134 62.0095Z" fill="url(#paint0_linear)"/>
<path d="M101.24 167.566C102.013 167.566 102.64 166.937 102.64 166.161C102.64 165.385 102.013 164.756 101.24 164.756C100.467 164.756 99.8396 165.385 99.8396 166.161C99.8396 166.937 100.467 167.566 101.24 167.566Z" fill="url(#paint1_linear)"/>
<path d="M23.2279 95.4626C24.0013 95.4626 24.6282 94.8335 24.6282 94.0575C24.6282 93.2814 24.0013 92.6523 23.2279 92.6523C22.4546 92.6523 21.8276 93.2814 21.8276 94.0575C21.8276 94.8335 22.4546 95.4626 23.2279 95.4626Z" fill="url(#paint2_linear)"/>
<path d="M14.3224 101.625C15.0958 101.625 15.7227 100.996 15.7227 100.22C15.7227 99.4436 15.0958 98.8145 14.3224 98.8145C13.5491 98.8145 12.9221 99.4436 12.9221 100.22C12.9221 100.996 13.5491 101.625 14.3224 101.625Z" fill="url(#paint3_linear)"/>
<path d="M155.349 132.045C156.122 132.045 156.749 131.416 156.749 130.64C156.749 129.863 156.122 129.234 155.349 129.234C154.575 129.234 153.948 129.863 153.948 130.64C153.948 131.416 154.575 132.045 155.349 132.045Z" fill="url(#paint4_linear)"/>
<path d="M161.625 53.6263C157.67 53.6263 154.439 50.3969 154.439 46.4157C154.439 42.4344 157.658 39.2051 161.625 39.2051C165.593 39.2051 168.811 42.4344 168.811 46.4157C168.811 50.3969 165.593 53.6263 161.625 53.6263ZM161.625 41.547C158.947 41.547 156.761 43.741 156.761 46.428C156.761 49.115 158.947 51.309 161.625 51.309C164.303 51.309 166.489 49.115 166.489 46.428C166.489 43.741 164.315 41.547 161.625 41.547Z" fill="#86E29B"/>
<path d="M5.1099 87.0793C2.297 87.0793 0 84.7744 0 81.9518C0 79.1291 2.297 76.8242 5.1099 76.8242C7.92281 76.8242 10.2198 79.1291 10.2198 81.9518C10.2198 84.7744 7.92281 87.0793 5.1099 87.0793ZM5.1099 77.9089C2.8866 77.9089 1.08094 79.7208 1.08094 81.9518C1.08094 84.1827 2.8866 85.9946 5.1099 85.9946C7.3332 85.9946 9.13887 84.1827 9.13887 81.9518C9.13887 79.7208 7.3332 77.9089 5.1099 77.9089Z" fill="#86E29B"/>
<path d="M21.533 138.392C16.3862 138.392 12.2098 134.189 12.2098 129.037C12.2098 123.872 16.3985 119.682 21.533 119.682C26.6674 119.682 30.8561 123.885 30.8561 129.037C30.8561 134.201 26.6797 138.392 21.533 138.392ZM21.533 121.678C17.4917 121.678 14.1998 124.982 14.1998 129.037C14.1998 133.092 17.4917 136.395 21.533 136.395C25.5742 136.395 28.8662 133.092 28.8662 129.037C28.8662 124.982 25.5742 121.678 21.533 121.678Z" fill="#FFD33D"/>
<path d="M148.261 138.059C147.548 139.673 145.276 139.587 143.544 139.304C140.412 138.786 137.255 138.453 134.086 138.33C133.189 138.293 131.924 138.663 132.096 139.55C132.182 140.018 132.685 140.302 132.956 140.696C133.631 141.707 132.563 143.125 131.359 143.297C130.155 143.47 129 142.903 127.858 142.484C126.519 141.991 125.094 141.719 123.669 141.658V124.574C125.942 124.697 128.227 124.808 130.499 124.932C131.138 124.969 131.826 125.018 132.329 125.425C132.747 125.757 132.956 126.288 133.226 126.768C134.491 129.098 137.046 130.367 139.54 131.255C142.033 132.13 144.674 132.783 146.762 134.41C147.868 135.285 148.838 136.752 148.261 138.059Z" fill="url(#paint5_linear)"/>
<path d="M62.8051 14.1601C62.0558 10.98 61.589 7.73831 61.4047 4.47197C61.331 3.0052 61.417 1.29191 62.6085 0.441431C63.5052 -0.199511 64.7827 -0.0885787 65.7531 0.429105C66.7235 0.959116 67.4605 1.82192 68.1483 2.69706C70.8753 6.13596 73.2091 9.88301 75.113 13.8519C70.8875 13.6547 67.0305 13.8519 62.8051 14.1601Z" fill="url(#paint6_linear)"/>
<path d="M98.7587 144.012C97.0636 142.533 92.6661 138.774 86.9666 134.423C76.624 126.522 61.9698 116.674 51.3938 115.022C51.3815 114.689 51.2955 114.356 51.2955 114.011L51.3692 102.487L51.3078 70.6244C51.2833 65.5092 47.3403 61.2445 42.2672 60.7638L39.6017 60.5049C38.1154 60.3694 36.838 61.528 36.838 63.0317V87.0794C36.838 95.6828 34.9095 104.175 31.1999 111.928L25.5618 123.724C23.2525 128.543 22.061 133.819 22.061 139.168V148.524C22.061 154.144 22.1961 159.863 21.4345 165.866C20.9064 170.007 19.9605 174.272 18.2409 178.746C17.3687 181.027 8.83175 204.396 7.83679 207.059L57.4495 236.986L71.6737 193.587L72.0177 193.402L75.4939 191.627C82.1638 188.2 87.2245 182.272 89.5584 175.135L90.7253 171.561L99.508 144.666C99.5203 144.678 99.25 144.444 98.7587 144.012Z" fill="url(#paint7_linear)"/>
<path d="M98.6359 136.566L86.9789 134.434L51.2955 127.889V157.619C51.2955 163.387 46.6401 168.059 40.8915 168.059C40.8915 168.059 53.6294 169.451 63.1613 174.295C68.6152 177.636 66.2813 186.276 65.0161 190.122C63.665 194.263 49.9075 232.436 49.9075 232.436L57.4618 236.997L71.686 193.598L75.5062 191.638C82.1761 188.211 87.2369 182.283 89.5707 175.146L90.7376 171.571L92.3836 166.518C92.3836 166.518 96.5231 154.143 98.5867 144.676C98.6359 144.455 98.7096 144.233 98.7587 144.011C99.422 141.299 99.3237 138.822 98.6359 136.566Z" fill="url(#paint8_linear)"/>
<path d="M41.2354 77.1072L36.8379 77.1565V63.3885C36.8379 62.9941 36.887 62.612 36.9853 62.2422C36.9976 62.2053 36.9976 62.1683 37.0099 62.1436C37.0221 62.119 37.0221 62.1067 37.0221 62.0943C37.3169 61.3794 37.9188 60.8248 38.6681 60.6152C41.481 61.3425 43.6183 63.7953 43.8272 66.8274L44.3185 73.7299C44.4536 75.5418 43.041 77.0825 41.2354 77.1072Z" fill="#CFD3D6"/>
<path d="M36.838 72.5716C39.2578 72.5469 41.6776 72.8797 44.0115 73.5823L44.3186 73.6686V73.7302C44.3186 73.7302 44.3186 73.7302 44.3186 73.7425C44.4414 75.4312 43.2008 76.898 41.5548 77.0829C41.4443 77.0952 41.3337 77.1075 41.2232 77.1075L36.8257 77.1568V72.5716H36.838Z" fill="#CFD3D6"/>
<path d="M137.193 86.8928L88.7231 96.5315L85.9225 77.7347L134.344 70.4748C138.889 69.7969 143.114 72.9399 143.79 77.4882C144.453 81.8762 141.542 86.0176 137.193 86.8928Z" fill="#BBC0C5"/>
<path d="M133.152 54.5512L90.799 80.0779L81.8198 63.3395L124.935 40.056C128.976 37.8743 134.012 39.3904 136.186 43.4456C138.287 47.3652 136.948 52.2586 133.152 54.5512Z" fill="#BBC0C5"/>
<path d="M133.152 54.5512L90.799 80.0779L81.8198 63.3395L124.935 40.056C128.976 37.8743 134.012 39.3904 136.186 43.4456C138.287 47.3652 136.948 52.2586 133.152 54.5512Z" fill="#BBC0C5"/>
<path d="M137.193 86.8928L88.7231 96.5315L85.9225 77.7347L134.344 70.4748C138.889 69.7969 143.114 72.9399 143.79 77.4882C144.453 81.8762 141.542 86.0176 137.193 86.8928Z" fill="#BBC0C5"/>
<path d="M133.152 54.5512L90.799 80.0779L81.8198 63.3395L124.935 40.056C128.976 37.8743 134.012 39.3904 136.186 43.4456C138.287 47.3652 136.948 52.2586 133.152 54.5512Z" fill="#BBC0C5"/>
<path d="M122.036 29.9726C125.487 27.2362 129.295 24.956 133.336 23.2057C134.368 22.762 135.658 22.3922 136.506 23.1071C137.611 24.0562 136.936 25.8681 136.076 27.039C133.558 30.4656 129.836 33.584 129.774 37.8364C129.75 39.069 130.069 40.3016 129.959 41.5342C129.725 44.2212 127.649 46.3166 125.684 48.1655C124.468 49.3118 123.252 50.4581 122.036 51.592C122.343 43.8021 122.294 37.7871 122.036 29.9726Z" fill="url(#paint9_linear)"/>
<path d="M118.584 119.891H127.182C130.499 119.891 133.189 117.192 133.189 113.864V108.145C133.189 104.817 130.499 102.117 127.182 102.117H118.584C115.415 102.117 112.848 104.693 112.848 107.873V114.135C112.848 117.315 115.415 119.891 118.584 119.891Z" fill="#DDA37C"/>
<path d="M118.584 119.891H127.182C130.499 119.891 133.189 117.192 133.189 113.864V108.145C133.189 104.817 130.499 102.117 127.182 102.117H118.584C115.415 102.117 112.848 104.693 112.848 107.873V114.135C112.848 117.315 115.415 119.891 118.584 119.891Z" fill="#BBC0C5"/>
<path d="M118.068 11.5215H56.7248C53.6294 11.5215 51.1235 14.036 51.1235 17.1421V156.264C51.1235 159.37 53.6294 161.884 56.7248 161.884H118.068C121.164 161.884 123.669 159.37 123.669 156.264V17.1421C123.669 14.036 121.151 11.5215 118.068 11.5215ZM90.8604 152.973C90.8973 152.849 90.9464 152.726 90.9833 152.603C91.6097 150.754 92.5064 148.769 94.2506 148.042C96.0072 147.315 98.0831 148.165 99.3851 149.595C100.27 150.557 100.871 151.74 101.375 152.973H90.8604Z" fill="#24292E"/>
<path d="M100.933 158.408H73.8602C73.504 158.408 73.2092 158.112 73.2092 157.755C73.2092 157.397 73.504 157.102 73.8602 157.102H100.933C101.289 157.102 101.584 157.397 101.584 157.755C101.584 158.112 101.289 158.408 100.933 158.408Z" fill="#6A737D"/>
<path d="M101.24 16.5995H74.5972C74.241 16.5995 73.9462 16.3037 73.9462 15.9462C73.9462 15.5888 74.241 15.293 74.5972 15.293H101.24C101.596 15.293 101.891 15.5888 101.891 15.9462C101.891 16.3037 101.596 16.5995 101.24 16.5995Z" fill="#6A737D"/>
<path d="M63.1245 18.9649C63.7758 18.9649 64.3037 18.3965 64.3037 17.6953C64.3037 16.9942 63.7758 16.4258 63.1245 16.4258C62.4733 16.4258 61.9453 16.9942 61.9453 17.6953C61.9453 18.3965 62.4733 18.9649 63.1245 18.9649Z" fill="#24292E"/>
<path d="M128.055 128.776H132.685C136.002 128.776 138.692 126.076 138.692 122.748V117.029C138.692 113.701 136.002 111.002 132.685 111.002H128.055C124.885 111.002 122.318 113.578 122.318 116.758V123.02C122.318 126.2 124.885 128.776 128.055 128.776Z" fill="#CFD3D6"/>
<path d="M133.447 101.624C133.447 101.661 133.447 101.711 133.447 101.748C133.435 104.878 131.789 107.381 129.824 107.393L128.816 107.405V96.0039H129.811C131.777 96.0039 133.435 98.4937 133.447 101.624Z" fill="#CFD3D6"/>
<path d="M129.885 96.0039V107.393C129.86 107.393 129.848 107.393 129.824 107.393L128.816 107.405V96.0039H129.811C129.836 96.0039 129.86 96.0039 129.885 96.0039Z" fill="#CFD3D6"/>
<path d="M132.477 114.923C134.393 117.831 134.393 121.911 132.489 124.833C132.182 125.301 131.727 125.572 131.224 125.572L128.804 125.597V114.195H131.199C131.703 114.195 132.17 114.466 132.477 114.923Z" fill="#CFD3D6"/>
<path d="M130.253 114.195V125.584C130.229 125.584 130.192 125.584 130.167 125.584L128.804 125.597V114.195H130.143C130.192 114.195 130.217 114.195 130.253 114.195Z" fill="#CFD3D6"/>
<path d="M79.1911 143.84C75.3219 145.27 71.2683 147.069 67.2394 146.243C64.0948 145.59 61.3433 143.261 60.1887 140.253C59.034 137.246 59.5131 133.659 61.417 131.058C62.7436 129.234 64.6721 127.94 66.6498 126.867C67.5587 126.374 68.5046 125.918 69.4504 125.499C69.1679 124.402 69.0327 123.219 68.9959 122.035C67.4359 120.815 65.6548 119.928 63.6895 119.681C60.6555 119.287 57.5723 120.47 55.1525 122.344C55.0051 122.467 54.8454 122.578 54.698 122.701V150.052C54.698 151.667 55.9141 152.973 57.4003 152.973H90.8481C90.8849 152.85 90.9341 152.727 90.9709 152.604C91.5974 150.755 92.4941 148.77 94.2383 148.043C94.8648 147.784 95.5281 147.723 96.1791 147.821C94.398 146.687 92.9731 144.715 91.1183 143.569C87.6175 141.399 83.0604 142.422 79.1911 143.84Z" fill="#666666"/>
<path d="M104.237 133.006C105.318 131.255 107.333 130.146 108.156 128.248C109.458 125.203 111.116 125.82 109.986 122.701C109.568 121.555 108.929 120.421 108.389 119.373C106.755 119.201 105.699 117.968 104.102 118.363C101.142 119.09 97.8129 121.937 95.2088 123.515C94.263 124.082 91.4132 123.564 90.5165 124.23C90.5042 125.807 90.2708 128.716 90.0743 130.269C89.7058 133.154 90.7745 135.878 88.6494 137.85C86.5244 139.822 83.0973 140.561 80.6529 139.008C79.2895 138.145 78.3928 136.716 77.6189 135.311C76.7836 133.794 76.0466 132.229 75.2728 130.688C74.4007 130.701 73.5285 130.516 72.7055 130.072C70.9244 129.135 69.9541 127.447 69.4504 125.499C68.5046 125.918 67.5588 126.374 66.6498 126.867C64.6722 127.94 62.7437 129.234 61.4171 131.058C59.5131 133.659 59.0341 137.233 60.1887 140.253C61.3434 143.273 64.0949 145.603 67.2394 146.244C71.2807 147.069 75.3219 145.27 79.1912 143.84C83.0605 142.41 87.6176 141.387 91.1184 143.569C92.9732 144.715 94.3981 146.687 96.1792 147.821C96.9039 147.92 97.6163 148.216 98.2551 148.647C98.2919 148.647 98.3288 148.659 98.3779 148.672C101.78 149.103 104.483 145.368 104.532 141.917C104.532 141.547 104.52 141.178 104.495 140.796C103.279 138.269 102.812 135.335 104.237 133.006Z" fill="url(#paint10_linear)"/>
<path d="M98.378 148.659C98.3411 148.659 98.3043 148.646 98.2551 148.634C98.6605 148.905 99.0413 149.226 99.3729 149.596C100.257 150.557 100.859 151.74 101.363 152.973H117.135C118.081 152.973 118.904 152.455 119.383 151.679C113.745 150.643 108.536 147.241 105.392 142.422C105.06 141.904 104.753 141.362 104.483 140.795C104.507 141.165 104.52 141.534 104.52 141.917C104.495 145.355 101.793 149.103 98.378 148.659Z" fill="#666666"/>
<path d="M103.918 105.679C104.348 105.026 103.242 105.42 102.149 105.839C101.584 105.913 101.031 106.024 100.478 106.147C94.2383 107.59 88.7476 112.224 86.4752 118.251C84.9889 122.196 84.7924 121.419 82.9253 125.203C81.4758 128.149 78.3436 130.651 75.2727 130.7C76.0466 132.241 76.7959 133.819 77.6188 135.323C78.3927 136.74 79.3017 138.158 80.6528 139.02C83.0972 140.573 86.5243 139.834 88.6494 137.862C90.4673 136.173 91.0078 134.139 91.4131 131.81C91.8676 129.234 93.01 126.781 94.7051 124.796C97.9356 121.012 103.451 118.868 108.377 119.373C107.308 117.302 106.632 115.54 108.868 114.689C111.595 113.642 114.641 115.33 116.692 117.426C117.798 118.56 118.781 119.854 119.849 121.025V113.136C116.054 108.403 109.998 105.457 103.918 105.679ZM100.478 106.135C100.38 106.234 100.343 106.308 100.343 106.369C100.319 106.332 100.368 106.258 100.478 106.135ZM92.4327 122.307C92.4449 121.998 92.4449 121.678 92.4572 121.37C92.4449 121.678 92.4327 121.998 92.4327 122.307ZM92.4081 124.242C92.4081 123.983 92.4081 123.724 92.4081 123.478C92.4081 123.724 92.4081 123.983 92.4081 124.242ZM104.016 106.887C103.586 106.986 103.168 107.109 102.738 107.257C102.984 106.961 103.217 106.665 103.439 106.357C103.967 106.369 104.274 106.493 104.016 106.887Z" fill="url(#paint11_linear)"/>
<path d="M63.6896 119.681C65.6427 119.94 67.4361 120.815 68.9961 122.035C68.9592 120.975 68.9838 119.915 69.0329 118.904C69.254 114.75 68.8855 109.623 65.1268 107.873C63.0263 106.887 60.5574 107.38 58.3341 108.058C57.1426 108.415 55.9265 108.822 54.7104 109.081V122.713C54.8579 122.59 55.0053 122.466 55.1527 122.355C57.5725 120.457 60.6556 119.286 63.6896 119.681Z" fill="url(#paint12_linear)"/>
<path d="M119.862 115.848C118.793 114.665 117.81 113.383 116.705 112.249C114.653 110.154 111.619 108.465 108.88 109.513C105.527 110.807 104.79 115.454 106.018 118.844C107.148 121.962 109.458 125.216 108.156 128.261C107.345 130.159 105.33 131.256 104.249 133.018C102.493 135.853 103.598 139.637 105.429 142.423C108.573 147.242 113.781 150.644 119.419 151.68C119.702 151.211 119.874 150.657 119.874 150.065V115.848H119.862Z" fill="url(#paint13_linear)"/>
<path d="M119.862 22.3938V118.757C116.054 114.012 110.01 111.078 103.93 111.288C96.3511 111.559 89.1653 116.736 86.4875 123.848C83.6746 130.676 76.4397 132.032 72.7178 130.072C69.0451 128.137 68.8239 123.046 69.0451 118.893C69.2662 114.739 68.8977 109.611 65.1389 107.861C63.0385 106.875 60.5695 107.368 58.3585 108.046C57.167 108.403 55.9509 108.81 54.7349 109.069V68.5909C55.5333 69.4661 56.4668 70.181 57.6092 70.3905C60.7783 70.9822 63.2841 67.2967 63.2104 64.055C63.1367 60.8257 61.5153 57.8428 60.8766 54.6628C60.2378 51.495 61.0608 47.4892 64.0826 46.3675C66.5638 45.4431 69.2784 46.9222 71.2929 48.6355C74.6217 51.4581 77.2872 55.0942 81.0091 57.3621C81.9304 57.9291 82.9253 58.4098 83.994 58.4838C87.7281 58.7549 89.976 54.3423 90.4674 50.6199C91.7817 40.7469 88.1212 30.9233 82.8393 22.3691H119.862V22.3938Z" fill="white"/>
<path d="M90.4429 50.6453C89.9516 54.3677 87.7037 58.7803 83.9695 58.5092C82.9009 58.4352 81.8936 57.9545 80.9847 57.3875C77.2628 55.1072 74.5973 51.4835 71.2685 48.6608C69.2417 46.9476 66.5394 45.4685 64.0581 46.3929C61.0364 47.5145 60.2011 51.5204 60.8522 54.6882C61.5032 57.8559 63.1123 60.8387 63.186 64.0804C63.2597 67.3098 60.7539 71.0075 57.5848 70.4159C56.4424 70.2064 55.5089 69.4915 54.7104 68.6163V22.3945H82.8272C88.0968 30.9486 91.7572 40.76 90.4429 50.6453Z" fill="url(#paint14_linear)"/>
<path d="M166.846 104.891H152.216V119.571H166.846V104.891Z" fill="#43AEFC"/>
<path d="M152.216 119.559L146.787 116.946V103.006L152.216 104.892V119.559Z" fill="url(#paint15_linear)"/>
<path d="M159.783 103.006L166.846 104.892H152.216L146.787 103.006H159.783Z" fill="url(#paint16_linear)"/>
<path d="M162.424 112.483C162.436 112.348 162.448 112.212 162.448 112.064C162.448 111.916 162.436 111.781 162.411 111.645L163.308 110.943C163.394 110.881 163.406 110.758 163.357 110.671L162.497 109.192C162.448 109.094 162.338 109.069 162.239 109.094L161.183 109.525C160.962 109.352 160.729 109.217 160.458 109.106L160.299 107.972C160.286 107.861 160.188 107.787 160.09 107.787H158.382C158.272 107.787 158.186 107.861 158.174 107.972L158.014 109.106C157.756 109.217 157.51 109.352 157.289 109.525L156.233 109.094C156.135 109.057 156.024 109.094 155.975 109.192L155.115 110.671C155.066 110.77 155.078 110.881 155.164 110.943L156.061 111.645C156.036 111.781 156.024 111.929 156.024 112.064C156.024 112.2 156.036 112.348 156.061 112.483L155.164 113.186C155.078 113.247 155.066 113.371 155.115 113.457L155.975 114.936C156.024 115.035 156.135 115.059 156.233 115.035L157.289 114.603C157.51 114.776 157.744 114.911 158.014 115.022L158.174 116.156C158.198 116.267 158.284 116.341 158.382 116.341H160.09C160.2 116.341 160.286 116.267 160.299 116.156L160.458 115.022C160.716 114.911 160.962 114.776 161.183 114.603L162.239 115.035C162.338 115.072 162.448 115.035 162.497 114.936L163.357 113.457C163.406 113.358 163.394 113.247 163.308 113.186L162.424 112.483ZM159.242 113.667C158.358 113.667 157.645 112.939 157.645 112.064C157.645 111.189 158.37 110.462 159.242 110.462C160.114 110.462 160.839 111.189 160.839 112.064C160.839 112.939 160.127 113.667 159.242 113.667Z" fill="white"/>
<path d="M105.435 66.6973L89.6632 78.4501L92.5799 71.5161L105.435 66.6973Z" fill="#E2761B" stroke="#E2761B" stroke-linecap="round" stroke-linejoin="round"/>
<path d="M69.0247 66.6973L84.67 78.5614L81.896 71.5161L69.0247 66.6973Z" fill="#E4761B" stroke="#E4761B" stroke-linecap="round" stroke-linejoin="round"/>
<path d="M99.7606 93.9395L95.5599 100.396L104.548 102.877L107.131 94.0826L99.7606 93.9395Z" fill="#E4761B" stroke="#E4761B" stroke-linecap="round" stroke-linejoin="round"/>
<path d="M67.3602 94.0826L69.9282 102.877L78.9159 100.396L74.7153 93.9395L67.3602 94.0826Z" fill="#E4761B" stroke="#E4761B" stroke-linecap="round" stroke-linejoin="round"/>
<path d="M78.4087 83.0306L75.9042 86.8316L84.8285 87.2292L84.5115 77.6074L78.4087 83.0306Z" fill="#E4761B" stroke="#E4761B" stroke-linecap="round" stroke-linejoin="round"/>
<path d="M96.0513 83.0306L89.8693 77.4961L89.6632 87.2291L98.5717 86.8315L96.0513 83.0306Z" fill="#E4761B" stroke="#E4761B" stroke-linecap="round" stroke-linejoin="round"/>
<path d="M78.9159 100.397L84.2737 97.7725L79.6451 94.1465L78.9159 100.397Z" fill="#E4761B" stroke="#E4761B" stroke-linecap="round" stroke-linejoin="round"/>
<path d="M90.1863 97.7725L95.5599 100.397L94.8149 94.1465L90.1863 97.7725Z" fill="#E4761B" stroke="#E4761B" stroke-linecap="round" stroke-linejoin="round"/>
<path d="M95.5599 100.398L90.1863 97.7734L90.6143 101.288L90.5667 102.767L95.5599 100.398Z" fill="#D7C1B3" stroke="#D7C1B3" stroke-linecap="round" stroke-linejoin="round"/>
<path d="M78.9159 100.398L83.9091 102.767L83.8774 101.288L84.2737 97.7734L78.9159 100.398Z" fill="#D7C1B3" stroke="#D7C1B3" stroke-linecap="round" stroke-linejoin="round"/>
<path d="M83.9884 91.8239L79.5183 90.5039L82.6727 89.0566L83.9884 91.8239Z" fill="#233447" stroke="#233447" stroke-linecap="round" stroke-linejoin="round"/>
<path d="M90.4717 91.8239L91.7873 89.0566L94.9576 90.5039L90.4717 91.8239Z" fill="#233447" stroke="#233447" stroke-linecap="round" stroke-linejoin="round"/>
<path d="M78.916 100.396L79.6768 93.9395L74.7153 94.0826L78.916 100.396Z" fill="#CD6116" stroke="#CD6116" stroke-linecap="round" stroke-linejoin="round"/>
<path d="M94.7991 93.9395L95.5599 100.396L99.7606 94.0826L94.7991 93.9395Z" fill="#CD6116" stroke="#CD6116" stroke-linecap="round" stroke-linejoin="round"/>
<path d="M98.5717 86.8301L89.6632 87.2277L90.4875 91.8238L91.8032 89.0566L94.9734 90.5038L98.5717 86.8301Z" fill="#CD6116" stroke="#CD6116" stroke-linecap="round" stroke-linejoin="round"/>
<path d="M79.5183 90.5038L82.6886 89.0566L83.9884 91.8238L84.8285 87.2277L75.9042 86.8301L79.5183 90.5038Z" fill="#CD6116" stroke="#CD6116" stroke-linecap="round" stroke-linejoin="round"/>
<path d="M75.9042 86.8301L79.6451 94.1458L79.5183 90.5038L75.9042 86.8301Z" fill="#E4751F" stroke="#E4751F" stroke-linecap="round" stroke-linejoin="round"/>
<path d="M94.9735 90.5038L94.8149 94.1458L98.5717 86.8301L94.9735 90.5038Z" fill="#E4751F" stroke="#E4751F" stroke-linecap="round" stroke-linejoin="round"/>
<path d="M84.8285 87.2285L83.9884 91.8247L85.0346 97.2478L85.2724 90.1071L84.8285 87.2285Z" fill="#E4751F" stroke="#E4751F" stroke-linecap="round" stroke-linejoin="round"/>
<path d="M89.6632 87.2285L89.2352 90.0912L89.4254 97.2478L90.4875 91.8247L89.6632 87.2285Z" fill="#E4751F" stroke="#E4751F" stroke-linecap="round" stroke-linejoin="round"/>
<path d="M90.4875 91.8259L89.4254 97.249L90.1863 97.7738L94.8149 94.1478L94.9734 90.5059L90.4875 91.8259Z" fill="#F6851B" stroke="#F6851B" stroke-linecap="round" stroke-linejoin="round"/>
<path d="M79.5183 90.5059L79.6451 94.1478L84.2737 97.7738L85.0346 97.249L83.9884 91.8259L79.5183 90.5059Z" fill="#F6851B" stroke="#F6851B" stroke-linecap="round" stroke-linejoin="round"/>
<path d="M90.5667 102.768L90.6143 101.289L90.218 100.939H84.242L83.8774 101.289L83.9091 102.768L78.9159 100.398L80.6596 101.83L84.1944 104.295H90.2655L93.8163 101.83L95.5599 100.398L90.5667 102.768Z" fill="#C0AD9E" stroke="#C0AD9E" stroke-linecap="round" stroke-linejoin="round"/>
<path d="M90.1863 97.7729L89.4255 97.248H85.0346L84.2737 97.7729L83.8774 101.288L84.242 100.938H90.218L90.6143 101.288L90.1863 97.7729Z" fill="#161616" stroke="#161616" stroke-linecap="round" stroke-linejoin="round"/>
<path d="M106.101 79.2135L107.449 72.7248L105.435 66.6973L90.1863 78.0525L96.0513 83.0303L104.342 85.4636L106.18 83.3166L105.388 82.7441L106.656 81.5831L105.673 80.8197L106.941 79.8496L106.101 79.2135Z" fill="#763D16" stroke="#763D16" stroke-linecap="round" stroke-linejoin="round"/>
<path d="M67.0273 72.7248L68.3747 79.2135L67.5187 79.8496L68.7869 80.8197L67.8199 81.5831L69.088 82.7441L68.2955 83.3166L70.1184 85.4636L78.4087 83.0303L84.2737 78.0525L69.0246 66.6973L67.0273 72.7248Z" fill="#763D16" stroke="#763D16" stroke-linecap="round" stroke-linejoin="round"/>
<path d="M104.342 85.4645L96.0514 83.0312L98.5717 86.8322L94.8149 94.1479L99.7606 94.0843H107.132L104.342 85.4645Z" fill="#F6851B" stroke="#F6851B" stroke-linecap="round" stroke-linejoin="round"/>
<path d="M78.4087 83.0312L70.1184 85.4645L67.3602 94.0843H74.7153L79.6451 94.1479L75.9042 86.8322L78.4087 83.0312Z" fill="#F6851B" stroke="#F6851B" stroke-linecap="round" stroke-linejoin="round"/>
<path d="M89.6632 87.2285L90.1863 78.052L92.5957 71.5156H81.896L84.2737 78.052L84.8285 87.2285L85.0187 90.1229L85.0346 97.2478H89.4254L89.4571 90.1229L89.6632 87.2285Z" fill="#F6851B" stroke="#F6851B" stroke-linecap="round" stroke-linejoin="round"/>
<path d="M25.0828 135.422H10.5515V150.003H25.0828V135.422Z" fill="#43AEFC"/>
<path d="M30.3278 130.639L25.0828 135.421H10.5515L12.2589 134.041L16.7546 130.441L16.9512 130.281H16.9757L17.5162 130.294L30.3278 130.639Z" fill="url(#paint17_linear)"/>
<path d="M25.0828 150.015L30.3278 145.232V130.639L25.0828 135.421V150.015Z" fill="url(#paint18_linear)"/>
<path d="M21.2768 146.624C23.1734 144.734 23.1649 141.64 21.2577 139.713C19.3505 137.785 16.2668 137.755 14.3701 139.645C12.4735 141.534 12.482 144.629 14.3892 146.556C16.2964 148.484 19.3801 148.514 21.2768 146.624Z" fill="white"/>
<path d="M17.8233 140.303C17.8233 141.868 16.5581 143.113 15.0104 143.088C16.5704 143.113 17.8233 144.395 17.8233 145.96C17.8233 144.395 19.0885 143.15 20.6362 143.175C19.0762 143.15 17.8233 141.868 17.8233 140.303Z" fill="#43AEFC"/>
<path d="M67.9395 145.27C63.3332 144.173 58.6533 146.182 54.698 149.239V150.065C54.698 151.679 55.9141 152.974 57.4004 152.974H75.457C75.3956 152.85 75.3341 152.739 75.2727 152.616C73.16 148.672 71.9439 146.219 67.9395 145.27Z" fill="url(#paint19_linear)"/>
<path d="M119.776 74.1274C119.8 74.1643 119.825 74.2136 119.862 74.2506V68.7656C119.665 69.6777 119.518 70.5898 119.419 71.4896C119.309 72.3894 119.297 73.3632 119.776 74.1274Z" fill="white"/>
<path d="M67.9763 32.058C66.5637 33.7836 64.1316 34.0178 62.1663 33.2289C61.159 32.8222 60.2378 32.1936 59.3779 31.454V22.3945H68.394C68.5414 23.1341 68.7011 23.8736 68.8485 24.6009C69.3644 27.1523 69.5486 30.1351 67.9763 32.058Z" fill="#666666"/>
<path d="M63.3096 35.8667C64.8819 33.9438 64.6976 30.9486 64.1817 28.3972C63.7886 26.4251 63.2482 24.3667 63.3833 22.3945H54.7112V30.0242V35.2627C55.571 35.9899 56.48 36.6185 57.4995 37.0376C59.4526 37.8265 61.897 37.5923 63.3096 35.8667Z" fill="url(#paint20_linear)"/>
<path d="M119.862 66.3965C119.112 66.3225 118.363 66.2486 117.614 66.1623C116.287 66.0144 114.862 65.7802 113.929 64.8311C112.848 63.7341 112.774 61.9222 113.339 60.4924C113.904 59.0503 114.985 57.8917 116.041 56.77C117.294 55.4388 118.609 54.046 119.862 52.7148V66.3965Z" fill="url(#paint21_linear)"/>
<path d="M117.061 172.546C116.435 174.124 114.985 175.48 113.339 175.43C112.172 175.393 111.116 174.691 110.281 173.84C108.266 171.794 107.21 168.971 106.215 166.235C105.687 164.793 105.158 163.339 104.642 161.896H117.258C117.417 163.758 117.528 165.631 117.601 167.505C117.675 169.193 117.687 170.956 117.061 172.546Z" fill="url(#paint22_linear)"/>
<path d="M101.375 152.973H90.8605C90.8973 152.85 90.9465 152.726 90.9833 152.603C91.6098 150.754 92.5065 148.77 94.2507 148.043C96.0072 147.315 98.0831 148.166 99.3852 149.596C100.27 150.569 100.871 151.74 101.375 152.973Z" fill="url(#paint23_linear)"/>
<path d="M88.7845 161.885C88.4405 164.091 87.6298 166.827 85.5171 166.864C84.3502 166.889 83.3798 165.989 82.5813 165.102C81.6601 164.079 80.8003 163.006 80.0018 161.885H88.7845Z" fill="url(#paint24_linear)"/>
<path d="M50.9146 120.42C48.028 123.058 44.8343 125.486 42.783 128.801C40.7194 132.129 40.0684 136.715 42.4145 139.845C42.9427 140.548 43.606 141.164 43.9131 141.99C44.2324 142.865 44.0728 143.851 43.778 144.739C42.2917 149.201 37.5257 152.405 37.3414 157.101C37.3169 157.866 37.4274 158.667 37.9188 159.246C39.2331 160.836 41.788 159.641 43.4217 158.383C45.989 156.399 48.5685 154.402 51.1357 152.418V120.223C51.0497 120.284 50.9883 120.358 50.9146 120.42Z" fill="url(#paint25_linear)"/>
<path d="M54.7103 101.992V116.352C55.951 114.688 56.9091 112.851 57.2899 110.817C57.8795 107.674 56.774 104.408 54.7103 101.992Z" fill="url(#paint26_linear)"/>
<path d="M109.507 181.213C109.249 180.362 108.917 179.512 108.536 178.686C108.131 177.441 107.701 176.208 107.136 175.025C106.583 173.866 105.785 172.178 104.384 171.894C103.144 171.648 101.952 172.252 101.498 173.435C101.031 174.668 101.166 176.085 101.375 177.355C101.768 179.734 102.53 182.088 103.586 184.257C104.188 185.49 104.913 186.907 106.055 187.721C107.173 188.534 108.389 188.164 109.114 187.03C110.293 185.231 110.121 183.185 109.507 181.213Z" fill="url(#paint27_linear)"/>
<path d="M156.048 15.492C154.808 15.6029 153.604 16.4164 152.597 17.082C151.332 17.9202 150.116 18.8692 148.949 19.8553C147.757 20.8537 146.799 21.9014 145.841 23.134C144.441 24.9089 143.077 26.8071 141.407 28.3601C141.37 28.3971 141.333 28.4341 141.296 28.471C140.756 28.9641 140.178 29.4325 139.552 29.8392C139.38 29.9501 139.282 30.1104 139.245 30.2706C138.287 31.1211 137.378 31.9962 136.641 33.0562C136.346 33.4753 136.677 33.9437 137.071 34.1039C138.667 34.7449 140.326 33.537 141.48 32.5509C143.016 31.232 144.305 29.642 145.62 28.1136C146.123 27.5343 146.627 26.9303 147.204 26.4003C147.868 25.7963 148.666 25.3649 149.44 24.9335C151.344 23.8858 153.358 22.9737 155.09 21.6549C156.503 20.5702 157.559 19.1897 157.731 17.3655C157.83 16.2685 157.203 15.3934 156.048 15.492Z" fill="url(#paint28_linear)"/>
<path d="M134.393 69.6616C134.073 68.7125 132.919 68.392 131.936 68.2195C129.185 67.7388 126.421 67.2581 123.669 66.7773V76.1326C126.912 74.518 130.401 73.3593 132.133 72.5582C133.349 72.0035 134.81 70.9435 134.393 69.6616Z" fill="url(#paint29_linear)"/>
<path d="M116.619 84.7605C117.012 86.3506 118.289 87.2873 119.862 87.842V78.4004C117.515 80.1383 115.992 82.2461 116.619 84.7605Z" fill="url(#paint30_linear)"/>
<path d="M148.654 91.7755C148.335 91.0853 147.659 90.6415 146.971 90.3211C144.748 89.2734 142.217 89.1747 139.761 89.0885C134.589 88.9036 129.406 88.731 124.234 88.5461C124.05 88.5338 123.866 88.5338 123.669 88.5215V105.297C131.003 101.648 139.626 100.564 146.455 95.9786C147.88 95.0172 149.366 93.3409 148.654 91.7755Z" fill="url(#paint31_linear)"/>
<path d="M128.055 111.004H136.653C139.97 111.004 142.66 108.305 142.66 104.977V99.2578C142.66 95.9298 139.97 93.2305 136.653 93.2305H128.055C124.885 93.2305 122.318 95.8066 122.318 98.9866V105.248C122.318 108.428 124.885 111.004 128.055 111.004Z" fill="#CFD3D6"/>
<path d="M160.569 85.7239C160.176 84.2325 154.292 83.1725 152.118 83.3204C150.312 83.4437 147.684 83.7641 146.848 85.687C146.725 85.9581 146.713 86.2909 146.873 86.5374C146.996 86.7223 147.204 86.8333 147.413 86.9319C149.096 87.7454 150.926 88.0905 152.769 88.1891C154.685 88.3 156.761 88.2754 158.653 87.8563C159.586 87.6591 160.974 87.203 160.569 85.7239Z" fill="url(#paint32_linear)"/>
<path d="M51.1237 31.3298V50.6197C50.1041 49.609 49.0969 48.5736 48.1142 47.5259C44.9942 44.2349 41.8374 40.4016 41.7514 35.8657C41.7268 34.8303 41.8742 33.795 41.7391 32.7719C41.3092 29.5179 38.2015 26.9665 38.2138 23.6755C38.2138 23.2564 38.2752 22.8127 38.5332 22.4676C39.3193 21.4199 40.9653 22.1471 41.9971 22.9606C45.2276 25.5244 48.2862 28.3223 51.1237 31.3298Z" fill="url(#paint33_linear)"/>
<path d="M51.1235 82.6914V99.9475C50.3865 99.4915 49.5266 99.1833 48.7282 98.8136C47.4262 98.1973 46.0873 97.1003 46.161 95.6582C46.1855 95.0665 46.4558 94.5119 46.4803 93.9325C46.5786 91.6769 43.3726 90.6539 42.8322 88.4599C42.4882 87.0671 43.3849 85.6126 44.5887 84.8238C45.7925 84.0349 47.2419 83.7638 48.6299 83.431C49.4652 83.2337 50.3005 82.9872 51.1235 82.6914Z" fill="url(#paint34_linear)"/>
<path d="M56.5405 65.4355C55.7789 64.3754 55.3736 62.6745 55.7912 61.4419C56.2089 60.197 56.8722 58.9891 56.7739 57.6825C56.6756 56.265 55.7298 55.1187 54.698 54.0957V80.9906C56.43 79.8813 57.8671 78.4269 58.6533 76.5287C60.1641 72.8926 58.8375 68.6279 56.5405 65.4355Z" fill="url(#paint35_linear)"/>
<path d="M139.613 150.877C138.913 150.075 137.832 149.471 136.874 149.052C135.781 148.584 134.577 148.313 133.373 148.337C132.12 148.374 130.794 148.757 129.922 149.706C129.05 150.655 128.743 151.986 128.902 153.255C129.05 154.5 129.541 155.647 130.18 156.731C130.585 157.865 131.322 158.962 131.924 159.924C132.894 161.464 133.988 163.079 135.388 164.25C136.444 165.138 137.857 165.668 138.913 164.447C139.957 163.252 139.134 161.44 138.545 160.232C137.845 158.814 136.8 157.459 136.346 155.93C136.186 155.388 136.186 155.141 136.641 154.722C137.144 154.266 137.808 154.007 138.41 153.712C139.564 153.157 140.731 152.171 139.613 150.877Z" fill="url(#paint36_linear)"/>
<path d="M48.581 54.0819C49.0109 52.8 47.9914 51.5181 47.0332 50.5691C44.4414 48.0176 41.6531 45.6511 38.7174 43.5064C38.398 43.2722 38.0664 43.038 37.6733 43.0133C37.2802 42.9887 36.8503 43.2475 36.838 43.642C36.8257 43.8515 36.9486 44.0487 37.0714 44.2336C38.1523 45.8359 39.6878 47.0562 41.1495 48.3134C41.7268 48.8188 42.3164 49.3611 42.5621 50.1007C42.7955 50.8279 42.5375 51.777 41.8128 52.0358C40.6213 52.4672 38.9876 51.74 39.786 53.6752C40.1177 54.464 41.1863 55.2036 41.9602 55.4747C43.729 56.1157 47.8562 56.2636 48.581 54.0819Z" fill="url(#paint37_linear)"/>
<path d="M102.874 25.1555C103.672 25.2541 104.52 25.1062 105.244 25.476C106.731 26.2279 106.632 28.6067 108.033 29.5189C108.794 30.0242 109.826 29.9256 110.637 29.5065C111.447 29.0875 112.062 28.3726 112.627 27.6577C113.88 26.043 114.948 24.2681 115.784 22.3945H99.8519C100.245 23.775 101.436 24.9706 102.874 25.1555Z" fill="#666666"/>
<path d="M119.862 22.3945V31.1828C117.601 32.8592 115.341 34.5478 112.995 36.1378C111.398 37.2225 109.777 38.2579 108.082 39.2193C105.871 40.4765 102.8 40.5628 101.265 38.3811C100.38 37.1362 100.208 35.4476 99.766 33.9315C99.3238 32.4154 98.3411 30.8377 96.9285 30.8007C95.6265 30.7638 94.6069 32.0456 93.9559 33.3275C93.3172 34.6094 92.8013 36.0639 91.7203 36.8897C90.406 37.8881 88.5881 37.6292 87.2369 36.7048C86.8929 36.4706 86.5736 36.1995 86.2788 35.8913C85.4067 35.0162 84.7065 33.9068 84.0555 32.8099C82.8763 30.8007 82.7043 29.6051 81.6356 27.5221C80.7389 25.7841 79.8423 24.0215 78.7859 22.4069H99.8642C100.257 23.7873 101.437 24.983 102.886 25.1678C103.684 25.2664 104.532 25.1185 105.244 25.4883C106.731 26.2402 106.645 28.6191 108.033 29.5312C108.794 30.0365 109.826 29.9379 110.637 29.5189C111.448 29.0998 112.062 28.3849 112.627 27.67C113.88 26.0553 114.948 24.2804 115.784 22.4069H119.862V22.3945Z" fill="url(#paint38_linear)"/>
<path d="M116.95 102.449C116.029 102.265 115.083 102.141 114.174 102.363C113.265 102.585 112.405 103.214 112.135 104.113C112.012 104.532 112.025 104.989 112.111 105.42C112.455 107.084 113.83 108.304 115.083 109.475C116.791 111.065 118.387 112.766 119.861 114.578V103.238C118.903 102.918 117.933 102.647 116.95 102.449Z" fill="url(#paint39_linear)"/>
<path d="M63.2104 130.614C63.0016 126.941 58.727 129.011 56.9213 130.01C56.1843 130.416 55.4596 130.848 54.7226 131.267C54.7103 131.267 54.7103 131.279 54.698 131.279V142.668C56.3808 140.326 58.1374 137.911 60.2378 135.938C61.0854 135.137 62.0189 134.373 62.6085 133.362C63.0753 132.561 63.2595 131.526 63.2104 130.614Z" fill="white"/>
<path d="M112.983 36.1359C112.356 36.6413 111.755 37.1467 111.214 37.6643C108.905 39.8707 106.706 42.2002 104.643 44.6407C103.598 45.8733 101.977 47.2661 100.589 46.428C100.134 46.1445 99.8274 45.6638 99.6186 45.1707C99.1518 44.0614 99.0535 42.8535 98.857 41.6702C98.6605 40.4869 98.3165 39.2667 97.4813 38.4039C96.646 37.5411 95.1966 37.1836 94.2384 37.8985C93.4277 38.5025 93.2066 39.6118 92.5556 40.3883C91.5729 41.5716 89.6936 41.7195 88.3793 40.9307C87.0649 40.1418 86.3279 38.6011 86.2174 37.0727C86.1928 36.6659 86.2051 36.2592 86.2419 35.8648C86.5367 36.1606 86.8561 36.4318 87.2 36.6783C88.5512 37.6027 90.3692 37.8616 91.6835 36.8632C92.7644 36.0373 93.2803 34.5829 93.9191 33.301C94.5578 32.0191 95.5896 30.7372 96.8917 30.7742C98.3043 30.8112 99.2869 32.3889 99.7291 33.905C100.171 35.421 100.343 37.0974 101.228 38.3546C102.763 40.5486 105.834 40.4623 108.045 39.1927C109.765 38.256 111.398 37.2206 112.983 36.1359Z" fill="url(#paint40_linear)"/>
<path d="M80.2107 33.7828C80.8985 34.9045 81.4022 36.1741 82.3234 37.1231C83.6991 38.5283 86.2418 38.8611 87.5684 37.4066C88.7353 36.1248 88.5511 34.128 88.0966 32.4517C87.3719 29.777 86.1681 27.2378 84.5344 25.0069C84.0062 24.2796 83.3675 23.5401 82.4954 23.3059C81.353 22.9978 80.0387 23.8113 79.793 24.9699C79.5228 26.2518 80.4195 27.509 80.3458 28.8155C80.2966 29.6783 79.8299 30.4549 79.6948 31.3054C79.4368 32.9324 80.4195 34.4731 81.353 35.8166" fill="white"/>
<path d="M83.0877 45.8129C83.7903 45.5816 83.7651 43.5745 83.0313 41.33C82.2976 39.0855 81.1332 37.4535 80.4305 37.6847C79.7279 37.916 79.7531 39.9231 80.4869 42.1676C81.2206 44.4121 82.385 46.0441 83.0877 45.8129Z" fill="white"/>
<path d="M34.6023 75.1602H21.5327V88.2748H34.6023V75.1602Z" fill="#43AEFC"/>
<path d="M39.3193 87.0176L34.6024 88.2625V75.1602L39.3193 76.4174V87.0176Z" fill="url(#paint41_linear)"/>
<path d="M32.5632 86.2291H23.5718C23.5718 84.4049 25.5863 82.9258 28.0675 82.9258C30.5488 82.9258 32.5632 84.4049 32.5632 86.2291Z" fill="white"/>
<path d="M28.0675 81.8774C29.3904 81.8774 30.4628 80.8013 30.4628 79.4738C30.4628 78.1464 29.3904 77.0703 28.0675 77.0703C26.7446 77.0703 25.6722 78.1464 25.6722 79.4738C25.6722 80.8013 26.7446 81.8774 28.0675 81.8774Z" fill="white"/>
<path d="M162.276 44.9609H148.408V58.8768H162.276V44.9609Z" fill="#43AEFC"/>
<path d="M145.657 60.4545L148.408 58.8768V44.9609L145.657 46.5263V60.4545Z" fill="url(#paint42_linear)"/>
<path d="M148.408 58.877L145.657 60.4547H159.242L162.276 58.877H148.408Z" fill="url(#paint43_linear)"/>
<path d="M157.719 50.2481C158.418 50.2481 158.984 49.6797 158.984 48.9785C158.984 48.2774 158.418 47.709 157.719 47.709C157.02 47.709 156.454 48.2774 156.454 48.9785C156.454 49.6797 157.02 50.2481 157.719 50.2481Z" fill="white"/>
<path d="M153.592 53.1446C154.29 53.1446 154.857 52.5762 154.857 51.875C154.857 51.1739 154.29 50.6055 153.592 50.6055C152.893 50.6055 152.327 51.1739 152.327 51.875C152.327 52.5762 152.893 53.1446 153.592 53.1446Z" fill="white"/>
<path d="M157.719 56.1289C158.418 56.1289 158.984 55.5606 158.984 54.8594C158.984 54.1582 158.418 53.5898 157.719 53.5898C157.02 53.5898 156.454 54.1582 156.454 54.8594C156.454 55.5606 157.02 56.1289 157.719 56.1289Z" fill="white"/>
<path d="M157.424 55.1423L152.978 51.8637L157.51 48.6836L157.915 49.2752L154.194 51.876L157.854 54.563L157.424 55.1423Z" fill="white"/>
<path d="M9.27483 56.0176L23.1428 56.0176L23.1428 42.1017L9.27483 42.1017L9.27483 56.0176Z" fill="#43AEFC"/>
<path d="M25.8935 57.5834L23.142 56.018V42.0898L25.8935 43.6675V57.5834Z" fill="url(#paint44_linear)"/>
<path d="M23.1419 56.0176L25.8934 57.583H12.3079L9.27393 56.0176H23.1419Z" fill="url(#paint45_linear)"/>
<path d="M19.9974 52.7033H12.4554C12.0378 52.7033 11.6938 52.3582 11.6938 51.9391V46.5527H19.9974C20.4151 46.5527 20.759 46.8979 20.759 47.3169V51.9514C20.759 52.3582 20.4151 52.7033 19.9974 52.7033Z" fill="white"/>
<path d="M14.4331 45.4062H12.4063C12.0132 45.4062 11.6938 45.7267 11.6938 46.1211V47.6002H16.2264L15.0227 45.739C14.8998 45.5295 14.6664 45.4062 14.4331 45.4062Z" fill="white"/>
<path d="M70.0523 5.50755C70.8257 5.50755 71.4526 4.87845 71.4526 4.10241C71.4526 3.32637 70.8257 2.69727 70.0523 2.69727C69.2789 2.69727 68.652 3.32637 68.652 4.10241C68.652 4.87845 69.2789 5.50755 70.0523 5.50755Z" fill="url(#paint46_linear)"/>
<path d="M119.862 97.7775V100.649C117.7 100.341 116.066 99.5401 116.152 98.8005C116.226 98.0856 117.823 97.6665 119.862 97.7775Z" fill="url(#paint47_linear)"/>
<defs>
<linearGradient id="paint0_linear" x1="134.005" y1="17.9819" x2="134.005" y2="205.764" gradientUnits="userSpaceOnUse">
<stop stop-color="#75C4FD"/>
<stop offset="1" stop-color="#75C4FD"/>
</linearGradient>
<linearGradient id="paint1_linear" x1="101.242" y1="17.9807" x2="101.242" y2="205.762" gradientUnits="userSpaceOnUse">
<stop stop-color="#75C4FD"/>
<stop offset="1" stop-color="#75C4FD"/>
</linearGradient>
<linearGradient id="paint2_linear" x1="23.2279" y1="17.9836" x2="23.2279" y2="205.764" gradientUnits="userSpaceOnUse">
<stop stop-color="#75C4FD"/>
<stop offset="1" stop-color="#75C4FD"/>
</linearGradient>
<linearGradient id="paint3_linear" x1="14.327" y1="17.9821" x2="14.327" y2="205.764" gradientUnits="userSpaceOnUse">
<stop stop-color="#75C4FD"/>
<stop offset="1" stop-color="#75C4FD"/>
</linearGradient>
<linearGradient id="paint4_linear" x1="155.351" y1="17.9816" x2="155.351" y2="205.764" gradientUnits="userSpaceOnUse">
<stop stop-color="#75C4FD"/>
<stop offset="1" stop-color="#75C4FD"/>
</linearGradient>
<linearGradient id="paint5_linear" x1="136.049" y1="147.72" x2="136.049" y2="126.737" gradientUnits="userSpaceOnUse">
<stop stop-color="#75C4FD"/>
<stop offset="0.1001" stop-color="#82C3F7"/>
<stop offset="1" stop-color="#F1B9BE"/>
</linearGradient>
<linearGradient id="paint6_linear" x1="61.3846" y1="7.0788" x2="75.1173" y2="7.0788" gradientUnits="userSpaceOnUse">
<stop stop-color="#FFE566"/>
<stop offset="1" stop-color="#FFB0EB"/>
</linearGradient>
<linearGradient id="paint7_linear" x1="68.3291" y1="108.325" x2="14.6123" y2="220.183" gradientUnits="userSpaceOnUse">
<stop stop-color="#CFD3D6"/>
<stop offset="0.6349" stop-color="#F3F4F5"/>
<stop offset="1" stop-color="white" stop-opacity="0"/>
</linearGradient>
<linearGradient id="paint8_linear" x1="69.1759" y1="154.472" x2="40.0518" y2="217.942" gradientUnits="userSpaceOnUse">
<stop stop-color="#BBC0C5"/>
<stop offset="0.5694" stop-color="#CFD3D6"/>
<stop offset="0.9989" stop-color="white" stop-opacity="0"/>
</linearGradient>
<linearGradient id="paint9_linear" x1="141.98" y1="13.4076" x2="123.529" y2="39.8864" gradientUnits="userSpaceOnUse">
<stop stop-color="#75C4FD"/>
<stop offset="0.1001" stop-color="#82C3F7"/>
<stop offset="1" stop-color="#F1B9BE"/>
</linearGradient>
<linearGradient id="paint10_linear" x1="84.9623" y1="113.212" x2="84.9623" y2="162.262" gradientUnits="userSpaceOnUse">
<stop offset="0.00477698" stop-color="white"/>
<stop offset="0.3219" stop-color="#E6E6E6"/>
<stop offset="0.75" stop-color="#808080"/>
</linearGradient>
<linearGradient id="paint11_linear" x1="97.5617" y1="143.435" x2="97.5617" y2="109.44" gradientUnits="userSpaceOnUse">
<stop stop-color="#75C4FD"/>
<stop offset="0.1001" stop-color="#82C3F7"/>
<stop offset="1" stop-color="#F1B9BE"/>
</linearGradient>
<linearGradient id="paint12_linear" x1="74.6635" y1="97.1529" x2="33.0218" y2="156.523" gradientUnits="userSpaceOnUse">
<stop stop-color="#75C4FD"/>
<stop offset="0.1001" stop-color="#82C3F7"/>
<stop offset="1" stop-color="#F1B9BE"/>
</linearGradient>
<linearGradient id="paint13_linear" x1="103.359" y1="130.433" x2="119.857" y2="130.433" gradientUnits="userSpaceOnUse">
<stop stop-color="#FFE566"/>
<stop offset="1" stop-color="#FFB0EB"/>
</linearGradient>
<linearGradient id="paint14_linear" x1="72.7106" y1="2.14465" x2="72.7106" y2="105.071" gradientUnits="userSpaceOnUse">
<stop offset="0.00477698" stop-color="white"/>
<stop offset="0.3219" stop-color="#E6E6E6"/>
<stop offset="0.75" stop-color="#808080"/>
</linearGradient>
<linearGradient id="paint15_linear" x1="146.788" y1="111.284" x2="152.215" y2="111.284" gradientUnits="userSpaceOnUse">
<stop stop-color="#75C4FD"/>
<stop offset="1" stop-color="#75C4FD"/>
</linearGradient>
<linearGradient id="paint16_linear" x1="146.788" y1="103.945" x2="166.842" y2="103.945" gradientUnits="userSpaceOnUse">
<stop stop-color="#75C4FD"/>
<stop offset="1" stop-color="#75C4FD"/>
</linearGradient>
<linearGradient id="paint17_linear" x1="10.55" y1="132.852" x2="30.3266" y2="132.852" gradientUnits="userSpaceOnUse">
<stop stop-color="#75C4FD"/>
<stop offset="1" stop-color="#75C4FD"/>
</linearGradient>
<linearGradient id="paint18_linear" x1="25.085" y1="140.323" x2="30.3259" y2="140.323" gradientUnits="userSpaceOnUse">
<stop stop-color="#75C4FD"/>
<stop offset="1" stop-color="#75C4FD"/>
</linearGradient>
<linearGradient id="paint19_linear" x1="54.7066" y1="148.97" x2="75.4733" y2="148.97" gradientUnits="userSpaceOnUse">
<stop stop-color="#FFE566"/>
<stop offset="1" stop-color="#FFB0EB"/>
</linearGradient>
<linearGradient id="paint20_linear" x1="54.7075" y1="29.932" x2="64.5443" y2="29.932" gradientUnits="userSpaceOnUse">
<stop stop-color="#FFE566"/>
<stop offset="1" stop-color="#FFB0EB"/>
</linearGradient>
<linearGradient id="paint21_linear" x1="112.983" y1="59.5534" x2="119.856" y2="59.5534" gradientUnits="userSpaceOnUse">
<stop stop-color="#FFE566"/>
<stop offset="1" stop-color="#FFB0EB"/>
</linearGradient>
<linearGradient id="paint22_linear" x1="104.642" y1="168.659" x2="117.636" y2="168.659" gradientUnits="userSpaceOnUse">
<stop stop-color="#FFE566"/>
<stop offset="1" stop-color="#FFB0EB"/>
</linearGradient>
<linearGradient id="paint23_linear" x1="90.8554" y1="150.377" x2="101.376" y2="150.377" gradientUnits="userSpaceOnUse">
<stop stop-color="#FFE566"/>
<stop offset="1" stop-color="#FFB0EB"/>
</linearGradient>
<linearGradient id="paint24_linear" x1="79.9999" y1="164.376" x2="88.7787" y2="164.376" gradientUnits="userSpaceOnUse">
<stop stop-color="#FFE566"/>
<stop offset="1" stop-color="#FFB0EB"/>
</linearGradient>
<linearGradient id="paint25_linear" x1="37.3291" y1="140.126" x2="51.1226" y2="140.126" gradientUnits="userSpaceOnUse">
<stop stop-color="#FFE566"/>
<stop offset="1" stop-color="#FFB0EB"/>
</linearGradient>
<linearGradient id="paint26_linear" x1="54.7066" y1="109.173" x2="57.4433" y2="109.173" gradientUnits="userSpaceOnUse">
<stop stop-color="#FFE566"/>
<stop offset="1" stop-color="#FFB0EB"/>
</linearGradient>
<linearGradient id="paint27_linear" x1="101.572" y1="180.344" x2="109.639" y2="179.662" gradientUnits="userSpaceOnUse">
<stop stop-color="#FFE566"/>
<stop offset="1" stop-color="#FFB0EB"/>
</linearGradient>
<linearGradient id="paint28_linear" x1="136.534" y1="24.8762" x2="157.736" y2="24.8762" gradientUnits="userSpaceOnUse">
<stop stop-color="#75C4FD"/>
<stop offset="0.1001" stop-color="#82C3F7"/>
<stop offset="1" stop-color="#F1B9BE"/>
</linearGradient>
<linearGradient id="paint29_linear" x1="123.663" y1="71.4561" x2="134.462" y2="71.4561" gradientUnits="userSpaceOnUse">
<stop stop-color="#FFE566"/>
<stop offset="1" stop-color="#FFB0EB"/>
</linearGradient>
<linearGradient id="paint30_linear" x1="165.79" y1="83.1209" x2="120.866" y2="83.1209" gradientUnits="userSpaceOnUse">
<stop stop-color="#75C4FD"/>
<stop offset="0.1001" stop-color="#82C3F7"/>
<stop offset="1" stop-color="#F1B9BE"/>
</linearGradient>
<linearGradient id="paint31_linear" x1="165.79" y1="96.9087" x2="120.866" y2="96.9087" gradientUnits="userSpaceOnUse">
<stop stop-color="#75C4FD"/>
<stop offset="0.1001" stop-color="#82C3F7"/>
<stop offset="1" stop-color="#F1B9BE"/>
</linearGradient>
<linearGradient id="paint32_linear" x1="165.673" y1="85.7735" x2="121.075" y2="85.7735" gradientUnits="userSpaceOnUse">
<stop stop-color="#75C4FD"/>
<stop offset="0.1001" stop-color="#82C3F7"/>
<stop offset="1" stop-color="#F1B9BE"/>
</linearGradient>
<linearGradient id="paint33_linear" x1="38.208" y1="36.2826" x2="51.1228" y2="36.2826" gradientUnits="userSpaceOnUse">
<stop stop-color="#FFE566"/>
<stop offset="1" stop-color="#FFB0EB"/>
</linearGradient>
<linearGradient id="paint34_linear" x1="41.9947" y1="91.1019" x2="66.4625" y2="91.6967" gradientUnits="userSpaceOnUse">
<stop stop-color="#75C4FD"/>
<stop offset="0.1001" stop-color="#82C3F7"/>
<stop offset="1" stop-color="#F1B9BE"/>
</linearGradient>
<linearGradient id="paint35_linear" x1="54.706" y1="67.5424" x2="59.3029" y2="67.5424" gradientUnits="userSpaceOnUse">
<stop stop-color="#FFE566"/>
<stop offset="1" stop-color="#FFB0EB"/>
</linearGradient>
<linearGradient id="paint36_linear" x1="131.262" y1="158.894" x2="141.042" y2="153.253" gradientUnits="userSpaceOnUse">
<stop stop-color="#FFE566"/>
<stop offset="1" stop-color="#FFB0EB"/>
</linearGradient>
<linearGradient id="paint37_linear" x1="38.4831" y1="51.429" x2="45.5943" y2="47.3856" gradientUnits="userSpaceOnUse">
<stop stop-color="#FFE566"/>
<stop offset="1" stop-color="#FFB0EB"/>
</linearGradient>
<linearGradient id="paint38_linear" x1="78.7795" y1="31.2503" x2="119.857" y2="31.2503" gradientUnits="userSpaceOnUse">
<stop stop-color="#FFE566"/>
<stop offset="1" stop-color="#FFB0EB"/>
</linearGradient>
<linearGradient id="paint39_linear" x1="112.042" y1="108.412" x2="119.856" y2="108.412" gradientUnits="userSpaceOnUse">
<stop stop-color="#FFE566"/>
<stop offset="1" stop-color="#FFB0EB"/>
</linearGradient>
<linearGradient id="paint40_linear" x1="86.23" y1="38.7421" x2="112.988" y2="38.7421" gradientUnits="userSpaceOnUse">
<stop stop-color="#75C4FD"/>
<stop offset="0.1001" stop-color="#82C3F7"/>
<stop offset="1" stop-color="#F1B9BE"/>
</linearGradient>
<linearGradient id="paint41_linear" x1="34.5984" y1="81.7134" x2="39.3188" y2="81.7134" gradientUnits="userSpaceOnUse">
<stop stop-color="#75C4FD"/>
<stop offset="1" stop-color="#75C4FD"/>
</linearGradient>
<linearGradient id="paint42_linear" x1="145.653" y1="52.7054" x2="148.405" y2="52.7054" gradientUnits="userSpaceOnUse">
<stop stop-color="#75C4FD"/>
<stop offset="1" stop-color="#75C4FD"/>
</linearGradient>
<linearGradient id="paint43_linear" x1="145.653" y1="59.6648" x2="162.275" y2="59.6648" gradientUnits="userSpaceOnUse">
<stop stop-color="#75C4FD"/>
<stop offset="1" stop-color="#75C4FD"/>
</linearGradient>
<linearGradient id="paint44_linear" x1="23.1438" y1="49.84" x2="25.8956" y2="49.84" gradientUnits="userSpaceOnUse">
<stop stop-color="#75C4FD"/>
<stop offset="1" stop-color="#75C4FD"/>
</linearGradient>
<linearGradient id="paint45_linear" x1="9.273" y1="56.7989" x2="25.8956" y2="56.7989" gradientUnits="userSpaceOnUse">
<stop stop-color="#75C4FD"/>
<stop offset="1" stop-color="#75C4FD"/>
</linearGradient>
<linearGradient id="paint46_linear" x1="70.0485" y1="17.9816" x2="70.0485" y2="205.763" gradientUnits="userSpaceOnUse">
<stop stop-color="#75C4FD"/>
<stop offset="1" stop-color="#75C4FD"/>
</linearGradient>
<linearGradient id="paint47_linear" x1="126.322" y1="101.464" x2="115.823" y2="97.9932" gradientUnits="userSpaceOnUse">
<stop stop-color="#75C4FD"/>
<stop offset="0.1001" stop-color="#82C3F7"/>
<stop offset="1" stop-color="#F1B9BE"/>
</linearGradient>
</defs>
</svg>
