<svg width="267" height="124" viewBox="0 0 267 124" fill="none" xmlns="http://www.w3.org/2000/svg">
<mask id="mask0_58_2538" style="mask-type:luminance" maskUnits="userSpaceOnUse" x="0" y="0" width="266" height="93">
<path d="M265.907 0.834961H0V92.1646H265.907V0.834961Z" fill="white"/>
</mask>
<g mask="url(#mask0_58_2538)">
<g filter="url(#filter0_d_58_2538)">
<path d="M262.675 0.834961H3.23486C1.44938 0.834961 0.00195312 2.28238 0.00195312 4.06787V88.9317C0.00195312 90.7171 1.44938 92.1646 3.23486 92.1646H262.675C264.461 92.1646 265.908 90.7171 265.908 88.9317V4.06787C265.908 2.28238 264.461 0.834961 262.675 0.834961Z" fill="#FF5C16"/>
</g>
<mask id="mask1_58_2538" style="mask-type:luminance" maskUnits="userSpaceOnUse" x="38" y="11" width="190" height="134">
<path d="M214.53 11.4707H51.3789C44.3394 11.4707 38.6328 17.1773 38.6328 24.2168V131.285C38.6328 138.324 44.3394 144.031 51.3789 144.031H214.53C221.569 144.031 227.276 138.324 227.276 131.285V24.2168C227.276 17.1773 221.569 11.4707 214.53 11.4707Z" fill="white"/>
</mask>
<g mask="url(#mask1_58_2538)">
<path d="M38.6328 11.4707H227.306V67.2611H38.6328V11.4707Z" fill="#353535"/>
<mask id="mask2_58_2538" style="mask-type:luminance" maskUnits="userSpaceOnUse" x="38" y="11" width="190" height="57">
<path d="M38.6328 11.4707H227.306V67.2611H38.6328V11.4707Z" fill="white"/>
</mask>
<g mask="url(#mask2_58_2538)">
<path d="M227.306 67.2611V66.9424H38.6328V67.2611V67.5797H227.306V67.2611Z" fill="#B1B1B1"/>
</g>
<path d="M227.348 67.2607H-170.289V165.087H227.348V67.2607Z" fill="#5C5C5C"/>
<path d="M210.147 35.1686C211.262 35.1686 212.166 34.2649 212.166 33.1502C212.166 32.0355 211.262 31.1318 210.147 31.1318C209.033 31.1318 208.129 32.0355 208.129 33.1502C208.129 34.2649 209.033 35.1686 210.147 35.1686Z" fill="#F7F9FC"/>
<path d="M210.147 42.2321C211.262 42.2321 212.166 41.3284 212.166 40.2137C212.166 39.099 211.262 38.1953 210.147 38.1953C209.033 38.1953 208.129 39.099 208.129 40.2137C208.129 41.3284 209.033 42.2321 210.147 42.2321Z" fill="#F7F9FC"/>
<path d="M210.147 49.2975C211.262 49.2975 212.166 48.3938 212.166 47.2791C212.166 46.1644 211.262 45.2607 210.147 45.2607C209.033 45.2607 208.129 46.1644 208.129 47.2791C208.129 48.3938 209.033 49.2975 210.147 49.2975Z" fill="#F7F9FC"/>
<path d="M117.61 25.1191H-129.248C-137.585 25.1191 -144.344 31.8777 -144.344 40.2147V40.2148C-144.344 48.5519 -137.585 55.3104 -129.248 55.3104H117.61C125.947 55.3104 132.705 48.5519 132.705 40.2147C132.705 31.8777 125.947 25.1191 117.61 25.1191Z" fill="#131313"/>
<g opacity="0.5">
<path d="M110.461 45.0315L113.259 43.3443L116.056 45.0537L115.323 41.8569L117.787 39.7258L114.546 39.4372L113.259 36.4181L111.971 39.415L108.73 39.7036L111.194 41.8569L110.461 45.0315ZM107.775 48.7388L109.218 42.5007L104.379 38.305L110.772 37.75L113.259 31.8672L115.745 37.75L122.138 38.305L117.299 42.5007L118.742 48.7388L113.259 45.4311L107.775 48.7388Z" fill="#F7F9FC"/>
</g>
<path d="M183.205 21.502H155.334C152.696 21.502 150.557 23.6411 150.557 26.2798V54.1504C150.557 56.7891 152.696 58.9283 155.334 58.9283H183.205C185.844 58.9283 187.983 56.7891 187.983 54.1504V26.2798C187.983 23.6411 185.844 21.502 183.205 21.502Z" fill="#F7F9FC"/>
<path d="M181.604 52.8823L175.49 51.0729L170.878 53.8123L167.661 53.811L163.047 51.0729L156.935 52.8823L155.076 46.6451L156.935 39.7227L155.076 33.8699L156.935 26.6162L166.486 32.2867H172.054L181.604 26.6162L183.463 33.8699L181.604 39.7227L183.463 46.6451L181.604 52.8823Z" fill="#FF5C16"/>
<path d="M156.937 26.6162L166.488 32.2907L166.108 36.1849L156.937 26.6162Z" fill="#FF5C16"/>
<path d="M163.051 46.6484L167.253 49.8296L163.051 51.0736V46.6484Z" fill="#FF5C16"/>
<path d="M166.915 41.3883L166.108 36.1875L160.938 39.7239L160.935 39.7226V39.7252L160.951 43.3654L163.048 41.3883H166.915Z" fill="#FF5C16"/>
<path d="M181.605 26.6162L172.055 32.2907L172.433 36.1849L181.605 26.6162Z" fill="#FF5C16"/>
<path d="M175.493 46.6484L171.291 49.8296L175.493 51.0736V46.6484Z" fill="#FF5C16"/>
<path d="M177.605 39.7252V39.7226L177.604 39.7239L172.434 36.1875L171.627 41.3883H175.493L177.591 43.3654L177.605 39.7252Z" fill="#FF5C16"/>
<path d="M163.047 51.0726L156.935 52.882L155.076 46.6475H163.047V51.0726Z" fill="#FF5C16"/>
<path d="M166.914 41.3867L168.082 48.9052L166.464 44.7249L160.949 43.3651L163.047 41.3867H166.914Z" fill="#FF5C16"/>
<path d="M175.492 51.0726L181.604 52.882L183.463 46.6475H175.492V51.0726Z" fill="#FF5C16"/>
<path d="M171.626 41.3867L170.459 48.9052L172.077 44.7249L177.592 43.3651L175.493 41.3867H171.626Z" fill="#FF5C16"/>
<path d="M155.076 46.6451L156.935 39.7227H160.933L160.948 43.3642L166.463 44.7239L168.081 48.9042L167.249 49.8249L163.047 46.6438H155.076V46.6451Z" fill="#FF8D5D"/>
<path d="M183.464 46.6451L181.605 39.7227H177.606L177.592 43.3642L172.077 44.7239L170.459 48.9042L171.29 49.8249L175.493 46.6438H183.464V46.6451Z" fill="#FF8D5D"/>
<path d="M172.054 32.2871H169.27H166.486L166.107 36.1814L168.081 48.9007H170.459L172.434 36.1814L172.054 32.2871Z" fill="#FF8D5D"/>
<path d="M156.935 26.6162L155.076 33.8699L156.935 39.7227H160.933L166.106 36.1849L156.935 26.6162Z" fill="#661800"/>
<path d="M165.601 42.5075H163.4L162.201 43.6749L166.459 44.7243L165.601 42.5059V42.5075Z" fill="#661800"/>
<path d="M181.604 26.6162L183.463 33.8699L181.604 39.7227H177.606L172.433 36.1849L181.604 26.6162Z" fill="#661800"/>
<path d="M172.931 42.5075H175.133L176.33 43.6752L172.072 44.725L172.931 42.5059V42.5075Z" fill="#661800"/>
<path d="M170.877 51.3313L171.29 49.8279L170.458 48.9072H168.08L167.248 49.8279L167.661 51.3313" fill="#661800"/>
<path d="M170.878 51.3311V53.8137H167.662V51.3311H170.878Z" fill="#E7EBF6"/>
<path d="M163.047 51.0702L167.662 53.8123V51.3296L167.249 49.8262L163.047 51.0702Z" fill="#E7EBF6"/>
<path d="M175.49 51.0702L170.875 53.8123V51.3296L171.288 49.8262L175.49 51.0702Z" fill="#E7EBF6"/>
</g>
</g>
<defs>
<filter id="filter0_d_58_2538" x="-10.1009" y="-7.65143" width="286.112" height="111.535" filterUnits="userSpaceOnUse" color-interpolation-filters="sRGB">
<feFlood flood-opacity="0" result="BackgroundImageFix"/>
<feColorMatrix in="SourceAlpha" type="matrix" values="0 0 0 0 0 0 0 0 0 0 0 0 0 0 0 0 0 0 127 0" result="hardAlpha"/>
<feOffset dy="1.61645"/>
<feGaussianBlur stdDeviation="5.05142"/>
<feComposite in2="hardAlpha" operator="out"/>
<feColorMatrix type="matrix" values="0 0 0 0 0 0 0 0 0 0 0 0 0 0 0 0 0 0 0.04 0"/>
<feBlend mode="normal" in2="BackgroundImageFix" result="effect1_dropShadow_58_2538"/>
<feBlend mode="normal" in="SourceGraphic" in2="effect1_dropShadow_58_2538" result="shape"/>
</filter>
</defs>
</svg>
