<svg width="327" height="256" viewBox="0 0 327 256" fill="none" xmlns="http://www.w3.org/2000/svg">
<path d="M21.0455 112.872L45.4766 116.354V92.0395L21.0455 88.5566V112.872Z" fill="#43AEFC"/>
<path d="M61.7531 107.04L45.4766 116.354V92.0391L61.7531 82.7246V107.04Z" fill="#037DD6"/>
<path d="M37.3221 79.2422L21.0455 88.5567L45.4766 92.0395L61.7532 82.725L37.3221 79.2422Z" fill="#75C4FD"/>
<path d="M39.1449 110.23L27.377 108.399C26.2377 108.221 25.3262 107.168 25.3262 106.034V97.2383L38.4939 99.2794C39.9913 99.5062 41.2121 100.915 41.2121 102.406V108.497C41.2121 109.631 40.2843 110.408 39.1449 110.23Z" fill="white"/>
<path d="M30.5999 96.0567L26.8075 95.4735C25.9774 95.344 25.3101 95.9109 25.3101 96.7209V99.0535L33.253 100.285L31.9021 97.1097C31.6905 96.5589 31.1696 96.1539 30.5999 96.0567Z" fill="white"/>
<path d="M278.036 69.0714L253.865 72.5219V48.4661L278.036 45.0156V69.0714Z" fill="#037DD6"/>
<path d="M237.751 63.2862L253.865 72.5198V48.464L237.751 39.2305V63.2862Z" fill="#43AEFC"/>
<path d="M261.922 35.7812L278.036 45.0148L253.865 48.4652L237.751 39.2317L261.922 35.7812Z" fill="#75C4FD"/>
<path d="M260.978 134.677C260.734 135.665 260.49 136.654 260.229 137.625C259.546 140.153 258.764 142.647 257.902 145.126C257.723 145.628 257.544 146.13 257.365 146.616C255.102 152.788 252.27 158.733 248.917 164.37C248.575 164.937 248.234 165.52 247.875 166.071C245.662 169.651 243.237 173.086 240.616 176.39C239.705 177.54 238.777 178.674 237.817 179.776C236.856 180.877 235.88 181.963 234.887 183.032C231.794 186.32 228.49 189.43 224.974 192.33C224.226 192.946 223.477 193.545 222.712 194.144C212.36 202.228 200.348 208.546 186.985 212.498C173.622 216.451 160.08 217.714 146.977 216.564C146.017 216.483 145.057 216.386 144.096 216.273C142.273 216.062 140.45 215.819 138.66 215.511C135.079 214.912 131.531 214.134 128.031 213.195C127.51 213.049 126.973 212.903 126.452 212.757C125.036 212.352 123.637 211.915 122.253 211.445C118.249 210.117 114.326 208.546 110.518 206.764C110.078 206.553 109.622 206.342 109.183 206.116C109.02 206.035 108.874 205.97 108.711 205.889C106.676 204.885 104.658 203.815 102.689 202.681C100.361 201.353 98.0987 199.944 95.8851 198.453C95.3968 198.129 94.8922 197.789 94.4039 197.433C93.6715 196.931 92.9553 196.412 92.2391 195.878C90.9858 194.954 89.7651 194.015 88.5606 193.043C87.1934 191.941 85.8587 190.807 84.5403 189.641C84.5403 189.641 84.5241 189.641 84.5241 189.625C83.7591 188.945 83.0103 188.264 82.2616 187.551C76.1579 181.801 70.689 175.305 66.0339 168.145C65.806 167.805 65.5782 167.448 65.3666 167.108C63.332 163.901 61.4602 160.58 59.7512 157.129C59.3768 156.352 59.0024 155.59 58.6281 154.797C57.8468 153.128 57.1144 151.427 56.4307 149.71C56.1378 148.965 55.8448 148.22 55.5518 147.458C55.4704 147.215 55.3728 146.989 55.2914 146.746C55.1774 146.438 55.0635 146.13 54.9496 145.822C54.3148 144.04 53.7126 142.226 53.1592 140.379C52.0849 136.783 51.206 133.154 50.5224 129.542C50.4247 129.056 50.3433 128.586 50.2619 128.1C50.2131 127.841 50.1805 127.598 50.1317 127.339C49.7411 125.039 49.4318 122.722 49.204 120.422C49.1388 119.742 49.0737 119.061 49.0249 118.381C48.8133 115.805 48.6994 113.229 48.6831 110.67V110.54C48.6831 109.779 48.6831 109.002 48.6994 108.24C48.7157 107.252 48.7482 106.264 48.7808 105.276C48.797 105.033 48.797 104.806 48.8133 104.563C49.1551 97.4839 50.2131 90.502 51.9384 83.7308C52.0035 83.4878 52.0686 83.2448 52.1175 83.0018C52.5732 81.2523 53.0778 79.5352 53.6149 77.8181C54.0055 76.5869 54.4124 75.372 54.8356 74.1571C55.1286 73.3309 55.4379 72.5047 55.7471 71.6786C55.7471 71.6786 55.7471 71.6786 55.7471 71.6624C56.3819 70.0263 57.033 68.4063 57.7491 66.8188C62.8111 55.3336 69.8752 44.7717 78.6482 35.6516L78.6808 35.6192C80.7153 33.5133 82.8313 31.4722 85.0449 29.5445C85.1588 29.4473 85.2728 29.3501 85.3867 29.2367C96.6826 19.3714 110.241 11.7254 125.59 7.18961C140.89 2.65384 156.418 1.66568 171.245 3.75538C174.371 4.19276 177.463 4.75973 180.507 5.47249C189.508 7.54599 198.167 10.7696 206.289 15.0138C207.168 15.4674 208.03 15.9372 208.909 16.4231C211.025 17.6057 213.109 18.853 215.143 20.1814C216.055 20.7645 216.95 21.3801 217.845 21.9957C218.399 22.3682 218.936 22.757 219.473 23.1458C220.189 23.6642 220.905 24.1826 221.605 24.7171C222.5 25.3975 223.379 26.0779 224.242 26.7906C224.372 26.904 224.502 27.0012 224.633 27.1146C224.681 27.1632 224.746 27.2118 224.795 27.2442C226.179 28.3781 227.53 29.5445 228.864 30.7594C231.811 33.4323 234.626 36.2995 237.279 39.3126C238.093 40.236 238.875 41.1755 239.656 42.1151C239.819 42.3256 239.998 42.52 240.16 42.7306C242.016 45.0309 243.79 47.4284 245.467 49.9069C245.922 50.571 246.362 51.2514 246.801 51.9318C248.185 54.0863 249.503 56.3055 250.74 58.5734C251.066 59.1728 251.391 59.7722 251.7 60.3715C251.896 60.7603 252.107 61.1491 252.303 61.5379C252.433 61.7809 252.547 62.0239 252.661 62.2669C255.33 67.6288 257.56 73.2985 259.334 79.2274C259.367 79.357 259.416 79.4866 259.448 79.6162L259.725 80.5719C260.278 82.532 260.783 84.4921 261.222 86.4522C261.401 87.2298 261.564 88.0236 261.727 88.8173C261.824 89.3357 261.938 89.8541 262.02 90.3562C262.264 91.6522 262.476 92.9643 262.671 94.2602C262.801 95.1188 262.915 95.9612 263.013 96.8197C263.289 99.0714 263.501 101.323 263.631 103.575C263.647 103.947 263.68 104.336 263.696 104.709C264.266 114.995 263.289 125.039 260.978 134.677Z" fill="url(#paint0_linear)"/>
<path d="M141.166 56.7592C143.933 54.7667 148.914 52.3854 148.133 48.2384C147.4 44.3992 142.469 44.1238 139.36 44.2696C133.809 44.5288 128.78 47.1045 123.425 48.2384C118.721 49.2266 113.61 48.6434 110.225 44.95C108.011 42.5363 106.839 39.4099 104.707 36.9314C102.249 34.0804 98.6033 32.995 94.9085 33.2866C92.9065 33.4486 90.9045 33.9508 88.8699 33.7726C86.6563 33.5782 84.7845 31.9259 85.0937 29.6094C82.8801 31.5533 80.7642 33.5782 78.7296 35.6841L78.6971 35.7165C69.924 44.8204 62.86 55.3985 57.798 66.8837C57.0981 68.4874 56.4307 70.1074 55.796 71.7273C55.796 71.7273 55.796 71.7273 55.796 71.7435C55.4867 72.5696 55.1774 73.3958 54.8845 74.2219C54.4613 75.4369 54.0381 76.6518 53.6637 77.883C50.5875 87.6349 48.8947 97.8728 48.7482 108.305C48.7319 109.066 48.7319 109.828 48.7319 110.605C50.3759 111.61 51.7919 113.035 53.1429 114.396C54.8356 116.113 56.4958 117.911 58.449 119.321C59.8 120.292 61.4114 120.924 63.039 120.244C65.2038 119.337 66.5548 117.134 67.9871 115.4C69.5171 113.554 71.454 111.998 73.8141 111.383C76.0765 110.784 78.5017 110.865 80.7153 110.103C82.7174 109.407 84.0032 107.803 84.6543 105.859C85.3704 103.737 85.403 101.437 86.1354 99.3307C86.9167 97.0628 88.9513 94.8111 91.1974 93.8878C95.2666 92.2192 98.7335 96.3986 100.817 99.2983C103.356 102.83 105.212 107.301 108.906 109.828C110.925 111.205 113.366 111.561 115.694 110.767C117.712 110.071 119.616 108.84 120.56 106.88C122.465 102.959 120.642 98.4397 121.423 94.3251C122.188 90.3239 124.922 87.6025 128.194 85.4156C131.661 83.0829 135.388 81.1066 138.432 78.2069C140.304 76.4412 142.045 74.2381 142.387 71.6139C142.696 69.2812 141.687 67.1105 140.157 65.4096C139.262 64.4052 137.39 63.2875 137.439 61.781C137.488 60.6308 138.367 59.5131 139.067 58.6707C139.653 57.9256 140.385 57.3262 141.166 56.7592Z" fill="url(#paint1_linear)"/>
<path d="M97.2523 153.21C92.5973 149.435 86.0541 149.873 81.0897 146.746C78.339 145.013 76.4835 142.324 74.4164 139.91C72.219 137.334 69.6473 135.293 66.3106 134.419C62.8112 133.511 59.1327 133.771 55.6658 132.685C53.68 132.054 52.0035 130.984 50.5549 129.607C51.2385 133.22 52.1175 136.832 53.1917 140.445C53.9079 142.842 54.7055 145.207 55.5844 147.524C55.8611 148.285 56.1541 149.03 56.4633 149.775C57.1469 151.493 57.8794 153.193 58.6607 154.862C59.0187 155.64 59.3931 156.417 59.7837 157.195C65.5131 168.81 73.1793 179.047 82.2779 187.617C83.0266 188.313 83.7754 189.01 84.5404 189.69C84.5404 189.69 84.5404 189.69 84.5566 189.706C85.875 190.873 87.2097 192.007 88.5769 193.108C88.7397 192.493 88.8699 191.861 88.9839 191.245C89.6186 187.876 90.465 184.588 91.6858 181.38C93.0042 177.897 94.6806 174.56 96.4385 171.272C98.0662 168.21 100.117 165.1 100.638 161.601C101.11 158.329 99.7915 155.267 97.2523 153.21Z" fill="url(#paint2_linear)"/>
<path d="M229.923 182.529C228.458 182.432 226.928 182.302 225.463 182.448C223.331 182.643 221.377 183.647 219.636 184.83C217.699 186.142 215.957 187.729 214.004 189.025C212.946 189.722 211.807 190.37 210.586 190.694C209.251 191.034 207.868 190.953 206.517 190.807C204.157 190.532 201.748 190.143 199.583 191.39C197.842 192.395 196.686 194.128 195.66 195.796C194.57 197.578 193.545 199.538 191.901 200.899C189.882 202.568 187.522 202.859 185.064 202.227C183.958 201.936 182.867 201.628 181.728 201.466C180.328 201.272 178.896 201.304 177.496 201.353C175.982 201.401 174.468 201.499 172.955 201.515C171.555 201.547 170.139 201.385 168.739 201.466C166.9 201.563 165.337 202.195 163.938 203.394C162.196 204.884 160.682 206.585 158.713 207.816C154.871 210.197 150.07 210.262 145.675 210.521C142.941 210.683 138.774 211.121 138.611 214.62C138.595 214.928 138.611 215.235 138.66 215.527C140.467 215.835 142.273 216.078 144.096 216.288C145.057 216.402 146.017 216.499 146.977 216.58C160.08 217.714 173.606 216.467 186.985 212.514C200.348 208.561 212.377 202.244 222.712 194.16C223.477 193.561 224.226 192.962 224.975 192.346C228.49 189.446 231.794 186.336 234.887 183.048C233.227 182.821 231.583 182.643 229.923 182.529Z" fill="url(#paint3_linear)"/>
<path d="M242.928 84.0055C241.512 79.9881 237.817 77.1857 234.073 75.2256C231.86 74.0754 229.532 73.1683 227.156 72.3907C224.437 71.4997 221.703 70.7546 219.213 69.3128C208.633 63.1248 209.772 48.2539 189.752 48.2539C181.126 48.2539 178.082 51.7853 174.501 56.4345C171.05 60.9217 170.009 66.6886 165.988 70.8518C162.668 74.3022 158.338 76.6511 155.018 80.0853C151.242 83.9731 149.549 89.0435 149.679 94.3568C149.809 99.9941 152.056 105.518 155.62 110.021C157.394 112.257 159.494 114.282 161.854 115.95C164.003 117.489 166.314 118.85 168.3 120.599C170.188 122.268 171.474 124.358 172.515 126.593C173.85 129.477 175.705 131.858 177.919 134.191C180.263 136.653 182.721 139.099 184.202 142.161C185.471 144.769 186.008 147.587 186.155 150.438C186.464 155.93 185.715 161.502 187.669 166.832C189.15 170.882 193.496 175.887 198.395 175.628C204.141 175.337 205.052 168.031 206.143 163.916C206.501 162.555 206.908 161.178 207.559 159.915C208.324 158.425 209.382 157.048 210.342 155.671C212.132 153.095 213.972 150.568 215.713 147.96C219.148 142.792 221.801 137.301 222.826 131.178C223.396 127.792 223.558 124.422 224.584 121.118C225.495 118.186 226.846 115.416 228.474 112.791C231.778 107.446 236.059 102.732 239.672 97.5804C242.423 93.6602 244.62 88.8005 242.928 84.0055Z" fill="url(#paint4_linear)"/>
<path d="M224.681 27.2422C223.688 26.4323 222.679 25.6223 221.654 24.8448C220.954 24.3102 220.238 23.7918 219.522 23.2734C218.985 22.8847 218.431 22.4959 217.894 22.1233C216.999 21.5077 216.104 20.8922 215.192 20.309C213.158 18.9807 211.074 17.7333 208.958 16.5508C208.454 17.0692 207.933 17.5551 207.331 17.9763C204.645 19.8554 201.324 19.2398 198.265 18.9807C195.465 18.7377 192.6 18.8511 190.419 20.8274C188.645 22.4311 187.701 24.7152 186.562 26.7563C185.959 27.874 185.292 28.9594 184.413 29.8827C183.567 30.7737 182.541 31.3568 181.483 31.9562C179.628 32.993 177.561 34.1593 176.421 36.0222C175.233 37.9499 175.77 40.3636 177.268 41.9835C178.798 43.6358 181.321 43.8788 183.437 43.9274C185.862 43.976 188.352 43.5548 190.761 43.9436C193.382 44.3648 195.693 45.8875 198.313 46.2439C199.681 46.4221 201.048 46.2277 202.334 45.7417C203.912 45.1423 205.394 44.1866 207.086 43.9112C208.763 43.652 209.837 44.381 210.993 45.4663C211.823 46.2439 212.702 47.0215 213.857 47.232C218.122 48.042 219.57 43.3604 220.433 40.153C220.889 38.4845 221.198 36.5244 222.224 35.0989C223.395 33.4789 225.381 32.6204 227.139 31.7942C227.709 31.535 228.344 31.2596 228.946 30.9195C227.546 29.6397 226.13 28.4248 224.681 27.2422Z" fill="url(#paint5_linear)"/>
<path d="M261.808 88.9481C261.646 88.1543 261.483 87.3767 261.304 86.583C260.767 84.1693 260.132 81.7556 259.416 79.3582C257.43 72.7327 254.858 66.4312 251.782 60.5023C251.473 59.9029 251.147 59.2874 250.822 58.7042C249.585 56.4363 248.266 54.217 246.883 52.0625C246.443 51.3822 246.004 50.7018 245.548 50.0376C243.025 46.3118 240.291 42.7804 237.361 39.4434C237.296 40.4801 236.905 41.4845 236.368 42.4888C234.903 45.2427 232.722 47.3162 230.639 49.584C228.767 51.5927 226.879 53.9254 226.537 56.7279C226.391 57.9752 226.521 59.3846 227.204 60.4861C227.823 61.5066 228.848 62.106 229.89 62.6082C230.997 63.1266 232.136 63.5963 232.983 64.5197C233.992 65.6212 234.496 67.0144 235.212 68.3103C236.759 71.0966 239.835 72.0685 242.439 73.5912C243.904 74.4498 245.288 75.5351 245.971 77.1389C246.704 78.8884 246.59 80.8323 246.752 82.679C246.98 85.1899 247.762 88.0409 249.878 89.6284C251.798 91.0702 254.337 91.0216 256.616 90.8434C258.439 90.6976 260.295 90.4222 262.134 90.5032C262.004 89.9848 261.906 89.4664 261.808 88.9481Z" fill="url(#paint6_linear)"/>
<path opacity="0.4" d="M97.1057 199.296C47.4948 166.752 33.79 100.351 66.4733 50.9762C95.2502 7.52994 150.395 -8.24807 197.011 10.786C199.827 11.9361 202.61 13.2159 205.361 14.609C208.812 16.3747 212.197 18.3348 215.501 20.5055C127.169 23.9397 53.0451 80.5073 97.1057 199.296Z" fill="url(#paint7_linear)"/>
<path d="M166.46 215.689C156.987 215.689 147.335 213.972 137.797 210.505C125.671 206.099 114.392 199.166 104.284 189.9C94.518 180.958 86.2495 170.218 79.7064 157.988C73.1632 145.757 68.6546 132.652 66.327 119.045C63.9181 104.951 63.9669 90.9067 66.4573 77.3318C69.0615 63.1089 74.1886 50.2954 81.6758 39.2637C88.9189 28.6047 97.9849 20.1001 108.662 14.0254C128.503 2.70215 152.007 1.01744 174.81 9.29522C185.976 13.345 196.458 19.5817 205.964 27.7947C216.722 37.093 225.756 48.4973 232.836 61.6996C239.412 73.9462 243.92 87.0675 246.264 100.707C248.689 114.833 248.641 128.878 246.15 142.485L245.792 142.42L246.15 142.485C243.546 156.708 238.419 169.521 230.932 180.553C223.689 191.212 214.623 199.717 203.945 205.791C192.405 212.368 179.612 215.689 166.46 215.689ZM146.147 4.82425C133.11 4.82425 120.447 8.12888 109.004 14.6572C98.4407 20.6833 89.4397 29.1068 82.2618 39.6687C74.8397 50.6194 69.7451 63.3357 67.1571 77.4614C64.6831 90.9553 64.6343 104.903 67.0269 118.915C69.3382 132.458 73.8143 145.482 80.3249 157.647C86.8355 169.813 95.0551 180.472 104.756 189.365C114.799 198.567 125.997 205.451 138.025 209.825C147.482 213.259 157.052 214.96 166.444 214.96C179.482 214.96 192.145 211.672 203.587 205.143C214.151 199.117 223.152 190.694 230.329 180.132C237.752 169.181 242.846 156.465 245.434 142.339C247.908 128.829 247.957 114.849 245.548 100.804C243.221 87.2457 238.728 74.1892 232.201 62.0236C225.154 48.9022 216.169 37.579 205.491 28.3293C196.051 20.1649 185.65 13.993 174.566 9.95939C165.109 6.54136 155.522 4.82425 146.147 4.82425Z" fill="white"/>
<path d="M175.819 214.183C175.445 214.183 175.087 214.183 174.713 214.167C166.135 213.972 157.297 211.559 148.41 206.974C138.481 201.839 129.041 194.307 120.381 184.555C112.015 175.143 104.723 164.095 98.6849 151.703C92.6463 139.31 88.1702 126.205 85.4032 112.76C82.5223 98.8285 81.5945 85.124 82.6362 72.0188C84.9149 43.3949 96.5852 21.2506 114.668 11.2719C121.781 7.35168 129.594 5.44017 137.879 5.63456C146.457 5.82895 155.295 8.24263 164.182 12.827C173.329 17.5572 182.086 24.3446 190.192 33.0274C199.355 42.8441 207.331 54.6047 213.858 67.969C219.913 80.3776 224.405 93.499 227.188 106.977C230.085 120.94 231.013 134.661 229.971 147.782C227.693 176.406 216.022 198.551 197.939 208.529C191.136 212.288 183.714 214.183 175.819 214.183ZM136.772 6.34733C129.008 6.34733 121.7 8.21023 115.01 11.9036C97.1549 21.769 85.6148 43.7027 83.3524 72.0836C82.3107 85.1078 83.2384 98.7475 86.1031 112.614C88.8701 126.011 93.3136 139.051 99.3359 151.395C105.342 163.722 112.618 174.722 120.935 184.085C129.545 193.756 138.904 201.256 148.752 206.343C157.525 210.878 166.265 213.276 174.729 213.454C182.883 213.632 190.582 211.769 197.581 207.914C215.437 198.049 226.977 176.131 229.239 147.75C230.281 134.71 229.353 121.038 226.472 107.155C223.689 93.742 219.229 80.6692 213.19 68.3254C206.696 55.0259 198.769 43.3301 189.654 33.562C181.598 24.944 172.922 18.2051 163.84 13.5074C155.067 8.93919 146.326 6.55791 137.863 6.36352C137.504 6.34733 137.13 6.34733 136.772 6.34733Z" fill="white"/>
<path d="M183.746 212.917C181.923 212.917 180.035 212.691 178.114 212.253C172.515 210.973 166.558 207.831 160.438 202.939C145.708 191.178 131.417 170.443 120.186 144.589C108.955 118.735 102.135 90.8402 100.964 66.0231C100.264 51.1846 101.615 38.5979 104.951 28.6192C108.158 19.0454 113.203 12.3066 119.535 9.09913C123.995 6.83124 129.024 6.32907 134.477 7.5764C140.076 8.85614 146.033 11.9988 152.153 16.8909C159.022 22.3663 165.809 29.8179 172.336 39.0028C179.726 49.4027 186.464 61.5521 192.356 75.1108C203.62 100.997 210.456 128.957 211.628 153.806C212.328 168.645 210.977 181.232 207.64 191.21C204.433 200.784 199.388 207.539 193.056 210.73C190.175 212.172 187.066 212.917 183.746 212.917ZM128.845 7.6088C125.639 7.6088 122.644 8.32157 119.861 9.7147C113.708 12.8411 108.776 19.4504 105.635 28.8297C102.314 38.7274 100.98 51.217 101.68 65.9583C102.852 90.6944 109.655 118.508 120.837 144.281C132.019 170.038 146.245 190.66 160.877 202.355C166.916 207.183 172.759 210.261 178.261 211.524C183.534 212.739 188.401 212.237 192.714 210.066C198.867 206.94 203.799 200.347 206.94 190.951C210.26 181.054 211.595 168.564 210.895 153.823C209.723 129.054 202.903 101.192 191.673 75.37C185.797 61.8437 179.075 49.7429 171.718 39.3916C165.223 30.2553 158.485 22.8684 151.681 17.4255C145.643 12.5982 139.799 9.52031 134.298 8.25677C132.442 7.83559 130.619 7.6088 128.845 7.6088Z" fill="white"/>
<path d="M188.304 212.192C183.795 212.192 178.033 207.785 171.425 199.232C150.33 171.921 126.241 109.699 117.729 60.5187C115.189 45.8098 114.229 33.2555 114.962 24.2001C115.678 15.323 118.038 9.76664 121.765 8.14672C126.55 6.05702 133.24 10.366 141.15 20.6039C145.92 26.7758 150.9 34.7944 155.995 44.4491C161.74 55.3674 167.356 67.8893 172.678 81.6262C182.835 107.853 190.713 135.44 194.847 159.318C197.386 174.026 198.346 186.581 197.614 195.636C196.898 204.513 194.538 210.07 190.81 211.689C190.029 212.013 189.199 212.192 188.304 212.192ZM124.304 8.34111C123.442 8.34111 122.709 8.5193 122.074 8.79469C118.607 10.3174 116.394 15.6469 115.694 24.2487C114.962 33.2393 115.922 45.745 118.445 60.3891C126.941 109.473 150.965 171.548 171.995 198.779C179.71 208.774 184.918 211.463 188.271 211.463C189.134 211.463 189.866 211.285 190.501 211.009C193.968 209.486 196.181 204.157 196.881 195.555C197.614 186.565 196.653 174.059 194.131 159.415C190.013 135.602 182.151 108.063 172.011 81.8692C166.688 68.1485 161.089 55.6751 155.36 44.7731C150.298 35.1508 145.317 27.1646 140.581 21.0251C132.866 11.0302 127.674 8.34111 124.304 8.34111Z" fill="white"/>
<path d="M122.751 8.17069L122.055 8.40039L189.857 211.653L190.553 211.424L122.751 8.17069Z" fill="white"/>
<path d="M252.726 62.3956C250.805 64.8254 246.118 68.0329 238.679 71.9531C209.333 87.4719 145.968 109.649 97.4313 121.409C87.0143 123.936 66.278 128.585 55.0309 128.585C53.1591 128.585 51.5477 128.456 50.2782 128.164C50.2293 127.905 50.1968 127.662 50.1479 127.403C55.0797 128.715 69.2403 127.484 97.2523 120.696C145.74 108.952 209.023 86.7915 238.321 71.3051C247.566 66.413 251.114 63.4161 252.368 61.6504C252.482 61.9258 252.612 62.1688 252.726 62.3956Z" fill="white"/>
<path d="M240.209 42.8591C238.858 45.0946 234.203 48.2535 226.325 52.3033C198.59 66.51 138.953 87.2773 93.3947 98.5844C74.4651 103.282 60.3859 105.744 52.8499 105.744C51.1734 105.744 49.8224 105.631 48.797 105.372C48.8133 105.129 48.8133 104.902 48.8296 104.659C53.9078 106.068 70.103 103.622 93.2157 97.8878C138.725 86.5969 198.297 65.862 225.983 51.6715C236.319 46.3744 239.086 43.5719 239.721 42.2598C239.884 42.4542 240.046 42.6485 240.209 42.8591Z" fill="white"/>
<path d="M224.861 27.3715C224.096 28.1977 221.443 30.012 211.514 34.2076C185.797 45.0773 131.742 63.2851 91.0185 74.8028C78.9739 78.2046 68.8824 80.7965 61.851 82.2868C56.3821 83.4531 53.5011 83.7933 51.9548 83.8095C52.0199 83.5665 52.085 83.3235 52.1339 83.0806C53.5662 83.032 56.2844 82.7242 61.4278 81.6388C68.4592 80.1647 78.6158 77.5566 90.7907 74.1224C131.482 62.621 185.504 44.4293 211.205 33.5596C221.15 29.364 223.672 27.5983 224.291 26.918C224.421 27.0314 224.551 27.1286 224.682 27.242C224.747 27.2906 224.795 27.3391 224.861 27.3715Z" fill="white"/>
<path d="M63.1529 57.9719C62.5995 57.9719 62.5019 57.8423 62.4042 57.7451C62.274 57.5993 62.2577 57.3887 62.3554 57.2106L63.0064 57.5345C63.0227 57.5021 63.039 57.4373 63.0064 57.3563C62.9739 57.2753 62.9251 57.243 62.9088 57.2268C63.7552 57.5669 72.4306 55.6068 94.1109 49.0138C125.932 39.3428 168.43 24.9418 188.857 16.9232C198.265 13.2298 199.404 12.2902 199.518 12.0958C199.502 12.112 199.485 12.1768 199.518 12.274C199.534 12.3388 199.583 12.3712 199.599 12.4036L199.762 11.707C200.153 11.788 200.218 12.0634 200.218 12.1606C200.25 12.5818 200.299 13.2136 189.117 17.6035C168.674 25.6221 126.143 40.0232 94.3062 49.7103C84.7194 52.6262 76.7601 54.9103 71.2912 56.3196C66.1478 57.6317 64.0481 57.9719 63.1529 57.9719Z" fill="white"/>
<path d="M81.1387 34.2099C80.6993 34.2099 80.6342 34.0965 80.5528 33.9669C80.5039 33.9021 80.39 33.6429 80.683 33.3675L81.1876 33.8859C81.2038 33.8535 81.2364 33.7563 81.2038 33.6591C81.1713 33.5457 81.0736 33.4971 81.0411 33.4809C81.6758 33.6429 87.4052 32.2984 101.452 28.0056C122.351 21.6069 150.281 12.1628 163.71 6.94664C169.764 4.59776 170.578 3.99839 170.692 3.86879C170.676 3.88499 170.643 3.94979 170.66 4.04698C170.676 4.12798 170.725 4.20898 170.79 4.25757L171.197 3.6582C171.327 3.7554 171.392 3.90119 171.376 4.06318C171.343 4.38717 171.294 4.79215 163.986 7.62701C150.526 12.8431 122.579 22.3035 101.663 28.7022C95.3156 30.6461 90.0745 32.1688 86.4774 33.1083C83.1733 33.9669 81.7735 34.2099 81.1387 34.2099Z" fill="white"/>
<path d="M259.806 80.7175C257.821 83.7629 253.458 87.4239 246.769 91.6357C217.862 109.925 153.813 133.154 104.007 143.392C88.9676 146.486 76.2394 148.171 67.2385 148.252C66.9943 148.252 66.7502 148.252 66.506 148.252C61.5579 148.252 57.8143 147.766 55.3077 146.81C55.1938 146.502 55.0799 146.195 54.9659 145.887C57.0819 146.859 60.8092 147.588 67.2222 147.539C76.1743 147.458 88.8537 145.79 103.844 142.696C153.586 132.474 217.52 109.293 246.362 91.0364C254.516 85.885 258.114 82.2402 259.513 79.7617L259.806 80.7175Z" fill="white"/>
<path d="M263.778 104.837C261.58 107.591 257.658 110.798 252.01 114.411C223.917 132.44 161.561 155.103 113.008 164.952C97.9523 167.998 85.7449 169.537 77.0207 169.537C72.3005 169.537 68.622 169.083 66.0503 168.192C65.8224 167.852 65.5945 167.496 65.3829 167.155C67.5477 168.127 71.3076 168.856 77.7531 168.791C86.4448 168.71 98.5871 167.139 112.878 164.239C161.366 154.423 223.607 131.793 251.635 113.811C258.488 109.405 262.036 106.117 263.745 103.703C263.745 104.092 263.761 104.464 263.778 104.837Z" fill="white"/>
<path d="M91.1486 185.915C83.3196 185.915 78.225 184.668 76.3857 182.141L76.9717 181.72C78.6645 184.036 83.5637 185.186 91.0509 185.186C99.059 185.186 109.997 183.874 123.116 181.25C168.006 172.292 225.446 150.844 251.18 133.43C262.166 125.994 263.892 121.734 263.403 119.466L264.119 119.32C264.901 122.933 260.685 127.873 251.586 134.029C225.788 151.492 168.218 172.988 123.262 181.963C110.078 184.603 99.1729 185.915 91.1486 185.915Z" fill="white"/>
<path d="M257.902 145.125C257.723 145.627 257.544 146.129 257.365 146.615C255.591 148.154 253.345 149.807 250.626 151.588C227.221 166.897 175.51 186.546 135.34 195.391C122.4 198.242 111.901 199.684 104.593 199.684C100.768 199.684 97.8221 199.279 95.8689 198.485C95.2342 198.226 94.7133 197.934 94.3064 197.594L94.4041 197.481L94.7784 197.011C96.6665 198.566 101.208 199.214 107.881 198.874C114.961 198.517 124.158 197.108 135.193 194.678C175.282 185.85 226.895 166.249 250.236 150.989C253.751 148.64 256.193 146.713 257.902 145.125Z" fill="white"/>
<path d="M122.839 209.744C118.119 209.744 114.619 209.16 112.52 208.01L112.878 207.379C117.403 209.873 129.431 209.484 145.887 206.309C179.351 199.846 222.045 183.809 241.088 170.558C245.222 167.691 247.973 165.131 249.275 162.977L249.894 163.349C248.543 165.601 245.711 168.225 241.511 171.141C222.403 184.44 179.579 200.526 146.033 207.022C136.625 208.82 128.764 209.744 122.839 209.744Z" fill="white"/>
<path d="M158.859 70.9321C158.68 71.1265 158.534 71.3695 158.534 71.6287C158.534 72.2605 159.315 72.5682 159.933 72.6816C163.53 73.3296 167.062 73.0542 170.611 72.3252C175.429 71.3371 180.214 69.782 185.178 69.8144C187.831 69.8306 190.354 70.4785 192.942 70.9483C195.286 71.3695 197.63 71.4505 199.99 71.0779C204.564 70.3327 208.779 68.1621 212.637 65.6512C214.46 64.4686 216.299 63.2375 217.927 61.7796C219.278 60.5646 220.563 59.1715 221.312 57.4868C221.996 55.9641 222.093 54.2469 221.296 52.7404C220.287 50.8775 218.106 49.9542 216.055 49.8408C213.613 49.7112 211.302 50.7803 209.235 51.9629C207.021 53.2426 204.873 54.6519 202.659 55.9317C198.248 58.4749 193.691 60.8076 189.003 62.8001C181.662 65.9104 174.322 67.6113 166.493 68.9396C165.679 69.0854 164.588 69.1502 163.482 69.2798C161.691 69.539 159.836 69.8954 158.859 70.9321Z" fill="url(#paint8_linear)"/>
<path d="M143.494 81.6065C143.917 82.3517 144.845 82.6757 145.708 82.7728C148.1 83.0644 150.444 83.3884 152.886 83.1778C154.432 83.0482 155.962 82.7566 157.459 82.3031C158.192 82.0763 158.924 81.8171 159.64 81.5255C160.308 81.2501 160.975 80.9747 161.561 80.5536C162.424 79.9542 163.319 78.8203 162.538 77.7997C162.098 77.2165 161.301 77.0545 160.617 77.006C159.738 76.9412 158.827 77.0384 157.948 77.0869C154.253 77.3137 150.591 77.8321 146.977 78.6259C145.854 78.8689 143.25 79.3062 143.25 80.748C143.234 81.0071 143.315 81.2825 143.494 81.6065Z" fill="url(#paint9_linear)"/>
<path d="M73.7329 41.3496C63.3973 43.5041 17.823 73.5536 66.8642 72.0957C115.905 70.6377 100.247 54.1956 84.7521 57.0466C69.2568 59.8977 41.896 61.8902 68.2965 48.2019L73.7329 41.3496Z" fill="url(#paint10_linear)"/>
<path d="M73.7329 41.3496C63.3973 43.5041 17.823 73.5536 66.8642 72.0957C115.905 70.6377 100.247 54.1956 84.7521 57.0466C69.2568 59.8977 41.896 61.8902 68.2965 48.2019L73.7329 41.3496Z" fill="url(#paint11_linear)"/>
<path d="M32.4554 190.223L57.326 193.771V169.018L32.4554 165.471V190.223Z" fill="#43AEFC"/>
<path d="M73.8956 184.28L57.326 193.772V169.02L73.8956 159.527V184.28Z" fill="#037DD6"/>
<path d="M49.025 155.979L32.4554 165.455L57.326 169.019L73.8955 159.526L49.025 155.979Z" fill="#75C4FD"/>
<path d="M50.7468 185.922C53.8069 183.075 53.6351 177.943 50.3631 174.46C47.0911 170.977 41.958 170.461 38.8979 173.308C35.8379 176.155 36.0096 181.287 39.2816 184.77C42.5536 188.254 47.6867 188.769 50.7468 185.922Z" fill="white"/>
<path d="M44.8257 174.949C44.8257 177.525 42.726 179.339 40.1381 178.983C42.726 179.323 44.8257 181.704 44.8257 184.28C44.8257 181.704 46.9254 179.89 49.5133 180.246C46.9254 179.906 44.8257 177.525 44.8257 174.949Z" fill="#43AEFC"/>
<path d="M0 154.277L23.6335 157.646V134.125L0 130.756V154.277Z" fill="#43AEFC"/>
<path d="M39.373 148.64L23.6335 157.647V134.126L39.373 125.119V148.64Z" fill="#037DD6"/>
<path d="M15.7394 121.75L0 130.757L23.6335 134.126L39.373 125.119L15.7394 121.75Z" fill="#75C4FD"/>
<path d="M12.1423 145.987L11.4749 145.89C7.30813 145.29 3.92261 147.234 3.92261 150.247L19.6946 152.548C19.6946 149.518 16.3253 146.586 12.1423 145.987Z" fill="white"/>
<path d="M14.852 143.827C16.4123 142.383 16.3177 139.757 14.6406 137.962C12.9635 136.167 10.339 135.882 8.77863 137.325C7.21828 138.769 7.31292 141.395 8.99003 143.19C10.6671 144.986 13.2916 145.271 14.852 143.827Z" fill="white"/>
<path d="M89.2606 174.591L114.147 178.139V153.386L89.2606 149.822V174.591Z" fill="#43AEFC"/>
<path d="M130.717 168.647L114.148 178.14V153.387L130.717 143.895V168.647Z" fill="#037DD6"/>
<path d="M105.83 140.346L89.2606 149.822L114.147 153.386L130.717 143.893L105.83 140.346Z" fill="#75C4FD"/>
<path d="M104.284 158.244L99.1243 157.532C95.9178 157.094 93.3298 159.313 93.3298 162.505V165.874V166.49C93.3298 167.931 94.5017 169.26 95.9503 169.47C97.399 169.665 98.5709 168.66 98.5709 167.219V166.603L104.821 167.462V168.077C104.821 169.519 105.993 170.847 107.442 171.058C108.89 171.252 110.062 170.248 110.062 168.806V168.191V164.821C110.078 161.63 107.49 158.682 104.284 158.244Z" fill="white"/>
<path d="M97.9687 163.995L96.7317 163.817V159.67L97.9687 159.848V163.995Z" fill="#43AEFC"/>
<path d="M99.4337 162.732L95.2668 162.165V160.934L99.4337 161.501V162.732Z" fill="#43AEFC"/>
<path d="M108.535 163.826C108.791 163.588 108.78 163.162 108.511 162.874C108.241 162.586 107.814 162.546 107.558 162.784C107.302 163.022 107.313 163.448 107.583 163.736C107.852 164.024 108.279 164.064 108.535 163.826Z" fill="#43AEFC"/>
<path d="M105.729 163.447C105.985 163.209 105.974 162.783 105.704 162.495C105.434 162.207 105.008 162.167 104.751 162.405C104.495 162.643 104.506 163.069 104.776 163.357C105.046 163.645 105.472 163.685 105.729 163.447Z" fill="#43AEFC"/>
<path d="M107.201 162.199C107.458 161.961 107.447 161.535 107.177 161.247C106.907 160.959 106.48 160.919 106.224 161.157C105.968 161.395 105.979 161.821 106.249 162.109C106.518 162.397 106.945 162.437 107.201 162.199Z" fill="#43AEFC"/>
<path d="M107.204 165.082C107.46 164.844 107.449 164.417 107.179 164.13C106.909 163.842 106.483 163.802 106.226 164.04C105.97 164.278 105.981 164.704 106.251 164.992C106.521 165.28 106.947 165.32 107.204 165.082Z" fill="#43AEFC"/>
<path d="M101.126 164.885L100.101 164.739C99.9707 164.723 99.873 164.609 99.873 164.48C99.873 164.35 99.9707 164.269 100.101 164.285L101.126 164.431C101.257 164.447 101.354 164.561 101.354 164.69C101.354 164.804 101.257 164.901 101.126 164.885Z" fill="#43AEFC"/>
<path d="M103.844 165.258L102.819 165.112C102.689 165.096 102.591 164.982 102.591 164.853C102.591 164.723 102.689 164.642 102.819 164.658L103.844 164.804C103.975 164.82 104.072 164.934 104.072 165.063C104.072 165.177 103.975 165.274 103.844 165.258Z" fill="#43AEFC"/>
<path d="M186.285 150.275L175.657 156.706V128.795L186.285 122.283V150.275Z" fill="#037DD6"/>
<path d="M157.443 122.283L145.252 128.795H175.657L186.285 122.283H157.443Z" fill="#75C4FD"/>
<path d="M175.64 128.797H145.252V156.821H175.64V128.797Z" fill="#43AEFC"/>
<path d="M155.522 135.68V149.465L166.867 142.564L155.522 135.68Z" fill="white"/>
<path d="M243.448 160.104L218.578 163.668V138.899L243.448 135.352V160.104Z" fill="#037DD6"/>
<path d="M202.008 154.178L218.578 163.671V138.902L202.008 129.426V154.178Z" fill="#43AEFC"/>
<path d="M226.879 125.861L243.448 135.354L218.578 138.902L202.008 129.425L226.879 125.861Z" fill="#75C4FD"/>
<path d="M235.57 155.491L224.567 150.728L235.57 142.143L236.237 143.115L227.041 150.291L236.237 154.276L235.57 155.491Z" fill="white"/>
<path d="M237.51 144.091C238.482 143.036 238.55 141.524 237.662 140.714C236.774 139.904 235.266 140.102 234.294 141.158C233.322 142.213 233.254 143.725 234.142 144.535C235.03 145.345 236.538 145.146 237.51 144.091Z" fill="white"/>
<path d="M237.509 156.419C238.481 155.364 238.549 153.852 237.661 153.042C236.773 152.232 235.265 152.43 234.293 153.486C233.321 154.541 233.253 156.053 234.141 156.863C235.029 157.673 236.537 157.474 237.509 156.419Z" fill="white"/>
<path d="M227.011 152.044C227.983 150.989 228.051 149.477 227.163 148.667C226.275 147.857 224.767 148.055 223.795 149.111C222.823 150.166 222.755 151.678 223.643 152.488C224.531 153.298 226.039 153.1 227.011 152.044Z" fill="white"/>
<path d="M260.457 165.343C259.106 169.004 255.965 171.741 252.563 173.539C248.38 175.743 243.546 176.439 238.923 177.168C234.138 177.929 228.653 180.894 224.03 182.336C219.392 183.777 214.867 185.592 210.521 187.73C208.812 188.572 207.168 189.641 205.231 189.901C203.489 190.144 201.634 189.544 201.015 187.762C200.706 186.92 201.015 184.62 204.645 182.903C209.788 180.473 213.158 179.209 218.675 177.735C218.724 177.719 218.773 177.703 218.822 177.686C221.524 176.65 224.226 175.613 226.928 174.592C231.566 172.827 236.319 171.255 240.812 169.133C242.244 168.453 243.611 167.692 244.897 166.817C244.929 166.801 244.946 166.784 244.978 166.768C246.004 166.12 247.664 164.549 248.934 163.302C250.057 162.2 251.001 160.937 251.733 159.543C252.335 158.409 253.052 157.033 253.507 156.109C253.556 156.077 253.605 156.044 253.654 156.012C254.549 155.542 255.591 155.38 256.665 155.591C261.19 156.498 261.808 161.698 260.457 165.343Z" fill="url(#paint12_linear)"/>
<path d="M204.645 192.542C203.831 191.133 202.187 191.57 200.934 192.024C200.397 192.218 199.876 192.429 199.355 192.672C197.516 193.141 195.791 193.968 194.212 195.069C193.203 195.766 191.852 196.9 192.747 198.228C193.382 199.168 194.716 199.2 195.725 198.973C197.158 198.665 198.59 198.179 199.957 197.645C201.243 197.143 202.708 196.657 203.799 195.782C204.759 195.037 205.312 193.692 204.645 192.542Z" fill="url(#paint13_linear)"/>
<path d="M205.198 3.34828C203.473 1.63116 200.771 0.869802 198.46 1.01559C197.565 1.08039 196.474 1.38818 196.035 2.45732C194.944 5.21118 198.151 5.21119 197.76 7.62486C197.614 8.54822 197.028 9.32578 196.425 9.95755C191.77 14.7687 185.927 16.0646 180.214 17.9275C179.937 18.0085 179.66 18.1057 179.384 18.1867C179.351 18.2029 179.319 18.2029 179.302 18.2191C177.089 19.0615 173.996 19.5799 172.792 22.2851C171.425 25.363 173.134 28.4894 175.429 29.7368C177.984 31.1299 181.093 31.0165 183.925 30.5143C186.383 30.0931 188.84 29.3318 191.184 28.2302C198.069 25.0552 214.883 13.0192 205.198 3.34828Z" fill="url(#paint14_linear)"/>
<path d="M191.51 4.98422C190.24 2.27896 186.041 2.44095 183.762 3.57489C182.232 4.33626 180.588 5.79418 180.133 7.5275C179.319 8.74244 179.01 10.087 179.84 11.3991C181.402 13.8614 184.788 13.019 187.099 11.7717C189.882 10.7835 192.877 7.90008 191.51 4.98422Z" fill="url(#paint15_linear)"/>
<path d="M106.367 102.084L108.727 101.857L107.8 99.3945L106.107 99.5565L106.367 102.084Z" fill="#B77B6A"/>
<path d="M107.556 93.7065C108.174 93.9657 108.711 94.727 109.102 95.2778C109.492 95.8286 109.785 96.4279 110.078 97.0273C110.29 97.4809 110.485 97.9669 110.436 98.469C110.388 99.0846 109.964 99.6192 109.444 99.9431C108.19 100.721 106.416 100.283 105.488 99.1494C104.593 98.0479 104.561 96.6061 104.805 95.2778C105.033 94.079 106.449 93.2367 107.556 93.7065Z" fill="#B77B6A"/>
<path d="M105.407 100.673C106.302 101.273 106.514 100.139 106.351 99.1182C106.644 98.2596 105.488 97.3687 106.286 96.6235C106.644 96.3319 107.116 96.2185 107.474 95.9269C107.832 95.6354 108.174 94.6796 108.174 94.2098C108.5 94.5986 108.874 95.36 109.313 95.6192C109.183 94.6472 108.597 93.6914 107.718 93.2541C106.839 92.8005 105.749 92.8167 104.886 93.2703C104.268 93.5942 103.763 94.1288 103.161 94.469C102.689 94.7282 102.135 94.874 101.598 94.874C100.898 94.874 100.182 94.6472 99.4987 94.7444C98.7174 94.8578 98.0501 95.3762 97.2851 95.6354C96.5038 95.8945 95.6248 95.8783 94.8761 95.5706C94.4041 96.6073 94.5669 97.8871 95.1203 98.8752C95.8527 100.171 97.3502 100.981 97.8059 102.39C98.0663 103.2 97.9524 104.14 98.3593 104.901C98.7499 105.63 99.515 106.035 100.264 106.392L105.407 100.673Z" fill="#2E3446"/>
<path d="M106.091 99.1671L106.595 99.0699L106.367 98.1303C106.27 97.7415 105.863 97.4986 105.472 97.612L105.407 97.6282C105.017 97.7254 104.854 98.1951 105.098 98.5191L105.342 98.8593C105.505 99.1023 105.798 99.2157 106.091 99.1671Z" fill="#B77B6A"/>
<path d="M109.737 97.6602C109.737 97.6602 108.874 98.5187 108.386 98.3891C108.386 98.3891 109.102 99.1991 109.802 98.3243L109.737 97.6602Z" fill="white"/>
<path d="M120.398 96.2342C120.609 95.9103 120.707 95.3595 120.74 95.1489C120.772 94.9383 120.853 94.5657 121.277 94.2903C121.7 94.0149 121.521 94.3551 121.472 94.5819C121.423 94.8087 121.635 95.0679 121.586 95.3757C121.537 95.6835 121.13 96.461 120.805 96.5744C120.479 96.6878 120.398 96.2342 120.398 96.2342Z" fill="#E88F97"/>
<path d="M121.212 95.0534C121.619 94.6971 122.27 94.0653 122.742 93.7251C123.409 93.2391 123.328 93.5145 122.839 94.1301C122.53 94.5189 122.318 94.8105 122.318 94.8105L122.416 94.8591C122.416 94.8591 122.79 94.6161 123.132 94.3893C123.474 94.1625 123.718 94.0653 123.946 94.0167C124.174 93.9681 124.076 94.6647 124.011 95.0048C123.946 95.345 123.067 96.4628 122.839 96.5924C122.611 96.7219 122.4 96.8677 121.684 97.0459C120.74 97.4509 120.512 96.56 120.512 96.56L121.212 95.0534Z" fill="#E88F97"/>
<path d="M108.955 101.758L109.232 100.705L107.946 100.77L108.955 101.758Z" fill="#FFD33D"/>
<path d="M92.337 104.577C92.337 104.577 92.1254 104.787 92.0603 104.933C91.9952 105.079 91.9952 105.727 91.6697 105.889C91.3279 106.051 90.921 106.116 90.7908 106.116C90.6605 106.116 90.4978 105.921 90.4327 105.889C90.3676 105.857 89.9932 106.002 89.7165 105.776C89.4398 105.549 89.4724 105.079 89.57 104.48C89.6677 103.88 89.6514 103.702 90.2862 103.427C90.921 103.151 91.9627 102.795 91.9627 102.795L92.337 104.577Z" fill="#E88F97"/>
<path d="M106.611 102.36L109.037 102.117L108.093 99.5898L106.351 99.768L106.611 102.36Z" fill="#E88F97"/>
<path d="M107.832 93.7401C108.467 94.0154 109.02 94.793 109.427 95.36C109.818 95.927 110.127 96.5263 110.42 97.1581C110.648 97.6279 110.843 98.13 110.794 98.6322C110.729 99.264 110.306 99.8148 109.769 100.155C108.483 100.949 106.66 100.511 105.7 99.345C104.772 98.211 104.756 96.7369 105 95.36C105.244 94.1288 106.709 93.2541 107.832 93.7401Z" fill="#E88F97"/>
<path d="M105.358 101.5L106.351 101.37C107.279 101.986 106.758 100.35 106.595 99.3129C106.904 98.4381 105.7 97.5148 106.53 96.7534C106.888 96.4456 107.376 96.3323 107.751 96.0407C108.125 95.7491 108.467 94.7447 108.483 94.275C108.809 94.6799 109.199 95.4575 109.655 95.7329C109.525 94.7447 108.923 93.7566 108.011 93.303C107.116 92.8494 105.993 92.8495 105.098 93.3192C105.016 93.3678 104.951 93.4002 104.886 93.4488C104.886 93.4488 104.87 93.4488 104.87 93.465C102.721 94.9553 101.289 99.7179 105.358 101.5Z" fill="#2E3446"/>
<path d="M106.335 99.3459L106.856 99.2487L106.612 98.2929C106.514 97.888 106.107 97.645 105.7 97.7584L105.635 97.7746C105.228 97.888 105.065 98.3577 105.309 98.6979L105.57 99.0381C105.733 99.2811 106.042 99.4107 106.335 99.3459Z" fill="#E88F97"/>
<path d="M110.078 97.8066C110.078 97.8066 109.199 98.6976 108.679 98.5518C108.679 98.5518 109.427 99.3942 110.143 98.487L110.078 97.8066Z" fill="white"/>
<path fill-rule="evenodd" clip-rule="evenodd" d="M91.436 102.978C97.5433 99.9735 104.374 101.136 108.224 101.964L107.831 103.792C103.998 102.968 97.7427 101.959 92.2611 104.657L91.436 102.978Z" fill="#FFD33D"/>
<path fill-rule="evenodd" clip-rule="evenodd" d="M110.899 103.75C109.977 103.724 109.093 103.7 108.132 103.808L107.923 101.949C109.024 101.826 110.049 101.855 110.965 101.881C111.108 101.885 111.247 101.889 111.384 101.892C112.427 101.917 113.33 101.906 114.234 101.68C115.972 101.245 117.968 99.9428 120.668 95.7168L122.243 96.7241C119.426 101.132 117.092 102.892 114.688 103.494C113.52 103.786 112.399 103.787 111.339 103.761C111.191 103.758 111.045 103.754 110.899 103.75Z" fill="#FFD33D"/>
<path d="M108.744 101.324C108.744 101.324 116.101 112.032 112.731 123.793C112.731 123.793 98.1476 127.113 91.1487 110.104L106.351 101.373L108.744 101.324Z" fill="#FFD33D"/>
<path d="M115.401 134.286C115.401 134.286 114.066 139.745 114.05 141.09C114.033 142.435 116.442 146.501 116.442 146.501L109.997 143.228L111.738 133.979L115.401 134.286Z" fill="#FFD33D"/>
<path d="M105.309 109.553L106.986 110.881C114.587 116.891 118.119 126.789 116.003 136.087L110.078 134.629C111.315 129.251 111.918 121.637 105.667 115.692L104.496 114.623C103.535 113.732 103.275 112.307 103.893 111.156L105.309 109.553Z" fill="#2E3446"/>
<path d="M85.5984 115.883C85.5984 115.883 81.7734 111.752 80.6341 110.991C79.4947 110.229 74.7908 109.986 74.7908 109.986L81.1061 106.455L87.8934 113.016L85.5984 115.883Z" fill="#FFD33D"/>
<path d="M103.877 111.154C103.844 111.203 101.322 116.306 96.3572 116.387C93.932 116.419 91.0348 114.394 88.87 111.786L84.1824 115.625C87.2749 119.335 90.8232 121.182 94.697 121.117C99.7102 121.036 103.844 117.683 105.96 115.577C107.653 113.957 108.5 111.835 108.5 111.835L103.877 111.154Z" fill="#2E3446"/>
<path d="M108.321 101.596C108.321 101.596 111.722 109.371 110.323 114.053L103.177 112.125L108.321 101.596Z" fill="#F66A0A"/>
<path d="M99.2218 96.4452C99.6287 94.5985 102.721 94.9224 104.658 96.6233L104.577 98.7616C99.7427 100.868 98.7986 98.2919 99.2218 96.4452Z" fill="#2E3446"/>
<path d="M108.321 101.596C108.304 101.563 107.653 100.219 107.653 100.219L106.107 100.721L106.302 101.612L108.321 101.596Z" fill="#FFD33D"/>
<path d="M108.386 102.325C108.7 102.325 108.955 102.071 108.955 101.758C108.955 101.445 108.7 101.191 108.386 101.191C108.071 101.191 107.816 101.445 107.816 101.758C107.816 102.071 108.071 102.325 108.386 102.325Z" fill="#2E3446"/>
<path d="M299.342 139.878L272.176 143.75V116.73L299.342 112.842V139.878Z" fill="#037DD6"/>
<path d="M254.093 133.382L272.176 143.749V116.729L254.093 106.361V133.382Z" fill="#43AEFC"/>
<path d="M281.242 102.488L299.342 112.84L272.176 116.727L254.093 106.36L281.242 102.488Z" fill="#75C4FD"/>
<path d="M285.751 119.043C282.17 119.545 279.257 122.833 279.257 126.397C279.257 129.961 285.751 137.542 285.751 137.542C285.751 137.542 292.245 128.163 292.245 124.599C292.245 121.035 289.348 118.541 285.751 119.043ZM285.751 127.564C284.221 127.774 282.984 126.721 282.984 125.198C282.984 123.676 284.221 122.266 285.751 122.056C287.281 121.845 288.518 122.898 288.518 124.421C288.518 125.944 287.281 127.337 285.751 127.564Z" fill="white"/>
<path d="M130.701 191.148C129.382 190.921 128.145 191.342 126.908 191.747C125.313 192.282 123.702 192.735 122.074 193.124C118.9 193.885 115.645 194.258 112.389 194.404C108.695 194.566 104.967 194.42 101.305 193.95C98.6194 193.61 95.9338 193.302 93.5411 194.404C92.5971 194.76 91.767 195.295 91.5554 196.283C91.3763 197.158 91.8158 197.951 92.5971 198.356C93.0528 198.583 93.5574 198.664 94.0131 198.907C94.2898 199.053 94.4689 199.312 94.5177 199.604C94.5503 199.749 94.5828 199.879 94.6317 200.009C94.9409 200.867 95.6896 201.531 96.4709 201.953C98.831 203.248 101.842 202.989 104.43 202.811C110.225 202.422 115.921 201.548 121.537 200.073C123.181 199.636 124.808 199.166 126.42 198.632C127.868 198.146 129.447 197.692 130.798 196.963C131.954 196.331 133.109 195.23 133.109 193.837C133.093 192.46 132.019 191.374 130.701 191.148Z" fill="url(#paint16_linear)"/>
<path d="M83.2544 182.497C81.5129 181.865 79.5597 181.266 77.6065 181.039C77.2321 180.991 76.8415 181.039 76.5159 181.217C76.3044 181.331 76.109 181.493 75.9625 181.72C75.7835 181.995 75.6696 182.303 75.6045 182.627C75.5882 184.943 77.8018 186.822 79.5922 188.134C80.7153 188.961 81.9686 189.852 83.3684 190.078C84.1334 190.208 85.0611 190.078 85.6471 189.576C86.7376 189.155 87.9747 188.588 88.4467 187.454C89.6186 184.635 85.1262 183.178 83.2544 182.497Z" fill="url(#paint17_linear)"/>
<path d="M115.238 207.037C115.157 206.762 114.977 206.584 114.717 206.47C114.701 206.454 114.685 206.438 114.652 206.422C114.554 206.373 114.457 206.324 114.359 206.292C114.278 206.179 114.131 206.098 113.952 206.098C112.894 206.098 111.136 205.903 110.355 206.81C109.997 207.232 109.997 207.863 110.42 208.252C110.876 208.657 111.608 208.673 112.178 208.657C112.975 208.608 115.629 208.317 115.238 207.037Z" fill="url(#paint18_linear)"/>
<path d="M283 41.676C283.98 41.676 284.774 40.8854 284.774 39.9102C284.774 38.9351 283.98 38.1445 283 38.1445C282.02 38.1445 281.226 38.9351 281.226 39.9102C281.226 40.8854 282.02 41.676 283 41.676Z" fill="url(#paint19_linear)"/>
<path d="M44.8908 143.91C45.8707 143.91 46.665 143.12 46.665 142.145C46.665 141.169 45.8707 140.379 44.8908 140.379C43.911 140.379 43.1167 141.169 43.1167 142.145C43.1167 143.12 43.911 143.91 44.8908 143.91Z" fill="url(#paint20_linear)"/>
<path d="M153.374 180.826C154.354 180.826 155.148 180.036 155.148 179.061C155.148 178.085 154.354 177.295 153.374 177.295C152.394 177.295 151.6 178.085 151.6 179.061C151.6 180.036 152.394 180.826 153.374 180.826Z" fill="url(#paint21_linear)"/>
<path d="M16.3579 168.92C17.3377 168.92 18.132 168.13 18.132 167.154C18.132 166.179 17.3377 165.389 16.3579 165.389C15.3781 165.389 14.5837 166.179 14.5837 167.154C14.5837 168.13 15.3781 168.92 16.3579 168.92Z" fill="url(#paint22_linear)"/>
<path d="M267.961 97.9865C268.941 97.9865 269.735 97.196 269.735 96.2208C269.735 95.2456 268.941 94.4551 267.961 94.4551C266.981 94.4551 266.187 95.2456 266.187 96.2208C266.187 97.196 266.981 97.9865 267.961 97.9865Z" fill="url(#paint23_linear)"/>
<path d="M263.908 147.15C264.888 147.15 265.682 146.36 265.682 145.385C265.682 144.41 264.888 143.619 263.908 143.619C262.928 143.619 262.134 144.41 262.134 145.385C262.134 146.36 262.928 147.15 263.908 147.15Z" fill="url(#paint24_linear)"/>
<path d="M315 92.1654L289.218 95.8588V70.1831L315 66.5059V92.1654Z" fill="#037DD6"/>
<path d="M272.03 86.0117L289.218 95.8608V70.185L272.03 60.3359V86.0117Z" fill="#43AEFC"/>
<path d="M297.828 56.6582L315 66.4911L289.218 70.1845L272.03 60.3354L297.828 56.6582Z" fill="#75C4FD"/>
<path d="M307.659 81.3957C307.692 81.1527 307.708 80.8935 307.708 80.6505C307.708 80.3913 307.692 80.1484 307.643 79.9054L309.271 78.415C309.417 78.2854 309.45 78.0587 309.368 77.9129L307.838 75.483C307.741 75.321 307.545 75.2886 307.366 75.3858L305.462 76.4225C305.055 76.1795 304.632 75.9852 304.16 75.8556L303.867 73.8631C303.834 73.6687 303.671 73.5715 303.476 73.5877L300.4 74.0251C300.205 74.0575 300.058 74.2032 300.026 74.3976L299.733 76.4711C299.261 76.7303 298.837 77.0543 298.43 77.3945L296.526 76.9085C296.347 76.8599 296.152 76.9571 296.054 77.1515L294.524 80.0188C294.426 80.1969 294.459 80.4075 294.622 80.4885L296.249 81.5253C296.217 81.7683 296.184 82.0275 296.184 82.2866C296.184 82.5458 296.201 82.7888 296.249 83.0318L294.622 84.5221C294.475 84.6517 294.443 84.8785 294.524 85.0243L296.054 87.4542C296.152 87.6162 296.347 87.6486 296.526 87.5514L298.43 86.5146C298.837 86.7576 299.261 86.952 299.733 87.0816L300.026 89.0741C300.058 89.2523 300.221 89.3657 300.416 89.3495L303.492 88.9121C303.688 88.8797 303.85 88.7339 303.867 88.5395L304.16 86.466C304.632 86.2068 305.055 85.8829 305.462 85.5427L307.366 86.0287C307.545 86.0773 307.741 85.9801 307.838 85.7857L309.368 82.9184C309.466 82.7402 309.433 82.5296 309.271 82.4486L307.659 81.3957ZM301.93 84.3277C300.351 84.5545 299.049 83.453 299.049 81.8655C299.049 80.2779 300.351 78.82 301.93 78.5932C303.509 78.3664 304.811 79.468 304.811 81.0555C304.811 82.643 303.525 84.101 301.93 84.3277Z" fill="white"/>
<defs>
<linearGradient id="paint0_linear" x1="153.302" y1="103.529" x2="213.561" y2="232.975" gradientUnits="userSpaceOnUse">
<stop offset="0.0101602" stop-color="#F2F2F2"/>
<stop offset="0.9999" stop-color="#CCCCCC"/>
</linearGradient>
<linearGradient id="paint1_linear" x1="85.2651" y1="51.1845" x2="195.276" y2="288.39" gradientUnits="userSpaceOnUse">
<stop stop-color="#E6E6E6"/>
<stop offset="1" stop-color="#808080"/>
</linearGradient>
<linearGradient id="paint2_linear" x1="40.1345" y1="72.1156" x2="150.146" y2="309.321" gradientUnits="userSpaceOnUse">
<stop stop-color="#E6E6E6"/>
<stop offset="1" stop-color="#808080"/>
</linearGradient>
<linearGradient id="paint3_linear" x1="158.632" y1="181.499" x2="214.499" y2="217.173" gradientUnits="userSpaceOnUse">
<stop stop-color="#E6E6E6"/>
<stop offset="1" stop-color="#808080"/>
</linearGradient>
<linearGradient id="paint4_linear" x1="160.988" y1="16.0652" x2="270.999" y2="253.271" gradientUnits="userSpaceOnUse">
<stop stop-color="#E6E6E6"/>
<stop offset="1" stop-color="#808080"/>
</linearGradient>
<linearGradient id="paint5_linear" x1="187.619" y1="3.71281" x2="297.63" y2="240.918" gradientUnits="userSpaceOnUse">
<stop stop-color="#E6E6E6"/>
<stop offset="1" stop-color="#808080"/>
</linearGradient>
<linearGradient id="paint6_linear" x1="208.402" y1="-5.92258" x2="318.413" y2="231.283" gradientUnits="userSpaceOnUse">
<stop stop-color="#E6E6E6"/>
<stop offset="1" stop-color="#808080"/>
</linearGradient>
<linearGradient id="paint7_linear" x1="44.1431" y1="126.693" x2="259.883" y2="50.6456" gradientUnits="userSpaceOnUse">
<stop stop-color="white"/>
<stop offset="1" stop-color="white" stop-opacity="0"/>
</linearGradient>
<linearGradient id="paint8_linear" x1="135.507" y1="61.459" x2="234.65" y2="61.459" gradientUnits="userSpaceOnUse">
<stop stop-color="#FFE566"/>
<stop offset="1" stop-color="#FFB0EB"/>
</linearGradient>
<linearGradient id="paint9_linear" x1="135.507" y1="80.109" x2="234.65" y2="80.109" gradientUnits="userSpaceOnUse">
<stop stop-color="#FFE566"/>
<stop offset="1" stop-color="#FFB0EB"/>
</linearGradient>
<linearGradient id="paint10_linear" x1="72.3651" y1="63.4603" x2="78.5247" y2="38.7043" gradientUnits="userSpaceOnUse">
<stop stop-color="#FFE566"/>
<stop offset="1" stop-color="#FFB0EB"/>
</linearGradient>
<linearGradient id="paint11_linear" x1="72.3651" y1="63.4603" x2="78.5247" y2="38.7043" gradientUnits="userSpaceOnUse">
<stop stop-color="#FFE566"/>
<stop offset="1" stop-color="#FFB0EB"/>
</linearGradient>
<linearGradient id="paint12_linear" x1="285.581" y1="141.785" x2="221.499" y2="183.144" gradientUnits="userSpaceOnUse">
<stop stop-color="#FFE566"/>
<stop offset="1" stop-color="#FFB0EB"/>
</linearGradient>
<linearGradient id="paint13_linear" x1="61.6461" y1="229.647" x2="160.892" y2="204.605" gradientUnits="userSpaceOnUse">
<stop stop-color="#FFE566"/>
<stop offset="1" stop-color="#FFB0EB"/>
</linearGradient>
<linearGradient id="paint14_linear" x1="62.9474" y1="65.5033" x2="216.321" y2="5.69293" gradientUnits="userSpaceOnUse">
<stop stop-color="#FFE566"/>
<stop offset="1" stop-color="#FFB0EB"/>
</linearGradient>
<linearGradient id="paint15_linear" x1="59.3936" y1="56.389" x2="212.767" y2="-3.42118" gradientUnits="userSpaceOnUse">
<stop stop-color="#FFE566"/>
<stop offset="1" stop-color="#FFB0EB"/>
</linearGradient>
<linearGradient id="paint16_linear" x1="56.6617" y1="209.89" x2="155.907" y2="184.848" gradientUnits="userSpaceOnUse">
<stop stop-color="#FFE566"/>
<stop offset="1" stop-color="#FFB0EB"/>
</linearGradient>
<linearGradient id="paint17_linear" x1="52.3141" y1="192.659" x2="151.56" y2="167.617" gradientUnits="userSpaceOnUse">
<stop stop-color="#FFE566"/>
<stop offset="1" stop-color="#FFB0EB"/>
</linearGradient>
<linearGradient id="paint18_linear" x1="59.3704" y1="220.623" x2="158.616" y2="195.581" gradientUnits="userSpaceOnUse">
<stop stop-color="#FFE566"/>
<stop offset="1" stop-color="#FFB0EB"/>
</linearGradient>
<linearGradient id="paint19_linear" x1="281.212" y1="39.9073" x2="284.774" y2="39.9073" gradientUnits="userSpaceOnUse">
<stop stop-color="#75C4FD"/>
<stop offset="1" stop-color="#75C4FD"/>
</linearGradient>
<linearGradient id="paint20_linear" x1="43.1167" y1="142.138" x2="46.6789" y2="142.138" gradientUnits="userSpaceOnUse">
<stop stop-color="#75C4FD"/>
<stop offset="1" stop-color="#75C4FD"/>
</linearGradient>
<linearGradient id="paint21_linear" x1="151.596" y1="179.058" x2="155.159" y2="179.058" gradientUnits="userSpaceOnUse">
<stop stop-color="#75C4FD"/>
<stop offset="1" stop-color="#75C4FD"/>
</linearGradient>
<linearGradient id="paint22_linear" x1="14.5696" y1="167.158" x2="18.1318" y2="167.158" gradientUnits="userSpaceOnUse">
<stop stop-color="#75C4FD"/>
<stop offset="1" stop-color="#75C4FD"/>
</linearGradient>
<linearGradient id="paint23_linear" x1="266.183" y1="96.2203" x2="269.745" y2="96.2203" gradientUnits="userSpaceOnUse">
<stop stop-color="#75C4FD"/>
<stop offset="1" stop-color="#75C4FD"/>
</linearGradient>
<linearGradient id="paint24_linear" x1="262.12" y1="145.382" x2="265.683" y2="145.382" gradientUnits="userSpaceOnUse">
<stop stop-color="#75C4FD"/>
<stop offset="1" stop-color="#75C4FD"/>
</linearGradient>
</defs>
</svg>
