<svg width="301" height="179" viewBox="0 0 301 179" fill="none" xmlns="http://www.w3.org/2000/svg">
<g clip-path="url(#clip0_13105_112708)">
<g filter="url(#filter0_d_13105_112708)">
<path d="M280.222 43.4746H20.7817C18.9962 43.4746 17.5488 44.922 17.5488 46.7075V131.571C17.5488 133.357 18.9962 134.804 20.7817 134.804H280.222C282.008 134.804 283.455 133.357 283.455 131.571V46.7075C283.455 44.922 282.008 43.4746 280.222 43.4746Z" fill="#FF5C16"/>
</g>
<g clip-path="url(#clip1_13105_112708)">
<mask id="path-3-inside-1_13105_112708" fill="white">
<path d="M56.1797 54.1104H244.853V109.901H56.1797V54.1104Z"/>
</mask>
<path d="M56.1797 54.1104H244.853V109.901H56.1797V54.1104Z" fill="#353535"/>
<path d="M244.853 109.901V109.582H56.1797V109.901V110.219H244.853V109.901Z" fill="#B1B1B1" mask="url(#path-3-inside-1_13105_112708)"/>
<rect x="-152.742" y="109.9" width="397.637" height="97.8266" fill="#5C5C5C"/>
<circle cx="227.694" cy="75.7899" r="2.01837" fill="#F7F9FC"/>
<circle cx="227.694" cy="82.8533" r="2.01837" fill="#F7F9FC"/>
<circle cx="227.694" cy="89.9188" r="2.01837" fill="#F7F9FC"/>
<rect x="-126.797" y="67.7588" width="277.049" height="30.1913" rx="15.0956" fill="#131313"/>
<g opacity="0.5">
<path d="M128.008 87.6711L130.806 85.984L133.603 87.6933L132.87 84.4966L135.334 82.3654L132.093 82.0769L130.806 79.0577L129.518 82.0547L126.277 82.3432L128.741 84.4966L128.008 87.6711ZM125.322 91.3784L126.765 85.1404L121.926 80.9447L128.319 80.3897L130.806 74.5068L133.292 80.3897L139.685 80.9447L134.846 85.1404L136.289 91.3784L130.806 88.0707L125.322 91.3784Z" fill="#F7F9FC"/>
</g>
<rect x="168.104" y="64.1416" width="37.4263" height="37.4263" rx="4.77782" fill="#F7F9FC"/>
<path d="M199.151 95.522L193.037 93.7125L188.425 96.452L185.208 96.4506L180.594 93.7125L174.482 95.522L172.623 89.2847L174.482 82.3623L172.623 76.5096L174.482 69.2559L184.033 74.9263H189.601L199.151 69.2559L201.01 76.5096L199.151 82.3623L201.01 89.2847L199.151 95.522Z" fill="#FF5C16"/>
<path d="M174.484 69.2559L184.035 74.9303L183.655 78.8246L174.484 69.2559Z" fill="#FF5C16"/>
<path d="M180.598 89.2881L184.8 92.4692L180.598 93.7132V89.2881Z" fill="#FF5C16"/>
<path d="M184.462 84.028L183.655 78.8271L178.485 82.3635L178.482 82.3622V82.3649L178.498 86.005L180.595 84.028H180.596H184.462Z" fill="#FF5C16"/>
<path d="M199.152 69.2559L189.602 74.9303L189.98 78.8246L199.152 69.2559Z" fill="#FF5C16"/>
<path d="M193.04 89.2881L188.838 92.4692L193.04 93.7132V89.2881Z" fill="#FF5C16"/>
<path d="M195.152 82.3649H195.154H195.152V82.3622L195.151 82.3635L189.981 78.8271L189.174 84.028H193.04L195.138 86.005L195.152 82.3649Z" fill="#FF5C16"/>
<path d="M180.594 93.7123L174.482 95.5217L172.623 89.2871H180.594V93.7123Z" fill="#FF5C16"/>
<path d="M184.461 84.0264L185.629 91.5449L184.011 87.3645L178.496 86.0048L180.594 84.0264H184.46H184.461Z" fill="#FF5C16"/>
<path d="M193.039 93.7123L199.151 95.5217L201.01 89.2871H193.039V93.7123Z" fill="#FF5C16"/>
<path d="M189.173 84.0264L188.006 91.5449L189.624 87.3645L195.139 86.0048L193.04 84.0264H189.173Z" fill="#FF5C16"/>
<path d="M172.623 89.2847L174.482 82.3623H178.48L178.495 86.0038L184.01 87.3635L185.628 91.5439L184.796 92.4646L180.594 89.2834H172.623V89.2847Z" fill="#FF8D5D"/>
<path d="M201.011 89.2847L199.152 82.3623H195.153L195.139 86.0038L189.624 87.3635L188.006 91.5439L188.837 92.4646L193.04 89.2834H201.011V89.2847Z" fill="#FF8D5D"/>
<path d="M189.601 74.9268H186.817H184.033L183.654 78.821L185.628 91.5403H188.006L189.981 78.821L189.601 74.9268Z" fill="#FF8D5D"/>
<path d="M174.482 69.2559L172.623 76.5096L174.482 82.3623H178.48L183.653 78.8246L174.482 69.2559Z" fill="#661800"/>
<path d="M183.148 85.1471H180.947L179.748 86.3145L184.006 87.3639L183.148 85.1455V85.1471Z" fill="#661800"/>
<path d="M199.151 69.2559L201.01 76.5096L199.151 82.3623H195.153L189.98 78.8246L199.151 69.2559Z" fill="#661800"/>
<path d="M190.478 85.1471H192.68L193.877 86.3148L189.619 87.3646L190.478 85.1455V85.1471Z" fill="#661800"/>
<path d="M188.424 93.971L188.837 92.4676L188.005 91.5469H185.627L184.795 92.4676L185.208 93.971" fill="#661800"/>
<path d="M188.425 93.9707V96.4534H185.209V93.9707H188.425Z" fill="#E7EBF6"/>
<path d="M180.594 93.7098L185.209 96.4519V93.9693L184.796 92.4658L180.594 93.7098Z" fill="#E7EBF6"/>
<path d="M193.037 93.7098L188.422 96.4519V93.9693L188.835 92.4658L193.037 93.7098Z" fill="#E7EBF6"/>
</g>
</g>
<defs>
<filter id="filter0_d_13105_112708" x="7.446" y="34.9882" width="286.112" height="111.536" filterUnits="userSpaceOnUse" color-interpolation-filters="sRGB">
<feFlood flood-opacity="0" result="BackgroundImageFix"/>
<feColorMatrix in="SourceAlpha" type="matrix" values="0 0 0 0 0 0 0 0 0 0 0 0 0 0 0 0 0 0 127 0" result="hardAlpha"/>
<feOffset dy="1.61645"/>
<feGaussianBlur stdDeviation="5.05142"/>
<feComposite in2="hardAlpha" operator="out"/>
<feColorMatrix type="matrix" values="0 0 0 0 0 0 0 0 0 0 0 0 0 0 0 0 0 0 0.04 0"/>
<feBlend mode="normal" in2="BackgroundImageFix" result="effect1_dropShadow_13105_112708"/>
<feBlend mode="normal" in="SourceGraphic" in2="effect1_dropShadow_13105_112708" result="shape"/>
</filter>
<clipPath id="clip0_13105_112708">
<rect width="265.907" height="91.3296" fill="white" transform="translate(17.5469 43.4746)"/>
</clipPath>
<clipPath id="clip1_13105_112708">
<rect x="56.1797" y="54.1104" width="188.643" height="132.56" rx="12.7461" fill="white"/>
</clipPath>
</defs>
</svg>
