<svg xmlns="http://www.w3.org/2000/svg" width="100" height="100" fill="none"><path fill="#2081E2" d="M100 50c0 27.613-22.387 50-50 50S0 77.613 0 50 22.387 0 50 0c27.618 0 50 22.387 50 50Z"/><path fill="#fff" d="m24.668 51.68.216-.339L37.89 30.993a.445.445 0 0 1 .78.057c2.173 4.87 4.048 10.926 3.17 14.697-.375 1.551-1.402 3.652-2.558 5.594-.15.283-.314.56-.488.827a.442.442 0 0 1-.37.195H25.048c-.36 0-.57-.39-.38-.683Z"/><path fill="#fff" d="M82.644 55.461v3.22c0 .186-.113.35-.277.422-1.007.432-4.454 2.014-5.887 4.007-3.658 5.09-6.452 12.37-12.699 12.37h-26.06C28.485 75.48 21 67.97 21 58.702v-.297c0-.247.2-.447.447-.447h14.527c.288 0 .499.267.473.55a4.959 4.959 0 0 0 .519 2.789 5.111 5.111 0 0 0 4.582 2.846h7.192v-5.615h-7.11a.458.458 0 0 1-.37-.72c.078-.118.165-.24.257-.38a51.806 51.806 0 0 0 2.59-4.13c.652-1.14 1.284-2.358 1.792-3.58.103-.221.185-.447.267-.668.139-.39.283-.755.386-1.12.102-.308.184-.632.267-.935.241-1.038.344-2.137.344-3.277 0-.447-.02-.915-.062-1.362-.02-.488-.082-.976-.144-1.464a15.176 15.176 0 0 0-.2-1.305 21.99 21.99 0 0 0-.41-1.952l-.057-.246c-.124-.447-.226-.873-.37-1.32a49.81 49.81 0 0 0-1.367-4.048c-.18-.509-.385-.997-.59-1.485-.303-.735-.612-1.402-.894-2.034-.144-.288-.267-.55-.39-.817a28.758 28.758 0 0 0-.427-.894c-.103-.22-.221-.426-.303-.632l-.879-1.623a.286.286 0 0 1 .324-.416l5.497 1.49h.015c.01 0 .016.005.02.005l.725.2.796.226.293.082v-3.267c0-1.577 1.264-2.856 2.825-2.856.781 0 1.49.319 1.999.837.508.52.827 1.228.827 2.02v4.849l.585.164a.468.468 0 0 1 .134.067c.144.108.35.267.611.462.206.164.427.365.694.57.529.427 1.16.976 1.854 1.608.185.16.365.324.53.488a42.349 42.349 0 0 1 2.85 2.887c.267.303.53.611.797.935.267.329.55.652.796.976.324.432.673.879.976 1.346.144.221.308.447.447.668.39.59.734 1.202 1.063 1.813.139.283.283.591.406.894.365.817.652 1.65.837 2.481.057.18.098.375.118.55v.041c.062.247.083.509.103.776a8.298 8.298 0 0 1-.144 2.563 9.34 9.34 0 0 1-.303 1.074c-.123.35-.246.714-.406 1.058a14.347 14.347 0 0 1-1.104 2.096c-.139.246-.303.508-.468.755-.18.262-.364.509-.529.75-.226.308-.467.632-.714.92-.22.303-.447.606-.693.873a33.57 33.57 0 0 1-1.017 1.16c-.206.242-.427.489-.653.71-.22.246-.447.467-.652.673-.344.344-.632.611-.873.832l-.565.519a.461.461 0 0 1-.303.113H54.39v5.615h5.507a5.152 5.152 0 0 0 3.349-1.239c.324-.282 1.736-1.505 3.406-3.349a.427.427 0 0 1 .21-.128l15.211-4.398a.449.449 0 0 1 .57.432Z"/></svg> 
