<svg width="360" height="360" viewBox="0 0 360 360" fill="none" xmlns="http://www.w3.org/2000/svg">
<rect width="360" height="360" fill="#FF0420"/>
<g clip-path="url(#clip0_2575_42407)">
<path d="M180 360C279.411 360 360 279.411 360 180C360 80.5888 279.411 0 180 0C80.5888 0 0 80.5888 0 180C0 279.411 80.5888 360 180 360Z" fill="#FF0420"/>
<path d="M127.536 227.842C116.818 227.842 108.037 225.319 101.192 220.276C94.4366 215.142 91.0591 207.847 91.0591 198.39C91.0591 196.409 91.2844 193.976 91.7344 191.094C92.9059 184.61 94.572 176.819 96.7334 167.722C102.858 142.954 118.665 130.57 144.153 130.57C151.088 130.57 157.303 131.741 162.797 134.082C168.291 136.334 172.614 139.757 175.766 144.35C178.919 148.853 180.495 154.258 180.495 160.562C180.495 162.453 180.27 164.84 179.819 167.722C178.469 175.738 176.847 183.529 174.956 191.094C171.803 203.434 166.355 212.665 158.609 218.79C150.863 224.824 140.506 227.842 127.536 227.842ZM129.427 208.387C134.471 208.387 138.749 206.901 142.262 203.929C145.865 200.957 148.432 196.409 149.962 190.284C152.034 181.818 153.611 174.432 154.691 168.128C155.051 166.236 155.231 164.3 155.231 162.318C155.231 154.122 150.953 150.024 142.397 150.024C137.353 150.024 133.03 151.51 129.427 154.482C125.915 157.455 123.393 162.003 121.862 168.128C120.241 174.162 118.619 181.548 116.999 190.284C116.638 192.085 116.458 193.976 116.458 195.958C116.458 204.244 120.781 208.387 129.427 208.387Z" fill="white"/>
<path d="M186.698 226.49C185.707 226.49 184.941 226.174 184.401 225.544C183.951 224.823 183.816 224.013 183.996 223.112L202.64 135.297C202.82 134.307 203.315 133.496 204.126 132.865C204.936 132.235 205.792 131.92 206.692 131.92H242.629C252.626 131.92 260.642 133.991 266.676 138.134C272.801 142.278 275.864 148.267 275.864 156.103C275.864 158.354 275.594 160.696 275.053 163.128C272.801 173.486 268.253 181.141 261.408 186.095C254.653 191.048 245.376 193.525 233.577 193.525H215.339L209.125 223.112C208.944 224.103 208.449 224.913 207.639 225.544C206.828 226.174 205.972 226.49 205.072 226.49H186.698ZM234.523 174.882C238.305 174.882 241.593 173.846 244.385 171.774C247.267 169.703 249.159 166.73 250.059 162.858C250.329 161.326 250.465 159.975 250.465 158.805C250.465 156.193 249.7 154.211 248.168 152.86C246.637 151.419 244.025 150.699 240.332 150.699H224.12L218.986 174.882H234.523Z" fill="white"/>
</g>
<defs>
<clipPath id="clip0_2575_42407">
<rect width="360" height="360" fill="white"/>
</clipPath>
</defs>
</svg>
