<svg width="1024" height="1024" viewBox="0 0 1024 1024" fill="none" xmlns="http://www.w3.org/2000/svg">
<rect width="1024" height="1024" fill="#FF0421"/>
<path d="M512.337 60C709.109 60 868.674 219.564 868.674 416.336C868.674 613.11 709.109 772.676 512.337 772.676V963.972C315.563 963.972 156 804.406 156 607.635C156 410.861 315.563 251.298 512.337 251.298V60ZM510.686 335.693C471.976 413.412 413.762 471.624 336.043 510.334V513.637C413.762 552.346 471.976 610.558 510.686 688.277H513.988C552.695 610.558 610.91 552.346 688.629 513.637V510.334C610.91 471.624 552.695 413.412 513.988 335.693H510.686Z" fill="#FAFAF9"/>
</svg>
