<?xml version="1.0" encoding="UTF-8"?>
<svg id="Layer_1" data-name="Layer 1" xmlns="http://www.w3.org/2000/svg" viewBox="0 0 1024 1024">
  <defs>
    <style>
      .cls-1 {
        fill: #00467f;
      }

      .cls-1, .cls-2 {
        stroke-width: 0px;
      }

      .cls-2 {
        fill: #fff;
      }
    </style>
  </defs>
  <rect class="cls-1" x="0" y="0" width="1024" height="1024"/>
  <g>
    <path class="cls-2" d="M519.18,456.37c0,5.48-1.22,10.77-3.46,15.6l38.62-34.8c.24-.22.47-.44.7-.66,16.57-16.57,38.34-24.86,60.1-24.86,1.36,0,2.72.03,4.08.1,5.98.28,11.93,1.22,17.76,2.76,13.42-9.46,28.31-16.42,44.09-20.65-1.02-.66-2.05-1.31-3.09-1.93-.24-.15-.48-.31-.72-.45-1.5-.89-3.02-1.72-4.55-2.54-.23-.12-.46-.26-.69-.39-1.53-.8-3.07-1.55-4.63-2.29-.24-.12-.48-.25-.73-.36-1.54-.71-3.09-1.37-4.65-2.02-.27-.11-.54-.24-.81-.35-1.53-.62-3.08-1.19-4.63-1.75-.31-.11-.61-.24-.92-.35-1.47-.51-2.95-.98-4.43-1.43-.4-.12-.79-.27-1.19-.38-1.44-.43-2.89-.8-4.35-1.18-.45-.11-.89-.25-1.34-.36-1.36-.33-2.73-.62-4.1-.9-.55-.11-1.1-.25-1.65-.36-1.28-.25-2.56-.45-3.85-.65-.65-.1-1.29-.23-1.94-.33-1.19-.17-2.38-.3-3.57-.43-.76-.09-1.51-.2-2.26-.27-1.08-.1-2.17-.16-3.25-.24-.87-.06-1.73-.14-2.6-.19-.98-.05-1.97-.05-2.95-.08-.97-.02-1.94-.07-2.91-.07-.95,0-1.89.04-2.84.06-1,.02-2.01.02-3.01.07-.86.04-1.73.12-2.59.18-1.08.07-2.16.13-3.24.23-.78.07-1.56.19-2.35.28-1.16.13-2.32.25-3.47.41-.68.1-1.36.23-2.04.34-1.25.2-2.5.39-3.74.63-.61.12-1.21.27-1.81.39-1.31.27-2.62.54-3.92.85-.53.13-1.06.29-1.59.42-1.37.35-2.74.7-4.09,1.1-.47.14-.92.3-1.39.44-1.41.43-2.83.87-4.23,1.35-.42.14-.83.32-1.24.46-1.44.52-2.87,1.04-4.29,1.61-.4.16-.78.34-1.18.51-1.43.59-2.86,1.19-4.27,1.84-.38.17-.74.37-1.12.55-1.42.67-2.83,1.35-4.23,2.08-.43.23-.86.48-1.29.71-1.33.71-2.65,1.42-3.95,2.19-.51.3-1.01.63-1.51.94-1.21.73-2.42,1.46-3.61,2.24-.55.36-1.08.75-1.62,1.12-1.13.77-2.26,1.52-3.37,2.33-.74.54-1.45,1.12-2.18,1.67-.89.68-1.8,1.35-2.67,2.05-1.06.86-2.1,1.77-3.14,2.67-.52.45-1.06.88-1.57,1.34-1.54,1.38-3.06,2.81-4.55,4.29l-21.62,19.49c.26.25.52.49.78.74,7.01,7.01,10.87,16.32,10.87,26.23Z"/>
    <path class="cls-2" d="M675,603.04c6.12-3.45,11.99-7.42,17.51-11.96,3.11-2.55,6.1-5.26,8.97-8.14,8.02-8.02,14.77-16.97,20.17-26.6,10.16-18.04,15.58-38.47,15.58-59.73,0-10.85-1.44-21.45-4.15-31.65-4.94-1.16-10.06-1.76-15.28-1.76-7.93,0-15.65,1.37-22.89,4.01,3.43,9.3,5.22,19.2,5.22,29.4,0,17.44-5.24,34.06-14.93,48.14-2.92,4.22-6.24,8.26-9.95,11.96-4.75,4.73-9.95,8.83-15.51,12.27-13.26,8.21-28.59,12.61-44.59,12.61h-.95c-2.06-.05-4.08-.12-6.12-.3-.67-.05-1.34-.12-2.02-.19-5.36-.56-10.62-1.62-15.72-3.18-5.96-1.81-11.66-4.29-17.09-7.35l-28.54,25.74c9.69,6.89,20.24,12.24,31.4,16,11.15,3.76,22.91,5.89,34.94,6.28,1.37.05,2.74.09,4.1.09,6.03,0,11.99-.44,17.85-1.28,7.42-1.09,14.7-2.85,21.7-5.26,7.03-2.41,13.82-5.45,20.29-9.11Z"/>
    <path class="cls-2" d="M366.05,603.04c6.14-3.45,11.99-7.44,17.51-11.96,2.97-2.46,5.87-5.03,8.63-7.79l101.91-91.85c-3.8,1.32-7.86,2.04-12.01,2.04-9.9,0-19.22-3.87-26.23-10.88-1.18-1.16-2.39-2.27-3.64-3.34l-85.22,76.78c-.23.21-.46.44-.7.67-3.85,3.85-8,7.26-12.41,10.25-5.17,3.52-10.69,6.45-16.46,8.72-9.81,3.87-20.36,5.91-31.23,5.91-2.71,0-5.38-.12-8.05-.37-7.63-.72-15.05-2.46-22.1-5.12-11.11-4.2-21.31-10.74-29.96-19.39-16.07-16.07-24.9-37.4-24.9-60.1s8.83-44.06,24.9-60.1c1.04-1.04,2.09-2.04,3.15-3.01,1.09-.97,2.18-1.9,3.29-2.81,1.11-.9,2.23-1.79,3.39-2.62,1.14-.86,2.3-1.67,3.48-2.43,3.52-2.34,7.21-4.38,10.99-6.12,1.25-.58,2.5-1.14,3.78-1.65,11.52-4.66,23.86-6.7,36.1-6.12,5.98.28,11.94,1.23,17.76,2.76,13.43-9.46,28.29-16.42,44.08-20.66-3.76-2.41-7.61-4.59-11.55-6.54-2.23-1.11-4.5-2.16-6.77-3.11-7.37-3.11-15-5.47-22.77-7.07-2.32-.49-4.66-.9-7-1.23-5.91-.88-11.87-1.32-17.83-1.32-12.71,0-25.39,1.97-37.59,5.89-1.88.6-3.76,1.25-5.61,1.95-.93.35-1.86.72-2.78,1.09-1.83.74-3.64,1.53-5.45,2.37-12.66,5.84-24.51,13.98-34.92,24.39-11.52,11.52-20.45,24.97-26.53,39.58-6.05,14.63-9.23,30.47-9.23,46.77,0,32.6,12.71,63.28,35.76,86.33,10.81,10.78,23.23,19.29,36.78,25.32,13.54,6.01,28.15,9.51,43.27,10.27,2.09.12,4.2.16,6.31.16,6.03,0,12.01-.42,17.88-1.28,7.42-1.09,14.68-2.85,21.7-5.26,7.03-2.41,13.8-5.45,20.27-9.11Z"/>
    <path class="cls-2" d="M557.92,559.45l13.88-12.5,85.21-76.79c.24-.22.47-.44.7-.66,3.87-3.87,8.04-7.27,12.41-10.24,5.22-3.54,10.75-6.45,16.49-8.7,10-3.93,20.6-5.92,31.21-5.92,2.69,0,5.38.13,8.06.38h0c7.51.71,14.95,2.44,22.09,5.14,10.93,4.13,21.17,10.56,29.95,19.34,16.05,16.05,24.9,37.4,24.9,60.11,0,6.78-.8,13.43-2.34,19.86-.16.67-.33,1.34-.51,2.01-.49,1.86-1.05,3.7-1.67,5.52-.32.93-.65,1.86-1,2.78-.57,1.51-1.19,3-1.85,4.47-.53,1.19-1.09,2.37-1.68,3.54-.58,1.14-1.18,2.28-1.81,3.39-3.77,6.7-8.46,12.94-14.05,18.52-16.05,16.06-37.4,24.9-60.11,24.9-7.49,0-14.83-.98-21.89-2.85-13.41,9.45-28.27,16.41-44.02,20.65,19.49,12.55,42.17,19.31,65.91,19.31,32.62,0,63.28-12.7,86.34-35.76,8.02-8.02,14.76-16.99,20.18-26.61,10.15-18.04,15.58-38.46,15.58-59.73,0-32.61-12.7-63.28-35.76-86.34-.31-.31-.63-.59-.94-.89-1.19-1.16-2.38-2.32-3.61-3.43-.69-.63-1.41-1.21-2.11-1.82-.86-.74-1.71-1.51-2.59-2.22-.95-.77-1.92-1.5-2.89-2.24-.66-.5-1.3-1.03-1.97-1.52-1.06-.78-2.14-1.5-3.21-2.24-.6-.41-1.18-.85-1.79-1.24-1.11-.73-2.24-1.41-3.36-2.1-.59-.36-1.17-.75-1.77-1.11-1.17-.69-2.37-1.33-3.56-1.98-.57-.31-1.12-.64-1.69-.94-1.21-.63-2.43-1.22-3.65-1.81-.57-.28-1.13-.58-1.71-.84-1.25-.58-2.52-1.11-3.79-1.65-.56-.24-1.11-.49-1.66-.72-1.27-.51-2.55-.98-3.83-1.45-.57-.21-1.14-.44-1.71-.65-1.26-.44-2.54-.84-3.82-1.23-.6-.19-1.2-.4-1.8-.58-1.26-.37-2.54-.7-3.81-1.03-.63-.16-1.25-.35-1.87-.5-1.22-.3-2.45-.55-3.67-.81-.69-.15-1.38-.32-2.07-.45-1.17-.23-2.34-.4-3.51-.6-.76-.13-1.52-.27-2.28-.38-1.12-.16-2.25-.28-3.37-.41-.82-.1-1.63-.21-2.45-.29-1.08-.1-2.16-.16-3.23-.24-.75-.05-1.49-.12-2.23-.16-.13,0-.25-.02-.38-.03-1.02-.05-2.04-.05-3.06-.08-.94-.02-1.87-.07-2.81-.07-1.01,0-2.02.04-3.03.07-.94.02-1.88.02-2.82.07-.94.04-1.88.13-2.82.2-1.01.07-2.01.12-3.02.22-.89.08-1.77.21-2.66.31-1.05.12-2.1.23-3.15.37-.15.02-.29.05-.43.07-.7.1-1.39.23-2.09.35-1.09.18-2.18.34-3.26.55-.78.15-1.55.34-2.33.5-1.14.24-2.28.47-3.41.74-.73.18-1.46.39-2.19.58-1.16.3-2.33.6-3.49.93-.69.2-1.36.44-2.04.65-1.19.37-2.39.73-3.57,1.14-.64.22-1.26.48-1.89.71-1.22.44-2.44.88-3.64,1.37-.62.25-1.23.53-1.85.8-1.2.51-2.41,1-3.6,1.55-.64.29-1.27.63-1.9.93-1.15.56-2.31,1.1-3.45,1.69-.62.32-1.23.69-1.85,1.02-.49.27-.98.54-1.47.81-.64.36-1.29.69-1.93,1.07-.64.38-1.27.79-1.91,1.18-1.07.66-2.16,1.3-3.21,1.99-.7.46-1.37.95-2.06,1.43-.98.67-1.97,1.32-2.93,2.03-.78.57-1.53,1.18-2.3,1.77-.85.65-1.71,1.28-2.55,1.96-.21.17-.42.36-.63.54-.79.65-1.56,1.32-2.34,1.99-.58.5-1.17.97-1.74,1.48-1.54,1.38-3.06,2.81-4.55,4.29l-101.92,91.85-21.62,19.48-38.62,34.8c-.24.21-.47.43-.7.66-16.05,16.06-37.4,24.9-60.11,24.9-7.49,0-14.83-.98-21.89-2.85-13.41,9.45-28.27,16.41-44.02,20.64,19.49,12.55,42.18,19.31,65.91,19.31,32.45,0,62.96-12.57,85.98-35.41l21.62-19.49,13.82-12.45h0l27.63-24.9"/>
    <path class="cls-2" d="M349.04,423.17c-6.1,3.43-11.99,7.4-17.55,11.97-3.08,2.53-6.08,5.24-8.95,8.12-23.07,23.07-35.76,53.73-35.76,86.35,0,10.85,1.44,21.47,4.15,31.67,4.96,1.16,10.06,1.76,15.28,1.76,7.93,0,15.65-1.37,22.89-4.03-3.43-9.3-5.22-19.2-5.22-29.4,0-22.72,8.83-44.06,24.88-60.13,4.78-4.78,10.02-8.83,15.54-12.24l10.55-5.52c1.79-.79,3.62-1.51,5.45-2.16h.02c9.23-3.29,18.88-4.94,28.54-4.94.3,0,.63.02.93.02,7.07.09,14.14,1.04,21.03,2.88,6.86,1.83,13.56,4.54,19.9,8.12,5.43,3.06,10.6,6.77,15.37,11.13.97.88,1.92,1.79,2.88,2.74,3.62,3.62,8.37,5.43,13.12,5.43s9.48-1.81,13.1-5.43c3.64-3.64,5.45-8.37,5.45-13.12s-1.81-9.51-5.45-13.12c-.49-.49-.97-.93-1.46-1.39-4.57-4.43-9.39-8.42-14.45-11.99-19.87-14.03-42.97-21.45-66.29-22.21-5.63-.19-11.27,0-16.88.58-1.69.14-3.39.35-5.05.6q.26.25,0,.02c-14.59,2.13-28.85,6.91-42.02,14.31Z"/>
  </g>
</svg>