<svg width="36" height="36" viewBox="0 0 36 36" fill="none" xmlns="http://www.w3.org/2000/svg">
<path d="M18 36C27.9411 36 36 27.9411 36 18C36 8.05888 27.9411 0 18 0C8.05888 0 0 8.05888 0 18C0 27.9411 8.05888 36 18 36Z" fill="white"/>
<path d="M23.6727 12.7801H23.4973C21.0485 12.7801 19.5852 14.4165 18.5936 15.8435C18.2126 16.389 17.8559 16.9662 17.5233 17.5243C16.8824 18.5772 16.2777 19.5729 15.5582 20.2896C14.8024 21.0507 13.8531 21.4567 12.8131 21.4567C11.9665 21.4313 11.1805 21.0571 10.5879 20.4101C9.99536 19.7632 9.6749 18.9133 9.6749 18.0127C9.6749 17.112 10.0316 16.2051 10.6363 15.5581C11.247 14.9112 12.0693 14.5497 12.9461 14.5497C13.3028 14.5497 13.714 14.6258 14.1191 14.759C14.1977 14.7844 14.2582 14.8478 14.2884 14.9366C14.3126 15.0254 14.3005 15.1205 14.2521 15.1966L12.1358 18.4059C12.0693 18.5011 12.0633 18.6216 12.1177 18.723C12.1721 18.8245 12.2628 18.8879 12.3777 18.8879H13.581C13.7442 18.8879 13.8954 18.8055 13.9861 18.666L16.1689 15.3298C16.2596 15.203 16.308 15.0507 16.3442 14.8858C16.3684 14.7336 16.3684 14.5687 16.3442 14.4101C16.314 14.2579 16.2475 14.1057 16.1628 13.9725C16.0721 13.8457 15.9633 13.7378 15.8303 13.649C15.7396 13.5983 15.6489 13.5412 15.5521 13.4841C14.748 13.0275 13.841 12.7801 12.9279 12.7801C11.6158 12.7801 10.3823 13.3192 9.45117 14.3087C8.5321 15.2791 8 16.6173 8 18C8 19.3827 8.48372 20.6448 9.37861 21.6216C10.2735 22.6046 11.4647 23.1691 12.7526 23.2072C14.1373 23.2072 15.3587 22.7061 16.4833 21.666C17.481 20.7463 18.255 19.5412 18.9019 18.4884C19.4038 17.6702 19.8754 16.8964 20.3894 16.2622C20.5708 16.0402 20.7461 15.8435 20.9154 15.6723C21.6954 14.9049 22.5178 14.5497 23.4973 14.5497H23.6182C24.4648 14.575 25.2508 14.9429 25.8434 15.5962C26.3452 16.148 26.6718 16.8901 26.7443 17.6638C26.7564 17.778 26.7624 17.8922 26.7624 18.0127C26.7624 18.9323 26.4178 19.8013 25.801 20.4545C25.1903 21.1015 24.368 21.463 23.4913 21.463C23.0378 21.463 22.6024 21.3488 22.3182 21.2537C22.2396 21.2283 22.1792 21.1649 22.1489 21.0761C22.1247 20.9873 22.1368 20.8922 22.1852 20.8097L24.2955 17.6321C24.362 17.537 24.368 17.4165 24.3136 17.315C24.2652 17.2072 24.1685 17.1501 24.0536 17.1501H22.8503C22.6871 17.1501 22.542 17.2326 22.4452 17.3721L20.2624 20.6702C20.1717 20.8034 20.1233 20.9493 20.0871 21.1142C20.0629 21.2664 20.0629 21.4313 20.0871 21.5898C20.1173 21.7421 20.1838 21.8943 20.2685 22.0275C20.3531 22.1543 20.474 22.2685 20.6071 22.3509C20.6978 22.4017 20.7824 22.4588 20.8731 22.5159C21.6773 22.9789 22.5843 23.2199 23.4973 23.2199C24.8155 23.2199 26.049 22.6808 26.9801 21.6913C27.9113 20.7082 28.4313 19.408 28.4313 18.019C28.4313 16.63 27.9294 15.3361 27.0466 14.3721C26.1517 13.3827 24.9606 12.8182 23.6727 12.7801Z" fill="#6666FE"/>
</svg>
