<svg width="36" height="36" viewBox="0 0 36 36" fill="none" xmlns="http://www.w3.org/2000/svg">
<rect width="36" height="36" fill="white"/>
<path d="M23.6727 13H23.4973C21.0485 13 19.5852 14.6364 18.5936 16.0634C18.2126 16.6089 17.8559 17.186 17.5233 17.7442C16.8824 18.797 16.2777 19.7928 15.5582 20.5095C14.8024 21.2706 13.8531 21.6765 12.8131 21.6765C11.9665 21.6512 11.1805 21.277 10.5879 20.63C9.99536 19.9831 9.6749 19.1332 9.6749 18.2326C9.6749 17.3319 10.0316 16.4249 10.6363 15.778C11.247 15.1311 12.0693 14.7696 12.9461 14.7696C13.3028 14.7696 13.714 14.8457 14.1191 14.9789C14.1977 15.0042 14.2582 15.0677 14.2884 15.1564C14.3126 15.2452 14.3005 15.3404 14.2521 15.4165L12.1358 18.6258C12.0693 18.7209 12.0633 18.8414 12.1177 18.9429C12.1721 19.0444 12.2628 19.1078 12.3777 19.1078H13.581C13.7442 19.1078 13.8954 19.0254 13.9861 18.8858L16.1689 15.5497C16.2596 15.4228 16.308 15.2706 16.3442 15.1057C16.3684 14.9535 16.3684 14.7886 16.3442 14.63C16.314 14.4778 16.2475 14.3256 16.1628 14.1924C16.0721 14.0655 15.9633 13.9577 15.8303 13.8689C15.7396 13.8182 15.6489 13.7611 15.5521 13.704C14.748 13.2474 13.841 13 12.9279 13C11.6158 13 10.3823 13.5391 9.45117 14.5285C8.5321 15.4989 8 16.8372 8 18.2199C8 19.6025 8.48372 20.8647 9.37861 21.8414C10.2735 22.8245 11.4647 23.389 12.7526 23.4271C14.1373 23.4271 15.3587 22.926 16.4833 21.8858C17.481 20.9662 18.255 19.7611 18.9019 18.7082C19.4038 17.8901 19.8754 17.1163 20.3894 16.482C20.5708 16.26 20.7461 16.0634 20.9154 15.8922C21.6954 15.1247 22.5178 14.7696 23.4973 14.7696H23.6182C24.4648 14.7949 25.2508 15.1628 25.8434 15.8161C26.3452 16.3679 26.6718 17.1099 26.7443 17.8837C26.7564 17.9979 26.7624 18.1121 26.7624 18.2326C26.7624 19.1522 26.4178 20.0211 25.801 20.6744C25.1903 21.3214 24.368 21.6829 23.4913 21.6829C23.0378 21.6829 22.6024 21.5687 22.3182 21.4736C22.2396 21.4482 22.1792 21.3848 22.1489 21.296C22.1247 21.2072 22.1368 21.1121 22.1852 21.0296L24.2955 17.852C24.362 17.7569 24.368 17.6364 24.3136 17.5349C24.2652 17.4271 24.1685 17.37 24.0536 17.37H22.8503C22.6871 17.37 22.542 17.4524 22.4452 17.592L20.2624 20.8901C20.1717 21.0233 20.1233 21.1691 20.0871 21.334C20.0629 21.4863 20.0629 21.6512 20.0871 21.8097C20.1173 21.9619 20.1838 22.1142 20.2685 22.2474C20.3531 22.3742 20.474 22.4884 20.6071 22.5708C20.6978 22.6216 20.7824 22.6787 20.8731 22.7357C21.6773 23.1987 22.5843 23.4398 23.4973 23.4398C24.8155 23.4398 26.049 22.9006 26.9801 21.9112C27.9113 20.9281 28.4313 19.6279 28.4313 18.2389C28.4313 16.8499 27.9294 15.556 27.0466 14.592C26.1517 13.6025 24.9606 13.0381 23.6727 13Z" fill="#6666FE"/>
</svg>
