<svg width="24" height="24" viewBox="0 0 24 24" fill="none" xmlns="http://www.w3.org/2000/svg">
<rect width="24" height="24" rx="12" fill="#4459FF" fill-opacity="0.1"/>
<path d="M17.7712 10.239L16.6549 9.66072C16.4484 9.55663 16.1916 9.63759 16.0912 9.85157C15.9851 10.0713 16.0688 10.3316 16.2753 10.4357L17.1628 10.8925V13.6627L15.0698 13.6684V7.73494C15.0698 6.57831 14.3219 6 13.3953 6H8.93023C8.00372 6 7.25581 6.57831 7.25581 7.73494V17.1325H6.4186C6.18977 17.1325 6 17.3292 6 17.5663C6 17.8034 6.18977 18 6.4186 18H15.907C16.1358 18 16.3256 17.8034 16.3256 17.5663C16.3256 17.3292 16.1358 17.1325 15.907 17.1325H15.0698V14.5359L17.5814 14.5301C17.8158 14.5301 18 14.3335 18 14.0964V10.6265C18 10.4646 17.9107 10.3142 17.7712 10.239ZM8.65116 8.82795C8.65116 8.0241 9.12558 7.73494 9.70605 7.73494H12.6251C13.2 7.73494 13.6744 8.0241 13.6744 8.82795V9.53928C13.6744 10.3373 13.2 10.6265 12.6195 10.6265H9.70605C9.12558 10.6265 8.65116 10.3373 8.65116 9.53349V8.82795ZM8.93023 11.9277H10.6047C10.8335 11.9277 11.0233 12.1243 11.0233 12.3614C11.0233 12.5986 10.8335 12.7952 10.6047 12.7952H8.93023C8.7014 12.7952 8.51163 12.5986 8.51163 12.3614C8.51163 12.1243 8.7014 11.9277 8.93023 11.9277Z" fill="#4459FF"/>
</svg>
