<svg width="31" height="25" viewBox="0 0 31 25" fill="none" xmlns="http://www.w3.org/2000/svg">
<path d="M1.86541 5.72176L1.79469 5.79247C1.02602 6.56114 0.602468 7.58337 0.602936 8.67019L1.86541 5.72176ZM1.86541 5.72176L1.93612 5.79247M1.86541 5.72176L1.93612 5.79247M1.93612 5.79247L2.34305 6.1994L2.74999 6.60634L2.82067 6.67702M1.93612 5.79247L2.82067 6.67702M2.82067 6.67702L2.75002 6.74773M2.82067 6.67702L2.75002 6.74773M2.75002 6.74773C2.23672 7.26148 1.95374 7.94401 1.95374 8.67019C1.95374 9.39638 2.23672 10.0789 2.75002 10.5927L2.67928 10.6633L2.74995 10.5926C3.16102 11.0032 3.67296 11.2457 4.20842 11.3365M2.75002 6.74773L4.20842 11.3365M4.20842 11.3365V10.3801C4.20842 9.74727 4.29699 9.12361 4.44701 8.51737C5.26558 5.2082 8.15856 2.42474 11.5089 2.05516L11.5089 2.05511L11.5122 2.05485L11.5232 2.05402C11.5234 2.054 11.5236 2.05398 11.5238 2.05396C14.4515 1.79463 17.4246 1.72407 20.3655 1.84557L20.3662 1.84561C20.4027 1.84736 20.4448 1.85178 20.4826 1.85576C20.4848 1.85599 20.487 1.85622 20.4891 1.85644C21.3008 0.801614 22.4769 0.128149 23.7918 0.128149H24.3672H24.4672V0.228149V3.48716C25.6604 4.45549 26.6321 5.79415 27.2053 7.35649C27.6693 7.38577 28.1337 7.41796 28.5993 7.45185L28.6 7.4519C29.8669 7.55314 30.8947 8.66911 30.8947 9.94233V14.532C30.8947 15.8021 29.8707 16.9275 28.6044 17.0438L28.6037 17.0439C28.0461 17.0912 27.4876 17.1351 26.9282 17.1755C26.2881 18.557 25.3323 19.7259 24.2059 20.5696V21.9581C24.2059 23.0522 23.3155 23.9421 22.2215 23.9421H21.2956C20.2321 23.9421 19.3615 23.1011 19.3137 22.0491C18.732 22.0644 18.149 22.0745 17.5651 22.0745C16.1032 22.0745 14.6374 22.0272 13.1767 21.9337V21.9581C13.1767 23.0522 12.2863 23.9421 11.1922 23.9421H10.2664C9.17234 23.9421 8.28244 23.0522 8.28244 21.9581V20.6399C5.89461 19.1267 4.20795 16.3776 4.20842 13.4825V12.7103C3.32631 12.6097 2.47056 12.2229 1.79516 11.5475C1.02648 10.7792 0.602947 9.75701 0.602936 8.67024L4.20842 11.3365ZM11.5108 21.8072L11.5108 21.8072L11.5084 21.8069C10.8614 21.7357 10.2331 21.5697 9.63278 21.3321V21.9581C9.63278 22.307 9.91701 22.5913 10.2659 22.5913H11.1918C11.5412 22.5913 11.8254 22.307 11.8254 21.9581V21.8312C11.7948 21.8289 11.7636 21.8266 11.7324 21.8243C11.6578 21.8189 11.5824 21.8133 11.5108 21.8072ZM26.0661 8.2019C25.7283 7.11363 25.1685 6.14239 24.4672 5.34918V6.39285V6.49285H24.3672H23.2164H23.1164V6.39285V1.57114C21.7447 1.95265 20.6961 3.47977 20.6961 5.32558C20.6961 5.68533 20.7363 6.0339 20.8135 6.3705L20.8416 6.49285H20.716H19.5442H19.4607L19.4458 6.41068C19.3819 6.0577 19.3458 5.69611 19.3458 5.32558C19.3458 4.55852 19.4925 3.83242 19.7487 3.17691C19.0205 3.15274 18.291 3.13796 17.5604 3.13796C15.5864 3.13796 13.6074 3.22507 11.6502 3.39834C10.0333 3.57877 8.51004 4.48202 7.38991 5.76503C6.26962 7.04823 5.55899 8.70405 5.55923 10.3796V13.4825V13.5581C5.58001 15.2087 6.28668 16.835 7.38969 18.0991C8.5094 19.3822 10.031 20.2847 11.6432 20.4628C14.5132 20.7172 17.428 20.7865 20.3054 20.6673C22.5772 20.5684 24.8105 18.8103 25.8469 16.2745L25.8469 16.2744L25.9827 15.9431L26.0063 15.8856L26.0684 15.8813L26.4258 15.8565L26.4258 15.8565C27.1144 15.809 27.8016 15.7558 28.4842 15.698C29.0557 15.6452 29.5434 15.1087 29.5434 14.5316V9.94186C29.5434 9.36914 29.0595 8.84339 28.4958 8.79837C27.8886 8.75407 27.2797 8.71304 26.6703 8.67621L26.6702 8.6762L26.2735 8.65194L26.2046 8.64772L26.1842 8.58181L26.0661 8.20194L26.0661 8.2019ZM22.8546 21.9581V21.3811C22.1527 21.7107 21.4138 21.9209 20.6629 21.9915C20.6803 22.325 20.9574 22.5913 21.2952 22.5913H22.221C22.5705 22.5913 22.8546 22.307 22.8546 21.9581Z" fill="#037DD6" stroke="#037DD6" stroke-width="0.2"/>
</svg>
