<svg width="162" height="162" viewBox="0 0 162 162" fill="none" xmlns="http://www.w3.org/2000/svg">
<g filter="url(#filter0_d_187_21)">
<path d="M158 77.4127C158 78.1934 157.989 78.9741 157.967 79.7548H157.877H120.515V78.0484H84.4686C84.4686 77.6915 84.4797 77.3346 84.4797 76.9888C84.4797 76.6431 84.4797 76.2751 84.4686 75.9293H120.515V74.2341H120.571H157.933C157.978 75.2936 158 76.3531 158 77.4127ZM83.8328 69.7283L119.11 65.3898L119.322 67.085L156.572 62.5012C156.216 60.6721 155.792 58.8653 155.312 57.092L118.641 61.6089L118.853 63.3042L83.409 67.665C83.5652 68.3565 83.7102 69.0479 83.8328 69.7506V69.7283ZM81.9926 62.9027L115.708 54.4822L116.121 56.1328L151.899 47.1993C151.163 45.4706 150.371 43.7642 149.524 42.1024L114.793 50.7794L115.206 52.43L81.2119 60.9286C81.4907 61.5866 81.7472 62.2446 81.9926 62.9138V62.9027ZM79.0036 56.512L110.522 44.6118L111.124 46.2067L144.471 33.615C143.39 32.0313 142.252 30.4922 141.048 28.9977L109.172 41.0317L109.775 42.6266L77.8772 54.6718C78.2675 55.274 78.6467 55.8875 79.0036 56.512ZM74.8659 50.601L102.704 36.091L103.484 37.6078L134.267 21.5587C132.85 20.1868 131.378 18.882 129.861 17.6217L100.93 32.7005L101.711 34.2173L73.4048 48.9726C73.8956 49.508 74.3863 50.0433 74.8547 50.601H74.8659ZM68.1518 44.2215L93.3575 28.1947L94.272 29.6334L122.087 11.9448C120.336 10.8295 118.552 9.79229 116.712 8.82199L91.3165 24.9715L92.231 26.4102L66.3004 42.8943C66.9361 43.3181 67.5495 43.7642 68.1629 44.2215H68.1518ZM62.1961 40.4964L83.3198 23.1758L84.4016 24.4919L108.191 4.97422C106.172 4.20466 104.098 3.51318 102.001 2.91092L80.8996 20.2203L81.9815 21.5364L60.0882 39.4926C60.802 39.8049 61.5046 40.1395 62.1961 40.4964ZM54.311 37.4293L70.9958 20.8226L72.1892 22.0271L93.3909 0.959154C91.0934 0.579954 88.7625 0.30113 86.398 0.122682L68.3191 18.1124L69.5125 19.3169L51.8908 36.8494C52.705 37.0167 53.508 37.2063 54.311 37.4293ZM45.0875 36.0352L58.393 19.908L59.709 20.9899L77.0295 0C74.3975 0.122682 71.7988 0.3792 69.2448 0.758401L55.4486 17.4767L56.7646 18.5585L42.355 36.024C42.7565 36.0129 43.1692 36.0017 43.5707 36.0017C44.0837 36.0017 44.5856 36.0017 45.0875 36.024V36.0352ZM37.1131 36.5148L47.3627 20.6553L48.7903 21.581L61.1812 2.39789C58.3483 3.13398 55.5824 4.02622 52.8834 5.06344L44.1618 18.5697L45.5894 19.4954L34.2357 37.0724C35.1837 36.8494 36.1428 36.6598 37.1131 36.5036V36.5148ZM28.2577 38.9796L35.6298 25.1611L37.1243 25.9641L46.8831 7.68438C43.7491 9.21234 40.7378 10.941 37.8604 12.8594L32.2504 23.3654L33.7561 24.1685L25.0791 40.4295C26.1052 39.9053 27.1647 39.4257 28.2465 38.9907L28.2577 38.9796ZM21.9005 42.2251L25.0345 33.325L26.6405 33.8938L32.73 16.6067C29.6406 19.0604 26.7409 21.7371 24.053 24.6257L21.4321 32.0647L23.0381 32.6335L18.9338 44.2772C19.893 43.5523 20.8744 42.872 21.8893 42.2362L21.9005 42.2251ZM14.0823 48.5934L15.4652 42.1247L17.127 42.4816L19.9153 29.455C16.982 33.18 14.3834 37.1839 12.164 41.4109L13.4019 41.6786L10.8591 52.3854C11.8517 51.0582 12.9335 49.7868 14.0823 48.5934ZM8.3385 56.1551V47.5897C6.26405 53.0658 4.79186 59.8802 4 66.5608C4.97031 62.8581 6.4425 59.3672 8.3385 56.1551ZM4.05576 87.6399C4.86993 93.3391 6.29751 98.8375 8.28273 104.068V97.7445C6.45365 94.6217 5.01492 91.2312 4.05576 87.6399ZM11.1267 101.971L13.3462 112.321L12.1082 112.589C14.3276 116.827 16.9263 120.82 19.8595 124.545L17.0713 111.518L15.4095 111.875L14.0042 105.328C12.9893 104.258 12.019 103.143 11.1267 101.96V101.971ZM18.8557 109.667L22.9823 121.378L21.3763 121.946L23.9972 129.385C26.6851 132.274 29.5849 134.951 32.6742 137.404L26.5847 120.117L24.9787 120.686L21.8336 111.741C20.8187 111.095 19.826 110.414 18.8669 109.689L18.8557 109.667ZM25.0122 113.537L33.7115 129.843L32.2058 130.646L37.8158 141.152C40.6932 143.07 43.7045 144.799 46.8385 146.327L37.0797 128.047L35.574 128.85L28.1796 114.998C27.0978 114.563 26.0382 114.072 25.001 113.548L25.0122 113.537ZM34.1687 116.905L45.5336 134.505L44.106 135.43L52.8276 148.937C55.5266 149.974 58.2926 150.866 61.1254 151.602L48.7345 132.419L47.3069 133.345L37.0462 117.463C36.0759 117.307 35.1056 117.117 34.1576 116.894L34.1687 116.905ZM42.2881 117.976L56.6977 135.441L55.3817 136.523L69.1779 153.242C71.7319 153.621 74.3305 153.877 76.9626 154L59.6421 132.999L58.326 134.081L45.0206 117.954C44.541 117.976 44.0503 117.976 43.5595 117.976C43.1357 117.976 42.7008 117.976 42.2769 117.954L42.2881 117.976ZM51.8462 117.151L69.4567 134.672L68.2633 135.876L86.3423 153.866C88.7067 153.688 91.0377 153.409 93.3352 153.03L72.1445 131.951L70.94 133.166L54.2664 116.571C53.4745 116.783 52.6603 116.983 51.8462 117.151ZM60.0547 114.53L81.9257 132.475L80.8439 133.791L101.945 151.1C104.042 150.498 106.116 149.806 108.135 149.037L84.3347 129.519L83.2529 130.835L62.1515 113.526C61.46 113.883 60.7574 114.217 60.0436 114.53H60.0547ZM66.2558 111.117L92.1529 127.59L91.2384 129.029L116.634 145.178C118.474 144.208 120.27 143.159 122.009 142.055L94.1939 124.367L93.2794 125.805L68.1072 109.801C67.4938 110.258 66.8804 110.704 66.2446 111.128L66.2558 111.117ZM73.3937 105.05L101.666 119.783L100.886 121.3L129.816 136.378C131.333 135.118 132.805 133.813 134.222 132.441L103.44 116.392L102.659 117.909L74.8547 103.421C74.3863 103.979 73.9067 104.525 73.4048 105.05H73.3937ZM77.866 99.3394L109.719 111.373L109.117 112.968L140.992 125.002C142.185 123.508 143.323 121.969 144.416 120.385L111.068 107.793L110.466 109.388L78.9925 97.4991C78.6356 98.1237 78.2564 98.7371 77.866 99.3394ZM81.2008 93.0937L115.139 101.57L114.727 103.221L149.457 111.898C150.316 110.236 151.107 108.529 151.844 106.801L116.065 97.8672L115.652 99.5178L81.9815 91.1085C81.7361 91.7777 81.4684 92.4357 81.2008 93.0937ZM83.409 86.3573L118.797 90.707L118.585 92.4022L155.256 96.9192C155.736 95.1347 156.16 93.3279 156.517 91.51L119.266 86.9261L119.054 88.6214L83.8328 84.2829C83.7102 84.9855 83.5652 85.677 83.409 86.3685V86.3573Z" fill="white"/>
</g>
<defs>
<filter id="filter0_d_187_21" x="0" y="0" width="162" height="162" filterUnits="userSpaceOnUse" color-interpolation-filters="sRGB">
<feFlood flood-opacity="0" result="BackgroundImageFix"/>
<feColorMatrix in="SourceAlpha" type="matrix" values="0 0 0 0 0 0 0 0 0 0 0 0 0 0 0 0 0 0 127 0" result="hardAlpha"/>
<feOffset dy="4"/>
<feGaussianBlur stdDeviation="2"/>
<feComposite in2="hardAlpha" operator="out"/>
<feColorMatrix type="matrix" values="0 0 0 0 0 0 0 0 0 0 0 0 0 0 0 0 0 0 0.25 0"/>
<feBlend mode="normal" in2="BackgroundImageFix" result="effect1_dropShadow_187_21"/>
<feBlend mode="normal" in="SourceGraphic" in2="effect1_dropShadow_187_21" result="shape"/>
</filter>
</defs>
</svg>
