<svg width="254" height="246" viewBox="0 0 254 246" fill="none" xmlns="http://www.w3.org/2000/svg">
<path d="M127.287 52.1521C151.391 52.1521 170.93 40.6431 170.93 26.4462C170.93 12.2492 151.391 0.740234 127.287 0.740234C103.184 0.740234 83.644 12.2492 83.644 26.4462C83.644 40.6431 103.184 52.1521 127.287 52.1521Z" fill="#FF2670"/>
<path d="M127.287 245.74C151.391 245.74 170.93 234.231 170.93 220.034C170.93 205.837 151.391 194.328 127.287 194.328C103.184 194.328 83.644 205.837 83.644 220.034C83.644 234.231 103.184 245.74 127.287 245.74Z" fill="#FF2670"/>
<path d="M66.4582 87.6934C78.5099 66.5654 78.435 43.6848 66.2908 36.5881C54.1466 29.4915 34.5319 40.866 22.4802 61.994C10.4285 83.1219 10.5035 106.003 22.6477 113.099C34.7919 120.196 54.4065 108.821 66.4582 87.6934Z" fill="#FF2670"/>
<path d="M232.112 184.487C244.164 163.359 244.086 140.477 231.939 133.379C219.792 126.28 200.175 137.653 188.123 158.781C176.071 179.909 176.149 202.791 188.296 209.89C200.443 216.988 220.06 205.615 232.112 184.487Z" fill="#FF2670"/>
<path d="M66.2915 209.897C78.4388 202.798 78.5162 179.916 66.4645 158.788C54.4128 137.66 34.7957 126.287 22.6484 133.386C10.5011 140.484 10.4236 163.366 22.4754 184.494C34.5271 205.622 54.1442 216.995 66.2915 209.897Z" fill="#FF2670"/>
<path d="M231.935 113.094C244.082 105.996 244.16 83.1138 232.108 61.9859C220.056 40.8579 200.439 29.4848 188.292 36.5833C176.145 43.6818 176.067 66.5639 188.119 87.6918C200.171 108.82 219.788 120.193 231.935 113.094Z" fill="#FF2670"/>
</svg>
