<svg width="2000" height="2000" viewBox="0 0 2000 2000" fill="none" xmlns="http://www.w3.org/2000/svg">
<mask id="mask0_19_77" style="mask-type:luminance" maskUnits="userSpaceOnUse" x="20" y="20" width="1960" height="1960">
<path d="M999.999 1979.64C1541.04 1979.64 1979.64 1541.04 1979.64 1000C1979.64 458.96 1541.04 20.3601 999.999 20.3601C458.959 20.3601 20.3594 458.96 20.3594 1000C20.3594 1541.04 458.959 1979.64 999.999 1979.64Z" fill="white"/>
</mask>
<g mask="url(#mask0_19_77)">
<path d="M2072.4 -72.3999H-72.3984V2072.4H2072.4V-72.3999Z" fill="url(#paint0_linear_19_77)"/>
</g>
<path d="M1283.32 1211.4L1560.48 1051.36C1575.16 1042.88 1584.24 1027.12 1584.24 1010.16V690.12C1584.24 673.2 1575.12 657.4 1560.48 648.92L1283.32 488.88C1268.64 480.4 1250.44 480.44 1235.76 488.88L958.598 648.92C943.918 657.4 934.838 673.2 934.838 690.12V1262.08L740.478 1374.28L546.118 1262.08V1037.64L740.478 925.44L868.678 999.44V848.88L764.238 788.6C757.038 784.44 748.798 782.24 740.438 782.24C732.078 782.24 723.838 784.44 716.678 788.6L439.518 948.64C424.838 957.12 415.758 972.88 415.758 989.84V1309.88C415.758 1326.8 424.878 1342.6 439.518 1351.08L716.678 1511.12C731.318 1519.56 749.558 1519.56 764.238 1511.12L1041.4 1351.12C1056.08 1342.64 1065.16 1326.84 1065.16 1309.92V737.96L1068.68 735.96L1259.52 625.76L1453.88 737.96V962.4L1259.52 1074.6L1131.52 1000.68V1151.24L1235.76 1211.44C1250.44 1219.88 1268.64 1219.88 1283.32 1211.44V1211.4Z" fill="white"/>
<defs>
<linearGradient id="paint0_linear_19_77" x1="-464.358" y1="103.88" x2="1749.8" y2="1458.84" gradientUnits="userSpaceOnUse">
<stop stop-color="#A229C5"/>
<stop offset="1" stop-color="#7B3FE4"/>
</linearGradient>
</defs>
</svg>
