<svg width="70" height="70" viewBox="0 0 70 70" fill="none" xmlns="http://www.w3.org/2000/svg">
<circle cx="35" cy="35" r="35" fill="#F2F4F6"/>
<path d="M52.6614 17L37.1834 28.4526L40.0617 21.7032L52.6614 17Z" fill="#E17726" stroke="#E17726" stroke-width="0.25" stroke-linecap="round" stroke-linejoin="round"/>
<path d="M16.9597 17L32.2999 28.5595L29.5595 21.7032L16.9597 17Z" fill="#E27625" stroke="#E27625" stroke-width="0.25" stroke-linecap="round" stroke-linejoin="round"/>
<path d="M47.0889 43.5548L42.9705 49.8461L51.7888 52.2741L54.3149 43.6922L47.0889 43.5548Z" fill="#E27625" stroke="#E27625" stroke-width="0.25" stroke-linecap="round" stroke-linejoin="round"/>
<path d="M15.3215 43.6922L17.8323 52.2741L26.6353 49.8461L22.5323 43.5548L15.3215 43.6922Z" fill="#E27625" stroke="#E27625" stroke-width="0.25" stroke-linecap="round" stroke-linejoin="round"/>
<path d="M26.1607 32.9268L23.7112 36.6222L32.4377 37.0192L32.1467 27.6281L26.1607 32.9268Z" fill="#E27625" stroke="#E27625" stroke-width="0.25" stroke-linecap="round" stroke-linejoin="round"/>
<path d="M43.4604 32.9268L37.3825 27.5211L37.1836 37.0192L45.9099 36.6222L43.4604 32.9268Z" fill="#E27625" stroke="#E27625" stroke-width="0.25" stroke-linecap="round" stroke-linejoin="round"/>
<path d="M26.6353 49.8461L31.917 47.2961L27.3702 43.7534L26.6353 49.8461Z" fill="#E27625" stroke="#E27625" stroke-width="0.25" stroke-linecap="round" stroke-linejoin="round"/>
<path d="M37.7041 47.2961L42.9705 49.8461L42.251 43.7534L37.7041 47.2961Z" fill="#E27625" stroke="#E27625" stroke-width="0.25" stroke-linecap="round" stroke-linejoin="round"/>
<path d="M42.9705 49.8461L37.704 47.2961L38.1327 50.7165L38.0867 52.1672L42.9705 49.8461Z" fill="#D5BFB2" stroke="#D5BFB2" stroke-width="0.25" stroke-linecap="round" stroke-linejoin="round"/>
<path d="M26.6352 49.8461L31.5343 52.1672L31.5036 50.7165L31.917 47.2961L26.6352 49.8461Z" fill="#D5BFB2" stroke="#D5BFB2" stroke-width="0.25" stroke-linecap="round" stroke-linejoin="round"/>
<path d="M31.6262 41.4933L27.2476 40.2107L30.3402 38.7905L31.6262 41.4933Z" fill="#233447" stroke="#233447" stroke-width="0.25" stroke-linecap="round" stroke-linejoin="round"/>
<path d="M37.9948 41.4933L39.2809 38.7905L42.3887 40.2107L37.9948 41.4933Z" fill="#233447" stroke="#233447" stroke-width="0.25" stroke-linecap="round" stroke-linejoin="round"/>
<path d="M26.6353 49.8461L27.4007 43.5548L22.5323 43.6923L26.6353 49.8461Z" fill="#CC6228" stroke="#CC6228" stroke-width="0.25" stroke-linecap="round" stroke-linejoin="round"/>
<path d="M42.2203 43.5548L42.9705 49.8461L47.0887 43.6923L42.2203 43.5548Z" fill="#CC6228" stroke="#CC6228" stroke-width="0.25" stroke-linecap="round" stroke-linejoin="round"/>
<path d="M45.9099 36.6222L37.1834 37.0192L37.9948 41.4933L39.2809 38.7905L42.3887 40.2107L45.9099 36.6222Z" fill="#CC6228" stroke="#CC6228" stroke-width="0.25" stroke-linecap="round" stroke-linejoin="round"/>
<path d="M27.2476 40.2107L30.3401 38.7905L31.6262 41.4933L32.4375 37.0192L23.7111 36.6222L27.2476 40.2107Z" fill="#CC6228" stroke="#CC6228" stroke-width="0.25" stroke-linecap="round" stroke-linejoin="round"/>
<path d="M23.7112 36.6222L27.3702 43.7534L27.2477 40.2107L23.7112 36.6222Z" fill="#E27525" stroke="#E27525" stroke-width="0.25" stroke-linecap="round" stroke-linejoin="round"/>
<path d="M42.3888 40.2107L42.251 43.7534L45.91 36.6222L42.3888 40.2107Z" fill="#E27525" stroke="#E27525" stroke-width="0.25" stroke-linecap="round" stroke-linejoin="round"/>
<path d="M32.4377 37.0192L31.6262 41.4935L32.6519 46.7768L32.8816 39.8137L32.4377 37.0192Z" fill="#E27525" stroke="#E27525" stroke-width="0.25" stroke-linecap="round" stroke-linejoin="round"/>
<path d="M37.1836 37.0192L36.7548 39.7985L36.9692 46.7768L37.9949 41.4935L37.1836 37.0192Z" fill="#E27525" stroke="#E27525" stroke-width="0.25" stroke-linecap="round" stroke-linejoin="round"/>
<path d="M37.9949 41.4933L36.9692 46.7768L37.7041 47.2961L42.251 43.7534L42.3888 40.2107L37.9949 41.4933Z" fill="#F5841F" stroke="#F5841F" stroke-width="0.25" stroke-linecap="round" stroke-linejoin="round"/>
<path d="M27.2476 40.2107L27.3702 43.7534L31.917 47.2961L32.6519 46.7768L31.6262 41.4933L27.2476 40.2107Z" fill="#F5841F" stroke="#F5841F" stroke-width="0.25" stroke-linecap="round" stroke-linejoin="round"/>
<path d="M38.0867 52.1672L38.1327 50.7165L37.7346 50.3806H31.8864L31.5036 50.7165L31.5343 52.1672L26.6352 49.8461L28.3499 51.251L31.8251 53.6484H37.7806L41.2712 51.251L42.9705 49.8461L38.0867 52.1672Z" fill="#C0AC9D" stroke="#C0AC9D" stroke-width="0.25" stroke-linecap="round" stroke-linejoin="round"/>
<path d="M37.7041 47.2961L36.9692 46.7768H32.6519L31.917 47.2961L31.5036 50.7165L31.8864 50.3806H37.7346L38.1327 50.7165L37.7041 47.2961Z" fill="#161616" stroke="#161616" stroke-width="0.25" stroke-linecap="round" stroke-linejoin="round"/>
<path d="M53.3197 29.2008L54.6211 22.879L52.6614 17L37.7041 28.0709L43.4604 32.9268L51.5898 35.2937L53.381 33.2017L52.6002 32.6366L53.8403 31.5067L52.8911 30.7737L54.1312 29.8269L53.3197 29.2008Z" fill="#763E1A" stroke="#763E1A" stroke-width="0.25" stroke-linecap="round" stroke-linejoin="round"/>
<path d="M15 22.879L16.3166 29.2008L15.4746 29.8269L16.73 30.7737L15.7808 31.5067L17.0209 32.6366L16.2401 33.2017L18.0313 35.2937L26.1607 32.9268L31.917 28.0709L16.9596 17L15 22.879Z" fill="#763E1A" stroke="#763E1A" stroke-width="0.25" stroke-linecap="round" stroke-linejoin="round"/>
<path d="M51.5899 35.2937L43.4605 32.9268L45.91 36.6222L42.251 43.7534L47.0889 43.6922H54.3149L51.5899 35.2937Z" fill="#F5841F" stroke="#F5841F" stroke-width="0.25" stroke-linecap="round" stroke-linejoin="round"/>
<path d="M26.1606 32.9268L18.0313 35.2937L15.3215 43.6922H22.5323L27.3701 43.7534L23.7111 36.6222L26.1606 32.9268Z" fill="#F5841F" stroke="#F5841F" stroke-width="0.25" stroke-linecap="round" stroke-linejoin="round"/>
<path d="M37.1834 37.0192L37.704 28.0709L40.0617 21.7032H29.5594L31.917 28.0709L32.4375 37.0192L32.6366 39.8289L32.6519 46.7768H36.9692L36.9845 39.8289L37.1834 37.0192Z" fill="#F5841F" stroke="#F5841F" stroke-width="0.25" stroke-linecap="round" stroke-linejoin="round"/>
</svg>
