<svg width="70" height="70" viewBox="0 0 70 70" fill="none" xmlns="http://www.w3.org/2000/svg">
<g clip-path="url(#clip0_63_977)">
<path d="M35 70C54.33 70 70 54.33 70 35C70 15.67 54.33 0 35 0C15.67 0 0 15.67 0 35C0 54.33 15.67 70 35 70Z" fill="#F2F4F6"/>
<path d="M52.7236 53.2327L43.944 50.6184L37.3229 54.5763L32.7035 54.5744L26.0786 50.6184L17.3028 53.2327L14.6333 44.2211L17.3028 34.2195L14.6333 25.7634L17.3028 15.2832L31.0157 23.4759H39.0107L52.7236 15.2832L55.393 25.7634L52.7236 34.2195L55.393 44.2211L52.7236 53.2327Z" fill="#FF5C16"/>
<path d="M17.3049 15.2832L31.0178 23.4817L30.4724 29.1082L17.3049 15.2832Z" fill="#FF5C16"/>
<path d="M26.0808 44.2251L32.1144 48.8212L26.0808 50.6186V44.2251Z" fill="#FF5C16"/>
<path d="M31.6322 36.626L30.4726 29.1118L23.0497 34.2212L23.0459 34.2193V34.2231L23.0689 39.4825L26.079 36.626H26.0809H31.6322Z" fill="#FF5C16"/>
<path d="M52.7236 15.2832L39.0107 23.4817L39.5542 29.1082L52.7236 15.2832Z" fill="#FF5C16"/>
<path d="M43.9477 44.2251L37.9141 48.8212L43.9477 50.6186V44.2251Z" fill="#FF5C16"/>
<path d="M46.9811 34.2231H46.9831H46.9811V34.2193L46.9792 34.2212L39.5564 29.1118L38.3967 36.626H43.9481L46.9601 39.4825L46.9811 34.2231Z" fill="#FF5C16"/>
<path d="M26.0786 50.6186L17.3028 53.2329L14.6333 44.2251H26.0786V50.6186Z" fill="#E34807"/>
<path d="M31.6302 36.625L33.3065 47.4878L30.9834 41.448L23.0649 39.4834L26.077 36.625H31.6283H31.6302Z" fill="#E34807"/>
<path d="M43.9475 50.6186L52.7233 53.2329L55.3928 44.2251H43.9475V50.6186Z" fill="#E34807"/>
<path d="M38.3963 36.625L36.72 47.4878L39.0431 41.448L46.9616 39.4834L43.9476 36.625H38.3963Z" fill="#E34807"/>
<path d="M14.6333 44.2218L17.3028 34.2202H23.0436L23.0646 39.4815L30.9831 41.446L33.3062 47.4858L32.1121 48.816L26.0786 44.2199H14.6333V44.2218Z" fill="#FF8D5D"/>
<path d="M55.3929 44.2218L52.7234 34.2202H46.9826L46.9616 39.4815L39.0431 41.446L36.72 47.4858L37.9141 48.816L43.9476 44.2199H55.3929V44.2218Z" fill="#FF8D5D"/>
<path d="M39.0109 23.4766H35.0134H31.0159L30.4724 29.103L33.3065 47.48H36.7203L39.5563 29.103L39.0109 23.4766Z" fill="#FF8D5D"/>
<path d="M17.3028 15.2832L14.6333 25.7634L17.3028 34.2195H23.0436L30.4703 29.1082L17.3028 15.2832Z" fill="#661800"/>
<path d="M29.9708 38.8071H27.3702L25.9541 40.195L30.985 41.4425L29.9708 38.8052V38.8071Z" fill="#661800"/>
<path d="M52.7234 15.2832L55.3929 25.7634L52.7234 34.2195H46.9826L39.5559 29.1082L52.7234 15.2832Z" fill="#661800"/>
<path d="M40.0596 38.8071H42.664L44.0801 40.1969L39.0435 41.4464L40.0596 38.8052V38.8071Z" fill="#661800"/>
<path d="M37.3208 50.9907L37.9141 48.8185L36.72 47.4883H33.3042L32.1101 48.8185L32.7033 50.9907" fill="#661800"/>
<path d="M37.3209 50.9917V54.5787H32.7034V50.9917H37.3209Z" fill="#C0C4CD"/>
<path d="M26.0808 50.6142L32.7076 54.576V50.9891L32.1144 48.8169L26.0808 50.6142Z" fill="#E7EBF6"/>
<path d="M43.9486 50.6142L37.3218 54.576V50.9891L37.915 48.8169L43.9486 50.6142Z" fill="#E7EBF6"/>
</g>
<defs>
<clipPath id="clip0_63_977">
<rect width="70" height="70" fill="white"/>
</clipPath>
</defs>
</svg>
