<?xml version="1.0" encoding="UTF-8"?>
<svg width="433px" height="402px" viewBox="0 0 433 402" version="1.1" xmlns="http://www.w3.org/2000/svg" xmlns:xlink="http://www.w3.org/1999/xlink">
    <title>PulseChain Logo Shape</title>
    <defs>
        <linearGradient x1="76.2262818%" y1="7.45934826%" x2="23.6511094%" y2="92.5655852%" id="linearGradient-1">
            <stop stop-color="#00EAFF" offset="0%"></stop>
            <stop stop-color="#0080FF" offset="25.2530882%"></stop>
            <stop stop-color="#8000FF" offset="49.7394282%"></stop>
            <stop stop-color="#E619E6" offset="74.9912298%"></stop>
            <stop stop-color="#FF0000" offset="99.9136118%"></stop>
        </linearGradient>
    </defs>
    <g id="Page-1" stroke="none" stroke-width="1" fill="none" fill-rule="evenodd">
        <g id="Logo" transform="translate(-133.000000, -149.000000)" fill="url(#linearGradient-1)">
            <path d="M565.598765,372.951028 C565.598765,375.002407 565.123895,376.952504 564.22332,378.644848 L471.558363,539.145156 C467.628442,545.95198 460.365648,550.145156 452.505805,550.145156 L246.592961,550.145156 C238.733118,550.145156 231.470323,545.95198 227.540402,539.145156 L134.86679,378.629552 C133.968844,376.940022 133.5,374.999302 133.5,372.951028 C133.5,366.307901 138.885318,360.922583 145.528445,360.922583 L247.199342,360.922583 L272.965382,404.687949 L273.123755,404.949452 C276.56213,410.470142 283.796681,412.269462 289.433324,408.951035 L289.433324,408.951035 L289.725027,408.773687 C292.323961,407.142692 294.205446,404.576775 294.976025,401.597905 L294.976025,401.597905 L327.807505,274.677705 L355.998349,479.011885 L356.041062,479.296747 C357.082331,485.72482 363.072426,490.1783 369.557845,489.283548 L369.557845,489.283548 L369.85245,489.239203 C374.548041,488.473143 378.362876,485.004494 379.559058,480.380352 L379.559058,480.380352 L419.133013,327.39653 L435.381735,354.996566 L435.543066,355.262694 C437.735954,358.77701 441.59028,360.922583 445.747249,360.922583 L445.747249,360.922583 L553.57032,360.922583 L553.57032,360.922583 C560.213447,360.922583 565.598765,366.307901 565.598765,372.951028 Z M452.505805,149.493649 C460.365648,149.493649 467.628442,153.686825 471.558363,160.493649 L564.229106,321.001259 C565.125282,322.691832 565.598765,324.640838 565.598765,326.687777 C565.598765,333.330904 560.213447,338.716222 553.57032,338.716222 L451.566328,338.716222 L425.800288,294.950856 L425.62294,294.659153 C423.991945,292.060218 421.426028,290.178734 418.447158,289.408155 L418.447158,289.408155 L418.167463,289.339295 C411.826545,287.85703 405.429227,291.702682 403.789645,298.040901 L403.789645,298.040901 L370.95724,424.960175 L342.767321,220.62692 L342.722976,220.332314 C341.956916,215.636723 338.488267,211.821889 333.864125,210.625707 C327.432698,208.962014 320.870306,212.827026 319.206612,219.258453 L319.206612,219.258453 L279.631731,372.24135 L263.383935,344.64224 L263.222604,344.376112 C261.029716,340.861796 257.17539,338.716222 253.018421,338.716222 L253.018421,338.716222 L145.528445,338.716222 L145.528445,338.716222 C138.885318,338.716222 133.5,333.330904 133.5,326.687777 C133.5,324.65653 133.956256,322.735416 134.837658,321.056157 L227.540402,160.493649 C231.470323,153.686825 238.733118,149.493649 246.592961,149.493649 L452.505805,149.493649 Z" id="PulseChain-Logo-Shape"></path>
        </g>
    </g>
</svg>