<svg fill="none" height="24" width="24" xmlns="http://www.w3.org/2000/svg">
    <g clip-rule="evenodd" fill="#037dd6" fill-rule="evenodd">
        <path d="M16.32 8H8.64v8h7.68zM8.64 6c-1.06 0-1.92.895-1.92 2v8c0 1.105.86 2 1.92 2h7.68c1.06 0 1.92-.895 1.92-2V8c0-1.105-.86-2-1.92-2zM16.32 1c0-.552.43-1 .96-1h3.84C22.71 0 24 1.343 24 3v4c0 .552-.43 1-.96 1s-.96-.448-.96-1V3c0-.552-.43-1-.96-1h-3.84c-.53 0-.96-.448-.96-1zM23.04 16c.53 0 .96.448.96 1v4c0 1.657-1.29 3-2.88 3h-3.84c-.53 0-.96-.448-.96-1s.43-1 .96-1h3.84c.53 0 .96-.448.96-1v-4c0-.552.43-1 .96-1zM7.68 23c0 .552-.43 1-.96 1H2.88C1.29 24 0 22.657 0 21v-4c0-.552.43-1 .96-1s.96.448.96 1v4c0 .552.43 1 .96 1h3.84c.53 0 .96.448.96 1zM.96 8C.43 8 0 7.552 0 7V3c0-1.657 1.29-3 2.88-3h3.84c.53 0 .96.448.96 1s-.43 1-.96 1H2.88c-.53 0-.96.448-.96 1v4c0 .552-.43 1-.96 1z"/>
    </g>
</svg>
