<svg fill="none" height="24" viewBox="0 0 24 24" width="24" xmlns="http://www.w3.org/2000/svg"><g clip-rule="evenodd" fill="#037dd6" fill-rule="evenodd"><path d="m16.32 8h-7.68003v8h7.68003zm-7.68003-2c-1.06039 0-1.92.89543-1.92 2v8c0 1.1046.85961 2 1.92 2h7.68003c1.0604 0 1.92-.8954 1.92-2v-8c0-1.10457-.8596-2-1.92-2z"/><path d="m16.32 1c0-.552285.4298-1 .96-1h3.84c1.5906 0 2.88 1.34315 2.88 3v4c0 .55228-.4298 1-.96 1s-.96-.44772-.96-1v-4c0-.55228-.4298-1-.96-1h-3.84c-.5302 0-.96-.44772-.96-1z"/><path d="m23.04 16c.5302 0 .96.4477.96 1v4c0 1.6569-1.2894 3-2.88 3h-3.84c-.5302 0-.96-.4477-.96-1s.4298-1 .96-1h3.84c.5302 0 .96-.4477.96-1v-4c0-.5523.4298-1 .96-1z"/><path d="m7.67999 23c0 .5523-.4298 1-.96 1h-3.84c-1.59058 0-2.87999656-1.3431-2.87999642-3l.00000033-4c.00000005-.5523.42980709-1 .96000009-1 .530196 0 .959996.4477.959996 1v4c0 .5523.42981 1 .96 1h3.84c.5302 0 .96.4477.96 1z"/><path d="m.96 8c-.530193 0-.95999994-.44772-.95999987-1l.00000053-4c.00000021-1.65685 1.28941934-2.99999983 2.87999934-2.99999962l3.84.0000005c.53019.00000007.96.44771512.96.99999912 0 .55229-.42981 1-.96 1h-3.84c-.53019 0-.96.44772-.96 1v4c0 .55229-.42981 1-.96 1z"/></g></svg>