<?xml version="1.0" encoding="utf-8"?>
<!-- Generator: Adobe Illustrator 16.0.0, SVG Export Plug-In . SVG Version: 6.00 Build 0)  -->
<!DOCTYPE svg PUBLIC "-//W3C//DTD SVG 1.1//EN" "http://www.w3.org/Graphics/SVG/1.1/DTD/svg11.dtd">
<svg version="1.1" id="Layer_1" xmlns="http://www.w3.org/2000/svg" xmlns:xlink="http://www.w3.org/1999/xlink" x="0px" y="0px"
	 width="24.088px" height="24px" viewBox="162.458 0 24.088 24" enable-background="new 162.458 0 24.088 24" xml:space="preserve">
<g>
	<rect x="168.545" y="6.167" fill="#1D1D1B" width="2" height="2"/>
	<path fill="#1D1D1B" d="M167.545,5.167h4.001v4.001h-4.001V5.167z M166.545,10.167h6v-6h-6V10.167z"/>
	<rect x="178.545" y="6.167" fill="#1D1D1B" width="2" height="2"/>
	<path fill="#1D1D1B" d="M176.545,10.167h6v-6h-6V10.167z M181.545,9.167h-4v-4h4V9.167z"/>
	<rect x="168.545" y="16.167" fill="#1D1D1B" width="2" height="2"/>
	<path fill="#1D1D1B" d="M167.546,15.167h4.001v4.001h-4.001V15.167z M166.546,20.167h5.999v-6h-5.999V20.167z"/>
	<polygon fill="#1D1D1B" points="173.545,15.167 173.545,16.167 174.546,16.167 174.546,18.167 175.546,18.167 175.546,14.167 
		174.546,14.167 174.546,15.167 	"/>
	<path fill="#1D1D1B" d="M177.545,16.167h1v1h-1V16.167z M179.544,15.166h1.002v2.002h-1.002V15.166z M174.545,9.167v1h-1v1h1v2h2v5
		h1v1h-1v1h2v-1h0.999v-1h1.001v1h-0.875v1h2.875v-2h-1v-2h1v-1.001h-1v-1.999h-1v0.999h-1.001v1h-1.999v-1.999h1v0.999h0.999
		v-0.999h1.001v-1h-1.001v-1h-0.999v1h-1v-1h-2v-2H174.545z"/>
	<polygon fill="#1D1D1B" points="175.545,7.167 175.545,4.167 173.545,4.167 173.545,5.167 174.545,5.167 174.545,6.167 
		173.545,6.167 173.545,9.167 174.545,9.167 174.545,7.167 	"/>
	<rect x="169.546" y="11.167" fill="#1D1D1B" width="1.001" height="1"/>
	<polygon fill="#1D1D1B" points="171.545,11.167 171.545,12.167 170.545,12.167 170.545,13.167 172.545,13.167 172.545,12.167 
		173.545,12.167 173.545,11.167 	"/>
	<polygon fill="#1D1D1B" points="180.545,11.167 180.545,12.167 181.545,12.167 181.545,13.167 182.545,13.167 182.545,11.167 	"/>
	<rect x="173.545" y="13.167" fill="#1D1D1B" width="1" height="1"/>
	<rect x="173.545" y="18.167" fill="#1D1D1B" width="1" height="1"/>
	<rect x="174.545" y="19.167" fill="#1D1D1B" width="1" height="1"/>
	<polygon fill="#1D1D1B" points="166.545,11.167 166.545,13.167 169.545,13.167 169.545,12.167 168.545,12.167 168.545,11.167 	"/>
</g>
</svg>
