<svg height="24" viewBox="162.458 0 24.088 24" width="24.088" xmlns="http://www.w3.org/2000/svg">
    <g fill="#1d1d1b">
        <path d="M168.545 6.167h2v2h-2z"/>
        <path d="M167.545 5.167h4.001v4.001h-4.001zm-1 5h6v-6h-6zM178.545 6.167h2v2h-2z"/>
        <path d="M176.545 10.167h6v-6h-6zm5-1h-4v-4h4zM168.545 16.167h2v2h-2z"/>
        <path d="M167.546 15.167h4.001v4.001h-4.001zm-1 5h5.999v-6h-5.999zM173.545 15.167v1h1.001v2h1v-4h-1v1z"/>
        <path d="M177.545 16.167h1v1h-1zm1.999-1.001h1.002v2.002h-1.002zm-4.999-5.999v1h-1v1h1v2h2v5h1v1h-1v1h2v-1h.999v-1h1.001v1h-.875v1h2.875v-2h-1v-2h1v-1.001h-1v-1.999h-1v.999h-1.001v1h-1.999v-1.999h1v.999h.999v-.999h1.001v-1h-1.001v-1h-.999v1h-1v-1h-2v-2zM175.545 7.167v-3h-2v1h1v1h-1v3h1v-2zM169.546 11.167h1.001v1h-1.001z"/>
        <path d="M171.545 11.167v1h-1v1h2v-1h1v-1zM180.545 11.167v1h1v1h1v-2zM173.545 13.167h1v1h-1zM173.545 18.167h1v1h-1zM174.545 19.167h1v1h-1zM166.545 11.167v2h3v-1h-1v-1z"/>
    </g>
</svg>
