<?xml version="1.0" encoding="UTF-8"?>
<svg width="297px" height="101px" viewBox="0 0 297 101" version="1.1" xmlns="http://www.w3.org/2000/svg" xmlns:xlink="http://www.w3.org/1999/xlink">
    <title>png-chahua</title>
    <g id="Page-1" stroke="none" stroke-width="1" fill="none" fill-rule="evenodd">
        <g id="png-chahua" transform="translate(1.000000, 0.000000)">
            <g id="P-1">
                <g id="png-key" transform="translate(0.000000, 22.000000)">
                    <circle id="oval" stroke="#3098DC" fill="#D9F0FF" cx="32" cy="32" r="32"></circle>
                    <g id="png_logo" transform="translate(15.850003, 11.617735)">
                        <path d="M13.4677287,26.0869239 C13.6814978,26.2099569 13.8780148,26.3607837 14.0521451,26.5354635 L20.8323207,33.3370367 C22.2800205,34.7893053 22.3263651,37.1092074 20.9740009,38.6170536 L20.8237527,38.7754247 C20.8235032,38.7756734 20.8232537,38.7759221 20.8230041,38.7761707 L19.8377351,39.7578004 C18.7942353,40.7974458 17.2102004,41.0696737 15.8794816,40.438055 L8.37983921,36.8783886 C6.63920381,36.052205 5.89789413,33.9713871 6.7240777,32.2307517 C6.76351709,32.1476593 6.80622708,32.066159 6.85210754,31.986442 L9.6565953,27.1136614 C10.425485,25.7777203 12.1317875,25.3180342 13.4677287,26.0869239 Z M16.4259709,0.276152586 C16.7491885,0.460847609 17.0173036,0.728398213 17.2026794,1.05122584 L18.5283228,3.35980278 C19.1466826,4.43666186 19.1460308,5.76104031 18.5266115,6.83729026 L3.68360588,32.6272236 C3.39176095,33.1343083 2.7441005,33.3087947 2.23701577,33.0169497 C2.07620665,32.9243985 1.94252531,32.7912356 1.8493499,32.6307873 C1.23868219,31.579216 0.773046665,30.4498818 0.465104842,29.2734937 L0.222743083,28.3476321 C-0.230049649,26.6178897 0.0132040067,24.7795765 0.900309637,23.2271354 L13.5700193,1.05505383 C14.1435809,0.0513169242 15.422234,-0.297409042 16.4259709,0.276152586 Z M22.314756,10.7149284 C22.7424128,10.9610537 23.0971746,11.3161563 23.3428892,11.7440492 L26.2513718,16.8089476 C27.0189573,18.1456385 26.5576062,19.8514916 25.2209153,20.6190771 C24.7979802,20.8619446 24.3187864,20.9897452 23.8310788,20.9897452 L17.4043388,20.9897452 C16.0556092,20.9897452 14.9622479,19.8963838 14.9622479,18.5476542 C14.9622479,18.1201149 15.0744902,17.7000673 15.2877511,17.3295143 L18.5036388,11.7417258 C19.2725074,10.4057726 20.9788028,9.94605968 22.314756,10.7149284 Z" id="combine" fill="#000000"></path>
                        <path d="M31.1744255,25.3821635 C31.8384048,26.538444 31.6433147,27.9964878 30.6987072,28.937535 L27.4928953,32.1312641 C26.2639847,33.3541704 24.2764867,33.3507256 23.0518226,32.1235666 L17.3441941,26.3978915 C16.6640589,25.7156057 16.6658022,24.6111453 17.348088,23.9310101 C17.6750575,23.6050712 18.1179052,23.422047 18.5795817,23.422047 L27.7885506,23.422047 C29.1867243,23.422047 30.4781713,24.1696784 31.1744255,25.3821635 Z" id="path" fill="#2161FF"></path>
                    </g>
                </g>
                <path d="M83,17.0235687 L73.4978847,30 L64.0002855,17.0235687 L73.4973317,22.4634417 L73.4978847,22.4646936 L83,17.0235687 Z M73.4973317,11.0923553 L82.9936676,15.2782188 L73.4978847,20.720593 L64.0002855,15.2782188 L73.4973317,11.0923553 Z M73.4970462,0 L82.9936676,15.2781544 L73.4978847,11.0897901 L64,15.2781544 L73.4970462,0 Z" id="combine" fill="#3098DC" fill-rule="nonzero"></path>
                <g id="png-key" transform="translate(64.000000, 77.000000)" fill-rule="nonzero">
                    <g id="Airgap_Logo_sideways_color-xs">
                        <path d="M9.79205788,0.504426266 C9.79205788,0.0716219234 9.47417837,-0.113865652 9.09272297,0.0716219234 C9.09272297,0.0716219234 7.56690134,0.937230609 6.35895922,1.49369334 C4.96028939,2.11198525 2.73513285,2.73027717 1.33646303,2.97759394 C0.446400413,3.16308152 0.319248611,3.71954424 0.25567271,4.21417778 C0.192096809,5.01795727 0.128520908,6.00722434 0.128520908,6.81100384 C0.0649450067,8.91319636 -0.125782697,11.0772181 0.128520908,13.1175814 C0.25567271,14.3541652 0.637128117,15.7762367 1.20931123,16.8891621 C2.09937384,18.4967211 3.24374006,19.9806217 4.57883399,21.2172055 C5.97750381,22.4537894 9.02914707,23.8758608 9.02914707,23.8758608 C9.47417837,24.0613484 9.79205788,23.8758608 9.79205788,23.3812273 L9.79205788,0.504426266 Z" id="path" fill="#3098DC"></path>
                        <path d="M12.2079421,23.4430564 C12.2079421,23.8758608 12.5258216,24.1231776 12.9708529,23.93769 C12.9708529,23.93769 16.0224962,22.5156186 17.421166,21.2790347 C18.8198358,20.0424509 19.9642021,18.5585503 20.7906888,16.9509913 C21.3628719,15.8380658 21.7443273,14.4159944 21.8714791,13.1794106 C22.1257827,11.1390473 21.935055,8.91319636 21.8714791,6.87283303 C21.8714791,6.06905353 21.8079032,5.07978646 21.7443273,4.27600697 C21.6807514,3.71954424 21.5535996,3.16308152 20.663537,3.03942313 C19.2648671,2.79210637 17.0397106,2.17381445 15.6410408,1.55552253 C14.4966746,0.999059801 12.907277,0.133451115 12.907277,0.133451115 C12.5258216,-0.113865652 12.2079421,0.0716219234 12.2079421,0.566255458 L12.2079421,23.4430564 L12.2079421,23.4430564 Z" id="path" fill="#3098DC"></path>
                        <path d="M9.85563378,1.18454738 L9.8542943,3.37036304 C9.98221357,3.6905739 10.2954143,3.90503182 10.6821205,3.90503182 L10.6821205,3.90503182 L11.3814554,3.90503182 L11.3814554,4.09051939 L9.85479032,4.08954738 L9.85479032,8.54154738 L12.8437011,8.54222121 L12.8437011,13.7358733 L9.85479032,13.7355474 L9.85479032,17.8165474 L12.907277,17.8166 C13.8609156,17.8166 14.5602505,18.5585503 14.5602505,19.424159 C14.5602505,20.2897677 13.8609156,21.031718 12.907277,21.031718 L9.85479032,21.0315474 L9.85563378,22.9484229 L9.53775427,22.8247645 C8.01193265,22.1446434 6.42253512,21.4026931 5.214593,20.2897677 C3.94307498,19.1768422 2.92586056,17.6929416 2.16294974,16.2708702 C1.65434253,15.2816031 1.33646303,14.0450193 1.20931123,12.9320938 C0.955007622,11.0772181 1.14573533,9.16051313 1.20931123,7.30563737 C1.20931123,6.3163703 1.27288713,5.26527404 1.40003893,4.21417778 C1.40003893,4.21417778 4.26095448,3.53405667 6.29538332,2.79210637 C7.50332544,2.29747283 8.64769166,1.8028393 9.85563378,1.18454738 Z" id="combine" fill="#FFFFFF"></path>
                        <path d="M12.3350939,1.18454738 C13.4158842,1.8028393 14.5602505,2.35930202 15.7681926,2.79210637 C17.7390455,3.59588586 20.663537,4.21417778 20.663537,4.21417778 L20.663537,4.21417778 L20.8542647,7.36746656 C20.9178406,9.22234232 21.0449924,11.1390473 20.8542647,12.993923 C20.7271129,14.1068485 20.4092334,15.3434323 19.9006262,16.3326994 C19.0741394,17.7547708 18.1205009,19.2386714 16.8489829,20.3515969 C15.5774649,21.4645223 14.0516433,22.2064726 12.5258216,22.8865937 L12.5258216,22.8865937 L12.3350939,23.0102521 L12.3343299,17.8165474 L8.32981215,17.8166 C7.56690134,17.8166 6.99471823,17.1983081 6.99471823,16.4563578 C6.99471823,15.7144075 7.63047724,15.1579447 8.32981215,15.1579447 L12.3343299,15.1575474 L12.3343299,12.3135474 L10.8728482,12.3138019 C10.3006651,12.3138019 9.85563378,11.8191684 9.85563378,11.2627056 C9.85563378,10.9631464 9.98460231,10.699423 10.1929484,10.5197638 L8.39338805,10.5207553 C7.24902183,10.5207553 6.35895922,9.59331747 6.42253512,8.54222121 C6.42253512,7.49112495 7.31259773,6.62551626 8.39338805,6.62551626 L12.3343299,6.62454738 Z" id="combine" fill="#3098DC"></path>
                        <path d="M14.5602505,6.56368707 L4.83313759,6.56368707 C4.07022678,6.56368707 3.49804367,5.94539515 3.49804367,5.20344485 C3.49804367,4.46149455 4.13380268,3.90503182 4.83313759,3.90503182 L14.5602505,3.90503182 C15.3231613,3.90503182 15.8953444,4.52332374 15.8953444,5.26527404 C15.8317685,6.00722434 15.2595854,6.56368707 14.5602505,6.56368707 Z" id="path" fill="#FFFFFF"></path>
                        <path d="M14.0516433,15.1579447 L4.83313759,15.1579447 C4.00665088,15.1579447 3.37089187,14.5396528 3.37089187,13.7358733 C3.37089187,12.9320938 4.00665088,12.3138019 4.83313759,12.3138019 L14.1152192,12.3138019 C14.9417059,12.3138019 15.5774649,12.9320938 15.5774649,13.7358733 C15.5774649,14.5396528 14.87813,15.1579447 14.0516433,15.1579447 L14.0516433,15.1579447 Z" id="path" fill="#FFFFFF"></path>
                    </g>
                </g>
            </g>
            <g id="Group" transform="translate(187.000000, 17.000000)">
                <g id="cp" stroke="#3098DC">
                    <path d="M10,0 L98,0 C100.209139,-4.05812251e-16 102,1.790861 102,4 L102,69 L102,69 L6,69 L6,4 C6,1.790861 7.790861,2.18216909e-15 10,0 Z" id="rectangle" fill="#FFFFFF"></path>
                    <rect id="rectangle" fill="#FFFFFF" x="10.5" y="4.5" width="87" height="57"></rect>
                    <rect id="rectangle" fill="#D9F0FF" x="0" y="66" width="108" height="7" rx="1"></rect>
                </g>
                <g id="5" transform="translate(35.000000, 17.000000)" fill-rule="nonzero">
                    <g id="4">
                        <path d="M35.7940726,0.865647154 L37.3076975,5.33187939 L36.0572619,11.2664578 L35.3130052,12.3918268 L36.2488109,13.108213 L35.0978726,14.1466087 L35.8822714,14.7050297 L34.478956,16.3199413 L37.0166977,24.0476925 L34.9619918,30.9406553 L27.2570674,28.8445942 L25.4588663,30.2992958 L22.489449,32.3310811 L15.4970666,32.3310811 L12.5415596,30.2997394 L10.7428766,28.8445914 L3.03908343,30.9403669 L0.996819559,24.0470926 L3.50539453,16.3206129 L2.11516087,14.7068706 L2.90215816,14.146619 L1.74643066,13.1038982 L2.66706954,12.387498 L1.5590983,11.552182 L0.692123065,5.33103555 L2.19338019,0.865960951 L13.1228366,4.89862071 L24.8771779,4.89862071 L35.7940726,0.865647154 Z" id="symbol" stroke="#3098DC" stroke-width="1.33783784"></path>
                        <path d="M20.5,27.5 L21,30 L16.5,30 L17,27.5 L20.5,27.5 Z M14.3439693,19.0321194 L15.8156414,22.0321194 L10.8156414,20.6010552 L14.3439693,19.0321194 Z M23.2820965,19.0321194 L26.8156414,20.6010552 L21.8156414,22.0321194 L23.2820965,19.0321194 Z" id="combine" fill="#3098DC"></path>
                    </g>
                </g>
            </g>
            <g id="code" transform="translate(82.000000, 37.000000)">
                <g id="p-2" transform="translate(26.000000, 0.000000)" fill="#3098DC" fill-rule="nonzero">
                    <g id="qr_code">
                        <path d="M1.94444444,11.6666667 L9.72222222,11.6666667 C10.7961092,11.6666667 11.6666667,10.7961092 11.6666667,9.72222222 L11.6666667,1.94444444 C11.6666667,0.870557431 10.7961092,0 9.72222222,0 L1.94444444,0 C0.870557431,0 0,0.870557431 0,1.94444444 L0,9.72222222 C0,10.7961092 0.870557431,11.6666667 1.94444444,11.6666667 Z M3.88888889,3.88888889 L7.77777778,3.88888889 L7.77777778,7.77777778 L3.88888889,7.77777778 L3.88888889,3.88888889 Z M0.972222222,19.4444444 L2.91666667,19.4444444 C3.45361017,19.4444444 3.88888889,19.0091657 3.88888889,18.4722222 L3.88888889,16.5277778 C3.88888889,15.9908343 3.45361017,15.5555556 2.91666667,15.5555556 L0.972222222,15.5555556 C0.435278715,15.5555556 0,15.9908343 0,16.5277778 L0,18.4722222 C0,19.0091657 0.435278715,19.4444444 0.972222222,19.4444444 Z M9.72222222,23.3333333 L1.94444444,23.3333333 C0.870557431,23.3333333 0,24.2038908 0,25.2777778 L0,33.0555556 C0,34.1294426 0.870557431,35 1.94444444,35 L9.72222222,35 C10.7961092,35 11.6666667,34.1294426 11.6666667,33.0555556 L11.6666667,25.2777778 C11.6666667,24.2038908 10.7961092,23.3333333 9.72222222,23.3333333 Z M7.77777778,31.1111111 L3.88888889,31.1111111 L3.88888889,27.2222222 L7.77777778,27.2222222 L7.77777778,31.1111111 Z M28.1944444,35 L34.0277778,35 C34.5647213,35 35,34.5647213 35,34.0277778 L35,28.1944444 C35,27.6575009 34.5647213,27.2222222 34.0277778,27.2222222 L32.0833333,27.2222222 C31.5463898,27.2222222 31.1111111,27.6575009 31.1111111,28.1944444 L31.1111111,31.1111111 L27.2222222,31.1111111 L27.2222222,34.0277778 C27.2222222,34.5647213 27.6575009,35 28.1944444,35 Z M33.0555556,0 L25.2777778,0 C24.2038908,0 23.3333333,0.870557431 23.3333333,1.94444444 L23.3333333,9.72222222 C23.3333333,10.7961092 24.2038908,11.6666667 25.2777778,11.6666667 L33.0555556,11.6666667 C34.1294426,11.6666667 35,10.7961092 35,9.72222222 L35,1.94444444 C35,0.870557431 34.1294426,0 33.0555556,0 Z M31.1111111,7.77777778 L27.2222222,7.77777778 L27.2222222,3.88888889 L31.1111111,3.88888889 L31.1111111,7.77777778 Z M8.75,15.5555556 C8.21305649,15.5555556 7.77777778,15.9908343 7.77777778,16.5277778 L7.77777778,18.4722222 C7.77777778,19.0091657 8.21305649,19.4444444 8.75,19.4444444 L15.5555556,19.4444444 L15.5555556,15.5555556 L8.75,15.5555556 Z M15.5555556,22.3611111 C15.5555556,22.8980546 15.9908343,23.3333333 16.5277778,23.3333333 L19.4444444,23.3333333 L19.4444444,26.25 C19.4444444,26.7869435 19.8797232,27.2222222 20.4166667,27.2222222 L23.3333333,27.2222222 L23.3333333,19.4444444 L15.5555556,19.4444444 L15.5555556,22.3611111 Z M15.5555556,32.0833333 L15.5555556,34.0277778 C15.5555556,34.5647213 15.9908343,35 16.5277778,35 L22.3611111,35 C22.8980546,35 23.3333333,34.5647213 23.3333333,34.0277778 L23.3333333,31.1111111 L16.5277778,31.1111111 C15.9908343,31.1111111 15.5555556,31.5463898 15.5555556,32.0833333 Z M34.0277778,15.5555556 L24.3055556,15.5555556 C23.768612,15.5555556 23.3333333,15.9908343 23.3333333,16.5277778 L23.3333333,19.4444444 L27.2222222,19.4444444 L27.2222222,22.3611111 C27.2222222,22.8980546 27.6575009,23.3333333 28.1944444,23.3333333 L30.1388889,23.3333333 C30.6758324,23.3333333 31.1111111,22.8980546 31.1111111,22.3611111 L31.1111111,19.4444444 L34.0277778,19.4444444 C34.5647213,19.4444444 35,19.0091657 35,18.4722222 L35,16.5277778 C35,15.9908343 34.5647213,15.5555556 34.0277778,15.5555556 Z M27.2222222,31.1111111 L27.2222222,27.2222222 L23.3333333,27.2222222 L23.3333333,31.1111111 L27.2222222,31.1111111 Z M16.5277778,7.77777778 L18.4722222,7.77777778 C19.0091657,7.77777778 19.4444444,7.34249906 19.4444444,6.80555556 L19.4444444,0.972222222 C19.4444444,0.435278715 19.0091657,0 18.4722222,0 L16.5277778,0 C15.9908343,0 15.5555556,0.435278715 15.5555556,0.972222222 L15.5555556,6.80555556 C15.5555556,7.34249906 15.9908343,7.77777778 16.5277778,7.77777778 Z M19.4444444,14.5833333 L19.4444444,12.6388889 C19.4444444,12.1019454 19.0091657,11.6666667 18.4722222,11.6666667 L16.5277778,11.6666667 C15.9908343,11.6666667 15.5555556,12.1019454 15.5555556,12.6388889 L15.5555556,15.5555556 L18.4722222,15.5555556 C19.0091657,15.5555556 19.4444444,15.1202768 19.4444444,14.5833333 Z" id="Icon-color"></path>
                    </g>
                </g>
                <g id="4" transform="translate(73.000000, 12.000000)">
                    <rect id="path" fill="#3098DC" x="0" y="5" width="14" height="1"></rect>
                    <polyline id="path" stroke="#3098DC" points="8 0 14 5.5 8 10.5"></polyline>
                </g>
                <g id="4" transform="translate(7.000000, 17.250000) scale(-1, 1) translate(-7.000000, -17.250000) translate(0.000000, 12.000000)">
                    <rect id="path" fill="#3098DC" x="0" y="5" width="14" height="1"></rect>
                    <polyline id="path" stroke="#3098DC" points="8 0 14 5.5 8 10.5"></polyline>
                </g>
            </g>
        </g>
    </g>
</svg>