<?xml version="1.0" encoding="UTF-8"?>
<svg width="315px" height="100px" viewBox="0 0 315 100" version="1.1" xmlns="http://www.w3.org/2000/svg" xmlns:xlink="http://www.w3.org/1999/xlink">
    <title>2</title>
    <g id="Page-1" stroke="none" stroke-width="1" fill="none" fill-rule="evenodd">
        <g id="2">
            <rect id="base" fill="#FBFBFB" x="0" y="0" width="315" height="100" rx="5"></rect>
            <g id="QR-Code" transform="translate(52.000000, 38.000000)" fill="#000000" fill-rule="nonzero">
                <g id="qr_code">
                    <path d="M1.33333333,8 L6.66666667,8 C7.40304633,8 8,7.40304633 8,6.66666667 L8,1.33333333 C8,0.596953667 7.40304633,0 6.66666667,0 L1.33333333,0 C0.596953667,0 0,0.596953667 0,1.33333333 L0,6.66666667 C0,7.40304633 0.596953667,8 1.33333333,8 Z M2.66666667,2.66666667 L5.33333333,2.66666667 L5.33333333,5.33333333 L2.66666667,5.33333333 L2.66666667,2.66666667 Z M0.666666667,13.3333333 L2,13.3333333 C2.36818983,13.3333333 2.66666667,13.0348565 2.66666667,12.6666667 L2.66666667,11.3333333 C2.66666667,10.9651435 2.36818983,10.6666667 2,10.6666667 L0.666666667,10.6666667 C0.298476833,10.6666667 0,10.9651435 0,11.3333333 L0,12.6666667 C0,13.0348565 0.298476833,13.3333333 0.666666667,13.3333333 Z M6.66666667,16 L1.33333333,16 C0.596953667,16 0,16.5969537 0,17.3333333 L0,22.6666667 C0,23.4030463 0.596953667,24 1.33333333,24 L6.66666667,24 C7.40304633,24 8,23.4030463 8,22.6666667 L8,17.3333333 C8,16.5969537 7.40304633,16 6.66666667,16 Z M5.33333333,21.3333333 L2.66666667,21.3333333 L2.66666667,18.6666667 L5.33333333,18.6666667 L5.33333333,21.3333333 Z M19.3333333,24 L23.3333333,24 C23.7015232,24 24,23.7015232 24,23.3333333 L24,19.3333333 C24,18.9651435 23.7015232,18.6666667 23.3333333,18.6666667 L22,18.6666667 C21.6318102,18.6666667 21.3333333,18.9651435 21.3333333,19.3333333 L21.3333333,21.3333333 L18.6666667,21.3333333 L18.6666667,23.3333333 C18.6666667,23.7015232 18.9651435,24 19.3333333,24 Z M22.6666667,0 L17.3333333,0 C16.5969537,0 16,0.596953667 16,1.33333333 L16,6.66666667 C16,7.40304633 16.5969537,8 17.3333333,8 L22.6666667,8 C23.4030463,8 24,7.40304633 24,6.66666667 L24,1.33333333 C24,0.596953667 23.4030463,0 22.6666667,0 Z M21.3333333,5.33333333 L18.6666667,5.33333333 L18.6666667,2.66666667 L21.3333333,2.66666667 L21.3333333,5.33333333 Z M6,10.6666667 C5.63181017,10.6666667 5.33333333,10.9651435 5.33333333,11.3333333 L5.33333333,12.6666667 C5.33333333,13.0348565 5.63181017,13.3333333 6,13.3333333 L10.6666667,13.3333333 L10.6666667,10.6666667 L6,10.6666667 Z M10.6666667,15.3333333 C10.6666667,15.7015232 10.9651435,16 11.3333333,16 L13.3333333,16 L13.3333333,18 C13.3333333,18.3681898 13.6318102,18.6666667 14,18.6666667 L16,18.6666667 L16,13.3333333 L10.6666667,13.3333333 L10.6666667,15.3333333 Z M10.6666667,22 L10.6666667,23.3333333 C10.6666667,23.7015232 10.9651435,24 11.3333333,24 L15.3333333,24 C15.7015232,24 16,23.7015232 16,23.3333333 L16,21.3333333 L11.3333333,21.3333333 C10.9651435,21.3333333 10.6666667,21.6318102 10.6666667,22 Z M23.3333333,10.6666667 L16.6666667,10.6666667 C16.2984768,10.6666667 16,10.9651435 16,11.3333333 L16,13.3333333 L18.6666667,13.3333333 L18.6666667,15.3333333 C18.6666667,15.7015232 18.9651435,16 19.3333333,16 L20.6666667,16 C21.0348565,16 21.3333333,15.7015232 21.3333333,15.3333333 L21.3333333,13.3333333 L23.3333333,13.3333333 C23.7015232,13.3333333 24,13.0348565 24,12.6666667 L24,11.3333333 C24,10.9651435 23.7015232,10.6666667 23.3333333,10.6666667 Z M18.6666667,21.3333333 L18.6666667,18.6666667 L16,18.6666667 L16,21.3333333 L18.6666667,21.3333333 Z M11.3333333,5.33333333 L12.6666667,5.33333333 C13.0348565,5.33333333 13.3333333,5.0348565 13.3333333,4.66666667 L13.3333333,0.666666667 C13.3333333,0.298476833 13.0348565,0 12.6666667,0 L11.3333333,0 C10.9651435,0 10.6666667,0.298476833 10.6666667,0.666666667 L10.6666667,4.66666667 C10.6666667,5.0348565 10.9651435,5.33333333 11.3333333,5.33333333 Z M13.3333333,10 L13.3333333,8.66666667 C13.3333333,8.29847683 13.0348565,8 12.6666667,8 L11.3333333,8 C10.9651435,8 10.6666667,8.29847683 10.6666667,8.66666667 L10.6666667,10.6666667 L12.6666667,10.6666667 C13.0348565,10.6666667 13.3333333,10.3681898 13.3333333,10 Z" id="Icon-color"></path>
                </g>
            </g>
            <text id="QR-based-HW-Wallet" font-family="Arial-Black, Arial Black" font-size="16" font-weight="700" letter-spacing="0.0333333333" fill="#22262D">
                <tspan x="85" y="55">QR-based HW Wallet</tspan>
            </text>
        </g>
    </g>
</svg>