<svg xmlns="http://www.w3.org/2000/svg" fill="none" width="297px" height="101px" viewBox="0 0 298 101"><path stroke="#3098DC" d="m94.395 49-6.317 5.5 6.317 5.5M102 54.417H88M168.605 49l6.317 5.5-6.317 5.5M161 54.417h14"/><path fill="#FEFEFE" fill-rule="evenodd" d="M287.508 92.558h-84.252a3.727 3.727 0 0 1-2.621-1.085 3.676 3.676 0 0 1-1.082-2.611V20.695a3.675 3.675 0 0 1 1.082-2.61A3.709 3.709 0 0 1 203.256 17h84.252a3.725 3.725 0 0 1 2.622 1.084 3.69 3.69 0 0 1 1.082 2.611v68.167a3.676 3.676 0 0 1-1.082 2.611 3.717 3.717 0 0 1-2.622 1.085" clip-rule="evenodd"/><path stroke="#3098DC" d="M287.508 92.558h-84.252a3.727 3.727 0 0 1-2.621-1.085 3.676 3.676 0 0 1-1.082-2.611V20.695a3.675 3.675 0 0 1 1.082-2.61A3.709 3.709 0 0 1 203.256 17h84.252a3.725 3.725 0 0 1 2.622 1.084 3.69 3.69 0 0 1 1.082 2.611v68.167a3.676 3.676 0 0 1-1.082 2.611 3.717 3.717 0 0 1-2.622 1.085Z" clip-rule="evenodd"/><path fill="#D9F0FF" fill-rule="evenodd" d="M295.766 93H195.235A1.238 1.238 0 0 1 194 91.768v-4.555c0-.68.553-1.232 1.235-1.232h100.531c.681 0 1.234.552 1.234 1.232v4.555c0 .68-.553 1.232-1.234 1.232Z" clip-rule="evenodd"/><path stroke="#3098DC" d="M295.766 93H195.235A1.238 1.238 0 0 1 194 91.768v-4.555c0-.68.553-1.232 1.235-1.232h100.531c.681 0 1.234.552 1.234 1.232v4.555c0 .68-.553 1.232-1.234 1.232Z" clip-rule="evenodd"/><path fill="#FEFEFE" fill-rule="evenodd" d="M203.875 81.007h83.25v-59.08h-83.25v59.08Z" clip-rule="evenodd"/><path stroke="#3098DC" d="M203.875 81.007h83.25v-59.08h-83.25v59.08Z" clip-rule="evenodd"/><path fill="#FEFEFE" fill-rule="evenodd" d="M247.996 68.728h-5.104a.432.432 0 0 1-.249-.078l-3.021-2.102-1.328-1.091-7.372 2.038a.441.441 0 0 1-.536-.302l-2.137-7.377a.43.43 0 0 1 .003-.256l2.27-7.104-1.363-1.608a.454.454 0 0 1-.086-.158.452.452 0 0 1 .043-.35.449.449 0 0 1 .121-.133l.244-.177-.681-.623a.437.437 0 0 1-.094-.523.435.435 0 0 1 .119-.148l.384-.302-.627-.48a.444.444 0 0 1-.171-.352.442.442 0 0 1 .177-.349l.46-.341-1.091-5.263a.42.42 0 0 1 .014-.23l1.663-5.026a.43.43 0 0 1 .394-.298.443.443 0 0 1 .173.026l10.772 4.043h8.942l10.77-4.043a.443.443 0 0 1 .343.014.432.432 0 0 1 .225.258l1.665 5.028a.438.438 0 0 1 .013.227l-1.079 5.266.451.341a.443.443 0 0 1 .002.7l-.625.479.384.302a.44.44 0 0 1 .024.67l-.681.624.245.177a.445.445 0 0 1 .179.304.435.435 0 0 1-.104.337l-1.361 1.607 2.284 7.104a.447.447 0 0 1 .003.256l-2.152 7.38a.442.442 0 0 1-.536.3l-7.372-2.038-1.368 1.121-2.981 2.072a.435.435 0 0 1-.248.078" clip-rule="evenodd"/><path stroke="#3098DC" d="M247.996 68.728h-5.104a.432.432 0 0 1-.249-.078l-3.021-2.102-1.328-1.091-7.372 2.038a.441.441 0 0 1-.536-.302l-2.137-7.377a.43.43 0 0 1 .003-.256l2.27-7.104-1.363-1.608a.454.454 0 0 1-.086-.158.452.452 0 0 1 .043-.35.449.449 0 0 1 .121-.133l.244-.177-.681-.623a.437.437 0 0 1-.094-.523.435.435 0 0 1 .119-.148l.384-.302-.627-.48a.444.444 0 0 1-.171-.352.442.442 0 0 1 .177-.349l.46-.341-1.091-5.263a.42.42 0 0 1 .014-.23l1.663-5.026a.43.43 0 0 1 .394-.298.443.443 0 0 1 .173.026l10.772 4.043h8.942l10.77-4.043a.443.443 0 0 1 .343.014.432.432 0 0 1 .225.258l1.665 5.028a.438.438 0 0 1 .013.227l-1.079 5.266.451.341a.443.443 0 0 1 .002.7l-.625.479.384.302a.44.44 0 0 1 .024.67l-.681.624.245.177a.445.445 0 0 1 .179.304.435.435 0 0 1-.104.337l-1.361 1.607 2.284 7.104a.447.447 0 0 1 .003.256l-2.152 7.38a.442.442 0 0 1-.536.3l-7.372-2.038-1.368 1.121-2.981 2.072a.435.435 0 0 1-.248.078Z" clip-rule="evenodd"/><path fill="#3098DC" fill-rule="evenodd" d="M246.597 63.808H244l-.451.358-.172 2.15h3.842l-.172-2.151-.45-.357Zm2.815-8.481-1.074 2.357c-.087.191.086.397.283.337l3.661-1.126c.209-.063.229-.36.031-.454l-2.587-1.233a.233.233 0 0 0-.313.118h-.001Zm-8.25-.119-2.585 1.233c-.198.094-.178.39.031.455l3.663 1.125c.196.06.368-.147.282-.338l-1.079-2.357a.228.228 0 0 0-.223-.14.233.233 0 0 0-.09.022" clip-rule="evenodd"/><path fill="#3098DC" d="M115.944 48.667h7.778c1.074 0 1.945-.871 1.945-1.945v-7.778A1.945 1.945 0 0 0 123.722 37h-7.778c-1.073 0-1.944.87-1.944 1.944v7.778c0 1.074.871 1.945 1.944 1.945Zm1.945-7.778h3.889v3.889h-3.889v-3.89Zm-2.917 15.555h1.945a.972.972 0 0 0 .972-.972v-1.944a.972.972 0 0 0-.972-.972h-1.945a.972.972 0 0 0-.972.972v1.944c0 .537.435.972.972.972Zm8.75 3.89h-7.778c-1.073 0-1.944.87-1.944 1.944v7.778c0 1.073.871 1.944 1.944 1.944h7.778c1.074 0 1.945-.87 1.945-1.944v-7.778a1.945 1.945 0 0 0-1.945-1.945Zm-1.944 7.777h-3.889v-3.889h3.889v3.89ZM142.194 72h5.834a.972.972 0 0 0 .972-.972v-5.834a.972.972 0 0 0-.972-.972h-1.945a.972.972 0 0 0-.972.972v2.917h-3.889v2.917c0 .537.435.972.972.972Zm4.862-35h-7.778c-1.074 0-1.945.87-1.945 1.944v7.778c0 1.074.871 1.945 1.945 1.945h7.778c1.073 0 1.944-.871 1.944-1.945v-7.778A1.945 1.945 0 0 0 147.056 37Zm-1.945 7.778h-3.889v-3.89h3.889v3.89Zm-22.361 7.778a.972.972 0 0 0-.972.972v1.944c0 .537.435.972.972.972h6.806v-3.888h-6.806Zm6.806 6.805c0 .537.435.972.972.972h2.916v2.917c0 .537.436.972.973.972h2.916v-7.778h-7.777v2.917Zm0 9.722v1.945c0 .537.435.972.972.972h5.833a.972.972 0 0 0 .972-.972V68.11h-6.805a.972.972 0 0 0-.972.972Zm18.472-16.527h-9.722a.973.973 0 0 0-.973.972v2.916h3.889v2.917c0 .537.435.972.972.972h1.945a.972.972 0 0 0 .972-.972v-2.917h2.917a.972.972 0 0 0 .972-.972v-1.944a.972.972 0 0 0-.972-.972Zm-6.806 15.555v-3.889h-3.889v3.89h3.889Zm-10.694-23.333h1.944a.972.972 0 0 0 .972-.972v-5.834a.972.972 0 0 0-.972-.972h-1.944a.972.972 0 0 0-.972.972v5.834c0 .537.435.972.972.972Zm2.916 6.805V49.64a.972.972 0 0 0-.972-.972h-1.944a.972.972 0 0 0-.972.972v2.917h2.916a.972.972 0 0 0 .972-.973Z"/><circle cx="32" cy="54" r="31.5" fill="#D9F0FF" stroke="#3098DC"/><path fill="#3098DC" d="M85.993 16.81 76 22.79l-10-5.98L76 0l9.993 16.81ZM76 24.71l-10-5.98L76 33l10-14.27-10 5.981ZM77.93 100.986a.234.234 0 0 1-.312-.219V99.52l.005-4.222c0-.596-.49-1.083-1.091-1.083h-1.78c-2.024 0-3.705-1.607-3.725-3.62-.02-2.033 1.638-3.693 3.679-3.693h3.524c.782 0 1.443-.607 1.467-1.383a1.434 1.434 0 0 0-1.433-1.473l-1.75.01c-1.837 0-3.332-1.486-3.332-3.312v-2.107c-.744.38-1.66.824-2.583 1.214-1.098.463-2.403.888-3.21 1.136-.1 1.68-.288 5.806.037 8.901.184 1.752 1.015 3.582 2.34 5.153 1.316 1.558 3.031 2.767 4.835 3.409.45.145.775.564.775 1.06v1.246c0 .161-.16.273-.313.22l-1.183-.416c-2.185-.77-4.256-2.221-5.83-4.087-1.61-1.908-2.624-4.165-2.854-6.353-.437-4.162-.01-9.823.008-10.062l.06-.774.75-.213c.022-.006 2.145-.611 3.71-1.271 1.985-.838 4.001-1.984 4.022-1.996l1.327-.756a.234.234 0 0 1 .351.202v5.494c0 .597.488 1.082 1.088 1.084l1.749-.01c2.04 0 3.698 1.66 3.678 3.692-.02 2.013-1.7 3.62-3.725 3.62h-3.478c-.782 0-1.443.609-1.466 1.386a1.434 1.434 0 0 0 1.436 1.471h1.826c1.837 0 3.332 1.486 3.332 3.313l-.003 2.5a11.85 11.85 0 0 0 3.371-2.775c1.332-1.588 2.166-3.429 2.35-5.184.326-3.095.116-7.185.007-8.852-.813-.25-2.133-.678-3.232-1.144-1.973-.837-3.894-1.925-4.191-2.096a1.113 1.113 0 0 1-.595-.983v-1.533c0-.18.196-.291.352-.201l1.332.77c.02.011 2.012 1.158 3.982 1.993 1.555.66 3.7 1.27 3.721 1.276l.746.211.064.768c.02.237.482 5.857.044 10.022-.47 4.474-4.128 8.889-8.7 10.498l-1.182.416Z"/><path fill="#000" d="M34.5 40.5h-15L17 62h7.5l10-21.5Z"/><path fill="#1F5AFF" d="M47.5 47H40L30 68.5h15L47.5 47Z"/></svg>