<svg width="315" height="100" viewBox="0 0 315 100" fill="none" xmlns="http://www.w3.org/2000/svg">
<path d="M310 0H5C2.23858 0 0 2.23858 0 5V95C0 97.7614 2.23858 100 5 100H310C312.761 100 315 97.7614 315 95V5C315 2.23858 312.761 0 310 0Z" fill="#FBFBFB"/>
<path d="M34.3333 46H39.6667C40.403 46 41 45.403 41 44.6667V39.3333C41 38.597 40.403 38 39.6667 38H34.3333C33.597 38 33 38.597 33 39.3333V44.6667C33 45.403 33.597 46 34.3333 46ZM35.6667 40.6667H38.3333V43.3333H35.6667V40.6667ZM33.6667 51.3333H35C35.3682 51.3333 35.6667 51.0349 35.6667 50.6667V49.3333C35.6667 48.9651 35.3682 48.6667 35 48.6667H33.6667C33.2985 48.6667 33 48.9651 33 49.3333V50.6667C33 51.0349 33.2985 51.3333 33.6667 51.3333ZM39.6667 54H34.3333C33.597 54 33 54.597 33 55.3333V60.6667C33 61.403 33.597 62 34.3333 62H39.6667C40.403 62 41 61.403 41 60.6667V55.3333C41 54.597 40.403 54 39.6667 54ZM38.3333 59.3333H35.6667V56.6667H38.3333V59.3333ZM52.3333 62H56.3333C56.7015 62 57 61.7015 57 61.3333V57.3333C57 56.9651 56.7015 56.6667 56.3333 56.6667H55C54.6318 56.6667 54.3333 56.9651 54.3333 57.3333V59.3333H51.6667V61.3333C51.6667 61.7015 51.9651 62 52.3333 62ZM55.6667 38H50.3333C49.597 38 49 38.597 49 39.3333V44.6667C49 45.403 49.597 46 50.3333 46H55.6667C56.403 46 57 45.403 57 44.6667V39.3333C57 38.597 56.403 38 55.6667 38ZM54.3333 43.3333H51.6667V40.6667H54.3333V43.3333ZM39 48.6667C38.6318 48.6667 38.3333 48.9651 38.3333 49.3333V50.6667C38.3333 51.0349 38.6318 51.3333 39 51.3333H43.6667V48.6667H39ZM43.6667 53.3333C43.6667 53.7015 43.9651 54 44.3333 54H46.3333V56C46.3333 56.3682 46.6318 56.6667 47 56.6667H49V51.3333H43.6667V53.3333ZM43.6667 60V61.3333C43.6667 61.7015 43.9651 62 44.3333 62H48.3333C48.7015 62 49 61.7015 49 61.3333V59.3333H44.3333C43.9651 59.3333 43.6667 59.6318 43.6667 60ZM56.3333 48.6667H49.6667C49.2985 48.6667 49 48.9651 49 49.3333V51.3333H51.6667V53.3333C51.6667 53.7015 51.9651 54 52.3333 54H53.6667C54.0349 54 54.3333 53.7015 54.3333 53.3333V51.3333H56.3333C56.7015 51.3333 57 51.0349 57 50.6667V49.3333C57 48.9651 56.7015 48.6667 56.3333 48.6667ZM51.6667 59.3333V56.6667H49V59.3333H51.6667ZM44.3333 43.3333H45.6667C46.0349 43.3333 46.3333 43.0349 46.3333 42.6667V38.6667C46.3333 38.2985 46.0349 38 45.6667 38H44.3333C43.9651 38 43.6667 38.2985 43.6667 38.6667V42.6667C43.6667 43.0349 43.9651 43.3333 44.3333 43.3333ZM46.3333 48V46.6667C46.3333 46.2985 46.0349 46 45.6667 46H44.3333C43.9651 46 43.6667 46.2985 43.6667 46.6667V48.6667H45.6667C46.0349 48.6667 46.3333 48.3682 46.3333 48Z" fill="black"/>
<path d="M82.592 56.192C81.7707 56.192 81.0027 56.0427 80.288 55.744C79.584 55.4347 78.9653 55.0187 78.432 54.496C77.8987 53.9627 77.4773 53.3387 77.168 52.624C76.8693 51.9093 76.72 51.1413 76.72 50.32C76.72 49.4987 76.8693 48.7307 77.168 48.016C77.4773 47.3013 77.8987 46.6827 78.432 46.16C78.9653 45.6267 79.584 45.2107 80.288 44.912C81.0027 44.6027 81.7707 44.448 82.592 44.448C83.4133 44.448 84.1813 44.6027 84.896 44.912C85.6107 45.2107 86.2293 45.6267 86.752 46.16C87.2853 46.6827 87.7013 47.3013 88 48.016C88.3093 48.7307 88.464 49.4987 88.464 50.32C88.464 51.0347 88.3467 51.7067 88.112 52.336C87.888 52.9653 87.5733 53.536 87.168 54.048L89.28 56H87.248L86.16 55.008C85.6693 55.3813 85.12 55.6747 84.512 55.888C83.904 56.0907 83.264 56.192 82.592 56.192ZM82.592 54.784C83.5413 54.784 84.3787 54.528 85.104 54.016L83.296 52.336L84.208 51.312L86.08 53.056C86.3573 52.6827 86.576 52.2667 86.736 51.808C86.896 51.3387 86.976 50.8427 86.976 50.32C86.976 49.7013 86.864 49.12 86.64 48.576C86.416 48.032 86.1067 47.5573 85.712 47.152C85.328 46.7467 84.864 46.432 84.32 46.208C83.7867 45.9733 83.2107 45.856 82.592 45.856C81.9733 45.856 81.3973 45.9733 80.864 46.208C80.3307 46.432 79.8667 46.7467 79.472 47.152C79.088 47.5573 78.784 48.032 78.56 48.576C78.336 49.12 78.224 49.7013 78.224 50.32C78.224 50.9493 78.336 51.536 78.56 52.08C78.784 52.6133 79.088 53.0827 79.472 53.488C79.8667 53.8933 80.3307 54.2133 80.864 54.448C81.3973 54.672 81.9733 54.784 82.592 54.784ZM90.9259 44.64H94.7979C95.3205 44.64 95.7899 44.7147 96.2059 44.864C96.6325 45.0133 96.9899 45.2267 97.2779 45.504C97.5765 45.7813 97.8005 46.112 97.9499 46.496C98.1099 46.88 98.1899 47.3067 98.1899 47.776C98.1899 48.608 97.9392 49.2907 97.4379 49.824C96.9472 50.3573 96.2592 50.688 95.3739 50.816L99.7579 56H97.8859L93.5179 50.832H92.4139V56H90.9259V44.64ZM94.6219 49.504C95.2725 49.504 95.7792 49.36 96.1419 49.072C96.5152 48.784 96.7019 48.352 96.7019 47.776C96.7019 47.2 96.5152 46.7627 96.1419 46.464C95.7792 46.1653 95.2725 46.016 94.6219 46.016H92.4139V49.504H94.6219ZM99.8681 50.832H103.948V52.208H99.8681V50.832ZM110.488 56.16C109.88 56.16 109.325 56.0267 108.824 55.76C108.323 55.4827 107.939 55.152 107.672 54.768V56H106.296V44H107.672V49.232C107.939 48.848 108.323 48.5227 108.824 48.256C109.325 47.9787 109.88 47.84 110.488 47.84C111.043 47.84 111.56 47.952 112.04 48.176C112.52 48.3893 112.936 48.688 113.288 49.072C113.64 49.4453 113.912 49.8827 114.104 50.384C114.307 50.8853 114.408 51.424 114.408 52C114.408 52.576 114.307 53.1147 114.104 53.616C113.912 54.1173 113.64 54.56 113.288 54.944C112.936 55.3173 112.52 55.616 112.04 55.84C111.56 56.0533 111.043 56.16 110.488 56.16ZM110.28 54.896C110.685 54.896 111.053 54.8213 111.384 54.672C111.715 54.5227 111.997 54.32 112.232 54.064C112.477 53.7973 112.664 53.488 112.792 53.136C112.931 52.784 113 52.4053 113 52C113 51.5947 112.931 51.216 112.792 50.864C112.664 50.512 112.477 50.208 112.232 49.952C111.997 49.6853 111.715 49.4773 111.384 49.328C111.053 49.1787 110.685 49.104 110.28 49.104C109.875 49.104 109.507 49.1787 109.176 49.328C108.845 49.4773 108.557 49.6853 108.312 49.952C108.077 50.208 107.891 50.512 107.752 50.864C107.624 51.216 107.56 51.5947 107.56 52C107.56 52.4053 107.624 52.784 107.752 53.136C107.891 53.488 108.077 53.7973 108.312 54.064C108.557 54.32 108.845 54.5227 109.176 54.672C109.507 54.8213 109.875 54.896 110.28 54.896ZM119.67 56.16C119.105 56.16 118.582 56.0533 118.102 55.84C117.633 55.616 117.222 55.3173 116.87 54.944C116.518 54.56 116.241 54.1173 116.038 53.616C115.846 53.1147 115.75 52.576 115.75 52C115.75 51.424 115.846 50.8853 116.038 50.384C116.241 49.8827 116.518 49.4453 116.87 49.072C117.222 48.688 117.633 48.3893 118.102 48.176C118.582 47.952 119.105 47.84 119.67 47.84C120.278 47.84 120.833 47.9787 121.334 48.256C121.835 48.5227 122.219 48.848 122.486 49.232V48H123.862V56H122.486V54.768C122.219 55.152 121.835 55.4827 121.334 55.76C120.833 56.0267 120.278 56.16 119.67 56.16ZM119.878 54.896C120.283 54.896 120.651 54.8213 120.982 54.672C121.313 54.5227 121.595 54.32 121.83 54.064C122.075 53.7973 122.262 53.488 122.39 53.136C122.529 52.784 122.598 52.4053 122.598 52C122.598 51.5947 122.529 51.216 122.39 50.864C122.262 50.512 122.075 50.208 121.83 49.952C121.595 49.6853 121.313 49.4773 120.982 49.328C120.651 49.1787 120.283 49.104 119.878 49.104C119.473 49.104 119.099 49.1787 118.758 49.328C118.427 49.4773 118.139 49.6853 117.894 49.952C117.659 50.208 117.473 50.512 117.334 50.864C117.206 51.216 117.142 51.5947 117.142 52C117.142 52.4053 117.206 52.784 117.334 53.136C117.473 53.488 117.659 53.7973 117.894 54.064C118.139 54.32 118.427 54.5227 118.758 54.672C119.099 54.8213 119.473 54.896 119.878 54.896ZM129.028 56.16C128.602 56.16 128.196 56.1067 127.812 56C127.428 55.8933 127.092 55.7387 126.804 55.536C126.516 55.3227 126.282 55.0613 126.1 54.752C125.919 54.4427 125.812 54.0853 125.78 53.68H127.188C127.231 53.9253 127.311 54.1333 127.428 54.304C127.556 54.464 127.706 54.5973 127.876 54.704C128.047 54.8107 128.228 54.8853 128.42 54.928C128.623 54.9707 128.831 54.992 129.044 54.992C129.482 54.992 129.844 54.9067 130.132 54.736C130.431 54.5547 130.58 54.288 130.58 53.936C130.58 53.616 130.479 53.3547 130.276 53.152C130.074 52.9493 129.732 52.784 129.252 52.656L128.1 52.352C127.407 52.1707 126.89 51.8773 126.548 51.472C126.207 51.0667 126.036 50.576 126.036 50C126.036 49.6693 126.106 49.3707 126.244 49.104C126.383 48.8373 126.575 48.6133 126.82 48.432C127.066 48.24 127.354 48.096 127.684 48C128.026 47.8933 128.399 47.84 128.804 47.84C129.231 47.84 129.615 47.8987 129.956 48.016C130.298 48.1333 130.591 48.2987 130.836 48.512C131.092 48.7147 131.295 48.9547 131.444 49.232C131.594 49.5093 131.684 49.808 131.716 50.128H130.34C130.234 49.776 130.042 49.4987 129.764 49.296C129.498 49.0933 129.178 48.992 128.804 48.992C128.42 48.992 128.095 49.0827 127.828 49.264C127.562 49.4347 127.428 49.6747 127.428 49.984C127.428 50.2827 127.524 50.5227 127.716 50.704C127.908 50.8747 128.218 51.0187 128.644 51.136L129.924 51.472C130.596 51.6427 131.103 51.9307 131.444 52.336C131.796 52.7307 131.972 53.232 131.972 53.84C131.972 54.2347 131.898 54.5813 131.748 54.88C131.599 55.168 131.391 55.408 131.124 55.6C130.858 55.792 130.543 55.9307 130.18 56.016C129.828 56.112 129.444 56.16 129.028 56.16ZM137.329 56.16C136.742 56.16 136.204 56.0587 135.713 55.856C135.222 55.6427 134.796 55.3493 134.433 54.976C134.081 54.6027 133.804 54.1653 133.601 53.664C133.398 53.152 133.297 52.5973 133.297 52C133.297 51.4133 133.388 50.8693 133.569 50.368C133.761 49.856 134.033 49.4133 134.385 49.04C134.737 48.6667 135.164 48.3733 135.665 48.16C136.166 47.9467 136.732 47.84 137.361 47.84C137.99 47.84 138.55 47.9627 139.041 48.208C139.542 48.4427 139.958 48.768 140.289 49.184C140.63 49.5893 140.876 50.0693 141.025 50.624C141.185 51.168 141.244 51.7493 141.201 52.368H134.689C134.7 52.7307 134.774 53.0667 134.913 53.376C135.062 53.6853 135.254 53.9573 135.489 54.192C135.724 54.416 136.001 54.592 136.321 54.72C136.641 54.848 136.982 54.912 137.345 54.912C137.846 54.912 138.294 54.8107 138.689 54.608C139.094 54.3947 139.42 54.048 139.665 53.568H141.073C140.977 53.92 140.822 54.256 140.609 54.576C140.396 54.8853 140.129 55.1573 139.809 55.392C139.5 55.6267 139.137 55.8133 138.721 55.952C138.305 56.0907 137.841 56.16 137.329 56.16ZM137.313 49.056C137.025 49.056 136.742 49.0987 136.465 49.184C136.188 49.2693 135.932 49.4027 135.697 49.584C135.473 49.7653 135.276 49.9947 135.105 50.272C134.934 50.5493 134.817 50.8853 134.753 51.28H139.745C139.617 50.5333 139.329 49.9787 138.881 49.616C138.433 49.2427 137.91 49.056 137.313 49.056ZM146.483 56.16C145.917 56.16 145.395 56.0533 144.915 55.84C144.445 55.616 144.035 55.3173 143.683 54.944C143.331 54.56 143.053 54.1173 142.851 53.616C142.659 53.1147 142.563 52.576 142.563 52C142.563 51.424 142.659 50.8853 142.851 50.384C143.053 49.8827 143.331 49.4453 143.683 49.072C144.035 48.688 144.445 48.3893 144.915 48.176C145.395 47.952 145.917 47.84 146.483 47.84C147.091 47.84 147.645 47.9787 148.147 48.256C148.648 48.5227 149.032 48.848 149.299 49.232V44H150.675V56H149.299V54.768C149.032 55.152 148.648 55.4827 148.147 55.76C147.645 56.0267 147.091 56.16 146.483 56.16ZM146.691 54.896C147.096 54.896 147.464 54.8213 147.795 54.672C148.125 54.5227 148.408 54.32 148.643 54.064C148.888 53.7973 149.075 53.488 149.203 53.136C149.341 52.784 149.411 52.4053 149.411 52C149.411 51.5947 149.341 51.216 149.203 50.864C149.075 50.512 148.888 50.208 148.643 49.952C148.408 49.6853 148.125 49.4773 147.795 49.328C147.464 49.1787 147.096 49.104 146.691 49.104C146.285 49.104 145.912 49.1787 145.571 49.328C145.24 49.4773 144.952 49.6853 144.707 49.952C144.472 50.208 144.285 50.512 144.147 50.864C144.019 51.216 143.955 51.5947 143.955 52C143.955 52.4053 144.019 52.784 144.147 53.136C144.285 53.488 144.472 53.7973 144.707 54.064C144.952 54.32 145.24 54.5227 145.571 54.672C145.912 54.8213 146.285 54.896 146.691 54.896ZM157.332 44.64H158.82V49.488H165.044V44.64H166.532V56H165.044V50.88H158.82V56H157.332V44.64ZM175.599 48.288L172.831 56H171.503L168.399 44.64H169.951L172.319 53.504L175.599 44.448L178.879 53.504L181.263 44.64H182.815L179.711 56H178.383L175.599 48.288ZM193.865 48.288L191.097 56H189.769L186.665 44.64H188.217L190.585 53.504L193.865 44.448L197.145 53.504L199.529 44.64H201.081L197.977 56H196.649L193.865 48.288ZM205.592 56.16C205.027 56.16 204.504 56.0533 204.024 55.84C203.555 55.616 203.144 55.3173 202.792 54.944C202.44 54.56 202.163 54.1173 201.96 53.616C201.768 53.1147 201.672 52.576 201.672 52C201.672 51.424 201.768 50.8853 201.96 50.384C202.163 49.8827 202.44 49.4453 202.792 49.072C203.144 48.688 203.555 48.3893 204.024 48.176C204.504 47.952 205.027 47.84 205.592 47.84C206.2 47.84 206.755 47.9787 207.256 48.256C207.757 48.5227 208.141 48.848 208.408 49.232V48H209.784V56H208.408V54.768C208.141 55.152 207.757 55.4827 207.256 55.76C206.755 56.0267 206.2 56.16 205.592 56.16ZM205.8 54.896C206.205 54.896 206.573 54.8213 206.904 54.672C207.235 54.5227 207.517 54.32 207.752 54.064C207.997 53.7973 208.184 53.488 208.312 53.136C208.451 52.784 208.52 52.4053 208.52 52C208.52 51.5947 208.451 51.216 208.312 50.864C208.184 50.512 207.997 50.208 207.752 49.952C207.517 49.6853 207.235 49.4773 206.904 49.328C206.573 49.1787 206.205 49.104 205.8 49.104C205.395 49.104 205.021 49.1787 204.68 49.328C204.349 49.4773 204.061 49.6853 203.816 49.952C203.581 50.208 203.395 50.512 203.256 50.864C203.128 51.216 203.064 51.5947 203.064 52C203.064 52.4053 203.128 52.784 203.256 53.136C203.395 53.488 203.581 53.7973 203.816 54.064C204.061 54.32 204.349 54.5227 204.68 54.672C205.021 54.8213 205.395 54.896 205.8 54.896ZM212.374 44H213.75V56H212.374V44ZM216.359 44H217.735V56H216.359V44ZM223.751 56.16C223.164 56.16 222.626 56.0587 222.135 55.856C221.644 55.6427 221.218 55.3493 220.855 54.976C220.503 54.6027 220.226 54.1653 220.023 53.664C219.82 53.152 219.719 52.5973 219.719 52C219.719 51.4133 219.81 50.8693 219.991 50.368C220.183 49.856 220.455 49.4133 220.807 49.04C221.159 48.6667 221.586 48.3733 222.087 48.16C222.588 47.9467 223.154 47.84 223.783 47.84C224.412 47.84 224.972 47.9627 225.463 48.208C225.964 48.4427 226.38 48.768 226.711 49.184C227.052 49.5893 227.298 50.0693 227.447 50.624C227.607 51.168 227.666 51.7493 227.623 52.368H221.111C221.122 52.7307 221.196 53.0667 221.335 53.376C221.484 53.6853 221.676 53.9573 221.911 54.192C222.146 54.416 222.423 54.592 222.743 54.72C223.063 54.848 223.404 54.912 223.767 54.912C224.268 54.912 224.716 54.8107 225.111 54.608C225.516 54.3947 225.842 54.048 226.087 53.568H227.495C227.399 53.92 227.244 54.256 227.031 54.576C226.818 54.8853 226.551 55.1573 226.231 55.392C225.922 55.6267 225.559 55.8133 225.143 55.952C224.727 56.0907 224.263 56.16 223.751 56.16ZM223.735 49.056C223.447 49.056 223.164 49.0987 222.887 49.184C222.61 49.2693 222.354 49.4027 222.119 49.584C221.895 49.7653 221.698 49.9947 221.527 50.272C221.356 50.5493 221.239 50.8853 221.175 51.28H226.167C226.039 50.5333 225.751 49.9787 225.303 49.616C224.855 49.2427 224.332 49.056 223.735 49.056ZM232.603 56.08C232.251 56.08 231.926 56.032 231.627 55.936C231.328 55.8293 231.067 55.68 230.843 55.488C230.63 55.2853 230.459 55.0293 230.331 54.72C230.214 54.4107 230.155 54.048 230.155 53.632V49.264H228.459V48H230.155V45.776H231.531V48H233.835V49.264H231.531V53.456C231.531 53.968 231.643 54.3253 231.867 54.528C232.091 54.72 232.422 54.816 232.859 54.816C233.03 54.816 233.2 54.8053 233.371 54.784C233.552 54.752 233.707 54.7093 233.835 54.656V55.888C233.664 55.9413 233.478 55.984 233.275 56.016C233.072 56.0587 232.848 56.08 232.603 56.08Z" fill="black"/>
<path d="M279.391 48.625L279.094 48.3125C279.016 48.2344 278.891 48.2344 278.828 48.3125L276 51.1406L273.156 48.3125C273.094 48.2344 272.969 48.2344 272.891 48.3125L272.594 48.625C272.516 48.6875 272.516 48.8125 272.594 48.8906L275.859 52.1562C275.938 52.2344 276.047 52.2344 276.125 52.1562L279.391 48.8906C279.469 48.8125 279.469 48.6875 279.391 48.625Z" fill="#24292E"/>
</svg>
