<svg version="1.1" viewBox="0.0 0.0 960.0 720.0" fill="none" stroke="none" stroke-linecap="square" stroke-miterlimit="10" xmlns:xlink="http://www.w3.org/1999/xlink" xmlns="http://www.w3.org/2000/svg"><clipPath id="p.0"><path d="m0 0l960.0 0l0 720.0l-960.0 0l0 -720.0z" clip-rule="nonzero"/></clipPath><g clip-path="url(#p.0)"><path fill="#000000" fill-opacity="0.0" d="m0 0l960.0 0l0 720.0l-960.0 0z" fill-rule="evenodd"/><path fill="#ec4d37" d="m221.87401 360.0l0 0c0 -137.16666 115.56694 -248.36221 258.12598 -248.36221l0 0c68.45929 0 134.11462 26.166664 182.52264 72.7436c48.40802 46.57695 75.60333 109.748856 75.60333 175.6186l0 0c0 137.16666 -115.566956 248.36218 -258.12598 248.36218l0 0c-142.55905 0 -258.12598 -111.195526 -258.12598 -248.36218z" fill-rule="evenodd"/><path fill="#ffffff" d="m372.3672 360.009l0 0c0 -53.236755 42.85376 -96.39371 95.71655 -96.39371l0 0c25.38559 0 49.731506 10.155762 67.68182 28.233063c17.950317 18.077332 28.034729 42.59546 28.034729 68.160645l0 0c0 53.236786 -42.85376 96.39371 -95.71655 96.39371l0 0c-52.862793 0 -95.71655 -43.15692 -95.71655 -96.39371z" fill-rule="evenodd"/><path fill="#ffffff" d="m341.31516 353.41803l0 0c0 -74.13663 62.08789 -134.23622 138.67715 -134.23622l0 0c36.77948 0 72.05255 14.1427 98.05957 39.31688c26.007019 25.174164 40.617615 59.317688 40.617615 94.91934l0 0c0 74.13663 -62.08789 134.2362 -138.67719 134.2362l0 0c-76.589264 0 -138.67715 -60.09958 -138.67715 -134.2362z" fill-rule="evenodd"/><path fill="#ec4d37" d="m384.27982 353.41742l0 0c0 -53.236755 42.85373 -96.39371 95.71652 -96.39371l0 0c25.38562 0 49.731506 10.155731 67.68182 28.233063c17.950317 18.077332 28.034729 42.59546 28.034729 68.160645l0 0c0 53.236786 -42.85376 96.39371 -95.71655 96.39371l0 0c-52.862793 0 -95.71652 -43.15692 -95.71652 -96.39371z" fill-rule="evenodd"/><path fill="#ec4d37" d="m506.6635 445.9283l37.07086 -24.629944l26.64569 40.0l-37.07086 24.629944z" fill-rule="evenodd"/><path fill="#ffffff" d="m526.4383 476.87814l40.787415 -27.086609l21.763733 32.629913l-40.787354 27.08664z" fill-rule="evenodd"/></g></svg>