<svg width="91" height="26" viewBox="0 0 91 26" fill="none" xmlns="http://www.w3.org/2000/svg">
<path fill-rule="evenodd" clip-rule="evenodd" d="M58.2532 17.6388H55.8229L52.6524 14.1459H50.6786V17.6388H48.6307V7.16016C49.4943 7.16016 50.3548 7.16313 51.2152 7.1661C52.0757 7.16907 52.9362 7.17204 53.7997 7.17204C56.3657 7.18392 57.7104 8.83531 57.7104 10.6412C57.7104 12.0787 57.0319 13.5281 54.9593 13.9321L58.2532 17.5081V17.6388ZM50.6886 9.02186V12.3722H53.8097C55.1174 12.3722 55.6725 11.5405 55.6725 10.697C55.6725 9.86538 55.0927 9.02186 53.8097 9.02186H50.6886ZM66.8505 10.2726H65.0371L64.963 11.2706C64.5189 10.534 63.5444 10.0707 62.5204 10.0707C60.2875 10.0588 58.5358 11.3894 58.5358 13.9318C58.5358 16.5218 60.2135 17.8643 62.4834 17.8524C63.3346 17.8405 64.5313 17.4247 64.963 16.5574L65.0617 17.6386H66.8505V10.2726ZM60.4361 13.959C60.4361 15.3609 61.4477 16.2044 62.706 16.2044C65.6914 16.2044 65.6914 11.7373 62.706 11.7373C61.4477 11.7254 60.4361 12.5452 60.4361 13.959ZM73.5489 13.696V17.6404V17.6523H75.4364V13.7079C75.4364 12.7337 76.0779 11.8783 77.1018 11.8783C78.1258 11.8783 78.5452 12.6981 78.5452 13.6723V17.6523H80.445V13.6723C80.445 11.4625 79.3717 10.1794 77.2005 10.1794C76.2013 10.1794 75.3131 10.4764 74.6345 11.5219C74.2028 10.5002 73.2775 10.1438 72.3646 10.1438C71.6245 10.1438 70.7486 10.417 70.3415 11.1655L70.2058 10.2626H68.454V17.6404H70.3538V13.696C70.3538 12.7218 70.9583 11.8427 71.9822 11.8427C73.0185 11.8427 73.5489 12.7218 73.5489 13.696ZM82.2064 20.7328V10.2779H83.9705L84.0939 11.2996C84.686 10.4798 85.7099 10.1234 86.5735 10.1234C88.9297 10.1234 90.4965 11.8105 90.4965 13.9846C90.4965 16.135 89.0778 17.8458 86.6352 17.8458C85.8333 17.8458 84.6367 17.6082 84.0939 16.8003V20.7446H82.2064V20.7328ZM86.4395 11.8794C87.8088 11.8794 88.6107 12.818 88.6107 13.9704C88.6107 15.1228 87.7348 16.0614 86.4395 16.0614C85.1565 16.0614 84.2683 15.1228 84.2683 13.9704C84.2683 12.818 85.0701 11.8794 86.4395 11.8794Z" fill="#292840"/>
<path d="M13.317 15.0824L19.1363 20.6867L14.4891 25.1622C13.8414 25.7859 12.7824 25.7859 12.1347 25.1622L0.485798 13.9438C-0.161933 13.32 -0.161933 12.3001 0.485798 11.6763L12.1347 0.467845C12.7824 -0.155948 13.8414 -0.155948 14.4891 0.467845L19.1363 4.94332L13.317 10.5476C12.0216 11.7951 12.0216 13.8349 13.317 15.0824Z" fill="#56BE89"/>
<path d="M26.137 13.9498L20.3177 19.5541L14.4984 13.9498C13.8506 13.326 13.8506 12.3062 14.4984 11.6824L20.3177 6.07812L26.137 11.6824C26.7847 12.3161 26.7847 13.326 26.137 13.9498Z" fill="#56BE89"/>
<path d="M40.1414 13.9438L28.4925 25.1622C27.8448 25.7859 26.7858 25.7859 26.1381 25.1622L21.4908 20.6867L27.3101 15.0824C28.6056 13.8349 28.6056 11.805 27.3101 10.5476L21.4908 4.94332L26.1381 0.467845C26.7858 -0.155948 27.8448 -0.155948 28.4925 0.467845L40.1414 11.6862C40.7891 12.31 40.7891 13.32 40.1414 13.9438Z" fill="#31335D"/>
</svg>
