<svg width="60" height="60" viewBox="0 0 60 60" fill="none" xmlns="http://www.w3.org/2000/svg">
<g clip-path="url(#clip0_6811_192)">
<rect width="60" height="60" rx="16.3636" fill="#CCFF00"/>
<path d="M33.7734 21.5236H26.6259C26.3672 21.5236 26.1321 21.6176 25.9675 21.8527L20.842 28.2008C20.0896 29.1413 19.9016 30.0112 19.9016 31.2574V37.7466C18.2322 42.4254 17.1742 45.5994 16.3983 48.4678C16.3278 48.6559 16.4218 48.75 16.5864 48.75H17.3623C17.5034 48.75 17.6209 48.6794 17.6915 48.5619C23.5459 33.6555 29.9175 26.2729 33.9145 21.8527C34.079 21.6646 34.0085 21.5236 33.7734 21.5236Z" fill="black"/>
<path d="M33.9846 14.2115C33.5379 14.4231 33.3028 14.4701 32.8325 14.8933C30.7165 16.7037 29.3058 18.1379 27.9656 19.5486C27.8011 19.7132 27.8716 19.8778 28.1067 19.8778H36.0301C36.759 19.8778 37.1822 20.301 37.1822 21.0298V29.9643C37.1822 30.1994 37.3703 30.2699 37.5114 30.0583L42.2842 23.8277C43.0601 22.8167 43.2952 22.5111 43.5068 21.1004C43.7889 19.0314 43.6244 15.8573 42.3783 14.5406C41.2732 13.3651 36.2887 13.318 33.9846 14.2115Z" fill="black"/>
<path d="M35.1844 23.3105C30.2705 28.7887 26.4381 34.549 22.8878 41.4849C22.7938 41.673 22.9113 41.8141 23.1229 41.7436L30.4586 39.4864C31.2815 39.2748 31.7517 38.8987 32.1514 38.2403L35.4195 32.8562C35.49 32.7151 35.5135 32.5505 35.5135 32.433V23.4515C35.5135 23.2164 35.349 23.1224 35.1844 23.3105Z" fill="black"/>
</g>
<defs>
<clipPath id="clip0_6811_192">
<rect width="60" height="60" rx="16.3636" fill="white"/>
</clipPath>
</defs>
</svg>
