<?xml version="1.0" encoding="UTF-8"?>
<svg id="Layer_2" data-name="Layer 2" xmlns="http://www.w3.org/2000/svg" viewBox="0 0 560 560">
  <defs>
    <style>
      .cls-1 {
        fill: none;
      }

      .cls-2 {
        fill: #ff9100;
      }

      .cls-3 {
        fill: #fff;
      }
    </style>
  </defs>
  <g id="Layer_1-2" data-name="Layer 1">
    <g>
      <rect class="cls-1" y="0" width="560" height="560"/>
      <g>
        <path class="cls-2" d="M325.51,15.49l66.22,50.96c5.2,4,10.89,7.29,16.94,9.8l77.15,31.99c31.27,12.97,49.95,45.38,45.51,79l-10.93,82.95c-.86,6.51-.86,13.1,0,19.61l10.93,82.95c4.43,33.62-14.24,66.03-45.51,79l-77.15,31.99c-6.05,2.51-11.75,5.81-16.94,9.8l-66.22,50.96c-26.84,20.66-64.19,20.66-91.03,0l-66.22-50.96c-5.2-4-10.89-7.29-16.94-9.8l-77.15-31.99c-31.27-12.97-49.95-45.38-45.51-79l10.93-82.95c.86-6.51.86-13.1,0-19.61l-10.93-82.95c-4.43-33.62,14.24-66.03,45.51-79l77.15-31.99c6.05-2.51,11.75-5.81,16.94-9.8L234.49,15.49c26.84-20.66,64.19-20.66,91.03,0Z"/>
        <path class="cls-3" d="M382.81,220.92c-3.39-35.17-33.72-46.96-72.01-50.33v-48.8h-29.4v49h-23.8v-49h-29.4v49c-7,0-13.13.01-19.28.02l-40.92-.18.02,31.71s21.91-.41,21.54,0c12.01,0,15.93,6.99,17.07,13.01l.03,133.63c-.52,3.78-2.75,9.82-11.14,9.83.38.34-21.56,0-21.56,0l-5.95,36s53.21.01,60.2.01v48.99h29.4v-49c8.4,0,16.11,0,23.8,0v49h29.4v-49c49.87-2.85,84.84-15.66,89.16-62.54,3.49-37.74-14.25-54.59-42.56-61.4,17.2-8.76,27.95-24.2,25.42-49.94h-.01s0,0,0,0ZM341.34,326.4c.02,36.87-63.63,32.66-83.74,32.67v-65.36c20.1.01,83.73-5.76,83.74,32.69h0ZM327.52,234.18c0,33.54-53.17,29.62-69.92,29.61v-59.28c16.73,0,69.91-5.31,69.92,29.67h0Z"/>
      </g>
    </g>
  </g>
</svg>