<?xml version="1.0" encoding="UTF-8"?>
<!--<svg width="512" height="512" id="Layer_2" xmlns="http://www.w3.org/2000/svg" viewBox="0 0 340.13 376.93">-->
<svg width="512" height="512" id="Layer_2" xmlns="http://www.w3.org/2000/svg" viewBox="-20 -20 380.13 416.93">
  <rect width="100%" height="100%" fill="#000000" fill-opacity="0"/>
  <defs>
    <style>.cls-1{fill:#ff931e;}</style>
  </defs>
  <g id="Layer_1-2">
    <g>
      <circle class="cls-1" cx="170.16" cy="51.8" r="51.8"/>
      <path class="cls-1"
            d="M314.19,211.93c-24.79-14.29-56.46-5.78-70.75,19.01-4.92,8.53-7.13,17.87-6.92,27.04h0c.52,22.83-20.01,34.71-39.53,22.92-.77-.47-1.56-.93-2.36-1.36-19.74-11.02-19.73-34.49,.02-45.5,16.17-8.76,27.16-25.89,27.16-45.57,0-.4-.02-.79-.03-1.18l.02,.03c-.51-22.86,20.07-34.73,39.61-22.85h0c15.65,9.5,35.87,10.39,52.84,.58,24.77-14.31,33.25-46,18.94-70.77-14.31-24.77-46-33.25-70.77-18.94-16.96,9.8-26.27,27.73-25.88,46.02h0c.51,22.81-20,34.68-39.5,22.91-7.87-4.82-17.11-7.6-27.01-7.6s-19.14,2.78-27,7.59c-19.46,11.73-39.91-.12-39.39-22.88h0c.4-18.33-8.96-36.3-25.97-46.09-24.8-14.26-56.47-5.72-70.73,19.08-14.26,24.8-5.72,56.47,19.08,70.73,16.95,9.75,37.11,8.84,52.73-.63h0c19.49-11.83,40.02,.03,39.5,22.83l.02-.03c0,.4-.03,.8-.03,1.21,0,19.69,10.98,36.81,27.16,45.57,19.76,11.02,19.75,34.52-.02,45.52-.8,.43-1.58,.89-2.35,1.36-19.46,11.71-39.9-.15-39.38-22.91h0c.22-9.21-2.01-18.6-6.96-27.16-14.34-24.76-46.03-33.2-70.79-18.87C1.09,226.32-7.35,258.01,6.98,282.77c14.34,24.76,46.03,33.2,70.79,18.87,.32-.19,.63-.39,.95-.58l-.03,.04c19.51-11.84,40.04,.03,39.51,22.84l.02-.03c0,.42-.03,.85-.03,1.27,.03,28.61,23.24,51.78,51.85,51.75,28.61-.03,51.78-23.24,51.75-51.85,0-.38-.02-.76-.03-1.14l.02,.03c-.52-22.87,20.07-34.75,39.62-22.87l-.03-.05c.36,.22,.7,.44,1.06,.65,24.79,14.29,56.46,5.78,70.75-19.01,14.29-24.79,5.78-56.46-19.01-70.75Z"/>
    </g>
  </g>
</svg>
