<?xml version="1.0" encoding="UTF-8"?>
<svg width="52px" height="80px" viewBox="0 0 52 80" version="1.1" xmlns="http://www.w3.org/2000/svg" xmlns:xlink="http://www.w3.org/1999/xlink">
    <g stroke="none" stroke-width="1" fill="none" fill-rule="evenodd">
        <g fill="#56BAA5" fill-rule="nonzero">
            <path d="M26.1893486,0 L1.87951807,13.6110628 L1.87951807,40.8577266 L19.0339586,50.4615384 L22.0047748,48.7986142 L6.32418276,40.019658 L52,14.4491313 L26.1922384,0 L26.1893486,0 Z M27.6651236,4.15164786 L46.056441,14.4491313 L27.6651236,24.7447272 L27.6651236,4.15164786 Z M6.32418276,14.4491313 L24.7164634,4.15259162 L24.7164634,24.7447272 L6.32418276,14.4491313 Z M4.82817836,16.937855 L23.2194958,27.2343946 L4.82817836,37.5299906 L4.82817836,16.937855 Z" id="Fill-1"></path>
            <path d="M30.0058214,31.2025162 L45.674854,39.9749066 L0,65.549247 L25.8087248,80 L50.120482,66.3874096 L50.120482,39.137688 L32.9766376,29.5384616 L30.0058214,31.2025162 Z M28.7805042,52.761605 L47.1718216,42.4648536 L47.1718216,63.060244 L28.7805042,52.761605 Z M27.2825734,55.2515518 L45.674854,65.549247 L27.2825734,75.8469424 L27.2825734,55.2515518 Z M5.94259568,65.549247 L24.333913,55.2515518 L24.333913,75.8469424 L5.94259568,65.549247 Z" id="Fill-2"></path>
        </g>
    </g>
</svg>
