<svg version="1.1" id="scroll" xmlns="http://www.w3.org/2000/svg" x="0px" y="0px"
	 viewBox="0 0 300 300" style="enable-background:new 0 0 300 300;" xml:space="preserve">
<style type="text/css">
	.st0{fill:#FFEEDA;}
	.st1{fill:#EBC28E;}
	.st2{fill:#190602;}
</style>
<circle class="st0" cx="150" cy="150" r="150"/>
<g>
	<path class="st1" d="M218.1,202.3c-0.3,10.1-8.6,18.2-18.7,18.2l-54.2-0.2c11.2-12.7,6.8-29.7,0.3-37.4h53.9
		C209.9,182.9,218.4,191.8,218.1,202.3z"/>
	<g>
		<path class="st2" d="M85.2,131.8c-20.4-18.2-9.4-50.5,18.1-52h98.6c2.6,0.1,4.7,1.9,4.7,4.6v83.4c2.3,0.4,3.4,0.7,5.5,1.5
			c1.7,0.6,4.2,2,4.2,2V84.3c-0.1-7.9-6.4-14.3-14.3-14.3h-98.6C82,70.4,64.9,87.8,64.9,109.2c0,12.4,5.6,23,14.9,30.5
			c0.6,0.5,1.2,1.1,2.9,1.1c2.9,0,5-2.3,4.8-4.8C87.4,133.8,86.5,133.1,85.2,131.8z"/>
		<path class="st2" d="M199.4,173.2H122c-5.2,0.1-9.4,4.3-9.4,9.5v11.1c0.1,5.2,4.5,9.6,9.7,9.6h5.8v-9.6h-5.8v-10.9
			c0,0,1.4,0,3.2,0c9.7,0,16.9,9.1,16.9,18.8c-1.7,24.6-37.1,25.3-38.9,0v-94.3c0-4.2-3.5-7.7-7.8-7.7h-7.7v9.6h5.7v92.4
			c-0.3,18.8,13.4,28.2,27.6,28.2l77.9,0.2C237,228.7,237.1,174.7,199.4,173.2z M218.1,202.3c-0.3,10.1-8.6,18.2-18.7,18.2
			l-54.2-0.2c11.2-12.7,6.8-29.7,0.3-37.4h53.9C209.9,182.9,218.4,191.8,218.1,202.3z"/>
		<path class="st2" d="M180.3,111.1h-60.1v-9.6h60.1c1.7,0,3,1.4,3,3v3.6C183.3,109.7,182,111.1,180.3,111.1z"/>
		<path class="st2" d="M180.3,156.5h-60.1v-9.6h60.1c1.7,0,3,1.4,3,3v3.6C183.3,155.2,182,156.5,180.3,156.5z"/>
		<path class="st2" d="M190.6,133.8h-70.4v-9.6h70.4c1.7,0,3,1.4,3,3v3.6C193.6,132.4,192.2,133.8,190.6,133.8z"/>
	</g>
</g>
</svg>
