<svg fill="none" height="20" viewBox="0 0 20 20" width="20" xmlns="http://www.w3.org/2000/svg"><g clip-rule="evenodd" fill="#000" fill-rule="evenodd"><path d="m9.16667 3.33341c-3.22166 0-5.83333 2.61168-5.83333 5.83334 0 3.22165 2.61167 5.83335 5.83333 5.83335 3.22163 0 5.83333-2.6117 5.83333-5.83335 0-3.22166-2.6117-5.83334-5.83333-5.83334zm-7.5 5.83334c0-4.14214 3.35787-7.5 7.5-7.5s7.50003 3.35786 7.50003 7.5c0 4.14215-3.3579 7.49995-7.50003 7.49995s-7.5-3.3578-7.5-7.49995z"/><path d="m13.2857 13.2858c.3255-.3254.8531-.3254 1.1785 0l3.625 3.625c.3255.3255.3255.8531 0 1.1785-.3254.3255-.853.3255-1.1785 0l-3.625-3.625c-.3254-.3254-.3254-.853 0-1.1785z"/></g></svg>