<svg width="360" height="360" viewBox="0 0 360 360" fill="none" xmlns="http://www.w3.org/2000/svg">
<rect width="360" height="360" fill="white"/>
<g transform="translate(11.0,11.0) scale(2.82)"><path d="M92.9857 94.8898C89.382 91.6145 83.8789 91.6145 80.2753 94.8898L73.6978 100.868C65.8603 107.992 53.8922 107.992 46.0547 100.868L39.4768 94.8898C35.8732 91.6146 30.3704 91.6146 26.7667 94.8898L18.3621 102.529C18.1062 102.762 18.0992 103.162 18.3496 103.401C29.1434 113.685 43.7679 120.002 59.8709 120.002C75.9767 120.002 90.6036 113.683 101.398 103.395C101.648 103.157 101.641 102.757 101.385 102.524L92.9857 94.8898ZM59.8709 0C28.5729 0 2.86096 23.8601 0.00478284 54.3455C-0.0455926 54.8831 0.586964 55.1959 0.987317 54.8335L3.17893 52.8497C11.019 45.7533 22.9649 45.7655 30.7903 52.878L37.3889 58.8757C40.9926 62.1511 46.4957 62.1511 50.0994 58.8757L56.6639 52.909C64.5089 45.7787 76.491 45.7862 84.3268 52.9267L94.951 62.6086C95.6856 63.2782 95.7384 64.4166 95.0689 65.1513L92.5429 67.9233L90.0165 70.6953C89.347 71.4299 88.2089 71.4829 87.4741 70.8135L76.8499 61.1315C73.247 57.8483 67.7374 57.8449 64.1302 61.1234L57.5657 67.0901C49.7282 74.2137 37.7604 74.2136 29.923 67.0901L23.3243 61.0924C19.7262 57.822 14.2331 57.8165 10.6282 61.0794L0.843345 69.9366C0.691218 70.0743 0.619838 70.2805 0.655512 70.4825C2.17294 79.0767 5.52298 87.0399 10.2893 93.9564C10.4939 94.2532 10.913 94.299 11.1798 94.0565L19.3004 86.6754C27.1378 79.552 39.1057 79.552 46.9431 86.6754L53.521 92.654C57.1247 95.9295 62.6277 95.9295 66.2315 92.654L72.809 86.6754C80.6464 79.552 92.6146 79.552 100.452 86.6754L108.566 94.0507C108.833 94.2932 109.252 94.2474 109.457 93.9505C116.108 84.2959 120.002 72.6023 120.002 60.0009C120.002 46.9936 115.853 34.9536 108.805 25.125C108.706 24.9866 108.552 24.8966 108.383 24.8836C105.869 24.69 103.293 25.4989 101.299 27.3116L94.734 33.2783C86.8966 40.4018 74.9287 40.4018 67.0913 33.2783L60.4927 27.2806C56.8945 24.0102 51.4014 24.0047 47.7965 27.2676L37.0241 37.0188C36.2871 37.6858 35.1488 37.629 34.4817 36.892L29.4481 31.3311C28.7811 30.5941 28.8379 29.4561 29.5748 28.789L40.3472 19.0379C48.1873 11.9415 60.1332 11.9537 67.9586 19.0662L74.5572 25.0639C78.1609 28.3394 83.664 28.3393 87.2677 25.0639L93.8323 19.0972C95.4237 17.6507 97.1854 16.4981 99.0482 15.6391C99.4517 15.453 99.5446 14.9107 99.2084 14.6202C88.6639 5.51139 74.9126 3.76847e-06 59.8709 0Z" fill="#600014"/></g></svg>