<svg width="96" height="97" viewBox="0 0 96 97" fill="none" xmlns="http://www.w3.org/2000/svg">
<rect width="96" height="96.1694" fill="black"/>
<path fill-rule="evenodd" clip-rule="evenodd" d="M47.915 81.3803C57.7888 81.3803 66.6597 77.0891 72.7613 70.2713C69.923 67.8063 65.6454 67.6566 62.6237 70.0929L62.0465 70.5584C56.5136 75.0193 48.4519 74.3606 43.718 69.0607C41.1362 66.1702 36.7145 65.8751 33.7708 68.3968L27.1149 74.0985C32.8155 78.6554 40.0468 81.3803 47.915 81.3803ZM58.7188 65.2574C63.9886 61.0085 71.3957 61.1608 76.4642 65.2646C79.4936 60.2489 81.2367 54.3702 81.2367 48.0847C81.2367 41.1003 79.0846 34.6185 75.4067 29.2646C73.0358 28.7601 70.466 29.3494 68.5152 31.0767L67.96 31.5684C62.6392 36.2798 54.5555 35.9934 49.582 30.9176C46.8694 28.1492 42.4386 28.0582 39.6146 30.713L31.8691 37.9941L27.6083 33.4687L35.3538 26.1876C40.6439 21.2145 48.9437 21.3848 54.0251 26.5707C56.6801 29.2803 60.9955 29.4332 63.8359 26.9181L64.3911 26.4265C66.1153 24.8998 68.1102 23.8706 70.1987 23.3293C64.2952 18.0201 56.4827 14.7891 47.915 14.7891C30.9996 14.7891 17.0281 27.3834 14.8797 43.6994C20.0176 41.2358 26.3551 42.1838 30.5443 46.4704C33.1891 49.1764 37.4473 49.4621 40.4303 47.1335L44.7609 43.7529C50.2034 39.5042 57.8972 39.7099 63.1047 44.2433L71.5359 51.5832L67.4512 56.2679L59.0199 48.928C56.0589 46.3502 51.684 46.2332 48.5891 48.6492L44.2586 52.0297C38.7781 56.3081 30.9544 55.7833 26.0954 50.8114C23.27 47.9203 18.6489 47.8193 15.6998 50.5844L14.7627 51.4631C15.464 58.4174 18.307 64.74 22.6226 69.7626L29.7234 63.6796C35.2377 58.9559 43.5208 59.5086 48.3573 64.9234C50.8844 67.7526 55.188 68.1043 58.1415 65.7229L58.7188 65.2574Z" fill="#9E1F19"/>
</svg>
