<?xml version="1.0" encoding="UTF-8" standalone="no"?>
<svg
   width="512"
   height="512"
   viewBox="0 0 512 512"
   fill="none"
   version="1.1"
   id="svg1"
   sodipodi:docname="sei.svg"
   inkscape:version="1.4 (e7c3feb1, 2024-10-09)"
   xmlns:inkscape="http://www.inkscape.org/namespaces/inkscape"
   xmlns:sodipodi="http://sodipodi.sourceforge.net/DTD/sodipodi-0.dtd"
   xmlns="http://www.w3.org/2000/svg"
   xmlns:svg="http://www.w3.org/2000/svg">
  <defs
     id="defs1" />
  <sodipodi:namedview
     id="namedview1"
     pagecolor="#ffffff"
     bordercolor="#000000"
     borderopacity="0.25"
     inkscape:showpageshadow="2"
     inkscape:pageopacity="0.0"
     inkscape:pagecheckerboard="0"
     inkscape:deskcolor="#d1d1d1"
     inkscape:zoom="1.0042116"
     inkscape:cx="212.60459"
     inkscape:cy="283.80472"
     inkscape:window-width="1512"
     inkscape:window-height="949"
     inkscape:window-x="0"
     inkscape:window-y="33"
     inkscape:window-maximized="0"
     inkscape:current-layer="svg1" />
  <rect
     style="fill:#9e1f19;fill-opacity:1;stroke-width:1.753"
     id="rect2"
     width="512"
     height="512"
     x="0"
     y="0" />
  <ellipse
     style="fill:#ffffff;fill-opacity:1;stroke-width:0.993776"
     id="path2"
     cx="255.0042"
     cy="255.50209"
     rx="255.0042"
     ry="251.51888" />
  <path
     fill-rule="evenodd"
     clip-rule="evenodd"
     d="m 255.34774,512 c 76.05084,0 144.37632,-32.99343 191.37258,-85.41382 -21.86101,-18.95264 -54.80802,-20.10346 -78.08201,-1.37122 l -4.44631,3.57896 c -42.61523,34.29853 -104.70896,29.23337 -141.17021,-11.51589 -19.88647,-22.224 -53.94314,-24.49307 -76.61622,-5.10444 L 95.13991,456.01216 C 139.04785,491.04948 194.74474,512 255.34774,512 Z m 83.21369,-123.96398 c 40.58982,-32.66859 97.64115,-31.49765 136.67975,0.0556 C 498.57469,349.52709 512,304.32785 512,256.00002 c 0,-53.70057 -16.57574,-103.5376 -44.90366,-144.70178 -18.26134,-3.87887 -38.05469,0.65159 -53.08018,13.93252 l -4.2764,3.78018 c -40.98242,36.22456 -103.2451,34.02257 -141.55225,-5.00382 -20.89342,-21.28495 -55.02016,-21.98445 -76.77174,-1.57244 l -59.65748,55.98209 -32.81838,-34.79489 59.65844,-55.9819 c 40.74533,-38.236431 104.67249,-36.927119 143.81093,2.94538 20.44993,20.83362 53.6878,22.00936 75.56512,2.67123 l 4.2764,-3.77999 C 395.53117,77.73838 410.89646,69.82502 426.98264,65.66309 381.51263,24.842527 321.33872,0 255.34774,0 125.06099,0 17.448583,96.83389 0.901321,222.28311 c 39.573214,-18.9421 88.386588,-11.65292 120.653119,21.30506 20.37026,20.80584 53.16849,23.00208 76.14395,5.09869 l 33.35593,-25.99267 c 41.9193,-32.66669 101.17938,-31.08562 141.28829,3.77059 l 64.93987,56.43437 -31.46203,36.0195 -64.93987,-56.43437 c -22.80652,-19.81983 -56.50322,-20.7196 -80.34068,-2.14354 l -33.35498,25.99172 C 184.97285,319.2272 124.71255,315.19213 87.287743,276.9649 65.525418,254.73611 29.932892,253.95995 7.218125,275.21998 L 0,281.97543 c 5.401849,53.46964 27.299186,102.08206 60.538778,140.69929 l 54.692732,-46.76976 c 42.4722,-36.31942 106.27074,-32.06971 143.52295,9.56303 19.46411,21.75256 52.61174,24.45665 75.36067,6.14699 z"
     fill="#9e1f19"
     id="path1"
     style="stroke-width:0.959065" />
</svg>
