<svg width="534" height="535" viewBox="0 0 534 535" fill="none" xmlns="http://www.w3.org/2000/svg">
<path fill-rule="evenodd" clip-rule="evenodd" d="M266.012 534.324C345.239 534.324 416.418 499.892 465.377 445.186C442.603 425.407 408.28 424.206 384.034 443.755L379.402 447.49C335.007 483.284 270.32 477.998 232.336 435.472C211.619 412.279 176.14 409.911 152.52 430.145L99.1133 475.895C144.855 512.46 202.878 534.324 266.012 534.324ZM352.701 404.955C394.986 370.862 454.42 372.084 495.089 405.013C519.397 364.767 533.383 317.597 533.383 267.162C533.383 211.12 516.115 159.11 486.604 116.151C467.58 112.103 446.96 116.831 431.307 130.691L426.852 134.636C384.158 172.44 319.295 170.142 279.388 129.414C257.622 107.201 222.07 106.471 199.41 127.773L137.261 186.196L103.072 149.884L165.222 91.4612C207.669 51.5576 274.266 52.924 315.039 94.535C336.343 116.277 370.969 117.504 393.76 97.3227L398.215 93.3779C412.05 81.1279 428.057 72.8695 444.815 68.5261C397.446 25.9257 334.759 0 266.012 0C130.284 0 18.1773 101.056 0.938963 231.975C42.1649 212.207 93.0169 219.814 126.631 254.209C147.852 275.922 182.02 278.214 205.955 259.53L240.704 232.404C284.374 198.313 346.109 199.963 387.893 236.339L455.545 295.234L422.769 332.824L355.117 273.929C331.358 253.245 296.254 252.306 271.421 271.692L236.673 298.817C192.698 333.146 129.921 328.935 90.9332 289.041C68.262 265.843 31.183 265.033 7.51958 287.22L0 294.27C5.62745 350.071 28.4393 400.803 63.0671 441.104L120.044 392.295C164.29 354.392 230.753 358.827 269.561 402.275C289.838 424.976 324.37 427.798 348.069 408.69L352.701 404.955Z" fill="#9E1F19"/>
</svg>
