<svg width="360" height="360" viewBox="0 0 360 360" fill="none" xmlns="http://www.w3.org/2000/svg">
<rect width="360" height="360" fill="black"/>
<g transform="translate(39.6,39.6) scale(2.34)"><path d="M92.9822 94.8884C89.3786 91.6132 83.8755 91.6132 80.2719 94.8884L73.6945 100.867C65.8572 107.99 53.8892 107.99 46.0519 100.867L39.4741 94.8884C35.8705 91.6133 30.3678 91.6133 26.7642 94.8884L18.3597 102.528C18.1038 102.76 18.0968 103.16 18.3471 103.399C29.1408 113.684 43.7651 120 59.8679 120C75.9735 120 90.6001 113.682 101.394 103.394C101.645 103.155 101.637 102.755 101.382 102.522L92.9822 94.8884ZM59.8679 0C28.5703 0 2.85876 23.8597 0.00261939 54.3447C-0.0477553 54.8823 0.584792 55.1951 0.985139 54.8327L3.17672 52.8489C11.0167 45.7527 22.9624 45.7648 30.7877 52.8772L37.3862 58.8748C40.9899 62.1502 46.4928 62.1502 50.0965 58.8748L56.661 52.9082C64.5058 45.778 76.4878 45.7855 84.3234 52.9259L94.9475 62.6077C95.6821 63.2773 95.7348 64.4157 95.0653 65.1504L92.5394 67.9223L90.013 70.6943C89.3435 71.4289 88.2054 71.4819 87.4707 70.8125L76.8466 61.1306C73.2438 57.8475 67.7343 57.844 64.1272 61.1225L57.5627 67.0891C49.7254 74.2126 37.7577 74.2126 29.9204 67.0891L23.3218 61.0915C19.7237 57.8211 14.2307 57.8157 10.6259 61.0785L0.841169 69.9356C0.689044 70.0733 0.617666 70.2795 0.653339 70.4815C2.17074 79.0755 5.52074 87.0386 10.287 93.955C10.4916 94.2519 10.9107 94.2977 11.1775 94.0552L19.298 86.6742C27.1353 79.5509 39.103 79.5509 46.9403 86.6742L53.5181 92.6527C57.1217 95.9281 62.6247 95.9281 66.2283 92.6527L72.8057 86.6742C80.6431 79.5508 92.6111 79.5508 100.448 86.6742L108.562 94.0493C108.829 94.2918 109.248 94.2461 109.453 93.9491C116.104 84.2947 119.998 72.6013 119.998 60C119.998 46.993 115.85 34.9531 108.802 25.1246C108.702 24.9862 108.549 24.8963 108.379 24.8832C105.865 24.6896 103.289 25.4985 101.295 27.3112L94.7305 33.2778C86.8931 40.4012 74.9255 40.4013 67.0881 33.2778L60.4896 27.2802C56.8915 24.0098 51.3985 24.0044 47.7936 27.2672L37.0214 37.0182C36.2844 37.6853 35.1461 37.6284 34.4791 36.8915L29.4455 31.3306C28.7786 30.5936 28.8353 29.4557 29.5722 28.7886L40.3445 19.0376C48.1844 11.9414 60.1302 11.9535 67.9555 19.0659L74.554 25.0635C78.1576 28.3389 83.6606 28.3389 87.2643 25.0635L93.8287 19.0969C95.4201 17.6505 97.1818 16.4979 99.0446 15.6389C99.4481 15.4528 99.541 14.9105 99.2048 14.62C88.6604 5.51131 74.9094 3.76841e-06 59.8679 0Z" fill="white"/></g></svg>