<?xml version="1.0" encoding="utf-8"?>
<!-- Generator: Adobe Illustrator 16.0.0, SVG Export Plug-In . SVG Version: 6.00 Build 0)  -->
<!DOCTYPE svg PUBLIC "-//W3C//DTD SVG 1.1//EN" "http://www.w3.org/Graphics/SVG/1.1/DTD/svg11.dtd">
<svg version="1.1" id="Layer_1" xmlns="http://www.w3.org/2000/svg" xmlns:xlink="http://www.w3.org/1999/xlink" x="0px" y="0px"
	 width="24.088px" height="24px" viewBox="0 0 24.088 24" enable-background="new 0 0 24.088 24" xml:space="preserve">
<path d="M21.525,10.147c-0.41-0.059-0.847-0.428-0.974-0.82l-0.608-1.481c-0.191-0.365-0.146-0.935,0.1-1.264l0.99-1.318
	c0.246-0.33,0.227-0.854-0.047-1.162l-1.084-1.086c-0.31-0.272-0.832-0.293-1.164-0.045l-1.316,0.988
	c-0.33,0.248-0.898,0.293-1.264,0.101l-1.48-0.609c-0.395-0.126-0.764-0.562-0.82-0.971l-0.233-1.629
	c-0.058-0.409-0.44-0.778-0.851-0.822c0,0-0.254-0.026-0.77-0.026c-0.514,0-0.77,0.026-0.77,0.026
	c-0.41,0.044-0.793,0.413-0.852,0.822L10.15,2.48c-0.059,0.409-0.428,0.845-0.82,0.971L7.85,4.06
	C7.484,4.251,6.916,4.207,6.586,3.959L5.268,2.97c-0.33-0.248-0.854-0.228-1.162,0.045L3.021,4.101
	C2.749,4.41,2.727,4.933,2.975,5.263l0.988,1.318c0.249,0.33,0.293,0.899,0.102,1.264l-0.61,1.482
	c-0.125,0.393-0.562,0.762-0.972,0.82l-1.629,0.231c-0.408,0.059-0.776,0.442-0.82,0.853c0,0-0.026,0.255-0.026,0.77
	c0,0.516,0.026,0.77,0.026,0.77c0.044,0.412,0.412,0.793,0.82,0.853l1.629,0.231c0.408,0.06,0.847,0.429,0.972,0.82l0.61,1.48
	c0.191,0.365,0.146,0.936-0.102,1.264l-0.988,1.318c-0.248,0.33-0.308,0.779-0.132,0.994c0.175,0.217,0.677,0.752,0.679,0.754
	c0,0.002,0.17,0.156,0.375,0.344c0.203,0.188,1.041,0.449,1.371,0.203l1.317-0.99c0.33-0.246,0.897-0.293,1.265-0.1l1.479,0.608
	c0.394,0.125,0.763,0.562,0.819,0.972l0.233,1.629c0.058,0.408,0.44,0.779,0.853,0.822c0,0,0.254,0.026,0.769,0.026
	s0.771-0.026,0.771-0.026c0.408-0.043,0.793-0.414,0.85-0.822l0.234-1.629c0.057-0.408,0.426-0.847,0.819-0.972l1.479-0.61
	c0.365-0.191,0.935-0.146,1.265,0.102l1.317,0.99c0.332,0.246,0.854,0.227,1.164-0.047l1.082-1.084
	c0.273-0.312,0.293-0.834,0.047-1.164l-0.989-1.318c-0.246-0.328-0.291-0.898-0.101-1.264l0.609-1.48
	c0.127-0.393,0.562-0.762,0.973-0.82l1.627-0.231c0.41-0.06,0.779-0.44,0.822-0.853c0,0,0.027-0.254,0.027-0.77
	c0-0.515-0.027-0.77-0.027-0.77c-0.043-0.41-0.412-0.794-0.822-0.853L21.525,10.147z M12.004,15.001c-1.657,0-3-1.344-3-3
	c0-1.657,1.343-3,3-3s3,1.344,3,3S13.66,15.001,12.004,15.001z"/>
</svg>
