<svg height="20" width="20" xmlns="http://www.w3.org/2000/svg">
    <mask id="a" fill="#fff">
        <path d="M20 10v10H0V0h20z" fill-rule="evenodd"/>
    </mask>
    <path d="M10 13.66a3.66 3.66 0 110-7.32 3.66 3.66 0 010 7.32zm9.157-1.849a.804.804 0 00.772-.672S20 10.62 20 10s-.071-1.138-.071-1.138a.805.805 0 00-.772-.673h-1.929c-.374 0-.762-.238-.863-.529-.1-.292-.238-1.225.026-1.489l1.364-1.364a.76.76 0 00.045-1.002L16.195 2.2a.76.76 0 00-1.002.045L13.829 3.61c-.264.264-.704.371-.977.237-.274-.134-1.04-.7-1.04-1.073V.843a.803.803 0 00-.673-.77S10.619 0 10 0c-.618 0-1.138.072-1.138.072a.803.803 0 00-.673.771v1.93c0 .373-.238.762-.529.862s-1.225.238-1.489-.026L4.807 2.245A.76.76 0 003.805 2.2L2.2 3.805a.76.76 0 00.045 1.002l1.364 1.364c.264.264.371.704.237.977-.135.274-.7 1.041-1.073 1.041H.843a.804.804 0 00-.771.673S0 9.382 0 10s.072 1.14.072 1.14c.051.37.398.671.771.671h1.93c.373 0 .762.24.862.53s.239 1.223-.026 1.488l-1.363 1.364a.76.76 0 00-.046 1.002L3.805 17.8a.76.76 0 001.002-.045l1.364-1.365c.264-.263.704-.37.977-.236.274.134 1.041.7 1.041 1.073v1.93c0 .373.303.721.673.772 0 0 .52.071 1.138.071.619 0 1.139-.07 1.139-.07a.806.806 0 00.673-.773v-1.93c0-.374.238-.76.529-.862s1.224-.238 1.488.025l1.364 1.365a.762.762 0 001.002.045l1.605-1.605a.76.76 0 00-.045-1.002l-1.364-1.364c-.264-.264-.37-.704-.237-.978.134-.273.7-1.04 1.074-1.04z" fill="#b3b3b3" fill-rule="evenodd" mask="url(#a)"/>
</svg>
