<svg height="20" viewBox="0 0 20 20" width="20" xmlns="http://www.w3.org/2000/svg" xmlns:xlink="http://www.w3.org/1999/xlink"><mask id="a" fill="#fff"><path d="m20 10v9.9998h-20v-9.9998-9.9998h20z" fill="#fff" fill-rule="evenodd"/></mask><path d="m10 13.6602c-2.021 0-3.66-1.639-3.66-3.66 0-2.022 1.639-3.66 3.66-3.66s3.66 1.638 3.66 3.66c0 2.021-1.639 3.66-3.66 3.66zm9.157-1.849c.373 0 .721-.302.772-.672 0 0 .071-.521.071-1.139s-.071-1.138-.071-1.138c-.051-.37-.399-.673-.772-.673h-1.929c-.374 0-.762-.238-.863-.529-.1-.292-.238-1.225.026-1.489l1.364-1.364c.264-.264.284-.715.045-1.002l-1.605-1.605c-.287-.24-.737-.219-1.002.045l-1.364 1.364c-.264.264-.704.371-.977.237-.274-.134-1.04-.7-1.04-1.073v-1.93c0-.373-.303-.721-.673-.771 0 0-.52-.072-1.139-.072-.618 0-1.138.072-1.138.072-.37.05-.673.398-.673.771v1.93c0 .373-.238.762-.529.862s-1.225.238-1.489-.026l-1.364-1.364c-.265-.264-.715-.284-1.002-.045l-1.605 1.605c-.24.287-.219.738.045 1.002l1.364 1.364c.264.264.371.704.237.977-.135.274-.7 1.041-1.073 1.041h-1.93c-.373 0-.72.303-.771.673 0 0-.072.52-.072 1.138s.072 1.139.072 1.139c.051.37.398.672.771.672h1.93c.373 0 .762.239.862.53s.239 1.223-.026 1.488l-1.363 1.364c-.265.264-.285.715-.046 1.002l1.605 1.605c.287.239.737.219 1.002-.045l1.364-1.365c.264-.263.704-.37.977-.236.274.134 1.041.699 1.041 1.073v1.93c0 .373.303.721.673.772 0 0 .52.071 1.138.071.619 0 1.139-.071 1.139-.071.37-.052.673-.399.673-.772v-1.93c0-.374.238-.761.529-.862s1.224-.238 1.488.025l1.364 1.365c.265.263.715.284 1.002.045l1.605-1.605c.239-.287.22-.737-.045-1.002l-1.364-1.364c-.264-.264-.37-.704-.237-.978.134-.273.7-1.04 1.074-1.04z" fill="#b3b3b3" fill-rule="evenodd" mask="url(#a)"/></svg>