<?xml version="1.0" encoding="utf-8"?>
<!-- Generator: Adobe Illustrator 24.3.0, SVG Export Plug-In . SVG Version: 6.00 Build 0)  -->
<svg version="1.1" id="svg" xmlns="http://www.w3.org/2000/svg" xmlns:xlink="http://www.w3.org/1999/xlink" x="0px" y="0px"
	 viewBox="0 0 484 324" style="enable-background:new 0 0 484 324;" xml:space="preserve">
<style type="text/css">
	.st0{fill:#FFFFFF;}
	.st1{fill-rule:evenodd;clip-rule:evenodd;fill:#F30504;}
	.st2{fill-rule:evenodd;clip-rule:evenodd;fill:#FBA10B;}
	.st3{fill-rule:evenodd;clip-rule:evenodd;fill:#060505;}
</style>
<g id="svgg">
	<ellipse id="svg_1" class="st0" cx="243.9" cy="163" rx="122.5" ry="122.5"/>
	<path id="path0" class="st1" d="M235.9,39.7c-4.2,0.2-10.1,0.8-10.6,1c-0.2,0.1-1.6,0.3-3,0.5c-1.4,0.2-3.4,0.6-4.4,0.8
		c-1,0.2-2.6,0.6-3.7,0.8c-1,0.2-2.6,0.6-3.4,0.8c-0.8,0.2-2.5,0.7-3.6,1c-2.1,0.6-7.8,2.5-8.7,3c-0.3,0.1-0.6,0.2-0.8,0.2
		c-0.2,0-0.9,0.3-1.6,0.6c-1.9,0.8-2.8,1.2-3.8,1.6c-0.9,0.4-8.3,3.9-9.5,4.6c-0.7,0.4-1.1,0,8.4,9.7c2.6,2.7,5.9,6.1,7.4,7.6
		c3,3.2,3,3.2,3.9,2.9c1.6-0.7,10.9-3.4,13.1-3.9c8.6-1.8,14.5-2.5,25.6-2.9c6.1-0.2,18.6,0.8,25.6,2.2c4.3,0.8,4.9,1,5.9,1.2
		c0.5,0.1,2.2,0.6,3.7,1c1.5,0.4,4.1,1.1,5.7,1.6c1.6,0.5,3,1,3,1s1.2-1.4,2.7-3.2c1.5-1.8,3.1-3.7,3.6-4.3c0.5-0.6,1.6-1.8,2.3-2.7
		c1.9-2.2,6.3-7,8-8.7c0.8-0.7,1.4-1.5,1.4-1.6c0-0.3-4.6-2.6-10.7-5.3c-2.5-1.1-3.1-1.4-3.4-1.4c-0.2,0-0.5-0.1-0.8-0.3
		c-2-1.1-14.2-4.6-20.2-5.7C257.9,39.9,246.7,39.1,235.9,39.7 M345.1,91.9c-0.2,0.6-0.8,3-1.4,5.4c-1.2,4.8-2.1,8.1-3.3,12.2
		c-0.4,1.5-1.1,3.6-1.4,4.6c-0.3,1-1.3,4.3-2.3,7.1l-1.7,5.2l0.5,1c0.3,0.6,1.6,3,2.8,5.5c4.4,8.4,7.6,16.6,9.3,23.9
		c0.4,1.6,0.8,3.3,0.9,3.9c1.8,6.6,3,17.7,3,27.6c0,3-0.1,6.1-0.3,6.8c-0.7,3.3-0.9,4.1-1.5,5.9c-0.4,1.1-0.8,2.3-1,2.8
		c-0.6,2-3.9,8.2-6.1,11.4c-3.6,5.3-4.9,6.9-9.3,11.7c-1.2,1.3-2.5,2.7-2.7,3c-1.7,2-10,9-13.3,11.4c-10.1,7.2-19.4,12.6-29.5,17
		c-3.5,1.5-11.5,4.6-12.1,4.6c-0.1,0-0.6,0.2-1.1,0.4c-1.1,0.5-4.5,1.5-5,1.5c-0.2,0-0.6,0.1-0.8,0.2c-0.4,0.2-2.5,0.7-7.4,1.8
		c-1.1,0.2-2.8,0.6-3.7,0.8c-0.9,0.2-2.1,0.4-2.6,0.4c-0.5,0-2.2,0.2-3.7,0.4c-7.7,1.2-18.6,0.2-29-2.5c-2.2-0.6-7.7-2.3-8.3-2.5
		c-0.3-0.1-1.2-0.4-1.9-0.7c-7-2.3-23.1-9.8-28.5-13.3c-0.6-0.4-1.1-0.7-1.2-0.7c-0.1,0-1.1-0.6-2.2-1.4c-1.1-0.7-2.1-1.4-2.1-1.4
		c-0.6,0-9.8-6.6-14-10c-8.2-6.7-11.2-9.6-17.8-17.1c-1.2-1.3-4.2-5.4-4.2-5.6c0-0.1-0.6-0.9-1.2-1.9c-0.7-1-1.3-2-1.4-2.3
		c-0.1-0.2-0.4-0.8-0.6-1.1c-4.8-7-5.9-14.1-4.3-29.8c0.4-4.6,2.1-14.6,3-17.6c1.5-5.3,2.9-10.1,3.3-11c0.1-0.3,0.4-1.2,0.7-2
		c0.6-1.9,3.1-8.3,4.2-10.8c0.5-1,1.6-3.5,2.5-5.4c2.1-4.6,2.1-4.8,0.1-10.3c-2.2-5.8-3.7-10.7-4.5-13.7c-0.1-0.4-0.5-1.8-0.8-3
		c-1.1-3.8-1.9-7.3-2.5-10.6c-0.4-2-0.3-2-2.7,1.5c-3.7,5.7-7.8,13.2-9.9,18.1c-0.3,0.7-0.8,2-1.3,2.9c-0.4,0.9-0.8,2-0.9,2.5
		c-0.1,0.5-0.3,0.9-0.4,1c-0.1,0.1-0.3,0.3-0.3,0.6c0,0.2-0.2,0.8-0.4,1.3c-1,2.2-2.6,7.9-4.4,15.6c-1.3,5.3-2.1,12.9-2.7,23.2
		c-0.3,4.5,0.8,16.6,2,22.9c0.7,3.9,1.8,8.6,2.4,10.9c2,6.8,2.4,8.1,3.6,10.8c0.2,0.5,0.4,1,0.4,1.2c0,0.2,0.1,0.5,0.3,0.8
		c0.1,0.3,0.8,1.7,1.4,3.2c6.2,14.9,17.7,31,30.8,42.8c4.9,4.4,7.2,6.2,14.2,11.2c1.7,1.2,5.7,3.7,8.8,5.4c1.8,1,11.1,5.6,11.3,5.6
		c0.1,0,0.7,0.2,3.5,1.5c1.6,0.7,7.2,2.6,12.1,4.1c20.3,6.1,47,6.3,67.9,0.4c1.2-0.3,2.6-0.7,3.1-0.8c0.5-0.1,1.2-0.3,1.6-0.5
		c0.4-0.2,1.6-0.5,2.8-0.9c1.1-0.3,2.2-0.7,2.4-0.8c0.2-0.1,1-0.4,1.8-0.7c0.7-0.3,1.7-0.6,2.2-0.8c0.4-0.2,1.9-0.8,3.3-1.4
		c12.4-5.2,25.3-13.5,35.4-22.8c4.9-4.5,7.4-7.1,11.7-12.1c0.9-1.1,5-6.4,7.1-9.4c7.1-10,13.8-24.6,17.4-38.3
		c4.3-16.2,4.9-38.9,1.5-53.9c-0.1-0.6-0.5-2.3-0.8-3.8c-0.3-1.5-0.8-3.3-1-3.9c-1.7-5.7-2.1-7.1-2.5-8c-0.2-0.6-0.6-1.5-0.8-2
		c-2.3-6.1-5.5-13.1-7.7-17.1c-2.9-5-5.5-9.2-7.1-11.3l-1.3-1.7L345.1,91.9 M308.1,142.2c0.4,0.1,1.1,0.1,1.5,0
		c0.4-0.1,0.1-0.1-0.7-0.1C308,142.1,307.7,142.1,308.1,142.2 M277.6,169.4c0.3,0.1,0.7,0.1,1,0c0.3-0.1,0-0.1-0.5-0.1
		C277.6,169.3,277.3,169.3,277.6,169.4"/>
	<path id="path1" class="st2" d="M143.1,32.6c-4.8,3.1-7.9,19.1-6.5,32.5c0.1,1.4,0.4,4,0.5,5.9c0.5,5.8,1.2,11.5,2.1,15.9
		c0.2,1,0.5,2.7,0.6,3.7c0.1,1,0.3,1.8,0.4,1.9c0.1,0.1,0.3,0.8,0.5,1.6c0.7,3.6,1.5,6.8,2.5,10.5c0.3,1.2,0.7,2.5,0.8,3
		c0.8,3.1,2.4,7.9,4.5,13.7c2,5.5,2,5.7-0.1,10.3c-0.9,1.9-2,4.3-2.5,5.4c-1.1,2.4-3.6,8.9-4.2,10.8c-0.2,0.8-0.5,1.7-0.7,2
		c-0.4,0.9-1.8,5.8-3.3,11c-0.5,1.6-1.6,7.7-2.3,12.2c-0.6,3.8-1.6,14.4-1.4,14.6c0.1,0.1,1,0,2.1-0.2c4.1-0.6,6.5-0.8,12.3-0.8
		c6.7,0,9.9,0.3,15.7,1.6c10,2.2,21.8,9,30,17.4c1.7,1.7,1.5,1.7,2.5-0.3c7.8-17.2,17-27.2,29.9-32.7c8.3-3.5,19.8-4.1,29.8-1.5
		c13.4,3.5,24.7,14,30.7,28.5c0.5,1.1,1,2.3,1.1,2.6c0.1,0.3,0.6,1.4,1,2.4c0.4,1,0.8,2,0.8,2.1c0.1,0.1,1-0.5,2-1.5
		c6.4-6.1,12.2-9.9,21.3-13.9c0.6-0.3,1.2-0.5,1.3-0.5c0.2,0,0.7-0.2,1.1-0.4c2.5-1.1,7.4-2.3,12.8-3.1c5.2-0.8,20.3-0.5,22.6,0.5
		c0.7,0.3,0.5-6.2-0.5-15.4c-0.5-4.3-1.3-8.9-2.1-11.8c-0.1-0.5-0.6-2.3-0.9-3.9c-1.7-7.3-4.9-15.5-9.3-23.9c-1.3-2.5-2.6-5-2.8-5.5
		l-0.5-1l1.7-5.2c1-2.9,2-6.1,2.3-7.1c0.3-1,0.9-3.1,1.4-4.6c1.3-4.2,2.1-7.5,3.3-12.2c0.6-2.4,1.2-4.9,1.5-5.6
		c0.4-1.2,0.7-2.5,1.4-6.1c1.3-6.3,1.9-10.2,2.4-14c0.2-1.7,0.5-4.3,0.7-5.7c0.4-3.3,0.4-15.6,0-18c-0.7-4.4-0.9-5.2-1.6-7.2
		c-1.7-5.3-3.6-8.4-5-8.2c-0.5,0.1-1.6,0.2-2.3,0.3c-1.2,0.2-3.1,0.6-6.7,1.6c-8.3,2.3-21.9,11-29.2,18.6c-0.6,0.6-1.2,1.1-1.4,1.1
		c-0.2,0-0.4,0.2-0.4,0.4c0,0.2-0.6,1-1.4,1.7c-1.7,1.6-6.1,6.4-8,8.7c-0.7,0.9-1.8,2.1-2.3,2.7c-0.5,0.6-2.2,2.5-3.6,4.3
		c-1.5,1.8-2.7,3.2-2.7,3.2s-1.4-0.4-3-1c-1.6-0.5-4.2-1.3-5.7-1.6c-1.5-0.4-3.1-0.8-3.7-1c-0.9-0.3-1.5-0.4-5.9-1.2
		c-7-1.4-19.5-2.4-25.6-2.2c-11,0.4-16.9,1.1-25.6,2.9c-2.3,0.5-11.5,3.2-13.1,3.9c-0.8,0.3-0.8,0.3-3.9-2.9
		c-1.4-1.5-4.7-4.9-7.4-7.6c-7.8-8-9-9.3-8.8-9.5c0.1-0.1,0.1-0.2,0,0c-0.1,0.1-1.1-0.6-2.1-1.5c-10-9.4-17.3-14.9-24.4-18.2
		C150.9,32.6,144.7,31.4,143.1,32.6 M237.3,39.6c0.4,0.1,1,0.1,1.4,0c0.3-0.1,0-0.1-0.8-0.1C237.2,39.5,236.9,39.6,237.3,39.6
		 M196.9,116.8c8.1,2.2,14,13.3,8.9,17.2c-2.8,2.1-12.7,3.1-20.2,2c-6.4-0.9-7.3-10.3-1.5-15.6C188,117,192.6,115.7,196.9,116.8
		 M294.2,116.8c8.7,2.3,13.2,12.2,8,17.6c-3.1,3.2-20.5,2.4-23.7-1c-1.2-1.3-1.9-3.9-1.4-5.2c0.1-0.4,0.3-0.9,0.3-1.3
		c0-1,1.4-3.5,3-5.2C284.5,117.2,289.2,115.6,294.2,116.8 M310.7,143.5c0.8,2.8,0.9,3.6,0.9,7.9l0,4.4l-1.8,1.7
		c-3.7,3.4-7.5,5.5-14.2,7.8c-3.7,1.3-4.8,1.6-11,3.1c-4,0.9-10.9,1.4-14.4,0.9l-1.3-0.2l0.2-1.6c0.4-3.7,3.7-7.5,10.5-11.9
		c7.4-4.9,11.7-7.3,19.9-11c2.9-1.3,7.5-2.5,9.6-2.4l1.3,0L310.7,143.5 M182.6,143c2.3,0.5,3.9,1,5.7,1.8c3.1,1.4,7.5,3.6,10.6,5.4
		c1.9,1.1,4.1,2.3,4.9,2.7c9.5,5.2,15.3,10.7,15.3,14.6c0,6.2-31.3-1-40.9-9.4c-3-2.6-3.5-8.7-1.3-14.1
		C177.6,142,177.8,142,182.6,143 M118.7,146.4c0,0.5,0.1,0.7,0.1,0.5c0.1-0.3,0.1-0.7,0-1C118.7,145.6,118.7,145.8,118.7,146.4
		 M368.2,150c0,0.6,0.1,0.8,0.1,0.5c0.1-0.3,0.1-0.8,0-1.1C368.3,149.2,368.2,149.4,368.2,150 M117.6,158.3c0,0.5,0.1,0.7,0.1,0.5
		c0.1-0.3,0.1-0.7,0-1C117.7,157.6,117.6,157.8,117.6,158.3 M368.8,162c0,1.8,0,2.5,0.1,1.6c0.1-0.9,0.1-2.4,0-3.3
		C368.8,159.4,368.8,160.2,368.8,162 M117.6,167.3c0,0.5,0.1,0.7,0.1,0.5c0.1-0.3,0.1-0.7,0-1C117.7,166.6,117.6,166.8,117.6,167.3
		 M368.2,175.1c0,0.6,0.1,0.8,0.1,0.5c0.1-0.3,0.1-0.8,0-1.1C368.3,174.2,368.2,174.5,368.2,175.1 M351.6,189.6
		c0,0.7,0.1,0.9,0.1,0.6c0.1-0.3,0.1-0.9,0-1.2C351.7,188.7,351.6,188.9,351.6,189.6 M155.6,228.6c0,0,0.4,0.4,0.9,0.9l0.9,0.8
		l-0.8-0.9C155.9,228.6,155.6,228.4,155.6,228.6 M327.7,232.7l-0.8,0.9L327.7,232.7c0.6-0.4,1-0.8,1-0.8
		C328.7,231.7,328.5,231.9,327.7,232.7 M150.9,246c0.6,0.6,1.1,1.1,1.2,1.1c0.1,0-0.3-0.5-0.9-1.1c-0.6-0.6-1.1-1.1-1.2-1.1
		C149.9,244.9,150.3,245.4,150.9,246 M157.7,252.8c0.6,0.6,1.1,1.1,1.2,1.1c0.1,0-0.3-0.5-0.9-1.1c-0.6-0.6-1.1-1.1-1.2-1.1
		S157.1,252.2,157.7,252.8 M327.2,254.2l-0.8,0.9L327.2,254.2c0.6-0.4,1-0.8,1-0.8C328.2,253.2,327.9,253.4,327.2,254.2
		 M242.9,269.3c0.3,0.1,0.8,0.1,1.1,0c0.3-0.1,0-0.1-0.6-0.1C242.8,269.2,242.6,269.2,242.9,269.3 M236.2,285.6c0.3,0.1,0.7,0.1,1,0
		c0.3-0.1,0-0.1-0.5-0.1S236,285.5,236.2,285.6"/>
	<path id="path2" class="st3" d="M177.5,142.6c-1.5,2-2.5,8.5-1.7,11.3c0.1,0.5,0.3,1.3,0.4,1.7c0.3,1.5,4.4,4.6,9.1,7
		c9.4,4.8,28,8.5,32.6,6.5l1.3-0.6l-0.2-1.5c-0.4-3.5-3.6-7-11.1-11.8c-1.4-0.9-2.7-1.7-2.8-1.7s-1.5-0.8-3.1-1.7
		c-6.1-3.6-12.7-6.9-16-8C182.5,142.8,177.9,142.1,177.5,142.6 M306,142.5c-5.1,1.1-12.1,4.3-20.9,9.6c-11.5,6.9-15.6,11-16.1,15.6
		l-0.2,1.5l3.2,0.2c12.3,0.8,30.2-4.9,37.9-12l1.7-1.6l0-4.4c0-4.2-0.1-5-0.8-7.9l-0.3-1.3l-1.9,0
		C307.4,142.3,306.3,142.4,306,142.5 M234,186.2c-3.6,1.1-5.2,5.9-4.1,12.5c0.8,5.1,6.9,10.7,14.2,13c0.4,0.1,0.5,0.6,0.5,4.2v4.1
		l-0.9,0.5c-0.5,0.3-1.3,1.1-1.8,1.9c-0.5,0.7-0.9,1.4-1,1.4c-0.4,0.5-10.4,0.1-14.4-0.6c-2.2-0.4-8.6-0.6-8.9-0.3
		c-0.1,0.1,0.2,0.6,0.6,1.1c1.2,1.3,1.8,2.7,2.3,5.1l0.5,2.1h1.1c1.2,0,1.2,0,2,2.7c0.6,1.8,2.1,5.3,2.8,6.1l0.5,0.6l0.5-1.1
		c0.5-1,0.5-1.8,0.5-6.6l0-5.5l1.4,0.1c0.8,0.1,2.5,0.2,3.9,0.4c8,0.8,17.9,0.8,24.9,0c1.1-0.1,3-0.3,4.1-0.4l2.1-0.2l-0.1,5.2
		c0,5,0,5.3,0.6,6.4c0.6,1.2,1.2,1.7,1.2,1.2c0-0.2,0.2-0.7,0.4-1.2c0.2-0.5,0.9-2.3,1.6-4l1.2-3.1l1.4-0.4l1.4-0.4l0.9-3.1
		c0.5-1.7,0.9-3.6,1-4.1l0.2-1l-4,0c-3.3,0-4.2,0.1-5.1,0.5c-1.6,0.7-3.8,0.9-8.2,0.7l-3.9-0.2l-1.2-1.6c-0.7-0.9-1.5-1.7-1.9-1.8
		l-0.7-0.2l0.1-4.1l0.1-4.1l1.1-0.5c8.3-3.9,10.8-7.5,10.9-16.1c0-6.5-0.8-8-5.1-9.2C254.4,185.6,235.9,185.6,234,186.2
		 M234.7,231.9c0.3,1.2,0.7,1.7,2.4,2.4l1.4,0.6l0.9-1c1.6-1.7,2.8-1.2,4.6,1.8c1.1,1.9,2.5,1.6,5.1-1.4c1.2-1.4,1.1-1.3,2.6-0.2
		l1.2,0.9l1-0.7c1.2-0.8,1.5-1.2,1.7-2.4l0.2-0.9h-10.7h-10.7L234.7,231.9"/>
</g>
</svg>
