<svg width="80" height="85" viewBox="0 0 80 85" fill="none" xmlns="http://www.w3.org/2000/svg">
<g opacity="0.2" clip-path="url(#clip0_69_4473)">
<path d="M26.6665 0H0L8.88884 17H35.5553L26.6665 0Z" fill="#686E7D"/>
<path d="M35.5547 33.9968L35.5547 16.9968L17.777 33.9968L35.5547 33.9968Z" fill="#686E7D"/>
<path d="M17.7773 68L17.7773 85L35.555 68L17.7773 68Z" fill="#686E7D"/>
<path d="M17.7812 67.9984L17.7812 50.9984L0.0035755 67.9984L17.7812 67.9984Z" fill="#686E7D"/>
<path d="M53.3324 68.0032H35.5547L53.3324 85.0032V68.0032Z" fill="#686E7D"/>
<path d="M62.2188 33.9984L62.2188 50.9984L79.9964 33.9984L62.2188 33.9984Z" fill="#686E7D"/>
<rect x="80" y="34.0016" width="44.4442" height="17" transform="rotate(180 80 34.0016)" fill="#686E7D"/>
<rect x="62.2188" y="50.9984" width="44.4442" height="17" transform="rotate(180 62.2188 50.9984)" fill="#686E7D"/>
<rect x="17.7812" y="68.0032" width="34" height="17.7777" transform="rotate(-90 17.7812 68.0032)" fill="#686E7D"/>
<rect y="68.0032" width="17.7777" height="17" fill="#686E7D"/>
<path d="M53.332 68.0032H79.9985V85.0032H53.332V68.0032Z" fill="#686E7D"/>
</g>
<defs>
<clipPath id="clip0_69_4473">
<rect width="80" height="85" fill="white"/>
</clipPath>
</defs>
</svg>
