<svg width="60" height="49" viewBox="0 0 60 49" fill="none" xmlns="http://www.w3.org/2000/svg">
<g id="Group 43568">
<path id="Vector 3" d="M20.0183 16.2778C14.7623 23.2277 20.3685 33.0936 29.0293 32.1355C38.6465 31.0714 41.2162 18.282 32.7564 13.5858C28.4324 11.1856 23.0013 12.3334 20.0183 16.2778Z" fill="#DDF0FF"/>
<g id="Layer 4">
<path id="Union" fill-rule="evenodd" clip-rule="evenodd" d="M17.4931 28.6141C17.4931 28.1599 17.1249 27.7917 16.6707 27.7917H13.4519C12.9977 27.7917 12.6295 28.1599 12.6295 28.6141C12.6295 29.0683 12.9977 29.4365 13.4519 29.4365H16.6707C17.1249 29.4365 17.4931 29.0683 17.4931 28.6141ZM24.0874 28.6141C24.0874 28.1599 23.7192 27.7917 23.2651 27.7917H20.0462C19.592 27.7917 19.2239 28.1599 19.2239 28.6141C19.2239 29.0683 19.592 29.4365 20.0462 29.4365H23.265C23.7192 29.4365 24.0874 29.0683 24.0874 28.6141ZM25.8182 28.6141C25.8182 28.1599 26.1864 27.7917 26.6406 27.7917H29.8594C30.3136 27.7917 30.6818 28.1599 30.6818 28.6141C30.6818 29.0683 30.3136 29.4365 29.8594 29.4365H26.6406C26.1864 29.4365 25.8182 29.0683 25.8182 28.6141ZM37.2762 28.6141C37.2762 28.1599 36.9081 27.7917 36.4539 27.7917H33.235C32.7809 27.7917 32.4127 28.1599 32.4127 28.6141C32.4127 29.0683 32.7809 29.4365 33.2351 29.4365H36.4539C36.9081 29.4365 37.2762 29.0683 37.2762 28.6141ZM12.6295 31.9897C12.6295 31.5355 12.9976 31.1673 13.4518 31.1673H16.6707C17.1248 31.1673 17.493 31.5355 17.493 31.9897C17.493 32.4439 17.1248 32.8121 16.6707 32.8121H13.4518C12.9976 32.8121 12.6295 32.4439 12.6295 31.9897ZM17.493 35.3653C17.493 34.9111 17.1248 34.5429 16.6707 34.5429H13.4518C12.9976 34.5429 12.6295 34.9111 12.6295 35.3653C12.6295 35.8195 12.9976 36.1877 13.4518 36.1877H16.6707C17.1248 36.1877 17.493 35.8195 17.493 35.3653ZM12.6295 38.7409C12.6295 38.2867 12.9976 37.9185 13.4518 37.9185H16.6707C17.1248 37.9185 17.493 38.2867 17.493 38.7409C17.493 39.1951 17.1248 39.5632 16.6707 39.5632H13.4518C12.9976 39.5632 12.6295 39.1951 12.6295 38.7409ZM24.0874 31.9897C24.0874 31.5355 23.7192 31.1673 23.2651 31.1673H20.0462C19.592 31.1673 19.2239 31.5355 19.2239 31.9897C19.2239 32.4439 19.592 32.8121 20.0462 32.8121H23.265C23.7192 32.8121 24.0874 32.4439 24.0874 31.9897ZM19.2239 35.3653C19.2239 34.9111 19.592 34.5429 20.0462 34.5429H23.265C23.7192 34.5429 24.0874 34.9111 24.0874 35.3653C24.0874 35.8195 23.7192 36.1877 23.2651 36.1877H20.0462C19.592 36.1877 19.2239 35.8195 19.2239 35.3653ZM24.0874 38.7409C24.0874 38.2867 23.7192 37.9185 23.2651 37.9185H20.0462C19.592 37.9185 19.2239 38.2867 19.2239 38.7409C19.2239 39.1951 19.592 39.5632 20.0462 39.5632H23.265C23.7192 39.5632 24.0874 39.1951 24.0874 38.7409ZM25.8182 31.9897C25.8182 31.5355 26.1864 31.1673 26.6406 31.1673H29.8594C30.3136 31.1673 30.6818 31.5355 30.6818 31.9897C30.6818 32.4439 30.3136 32.8121 29.8594 32.8121H26.6406C26.1864 32.8121 25.8182 32.4439 25.8182 31.9897ZM30.6818 35.3653C30.6818 34.9111 30.3136 34.5429 29.8594 34.5429H26.6406C26.1864 34.5429 25.8182 34.9111 25.8182 35.3653C25.8182 35.8195 26.1864 36.1877 26.6406 36.1877H29.8594C30.3136 36.1877 30.6818 35.8195 30.6818 35.3653ZM25.8182 38.7409C25.8182 38.2867 26.1864 37.9185 26.6406 37.9185H29.8594C30.3136 37.9185 30.6818 38.2867 30.6818 38.7409C30.6818 39.1951 30.3136 39.5632 29.8594 39.5632H26.6406C26.1864 39.5632 25.8182 39.1951 25.8182 38.7409ZM37.2762 31.9897C37.2762 31.5355 36.9081 31.1673 36.4539 31.1673H33.235C32.7809 31.1673 32.4127 31.5355 32.4127 31.9897C32.4127 32.4439 32.7809 32.8121 33.2351 32.8121H36.4539C36.9081 32.8121 37.2762 32.4439 37.2762 31.9897ZM32.4127 35.3653C32.4127 34.9111 32.7809 34.5429 33.2351 34.5429H36.4539C36.9081 34.5429 37.2762 34.9111 37.2762 35.3653C37.2762 35.8195 36.9081 36.1877 36.4539 36.1877H33.235C32.7809 36.1877 32.4127 35.8195 32.4127 35.3653ZM37.2762 38.7409C37.2762 38.2867 36.9081 37.9185 36.4539 37.9185H33.235C32.7809 37.9185 32.4127 38.2867 32.4127 38.7409C32.4127 39.1951 32.7809 39.5632 33.2351 39.5632H36.4539C36.9081 39.5632 37.2762 39.1951 37.2762 38.7409Z" fill="url(#paint0_linear_1844_64570)"/>
<g id="Group 43569">
<g id="*******">
<path d="M13.4793 28.8646L13.5834 28.7281L13.6841 28.8646L13.7801 28.7952L13.6771 28.6575L13.8414 28.6031L13.8044 28.4898L13.6413 28.543V28.3718H13.5233V28.543L13.3578 28.4909L13.322 28.6043L13.4851 28.6575L13.3833 28.7952L13.4793 28.8646Z" fill="white"/>
<path d="M14.2028 28.8646L14.3069 28.7281L14.4076 28.8646L14.5036 28.7952L14.4006 28.6575L14.5649 28.6031L14.5279 28.4898L14.3648 28.543V28.3718H14.2468V28.543L14.0813 28.4909L14.0455 28.6043L14.2086 28.6575L14.1068 28.7952L14.2028 28.8646Z" fill="white"/>
<path d="M14.9263 28.8646L15.0304 28.7281L15.1311 28.8646L15.2271 28.7952L15.1241 28.6575L15.2884 28.6031L15.2514 28.4898L15.0882 28.543V28.3718H14.9702V28.543L14.8048 28.4909L14.769 28.6043L14.9321 28.6575L14.8303 28.7952L14.9263 28.8646Z" fill="white"/>
<path d="M15.6498 28.8646L15.7539 28.7281L15.8545 28.8646L15.9506 28.7952L15.8476 28.6575L16.0119 28.6031L15.9749 28.4898L15.8117 28.543V28.3718H15.6937V28.543L15.5283 28.4909L15.4924 28.6043L15.6556 28.6575L15.5538 28.7952L15.6498 28.8646Z" fill="white"/>
<path d="M16.3733 28.8646L16.4774 28.7281L16.578 28.8646L16.6741 28.7952L16.5711 28.6575L16.7354 28.6031L16.6984 28.4898L16.5352 28.543V28.3718H16.4172V28.543L16.2518 28.4909L16.2159 28.6043L16.3791 28.6575L16.2773 28.7952L16.3733 28.8646Z" fill="white"/>
</g>
<g id="*******_2">
<path d="M13.4794 32.2375L13.5835 32.1009L13.6841 32.2375L13.7801 32.168L13.6772 32.0304L13.8415 31.976L13.8044 31.8626L13.6413 31.9158V31.7446H13.5233V31.9158L13.3579 31.8638L13.322 31.9772L13.4851 32.0304L13.3833 32.168L13.4794 32.2375Z" fill="white"/>
<path d="M14.2029 32.2375L14.307 32.1009L14.4076 32.2375L14.5036 32.168L14.4007 32.0304L14.565 31.976L14.5279 31.8626L14.3648 31.9158V31.7446H14.2468V31.9158L14.0814 31.8638L14.0455 31.9772L14.2086 32.0304L14.1068 32.168L14.2029 32.2375Z" fill="white"/>
<path d="M14.9263 32.2375L15.0305 32.1009L15.1311 32.2375L15.2271 32.168L15.1242 32.0304L15.2884 31.976L15.2514 31.8626L15.0883 31.9158V31.7446H14.9703V31.9158L14.8049 31.8638L14.769 31.9772L14.9321 32.0304L14.8303 32.168L14.9263 32.2375Z" fill="white"/>
<path d="M15.6498 32.2375L15.754 32.1009L15.8546 32.2375L15.9506 32.168L15.8477 32.0304L16.0119 31.976L15.9749 31.8626L15.8118 31.9158V31.7446H15.6938V31.9158L15.5284 31.8638L15.4925 31.9772L15.6556 32.0304L15.5538 32.168L15.6498 32.2375Z" fill="white"/>
<path d="M16.3733 32.2375L16.4775 32.1009L16.5781 32.2375L16.6741 32.168L16.5712 32.0304L16.7354 31.976L16.6984 31.8626L16.5353 31.9158V31.7446H16.4173V31.9158L16.2519 31.8638L16.216 31.9772L16.3791 32.0304L16.2773 32.168L16.3733 32.2375Z" fill="white"/>
</g>
<g id="*******_3">
<path d="M13.4794 35.6103L13.5835 35.4738L13.6841 35.6103L13.7801 35.5409L13.6772 35.4032L13.8415 35.3489L13.8044 35.2355L13.6413 35.2887V35.1175H13.5233V35.2887L13.3579 35.2367L13.322 35.35L13.4851 35.4032L13.3833 35.5409L13.4794 35.6103Z" fill="white"/>
<path d="M14.2029 35.6103L14.307 35.4738L14.4076 35.6103L14.5036 35.5409L14.4007 35.4032L14.565 35.3489L14.5279 35.2355L14.3648 35.2887V35.1175H14.2468V35.2887L14.0814 35.2367L14.0455 35.35L14.2086 35.4032L14.1068 35.5409L14.2029 35.6103Z" fill="white"/>
<path d="M14.9263 35.6103L15.0305 35.4738L15.1311 35.6103L15.2271 35.5409L15.1242 35.4032L15.2884 35.3489L15.2514 35.2355L15.0883 35.2887V35.1175H14.9703V35.2887L14.8049 35.2367L14.769 35.35L14.9321 35.4032L14.8303 35.5409L14.9263 35.6103Z" fill="white"/>
<path d="M15.6498 35.6103L15.754 35.4738L15.8546 35.6103L15.9506 35.5409L15.8477 35.4032L16.0119 35.3489L15.9749 35.2355L15.8118 35.2887V35.1175H15.6938V35.2887L15.5284 35.2367L15.4925 35.35L15.6556 35.4032L15.5538 35.5409L15.6498 35.6103Z" fill="white"/>
<path d="M16.3733 35.6103L16.4775 35.4738L16.5781 35.6103L16.6741 35.5409L16.5712 35.4032L16.7354 35.3489L16.6984 35.2355L16.5353 35.2887V35.1175H16.4173V35.2887L16.2519 35.2367L16.216 35.35L16.3791 35.4032L16.2773 35.5409L16.3733 35.6103Z" fill="white"/>
</g>
<g id="*******_4">
<path d="M13.4794 38.9832L13.5835 38.8467L13.6841 38.9832L13.7801 38.9138L13.6772 38.7761L13.8415 38.7217L13.8044 38.6084L13.6413 38.6616V38.4904H13.5233V38.6616L13.3579 38.6095L13.322 38.7229L13.4851 38.7761L13.3833 38.9138L13.4794 38.9832Z" fill="white"/>
<path d="M14.2029 38.9832L14.307 38.8467L14.4076 38.9832L14.5036 38.9138L14.4007 38.7761L14.565 38.7217L14.5279 38.6084L14.3648 38.6616V38.4904H14.2468V38.6616L14.0814 38.6095L14.0455 38.7229L14.2086 38.7761L14.1068 38.9138L14.2029 38.9832Z" fill="white"/>
<path d="M14.9263 38.9832L15.0305 38.8467L15.1311 38.9832L15.2271 38.9138L15.1242 38.7761L15.2884 38.7217L15.2514 38.6084L15.0883 38.6616V38.4904H14.9703V38.6616L14.8049 38.6095L14.769 38.7229L14.9321 38.7761L14.8303 38.9138L14.9263 38.9832Z" fill="white"/>
<path d="M15.6498 38.9832L15.754 38.8467L15.8546 38.9832L15.9506 38.9138L15.8477 38.7761L16.0119 38.7217L15.9749 38.6084L15.8118 38.6616V38.4904H15.6938V38.6616L15.5284 38.6095L15.4925 38.7229L15.6556 38.7761L15.5538 38.9138L15.6498 38.9832Z" fill="white"/>
<path d="M16.3733 38.9832L16.4775 38.8467L16.5781 38.9832L16.6741 38.9138L16.5712 38.7761L16.7354 38.7217L16.6984 38.6084L16.5353 38.6616V38.4904H16.4173V38.6616L16.2519 38.6095L16.216 38.7229L16.3791 38.7761L16.2773 38.9138L16.3733 38.9832Z" fill="white"/>
</g>
</g>
<g id="Group 43570">
<g id="*******_5">
<path d="M20.0954 28.8646L20.1995 28.7281L20.3001 28.8646L20.3962 28.7952L20.2932 28.6575L20.4575 28.6031L20.4205 28.4898L20.2573 28.543V28.3718H20.1393V28.543L19.9739 28.4909L19.938 28.6043L20.1012 28.6575L19.9994 28.7952L20.0954 28.8646Z" fill="white"/>
<path d="M20.8189 28.8646L20.923 28.7281L21.0236 28.8646L21.1197 28.7952L21.0167 28.6575L21.181 28.6031L21.144 28.4898L20.9808 28.543V28.3718H20.8628V28.543L20.6974 28.4909L20.6615 28.6043L20.8247 28.6575L20.7229 28.7952L20.8189 28.8646Z" fill="white"/>
<path d="M21.5424 28.8646L21.6465 28.7281L21.7471 28.8646L21.8432 28.7952L21.7402 28.6575L21.9045 28.6031L21.8675 28.4898L21.7043 28.543V28.3718H21.5863V28.543L21.4209 28.4909L21.385 28.6043L21.5482 28.6575L21.4464 28.7952L21.5424 28.8646Z" fill="white"/>
<path d="M22.2659 28.8646L22.37 28.7281L22.4706 28.8646L22.5667 28.7952L22.4637 28.6575L22.628 28.6031L22.591 28.4898L22.4278 28.543V28.3718H22.3098V28.543L22.1444 28.4909L22.1085 28.6043L22.2717 28.6575L22.1699 28.7952L22.2659 28.8646Z" fill="white"/>
<path d="M22.9894 28.8646L23.0935 28.7281L23.1941 28.8646L23.2902 28.7952L23.1872 28.6575L23.3515 28.6031L23.3144 28.4898L23.1513 28.543V28.3718H23.0333V28.543L22.8679 28.4909L22.832 28.6043L22.9952 28.6575L22.8933 28.7952L22.9894 28.8646Z" fill="white"/>
</g>
<g id="*******_6">
<path d="M20.0954 32.2375L20.1996 32.1009L20.3002 32.2375L20.3962 32.168L20.2933 32.0304L20.4575 31.976L20.4205 31.8626L20.2574 31.9158V31.7446H20.1394V31.9158L19.974 31.8638L19.9381 31.9772L20.1012 32.0304L19.9994 32.168L20.0954 32.2375Z" fill="white"/>
<path d="M20.8189 32.2375L20.9231 32.1009L21.0237 32.2375L21.1197 32.168L21.0168 32.0304L21.181 31.976L21.144 31.8626L20.9809 31.9158V31.7446H20.8629V31.9158L20.6975 31.8638L20.6616 31.9772L20.8247 32.0304L20.7229 32.168L20.8189 32.2375Z" fill="white"/>
<path d="M21.5424 32.2375L21.6466 32.1009L21.7472 32.2375L21.8432 32.168L21.7403 32.0304L21.9045 31.976L21.8675 31.8626L21.7044 31.9158V31.7446H21.5864V31.9158L21.421 31.8638L21.3851 31.9772L21.5482 32.0304L21.4464 32.168L21.5424 32.2375Z" fill="white"/>
<path d="M22.2659 32.2375L22.3701 32.1009L22.4707 32.2375L22.5667 32.168L22.4638 32.0304L22.628 31.976L22.591 31.8626L22.4279 31.9158V31.7446H22.3099V31.9158L22.1445 31.8638L22.1086 31.9772L22.2717 32.0304L22.1699 32.168L22.2659 32.2375Z" fill="white"/>
<path d="M22.9894 32.2375L23.0935 32.1009L23.1942 32.2375L23.2902 32.168L23.1873 32.0304L23.3515 31.976L23.3145 31.8626L23.1514 31.9158V31.7446H23.0334V31.9158L22.868 31.8638L22.8321 31.9772L22.9952 32.0304L22.8934 32.168L22.9894 32.2375Z" fill="white"/>
</g>
<g id="*******_7">
<path d="M20.0954 35.6103L20.1996 35.4738L20.3002 35.6103L20.3962 35.5409L20.2933 35.4032L20.4575 35.3489L20.4205 35.2355L20.2574 35.2887V35.1175H20.1394V35.2887L19.974 35.2367L19.9381 35.35L20.1012 35.4032L19.9994 35.5409L20.0954 35.6103Z" fill="white"/>
<path d="M20.8189 35.6103L20.9231 35.4738L21.0237 35.6103L21.1197 35.5409L21.0168 35.4032L21.181 35.3489L21.144 35.2355L20.9809 35.2887V35.1175H20.8629V35.2887L20.6975 35.2367L20.6616 35.35L20.8247 35.4032L20.7229 35.5409L20.8189 35.6103Z" fill="white"/>
<path d="M21.5424 35.6103L21.6466 35.4738L21.7472 35.6103L21.8432 35.5409L21.7403 35.4032L21.9045 35.3489L21.8675 35.2355L21.7044 35.2887V35.1175H21.5864V35.2887L21.421 35.2367L21.3851 35.35L21.5482 35.4032L21.4464 35.5409L21.5424 35.6103Z" fill="white"/>
<path d="M22.2659 35.6103L22.3701 35.4738L22.4707 35.6103L22.5667 35.5409L22.4638 35.4032L22.628 35.3489L22.591 35.2355L22.4279 35.2887V35.1175H22.3099V35.2887L22.1445 35.2367L22.1086 35.35L22.2717 35.4032L22.1699 35.5409L22.2659 35.6103Z" fill="white"/>
<path d="M22.9894 35.6103L23.0935 35.4738L23.1942 35.6103L23.2902 35.5409L23.1873 35.4032L23.3515 35.3489L23.3145 35.2355L23.1514 35.2887V35.1175H23.0334V35.2887L22.868 35.2367L22.8321 35.35L22.9952 35.4032L22.8934 35.5409L22.9894 35.6103Z" fill="white"/>
</g>
<g id="*******_8">
<path d="M20.0954 38.9832L20.1996 38.8467L20.3002 38.9832L20.3962 38.9138L20.2933 38.7761L20.4575 38.7217L20.4205 38.6084L20.2574 38.6616V38.4904H20.1394V38.6616L19.974 38.6095L19.9381 38.7229L20.1012 38.7761L19.9994 38.9138L20.0954 38.9832Z" fill="white"/>
<path d="M20.8189 38.9832L20.9231 38.8467L21.0237 38.9832L21.1197 38.9138L21.0168 38.7761L21.181 38.7217L21.144 38.6084L20.9809 38.6616V38.4904H20.8629V38.6616L20.6975 38.6095L20.6616 38.7229L20.8247 38.7761L20.7229 38.9138L20.8189 38.9832Z" fill="white"/>
<path d="M21.5424 38.9832L21.6466 38.8467L21.7472 38.9832L21.8432 38.9138L21.7403 38.7761L21.9045 38.7217L21.8675 38.6084L21.7044 38.6616V38.4904H21.5864V38.6616L21.421 38.6095L21.3851 38.7229L21.5482 38.7761L21.4464 38.9138L21.5424 38.9832Z" fill="white"/>
<path d="M22.2659 38.9832L22.3701 38.8467L22.4707 38.9832L22.5667 38.9138L22.4638 38.7761L22.628 38.7217L22.591 38.6084L22.4279 38.6616V38.4904H22.3099V38.6616L22.1445 38.6095L22.1086 38.7229L22.2717 38.7761L22.1699 38.9138L22.2659 38.9832Z" fill="white"/>
<path d="M22.9894 38.9832L23.0935 38.8467L23.1942 38.9832L23.2902 38.9138L23.1873 38.7761L23.3515 38.7217L23.3145 38.6084L23.1514 38.6616V38.4904H23.0334V38.6616L22.868 38.6095L22.8321 38.7229L22.9952 38.7761L22.8934 38.9138L22.9894 38.9832Z" fill="white"/>
</g>
</g>
<g id="Group 43571">
<g id="*******_9">
<path d="M26.7114 28.8646L26.8155 28.7281L26.9162 28.8646L27.0122 28.7952L26.9092 28.6575L27.0735 28.6031L27.0365 28.4898L26.8734 28.543V28.3718H26.7554V28.543L26.5899 28.4909L26.5541 28.6043L26.7172 28.6575L26.6154 28.7952L26.7114 28.8646Z" fill="white"/>
<path d="M27.4349 28.8646L27.539 28.7281L27.6397 28.8646L27.7357 28.7952L27.6327 28.6575L27.797 28.6031L27.76 28.4898L27.5969 28.543V28.3718H27.4789V28.543L27.3134 28.4909L27.2776 28.6043L27.4407 28.6575L27.3389 28.7952L27.4349 28.8646Z" fill="white"/>
<path d="M28.1584 28.8646L28.2625 28.7281L28.3632 28.8646L28.4592 28.7952L28.3562 28.6575L28.5205 28.6031L28.4835 28.4898L28.3204 28.543V28.3718H28.2024V28.543L28.0369 28.4909L28.0011 28.6043L28.1642 28.6575L28.0624 28.7952L28.1584 28.8646Z" fill="white"/>
<path d="M28.8819 28.8646L28.986 28.7281L29.0867 28.8646L29.1827 28.7952L29.0797 28.6575L29.244 28.6031L29.207 28.4898L29.0439 28.543V28.3718H28.9259V28.543L28.7604 28.4909L28.7246 28.6043L28.8877 28.6575L28.7859 28.7952L28.8819 28.8646Z" fill="white"/>
<path d="M29.6054 28.8646L29.7095 28.7281L29.8102 28.8646L29.9062 28.7952L29.8032 28.6575L29.9675 28.6031L29.9305 28.4898L29.7674 28.543V28.3718H29.6494V28.543L29.4839 28.4909L29.4481 28.6043L29.6112 28.6575L29.5094 28.7952L29.6054 28.8646Z" fill="white"/>
</g>
<g id="*******_10">
<path d="M26.7114 32.2375L26.8155 32.1009L26.9162 32.2375L27.0122 32.168L26.9092 32.0304L27.0735 31.976L27.0365 31.8626L26.8734 31.9158V31.7446H26.7554V31.9158L26.5899 31.8638L26.5541 31.9772L26.7172 32.0304L26.6154 32.168L26.7114 32.2375Z" fill="white"/>
<path d="M27.4349 32.2375L27.539 32.1009L27.6397 32.2375L27.7357 32.168L27.6327 32.0304L27.797 31.976L27.76 31.8626L27.5969 31.9158V31.7446H27.4789V31.9158L27.3134 31.8638L27.2776 31.9772L27.4407 32.0304L27.3389 32.168L27.4349 32.2375Z" fill="white"/>
<path d="M28.1584 32.2375L28.2625 32.1009L28.3632 32.2375L28.4592 32.168L28.3562 32.0304L28.5205 31.976L28.4835 31.8626L28.3204 31.9158V31.7446H28.2024V31.9158L28.0369 31.8638L28.0011 31.9772L28.1642 32.0304L28.0624 32.168L28.1584 32.2375Z" fill="white"/>
<path d="M28.8819 32.2375L28.986 32.1009L29.0867 32.2375L29.1827 32.168L29.0797 32.0304L29.244 31.976L29.207 31.8626L29.0439 31.9158V31.7446H28.9259V31.9158L28.7604 31.8638L28.7246 31.9772L28.8877 32.0304L28.7859 32.168L28.8819 32.2375Z" fill="white"/>
<path d="M29.6054 32.2375L29.7095 32.1009L29.8102 32.2375L29.9062 32.168L29.8032 32.0304L29.9675 31.976L29.9305 31.8626L29.7674 31.9158V31.7446H29.6494V31.9158L29.4839 31.8638L29.4481 31.9772L29.6112 32.0304L29.5094 32.168L29.6054 32.2375Z" fill="white"/>
</g>
<g id="*******_11">
<path d="M26.7114 35.6103L26.8155 35.4738L26.9162 35.6103L27.0122 35.5409L26.9092 35.4032L27.0735 35.3489L27.0365 35.2355L26.8734 35.2887V35.1175H26.7554V35.2887L26.5899 35.2367L26.5541 35.35L26.7172 35.4032L26.6154 35.5409L26.7114 35.6103Z" fill="white"/>
<path d="M27.4349 35.6103L27.539 35.4738L27.6397 35.6103L27.7357 35.5409L27.6327 35.4032L27.797 35.3489L27.76 35.2355L27.5969 35.2887V35.1175H27.4789V35.2887L27.3134 35.2367L27.2776 35.35L27.4407 35.4032L27.3389 35.5409L27.4349 35.6103Z" fill="white"/>
<path d="M28.1584 35.6103L28.2625 35.4738L28.3632 35.6103L28.4592 35.5409L28.3562 35.4032L28.5205 35.3489L28.4835 35.2355L28.3204 35.2887V35.1175H28.2024V35.2887L28.0369 35.2367L28.0011 35.35L28.1642 35.4032L28.0624 35.5409L28.1584 35.6103Z" fill="white"/>
<path d="M28.8819 35.6103L28.986 35.4738L29.0867 35.6103L29.1827 35.5409L29.0797 35.4032L29.244 35.3489L29.207 35.2355L29.0439 35.2887V35.1175H28.9259V35.2887L28.7604 35.2367L28.7246 35.35L28.8877 35.4032L28.7859 35.5409L28.8819 35.6103Z" fill="white"/>
<path d="M29.6054 35.6103L29.7095 35.4738L29.8102 35.6103L29.9062 35.5409L29.8032 35.4032L29.9675 35.3489L29.9305 35.2355L29.7674 35.2887V35.1175H29.6494V35.2887L29.4839 35.2367L29.4481 35.35L29.6112 35.4032L29.5094 35.5409L29.6054 35.6103Z" fill="white"/>
</g>
<g id="*******_12">
<path d="M26.7114 38.9832L26.8155 38.8467L26.9162 38.9832L27.0122 38.9138L26.9092 38.7761L27.0735 38.7217L27.0365 38.6084L26.8734 38.6616V38.4904H26.7554V38.6616L26.5899 38.6095L26.5541 38.7229L26.7172 38.7761L26.6154 38.9138L26.7114 38.9832Z" fill="white"/>
<path d="M27.4349 38.9832L27.539 38.8467L27.6397 38.9832L27.7357 38.9138L27.6327 38.7761L27.797 38.7217L27.76 38.6084L27.5969 38.6616V38.4904H27.4789V38.6616L27.3134 38.6095L27.2776 38.7229L27.4407 38.7761L27.3389 38.9138L27.4349 38.9832Z" fill="white"/>
<path d="M28.1584 38.9832L28.2625 38.8467L28.3632 38.9832L28.4592 38.9138L28.3562 38.7761L28.5205 38.7217L28.4835 38.6084L28.3204 38.6616V38.4904H28.2024V38.6616L28.0369 38.6095L28.0011 38.7229L28.1642 38.7761L28.0624 38.9138L28.1584 38.9832Z" fill="white"/>
<path d="M28.8819 38.9832L28.986 38.8467L29.0867 38.9832L29.1827 38.9138L29.0797 38.7761L29.244 38.7217L29.207 38.6084L29.0439 38.6616V38.4904H28.9259V38.6616L28.7604 38.6095L28.7246 38.7229L28.8877 38.7761L28.7859 38.9138L28.8819 38.9832Z" fill="white"/>
<path d="M29.6054 38.9832L29.7095 38.8467L29.8102 38.9832L29.9062 38.9138L29.8032 38.7761L29.9675 38.7217L29.9305 38.6084L29.7674 38.6616V38.4904H29.6494V38.6616L29.4839 38.6095L29.4481 38.7229L29.6112 38.7761L29.5094 38.9138L29.6054 38.9832Z" fill="white"/>
</g>
</g>
<g id="Group 43572">
<g id="*******_13">
<path d="M33.3276 28.8646L33.4317 28.7281L33.5323 28.8646L33.6283 28.7952L33.5254 28.6575L33.6897 28.6031L33.6526 28.4898L33.4895 28.543V28.3718H33.3715V28.543L33.2061 28.4909L33.1702 28.6043L33.3333 28.6575L33.2315 28.7952L33.3276 28.8646Z" fill="white"/>
<path d="M34.0511 28.8646L34.1552 28.7281L34.2558 28.8646L34.3518 28.7952L34.2489 28.6575L34.4132 28.6031L34.3761 28.4898L34.213 28.543V28.3718H34.095V28.543L33.9296 28.4909L33.8937 28.6043L34.0568 28.6575L33.955 28.7952L34.0511 28.8646Z" fill="white"/>
<path d="M34.7746 28.8646L34.8787 28.7281L34.9793 28.8646L35.0753 28.7952L34.9724 28.6575L35.1367 28.6031L35.0996 28.4898L34.9365 28.543V28.3718H34.8185V28.543L34.6531 28.4909L34.6172 28.6043L34.7803 28.6575L34.6785 28.7952L34.7746 28.8646Z" fill="white"/>
<path d="M35.498 28.8646L35.6022 28.7281L35.7028 28.8646L35.7988 28.7952L35.6959 28.6575L35.8602 28.6031L35.8231 28.4898L35.66 28.543V28.3718H35.542V28.543L35.3766 28.4909L35.3407 28.6043L35.5038 28.6575L35.402 28.7952L35.498 28.8646Z" fill="white"/>
<path d="M36.2215 28.8646L36.3257 28.7281L36.4263 28.8646L36.5223 28.7952L36.4194 28.6575L36.5836 28.6031L36.5466 28.4898L36.3835 28.543V28.3718H36.2655V28.543L36.1001 28.4909L36.0642 28.6043L36.2273 28.6575L36.1255 28.7952L36.2215 28.8646Z" fill="white"/>
</g>
<g id="*******_14">
<path d="M33.3276 32.2375L33.4317 32.1009L33.5323 32.2375L33.6283 32.168L33.5254 32.0304L33.6897 31.976L33.6526 31.8626L33.4895 31.9158V31.7446H33.3715V31.9158L33.2061 31.8638L33.1702 31.9772L33.3333 32.0304L33.2315 32.168L33.3276 32.2375Z" fill="white"/>
<path d="M34.0511 32.2375L34.1552 32.1009L34.2558 32.2375L34.3518 32.168L34.2489 32.0304L34.4132 31.976L34.3761 31.8626L34.213 31.9158V31.7446H34.095V31.9158L33.9296 31.8638L33.8937 31.9772L34.0568 32.0304L33.955 32.168L34.0511 32.2375Z" fill="white"/>
<path d="M34.7746 32.2375L34.8787 32.1009L34.9793 32.2375L35.0753 32.168L34.9724 32.0304L35.1367 31.976L35.0996 31.8626L34.9365 31.9158V31.7446H34.8185V31.9158L34.6531 31.8638L34.6172 31.9772L34.7803 32.0304L34.6785 32.168L34.7746 32.2375Z" fill="white"/>
<path d="M35.498 32.2375L35.6022 32.1009L35.7028 32.2375L35.7988 32.168L35.6959 32.0304L35.8602 31.976L35.8231 31.8626L35.66 31.9158V31.7446H35.542V31.9158L35.3766 31.8638L35.3407 31.9772L35.5038 32.0304L35.402 32.168L35.498 32.2375Z" fill="white"/>
<path d="M36.2215 32.2375L36.3257 32.1009L36.4263 32.2375L36.5223 32.168L36.4194 32.0304L36.5836 31.976L36.5466 31.8626L36.3835 31.9158V31.7446H36.2655V31.9158L36.1001 31.8638L36.0642 31.9772L36.2273 32.0304L36.1255 32.168L36.2215 32.2375Z" fill="white"/>
</g>
<g id="*******_15">
<path d="M33.3276 35.6103L33.4317 35.4738L33.5323 35.6103L33.6283 35.5409L33.5254 35.4032L33.6897 35.3489L33.6526 35.2355L33.4895 35.2887V35.1175H33.3715V35.2887L33.2061 35.2367L33.1702 35.35L33.3333 35.4032L33.2315 35.5409L33.3276 35.6103Z" fill="white"/>
<path d="M34.0511 35.6103L34.1552 35.4738L34.2558 35.6103L34.3518 35.5409L34.2489 35.4032L34.4132 35.3489L34.3761 35.2355L34.213 35.2887V35.1175H34.095V35.2887L33.9296 35.2367L33.8937 35.35L34.0568 35.4032L33.955 35.5409L34.0511 35.6103Z" fill="white"/>
<path d="M34.7746 35.6103L34.8787 35.4738L34.9793 35.6103L35.0753 35.5409L34.9724 35.4032L35.1367 35.3489L35.0996 35.2355L34.9365 35.2887V35.1175H34.8185V35.2887L34.6531 35.2367L34.6172 35.35L34.7803 35.4032L34.6785 35.5409L34.7746 35.6103Z" fill="white"/>
<path d="M35.498 35.6103L35.6022 35.4738L35.7028 35.6103L35.7988 35.5409L35.6959 35.4032L35.8602 35.3489L35.8231 35.2355L35.66 35.2887V35.1175H35.542V35.2887L35.3766 35.2367L35.3407 35.35L35.5038 35.4032L35.402 35.5409L35.498 35.6103Z" fill="white"/>
<path d="M36.2215 35.6103L36.3257 35.4738L36.4263 35.6103L36.5223 35.5409L36.4194 35.4032L36.5836 35.3489L36.5466 35.2355L36.3835 35.2887V35.1175H36.2655V35.2887L36.1001 35.2367L36.0642 35.35L36.2273 35.4032L36.1255 35.5409L36.2215 35.6103Z" fill="white"/>
</g>
<g id="*******_16">
<path d="M33.3276 38.9832L33.4317 38.8467L33.5323 38.9832L33.6283 38.9138L33.5254 38.7761L33.6897 38.7217L33.6526 38.6084L33.4895 38.6616V38.4904H33.3715V38.6616L33.2061 38.6095L33.1702 38.7229L33.3333 38.7761L33.2315 38.9138L33.3276 38.9832Z" fill="white"/>
<path d="M34.0511 38.9832L34.1552 38.8467L34.2558 38.9832L34.3518 38.9138L34.2489 38.7761L34.4132 38.7217L34.3761 38.6084L34.213 38.6616V38.4904H34.095V38.6616L33.9296 38.6095L33.8937 38.7229L34.0568 38.7761L33.955 38.9138L34.0511 38.9832Z" fill="white"/>
<path d="M34.7746 38.9832L34.8787 38.8467L34.9793 38.9832L35.0753 38.9138L34.9724 38.7761L35.1367 38.7217L35.0996 38.6084L34.9365 38.6616V38.4904H34.8185V38.6616L34.6531 38.6095L34.6172 38.7229L34.7803 38.7761L34.6785 38.9138L34.7746 38.9832Z" fill="white"/>
<path d="M35.498 38.9832L35.6022 38.8467L35.7028 38.9832L35.7988 38.9138L35.6959 38.7761L35.8602 38.7217L35.8231 38.6084L35.66 38.6616V38.4904H35.542V38.6616L35.3766 38.6095L35.3407 38.7229L35.5038 38.7761L35.402 38.9138L35.498 38.9832Z" fill="white"/>
<path d="M36.2215 38.9832L36.3257 38.8467L36.4263 38.9832L36.5223 38.9138L36.4194 38.7761L36.5836 38.7217L36.5466 38.6084L36.3835 38.6616V38.4904H36.2655V38.6616L36.1001 38.6095L36.0642 38.7229L36.2273 38.7761L36.1255 38.9138L36.2215 38.9832Z" fill="white"/>
</g>
</g>
</g>
<path id="Vector" d="M52.1125 15.689C51.1031 15.2316 50.8987 14.3118 50.7347 13.5726C50.5693 12.8279 50.4399 12.3589 49.8854 12.1071C49.3307 11.8561 48.8958 12.0694 48.2319 12.4381C47.5732 12.8045 46.7533 13.2604 45.7435 12.8032C44.7341 12.3458 44.5297 11.426 44.3657 10.6868C44.2002 9.94213 44.0709 9.47316 43.5164 9.22141C42.9616 8.97034 42.5267 9.18365 41.8629 9.55241C41.2041 9.91877 40.3843 10.3746 39.3744 9.91748C38.3651 9.4601 38.1606 8.54028 37.9966 7.80111C37.8312 7.0564 37.7018 6.58742 37.1473 6.33567C36.9126 6.22946 36.8077 5.95266 36.9128 5.71767C37.0178 5.48268 37.2935 5.37842 37.5281 5.48463C38.5375 5.94201 38.7419 6.86183 38.9059 7.601C39.0714 8.34572 39.2007 8.81469 39.7552 9.06644C40.31 9.31751 40.7449 9.1042 41.4087 8.73544C42.0675 8.36907 42.8873 7.91321 43.8972 8.37037C44.9065 8.82775 45.111 9.74757 45.275 10.4867C45.4404 11.2315 45.5698 11.7004 46.1243 11.9522C46.679 12.2032 47.1139 11.9899 47.7778 11.6212C48.4365 11.2548 49.2564 10.7989 50.2662 11.2561C51.2756 11.7135 51.48 12.6333 51.644 13.3725C51.8095 14.1172 51.9388 14.5862 52.4933 14.8379C52.728 14.9441 52.8329 15.2209 52.7279 15.4559C52.6228 15.6909 52.3472 15.7952 52.1125 15.689Z" fill="#D3EFDA"/>
<g id="Group">
<path id="Vector_2" d="M31.031 11.2843L32.4102 11.0314L32.347 11.7268L31.3287 12.0885" fill="#027DD4"/>
<path id="Vector_3" d="M21.8799 14.2915L23.2591 14.0386V15.3624" fill="#027DD4"/>
<g id="Group_2">
<path id="Vector_4" d="M31.031 34.1376L32.4102 33.8847V31.6025" fill="#3FA2EC"/>
<path id="Vector_5" d="M38.2866 29.5583L31.0311 34.1381L23.7755 29.5583C22.595 28.8134 21.8795 27.5188 21.8795 26.1271V14.2915C24.8179 14.5986 27.7626 13.774 30.1087 11.9863L31.0305 11.2838L31.9524 11.9863C34.2985 13.7734 37.2437 14.5986 40.1816 14.2915V26.1271C40.1816 27.5183 39.4661 28.8129 38.2856 29.5583H38.2866Z" fill="url(#paint1_linear_1844_64570)"/>
<path id="Vector_6" d="M39.6658 29.305L32.4102 33.8847L25.1546 29.305C23.9741 28.5601 23.2586 27.2654 23.2586 25.8737V14.0386C26.1971 14.3457 29.1417 13.5211 31.4879 11.7334L32.4097 11.0309L33.3315 11.7334C35.6777 13.5206 38.6228 14.3457 41.5608 14.0386V25.8742C41.5608 27.2654 40.8453 28.5601 39.6648 29.3055L39.6658 29.305Z" fill="url(#paint2_linear_1844_64570)"/>
</g>
<path id="Union_2" fill-rule="evenodd" clip-rule="evenodd" d="M34.1603 23.1406C35.1485 22.546 35.8096 21.463 35.8096 20.2257C35.8096 18.3482 34.2877 16.8263 32.4102 16.8263C30.5328 16.8263 29.0109 18.3482 29.0109 20.2257C29.0109 21.463 29.6719 22.5459 30.6601 23.1405C30.3548 23.4366 30.1224 23.812 29.9974 24.2411L29.8648 24.6961C29.3702 26.3929 30.6428 28.0894 32.4102 28.0894C34.1775 28.0894 35.4501 26.3929 34.9556 24.6961L34.8229 24.2411C34.6979 23.812 34.4656 23.4366 34.1603 23.1406Z" fill="url(#paint3_linear_1844_64570)"/>
</g>
<path id="Union_3" fill-rule="evenodd" clip-rule="evenodd" d="M42.4964 21.2287C42.8166 19.4866 44.3526 18.1601 46.1924 18.1597L46.1923 18.1593C48.2613 18.1586 49.9422 19.8347 49.9392 21.8949C49.9361 23.9551 48.25 25.6318 46.1809 25.6325C44.3411 25.6329 42.8097 24.3083 42.4943 22.5668L37.0302 22.5715V23.4809C37.0302 23.8404 36.7387 24.1319 36.3791 24.1319C36.0196 24.1319 35.7281 23.8404 35.7281 23.4809V22.5726L35.3142 22.573V23.4809C35.3142 23.8404 35.0227 24.1319 34.6631 24.1319C34.3036 24.1319 34.0121 23.8404 34.0121 23.4809V22.5741L33.0816 22.5749L33.0808 22.575C32.7099 22.5753 32.4097 22.2762 32.4097 21.9069C32.41 21.5372 32.7108 21.2374 33.0821 21.2367L42.4964 21.2287ZM43.7781 21.8973C43.7763 23.2195 44.8548 24.295 46.1831 24.2947C47.5109 24.2942 48.5929 23.2183 48.595 21.8956C48.5968 20.5735 47.5178 19.4977 46.19 19.4982C44.8622 19.4988 43.7801 20.5747 43.7781 21.8973Z" fill="url(#paint4_linear_1844_64570)"/>
</g>
<defs>
<linearGradient id="paint0_linear_1844_64570" x1="8.66837" y1="42.5634" x2="33.4094" y2="24.1488" gradientUnits="userSpaceOnUse">
<stop stop-color="#75C3FC"/>
<stop offset="0.404483" stop-color="#75C3FC"/>
<stop offset="0.826548" stop-color="#FFB0EB"/>
<stop offset="1" stop-color="white"/>
</linearGradient>
<linearGradient id="paint1_linear_1844_64570" x1="31.0305" y1="11.2838" x2="31.0305" y2="34.1381" gradientUnits="userSpaceOnUse">
<stop stop-color="#027DD4"/>
<stop offset="1" stop-color="#40A2EC"/>
</linearGradient>
<linearGradient id="paint2_linear_1844_64570" x1="32.4058" y1="27.5784" x2="32.4058" y2="11.0343" gradientUnits="userSpaceOnUse">
<stop stop-color="#73C3FC"/>
<stop offset="1" stop-color="#43ADFB"/>
</linearGradient>
<linearGradient id="paint3_linear_1844_64570" x1="32.4102" y1="16.8263" x2="32.4102" y2="30.4028" gradientUnits="userSpaceOnUse">
<stop stop-color="white"/>
<stop offset="1" stop-color="white" stop-opacity="0"/>
</linearGradient>
<linearGradient id="paint4_linear_1844_64570" x1="44.6528" y1="23.7219" x2="42.3521" y2="18.8" gradientUnits="userSpaceOnUse">
<stop stop-color="#616060"/>
<stop offset="1" stop-color="#333333"/>
</linearGradient>
</defs>
</svg>
