<svg width="60" height="64" viewBox="0 0 60 64" fill="none" xmlns="http://www.w3.org/2000/svg">
<rect width="60" height="64" fill="#D075FF"/>
<g clip-path="url(#clip0_1_46)">
<g filter="url(#filter0_d_1_46)">
<rect x="7" y="9" width="46" height="46" rx="8.17778" fill="white"/>
</g>
<path d="M45.6786 48.129L37.912 45.8164L32.0549 49.3176L27.9685 49.3159L22.108 45.8164L14.3448 48.129L11.9833 40.1572L14.3448 31.3097L11.9833 23.8293L14.3448 14.5583L26.4754 21.8057H33.548L45.6786 14.5583L48.04 23.8293L45.6786 31.3097L48.04 40.1572L45.6786 48.129Z" fill="#FF5C16"/>
<path d="M14.3465 14.5583L26.4771 21.8108L25.9947 26.7881L14.3465 14.5583Z" fill="#FF5C16"/>
<path d="M22.1097 40.1606L27.4471 44.2264L22.1097 45.8164V40.1606Z" fill="#FF5C16"/>
<path d="M27.0205 33.4386L25.9947 26.7915L19.4283 31.3113L19.4249 31.3096V31.313L19.4452 35.9655L22.108 33.4386H22.1097H27.0205Z" fill="#FF5C16"/>
<path d="M45.6785 14.5583L33.5479 21.8108L34.0287 26.7881L45.6785 14.5583Z" fill="#FF5C16"/>
<path d="M37.9154 40.1606L32.5779 44.2264L37.9154 45.8164V40.1606Z" fill="#FF5C16"/>
<path d="M40.5985 31.313H40.6002H40.5985V31.3096L40.5968 31.3113L34.0304 26.7915L33.0045 33.4386H37.9154L40.5798 35.9655L40.5985 31.313Z" fill="#FF5C16"/>
<path d="M22.108 45.8163L14.3448 48.129L11.9833 40.1606H22.108V45.8163Z" fill="#E34807"/>
<path d="M27.0188 33.4369L28.5017 43.0463L26.4466 37.7034L19.4418 35.9655L22.1063 33.4369H27.0171H27.0188Z" fill="#E34807"/>
<path d="M37.9154 45.8163L45.6786 48.129L48.04 40.1606H37.9154V45.8163Z" fill="#E34807"/>
<path d="M33.0045 33.4369L31.5216 43.0463L33.5767 37.7034L40.5815 35.9655L37.9154 33.4369H33.0045Z" fill="#E34807"/>
<path d="M11.9833 40.1571L14.3448 31.3096H19.4232L19.4418 35.9637L26.4466 37.7016L28.5017 43.0445L27.4454 44.2212L22.108 40.1554H11.9833V40.1571Z" fill="#FF8D5D"/>
<path d="M48.04 40.1571L45.6786 31.3096H40.6001L40.5815 35.9637L33.5767 37.7016L31.5216 43.0445L32.578 44.2212L37.9154 40.1554H48.04V40.1571Z" fill="#FF8D5D"/>
<path d="M33.548 21.8057H30.0117H26.4754L25.9947 26.783L28.5017 43.0395H31.5217L34.0304 26.783L33.548 21.8057Z" fill="#FF8D5D"/>
<path d="M14.3448 14.5583L11.9833 23.8293L14.3448 31.3097H19.4232L25.993 26.7881L14.3448 14.5583Z" fill="#661800"/>
<path d="M25.5511 35.367H23.2506L21.9979 36.5947L26.4483 37.6983L25.5511 35.3653V35.367Z" fill="#661800"/>
<path d="M45.6786 14.5583L48.04 23.8293L45.6786 31.3097H40.6002L34.0304 26.7881L45.6786 14.5583Z" fill="#661800"/>
<path d="M34.4756 35.367H36.7795L38.0322 36.5964L33.5767 37.7017L34.4756 35.3653V35.367Z" fill="#661800"/>
<path d="M32.0532 46.1463L32.578 44.2247L31.5217 43.048H28.5L27.4437 44.2247L27.9685 46.1463" fill="#661800"/>
<path d="M32.0532 46.1462V49.3193H27.9685V46.1462H32.0532Z" fill="#C0C4CD"/>
<path d="M22.1097 45.813L27.9719 49.3177V46.1446L27.4471 44.223L22.1097 45.813Z" fill="#E7EBF6"/>
<path d="M37.9154 45.813L32.0532 49.3177V46.1446L32.578 44.2231L37.9154 45.813Z" fill="#E7EBF6"/>
</g>
<defs>
<filter id="filter0_d_1_46" x="3.33223" y="5.94352" width="53.3356" height="53.3356" filterUnits="userSpaceOnUse" color-interpolation-filters="sRGB">
<feFlood flood-opacity="0" result="BackgroundImageFix"/>
<feColorMatrix in="SourceAlpha" type="matrix" values="0 0 0 0 0 0 0 0 0 0 0 0 0 0 0 0 0 0 127 0" result="hardAlpha"/>
<feOffset dy="0.611296"/>
<feGaussianBlur stdDeviation="1.83389"/>
<feComposite in2="hardAlpha" operator="out"/>
<feColorMatrix type="matrix" values="0 0 0 0 0 0 0 0 0 0 0 0 0 0 0 0 0 0 0.05 0"/>
<feBlend mode="normal" in2="BackgroundImageFix" result="effect1_dropShadow_1_46"/>
<feBlend mode="normal" in="SourceGraphic" in2="effect1_dropShadow_1_46" result="shape"/>
</filter>
<clipPath id="clip0_1_46">
<rect width="46" height="46" fill="white" transform="translate(7 9)"/>
</clipPath>
</defs>
</svg>
