<svg width="70" height="70" viewBox="0 0 70 70" fill="none" xmlns="http://www.w3.org/2000/svg">
<circle cx="35" cy="35" r="35" fill="#0376C9"/>
<path d="M52.2641 19.5976L37.5306 11.6878C35.956 10.7707 34.044 10.7707 32.4694 11.6878L17.7359 19.5976C16.7237 20.1707 16.0489 21.3171 16.0489 22.578C16.0489 23.839 16.7237 24.9854 17.7359 25.5585L32.4694 33.4683C33.2567 33.9268 34.1565 34.1561 35.0562 34.1561C35.8435 34.1561 36.7433 33.9268 37.5306 33.4683L52.2641 25.5585C53.2763 24.9854 53.9511 23.839 53.9511 22.578C53.9511 21.3171 53.2763 20.1707 52.2641 19.5976ZM30.5575 35.6463L17.1736 28.3098C16.1614 27.8512 14.5868 28.1951 13.5746 28.8829C12.5623 29.4561 12 30.6024 12 31.7488V44.7024C12 46.9951 13.2372 49.1732 15.2616 50.2049L28.9829 57.6561C29.4328 57.8854 29.8826 58 30.445 58C31.0073 58 31.6822 57.7707 32.2445 57.4268C33.2567 56.8537 33.8191 55.0195 33.8191 53.8732V40.9195C33.8191 38.6268 32.5819 36.5634 30.5575 35.6463ZM56.4254 28.8829C55.4132 28.3098 53.8386 27.8512 52.8264 28.3098L39.4425 35.6463C37.4181 36.678 36.1809 38.6268 36.1809 40.9195V53.8732C36.1809 55.0195 36.7433 56.8537 37.7555 57.4268C38.3178 57.7707 38.9927 58 39.555 58C40.1174 58 40.5672 57.8854 41.0171 57.6561L54.7384 50.2049C56.7628 49.1732 58 46.9951 58 44.7024V31.7488C58 30.6024 57.4377 29.4561 56.4254 28.8829Z" fill="white"/>
</svg>
