<svg width="1024" height="606" viewBox="0 0 1024 606" fill="none" xmlns="http://www.w3.org/2000/svg">
<g style="mix-blend-mode:multiply" opacity="0.1">
<path d="M423.504 537.172C403.6 534.714 382.471 538.401 364.404 529.183C327.352 510.439 329.801 451.135 294.893 428.396C275.907 415.798 250.185 418.256 229.974 428.704C209.764 439.151 194.453 456.973 180.367 474.795C149.133 515.048 122.492 559.296 101.669 606.001L498.834 606.001C489.035 571.587 459.332 541.781 423.504 537.172Z" fill="#666666"/>
<path d="M0.00689697 606.001L0.00691613 386.914C56.351 345.125 112.695 303.028 171.183 263.39C210.991 236.349 251.412 210.538 293.67 186.571C348.789 155.229 425.344 153.078 463.621 207.466C485.669 238.501 489.956 280.597 500.98 318.392C512.003 356.187 536.501 395.518 571.716 396.44C604.175 397.362 629.591 365.405 645.821 333.448C661.744 301.492 674.605 265.233 701.552 244.646C734.318 219.757 779.638 226.21 813.322 249.255C821.896 255.093 829.858 261.853 837.207 269.535C858.948 291.352 876.403 319.007 892.633 346.354C922.03 396.44 926.317 426.246 952.958 478.175C975.311 521.501 997.665 565.441 1024 605.694L498.53 605.694C488.731 571.279 459.334 541.474 423.2 536.865C403.296 534.406 382.167 538.094 364.406 528.875C327.354 510.132 329.498 450.827 294.895 428.089C275.909 415.491 250.187 417.949 229.977 428.396C209.766 438.844 194.455 456.666 180.369 474.488C149.135 514.741 122.494 558.988 101.671 605.694L0.006897 605.694L0.00689697 606.001Z" fill="url(#paint0_linear_6094_102467)"/>
<path d="M171.483 263.436C187.1 250.838 202.104 238.24 215.578 225.334C273.147 170.332 327.96 112.257 379.405 51.4166C405.433 20.6892 445.854 -14.0328 480.457 6.86188C491.787 13.9292 499.442 25.9129 504.648 38.2039C516.284 65.8586 518.734 95.9715 523.633 125.47C528.533 154.968 537.107 185.388 557.93 206.898C578.753 228.407 614.886 237.318 638.771 219.496C658.982 204.439 664.494 176.785 680.723 157.426C705.221 127.928 752.072 124.241 784.837 143.906C817.603 163.572 835.976 201.981 838.732 240.083C839.344 250.223 839.038 260.363 838.119 270.196C830.77 262.822 822.808 256.062 814.234 249.916C780.55 226.87 735.23 220.418 702.465 245.307C675.517 265.894 662.656 302.153 646.733 334.109C630.81 366.066 605.087 398.022 572.628 397.1C537.413 396.179 512.916 356.848 501.892 319.053C490.868 281.258 486.581 239.469 464.533 208.127C426.256 153.432 349.702 155.583 294.582 187.232C251.712 210.585 210.985 236.396 171.483 263.436Z" fill="url(#paint1_linear_6094_102467)"/>
<path d="M916.744 22.243C899.228 28.0088 899.857 78.0428 918.149 133.997C936.441 189.952 965.469 230.638 982.985 224.872C1000.5 219.106 999.872 169.072 981.58 113.118C963.288 57.1633 934.26 16.4773 916.744 22.243Z" fill="white"/>
</g>
<defs>
<linearGradient id="paint0_linear_6094_102467" x1="1024.16" y1="385.234" x2="0.133924" y2="385.234" gradientUnits="userSpaceOnUse">
<stop stop-color="#FFE566"/>
<stop offset="1" stop-color="#FFB0EB"/>
</linearGradient>
<linearGradient id="paint1_linear_6094_102467" x1="838.416" y1="198.467" x2="171.367" y2="198.467" gradientUnits="userSpaceOnUse">
<stop stop-color="#75C4FD"/>
<stop offset="0.1001" stop-color="#82C3F7"/>
<stop offset="1" stop-color="#F1B9BE"/>
</linearGradient>
</defs>
</svg>
