<svg width="400" height="400" viewBox="0 0 400 400" fill="none" xmlns="http://www.w3.org/2000/svg">
<rect width="400" height="400" fill="black"/>
<g clip-path="url(#clip0_12_288)">
<path d="M110.046 254.524C111.645 252.925 113.844 251.992 116.176 251.992H327.674C331.539 251.992 333.471 256.656 330.739 259.388L288.96 301.168C287.36 302.767 285.161 303.7 282.829 303.7H71.331C67.4662 303.7 65.5338 299.036 68.2658 296.304L110.046 254.524Z" fill="#FF852F"/>
<path d="M110.046 98.5321C111.712 96.9329 113.911 96 116.176 96H327.674C331.539 96 333.471 100.664 330.739 103.396L288.96 145.176C287.36 146.776 285.161 147.708 282.829 147.708H71.331C67.4662 147.708 65.5338 143.044 68.2658 140.312L110.046 98.5321Z" fill="#FF852F"/>
<path d="M288.96 176.028C287.36 174.429 285.161 173.496 282.829 173.496H71.331C67.4662 173.496 65.5338 178.16 68.2658 180.892L110.046 222.672C111.645 224.272 113.844 225.204 116.176 225.204H327.674C331.539 225.204 333.471 220.54 330.739 217.808L288.96 176.028Z" fill="#FF852F"/>
</g>
<defs>
<clipPath id="clip0_12_288">
<rect width="265.006" height="207.7" fill="white" transform="translate(67 96)"/>
</clipPath>
</defs>
</svg>
