<svg width="301" height="300" viewBox="0 0 301 300" fill="none" xmlns="http://www.w3.org/2000/svg">
<rect width="300" height="300.006" transform="translate(0.125 -0.0012207)" fill="white"/>
<path d="M165.747 211.957C144.603 216.982 121.405 211.251 104.9 194.744C83.5837 173.426 79.4146 141.758 94.8083 116.698C101.18 106.349 107.209 100.17 112.425 94.9522C133.977 73.5056 173.508 34.4827 173.508 34.4827C136.606 27.1699 96.8607 37.8184 68.2541 66.4067C22.6931 111.973 22.6931 185.828 68.2541 231.372C82.365 245.485 99.2126 255.235 117.086 260.602L165.747 211.936V211.957Z" fill="black"/>
<path d="M135.71 85.8652C156.855 80.8404 180.052 86.5709 196.558 103.078C217.874 124.396 222.043 156.064 206.649 181.124C200.278 191.473 194.249 197.653 189.032 202.87C167.502 224.316 127.992 263.339 127.992 263.339C164.894 270.652 204.639 260.004 233.246 231.415C278.807 185.85 278.807 111.995 233.246 66.45C219.135 52.3376 202.287 42.5872 184.414 37.2202L135.753 85.8866L135.71 85.8652Z" fill="black"/>
</svg>
