<?xml version="1.0" encoding="UTF-8"?>
<svg id="Layer_1" data-name="Layer 1" xmlns="http://www.w3.org/2000/svg" viewBox="0 0 300 300">
  <defs>
    <style>
      .cls-1 {
        fill: #e62058;
      }

      .cls-2 {
        fill: #fff;
      }
    </style>
  </defs>
  <circle class="cls-1" cx="150" cy="150" r="150"/>
  <g id="oqy9Qy">
    <g>
      <polygon class="cls-2" points="92.842 49.82 165.366 108.569 128.043 155.007 92.842 49.82"/>
      <polygon class="cls-2" points="192.293 166.218 130.853 156.731 167.701 111.377 192.293 166.218"/>
      <polygon class="cls-2" points="190.057 168.475 123.025 209.879 128.753 160.782 190.057 168.475"/>
      <path class="cls-2" d="M116.05,238.715c-10.693,3.227-21.39,6.763-32.156,9.774-1.243.348-6.546,2.795-5.565.029l46.91-81.174-9.189,71.371Z"/>
      <path class="cls-2" d="M195.641,162.867c-2.572.528-1.786-.285-2.506-1.431-4.973-7.915-8.254-20.78-13.044-29.243l31.195-16.341-15.645,47.015Z"/>
      <path class="cls-2" d="M214.643,120.325l6.707,33.578c-1.932.503-2.234-.793-3.356-1.664-1.613-1.252-11.899-10.523-12.059-11.354,2.262-5.525,3.477-14.14,6.215-19.128.712-1.297-.044-1.882,2.493-1.431Z"/>
    </g>
  </g>
</svg>