<svg width="200" height="200" viewBox="0 0 200 200" fill="none" xmlns="http://www.w3.org/2000/svg">
<rect width="200.002" height="200" rx="100" fill="#141416"/>
<path d="M117.857 121.228C84.784 131.15 57.4252 145.623 40.2996 162.58L39.5435 163.333C44.0975 167.638 49.091 171.488 54.4889 174.76L55.6494 173.343C60.3264 167.638 65.3375 162.125 70.5596 156.928C84.573 142.98 100.609 130.905 117.875 121.21L117.857 121.228Z" fill="#F5F5F5"/>
<path d="M12.5012 106.528C13.8199 124.22 20.3959 140.443 30.717 153.638L31.1917 153.165C41.7941 142.718 55.5966 133.215 72.2475 124.938C86.8412 117.675 103.598 111.445 121.655 106.528H12.5012Z" fill="#F5F5F5"/>
<path d="M79.8081 33.815C109.4 63.2675 146.64 82.745 187.485 90.13C182.562 46.4675 145.357 12.5 100.151 12.5C88.2126 12.5 76.8366 14.88 66.4452 19.1675C70.665 24.2425 75.1662 29.1775 79.8081 33.815Z" fill="#F5F5F5"/>
<path d="M40.2996 37.4201C57.4252 54.3951 84.784 68.8501 117.857 78.7901C100.591 69.0776 84.5554 57.0201 70.542 43.0726C65.3375 37.8926 60.3264 32.3801 55.6318 26.6576L54.4713 25.2401C49.0734 28.5126 44.0799 32.3626 39.5435 36.6676L40.2996 37.4201Z" fill="#F5F5F5"/>
<path d="M79.8081 166.185C75.1486 170.822 70.6475 175.758 66.4452 180.833C76.819 185.12 88.2126 187.5 100.151 187.5C145.357 187.5 182.562 153.533 187.503 109.852C146.658 117.237 109.417 136.715 79.8257 166.168L79.8081 166.185Z" fill="#F5F5F5"/>
<path d="M72.2475 75.0625C55.5966 66.785 41.7941 57.2825 31.1917 46.835L30.717 46.3625C20.3959 59.5575 13.8199 75.78 12.5012 93.4725H121.638C103.58 88.555 86.8412 82.325 72.2299 75.045L72.2475 75.0625Z" fill="#F5F5F5"/>
</svg>
