<svg width="512" height="512" viewBox="0 0 512 512" fill="none" xmlns="http://www.w3.org/2000/svg">
<g clip-path="url(#clip0_1762_5537)">
<rect width="512" height="512" fill="white"/>
<path d="M248.192 182.265C250.018 177.279 255.004 174.345 259.562 176.999C263.695 179.479 264.828 184.853 265.388 189.373C267.066 207.421 267.399 226.019 267.754 244.232C277.329 244.441 287.174 244.717 296.552 245C306.992 245.666 317.846 245.373 328.113 247.679C339.834 251.024 337.861 262.94 326.354 264.833C310.913 267.085 297.925 266.899 281.857 267.472C277.113 267.593 272.427 267.727 267.765 267.831C267.557 277.381 267.282 287.199 267 296.552C266.334 306.992 266.627 317.846 264.321 328.113C260.976 339.834 249.06 337.861 247.167 326.353C244.914 310.913 245.1 297.925 244.527 281.857C244.408 277.141 244.274 272.481 244.17 267.847C243.293 267.819 242.415 267.788 241.535 267.753C230.655 267.46 220.281 267.313 209.467 266.806C200.48 266.047 190.919 266.633 182.266 263.807C177.279 261.981 174.346 256.996 176.999 252.437C179.479 248.305 184.853 247.172 189.373 246.612C207.394 244.937 225.963 244.601 244.15 244.247C244.178 243.344 244.21 242.44 244.247 241.535C244.54 230.655 244.687 220.28 245.193 209.467C245.953 200.48 245.367 190.919 248.192 182.265ZM197.453 200.184C206.72 199.744 216 199.371 216 208.142C216 216.114 206.933 217.447 206.933 217.447C188.32 220.113 157.676 225.433 141.788 232.071C117.897 242.056 115.929 251.987 115.929 256C115.929 260.012 117.897 269.944 141.788 279.929C157.676 286.567 188.32 291.9 206.933 294.553C206.933 294.553 216 295.885 216 303.857C216 312.629 206.706 312.255 197.453 311.815C141.774 309.176 96.0003 286.234 96 255.667C96 225.1 141.774 202.851 197.453 200.184ZM296 208.142C296 199.371 305.28 199.744 314.547 200.184C370.226 202.824 416 225.072 416 255.639V255.667C416 286.234 370.226 309.176 314.547 311.815C305.294 312.255 296 312.629 296 303.857C296 295.885 305.067 294.553 305.067 294.553C323.68 291.9 354.324 286.567 370.212 279.929C394.103 269.944 396.071 260.012 396.071 256C396.071 251.987 394.103 242.056 370.212 232.071C354.324 225.433 323.68 220.113 305.067 217.447C305.067 217.447 296 216.114 296 208.142Z" fill="#1F1E1B"/>
</g>
<defs>
<clipPath id="clip0_1762_5537">
<rect width="512" height="512" fill="white"/>
</clipPath>
</defs>
</svg>
