<svg width="24" height="24" viewBox="0 0 24 24" fill="none" xmlns="http://www.w3.org/2000/svg">
<rect width="24" height="24" rx="12" fill="#4459FF" fill-opacity="0.1"/>
<path d="M9.43889 13.6368C9.48421 13.4685 9.72304 13.4685 9.76837 13.6368L10.1571 15.0808C10.173 15.1395 10.2188 15.1854 10.2775 15.2012L11.7215 15.5899C11.8898 15.6353 11.8898 15.8741 11.7215 15.9194L10.2775 16.3082C10.2188 16.324 10.173 16.3699 10.1571 16.4286L9.76837 17.8725C9.72304 18.0409 9.48421 18.0409 9.43889 17.8725L9.05011 16.4286C9.0343 16.3699 8.98844 16.324 8.92972 16.3082L7.48577 15.9194C7.31744 15.8741 7.31744 15.6353 7.48577 15.5899L8.92972 15.2012C8.98844 15.1854 9.0343 15.1395 9.05011 15.0808L9.43889 13.6368Z" fill="#4459FF"/>
<path d="M13.5281 6.81123C13.5734 6.6429 13.8123 6.6429 13.8576 6.81123L14.8254 10.4058C14.8412 10.4645 14.8871 10.5104 14.9458 10.5262L18.5404 11.4941C18.7088 11.5394 18.7088 11.7782 18.5404 11.8235L14.9458 12.7914C14.8871 12.8072 14.8412 12.853 14.8254 12.9118L13.8576 16.5064C13.8123 16.6747 13.5734 16.6747 13.5281 16.5064L12.5603 12.9118C12.5445 12.853 12.4986 12.8072 12.4399 12.7914L8.84529 11.8235C8.67696 11.7782 8.67696 11.5394 8.84529 11.4941L12.4399 10.5262C12.4986 10.5104 12.5445 10.4645 12.5603 10.4058L13.5281 6.81123Z" fill="#4459FF"/>
<path d="M8.07937 6.12747C8.12469 5.95914 8.36352 5.95914 8.40885 6.12747L8.79763 7.57142C8.81343 7.63013 8.8593 7.676 8.91801 7.69181L10.362 8.08059C10.5303 8.12591 10.5303 8.36474 10.362 8.41007L8.91801 8.79885C8.8593 8.81466 8.81343 8.86052 8.79763 8.91923L8.40885 10.3632C8.36352 10.5315 8.12469 10.5315 8.07937 10.3632L7.69058 8.91923C7.67478 8.86052 7.62891 8.81466 7.5702 8.79885L6.12625 8.41007C5.95792 8.36474 5.95792 8.12591 6.12625 8.08059L7.5702 7.69181C7.62891 7.676 7.67478 7.63013 7.69058 7.57142L8.07937 6.12747Z" fill="#4459FF"/>
</svg>
