<svg width="24" height="24" viewBox="0 0 24 24" fill="none" xmlns="http://www.w3.org/2000/svg">
<rect width="24" height="24" rx="12" fill="#4459FF" fill-opacity="0.1"/>
<path fill-rule="evenodd" clip-rule="evenodd" d="M5.3335 14.5461V16.1177C5.3335 16.2633 5.38752 16.4029 5.4837 16.5059C5.57987 16.6088 5.71031 16.6667 5.84632 16.6667H18.154C18.29 16.6667 18.4204 16.6088 18.5167 16.5059C18.6128 16.4029 18.6668 16.2633 18.6668 16.1177V14.4706C18.6668 13.5311 18.4936 12.6007 18.1569 11.733C17.8203 10.8653 17.3269 10.0773 16.7051 9.41414C16.0834 8.75103 15.3454 8.22588 14.5336 7.86882C13.7218 7.51176 12.8522 7.32982 11.9745 7.33343C8.29503 7.34715 5.3335 10.6 5.3335 14.5461ZM16.2107 13.7949C16.5983 13.7949 16.9124 13.4735 16.9124 13.077C16.9124 12.6804 16.5983 12.359 16.2107 12.359C15.8231 12.359 15.5089 12.6804 15.5089 13.077C15.5089 13.4735 15.8231 13.7949 16.2107 13.7949ZM8.14051 13.077C8.14051 13.4735 7.82632 13.7949 7.43876 13.7949C7.05119 13.7949 6.737 13.4735 6.737 13.077C6.737 12.6804 7.05119 12.359 7.43876 12.359C7.82632 12.359 8.14051 12.6804 8.14051 13.077ZM11.5444 10.2052C11.932 10.2052 12.2462 9.88373 12.2462 9.48722C12.2462 9.09071 11.932 8.76927 11.5444 8.76927C11.1569 8.76927 10.8427 9.09071 10.8427 9.48722C10.8427 9.88373 11.1569 10.2052 11.5444 10.2052ZM15.5302 10.5424C15.7357 10.7527 15.7357 11.0936 15.5302 11.3038L12.9314 13.9627C12.9423 14.0247 12.948 14.0886 12.948 14.1539C12.948 14.7486 12.4767 15.2308 11.8953 15.2308C11.314 15.2308 10.8427 14.7486 10.8427 14.1539C10.8427 13.5591 11.314 13.077 11.8953 13.077C12.019 13.077 12.1377 13.0988 12.248 13.1389L14.7859 10.5424C14.9915 10.3321 15.3247 10.3321 15.5302 10.5424Z" fill="#4459FF"/>
</svg>
