<svg width="512" height="512" viewBox="0 0 512 512" xmlns="http://www.w3.org/2000/svg">
<circle cx="256" cy="256" r="250" fill="white"/>
<path d="M256 0C397.385 0 512 114.615 512 256C512 397.385 397.385 512 256 512C114.615 512 0 397.385 0 256C0 114.615 114.615 1.64975e-05 256 0ZM264.012 31.1934C135.994 26.6777 29.4518 131.008 31.3574 259.089C32.0439 304.922 46.4573 347.423 70.6699 382.672C70.8595 382.943 71.2208 383.025 71.5098 382.862L256.001 276.348L263.993 271.76C277.73 264.056 301.627 249.452 321.378 249.452C354.766 249.452 382.501 273.015 382.501 317.792C382.501 389.211 297.589 455.057 177.609 426.374C177.212 426.284 176.833 426.573 176.833 426.979V465.371C176.833 465.642 177.004 465.886 177.257 465.977C199.365 474.249 223.136 479.144 247.918 480.021C375.936 484.536 482.477 380.206 480.571 252.125C479.876 206.292 465.454 163.8 441.25 128.551C441.06 128.28 440.689 128.19 440.4 128.361L256.994 234.243L247.927 239.454C234.19 247.158 210.293 261.762 190.542 261.762C157.153 261.762 129.418 238.199 129.418 193.422C129.418 122.003 214.322 56.1656 334.302 84.8398C334.699 84.9389 335.087 84.6317 335.087 84.2256V45.833C335.087 45.5713 334.924 45.3366 334.681 45.2373C312.563 36.9557 288.802 32.0694 264.012 31.1934Z" fill="#007B50"/>
</svg>