<svg width="19" height="14" viewBox="0 0 19 14" fill="none" xmlns="http://www.w3.org/2000/svg">
<path d="M14 5C14 2.25 11.0625 0 7.5 0C3.90625 0 1 2.25 1 5C1 6.09375 1.4375 7.0625 2.1875 7.875C1.75 8.84375 1.0625 9.59375 1.0625 9.59375C1 9.65625 0.96875 9.78125 1 9.875C1.0625 9.96875 1.125 10 1.25 10C2.375 10 3.3125 9.625 4 9.21875C5 9.71875 6.21875 10 7.5 10C11.0625 10 14 7.78125 14 5ZM17.8125 11.875C18.5312 11.0625 19 10.0938 19 9C19 6.9375 17.3125 5.125 14.9375 4.375C14.9688 4.59375 15 4.8125 15 5C15 8.3125 11.625 11 7.5 11C7.15625 11 6.8125 11 6.5 10.9688C7.46875 12.75 9.78125 14 12.5 14C13.7812 14 14.9688 13.7188 15.9688 13.2188C16.6562 13.625 17.5938 14 18.75 14C18.8438 14 18.9375 13.9688 18.9688 13.875C19 13.7812 19 13.6562 18.9062 13.5938C18.9062 13.5938 18.2188 12.8438 17.8125 11.875Z" fill="white"/>
</svg>