<svg width="600" height="600" fill="none" xmlns="http://www.w3.org/2000/svg" xmlns:xlink="http://www.w3.org/1999/xlink"><g clip-path="url(#a)"><path fill="#F2F4F6" d="M0 0h600v600H0z"/><g filter="url(#b)"><g clip-path="url(#c)"><rect x="120" y="41" width="360" height="519" rx="16" fill="#fff"/><g filter="url(#d)"><path fill="#F2F4F6" d="M120 41h360v58H120z"/><path d="M460.091 67.35c-1.809 0-2.549-1.221-1.649-2.718.52-.868.21-1.974-.7-2.47l-1.729-.944a1.713 1.713 0 0 0-2.279.572l-.11.181c-.899 1.498-2.379 1.498-3.288 0l-.11-.18c-.45-.754-1.469-1.02-2.259-.573l-1.729.944c-.91.496-1.22 1.612-.7 2.48.91 1.487.17 2.707-1.639 2.707-1.039 0-1.899.81-1.899 1.812v1.678c0 .992.85 1.812 1.899 1.812 1.809 0 2.549 1.22 1.639 2.717-.52.868-.21 1.974.7 2.47l1.729.944c.79.448 1.809.18 2.279-.572l.11-.181c.899-1.498 2.379-1.498 3.288 0l.11.18a1.713 1.713 0 0 0 2.279.573l1.729-.944c.91-.496 1.22-1.612.7-2.47-.91-1.497-.17-2.717 1.639-2.717 1.039 0 1.899-.81 1.899-1.812v-1.678c-.01-.992-.86-1.812-1.909-1.812Zm-8.096 5.749c-1.789 0-3.248-1.392-3.248-3.099 0-1.707 1.459-3.099 3.248-3.099 1.789 0 3.248 1.392 3.248 3.099 0 1.707-1.459 3.099-3.248 3.099Z" fill="#6A737D"/><path d="M277.018 78.274c-1.28 0-2.446-.251-3.498-.754a6.632 6.632 0 0 1-2.514-2.149l2.789-2.354a4.425 4.425 0 0 0 1.508 1.349c.625.335 1.242.503 1.852.503.594 0 1.066-.122 1.417-.366.366-.26.548-.587.548-.983 0-.411-.175-.77-.525-1.074-.351-.305-.93-.595-1.737-.869l-1.143-.388c-2.728-.915-4.092-2.477-4.092-4.686 0-1.54.518-2.758 1.555-3.657 1.051-.9 2.4-1.349 4.045-1.349 2.103 0 3.848.747 5.235 2.24l-2.378 2.514c-.746-.899-1.683-1.348-2.811-1.348-.533 0-.998.106-1.394.32-.381.213-.572.518-.572.914 0 .412.183.747.549 1.006.366.244 1.021.533 1.966.868l1.142.412c2.591.93 3.879 2.545 3.863 4.846 0 1.478-.548 2.681-1.645 3.611-1.082.93-2.469 1.394-4.16 1.394ZM294.426 78l-1.966-6.034L290.517 78h-3.474l-3.771-11.429h3.703l1.988 7.018 2.172-7.018h2.651l2.171 7.018 1.989-7.018h3.703L297.9 78h-3.474Zm13.115.251c-1.478 0-2.735-.586-3.771-1.76-1.021-1.173-1.532-2.575-1.532-4.205s.511-3.033 1.532-4.206c1.036-1.173 2.293-1.76 3.771-1.76 1.31 0 2.347.465 3.109 1.394v-1.143h3.451V78h-3.451v-1.143c-.762.93-1.799 1.394-3.109 1.394Zm-1.12-3.931c.488.533 1.12.8 1.897.8.777 0 1.402-.267 1.874-.8.488-.533.732-1.211.732-2.034 0-.823-.244-1.501-.732-2.035-.472-.533-1.097-.8-1.874-.8-.777 0-1.409.267-1.897.8-.472.534-.709 1.212-.709 2.035 0 .823.237 1.5.709 2.034Zm13.972 8.457h-3.451V66.571h3.451v1.143c.244-.365.648-.685 1.212-.96.563-.29 1.196-.434 1.897-.434 1.478 0 2.727.587 3.748 1.76 1.036 1.173 1.555 2.575 1.555 4.206 0 1.63-.519 3.032-1.555 4.205-1.021 1.174-2.27 1.76-3.748 1.76-.701 0-1.334-.137-1.897-.411-.564-.29-.968-.617-1.212-.983v5.92Zm.434-8.457c.488.533 1.12.8 1.898.8.777 0 1.401-.267 1.874-.8.487-.533.731-1.211.731-2.034 0-.823-.244-1.501-.731-2.035-.473-.533-1.097-.8-1.874-.8-.778 0-1.41.267-1.898.8-.472.534-.708 1.212-.708 2.035 0 .823.236 1.5.708 2.034Z" fill="#24292E"/><path d="m167.958 54-13.134 9.718 2.442-5.727L167.958 54Z" fill="#E17726" stroke="#E17726" stroke-width=".25" stroke-linecap="round" stroke-linejoin="round"/><path d="m137.663 54 13.017 9.809-2.325-5.818L137.663 54ZM163.229 76.533l-3.494 5.339 7.483 2.06 2.143-7.282-6.132-.117ZM136.273 76.65l2.13 7.282 7.47-2.06-3.481-5.339-6.119.117Z" fill="#E27625" stroke="#E27625" stroke-width=".25" stroke-linecap="round" stroke-linejoin="round"/><path d="m145.471 67.515-2.079 3.136 7.405.337-.247-7.97-5.079 4.497ZM160.151 67.515l-5.158-4.587-.169 8.06 7.405-.337-2.078-3.136ZM145.873 81.872l4.482-2.164-3.858-3.006-.624 5.17ZM155.266 79.708l4.469 2.164-.611-5.17-3.858 3.006Z" fill="#E27625" stroke="#E27625" stroke-width=".25" stroke-linecap="round" stroke-linejoin="round"/><path d="m159.735 81.872-4.469-2.164.364 2.903-.039 1.23 4.144-1.969ZM145.873 81.872l4.157 1.97-.026-1.231.351-2.903-4.482 2.164Z" fill="#D5BFB2" stroke="#D5BFB2" stroke-width=".25" stroke-linecap="round" stroke-linejoin="round"/><path d="m150.108 74.784-3.715-1.088 2.624-1.205 1.091 2.293ZM155.513 74.784l1.091-2.293 2.637 1.205-3.728 1.088Z" fill="#233447" stroke="#233447" stroke-width=".25" stroke-linecap="round" stroke-linejoin="round"/><path d="m145.873 81.872.65-5.338-4.131.116 3.481 5.222ZM159.098 76.534l.637 5.338 3.494-5.222-4.131-.116ZM162.229 70.65l-7.405.338.689 3.796 1.091-2.293 2.637 1.205 2.988-3.045ZM146.393 73.696l2.624-1.205 1.091 2.293.689-3.796-7.405-.337 3.001 3.045Z" fill="#CC6228" stroke="#CC6228" stroke-width=".25" stroke-linecap="round" stroke-linejoin="round"/><path d="m143.392 70.65 3.105 6.052-.104-3.006-3.001-3.045ZM159.241 73.696l-.117 3.006 3.105-6.051-2.988 3.045ZM150.797 70.988l-.689 3.796.871 4.484.195-5.91-.377-2.37ZM154.824 70.988l-.364 2.358.182 5.922.871-4.484-.689-3.796Z" fill="#E27525" stroke="#E27525" stroke-width=".25" stroke-linecap="round" stroke-linejoin="round"/><path d="m155.513 74.784-.871 4.484.624.44 3.858-3.006.117-3.006-3.728 1.088ZM146.393 73.696l.104 3.006 3.858 3.006.624-.44-.871-4.484-3.715-1.088Z" fill="#F5841F" stroke="#F5841F" stroke-width=".25" stroke-linecap="round" stroke-linejoin="round"/><path d="m155.591 83.842.039-1.231-.338-.285h-4.963l-.325.285.026 1.23-4.157-1.969 1.455 1.192 2.949 2.035h5.054l2.962-2.035 1.442-1.192-4.144 1.97Z" fill="#C0AC9D" stroke="#C0AC9D" stroke-width=".25" stroke-linecap="round" stroke-linejoin="round"/><path d="m155.266 79.708-.624-.44h-3.663l-.624.44-.351 2.903.325-.285h4.963l.338.285-.364-2.903Z" fill="#161616" stroke="#161616" stroke-width=".25" stroke-linecap="round" stroke-linejoin="round"/><path d="m168.517 64.353 1.104-5.364L167.958 54l-12.692 9.394 4.885 4.12 6.898 2.01 1.52-1.776-.663-.48 1.053-.958-.806-.622 1.052-.803-.688-.532ZM136 58.989l1.117 5.364-.714.532 1.065.803-.805.622 1.052.959-.663.48 1.52 1.774 6.899-2.008 4.884-4.12L137.663 54 136 58.989Z" fill="#763E1A" stroke="#763E1A" stroke-width=".25" stroke-linecap="round" stroke-linejoin="round"/><path d="m167.049 69.523-6.898-2.008 2.078 3.136-3.105 6.05 4.105-.05h6.132l-2.312-7.128ZM145.471 67.515l-6.899 2.008-2.299 7.127h6.119l4.105.052-3.105-6.051 2.079-3.136ZM154.824 70.988l.442-7.594 2-5.403h-8.911l2 5.403.442 7.594.169 2.384.013 5.896h3.663l.013-5.896.169-2.384Z" fill="#F5841F" stroke="#F5841F" stroke-width=".25" stroke-linecap="round" stroke-linejoin="round"/></g><rect x="136.5" y="115.5" width="327" height="195" rx="7.5" fill="#fff"/><rect x="152" y="139" width="104" height="32" rx="16" fill="#F2F4F6"/><path d="M168 167c6.627 0 12-5.373 12-12s-5.373-12-12-12-12 5.373-12 12 5.373 12 12 12Z" fill="#627EEA"/><path d="M168.374 146v6.653l5.622 2.512-5.622-9.165Z" fill="#fff" fill-opacity=".602"/><path d="m168.373 146-5.623 9.165 5.623-2.512V146Z" fill="#fff"/><path d="M168.374 159.476v4.52l5.626-7.784-5.626 3.264Z" fill="#fff" fill-opacity=".602"/><path d="M168.373 163.996v-4.521l-5.623-3.263 5.623 7.784Z" fill="#fff"/><path d="m168.374 158.43 5.622-3.265-5.622-2.511v5.776Z" fill="#fff" fill-opacity=".2"/><path d="m162.75 155.165 5.623 3.265v-5.776l-5.623 2.511Z" fill="#fff" fill-opacity=".602"/><path d="M191.566 162v-12.78h7.686v2.016h-5.58v3.276h4.5v2.016h-4.5v3.456h5.58V162h-7.686Zm12.591 0v-10.764h-3.708v-2.016h9.54v2.016h-3.726V162h-2.106Zm7.729 0v-12.78h2.106v5.292h6.318v-5.292h2.106V162h-2.106v-5.49h-6.318V162h-2.106Z" fill="#24272A"/><path fill-rule="evenodd" clip-rule="evenodd" d="M237.293 152.293a.999.999 0 0 1 1.414 0l3.293 3.293 3.293-3.293a.999.999 0 1 1 1.414 1.414l-4 4a.999.999 0 0 1-1.414 0l-4-4a.999.999 0 0 1 0-1.414Z" fill="#6A737D"/><path d="M413.909 162v-12.02h-2.86l1.68-2.18h3.38V162h-2.2Zm6.594.16a1.706 1.706 0 0 1-1.72-1.74c0-.467.167-.873.5-1.22a1.67 1.67 0 0 1 1.22-.52c.48 0 .887.173 1.22.52.347.347.52.753.52 1.22 0 .48-.173.893-.52 1.24-.333.333-.74.5-1.22.5Zm12.418-1.48c-.96 1.013-2.193 1.52-3.7 1.52-1.507 0-2.74-.507-3.7-1.52-.96-1.027-1.44-2.34-1.44-3.94v-3.72c0-1.6.48-2.907 1.44-3.92.96-1.027 2.193-1.54 3.7-1.54 1.507 0 2.74.513 3.7 1.54.973 1.013 1.46 2.32 1.46 3.92v3.72c0 1.6-.487 2.913-1.46 3.94Zm-3.7-.64c.893 0 1.607-.293 2.14-.88.547-.587.82-1.393.82-2.42v-3.72c0-1.027-.273-1.833-.82-2.42-.533-.587-1.247-.88-2.14-.88-.88 0-1.593.293-2.14.88-.533.587-.8 1.393-.8 2.42v3.72c0 1.027.267 1.833.8 2.42.547.587 1.26.88 2.14.88Zm16.219.64c-.96 1.013-2.193 1.52-3.7 1.52-1.506 0-2.74-.507-3.7-1.52-.96-1.027-1.44-2.34-1.44-3.94v-3.72c0-1.6.48-2.907 1.44-3.92.96-1.027 2.194-1.54 3.7-1.54 1.507 0 2.74.513 3.7 1.54.974 1.013 1.46 2.32 1.46 3.92v3.72c0 1.6-.486 2.913-1.46 3.94Zm-3.7-.64c.894 0 1.607-.293 2.14-.88.547-.587.82-1.393.82-2.42v-3.72c0-1.027-.273-1.833-.82-2.42-.533-.587-1.246-.88-2.14-.88-.88 0-1.593.293-2.14.88-.533.587-.8 1.393-.8 2.42v3.72c0 1.027.267 1.833.8 2.42.547.587 1.26.88 2.14.88Z" fill="#24272A"/><path d="M153.128 189v-8.52h2.796c1.584 0 2.544 1.056 2.544 2.256 0 .852-.372 1.404-.912 1.74.828.3 1.476.9 1.476 2.04 0 1.416-1.128 2.484-2.856 2.484h-3.048Zm1.116-1.008h1.98c1.152 0 1.716-.588 1.716-1.44 0-.828-.564-1.452-1.704-1.452h-1.992v2.892Zm0-3.852h1.68c.912 0 1.452-.552 1.452-1.32 0-.72-.54-1.332-1.452-1.332h-1.68v2.652Zm8.997 4.98c-1.68 0-2.94-1.404-2.94-3.12 0-1.716 1.26-3.12 2.94-3.12.912 0 1.716.468 2.112 1.044V183h1.032v6h-1.032v-.924c-.396.576-1.2 1.044-2.112 1.044Zm.156-.948c1.2 0 2.04-.96 2.04-2.172 0-1.212-.84-2.172-2.04-2.172-1.212 0-2.052.96-2.052 2.172 0 1.212.84 2.172 2.052 2.172Zm5.18.828v-9h1.032v9h-1.032Zm5.711.12c-1.68 0-2.94-1.404-2.94-3.12 0-1.716 1.26-3.12 2.94-3.12.912 0 1.716.468 2.112 1.044V183h1.032v6H176.4v-.924c-.396.576-1.2 1.044-2.112 1.044Zm.156-.948c1.2 0 2.04-.96 2.04-2.172 0-1.212-.84-2.172-2.04-2.172-1.212 0-2.052.96-2.052 2.172 0 1.212.84 2.172 2.052 2.172Zm5.18.828v-6h1.032v.924c.42-.72 1.128-1.044 1.908-1.044 1.344 0 2.268.936 2.268 2.424V189h-1.02v-3.54c0-1.008-.564-1.632-1.416-1.632-.96 0-1.74.792-1.74 2.196V189h-1.032Zm9.993.12c-1.824 0-3.144-1.38-3.144-3.12 0-1.74 1.32-3.12 3.144-3.12 1.248 0 2.244.648 2.772 1.608l-.9.504a2.034 2.034 0 0 0-1.872-1.152c-1.248 0-2.1.96-2.1 2.16 0 1.2.852 2.16 2.1 2.16.864 0 1.536-.468 1.872-1.152l.9.504c-.528.96-1.524 1.608-2.772 1.608Zm6.999 0c-1.872 0-3.108-1.356-3.108-3.12s1.284-3.12 3.12-3.12c1.56 0 2.856 1.092 2.856 3.012 0 .108 0 .18-.012.312h-4.92c.036 1.116.888 1.968 2.076 1.968.924 0 1.5-.408 1.872-1.044l.816.564c-.54.876-1.452 1.428-2.7 1.428Zm-1.992-3.756h3.804c-.156-.984-.924-1.572-1.836-1.572-.9 0-1.776.576-1.968 1.572Zm7.247-.708a.896.896 0 0 1-.888-.9c0-.48.396-.9.888-.9s.888.42.888.9c0 .492-.396.9-.888.9Zm0 4.44a.896.896 0 0 1-.888-.9c0-.48.396-.9.888-.9s.888.42.888.9c0 .492-.396.9-.888.9Zm8.607.024c-1.68 0-3.036-1.14-3.036-2.712h1.044c.06 1.032.924 1.704 1.992 1.704.948 0 1.728-.54 1.728-1.536 0-1.056-.756-1.536-1.86-1.536h-.636v-.948h.684c.9 0 1.56-.564 1.572-1.38 0-.804-.672-1.368-1.536-1.368-.96 0-1.788.576-1.788 1.68h-1.056c0-1.668 1.272-2.688 2.844-2.688 1.452 0 2.592.9 2.592 2.34a2.12 2.12 0 0 1-1.152 1.86c.864.348 1.392 1.104 1.392 2.076 0 1.5-1.152 2.508-2.784 2.508Zm5.159-.024a.896.896 0 0 1-.888-.9c0-.48.396-.9.888-.9s.888.42.888.9c0 .492-.396.9-.888.9Zm3.056-.096v-7.5h-1.644l.84-1.02h1.836V189h-1.032Zm8.52-.996V189h-5.52v-.408c0-1.824 1.596-2.664 2.856-3.6.996-.732 1.512-1.176 1.512-2.172 0-.9-.636-1.476-1.56-1.476s-1.764.576-1.764 1.68h-1.056c0-1.632 1.224-2.688 2.808-2.688 1.416 0 2.628.828 2.628 2.496 0 1.248-.576 1.968-1.968 2.976-.984.732-1.992 1.2-2.184 2.196h4.248Zm4.398 1.116c-1.68 0-3.036-1.14-3.036-2.712h1.044c.06 1.032.924 1.704 1.992 1.704.948 0 1.728-.54 1.728-1.536 0-1.056-.756-1.536-1.86-1.536h-.636v-.948h.684c.9 0 1.56-.564 1.572-1.38 0-.804-.672-1.368-1.536-1.368-.96 0-1.788.576-1.788 1.68h-1.056c0-1.668 1.272-2.688 2.844-2.688 1.452 0 2.592.9 2.592 2.34a2.12 2.12 0 0 1-1.152 1.86c.864.348 1.392 1.104 1.392 2.076 0 1.5-1.152 2.508-2.784 2.508Z" fill="#535A61"/><path d="M241.128 180.48h1.02l3.156 4.248 3.18-4.248h1.008V189h-1.104v-6.624l-3.072 4.128-3.072-4.128V189h-1.116v-8.52Zm13.089 8.64c-1.68 0-2.94-1.404-2.94-3.12 0-1.716 1.26-3.12 2.94-3.12.912 0 1.716.468 2.112 1.044V183h1.032v6h-1.032v-.924c-.396.576-1.2 1.044-2.112 1.044Zm.156-.948c1.2 0 2.04-.96 2.04-2.172 0-1.212-.84-2.172-2.04-2.172-1.212 0-2.052.96-2.052 2.172 0 1.212.84 2.172 2.052 2.172Zm9.213.828-1.824-2.268-1.824 2.268h-1.284l2.46-3.036-2.256-2.964h1.248l1.656 2.172 1.644-2.172h1.26l-2.268 2.964 2.46 3.036h-1.272Z" fill="#037DD6"/><path d="M403.621 190.056v-.96c-1.248-.132-2.268-.96-2.304-2.496h1.032c.108.9.588 1.356 1.272 1.488V185.1l-.408-.156c-1.284-.516-1.848-1.32-1.848-2.424 0-1.32.996-2.076 2.256-2.172v-.924h.648v.948c1.056.156 2.052.876 2.052 2.136h-1.032c-.096-.588-.456-.996-1.02-1.128v2.808l.3.12c1.26.516 1.944 1.26 1.944 2.496 0 1.476-.972 2.208-2.244 2.304v.948h-.648Zm1.86-3.18c0-.768-.432-1.176-1.212-1.512v2.748c.672-.084 1.212-.564 1.212-1.236Zm-3.084-4.356c0 .66.36 1.044 1.224 1.416v-2.592c-.768.084-1.224.552-1.224 1.176Zm6.64 6.48v-7.5h-1.644l.84-1.02h1.836V189h-1.032Zm4.296 0h-1.152l3.972-7.512h-4.356v-1.008h5.592v.864L413.333 189Zm7.631.12c-1.536 0-2.82-1.116-2.856-2.424h1.056a1.812 1.812 0 0 0 1.8 1.416 1.803 1.803 0 0 0 1.836-1.824c0-1.02-.732-1.836-1.788-1.836-.732 0-1.284.348-1.608.864l-.984-.288.876-4.548h3.984v1.008h-3.156l-.468 2.436c.336-.24.852-.444 1.488-.444 1.596 0 2.712 1.26 2.712 2.94 0 1.5-1.236 2.7-2.892 2.7Zm7.35 0c-1.764 0-3.012-1.308-3.012-3.204v-2.376c0-1.884 1.248-3.204 3.012-3.204 1.752 0 3.024 1.32 3.024 3.204v2.376c0 1.896-1.272 3.204-3.024 3.204Zm0-1.008c1.164 0 1.992-.804 1.992-2.196v-2.376c0-1.392-.828-2.196-1.992-2.196-1.152 0-1.98.816-1.98 2.196v2.376c0 1.38.828 2.196 1.98 2.196Zm5.319.984a.896.896 0 0 1-.888-.9c0-.48.396-.9.888-.9s.888.42.888.9c0 .492-.396.9-.888.9Zm3.646-.096h-1.152l3.972-7.512h-4.356v-1.008h5.592v.864L437.279 189Zm7.092.12c-1.668 0-2.892-1.26-2.892-2.808 0-.9.432-1.548.96-2.172l3.108-3.66h1.308l-2.604 3.084c.108-.012.204-.024.336-.024 1.428 0 2.664 1.26 2.664 2.748 0 1.572-1.212 2.832-2.88 2.832Zm0-.996a1.818 1.818 0 0 0 1.824-1.836 1.818 1.818 0 0 0-1.824-1.836 1.813 1.813 0 0 0-1.836 1.836c0 1.008.78 1.836 1.836 1.836Z" fill="#535A61"/><path fill-rule="evenodd" clip-rule="evenodd" d="M136 214.5h144v1H136v-1Z" fill="#D6D9DC"/><rect x="280.5" y="195.5" width="39" height="39" rx="19.5" fill="#FAFBFC"/><path d="M300 225c-.296 0-.493-.105-.69-.316l-6.014-6.421a1.065 1.065 0 0 1 0-1.474c.394-.421.986-.421 1.38 0l4.338 4.632v-15.368c0-.632.394-1.053.986-1.053s.986.421.986 1.053v15.368l4.338-4.632c.394-.421.986-.421 1.38 0a1.065 1.065 0 0 1 0 1.474l-6.014 6.421c-.197.211-.394.316-.69.316Z" fill="#6A737D"/><rect x="280.5" y="195.5" width="39" height="39" rx="19.5" stroke="#D6D9DC"/><path fill-rule="evenodd" clip-rule="evenodd" d="M320 214.5h144v1H320v-1Z" fill="#D6D9DC"/><rect x="152" y="243" width="116" height="32" rx="16" fill="#F2F4F6"/><g clip-path="url(#e)"><path d="M168 271c6.627 0 12-5.373 12-12s-5.373-12-12-12-12 5.373-12 12 5.373 12 12 12Z" fill="#26A17B"/><path fill-rule="evenodd" clip-rule="evenodd" d="M169.442 260.038v-.002c-.083.006-.508.032-1.457.032-.757 0-1.291-.023-1.478-.032v.002c-2.916-.128-5.093-.636-5.093-1.243 0-.607 2.177-1.115 5.093-1.245v1.983c.19.013.736.046 1.491.046.905 0 1.359-.038 1.444-.045v-1.983c2.91.13 5.081.638 5.081 1.244 0 .607-2.171 1.114-5.081 1.243Zm0-2.693v-1.774h4.06v-2.706h-11.056v2.706h4.061v1.773c-3.3.152-5.782.806-5.782 1.589 0 .783 2.482 1.436 5.782 1.588v5.687h2.935v-5.688c3.294-.152 5.77-.805 5.77-1.587 0-.782-2.476-1.436-5.77-1.588" fill="#fff"/></g><path d="M196.516 266.216c-1.524 0-2.754-.474-3.69-1.422-.936-.948-1.404-2.214-1.404-3.798v-7.776h2.106v7.812c0 .996.27 1.77.81 2.322s1.266.828 2.178.828c.912 0 1.632-.276 2.16-.828.54-.552.81-1.326.81-2.322v-7.812h2.106v7.776c0 1.572-.474 2.838-1.422 3.798-.948.948-2.166 1.422-3.654 1.422Zm11.622 0c-1.02 0-1.938-.21-2.754-.63-.816-.42-1.416-.978-1.8-1.674l1.656-1.314c.708 1.092 1.698 1.638 2.97 1.638.612 0 1.11-.144 1.494-.432.384-.3.576-.684.576-1.152 0-.852-.606-1.5-1.818-1.944l-1.404-.504c-1.032-.372-1.794-.846-2.286-1.422-.492-.588-.738-1.314-.738-2.178 0-1.092.39-1.962 1.17-2.61.78-.66 1.776-.99 2.988-.99 1.62 0 2.91.582 3.87 1.746l-1.458 1.422c-.66-.792-1.47-1.188-2.43-1.188-.564 0-1.044.132-1.44.396-.384.264-.576.624-.576 1.08 0 .444.144.798.432 1.062.3.252.804.51 1.512.774l1.296.486c.984.372 1.734.858 2.25 1.458s.768 1.362.756 2.286c0 1.104-.396 1.998-1.188 2.682-.792.672-1.818 1.008-3.078 1.008Zm6.543-.216v-12.78h3.924c1.896 0 3.486.612 4.77 1.836 1.284 1.224 1.926 2.742 1.926 4.554 0 1.812-.642 3.33-1.926 4.554-1.284 1.224-2.874 1.836-4.77 1.836h-3.924Zm2.106-1.962h1.818c1.344 0 2.436-.42 3.276-1.26.852-.84 1.278-1.896 1.278-3.168 0-1.272-.426-2.328-1.278-3.168-.84-.84-1.932-1.26-3.276-1.26h-1.818v8.856ZM229.452 266v-10.764h-3.708v-2.016h9.54v2.016h-3.726V266h-2.106Z" fill="#24272A"/><path fill-rule="evenodd" clip-rule="evenodd" d="M249.293 256.293a.999.999 0 0 1 1.414 0l3.293 3.293 3.293-3.293a.999.999 0 1 1 1.414 1.414l-4 4a.999.999 0 0 1-1.414 0l-4-4a.999.999 0 0 1 0-1.414Z" fill="#6A737D"/><rect x="363" y="249" width="85" height="20" rx="6" fill="url(#f)"/><rect x="352" y="279" width="96" height="20" rx="6" fill="url(#g)"/><rect x="136.5" y="115.5" width="327" height="195" rx="7.5" stroke="#D6D9DC"/><path d="M243.015 340v-8.52h4.956v1.056h-3.84v2.58h3.036v1.056h-3.036V340h-1.116Zm8.402.12c-1.872 0-3.108-1.356-3.108-3.12s1.284-3.12 3.12-3.12c1.56 0 2.856 1.092 2.856 3.012 0 .108 0 .18-.012.312h-4.92c.036 1.116.888 1.968 2.076 1.968.924 0 1.5-.408 1.872-1.044l.816.564c-.54.876-1.452 1.428-2.7 1.428Zm-1.992-3.756h3.804c-.156-.984-.924-1.572-1.836-1.572-.9 0-1.776.576-1.968 1.572Zm8.57 3.696c-1.056 0-1.836-.588-1.836-1.836v-3.276h-1.272V334h1.272v-1.668h1.032V334h1.728v.948h-1.728v3.144c0 .768.336 1.02.996 1.02.252 0 .54-.036.732-.12v.924a2.871 2.871 0 0 1-.924.144Zm4.837.06c-1.824 0-3.144-1.38-3.144-3.12 0-1.74 1.32-3.12 3.144-3.12 1.248 0 2.244.648 2.772 1.608l-.9.504a2.034 2.034 0 0 0-1.872-1.152c-1.248 0-2.1.96-2.1 2.16 0 1.2.852 2.16 2.1 2.16.864 0 1.536-.468 1.872-1.152l.9.504c-.528.96-1.524 1.608-2.772 1.608Zm5.141-.12h-1.032v-9h1.032v3.924c.42-.72 1.128-1.044 1.908-1.044 1.344 0 2.268.936 2.268 2.424V340h-1.02v-3.54c0-1.008-.564-1.632-1.416-1.632-.96 0-1.74.792-1.74 2.196V340Zm6.562-7.608a.723.723 0 0 1-.744-.732c0-.396.324-.732.744-.732s.72.336.72.732c0 .42-.3.732-.72.732Zm-.528 7.608v-6h1.032v6h-1.032Zm2.988 0v-6h1.032v.924c.42-.72 1.128-1.044 1.908-1.044 1.344 0 2.268.936 2.268 2.424V340h-1.02v-3.54c0-1.008-.564-1.632-1.416-1.632-.96 0-1.74.792-1.74 2.196V340h-1.032Zm9.683-.972c1.2 0 2.028-.888 2.028-2.1 0-1.2-.828-2.1-2.028-2.1-1.2 0-2.028.9-2.028 2.1 0 1.212.828 2.1 2.028 2.1Zm-.06 3.6c-1.296 0-2.304-.552-2.82-1.224l.72-.72c.48.612 1.176 1.008 2.1 1.008 1.02 0 2.004-.636 2.004-2.076v-.684c-.42.612-1.188 1.056-2.088 1.056-1.68 0-2.94-1.332-2.94-3.06 0-1.704 1.26-3.048 2.94-3.048.9 0 1.668.432 2.088 1.044V334h1.032v5.652c0 2.004-1.32 2.976-3.036 2.976Zm13.49-.12h-1.032v-3.432c-.396.576-1.2 1.044-2.112 1.044-1.68 0-2.94-1.404-2.94-3.12 0-1.716 1.26-3.12 2.94-3.12.912 0 1.716.468 2.112 1.044V334h1.032v8.508Zm-2.988-3.336c1.2 0 2.04-.96 2.04-2.172 0-1.212-.84-2.172-2.04-2.172-1.212 0-2.052.96-2.052 2.172 0 1.212.84 2.172 2.052 2.172Zm7.054.948c-1.308 0-2.208-.948-2.208-2.436V334h1.032v3.528c0 1.008.528 1.644 1.356 1.644.924 0 1.668-.816 1.668-2.196V334h1.032v6h-1.032v-.924c-.396.708-1.08 1.044-1.848 1.044Zm7.489 0c-1.824 0-3.144-1.392-3.144-3.12 0-1.728 1.32-3.12 3.144-3.12 1.8 0 3.132 1.392 3.132 3.12 0 1.728-1.332 3.12-3.132 3.12Zm0-.96c1.248 0 2.076-.96 2.076-2.16 0-1.2-.828-2.16-2.076-2.16-1.248 0-2.088.96-2.088 2.16 0 1.2.84 2.16 2.088 2.16Zm6.836.9c-1.056 0-1.836-.588-1.836-1.836v-3.276h-1.272V334h1.272v-1.668h1.032V334h1.728v.948h-1.728v3.144c0 .768.336 1.02.996 1.02.252 0 .54-.036.732-.12v.924a2.871 2.871 0 0 1-.924.144Zm4.801.06c-1.872 0-3.108-1.356-3.108-3.12s1.284-3.12 3.12-3.12c1.56 0 2.856 1.092 2.856 3.012 0 .108 0 .18-.012.312h-4.92c.035 1.116.888 1.968 2.076 1.968.924 0 1.5-.408 1.872-1.044l.816.564c-.54.876-1.452 1.428-2.7 1.428Zm-1.992-3.756h3.804c-.156-.984-.924-1.572-1.836-1.572-.9 0-1.776.576-1.968 1.572ZM331.403 340v-6.732h-1.848l1.296-1.788h2.364V340h-1.812Zm11.166-.768c-.616.6-1.36.9-2.232.9-.872 0-1.616-.3-2.232-.9-.616-.608-.924-1.352-.924-2.232 0-.88.308-1.62.924-2.22a3.061 3.061 0 0 1 2.232-.912c.872 0 1.616.304 2.232.912.616.6.924 1.34.924 2.22 0 .88-.308 1.624-.924 2.232Zm-3.192-1.188c.256.264.576.396.96.396s.7-.132.948-.396c.256-.264.384-.612.384-1.044 0-.432-.128-.78-.384-1.044a1.244 1.244 0 0 0-.948-.396c-.384 0-.704.132-.96.396-.248.264-.372.612-.372 1.044 0 .432.124.78.372 1.044Zm5.785 1.956v-4.428h-1.2V334h1.2v-.66c0-.736.228-1.32.684-1.752.464-.44 1.04-.66 1.728-.66.432 0 .792.044 1.08.132v1.596a1.659 1.659 0 0 0-.648-.108c-.368 0-.632.08-.792.24-.16.16-.24.42-.24.78V334h1.68v1.572h-1.68V340h-1.812Zm11.676-.708c-.544.56-1.272.84-2.184.84-.912 0-1.64-.28-2.184-.84-.544-.56-.816-1.272-.816-2.136 0-.272.044-.532.132-.78.088-.256.184-.468.288-.636.112-.176.308-.468.588-.876l2.376-3.384h2.232l-2.088 2.976c.648.056 1.22.328 1.716.816.504.48.756 1.112.756 1.896 0 .856-.272 1.564-.816 2.124Zm-2.184-.9c.336 0 .616-.116.84-.348a1.18 1.18 0 0 0 .336-.852c0-.336-.112-.62-.336-.852a1.12 1.12 0 0 0-.84-.348c-.352 0-.636.116-.852.348-.216.224-.324.508-.324.852s.108.632.324.864c.216.224.5.336.852.336Z" fill="#6A737D"/><path d="M329.735 386.67a.372.372 0 0 1-.191-.09l-4.866-4.157a.436.436 0 0 1-.134-.423.399.399 0 0 1 .313-.299l8.08-1.411a.386.386 0 0 1 .388.176.437.437 0 0 1 .012.443l-3.214 5.569a.385.385 0 0 1-.269.191c-.039.004-.077.008-.119.001Zm-3.891-4.312 3.844 3.287 2.538-4.399-6.382 1.112Z" fill="#75C4FD"/><path d="M321.089 372.33a1.296 1.296 0 0 1-.184-.044c-.763-.23-1.203-1.064-.989-1.864.108-.385.349-.709.685-.904a1.367 1.367 0 0 1 1.095-.13c.368.112.678.365.865.717.186.352.232.761.124 1.146-.206.742-.896 1.189-1.596 1.079Zm.357-2.52a.937.937 0 0 0-.629.119 1.033 1.033 0 0 0-.474.625c-.15.552.155 1.132.682 1.294.528.158 1.081-.162 1.236-.713a1.1 1.1 0 0 0-.085-.793 1 1 0 0 0-.598-.496.42.42 0 0 0-.132-.036Z" fill="#86E29B"/><path d="M277.729 365.798a1.598 1.598 0 0 1-1.092-.719c-.493-.762-.3-1.809.429-2.325.728-.515 1.728-.313 2.221.45.241.371.329.816.247 1.255a1.68 1.68 0 0 1-.676 1.07c-.333.24-.73.332-1.129.269Zm.405-2.85a1.106 1.106 0 0 0-.82.193c-.528.373-.665 1.126-.308 1.679.176.266.434.45.738.508.304.063.608-.003.866-.186.254-.183.431-.453.486-.772a1.234 1.234 0 0 0-.178-.906 1.146 1.146 0 0 0-.784-.516Z" fill="#FFB0EB"/><path d="M313.429 374.447a.548.548 0 0 0 .619-.478.566.566 0 0 0-.457-.648.549.549 0 0 0-.619.478.566.566 0 0 0 .457.648Z" fill="url(#h)"/><path d="M268.14 383.441a.548.548 0 0 0 .619-.478.567.567 0 0 0-.457-.648.548.548 0 0 0-.619.478.566.566 0 0 0 .457.648Z" fill="url(#i)"/><path d="M295.922 404.121a.55.55 0 0 0 .619-.479.566.566 0 0 0-.457-.647.548.548 0 0 0-.619.478.566.566 0 0 0 .457.648Z" fill="url(#j)"/><path d="M290.536 363.007c.481.075.93-.272 1.003-.775.072-.504-.259-.975-.741-1.05-.481-.076-.93.271-1.003.775-.072.503.259.974.741 1.05Z" fill="url(#k)"/><path d="M299.791 388.451c.481.076.93-.271 1.003-.775.072-.504-.26-.974-.741-1.05-.482-.076-.931.271-1.003.775-.072.504.259.974.741 1.05Z" fill="url(#l)"/><path d="M281.286 411.46c.481.076.93-.271 1.003-.775.072-.504-.259-.974-.741-1.05-.481-.076-.93.271-1.003.775-.072.504.259.974.741 1.05Z" fill="url(#m)"/><path d="M320.656 415.448c.482.076.931-.271 1.003-.775.072-.504-.259-.975-.741-1.05-.481-.076-.93.271-1.003.775-.072.504.26.974.741 1.05Z" fill="url(#n)"/><path d="M275.334 398.016a.41.41 0 0 1-.213-.103.43.43 0 0 1-.135-.378l.573-4.75a.43.43 0 0 1 .269-.354.404.404 0 0 1 .424.086l3.788 3.606c.113.107.16.273.123.431a.43.43 0 0 1-.302.32l-4.361 1.144a.654.654 0 0 1-.166-.002Zm.949-4.293-.396 3.284 3.016-.79-2.62-2.494Z" fill="#FFB0EB"/><path d="M299.761 417.631a.411.411 0 0 1-.225-.12l-3.187-3.432a.428.428 0 0 1-.091-.421.405.405 0 0 1 .315-.278l5.054-.851a.395.395 0 0 1 .38.16.428.428 0 0 1 .044.423l-1.867 4.282a.4.4 0 0 1-.295.237.393.393 0 0 1-.128 0Zm-2.311-3.557 2.251 2.425 1.316-3.024-3.567.599Z" fill="url(#o)"/><path d="M302.259 355.826a.392.392 0 0 1 .251-.014l4.398 1.302a.406.406 0 0 1 .28.317.43.43 0 0 1-.14.406l-3.971 3.385a.39.39 0 0 1-.406.061.415.415 0 0 1-.24-.344l-.426-4.687a.425.425 0 0 1 .143-.359.374.374 0 0 1 .111-.067Zm3.698 1.869-3.106-.921.302 3.308 2.804-2.387Z" fill="url(#p)"/><path d="m321.25 400.997-.037-.006c-1.449-.249-2.437-1.69-2.2-3.206.237-1.517 1.609-2.551 3.062-2.302 1.449.248 2.437 1.69 2.2 3.206-.235 1.507-1.587 2.534-3.025 2.308Zm.69-4.801c-1.062-.167-2.068.592-2.242 1.707-.176 1.123.554 2.187 1.627 2.371 1.073.189 2.089-.579 2.265-1.703.176-1.124-.554-2.187-1.627-2.371l-.023-.004ZM280.596 382.905l-.037-.006c-1.449-.248-2.437-1.69-2.2-3.206.237-1.516 1.609-2.551 3.062-2.302 1.449.249 2.437 1.69 2.2 3.206-.236 1.507-1.588 2.535-3.025 2.308Zm.689-4.801c-1.062-.167-2.067.593-2.241 1.707-.176 1.124.553 2.187 1.627 2.371 1.073.189 2.089-.579 2.265-1.703.176-1.124-.554-2.187-1.628-2.371l-.023-.004Z" fill="#86E29B"/><path transform="matrix(.99004 -.1408 .12845 .99172 278.448 369.754)" fill="url(#q)" d="M0 0h41.982v40.324H0z"/><path fill="#fff" d="M121 493h360v56H121z"/><g opacity=".3"><rect x="137" y="501" width="328" height="40" rx="20" fill="#037DD6"/><path d="M249.316 526v-9.94h5.782v1.232h-4.48v3.01h3.542v1.232h-3.542V526h-1.302Zm9.802.14c-2.184 0-3.626-1.582-3.626-3.64s1.498-3.64 3.64-3.64c1.82 0 3.332 1.274 3.332 3.514 0 .126 0 .21-.014.364h-5.74c.042 1.302 1.036 2.296 2.422 2.296 1.078 0 1.75-.476 2.184-1.218l.952.658c-.63 1.022-1.694 1.666-3.15 1.666Zm-2.324-4.382h4.438c-.182-1.148-1.078-1.834-2.142-1.834-1.05 0-2.072.672-2.296 1.834Zm9.999 4.312c-1.232 0-2.142-.686-2.142-2.142v-3.822h-1.484V519h1.484v-1.946h1.204V519h2.016v1.106h-2.016v3.668c0 .896.392 1.19 1.162 1.19.294 0 .63-.042.854-.14v1.078a3.35 3.35 0 0 1-1.078.168Zm5.643.07c-2.128 0-3.668-1.61-3.668-3.64 0-2.03 1.54-3.64 3.668-3.64 1.456 0 2.618.756 3.234 1.876l-1.05.588c-.392-.798-1.176-1.344-2.184-1.344-1.456 0-2.45 1.12-2.45 2.52s.994 2.52 2.45 2.52c1.008 0 1.792-.546 2.184-1.344l1.05.588c-.616 1.12-1.778 1.876-3.234 1.876Zm5.998-.14h-1.204v-10.5h1.204v4.578c.49-.84 1.316-1.218 2.226-1.218 1.568 0 2.646 1.092 2.646 2.828V526h-1.19v-4.13c0-1.176-.658-1.904-1.652-1.904-1.12 0-2.03.924-2.03 2.562V526Zm7.656-8.876c-.49 0-.868-.364-.868-.854a.86.86 0 0 1 .868-.854c.49 0 .84.392.84.854 0 .49-.35.854-.84.854Zm-.616 8.876v-7h1.204v7h-1.204Zm3.486 0v-7h1.204v1.078c.49-.84 1.316-1.218 2.226-1.218 1.568 0 2.646 1.092 2.646 2.828V526h-1.19v-4.13c0-1.176-.658-1.904-1.652-1.904-1.12 0-2.03.924-2.03 2.562V526h-1.204Zm11.296-1.134c1.4 0 2.366-1.036 2.366-2.45 0-1.4-.966-2.45-2.366-2.45-1.4 0-2.366 1.05-2.366 2.45 0 1.414.966 2.45 2.366 2.45Zm-.07 4.2c-1.512 0-2.688-.644-3.29-1.428l.84-.84c.56.714 1.372 1.176 2.45 1.176 1.19 0 2.338-.742 2.338-2.422v-.798c-.49.714-1.386 1.232-2.436 1.232-1.96 0-3.43-1.554-3.43-3.57 0-1.988 1.47-3.556 3.43-3.556 1.05 0 1.946.504 2.436 1.218V519h1.204v6.594c0 2.338-1.54 3.472-3.542 3.472Zm15.738-.14h-1.204v-4.004c-.462.672-1.4 1.218-2.464 1.218-1.96 0-3.43-1.638-3.43-3.64 0-2.002 1.47-3.64 3.43-3.64 1.064 0 2.002.546 2.464 1.218V519h1.204v9.926Zm-3.486-3.892c1.4 0 2.38-1.12 2.38-2.534 0-1.414-.98-2.534-2.38-2.534-1.414 0-2.394 1.12-2.394 2.534 0 1.414.98 2.534 2.394 2.534Zm8.231 1.106c-1.526 0-2.576-1.106-2.576-2.842V519h1.204v4.116c0 1.176.616 1.918 1.582 1.918 1.078 0 1.946-.952 1.946-2.562V519h1.204v7h-1.204v-1.078c-.462.826-1.26 1.218-2.156 1.218Zm8.737 0c-2.128 0-3.668-1.624-3.668-3.64s1.54-3.64 3.668-3.64c2.1 0 3.654 1.624 3.654 3.64s-1.554 3.64-3.654 3.64Zm0-1.12c1.456 0 2.422-1.12 2.422-2.52s-.966-2.52-2.422-2.52c-1.456 0-2.436 1.12-2.436 2.52s.98 2.52 2.436 2.52Zm7.975 1.05c-1.232 0-2.142-.686-2.142-2.142v-3.822h-1.484V519h1.484v-1.946h1.204V519h2.016v1.106h-2.016v3.668c0 .896.392 1.19 1.162 1.19.294 0 .63-.042.854-.14v1.078a3.35 3.35 0 0 1-1.078.168Zm5.601.07c-2.184 0-3.626-1.582-3.626-3.64s1.498-3.64 3.64-3.64c1.82 0 3.332 1.274 3.332 3.514 0 .126 0 .21-.014.364h-5.74c.042 1.302 1.036 2.296 2.422 2.296 1.078 0 1.75-.476 2.184-1.218l.952.658c-.63 1.022-1.694 1.666-3.15 1.666Zm-2.324-4.382h4.438c-.182-1.148-1.078-1.834-2.142-1.834-1.05 0-2.072.672-2.296 1.834Zm9.492 4.382c-1.246 0-2.31-.518-2.744-1.624l.98-.546c.266.714.994 1.106 1.778 1.106.672 0 1.218-.336 1.218-.938 0-.504-.308-.812-1.218-1.092l-.7-.224c-1.162-.336-1.75-1.05-1.75-2.044 0-1.19 1.078-1.918 2.408-1.918 1.05 0 1.848.434 2.31 1.218l-.896.616c-.322-.448-.784-.798-1.456-.798-.602 0-1.162.322-1.162.84 0 .434.21.77.994 1.008l.77.238c1.218.378 1.904.994 1.904 2.058 0 1.344-1.036 2.1-2.436 2.1Z" fill="#FCFCFC"/></g></g></g></g><defs><linearGradient id="k" x1="289.791" y1="361.99" x2="291.548" y2="362.182" gradientUnits="userSpaceOnUse"><stop stop-color="#75C3FC"/><stop offset="1" stop-color="#75C3FC"/></linearGradient><linearGradient id="l" x1="299.046" y1="387.435" x2="300.803" y2="387.626" gradientUnits="userSpaceOnUse"><stop stop-color="#75C3FC"/><stop offset="1" stop-color="#75C3FC"/></linearGradient><linearGradient id="f" x1="363" y1="259" x2="448" y2="259" gradientUnits="userSpaceOnUse"><stop stop-color="#D6D6D6" stop-opacity=".78"/><stop offset="1" stop-color="#A4A4A4" stop-opacity=".09"/></linearGradient><linearGradient id="g" x1="352" y1="289" x2="448" y2="289" gradientUnits="userSpaceOnUse"><stop stop-color="#D6D6D6" stop-opacity=".78"/><stop offset="1" stop-color="#A4A4A4" stop-opacity=".09"/></linearGradient><linearGradient id="h" x1="312.972" y1="373.802" x2="314.05" y2="373.956" gradientUnits="userSpaceOnUse"><stop stop-color="#75C3FC"/><stop offset="1" stop-color="#75C3FC"/></linearGradient><linearGradient id="i" x1="267.682" y1="382.794" x2="268.76" y2="382.949" gradientUnits="userSpaceOnUse"><stop stop-color="#75C3FC"/><stop offset="1" stop-color="#75C3FC"/></linearGradient><linearGradient id="j" x1="295.464" y1="403.474" x2="296.543" y2="403.629" gradientUnits="userSpaceOnUse"><stop stop-color="#75C3FC"/><stop offset="1" stop-color="#75C3FC"/></linearGradient><linearGradient id="p" x1="306.872" y1="356.573" x2="301.625" y2="358.705" gradientUnits="userSpaceOnUse"><stop stop-color="#75C3FC"/><stop offset=".093" stop-color="#81C2F6"/><stop offset="1" stop-color="#F0B8BD"/></linearGradient><linearGradient id="m" x1="280.541" y1="410.443" x2="282.298" y2="410.635" gradientUnits="userSpaceOnUse"><stop stop-color="#75C3FC"/><stop offset="1" stop-color="#75C3FC"/></linearGradient><linearGradient id="n" x1="319.911" y1="414.431" x2="321.669" y2="414.623" gradientUnits="userSpaceOnUse"><stop stop-color="#75C3FC"/><stop offset="1" stop-color="#75C3FC"/></linearGradient><linearGradient id="o" x1="296.15" y1="414.354" x2="301.77" y2="415.161" gradientUnits="userSpaceOnUse"><stop stop-color="#FFE466"/><stop offset="1" stop-color="#FFAFEA"/></linearGradient><clipPath id="e"><path fill="#fff" transform="translate(156 247)" d="M0 0h24v24H0z"/></clipPath><clipPath id="a"><path fill="#fff" d="M0 0h600v600H0z"/></clipPath><clipPath id="c"><rect x="120" y="41" width="360" height="519" rx="16" fill="#fff"/></clipPath><filter id="b" x="80" y="3" width="440" height="599" filterUnits="userSpaceOnUse" color-interpolation-filters="sRGB"><feFlood flood-opacity="0" result="BackgroundImageFix"/><feColorMatrix in="SourceAlpha" values="0 0 0 0 0 0 0 0 0 0 0 0 0 0 0 0 0 0 127 0" result="hardAlpha"/><feOffset dy="2"/><feGaussianBlur stdDeviation="20"/><feComposite in2="hardAlpha" operator="out"/><feColorMatrix values="0 0 0 0 0 0 0 0 0 0 0 0 0 0 0 0 0 0 0.1 0"/><feBlend in2="BackgroundImageFix" result="effect1_dropShadow_119_16345"/><feBlend in="SourceGraphic" in2="effect1_dropShadow_119_16345" result="shape"/></filter><filter id="d" x="120" y="41" width="360" height="59" filterUnits="userSpaceOnUse" color-interpolation-filters="sRGB"><feFlood flood-opacity="0" result="BackgroundImageFix"/><feColorMatrix in="SourceAlpha" values="0 0 0 0 0 0 0 0 0 0 0 0 0 0 0 0 0 0 127 0" result="hardAlpha"/><feOffset dy="1"/><feComposite in2="hardAlpha" operator="out"/><feColorMatrix values="0 0 0 0 0.839216 0 0 0 0 0.85098 0 0 0 0 0.862745 0 0 0 1 0"/><feBlend in2="BackgroundImageFix" result="effect1_dropShadow_119_16345"/><feBlend in="SourceGraphic" in2="effect1_dropShadow_119_16345" result="shape"/></filter><pattern id="q" patternContentUnits="objectBoundingBox" width="1" height="1"></pattern></defs></svg>
