<svg width="285" height="120" viewBox="0 0 285 120" fill="none" xmlns="http://www.w3.org/2000/svg">
<rect x="5" width="280" height="120" rx="8" fill="#F2F3F4"/>
<g filter="url(#filter0_d)">
<path fill-rule="evenodd" clip-rule="evenodd" d="M226.986 79.4889H232.943V80.8164H230.708V87.3069H229.222V80.8164H226.986V79.4889Z" fill="#283B4C"/>
<path fill-rule="evenodd" clip-rule="evenodd" d="M238.335 86.2196C239.722 86.2196 240.818 85.0494 240.818 83.5898C240.818 82.1303 239.722 80.9485 238.335 80.9485C236.937 80.9485 235.853 82.1303 235.853 83.5898C235.853 85.0494 236.937 86.2196 238.335 86.2196ZM238.335 79.4889C240.528 79.4889 242.25 81.3194 242.25 83.5898C242.25 85.8373 240.528 87.6792 238.335 87.6792C236.143 87.6792 234.432 85.8373 234.432 83.5898C234.432 81.3194 236.143 79.4889 238.335 79.4889Z" fill="#283B4C"/>
<path fill-rule="evenodd" clip-rule="evenodd" d="M243.74 79.4889H249.696V80.8164H247.461V87.3069H245.975V80.8164H243.74V79.4889Z" fill="#283B4C"/>
<path fill-rule="evenodd" clip-rule="evenodd" d="M251.557 79.4889H253.008V86.0133H256.025V87.3069H251.557V79.4889Z" fill="#283B4C"/>
<path fill-rule="evenodd" clip-rule="evenodd" d="M258.259 79.4889H262.987V80.7825H259.668V82.8135H262.577V84.0957H259.668V86.0133H263.098V87.3069H258.259V79.4889Z" fill="#283B4C"/>
<path fill-rule="evenodd" clip-rule="evenodd" d="M219.841 78H214.515H209.189H208V79.2825V83.1307L212.72 87.7657V85.9351V81.684V80.4012H210.448V81.684H211.411V84.6554L209.309 82.5985V79.2825H213.861V88.8977L214.515 89.5408L215.169 88.8977V79.2825H219.722V82.5985L217.619 84.6554V81.684H218.583V80.4012H216.31V81.684V85.9351V87.7657L221.03 83.1307V79.2825V78H219.841Z" fill="#283B4C"/>
</g>
<path d="M213.666 36.7712C212.905 36.7712 212.236 36.5824 211.676 36.2048C210.917 35.6966 210.43 34.8832 210.266 33.8552C210.112 32.8895 210.249 31.7492 210.661 30.5576C211.073 29.366 211.753 28.1505 212.628 27.0334C213.922 25.3818 215.531 24.0813 217.157 23.3715C218.029 22.9917 218.858 22.8004 219.623 22.8004C220.383 22.8004 221.053 22.9891 221.613 23.3667C222.165 23.7371 222.578 24.2761 222.823 24.9422C222.87 24.8553 222.908 24.7643 222.939 24.6704L223.191 23.8592L223.336 24.6959C223.637 26.4243 223.165 27.9957 222.639 29.1092C222.777 29.0271 222.905 28.9314 223.024 28.8235L223.642 28.2424L223.356 29.0416C222.893 30.337 222.112 31.5123 221.034 32.5419C221.275 32.5198 221.522 32.4767 221.717 32.3959L222.502 32.0711L221.951 32.7174C220.62 34.2807 218.78 35.0859 217.46 35.4864C217.036 35.7578 216.592 35.996 216.132 36.1988C215.26 36.577 214.43 36.7712 213.666 36.7712ZM219.621 24.1506C219.047 24.1506 218.4 24.3057 217.699 24.6118C216.274 25.2336 214.852 26.3903 213.694 27.8682C212.15 29.8377 211.348 32.0513 211.602 33.6425C211.706 34.2992 211.985 34.7832 212.429 35.0808C212.764 35.3046 213.18 35.4181 213.668 35.4181C214.242 35.4181 214.889 35.263 215.59 34.9569C217.014 34.3351 218.437 33.1784 219.595 31.7005C221.139 29.7307 221.94 27.5183 221.687 25.9262C221.582 25.2695 221.304 24.7855 220.86 24.4879C220.525 24.2641 220.108 24.1506 219.621 24.1506Z" fill="#56A4CB"/>
<path d="M222.031 27.4415C222.462 26.8634 222.623 26.0995 222.712 25.5941C222.372 26.0142 222.109 26.1986 222.109 26.1986C222.149 26.5799 222.172 26.9538 222.031 27.4415Z" fill="#277DAD"/>
<path d="M216.348 24.2667C219.938 21.9927 222.216 24.4313 222.251 25.0345C222.105 24.0826 221.433 23.414 220.636 23.038C219.943 22.6796 217.862 23.178 217.862 23.178L216.348 24.2667Z" fill="#DDEDF5"/>
<path d="M215.129 36.0645C214.486 36.4921 212.874 36.3215 212.549 36.2048C212.549 35.7957 212.681 35.3596 212.681 35.3596H213.472C213.472 35.3596 213.462 35.6815 214.296 35.477C214.746 35.7079 215.129 36.0645 215.129 36.0645Z" fill="#277DAD"/>
<path d="M210.325 32.6019C211.051 30.1042 213.535 25.3019 218.266 23.1937C217.515 22.8755 214.308 24.6165 212.628 27.0325C210.561 30.006 210.561 30.7454 210.325 32.6019Z" fill="#DDEDF5"/>
<path d="M220.635 30.2159C220.635 30.2159 221.434 29.9469 221.925 29.5759C222.303 28.9444 222.943 27.4293 222.943 26.1042C222.02 28.259 221.37 28.5092 221.37 28.5092C221.027 29.5444 220.898 29.6986 220.635 30.2159Z" fill="#277DAD"/>
<path d="M221.139 33.0057C219.66 34.1564 218.651 34.6174 217.345 35.0509L216.508 35.5126L216.313 34.7048C216.313 34.7048 219.467 33.0334 220.516 30.4151C221.024 30.6564 222.388 30.0114 222.712 29.5444C222.083 30.6772 219.943 32.9849 219.943 32.9849L221.139 33.0057Z" fill="#277DAD"/>
<path d="M219.623 23.0032C220.334 23.0032 220.97 23.1801 221.498 23.5337C222.13 23.9566 222.561 24.6086 222.757 25.4302C222.914 25.2099 223.061 24.9613 223.135 24.7279C223.452 26.5557 222.893 28.2102 222.265 29.3968C222.242 29.4537 222.218 29.511 222.194 29.5679C222.54 29.4106 222.909 29.2089 223.164 28.9701C222.582 30.5937 221.559 31.8366 220.481 32.7639H220.554C220.92 32.7639 221.432 32.7325 221.796 32.5821C220.522 34.0767 218.775 34.8743 217.373 35.2969C216.952 35.5687 216.509 35.8069 216.05 36.0093C215.201 36.38 214.394 36.5653 213.666 36.5653C212.955 36.5653 212.319 36.3885 211.791 36.0348C211.08 35.559 210.623 34.7941 210.469 33.8231C210.321 32.8904 210.454 31.7844 210.856 30.6246C211.259 29.4569 211.928 28.259 212.789 27.1599C214.063 25.5343 215.644 24.2559 217.239 23.5592C218.089 23.1886 218.895 23.0032 219.623 23.0032ZM213.668 35.6226C214.263 35.6226 214.942 35.4627 215.672 35.144C217.127 34.509 218.577 33.3309 219.756 31.8266C221.334 29.8127 222.151 27.5406 221.889 25.894C221.775 25.1788 221.467 24.6486 220.973 24.3179C220.602 24.0696 220.144 23.9459 219.62 23.9459C219.025 23.9459 218.347 24.1058 217.617 24.4242C216.162 25.0595 214.711 26.2376 213.532 27.742C211.955 29.7558 211.137 32.0279 211.4 33.6745C211.513 34.3898 211.821 34.92 212.315 35.2507C212.686 35.4989 213.144 35.6226 213.668 35.6226ZM219.623 22.5958C218.83 22.5958 217.972 22.7943 217.074 23.186C215.418 23.9098 213.781 25.2313 212.467 26.9091C211.578 28.0419 210.887 29.2822 210.468 30.4908C210.045 31.7139 209.906 32.8885 210.063 33.8873C210.236 34.9738 210.755 35.834 211.561 36.3731C212.155 36.7711 212.863 36.9728 213.664 36.9728C214.458 36.9728 215.315 36.7742 216.213 36.3825C216.675 36.1794 217.12 35.9414 217.545 35.6704C218.341 35.4301 219.109 35.103 219.834 34.695C221.431 33.7862 222.019 33.1437 223.14 31.7111L221.656 32.1947C223.149 30.5708 223.526 29.5862 224.005 27.7266L223.147 28.4232C224.097 26.209 223.467 23.794 223.266 23.3037C223.134 23.6917 222.92 24.2367 222.807 24.4016C222.553 23.9154 222.181 23.5003 221.726 23.1939C221.132 22.7959 220.425 22.5942 219.623 22.5942V22.5958ZM213.668 35.2135C213.221 35.2135 212.843 35.1116 212.543 34.9108C212.148 34.6459 211.899 34.2085 211.804 33.6104C211.559 32.0723 212.345 29.9207 213.854 27.9943C214.992 26.5425 216.387 25.4078 217.78 24.7993C218.456 24.5045 219.075 24.355 219.621 24.355C220.067 24.355 220.445 24.457 220.745 24.6577C221.141 24.9226 221.389 25.36 221.485 25.9582C221.729 27.4962 220.944 29.6479 219.434 31.5742C218.296 33.0267 216.902 34.1594 215.508 34.7692C214.832 35.0641 214.214 35.2135 213.668 35.2135Z" fill="#083751"/>
<path d="M213.668 35.2136C213.221 35.2136 212.843 35.1117 212.543 34.9109C212.148 34.646 211.899 34.2086 211.804 33.6105C211.559 32.0724 212.345 29.9208 213.854 27.9944C214.992 26.5426 216.386 25.4079 217.78 24.7994C218.456 24.5046 219.075 24.3551 219.62 24.3551C220.067 24.3551 220.445 24.4571 220.745 24.6578C221.141 24.9227 221.389 25.3601 221.484 25.9583C221.729 27.4963 220.944 29.648 219.434 31.5743C218.296 33.0268 216.902 34.1595 215.508 34.7693C214.832 35.0642 214.213 35.2136 213.668 35.2136Z" fill="#083751"/>
<path d="M211.598 20.6876C211.579 20.922 211.595 22.0444 212.019 22.2354C211.725 21.5432 212.037 20.2531 213.509 20.2468C213.239 20.4475 213.033 20.777 212.942 20.9969C212.845 21.1031 212.759 21.2191 212.685 21.343C212.791 21.2801 213.136 20.6955 214.427 20.6914C214.77 20.6914 215.143 20.7288 215.447 20.9019C214.924 20.7726 214.368 21.0592 213.935 21.3509C214.24 21.2527 214.685 20.9585 215.31 21.0809C215.731 21.163 215.903 21.5504 216.25 21.7502C216.534 21.9135 216.936 21.9012 217.121 21.5966C217.167 21.521 217.19 21.4335 217.187 21.3449C217.267 21.4289 217.336 21.5218 217.395 21.6218C217.523 21.845 217.577 22.1036 217.548 22.3597C217.242 22.3304 216.94 22.4362 216.633 22.4006C216.336 22.361 216.055 22.2414 215.82 22.0545C215.987 22.3046 216.239 22.4856 216.53 22.5639C216.899 22.663 217.259 22.5246 217.628 22.59C218.049 22.6643 218.58 22.939 219.061 22.6193C219.146 22.5613 219.218 22.4855 219.271 22.3971C219.347 22.6084 219.353 22.8389 219.288 23.0538C219.254 23.1747 219.19 23.2853 219.103 23.3757C219.024 23.4541 218.928 23.4808 218.837 23.5349C218.532 23.4091 218.192 23.3666 217.861 23.3461C218.158 23.4405 218.462 23.5349 218.743 23.6693C219.023 23.8037 219.212 24.0154 219.409 24.2514C219.572 24.4478 219.762 24.6265 220.018 24.6872C220.194 24.7291 220.378 24.7201 220.549 24.6614C220.594 24.9179 220.357 25.336 220.025 25.3914C220.186 25.4937 220.358 25.5752 220.539 25.634C220.413 25.7473 220.113 25.8319 219.92 25.842C220.384 26.0856 220.618 26.7344 220.607 27.2611C220.533 27.1003 220.447 26.915 220.253 26.7747C220.307 26.9996 220.297 27.2743 220.256 27.5298C220.164 27.4424 219.815 27.0383 219.667 26.8429C219.739 26.618 219.726 26.4628 219.676 26.2338C219.614 26.6114 219.343 27.0446 219.204 27.2183C219.267 26.9833 219.243 26.7303 219.204 26.4946C219.157 26.229 219.08 25.9697 218.973 25.7218C218.744 25.162 218.744 25.162 218.546 24.6746C218.431 25.14 218.333 25.3571 218.18 25.5456C218.188 25.3965 218.178 25.247 218.15 25.1004C218.139 25.0393 218.044 24.562 217.597 23.921C217.636 24.2181 217.755 24.5708 217.614 24.9031C217.605 24.6539 217.44 23.9324 216.941 23.6444C217.081 23.8848 217.204 24.6378 217.036 24.831C217.052 24.4157 216.763 24.0327 216.447 23.7813C216.214 23.595 214.919 22.8726 214.921 22.8757C214.923 22.8789 215.161 23.9173 214.641 23.9994C214.8 23.6404 214.4 22.8849 213.948 22.7458C214.001 22.4925 213.987 22.1879 213.9 21.9591C213.676 22.2024 213.108 22.2127 212.801 22.4796C212.668 22.5935 212.528 22.7672 212.471 22.9689L212.3 23.2042C212.297 23.184 212.289 23.1646 212.278 23.1473L211.429 22.3399C211.235 21.9717 211.183 21.0831 211.598 20.6876Z" fill="#E61C3F"/>
<path d="M210.633 21.8621L211.115 22.3485C211.089 22.3954 211.054 22.4476 211.002 22.4596C211.033 22.4666 211.064 22.4648 211.093 22.4543C211.122 22.4439 211.148 22.4253 211.167 22.4008L211.395 22.6308C211.348 22.7349 211.272 22.8627 211.154 22.8825C211.305 22.9259 211.421 22.8296 211.475 22.712L211.765 23.0046C211.726 23.1427 211.642 23.3192 211.401 23.3507C211.663 23.4136 211.812 23.2617 211.861 23.1009L212.065 23.3073C212.132 23.5275 211.755 23.7837 211.53 23.7248L210.633 21.8621Z" fill="white"/>
<path d="M212.497 35.5324C212.461 36.0182 212.324 36.9285 211.812 37.1576C211.655 37.0946 211.517 36.8851 211.408 36.6381C211.464 36.2759 211.628 36.1661 211.943 35.9291C212.125 35.7923 212.25 35.5516 212.327 35.3596C212.4 35.4358 212.462 35.4974 212.497 35.5324Z" fill="white"/>
<path d="M215.895 34.4742C215.951 34.607 216.025 34.7889 216.101 34.9799C216.148 35.1001 216.195 35.2241 216.238 35.343C216.35 35.6555 216.431 35.9302 216.395 35.9934C216.358 36.0567 216.15 36.079 215.873 36.0563C215.707 35.8194 215.712 35.6432 215.747 35.3534C215.752 35.3131 215.758 35.2703 215.763 35.225C215.774 35.1139 215.766 35.0017 215.739 34.8934C215.696 34.7255 215.633 34.5635 215.55 34.4113C215.667 34.419 215.783 34.4401 215.895 34.4742Z" fill="white"/>
<path d="M220.898 29.1744C220.507 30.0184 220.018 30.8135 219.442 31.5435C219.226 31.8191 219.003 32.0828 218.77 32.3345C218.847 31.7587 218.68 31.1539 218.312 30.8688C218.654 31.5995 218.564 32.215 218.276 32.6803C217.848 33.3697 217.046 33.6665 216.563 33.6561C216.197 33.645 215.84 33.5419 215.525 33.3562C215.525 33.3562 214.185 33.0268 214.097 33.3304C214.009 33.6341 214.473 34.4113 214.473 34.4113C214.473 34.4113 214.793 34.3962 214.822 34.6265C214.95 34.5204 215.104 34.4507 215.268 34.4248C215.395 34.5094 215.49 34.6343 215.538 34.7794C215.625 35.051 215.532 35.3521 215.483 35.5689C215.473 35.609 215.465 35.6497 215.459 35.6907C215.453 35.7398 215.455 35.7898 215.465 35.8382C215.479 35.9003 215.506 35.9587 215.544 36.0097C215.436 35.9888 215.329 35.9617 215.223 35.9285C215.109 35.8929 214.998 35.8485 214.89 35.7958C214.722 35.7176 214.573 35.604 214.453 35.4629C213.961 35.4965 213.793 35.6019 213.642 35.3272C213.597 35.2387 213.56 35.1462 213.531 35.051C213.335 34.4449 212.895 33.8288 212.715 33.5784C212.535 33.3279 212.763 32.8012 213.193 32.6117C213.624 32.4223 215.376 31.9736 215.635 31.6278C215.894 31.282 215.776 30.5454 217.034 30.0762C216.674 29.9595 215.634 30.4771 215.376 31.3928C214.888 31.7124 213.64 32.0749 213.3 32.1756C212.739 32.3418 212.424 32.7477 212.334 33.0044C212.056 33.1026 211.604 33.259 211.6 33.4764C211.595 33.7196 211.768 34.0714 211.757 34.5755C211.757 34.6548 211.837 34.7876 211.948 34.9305C212.018 35.0208 212.1 35.1152 212.18 35.2026C212.161 35.3722 212.082 35.5293 211.956 35.6447C211.866 35.7291 211.767 35.8029 211.66 35.865C211.555 35.9298 211.456 35.983 211.388 36.034C211.329 36.0785 211.283 36.1373 211.253 36.2048C211.202 36.0348 211.168 35.8603 211.151 35.6837C210.88 35.3134 210.781 35.2118 210.731 35.0544C210.727 35.0403 210.725 35.0259 210.723 35.0113C210.703 34.8263 210.751 34.2728 210.781 33.9528C210.819 33.9484 210.898 34.0019 211.049 34.0875L211.081 34.1064L211.04 34.0434C210.82 33.7055 210.57 33.3329 210.68 32.9947C210.739 32.8128 210.855 32.7115 211.038 32.6023C211.039 32.6014 211.04 32.6006 211.041 32.6001C211.111 32.5576 211.192 32.5139 211.283 32.4635C211.612 32.2813 212.938 31.8528 213.111 31.5016C213.209 31.3066 213.318 31.1175 213.439 30.9352C213.467 31.1915 213.522 31.444 213.604 31.6885C213.585 29.9264 214.225 28.8226 214.477 28.456C214.506 28.8078 214.506 29.1614 214.478 29.5133C214.83 29.1832 214.852 27.7286 214.404 26.5489C214.367 26.4505 214.326 26.3543 214.282 26.2604C214.234 26.16 214.183 26.0628 214.129 25.9696C214.218 25.7766 214.256 25.5643 214.242 25.3523C214.235 25.2521 214.217 25.1529 214.189 25.0565C214.142 24.8823 214.057 24.7204 213.941 24.582C213.991 24.8051 214.036 24.9976 214.041 25.1886C214.046 25.3224 214.027 25.4559 213.987 25.5835C213.976 25.6191 213.963 25.655 213.947 25.6918C213.95 25.6663 213.952 25.6411 213.952 25.6159C213.956 25.5093 213.946 25.4026 213.921 25.2988C213.907 25.238 213.888 25.1783 213.864 25.1204C213.861 25.1122 213.848 25.1182 213.85 25.1263C213.866 25.1959 213.876 25.2668 213.879 25.3381C213.884 25.4684 213.87 25.5988 213.837 25.7251C213.823 25.7814 213.806 25.8368 213.787 25.8913C213.757 25.9716 213.724 26.0504 213.687 26.1273C213.439 26.4312 213.045 26.5266 212.842 26.8875C212.823 26.8796 212.801 26.8708 212.779 26.8617C212.702 26.8317 212.624 26.8075 212.544 26.7893C212.401 26.7578 212.242 26.7465 212.111 26.7994C212.043 26.8205 211.978 26.8514 211.919 26.8909C211.866 26.9258 211.821 26.9726 211.788 27.0278C211.865 26.9413 212.103 26.8705 212.291 26.8733C212.344 26.8786 212.394 26.8976 212.436 26.9284C212.498 26.9736 212.546 27.0356 212.574 27.1071C212.574 27.1106 212.573 27.114 212.571 27.1172C212.572 27.1149 212.574 27.1124 212.575 27.1099V27.1125C212.618 27.2172 212.643 27.3683 212.624 27.586C212.571 27.8034 212.52 27.9979 212.446 28.0866C212.306 28.2578 211.846 28.5322 211.598 28.5803C211.58 28.5848 211.561 28.5881 211.542 28.5901C211.476 28.5938 211.41 28.5854 211.348 28.5652C211.326 28.5593 211.304 28.5517 211.282 28.5432C211.324 28.5096 211.369 28.4782 211.414 28.4488C211.463 28.4176 211.513 28.3893 211.565 28.3642C211.625 28.335 211.683 28.3069 211.736 28.2798C212.127 28.086 212.334 27.957 212.399 27.8374C212.458 27.7276 212.414 27.575 212.321 27.4425C212.279 27.3813 212.228 27.3262 212.171 27.2789C212.144 27.2561 212.114 27.2357 212.083 27.2179C212.128 27.2058 212.175 27.2038 212.22 27.2122C212.261 27.2191 212.302 27.2281 212.341 27.2393C212.318 27.2128 212.198 27.1839 212.163 27.1637C212.05 27.097 211.949 27.1257 211.872 27.2125C211.772 27.3258 211.633 27.7273 211.398 28.0023C211.238 28.1911 210.934 28.26 210.757 28.2855C210.505 28.1074 210.348 27.8632 210.328 27.6694C210.305 27.4388 210.359 27.1276 210.593 26.9841C210.77 26.5599 211.083 25.3985 211.103 25.2179C211.123 25.0373 210.902 24.5533 210.922 24.3271C210.937 24.1666 211.17 23.7834 211.232 23.6833L211.309 23.8611C211.311 23.863 211.319 23.8721 211.333 23.8844C211.218 24.1676 211.207 24.5272 211.278 24.8129C211.294 24.632 211.309 24.4533 211.36 24.278C211.391 24.1669 211.432 24.0596 211.471 23.952C211.583 23.9763 211.758 23.9596 212.017 23.7972C212.129 23.7326 212.218 23.6351 212.273 23.5178L212.462 23.3016C212.475 23.3544 212.495 23.4054 212.52 23.4533C212.52 23.3142 212.615 23.0823 212.725 22.9086C212.929 22.5801 213.322 22.4816 213.571 22.3599C213.471 22.4524 213.367 22.5398 213.271 22.6352C213.067 22.8359 212.943 23.0757 212.976 23.3646C213.089 23.0562 213.266 22.8296 213.519 22.6232C213.582 22.571 213.677 22.5015 213.757 22.4212C213.722 22.6497 213.694 22.8781 213.545 23.0751C213.368 23.3101 213.064 23.5392 213.337 23.8435C213.261 23.6405 213.536 23.4467 213.652 23.3199C213.753 23.2079 213.834 23.0785 213.89 22.9379C214.393 23.239 214.725 23.9992 214.225 24.1386C214.439 24.2607 215.338 24.3306 215.205 23.3133C215.457 23.4706 215.725 23.6015 215.991 23.751L216.013 23.7626C216.092 23.8071 216.169 23.8557 216.244 23.908C216.488 24.0798 216.64 24.2541 216.73 24.4193C216.78 24.509 216.815 24.6064 216.833 24.7075C216.881 24.9709 216.788 25.1685 216.741 25.211C216.987 25.2047 217.276 25.0256 217.289 24.4715V24.4058L217.291 24.4105C217.297 24.4281 217.303 24.4451 217.309 24.4621C217.493 25.0253 217.495 25.345 217.495 25.345C217.652 25.2044 217.829 25.0219 217.853 24.677C217.864 24.7346 218.027 25.3041 217.989 25.8796C218.101 25.8416 218.392 25.7767 218.559 25.329C218.611 25.4863 218.776 25.8211 218.881 26.1915C218.951 26.4372 219.003 26.6999 218.992 26.9567C218.974 27.3787 218.772 27.586 218.756 27.6338C218.77 27.636 219.241 27.6741 219.529 27.1861C219.809 27.6899 220.241 28.4564 220.898 29.1744Z" fill="#E5ECEF"/>
<path d="M212.094 25.346C212.202 25.1516 212.381 24.8785 212.615 24.6783C212.678 24.7334 212.716 24.8568 212.728 24.9348C212.778 25.2331 212.512 25.1267 212.094 25.346Z" fill="#FFCE55"/>
<path d="M210.273 27.9713C210.273 27.9713 210.328 27.4706 210.783 27.3574C210.724 27.1207 210.899 26.6824 211.214 26.773C211.283 26.1595 211.45 25.3885 211.45 25.3885C211.45 25.3885 211.786 25.4908 211.828 25.3099C211.87 25.1289 212.017 24.5547 212.545 24.3974C212.095 24.3974 211.839 24.8294 211.666 25.1283C211.409 25.1205 211.202 24.8687 211.284 24.4754C211.365 24.0821 211.41 23.8225 211.41 23.8225L211.215 23.5944C211.215 23.5944 210.734 24.0755 210.814 24.3974C210.895 24.7193 211.112 25.1176 211.003 25.3457C210.895 25.5739 210.491 26.8637 210.491 26.8637C210.151 27.2768 210.121 27.5691 210.273 27.9713Z" fill="white"/>
<path d="M217.384 30.2159C217.004 30.2159 215.945 30.9658 215.945 31.7471C215.361 31.9988 213.913 32.5287 213.913 32.5287L216.136 32.1615C216.136 32.1615 216.778 32.4289 217.208 32.1615C217.639 31.894 217.532 31.3723 217.532 31.3723C217.003 31.8311 216.15 30.9082 217.384 30.2159Z" fill="white"/>
<path d="M215.383 25.089C216.105 25.7831 217.605 27.4574 217.005 28.9363C216.818 27.8797 216.15 26.3561 215.383 25.089Z" fill="white"/>
<path d="M210.451 28.1077C210.451 28.1077 210.629 28.2439 210.786 28.1077C211.021 27.9047 210.826 27.3815 210.975 27.2474C211.124 27.1134 211.429 27.1426 211.461 27.1952C211.38 26.9749 211.311 26.7336 211.363 26.6392C211.416 26.5448 211.603 25.9784 211.993 25.7267C211.827 26.0143 211.538 26.7153 211.665 27.0272C211.783 26.8635 212.328 26.7103 212.569 26.9476C212.811 27.1848 212.827 27.8478 212.569 28.1665C212.312 28.4853 211.639 28.8207 211.461 28.7735C210.932 28.5627 210.698 28.3893 210.451 28.1077Z" fill="white"/>
<path d="M211.665 27.0272C212.025 26.474 212.414 26.71 212.735 25.9784C212.777 26.0846 212.777 26.2026 212.735 26.3088C213.276 26.0731 214.001 25.0476 213.757 24.0826C213.977 24.3865 214.173 25.3412 214.048 25.7896C213.922 26.238 213.355 26.5526 213.245 26.7336C213.135 26.9145 212.758 27.1977 212.758 27.1977C212.571 26.8642 212.04 26.9422 211.665 27.0272Z" fill="white"/>
<path d="M211.867 25.5378C211.867 25.5378 212.455 25.6042 212.757 25.4513C213.059 25.2984 213.22 24.7984 213.22 24.6253C213.133 24.8613 212.835 25.0227 212.835 25.0227C212.727 25.1331 212.595 25.2168 212.45 25.2672C212.213 25.3462 211.962 25.4198 211.962 25.4198L211.867 25.5378Z" fill="white"/>
<path d="M211.665 23.2959C211.665 23.2959 211.811 23.1502 211.777 22.9516C211.724 23.1149 211.612 23.1464 211.561 23.1464C211.511 23.1464 211.313 22.8318 211.313 22.8318C211.313 22.8318 211.527 22.6297 211.461 22.4951C211.395 22.6326 211.214 22.7547 211.214 22.7547L211.002 22.4614C211.002 22.4614 211.254 22.3456 211.214 22.2355C211.136 22.2355 212.032 23.0363 212.032 23.0363L212.212 23.3289C212.212 23.3289 212.212 23.502 211.942 23.6706C211.733 23.4331 211.665 23.2959 211.665 23.2959Z" fill="white"/>
<path d="M214.117 25.3648C214.395 25.2163 213.755 24.3101 213.755 24.0826C214.778 25.0124 215.659 26.5054 215.266 27.799C215.171 27.5315 214.904 26.9853 214.904 26.9853C214.904 26.9853 215.361 28.2282 214.613 29.0778C214.684 27.9765 214.226 26.3176 214.007 26.1043C214.204 25.7629 214.117 25.3648 214.117 25.3648Z" fill="white"/>
<path d="M216.723 30.0863C216.219 30.0429 215.328 30.3994 215.092 31.1074C215.107 30.8456 215.064 30.5463 215.392 30.2159C214.951 30.2159 214.385 30.8453 214.385 31.3723C213.645 31.7184 211.396 32.7908 211.215 32.9481C211.033 33.1055 211.063 33.2719 211.364 33.9915C211.175 34.5214 210.895 34.8351 211.604 35.4497C211.896 35.7014 212.033 35.7328 212.033 35.7328L212.335 35.1123C212.335 35.1123 211.621 33.7861 211.827 33.4516C212.312 33.1212 212.497 33.074 212.497 33.074C212.497 33.074 212.67 32.5548 213.551 32.3031C214.432 32.0513 215.551 31.5322 215.551 31.5322C215.785 30.3679 216.508 30.221 216.723 30.0863Z" fill="white"/>
<path d="M218.601 32.4761C218.601 32.4761 218.727 31.0601 218.051 30.478C218.223 30.8399 218.303 31.5636 218.051 31.9255C218.054 31.6037 217.943 31.2912 217.736 31.0444C217.736 31.0444 218.077 32.3188 217.123 32.6256C216.371 32.7908 216.069 32.4446 216.069 32.4446C215.266 32.7278 214.118 32.838 213.787 32.9166C213.567 33.4201 213.567 34.4364 214.331 35.1598C214.274 34.9815 214.23 34.7998 214.196 34.6158C214.196 34.6158 214.44 35.0091 214.703 34.9462C214.966 34.8832 215.341 34.5248 215.768 35.0897C215.598 34.5057 215.399 34.2854 215.399 34.2854L214.857 34.3169L214.479 34.1123L214.212 33.4043L215.399 33.5145C215.399 33.5145 216.571 34.1775 217.311 33.7347C218.051 33.292 218.601 32.4761 218.601 32.4761Z" fill="white"/>
<path d="M211.986 27.3394C212.008 27.339 212.03 27.3417 212.052 27.3476C212.045 27.5405 211.811 27.7856 211.811 27.7856C211.995 27.6814 212.12 27.593 212.193 27.4366C212.231 27.4777 212.259 27.5273 212.275 27.5814C212.291 27.6355 212.293 27.6925 212.283 27.7478C212.249 27.8954 211.645 28.1443 211.364 28.2591C211.767 27.9977 211.788 27.3448 211.986 27.3394Z" fill="white"/>
<path d="M219.828 27.2525L219.577 26.8636C219.577 26.8636 219.243 27.363 219.026 27.4574C219.222 26.6078 218.853 25.615 218.538 25.0889C218.511 25.2252 218.453 25.3535 218.368 25.464C218.284 25.5745 218.176 25.6643 218.051 25.7267C218.051 25.7267 218.06 25.1748 217.935 24.7343C217.903 24.611 217.852 24.4936 217.783 24.3866C217.771 24.5402 217.741 24.6919 217.693 24.8385C217.667 24.9272 217.628 25.0119 217.578 25.0902C217.578 25.0902 217.56 25.0194 217.531 24.9152C217.5 24.806 217.457 24.6597 217.41 24.5194C217.346 24.3237 217.273 24.1399 217.217 24.0839C217.209 24.1962 217.242 24.4036 217.207 24.6188C217.187 24.7685 217.124 24.909 217.026 25.0235L217.005 24.9939C216.993 24.9123 216.976 24.8314 216.956 24.7516C216.897 24.5216 216.777 24.1852 216.55 24.0027C216.526 23.9835 216.499 23.9631 216.469 23.9423C216.363 23.8665 216.224 23.7812 216.077 23.6956C215.652 23.4505 215.152 23.2063 215.13 23.1953C215.406 23.37 215.662 23.5744 215.893 23.8048C215.991 23.9031 216.081 24.0082 216.163 24.1195C216.407 24.4536 216.502 24.7585 216.521 25.0062C216.53 25.1097 216.524 25.214 216.505 25.3161C216.217 25.0691 215.864 24.8038 215.598 24.7208C215.741 24.8548 216.07 25.2456 216.375 25.6198L216.371 25.6245C216.384 25.6364 216.397 25.6496 216.41 25.6622C216.56 25.846 216.703 26.0235 216.814 26.1613C217.392 27.0647 217.681 28.4432 217.343 29.2361C217.697 29.1811 218.084 28.5552 218.043 28.0247C218.011 27.6156 217.848 27.1075 217.749 26.829C219.804 28.8494 219.978 30.2767 220.033 30.4161C219.754 30.0291 218.77 29.1081 218.74 29.0794C218.757 29.1109 219.533 30.473 219.792 31.0964C220.314 30.3601 220.73 29.6021 221.024 28.8664L219.828 27.2525Z" fill="white"/>
<path d="M213.299 23.6264C213.537 23.566 213.858 23.4533 213.936 23.2802C214.125 23.3589 214.55 23.7673 214.432 24.0826C214.674 23.7909 214.452 23.0694 213.876 22.8319C213.876 22.706 213.818 22.234 213.818 22.234C213.818 22.234 212.654 23.0477 213.047 23.7337C213.11 23.4313 213.331 23.1229 213.331 23.1229L213.299 23.6264Z" fill="white"/>
<path d="M211.326 22.3764C211.326 22.3764 211.281 21.5731 211.492 21.3109C211.492 21.552 211.623 22.0057 212.019 22.2351C211.76 21.6885 211.704 20.4573 211.704 20.4573C211.06 21.0362 211.01 21.6004 211.326 22.3764Z" fill="#F0ABAB"/>
<path d="M211.857 21.9927C211.857 21.9927 211.68 20.6922 212.681 20.3461C213.682 19.9999 213.756 20.1362 213.756 20.1362C213.756 20.1362 212.801 21.0855 212.544 21.5836C212.544 21.3215 212.642 20.8221 212.966 20.5767C212.414 20.6396 211.91 21.4285 211.857 21.9927Z" fill="#F0ABAB"/>
<path d="M213.034 20.9832C213.472 20.8762 214.298 20.7786 214.909 20.9964C214.216 21.1222 213.792 21.3897 213.653 21.6203C214.353 21.3057 215.199 21.2003 215.61 21.5313C216.021 21.8623 216.496 22.5067 217.208 21.8623C217.208 22.0977 217.272 22.2758 217.208 22.4753C217.59 22.5857 217.73 22.4753 217.73 22.4753C217.73 22.4753 217.772 21.4577 217.153 21.2059C217.147 21.548 216.765 21.7723 216.45 21.6883C216.136 21.6043 215.598 21.0068 215.598 21.0068C215.598 21.0068 215.558 20.4328 214.216 20.5452C213.472 20.5307 213.034 20.9832 213.034 20.9832Z" fill="#F0ABAB"/>
<path d="M215.821 22.0562C215.947 22.3589 216.199 22.796 216.645 22.8743C217.092 22.9527 217.502 22.745 217.732 22.8743C217.962 23.0036 218.665 23.24 218.991 22.9524C219.106 23.0842 218.812 23.5666 218.571 23.5143C217.91 23.3438 218.071 23.3535 217.407 23.3463C218.127 23.587 218.684 23.9228 218.873 24.2163C219.062 24.5099 219.348 25.0889 220.006 25.0228C219.933 25.2022 219.807 25.2928 219.492 25.2673C219.587 25.4224 219.849 25.6402 220.1 25.6402C219.954 25.7267 219.565 25.7267 219.565 25.7267C219.565 25.7267 220.198 26.356 220.278 26.8227C220.47 27.3343 220.67 27.4293 220.67 27.4293C220.67 27.4293 220.908 26.5055 220.321 25.9259C220.782 25.7267 220.845 25.648 220.845 25.648L220.268 25.3463C220.268 25.3463 220.979 24.9539 220.677 24.4995C220.143 24.6254 219.98 24.6273 219.62 24.3551C219.261 24.0829 218.978 23.6692 218.978 23.6692C218.978 23.6692 219.786 23.2724 219.262 22.234C218.863 22.5943 218.612 22.6723 218.045 22.5244C217.478 22.3765 216.776 22.5946 216.608 22.5244C216.44 22.4543 215.821 22.0562 215.821 22.0562Z" fill="#F0ABAB"/>
<path d="M213.86 31.3066C213.756 30.6143 213.978 29.552 214.296 29.0778C214.296 29.4397 214.529 29.985 214.529 29.985C214.529 29.985 215.374 28.9863 215.266 28.2591C215.551 28.9362 215.024 30.0272 214.555 30.4781C214.086 30.929 213.86 31.3066 213.86 31.3066Z" fill="white"/>
<path d="M213.441 32.6964C213.133 32.7278 212.735 33.1841 212.874 33.4987C213.013 33.8134 213.441 34.4742 213.441 34.4742L213.149 33.5853C213.149 33.5853 213.441 33.3965 213.441 33.1526C213.441 32.9087 213.748 32.6649 213.441 32.6964Z" fill="white"/>
<path d="M216.37 25.6234C217.094 26.5809 217.348 27.3314 217.41 27.8279C217.442 28.0847 217.449 28.4528 217.471 28.6035C217.601 28.3921 217.658 28.1444 217.633 27.8978C217.513 26.5472 216.419 25.6574 216.37 25.6234Z" fill="#083751"/>
<path d="M210.999 27.1226C210.856 27.189 210.894 27.4687 210.914 27.6707L210.942 27.6392C210.975 27.3526 211.024 27.1946 211.176 27.1773C211.176 27.1761 211.143 27.0562 210.999 27.1226Z" fill="#083751"/>
<path d="M212.8 25.4045C212.632 25.4888 212.371 25.5168 212.214 25.5533C212.411 25.6304 212.699 25.5885 212.854 25.508C213.057 25.4045 213.141 25.1669 213.15 24.9416C213.039 25.1288 212.985 25.3113 212.8 25.4045Z" fill="#082E44"/>
<path d="M220.407 27.8368C220.432 27.7484 220.495 27.6165 220.465 27.3758C220.537 27.5134 220.582 27.6637 220.598 27.8185C221.184 27.1068 220.607 26.0879 220.525 26.0165C220.749 25.9535 220.903 25.7714 221.06 25.513C220.84 25.5199 220.71 25.507 220.514 25.4372C220.911 25.2301 220.824 24.6644 220.749 24.3488C220.514 24.5118 220.126 24.4693 219.877 24.3173C219.577 24.1336 219.529 23.9029 219.163 23.6735C219.272 23.6317 219.366 23.558 219.432 23.4621C219.505 23.3548 219.552 23.2325 219.571 23.1043C219.63 22.7469 219.524 22.3117 219.296 22.0266C218.85 22.6295 217.952 22.3989 217.889 22.3834C217.944 21.9917 217.659 21.0304 216.991 21.0184C217.057 21.5512 216.652 21.7142 216.276 21.4354C216.131 21.1176 215.927 20.8196 215.628 20.6418C215.285 20.437 214.835 20.3964 214.444 20.409C214.125 20.4181 213.817 20.5052 213.568 20.5921C213.645 20.3747 213.934 20.1572 213.986 20.1358C213.231 19.7523 211.965 20.2176 211.801 21.0723C211.769 20.655 211.777 20.3004 211.789 20.2557C211.024 20.576 211.005 21.5842 211.014 21.9442L210.098 21.0716L211.032 23.2286C211.008 23.2975 210.975 23.3796 210.937 23.4665C210.874 23.6119 210.804 23.7711 210.743 23.9098C210.692 24.0164 210.648 24.1264 210.612 24.239C210.576 24.4029 210.828 25.0026 210.801 25.2125C210.773 25.4195 210.733 25.6246 210.68 25.8267C210.608 26.114 210.519 26.4013 210.441 26.6219C210.407 26.7182 210.375 26.8019 210.347 26.867C210.033 27.1241 210.026 27.5457 210.022 27.743C210.016 28.0715 210.517 28.4456 210.712 28.5646C210.744 28.5835 210.78 28.6049 210.82 28.6275C210.957 28.7054 211.1 28.773 211.247 28.8295C211.342 28.8676 211.442 28.8908 211.543 28.8981C211.85 28.9041 212.604 28.4522 212.705 28.3229C212.806 28.1936 212.898 27.4859 213.004 27.2348C213.186 26.8028 213.319 26.9831 213.899 26.3195C214.015 26.5423 214.272 27.1033 214.41 27.9104C213.693 28.5986 213.439 29.4988 213.413 30.2983C213.34 30.3702 213.271 30.4466 213.208 30.5271C213.055 30.7163 212.925 30.9227 212.821 31.1423C212.683 31.4343 212.338 31.6249 211.959 31.7838C211.842 31.8329 211.721 31.8782 211.602 31.9245C211.427 31.9915 211.256 32.0563 211.107 32.1256C210.607 32.3575 210.401 32.6473 210.317 32.9777C210.251 33.2372 210.393 33.6167 210.457 33.7678C210.42 34.0604 210.325 34.9049 210.406 35.1158C210.504 35.3725 210.527 35.4282 210.87 35.8445C210.993 36.488 211.307 37.3473 211.93 37.5471C212.476 37.4609 212.817 36.0257 212.827 35.465L212.782 35.3681C212.782 35.3681 212.146 34.673 212.117 34.4396C212.088 34.2061 212.124 34.0384 211.946 33.5179C212.073 33.46 212.205 33.4137 212.341 33.3798C212.359 33.5321 212.426 33.7854 212.65 34.1035C213.025 34.6362 213.258 35.6384 213.507 35.7957C213.756 35.9531 214.231 35.8093 214.231 35.8093C214.231 35.8093 215.535 36.9518 216.764 36.3174C216.812 36.0226 216.707 35.5585 216.573 35.146C216.531 35.0166 216.486 34.8927 216.442 34.78C216.335 34.5069 216.232 34.3039 216.19 34.2671C216.19 34.2671 215.827 34.0418 215.018 34.2073C214.965 34.1516 214.73 34.0978 214.641 34.0853C214.567 33.9415 214.426 33.5431 214.495 33.5016C214.568 33.4572 214.978 33.533 215.25 33.5928C215.552 33.6589 215.898 34.0431 216.544 34.055C217.237 34.0683 218.259 33.5727 218.583 32.9537C218.947 32.2593 218.823 31.2599 218.315 30.8666C218.657 31.5973 218.567 32.2127 218.28 32.6781C217.851 33.3688 217.049 33.6652 216.566 33.6561C216.2 33.6452 215.843 33.5421 215.528 33.3565C215.528 33.3565 214.186 33.0267 214.098 33.3304C214.059 33.4682 214.132 33.702 214.224 33.9172C214.298 34.0867 214.382 34.2517 214.476 34.4112C214.476 34.4112 214.796 34.3955 214.824 34.6261C214.903 34.5603 214.993 34.5084 215.089 34.4729C215.148 34.4511 215.209 34.4349 215.271 34.4245C215.391 34.5051 215.482 34.6216 215.532 34.7574C215.586 34.9106 215.581 35.0752 215.557 35.2293C215.529 35.4084 215.475 35.573 215.46 35.6903C215.445 35.8037 215.476 35.9184 215.545 36.0094C215.138 35.9295 214.689 35.7577 214.454 35.4631C213.841 35.5047 213.729 35.6573 213.532 35.0509C213.336 34.4446 212.896 33.8288 212.716 33.5783C212.664 33.4975 212.643 33.4001 212.658 33.3049C212.677 33.1681 212.729 33.0383 212.811 32.9273C212.908 32.7892 213.041 32.6798 213.195 32.6108C213.626 32.422 215.377 31.9723 215.636 31.6268C215.894 31.2813 215.776 30.5444 217.035 30.0749C216.675 29.9582 215.635 30.4758 215.377 31.3918C214.889 31.7112 213.641 32.074 213.302 32.1743C213.009 32.2587 212.747 32.4252 212.547 32.6542C212.458 32.7549 212.387 32.8703 212.339 32.9953C212.339 32.9987 212.336 33.0022 212.335 33.0057C212.057 33.1035 211.605 33.2605 211.601 33.4776C211.596 33.7209 211.769 34.0727 211.758 34.5767C211.756 34.7064 211.975 34.9783 212.181 35.2042C212.135 35.6875 211.606 35.8741 211.391 36.0355C211.332 36.0794 211.284 36.1376 211.254 36.2048C211.203 36.0348 211.169 35.8603 211.152 35.6837C210.881 35.3134 210.782 35.2117 210.732 35.0544C210.695 34.9373 210.749 34.3036 210.782 33.9531C210.823 33.9484 210.91 34.01 211.084 34.1063C210.856 33.7533 210.568 33.3546 210.683 32.9953C210.765 32.7436 210.956 32.6463 211.286 32.4641C211.382 32.4106 211.565 32.3358 211.779 32.2483C211.892 32.202 212.014 32.152 212.136 32.0994C212.572 31.9132 213.017 31.6957 213.114 31.5016C213.26 31.2046 213.365 31.0611 213.441 30.9352C213.47 31.1914 213.525 31.4438 213.607 31.6882C213.587 29.9261 214.227 28.822 214.48 28.4557C214.508 28.8074 214.508 29.1609 214.48 29.5126C214.893 29.1259 214.853 27.192 214.13 25.9693C214.398 25.3872 214.145 24.805 213.941 24.5816C214.033 24.9951 214.108 25.3053 213.947 25.6914C213.966 25.4972 213.938 25.3011 213.864 25.1203C213.861 25.1115 213.848 25.1175 213.85 25.126C213.91 25.3831 213.876 25.6439 213.787 25.8909C213.758 25.9709 213.724 26.0501 213.687 26.1269C213.44 26.4309 213.045 26.5265 212.842 26.8871C212.69 26.8217 212.353 26.7015 212.11 26.799C212.043 26.8204 211.979 26.8514 211.921 26.8909C211.867 26.9256 211.822 26.9725 211.789 27.0278C211.866 26.9413 212.103 26.8705 212.292 26.8733C212.324 26.8755 212.486 26.8978 212.575 27.1074C212.575 27.1108 212.574 27.1141 212.573 27.1172L212.577 27.1096C212.62 27.2147 212.645 27.3667 212.626 27.5857C212.575 27.8018 212.524 27.9972 212.45 28.0869C212.31 28.2581 211.85 28.5328 211.603 28.5803C211.495 28.5979 211.385 28.5842 211.286 28.541C211.373 28.4706 211.468 28.4101 211.569 28.3607C212.072 28.1181 212.33 27.9699 212.403 27.8339C212.503 27.6496 212.309 27.3443 212.089 27.2169C212.177 27.1898 212.275 27.2204 212.347 27.2383C212.246 27.1253 211.958 27.0624 211.85 27.1678C211.584 27.4249 211.587 27.9969 211.13 28.187C211.012 28.2347 210.888 28.2674 210.762 28.2845L210.76 28.2826C210.505 28.1061 210.347 27.8629 210.329 27.6697C210.309 27.4652 210.35 27.1977 210.522 27.0404C210.544 27.0196 210.568 27.0012 210.594 26.9853C210.651 26.85 210.72 26.6392 210.792 26.4092C210.941 25.9189 211.091 25.3422 211.104 25.2194C211.124 25.0391 210.904 24.5549 210.924 24.3283C210.935 24.2081 211.068 23.9633 211.161 23.8057C211.192 23.7531 211.218 23.7113 211.234 23.6849L211.274 23.7758L211.311 23.8611C211.318 23.8692 211.326 23.8769 211.334 23.884C211.219 24.1672 211.208 24.5272 211.279 24.8129C211.296 24.632 211.311 24.4536 211.361 24.278C211.392 24.1669 211.433 24.0599 211.473 23.952C211.584 23.9762 211.76 23.9596 212.019 23.7975C212.128 23.7337 212.215 23.6388 212.27 23.525C212.271 23.5225 212.272 23.5201 212.273 23.5178L212.462 23.3016C212.475 23.3544 212.495 23.4054 212.52 23.4533C212.52 23.3457 212.577 23.1827 212.654 23.0341C212.676 22.9904 212.7 22.9479 212.725 22.9083C212.93 22.5801 213.322 22.4813 213.572 22.3598C213.473 22.452 213.368 22.5395 213.272 22.6345C213.181 22.7209 213.106 22.8222 213.05 22.9341C212.987 23.0623 212.962 23.2052 212.975 23.3472V23.3642C212.978 23.3579 212.98 23.3513 212.982 23.345C213.045 23.1766 213.137 23.0202 213.253 22.8828C213.333 22.788 213.422 22.701 213.519 22.6229C213.582 22.5707 213.676 22.5011 213.756 22.4212C213.742 22.5396 213.719 22.6569 213.689 22.7724C213.66 22.8813 213.611 22.9839 213.544 23.0747C213.503 23.1289 213.456 23.1824 213.411 23.2368C213.258 23.419 213.126 23.6087 213.336 23.8434C213.261 23.6405 213.536 23.4463 213.651 23.3192C213.701 23.2646 213.746 23.2053 213.786 23.1421C213.826 23.0771 213.861 23.0086 213.889 22.9375C213.953 22.9762 214.013 23.0207 214.069 23.0706C214.462 23.4199 214.662 24.0165 214.224 24.1383C214.439 24.2601 215.337 24.3299 215.204 23.3129C215.463 23.4731 215.739 23.6081 216.012 23.7623C217.127 24.3916 216.835 25.1219 216.741 25.2125C216.997 25.2062 217.298 25.013 217.289 24.4067C217.289 24.4083 217.291 24.4101 217.292 24.412C217.493 25.0067 217.495 25.3459 217.495 25.3459C217.654 25.2056 217.83 25.0228 217.853 24.6782C217.864 24.7358 218.027 25.305 217.989 25.8809C218.101 25.8431 218.392 25.778 218.559 25.3302C218.611 25.4875 218.776 25.8223 218.881 26.1927C218.951 26.4384 219.003 26.7012 218.992 26.9579C218.974 27.3799 218.772 27.5872 218.756 27.6351C218.77 27.6373 219.241 27.6754 219.529 27.1876C219.812 27.6993 220.255 28.484 220.931 29.2128C220.953 29.2367 220.987 29.2713 221.026 29.3097C221.073 29.1555 221.123 29.002 221.175 28.8493C220.931 28.6262 220.656 28.2996 220.407 27.8368ZM215.552 34.4112C215.669 34.419 215.784 34.4402 215.896 34.4742C215.951 34.607 216.026 34.7888 216.102 34.9798C216.149 35.1 216.196 35.224 216.238 35.3429C216.351 35.6554 216.432 35.9301 216.396 35.9933C216.359 36.0566 216.151 36.0789 215.874 36.0563C215.708 35.8193 215.713 35.6431 215.748 35.3533C215.753 35.313 215.759 35.2703 215.764 35.2249C215.775 35.1138 215.767 35.0016 215.74 34.8933C215.697 34.7254 215.634 34.5635 215.552 34.4112ZM211.943 35.9291C212.125 35.7923 212.25 35.5516 212.328 35.3596C212.401 35.4358 212.463 35.4974 212.498 35.5324C212.462 36.0182 212.325 36.9285 211.814 37.1576C211.656 37.0946 211.519 36.8851 211.409 36.6381C211.466 36.2759 211.629 36.1661 211.943 35.9291ZM211.988 27.339C212.01 27.3385 212.032 27.3413 212.053 27.3472C212.046 27.5401 211.812 27.7852 211.812 27.7852C211.996 27.681 212.121 27.5926 212.194 27.4362C212.233 27.4773 212.261 27.5269 212.277 27.581C212.292 27.6351 212.295 27.6921 212.284 27.7474C212.25 27.895 211.646 28.1439 211.365 28.2587C211.769 27.9976 211.789 27.3446 211.988 27.3393V27.339ZM211.917 23.6134C211.802 23.7019 211.647 23.755 211.532 23.7248L211.526 23.7119L211.357 23.3604L210.633 21.862L211.116 22.3485C211.09 22.3954 211.056 22.4476 211.004 22.4599C211.034 22.4668 211.066 22.4649 211.095 22.4544C211.124 22.4439 211.149 22.4253 211.168 22.4007L211.396 22.6311C211.35 22.7349 211.273 22.8627 211.155 22.8828C211.306 22.9262 211.422 22.8299 211.476 22.7123L211.766 23.0052C211.735 23.1185 211.672 23.2569 211.518 23.3199C211.481 23.3353 211.442 23.3459 211.402 23.3513C211.574 23.3922 211.698 23.3409 211.776 23.2569C211.816 23.2126 211.845 23.1601 211.862 23.1031L211.967 23.2085L212.066 23.3095C212.099 23.4143 212.026 23.53 211.917 23.6137V23.6134ZM220.256 27.5312C220.164 27.4441 219.815 27.0394 219.667 26.8443C219.739 26.6194 219.726 26.4639 219.676 26.2348C219.613 26.6124 219.343 27.046 219.204 27.22C219.267 26.9847 219.243 26.7317 219.204 26.4948C219.158 26.2291 219.08 25.9698 218.974 25.722C218.744 25.1619 218.744 25.1619 218.546 24.6748C218.431 25.1402 218.333 25.3573 218.18 25.5454C218.188 25.3965 218.179 25.2471 218.151 25.1005C218.14 25.0391 218.045 24.5621 217.598 23.9209C217.637 24.2182 217.755 24.5706 217.615 24.9032C217.606 24.654 217.441 23.9325 216.943 23.6446C217.082 23.885 217.205 24.6383 217.037 24.8312C217.054 24.4158 216.765 24.0332 216.449 23.7811C216.216 23.5952 214.928 22.8762 214.923 22.8762C214.925 22.8793 215.163 23.9174 214.642 23.9995C214.754 23.7478 214.59 23.2991 214.326 23.0068C214.215 22.8831 214.085 22.7865 213.951 22.7459C213.954 22.7324 213.957 22.7189 213.959 22.705C214.002 22.4602 213.985 22.1758 213.902 21.9602C213.677 22.2025 213.109 22.2129 212.802 22.4797C212.668 22.5939 212.527 22.7689 212.47 22.969L212.372 23.1046L212.3 23.2044C212.296 23.1841 212.289 23.1648 212.278 23.1474L212.262 23.1323L211.43 22.34C211.237 21.9719 211.184 21.0833 211.599 20.6877C211.58 20.9222 211.596 22.0452 212.02 22.234C211.726 21.5417 212.038 20.2532 213.51 20.2453C213.241 20.4464 213.034 20.7755 212.944 20.9958C212.847 21.1021 212.76 21.2181 212.687 21.3419C212.793 21.279 213.137 20.694 214.429 20.6903C214.772 20.6903 215.144 20.7277 215.448 20.9008C214.926 20.7714 214.369 21.0581 213.936 21.3498C214.242 21.2516 214.686 20.9574 215.312 21.0798C215.732 21.1619 215.905 21.5493 216.252 21.7494C216.535 21.9124 216.937 21.9004 217.123 21.5958C217.169 21.5201 217.192 21.4327 217.189 21.3441C217.268 21.4284 217.338 21.5217 217.396 21.622C217.525 21.8452 217.578 22.1038 217.55 22.3598C217.402 22.3505 217.253 22.3575 217.107 22.3806C216.95 22.3998 216.793 22.4187 216.635 22.4007C216.415 22.3732 216.202 22.3001 216.011 22.1861C215.946 22.1471 215.882 22.1038 215.822 22.0565C215.858 22.1084 215.898 22.1578 215.94 22.2044C216.098 22.3799 216.304 22.5054 216.532 22.5656C216.901 22.6651 217.261 22.5266 217.63 22.5917C217.868 22.6336 218.141 22.7396 218.42 22.7664C218.635 22.7868 218.854 22.7601 219.063 22.621C219.148 22.5627 219.22 22.487 219.273 22.3989C219.346 22.5995 219.355 22.8178 219.299 23.0238L219.289 23.0552C219.256 23.1714 219.196 23.2782 219.114 23.3667L219.105 23.3762C219.025 23.4545 218.929 23.4813 218.838 23.5354C218.534 23.4095 218.193 23.3667 217.863 23.3466C218.159 23.441 218.463 23.5354 218.744 23.6694C219.024 23.8035 219.213 24.0156 219.41 24.2516C219.573 24.4485 219.763 24.6269 220.019 24.6877C220.195 24.7294 220.379 24.7204 220.55 24.6619C220.595 24.9183 220.358 25.3365 220.026 25.3919C220.187 25.4941 220.359 25.5756 220.54 25.6345C220.414 25.7481 220.114 25.8324 219.92 25.8425C220.385 26.086 220.618 26.7348 220.608 27.2619C220.534 27.1008 220.448 26.9158 220.253 26.7751C220.309 27.0026 220.298 27.2776 220.257 27.5316L220.256 27.5312Z" fill="#083751"/>
<path d="M212.882 24.9084C212.861 24.7945 212.819 24.6687 212.739 24.5837C212.856 24.5005 212.991 24.4454 213.133 24.4226C212.782 24.3383 212.546 24.4711 212.278 24.731C212.111 24.8933 211.912 25.3014 211.872 25.421C211.824 25.5626 211.494 25.4468 211.494 25.4468C211.563 25.5337 211.705 25.6444 211.857 25.6473C211.971 25.6495 211.973 25.5884 212.026 25.4802C212.335 25.3383 212.669 25.3364 212.796 25.2329C212.892 25.1539 212.903 25.0343 212.882 24.9084ZM212.095 25.3458C212.203 25.1514 212.383 24.8782 212.617 24.6781C212.68 24.7332 212.717 24.8565 212.729 24.9346C212.778 25.2332 212.512 25.1268 212.094 25.3461L212.095 25.3458Z" fill="#083751"/>
<path d="M210.979 26.7389C210.676 26.9607 210.68 27.519 210.805 27.7144C210.772 27.4507 210.842 26.9003 211.094 26.8962C211.259 26.8928 211.342 26.9431 211.38 26.9784L211.408 27.0114C211.412 26.9859 211.41 26.96 211.404 26.9349C211.401 26.6121 211.588 26.3217 211.704 26.0171C211.516 26.224 211.359 26.456 211.235 26.7065C211.164 26.6684 211.075 26.6684 210.979 26.7389Z" fill="#083751"/>
<path d="M225.994 27.2441C225.81 27.1358 225.648 26.9945 225.515 26.8273C225.363 26.644 225.287 26.3897 225.287 26.0646C225.287 25.4775 225.659 25.0477 226.403 24.775L228.322 24.083H228.888C229.328 24.083 229.672 24.2089 229.918 24.4606C230.164 24.7123 230.288 25.0583 230.288 25.4986V34.2268C230.13 34.2668 229.969 34.2983 229.808 34.3212C229.587 34.3538 229.363 34.3696 229.14 34.3684C228.636 34.3684 228.272 34.2845 228.047 34.1166C227.821 33.9488 227.709 33.629 227.708 33.1573V26.6622L225.994 27.2441Z" fill="#323232"/>
<path d="M232.112 24.4763C232.112 24.078 232.245 23.7425 232.513 23.4698C232.78 23.1972 233.134 23.0609 233.574 23.061C234.015 23.061 234.369 23.1973 234.636 23.4698C234.903 23.7424 235.037 24.0779 235.037 24.4763C235.037 24.8749 234.903 25.2104 234.636 25.4828C234.369 25.7555 234.015 25.8919 233.574 25.8919C233.134 25.8919 232.78 25.7555 232.513 25.4828C232.245 25.2103 232.112 24.8748 232.112 24.4763ZM232.238 26.7095C232.401 26.6687 232.566 26.6372 232.733 26.6151C232.965 26.5825 233.199 26.5667 233.433 26.5679C233.957 26.5679 234.334 26.6544 234.565 26.8274C234.796 27.0004 234.911 27.3333 234.911 27.826V34.2267C234.748 34.2675 234.583 34.299 234.416 34.3211C234.184 34.3538 233.95 34.3695 233.716 34.3683C233.192 34.3683 232.814 34.2818 232.584 34.1089C232.353 33.9359 232.238 33.603 232.238 33.1102L232.238 26.7095Z" fill="#323232"/>
<path d="M244.127 34.2268C243.964 34.2676 243.799 34.2991 243.632 34.3212C243.4 34.3538 243.166 34.3696 242.932 34.3684C242.407 34.3684 242.03 34.2819 241.8 34.1089C241.569 33.9359 241.454 33.6031 241.454 33.1103V29.3988C241.454 29.0739 241.357 28.8354 241.163 28.6832C240.969 28.531 240.714 28.455 240.4 28.4552C240.201 28.4538 240.002 28.4803 239.81 28.5338C239.629 28.5856 239.452 28.6541 239.283 28.7384V34.2269C239.12 34.2677 238.955 34.2992 238.788 34.3213C238.556 34.3539 238.322 34.3697 238.088 34.3685C237.564 34.3685 237.186 34.282 236.956 34.109C236.725 33.936 236.61 33.6032 236.61 33.1104V28.3766C236.61 28.0935 236.67 27.8629 236.79 27.6846C236.924 27.4931 237.092 27.3278 237.286 27.1971C237.642 26.9453 238.09 26.7435 238.631 26.5916C239.171 26.4397 239.771 26.3637 240.431 26.3635C241.616 26.3635 242.528 26.623 243.168 27.142C243.807 27.661 244.127 28.387 244.127 29.3201L244.127 34.2268Z" fill="#323232"/>
<path d="M250.087 28.4709C249.833 28.4696 249.58 28.5122 249.34 28.5967C249.111 28.6767 248.902 28.8054 248.727 28.9741C248.548 29.1511 248.406 29.3624 248.31 29.5954C248.205 29.8418 248.153 30.1275 248.153 30.4524C248.153 31.1027 248.336 31.585 248.703 31.8992C249.07 32.2135 249.526 32.3708 250.071 32.371C250.354 32.3757 250.635 32.3359 250.905 32.2531C251.119 32.1849 251.33 32.1035 251.534 32.0093C251.733 32.1562 251.882 32.3134 251.982 32.4811C252.082 32.6489 252.132 32.8534 252.132 33.0944C252.132 33.514 251.925 33.8495 251.51 34.1009C251.096 34.3524 250.507 34.4783 249.741 34.4785C249.081 34.4785 248.486 34.392 247.956 34.2191C247.427 34.0461 246.976 33.7892 246.604 33.4485C246.226 33.0998 245.933 32.6695 245.747 32.1903C245.547 31.6925 245.448 31.1132 245.448 30.4525C245.448 29.7606 245.56 29.1578 245.786 28.644C246.011 28.1302 246.318 27.7056 246.706 27.3702C247.099 27.0315 247.557 26.7749 248.051 26.6153C248.571 26.4457 249.115 26.3608 249.663 26.3636C250.417 26.3636 250.999 26.4999 251.408 26.7726C251.817 27.0454 252.021 27.3966 252.021 27.8263C252.023 28.0214 251.974 28.2136 251.88 28.3846C251.792 28.5491 251.681 28.7 251.55 28.8328C251.34 28.7372 251.125 28.6557 250.905 28.589C250.64 28.5084 250.364 28.4686 250.087 28.4709Z" fill="#323232"/>
<path d="M260.522 34.3213C260.29 34.3539 260.056 34.3697 259.822 34.3684C259.298 34.3684 258.92 34.282 258.69 34.109C258.459 33.936 258.344 33.6031 258.344 33.1104V29.619C258.344 29.1892 258.236 28.8878 258.021 28.7147C257.806 28.5417 257.542 28.4552 257.227 28.4553C257.033 28.4532 256.839 28.4797 256.653 28.5339C256.486 28.5839 256.325 28.6526 256.173 28.7385V34.227C256.01 34.2678 255.845 34.2993 255.678 34.3214C255.446 34.354 255.212 34.3698 254.978 34.3686C254.454 34.3686 254.076 34.2821 253.846 34.1091C253.615 33.9361 253.5 33.6033 253.5 33.1105V23.9889C253.663 23.9481 253.828 23.9166 253.995 23.8945C254.227 23.8619 254.461 23.8461 254.695 23.8473C255.219 23.8473 255.597 23.9338 255.827 24.1068C256.058 24.2797 256.173 24.6126 256.173 25.1054V26.6623C256.403 26.5725 256.64 26.5015 256.881 26.45C257.16 26.3907 257.445 26.3617 257.73 26.3635C258.768 26.3635 259.575 26.623 260.152 27.142C260.729 27.661 261.017 28.4342 261.017 29.4617V34.2268C260.854 34.2676 260.689 34.2991 260.522 34.3213Z" fill="#323232"/>
<path fill-rule="evenodd" clip-rule="evenodd" d="M66.8277 91.424C65.9905 91.635 65.598 92.2915 65.836 93.083C65.938 93.4221 66.2516 93.7643 66.6951 94.0202C67.4944 94.4813 67.7297 94.668 67.8664 94.9494C67.9805 95.1841 67.9904 95.2626 67.9328 95.4753C67.7979 95.9747 67.4455 96.2502 66.9413 96.2502C66.4268 96.2502 66.0654 95.9615 65.9848 95.4861C65.9524 95.2948 65.9125 95.2338 65.8201 95.2338C65.7098 95.2338 65.6982 95.2843 65.6982 95.7687V96.3035L66.0329 96.4171C66.5556 96.5946 67.2989 96.5734 67.7425 96.3684C68.6066 95.9689 68.9378 95.1759 68.55 94.435C68.4049 94.1578 68.0409 93.8485 67.4172 93.4723C66.7618 93.0768 66.4697 92.7892 66.4268 92.4969C66.361 92.0476 66.7651 91.6758 67.3174 91.6774C67.7499 91.6786 67.9355 91.781 68.0889 92.1029C68.1849 92.3045 68.2536 92.3711 68.3672 92.3729C68.4929 92.3748 68.5117 92.3514 68.4796 92.2323C68.4585 92.1537 68.4408 91.9566 68.4404 91.7944C68.4397 91.5884 68.4099 91.4881 68.3415 91.462C68.1553 91.3908 67.0679 91.3635 66.8277 91.424ZM50.0159 91.6129C50.0159 91.7043 50.0584 91.74 50.1675 91.74C50.4752 91.74 50.4918 91.8288 50.5259 93.6711C50.5556 95.2806 50.5667 95.4091 50.6953 95.6467C50.8796 95.987 51.1296 96.2134 51.514 96.3884C51.7773 96.5083 51.9436 96.5337 52.4702 96.5348C53.0415 96.5359 53.1456 96.5175 53.473 96.3573C53.6739 96.259 53.9241 96.0748 54.029 95.9479C54.3929 95.5081 54.4314 95.2956 54.4726 93.5003C54.5123 91.7716 54.5177 91.7435 54.813 91.7409C54.8817 91.7403 54.9246 91.6912 54.9246 91.6129C54.9246 91.4929 54.8821 91.4859 54.1596 91.4859C53.4455 91.4859 53.3946 91.4941 53.3946 91.6089C53.3946 91.701 53.4462 91.7369 53.6003 91.7518C53.9389 91.7846 53.9664 91.9147 53.9674 93.4912C53.9685 95.0895 53.9139 95.397 53.5716 95.7207C53.2534 96.0217 53.0001 96.1231 52.5665 96.1231C51.9437 96.1231 51.5023 95.8332 51.3575 95.3291C51.3088 95.1595 51.2909 94.536 51.3037 93.4551L51.3227 91.8352L51.5459 91.7635C51.6686 91.7241 51.7782 91.6455 51.7896 91.5888C51.8078 91.4978 51.7063 91.4859 50.913 91.4859C50.0584 91.4859 50.0159 91.4919 50.0159 91.6129ZM55.9446 91.6129C55.9446 91.7112 55.9871 91.74 56.1328 91.74C56.4575 91.74 56.6403 91.8647 56.7136 92.1363C56.7554 92.2907 56.7734 93.0282 56.7612 94.0823C56.7393 95.9643 56.7135 96.0874 56.3242 96.165C56.1959 96.1906 56.1358 96.2405 56.1358 96.3216C56.1358 96.4324 56.1982 96.4407 57.0283 96.4407C57.8439 96.4407 57.9208 96.431 57.9208 96.3268C57.9208 96.2458 57.8391 96.1912 57.6373 96.1374C57.3865 96.0706 57.346 96.0341 57.287 95.8225C57.2113 95.5509 57.1934 92.6899 57.2674 92.6982C57.2936 92.7011 57.5409 92.9655 57.8169 93.2857C58.0928 93.606 58.8477 94.4468 59.4945 95.1543C60.5067 96.2617 60.6961 96.4407 60.8551 96.4407H61.0399L61.0582 94.1888C61.0711 92.5898 61.0978 91.9155 61.1502 91.8633C61.1908 91.8229 61.3199 91.7703 61.437 91.7464C61.5614 91.7211 61.6502 91.6644 61.6502 91.6103C61.6502 91.5345 61.4912 91.5144 60.7736 91.5C59.9296 91.4829 59.897 91.4871 59.897 91.6111C59.897 91.7054 59.9388 91.74 60.0528 91.74C60.1386 91.74 60.2892 91.8089 60.3875 91.8932L60.5664 92.0464L60.5865 93.5766C60.5979 94.4405 60.582 95.1068 60.55 95.1068C60.5189 95.1068 60.3243 94.9138 60.1175 94.6779C59.9107 94.4421 59.322 93.7918 58.8091 93.2328C58.2962 92.6738 57.7359 92.0543 57.564 91.8563L57.2514 91.4963L56.598 91.4911C55.9853 91.4862 55.9446 91.4938 55.9446 91.6129ZM62.6383 91.6129C62.6383 91.7098 62.6808 91.74 62.8173 91.74C62.9158 91.74 63.0521 91.7805 63.1202 91.83C63.2369 91.9151 63.245 92.0247 63.2638 93.7834C63.2874 95.9794 63.2681 96.1025 62.8908 96.1626C62.7009 96.1929 62.6383 96.2324 62.6383 96.3218C62.6383 96.4327 62.7025 96.4407 63.5945 96.4407C64.5082 96.4407 64.5507 96.4351 64.5507 96.3137C64.5507 96.2233 64.5082 96.1866 64.4035 96.1866C64.3226 96.1866 64.2007 96.1461 64.1326 96.0966C64.0154 96.0112 64.0079 95.9014 63.9904 94.0028C63.9724 92.058 63.9757 91.9954 64.1019 91.8696C64.1735 91.7983 64.3037 91.74 64.3914 91.74C64.5082 91.74 64.5507 91.7061 64.5507 91.6129C64.5507 91.4915 64.5082 91.4859 63.5945 91.4859C62.6808 91.4859 62.6383 91.4915 62.6383 91.6129ZM69.3135 91.6129C69.3341 91.6916 69.4004 91.74 69.4876 91.74C69.5651 91.74 69.6912 91.8065 69.7679 91.8878C69.8458 91.9704 70.2816 93.0147 70.7556 94.2541L71.6039 96.4725L71.8263 96.4915L72.0487 96.5105L72.6446 94.9352C72.9724 94.0688 73.275 93.2913 73.3171 93.2074C73.3892 93.0639 73.4053 93.0857 73.5968 93.5886C73.7085 93.8821 74.0061 94.6581 74.258 95.3132L74.7159 96.5042H74.9177C75.0287 96.5042 75.1341 96.4663 75.152 96.4198C75.1699 96.3735 75.4628 95.6231 75.8029 94.7523C76.1431 93.8817 76.5198 92.9171 76.6402 92.6088C76.9143 91.907 76.9692 91.8203 77.1877 91.7444C77.2849 91.7107 77.3644 91.6387 77.3644 91.5845C77.3644 91.5009 77.2483 91.4859 76.5994 91.4859C75.8769 91.4859 75.8344 91.4929 75.8344 91.6129C75.8344 91.705 75.8769 91.74 75.9885 91.74C76.2363 91.74 76.3444 91.807 76.3444 91.961C76.3444 92.0894 75.1302 95.385 75.0553 95.4595C75.0094 95.5053 73.9129 92.4439 73.8733 92.1591C73.8348 91.8824 73.953 91.74 74.221 91.74C74.3256 91.74 74.3682 91.7033 74.3682 91.6129C74.3682 91.4913 74.3256 91.4859 73.38 91.4859C72.4344 91.4859 72.3919 91.4913 72.3919 91.6129C72.3919 91.6853 72.4344 91.74 72.4908 91.74C72.6898 91.74 72.9536 91.9315 73.0214 92.1254C73.1187 92.4036 73.0443 92.6856 72.4711 94.2108L71.9842 95.5066L71.8793 95.259C71.8216 95.1229 71.5214 94.3195 71.2123 93.4739C70.6049 91.8126 70.5959 91.74 70.9972 91.74C71.1382 91.74 71.1807 91.7105 71.1807 91.6129C71.1807 91.4915 71.1382 91.4859 70.2305 91.4859C69.3115 91.4859 69.2813 91.4901 69.3135 91.6129ZM82.2238 91.6568C82.2238 91.6568 82.2237 91.7435 82.2344 91.7676C82.245 91.7917 82.3136 91.8008 82.3136 91.8008C82.3562 91.8122 82.3966 91.8223 82.4349 91.8317C82.6275 91.8794 82.7629 91.9129 82.817 92.0394C82.8535 92.1249 82.8558 92.422 82.8562 94.0147C82.8567 95.6942 82.8564 95.9001 82.8114 96.011C82.7557 96.1487 82.649 96.2218 82.4029 96.2909C82.4029 96.2909 82.2941 96.3212 82.2648 96.3482C82.2355 96.3753 82.2299 96.4358 82.2299 96.4358C82.2299 96.4358 82.2276 96.492 82.2527 96.5189C82.2778 96.5459 82.3448 96.533 82.3448 96.533L82.9827 96.5347L84.0409 96.5433C84.0409 96.5433 84.0841 96.549 84.1065 96.5204C84.1289 96.4918 84.1232 96.4357 84.1232 96.4357C84.1232 96.4357 84.1232 96.3757 84.0953 96.3486C84.0675 96.3216 83.9594 96.2963 83.9594 96.2963C83.7204 96.2375 83.5978 96.1608 83.5436 96.0364C83.5033 95.9439 83.499 95.6942 83.4929 95.1742V94.4118C83.5196 94.4268 83.544 94.4439 83.5698 94.462C83.6918 94.5473 83.8445 94.6542 84.415 94.6707C85.1063 94.6907 85.522 94.3831 85.7694 94.0259C86.0166 93.6687 86.1126 93.1075 85.9311 92.5096C85.7497 91.9118 85.2174 91.55 84.4689 91.5126C84.0788 91.4931 83.5112 91.5124 83.194 91.5267L83.1052 91.5307C82.817 91.5433 82.4716 91.5709 82.2995 91.5872L82.299 91.5873C82.2522 91.5917 82.2475 91.5922 82.2344 91.6088C82.2213 91.6255 82.2238 91.6568 82.2238 91.6568ZM85.0326 93.9987C85.3107 93.7373 85.3153 93.3285 85.3153 93.0673C85.288 92.6577 85.123 91.8701 84.1882 91.8701C83.9697 91.8589 83.5225 91.8966 83.5101 92.1997C83.4966 92.2533 83.4905 92.6279 83.494 93.2028L83.4995 94.1205L83.5947 94.1706L83.5998 94.1733C83.6514 94.2005 83.7184 94.2359 83.8355 94.2589C84.2072 94.3316 84.7546 94.2601 85.0326 93.9987ZM79.1839 91.566C79.2531 91.5398 79.2988 91.5222 79.2988 91.5222C79.2988 91.5222 79.4023 91.4797 79.4357 91.5222C79.446 91.5353 79.4835 91.6322 79.5765 91.8722C79.5947 91.9193 79.6151 91.9719 79.6379 92.0304C79.7764 92.3874 79.9755 92.8999 80.0803 93.1693C80.1851 93.4386 80.3923 93.9716 80.5408 94.3537C80.6893 94.7358 80.8799 95.2259 80.9643 95.4429C81.0489 95.6599 81.1568 95.8856 81.187 95.9267C81.2018 95.9469 81.217 95.9721 81.2336 95.9996C81.2988 96.1077 81.3863 96.2527 81.562 96.2811C81.562 96.2811 81.6996 96.3038 81.72 96.3254C81.7404 96.347 81.745 96.3862 81.745 96.3862V96.4598C81.745 96.4598 81.7426 96.4786 81.7313 96.4946C81.72 96.5106 81.6784 96.5061 81.6784 96.5061L80.6175 96.5062L79.8628 96.5116C79.8628 96.5116 79.8364 96.5148 79.8209 96.502C79.8053 96.4891 79.7972 96.4566 79.7972 96.4566V96.4012C79.7972 96.4012 79.7907 96.3595 79.8209 96.3232C79.851 96.287 79.9722 96.2828 79.9722 96.2828C80.2007 96.2629 80.2914 96.0683 80.3381 95.9681C80.3416 95.9606 80.3448 95.9537 80.3478 95.9473C80.3976 95.8438 80.3796 95.7763 80.1548 95.2226C80.0065 94.8572 79.956 94.7545 79.9199 94.7454C79.8946 94.739 79.4998 94.7366 79.0424 94.7401L78.211 94.7465L78.1613 94.8831C78.0175 95.2785 77.8898 95.6712 77.8706 95.7773C77.8314 95.9933 77.886 96.2336 78.2037 96.2754C78.2037 96.2754 78.3215 96.2916 78.3529 96.3153C78.3843 96.339 78.3954 96.3997 78.3954 96.3997V96.4557C78.3954 96.4557 78.3894 96.4824 78.3677 96.5003C78.3461 96.5183 78.29 96.5117 78.29 96.5117H77.4964L76.7287 96.5204C76.7287 96.5204 76.6959 96.5197 76.6717 96.5069C76.6475 96.494 76.6436 96.4682 76.6436 96.4682V96.415C76.6436 96.415 76.6395 96.3805 76.6822 96.3383C76.725 96.296 76.8403 96.2847 76.8403 96.2847C77.0502 96.2509 77.1691 96.0276 77.2375 95.899C77.2425 95.8895 77.2473 95.8805 77.2518 95.8722C77.279 95.8221 77.4012 95.53 77.5236 95.2231C77.6459 94.9162 77.7833 94.5728 77.8287 94.4601C77.9833 94.0767 78.1303 93.7094 78.3528 93.1504C78.4749 92.8435 78.6557 92.3904 78.7546 92.1436L78.9343 91.6949L79.1839 91.566ZM79.1184 92.6567C79.1569 92.7538 79.2159 92.8998 79.2494 92.9813C79.2829 93.0627 79.3767 93.2933 79.4579 93.4937C79.539 93.6942 79.6387 93.9381 79.6794 94.0358C79.7201 94.1335 79.7534 94.2181 79.7534 94.2237C79.7534 94.2294 79.4479 94.234 79.0744 94.234C78.6457 94.234 78.3954 94.2258 78.3954 94.2117C78.3954 94.1994 78.4097 94.1507 78.4273 94.1035C78.4552 94.0284 78.5945 93.6296 78.9023 92.7441C78.9497 92.6073 78.9938 92.4867 79.0002 92.4761C79.0218 92.4396 79.0484 92.4802 79.1184 92.6567Z" fill="#262C35"/>
<path d="M34.0111 90.924C34.5007 91.7897 33.4058 92.0581 32.892 92.1075C32.1135 92.1835 31.9523 91.7328 32.1044 91.1665C32.1543 90.9637 32.2651 90.7813 32.4216 90.6441C32.5783 90.5067 32.7731 90.4211 32.9798 90.3988C33.1835 90.3801 33.3883 90.4194 33.5707 90.5123C33.7531 90.6052 33.9058 90.7479 34.0111 90.924Z" fill="#262C35"/>
<path d="M37.067 89.3221C36.498 93.6941 44.1688 92.7844 44.0228 96.264C44.7794 95.2759 45.1048 92.5913 42.8773 91.2095C40.8926 89.9773 38.3064 90.6515 37.067 89.3221Z" fill="#262C35"/>
<path d="M43.2679 90.8607L43.2634 90.8538C43.1942 90.7246 43.1152 90.6009 43.0273 90.4837C42.7687 90.1317 42.3978 89.8795 41.9764 89.7692C41.6959 89.6965 41.409 89.6512 41.1198 89.6339C40.827 89.6126 40.5282 89.6004 40.2263 89.5845C39.621 89.551 39.0013 89.4887 38.396 89.3154C38.2446 89.2721 38.0934 89.2249 37.9473 89.168C37.8717 89.1406 37.8013 89.111 37.7264 89.079C37.6515 89.0471 37.5751 89.0106 37.4994 88.9718C37.2148 88.8153 36.9511 88.6229 36.7148 88.3995C36.2487 87.964 35.8825 87.4699 35.5155 86.9911C35.1696 86.5104 34.7982 86.0486 34.4032 85.6077C34.0135 85.1758 33.5528 84.8143 33.0413 84.539C32.5116 84.2711 31.9363 84.106 31.3457 84.0526C31.9585 83.9858 32.5783 84.0617 33.1571 84.2745C33.7411 84.5023 34.275 84.8429 34.7286 85.2771C35.0247 85.5561 35.3028 85.8539 35.5609 86.1687C37.4827 85.7886 39.0414 86.1261 40.2391 86.7813L40.2664 86.795C40.6476 87.0027 41.0049 87.252 41.3317 87.5383C41.3839 87.5839 41.4354 87.6295 41.483 87.6759C41.7382 87.9114 41.9756 88.1655 42.1935 88.436L42.2102 88.458C42.9177 89.358 43.2672 90.2936 43.2679 90.8607Z" fill="#262C35"/>
<path d="M31.4434 84.6155C31.9338 84.687 32.4339 84.8831 32.7562 85.2571C33.0785 85.631 33.1974 86.1175 33.2904 86.5804C33.366 86.9391 33.4258 87.3047 33.5666 87.6445C33.6346 87.8102 33.7346 87.9553 33.8178 88.1119C33.8866 88.2419 34.0122 88.359 34.0606 88.498C34.0693 88.5181 34.0726 88.5399 34.07 88.5616C34.0675 88.5832 34.0593 88.6038 34.0463 88.6212C33.8753 88.8112 33.4137 88.5999 33.2397 88.5148C32.9388 88.365 32.6694 88.1586 32.446 87.9067C31.7476 87.1276 31.3867 86.0065 31.4087 84.9857C31.4135 84.8618 31.4251 84.7382 31.4434 84.6155Z" fill="#262C35"/>
<path d="M39.6436 93.4009C38.5843 96.3705 43.389 98.3628 41.5889 101.382C43.4359 100.616 44.3128 98.3012 43.5464 96.4648C42.876 94.8527 40.8936 94.2651 39.6436 93.4009Z" fill="#262C35"/>
<path d="M33.2891 97.2846C33.5777 97.0661 33.8933 96.8859 34.228 96.7488C34.5666 96.6126 34.918 96.5108 35.2767 96.4447C35.9887 96.3087 36.6932 96.2753 37.2849 96.0358C37.5772 95.9211 37.8462 95.7537 38.0786 95.5418C38.3035 95.3318 38.4756 95.0713 38.581 94.7816C38.6888 94.476 38.7326 94.1512 38.7095 93.8277C38.6828 93.4803 38.6045 93.1388 38.4773 92.8146C38.741 93.0901 38.9331 93.4268 39.0364 93.7946C39.1397 94.1626 39.1512 94.5504 39.0698 94.9238C38.9772 95.3191 38.7773 95.6808 38.4924 95.9689C38.2104 96.248 37.8703 96.4608 37.4967 96.5922C37.1401 96.7178 36.7682 96.7945 36.3912 96.8202C36.028 96.8506 35.6769 96.859 35.332 96.8795C34.6344 96.9089 33.9454 97.0455 33.2891 97.2846Z" fill="#262C35"/>
<path d="M40.0666 102.505C39.9599 102.59 39.8532 102.68 39.7359 102.759C39.6179 102.837 39.4942 102.907 39.3659 102.966C39.0988 103.097 38.8051 103.164 38.5079 103.161C37.7028 103.146 37.1338 102.544 36.801 101.864C36.5739 101.4 36.4173 100.899 36.1479 100.458C35.7628 99.8262 35.1038 99.3177 34.332 99.4119C34.0173 99.4514 33.7222 99.5936 33.5474 99.868C33.0873 100.585 33.7479 101.589 34.5901 101.447C34.6617 101.436 34.7317 101.416 34.7989 101.389C34.8658 101.36 34.9282 101.322 34.9843 101.276C35.1019 101.177 35.1906 101.049 35.2408 100.903C35.296 100.752 35.3084 100.588 35.2763 100.43C35.2417 100.264 35.1446 100.119 35.0054 100.025C35.1673 100.101 35.2934 100.237 35.3573 100.405C35.4235 100.577 35.4405 100.765 35.4065 100.947C35.3734 101.136 35.2903 101.313 35.1659 101.459C35.0998 101.534 35.0233 101.599 34.9388 101.653C34.8551 101.706 34.7655 101.748 34.6718 101.78C34.4817 101.845 34.2794 101.866 34.0801 101.841C33.8002 101.801 33.5362 101.686 33.3159 101.508C33.0556 101.301 32.8619 101.031 32.6266 100.798C32.3568 100.514 32.0386 100.28 31.6869 100.109C31.4443 100.002 31.1905 99.9229 30.9302 99.8733C30.7993 99.8459 30.6669 99.8262 30.5345 99.8095C30.474 99.8034 30.1774 99.7372 30.1357 99.776C30.545 99.3975 30.9911 99.0614 31.4674 98.7727C31.9564 98.4811 32.4815 98.2556 33.0291 98.1016C33.5969 97.941 34.1907 97.8953 34.7762 97.967C35.0776 98.0033 35.3727 98.0801 35.6538 98.195C35.9484 98.3133 36.2203 98.4819 36.4574 98.6937C36.6921 98.9157 36.8817 99.1813 37.0158 99.4758C37.1369 99.7514 37.2273 100.04 37.2851 100.335C37.4577 101.219 37.3941 102.59 38.5465 102.792C38.6065 102.804 38.6671 102.812 38.7281 102.818L38.9165 102.822C39.046 102.813 39.1747 102.795 39.3016 102.767C39.5645 102.705 39.8207 102.617 40.0666 102.505Z" fill="#262C35"/>
<path d="M32.3361 89.0652C32.2942 89.2272 32.2209 89.3793 32.1205 89.5129C31.9336 89.7566 31.6862 89.9466 31.4032 90.064C31.1486 90.1742 30.8791 90.2454 30.6034 90.2753C30.5436 90.2829 30.4816 90.2874 30.4219 90.292C30.2473 90.2986 30.0795 90.3613 29.9429 90.4707C29.8063 90.5801 29.7082 90.7306 29.6629 90.9001C29.6422 90.9844 29.6268 91.07 29.6168 91.1562C29.5896 91.3797 29.585 91.6123 29.5608 91.8935C29.5015 92.3721 29.3637 92.8374 29.153 93.2708C28.8791 93.8499 28.5719 94.3166 28.643 94.984C28.6899 95.4172 28.9109 95.7076 29.2044 96.0071C29.7341 96.5513 30.9197 96.7945 30.6549 98.1353C30.4952 98.9356 29.1742 99.7756 27.3174 100.069C27.502 100.041 27.0806 99.3271 27.0541 99.2815C26.8551 98.9683 26.6372 98.6734 26.479 98.3337C26.1688 97.6747 26.0251 96.9123 26.1522 96.1902C26.2861 95.4302 26.846 94.8479 27.3113 94.2672C27.8652 93.5763 28.4463 92.6711 28.5749 91.7742C28.6052 91.5568 28.6264 91.2847 28.6748 91.014C28.721 90.7143 28.8144 90.4238 28.9517 90.1537C29.0454 89.9764 29.1688 89.8168 29.3164 89.6817C29.3934 89.6099 29.4442 89.5143 29.4606 89.4101C29.4771 89.3059 29.4583 89.1992 29.4072 89.107L26.4473 83.7591L30.6988 89.0295C30.7472 89.0906 30.8084 89.1402 30.878 89.1748C30.9477 89.2094 31.0241 89.2283 31.1017 89.2299C31.1795 89.2316 31.2565 89.2161 31.3276 89.1845C31.3987 89.1529 31.4619 89.1059 31.513 89.047C31.5668 88.9839 31.5973 88.904 31.5994 88.821C31.6014 88.7379 31.5749 88.6567 31.5243 88.591C31.2466 88.2345 30.953 87.8711 30.6685 87.5139L29.5986 86.1837L27.4513 83.528L24.5232 79.8372L27.7267 83.2901L30.0125 85.8288L31.1528 87.1012C31.531 87.5291 31.9094 87.9433 32.2877 88.3933L32.3498 88.4693L32.3634 88.5871C32.3818 88.7469 32.3726 88.9086 32.3361 89.0652Z" fill="#262C35"/>
<path fill-rule="evenodd" clip-rule="evenodd" d="M155.201 58.2126L158.283 63.8132H158.989L155.554 57.5772L158.683 51.8825H157.977L155.201 56.9419L152.424 51.8825H151.718L154.848 57.5772L151.412 63.8132H152.118L155.201 58.2126ZM152.471 57.5772L148.306 50H153.789L155.201 52.565L156.613 50H162.119L157.954 57.5772L162.425 65.6957H156.942L155.201 62.566L153.483 65.6957H148L152.471 57.5772Z" fill="#FCA060"/>
<path fill-rule="evenodd" clip-rule="evenodd" d="M165.437 61.3314V54.3539H167.372C168.028 54.3539 168.612 54.4271 169.124 54.5736C169.637 54.72 170.069 54.9397 170.421 55.2326C170.774 55.5255 171.042 55.8899 171.227 56.3258C171.412 56.7617 171.504 57.2655 171.504 57.8374C171.504 58.4093 171.412 58.9132 171.227 59.349C171.042 59.7849 170.774 60.1493 170.421 60.4422C170.069 60.7351 169.637 60.9565 169.124 61.1065C168.612 61.2564 168.028 61.3314 167.372 61.3314H165.437ZM167.665 59.3438C168.188 59.3438 168.593 59.22 168.878 58.9724C169.164 58.7249 169.307 58.3465 169.307 57.8374C169.307 57.3283 169.164 56.9517 168.878 56.7076C168.593 56.4635 168.188 56.3415 167.665 56.3415V59.3438ZM172.08 54.3539H176.191V56.1846H174.308V56.9587H176.159V58.6952H174.308V59.5007H176.264V61.3314H172.08V54.3539ZM178.304 57.7223L176.452 54.3539H178.89L179.517 55.4942L180.145 54.3539H182.593L180.741 57.7223L182.729 61.3314H180.291L179.517 59.9401L178.754 61.3314H176.316L178.304 57.7223ZM182.833 59.5844H185.072V61.3314H182.833V59.5844ZM187.823 54.3539H189.497L192.144 61.3314H189.947L189.717 60.7037H187.604L187.374 61.3314H185.177L187.823 54.3539ZM189.131 59.166L188.66 57.942L188.189 59.166H189.131ZM196.747 56.7286C196.621 56.617 196.464 56.5315 196.276 56.4723C196.088 56.413 195.903 56.3833 195.721 56.3833C195.519 56.3833 195.334 56.42 195.167 56.4932C195 56.5664 194.855 56.6675 194.733 56.7965C194.611 56.9256 194.515 57.0807 194.445 57.2621C194.375 57.4434 194.341 57.6387 194.341 57.8479C194.341 58.0571 194.379 58.2524 194.456 58.4337C194.532 58.615 194.637 58.7702 194.769 58.8992C194.902 59.0282 195.057 59.1294 195.235 59.2026C195.413 59.2758 195.603 59.3124 195.805 59.3124C196.042 59.3124 196.258 59.2619 196.454 59.1607C196.649 59.0596 196.816 58.9219 196.956 58.7475H196.328V57.283H199.017V59.6053C198.856 59.8913 198.664 60.151 198.441 60.3847C198.218 60.6183 197.969 60.8188 197.693 60.9862C197.418 61.1536 197.12 61.2826 196.799 61.3732C196.478 61.4639 196.147 61.5092 195.805 61.5092C195.303 61.5092 194.829 61.4151 194.382 61.2268C193.936 61.0385 193.547 60.7805 193.216 60.4527C192.885 60.1249 192.623 59.7378 192.431 59.2915C192.24 58.8452 192.144 58.364 192.144 57.8479C192.144 57.3457 192.234 56.8715 192.416 56.4252C192.597 55.9788 192.846 55.59 193.164 55.2588C193.481 54.9275 193.858 54.666 194.293 54.4742C194.729 54.2824 195.198 54.1865 195.701 54.1865C196.091 54.1865 196.429 54.2249 196.715 54.3016C197.001 54.3783 197.242 54.4655 197.437 54.5631C197.667 54.6747 197.859 54.7967 198.012 54.9293L196.747 56.7286Z" fill="#FCA060"/>
<path d="M75.3099 65L70.0523 55L64.7946 65H75.3099ZM66.3783 59.5236L68.7567 55H64L66.3783 59.5236ZM114.24 63.013C114.491 63.013 114.737 63.0035 114.977 62.9846C115.217 62.966 115.435 62.9415 115.632 62.9116C115.829 62.8814 116.002 62.8533 116.152 62.827C116.3 62.8008 116.415 62.7762 116.494 62.7537V59.0802C116.494 58.7724 116.455 58.4871 116.375 58.224C116.297 57.9612 116.171 57.7338 115.999 57.5423C115.825 57.3504 115.598 57.2002 115.32 57.0914C115.04 56.9826 114.7 56.9279 114.299 56.9279C113.905 56.9279 113.569 56.9545 113.29 57.0069C113.011 57.0595 112.804 57.1157 112.671 57.1757L112.777 57.8181C112.879 57.7806 113.04 57.732 113.26 57.6717C113.481 57.6117 113.815 57.5816 114.263 57.5816C114.578 57.5816 114.831 57.6283 115.024 57.7224C115.217 57.8166 115.367 57.9405 115.473 58.0945C115.579 58.2483 115.648 58.4209 115.679 58.6128C115.706 58.7765 115.719 58.9453 115.723 59.1175H115.726V59.1964C115.726 59.1992 115.727 59.2015 115.727 59.2043V59.565L115.726 60.2072L115.727 62.258C115.569 62.2881 115.379 62.3126 115.154 62.3313C114.93 62.3502 114.668 62.3594 114.369 62.3594C114.126 62.3594 113.907 62.3387 113.714 62.2973C113.522 62.2562 113.356 62.1905 113.219 62.1004C113.081 62.0102 112.975 61.8901 112.9 61.7394C112.825 61.5892 112.788 61.4056 112.788 61.1875C112.788 60.9394 112.843 60.7407 112.953 60.5903C113.064 60.4401 113.205 60.3216 113.379 60.2352C113.551 60.1489 113.74 60.0927 113.945 60.0661C114.15 60.0401 114.346 60.0271 114.535 60.0271C114.683 60.0271 114.815 60.0316 114.935 60.0401V59.4163C114.925 59.4155 114.916 59.4138 114.906 59.4127C114.784 59.4012 114.668 59.3956 114.558 59.3956C114.189 59.3956 113.847 59.4296 113.532 59.4973C113.217 59.565 112.946 59.672 112.718 59.8183C112.489 59.965 112.312 60.1507 112.186 60.3763C112.061 60.6015 111.998 60.8718 111.998 61.1875C111.998 61.5182 112.055 61.7979 112.169 62.0268C112.282 62.2562 112.44 62.4439 112.641 62.5905C112.841 62.7369 113.077 62.8439 113.349 62.9116C113.62 62.979 113.917 63.013 114.24 63.013ZM95.1871 63.013C95.4384 63.013 95.6843 63.0035 95.9243 62.9846C96.1643 62.966 96.3828 62.9415 96.5793 62.9116C96.7758 62.8814 96.9491 62.8533 97.0986 62.827C97.248 62.8008 97.3624 62.7762 97.441 62.7537V59.0802C97.441 58.7724 97.4017 58.4871 97.3231 58.224C97.2444 57.9612 97.1182 57.7338 96.9455 57.5423C96.7723 57.3504 96.546 57.2002 96.2667 57.0914C95.9874 56.9826 95.6474 56.9279 95.2461 56.9279C94.8525 56.9279 94.516 56.9545 94.2369 57.0069C93.9576 57.0595 93.7513 57.1157 93.6175 57.1757L93.7236 57.8181C93.8257 57.7806 93.9871 57.732 94.2076 57.6717C94.4277 57.6117 94.762 57.5816 95.2103 57.5816C95.5253 57.5816 95.7784 57.6283 95.9719 57.7224C96.1643 57.8166 96.3137 57.9405 96.4203 58.0945C96.5263 58.2483 96.5948 58.4209 96.627 58.6128C96.6538 58.7765 96.6663 58.9453 96.6704 59.1175H96.674V62.258C96.5162 62.2881 96.3262 62.3126 96.1018 62.3313C95.8773 62.3502 95.6159 62.3594 95.3169 62.3594C95.0728 62.3594 94.8543 62.3387 94.6619 62.2973C94.469 62.2562 94.3037 62.1905 94.166 62.1004C94.0283 62.0102 93.9222 61.8901 93.8476 61.7394C93.7729 61.5892 93.7357 61.4056 93.7357 61.1875C93.7357 60.9394 93.7906 60.7407 93.9009 60.5903C94.0106 60.4401 94.1523 60.3216 94.3256 60.2352C94.4988 60.1489 94.6875 60.0927 94.8918 60.0661C95.0966 60.0401 95.2931 60.0271 95.4819 60.0271C95.6301 60.0271 95.7618 60.0316 95.882 60.0401V59.4163C95.8719 59.4155 95.8636 59.4138 95.8534 59.4127C95.7314 59.4012 95.6159 59.3956 95.5057 59.3956C95.1359 59.3956 94.7935 59.4296 94.4791 59.4973C94.1644 59.565 93.8929 59.672 93.6648 59.8183C93.4363 59.965 93.2593 60.1507 93.1335 60.3763C93.0077 60.6015 92.9449 60.8718 92.9449 61.1875C92.9449 61.5182 93.0021 61.7979 93.1158 62.0268C93.23 62.2562 93.3873 62.4439 93.5878 62.5905C93.7885 62.7369 94.0248 62.8439 94.2958 62.9116C94.5672 62.979 94.8644 63.013 95.1871 63.013ZM85.961 63.013C86.2124 63.013 86.4582 63.0035 86.6983 62.9846C86.9381 62.966 87.1565 62.9415 87.3533 62.9116C87.5496 62.8814 87.7232 62.8533 87.8725 62.827C88.0218 62.8008 88.136 62.7762 88.2146 62.7537V59.0802C88.2146 58.7724 88.1753 58.4871 88.097 58.224C88.0181 57.9612 87.892 57.7338 87.7192 57.5423C87.5461 57.3504 87.3198 57.2002 87.0405 57.0914C86.7611 56.9826 86.421 56.9279 86.0198 56.9279C85.6263 56.9279 85.2901 56.9545 85.0108 57.0069C84.7314 57.0595 84.5251 57.1157 84.3913 57.1757L84.4977 57.8181C84.5997 57.7806 84.7609 57.732 84.9815 57.6717C85.2015 57.6117 85.536 57.5816 85.9844 57.5816C86.299 57.5816 86.5527 57.6283 86.7455 57.7224C86.9381 57.8166 87.0879 57.9405 87.194 58.0945C87.3003 58.2483 87.3689 58.4209 87.4006 58.6128C87.4273 58.7765 87.4401 58.9453 87.4445 59.1175H87.4475L87.4477 59.2004L87.4478 59.2043V59.565L87.4475 60.2072L87.4478 62.258C87.2903 62.2881 87.0998 62.3126 86.8753 62.3313C86.6513 62.3502 86.3896 62.3594 86.0907 62.3594C85.8468 62.3594 85.6283 62.3387 85.4357 62.2973C85.2429 62.2562 85.0775 62.1905 84.94 62.1004C84.8024 62.0102 84.6961 61.8901 84.6217 61.7394C84.5467 61.5892 84.5095 61.4056 84.5095 61.1875C84.5095 60.9394 84.5644 60.7407 84.6746 60.5903C84.7845 60.4401 84.9261 60.3216 85.0994 60.2352C85.2724 60.1489 85.4611 60.0927 85.6658 60.0661C85.8702 60.0401 86.0673 60.0271 86.2559 60.0271C86.4038 60.0271 86.5357 60.0316 86.6558 60.0401V59.4163C86.646 59.4155 86.6374 59.4138 86.6276 59.4127C86.5055 59.4012 86.3896 59.3956 86.2794 59.3956C85.9095 59.3956 85.5674 59.4296 85.2529 59.4973C84.9382 59.565 84.6667 59.672 84.4385 59.8183C84.2101 59.965 84.0332 60.1507 83.9073 60.3763C83.7817 60.6015 83.7187 60.8718 83.7187 61.1875C83.7187 61.5182 83.7759 61.7979 83.8896 62.0268C84.0039 62.2562 84.1611 62.4439 84.3616 62.5905C84.5625 62.7369 84.7986 62.8439 85.0701 62.9116C85.3415 62.979 85.6381 63.013 85.961 63.013ZM118.551 64.9734V62.5509C118.685 62.6487 118.899 62.752 119.194 62.861C119.489 62.9696 119.838 63.0243 120.238 63.0243C120.679 63.0243 121.07 62.9491 121.412 62.7989C121.755 62.6487 122.044 62.4403 122.28 62.1734C122.516 61.9068 122.695 61.5877 122.817 61.2156C122.939 60.8437 123 60.4363 123 59.9931C123 59.5198 122.927 59.0955 122.781 58.7198C122.636 58.3443 122.431 58.025 122.168 57.7619C121.904 57.4991 121.589 57.2983 121.224 57.1591C120.858 57.0201 120.451 56.9504 120.002 56.9504C119.459 56.9504 119.011 56.9844 118.657 57.0521C118.303 57.1195 118.012 57.1911 117.784 57.2661V64.9734H118.551ZM90.2501 62.8891V57.7844C90.3132 57.7545 90.445 57.717 90.6456 57.6717C90.8461 57.6268 91.1115 57.6041 91.4423 57.6041C91.7567 57.6041 92.0103 57.6212 92.2033 57.6549C92.3959 57.6889 92.5236 57.7205 92.5866 57.7504L92.74 57.1195C92.6534 57.082 92.4983 57.0447 92.274 57.0069C92.0498 56.9693 91.8119 56.9504 91.5599 56.9504C91.0645 56.9504 90.6434 56.9939 90.2971 57.0802C89.951 57.1665 89.6796 57.2514 89.4832 57.3338V62.8891H90.2501ZM78.4174 64.9734V62.5509C78.5509 62.6487 78.7654 62.752 79.0603 62.861C79.3555 62.9696 79.7035 63.0243 80.1047 63.0243C80.5453 63.0243 80.9367 62.9491 81.2789 62.7989C81.6213 62.6487 81.9104 62.4403 82.1463 62.1734C82.3824 61.9068 82.5612 61.5877 82.6831 61.2156C82.8053 60.8437 82.8662 60.4363 82.8662 59.9931C82.8662 59.5198 82.7933 59.0955 82.648 58.7198C82.5022 58.3443 82.2977 58.025 82.0344 57.7619C81.7706 57.4991 81.4561 57.2983 81.0903 57.1591C80.7241 57.0201 80.3173 56.9504 79.8688 56.9504C79.326 56.9504 78.8775 56.9844 78.5235 57.0521C78.1695 57.1195 77.8785 57.1911 77.6503 57.2661V64.9734H78.4174ZM100.374 63.0243C101.089 63.0243 101.654 62.8891 102.067 62.6186C102.48 62.3481 102.686 61.9502 102.686 61.424C102.686 61.1463 102.635 60.9155 102.533 60.731C102.43 60.5469 102.297 60.3895 102.132 60.258C101.966 60.1264 101.775 60.0138 101.56 59.9203C101.343 59.827 101.117 59.7354 100.881 59.6457C100.653 59.5558 100.45 59.4738 100.273 59.3987C100.096 59.3241 99.9467 59.2434 99.8246 59.1571C99.7025 59.0702 99.6102 58.9706 99.5477 58.8575C99.484 58.7445 99.453 58.6092 99.453 58.4508C99.453 58.442 99.4539 57.4004 99.4545 57.1097L99.4548 57.0352H98.6789C98.6773 57.0645 98.6747 58.2379 98.6742 58.4758L98.6742 58.517C98.6742 58.7647 98.7212 58.9752 98.8159 59.1478C98.9106 59.3208 99.0356 59.4692 99.1934 59.5931C99.3506 59.717 99.5316 59.8258 99.7359 59.9198C99.9407 60.0138 100.157 60.1057 100.386 60.1959C100.668 60.3085 100.907 60.4061 101.099 60.4889C101.292 60.5714 101.447 60.6579 101.565 60.7481C101.684 60.8383 101.768 60.9394 101.819 61.0523C101.87 61.165 101.896 61.3003 101.896 61.458C101.896 61.7885 101.752 62.0232 101.465 62.1622C101.178 62.3014 100.814 62.3706 100.374 62.3706C100.129 62.3706 99.9151 62.3558 99.7305 62.3256C99.5453 62.2958 99.3863 62.2597 99.2523 62.2186C99.1184 62.1775 99.0124 62.1394 98.9338 62.106C98.8552 62.072 98.804 62.0477 98.7801 62.0327L98.5795 62.6973C98.6742 62.7428 98.8629 62.8084 99.1464 62.8945C99.4292 62.9811 99.8383 63.0243 100.374 63.0243ZM105.671 62.8891C105.789 62.6275 105.913 62.3336 106.043 62.0066C106.173 61.6799 106.307 61.3307 106.445 60.9591C106.583 60.5872 106.717 60.1964 106.846 59.7862C106.976 59.3765 107.099 58.957 107.216 58.528C107.334 58.9561 107.458 59.3744 107.588 59.7836C107.717 60.1926 107.851 60.5829 107.99 60.9542C108.129 61.3259 108.263 61.6748 108.394 62.0012C108.525 62.3277 108.651 62.6237 108.77 62.8891H109.481C109.883 62.0409 110.253 61.1441 110.588 60.1982C110.924 59.2526 111.234 58.2074 111.518 57.0631H110.761C110.675 57.462 110.567 57.8927 110.436 58.3553C110.307 58.8179 110.166 59.2766 110.017 59.7305C109.866 60.1847 109.716 60.6161 109.566 61.025C109.416 61.4342 109.274 61.7811 109.14 62.0664C108.982 61.6906 108.826 61.2886 108.673 60.86C108.518 60.4316 108.373 59.9977 108.236 59.5586C108.099 59.119 107.973 58.6873 107.86 58.2631C107.746 57.8386 107.654 57.4388 107.584 57.0631H106.923C106.83 57.4383 106.724 57.838 106.607 58.2628C106.489 58.6876 106.364 59.1177 106.231 59.5535C106.098 59.9895 105.956 60.422 105.805 60.8508C105.654 61.2799 105.502 61.6812 105.352 62.0549C105.218 61.7696 105.074 61.4237 104.92 61.0176C104.766 60.6117 104.614 60.1816 104.464 59.7272C104.314 59.273 104.173 58.8151 104.043 58.353C103.913 57.8915 103.804 57.4615 103.717 57.0631H102.903C103.185 58.2053 103.493 59.25 103.828 60.1966C104.162 61.143 104.531 62.0406 104.934 62.8891H105.671ZM120.167 62.3594C119.986 62.3594 119.814 62.3422 119.649 62.3088C119.483 62.2751 119.33 62.2317 119.188 62.179C119.046 62.1267 118.922 62.0705 118.816 62.0102C118.71 61.9502 118.622 61.8937 118.551 61.8411V57.7732C118.669 57.7356 118.844 57.6999 119.076 57.6659C119.308 57.6322 119.613 57.6153 119.991 57.6153C120.652 57.6153 121.182 57.8202 121.583 58.2296C121.985 58.6391 122.185 59.2268 122.185 59.9931C122.185 60.316 122.15 60.6224 122.079 60.9113C122.009 61.2007 121.894 61.4521 121.737 61.6664C121.58 61.8804 121.373 62.0495 121.118 62.1734C120.862 62.2973 120.546 62.3594 120.167 62.3594ZM80.034 62.3594C79.8528 62.3594 79.68 62.3422 79.5148 62.3088C79.3495 62.2751 79.1962 62.2317 79.0545 62.179C78.9128 62.1267 78.7889 62.0705 78.6828 62.0102C78.5768 61.9502 78.4881 61.8937 78.4174 61.8411V57.7732C78.5351 57.7356 78.7105 57.6999 78.9424 57.6659C79.1745 57.6322 79.4795 57.6153 79.8568 57.6153C80.5178 57.6153 81.0489 57.8202 81.4499 58.2296C81.8513 58.6391 82.0521 59.2268 82.0521 59.9931C82.0521 60.316 82.0167 60.6224 81.9458 60.9113C81.8751 61.2007 81.7609 61.4521 81.6036 61.6664C81.4459 61.8804 81.2396 62.0495 80.984 62.1734C80.7281 62.2973 80.4115 62.3594 80.034 62.3594ZM73.1627 63.6763H66.9419L70.0523 57.7602L73.1627 63.6763Z" fill="#0058D4"/>
<path fill-rule="evenodd" clip-rule="evenodd" d="M123.843 18.1586H122.529V25.3815H123.843V18.1586Z" fill="#2B71FF"/>
<path fill-rule="evenodd" clip-rule="evenodd" d="M135.498 21.1837C136.854 21.5015 137.636 21.9509 137.823 22.8386C137.856 22.9862 137.87 23.137 137.868 23.2879C137.868 24.6359 136.92 25.4908 135.377 25.4908C134.2 25.481 133.064 25.058 132.17 24.2962L132.953 23.3866C133.658 23.9893 134.496 24.3729 135.41 24.3729C136.325 24.3729 136.578 23.9674 136.578 23.4085C136.578 22.8495 136.281 22.6084 134.914 22.3016C133.35 21.9399 132.446 21.4248 132.446 20.0878C132.446 18.7507 133.383 18.0493 134.837 18.0493C135.85 18.038 136.839 18.3619 137.647 18.9699L136.953 19.9234C136.292 19.4411 135.542 19.1124 134.87 19.1124C134.198 19.1124 133.735 19.4959 133.735 19.9782C133.735 20.4604 134.099 20.8549 135.498 21.1837Z" fill="#2B71FF"/>
<path fill-rule="evenodd" clip-rule="evenodd" d="M147.807 18.1586L146.045 23.4825L144.239 18.1586H143.155L141.349 23.4825L139.587 18.1586H138.197L140.758 25.3815H141.875L143.681 20.2333L145.487 25.3815H146.592L149.153 18.1586H147.807Z" fill="#2B71FF"/>
<path d="M159.399 19.3112H157.567V21.8469H159.399C160.381 21.8469 160.988 21.4737 160.988 20.5406C160.988 19.6076 160.37 19.3112 159.399 19.3112ZM159.355 22.9776H157.567V25.3815H156.275V18.1586H159.509C161.22 18.1586 162.302 19.0258 162.302 20.4858C162.302 22.1104 161.099 22.9776 159.355 22.9776Z" fill="#2B71FF"/>
<path d="M128.648 19.3112H126.782V21.8359H128.659C129.581 21.8359 130.174 21.2981 130.174 20.5626C130.174 19.8271 129.603 19.3112 128.648 19.3112ZM129.987 25.3815L128.385 22.9556H126.782V25.3815H125.487V18.1586H128.758C130.437 18.1586 131.48 19.1575 131.48 20.5626C131.48 21.7481 130.756 22.4616 129.724 22.747L131.513 25.3815H129.987Z" fill="#2B71FF"/>
<path d="M117.708 19.6625L118.755 22.4067C117.959 22.4054 117.173 22.5778 116.451 22.9117L117.708 19.6625ZM113.982 25.3815H115.338C115.338 25.3815 116.319 23.3069 119.196 23.5374L119.968 25.3815H121.323L118.325 18.1586H117.058L113.982 25.3815Z" fill="#2B71FF"/>
<path d="M153.043 22.9117C152.322 22.5784 151.537 22.4061 150.743 22.4067L151.788 19.6625L153.043 22.9117ZM152.438 18.1586H151.172L148.167 25.3815H149.521L150.303 23.5374C153.164 23.3069 154.144 25.3815 154.144 25.3815H155.508L152.438 18.1586Z" fill="#2B71FF"/>
<path fill-rule="evenodd" clip-rule="evenodd" d="M108.148 25.0531L104.384 28.774L102.519 26.93C104.53 26.8086 106.473 26.1609 108.148 25.0531Z" fill="#2B71FF"/>
<path d="M111.67 21.2729L111.207 20.8108L104.395 14L97.5833 20.8108L97 21.3939L97.2091 21.5809C97.4512 21.779 97.6933 21.966 97.9464 22.1421C99.7953 23.4364 101.99 24.1453 104.247 24.1766C106.504 24.208 108.718 23.5605 110.602 22.3181C110.866 22.1421 111.13 21.944 111.383 21.746C111.637 21.5479 111.659 21.5149 111.791 21.3939L111.67 21.2729ZM106.189 22.9783C104.157 21.7309 101.817 21.0756 99.4321 21.0858C102.546 19.7325 106.354 19.5454 109.854 21.5589C108.736 22.2648 107.491 22.7469 106.189 22.9783Z" fill="#2B71FF"/>
<path d="M130.578 87.61H131.874L134.61 94H133.116L132.549 92.65H129.903L129.336 94H127.842L130.578 87.61ZM130.416 91.408H132.027L131.226 89.491L130.416 91.408ZM136.657 94.099C136.099 94.099 135.676 93.913 135.388 93.541C135.1 93.169 134.956 92.677 134.956 92.065V89.5H136.315V91.831C136.315 92.161 136.366 92.416 136.468 92.596C136.576 92.776 136.756 92.866 137.008 92.866C137.266 92.866 137.47 92.773 137.62 92.587C137.776 92.401 137.854 92.101 137.854 91.687V89.5H139.213V94H137.854V93.541C137.746 93.697 137.593 93.829 137.395 93.937C137.197 94.045 136.951 94.099 136.657 94.099ZM142.622 94.054C142.37 94.054 142.133 94.021 141.911 93.955C141.695 93.883 141.506 93.778 141.344 93.64C141.182 93.496 141.053 93.319 140.957 93.109C140.861 92.893 140.813 92.641 140.813 92.353V90.679H139.913V89.5H140.813V88.249H142.172V89.5H143.432V90.679H142.172V92.074C142.172 92.344 142.232 92.539 142.352 92.659C142.472 92.779 142.667 92.839 142.937 92.839C143.039 92.839 143.129 92.833 143.207 92.821C143.285 92.809 143.36 92.788 143.432 92.758V93.964C143.33 93.994 143.213 94.015 143.081 94.027C142.955 94.045 142.802 94.054 142.622 94.054ZM146.317 94.099C145.993 94.099 145.687 94.039 145.399 93.919C145.111 93.799 144.859 93.634 144.643 93.424C144.433 93.208 144.265 92.959 144.139 92.677C144.013 92.389 143.95 92.08 143.95 91.75C143.95 91.42 144.013 91.114 144.139 90.832C144.265 90.544 144.433 90.295 144.643 90.085C144.859 89.869 145.111 89.701 145.399 89.581C145.687 89.461 145.993 89.401 146.317 89.401C146.641 89.401 146.947 89.461 147.235 89.581C147.523 89.701 147.772 89.869 147.982 90.085C148.198 90.295 148.369 90.544 148.495 90.832C148.621 91.114 148.684 91.42 148.684 91.75C148.684 92.08 148.621 92.389 148.495 92.677C148.369 92.959 148.198 93.208 147.982 93.424C147.772 93.634 147.523 93.799 147.235 93.919C146.947 94.039 146.641 94.099 146.317 94.099ZM146.317 92.83C146.605 92.83 146.842 92.731 147.028 92.533C147.22 92.335 147.316 92.074 147.316 91.75C147.316 91.426 147.22 91.165 147.028 90.967C146.842 90.769 146.605 90.67 146.317 90.67C146.029 90.67 145.789 90.769 145.597 90.967C145.411 91.165 145.318 91.426 145.318 91.75C145.318 92.074 145.411 92.335 145.597 92.533C145.789 92.731 146.029 92.83 146.317 92.83ZM155.154 91.669C155.154 91.339 155.103 91.084 155.001 90.904C154.899 90.724 154.734 90.634 154.506 90.634C154.272 90.634 154.08 90.724 153.93 90.904C153.786 91.084 153.708 91.369 153.696 91.759V94H152.337V91.669C152.337 91.339 152.286 91.084 152.184 90.904C152.082 90.724 151.917 90.634 151.689 90.634C151.449 90.634 151.254 90.727 151.104 90.913C150.954 91.099 150.879 91.399 150.879 91.813V94H149.52V89.5H150.879V89.959C150.999 89.803 151.152 89.671 151.338 89.563C151.53 89.455 151.761 89.401 152.031 89.401C152.355 89.401 152.631 89.47 152.859 89.608C153.093 89.746 153.279 89.941 153.417 90.193C153.489 90.055 153.579 89.938 153.687 89.842C153.795 89.74 153.912 89.656 154.038 89.59C154.164 89.524 154.293 89.476 154.425 89.446C154.557 89.416 154.683 89.401 154.803 89.401C155.355 89.401 155.778 89.584 156.072 89.95C156.366 90.31 156.513 90.805 156.513 91.435V94H155.154V91.669ZM159.389 94.099C159.095 94.099 158.819 94.036 158.561 93.91C158.309 93.784 158.09 93.616 157.904 93.406C157.718 93.19 157.571 92.941 157.463 92.659C157.355 92.371 157.301 92.068 157.301 91.75C157.301 91.432 157.355 91.132 157.463 90.85C157.571 90.562 157.718 90.313 157.904 90.103C158.09 89.887 158.309 89.716 158.561 89.59C158.819 89.464 159.095 89.401 159.389 89.401C159.539 89.401 159.677 89.419 159.803 89.455C159.935 89.485 160.052 89.527 160.154 89.581C160.262 89.635 160.352 89.695 160.424 89.761C160.502 89.827 160.565 89.89 160.613 89.95V89.5H161.972V94H160.613V93.55C160.565 93.61 160.502 93.673 160.424 93.739C160.352 93.805 160.262 93.865 160.154 93.919C160.052 93.973 159.935 94.015 159.803 94.045C159.677 94.081 159.539 94.099 159.389 94.099ZM159.695 92.866C160.001 92.866 160.247 92.761 160.433 92.551C160.625 92.341 160.721 92.074 160.721 91.75C160.721 91.426 160.625 91.159 160.433 90.949C160.247 90.739 160.001 90.634 159.695 90.634C159.389 90.634 159.14 90.739 158.948 90.949C158.762 91.159 158.669 91.426 158.669 91.75C158.669 92.074 158.762 92.341 158.948 92.551C159.14 92.761 159.389 92.866 159.695 92.866ZM165.386 94.054C165.134 94.054 164.897 94.021 164.675 93.955C164.459 93.883 164.27 93.778 164.108 93.64C163.946 93.496 163.817 93.319 163.721 93.109C163.625 92.893 163.577 92.641 163.577 92.353V90.679H162.677V89.5H163.577V88.249H164.936V89.5H166.196V90.679H164.936V92.074C164.936 92.344 164.996 92.539 165.116 92.659C165.236 92.779 165.431 92.839 165.701 92.839C165.803 92.839 165.893 92.833 165.971 92.821C166.049 92.809 166.124 92.788 166.196 92.758V93.964C166.094 93.994 165.977 94.015 165.845 94.027C165.719 94.045 165.566 94.054 165.386 94.054ZM169.117 94.099C168.787 94.099 168.475 94.045 168.181 93.937C167.893 93.829 167.641 93.673 167.425 93.469C167.209 93.265 167.038 93.019 166.912 92.731C166.786 92.437 166.723 92.11 166.723 91.75C166.723 91.414 166.78 91.105 166.894 90.823C167.014 90.535 167.179 90.286 167.389 90.076C167.605 89.866 167.857 89.701 168.145 89.581C168.433 89.461 168.748 89.401 169.09 89.401C169.384 89.401 169.666 89.449 169.936 89.545C170.212 89.635 170.452 89.773 170.656 89.959C170.86 90.139 171.022 90.367 171.142 90.643C171.268 90.913 171.331 91.231 171.331 91.597C171.331 91.657 171.328 91.726 171.322 91.804C171.322 91.876 171.316 91.966 171.304 92.074H168.037C168.079 92.344 168.208 92.545 168.424 92.677C168.64 92.803 168.877 92.866 169.135 92.866C169.399 92.866 169.624 92.815 169.81 92.713C170.002 92.605 170.14 92.485 170.224 92.353L171.232 93.109C171.022 93.409 170.734 93.649 170.368 93.829C170.008 94.009 169.591 94.099 169.117 94.099ZM169.981 91.183C169.921 90.943 169.801 90.772 169.621 90.67C169.441 90.562 169.252 90.508 169.054 90.508C168.952 90.508 168.85 90.52 168.748 90.544C168.646 90.568 168.55 90.607 168.46 90.661C168.37 90.715 168.289 90.784 168.217 90.868C168.151 90.952 168.103 91.057 168.073 91.183H169.981ZM174.005 94.099C173.711 94.099 173.435 94.036 173.177 93.91C172.925 93.784 172.706 93.616 172.52 93.406C172.334 93.19 172.187 92.941 172.079 92.659C171.971 92.371 171.917 92.068 171.917 91.75C171.917 91.432 171.971 91.132 172.079 90.85C172.187 90.562 172.334 90.313 172.52 90.103C172.706 89.887 172.925 89.716 173.177 89.59C173.435 89.464 173.711 89.401 174.005 89.401C174.155 89.401 174.293 89.419 174.419 89.455C174.551 89.485 174.668 89.527 174.77 89.581C174.878 89.635 174.968 89.695 175.04 89.761C175.118 89.827 175.181 89.89 175.229 89.95V87.25H176.588V94H175.229V93.55C175.181 93.61 175.118 93.673 175.04 93.739C174.968 93.805 174.878 93.865 174.77 93.919C174.668 93.973 174.551 94.015 174.419 94.045C174.293 94.081 174.155 94.099 174.005 94.099ZM174.311 92.866C174.617 92.866 174.863 92.761 175.049 92.551C175.241 92.341 175.337 92.074 175.337 91.75C175.337 91.426 175.241 91.159 175.049 90.949C174.863 90.739 174.617 90.634 174.311 90.634C174.005 90.634 173.756 90.739 173.564 90.949C173.378 91.159 173.285 91.426 173.285 91.75C173.285 92.074 173.378 92.341 173.564 92.551C173.756 92.761 174.005 92.866 174.311 92.866ZM122.558 98.61L124.547 101.364L126.554 98.61H127.859V105H126.419V101.067L124.556 103.641L122.684 101.058V105H121.253V98.61H122.558ZM130.794 105.099C130.5 105.099 130.224 105.036 129.966 104.91C129.714 104.784 129.495 104.616 129.309 104.406C129.123 104.19 128.976 103.941 128.868 103.659C128.76 103.371 128.706 103.068 128.706 102.75C128.706 102.432 128.76 102.132 128.868 101.85C128.976 101.562 129.123 101.313 129.309 101.103C129.495 100.887 129.714 100.716 129.966 100.59C130.224 100.464 130.5 100.401 130.794 100.401C130.944 100.401 131.082 100.419 131.208 100.455C131.34 100.485 131.457 100.527 131.559 100.581C131.667 100.635 131.757 100.695 131.829 100.761C131.907 100.827 131.97 100.89 132.018 100.95V100.5H133.377V105H132.018V104.55C131.97 104.61 131.907 104.673 131.829 104.739C131.757 104.805 131.667 104.865 131.559 104.919C131.457 104.973 131.34 105.015 131.208 105.045C131.082 105.081 130.944 105.099 130.794 105.099ZM131.1 103.866C131.406 103.866 131.652 103.761 131.838 103.551C132.03 103.341 132.126 103.074 132.126 102.75C132.126 102.426 132.03 102.159 131.838 101.949C131.652 101.739 131.406 101.634 131.1 101.634C130.794 101.634 130.545 101.739 130.353 101.949C130.167 102.159 130.074 102.426 130.074 102.75C130.074 103.074 130.167 103.341 130.353 103.551C130.545 103.761 130.794 103.866 131.1 103.866ZM134.496 100.5H135.855V101.175C135.927 100.977 136.059 100.806 136.25 100.662C136.449 100.518 136.674 100.446 136.926 100.446C136.992 100.446 137.061 100.449 137.133 100.455C137.205 100.461 137.283 100.476 137.367 100.5V101.877C137.265 101.841 137.166 101.814 137.07 101.796C136.974 101.778 136.872 101.769 136.764 101.769C136.47 101.769 136.245 101.871 136.089 102.075C135.933 102.279 135.855 102.543 135.855 102.867V105H134.496V100.5ZM139.484 102.993V105H138.125V98.25H139.484V102.111L140.798 100.5H142.409L140.753 102.534L142.805 105H141.158L139.484 102.993ZM145.013 105.099C144.683 105.099 144.371 105.045 144.077 104.937C143.789 104.829 143.537 104.673 143.321 104.469C143.105 104.265 142.934 104.019 142.808 103.731C142.682 103.437 142.619 103.11 142.619 102.75C142.619 102.414 142.676 102.105 142.79 101.823C142.91 101.535 143.075 101.286 143.285 101.076C143.501 100.866 143.753 100.701 144.041 100.581C144.329 100.461 144.644 100.401 144.986 100.401C145.28 100.401 145.562 100.449 145.832 100.545C146.108 100.635 146.348 100.773 146.552 100.959C146.756 101.139 146.918 101.367 147.038 101.643C147.164 101.913 147.227 102.231 147.227 102.597C147.227 102.657 147.224 102.726 147.218 102.804C147.218 102.876 147.212 102.966 147.2 103.074H143.933C143.975 103.344 144.104 103.545 144.32 103.677C144.536 103.803 144.773 103.866 145.031 103.866C145.295 103.866 145.52 103.815 145.706 103.713C145.898 103.605 146.036 103.485 146.12 103.353L147.128 104.109C146.918 104.409 146.63 104.649 146.264 104.829C145.904 105.009 145.487 105.099 145.013 105.099ZM145.877 102.183C145.817 101.943 145.697 101.772 145.517 101.67C145.337 101.562 145.148 101.508 144.95 101.508C144.848 101.508 144.746 101.52 144.644 101.544C144.542 101.568 144.446 101.607 144.356 101.661C144.266 101.715 144.185 101.784 144.113 101.868C144.047 101.952 143.999 102.057 143.969 102.183H145.877ZM150.291 105.054C150.039 105.054 149.802 105.021 149.58 104.955C149.364 104.883 149.175 104.778 149.013 104.64C148.851 104.496 148.722 104.319 148.625 104.109C148.53 103.893 148.482 103.641 148.482 103.353V101.679H147.582V100.5H148.482V99.249H149.841V100.5H151.101V101.679H149.841V103.074C149.841 103.344 149.901 103.539 150.021 103.659C150.141 103.779 150.336 103.839 150.606 103.839C150.708 103.839 150.798 103.833 150.876 103.821C150.954 103.809 151.029 103.788 151.101 103.758V104.964C150.999 104.994 150.882 105.015 150.75 105.027C150.624 105.045 150.471 105.054 150.291 105.054ZM155.403 98.61L157.392 101.364L159.399 98.61H160.704V105H159.264V101.067L157.401 103.641L155.529 101.058V105H154.098V98.61H155.403ZM163.639 105.099C163.345 105.099 163.069 105.036 162.811 104.91C162.559 104.784 162.34 104.616 162.154 104.406C161.968 104.19 161.821 103.941 161.713 103.659C161.605 103.371 161.551 103.068 161.551 102.75C161.551 102.432 161.605 102.132 161.713 101.85C161.821 101.562 161.968 101.313 162.154 101.103C162.34 100.887 162.559 100.716 162.811 100.59C163.069 100.464 163.345 100.401 163.639 100.401C163.789 100.401 163.927 100.419 164.053 100.455C164.185 100.485 164.302 100.527 164.404 100.581C164.512 100.635 164.602 100.695 164.674 100.761C164.752 100.827 164.815 100.89 164.863 100.95V100.5H166.222V105H164.863V104.55C164.815 104.61 164.752 104.673 164.674 104.739C164.602 104.805 164.512 104.865 164.404 104.919C164.302 104.973 164.185 105.015 164.053 105.045C163.927 105.081 163.789 105.099 163.639 105.099ZM163.945 103.866C164.251 103.866 164.497 103.761 164.683 103.551C164.875 103.341 164.971 103.074 164.971 102.75C164.971 102.426 164.875 102.159 164.683 101.949C164.497 101.739 164.251 101.634 163.945 101.634C163.639 101.634 163.39 101.739 163.198 101.949C163.012 102.159 162.919 102.426 162.919 102.75C162.919 103.074 163.012 103.341 163.198 103.551C163.39 103.761 163.639 103.866 163.945 103.866ZM168.699 102.993V105H167.34V98.25H168.699V102.111L170.013 100.5H171.624L169.968 102.534L172.02 105H170.373L168.699 102.993ZM174.228 105.099C173.898 105.099 173.586 105.045 173.292 104.937C173.004 104.829 172.752 104.673 172.536 104.469C172.32 104.265 172.149 104.019 172.023 103.731C171.897 103.437 171.834 103.11 171.834 102.75C171.834 102.414 171.891 102.105 172.005 101.823C172.125 101.535 172.29 101.286 172.5 101.076C172.716 100.866 172.968 100.701 173.256 100.581C173.544 100.461 173.859 100.401 174.201 100.401C174.495 100.401 174.777 100.449 175.047 100.545C175.323 100.635 175.563 100.773 175.767 100.959C175.971 101.139 176.133 101.367 176.253 101.643C176.379 101.913 176.442 102.231 176.442 102.597C176.442 102.657 176.439 102.726 176.433 102.804C176.433 102.876 176.427 102.966 176.415 103.074H173.148C173.19 103.344 173.319 103.545 173.535 103.677C173.751 103.803 173.988 103.866 174.246 103.866C174.51 103.866 174.735 103.815 174.921 103.713C175.113 103.605 175.251 103.485 175.335 103.353L176.343 104.109C176.133 104.409 175.845 104.649 175.479 104.829C175.119 105.009 174.702 105.099 174.228 105.099ZM175.092 102.183C175.032 101.943 174.912 101.772 174.732 101.67C174.552 101.562 174.363 101.508 174.165 101.508C174.063 101.508 173.961 101.52 173.859 101.544C173.757 101.568 173.661 101.607 173.571 101.661C173.481 101.715 173.4 101.784 173.328 101.868C173.262 101.952 173.214 102.057 173.184 102.183H175.092ZM177.298 100.5H178.657V101.175C178.729 100.977 178.861 100.806 179.053 100.662C179.251 100.518 179.476 100.446 179.728 100.446C179.794 100.446 179.863 100.449 179.935 100.455C180.007 100.461 180.085 100.476 180.169 100.5V101.877C180.067 101.841 179.968 101.814 179.872 101.796C179.776 101.778 179.674 101.769 179.566 101.769C179.272 101.769 179.047 101.871 178.891 102.075C178.735 102.279 178.657 102.543 178.657 102.867V105H177.298V100.5ZM182.379 105.099C181.983 105.099 181.623 105.033 181.299 104.901C180.981 104.769 180.717 104.565 180.507 104.289L181.407 103.47C181.509 103.62 181.644 103.737 181.812 103.821C181.98 103.899 182.169 103.938 182.379 103.938C182.481 103.938 182.574 103.92 182.658 103.884C182.748 103.842 182.793 103.776 182.793 103.686C182.793 103.608 182.76 103.545 182.694 103.497C182.628 103.449 182.478 103.395 182.244 103.335L181.947 103.263C181.515 103.161 181.191 102.981 180.975 102.723C180.759 102.459 180.657 102.147 180.669 101.787C180.675 101.577 180.72 101.388 180.804 101.22C180.894 101.046 181.014 100.899 181.164 100.779C181.32 100.659 181.503 100.566 181.713 100.5C181.923 100.434 182.151 100.401 182.397 100.401C183.093 100.401 183.621 100.65 183.981 101.148L183.099 101.877C182.997 101.745 182.886 101.652 182.766 101.598C182.646 101.544 182.52 101.517 182.388 101.517C182.304 101.517 182.22 101.535 182.136 101.571C182.058 101.607 182.019 101.667 182.019 101.751C182.019 101.799 182.037 101.853 182.073 101.913C182.115 101.973 182.223 102.027 182.397 102.075L182.811 102.183C183.219 102.291 183.54 102.456 183.774 102.678C184.014 102.894 184.134 103.203 184.134 103.605C184.134 103.821 184.089 104.022 183.999 104.208C183.909 104.388 183.783 104.544 183.621 104.676C183.465 104.808 183.279 104.913 183.063 104.991C182.853 105.063 182.625 105.099 182.379 105.099Z" fill="#6A737D"/>
<g filter="url(#filter1_d)">
<path d="M25.8647 26.5163C26.4832 25.6917 27.3034 25.2794 28.3252 25.2794C29.3471 25.2794 30.1628 25.6917 30.7723 26.5163C31.3908 27.332 31.7 28.5511 31.7 30.1735C31.7 31.7959 31.3908 33.0149 30.7723 33.8306C30.1628 34.6463 29.3471 35.0542 28.3252 35.0542C27.3034 35.0542 26.4832 34.6463 25.8647 33.8306C25.2552 33.0149 24.9504 31.7959 24.9504 30.1735C24.9504 28.5511 25.2552 27.332 25.8647 26.5163ZM25.8244 30.1735C25.8244 31.4822 26.0261 32.4861 26.4294 33.1853L29.6563 26.5029C29.2978 26.2071 28.8541 26.0592 28.3252 26.0592C27.5095 26.0592 26.8866 26.4133 26.4563 27.1214C26.035 27.8205 25.8244 28.8379 25.8244 30.1735ZM28.3252 34.2743C29.1409 34.2743 29.7594 33.9247 30.1807 33.2256C30.611 32.5264 30.8261 31.5091 30.8261 30.1735C30.8261 28.8648 30.6244 27.8654 30.221 27.1752L26.9941 33.8441C27.3616 34.1309 27.8053 34.2743 28.3252 34.2743ZM38.1791 34.8794L36.3775 31.9079H35.8934L34.0245 34.8794H33.0833L35.2615 31.4374L33.3119 28.1567H34.2262L35.8934 30.9668H36.3775L38.0716 28.1567H38.9859L37.0094 31.397L39.1741 34.8794H38.1791ZM48.7683 25.2794L52.2104 34.8794H51.2557L50.1667 31.7735H45.7431L44.654 34.8794H43.7263L47.1549 25.2794H48.7683ZM47.6927 26.2205L46.0255 30.9668H49.8843L48.2171 26.2205H47.6927ZM53.7546 25.2794H57.694C58.7069 25.2794 59.4867 25.5259 60.0335 26.0189C60.5803 26.5119 60.8537 27.1976 60.8537 28.076C60.8537 28.9544 60.5803 29.6401 60.0335 30.1331C59.4867 30.6261 58.7069 30.8726 57.694 30.8726H54.642V34.8794H53.7546V25.2794ZM54.642 30.0659H57.5461C59.1596 30.0659 59.9663 29.4026 59.9663 28.076C59.9663 26.7494 59.1596 26.0861 57.5461 26.0861H54.642V30.0659ZM62.935 25.2794H63.8224V34.8794H62.935V25.2794Z" fill="#24292E"/>
</g>
<defs>
<filter id="filter0_d" x="188" y="62" width="95.0982" height="51.5408" filterUnits="userSpaceOnUse" color-interpolation-filters="sRGB">
<feFlood flood-opacity="0" result="BackgroundImageFix"/>
<feColorMatrix in="SourceAlpha" type="matrix" values="0 0 0 0 0 0 0 0 0 0 0 0 0 0 0 0 0 0 127 0"/>
<feOffset dy="4"/>
<feGaussianBlur stdDeviation="10"/>
<feColorMatrix type="matrix" values="0 0 0 0 0.156863 0 0 0 0 0.231373 0 0 0 0 0.298039 0 0 0 0.25 0"/>
<feBlend mode="normal" in2="BackgroundImageFix" result="effect1_dropShadow"/>
<feBlend mode="normal" in="SourceGraphic" in2="effect1_dropShadow" result="shape"/>
</filter>
<filter id="filter1_d" x="0" y="8" width="88.7729" height="52.3334" filterUnits="userSpaceOnUse" color-interpolation-filters="sRGB">
<feFlood flood-opacity="0" result="BackgroundImageFix"/>
<feColorMatrix in="SourceAlpha" type="matrix" values="0 0 0 0 0 0 0 0 0 0 0 0 0 0 0 0 0 0 127 0"/>
<feOffset dy="4"/>
<feGaussianBlur stdDeviation="10"/>
<feColorMatrix type="matrix" values="0 0 0 0 0.141176 0 0 0 0 0.160784 0 0 0 0 0.180392 0 0 0 0.25 0"/>
<feBlend mode="normal" in2="BackgroundImageFix" result="effect1_dropShadow"/>
<feBlend mode="normal" in="SourceGraphic" in2="effect1_dropShadow" result="shape"/>
</filter>
</defs>
</svg>
