<svg xmlns="http://www.w3.org/2000/svg" xmlns:xlink="http://www.w3.org/1999/xlink" width="600" height="600" fill="none" xmlns:v="https://vecta.io/nano"><style><![CDATA[.B{stroke-width:.25}.C{stroke-linejoin:round}.D{fill:#fff}.E{fill:#e27625}.F{stroke:#e27625}.G{fill:#6a737d}.H{fill:#f5841f}.I{stroke:#f5841f}.J{fill-rule:evenodd}.K{fill:#f2f4f6}.L{fill:#cc6228}.M{stroke:#cc6228}.N{fill:#e27525}.O{stroke:#e27525}.P{fill-opacity:.602}.Q{fill:#24272a}.R{stroke:#d6d9dc}]]></style><path d="M0 0h600v600H0z" class="K"/><g clip-path="url(#M)"><rect x="120" y="41" width="360" height="519" rx="16" class="D"/><g filter="url(#A)"><path transform="translate(120 41)" d="M0 0h360v58H0z" class="K"/><path d="M460.091 67.349c-1.809 0-2.549-1.221-1.649-2.718.52-.868.21-1.974-.7-2.47l-1.729-.944c-.79-.448-1.809-.181-2.279.572l-.11.181c-.899 1.497-2.379 1.497-3.288 0l-.11-.181c-.45-.753-1.469-1.02-2.259-.572l-1.729.944c-.91.496-1.22 1.611-.7 2.479.91 1.487.17 2.708-1.639 2.708-1.039 0-1.899.81-1.899 1.812v1.678c0 .992.85 1.812 1.899 1.812 1.809 0 2.549 1.221 1.639 2.718-.52.868-.21 1.974.7 2.47l1.729.944c.79.448 1.809.181 2.279-.572l.11-.181c.899-1.497 2.379-1.497 3.288 0l.11.181c.47.753 1.489 1.02 2.279.572l1.729-.944c.91-.496 1.22-1.611.7-2.47-.91-1.497-.17-2.718 1.639-2.718 1.039 0 1.899-.81 1.899-1.812v-1.678c-.01-.992-.86-1.812-1.909-1.812zm-8.096 5.75c-1.789 0-3.248-1.392-3.248-3.099s1.459-3.099 3.248-3.099 3.248 1.392 3.248 3.099-1.459 3.099-3.248 3.099z" class="G"/><path d="M277.018 78.274c-1.28 0-2.446-.251-3.498-.754-1.036-.518-1.874-1.234-2.514-2.149l2.789-2.354c.396.564.899 1.013 1.508 1.349.625.335 1.242.503 1.852.503.594 0 1.066-.122 1.417-.366.366-.259.548-.587.548-.983 0-.411-.175-.769-.525-1.074s-.93-.594-1.737-.869l-1.143-.389c-2.728-.914-4.092-2.476-4.092-4.686 0-1.539.518-2.758 1.555-3.657 1.051-.899 2.4-1.349 4.045-1.349 2.103 0 3.848.747 5.235 2.24l-2.378 2.514c-.746-.899-1.683-1.349-2.811-1.349-.533 0-.998.107-1.394.32-.381.213-.572.518-.572.914 0 .411.183.747.549 1.006.366.244 1.021.533 1.966.868l1.142.412c2.591.93 3.879 2.545 3.863 4.846 0 1.478-.548 2.682-1.645 3.611-1.082.93-2.469 1.394-4.16 1.394zM294.426 78l-1.966-6.034L290.517 78h-3.474l-3.771-11.429h3.703l1.988 7.017 2.172-7.017h2.651l2.171 7.017 1.989-7.017h3.703L297.9 78h-3.474zm13.115.251c-1.478 0-2.735-.587-3.771-1.76-1.021-1.173-1.532-2.575-1.532-4.206s.511-3.032 1.532-4.206c1.036-1.173 2.293-1.76 3.771-1.76 1.31 0 2.347.465 3.109 1.394v-1.143h3.451V78h-3.451v-1.143c-.762.93-1.799 1.394-3.109 1.394zm-1.12-3.931c.488.533 1.12.8 1.897.8s1.402-.267 1.874-.8c.488-.533.732-1.211.732-2.034s-.244-1.501-.732-2.034c-.472-.533-1.097-.8-1.874-.8s-1.409.267-1.897.8c-.472.533-.709 1.212-.709 2.034s.237 1.501.709 2.034zm13.972 8.457h-3.451V66.571h3.451v1.143c.244-.366.648-.686 1.212-.96.563-.29 1.196-.434 1.897-.434 1.478 0 2.727.587 3.748 1.76 1.036 1.173 1.555 2.575 1.555 4.206s-.519 3.032-1.555 4.206c-1.021 1.173-2.27 1.76-3.748 1.76-.701 0-1.334-.137-1.897-.411-.564-.29-.968-.617-1.212-.983v5.92zm.434-8.457c.488.533 1.12.8 1.898.8s1.401-.267 1.874-.8c.487-.533.731-1.211.731-2.034s-.244-1.501-.731-2.034c-.473-.533-1.097-.8-1.874-.8s-1.41.267-1.898.8c-.472.533-.708 1.212-.708 2.034s.236 1.501.708 2.034z" fill="#24292e"/><path d="M167.958 54l-13.134 9.718 2.442-5.727L167.958 54z" fill="#e17726" stroke="#e17726" class="B C"/><path d="M137.663 54l13.017 9.809-2.325-5.818L137.663 54z" class="B C E F"/><path d="M163.229 76.533l-3.494 5.339 7.483 2.06 2.143-7.282-6.132-.117z" class="B C E F"/><path d="M136.273 76.65l2.13 7.282 7.47-2.06-3.481-5.339-6.119.117z" class="B C E F"/><path d="M145.471 67.515l-2.079 3.136 7.405.337-.247-7.969-5.079 4.496z" class="B C E F"/><path d="M160.151 67.515l-5.158-4.587-.169 8.06 7.405-.337-2.078-3.136z" class="B C E F"/><path d="M145.873 81.872l4.482-2.164-3.858-3.006-.624 5.17z" class="B C E F"/><path d="M155.266 79.708l4.469 2.164-.611-5.17-3.858 3.006z" class="B C E F"/><path d="M159.735 81.872l-4.469-2.164.364 2.903-.039 1.231 4.144-1.97z" fill="#d5bfb2" stroke="#d5bfb2" class="B C"/><path d="M145.873 81.872l4.157 1.97-.026-1.231.351-2.903-4.482 2.164z" fill="#d5bfb2" stroke="#d5bfb2" class="B C"/><path d="M150.108 74.784l-3.715-1.088 2.624-1.205 1.091 2.293z" fill="#233447" stroke="#233447" class="B C"/><path d="M155.513 74.784l1.091-2.293 2.637 1.205-3.728 1.088z" fill="#233447" stroke="#233447" class="B C"/><path d="M145.873 81.872l.65-5.339-4.131.117 3.481 5.222z" class="B C L M"/><path d="M159.098 76.534l.637 5.339 3.494-5.222-4.131-.117z" class="B C L M"/><path d="M162.229 70.651l-7.405.337.689 3.797 1.091-2.294 2.637 1.205 2.988-3.045z" class="B C L M"/><path d="M146.393 73.696l2.624-1.205 1.091 2.294.689-3.797-7.405-.337 3.001 3.045z" class="B C L M"/><path d="M143.392 70.651l3.105 6.051-.104-3.006-3.001-3.045z" class="B C N O"/><path d="M159.241 73.696l-.117 3.006 3.105-6.051-2.988 3.045z" class="B C N O"/><path d="M150.797 70.988l-.689 3.797.871 4.483.195-5.909-.377-2.371z" class="B C N O"/><path d="M154.824 70.988l-.364 2.358.182 5.922.871-4.483-.689-3.797z" class="B C N O"/><path d="M155.513 74.784l-.871 4.483.624.441 3.858-3.006.117-3.006-3.728 1.088z" class="B C H I"/><path d="M146.393 73.696l.104 3.006 3.858 3.006.624-.441-.871-4.483-3.715-1.088z" class="B C H I"/><path d="M155.591 83.842l.039-1.231-.338-.285h-4.963l-.325.285.026 1.231-4.157-1.969 1.455 1.192 2.949 2.034h5.054l2.962-2.034 1.442-1.192-4.144 1.969z" fill="#c0ac9d" stroke="#c0ac9d" class="B C"/><path d="M155.266 79.708l-.624-.441h-3.663l-.624.441-.351 2.903.325-.285h4.963l.338.285-.364-2.903z" fill="#161616" stroke="#161616" class="B C"/><path d="M168.517 64.353l1.104-5.364L167.958 54l-12.692 9.394 4.885 4.121 6.898 2.008 1.52-1.775-.663-.48 1.053-.959-.806-.622 1.052-.803-.688-.531z" fill="#763e1a" stroke="#763e1a" class="B C"/><path d="M136 58.989l1.117 5.365-.714.531 1.065.803-.805.622 1.052.959-.663.48 1.52 1.775 6.899-2.008 4.884-4.12L137.663 54 136 58.989z" fill="#763e1a" stroke="#763e1a" class="B C"/><path d="M167.049 69.523l-6.898-2.008 2.078 3.136-3.105 6.051 4.105-.052h6.132l-2.312-7.127z" class="B C H I"/><path d="M145.471 67.515l-6.899 2.008-2.299 7.127h6.119l4.105.052-3.105-6.051 2.079-3.136z" class="B C H I"/><path d="M154.824 70.988l.442-7.593 2-5.403h-8.912l2.001 5.403.442 7.593.169 2.384.013 5.896h3.663l.013-5.896.169-2.384z" class="B C H I"/></g><rect x="136.5" y="115.5" width="327" height="195" rx="7.5" class="D"/><rect x="152" y="139" width="104" height="32" rx="16" class="K"/><path d="M168 167c6.627 0 12-5.373 12-12s-5.373-12-12-12-12 5.373-12 12 5.373 12 12 12z" fill="#627eea"/><g class="D"><path d="M168.374 146v6.653l5.622 2.512-5.622-9.165z" class="P"/><path d="M168.373 146l-5.623 9.165 5.623-2.512V146z"/><path d="M168.374 159.476v4.52l5.626-7.784-5.626 3.264z" class="P"/><path d="M168.373 163.996v-4.521l-5.623-3.263 5.623 7.784z"/><path d="M168.374 158.43l5.622-3.265-5.622-2.511v5.776z" fill-opacity=".2"/><path d="M162.75 155.165l5.623 3.265v-5.776l-5.623 2.511z" class="P"/></g><path d="M191.566 162v-12.78h7.686v2.016h-5.58v3.276h4.5v2.016h-4.5v3.456h5.58V162h-7.686zm12.591 0v-10.764h-3.708v-2.016h9.54v2.016h-3.726V162h-2.106zm7.729 0v-12.78h2.106v5.292h6.318v-5.292h2.106V162h-2.106v-5.49h-6.318V162h-2.106z" class="Q"/><use xlink:href="#O" class="G J"/><path d="M413.909 162v-12.02h-2.86l1.68-2.18h3.38V162h-2.2zm6.594.16c-.466 0-.873-.167-1.22-.5a1.73 1.73 0 0 1-.5-1.24c0-.467.167-.873.5-1.22a1.67 1.67 0 0 1 1.22-.52c.48 0 .887.173 1.22.52.347.347.52.753.52 1.22a1.69 1.69 0 0 1-.52 1.24 1.66 1.66 0 0 1-1.22.5zm12.418-1.48c-.96 1.013-2.193 1.52-3.7 1.52s-2.74-.507-3.7-1.52c-.96-1.027-1.44-2.34-1.44-3.94v-3.72c0-1.6.48-2.907 1.44-3.92.96-1.027 2.193-1.54 3.7-1.54s2.74.513 3.7 1.54c.973 1.013 1.46 2.32 1.46 3.92v3.72c0 1.6-.487 2.913-1.46 3.94zm-3.7-.64c.893 0 1.607-.293 2.14-.88.547-.587.82-1.393.82-2.42v-3.72c0-1.027-.273-1.833-.82-2.42-.533-.587-1.247-.88-2.14-.88-.88 0-1.593.293-2.14.88-.533.587-.8 1.393-.8 2.42v3.72c0 1.027.267 1.833.8 2.42.547.587 1.26.88 2.14.88zm16.219.64c-.96 1.013-2.193 1.52-3.7 1.52s-2.74-.507-3.7-1.52c-.96-1.027-1.44-2.34-1.44-3.94v-3.72c0-1.6.48-2.907 1.44-3.92.96-1.027 2.194-1.54 3.7-1.54s2.74.513 3.7 1.54c.974 1.013 1.46 2.32 1.46 3.92v3.72c0 1.6-.486 2.913-1.46 3.94zm-3.7-.64c.894 0 1.607-.293 2.14-.88.547-.587.82-1.393.82-2.42v-3.72c0-1.027-.273-1.833-.82-2.42-.533-.587-1.246-.88-2.14-.88-.88 0-1.593.293-2.14.88-.533.587-.8 1.393-.8 2.42v3.72c0 1.027.267 1.833.8 2.42.547.587 1.26.88 2.14.88z" class="Q"/><path d="M153.128 189v-8.52h2.796c1.584 0 2.544 1.056 2.544 2.256 0 .852-.372 1.404-.912 1.74.828.3 1.476.9 1.476 2.04 0 1.416-1.128 2.484-2.856 2.484h-3.048zm1.116-1.008h1.98c1.152 0 1.716-.588 1.716-1.44 0-.828-.564-1.452-1.704-1.452h-1.992v2.892zm0-3.852h1.68c.912 0 1.452-.552 1.452-1.32 0-.72-.54-1.332-1.452-1.332h-1.68v2.652zm8.997 4.98c-1.68 0-2.94-1.404-2.94-3.12s1.26-3.12 2.94-3.12c.912 0 1.716.468 2.112 1.044V183h1.032v6h-1.032v-.924c-.396.576-1.2 1.044-2.112 1.044zm.156-.948c1.2 0 2.04-.96 2.04-2.172s-.84-2.172-2.04-2.172c-1.212 0-2.052.96-2.052 2.172s.84 2.172 2.052 2.172zm5.18.828v-9h1.032v9h-1.032zm5.711.12c-1.68 0-2.94-1.404-2.94-3.12s1.26-3.12 2.94-3.12c.912 0 1.716.468 2.112 1.044V183h1.032v6H176.4v-.924c-.396.576-1.2 1.044-2.112 1.044zm.156-.948c1.2 0 2.04-.96 2.04-2.172s-.84-2.172-2.04-2.172c-1.212 0-2.052.96-2.052 2.172s.84 2.172 2.052 2.172zm5.18.828v-6h1.032v.924c.42-.72 1.128-1.044 1.908-1.044 1.344 0 2.268.936 2.268 2.424V189h-1.02v-3.54c0-1.008-.564-1.632-1.416-1.632-.96 0-1.74.792-1.74 2.196V189h-1.032zm9.993.12c-1.824 0-3.144-1.38-3.144-3.12s1.32-3.12 3.144-3.12c1.248 0 2.244.648 2.772 1.608l-.9.504c-.336-.684-1.008-1.152-1.872-1.152-1.248 0-2.1.96-2.1 2.16s.852 2.16 2.1 2.16c.864 0 1.536-.468 1.872-1.152l.9.504c-.528.96-1.524 1.608-2.772 1.608zm6.999 0c-1.872 0-3.108-1.356-3.108-3.12s1.284-3.12 3.12-3.12c1.56 0 2.856 1.092 2.856 3.012l-.012.312h-4.92c.036 1.116.888 1.968 2.076 1.968.924 0 1.5-.408 1.872-1.044l.816.564c-.54.876-1.452 1.428-2.7 1.428zm-1.992-3.756h3.804a1.8 1.8 0 0 0-1.836-1.572c-.9 0-1.776.576-1.968 1.572zm7.247-.708c-.492 0-.888-.408-.888-.9 0-.48.396-.9.888-.9s.888.42.888.9c0 .492-.396.9-.888.9zm0 4.44c-.492 0-.888-.408-.888-.9 0-.48.396-.9.888-.9s.888.42.888.9c0 .492-.396.9-.888.9zm8.607.024c-1.68 0-3.036-1.14-3.036-2.712h1.044c.06 1.032.924 1.704 1.992 1.704.948 0 1.728-.54 1.728-1.536 0-1.056-.756-1.536-1.86-1.536h-.636v-.948h.684c.9 0 1.56-.564 1.572-1.38 0-.804-.672-1.368-1.536-1.368-.96 0-1.788.576-1.788 1.68h-1.056c0-1.668 1.272-2.688 2.844-2.688 1.452 0 2.592.9 2.592 2.34a2.12 2.12 0 0 1-1.152 1.86 2.15 2.15 0 0 1 1.392 2.076c0 1.5-1.152 2.508-2.784 2.508zm5.159-.024c-.492 0-.888-.408-.888-.9 0-.48.396-.9.888-.9s.888.42.888.9c0 .492-.396.9-.888.9zm3.056-.096v-7.5h-1.644l.84-1.02h1.836V189h-1.032zm8.52-.996V189h-5.52v-.408c0-1.824 1.596-2.664 2.856-3.6.996-.732 1.512-1.176 1.512-2.172 0-.9-.636-1.476-1.56-1.476s-1.764.576-1.764 1.68h-1.056c0-1.632 1.224-2.688 2.808-2.688 1.416 0 2.628.828 2.628 2.496 0 1.248-.576 1.968-1.968 2.976-.984.732-1.992 1.2-2.184 2.196h4.248zm4.398 1.116c-1.68 0-3.036-1.14-3.036-2.712h1.044c.06 1.032.924 1.704 1.992 1.704.948 0 1.728-.54 1.728-1.536 0-1.056-.756-1.536-1.86-1.536h-.636v-.948h.684c.9 0 1.56-.564 1.572-1.38 0-.804-.672-1.368-1.536-1.368-.96 0-1.788.576-1.788 1.68h-1.056c0-1.668 1.272-2.688 2.844-2.688 1.452 0 2.592.9 2.592 2.34a2.12 2.12 0 0 1-1.152 1.86 2.15 2.15 0 0 1 1.392 2.076c0 1.5-1.152 2.508-2.784 2.508z" fill="#535a61"/><path d="M241.128 180.48h1.02l3.156 4.248 3.18-4.248h1.008V189h-1.104v-6.624l-3.072 4.128-3.072-4.128V189h-1.116v-8.52zm13.089 8.64c-1.68 0-2.94-1.404-2.94-3.12s1.26-3.12 2.94-3.12c.912 0 1.716.468 2.112 1.044V183h1.032v6h-1.032v-.924c-.396.576-1.2 1.044-2.112 1.044zm.156-.948c1.2 0 2.04-.96 2.04-2.172s-.84-2.172-2.04-2.172c-1.212 0-2.052.96-2.052 2.172s.84 2.172 2.052 2.172zm9.213.828l-1.824-2.268-1.824 2.268h-1.284l2.46-3.036-2.256-2.964h1.248l1.656 2.172 1.644-2.172h1.26l-2.268 2.964 2.46 3.036h-1.272z" fill="#037dd6"/><path d="M403.621 190.056v-.96c-1.248-.132-2.268-.96-2.304-2.496h1.032c.108.9.588 1.356 1.272 1.488V185.1l-.408-.156c-1.284-.516-1.848-1.32-1.848-2.424 0-1.32.996-2.076 2.256-2.172v-.924h.648v.948c1.056.156 2.052.876 2.052 2.136h-1.032c-.096-.588-.456-.996-1.02-1.128v2.808l.3.12c1.26.516 1.944 1.26 1.944 2.496 0 1.476-.972 2.208-2.244 2.304v.948h-.648zm1.86-3.18c0-.768-.432-1.176-1.212-1.512v2.748c.672-.084 1.212-.564 1.212-1.236zm-3.084-4.356c0 .66.36 1.044 1.224 1.416v-2.592c-.768.084-1.224.552-1.224 1.176zm6.64 6.48v-7.5h-1.644l.84-1.02h1.836V189h-1.032zm4.296 0h-1.152l3.972-7.512h-4.356v-1.008h5.592v.864L413.333 189zm7.631.12c-1.536 0-2.82-1.116-2.856-2.424h1.056a1.81 1.81 0 0 0 1.8 1.416 1.8 1.8 0 0 0 1.836-1.824c0-1.02-.732-1.836-1.788-1.836-.732 0-1.284.348-1.608.864l-.984-.288.876-4.548h3.984v1.008h-3.156l-.468 2.436c.336-.24.852-.444 1.488-.444 1.596 0 2.712 1.26 2.712 2.94 0 1.5-1.236 2.7-2.892 2.7zm7.35 0c-1.764 0-3.012-1.308-3.012-3.204v-2.376c0-1.884 1.248-3.204 3.012-3.204 1.752 0 3.024 1.32 3.024 3.204v2.376c0 1.896-1.272 3.204-3.024 3.204zm0-1.008c1.164 0 1.992-.804 1.992-2.196v-2.376c0-1.392-.828-2.196-1.992-2.196-1.152 0-1.98.816-1.98 2.196v2.376c0 1.38.828 2.196 1.98 2.196zm5.319.984c-.492 0-.888-.408-.888-.9 0-.48.396-.9.888-.9s.888.42.888.9c0 .492-.396.9-.888.9zm3.646-.096h-1.152l3.972-7.512h-4.356v-1.008h5.592v.864L437.279 189zm7.092.12c-1.668 0-2.892-1.26-2.892-2.808 0-.9.432-1.548.96-2.172l3.108-3.66h1.308l-2.604 3.084.336-.024c1.428 0 2.664 1.26 2.664 2.748 0 1.572-1.212 2.832-2.88 2.832zm0-.996c1.032 0 1.824-.828 1.824-1.836s-.792-1.836-1.824-1.836c-1.056 0-1.836.828-1.836 1.836s.78 1.836 1.836 1.836z" fill="#535a61"/><path d="M136 214.5h144v1H136v-1z" fill="#d6d9dc" class="J"/><rect x="280.5" y="195.5" width="39" height="39" rx="19.5" fill="#fafbfc"/><path d="M300 225c-.296 0-.493-.105-.69-.316l-6.014-6.421c-.395-.421-.395-1.052 0-1.474a.91.91 0 0 1 1.38 0l4.338 4.632v-15.368c0-.632.394-1.053.986-1.053s.986.421.986 1.053v15.368l4.338-4.632a.91.91 0 0 1 1.38 0c.395.422.395 1.053 0 1.474l-6.014 6.421c-.197.211-.394.316-.69.316z" class="G"/><rect x="280.5" y="195.5" width="39" height="39" rx="19.5" class="R"/><path d="M320 214.5h144v1H320v-1z" fill="#d6d9dc" class="J"/><rect x="152" y="243" width="116" height="32" rx="16" class="K"/><g clip-path="url(#N)"><path d="M168 271c6.627 0 12-5.373 12-12s-5.373-12-12-12-12 5.373-12 12 5.373 12 12 12z" fill="#26a17b"/><path d="M169.441 260.037v-.001c-.082.006-.507.031-1.456.031a31.83 31.83 0 0 1-1.478-.031v.002c-2.916-.128-5.093-.636-5.093-1.243s2.177-1.115 5.093-1.245v1.983l1.491.045 1.443-.045v-1.982c2.91.13 5.082.638 5.082 1.244s-2.172 1.113-5.082 1.242h0zm0-2.692v-1.775h4.061v-2.706h-11.056v2.706h4.061v1.774c-3.3.152-5.782.806-5.782 1.589s2.482 1.436 5.782 1.588v5.687h2.934v-5.688c3.295-.152 5.771-.805 5.771-1.587s-2.476-1.436-5.771-1.588" class="D J"/></g><path d="M196.516 266.216c-1.524 0-2.754-.474-3.69-1.422s-1.404-2.214-1.404-3.798v-7.776h2.106v7.812c0 .996.27 1.77.81 2.322s1.266.828 2.178.828 1.632-.276 2.16-.828c.54-.552.81-1.326.81-2.322v-7.812h2.106v7.776c0 1.572-.474 2.838-1.422 3.798-.948.948-2.166 1.422-3.654 1.422zm11.622 0c-1.02 0-1.938-.21-2.754-.63s-1.416-.978-1.8-1.674l1.656-1.314c.708 1.092 1.698 1.638 2.97 1.638.612 0 1.11-.144 1.494-.432.384-.3.576-.684.576-1.152 0-.852-.606-1.5-1.818-1.944l-1.404-.504c-1.032-.372-1.794-.846-2.286-1.422-.492-.588-.738-1.314-.738-2.178 0-1.092.39-1.962 1.17-2.61.78-.66 1.776-.99 2.988-.99 1.62 0 2.91.582 3.87 1.746l-1.458 1.422c-.66-.792-1.47-1.188-2.43-1.188-.564 0-1.044.132-1.44.396-.384.264-.576.624-.576 1.08 0 .444.144.798.432 1.062.3.252.804.51 1.512.774l1.296.486c.984.372 1.734.858 2.25 1.458s.768 1.362.756 2.286c0 1.104-.396 1.998-1.188 2.682-.792.672-1.818 1.008-3.078 1.008zm6.543-.216v-12.78h3.924c1.896 0 3.486.612 4.77 1.836s1.926 2.742 1.926 4.554-.642 3.33-1.926 4.554-2.874 1.836-4.77 1.836h-3.924zm2.106-1.962h1.818c1.344 0 2.436-.42 3.276-1.26.852-.84 1.278-1.896 1.278-3.168s-.426-2.328-1.278-3.168c-.84-.84-1.932-1.26-3.276-1.26h-1.818v8.856zM229.452 266v-10.764h-3.708v-2.016h9.54v2.016h-3.726V266h-2.106z" class="Q"/><path d="M249.293 256.293a1 1 0 0 1 1.414 0l3.293 3.293 3.293-3.293a1 1 0 0 1 1.414 1.414l-4 4a1 1 0 0 1-1.414 0l-4-4a1 1 0 0 1 0-1.414z" class="G J"/><rect x="363" y="249" width="85" height="20" rx="6" fill="url(#B)"/><rect x="352" y="279" width="96" height="20" rx="6" fill="url(#C)"/><rect x="136.5" y="115.5" width="327" height="195" rx="7.5" class="R"/><path d="M243.015 340v-8.52h4.956v1.056h-3.84v2.58h3.036v1.056h-3.036V340h-1.116zm8.402.12c-1.872 0-3.108-1.356-3.108-3.12s1.284-3.12 3.12-3.12c1.56 0 2.856 1.092 2.856 3.012l-.012.312h-4.92c.036 1.116.888 1.968 2.076 1.968.924 0 1.5-.408 1.872-1.044l.816.564c-.54.876-1.452 1.428-2.7 1.428zm-1.992-3.756h3.804a1.8 1.8 0 0 0-1.836-1.572c-.9 0-1.776.576-1.968 1.572zm8.57 3.696c-1.056 0-1.836-.588-1.836-1.836v-3.276h-1.272V334h1.272v-1.668h1.032V334h1.728v.948h-1.728v3.144c0 .768.336 1.02.996 1.02.252 0 .54-.036.732-.12v.924a2.87 2.87 0 0 1-.924.144zm4.837.06c-1.824 0-3.144-1.38-3.144-3.12s1.32-3.12 3.144-3.12c1.248 0 2.244.648 2.772 1.608l-.9.504c-.336-.684-1.008-1.152-1.872-1.152-1.248 0-2.1.96-2.1 2.16s.852 2.16 2.1 2.16c.864 0 1.536-.468 1.872-1.152l.9.504c-.528.96-1.524 1.608-2.772 1.608zm5.141-.12h-1.032v-9h1.032v3.924c.42-.72 1.128-1.044 1.908-1.044 1.344 0 2.268.936 2.268 2.424V340h-1.02v-3.54c0-1.008-.564-1.632-1.416-1.632-.96 0-1.74.792-1.74 2.196V340zm6.562-7.608c-.42 0-.744-.312-.744-.732 0-.396.324-.732.744-.732s.72.336.72.732a.7.7 0 0 1-.72.732zm-.528 7.608v-6h1.032v6h-1.032zm2.988 0v-6h1.032v.924c.42-.72 1.128-1.044 1.908-1.044 1.344 0 2.268.936 2.268 2.424V340h-1.02v-3.54c0-1.008-.564-1.632-1.416-1.632-.96 0-1.74.792-1.74 2.196V340h-1.032zm9.683-.972c1.2 0 2.028-.888 2.028-2.1 0-1.2-.828-2.1-2.028-2.1s-2.028.9-2.028 2.1c0 1.212.828 2.1 2.028 2.1zm-.06 3.6c-1.296 0-2.304-.552-2.82-1.224l.72-.72c.48.612 1.176 1.008 2.1 1.008 1.02 0 2.004-.636 2.004-2.076v-.684c-.42.612-1.188 1.056-2.088 1.056-1.68 0-2.94-1.332-2.94-3.06 0-1.704 1.26-3.048 2.94-3.048.9 0 1.668.432 2.088 1.044V334h1.032v5.652c0 2.004-1.32 2.976-3.036 2.976zm13.49-.12h-1.032v-3.432c-.396.576-1.2 1.044-2.112 1.044-1.68 0-2.94-1.404-2.94-3.12s1.26-3.12 2.94-3.12c.912 0 1.716.468 2.112 1.044V334h1.032v8.508zm-2.988-3.336c1.2 0 2.04-.96 2.04-2.172s-.84-2.172-2.04-2.172c-1.212 0-2.052.96-2.052 2.172s.84 2.172 2.052 2.172zm7.054.948c-1.308 0-2.208-.948-2.208-2.436V334h1.032v3.528c0 1.008.528 1.644 1.356 1.644.924 0 1.668-.816 1.668-2.196V334h1.032v6h-1.032v-.924c-.396.708-1.08 1.044-1.848 1.044zm7.489 0a3.07 3.07 0 1 1 0-6.24c1.8 0 3.132 1.392 3.132 3.12s-1.332 3.12-3.132 3.12zm0-.96c1.248 0 2.076-.96 2.076-2.16s-.828-2.16-2.076-2.16-2.088.96-2.088 2.16.84 2.16 2.088 2.16zm6.836.9c-1.056 0-1.836-.588-1.836-1.836v-3.276h-1.272V334h1.272v-1.668h1.032V334h1.728v.948h-1.728v3.144c0 .768.336 1.02.996 1.02.252 0 .54-.036.732-.12v.924a2.87 2.87 0 0 1-.924.144zm4.801.06c-1.872 0-3.108-1.356-3.108-3.12s1.284-3.12 3.12-3.12c1.56 0 2.856 1.092 2.856 3.012l-.012.312h-4.92c.035 1.116.888 1.968 2.076 1.968.924 0 1.5-.408 1.872-1.044l.816.564c-.54.876-1.452 1.428-2.7 1.428zm-1.992-3.756h3.804a1.8 1.8 0 0 0-1.836-1.572c-.9 0-1.776.576-1.968 1.572zM331.403 340v-6.732h-1.848l1.296-1.788h2.364V340h-1.812zm11.166-.768a3.08 3.08 0 0 1-2.232.9 3.08 3.08 0 0 1-2.232-.9c-.616-.608-.924-1.352-.924-2.232s.308-1.62.924-2.22a3.06 3.06 0 0 1 2.232-.912 3.06 3.06 0 0 1 2.232.912c.616.6.924 1.34.924 2.22s-.308 1.624-.924 2.232zm-3.192-1.188a1.28 1.28 0 0 0 .96.396c.384 0 .7-.132.948-.396.256-.264.384-.612.384-1.044s-.128-.78-.384-1.044c-.248-.264-.564-.396-.948-.396a1.28 1.28 0 0 0-.96.396c-.248.264-.372.612-.372 1.044s.124.78.372 1.044zm5.785 1.956v-4.428h-1.2V334h1.2v-.66c0-.736.228-1.32.684-1.752.464-.44 1.04-.66 1.728-.66.432 0 .792.044 1.08.132v1.596c-.168-.072-.384-.108-.648-.108-.368 0-.632.08-.792.24s-.24.42-.24.78V334h1.68v1.572h-1.68V340h-1.812zm11.676-.708c-.544.56-1.272.84-2.184.84s-1.64-.28-2.184-.84-.816-1.272-.816-2.136c0-.272.044-.532.132-.78.088-.256.184-.468.288-.636l.588-.876 2.376-3.384h2.232l-2.088 2.976c.648.056 1.22.328 1.716.816.504.48.756 1.112.756 1.896 0 .856-.272 1.564-.816 2.124zm-2.184-.9a1.12 1.12 0 0 0 .84-.348 1.18 1.18 0 0 0 .336-.852 1.18 1.18 0 0 0-.336-.852 1.12 1.12 0 0 0-.84-.348c-.352 0-.636.116-.852.348-.216.224-.324.508-.324.852s.108.632.324.864c.216.224.5.336.852.336z" class="G"/><path d="M329.735 386.67c-.07-.011-.136-.041-.191-.09l-4.866-4.157c-.118-.103-.17-.27-.134-.423.042-.158.163-.273.313-.299l8.08-1.411c.151-.025.302.043.388.176s.088.307.012.443l-3.214 5.569c-.057.1-.158.174-.269.191-.039.004-.077.008-.119.001zm-3.891-4.312l3.844 3.287 2.538-4.399-6.382 1.112z" fill="#75c4fd"/><path d="M321.089 372.33c-.061-.01-.125-.025-.184-.044-.763-.23-1.203-1.064-.989-1.864.108-.385.349-.709.685-.904s.727-.243 1.095-.13.678.365.865.717.232.761.124 1.146c-.206.742-.896 1.189-1.596 1.079zm.357-2.52c-.218-.034-.437.005-.629.119-.233.137-.402.359-.474.625-.15.552.155 1.132.682 1.294s1.081-.162 1.236-.713a1.1 1.1 0 0 0-.085-.793 1 1 0 0 0-.598-.496.42.42 0 0 0-.132-.036z" fill="#86e29b"/><path d="M277.729 365.798l-.07-.011c-.419-.086-.781-.337-1.022-.708-.493-.762-.3-1.809.429-2.325s1.728-.313 2.221.45c.241.371.329.816.247 1.255a1.68 1.68 0 0 1-.676 1.07c-.333.24-.73.332-1.129.269zm.405-2.85c-.279-.044-.567.015-.82.193-.528.373-.665 1.126-.308 1.679.175.266.433.45.738.508a1.09 1.09 0 0 0 .866-.186c.254-.183.431-.453.486-.772s-.004-.636-.178-.906a1.15 1.15 0 0 0-.784-.516z" fill="#ffb0eb"/><path d="M313.429 374.447c.297.047.574-.167.619-.478s-.16-.601-.457-.648-.574.168-.619.478.16.602.457.648z" fill="url(#D)"/><path d="M268.14 383.441c.297.047.574-.167.619-.478s-.16-.601-.458-.648-.574.167-.618.478.16.601.457.648z" fill="url(#E)"/><path d="M295.922 404.121a.55.55 0 0 0 .619-.479c.044-.311-.16-.601-.457-.647s-.575.167-.619.478.16.601.457.648z" fill="url(#F)"/><path d="M290.536 363.007c.481.075.93-.272 1.003-.775s-.259-.975-.741-1.05-.93.271-1.003.775.259.974.741 1.05z" fill="url(#G)"/><path d="M299.791 388.451c.481.076.93-.271 1.003-.775s-.26-.974-.741-1.05-.931.271-1.003.775.259.974.741 1.05z" fill="url(#H)"/><path d="M281.286 411.46c.481.076.93-.271 1.003-.775s-.26-.974-.741-1.05-.931.271-1.003.775.259.974.741 1.05z" fill="url(#I)"/><path d="M320.656 415.448c.482.076.931-.271 1.003-.775s-.259-.975-.741-1.05-.93.271-1.003.775.26.974.741 1.05z" fill="url(#J)"/><path d="M275.334 398.016a.41.41 0 0 1-.213-.103.43.43 0 0 1-.135-.378l.573-4.75a.43.43 0 0 1 .269-.354c.146-.057.311-.021.424.086l3.788 3.606c.113.107.16.273.123.431a.43.43 0 0 1-.302.32l-4.361 1.144c-.058.006-.115.006-.166-.002zm.949-4.293l-.396 3.284 3.016-.79-2.62-2.494z" fill="#ffb0eb"/><path d="M299.761 417.631c-.084-.014-.163-.056-.225-.12l-3.187-3.432c-.103-.11-.141-.275-.091-.421s.17-.256.315-.278l5.054-.851c.146-.021.289.036.38.16a.43.43 0 0 1 .044.423l-1.867 4.282a.4.4 0 0 1-.295.237c-.044.008-.086.006-.128 0zm-2.311-3.557l2.251 2.425 1.316-3.024-3.567.599z" fill="url(#K)"/><path d="M302.259 355.826a.39.39 0 0 1 .251-.014l4.398 1.302c.141.042.253.165.28.317a.43.43 0 0 1-.14.406l-3.972 3.385c-.115.095-.267.12-.405.061s-.228-.191-.24-.344l-.426-4.687c-.011-.138.04-.27.142-.359.035-.03.072-.051.112-.067zm3.698 1.869l-3.106-.921.302 3.308 2.804-2.387z" fill="url(#L)"/><g fill="#86e29b"><path d="M321.25 400.997c-.014-.003-.023-.004-.037-.006-1.449-.249-2.437-1.69-2.2-3.206s1.609-2.551 3.062-2.302 2.437 1.69 2.2 3.206c-.235 1.507-1.588 2.534-3.025 2.308zm.689-4.801c-1.062-.167-2.067.592-2.241 1.707-.176 1.123.553 2.187 1.627 2.371s2.089-.579 2.265-1.703-.554-2.187-1.627-2.371l-.024-.004zm-41.343-13.291l-.037-.006c-1.449-.248-2.437-1.69-2.2-3.206s1.609-2.551 3.062-2.302 2.437 1.69 2.2 3.206c-.236 1.507-1.588 2.535-3.025 2.308zm.689-4.801c-1.062-.167-2.067.593-2.241 1.707-.176 1.124.553 2.187 1.627 2.371s2.089-.579 2.265-1.703-.554-2.187-1.628-2.371c-.004-.001-.013-.002-.023-.004z"/></g><path d="M121 493h360v56H121z" class="D"/><g opacity=".3"><rect x="137" y="501" width="328" height="40" rx="20" fill="#037dd6"/><path d="M249.316 526v-9.94h5.782v1.232h-4.48v3.01h3.542v1.232h-3.542V526h-1.302zm9.802.14c-2.184 0-3.626-1.582-3.626-3.64s1.498-3.64 3.64-3.64c1.82 0 3.332 1.274 3.332 3.514l-.014.364h-5.74c.042 1.302 1.036 2.296 2.422 2.296 1.078 0 1.75-.476 2.184-1.218l.952.658c-.63 1.022-1.694 1.666-3.15 1.666zm-2.324-4.382h4.438a2.1 2.1 0 0 0-2.142-1.834c-1.05 0-2.072.672-2.296 1.834zm9.999 4.312c-1.232 0-2.142-.686-2.142-2.142v-3.822h-1.484V519h1.484v-1.946h1.204V519h2.016v1.106h-2.016v3.668c0 .896.392 1.19 1.162 1.19.294 0 .63-.042.854-.14v1.078a3.35 3.35 0 0 1-1.078.168zm5.643.07c-2.128 0-3.668-1.61-3.668-3.64s1.54-3.64 3.668-3.64c1.456 0 2.618.756 3.234 1.876l-1.05.588a2.37 2.37 0 0 0-2.184-1.344c-1.456 0-2.45 1.12-2.45 2.52s.994 2.52 2.45 2.52a2.37 2.37 0 0 0 2.184-1.344l1.05.588c-.616 1.12-1.778 1.876-3.234 1.876zm5.998-.14h-1.204v-10.5h1.204v4.578c.49-.84 1.316-1.218 2.226-1.218 1.568 0 2.646 1.092 2.646 2.828V526h-1.19v-4.13c0-1.176-.658-1.904-1.652-1.904-1.12 0-2.03.924-2.03 2.562V526zm7.656-8.876c-.49 0-.868-.364-.868-.854a.86.86 0 0 1 .868-.854c.49 0 .84.392.84.854 0 .49-.35.854-.84.854zm-.616 8.876v-7h1.204v7h-1.204zm3.486 0v-7h1.204v1.078c.49-.84 1.316-1.218 2.226-1.218 1.568 0 2.646 1.092 2.646 2.828V526h-1.19v-4.13c0-1.176-.658-1.904-1.652-1.904-1.12 0-2.03.924-2.03 2.562V526h-1.204zm11.296-1.134c1.4 0 2.366-1.036 2.366-2.45 0-1.4-.966-2.45-2.366-2.45s-2.366 1.05-2.366 2.45c0 1.414.966 2.45 2.366 2.45zm-.07 4.2c-1.512 0-2.688-.644-3.29-1.428l.84-.84c.56.714 1.372 1.176 2.45 1.176 1.19 0 2.338-.742 2.338-2.422v-.798c-.49.714-1.386 1.232-2.436 1.232-1.96 0-3.43-1.554-3.43-3.57 0-1.988 1.47-3.556 3.43-3.556 1.05 0 1.946.504 2.436 1.218V519h1.204v6.594c0 2.338-1.54 3.472-3.542 3.472zm15.738-.14h-1.204v-4.004c-.462.672-1.4 1.218-2.464 1.218-1.96 0-3.43-1.638-3.43-3.64s1.47-3.64 3.43-3.64c1.064 0 2.002.546 2.464 1.218V519h1.204v9.926zm-3.486-3.892c1.4 0 2.38-1.12 2.38-2.534s-.98-2.534-2.38-2.534c-1.414 0-2.394 1.12-2.394 2.534s.98 2.534 2.394 2.534zm8.231 1.106c-1.526 0-2.576-1.106-2.576-2.842V519h1.204v4.116c0 1.176.616 1.918 1.582 1.918 1.078 0 1.946-.952 1.946-2.562V519h1.204v7h-1.204v-1.078c-.462.826-1.26 1.218-2.156 1.218zm8.737 0c-2.128 0-3.668-1.624-3.668-3.64s1.54-3.64 3.668-3.64a3.59 3.59 0 1 1 0 7.28zm0-1.12c1.456 0 2.422-1.12 2.422-2.52s-.966-2.52-2.422-2.52-2.436 1.12-2.436 2.52.98 2.52 2.436 2.52zm7.975 1.05c-1.232 0-2.142-.686-2.142-2.142v-3.822h-1.484V519h1.484v-1.946h1.204V519h2.016v1.106h-2.016v3.668c0 .896.392 1.19 1.162 1.19.294 0 .63-.042.854-.14v1.078a3.35 3.35 0 0 1-1.078.168zm5.601.07c-2.184 0-3.626-1.582-3.626-3.64s1.498-3.64 3.64-3.64c1.82 0 3.332 1.274 3.332 3.514l-.014.364h-5.74c.042 1.302 1.036 2.296 2.422 2.296 1.078 0 1.75-.476 2.184-1.218l.952.658c-.63 1.022-1.694 1.666-3.15 1.666zm-2.324-4.382h4.438a2.1 2.1 0 0 0-2.142-1.834c-1.05 0-2.072.672-2.296 1.834zm9.492 4.382c-1.246 0-2.31-.518-2.744-1.624l.98-.546c.266.714.994 1.106 1.778 1.106.672 0 1.218-.336 1.218-.938 0-.504-.308-.812-1.218-1.092l-.7-.224c-1.162-.336-1.75-1.05-1.75-2.044 0-1.19 1.078-1.918 2.408-1.918 1.05 0 1.848.434 2.31 1.218l-.896.616c-.322-.448-.784-.798-1.456-.798-.602 0-1.162.322-1.162.84 0 .434.21.77.994 1.008l.77.238c1.218.378 1.904.994 1.904 2.058 0 1.344-1.036 2.1-2.436 2.1z" fill="#fcfcfc"/></g></g><rect x="120.5" y="41.5" width="359" height="518" rx="15.5" class="R"/><defs><filter id="A" x="120" y="41" width="360" height="59" filterUnits="userSpaceOnUse" color-interpolation-filters="sRGB"><feFlood flood-opacity="0" result="A"/><feColorMatrix in="SourceAlpha" values="0 0 0 0 0 0 0 0 0 0 0 0 0 0 0 0 0 0 127 0" result="B"/><feOffset dy="1"/><feComposite in2="B" operator="out"/><feColorMatrix values="0 0 0 0 0.839216 0 0 0 0 0.85098 0 0 0 0 0.862745 0 0 0 1 0"/><feBlend in2="A"/><feBlend in="SourceGraphic"/></filter><linearGradient id="B" x1="363" y1="259" x2="448" y2="259" xlink:href="#P"><stop stop-color="#d6d6d6" stop-opacity=".78"/><stop offset="1" stop-color="#a4a4a4" stop-opacity=".09"/></linearGradient><linearGradient id="C" x1="352" y1="289" x2="448" y2="289" xlink:href="#P"><stop stop-color="#d6d6d6" stop-opacity=".78"/><stop offset="1" stop-color="#a4a4a4" stop-opacity=".09"/></linearGradient><linearGradient id="D" x1="312.972" y1="373.802" x2="314.05" y2="373.956" xlink:href="#P"><stop stop-color="#75c3fc"/></linearGradient><linearGradient id="E" x1="267.682" y1="382.794" x2="268.76" y2="382.949" xlink:href="#P"><stop stop-color="#75c3fc"/></linearGradient><linearGradient id="F" x1="295.464" y1="403.474" x2="296.542" y2="403.629" xlink:href="#P"><stop stop-color="#75c3fc"/></linearGradient><linearGradient id="G" x1="289.791" y1="361.99" x2="291.548" y2="362.182" xlink:href="#P"><stop stop-color="#75c3fc"/></linearGradient><linearGradient id="H" x1="299.046" y1="387.435" x2="300.803" y2="387.626" xlink:href="#P"><stop stop-color="#75c3fc"/></linearGradient><linearGradient id="I" x1="280.541" y1="410.443" x2="282.298" y2="410.635" xlink:href="#P"><stop stop-color="#75c3fc"/></linearGradient><linearGradient id="J" x1="319.911" y1="414.431" x2="321.669" y2="414.623" xlink:href="#P"><stop stop-color="#75c3fc"/></linearGradient><linearGradient id="K" x1="296.15" y1="414.354" x2="301.77" y2="415.161" xlink:href="#P"><stop stop-color="#ffe466"/><stop offset="1" stop-color="#ffafea"/></linearGradient><linearGradient id="L" x1="306.872" y1="356.573" x2="301.625" y2="358.705" xlink:href="#P"><stop stop-color="#75c3fc"/><stop offset=".093" stop-color="#81c2f6"/><stop offset="1" stop-color="#f0b8bd"/></linearGradient><clipPath id="M"><rect x="120" y="41" width="360" height="519" rx="16" class="D"/></clipPath><clipPath id="N"><path transform="translate(156 247)" d="M0 0h24v24H0z" class="D"/></clipPath><path id="O" d="M237.293 152.293a1 1 0 0 1 1.414 0l3.293 3.293 3.293-3.293a1 1 0 0 1 1.414 1.414l-4 4a1 1 0 0 1-1.414 0l-4-4a1 1 0 0 1 0-1.414z"/><linearGradient id="P" gradientUnits="userSpaceOnUse"/></defs></svg>