<?xml version="1.0" encoding="utf-8"?>
<!-- Generator: Adobe Illustrator 16.0.0, SVG Export Plug-In . SVG Version: 6.00 Build 0)  -->
<!DOCTYPE svg PUBLIC "-//W3C//DTD SVG 1.1//EN" "http://www.w3.org/Graphics/SVG/1.1/DTD/svg11.dtd">
<svg version="1.1" id="Layer_1" xmlns="http://www.w3.org/2000/svg" xmlns:xlink="http://www.w3.org/1999/xlink" x="0px" y="0px"
	 width="29.477px" height="24px" viewBox="78.469 0 29.477 24" enable-background="new 78.469 0 29.477 24" xml:space="preserve" fill="#F7861C">
<g>
	<path d="M90.437,9.087c0,1.669,1.423,4.766,3.177,4.766c1.755,0,3.177-3.097,3.177-4.766c0-1.668-1.422-3.021-3.177-3.021
		C91.859,6.066,90.437,7.418,90.437,9.087z"/>
	<path d="M93.613,17.091h4.042c1.108,0,1.503-0.249,1.503-0.84c0-1.21-1.158-2.147-2.867-2.62c-0.713,0.861-1.619,1.467-2.678,1.467
		c-1.057,0-1.964-0.605-2.676-1.467c-1.709,0.473-2.867,1.41-2.867,2.62c0,0.591,0.395,0.84,1.502,0.84H93.613z"/>
	<path d="M86.392,4.841c0.979-0.98,2.122-1.738,3.398-2.255c1.231-0.499,2.533-0.751,3.87-0.751c1.47,0,2.892,0.304,4.225,0.902
		c0.166,0.075,0.36,0.039,0.488-0.09l0.558-0.556c0.101-0.101,0.146-0.244,0.122-0.384c-0.024-0.14-0.115-0.26-0.243-0.321
		C97.218,0.624,95.437,0.22,93.66,0.22c-1.545,0-3.052,0.292-4.478,0.869c-1.477,0.598-2.8,1.476-3.933,2.609
		c-1.775,1.774-2.924,4.021-3.325,6.495c-0.192,1.19-0.205,2.4-0.036,3.595c0.052,0.366,0.121,0.729,0.206,1.089l-0.732-0.497
		c-0.199-0.136-0.472-0.083-0.608,0.117l-0.45,0.664c-0.065,0.097-0.089,0.214-0.067,0.329c0.021,0.114,0.088,0.214,0.184,0.28
		l2.638,1.787l0.259,0.177c0.056,0.037,0.117,0.061,0.182,0.07c0.021,0.003,0.043,0.005,0.064,0.005
		c0.028,0,0.056-0.002,0.083-0.008c0.006-0.001,0.011-0.002,0.016-0.004c0.107-0.024,0.202-0.089,0.264-0.18l1.965-2.897
		c0.065-0.096,0.09-0.214,0.067-0.328s-0.088-0.215-0.185-0.28l-0.665-0.45c-0.199-0.136-0.472-0.084-0.607,0.116l-0.741,1.093
		c-0.408-1.469-0.485-3.014-0.22-4.541C83.903,8.242,84.89,6.343,86.392,4.841z"/>
	<path d="M106.979,8.028c-0.039-0.109-0.121-0.198-0.226-0.248l-2.443-1.142l0,0l-0.727-0.34c-0.22-0.102-0.48-0.007-0.583,0.211
		l-1.482,3.17c-0.102,0.219-0.008,0.48,0.212,0.582l0.728,0.34c0.059,0.027,0.121,0.041,0.186,0.041c0.05,0,0.101-0.009,0.149-0.026
		c0.108-0.039,0.198-0.121,0.247-0.226l0.509-1.087c0.43,1.52,0.505,3.12,0.213,4.694c-0.379,2.047-1.358,3.907-2.832,5.382
		c-0.979,0.979-2.123,1.737-3.398,2.253c-1.231,0.499-2.534,0.752-3.87,0.752c-1.393,0-2.743-0.273-4.018-0.812
		c-0.164-0.068-0.354-0.031-0.48,0.095l-0.561,0.561c-0.103,0.102-0.147,0.247-0.122,0.389c0.026,0.141,0.119,0.26,0.251,0.32
		C90.264,23.632,91.968,24,93.661,24c1.545,0,3.053-0.292,4.478-0.87c1.477-0.598,2.8-1.475,3.934-2.608
		c1.743-1.744,2.887-3.949,3.304-6.378c0.307-1.777,0.211-3.574-0.273-5.281l0.939,0.439c0.061,0.028,0.124,0.042,0.187,0.042
		c0.164,0,0.322-0.094,0.396-0.253l0.34-0.727C107.015,8.258,107.021,8.138,106.979,8.028z"/>
</g>
</svg>
