<svg enable-background="new 78.469 0 29.477 24" fill="#f7861c" height="24" viewBox="78.469 0 29.477 24" width="29.477" xmlns="http://www.w3.org/2000/svg"><path d="m90.437 9.087c0 1.669 1.423 4.766 3.177 4.766 1.755 0 3.177-3.097 3.177-4.766 0-1.668-1.422-3.021-3.177-3.021s-3.177 1.352-3.177 3.021z"/><path d="m93.613 17.091h4.042c1.108 0 1.503-.249 1.503-.84 0-1.21-1.158-2.147-2.867-2.62-.713.861-1.619 1.467-2.678 1.467-1.057 0-1.964-.605-2.676-1.467-1.709.473-2.867 1.41-2.867 2.62 0 .591.395.84 1.502.84z"/><path d="m86.392 4.841c.979-.98 2.122-1.738 3.398-2.255 1.231-.499 2.533-.751 3.87-.751 1.47 0 2.892.304 4.225.902.166.075.36.039.488-.09l.558-.556c.101-.101.146-.244.122-.384s-.115-.26-.243-.321c-1.592-.762-3.373-1.166-5.15-1.166-1.545 0-3.052.292-4.478.869-1.477.598-2.8 1.476-3.933 2.609-1.775 1.774-2.924 4.021-3.325 6.495-.192 1.19-.205 2.4-.036 3.595.052.366.121.729.206 1.089l-.732-.497c-.199-.136-.472-.083-.608.117l-.45.664c-.065.097-.089.214-.067.329.021.114.088.214.184.28l2.638 1.787.259.177c.056.037.117.061.182.07.021.003.043.005.064.005.028 0 .056-.002.083-.008.006-.001.011-.002.016-.004.107-.024.202-.089.264-.18l1.965-2.897c.065-.096.09-.214.067-.328s-.088-.215-.185-.28l-.665-.45c-.199-.136-.472-.084-.607.116l-.741 1.093c-.408-1.469-.485-3.014-.22-4.541.362-2.088 1.349-3.987 2.851-5.489z"/><path d="m106.979 8.028c-.039-.109-.121-.198-.226-.248l-2.443-1.142-.727-.34c-.22-.102-.48-.007-.583.211l-1.482 3.17c-.102.219-.008.48.212.582l.728.34c.059.027.121.041.186.041.05 0 .101-.009.149-.026.108-.039.198-.121.247-.226l.509-1.087c.43 1.52.505 3.12.213 4.694-.379 2.047-1.358 3.907-2.832 5.382-.979.979-2.123 1.737-3.398 2.253-1.231.499-2.534.752-3.87.752-1.393 0-2.743-.273-4.018-.812-.164-.068-.354-.031-.48.095l-.561.561c-.103.102-.147.247-.122.389.026.141.119.26.251.32 1.532.695 3.236 1.063 4.929 1.063 1.545 0 3.053-.292 4.478-.87 1.477-.598 2.8-1.475 3.934-2.608 1.743-1.744 2.887-3.949 3.304-6.378.307-1.777.211-3.574-.273-5.281l.939.439c.061.028.124.042.187.042.164 0 .322-.094.396-.253l.34-.727c.049-.106.055-.226.013-.336z"/></svg>