<?xml version="1.0" encoding="utf-8"?>
<!-- Generator: Adobe Illustrator 22.0.1, SVG Export Plug-In . SVG Version: 6.00 Build 0)  -->
<svg version="1.1" id="Layer_1" xmlns="http://www.w3.org/2000/svg" xmlns:xlink="http://www.w3.org/1999/xlink" x="0px" y="0px"
	 viewBox="0 0 29.5 24" style="enable-background:new 0 0 29.5 24;" xml:space="preserve">
<style type="text/css">
	.st0{fill:#0066CC;}
</style>
<g>
	<path class="st0" d="M12,9.1c0,1.7,1.4,4.8,3.2,4.8c1.8,0,3.2-3.1,3.2-4.8c0-1.7-1.4-3-3.2-3C13.4,6.1,12,7.4,12,9.1z"/>
	<path class="st0" d="M15.1,17.1h4c1.1,0,1.5-0.2,1.5-0.8c0-1.2-1.2-2.1-2.9-2.6c-0.7,0.9-1.6,1.5-2.7,1.5c-1.1,0-2-0.6-2.7-1.5
		c-1.7,0.5-2.9,1.4-2.9,2.6c0,0.6,0.4,0.8,1.5,0.8H15.1z"/>
	<path class="st0" d="M7.9,4.8c1-1,2.1-1.7,3.4-2.3c1.2-0.5,2.5-0.8,3.9-0.8c1.5,0,2.9,0.3,4.2,0.9c0.2,0.1,0.4,0,0.5-0.1l0.6-0.6
		c0.1-0.1,0.1-0.2,0.1-0.4s-0.1-0.3-0.2-0.3c-1.6-0.8-3.4-1.2-5.2-1.2c-1.5,0-3.1,0.3-4.5,0.9C9.2,1.7,7.9,2.6,6.8,3.7
		c-1.8,1.8-2.9,4-3.3,6.5c-0.2,1.2-0.2,2.4,0,3.6c0.1,0.4,0.1,0.7,0.2,1.1l-0.7-0.5c-0.2-0.1-0.5-0.1-0.6,0.1l-0.4,0.7
		c-0.1,0.1-0.1,0.2-0.1,0.3c0,0.1,0.1,0.2,0.2,0.3l2.6,1.8l0.3,0.2c0.1,0,0.1,0.1,0.2,0.1c0,0,0,0,0.1,0c0,0,0.1,0,0.1,0
		c0,0,0,0,0,0c0.1,0,0.2-0.1,0.3-0.2l2-2.9c0.1-0.1,0.1-0.2,0.1-0.3s-0.1-0.2-0.2-0.3l-0.7-0.4c-0.2-0.1-0.5-0.1-0.6,0.1l-0.7,1.1
		c-0.4-1.5-0.5-3-0.2-4.5C5.4,8.2,6.4,6.3,7.9,4.8z"/>
	<path class="st0" d="M28.5,8c0-0.1-0.1-0.2-0.2-0.2l-2.4-1.1l0,0l-0.7-0.3c-0.2-0.1-0.5,0-0.6,0.2L23,9.7c-0.1,0.2,0,0.5,0.2,0.6
		l0.7,0.3c0.1,0,0.1,0,0.2,0c0.1,0,0.1,0,0.1,0c0.1,0,0.2-0.1,0.2-0.2l0.5-1.1c0.4,1.5,0.5,3.1,0.2,4.7c-0.4,2-1.4,3.9-2.8,5.4
		c-1,1-2.1,1.7-3.4,2.3c-1.2,0.5-2.5,0.8-3.9,0.8c-1.4,0-2.7-0.3-4-0.8c-0.2-0.1-0.4,0-0.5,0.1l-0.6,0.6C10,22.3,10,22.5,10,22.6
		c0,0.1,0.1,0.3,0.3,0.3c1.5,0.7,3.2,1.1,4.9,1.1c1.5,0,3.1-0.3,4.5-0.9c1.5-0.6,2.8-1.5,3.9-2.6c1.7-1.7,2.9-3.9,3.3-6.4
		c0.3-1.8,0.2-3.6-0.3-5.3l0.9,0.4c0.1,0,0.1,0,0.2,0c0.2,0,0.3-0.1,0.4-0.3l0.3-0.7C28.5,8.3,28.6,8.1,28.5,8z"/>
</g>
</svg>
