<svg xmlns="http://www.w3.org/2000/svg" width="64" height="64" fill="none" viewBox="0 0 64 64"><path fill="#000" d="M0 32C0 14.327 14.327 0 32 0s32 14.327 32 32-14.327 32-32 32S0 49.673 0 32"/><path fill="#fff" d="M21 47V17.426h4.03v3.744h.092a8.3 8.3 0 0 1 1.876-2.213 8.4 8.4 0 0 1 2.594-1.446Q31.05 17 32.764 17q3.08 0 5.373 1.425 2.316 1.405 3.59 4Q43 25 43 28.49v.022q0 3.489-1.297 6.064-1.274 2.575-3.566 4-2.269 1.404-5.303 1.404-1.69 0-3.173-.49a8.9 8.9 0 0 1-2.64-1.425 8.5 8.5 0 0 1-1.899-2.213h-.093V47zm10.977-10.298q2.13 0 3.682-1t2.385-2.83q.834-1.851.834-4.361v-.022q0-2.553-.834-4.383-.833-1.85-2.385-2.83-1.551-1-3.682-1-2.038 0-3.613 1.022-1.575 1.02-2.478 2.872-.88 1.83-.88 4.32v.02q0 2.469.904 4.32.903 1.83 2.454 2.85 1.575 1.023 3.613 1.022"/></svg>