<svg xmlns="http://www.w3.org/2000/svg" width="64" height="64" fill="none" viewBox="0 0 64 64"><path fill="#3e73c4" d="M0 32C0 14.327 14.327 0 32 0s32 14.327 32 32-14.327 32-32 32S0 49.673 0 32"/><path fill="#fff" d="M29.838 45.258q-2.988 0-5.211-1.505-2.2-1.504-3.414-4.223Q20 36.79 20 33.151v-.045q0-3.638 1.213-6.356 1.235-2.74 3.481-4.245Q26.941 21 29.973 21a7.8 7.8 0 0 1 2.92.54 7.1 7.1 0 0 1 2.38 1.504 6.8 6.8 0 0 1 1.618 2.358h.09V21.45h3.908v17.565q0 1.55.471 2.223.472.675 1.573.674.314 0 .629-.045.336-.045.561-.112v3.234a3.6 3.6 0 0 1-.786.18q-.472.09-1.123.09-2.09 0-3.37-.944-1.28-.965-1.706-2.897l-.09-.404h-.113q-.516 1.19-1.594 2.156a7.9 7.9 0 0 1-2.493 1.527 8.1 8.1 0 0 1-3.01.562m.36-3.46q2.043 0 3.57-1.1 1.528-1.122 2.381-3.077.855-1.954.854-4.47v-.045q0-2.493-.854-4.447-.853-1.954-2.358-3.077t-3.504-1.123q-1.909 0-3.324 1.078-1.415 1.056-2.201 3.01-.765 1.954-.764 4.582v.045q0 2.673.719 4.604.74 1.932 2.134 2.988 1.393 1.033 3.346 1.033"/></svg>