<svg xmlns="http://www.w3.org/2000/svg" width="64" height="64" fill="none" viewBox="0 0 64 64"><g clip-path="url(#a)"><path fill="#fff" d="M0 0h64v64H0z"/><path fill="#000" fill-rule="evenodd" d="M64 64H0V0h64z" clip-rule="evenodd"/><path fill="#fff" d="M20.95 18.377a.9.9 0 0 1 .856-.617h27.17c.324 0 .553.317.45.625l-2.75 8.251a.9.9 0 0 1-.855.617h-8.003a.9.9 0 0 0-.856.617l-5.918 17.753a.9.9 0 0 1-.855.617h-8.565a.474.474 0 0 1-.45-.625l5.912-17.736a.475.475 0 0 0-.45-.625H18.65a.475.475 0 0 1-.45-.625z"/></g><defs><clipPath id="a"><path fill="#fff" d="M0 0h64v64H0z"/></clipPath></defs></svg>