<svg width="1080" height="1080" viewBox="0 0 1080 1080" fill="none" xmlns="http://www.w3.org/2000/svg">
<rect width="1080" height="1080" fill="black"/>
<path d="M806.433 307.659L759.503 448.465C757.413 454.75 751.533 458.995 744.907 458.995H608.329C601.704 458.995 595.823 463.239 593.734 469.524L492.746 772.47C490.656 778.756 484.776 783 478.15 783H331.999C326.475 783 322.571 777.589 324.32 772.341L425.211 469.67C426.96 464.421 423.056 459.011 417.532 459.011H281.246C275.722 459.011 271.818 453.6 273.567 448.352L320.497 307.53C322.587 301.244 328.467 297 335.093 297H798.754C804.278 297 808.182 302.411 806.433 307.659Z" fill="white"/>
</svg>
