<svg xmlns="http://www.w3.org/2000/svg" width="400" height="400" fill="none" viewBox="0 0 400 400"><path fill="url(#a)" d="M0 0h400v400H0z"/><g filter="url(#b)"><path fill="url(#c)" d="M301.861 109.055c-9.405-.047-18.81-.034-28.218-.034h-54.744l-34.414.005h-10.836c-1.937-.005-4.558-.085-6.428.064-6.554.505-11.584 3.484-15.994 8.359-3.222 3.558-4.86 8.174-6.814 12.543l-4.588 10.112-20.006 43.776-3.772 8.259c-2.644 5.787 1.556 12.382 7.883 12.382h44.18a8.67 8.67 0 0 0 7.812-4.934c.702-1.465 1.413-2.935 2.041-4.375.751-1.723 1.672-3.434 2.443-5.142l15.784-34.274 5.191-11.527c5.304-12.011 8.147-21.613 23.358-22.439 2.533-.099 7.068-.482 9.025 1.299 2.698 2.457 1.939 6.54.684 9.542-1.267 3.034-2.888 5.971-4.236 8.99a1476 1476 0 0 1-14.962 32.306l-10.327 22.439c-5.237 11.211-7.47 19.669-21.839 20.417-.148 0-.289 0-.432-.002l-72.32.002a8.67 8.67 0 0 0-7.883 5.086l-13.662 29.914c-.595 1.323-1.287 2.574-1.892 3.88-1.08 2.362-1.957 4.963-3.108 7.284a216 216 0 0 0-6.075 13.396c-1.25 3.017-2.92 5.387-2.69 8.776.2 2.942 2.537 5.084 5.254 5.842.445.124.9.194 1.359.239 2.384.229 5.173.122 7.602.119l13.832-.017 15.732.022c5.302.008 12.664.841 16.33-3.922 2.817-3.66 4.845-8.776 6.718-13.013l5.815-12.954c.699-1.522 1.485-2.967 2.16-4.502l4.372-9.77c2.268-5.006 3.513-8.098 7.703-11.985 2.837-2.655 4.62-3.536 8.222-4.777.601-.206 1.443-.445 1.804-.492 1.86-.246 4.022-.236 5.877-.241h47.913l11.535.005c3.792 0 8.382.233 12.014-.707 4.986-1.293 8.849-4.262 12.328-7.97 2.08-2.218 3.029-4.852 4.39-7.461 2.004-3.839 3.486-7.764 5.28-11.673l12.527-27.049c2.52-5.374 4.902-10.908 7.261-16.354 1.819-4.195 3.988-8.256 5.707-12.509 3.543-7.823 7.409-15.535 10.569-23.523.435-1.089 1.072-2.241 1.482-3.335a8 8 0 0 0 .485-2.489c.177-4.412-3.094-7.56-7.419-7.58z"/></g><path stroke="#fff" stroke-opacity=".4" stroke-width="3" d="M167.34 110.586c1.788-.143 4.29-.066 6.306-.061h10.839l34.414-.004h68.853q6.846.001 13.69.033l.011.007.414.001c3.536.017 6.068 2.516 5.927 6.02l-.001.013a6.4 6.4 0 0 1-.39 2.01c-.18.481-.415.99-.682 1.556-.258.545-.55 1.153-.788 1.75l-.001.004c-3.143 7.945-6.965 15.558-10.541 23.456l-.013.028-.012.029c-.841 2.081-1.796 4.124-2.78 6.194-.978 2.058-1.99 4.152-2.912 6.28-2.362 5.453-4.734 10.964-7.242 16.314l-.003.007-12.529 27.048-.002.005c-1.857 4.048-3.257 7.796-5.246 11.606-1.385 2.655-2.161 4.822-3.812 6.746l-.342.382c-3.271 3.486-6.779 6.177-11.182 7.428l-.427.116c-3.392.878-7.7.659-11.639.659h.001l-11.535-.005h-47.918c-1.593.004-3.532-.005-5.317.168l-.753.086c-.524.069-1.488.352-2.094.56l-.001.001c-1.823.629-3.275 1.194-4.649 1.97-1.383.782-2.632 1.747-4.105 3.126-4.439 4.118-5.789 7.478-8.049 12.465l-.003.006-4.373 9.77-.004.01a52 52 0 0 1-1.041 2.193c-.363.735-.747 1.5-1.108 2.286l-.005.011-5.816 12.954-.003.008c-1.92 4.344-3.859 9.228-6.535 12.705-1.482 1.926-3.77 2.814-6.556 3.177-2.832.369-5.793.164-8.582.16l-15.733-.022h-.004l-13.833.017c-2.515.003-5.167.107-7.455-.112h.001a7 7 0 0 1-.845-.127l-.255-.063-.424-.133c-2.082-.726-3.603-2.369-3.738-4.366-.096-1.404.196-2.615.691-3.88.252-.644.55-1.287.88-1.99.324-.689.68-1.437 1.009-2.23v-.001a214 214 0 0 1 6.033-13.304c.604-1.217 1.13-2.496 1.628-3.732.504-1.25.975-2.448 1.496-3.588v.001c.291-.626.603-1.241.93-1.89.322-.64.658-1.311.97-2.006l13.658-29.906a7.18 7.18 0 0 1 6.519-4.209l72.294-.003q.238.004.458.003h.039l.039-.002c7.536-.392 12.102-2.845 15.418-6.823 1.616-1.939 2.897-4.193 4.088-6.616 1.172-2.385 2.341-5.115 3.614-7.841l.004-.008 10.318-22.419a1477 1477 0 0 0 14.976-32.34l.001-.002c.66-1.478 1.388-2.936 2.126-4.44.641-1.305 1.288-2.639 1.877-3.999l.248-.584c.67-1.603 1.246-3.576 1.257-5.546.011-1.995-.566-4.09-2.315-5.683h-.001c-1.386-1.262-3.476-1.625-5.205-1.742-1.798-.121-3.682.007-4.887.054h-.012l-.011.001c-7.983.433-12.906 3.209-16.474 7.572-3.441 4.207-5.582 9.884-8.171 15.748l-5.186 11.515-15.783 34.274-.005.011c-.373.827-.784 1.657-1.209 2.522-.42.855-.851 1.742-1.242 2.638-.614 1.409-1.312 2.85-2.019 4.325a7.17 7.17 0 0 1-6.459 4.083h-44.18c-5.22-.001-8.715-5.452-6.519-10.259l3.773-8.259 20.005-43.775.002-.004 4.588-10.112.003-.008c1.964-4.39 3.447-8.551 6.279-11.833l.278-.316c4.21-4.654 8.904-7.4 14.997-7.869z"/><defs><linearGradient id="a" x1="200" x2="200" y1="0" y2="400" gradientUnits="userSpaceOnUse"><stop stop-color="#242424"/><stop offset="1"/></linearGradient><linearGradient id="c" x1="192.15" x2="192.15" y1="109" y2="291.425" gradientUnits="userSpaceOnUse"><stop stop-color="#fff"/><stop offset="1" stop-color="#8c8c8c"/></linearGradient><filter id="b" width="234.3" height="190.425" x="75" y="105" color-interpolation-filters="sRGB" filterUnits="userSpaceOnUse"><feFlood flood-opacity="0" result="BackgroundImageFix"/><feBlend in="SourceGraphic" in2="BackgroundImageFix" result="shape"/><feColorMatrix in="SourceAlpha" result="hardAlpha" values="0 0 0 0 0 0 0 0 0 0 0 0 0 0 0 0 0 0 127 0"/><feOffset dy="-4"/><feGaussianBlur stdDeviation="4.25"/><feComposite in2="hardAlpha" k2="-1" k3="1" operator="arithmetic"/><feColorMatrix values="0 0 0 0 1 0 0 0 0 1 0 0 0 0 1 0 0 0 1 0"/><feBlend in2="shape" result="effect1_innerShadow_393_15892"/><feColorMatrix in="SourceAlpha" result="hardAlpha" values="0 0 0 0 0 0 0 0 0 0 0 0 0 0 0 0 0 0 127 0"/><feOffset dy="4"/><feGaussianBlur stdDeviation="2"/><feComposite in2="hardAlpha" k2="-1" k3="1" operator="arithmetic"/><feColorMatrix values="0 0 0 0 0.954364 0 0 0 0 0.954364 0 0 0 0 0.954364 0 0 0 1 0"/><feBlend in2="effect1_innerShadow_393_15892" result="effect2_innerShadow_393_15892"/></filter></defs></svg>
