<svg width="1080" height="1080" viewBox="0 0 1080 1080" fill="none" xmlns="http://www.w3.org/2000/svg">
<rect width="1080" height="1080" rx="540" fill="black"/>
<path d="M838.289 327.116L791.881 466.357C789.814 472.573 783.999 476.77 777.447 476.77H642.387C635.835 476.77 630.02 480.967 627.953 487.183L528.088 786.763C526.021 792.978 520.206 797.175 513.654 797.175H369.127C363.664 797.175 359.803 791.825 361.533 786.634L461.303 487.327C463.033 482.136 459.172 476.786 453.709 476.786H318.938C313.475 476.786 309.614 471.435 311.344 466.245L357.753 326.988C359.819 320.772 365.634 316.575 372.186 316.575H830.696C836.158 316.575 840.019 321.926 838.289 327.116Z" fill="white"/>
</svg>
