<svg xmlns="http://www.w3.org/2000/svg" width="64" height="64" fill="none" viewBox="0 0 64 64"><path fill="#ba3b48" d="M0 32C0 14.327 14.327 0 32 0s32 14.327 32 32-14.327 32-32 32S0 49.673 0 32"/><path fill="#fff" d="M32.5 48q-3.052 0-5.182-1.65-2.11-1.651-3.224-4.878Q23 38.228 23 33.52v-.02q0-4.784 1.113-8.01t3.224-4.858Q29.467 19 32.5 19t5.143 1.632q2.13 1.632 3.244 4.858Q42 28.716 42 33.5v.019q0 4.709-1.113 7.953-1.094 3.227-3.224 4.877Q35.55 48 32.5 48m0-2.889q2.053 0 3.397-1.275 1.362-1.276 2.015-3.846.672-2.57.672-6.453v-.075q0-3.901-.672-6.452-.653-2.57-2.015-3.846-1.344-1.275-3.397-1.275t-3.416 1.275q-1.343 1.276-2.015 3.846-.653 2.55-.653 6.452v.075q0 3.884.653 6.453.672 2.57 2.015 3.846 1.362 1.275 3.416 1.275m-6.87-10.354v-2.889h13.74v2.889z"/></svg>