<svg xmlns="http://www.w3.org/2000/svg" width="64" height="64" fill="none" viewBox="0 0 64 64"><path fill="#1c9ba4" d="M0 32C0 14.327 14.327 0 32 0s32 14.327 32 32-14.327 32-32 32S0 49.673 0 32"/><path fill="#fff" d="M24 50V25.696q0-4.129 2.037-6.404Q28.092 17 31.78 17q3.371 0 5.409 1.837 2.055 1.837 2.055 4.9v.035a5.5 5.5 0 0 1-.966 3.167q-.948 1.416-2.617 2.134v.28q2.617.649 3.97 2.362 1.368 1.715 1.369 4.34v.035q0 2.326-1.019 4.129a7.3 7.3 0 0 1-2.81 2.817q-1.773 1.015-4.056 1.015-1.405 0-2.547-.385a5.8 5.8 0 0 1-1.95-1.102 5.4 5.4 0 0 1-1.281-1.68h-.281V50zm8.957-8.644q1.37 0 2.476-.665a4.9 4.9 0 0 0 1.774-1.854q.666-1.173.667-2.66v-.035q0-2.607-1.633-3.954-1.635-1.348-4.724-1.348H29.97v-2.694h1.563q2.248 0 3.46-1.068 1.23-1.084 1.23-3.132v-.035q0-1.907-1.195-3.062-1.177-1.154-3.161-1.154-2.389 0-3.6 1.592t-1.212 4.724v8.819q0 1.995.737 3.464.756 1.47 2.073 2.275 1.335.787 3.09.787"/></svg>