<svg width="40" height="40" viewBox="0 0 40 40" fill="none" xmlns="http://www.w3.org/2000/svg">
<path d="M30.2331 12.6162C29.5944 11.6123 28.4508 11.011 27.1735 11.011H20.1298C20.0385 11.0055 19.9473 11 19.856 11C19.7648 11 19.6736 11.0055 19.5823 11.011H12.5386C11.2612 11.011 10.1177 11.6123 9.47901 12.6162C8.84033 13.6201 8.84033 14.8171 9.47901 15.821L16.7965 27.311C17.4351 28.3149 18.5787 28.9161 19.856 28.9161C21.1334 28.9161 22.2769 28.3149 22.9156 27.311L30.2331 15.821C30.8718 14.8226 30.8718 13.6201 30.2331 12.6162ZM21.2246 26.4284C20.9388 26.8752 20.4278 27.1455 19.856 27.1455C19.2843 27.1455 18.7733 26.8752 18.4874 26.4284L14.3695 19.9636L18.4874 13.4932C18.7429 13.0906 19.1748 12.8368 19.6736 12.7872H20.0385C20.5373 12.8368 20.9692 13.0961 21.2246 13.4932L25.3426 19.9581L21.2246 26.4284Z" fill="#383838"/>
</svg>
