<svg width="16" height="16" viewBox="0 0 16 16" fill="none" xmlns="http://www.w3.org/2000/svg">
<path d="M9.42237 13.347C9.42237 13.5827 9.33819 13.7847 9.16983 13.9531C9.00147 14.1214 8.79944 14.2056 8.56374 14.2056L6.84648 14.2056C6.61078 14.2056 6.40875 14.1214 6.24039 13.9531C6.07203 13.7847 5.98785 13.5827 5.98785 13.347L5.98785 9.63466L2.27554 9.63466C2.03984 9.63466 1.83781 9.55048 1.66945 9.38212C1.50109 9.21377 1.41691 9.01174 1.41691 8.77603L1.41691 7.05877C1.41691 6.82307 1.50109 6.62104 1.66945 6.45268C1.83781 6.28432 2.03984 6.20014 2.27554 6.20014L5.98785 6.20014V2.48783C5.98785 2.25213 6.07203 2.0501 6.24039 1.88174C6.40875 1.71338 6.61078 1.6292 6.84648 1.6292H8.56374C8.79944 1.6292 9.00147 1.71338 9.16983 1.88174C9.33819 2.0501 9.42237 2.25213 9.42237 2.48783L9.42237 6.20014H13.1347C13.3704 6.20014 13.5724 6.28432 13.7408 6.45268C13.9091 6.62104 13.9933 6.82307 13.9933 7.05877V8.77603C13.9933 9.01173 13.9091 9.21377 13.7408 9.38212C13.5724 9.55048 13.3704 9.63466 13.1347 9.63466H9.42237L9.42237 13.347Z" fill="#6A737D"/>
</svg>
