<svg height="58" viewBox="0 0 65 58" width="65" xmlns="http://www.w3.org/2000/svg"><g fill="#b8bac1" fill-rule="evenodd"><path d="m28.5322581 2.80645161c13.9069032 0 25.6603225 6.42209678 25.723 14.03693549-.0626775 7.6157742-11.8160968 14.0388064-25.723 14.0388064-13.9069033 0-25.66032262-6.4220967-25.72300004-14.0378709.06267742-7.61577421 11.81609674-14.03787099 25.72300004-14.03787099m0 33.92251609c-12.789 0-23.75100004-5.4314193-25.48070971-12.2277096 4.65777419 5.4969032 14.20438711 9.1873871 25.48070971 9.1873871 11.2763225 0 20.8229354-3.6904839 25.4807096-9.1873871-1.7297096 6.7962903-12.6917096 12.2277096-25.4807096 12.2277096m0 17.5403226c-12.789 0-23.75100004-5.4314193-25.48070971-12.2277097 4.65777419 5.4969033 14.20438711 9.1873871 25.48070971 9.1873871 4.6914516 0 9.0760645-.6445483 12.9396129-1.7886451.6660645-.1964516 1.0552258-.8728065.9392258-1.5585161-.0065484-.0364839-.0130968-.0739033-.0187097-.1113226-.1281613-.8101291-.9532581-1.3124839-1.7390645-1.0758065-3.6352903 1.0973226-7.7710645 1.7278387-12.1210645 1.7278387-12.789 0-23.75100004-5.4314193-25.48070971-12.2277096 4.65777419 5.4969032 14.20438711 9.187387 25.48070971 9.187387 4.8327096 0 9.3408064-.6838387 13.2894838-1.8915483.4546452-.1403226.784871-.5145162.9205162-.9710323l.0112258-.0383548c.3218064-1.073-.6800968-2.0749033-1.7493549-1.7409355-3.7194838 1.1637419-7.9815484 1.8354193-12.4718709 1.8354193-12.789 0-23.75100004-5.4314193-25.48070971-12.2277096 4.65777419 5.4969032 14.20438711 9.1873871 25.48070971 9.1873871 11.2763225 0 20.8229354-3.6904839 25.4807096-9.1873871v3.2012258c0 .8353871.6772904 1.5126774 1.5126775 1.5126774s1.5126774-.6716774 1.5136129-1.506129c.0074838-7.0657097.025258-16.6300968.025258-16.6506775 0-.0205806-.0028064-.0402258-.0028064-.0608064 0-.0205807.0028064-.0411613.0028064-.061742h-.0046774c-.1085161-9.42032254-12.5981613-16.7825806-28.5275806-16.7825806-15.9294194 0-28.41906455 7.36225806-28.52758068 16.7825806h-.00467742c0 .0205807.00280645.0411613.00280645.061742 0 .0205806-.00280645.0402258-.00280645.0608064 0 .0271291.00467742 2.4369355.01029032 5.7242258h-.01029032c0 .0860646.00841935.1702581.01029032.2544517.00374194 1.7119354.00748387 3.6409032.00935484 5.5923225h-.01964516c0 .174.01309677.3461291.02058065.5191936.00374193 1.8335484.00748387 3.6633548.01029032 5.3275806h-.03087097c0 .262871.01403226.523871.03180645.783.00467742 2.2049355.00748387 4.034742.00935484 5.0637742h-.04116129c0 .320871.01777419.6389355.04583871.9541936l.00374194.0795161c.01496774.1665161.04396774.3311613.06735483.4967419.01309678.0860645.02058065.1730645.03554839.2581936.03087097.1833548.07296774.3657742.11412903.547258.0233871.1047742.04209678.2104839.06829033.3143226.02338709.0879355.05238709.174.07670967.2619355 1.58845162 5.6316129 7.71680645 10.2341936 16.1660968 12.4887097.0233871.0065484.0477097.0130968.0710968.0187097.286258.0757742.5725161.1506129.8634516.2217096 3.3976774.842871 7.1199677 1.3106129 11.02 1.3106129 3.9000322 0 7.6223225-.4677419 11.02-1.3106129.2909354-.0710967.5771935-.1459354.8634516-.2217096.0233871-.0056129.0477097-.0121613.0710968-.0187097 1.0898387-.2909355 2.1385161-.6230323 3.1450967-.9906774.8363226-.3059033 1.1356774-1.3171613.6333226-2.0524516-.0215161-.0318065-.0439677-.0645484-.0654839-.0972904-.3573548-.5350967-1.0309032-.7427742-1.6352258-.5210645-4.0646774 1.4864839-8.9020645 2.3602258-14.032258 2.3602258"/><path d="m64.3227484 54.3991355-3.8691613-3.8691613c.9990968-1.3732903 1.4986452-2.9954194 1.4986452-4.7419677.1487419-5.221871-5.0525484-9.3735484-10.4867742-7.5512259-2.8522904.9560646-4.9833226 3.5033871-5.4042904 6.4819678-.7081612 5.0272903 3.1441613 9.3061935 8.0283226 9.3061935 1.4977097 0 2.9954194-.5004838 4.118-1.2479354l3.8691613 3.8682258c.6202258.6202258 1.625871.6202258 2.2460968 0s.6202258-1.625871 0-2.2460968m-15.9743226-8.4867097c0-3.1198387 2.6212258-5.7410645 5.7410645-5.7410645s5.6157097 2.4968064 5.6157097 5.7410645c0 3.1207742-2.495871 5.6166452-5.6157097 5.6166452-3.244258 0-5.7410645-2.495871-5.7410645-5.6166452"/></g></svg>