<svg height="58" width="65" xmlns="http://www.w3.org/2000/svg">
    <g fill="#b8bac1" fill-rule="evenodd">
        <path d="M28.532 2.806c13.907 0 25.66 6.423 25.723 14.037-.062 7.616-11.816 14.04-25.723 14.04-13.907 0-25.66-6.423-25.723-14.039C2.872 9.23 14.625 2.806 28.532 2.806m0 33.923c-12.789 0-23.75-5.431-25.48-12.228 4.657 5.497 14.204 9.188 25.48 9.188 11.277 0 20.823-3.69 25.481-9.188-1.73 6.797-12.692 12.228-25.48 12.228m0 17.54c-12.79 0-23.752-5.431-25.481-12.227 4.657 5.496 14.204 9.187 25.48 9.187 4.692 0 9.076-.645 12.94-1.789.666-.196 1.055-.872.94-1.558a3.942 3.942 0 01-.02-.112c-.128-.81-.953-1.312-1.739-1.075-3.635 1.097-7.77 1.728-12.12 1.728-12.79 0-23.752-5.432-25.481-12.228 4.657 5.497 14.204 9.187 25.48 9.187 4.833 0 9.341-.684 13.29-1.891.454-.14.785-.515.92-.971l.011-.039c.322-1.073-.68-2.075-1.749-1.74-3.72 1.163-7.981 1.835-12.472 1.835-12.789 0-23.75-5.432-25.48-12.228 4.657 5.497 14.204 9.187 25.48 9.187 11.277 0 20.823-3.69 25.481-9.187v3.201c0 .836.677 1.513 1.513 1.513s1.512-.672 1.513-1.506c.008-7.066.026-16.63.026-16.65 0-.021-.003-.041-.003-.062 0-.02.003-.04.003-.061h-.005C56.95 7.363 44.462 0 28.532 0 12.602 0 .113 7.362.005 16.783H0c0 .02.003.04.003.061 0 .02-.003.04-.003.061l.01 5.724H0c0 .086.008.17.01.255.004 1.712.008 3.64.01 5.592H0c0 .174.013.346.02.52.004 1.833.008 3.663.01 5.327H0c0 .263.014.524.032.783l.01 5.064H0c0 .32.018.639.046.954l.004.08c.015.166.044.33.067.496.013.086.02.173.035.258.031.184.073.366.115.548.023.104.042.21.068.314.023.088.052.174.077.262C2 48.713 8.128 53.316 16.578 55.57l.07.018c.287.076.573.15.864.222 3.398.843 7.12 1.31 11.02 1.31 3.9 0 7.623-.467 11.02-1.31a46.525 46.525 0 00.935-.24c1.09-.291 2.138-.623 3.145-.991.836-.306 1.136-1.317.633-2.053l-.065-.097a1.383 1.383 0 00-1.635-.52c-4.065 1.486-8.903 2.36-14.033 2.36"/>
        <path d="M64.323 54.4l-3.87-3.87c1-1.373 1.5-2.995 1.5-4.742.148-5.222-5.053-9.374-10.488-7.551-2.852.956-4.983 3.503-5.404 6.482a8.107 8.107 0 008.028 9.306c1.498 0 2.996-.5 4.118-1.248l3.87 3.868a1.588 1.588 0 002.246-2.246m-15.975-8.487c0-3.12 2.622-5.74 5.741-5.74s5.616 2.496 5.616 5.74a5.593 5.593 0 01-5.616 5.617c-3.244 0-5.74-2.496-5.74-5.617"/>
    </g>
</svg>
