<?xml version="1.0" encoding="UTF-8"?>
<svg id="Treasure_Mainnet_Icon" xmlns="http://www.w3.org/2000/svg" version="1.1" viewBox="0 0 24 24">
  <defs>
    <style>
      .cls-1 {
        fill: #dc2626;
      }

      .cls-1, .cls-2, .cls-3 {
        stroke-width: 0px;
      }

      .cls-2 {
        fill: #fffdf7;
      }

      .cls-3 {
        fill: #fef5df;
      }
    </style>
  </defs>
  <rect id="BG" class="cls-3" x="0" y="0" width="24" height="24"/>
  <g id="Logomark">
    <path class="cls-1" d="M5.226,8.799v6.405c0,1.06.564,2.038,1.477,2.565l4.207,2.437c.676.392,1.505.392,2.182,0l4.207-2.437c.912-.53,1.476-1.508,1.476-2.565v-6.405c0-1.06-.564-2.038-1.476-2.565l-4.207-2.44c-.677-.392-1.506-.392-2.182,0l-4.207,2.437c-.913.53-1.477,1.508-1.477,2.569Z"/>
    <path class="cls-2" d="M17.137,11.832l-1.545-.527c-.567-.194-.991-.675-1.109-1.264l-.654-3.234c-.016-.082-.088-.142-.173-.142s-.158.059-.174.142l-.653,3.234c-.118.589-.541,1.07-1.109,1.264l-1.545.527c-.073.023-.118.092-.118.168s.049.142.118.168l1.545.527c.567.194.991.675,1.109,1.264l.653,3.234c.016.082.089.142.174.142s.157-.059.173-.142l.654-3.234c.118-.589.541-1.07,1.109-1.264l1.545-.527c.073-.023.118-.092.118-.168s-.049-.142-.118-.168Z"/>
    <path class="cls-2" d="M8.822,8.865l.545.184c.2.069.352.237.391.448l.23,1.143c.007.03.032.049.063.049.029,0,.055-.02.062-.049l.23-1.143c.043-.207.191-.379.394-.448l.545-.184c.026-.01.042-.033.042-.059s-.016-.049-.042-.059l-.545-.184c-.2-.069-.351-.237-.394-.448l-.23-1.143c-.006-.03-.032-.049-.062-.049-.03,0-.056.02-.063.049l-.23,1.143c-.042.207-.191.379-.391.448l-.545.184c-.026.01-.042.033-.042.059s.016.049.042.059"/>
    <path class="cls-2" d="M10.095,14.476l-.732-.247c-.269-.092-.469-.319-.525-.599l-.308-1.531c-.008-.04-.043-.066-.082-.066-.04,0-.076.026-.082.066l-.309,1.531c-.055.28-.256.507-.525.599l-.731.247c-.034.01-.056.043-.056.079s.023.069.056.079l.731.247c.27.092.47.319.525.599l.309,1.531c.006.04.042.066.082.066.039,0,.071-.03.082-.066l.308-1.531c.056-.28.257-.507.525-.599l.732-.247c.032-.01.056-.043.056-.079s-.024-.069-.056-.079Z"/>
  </g>
</svg>