<svg width="24" height="24" viewBox="0 0 24 24" fill="none" xmlns="http://www.w3.org/2000/svg">
<path d="M11.9982 21.5984C17.3001 21.5984 21.5982 17.3004 21.5982 11.9984C21.5982 6.6965 17.3001 2.39844 11.9982 2.39844C6.69626 2.39844 2.39819 6.6965 2.39819 11.9984C2.39819 17.3004 6.69626 21.5984 11.9982 21.5984Z" fill="#369BD4"/>
<path d="M16.2648 11.7952L14.3704 11.1568C13.6736 10.9232 13.1576 10.3352 13.0112 9.61998L12.212 5.68878C12.1896 5.59118 12.1016 5.51758 11.9992 5.51758C11.8968 5.51758 11.8088 5.59118 11.7864 5.68878L10.988 9.61998C10.8416 10.3352 10.324 10.9232 9.62723 11.1568L7.73283 11.7952C7.64483 11.8248 7.58643 11.9088 7.58643 11.9992C7.58643 12.0912 7.64483 12.1752 7.73283 12.2048L9.62723 12.8432C10.324 13.0768 10.8408 13.6648 10.988 14.38L11.7864 18.308C11.808 18.4056 11.8968 18.4792 11.9992 18.4792C12.1016 18.4792 12.1896 18.4056 12.212 18.308L13.0112 14.38C13.1576 13.6648 13.6736 13.0768 14.3704 12.8432L16.2648 12.2048C16.3528 12.1752 16.4112 12.0912 16.4112 11.9992C16.4112 11.9088 16.3528 11.8248 16.2648 11.7952Z" fill="#FFFDF8"/>
</svg>
