<svg width="96" height="96" viewBox="0 0 96 96" fill="none" xmlns="http://www.w3.org/2000/svg">
<rect width="96" height="96" fill="#FF060A"/>
<g clip-path="url(#clip0_7875_4963)">
<path d="M75.7883 36.0541C72.9706 33.4525 69.0729 29.4796 65.8984 26.662L65.7105 26.5305C65.398 26.2795 65.0456 26.0827 64.668 25.9482C57.0134 24.5206 21.3891 17.8616 20.6941 17.9461C20.4993 17.9734 20.3132 18.044 20.1493 18.1527L19.9709 18.2936C19.7512 18.5168 19.5843 18.7864 19.4825 19.0826L19.4355 19.2047V19.8715V19.9748C23.446 31.142 39.2811 67.7243 42.3993 76.3087C42.5871 76.891 42.944 77.9993 43.6109 78.0557H43.7611C44.118 78.0557 45.6396 76.0457 45.6396 76.0457C45.6396 76.0457 72.8391 43.0606 75.591 39.548C75.9472 39.1153 76.2617 38.6499 76.5302 38.1579C76.5988 37.7731 76.5665 37.377 76.4364 37.0083C76.3064 36.6396 76.0831 36.3109 75.7883 36.0541ZM52.6179 39.8955L64.2266 30.2686L71.0358 36.5425L52.6179 39.8955ZM48.1097 39.2662L28.1233 22.8864L60.4603 28.8504L48.1097 39.2662ZM49.913 43.5584L70.369 40.2618L46.9826 68.4381L49.913 43.5584ZM25.4089 24.5206L46.4379 42.3656L43.3948 68.4569L25.4089 24.5206Z" fill="white"/>
</g>
<defs>
<clipPath id="clip0_7875_4963">
<rect width="60.1096" height="60.1096" fill="white" transform="translate(17.9453 17.9453)"/>
</clipPath>
</defs>
</svg>
