<svg width="385" height="117" viewBox="0 0 385 117" fill="none" xmlns="http://www.w3.org/2000/svg">
<g filter="url(#filter0_d)">
<g clip-path="url(#clip0)">
<g filter="url(#filter1_d)">
<g clip-path="url(#clip1)">
<path d="M196.18 84.2227C199.379 84.2227 201.477 81.6328 201.477 77.6836C201.477 73.7109 199.391 71.1445 196.18 71.1445C194.445 71.1445 192.91 72 192.219 73.3594H192.031V66.3516H190.016V84H191.938V81.9844H192.125C192.922 83.3906 194.422 84.2227 196.18 84.2227ZM195.711 72.9609C198.02 72.9609 199.391 74.7305 199.391 77.6836C199.391 80.6367 198.02 82.4062 195.711 82.4062C193.414 82.4062 191.984 80.6016 191.984 77.6836C191.984 74.7656 193.414 72.9609 195.711 72.9609ZM206.45 88.5703C208.688 88.5703 209.696 87.7031 210.774 84.7734L215.708 71.3672H213.563L210.106 81.7617H209.919L206.45 71.3672H204.27L208.946 84.0117L208.712 84.7617C208.184 86.2852 207.552 86.8359 206.391 86.8359C206.11 86.8359 205.794 86.8242 205.548 86.7773V88.5C205.829 88.5469 206.18 88.5703 206.45 88.5703ZM234.338 84V68.9883H239.787V67.0898H226.78V68.9883H232.229V84H234.338ZM242.23 84H244.245V76.1719C244.245 74.3906 245.64 73.1016 247.562 73.1016C247.96 73.1016 248.687 73.1719 248.851 73.2188V71.2031C248.593 71.168 248.171 71.1445 247.843 71.1445C246.167 71.1445 244.714 72.0117 244.339 73.2422H244.152V71.3672H242.23V84ZM262.789 71.3672H260.773V78.8438C260.773 81.0586 259.555 82.3828 257.328 82.3828C255.312 82.3828 254.469 81.3281 254.469 79.0547V71.3672H252.453V79.5469C252.453 82.5352 253.93 84.2227 256.766 84.2227C258.699 84.2227 260.047 83.4258 260.68 82.0195H260.867V84H262.789V71.3672ZM267.493 74.8242C267.493 76.6523 268.571 77.6719 270.938 78.2461L273.106 78.7734C274.454 79.1016 275.11 79.6875 275.11 80.5547C275.11 81.7148 273.891 82.5234 272.192 82.5234C270.575 82.5234 269.567 81.8438 269.227 80.7773H267.153C267.376 82.875 269.309 84.2227 272.122 84.2227C274.993 84.2227 277.184 82.6641 277.184 80.4023C277.184 78.5859 276.036 77.5547 273.657 76.9805L271.712 76.5117C270.223 76.1484 269.52 75.6094 269.52 74.7422C269.52 73.6172 270.692 72.8555 272.192 72.8555C273.716 72.8555 274.7 73.5234 274.97 74.5312H276.962C276.692 72.457 274.852 71.1445 272.204 71.1445C269.52 71.1445 267.493 72.7266 267.493 74.8242ZM282.275 68.0977V71.3672H280.236V73.0547H282.275V80.7188C282.275 83.1328 283.318 84.0938 285.92 84.0938C286.318 84.0938 286.705 84.0469 287.103 83.9766V82.2773C286.728 82.3125 286.529 82.3242 286.166 82.3242C284.853 82.3242 284.291 81.6914 284.291 80.2031V73.0547H287.103V71.3672H284.291V68.0977H282.275ZM296.354 84.2227C299.952 84.2227 302.178 81.7383 302.178 77.6836C302.178 73.6172 299.952 71.1445 296.354 71.1445C292.756 71.1445 290.53 73.6172 290.53 77.6836C290.53 81.7383 292.756 84.2227 296.354 84.2227ZM296.354 82.4062C293.963 82.4062 292.616 80.6719 292.616 77.6836C292.616 74.6836 293.963 72.9609 296.354 72.9609C298.745 72.9609 300.092 74.6836 300.092 77.6836C300.092 80.6719 298.745 82.4062 296.354 82.4062ZM306.659 84H308.675V66.3516H306.659V84ZM318.98 84.2227C322.578 84.2227 324.805 81.7383 324.805 77.6836C324.805 73.6172 322.578 71.1445 318.98 71.1445C315.383 71.1445 313.156 73.6172 313.156 77.6836C313.156 81.7383 315.383 84.2227 318.98 84.2227ZM318.98 82.4062C316.59 82.4062 315.242 80.6719 315.242 77.6836C315.242 74.6836 316.59 72.9609 318.98 72.9609C321.371 72.9609 322.719 74.6836 322.719 77.6836C322.719 80.6719 321.371 82.4062 318.98 82.4062ZM334.372 88.8516C337.817 88.8516 339.997 87.0469 339.997 84.2227V71.3672H338.075V73.3711H337.887C337.161 72.0117 335.602 71.1445 333.833 71.1445C330.587 71.1445 328.536 73.7109 328.536 77.4961C328.536 81.2812 330.563 83.8125 333.833 83.8125C335.567 83.8125 336.997 83.0273 337.794 81.6328H337.981V84.1172C337.981 85.9805 336.634 87.0938 334.372 87.0938C332.555 87.0938 331.43 86.4258 331.208 85.3945H329.075C329.38 87.4805 331.325 88.8516 334.372 88.8516ZM334.278 82.0312C331.934 82.0312 330.622 80.25 330.622 77.4961C330.622 74.7422 331.934 72.9609 334.278 72.9609C336.61 72.9609 338.028 74.7422 338.028 77.4961C338.028 80.25 336.622 82.0312 334.278 82.0312ZM346.072 88.5703C348.31 88.5703 349.318 87.7031 350.396 84.7734L355.33 71.3672H353.185L349.728 81.7617H349.541L346.072 71.3672H343.892L348.568 84.0117L348.334 84.7617C347.806 86.2852 347.173 86.8359 346.013 86.8359C345.732 86.8359 345.416 86.8242 345.17 86.7773V88.5C345.451 88.5469 345.802 88.5703 346.072 88.5703Z" fill="black"/>
</g>
</g>
</g>
<path d="M126.273 49V20.2891H136.375V15.1797H110.125V20.2891H120.25V49H126.273ZM137.393 49H143.229V34.5391C143.229 31.0469 145.221 28.9141 148.526 28.9141C149.51 28.9141 150.401 29.0547 150.893 29.2422V23.9688C150.471 23.875 149.815 23.7344 149.065 23.7344C146.135 23.7344 143.956 25.4688 143.112 28.4922H142.995V24.1562H137.393V49ZM177.364 24.1562H171.528V38.5234C171.528 42.1328 169.443 44.5234 166.068 44.5234C162.786 44.5234 161.052 42.6016 161.052 39.0391V24.1562H155.216V40.2109C155.216 45.9531 158.638 49.4453 164.028 49.4453C167.802 49.4453 170.31 47.7109 171.622 44.6875H171.739V49H177.364V24.1562ZM183.14 31.2812C183.14 34.9609 185.531 37.3047 190.289 38.3594L194.414 39.2734C197.015 39.8594 197.906 40.7031 197.906 42.2031C197.906 44.0547 196.148 45.2266 193.312 45.2266C190.359 45.2266 188.695 44.0078 188.25 41.5938H182.507C182.976 46.3984 186.82 49.4922 193.312 49.4922C199.406 49.4922 203.718 46.3281 203.718 41.6406C203.718 38.0312 201.726 36.0391 196.57 34.8906L192.445 33.9766C189.843 33.3906 188.812 32.4062 188.812 30.9766C188.812 29.1484 190.523 27.9297 193.101 27.9297C195.797 27.9297 197.461 29.3594 197.695 31.6094H203.132C202.992 26.8984 199.148 23.6406 193.101 23.6406C187.101 23.6406 183.14 26.7344 183.14 31.2812ZM210.502 18.3438V24.1562H206.94V28.6562H210.502V42.3906C210.502 47.2188 212.612 49.1172 217.979 49.1172C219.221 49.1172 220.369 49.0234 221.002 48.8828V44.4297C220.627 44.5 219.877 44.5469 219.338 44.5469C217.276 44.5469 216.338 43.6094 216.338 41.5703V28.6562H221.026V24.1562H216.338V18.3438H210.502ZM243.161 49L254.927 15.1797H248.411L239.833 42.5078H239.692L231.114 15.1797H224.458L236.223 49H243.161ZM263.327 49.3984C266.515 49.3984 269.632 47.7344 271.062 45.0391H271.179V49H276.804V31.8906C276.804 26.8984 272.796 23.6406 266.632 23.6406C260.304 23.6406 256.343 26.9688 256.085 31.6094H261.499C261.874 29.5469 263.632 28.2109 266.398 28.2109C269.281 28.2109 271.038 29.7109 271.038 32.3125V34.0938L264.476 34.4688C258.429 34.8438 255.031 37.4922 255.031 41.8984C255.031 46.375 258.523 49.3984 263.327 49.3984ZM265.085 44.9922C262.554 44.9922 260.867 43.7031 260.867 41.6641C260.867 39.6953 262.484 38.4297 265.296 38.2422L271.038 37.8906V39.7891C271.038 42.7891 268.39 44.9922 265.085 44.9922ZM304.986 24.1562H299.15V38.5234C299.15 42.1328 297.064 44.5234 293.689 44.5234C290.408 44.5234 288.674 42.6016 288.674 39.0391V24.1562H282.838V40.2109C282.838 45.9531 286.26 49.4453 291.65 49.4453C295.424 49.4453 297.932 47.7109 299.244 44.6875H299.361V49H304.986V24.1562ZM311.372 49H317.208V15.1797H311.372V49ZM325.233 18.3438V24.1562H321.671V28.6562H325.233V42.3906C325.233 47.2188 327.343 49.1172 332.71 49.1172C333.952 49.1172 335.101 49.0234 335.733 48.8828V44.4297C335.358 44.5 334.608 44.5469 334.069 44.5469C332.007 44.5469 331.069 43.6094 331.069 41.5703V28.6562H335.757V24.1562H331.069V18.3438H325.233Z" fill="black"/>
</g>
<rect y="12" width="95" height="95" rx="10" fill="#EF3D5B"/>
<path fill-rule="evenodd" clip-rule="evenodd" d="M47.4184 81.6766C46.5439 81.6766 45.835 80.9677 45.835 80.0932V74.2745C45.835 73.7369 45.4887 73.2708 45.0244 72.9999V72.9999L37.1077 68.3819V68.3819C36.6371 68.1074 36.052 68.036 35.5802 68.3084L30.5021 71.2403C29.7448 71.6775 28.7764 71.418 28.3392 70.6607L28.26 70.5236C27.8228 69.7663 28.0823 68.7979 28.8396 68.3607L34.0336 65.3619C34.4584 65.1167 34.6725 64.6327 34.6725 64.1421V64.1421V54.8776V54.8776C34.6725 54.386 34.4581 53.9008 34.0323 53.6549L28.8396 50.6569C28.0823 50.2197 27.8228 49.2513 28.26 48.4941L28.3392 48.3569C28.7764 47.5996 29.7448 47.3402 30.5021 47.7774L35.5834 50.7111C36.0542 50.9829 36.6381 50.9119 37.1077 50.6379V50.6379L45.0055 46.0309V46.0309C45.4798 45.7542 45.835 45.2787 45.835 44.7295V38.9266C45.835 38.0521 46.5439 37.3432 47.4184 37.3432H47.5767C48.4511 37.3432 49.16 38.0521 49.16 38.9266V44.6827C49.16 45.269 49.5378 45.7767 50.0381 46.0824V46.0824L57.9736 50.9319V50.9319C58.2738 51.1153 58.6512 51.1489 58.9558 50.9731L64.4909 47.7774C65.2482 47.3402 66.2166 47.5996 66.6538 48.3569L66.733 48.494C67.1702 49.2513 66.9107 50.2197 66.1534 50.6569L61.1142 53.5663C60.5769 53.8765 60.3225 54.4997 60.3225 55.1201V55.1201V64.1421V64.1421C60.3225 64.6333 60.5368 65.118 60.9622 65.3635L66.1534 68.3607C66.9107 68.7979 67.1702 69.7663 66.733 70.5236L66.6538 70.6607C66.2166 71.418 65.2482 71.6775 64.4909 71.2403L59.4131 68.3085C58.9418 68.0365 58.3574 68.1077 57.8874 68.3819V68.3819L49.9707 72.9999V72.9999C49.5063 73.2708 49.16 73.7369 49.16 74.2745V80.0932C49.16 80.9677 48.4511 81.6766 47.5767 81.6766H47.4184ZM46.6997 70.1278L38.7831 65.5098C38.2966 65.226 37.9975 64.7053 37.9975 64.1421V54.8776C37.9975 54.3849 38.2265 53.9246 38.6097 53.6271C38.6644 53.5846 38.7223 53.5455 38.7831 53.51L46.6809 48.903C47.1839 48.6095 47.8074 48.6159 48.3043 48.9196L56.2398 53.7691C56.7105 54.0567 56.9975 54.5685 56.9975 55.1201V64.1421C56.9975 64.7053 56.6984 65.226 56.212 65.5098L48.2953 70.1278C48.2337 70.1638 48.1703 70.1952 48.1054 70.2222C47.6517 70.4109 47.1311 70.3795 46.6997 70.1278Z" fill="white"/>
<path fill-rule="evenodd" clip-rule="evenodd" d="M17.2559 74.5516C17.2559 75.7561 17.9073 76.8665 18.9589 77.4541L45.8755 92.4958C46.8835 93.059 48.1115 93.059 49.1195 92.4958L76.0362 77.4541C77.0877 76.8665 77.7392 75.7561 77.7392 74.5516V45.1845C77.7392 44.0038 77.113 42.9116 76.0941 42.3151L49.1774 26.5571C48.1604 25.9617 46.9042 25.9492 45.8755 26.524L18.9589 41.5657C17.9073 42.1533 17.2559 43.2637 17.2559 44.4682V74.5516ZM28.2635 40.175C23.5199 42.8258 20.5809 47.835 20.5809 53.2691V65.7507C20.5809 71.1848 23.5199 76.1939 28.2635 78.8448L40.1802 85.5041C44.7275 88.0453 50.2676 88.0453 54.8149 85.5041L66.7315 78.8448C71.4752 76.1939 74.4142 71.1848 74.4142 65.7507V53.7844C74.4142 48.4578 71.5893 43.5307 66.9925 40.8396L54.9026 33.7618C50.3147 31.0758 44.6478 31.019 40.007 33.6125L28.2635 40.175Z" fill="white"/>
<defs>
<filter id="filter0_d" x="22" y="0" width="363" height="117" filterUnits="userSpaceOnUse" color-interpolation-filters="sRGB">
<feFlood flood-opacity="0" result="BackgroundImageFix"/>
<feColorMatrix in="SourceAlpha" type="matrix" values="0 0 0 0 0 0 0 0 0 0 0 0 0 0 0 0 0 0 127 0"/>
<feOffset dy="4"/>
<feGaussianBlur stdDeviation="2"/>
<feColorMatrix type="matrix" values="0 0 0 0 0 0 0 0 0 0 0 0 0 0 0 0 0 0 0.25 0"/>
<feBlend mode="normal" in2="BackgroundImageFix" result="effect1_dropShadow"/>
<feBlend mode="normal" in="SourceGraphic" in2="effect1_dropShadow" result="shape"/>
</filter>
<filter id="filter1_d" x="-15" y="33" width="548" height="103" filterUnits="userSpaceOnUse" color-interpolation-filters="sRGB">
<feFlood flood-opacity="0" result="BackgroundImageFix"/>
<feColorMatrix in="SourceAlpha" type="matrix" values="0 0 0 0 0 0 0 0 0 0 0 0 0 0 0 0 0 0 127 0"/>
<feOffset dy="4"/>
<feGaussianBlur stdDeviation="2"/>
<feColorMatrix type="matrix" values="0 0 0 0 0 0 0 0 0 0 0 0 0 0 0 0 0 0 0.25 0"/>
<feBlend mode="normal" in2="BackgroundImageFix" result="effect1_dropShadow"/>
<feBlend mode="normal" in="SourceGraphic" in2="effect1_dropShadow" result="shape"/>
</filter>
<clipPath id="clip0">
<rect width="355" height="109" fill="white" transform="translate(26)"/>
</clipPath>
<clipPath id="clip1">
<rect width="540" height="95" fill="white" transform="translate(-11 33)"/>
</clipPath>
</defs>
</svg>
