<svg width="129" height="128" viewBox="0 0 129 128" fill="none" xmlns="http://www.w3.org/2000/svg">
<g clip-path="url(#clip0_27_2585)">
<path fill-rule="evenodd" clip-rule="evenodd" d="M128.333 64C128.333 7.5294 120.804 0 64.3333 0C7.86255 0 0.333252 7.5294 0.333252 64C0.333252 120.471 7.86255 128 64.3333 128C120.804 128 128.333 120.471 128.333 64Z" fill="#6F3DE0"/>
<path d="M36.3333 40H47.5333V68C47.5333 70.3022 47.9688 72.48 48.8399 74.5333C49.711 76.5867 50.8933 78.3911 52.3866 79.9467C53.9421 81.44 55.7466 82.6222 57.7999 83.4933C59.8533 84.3644 62.031 84.8 64.3332 84.8C66.6355 84.8 68.8132 84.3644 70.8666 83.4933C72.9199 82.6222 74.6933 81.44 76.1866 79.9467C77.7421 78.3911 78.9555 76.5867 79.8266 74.5333C80.6977 72.48 81.1333 70.3022 81.1333 68V40H92.3333V68C92.3333 71.8578 91.5866 75.4978 90.0933 78.92C88.6621 82.28 86.671 85.2356 84.1199 87.7867C81.5688 90.3378 78.5821 92.36 75.1599 93.8533C71.7999 95.2844 68.191 96 64.3332 96C60.4755 96 56.8355 95.2844 53.4132 93.8533C50.0533 92.36 47.0977 90.3378 44.5466 87.7867C41.9955 85.2356 39.9733 82.28 38.4799 78.92C37.0488 75.4978 36.3333 71.8578 36.3333 68V40ZM58.7333 40H69.9333V68C69.9333 69.5556 69.3733 70.8933 68.2533 72.0133C67.1955 73.0711 65.8888 73.6 64.3332 73.6C62.7777 73.6 61.4399 73.0711 60.3199 72.0133C59.2621 70.8933 58.7333 69.5556 58.7333 68V40Z" fill="white"/>
</g>
<defs>
<clipPath id="clip0_27_2585">
<rect width="128" height="128" fill="white" transform="translate(0.333252)"/>
</clipPath>
</defs>
</svg>
