<svg width="7" height="9" viewBox="0 0 7 9" fill="none" xmlns="http://www.w3.org/2000/svg">
<path d="M6.25 4.50001H2.375V2.68771C2.375 1.99162 2.87031 1.4133 3.48906 1.40626C4.11406 1.39923 4.625 1.97052 4.625 2.67189V2.95314C4.625 3.18693 4.79219 3.37501 5 3.37501H5.5C5.70781 3.37501 5.875 3.18693 5.875 2.95314V2.67189C5.875 1.19533 4.80469 -0.00525612 3.49219 1.7306e-05C2.17969 0.00529073 1.125 1.22169 1.125 2.69825V4.50001H0.75C0.335938 4.50001 0 4.87794 0 5.34376V8.15625C0 8.62207 0.335938 9 0.75 9H6.25C6.66406 9 7 8.62207 7 8.15625V5.34376C7 4.87794 6.66406 4.50001 6.25 4.50001Z" fill="#EAF6FF"/>
</svg>
