<svg id="Layer_1" data-name="Layer 1" xmlns="http://www.w3.org/2000/svg" viewBox="0 0 299 94"><defs><style>.cls-1{fill:#00c9ff;}.cls-2{fill:#0d67fe;}</style></defs><polygon class="cls-1" points="81.08 18.95 81.08 40.81 17.5 66.64 81.08 18.95"/><path class="cls-2" d="M69.16,18V55.71a19.87,19.87,0,0,1-39.74,0V39.82l11.92-6.56V55.71a7,7,0,1,0,13.91,0V25.61Z"/><path class="cls-2" d="M110.09,27.64v9.75c0,3.27-1.86,5-4.18,5-1.89,0-3.37-1.1-3.37-4.09V27.64H99.08V38.55c0,4.19,2.24,6.89,5.92,6.89a5.72,5.72,0,0,0,5.09-3h.06v2.49h3.4V27.64Z"/><path class="cls-2" d="M125.19,27.14a5.94,5.94,0,0,0-5.26,3h-.06V27.64h-3.4v17.3h3.46V35.19c0-3.27,1.92-5,4.34-5,2,0,3.56,1.1,3.56,4.09V44.94h3.46V34C131.29,29.84,129,27.14,125.19,27.14Z"/><path class="cls-2" d="M141.57,34.46h-.66c-3,0-3.59-.53-3.59-1.88s1.2-2.46,3.43-2.46a3.07,3.07,0,0,1,3.31,3.12h3.61c-.25-3.49-2.83-6.1-6.92-6.1-4.68,0-7,2.76-7,5.44,0,3.11,2.58,4.9,5.82,4.9h.94c3,0,3.9.7,3.9,2.36,0,1.48-1.51,2.61-3.77,2.61A3.46,3.46,0,0,1,137,39.21h-3.61c.22,3.59,3.17,6.23,7.2,6.23,4.84,0,7.36-2.8,7.36-5.6C148,36.63,145.47,34.46,141.57,34.46Z"/><path class="cls-2" d="M158.87,30.66v-3h-4.69V25.26h-3.45v2.38h-2.83v3h2.83v9.65c0,3.24,1.7,4.63,4.91,4.63h3.24v-3h-2.93a1.67,1.67,0,0,1-1.76-1.83V30.66Zm-4.68-5.4h0"/><path class="cls-2" d="M168.62,27.14c-4.85,0-8.68,3.27-8.68,9.15s3.83,9.15,8.68,9.15,8.68-3.3,8.68-9.15S173.46,27.14,168.62,27.14Zm0,15.31c-2.83,0-5.1-2-5.1-6.16s2.27-6.2,5.1-6.17,5.09,1.95,5.09,6.17S171.45,42.42,168.62,42.45Z"/><path class="cls-2" d="M189,27.14a6.82,6.82,0,0,0-5.92,3.17H183c.06-.69.06-1.19.06-1.82v-.85h-3.46V48h3.46V44.18c0-.66,0-1.19-.06-1.92h.06A6.65,6.65,0,0,0,189,45.44c4.24,0,8-3.24,8-9.25S193.25,27.14,189,27.14Zm-.88,15.31c-3.21,0-5.07-2.76-5.07-6.29,0-3.33,1.86-6,5.07-6s5.22,2.43,5.22,6.07S191.27,42.48,188.13,42.45Z"/><path class="cls-2" d="M208.75,27.14a6.82,6.82,0,0,0-5.92,3.17h-.06c.06-.69.06-1.19.06-1.82v-.85h-3.46V48h3.46V44.18c0-.66,0-1.19-.06-1.92h.06a6.65,6.65,0,0,0,5.92,3.18c4.24,0,7.95-3.24,7.95-9.25S213,27.14,208.75,27.14Zm-.88,15.31c-3.21,0-5.07-2.76-5.07-6.29,0-3.33,1.86-6,5.07-6s5.22,2.43,5.22,6.07S211,42.48,207.87,42.45Z"/><path class="cls-2" d="M234.5,41.92c-.47,0-.69-.29-.69-.85V33.46c0-3.65-1.76-6.32-6.95-6.32-5,0-7.33,2.51-7.58,6.1h3.46c.22-2,1.76-3.12,4.12-3.12,2,0,3.4.89,3.4,2.27,0,1.13-.79,1.82-3.37,1.82h-1.38c-4.12,0-6.89,1.67-6.89,5.48,0,4,2.92,5.81,6.35,5.81,2.55,0,4.72-1.13,5.57-3.55.09,1.76,1.26,3,3.46,3H236v-3Zm-4.15-5c0,3.9-2.11,5.59-4.81,5.59-2.36,0-3.3-1.38-3.3-2.79s.81-2.46,3.33-2.46h.5c2.42,0,3.93-.85,4.25-2.33h0Z"/><path class="cls-2" d="M247.49,27.14a6.8,6.8,0,0,0-5.91,3.17h-.07a16.35,16.35,0,0,0,.07-1.82V22.12h-3.46V44.94h3.46v-.76a18.25,18.25,0,0,0-.07-1.92h.07a6.64,6.64,0,0,0,5.91,3.18c4.25,0,8-3.24,8-9.25S251.74,27.14,247.49,27.14Zm-.88,15.31c-3.21,0-5.06-2.76-5.06-6.29,0-3.33,1.85-6,5.06-6s5.22,2.43,5.22,6.07S249.75,42.48,246.61,42.45Z"/><path class="cls-2" d="M257.65,22.12V44.94h3.46V22.12Z"/><path class="cls-2" d="M280.64,34.72c0-4.34-3.46-7.58-8.18-7.58-5,0-8.52,3.42-8.52,9.15,0,5.5,3.42,9.15,8.52,9.15,4.18,0,7.3-2.45,8-5.82h-3.77a4.36,4.36,0,0,1-4.25,2.83c-2.58,0-4.47-1.85-4.88-4.93h13.06Zm-13-.29a4.89,4.89,0,0,1,4.84-4.31,4.68,4.68,0,0,1,4.69,4.31Z"/><path class="cls-2" d="M112.75,48v6.27c0,.66,0,1.2.06,1.92h-.06a6.66,6.66,0,0,0-5.91-3.17c-4.28,0-8,3.17-8,9,0,6,3.68,9.31,8,9.31a6.83,6.83,0,0,0,5.91-3.18h.06c-.06.7-.06,1.2-.06,1.83v.85h3.46V48Zm-5,20.33c-3.18,0-5.26-2.55-5.26-6.32s2.08-6,5.26-6,5,2.65,5,6C112.75,65.54,110.89,68.34,107.72,68.37Z"/><path class="cls-2" d="M127.72,53.06c-4.85,0-8.68,3.27-8.68,9.15s3.83,9.15,8.68,9.15,8.68-3.3,8.68-9.15S132.56,53.06,127.72,53.06Zm0,15.31c-2.83,0-5.1-2-5.1-6.16s2.27-6.2,5.1-6.17,5.09,2,5.09,6.17S130.55,68.34,127.72,68.37Z"/><path class="cls-2" d="M158.38,53.06A5.92,5.92,0,0,0,153,56.17h-.09L153,57a5.29,5.29,0,0,0-5.34-3.9,5.61,5.61,0,0,0-4.94,3.08h-.06V53.56h-3.4v17.3h3.46V61.11c0-3.27,1.85-5,4.06-5,1.85,0,3.17,1.22,3.17,4.09V70.86h3.46V61.08c0-3.27,1.92-4.94,4.12-4.94,1.86,0,3.15,1.22,3.15,4.09V70.86h3.46V59.94C164.14,55.76,161.9,53.06,158.38,53.06Z"/><path class="cls-2" d="M182.85,67.84c-.47,0-.69-.29-.69-.85V59.38c0-3.65-1.77-6.32-7-6.32-5,0-7.32,2.51-7.57,6.1h3.46c.22-1.95,1.76-3.12,4.11-3.12,2,0,3.4.88,3.4,2.27,0,1.13-.78,1.82-3.36,1.82h-1.39c-4.12,0-6.88,1.67-6.88,5.47,0,4,2.92,5.82,6.35,5.82,2.55,0,4.72-1.13,5.56-3.55.1,1.76,1.26,3,3.46,3h1.95v-3Zm-4.15-5c0,3.9-2.11,5.59-4.82,5.59-2.35,0-3.3-1.38-3.3-2.8s.82-2.45,3.34-2.45h.5c2.42,0,3.93-.85,4.24-2.33h0Z"/><path class="cls-2" d="M186.4,53.56v17.3h3.46V53.56Z"/><path class="cls-2" d="M202.44,53.06a5.92,5.92,0,0,0-5.25,3h-.07V53.56h-3.39v17.3h3.46V61.11c0-3.27,1.92-5,4.34-5,2,0,3.55,1.1,3.55,4.09V70.86h3.46V59.94C208.54,55.76,206.21,53.06,202.44,53.06Z"/><path class="cls-2" d="M219.45,60.38h-.66c-3,0-3.58-.53-3.58-1.88S216.4,56,218.64,56a3.06,3.06,0,0,1,3.3,3.12h3.61c-.25-3.49-2.83-6.1-6.91-6.1-4.69,0-7,2.76-7,5.44,0,3.11,2.58,4.9,5.82,4.9h.94c3,0,3.9.69,3.9,2.36,0,1.48-1.51,2.61-3.77,2.61a3.46,3.46,0,0,1-3.59-3.24h-3.61c.22,3.59,3.17,6.23,7.2,6.23,4.84,0,7.36-2.8,7.36-5.6C225.87,62.55,223.35,60.38,219.45,60.38Z"/></svg>