<svg height="24" viewBox="0 0 72 24" width="72" xmlns="http://www.w3.org/2000/svg"><g fill-rule="evenodd"><path d="m40.2451269 20.4956914c2.2067308.3075429 3.5505-.0929143 4.5913846-1.1228571.6535385-.6462857 1.1502693-1.4033143 1.5888462-2.1987429 1.7757692-3.2187428 6.0483461-10.99508569 6.0483461-10.99508569h-3.078l-3.2001923 6.37028569-.9986538-6.37028569h-3.2711539v.14811429s1.1073462 5.832 1.6757308 8.8206857c.0848077.4453714.1723846 1.5915429-.6410769 2.3328-.4551923.4145143-1.1125385.7590857-2.2448077.5756572z"/><path d="m37.793 6.179-2.976 6.689-.08-.007-.403-6.516h-3.241l-3.159 6.524-.081-.027-.135-6.663h-3.101l.617 10.685h3.356l3.252-6.972.076.013.516 6.959h3.378l4.886-10.685z"/><path d="m55.7303192 16.8643543h-3.2566154c.7255385-3.6030857 1.4185385-7.08514287 2.1437308-10.68548573h2.5248462v1.96594286c.3378461-.81222857.798923-1.56857143 1.5812307-1.90045714.7674231-.32571429 1.9536923-.30857143 3.1631539.05931428-.4763077.91371429-.8394231 1.72662857-1.3551923 2.71577143-.4652308-.0912-.8837308-.20777143-1.3098462-.2496-.9571154-.09428571-1.6521923.28388571-1.9789615 1.18285714-.2281154.62777146-.3700385 1.29257146-.5078077 1.94845716-.3454615 1.6433143-.6663462 3.2907428-1.0045385 4.9632m10.4118577-8.14426287c.4655769-.56057143 1.3039616-.87051429 1.9263462-.67748572.7591154.23554286 1.0083461 1.06902858.4690384 1.65085715-.1831153.19748571-.4385769.36102854-.693.45565714-.7833461.2914286-1.5940384.2825143-2.4469615.1371429.1443462-.6195429.3728077-1.1187429.7445769-1.56617147zm4.1680385 5.48811427s-.0273462-.0003428-.1090385-.0003428c-1.2468461.4738285-2.6304231.5979428-3.5840769.3301714-1.0536923-.2958857-1.6615385-1.2041143-1.4701154-2.2299429 3.1403077.2616 4.4733462-.3305143 5.1888462-.7542857 1.9384615-1.1482286 2.4313846-4.22159999-.0979616-5.13154284-2.2223077-.79954286-5.3179615-.41931429-6.7804615 1.33542857-1.3326923 1.59908571-1.7238462 3.35759997-1.5196154 5.31497147.1533462 1.4725714 1.1727692 3.5835428 4.5045 3.9130285 2.0142692.1992 3.3036923-.3133714 3.3975-.3517714zm-65.33338848 9.78744h7.40561538c1.4604231 0 2.7758077-.8746286 3.3289615-2.2131428l3.9946154-9.6651429-4.4833846 5.6475429c-.6795.8965714-1.7079231 1.4794285-2.9173846 1.4794285h-5.36469231z"/><path d="m2.52183462 18.0546514h7.40561538c1.4604231 0 2.7758077-.8746285 3.3289615-2.2131428l3.9949616-9.66480003-4.4837308 5.64720003c-.6795.8965714-1.7079231 1.4794285-2.91738461 1.4794285h-5.36469231z"/><path d="m7.39111154.22872h7.40561536l-3.9953077 9.66617143c-.5531538 1.33851427-1.86853843 2.21314287-3.32896151 2.21314287h-7.40561538l3.99530769-9.66617144c.55315385-1.33851429 1.86853846-2.21314286 3.32896154-2.21314286"/></g></svg>