<svg height="24" width="72" xmlns="http://www.w3.org/2000/svg">
    <g fill-rule="evenodd">
        <path d="M40.245 20.496c2.207.307 3.55-.093 4.592-1.123.653-.646 1.15-1.403 1.588-2.199 1.776-3.219 6.049-10.995 6.049-10.995h-3.078l-3.2 6.37-1-6.37h-3.27v.148l1.675 8.82c.085.446.173 1.592-.64 2.334-.456.414-1.113.759-2.245.575zM37.793 6.179l-2.976 6.689-.08-.007-.403-6.516h-3.241l-3.159 6.524-.081-.027-.135-6.663h-3.101l.617 10.685h3.356l3.252-6.972.076.013.516 6.959h3.378l4.886-10.685zM55.73 16.864h-3.256c.725-3.603 1.418-7.085 2.143-10.685h2.525v1.966c.338-.812.8-1.569 1.582-1.9.767-.326 1.953-.31 3.163.059-.477.913-.84 1.726-1.356 2.715-.465-.09-.883-.207-1.31-.25-.956-.093-1.652.285-1.978 1.184-.228.627-.37 1.292-.508 1.948-.346 1.643-.666 3.29-1.005 4.963M66.142 8.72c.466-.56 1.304-.87 1.927-.677.759.235 1.008 1.069.469 1.65a1.856 1.856 0 01-.693.456c-.784.292-1.594.283-2.447.137.144-.62.372-1.118.744-1.566zm4.168 5.488h-.109c-1.247.474-2.63.598-3.584.33-1.054-.296-1.661-1.204-1.47-2.23 3.14.262 4.473-.33 5.189-.754 1.938-1.148 2.431-4.222-.098-5.132-2.222-.8-5.318-.42-6.78 1.336-1.333 1.599-1.724 3.357-1.52 5.315.153 1.472 1.173 3.583 4.504 3.913 2.015.199 3.304-.314 3.398-.352zM4.977 23.996h7.405c1.46 0 2.776-.875 3.33-2.213l3.994-9.666-4.483 5.648c-.68.896-1.708 1.48-2.918 1.48H6.941z"/>
        <path d="M2.522 18.055h7.405c1.46 0 2.776-.875 3.33-2.213l3.994-9.665-4.483 5.647c-.68.896-1.708 1.48-2.918 1.48H4.486z"/>
        <path d="M7.391.229h7.406L10.8 9.895a3.597 3.597 0 01-3.329 2.213H.067l3.995-9.666A3.597 3.597 0 017.392.229"/>
    </g>
</svg>
