<svg width="512" height="512" viewBox="0 0 512 512" fill="none" xmlns="http://www.w3.org/2000/svg">
<path d="M512 256C512 397.385 397.385 512 256 512C114.615 512 0 397.385 0 256C0 114.615 114.615 0 256 0C397.385 0 512 114.615 512 256Z" fill="black"/>
<path d="M201.6 304.001C205.134 304.001 208 306.866 208 310.4V393.601C208 397.135 205.134 400 201.6 400H118.4C114.866 400 112 397.135 112 393.601V310.4C112 306.866 114.866 304.001 118.4 304.001H201.6ZM393.6 304.001C397.134 304.001 400 306.866 400 310.4V393.601C400 397.135 397.134 400 393.6 400H310.4C306.866 400 304 397.135 304 393.601V310.4C304 306.866 306.866 304.001 310.4 304.001H393.6ZM297.641 208C301.175 208 304.041 210.865 304.041 214.399V297.6C304.041 301.134 301.175 304 297.641 304H214.441C210.907 304 208.041 301.134 208.041 297.6V214.399C208.041 210.865 210.907 208 214.441 208H297.641ZM201.6 112C205.134 112 208 114.866 208 118.4V201.6C208 205.134 205.134 208 201.6 208H118.4C114.866 208 112 205.134 112 201.6V118.4C112 114.866 114.866 112 118.4 112H201.6ZM393.6 112C397.134 112 400 114.866 400 118.4V201.6C400 205.134 397.134 208 393.6 208H310.4C306.866 208 304 205.134 304 201.6V118.4C304 114.866 306.866 112 310.4 112H393.6Z" fill="white"/>
</svg>
