<?xml version="1.0" encoding="UTF-8"?>
<svg version="1.1" xmlns="http://www.w3.org/2000/svg" width="400" height="400">
<path d="M0 0 C132 0 264 0 400 0 C400 132 400 264 400 400 C268 400 136 400 0 400 C0 268 0 136 0 0 Z " fill="#A6A6A6" transform="translate(0,0)"/>
<path d="M0 0 C1.27472168 -0.00630432 2.54944336 -0.01260864 3.86279297 -0.019104 C5.26009254 -0.01552433 6.65739087 -0.01142239 8.0546875 -0.00683594 C9.48193427 -0.00818265 10.90918059 -0.01012323 12.33642578 -0.01263428 C15.32914595 -0.01558528 18.32174681 -0.01128876 21.31445312 -0.00195312 C25.15485123 0.00944151 28.99496982 0.00288189 32.83535767 -0.00909805 C35.7829805 -0.01631737 38.73053681 -0.01402842 41.67816162 -0.00884247 C43.09438103 -0.00750616 44.51060644 -0.00915303 45.92681885 -0.01380157 C47.90433643 -0.01886768 49.88187512 -0.00978001 51.859375 0 C53.54909424 0.00238678 53.54909424 0.00238678 55.27294922 0.00482178 C57.9296875 0.25878906 57.9296875 0.25878906 59.9296875 2.25878906 C60.19038391 4.91552734 60.19038391 4.91552734 60.2043457 8.32910156 C60.21387772 9.60382324 60.22340973 10.87854492 60.23323059 12.19189453 C60.2329692 13.58919299 60.23203232 14.98649146 60.23046875 16.38378906 C60.23435399 17.81103643 60.2386883 19.23828264 60.24345398 20.66552734 C60.25092124 23.65824124 60.25062105 26.65083718 60.24536133 29.64355469 C60.23956214 33.48404328 60.25650552 37.32405031 60.279706 41.16445923 C60.29441632 44.1120894 60.29531884 47.05960282 60.29219627 50.00726318 C60.29271073 51.42349197 60.2979717 52.83972709 60.30800819 54.25592041 C60.32030331 56.23340192 60.31166478 58.21098044 60.30200195 60.18847656 C60.30263138 61.31495605 60.3032608 62.44143555 60.3039093 63.60205078 C60.18041611 64.47877441 60.05692291 65.35549805 59.9296875 66.25878906 C56.44539997 68.58164741 55.06119894 68.51598086 50.9453125 68.53344727 C49.09824707 68.54774529 49.09824707 68.54774529 47.21386719 68.56233215 C45.86914034 68.56207075 44.52441347 68.56113382 43.1796875 68.55957031 C41.80110546 68.56345728 40.42252461 68.56779196 39.04394531 68.57255554 C36.15555945 68.58001564 33.26729582 68.57972775 30.37890625 68.57446289 C26.67642135 68.56866377 22.97443597 68.58561031 19.27203369 68.60880756 C16.42558871 68.62353346 13.57926441 68.62441829 10.73278809 68.62129784 C9.36762501 68.62181148 8.00245526 68.62705729 6.6373291 68.63710976 C4.72961233 68.64943525 2.82179468 68.64075358 0.9140625 68.63110352 C-0.17165039 68.63173294 -1.25736328 68.63236237 -2.37597656 68.63301086 C-5.0703125 68.25878906 -5.0703125 68.25878906 -6.92106628 67.11627197 C-8.58703116 64.42363636 -8.44442115 62.32084782 -8.44262695 59.16674805 C-8.45197014 57.28480995 -8.45197014 57.28480995 -8.46150208 55.36485291 C-8.45281492 53.99485883 -8.44349704 52.62486863 -8.43359375 51.25488281 C-8.43307512 49.85148621 -8.43359292 48.44808888 -8.43510437 47.04469299 C-8.43501468 44.10496156 -8.42459121 41.16550458 -8.40649414 38.22583008 C-8.38378592 34.45382158 -8.38326689 30.68221336 -8.39001179 26.9101553 C-8.39334944 24.013132 -8.38672594 21.11620034 -8.37688255 18.21919441 C-8.37302828 16.82809999 -8.37188328 15.43699539 -8.3734684 14.04589653 C-8.37383833 12.10438633 -8.35975805 10.16288947 -8.3449707 8.22143555 C-8.34036331 7.11573715 -8.33575592 6.01003876 -8.33100891 4.87083435 C-7.79540505 -0.49564364 -4.58494728 0.00647638 0 0 Z " fill="#161616" transform="translate(89.0703125,233.7412109375)"/>
<path d="M0 0 C1.23137695 -0.00622879 2.46275391 -0.01245758 3.73144531 -0.01887512 C5.07617599 -0.010187 6.42090272 -0.00086901 7.765625 0.0090332 C9.14420572 0.00955189 10.52278719 0.00903385 11.90136719 0.00752258 C14.78982595 0.00761228 17.67800543 0.01803565 20.56640625 0.03613281 C24.26881632 0.05882015 27.97081836 0.05936388 31.67327881 0.05261517 C34.5197309 0.04927361 37.36608997 0.05590874 40.21252441 0.0657444 C41.57767246 0.06959349 42.94283085 0.07074582 44.3079834 0.06915855 C46.21576255 0.0687877 48.12352797 0.08288869 50.03125 0.09765625 C51.65981934 0.10456734 51.65981934 0.10456734 53.32128906 0.11161804 C56.015625 0.37231445 56.015625 0.37231445 59.015625 2.37231445 C59.3898468 5.02905273 59.3898468 5.02905273 59.38793945 8.44262695 C59.39728264 10.35470947 59.39728264 10.35470947 59.40681458 12.30541992 C59.39812676 13.70272206 59.38880881 15.1000204 59.37890625 16.49731445 C59.37838779 17.92456054 59.37890494 19.35180735 59.38041687 20.77905273 C59.38032709 23.7718368 59.36988615 26.76435182 59.35180664 29.75708008 C59.32911901 33.59749651 59.32857464 37.43751962 59.33532429 41.27798462 C59.33866231 44.22562164 59.33203739 47.17316862 59.32219505 50.12078857 C59.31833985 51.53700286 59.31719616 52.95322715 59.3187809 54.3694458 C59.31915084 56.3469873 59.30507029 58.32451571 59.2902832 60.30200195 C59.28337212 61.99172119 59.28337212 61.99172119 59.27632141 63.71557617 C59.015625 66.37231445 59.015625 66.37231445 57.015625 68.37231445 C54.35888672 68.63301086 54.35888672 68.63301086 50.9453125 68.64697266 C49.03322998 68.66127068 49.03322998 68.66127068 47.08251953 68.67585754 C45.68522108 68.67559615 44.28792261 68.67465927 42.890625 68.6730957 C41.46337763 68.67698094 40.03613142 68.68131525 38.60888672 68.68608093 C35.61617282 68.6935482 32.62357688 68.69324801 29.63085938 68.68798828 C25.79037079 68.68218909 21.95036376 68.69913248 18.10995483 68.72233295 C15.16232466 68.73704327 12.21481125 68.73794579 9.26715088 68.73482323 C7.85092209 68.73533768 6.43468697 68.74059865 5.01849365 68.75063515 C3.04101214 68.76293026 1.06343362 68.75429173 -0.9140625 68.74462891 C-2.04054199 68.74525833 -3.16702148 68.74588776 -4.32763672 68.74653625 C-5.20436035 68.62304306 -6.08108398 68.49954987 -6.984375 68.37231445 C-9.30723335 64.88802693 -9.2415668 63.5038259 -9.2590332 59.38793945 C-9.26856522 58.1565625 -9.27809723 56.92518555 -9.28791809 55.65649414 C-9.28765669 54.31176729 -9.28671976 52.96704042 -9.28515625 51.62231445 C-9.28904322 50.24373241 -9.29337789 48.86515156 -9.29814148 47.48657227 C-9.30560157 44.5981864 -9.30531369 41.70992278 -9.30004883 38.8215332 C-9.29424971 35.1190483 -9.31119625 31.41706292 -9.3343935 27.71466064 C-9.3491194 24.86821566 -9.35000422 22.02189137 -9.34688377 19.17541504 C-9.34739741 17.81025197 -9.35264323 16.44508221 -9.36269569 15.07995605 C-9.37502119 13.17223929 -9.36633951 11.26442163 -9.35668945 9.35668945 C-9.35763359 7.72812012 -9.35763359 7.72812012 -9.3585968 6.06665039 C-8.984375 3.37231445 -8.984375 3.37231445 -7.83512878 1.52156067 C-5.17309889 -0.1314565 -3.12229224 -0.0018101 0 0 Z " fill="#151515" transform="translate(89.984375,97.627685546875)"/>
<path d="M0 0 C2.65673828 -0.3742218 2.65673828 -0.3742218 6.0703125 -0.37231445 C7.98239502 -0.38165764 7.98239502 -0.38165764 9.93310547 -0.39118958 C11.3304076 -0.38250176 12.72770594 -0.37318381 14.125 -0.36328125 C15.55224609 -0.36276279 16.9794929 -0.36327994 18.40673828 -0.36479187 C21.39952235 -0.36470209 24.39203736 -0.35426115 27.38476562 -0.33618164 C31.22518206 -0.31349401 35.06520517 -0.31294964 38.90567017 -0.31969929 C41.85330718 -0.32303731 44.80085417 -0.31641239 47.74847412 -0.30657005 C49.16468841 -0.30271485 50.5809127 -0.30157116 51.99713135 -0.3031559 C53.97467285 -0.30352584 55.95220125 -0.28944529 57.9296875 -0.2746582 C59.61940674 -0.26774712 59.61940674 -0.26774712 61.34326172 -0.26069641 C64 0 64 0 66 2 C66.26069641 4.61204529 66.26069641 4.61204529 66.2746582 7.96264648 C66.28419022 9.21411972 66.29372223 10.46559296 66.30354309 11.75498962 C66.30328167 13.12702462 66.30234465 14.49905962 66.30078125 15.87109375 C66.30466693 17.27352526 66.30900134 18.6759556 66.31376648 20.0783844 C66.32123435 23.01982434 66.32093349 25.96114428 66.31567383 28.90258789 C66.30987996 32.67347951 66.32680484 36.44387983 66.3500185 40.21469021 C66.36474575 43.11174902 66.36562893 46.00868927 66.36250877 48.90577888 C66.36302255 50.29606156 66.36827095 51.68635077 66.37832069 53.07659721 C66.39064604 55.02034642 66.38196458 56.96419465 66.37231445 58.90795898 C66.37294388 60.01445297 66.3735733 61.12094696 66.3742218 62.26097107 C66 65 66 65 64.85075378 66.85649109 C62.19006767 68.50042574 60.13250393 68.38133159 57.015625 68.38818359 C55.78424805 68.39764008 54.55287109 68.40709656 53.28417969 68.4168396 C51.93944986 68.41146989 50.59472296 68.40531694 49.25 68.3984375 C47.8714177 68.40045847 46.49283645 68.4033701 45.11425781 68.40713501 C42.22580786 68.41155735 39.33763633 68.40513058 36.44921875 68.39111328 C32.74670246 68.37402099 29.04483854 68.38386272 25.34234619 68.40183067 C22.49588098 68.41267121 19.64957045 68.40922103 16.80310059 68.4014473 C15.43794681 68.39944601 14.07277898 68.40190208 12.7076416 68.40888596 C10.7998888 68.4165039 8.89208676 68.40283406 6.984375 68.38818359 C5.35580566 68.38460342 5.35580566 68.38460342 3.69433594 68.38095093 C1 68 1 68 -0.85075378 66.84976196 C-2.50422303 64.18843102 -2.37412431 62.13749452 -2.37231445 59.015625 C-2.37854324 57.78424805 -2.38477203 56.55287109 -2.39118958 55.28417969 C-2.38250146 53.93944901 -2.37318347 52.59472228 -2.36328125 51.25 C-2.36276256 49.87141928 -2.3632806 48.49283781 -2.36479187 47.11425781 C-2.36470218 44.22579905 -2.3542788 41.33761957 -2.33618164 38.44921875 C-2.31349431 34.74680868 -2.31295057 31.04480664 -2.31969929 27.34234619 C-2.32304084 24.4958941 -2.31640571 21.64953503 -2.30657005 18.80310059 C-2.30272096 17.43795254 -2.30156864 16.07279415 -2.3031559 14.7076416 C-2.30352675 12.79986245 -2.28942576 10.89209703 -2.2746582 8.984375 C-2.27005081 7.89866211 -2.26544342 6.81294922 -2.26069641 5.69433594 C-2 3 -2 3 0 0 Z " fill="#151515" transform="translate(219,234)"/>
<path d="M0 0 C1.23137695 -0.00945648 2.46275391 -0.01891296 3.73144531 -0.02865601 C5.07617514 -0.0232863 6.42090204 -0.01713334 7.765625 -0.01025391 C9.1442073 -0.01227487 10.52278855 -0.0151865 11.90136719 -0.01895142 C14.78981714 -0.02337375 17.67798867 -0.01694699 20.56640625 -0.00292969 C24.26892254 0.01416261 27.97078646 0.00432088 31.67327881 -0.01364708 C34.51974402 -0.02448762 37.36605455 -0.02103744 40.21252441 -0.0132637 C41.57767819 -0.01126242 42.94284602 -0.01371849 44.3079834 -0.02070236 C46.2157362 -0.02832031 48.12353824 -0.01465046 50.03125 0 C51.65981934 0.00358017 51.65981934 0.00358017 53.32128906 0.00723267 C56.015625 0.38818359 56.015625 0.38818359 57.86637878 1.53842163 C59.51984803 4.19975257 59.38974931 6.25068907 59.38793945 9.37255859 C59.39728264 11.21962402 59.39728264 11.21962402 59.40681458 13.10400391 C59.39812646 14.44873458 59.38880847 15.79346131 59.37890625 17.13818359 C59.37838756 18.51676432 59.3789056 19.89534579 59.38041687 21.27392578 C59.38032718 24.16238454 59.3699038 27.05056403 59.35180664 29.93896484 C59.32911931 33.64137492 59.32857557 37.34337695 59.33532429 41.0458374 C59.33866584 43.89228949 59.33203071 46.73864856 59.32219505 49.58508301 C59.31834596 50.95023105 59.31719364 52.31538945 59.3187809 53.68054199 C59.31915175 55.58832114 59.30505076 57.49608657 59.2902832 59.40380859 C59.28337212 61.03237793 59.28337212 61.03237793 59.27632141 62.69384766 C59.015625 65.38818359 59.015625 65.38818359 57.015625 68.38818359 C54.35888672 68.76913452 54.35888672 68.76913452 50.9453125 68.77636719 C49.03322998 68.79055191 49.03322998 68.79055191 47.08251953 68.80502319 C45.68521821 68.79965367 44.2879197 68.79350077 42.890625 68.78662109 C41.46337739 68.78864116 40.03613079 68.79155203 38.60888672 68.7953186 C35.61611108 68.79974519 32.62360385 68.79330051 29.63085938 68.77929688 C25.79034054 68.76220439 21.95045058 68.77204384 18.10995483 68.79001427 C15.16230512 68.80084333 12.21480505 68.7974099 9.26715088 68.78963089 C7.85093105 68.78762643 6.43469773 68.79009677 5.01849365 68.79706955 C3.0409775 68.80466871 1.06341384 68.79103703 -0.9140625 68.77636719 C-2.04054199 68.77398041 -3.16702148 68.77159363 -4.32763672 68.76913452 C-5.20436035 68.64342072 -6.08108398 68.51770691 -6.984375 68.38818359 C-9.30723335 64.90389607 -9.2415668 63.51969504 -9.2590332 59.40380859 C-9.26856522 58.17243164 -9.27809723 56.94105469 -9.28791809 55.67236328 C-9.28765669 54.32763643 -9.28671976 52.98290956 -9.28515625 51.63818359 C-9.28904322 50.25960155 -9.29337789 48.8810207 -9.29814148 47.50244141 C-9.30560157 44.61405554 -9.30531369 41.72579192 -9.30004883 38.83740234 C-9.29424971 35.13491744 -9.31119625 31.43293207 -9.3343935 27.73052979 C-9.3491194 24.8840848 -9.35000422 22.03776051 -9.34688377 19.19128418 C-9.34739741 17.82612111 -9.35264323 16.46095135 -9.36269569 15.0958252 C-9.37502119 13.18810843 -9.36633951 11.28029077 -9.35668945 9.37255859 C-9.35763359 7.74398926 -9.35763359 7.74398926 -9.3585968 6.08251953 C-8.984375 3.38818359 -8.984375 3.38818359 -7.83512878 1.53842163 C-5.17505219 -0.11480816 -3.12100226 0.00686106 0 0 Z " fill="#151515" transform="translate(225.984375,97.61181640625)"/>
<path d="M0 0 C1.84706543 -0.00922989 1.84706543 -0.00922989 3.73144531 -0.01864624 C5.07617945 -0.00484978 6.4209062 0.00968424 7.765625 0.02490234 C9.14420398 0.02728703 10.52278624 0.02819204 11.90136719 0.02767944 C14.78992066 0.03080717 17.67797767 0.04736899 20.56640625 0.07421875 C24.26883305 0.10819904 27.97071434 0.11584733 31.67327881 0.11432838 C34.51974698 0.11487227 37.36609591 0.1258424 40.21252441 0.14033127 C41.57766823 0.14669525 42.94282555 0.15063723 44.3079834 0.15211868 C46.21578833 0.15645573 48.12354255 0.17554456 50.03125 0.1953125 C51.11696289 0.2029361 52.20267578 0.21055969 53.32128906 0.21841431 C56.015625 0.48583984 56.015625 0.48583984 59.015625 2.48583984 C59.3898468 5.10461426 59.3898468 5.10461426 59.38793945 8.46435547 C59.39728264 10.34640686 59.39728264 10.34640686 59.40681458 12.26647949 C59.39812675 13.64168697 59.3888088 15.01689058 59.37890625 16.39208984 C59.37838779 17.79691568 59.37890496 19.20174226 59.38041687 20.60656738 C59.38032709 23.55227474 59.36988667 26.49770872 59.35180664 29.44335938 C59.32911899 33.22324349 59.32857466 37.00272798 59.33532429 40.78266144 C59.33866241 43.68397588 59.3320372 46.58519886 59.32219505 49.48649597 C59.31834003 50.88038149 59.31719609 52.27427717 59.3187809 53.66816711 C59.31915087 55.61457596 59.30506972 57.5609715 59.2902832 59.50732422 C59.28337212 61.17039612 59.28337212 61.17039612 59.27632141 62.86706543 C59.015625 65.48583984 59.015625 65.48583984 57.015625 67.48583984 C54.35888672 67.74653625 54.35888672 67.74653625 50.9453125 67.76049805 C49.03322998 67.77479607 49.03322998 67.77479607 47.08251953 67.78938293 C45.68522108 67.78912154 44.28792261 67.78818466 42.890625 67.78662109 C41.46337763 67.79050633 40.03613142 67.79484064 38.60888672 67.79960632 C35.61617282 67.80707359 32.62357688 67.8067734 29.63085938 67.80151367 C25.79037079 67.79571448 21.95036376 67.81265787 18.10995483 67.83585835 C15.16232466 67.85056866 12.21481125 67.85147118 9.26715088 67.84834862 C7.85092209 67.84886307 6.43468697 67.85412404 5.01849365 67.86416054 C3.04101214 67.87645565 1.06343362 67.86781712 -0.9140625 67.8581543 C-2.04054199 67.85878372 -3.16702148 67.85941315 -4.32763672 67.86006165 C-5.20436035 67.73656845 -6.08108398 67.61307526 -6.984375 67.48583984 C-9.27816507 64.04515473 -9.24120616 62.75265444 -9.2590332 58.70092773 C-9.26856522 57.51281998 -9.27809723 56.32471222 -9.28791809 55.1006012 C-9.28700668 53.81620651 -9.28609528 52.53181183 -9.28515625 51.20849609 C-9.28944138 49.89046494 -9.2937265 48.57243378 -9.29814148 47.21446228 C-9.30560175 44.42442809 -9.30531396 41.63452045 -9.30004883 38.84448242 C-9.29425532 35.272125 -9.31118252 31.70028624 -9.3343935 28.12801456 C-9.35268378 24.71731996 -9.34894532 21.30673949 -9.34765625 17.89599609 C-9.356866 16.61362564 -9.36607574 15.33125519 -9.37556458 14.01002502 C-9.36933578 12.81876511 -9.36310699 11.62750519 -9.35668945 10.40014648 C-9.35731888 9.35218399 -9.3579483 8.3042215 -9.3585968 7.22450256 C-8.5208454 1.09359702 -5.86648822 -0.01539975 0 0 Z " fill="#161616" transform="translate(157.984375,165.51416015625)"/>
<path d="M0 0 C20 0 20 0 23 2 C23.3742218 4.65673828 23.3742218 4.65673828 23.37231445 8.0703125 C23.38165764 9.98239502 23.38165764 9.98239502 23.39118958 11.93310547 C23.38250176 13.3304076 23.37318381 14.72770594 23.36328125 16.125 C23.36276279 17.55224609 23.36327994 18.9794929 23.36479187 20.40673828 C23.36470209 23.39952235 23.35426115 26.39203736 23.33618164 29.38476562 C23.31349401 33.22518206 23.31294964 37.06520517 23.31969929 40.90567017 C23.32303731 43.85330718 23.31641239 46.80085417 23.30657005 49.74847412 C23.30271485 51.16468841 23.30157116 52.5809127 23.3031559 53.99713135 C23.30352584 55.97467285 23.28944529 57.95220125 23.2746582 59.9296875 C23.27005081 61.05616699 23.26544342 62.18264648 23.26069641 63.34326172 C23 66 23 66 21 68 C14.07 68 7.14 68 0 68 C0 45.56 0 23.12 0 0 Z " fill="#191919" transform="translate(297,98)"/>
<path d="M0 0 C6.93 0 13.86 0 21 0 C23.71455279 2.71455279 23.25883073 4.16431121 23.2746582 7.96264648 C23.28895622 9.83985634 23.28895622 9.83985634 23.30354309 11.75498962 C23.30328167 13.12702462 23.30234465 14.49905962 23.30078125 15.87109375 C23.30466693 17.27352526 23.30900134 18.6759556 23.31376648 20.0783844 C23.32123435 23.01982434 23.32093349 25.96114428 23.31567383 28.90258789 C23.30987996 32.67347951 23.32680484 36.44387983 23.3500185 40.21469021 C23.36474575 43.11174902 23.36562893 46.00868927 23.36250877 48.90577888 C23.36302255 50.29606156 23.36827095 51.68635077 23.37832069 53.07659721 C23.39064604 55.02034642 23.38196458 56.96419465 23.37231445 58.90795898 C23.37294388 60.01445297 23.3735733 61.12094696 23.3742218 62.26097107 C23 65 23 65 20 68 C13.4 68 6.8 68 0 68 C0 45.56 0 23.12 0 0 Z " fill="#1A1A1A" transform="translate(297,234)"/>
<path d="M0 0 C2.97 0 5.94 0 9 0 C11.71455279 2.71455279 11.25883073 4.16431121 11.2746582 7.96264648 C11.28419022 9.21411972 11.29372223 10.46559296 11.30354309 11.75498962 C11.30328167 13.12702462 11.30234465 14.49905962 11.30078125 15.87109375 C11.30466693 17.27352526 11.30900134 18.6759556 11.31376648 20.0783844 C11.32123435 23.01982434 11.32093349 25.96114428 11.31567383 28.90258789 C11.30987996 32.67347951 11.32680484 36.44387983 11.3500185 40.21469021 C11.36474575 43.11174902 11.36562893 46.00868927 11.36250877 48.90577888 C11.36302255 50.29606156 11.36827095 51.68635077 11.37832069 53.07659721 C11.39064604 55.02034642 11.38196458 56.96419465 11.37231445 58.90795898 C11.37294388 60.01445297 11.3735733 61.12094696 11.3742218 62.26097107 C11 65 11 65 9.97673035 66.88075256 C8 68 8 68 0 68 C0 45.56 0 23.12 0 0 Z " fill="#1C1C1C" transform="translate(332,234)"/>
<path d="M0 0 C8 0 8 0 9.97673035 1.12597656 C11.44419104 3.81349467 11.37408664 5.92748352 11.37231445 8.984375 C11.37854324 10.21575195 11.38477203 11.44712891 11.39118958 12.71582031 C11.38250146 14.06055099 11.37318347 15.40527772 11.36328125 16.75 C11.36276256 18.12858072 11.3632806 19.50716219 11.36479187 20.88574219 C11.36470218 23.77420095 11.3542788 26.66238043 11.33618164 29.55078125 C11.31349431 33.25319132 11.31295057 36.95519336 11.31969929 40.65765381 C11.32304084 43.5041059 11.31640571 46.35046497 11.30657005 49.19689941 C11.30272096 50.56204746 11.30156864 51.92720585 11.3031559 53.2923584 C11.30352675 55.20013755 11.28942576 57.10790297 11.2746582 59.015625 C11.27005081 60.10133789 11.26544342 61.18705078 11.26069641 62.30566406 C11 65 11 65 9 68 C6.03 68 3.06 68 0 68 C0 45.56 0 23.12 0 0 Z " fill="#1C1C1C" transform="translate(332,98)"/>
<path d="M0 0 C0.66 0 1.32 0 2 0 C1.67 1.32 1.34 2.64 1 4 C-20.12 4 -41.24 4 -63 4 C-63.33 3.34 -63.66 2.68 -64 2 C-62.35 2 -60.7 2 -59 2 C-59 1.67 -59 1.34 -59 1 C-58.27559219 1.00222061 -57.55118439 1.00444122 -56.80482483 1.00672913 C-49.99156547 1.02673227 -43.17831047 1.04197425 -36.36502934 1.05181217 C-32.86191115 1.05703989 -29.35881715 1.0641355 -25.85571289 1.07543945 C-21.83219159 1.08834206 -17.80869586 1.09322912 -13.78515625 1.09765625 C-11.88987938 1.10539818 -11.88987938 1.10539818 -9.95631409 1.11329651 C-8.21462196 1.11340981 -8.21462196 1.11340981 -6.43774414 1.11352539 C-5.40960098 1.115746 -4.38145782 1.11796661 -3.32215881 1.12025452 C-1.0386489 1.26184609 -1.0386489 1.26184609 0 0 Z " fill="#1C1C1C" transform="translate(282,162)"/>
<path d="M0 0 C0.33 0 0.66 0 1 0 C1.04628625 8.31000792 1.0818502 16.61996221 1.10362434 24.93006706 C1.11407343 28.78854797 1.128253 32.64694085 1.15087891 36.50537109 C1.1725674 40.22712192 1.18456014 43.94878794 1.18975449 47.67059708 C1.19345745 49.09241191 1.20068819 50.51422197 1.21146011 51.93600082 C1.22592119 53.92327114 1.22681646 55.91062631 1.22705078 57.89794922 C1.231492 59.03046112 1.23593323 60.16297302 1.24050903 61.32980347 C1 64 1 64 -1 66 C-3.15478516 66.22705078 -3.15478516 66.22705078 -5.7890625 66.1953125 C-6.73007812 66.18886719 -7.67109375 66.18242187 -8.640625 66.17578125 C-9.62546875 66.15902344 -10.6103125 66.14226562 -11.625 66.125 C-13.11386719 66.11146484 -13.11386719 66.11146484 -14.6328125 66.09765625 C-17.08878134 66.07404116 -19.54427168 66.04110799 -22 66 C-22 65.67 -22 65.34 -22 65 C-15.73 65 -9.46 65 -3 65 C-3 64.34 -3 63.68 -3 63 C-2.01 62.505 -2.01 62.505 -1 62 C-1.00222061 61.26750534 -1.00444122 60.53501068 -1.00672913 59.78031921 C-1.02676091 52.87938598 -1.0419889 45.97845708 -1.05181217 39.07750225 C-1.05703216 35.52960152 -1.0641138 31.9817248 -1.07543945 28.43383789 C-1.08837663 24.35562916 -1.09323552 20.27744567 -1.09765625 16.19921875 C-1.10281754 14.92414963 -1.10797882 13.64908051 -1.11329651 12.33537292 C-1.11340981 10.56387627 -1.11340981 10.56387627 -1.11352539 8.7565918 C-1.115746 7.71512497 -1.11796661 6.67365814 -1.12025452 5.60063171 C-1 3 -1 3 0 0 Z " fill="#242424" transform="translate(319,100)"/>
<path d="M0 0 C4.875 0.875 4.875 0.875 6 2 C6.09381302 3.84118029 6.11743954 5.68597641 6.11352539 7.52954102 C6.11341209 9.30126427 6.11341209 9.30126427 6.11329651 11.10877991 C6.10813522 12.3941716 6.10297394 13.67956329 6.09765625 15.00390625 C6.0962413 16.31205795 6.09482635 17.62020966 6.09336853 18.96800232 C6.0895441 22.45162859 6.07971446 25.93521339 6.06866455 29.41882324 C6.05844882 32.97126708 6.05387056 36.52371759 6.04882812 40.07617188 C6.03809212 47.05079832 6.0210166 54.02539717 6 61 C5.67 61 5.34 61 5 61 C4.99453156 59.96096527 4.99453156 59.96096527 4.98895264 58.90093994 C4.94717704 51.69826579 4.87786568 44.4962318 4.79248047 37.29394531 C4.76201804 34.6051281 4.74135434 31.91649902 4.72900391 29.22753906 C4.70762342 25.36479803 4.66099493 21.50306552 4.609375 17.640625 C4.60814636 16.4363385 4.60691772 15.232052 4.60565186 13.99127197 C4.58593323 12.87041199 4.5662146 11.749552 4.54589844 10.59472656 C4.53701599 9.60877502 4.52813354 8.62282349 4.51898193 7.60699463 C3.8652104 4.32291329 2.48042791 3.1611428 0 1 C0 0.67 0 0.34 0 0 Z " fill="#202020" transform="translate(314,234)"/>
<path d="M0 0 C0.33 0 0.66 0 1 0 C1.33 20.46 1.66 40.92 2 62 C0.515 62.495 0.515 62.495 -1 63 C-0.67 42.21 -0.34 21.42 0 0 Z " fill="#9E9E9E" transform="translate(285,239)"/>
<path d="M0 0 C0.66 1.32 1.32 2.64 2 4 C0.3125 5.5625 0.3125 5.5625 -2 7 C-4.75 6.6875 -4.75 6.6875 -7 6 C-5.6875 4.5 -5.6875 4.5 -4 3 C-3.01 3 -2.02 3 -1 3 C-0.67 2.01 -0.34 1.02 0 0 Z " fill="#A0A0A0" transform="translate(216,160)"/>
</svg>
