<svg xmlns="http://www.w3.org/2000/svg" fill="none" viewBox="0 0 16 16" height="16" width="16">
  <path fill="#000000" d="M8 16c4.4183 0 8 -3.5817 8 -8 0 -4.41828 -3.5817 -8 -8 -8C3.58172 0 0 3.58172 0 8c0 4.4183 3.58172 8 8 8Z" stroke-width="0.5"></path>
  <path fill="#ffffff" d="m11.565 4.646 -1.2 0.612 -5.79899 2.9535c-0.08262 -0.6347 0.01272 -1.2799 0.275385 -1.86355 0.262655 -0.5837 0.682305 -1.0829 1.212155 -1.44201 0.52985 -0.35909 1.14905 -0.56391 1.7885 -0.591625 0.63945 -0.02771 1.27405 0.12278 1.83295 0.434685l0.687 -0.35 0.1025 -0.0525c-0.65175 -0.472955 -1.4252 -0.749535 -2.22905 -0.797085 -0.8039 -0.047545 -1.60455 0.135925 -2.3075 0.52875 -0.70295 0.392825 -1.27884 0.978585 -1.65962 1.688135 -0.38078 0.70955 -0.55057 1.51325 -0.48932 2.3162 0.011465 0.15105 -0.022015 0.30205 -0.09622 0.4341 -0.0742 0.13205 -0.185815 0.23915 -0.32078 0.3079l-0.3625 0.185v0.862l1.067 -0.544 0.3455 -0.1765 0.3405 -0.1735 6.11299 -3.115 0.687 -0.3495 1.42 -0.7235V3.928L11.565 4.646Zm1.408 1.006L5.1005 9.66l-0.68699 0.35 -1.4135 0.7215v0.8615l1.404 -0.715 1.20049 -0.612 5.805 -2.958c0.0839 0.6357 -0.0108 1.28215 -0.27345 1.8671 -0.26265 0.5849 -0.68295 1.08515 -1.21375 1.4448 -0.53085 0.35965 -1.1513 0.56445 -1.7919 0.59145 -0.64065 0.02705 -1.27615 -0.12475 -1.8354 -0.43835l-0.0425 0.0225 -0.745 0.38c0.65185 0.4732 1.42555 0.74995 2.22965 0.79755 0.8041 0.0476 1.605 -0.136 2.3081 -0.52905 0.7031 -0.393 1.279 -0.9791 1.6597 -1.68895 0.3807 -0.7099 0.5502 -1.5139 0.48855 -2.31705 -0.01135 -0.1509 0.02215 -0.30175 0.09625 -0.43365 0.0741 -0.13195 0.1855 -0.239 0.32025 -0.30785l0.363 -0.185v-0.8595Z" stroke-width="0.5"></path>
</svg>
