<?xml version="1.0" encoding="UTF-8"?>
<svg version="1.1" xmlns="http://www.w3.org/2000/svg" width="98" height="98">
<path d="M0 0 C2.24599495 1.43669429 4.36835124 2.95883208 6.48828125 4.57421875 C7.51953125 5.31671875 8.55078125 6.05921875 9.61328125 6.82421875 C18.009256 14.85515112 24.4036941 26.09403907 24.7265625 37.91796875 C25.03479302 52.19515087 23.34115622 62.9562726 14.48828125 74.57421875 C13.74578125 75.60546875 13.00328125 76.63671875 12.23828125 77.69921875 C4.20734888 86.0951935 -7.03153907 92.4896316 -18.85546875 92.8125 C-33.13265087 93.12073052 -43.8937726 91.42709372 -55.51171875 82.57421875 C-56.54296875 81.83171875 -57.57421875 81.08921875 -58.63671875 80.32421875 C-67.0326935 72.29328638 -73.4271316 61.05439843 -73.75 49.23046875 C-74.05823052 34.95328663 -72.36459372 24.1921649 -63.51171875 12.57421875 C-62.76921875 11.54296875 -62.02671875 10.51171875 -61.26171875 9.44921875 C-45.77830917 -6.73798217 -19.65600268 -11.15776202 0 0 Z " fill="#FE0520" transform="translate(73.51171875,5.42578125)"/>
<path d="M0 0 C0.99 0.33 1.98 0.66 3 1 C3.85350327 5.24563163 4.10234664 8.78514521 3 13 C0.82872691 15.03062382 -1.06142704 16.5686724 -3.5 18.1875 C-7.99251069 21.13431365 -7.99251069 21.13431365 -11.3203125 25.26953125 C-11.72275736 28.21563403 -11.50824532 29.40742446 -10 32 C-7.29344804 34.17170283 -4.54315167 36.12001192 -1.65600586 38.03662109 C1.47272271 40.26814392 2.87749652 41.53160435 3.86328125 45.30078125 C3.81747892 48.29907251 3.59046671 51.06280662 3 54 C1.515 54.495 1.515 54.495 0 55 C-2.16183775 53.59616988 -4.07860351 52.18882873 -6.0625 50.5625 C-10.8726312 46.61454641 -10.8726312 46.61454641 -16.078125 43.21875 C-19.70426363 41.02234603 -22.27244006 39.14738182 -23.67431641 35.00976562 C-24.94105955 29.26193402 -25.11790779 23.55499618 -23 18 C-19.35556479 12.99971638 -14.24590524 9.59451203 -9.06591797 6.32910156 C-7.01151495 5.00740811 -5.09897442 3.57027343 -3.16015625 2.0859375 C-2.11730469 1.39757812 -1.07445312 0.70921875 0 0 Z " fill="#FFFAFB" transform="translate(76,21)"/>
<path d="M0 0 C5.26059858 1.57509116 8.93413717 4.97512421 13.0625 8.4375 C14.46957752 9.60343753 15.87711526 10.76881993 17.28515625 11.93359375 C17.90269775 12.44978271 18.52023926 12.96597168 19.15649414 13.49780273 C21.00670519 15.05535148 21.00670519 15.05535148 23.17260742 16.44213867 C25.93943933 18.80087673 25.85270209 20.87358467 26.16577148 24.36083984 C26.51745005 34.85819032 26.51745005 34.85819032 23.52490234 39.08203125 C19.80256921 42.86407049 15.54350634 45.84827298 11.06591797 48.67089844 C9.01151495 49.99259189 7.09897442 51.42972657 5.16015625 52.9140625 C4.11730469 53.60242188 3.07445312 54.29078125 2 55 C1.01 54.67 0.02 54.34 -1 54 C-1.85350327 49.75436837 -2.10234664 46.21485479 -1 42 C1.17127309 39.96937618 3.06142704 38.4313276 5.5 36.8125 C9.99251069 33.86568635 9.99251069 33.86568635 13.3203125 29.73046875 C13.72275736 26.78436597 13.50824532 25.59257554 12 23 C9.29396435 20.82871145 6.54213315 18.88138054 3.65820312 16.96118164 C0.55808955 14.7449101 -0.87412698 13.45752106 -1.8984375 9.734375 C-1.84233294 1.84233294 -1.84233294 1.84233294 0 0 Z " fill="#FFFAFB" transform="translate(20,21)"/>
</svg>
