<?xml version="1.0" encoding="UTF-8"?>
<svg version="1.1" xmlns="http://www.w3.org/2000/svg" width="98" height="98">
<path d="M0 0 C1.05184479 -0.01283524 2.10368958 -0.02567047 3.18740845 -0.03889465 C4.32487518 -0.04628159 5.46234192 -0.05366852 6.63427734 -0.0612793 C7.80727386 -0.06935104 8.98027039 -0.07742279 10.18881226 -0.08573914 C12.67533897 -0.09958035 15.16188469 -0.11030233 17.6484375 -0.11816406 C21.43445369 -0.13533585 25.2195874 -0.17921873 29.00537109 -0.22338867 C31.42333343 -0.23351938 33.84130319 -0.2420343 36.25927734 -0.2487793 C37.38459869 -0.26628738 38.50992004 -0.28379547 39.66934204 -0.30183411 C49.04464937 -0.27621851 56.27690174 2.01617931 63.27490234 8.39575195 C68.06207459 13.82597719 70.94539144 20.10910319 71.0222168 27.33178711 C71.04146965 28.90955429 71.04146965 28.90955429 71.06111145 30.51919556 C71.06849838 31.65666229 71.07588531 32.79412903 71.08349609 33.96606445 C71.09156784 35.13906097 71.09963959 36.3120575 71.10795593 37.52059937 C71.12179715 40.00712608 71.13251913 42.4936718 71.14038086 44.98022461 C71.15755265 48.76624079 71.20143552 52.55137451 71.24560547 56.3371582 C71.25573618 58.75512054 71.26425109 61.1730903 71.27099609 63.59106445 C71.28850418 64.7163858 71.30601227 65.84170715 71.3240509 67.00112915 C71.29843531 76.37643648 69.00603749 83.60868885 62.62646484 90.60668945 C57.19623961 95.3938617 50.91311361 98.27717855 43.69042969 98.35400391 C42.6385849 98.36683914 41.58674011 98.37967438 40.50302124 98.39289856 C39.3655545 98.40028549 38.22808777 98.40767242 37.05615234 98.4152832 C35.88315582 98.42335495 34.7101593 98.4314267 33.50161743 98.43974304 C31.01509072 98.45358426 28.528545 98.46430624 26.04199219 98.47216797 C22.255976 98.48933976 18.47084229 98.53322263 14.68505859 98.57739258 C12.26709625 98.58752329 9.8491265 98.5960382 7.43115234 98.6027832 C5.74317032 98.62904533 5.74317032 98.62904533 4.02108765 98.65583801 C-5.35421968 98.63022242 -12.58647205 96.3378246 -19.58447266 89.95825195 C-24.37164491 84.52802672 -27.25496175 78.24490071 -27.33178711 71.0222168 C-27.34462234 69.97037201 -27.35745758 68.91852722 -27.37068176 67.83480835 C-27.3780687 66.69734161 -27.38545563 65.55987488 -27.39306641 64.38793945 C-27.40113815 63.21494293 -27.4092099 62.04194641 -27.41752625 60.83340454 C-27.43136746 58.34687783 -27.44208944 55.86033211 -27.44995117 53.3737793 C-27.46712296 49.58776311 -27.51100584 45.8026294 -27.55517578 42.0168457 C-27.56530649 39.59888336 -27.57382141 37.18091361 -27.58056641 34.76293945 C-27.59807449 33.6376181 -27.61558258 32.51229675 -27.63362122 31.35287476 C-27.60800562 21.97756743 -25.3156078 14.74531506 -18.93603516 7.74731445 C-13.50580992 2.9601422 -7.22268392 0.07682536 0 0 Z " fill="#FE0420" transform="translate(27.15478515625,-0.177001953125)"/>
<path d="M0 0 C0.99 0.33 1.98 0.66 3 1 C3.85350327 5.24563163 4.10234664 8.78514521 3 13 C0.82872691 15.03062382 -1.06142704 16.5686724 -3.5 18.1875 C-7.99251069 21.13431365 -7.99251069 21.13431365 -11.3203125 25.26953125 C-11.72275736 28.21563403 -11.50824532 29.40742446 -10 32 C-7.29344804 34.17170283 -4.54315167 36.12001192 -1.65600586 38.03662109 C1.47272271 40.26814392 2.87749652 41.53160435 3.86328125 45.30078125 C3.81747892 48.29907251 3.59046671 51.06280662 3 54 C1.515 54.495 1.515 54.495 0 55 C-2.16183775 53.59616988 -4.07860351 52.18882873 -6.0625 50.5625 C-10.8726312 46.61454641 -10.8726312 46.61454641 -16.078125 43.21875 C-19.70426363 41.02234603 -22.27244006 39.14738182 -23.67431641 35.00976562 C-24.94105955 29.26193402 -25.11790779 23.55499618 -23 18 C-19.35556479 12.99971638 -14.24590524 9.59451203 -9.06591797 6.32910156 C-7.01151495 5.00740811 -5.09897442 3.57027343 -3.16015625 2.0859375 C-2.11730469 1.39757812 -1.07445312 0.70921875 0 0 Z " fill="#FFFAFB" transform="translate(76,21)"/>
<path d="M0 0 C5.26059858 1.57509116 8.93413717 4.97512421 13.0625 8.4375 C14.46957752 9.60343753 15.87711526 10.76881993 17.28515625 11.93359375 C17.90269775 12.44978271 18.52023926 12.96597168 19.15649414 13.49780273 C21.00670519 15.05535148 21.00670519 15.05535148 23.17260742 16.44213867 C25.93943933 18.80087673 25.85270209 20.87358467 26.16577148 24.36083984 C26.51745005 34.85819032 26.51745005 34.85819032 23.52490234 39.08203125 C19.80256921 42.86407049 15.54350634 45.84827298 11.06591797 48.67089844 C9.01151495 49.99259189 7.09897442 51.42972657 5.16015625 52.9140625 C4.11730469 53.60242188 3.07445312 54.29078125 2 55 C1.01 54.67 0.02 54.34 -1 54 C-1.85350327 49.75436837 -2.10234664 46.21485479 -1 42 C1.17127309 39.96937618 3.06142704 38.4313276 5.5 36.8125 C9.99251069 33.86568635 9.99251069 33.86568635 13.3203125 29.73046875 C13.72275736 26.78436597 13.50824532 25.59257554 12 23 C9.29396435 20.82871145 6.54213315 18.88138054 3.65820312 16.96118164 C0.55808955 14.7449101 -0.87412698 13.45752106 -1.8984375 9.734375 C-1.84233294 1.84233294 -1.84233294 1.84233294 0 0 Z " fill="#FFFAFB" transform="translate(20,21)"/>
</svg>
