<svg width="300" height="300" viewBox="0 0 300 300" fill="none" xmlns="http://www.w3.org/2000/svg">
<g clip-path="url(#clip0_5_147)">
<path d="M300 0H0V300H300V0Z" fill="black"/>
<path d="M150.446 156.931C165.115 156.931 179.343 162.127 190.18 172.31L250.904 229.292H221.787L175.743 186.1C168.97 179.768 159.94 176.381 150.457 176.381C140.975 176.381 131.945 179.768 125.172 186.1L79.1289 229.292H50.0115L110.735 172.31C121.572 162.138 135.789 156.931 150.469 156.931H150.446ZM150.446 143.372C135.777 143.372 121.549 138.177 110.712 127.993L50 71H79.1174L125.161 114.191C131.933 120.524 140.964 123.911 150.446 123.911C159.928 123.911 168.959 120.524 175.731 114.191L221.775 71H250.892L190.168 127.982C179.332 138.153 165.115 143.361 150.434 143.361L150.446 143.372Z" fill="white"/>
</g>
<defs>
<clipPath id="clip0_5_147">
<rect width="300" height="300" rx="150" fill="white"/>
</clipPath>
</defs>
</svg>
