<svg width="512" height="512" viewBox="0 0 512 512" fill="none" xmlns="http://www.w3.org/2000/svg">
<g clip-path="url(#clip0_119_3)">
<path d="M512 0H0V512H512V0Z" fill="#040404"/>
<path d="M255.989 267.558C280.912 267.558 305.086 276.409 323.498 293.757L426.667 390.827H377.196L298.969 317.25C287.463 306.46 272.12 300.691 256.01 300.691C239.9 300.691 224.557 306.46 213.05 317.25L134.823 390.827H85.353L188.523 293.757C206.933 276.429 231.088 267.558 256.03 267.558H255.989ZM255.989 244.461C231.068 244.461 206.894 235.609 188.482 218.262L85.3335 121.173H134.803L213.031 194.751C224.538 205.539 239.881 211.308 255.989 211.308C272.099 211.308 287.442 205.539 298.949 194.751L377.177 121.173H426.647L323.478 218.242C305.067 235.57 280.912 244.442 255.97 244.442L255.989 244.461Z" fill="white"/>
</g>
<defs>
<clipPath id="clip0_119_3">
<rect width="512" height="512" rx="256" fill="white"/>
</clipPath>
</defs>
</svg>
