<svg width="300" height="300" viewBox="0 0 300 300" fill="none" xmlns="http://www.w3.org/2000/svg">
<rect width="300" height="300" fill="black"/>
<path d="M162.377 156.931C177.046 156.931 191.274 162.127 202.111 172.31L262.835 229.292H233.718L187.674 186.1C180.901 179.768 171.871 176.381 162.388 176.381C152.906 176.381 143.876 179.768 137.103 186.1L91.0596 229.292H61.9422L122.666 172.31C133.503 162.138 147.72 156.931 162.4 156.931H162.377ZM162.377 143.372C147.708 143.372 133.48 138.177 122.643 127.993L61.9307 71H91.0481L137.092 114.191C143.864 120.524 152.895 123.911 162.377 123.911C171.859 123.911 180.89 120.524 187.662 114.191L233.706 71H262.823L202.099 127.982C191.263 138.153 177.046 143.361 162.365 143.361L162.377 143.372Z" fill="white"/>
<path d="M111.587 150.158L48.1534 203.973C43.4183 208.265 38 206.235 38 199.903V100.402C38 94.0691 43.4183 92.0394 48.1534 96.3308L111.587 150.146V150.158Z" fill="white"/>
</svg>
