<?xml version="1.0" encoding="UTF-8" standalone="no"?>
<!DOCTYPE svg PUBLIC "-//W3C//DTD SVG 1.1//EN" "http://www.w3.org/Graphics/SVG/1.1/DTD/svg11.dtd">
<svg width="100%" height="100%" viewBox="0 0 328 328" version="1.1" xmlns="http://www.w3.org/2000/svg" xmlns:xlink="http://www.w3.org/1999/xlink" xml:space="preserve" xmlns:serif="http://www.serif.com/" style="fill-rule:evenodd;clip-rule:evenodd;stroke-linejoin:round;stroke-miterlimit:1.41421;">
  <rect id="Page-5" serif:id="Page 5" x="-519" y="-228" width="1366" height="768" style="fill:none;"/>
  <g id="Layer-1" serif:id="Layer 1">
    <path d="M264.02,56.858c-31.022,-11.562 -64.566,-17.858 -99.594,-17.858c-35.029,0 -68.574,6.296 -99.595,17.858c-14.367,5.324 -28.162,11.733 -41.325,19.232c1.945,15.226 5.037,30.107 9.274,44.531c12.247,-7.899 25.299,-14.768 38.921,-20.377c28.561,-11.79 59.87,-18.316 92.725,-18.316c32.853,0 64.164,6.526 92.724,18.316c13.622,5.609 26.673,12.478 38.923,20.377c4.233,-14.424 7.326,-29.305 9.271,-44.531c-13.164,-7.499 -26.959,-13.908 -41.325,-19.232" style="fill:#0a2052;fill-rule:nonzero;"/>
    <path d="M246.331,132.984l-0.056,0c-17.172,41.841 -45.734,77.901 -81.849,104.172c-36.117,-26.271 -64.68,-62.331 -81.852,-104.172l-0.055,0c-3.665,1.316 -7.27,2.69 -10.819,4.178c-9.731,4.007 -19.116,8.643 -28.161,13.853c17.915,42.813 46.02,80.362 81.221,109.609c12.364,10.303 25.642,19.575 39.666,27.647c14.022,-8.072 27.3,-17.344 39.664,-27.647c35.201,-29.247 63.305,-66.796 81.22,-109.609c-9.042,-5.21 -18.429,-9.846 -28.161,-13.853c-3.548,-1.488 -7.154,-2.862 -10.818,-4.178" style="fill:#31c8c4;fill-rule:nonzero;"/>
  </g>
</svg>
