<svg width="1532" height="247" viewBox="0 0 1532 247" fill="none" xmlns="http://www.w3.org/2000/svg">
<g clip-path="url(#clip0)">
<path d="M148.354 134.603L152.72 74.4431L170.498 31.5908H94.5015L112.279 74.4431L116.645 134.603L117.997 153.579L118.101 200.289H146.898L147.002 153.579L148.354 134.603Z" fill="url(#paint0_linear)"/>
<path d="M244.727 123.029L190.355 107.077L206.781 131.996L182.246 179.957L214.682 179.54H262.92L244.727 123.029Z" fill="url(#paint1_linear)"/>
<path d="M74.6449 107.077L20.2726 123.029L2.18311 179.54H50.4216L82.7539 179.957L58.2188 131.996L74.6449 107.077Z" fill="url(#paint2_linear)"/>
<path d="M153.76 164.735L146.899 200.289L151.889 203.729L182.246 179.957L183.182 156.081L153.76 164.735Z" fill="#ACACAC"/>
<path d="M81.9224 156.081L82.7541 179.957L113.111 203.729L118.101 200.289L111.24 164.735L81.9224 156.081Z" fill="#ACACAC"/>
<path d="M256.267 82.0553L265 39.5158L251.9 0L151.889 74.4441L189.211 108.017L244.727 123.031L256.683 108.955L251.485 105.202L259.802 97.5906L253.46 92.5859L261.777 86.2258L256.267 82.0553Z" fill="url(#paint3_linear)"/>
<path d="M8.73266 82.0553L-0.000171178 39.5158L13.0991 0L113.111 74.4441L75.7884 108.017L20.2725 123.031L8.31682 108.955L13.5149 105.202L5.19795 97.5906L11.5396 92.5859L3.22265 86.2258L8.73266 82.0553Z" fill="url(#paint4_linear)"/>
<path d="M58.2188 131.997L81.9222 156.082L82.7539 179.958L58.2188 131.997Z" fill="#8D8D8D"/>
<path d="M206.781 131.997L182.246 179.958L183.181 156.082L206.781 131.997Z" fill="#8D8D8D"/>
<path d="M187.132 220.935L151.889 203.731L154.696 226.774L154.384 236.47L187.132 220.935Z" fill="#FF9F5A"/>
<path d="M77.8677 220.934L110.616 236.469L110.408 226.773L113.111 203.73L77.8677 220.934Z" fill="#FF9F5A"/>
<path d="M214.682 179.542L187.132 220.935L246.079 237.2L262.921 179.542H214.682Z" fill="url(#paint5_linear)"/>
<path d="M2.18311 179.542L18.921 237.2L77.8677 220.935L50.4216 179.542H2.18311Z" fill="url(#paint6_linear)"/>
<path d="M13.0991 0L113.111 74.4441L97.4126 31.5918L13.0991 0Z" fill="#757575"/>
<path d="M167.587 31.5918L151.889 74.4441L251.9 0L167.587 31.5918Z" fill="#757575"/>
<path d="M74.6448 107.079L58.2188 131.998L116.646 134.604L113.111 74.4443L74.6448 107.079Z" fill="url(#paint7_linear)"/>
<path d="M190.355 107.079L151.889 74.4443L148.354 134.604L206.781 131.998L190.355 107.079Z" fill="url(#paint8_linear)"/>
<path d="M77.8677 220.934L113.111 203.731L82.7539 179.959L77.8677 220.934Z" fill="url(#paint9_linear)"/>
<path d="M151.889 203.731L187.132 220.934L182.246 179.959L151.889 203.731Z" fill="url(#paint10_linear)"/>
<path d="M182.246 179.958L187.132 220.934L214.682 179.541L182.246 179.958Z" fill="url(#paint11_linear)"/>
<path d="M82.7539 179.958L77.8677 220.934L50.3177 179.541L82.7539 179.958Z" fill="url(#paint12_linear)"/>
<path d="M206.781 131.997L148.354 134.604L153.761 164.736L162.389 146.594L183.182 156.082L206.781 131.997Z" fill="#666666"/>
<path d="M81.9222 156.082L102.611 146.594L111.24 164.736L116.646 134.604L58.2188 131.997L81.9222 156.082Z" fill="#666666"/>
<path d="M153.76 164.736L147.002 153.579L148.354 134.604L153.76 164.736Z" fill="#8D8D8D"/>
<path d="M111.24 164.736L116.646 134.604L117.997 153.579L111.24 164.736Z" fill="#8D8D8D"/>
<path d="M147.003 153.58L153.76 164.736L146.899 200.29L147.003 153.58Z" fill="#8D8D8D"/>
<path d="M117.997 153.58L118.101 200.29L111.24 164.736L117.997 153.58Z" fill="#8D8D8D"/>
<path d="M154.571 236.345L154.696 226.773L152.097 224.48H112.903L110.408 226.773L110.616 236.47L77.8677 220.935L89.3035 230.318L112.591 246.479H152.409L175.696 230.318L187.132 220.935L154.571 236.345Z" fill="#DF7554"/>
<path d="M151.889 203.731L146.899 200.29H118.101L113.111 203.731L110.408 226.773L112.903 224.479H152.097L154.696 226.773L151.889 203.731Z" fill="#161616" stroke="#161616" stroke-width="0.0657594" stroke-miterlimit="10" stroke-linejoin="round"/>
<path d="M162.389 146.594L153.76 164.736L183.182 156.082L162.389 146.594Z" fill="#161616"/>
<path d="M102.611 146.594L111.24 164.736L81.9224 156.082L102.611 146.594Z" fill="#161616"/>
<path d="M256.683 108.955L251.485 105.202L259.802 97.5905L253.46 92.5859L261.777 86.2258L256.267 82.0553L265 39.5158L251.901 0L167.587 31.5918H97.4127L13.0993 0L0 39.5158L8.8368 82.0553L3.22283 86.2258L11.5398 92.5859L5.19812 97.5905L13.5151 105.202L8.31699 108.955L20.2727 123.031L2.18321 179.542L18.9211 237.199L77.8678 220.934L113.111 203.731L110.231 227.044L112.903 224.583L152.097 224.479L154.696 226.773L151.889 203.731L187.132 220.934L246.079 237.199L262.921 179.542L244.727 123.031L256.683 108.955Z" fill="url(#paint13_linear)" fill-opacity="0.1" style="mix-blend-mode:color-dodge"/>
<path d="M256.683 108.955L251.485 105.202L259.802 97.5905L253.46 92.5859L261.777 86.2258L256.267 82.0553L265 39.5158L251.901 0L167.587 31.5918H97.4127L13.0993 0L0 39.5158L8.8368 82.0553L3.22283 86.2258L11.5398 92.5859L5.19812 97.5905L13.5151 105.202L8.31699 108.955L20.2727 123.031L2.18321 179.542L18.9211 237.199L77.8678 220.934L113.111 203.731L117.997 200.186H125.275H139.829H147.107L151.889 203.731L187.132 220.934L246.079 237.199L262.921 179.542L244.727 123.031L256.683 108.955Z" fill="url(#paint14_radial)" style="mix-blend-mode:overlay"/>
</g>
<path d="M1166.17 120.732C1159.42 116.127 1151.72 112.742 1144.35 108.759C1139.75 106.295 1134.84 103.855 1130.83 100.47C1124.08 94.944 1125.3 83.5933 1132.67 78.6647C1143.11 71.9189 1160.02 75.603 1161.86 89.7167C1161.86 90.0154 1162.16 90.339 1162.48 90.339H1178.15C1178.44 90.339 1178.77 90.0403 1178.77 89.7167C1177.85 79.8844 1174.16 71.9189 1167.41 66.6916C1160.94 61.763 1153.27 59 1145.27 59C1104.11 59 1100.42 102.611 1122.54 116.426C1125 117.969 1146.82 129.021 1154.49 133.626C1162.16 138.53 1164.62 147.143 1161.24 153.888C1158.17 160.335 1150.18 164.318 1142.48 164.019C1133.89 163.721 1127.12 158.792 1124.98 151.424C1124.68 150.204 1124.36 147.74 1124.36 146.52C1124.36 146.222 1124.06 145.898 1123.73 145.898H1106.85C1106.55 145.898 1106.23 146.197 1106.23 146.52C1106.23 158.792 1109.29 165.563 1117.58 171.711C1125.25 177.536 1133.87 180 1142.78 180C1165.82 180 1177.8 166.807 1180.26 153.291C1182.13 140.372 1178.14 128.399 1166.17 120.732Z" fill="white"/>
<path d="M433.192 61.4634H425.522H417.229C416.931 61.4634 416.607 61.7621 416.607 61.7621L402.786 107.514C402.487 108.136 401.865 108.136 401.566 107.514L388.044 61.7621C388.044 61.4634 387.745 61.4634 387.421 61.4634H379.129H371.758H361.623C361.299 61.4634 361 61.7621 361 62.0608V178.754C361 179.053 361.299 179.377 361.623 179.377H378.506C378.805 179.377 379.129 179.078 379.129 178.754V90.0145C379.129 89.3922 380.05 89.0935 380.349 89.7158L394.469 135.766L395.39 138.828C395.39 139.126 395.689 139.126 396.013 139.126H408.912C409.211 139.126 409.535 138.828 409.535 138.828L410.456 135.766L424.576 89.7158C424.576 89.0935 425.497 89.4171 425.497 90.0145V178.754C425.497 179.053 425.796 179.377 426.12 179.377H443.003C443.302 179.377 443.626 179.078 443.626 178.754V62.0608C443.626 61.7621 443.327 61.4385 443.003 61.4385L433.192 61.4634Z" fill="white"/>
<path d="M907.506 61.4634C907.207 61.4634 906.883 61.7621 906.883 61.7621L893.063 107.514C892.764 108.136 892.141 108.136 891.842 107.514L878.022 61.7621C878.022 61.4634 877.723 61.4634 877.399 61.4634H851.6C851.301 61.4634 850.978 61.7621 850.978 62.0857V178.779C850.978 179.078 851.276 179.402 851.6 179.402H868.484C868.783 179.402 869.106 179.103 869.106 178.779V90.0145C869.106 89.3922 870.028 89.0935 870.327 89.7158L884.446 135.766L885.368 138.828C885.368 139.126 885.667 139.126 885.99 139.126H898.89C899.189 139.126 899.512 138.828 899.512 138.828L900.434 135.766L914.553 89.7158C914.852 89.0935 915.773 89.0935 915.773 90.0145V178.754C915.773 179.053 916.072 179.377 916.396 179.377H933.28C933.579 179.377 933.902 179.078 933.902 178.754V62.0608C933.902 61.7621 933.604 61.4385 933.28 61.4385L907.506 61.4634Z" fill="white"/>
<path d="M690.01 61.4648H658.359H641.475H610.148C609.849 61.4648 609.525 61.7635 609.525 62.0871V76.5245C609.525 76.8232 609.824 77.1468 610.148 77.1468H640.877V178.482C640.877 178.781 641.176 179.104 641.5 179.104H658.384C658.683 179.104 659.006 178.806 659.006 178.482V77.1219H689.711C690.01 77.1219 690.333 76.8232 690.333 76.4996V62.0623C690.632 61.7635 690.309 61.4648 690.01 61.4648Z" fill="white"/>
<path d="M789.545 179.377H804.91C805.208 179.377 805.532 179.078 805.532 178.456L773.582 61.4637C773.582 61.165 773.284 61.165 772.96 61.165H767.133H756.699H751.17C750.872 61.165 750.548 61.4637 750.548 61.4637L718.897 178.456C718.897 178.755 719.196 179.377 719.52 179.377H734.884C735.183 179.377 735.507 179.078 735.507 179.078L744.721 145.001C744.721 144.703 745.02 144.703 745.343 144.703H779.435C779.733 144.703 780.057 145.001 780.057 145.001L789.271 179.078C788.922 179.054 789.246 179.377 789.545 179.377ZM749.004 127.776L761.281 82.3232C761.58 81.7009 762.202 81.7009 762.501 82.3232L774.778 127.776C774.778 128.075 774.479 128.697 774.155 128.697H749.577C749.303 128.398 749.004 128.1 749.004 127.776Z" fill="white"/>
<path d="M1051.59 179.377H1066.96C1067.26 179.377 1067.58 179.078 1067.58 178.456L1035.63 61.4637C1035.63 61.165 1035.33 61.165 1035.01 61.165H1029.18H1018.75H1012.92C1012.62 61.165 1012.3 61.4637 1012.3 61.4637L980.646 178.456C980.646 178.755 980.944 179.377 981.268 179.377H996.633C996.932 179.377 997.255 179.078 997.255 179.078L1006.47 145.001C1006.47 144.703 1006.77 144.703 1007.09 144.703H1041.18C1041.48 144.703 1041.81 145.001 1041.81 145.001L1051.02 179.078C1050.97 179.054 1051.27 179.377 1051.59 179.377ZM1011.03 127.776L1023.3 82.3232C1023.6 81.7009 1024.22 81.7009 1024.52 82.3232L1036.8 127.776C1036.8 128.075 1036.5 128.697 1036.18 128.697H1011.6C1011.35 128.398 1011.03 128.1 1011.03 127.776Z" fill="white"/>
<path d="M512.132 162.176V125.934C512.132 125.635 512.431 125.311 512.755 125.311H557.604C557.903 125.311 558.227 125.013 558.227 124.689V110.252C558.227 109.953 557.928 109.629 557.604 109.629H512.755C512.456 109.629 512.132 109.331 512.132 109.007V77.7427C512.132 77.444 512.431 77.1204 512.755 77.1204H563.755C564.054 77.1204 564.377 76.8217 564.377 76.4981V62.0608C564.377 61.7621 564.079 61.4385 563.755 61.4385H512.132H494.626C494.327 61.4385 494.003 61.7372 494.003 62.0608V77.0955V109.331V124.988V162.45V178.406C494.003 178.705 494.302 179.028 494.626 179.028H512.132H566.195C566.494 179.028 566.818 178.73 566.818 178.406V163.048C566.818 162.749 566.519 162.425 566.195 162.425H512.755C512.456 162.799 512.132 162.475 512.132 162.176Z" fill="white"/>
<path d="M1320.39 178.132L1262.02 117.645C1261.72 117.346 1261.72 117.022 1262.02 116.724L1314.54 62.3844C1314.83 62.0857 1314.54 61.4634 1314.24 61.4634H1292.72C1292.42 61.4634 1292.42 61.4634 1292.42 61.7621L1247.87 108.136C1247.57 108.435 1246.95 108.136 1246.95 107.837V62.0608C1246.95 61.7621 1246.65 61.4385 1246.33 61.4385H1229.44C1229.15 61.4385 1228.82 61.7372 1228.82 62.0608V178.754C1228.82 179.053 1229.12 179.377 1229.44 179.377H1246.33C1246.63 179.377 1246.95 179.078 1246.95 178.754V127.178C1246.95 126.556 1247.57 126.257 1247.87 126.88L1298.25 179.078L1298.55 179.377H1320.06C1320.69 179.377 1320.99 178.754 1320.39 178.132Z" fill="white"/>
<rect x="1338" y="27" width="194" height="84" rx="12" fill="#24292E"/>
<path d="M1358 50.6376H1380.89V58.7139H1366.33V65.515H1377.7V73.5913H1366.33V88.3624H1358V50.6376Z" fill="white"/>
<path d="M1386.55 50.6376H1394.87V80.2861H1410.28V88.3624H1386.55V50.6376Z" fill="white"/>
<path d="M1427.39 50.6376H1434.94L1450.86 88.3624H1442.17L1438.87 80.3924H1423.46L1420.16 88.3624H1411.47L1427.39 50.6376ZM1426.45 73.0599H1435.83L1431.16 61.7425L1426.45 73.0599Z" fill="white"/>
<path d="M1464.82 89C1461.85 89 1459.18 88.4155 1456.81 87.2466C1454.43 86.0422 1452.51 84.3774 1451.04 82.252L1457.43 76.7793C1458.34 78.1253 1459.51 79.188 1460.94 79.9673C1462.38 80.7112 1463.77 81.0831 1465.13 81.0831C1466.53 81.0831 1467.63 80.7997 1468.43 80.233C1469.24 79.6308 1469.64 78.8692 1469.64 77.9482C1469.64 76.9918 1469.24 76.1594 1468.43 75.451C1467.67 74.7425 1466.34 74.0695 1464.45 73.4319L1461.83 72.5286C1458.8 71.5014 1456.47 70.0845 1454.87 68.2779C1453.26 66.436 1452.46 64.2221 1452.46 61.6362C1452.46 59.7943 1452.77 58.1649 1453.4 56.748C1454.06 55.2956 1454.95 54.0736 1456.07 53.0817C1457.22 52.0899 1458.59 51.3283 1460.16 50.797C1461.73 50.2657 1463.44 50 1465.29 50C1467.56 50 1469.69 50.3896 1471.68 51.1689C1473.67 51.9482 1475.54 53.2943 1477.29 55.2071L1471.84 61.0518C1470.97 59.9891 1469.97 59.2098 1468.85 58.7139C1467.74 58.1826 1466.58 57.9169 1465.4 57.9169C1464.84 57.9169 1464.28 57.97 1463.72 58.0763C1463.2 58.1826 1462.73 58.3597 1462.31 58.6076C1461.89 58.8556 1461.54 59.1567 1461.26 59.5109C1461.01 59.8651 1460.89 60.2902 1460.89 60.7861C1460.89 61.8134 1461.35 62.6281 1462.25 63.2302C1463.2 63.797 1464.66 64.4346 1466.65 65.1431L1469.27 66.0995C1471.96 67.0913 1474.11 68.5082 1475.72 70.3501C1477.36 72.1921 1478.16 74.53 1478.13 77.3638C1478.13 79.064 1477.79 80.6403 1477.13 82.0926C1476.47 83.5095 1475.54 84.7316 1474.35 85.7589C1473.2 86.7861 1471.81 87.5831 1470.16 88.1499C1468.56 88.7166 1466.78 89 1464.82 89Z" fill="white"/>
<path d="M1492.17 71.4659V88.3624H1483.9V50.6376H1492.17V66.4183L1504.8 50.6376H1515.01L1500.35 68.7561L1518 88.3624H1507.31L1492.17 71.4659Z" fill="white"/>
<defs>
<linearGradient id="paint0_linear" x1="132.5" y1="31.5908" x2="132.5" y2="200.289" gradientUnits="userSpaceOnUse">
<stop stop-color="#8F8F8F"/>
<stop offset="1" stop-color="#AEAEAE"/>
</linearGradient>
<linearGradient id="paint1_linear" x1="222.583" y1="107.077" x2="222.583" y2="179.957" gradientUnits="userSpaceOnUse">
<stop stop-color="#696969"/>
<stop offset="1" stop-color="#A6A6A6"/>
</linearGradient>
<linearGradient id="paint2_linear" x1="42.4685" y1="107.077" x2="42.4685" y2="179.957" gradientUnits="userSpaceOnUse">
<stop stop-color="#696969"/>
<stop offset="1" stop-color="#A6A6A6"/>
</linearGradient>
<linearGradient id="paint3_linear" x1="184.533" y1="102.178" x2="279.867" y2="27.8973" gradientUnits="userSpaceOnUse">
<stop stop-color="#1B1B1B"/>
<stop offset="1" stop-color="#565656"/>
</linearGradient>
<linearGradient id="paint4_linear" x1="80.4668" y1="102.178" x2="-14.8672" y2="27.8973" gradientUnits="userSpaceOnUse">
<stop stop-color="#1B1B1B"/>
<stop offset="1" stop-color="#565656"/>
</linearGradient>
<linearGradient id="paint5_linear" x1="225.027" y1="179.542" x2="225.027" y2="237.2" gradientUnits="userSpaceOnUse">
<stop stop-color="#787878"/>
<stop offset="1" stop-color="#5E5E5E"/>
</linearGradient>
<linearGradient id="paint6_linear" x1="40.0254" y1="179.542" x2="40.0254" y2="237.2" gradientUnits="userSpaceOnUse">
<stop stop-color="#787878"/>
<stop offset="1" stop-color="#5E5E5E"/>
</linearGradient>
<linearGradient id="paint7_linear" x1="87.4322" y1="74.4443" x2="87.4322" y2="134.604" gradientUnits="userSpaceOnUse">
<stop stop-color="#7A7A7A"/>
<stop offset="1" stop-color="#949494"/>
</linearGradient>
<linearGradient id="paint8_linear" x1="177.568" y1="74.4443" x2="177.568" y2="134.604" gradientUnits="userSpaceOnUse">
<stop stop-color="#7A7A7A"/>
<stop offset="1" stop-color="#949494"/>
</linearGradient>
<linearGradient id="paint9_linear" x1="95.4893" y1="245.645" x2="95.4893" y2="-25.2885" gradientUnits="userSpaceOnUse">
<stop stop-color="#7A7C7D"/>
<stop offset="1" stop-color="#CECECF"/>
</linearGradient>
<linearGradient id="paint10_linear" x1="169.51" y1="245.645" x2="169.51" y2="-25.2885" gradientUnits="userSpaceOnUse">
<stop stop-color="#7A7C7D"/>
<stop offset="1" stop-color="#CECECF"/>
</linearGradient>
<linearGradient id="paint11_linear" x1="198.464" y1="126.784" x2="198.464" y2="234.065" gradientUnits="userSpaceOnUse">
<stop stop-color="#3E3E3E"/>
<stop offset="1" stop-color="#616161"/>
</linearGradient>
<linearGradient id="paint12_linear" x1="66.5358" y1="126.784" x2="66.5358" y2="234.065" gradientUnits="userSpaceOnUse">
<stop stop-color="#3E3E3E"/>
<stop offset="1" stop-color="#616161"/>
</linearGradient>
<linearGradient id="paint13_linear" x1="132.032" y1="31.279" x2="132.032" y2="258.573" gradientUnits="userSpaceOnUse">
<stop stop-color="#FF60DC"/>
<stop offset="1" stop-color="#6B71FF"/>
</linearGradient>
<radialGradient id="paint14_radial" cx="0" cy="0" r="1" gradientUnits="userSpaceOnUse" gradientTransform="translate(132.032 26.5872) rotate(90) scale(218.953 244.615)">
<stop stop-color="#FF60DC"/>
<stop offset="1" stop-color="#6B71FF"/>
</radialGradient>
<clipPath id="clip0">
<rect width="265" height="247" fill="white"/>
</clipPath>
</defs>
</svg>
