<svg width="35" height="33" viewBox="0 0 35 33" fill="none" xmlns="http://www.w3.org/2000/svg">
<g clip-path="url(#clip0)">
<path d="M19.5935 17.7525L20.1702 9.81845L22.5182 4.16699H12.481L14.8289 9.81845L15.4056 17.7525L15.5841 20.2551L15.5979 26.4153H19.4013L19.415 20.2551L19.5935 17.7525Z" fill="url(#paint0_linear)"/>
<path d="M32.3221 16.2259L25.1408 14.1221L27.3103 17.4084L24.0698 23.7337L28.3539 23.6787H34.725L32.3221 16.2259Z" fill="url(#paint1_linear)"/>
<path d="M9.8585 14.1221L2.67726 16.2259L0.288086 23.6787H6.65921L10.9295 23.7337L7.68903 17.4084L9.8585 14.1221Z" fill="url(#paint2_linear)"/>
<path d="M20.3076 21.7263L19.4014 26.4152L20.0604 26.8689L24.0699 23.7338L24.1934 20.585L20.3076 21.7263Z" fill="#ACACAC"/>
<path d="M10.8193 20.585L10.9292 23.7338L14.9386 26.8689L15.5977 26.4152L14.6914 21.7263L10.8193 20.585Z" fill="#ACACAC"/>
<path d="M33.8468 10.8216L35.0002 5.21144L33.2701 0L20.061 9.81785L24.9904 14.2455L32.3227 16.2256L33.9018 14.3693L33.2152 13.8742L34.3137 12.8705L33.4761 12.2104L34.5746 11.3717L33.8468 10.8216Z" fill="url(#paint3_linear)"/>
<path d="M1.15317 10.8216L-0.000226729 5.21144L1.72986 0L14.939 9.81785L10.0096 14.2455L2.67729 16.2256L1.09824 14.3693L1.78479 13.8742L0.686317 12.8705L1.5239 12.2104L0.425429 11.3717L1.15317 10.8216Z" fill="url(#paint4_linear)"/>
<path d="M7.68945 17.4082L10.8201 20.5846L10.9299 23.7334L7.68945 17.4082Z" fill="#8D8D8D"/>
<path d="M27.3108 17.4082L24.0703 23.7334L24.1939 20.5846L27.3108 17.4082Z" fill="#8D8D8D"/>
<path d="M24.7153 29.137L20.0605 26.8682L20.4313 29.907L20.3901 31.1858L24.7153 29.137Z" fill="#FF9F5A"/>
<path d="M10.2842 29.137L14.6094 31.1858L14.5819 29.907L14.9389 26.8682L10.2842 29.137Z" fill="#FF9F5A"/>
<path d="M28.354 23.6787L24.7153 29.1377L32.5007 31.2827L34.7251 23.6787H28.354Z" fill="url(#paint5_linear)"/>
<path d="M0.288574 23.6787L2.49925 31.2827L10.2847 29.1377L6.6597 23.6787H0.288574Z" fill="url(#paint6_linear)"/>
<path d="M1.72998 0L14.9391 9.81785L12.8657 4.1664L1.72998 0Z" fill="#757575"/>
<path d="M22.1344 4.1664L20.061 9.81785L33.2701 0L22.1344 4.1664Z" fill="#757575"/>
<path d="M9.85844 14.1213L7.68896 17.4077L15.4057 17.7514L14.9389 9.81738L9.85844 14.1213Z" fill="url(#paint7_linear)"/>
<path d="M25.141 14.1213L20.0606 9.81738L19.5938 17.7514L27.3105 17.4077L25.141 14.1213Z" fill="url(#paint8_linear)"/>
<path d="M10.2842 29.1373L14.9389 26.8685L10.9295 23.7334L10.2842 29.1373Z" fill="url(#paint9_linear)"/>
<path d="M20.061 26.8685L24.7158 29.1373L24.0704 23.7334L20.061 26.8685Z" fill="url(#paint10_linear)"/>
<path d="M24.0698 23.7337L24.7152 29.1377L28.3539 23.6787L24.0698 23.7337Z" fill="url(#paint11_linear)"/>
<path d="M10.9297 23.7337L10.2843 29.1377L6.64565 23.6787L10.9297 23.7337Z" fill="url(#paint12_linear)"/>
<path d="M27.3105 17.4082L19.5938 17.752L20.3078 21.7259L21.4474 19.3333L24.1936 20.5846L27.3105 17.4082Z" fill="#666666"/>
<path d="M10.8196 20.5846L13.552 19.3333L14.6917 21.7259L15.4057 17.752L7.68896 17.4082L10.8196 20.5846Z" fill="#666666"/>
<path d="M20.308 21.7258L19.4155 20.2545L19.594 17.752L20.308 21.7258Z" fill="#8D8D8D"/>
<path d="M14.6919 21.7258L15.4059 17.752L15.5844 20.2545L14.6919 21.7258Z" fill="#8D8D8D"/>
<path d="M19.4156 20.2549L20.3081 21.7262L19.4019 26.4151L19.4156 20.2549Z" fill="#8D8D8D"/>
<path d="M15.5844 20.2549L15.5981 26.4151L14.6919 21.7262L15.5844 20.2549Z" fill="#8D8D8D"/>
<path d="M20.4148 31.169L20.4313 29.9067L20.088 29.6042H14.9115L14.5819 29.9067L14.6094 31.1855L10.2842 29.1367L11.7946 30.3743L14.8703 32.5056H20.1292L23.2049 30.3743L24.7153 29.1367L20.4148 31.169Z" fill="#DF7554"/>
<path d="M20.0607 26.8688L19.4016 26.415H15.5981L14.939 26.8688L14.582 29.9077L14.9116 29.6052H20.0881L20.4314 29.9077L20.0607 26.8688Z" fill="#161616" stroke="#161616" stroke-width="0.0657594" stroke-miterlimit="10" stroke-linejoin="round"/>
<path d="M21.4478 19.333L20.3081 21.7256L24.1939 20.5843L21.4478 19.333Z" fill="#161616"/>
<path d="M13.5523 19.333L14.6919 21.7256L10.8198 20.5843L13.5523 19.333Z" fill="#161616"/>
<path d="M33.9015 14.3693L33.215 13.8742L34.3135 12.8705L33.4759 12.2104L34.5743 11.3717L33.8466 10.8216L35 5.21144L33.2699 0L22.1342 4.1664H12.8658L1.73009 0L0 5.21144L1.16712 10.8216L0.425657 11.3717L1.52413 12.2104L0.686544 12.8705L1.78501 13.8742L1.09847 14.3693L2.67752 16.2256L0.288348 23.6783L2.49902 31.2824L10.2844 29.1373L14.9392 26.8685L14.5588 29.9431L14.9117 29.6186L20.0883 29.6048L20.4315 29.9073L20.0608 26.8685L24.7156 29.1373L32.501 31.2824L34.7254 23.6783L32.3225 16.2256L33.9015 14.3693Z" fill="url(#paint13_linear)" fill-opacity="0.1" style="mix-blend-mode:color-dodge"/>
<path d="M33.9015 14.3693L33.215 13.8742L34.3135 12.8705L33.4759 12.2104L34.5743 11.3717L33.8466 10.8216L35 5.21144L33.2699 0L22.1342 4.1664H12.8658L1.73009 0L0 5.21144L1.16712 10.8216L0.425657 11.3717L1.52413 12.2104L0.686544 12.8705L1.78501 13.8742L1.09847 14.3693L2.67752 16.2256L0.288348 23.6783L2.49902 31.2824L10.2844 29.1373L14.9392 26.8685L15.5845 26.4009H16.5457H18.468H19.4292L20.0608 26.8685L24.7156 29.1373L32.501 31.2824L34.7254 23.6783L32.3225 16.2256L33.9015 14.3693Z" fill="url(#paint14_radial)" style="mix-blend-mode:overlay"/>
</g>
<defs>
<linearGradient id="paint0_linear" x1="17.4996" y1="4.16699" x2="17.4996" y2="26.4153" gradientUnits="userSpaceOnUse">
<stop stop-color="#8F8F8F"/>
<stop offset="1" stop-color="#AEAEAE"/>
</linearGradient>
<linearGradient id="paint1_linear" x1="29.3974" y1="14.1221" x2="29.3974" y2="23.7337" gradientUnits="userSpaceOnUse">
<stop stop-color="#696969"/>
<stop offset="1" stop-color="#A6A6A6"/>
</linearGradient>
<linearGradient id="paint2_linear" x1="5.6088" y1="14.1221" x2="5.6088" y2="23.7337" gradientUnits="userSpaceOnUse">
<stop stop-color="#696969"/>
<stop offset="1" stop-color="#A6A6A6"/>
</linearGradient>
<linearGradient id="paint3_linear" x1="24.3725" y1="13.4755" x2="36.9499" y2="3.6613" gradientUnits="userSpaceOnUse">
<stop stop-color="#1B1B1B"/>
<stop offset="1" stop-color="#565656"/>
</linearGradient>
<linearGradient id="paint4_linear" x1="10.6275" y1="13.4755" x2="-1.94986" y2="3.6613" gradientUnits="userSpaceOnUse">
<stop stop-color="#1B1B1B"/>
<stop offset="1" stop-color="#565656"/>
</linearGradient>
<linearGradient id="paint5_linear" x1="29.7202" y1="23.6787" x2="29.7202" y2="31.2827" gradientUnits="userSpaceOnUse">
<stop stop-color="#787878"/>
<stop offset="1" stop-color="#5E5E5E"/>
</linearGradient>
<linearGradient id="paint6_linear" x1="5.28661" y1="23.6787" x2="5.28661" y2="31.2827" gradientUnits="userSpaceOnUse">
<stop stop-color="#787878"/>
<stop offset="1" stop-color="#5E5E5E"/>
</linearGradient>
<linearGradient id="paint7_linear" x1="11.5473" y1="9.81738" x2="11.5473" y2="17.7514" gradientUnits="userSpaceOnUse">
<stop stop-color="#7A7A7A"/>
<stop offset="1" stop-color="#949494"/>
</linearGradient>
<linearGradient id="paint8_linear" x1="23.4521" y1="9.81738" x2="23.4521" y2="17.7514" gradientUnits="userSpaceOnUse">
<stop stop-color="#7A7A7A"/>
<stop offset="1" stop-color="#949494"/>
</linearGradient>
<linearGradient id="paint9_linear" x1="12.6116" y1="32.3962" x2="12.6116" y2="-3.33511" gradientUnits="userSpaceOnUse">
<stop stop-color="#7A7C7D"/>
<stop offset="1" stop-color="#CECECF"/>
</linearGradient>
<linearGradient id="paint10_linear" x1="22.3884" y1="32.3962" x2="22.3884" y2="-3.33511" gradientUnits="userSpaceOnUse">
<stop stop-color="#7A7C7D"/>
<stop offset="1" stop-color="#CECECF"/>
</linearGradient>
<linearGradient id="paint11_linear" x1="26.2118" y1="16.7209" x2="26.2118" y2="30.8694" gradientUnits="userSpaceOnUse">
<stop stop-color="#3E3E3E"/>
<stop offset="1" stop-color="#616161"/>
</linearGradient>
<linearGradient id="paint12_linear" x1="8.78767" y1="16.7209" x2="8.78767" y2="30.8694" gradientUnits="userSpaceOnUse">
<stop stop-color="#3E3E3E"/>
<stop offset="1" stop-color="#616161"/>
</linearGradient>
<linearGradient id="paint13_linear" x1="17.4382" y1="4.12515" x2="17.4382" y2="34.1012" gradientUnits="userSpaceOnUse">
<stop stop-color="#FF60DC"/>
<stop offset="1" stop-color="#6B71FF"/>
</linearGradient>
<radialGradient id="paint14_radial" cx="0" cy="0" r="1" gradientUnits="userSpaceOnUse" gradientTransform="translate(17.4382 3.50637) rotate(90) scale(28.876 32.3077)">
<stop stop-color="#FF60DC"/>
<stop offset="1" stop-color="#6B71FF"/>
</radialGradient>
<clipPath id="clip0">
<rect width="35" height="32.5749" fill="white"/>
</clipPath>
</defs>
</svg>
