<svg viewBox="0 0 24 24" xmlns="http://www.w3.org/2000/svg"><path d="m12 6c-.55 0-1.0208-.19583-1.4125-.5875s-.5875-.8625-.5875-1.4125.1958-1.02083.5875-1.4125.8625-.5875 1.4125-.5875 1.0208.19583 1.4125.5875.5875.8625.5875 1.4125-.1958 1.02083-.5875 1.4125-.8625.5875-1.4125.5875zm-3 16v-13c-1-.08333-2.01667-.20833-3.05-.375s-2.01667-.375-2.95-.625l.5-2c1.3.35 2.68333.60417 4.15.7625s2.9167.2375 4.35.2375 2.8833-.07917 4.35-.2375 2.85-.4125 4.15-.7625l.5 2c-.9333.25-1.9167.45833-2.95.625s-2.05.29167-3.05.375v13h-2v-6h-2v6z"/></svg>