<svg viewBox="0 0 24 24" xmlns="http://www.w3.org/2000/svg"><path d="m15.3 16.7 1.4-1.4-3.7-3.7v-4.6h-2v5.4zm-3.3 5.3c-1.3833 0-2.68333-.2625-3.9-.7875s-2.275-1.2375-3.175-2.1375-1.6125-1.9583-2.1375-3.175-.7875-2.5167-.7875-3.9.2625-2.68333.7875-3.9 1.2375-2.275 2.1375-3.175 1.95833-1.6125 3.175-2.1375 2.5167-.7875 3.9-.7875 2.6833.2625 3.9.7875 2.275 1.2375 3.175 2.1375 1.6125 1.95833 2.1375 3.175.7875 2.5167.7875 3.9-.2625 2.6833-.7875 3.9-1.2375 2.275-2.1375 3.175-1.9583 1.6125-3.175 2.1375-2.5167.7875-3.9.7875zm0-2c2.2167 0 4.1042-.7792 5.6625-2.3375s2.3375-3.4458 2.3375-5.6625c0-2.21667-.7792-4.10417-2.3375-5.6625s-3.4458-2.3375-5.6625-2.3375c-2.21667 0-4.10417.77917-5.6625 2.3375s-2.3375 3.44583-2.3375 5.6625c0 2.2167.77917 4.1042 2.3375 5.6625s3.44583 2.3375 5.6625 2.3375z"/></svg>