<svg viewBox="0 0 24 24" xmlns="http://www.w3.org/2000/svg"><path d="m15.3 17.4715 1.4-1.4-3.7-3.7v-4.60002h-2v5.40002zm-3.3 5.3c-1.3833 0-2.68333-.2625-3.9-.7875s-2.275-1.2375-3.175-2.1375-1.6125-1.9583-2.1375-3.175-.7875-2.5167-.7875-3.9.2625-2.6833.7875-3.90002c.525-1.21666 1.2375-2.275 2.1375-3.175s1.95833-1.6125 3.175-2.1375 2.5167-.7875 3.9-.7875 2.6833.2625 3.9.7875 2.275 1.2375 3.175 2.1375 1.6125 1.95834 2.1375 3.175c.525 1.21672.7875 2.51672.7875 3.90002s-.2625 2.6833-.7875 3.9-1.2375 2.275-2.1375 3.175-1.9583 1.6125-3.175 2.1375-2.5167.7875-3.9.7875zm0-2c2.2167 0 4.1042-.7792 5.6625-2.3375s2.3375-3.4458 2.3375-5.6625-.7792-4.10418-2.3375-5.66252c-1.5583-1.55833-3.4458-2.3375-5.6625-2.3375-2.21667 0-4.10417.77917-5.6625 2.3375-1.55833 1.55834-2.3375 3.44582-2.3375 5.66252s.77917 4.1042 2.3375 5.6625 3.44583 2.3375 5.6625 2.3375z"/></svg>