<svg width="28" height="28" viewBox="0 0 28 28" fill="none" xmlns="http://www.w3.org/2000/svg">
<!-- <rect width="28" height="28" rx="8" fill="white"/> -->
<path d="M21.7501 10.3167H17.1001C16.7751 10.3167 16.5167 10.0584 16.5167 9.73336C16.5167 9.40836 16.7751 9.15002 17.1001 9.15002H21.7501C22.0751 9.15002 22.3334 9.40836 22.3334 9.73336C22.3334 10.0584 22.0751 10.3167 21.7501 10.3167Z" fill="#24272A"/>
<path d="M9.34996 10.3167H6.24996C5.92496 10.3167 5.66663 10.0584 5.66663 9.73336C5.66663 9.40836 5.92496 9.15002 6.24996 9.15002H9.34996C9.67496 9.15002 9.93329 9.40836 9.93329 9.73336C9.93329 10.0584 9.66663 10.3167 9.34996 10.3167Z" fill="#24272A"/>
<path d="M12.45 13.025C14.2679 13.025 15.7417 11.5513 15.7417 9.73332C15.7417 7.91538 14.2679 6.44165 12.45 6.44165C10.6321 6.44165 9.15833 7.91538 9.15833 9.73332C9.15833 11.5513 10.6321 13.025 12.45 13.025Z" fill="#24272A"/>
<path d="M21.75 18.8417H18.65C18.325 18.8417 18.0667 18.5833 18.0667 18.2583C18.0667 17.9333 18.325 17.675 18.65 17.675H21.75C22.075 17.675 22.3333 17.9333 22.3333 18.2583C22.3333 18.5833 22.075 18.8417 21.75 18.8417Z" fill="#24272A"/>
<path d="M10.9 18.8417H6.24996C5.92496 18.8417 5.66663 18.5833 5.66663 18.2583C5.66663 17.9333 5.92496 17.675 6.24996 17.675H10.9C11.225 17.675 11.4833 17.9333 11.4833 18.2583C11.4833 18.5833 11.2166 18.8417 10.9 18.8417Z" fill="#24272A"/>
<path d="M15.55 21.5583C17.3679 21.5583 18.8416 20.0846 18.8416 18.2666C18.8416 16.4487 17.3679 14.975 15.55 14.975C13.732 14.975 12.2583 16.4487 12.2583 18.2666C12.2583 20.0846 13.732 21.5583 15.55 21.5583Z" fill="#24272A"/>
</svg>
