<svg viewBox="0 0 24 24" xmlns="http://www.w3.org/2000/svg"><path clip-rule="evenodd" d="m17.7143 3.88599c.2505 2.26476 2.0307 4.0526 4.2857 4.30428-2.255.25168-4.0352 2.03953-4.2857 4.30433-.2506-2.2648-2.0307-4.05265-4.2857-4.30433 2.255-.25168 4.0351-2.03952 4.2857-4.30428zm-1.2556 11.91281c.1772 1.6015 1.4359 2.8657 3.0305 3.0437-1.5946.1779-2.8533 1.4421-3.0305 3.0435-.1772-1.6014-1.4359-2.8656-3.0305-3.0435 1.5946-.178 2.8533-1.4422 3.0305-3.0437zm-.173-2.8695c-3.7584-.4194-6.72525-3.39913-7.14284-7.17379-.41759 3.77466-3.38449 6.75439-7.14286 7.17379 3.75837.4194 6.72527 3.3992 7.14286 7.1738.41759-3.7746 3.38444-6.7544 7.14284-7.1738z" fill-rule="evenodd"/></svg>