<svg viewBox="0 0 24 24" xmlns="http://www.w3.org/2000/svg"><path d="m12 22c-1.3833 0-2.68333-.2625-3.9-.7875s-2.275-1.2375-3.175-2.1375-1.6125-1.9583-2.1375-3.175-.7875-2.5167-.7875-3.9.2625-2.68333.7875-3.9 1.2375-2.275 2.1375-3.175 1.95833-1.6125 3.175-2.1375 2.5167-.7875 3.9-.7875 2.6833.2625 3.9.7875 2.275 1.2375 3.175 2.1375 1.6125 1.95833 2.1375 3.175.7875 2.5167.7875 3.9v1.45c0 .9833-.3375 1.8208-1.0125 2.5125s-1.5042 1.0375-2.4875 1.0375c-.5833 0-1.1333-.125-1.65-.375s-.95-.6083-1.3-1.075c-.4833.4833-1.0292.8458-1.6375 1.0875s-1.2458.3625-1.9125.3625c-1.3833 0-2.5625-.4875-3.5375-1.4625s-1.4625-2.1542-1.4625-3.5375.4875-2.5625 1.4625-3.5375 2.1542-1.4625 3.5375-1.4625 2.5625.4875 3.5375 1.4625 1.4625 2.1542 1.4625 3.5375v1.45c0 .4333.1417.8.425 1.1s.6417.45 1.075.45.7917-.15 1.075-.45.425-.6667.425-1.1v-1.45c0-2.23333-.775-4.125-2.325-5.675s-3.4417-2.325-5.675-2.325c-2.23333 0-4.125.775-5.675 2.325s-2.325 3.44167-2.325 5.675c0 2.2333.775 4.125 2.325 5.675s3.44167 2.325 5.675 2.325h5v2zm0-7c.8333 0 1.5417-.2917 2.125-.875s.875-1.2917.875-2.125-.2917-1.5417-.875-2.125c-.5833-.58333-1.2917-.875-2.125-.875s-1.5417.29167-2.125.875c-.58333.5833-.875 1.2917-.875 2.125s.29167 1.5417.875 2.125c.5833.5833 1.2917.875 2.125.875z"/></svg>