<svg width="24" height="24" viewBox="0 0 24 24" fill="none" xmlns="http://www.w3.org/2000/svg">
  <g clip-path="url(#clip0_252_232031)">
    <path
      d="M12.1521 6.896C11.2041 6.896 9.73711 5.818 8.19211 5.856C6.15211 5.883 4.28211 7.039 3.23111 8.87C1.11411 12.545 2.68511 17.973 4.75011 20.96C5.76311 22.414 6.95811 24.05 8.54211 23.999C10.0621 23.934 10.6321 23.012 12.4771 23.012C14.3081 23.012 14.8271 23.999 16.4371 23.96C18.0741 23.934 19.1131 22.48 20.1131 21.012C21.2691 19.324 21.7491 17.687 21.7751 17.597C21.7361 17.584 18.5931 16.376 18.5551 12.74C18.5291 9.7 21.0351 8.246 21.1521 8.181C19.7231 6.091 17.5291 5.857 16.7621 5.805C14.7621 5.649 13.0871 6.896 12.1521 6.896ZM15.5301 3.83C16.3731 2.818 16.9301 1.403 16.7751 0C15.5681 0.052 14.1131 0.805 13.2431 1.818C12.4631 2.714 11.7891 4.156 11.9701 5.532C13.3081 5.636 14.6851 4.844 15.5291 3.831"
      fill="#121314" />
  </g>
  <defs>
    <clipPath id="clip0_252_232031">
      <rect width="24" height="24" fill="white" />
    </clipPath>
  </defs>
</svg>