<svg viewBox="0 0 24 24" xmlns="http://www.w3.org/2000/svg"><path d="m6 20c-.55 0-1.02083-.1958-1.4125-.5875s-.5875-.8625-.5875-1.4125.19583-1.0208.5875-1.4125.8625-.5875 1.4125-.5875 1.02083.1958 1.4125.5875.5875.8625.5875 1.4125-.19583 1.0208-.5875 1.4125-.8625.5875-1.4125.5875zm6 0c-.55 0-1.0208-.1958-1.4125-.5875s-.5875-.8625-.5875-1.4125.1958-1.0208.5875-1.4125.8625-.5875 1.4125-.5875 1.0208.1958 1.4125.5875.5875.8625.5875 1.4125-.1958 1.0208-.5875 1.4125-.8625.5875-1.4125.5875zm6 0c-.55 0-1.0208-.1958-1.4125-.5875s-.5875-.8625-.5875-1.4125.1958-1.0208.5875-1.4125.8625-.5875 1.4125-.5875 1.0208.1958 1.4125.5875.5875.8625.5875 1.4125-.1958 1.0208-.5875 1.4125-.8625.5875-1.4125.5875zm-12-6c-.55 0-1.02083-.1958-1.4125-.5875s-.5875-.8625-.5875-1.4125.19583-1.0208.5875-1.4125.8625-.5875 1.4125-.5875 1.02083.1958 1.4125.5875.5875.8625.5875 1.4125-.19583 1.0208-.5875 1.4125-.8625.5875-1.4125.5875zm6 0c-.55 0-1.0208-.1958-1.4125-.5875s-.5875-.8625-.5875-1.4125.1958-1.0208.5875-1.4125.8625-.5875 1.4125-.5875 1.0208.1958 1.4125.5875.5875.8625.5875 1.4125-.1958 1.0208-.5875 1.4125-.8625.5875-1.4125.5875zm6 0c-.55 0-1.0208-.1958-1.4125-.5875s-.5875-.8625-.5875-1.4125.1958-1.0208.5875-1.4125.8625-.5875 1.4125-.5875 1.0208.1958 1.4125.5875.5875.8625.5875 1.4125-.1958 1.0208-.5875 1.4125-.8625.5875-1.4125.5875zm-12-6c-.55 0-1.02083-.19583-1.4125-.5875s-.5875-.8625-.5875-1.4125.19583-1.02083.5875-1.4125.8625-.5875 1.4125-.5875 1.02083.19583 1.4125.5875.5875.8625.5875 1.4125-.19583 1.02083-.5875 1.4125-.8625.5875-1.4125.5875zm6 0c-.55 0-1.0208-.19583-1.4125-.5875s-.5875-.8625-.5875-1.4125.1958-1.02083.5875-1.4125.8625-.5875 1.4125-.5875 1.0208.19583 1.4125.5875.5875.8625.5875 1.4125-.1958 1.02083-.5875 1.4125-.8625.5875-1.4125.5875zm6 0c-.55 0-1.0208-.19583-1.4125-.5875s-.5875-.8625-.5875-1.4125.1958-1.02083.5875-1.4125.8625-.5875 1.4125-.5875 1.0208.19583 1.4125.5875.5875.8625.5875 1.4125-.1958 1.02083-.5875 1.4125-.8625.5875-1.4125.5875z"/></svg>