<svg viewBox="0 0 24 24" xmlns="http://www.w3.org/2000/svg"><path d="m8.25 18c-1.73333 0-3.20833-.6083-4.425-1.825s-1.825-2.6917-1.825-4.425.60833-3.20833 1.825-4.425 2.69167-1.825 4.425-1.825h9.25c1.25 0 2.3125.4375 3.1875 1.3125s1.3125 1.9375 1.3125 3.1875-.4375 2.3125-1.3125 3.1875-1.9375 1.3125-3.1875 1.3125h-8.75c-.76667 0-1.41667-.2667-1.95-.8s-.8-1.1833-.8-1.95.26667-1.4167.8-1.95c.53333-.53333 1.18333-.8 1.95-.8h9.25v2h-9.25c-.21667 0-.39583.0708-.5375.2125s-.2125.3208-.2125.5375.07083.3958.2125.5375.32083.2125.5375.2125h8.75c.7-.0167 1.2917-.2625 1.775-.7375s.725-1.0625.725-1.7625-.2417-1.29167-.725-1.775-1.075-.725-1.775-.725h-9.25c-1.18333-.01667-2.1875.39167-3.0125 1.225s-1.2375 1.8417-1.2375 3.025c0 1.1667.4125 2.1583 1.2375 2.975s1.82917 1.2417 3.0125 1.275h9.75v2z"/></svg>