<svg xmlns="http://www.w3.org/2000/svg" width="17" height="17" viewBox="0 0 17 17" fill="none">
  <path d="M14.9876 12.9297L9.65426 3.59634C9.53797 3.39114 9.36933 3.22047 9.16555 3.10172C8.96176 2.98297 8.73012 2.92041 8.49426 2.92041C8.2584 2.92041 8.02677 2.98297 7.82298 3.10172C7.61919 3.22047 7.45055 3.39114 7.33426 3.59634L2.00093 12.9297C1.88338 13.1332 1.82175 13.3643 1.82227 13.5993C1.82279 13.8344 1.88545 14.0652 2.00389 14.2682C2.12234 14.4713 2.29236 14.6394 2.49673 14.7556C2.70109 14.8717 2.93253 14.9318 3.1676 14.9297H13.8343C14.0682 14.9294 14.2979 14.8677 14.5005 14.7505C14.703 14.6334 14.8711 14.4651 14.9879 14.2624C15.1048 14.0598 15.1663 13.8299 15.1662 13.596C15.1662 13.3621 15.1046 13.1323 14.9876 12.9297Z" stroke="#946800" stroke-width="1.33" stroke-linecap="round" stroke-linejoin="round"/>
  <path d="M8.5 6.92969V9.59635" stroke="#946800" stroke-width="1.33" stroke-linecap="round" stroke-linejoin="round"/>
  <path d="M8.5 12.2632H8.50667" stroke="#946800" stroke-width="1.33" stroke-linecap="round" stroke-linejoin="round"/>
</svg>