<svg viewBox="0 0 24 24" xmlns="http://www.w3.org/2000/svg"><path d="m12 22c-1.3833 0-2.68333-.2625-3.9-.7875s-2.275-1.2375-3.175-2.1375-1.6125-1.9583-2.1375-3.175-.7875-2.5167-.7875-3.9.2625-2.68333.7875-3.9 1.2375-2.275 2.1375-3.175 1.95833-1.6125 3.175-2.1375 2.5167-.7875 3.9-.7875 2.6833.2625 3.9.7875 2.275 1.2375 3.175 2.1375 1.6125 1.95833 2.1375 3.175.7875 2.5167.7875 3.9-.2625 2.6833-.7875 3.9-1.2375 2.275-2.1375 3.175-1.9583 1.6125-3.175 2.1375-2.5167.7875-3.9.7875zm0-2c.9 0 1.7667-.1458 2.6-.4375s1.6-.7125 2.3-1.2625l-11.2-11.2c-.55.7-.97083 1.46667-1.2625 2.3-.29167.8333-.4375 1.7-.4375 2.6 0 2.2333.775 4.125 2.325 5.675s3.44167 2.325 5.675 2.325zm6.3-3.1c.55-.7.9708-1.4667 1.2625-2.3s.4375-1.7.4375-2.6c0-2.23333-.775-4.125-2.325-5.675s-3.4417-2.325-5.675-2.325c-.9 0-1.7667.14583-2.6.4375-.83333.29167-1.6.7125-2.3 1.2625z"/></svg>