<svg xmlns="http://www.w3.org/2000/svg" viewBox="0 0 512 512">
  <path d="m456 399l0 62-409 0 0-62c0-11 9-20 20-20l369 0c11 0 20 9 20 20z m-307-163l-41 0 0 143 41 0z m82 0l-41 0 0 143 41 0z m82 0l-41 0 0 143 41 0z m82 0l-41 0 0 143 41 0z m82 240l-451 0c-8 0-15-7-15-15 0-9 7-16 15-16l451 0c8 0 15 7 15 16 0 8-7 15-15 15z m-34-348l-184-74c-4-1-11-1-15 0l-184 74c-8 3-13 11-13 19l0 68c0 11 9 21 20 21l369 0c11 0 20-10 20-21l0-68c0-8-5-16-13-19z m-191 56c-17 0-31-13-31-30 0-17 14-31 31-31 17 0 30 14 30 31 0 17-13 30-30 30z"/>
</svg>
