<svg viewBox="0 0 24 24" xmlns="http://www.w3.org/2000/svg"><path d="m6.7998 19v-14h5.525c1.0833 0 2.0833.33333 3 1s1.375 1.59167 1.375 2.775c0 .85-.1917 1.5042-.575 1.9625s-.7417.7875-1.075.9875c.4167.1833.8792.525 1.3875 1.025s.7625 1.25.7625 2.25c0 1.4833-.5417 2.5208-1.625 3.1125s-2.1.8875-3.05.8875zm3.02501-2.8h2.59999c.8 0 1.2875-.2042 1.4625-.6125s.2625-.7042.2625-.8875-.0875-.4792-.2625-.8875-.6875-.6125-1.5375-.6125h-2.52499zm0-5.7h2.32499c.55 0 .95-.1417 1.2-.425.25-.28333.375-.6.375-.95 0-.4-.1417-.725-.425-.975s-.65-.375-1.1-.375h-2.37499z"/></svg>