<svg viewBox="0 0 24 24" xmlns="http://www.w3.org/2000/svg"><path d="m6.5 16c.78333 0 1.54583.0875 2.2875.2625s1.4792.4375 2.2125.7875v-9.85c-.6833-.4-1.40833-.7-2.175-.9s-1.54167-.3-2.325-.3c-.6 0-1.19583.05833-1.7875.175s-1.1625.29167-1.7125.525v9.9c.58333-.2 1.1625-.35 1.7375-.45s1.1625-.15 1.7625-.15zm6.5 1.05c.7333-.35 1.4708-.6125 2.2125-.7875s1.5042-.2625 2.2875-.2625c.6 0 1.1875.05 1.7625.15s1.1542.25 1.7375.45v-9.9c-.55-.23333-1.1208-.40833-1.7125-.525s-1.1875-.175-1.7875-.175c-.7833 0-1.5583.1-2.325.3s-1.4917.5-2.175.9zm-1 2.95c-.8-.6333-1.6667-1.125-2.6-1.475-.93333-.35-1.9-.525-2.9-.525-.7 0-1.3875.0917-2.0625.275s-1.32083.4417-1.9375.775c-.35.1833-.6875.175-1.0125-.025s-.4875-.4917-.4875-.875v-12.05c0-.18333.04583-.35833.1375-.525s.22917-.29167.4125-.375c.76667-.4 1.56667-.7 2.4-.9s1.68333-.3 2.55-.3c.96667 0 1.9125.125 2.8375.375s1.8125.625 2.6625 1.125c.85-.5 1.7375-.875 2.6625-1.125s1.8708-.375 2.8375-.375c.8667 0 1.7167.1 2.55.3s1.6333.5 2.4.9c.1833.08333.3208.20833.4125.375s.1375.34167.1375.525v12.05c0 .3833-.1625.675-.4875.875s-.6625.2083-1.0125.025c-.6167-.3333-1.2625-.5917-1.9375-.775s-1.3625-.275-2.0625-.275c-1 0-1.9667.175-2.9.525s-1.8.8417-2.6 1.475z"/></svg>