<svg viewBox="0 0 24 24" xmlns="http://www.w3.org/2000/svg"><path clip-rule="evenodd" d="m2 15.2763c0-1.0147.68445-1.8744 1.6305-2.1698.76921-3.79733 4.22403-6.66216 8.3696-6.66216 2.982 0 5.6065 1.4823 7.1313 3.72776-.6423.0601-1.251.2314-1.8053.4938-1.2384-1.52947-3.1637-2.51216-5.326-2.51216-3.21467 0-5.90564 2.17206-6.59407 5.08376.77077.3743 1.29985 1.1467 1.29985 2.0388 0 1.2587-1.05345 2.2791-2.35294 2.2791s-2.35294-1.0204-2.35294-2.2791zm17.6469 2.2791c1.2995 0 2.3529-1.0204 2.3529-2.2791 0-1.2195-.9885-2.2152-2.2318-2.2763-.0401-.0019-.0804-.0029-.1211-.0029-.3785 0-.7364.0866-1.0531.2404-.7708.3743-1.2999 1.1467-1.2999 2.0388 0 1.2587 1.0535 2.2791 2.353 2.2791z" fill-rule="evenodd"/></svg>