<svg viewBox="0 0 24 24" xmlns="http://www.w3.org/2000/svg"><path d="m4 21c-.55 0-1.02083-.1958-1.4125-.5875s-.5875-.8625-.5875-1.4125v-11c0-.55.19583-1.02083.5875-1.4125s.8625-.5875 1.4125-.5875h4v-2c0-.55.19583-1.02083.5875-1.4125s.8625-.5875 1.4125-.5875h4c.55 0 1.0208.19583 1.4125.5875s.5875.8625.5875 1.4125v2h4c.55 0 1.0208.19583 1.4125.5875s.5875.8625.5875 1.4125v11c0 .55-.1958 1.0208-.5875 1.4125s-.8625.5875-1.4125.5875zm6-15h4v-2h-4zm10 9h-5v2h-6v-2h-5v4h16zm-9 0h2v-2h-2zm-7-2h5v-2h6v2h5v-5h-16z"/></svg>