<svg viewBox="0 0 24 24" xmlns="http://www.w3.org/2000/svg"><path d="m12 22.229c-.4333 0-.825-.1042-1.175-.3125s-.625-.4875-.825-.8375c-.55 0-1.02083-.1958-1.4125-.5875s-.5875-.8625-.5875-1.4125v-3.55c-.98333-.65-1.77083-1.5083-2.3625-2.575s-.8875-2.225-.8875-3.475c0-2.01666.70417-3.72916 2.1125-5.1375 1.40833-1.40833 3.12083-2.1125 5.1375-2.1125 2.0167 0 3.7292.70417 5.1375 2.1125 1.4083 1.40834 2.1125 3.12084 2.1125 5.1375 0 1.2833-.2958 2.45-.8875 3.5s-1.3792 1.9-2.3625 2.55v3.55c0 .55-.1958 1.0208-.5875 1.4125s-.8625.5875-1.4125.5875c-.2.35-.475.6292-.825.8375s-.7417.3125-1.175.3125zm-2-3.15h4v-.9h-4zm0-1.9h4v-.95h-4zm-.2-2.95h1.45v-2.7l-2.2-2.2 1.05-1.05 1.9 1.9 1.9-1.9 1.05 1.05-2.2 2.2v2.7h1.45c.9-.4333 1.6333-1.0708 2.2-1.9125s.85-1.7875.85-2.8375c0-1.46666-.5083-2.70833-1.525-3.725-1.0167-1.01666-2.2583-1.525-3.725-1.525s-2.70833.50834-3.725 1.525c-1.01667 1.01667-1.525 2.25834-1.525 3.725 0 1.05.28333 1.9958.85 2.8375s1.3 1.4792 2.2 1.9125z"/></svg>