<svg viewBox="0 0 24 24" xmlns="http://www.w3.org/2000/svg"><path d="m4 22c-.28333 0-.52083-.0958-.7125-.2875s-.2875-.4292-.2875-.7125v-5c0-.55.19583-1.0208.5875-1.4125s.8625-.5875 1.4125-.5875v-4c0-.55.19583-1.02083.5875-1.4125s.8625-.5875 1.4125-.5875h4v-1.45c-.3-.2-.5417-.44167-.725-.725s-.275-.625-.275-1.025c0-.25.05-.49583.15-.7375s.25-.4625.45-.6625l1.4-1.4 1.4 1.4c.2.2.35.42083.45.6625s.15.4875.15.7375c0 .4-.0917.74167-.275 1.025s-.425.525-.725.725v1.45h4c.55 0 1.0208.19583 1.4125.5875s.5875.8625.5875 1.4125v4c.55 0 1.0208.1958 1.4125.5875s.5875.8625.5875 1.4125v5c0 .2833-.0958.5208-.2875.7125s-.4292.2875-.7125.2875zm3-8h10v-4h-10zm-2 6h14v-4h-14z"/></svg>