<svg xmlns="http://www.w3.org/2000/svg" viewBox="0 0 512 512">
  <path d="m333 51l-163 0c-57 0-103 46-103 103l0 204c0 57 46 103 103 103l163 0c57 0 103-46 103-103l0-204c0-57-46-103-103-103z m-146 341c-4 4-9 6-14 6-6 0-11-2-15-6-4-4-6-9-6-15 0-5 2-10 6-14 2-2 4-4 7-5 5-2 11-2 16 0 1 1 2 1 3 2 1 1 2 2 3 3 4 4 6 9 6 14 0 6-2 11-6 15z m-35-97c0-2 1-5 2-7 1-3 2-5 4-7 5-5 12-7 19-6 1 0 2 1 4 1 1 1 2 2 3 2 1 1 2 2 3 3 2 2 4 4 5 7 1 2 1 5 1 7 0 6-2 11-6 15-4 4-9 6-14 6-3 0-6-1-8-2-3-1-5-2-7-4-4-4-6-9-6-15z m117 97c-2 2-4 3-6 4-3 1-6 2-8 2-6 0-11-2-15-6-4-4-6-9-6-15 0-1 0-2 1-4 0-1 0-2 1-4 0-1 1-2 2-3 0-1 1-2 2-3 2-2 4-4 7-5 7-3 16-1 22 5 4 4 6 9 6 14 0 6-2 11-6 15z m0-82c-4 4-9 6-14 6-6 0-11-2-15-6-4-4-6-9-6-15 0-5 2-10 6-14 8-8 22-8 29 0 2 2 4 4 5 7 1 2 1 5 1 7 0 6-2 11-6 15z m-79-86c-21 0-38-17-38-38l0-21c0-21 17-38 38-38l123 0c21 0 38 17 38 38l0 21c0 21-17 38-38 38z m161 168c-4 4-9 6-14 6-3 0-6-1-8-2-3-1-5-2-7-4-4-4-6-9-6-15 0-5 2-10 6-14 6-6 15-8 23-5 2 1 4 3 6 5 4 4 6 9 6 14 0 6-2 11-6 15z m5-89c-1 3-3 5-5 7-4 4-9 6-14 6-6 0-11-2-15-6-4-4-6-9-6-15 0-5 2-10 6-14 8-8 21-8 29 0 4 4 6 9 6 14 0 3 0 6-1 8z"/>
</svg>
