<svg viewBox="0 0 24 24" xmlns="http://www.w3.org/2000/svg"><path d="m8 18h1.5v-2h2v-1.5h-2v-2h-1.5v2h-2v1.5h2zm5-.75h5v-1.5h-5zm0-2.5h5v-1.5h-5zm1.1-3.8 1.4-1.4 1.4 1.4 1.05-1.05-1.4-1.45 1.4-1.4-1.05-1.05-1.4 1.4-1.4-1.4-1.05 1.05 1.4 1.4-1.4 1.45zm-7.85-1.75h5v-1.5h-5zm-1.25 11.8c-.55 0-1.02083-.1958-1.4125-.5875s-.5875-.8625-.5875-1.4125v-14c0-.55.19583-1.02083.5875-1.4125s.8625-.5875 1.4125-.5875h14c.55 0 1.0208.19583 1.4125.5875s.5875.8625.5875 1.4125v14c0 .55-.1958 1.0208-.5875 1.4125s-.8625.5875-1.4125.5875zm0-2h14v-14h-14z"/></svg>