<svg viewBox="0 0 24 24" xmlns="http://www.w3.org/2000/svg"><path d="m19.95 21.229c-2.0833 0-4.1417-.4542-6.175-1.3625s-3.88333-2.1958-5.55-3.8625-2.95417-3.5167-3.8625-5.55c-.90833-2.03333-1.3625-4.09166-1.3625-6.175 0-.3.1-.55.3-.75s.45-.3.75-.3h4.05c.23333 0 .44167.07917.625.2375.18333.15834.29167.34584.325.5625l.65 3.5c.03333.26667.025.49167-.025.675-.05.18334-.14167.34167-.275.475l-2.425 2.45c.33333.6167.72917 1.2125 1.1875 1.7875s.9625 1.1292 1.5125 1.6625c.5167.5167 1.0583.9958 1.625 1.4375s1.1667.8458 1.8 1.2125l2.35-2.35c.15-.15.3458-.2625.5875-.3375s.4792-.0958.7125-.0625l3.45.7c.2333.0667.425.1875.575.3625s.225.3708.225.5875v4.05c0 .3-.1.55-.3.75s-.45.3-.75.3zm-13.925-12 1.65-1.65-.425-2.35h-2.225c.08333.68334.2 1.35834.35 2.025.15.66667.36667 1.325.65 1.975zm8.95 8.95c.65.2833 1.3125.5083 1.9875.675s1.3542.275 2.0375.325v-2.2l-2.35-.475z"/></svg>