<svg viewBox="0 0 24 24" xmlns="http://www.w3.org/2000/svg"><path d="m12 17.5c1.25 0 2.3125-.4375 3.1875-1.3125s1.3125-1.9375 1.3125-3.1875-.4375-2.3125-1.3125-3.1875-1.9375-1.3125-3.1875-1.3125-2.3125.4375-3.1875 1.3125-1.3125 1.9375-1.3125 3.1875.4375 2.3125 1.3125 3.1875 1.9375 1.3125 3.1875 1.3125zm0-2c-.7 0-1.2917-.2417-1.775-.725-.48333-.4833-.725-1.075-.725-1.775s.24167-1.2917.725-1.775c.4833-.4833 1.075-.725 1.775-.725s1.2917.2417 1.775.725.725 1.075.725 1.775-.2417 1.2917-.725 1.775-1.075.725-1.775.725zm-8 5.5c-.55 0-1.02083-.1958-1.4125-.5875s-.5875-.8625-.5875-1.4125v-12c0-.55.19583-1.02083.5875-1.4125s.8625-.5875 1.4125-.5875h3.15l1.85-2h6l1.85 2h3.15c.55 0 1.0208.19583 1.4125.5875s.5875.8625.5875 1.4125v12c0 .55-.1958 1.0208-.5875 1.4125s-.8625.5875-1.4125.5875zm0-2h16v-12h-4.05l-1.825-2h-4.25l-1.825 2h-4.05z"/></svg>