<svg width="7" height="8" viewBox="0 0 7 8" fill="none" xmlns="http://www.w3.org/2000/svg">
<path fill-rule="evenodd" clip-rule="evenodd" d="M1.97959 1.19291C1.66717 0.880488 1.16063 0.880488 0.848215 1.19291C0.535796 1.50533 0.535796 2.01186 0.848215 2.32428L2.52394 4L0.848215 5.67572C0.535796 5.98814 0.535796 6.49467 0.848215 6.80709C1.16063 7.11951 1.66717 7.11951 1.97959 6.80709L3.65531 5.13137L5.33122 6.80728C5.64364 7.1197 6.15017 7.1197 6.46259 6.80728C6.77501 6.49486 6.77501 5.98833 6.46259 5.67591L4.78668 4L6.46259 2.32409C6.77501 2.01167 6.77501 1.50514 6.46259 1.19272C6.15017 0.880297 5.64364 0.880297 5.33122 1.19272L3.65531 2.86863L1.97959 1.19291Z" fill="#F9FBFF"/>
</svg>
