<svg fill="none" height="8" viewBox="0 0 7 8" width="7" xmlns="http://www.w3.org/2000/svg"><path clip-rule="evenodd" d="m1.97959 1.19291c-.31242-.312422-.81896-.312422-1.131375 0-.312419.31242-.312419.81895 0 1.13137l1.675725 1.67572-1.675725 1.67572c-.312419.31242-.312419.81895 0 1.13137.312415.31242.818955.31242 1.131375 0l1.67572-1.67572 1.67591 1.67591c.31242.31242.81895.31242 1.13137 0s.31242-.81895 0-1.13137l-1.67591-1.67591 1.67591-1.67591c.31242-.31242.31242-.81895 0-1.13137-.31242-.312423-.81895-.312423-1.13137 0l-1.67591 1.67591z" fill="#f9fbff" fill-rule="evenodd"/></svg>