<svg xmlns="http://www.w3.org/2000/svg" viewBox="0 0 512 512">
  <path d="m456 445c0 9-7 16-15 16l-379 0c-8 0-15-7-15-16 0-8 7-15 15-15l379 0c8 0 15 7 15 15z m-135-342l-220 220c-8 8-22 8-30 0l0 0c-29-29-29-75 0-104l146-146c29-29 75-29 104 0 8 8 8 22 0 30z m111 81l-62-62c-9-9-22-9-30 0l-220 220c-9 8-9 21 0 30l62 62c29 29 75 29 104 0l146-146c29-29 29-75 0-104z m-165 185l-25 25c-5 5-13 5-19 0-5-5-5-13 0-19l25-25c5-5 14-5 19 0 5 5 5 14 0 19z m81-81l-50 50c-5 5-13 5-18 0-6-5-6-14 0-19l50-50c5-5 13-5 18 0 6 5 6 14 0 19z"/>
</svg>
