<svg viewBox="0 0 24 24" xmlns="http://www.w3.org/2000/svg"><path d="m8.4 14.65c.15-.4.27083-.8208.3625-1.2625s.1375-.9042.1375-1.3875-.04583-.9458-.1375-1.3875-.2125-.8625-.3625-1.2625l-1.85.75c.1.3.18333.6083.25.925s.1.6417.1.975-.03333.6583-.1.975-.15.625-.25.925zm3.2 1.35c.2833-.6333.4875-1.2833.6125-1.95s.1875-1.35.1875-2.05-.0625-1.3833-.1875-2.05c-.125-.66667-.3292-1.31667-.6125-1.95l-1.85.75c.23333.5.4 1.02083.5 1.5625.1.5417.15 1.1042.15 1.6875s-.05 1.1458-.15 1.6875-.26667 1.0625-.5 1.5625zm3.25 1.35c.35-.8333.6125-1.6958.7875-2.5875s.2625-1.8125.2625-2.7625-.0875-1.8708-.2625-2.7625c-.175-.89167-.4375-1.75417-.7875-2.5875l-1.85.8c.3.7.525 1.43333.675 2.2.15.7667.225 1.55.225 2.35s-.075 1.5833-.225 2.35-.375 1.5-.675 2.2zm-2.85 4.65c-1.3833 0-2.68333-.2625-3.9-.7875s-2.275-1.2375-3.175-2.1375-1.6125-1.9583-2.1375-3.175-.7875-2.5167-.7875-3.9.2625-2.68333.7875-3.9 1.2375-2.275 2.1375-3.175 1.95833-1.6125 3.175-2.1375 2.5167-.7875 3.9-.7875 2.6833.2625 3.9.7875 2.275 1.2375 3.175 2.1375 1.6125 1.95833 2.1375 3.175.7875 2.5167.7875 3.9-.2625 2.6833-.7875 3.9-1.2375 2.275-2.1375 3.175-1.9583 1.6125-3.175 2.1375-2.5167.7875-3.9.7875zm0-2c2.2333 0 4.125-.775 5.675-2.325s2.325-3.4417 2.325-5.675c0-2.23333-.775-4.125-2.325-5.675s-3.4417-2.325-5.675-2.325c-2.23333 0-4.125.775-5.675 2.325s-2.325 3.44167-2.325 5.675c0 2.2333.775 4.125 2.325 5.675s3.44167 2.325 5.675 2.325z"/></svg>