<svg viewBox="0 0 24 24" xmlns="http://www.w3.org/2000/svg"><path d="m11 17h2v-1h1c.2833 0 .5208-.0958.7125-.2875s.2875-.4292.2875-.7125v-3c0-.2833-.0958-.5208-.2875-.7125s-.4292-.2875-.7125-.2875h-3v-1h4v-2h-2v-1h-2v1h-1c-.28333 0-.52083.09583-.7125.2875s-.2875.42917-.2875.7125v3c0 .2833.09583.5208.2875.7125s.42917.2875.7125.2875h3v1h-4v2h2zm-7 3c-.55 0-1.02083-.1958-1.4125-.5875s-.5875-.8625-.5875-1.4125v-12c0-.55.19583-1.02083.5875-1.4125s.8625-.5875 1.4125-.5875h16c.55 0 1.0208.19583 1.4125.5875s.5875.8625.5875 1.4125v12c0 .55-.1958 1.0208-.5875 1.4125s-.8625.5875-1.4125.5875zm0-2h16v-12h-16z"/></svg>