<svg xmlns="http://www.w3.org/2000/svg" id="icon-category-filled" viewBox="0 0 512 512">
  <path d="m154 51l-39 0c-45 0-68 24-68 68l0 39c0 45 23 69 68 69l39 0c44 0 68-24 68-69l0-39c0-44-23-68-68-68z m234 0l-39 0c-44 0-68 24-68 68l0 39c0 45 24 69 68 69l39 0c45 0 68-24 68-69l0-39c0-44-23-68-68-68z m0 234l-39 0c-44 0-68 24-68 68l0 39c0 45 24 69 68 69l39 0c45 0 68-24 68-69l0-39c0-44-23-68-68-68z m-234 0l-39 0c-45 0-68 24-68 68l0 39c0 45 23 69 68 69l39 0c44 0 68-24 68-68l0-39c0-45-23-69-68-69z"/>
</svg>