<svg viewBox="0 0 24 24" xmlns="http://www.w3.org/2000/svg"><path d="m6.5 20c-1.51667 0-2.8125-.5283-3.8875-1.5849s-1.6125-2.348-1.6125-3.8742c0-1.3082.39167-2.4738 1.175-3.4969.78333-1.023 1.80833-1.67712 3.075-1.96224.28333-1.20755.99167-2.35639 2.125-3.44654s2.34167-1.63522 3.625-1.63522c.55 0 1.0208.19706 1.4125.59119s.5875.86793.5875 1.42139v6.08802l1.6-1.5597 1.4 1.4088-4 4.0251-4-4.0251 1.4-1.4088 1.6 1.5597v-6.08802c-1.26667.2348-2.25.85115-2.95 1.84906-.7.9979-1.05 2.02515-1.05 3.08176h-.5c-.96667 0-1.79167.3438-2.475 1.0314-.68333.6877-1.025 1.5179-1.025 2.4906 0 .9728.34167 1.8029 1.025 2.4906.68333.6876 1.50833 1.0314 2.475 1.0314h12c.7 0 1.2917-.2432 1.775-.7295.4833-.4864.725-1.0818.725-1.7862s-.2417-1.2998-.725-1.7862c-.4833-.4863-1.075-.7295-1.775-.7295h-1.5v-2.0126c0-.805-.1833-1.55556-.55-2.25158-.3667-.69601-.85-1.28721-1.45-1.77358v-2.33962c1.2333.587 2.2083 1.45492 2.925 2.60377s1.075 2.40252 1.075 3.76101c1.15.1342 2.1042.6331 2.8625 1.4969.7583.8637 1.1375 1.8742 1.1375 3.0314 0 1.2579-.4375 2.327-1.3125 3.2075s-1.9375 1.3208-3.1875 1.3208z"/></svg>