<svg viewBox="0 0 24 24" xmlns="http://www.w3.org/2000/svg"><path d="m6.5 20.229c-1.51667 0-2.8125-.525-3.8875-1.575s-1.6125-2.3334-1.6125-3.85c0-1.3.39167-2.4584 1.175-3.475.78333-1.0167 1.80833-1.66669 3.075-1.95002.28333-1.2.99167-2.34167 2.125-3.425s2.34167-1.625 3.625-1.625c.55 0 1.0208.19583 1.4125.5875s.5875.8625.5875 1.4125v6.05002l1.6-1.55 1.4 1.4-4 4-4-4 1.4-1.4 1.6 1.55v-6.05002c-1.26667.23333-2.25.84583-2.95 1.8375s-1.05 2.01252-1.05 3.06252h-.5c-.96667 0-1.79167.3416-2.475 1.025-.68333.6833-1.025 1.5083-1.025 2.475 0 .9666.34167 1.7916 1.025 2.475.68333.6833 1.50833 1.025 2.475 1.025h12c.7 0 1.2917-.2417 1.775-.725.4833-.4834.725-1.075.725-1.775s-.2417-1.2917-.725-1.775c-.4833-.4834-1.075-.725-1.775-.725h-1.5v-2c0-.8-.1833-1.54585-.55-2.23752s-.85-1.27917-1.45-1.7625v-2.325c1.2333.58333 2.2083 1.44583 2.925 2.5875s1.075 2.3875 1.075 3.73752c1.15.1333 2.1042.6291 2.8625 1.4875.7583.8583 1.1375 1.8625 1.1375 3.0125 0 1.25-.4375 2.3125-1.3125 3.1875s-1.9375 1.3125-3.1875 1.3125z"/></svg>