<svg viewBox="0 0 24 24" xmlns="http://www.w3.org/2000/svg"><path d="m6.5 20c-1.51667 0-2.8125-.525-3.8875-1.575s-1.6125-2.3333-1.6125-3.85c0-1.3.39167-2.4583 1.175-3.475s1.80833-1.66667 3.075-1.95c.41667-1.53333 1.25-2.775 2.5-3.725s2.6667-1.425 4.25-1.425c1.95 0 3.6042.67917 4.9625 2.0375s2.0375 3.0125 2.0375 4.9625c1.15.1333 2.1042.6292 2.8625 1.4875s1.1375 1.8625 1.1375 3.0125c0 1.25-.4375 2.3125-1.3125 3.1875s-1.9375 1.3125-3.1875 1.3125zm0-2h12c.7 0 1.2917-.2417 1.775-.725s.725-1.075.725-1.775-.2417-1.2917-.725-1.775-1.075-.725-1.775-.725h-1.5v-2c0-1.38333-.4875-2.5625-1.4625-3.5375s-2.1542-1.4625-3.5375-1.4625-2.5625.4875-3.5375 1.4625-1.4625 2.15417-1.4625 3.5375h-.5c-.96667 0-1.79167.3417-2.475 1.025s-1.025 1.5083-1.025 2.475.34167 1.7917 1.025 2.475 1.50833 1.025 2.475 1.025z"/></svg>