<svg viewBox="0 0 24 24" xmlns="http://www.w3.org/2000/svg"><path d="m11.792 2.024-.534.062c-2.408.281-4.805 1.569-6.351 3.414-1.27 1.514-2.003 3.142-2.309 5.125-.103.665-.103 2.085 0 2.75.102.662.211 1.135.387 1.681a9.99 9.99 0 0 0 6.459 6.459c1.046.337 1.861.46 3.056.46s2.01-.123 3.056-.46a9.99 9.99 0 0 0 6.459-6.459c.338-1.049.462-1.866.461-3.056-.001-1.197-.125-2.013-.461-3.056-1.181-3.655-4.257-6.252-8.098-6.839-.418-.063-1.817-.117-2.125-.081m-1.368 8.782-1.091 1.09 1.083 1.083 1.083 1.082-.677.688a20.1 20.1 0 0 1 -.712.704c-.02.008-.841-.788-1.823-1.771l-1.787-1.786 1.802-1.804 1.802-1.803.705.713.705.713zm6.295 2.872c-.98.98-1.8 1.777-1.823 1.77-.023-.006-.346-.321-.718-.699l-.677-.688 1.083-1.082 1.083-1.083-1.09-1.09-1.09-1.091.702-.713.703-.714 1.804 1.804 1.804 1.803z" fill-rule="evenodd"/></svg>