<svg viewBox="0 0 24 24" xmlns="http://www.w3.org/2000/svg"><path d="m11.1 19h1.75v-1.25c.8333-.15 1.55-.475 2.15-.975s.9-1.2417.9-2.225c0-.7-.2-1.3417-.6-1.925s-1.2-1.0917-2.4-1.525c-1-.3333-1.6917-.625-2.075-.875s-.575-.59167-.575-1.025.1542-.775.4625-1.025.7542-.375 1.3375-.375c.5333 0 .95.12917 1.25.3875s.5167.57917.65.9625l1.6-.65c-.1833-.58333-.5208-1.09167-1.0125-1.525s-1.0375-.675-1.6375-.725v-1.25h-1.75v1.25c-.8333.18333-1.48333.55-1.95 1.1s-.7 1.16667-.7 1.85c0 .78333.22917 1.4167.6875 1.9s1.1792.9 2.1625 1.25c1.05.3833 1.7792.725 2.1875 1.025s.6125.6917.6125 1.175c0 .55-.1958.9542-.5875 1.2125s-.8625.3875-1.4125.3875-1.0375-.1708-1.4625-.5125-.7375-.8542-.9375-1.5375l-1.65.65c.23333.8.59583 1.4458 1.0875 1.9375s1.1292.8292 1.9125 1.0125zm.9 3c-1.3833 0-2.68333-.2625-3.9-.7875s-2.275-1.2375-3.175-2.1375-1.6125-1.9583-2.1375-3.175-.7875-2.5167-.7875-3.9.2625-2.68333.7875-3.9 1.2375-2.275 2.1375-3.175 1.95833-1.6125 3.175-2.1375 2.5167-.7875 3.9-.7875 2.6833.2625 3.9.7875 2.275 1.2375 3.175 2.1375 1.6125 1.95833 2.1375 3.175.7875 2.5167.7875 3.9-.2625 2.6833-.7875 3.9-1.2375 2.275-2.1375 3.175-1.9583 1.6125-3.175 2.1375-2.5167.7875-3.9.7875zm0-2c2.2333 0 4.125-.775 5.675-2.325s2.325-3.4417 2.325-5.675c0-2.23333-.775-4.125-2.325-5.675s-3.4417-2.325-5.675-2.325c-2.23333 0-4.125.775-5.675 2.325s-2.325 3.44167-2.325 5.675c0 2.2333.775 4.125 2.325 5.675s3.44167 2.325 5.675 2.325z"/></svg>