<svg width="512" height="512" viewBox="0 0 512 512" fill="none" xmlns="http://www.w3.org/2000/svg">
  <g clip-path="url(#clip0_4816_18031)">
    <path d="M428.804 64C434.564 64 438.404 65.92 442.244 69.76C449.924 77.44 449.924 88.96 442.244 96.64L330.884 208H400.004C411.524 208 419.204 215.68 419.204 227.2C419.204 238.72 411.524 246.4 400.004 246.4L284.804 246.4C282.884 246.4 279.044 246.4 277.124 244.48C275.204 244.48 273.284 242.56 271.364 240.64C269.444 238.72 267.524 236.8 267.524 234.88C265.604 232.96 265.604 229.12 265.604 227.2L265.604 112C265.604 100.48 273.284 92.8 284.804 92.8C296.324 92.8 304.004 100.48 304.004 112V181.12L415.364 69.76C419.204 65.92 423.044 64 428.804 64Z" fill="#141618"/>
    <path d="M227.2 265.599H112C100.48 265.599 92.8 273.279 92.8 284.799C92.8 296.319 100.48 303.999 112 303.999H181.12L69.76 415.359C62.08 423.039 62.08 434.559 69.76 442.239C77.44 449.919 88.96 449.919 96.64 442.239L208 330.879V399.999C208 411.519 215.68 419.199 227.2 419.199C238.72 419.199 246.4 411.519 246.4 399.999L246.4 284.799C246.4 282.879 246.4 279.039 244.48 277.119C244.48 275.199 242.56 273.279 240.64 271.359C238.72 269.439 236.8 267.519 234.88 267.519C232.96 265.599 229.12 265.599 227.2 265.599Z" fill="#141618"/>
  </g>
  <defs>
  <clipPath id="clip0_4816_18031">
  <rect width="512" height="512" fill="white"/>
  </clipPath>
  </defs>
</svg>
