<svg width="121" height="122" viewBox="0 0 121 122" fill="none" xmlns="http://www.w3.org/2000/svg">
<path d="M94.8319 62.6775C102.185 62.6775 108.181 68.656 108.181 76.0093C108.181 83.3791 102.185 89.3579 94.8319 89.3579C87.4621 89.3579 81.4833 83.3794 81.4833 76.0093C81.4833 68.656 87.4618 62.6775 94.8319 62.6775Z" fill="black"/>
<path d="M69.0811 87.1924C74.2007 87.1924 78.3576 91.3673 78.3576 96.4869C78.3576 101.606 74.2004 105.763 69.0811 105.763C63.9619 105.763 59.8047 101.606 59.8047 96.4869C59.8047 91.3508 63.9619 87.1924 69.0811 87.1924Z" fill="black"/>
<path d="M46.9528 10.8437C54.3226 10.8437 60.3014 16.8056 60.3014 24.1755C60.3014 31.5453 54.3229 37.5241 46.9528 37.5241C39.5827 37.5241 33.621 31.5456 33.621 24.1755C33.621 16.8222 39.5995 10.8437 46.9528 10.8437Z" fill="black"/>
<path d="M24.8921 38.5736C30.0117 38.5736 34.1685 42.7308 34.1685 47.8501C34.1685 52.9693 30.0113 57.1265 24.8921 57.1265C19.7728 57.1265 15.5975 52.9693 15.5975 47.8501C15.5975 42.7308 19.7725 38.5736 24.8921 38.5736Z" fill="black"/>
<path d="M40.7344 84.9743C45.8371 84.5273 50.3547 88.3068 50.8017 93.4095C51.2487 98.5122 47.4692 103.03 42.3665 103.477C37.2638 103.924 32.7461 100.144 32.2991 95.0416C31.99 89.8708 35.512 85.4559 40.7344 84.9743Z" fill="black"/>
<path d="M24.3462 67.5215C29.4308 67.1093 33.8984 70.8891 34.3454 75.9737C34.8092 81.0764 31.0294 85.5775 25.927 86.0244C20.8243 86.4882 16.3067 82.6919 15.8597 77.5892C15.4127 72.5561 19.2438 67.8823 24.3465 67.5218L24.3462 67.5215Z" fill="black"/>
<path d="M89.4052 39.8437C91.1057 38.2115 93.5624 40.788 91.8786 42.4202L81.7429 52.1101C97.2906 51.457 120.861 41.2866 120.861 65.7331C120.861 80.2668 114.538 93.3756 104.557 103.185C80.883 126.463 42.1758 127.391 18.3327 103.787C7.5607 93.1007 0.860596 78.2915 0.860596 61.6256C1.03196 52.5887 3.8673 39.0688 9.10658 31.6294C10.4643 29.7048 13.3846 31.7672 12.027 33.6738C7.52589 40.0994 4.48445 53.4299 4.45101 61.2136C4.58883 76.5898 9.84607 90.3339 20.8411 101.242C43.3116 123.49 79.7677 122.528 102.049 100.641C111.377 91.4675 117.288 79.2524 117.288 65.7322C117.288 44.4637 91.4149 56.5923 78.0503 55.648L70.594 62.7951C70.8684 68.2585 68.6694 72.4154 64.0138 75.251C59.2551 78.1546 51.8506 79.5628 41.8345 79.4775C40.7008 79.4775 39.9279 78.6183 39.9794 77.5877C40.2203 70.0798 41.3539 59.6698 46.4387 53.8971C49.7031 50.2038 53.9981 49.0006 58.7566 49.6368L65.834 42.8686C65.3355 31.0493 76.3652 7.7207 60.439 4.84922C47.2102 2.47885 34.6524 6.84211 24.7051 15.655C22.9531 17.2009 20.5994 14.5381 22.3515 12.9754C33.1403 3.44128 46.7298 -1.23223 61.0734 1.34535C80.4175 4.81566 70.5045 26.0149 69.4918 39.3648L88.8359 20.8622C98.5593 11.5342 110.861 24.2463 101.068 33.627L95.9314 38.5404C94.231 40.1558 91.7742 37.5782 93.4748 35.964L98.5944 31.0506C104.985 24.934 97.6153 17.3761 91.3108 23.4231L65.7126 47.9211L71.1245 53.4192C72.7399 55.1197 70.1623 57.5595 68.5481 55.8759L63.2573 50.2746L61.866 51.6144L69.1496 59.2254L76.1074 52.5599L89.4045 39.8466L89.4052 39.8437Z" fill="black"/>
<path d="M18.057 17.7524C19.7575 16.137 22.2142 18.7147 20.5137 20.3289C18.5208 22.2019 16.6826 24.4692 15.5487 26.9605C14.5865 29.0912 11.34 27.6137 12.3011 25.483C13.6757 22.4942 15.6853 19.9848 18.057 17.7524Z" fill="black"/>
</svg>
