<svg xmlns="http://www.w3.org/2000/svg" viewBox="0 0 512 512">
  <path d="m252 305c26 0 48-22 48-49 0-27-22-49-48-49-27 0-49 22-49 49 0 27 22 49 49 49z m163 89c-3 0-6-1-9-3-7-5-8-15-3-21 25-33 38-73 38-114 0-41-13-81-38-114-5-6-4-16 3-21 7-5 17-4 22 3 29 38 44 84 44 132 0 48-15 94-44 132-3 4-8 6-13 6z m-327 0c-5 0-10-2-13-6-28-38-44-84-44-132 0-48 16-94 44-132 6-7 15-8 22-3 7 5 8 15 3 21-25 33-38 73-38 114 0 41 13 81 38 114 5 6 4 16-3 21-3 2-6 3-9 3z m262-49c-3 0-7-1-9-3-7-5-9-15-3-21 14-19 21-41 21-65 0-24-7-46-21-65-6-6-4-16 3-21 6-5 16-4 21 3 18 24 28 53 28 83 0 30-10 59-28 83-3 4-7 6-12 6z m-197 0c-4 0-9-2-12-6-18-24-28-53-28-83 0-30 10-59 28-83 5-7 15-8 21-3 7 5 9 15 4 21-15 19-22 41-22 65 0 24 7 46 22 65 5 6 3 16-4 21-2 2-6 3-9 3z"/>
</svg>
