<svg viewBox="0 0 24 24" xmlns="http://www.w3.org/2000/svg"><path d="m4.925 19.0749c-.9-.9166-1.6125-1.9791-2.1375-3.1875-.525-1.2083-.7875-2.5041-.7875-3.8875 0-1.4.2625-2.70414.7875-3.91247.525-1.20834 1.2375-2.2625 2.1375-3.1625l1.425 1.425c-.73333.73333-1.30833 1.58333-1.725 2.55-.41667.96666-.625 1.99997-.625 3.09997 0 1.1167.20833 2.1584.625 3.125.41667.9667.99167 1.8084 1.725 2.525zm2.825-2.825c-.53333-.55-.95833-1.1875-1.275-1.9125s-.475-1.5041-.475-2.3375c0-.85.15833-1.6375.475-2.36247.31667-.725.74167-1.35417 1.275-1.8875l1.425 1.425c-.36667.36666-.65417.79166-.8625 1.27497-.20833.4834-.3125 1-.3125 1.55s.10417 1.0667.3125 1.55c.20833.4834.49583.9084.8625 1.275zm4.25-2.25c-.55 0-1.0208-.1958-1.4125-.5875-.3917-.3916-.5875-.8625-.5875-1.4125s.1958-1.0208.5875-1.4125c.3917-.3916.8625-.58747 1.4125-.58747s1.0208.19587 1.4125.58747c.3917.3917.5875.8625.5875 1.4125s-.1958 1.0209-.5875 1.4125c-.3917.3917-.8625.5875-1.4125.5875zm4.25 2.25-1.425-1.425c.3667-.3666.6542-.7916.8625-1.275.2083-.4833.3125-1 .3125-1.55s-.1042-1.0666-.3125-1.55c-.2083-.48331-.4958-.90831-.8625-1.27497l1.425-1.425c.5333.53333.9583 1.1625 1.275 1.8875.3167.72497.475 1.51247.475 2.36247 0 .8334-.1583 1.6125-.475 2.3375s-.7417 1.3625-1.275 1.9125zm2.825 2.825-1.425-1.425c.7333-.7333 1.3083-1.5833 1.725-2.55.4167-.9666.625-2 .625-3.1 0-1.1166-.2083-2.15831-.625-3.12497-.4167-.96667-.9917-1.80834-1.725-2.525l1.425-1.425c.9.9 1.6125 1.95416 2.1375 3.1625.525 1.20833.7875 2.51247.7875 3.91247 0 1.3834-.2625 2.6792-.7875 3.8875-.525 1.2084-1.2375 2.2709-2.1375 3.1875z"/></svg>