<svg fill="none" height="16" viewBox="0 0 16 16" width="16" xmlns="http://www.w3.org/2000/svg"><g fill="#fff"><path d="m8.00002 9.57037c.93765 0 1.69776-.76011 1.69776-1.69777 0-.93765-.76011-1.69776-1.69776-1.69776-.93766 0-1.69777.76011-1.69777 1.69776 0 .93766.76011 1.69777 1.69777 1.69777z"/><path d="m11.0582 11.6586c-.1862 0-.3725-.071-.5145-.2131-.2842-.2841-.2842-.7448 0-1.029.6795-.67946 1.0538-1.58294 1.0538-2.54391 0-.96098-.3743-1.86446-1.0538-2.54394-.2842-.28417-.2842-.74484 0-1.02901.2841-.2841.7449-.2841 1.029 0 .9543.95434 1.48 2.22329 1.48 3.57295 0 1.34965-.5257 2.61861-1.48 3.57291-.1421.1421-.3283.2131-.5145.2131z"/><path d="m4.94175 11.6586c-.18622 0-.37246-.071-.51451-.2131-.95434-.9543-1.47997-2.22326-1.47997-3.57291 0-1.34966.52563-2.61861 1.47997-3.57295.28411-.2841.74491-.2841 1.02902 0 .28417.28417.28417.74484 0 1.02901-.67954.67948-1.05376 1.58296-1.05376 2.54394 0 .96097.37422 1.86445 1.05376 2.54391.28417.2842.28417.7449 0 1.029-.14206.1421-.32828.2131-.51451.2131z"/><path d="m13.1451 13.7453c-.1862 0-.3724-.0711-.5145-.2131-.2842-.2842-.2842-.7449 0-1.0291 2.5533-2.55325 2.5533-6.70772 0-9.26101-.2842-.28417-.2842-.74484 0-1.02901.2841-.28411.7449-.28411 1.029 0 3.1207 3.12066 3.1207 8.19842 0 11.31912-.142.142-.3283.2131-.5145.2131z"/><path d="m2.855 13.7453c-.18622 0-.37245-.0711-.5145-.2131-3.120666-3.1207-3.120666-8.19846 0-11.31912.28411-.28411.74491-.28411 1.02901 0 .28417.28417.28417.74484 0 1.02901-2.553289 2.55329-2.553289 6.70776 0 9.26101.28417.2842.28417.7449 0 1.0291-.14206.142-.32828.2131-.51451.2131z"/></g></svg>