<svg viewBox="0 0 24 24" xmlns="http://www.w3.org/2000/svg"><path clip-rule="evenodd" d="m7.5875 17.4125c.39167.3917.8625.5875 1.4125.5875h9c.55 0 1.0208-.1958 1.4125-.5875s.5875-.8625.5875-1.4125v-12c0-.55-.1958-1.02083-.5875-1.4125s-.8625-.5875-1.4125-.5875h-9c-.55 0-1.02083.19583-1.4125.5875s-.5875.8625-.5875 1.4125v12c0 .55.19583 1.0208.5875 1.4125zm10.4125-1.4125h-9v-12h9zm-14.4125 5.4125c.39167.3917.8625.5875 1.4125.5875h11v-2h-11v-14h-2v14c0 .55.19583 1.0208.5875 1.4125zm9.1136-9.4125-2.7011-2.50883 1.0842-.9894 1.6169 1.50173 3.2337-3.0035 1.0652 1.00707z" fill-rule="evenodd"/></svg>