<svg width="20" height="16" viewBox="0 0 20 16" fill="none" xmlns="http://www.w3.org/2000/svg">
<path d="M9.99983 12.5C7.62954 12.5 5.71081 10.6653 5.53425 8.34031L2.25616 5.8069C1.82523 6.34752 1.42867 6.91907 1.10867 7.54407C1.03718 7.68547 0.999939 7.84171 0.999939 8.00016C0.999939 8.15861 1.03718 8.31484 1.10867 8.45625C2.80334 11.7628 6.15831 13.9999 9.99983 13.9999C10.8408 13.9999 11.652 13.8749 12.4339 13.6731L10.8123 12.4184C10.5445 12.4701 10.2726 12.4974 9.99983 12.5ZM19.8066 14.3156L16.352 11.6456C17.4014 10.7612 18.2645 9.67695 18.891 8.45593C18.9625 8.31452 18.9997 8.15829 18.9997 7.99984C18.9997 7.84139 18.9625 7.68516 18.891 7.54375C17.1963 4.23723 13.8414 2.00006 9.99983 2.00006C8.39094 2.00201 6.80818 2.40705 5.39613 3.17817L1.42054 0.105393C1.3687 0.0650525 1.30942 0.0353224 1.24608 0.0179022C1.18274 0.000481958 1.11659 -0.004287 1.05141 0.00386784C0.986233 0.0120227 0.923298 0.0329415 0.866205 0.0654288C0.809112 0.0979162 0.758981 0.141335 0.718675 0.193205L0.105244 0.982884C0.0238692 1.08757 -0.0125942 1.22028 0.00387312 1.35185C0.0203405 1.48341 0.0883901 1.60304 0.193055 1.68444L18.5791 15.8946C18.631 15.9349 18.6902 15.9647 18.7536 15.9821C18.8169 15.9995 18.8831 16.0043 18.9482 15.9961C19.0134 15.988 19.0764 15.9671 19.1335 15.9346C19.1905 15.9021 19.2407 15.8587 19.281 15.8068L19.8947 15.0171C19.9761 14.9124 20.0125 14.7797 19.996 14.6481C19.9794 14.5165 19.9113 14.3969 19.8066 14.3156ZM14.0654 9.87811L12.8373 8.92874C12.9407 8.62983 12.9956 8.31627 12.9998 8C13.0059 7.53696 12.9033 7.07895 12.7003 6.66275C12.4973 6.24654 12.1995 5.88376 11.8308 5.60353C11.4621 5.3233 11.0329 5.13344 10.5775 5.0492C10.1222 4.96496 9.65342 4.98868 9.2089 5.11847C9.39734 5.37381 9.49927 5.68267 9.49983 6.00002C9.49517 6.10562 9.47904 6.2104 9.45171 6.31252L7.15142 4.53472C7.95047 3.86698 8.9585 3.50082 9.99983 3.50005C10.5909 3.49972 11.1762 3.61589 11.7223 3.84192C12.2684 4.06794 12.7646 4.39939 13.1825 4.81732C13.6004 5.23524 13.9319 5.73145 14.1579 6.27755C14.3839 6.82366 14.5001 7.40897 14.4998 8C14.4998 8.67593 14.3345 9.30592 14.0654 9.87842V9.87811Z" fill="#D73A49"/>
</svg>
