<svg viewBox="0 0 24 24" xmlns="http://www.w3.org/2000/svg"><path d="m6 21v-2l.4125-.25c.275-.1667.575-.4125.9-.7375s.62083-.7417.8875-1.25.4-1.0958.4-1.7625c0-.1833-.0125-.3583-.0375-.525s-.05417-.325-.0875-.475h-2.475v-2h1.5c-.35-.55-.6875-1.1292-1.0125-1.7375-.325-.60833-.4875-1.3625-.4875-2.2625 0-1.53333.53333-2.83333 1.6-3.9s2.36667-1.6 3.9-1.6c1.1833 0 2.2333.325 3.15.975s1.575 1.49167 1.975 2.525l-1.85.775c-.25-.66667-.6708-1.2125-1.2625-1.6375s-1.2625-.6375-2.0125-.6375c-.9667 0-1.79167.34167-2.475 1.025s-1.025 1.50833-1.025 2.475c0 .8.2 1.46667.6 2 .4.5333.80833 1.2 1.225 2h4.175v2h-3.475c.0333.15.0542.3083.0625.475s.0125.3417.0125.525c0 .8333-.1458 1.5833-.4375 2.25-.29167.6667-.64583 1.25-1.0625 1.75h4.9c.6667 0 1.175-.175 1.525-.525s.5917-.8.725-1.35l1.75.875c-.1833.9167-.6542 1.6458-1.4125 2.1875s-1.6208.8125-2.5875.8125z"/></svg>