<svg width="24" height="24" viewBox="0 0 24 24" fill="none" xmlns="http://www.w3.org/2000/svg">
  <path d="M10.2254 10.8299C12.407 10.8299 14.1754 9.06146 14.1754 6.87993C14.1754 4.69841 12.407 2.92993 10.2254 2.92993C8.2828 2.92993 6.6677 4.33231 6.33728 6.17993H2.78545C2.39545 6.17993 2.08545 6.48993 2.08545 6.87993C2.08545 7.26993 2.39545 7.57993 2.78545 7.57993H6.33728C6.6677 9.42755 8.2828 10.8299 10.2254 10.8299Z" fill="#141618"/>
  <path d="M21.3854 7.57993H15.8054C15.4154 7.57993 15.1054 7.26993 15.1054 6.87993C15.1054 6.48993 15.4154 6.17993 15.8054 6.17993H21.3854C21.7754 6.17993 22.0854 6.48993 22.0854 6.87993C22.0854 7.26993 21.7754 7.57993 21.3854 7.57993Z" fill="#141618"/>
  <path d="M2.78545 17.8099H8.36545C8.74545 17.8099 9.06545 17.4999 9.06545 17.1099C9.06545 16.7199 8.75545 16.4099 8.36545 16.4099H2.78545C2.39545 16.4099 2.08545 16.7199 2.08545 17.1099C2.08545 17.4999 2.39545 17.8099 2.78545 17.8099Z" fill="#141618"/>
  <path d="M17.8354 17.8099C17.509 19.6625 15.8916 21.0699 13.9454 21.0699C11.7639 21.0699 9.99545 19.3015 9.99545 17.1199C9.99545 14.9384 11.7639 13.1699 13.9454 13.1699C15.8846 13.1699 17.4974 14.5672 17.8318 16.4099H21.3853C21.7753 16.4099 22.0853 16.7199 22.0853 17.1099C22.0853 17.4999 21.7753 17.8099 21.3853 17.8099H17.8354Z" fill="#141618"/>
</svg>