<svg viewBox="0 0 24 24" xmlns="http://www.w3.org/2000/svg"><path d="m12 21c-2.5 0-4.625-.875-6.375-2.625s-2.625-3.875-2.625-6.375.875-4.625 2.625-6.375 3.875-2.625 6.375-2.625c.2333 0 .4625.00833.6875.025s.4458.04167.6625.075c-.6833.48333-1.2292 1.1125-1.6375 1.8875s-.6125 1.6125-.6125 2.5125c0 1.5.525 2.775 1.575 3.825s2.325 1.575 3.825 1.575c.9167 0 1.7583-.2042 2.525-.6125s1.3917-.9542 1.875-1.6375c.0333.2167.0583.4375.075.6625s.025.4542.025.6875c0 2.5-.875 4.625-2.625 6.375s-3.875 2.625-6.375 2.625z"/></svg>