<svg viewBox="0 0 24 24" xmlns="http://www.w3.org/2000/svg"><path d="m12 21c-2.5 0-4.625-.875-6.375-2.625s-2.625-3.875-2.625-6.375.875-4.625 2.625-6.375 3.875-2.625 6.375-2.625c.2333 0 .4625.00833.6875.025s.4458.04167.6625.075c-.6833.48333-1.2292 1.1125-1.6375 1.8875s-.6125 1.6125-.6125 2.5125c0 1.5.525 2.775 1.575 3.825s2.325 1.575 3.825 1.575c.9167 0 1.7583-.2042 2.525-.6125s1.3917-.9542 1.875-1.6375c.0333.2167.0583.4375.075.6625s.025.4542.025.6875c0 2.5-.875 4.625-2.625 6.375s-3.875 2.625-6.375 2.625zm0-2c1.4667 0 2.7833-.4042 3.95-1.2125s2.0167-1.8625 2.55-3.1625c-.3333.0833-.6667.15-1 .2s-.6667.075-1 .075c-2.05 0-3.7958-.7208-5.2375-2.1625-1.44167-1.4417-2.1625-3.1875-2.1625-5.2375 0-.33333.025-.66667.075-1s.11667-.66667.2-1c-1.3.53333-2.35417 1.38333-3.1625 2.55s-1.2125 2.4833-1.2125 3.95c0 1.9333.68333 3.5833 2.05 4.95s3.0167 2.05 4.95 2.05z"/></svg>