<svg viewBox="0 0 24 24" xmlns="http://www.w3.org/2000/svg"><path d="m22 19c0 .8333-.2917 1.5417-.875 2.125s-1.2917.875-2.125.875c-.65 0-1.2333-.1875-1.75-.5625s-.875-.8542-1.075-1.4375h-2.175c-.8333 0-1.5417-.2917-2.125-.875s-.875-1.2917-.875-2.125v-4h-3.175c-.2.5833-.55833 1.0625-1.075 1.4375s-1.1.5625-1.75.5625c-.83333 0-1.54167-.2917-2.125-.875s-.875-1.2917-.875-2.125.29167-1.5417.875-2.125c.58333-.58333 1.29167-.875 2.125-.875.65 0 1.23333.1875 1.75.5625s.875.8542 1.075 1.4375h3.175v-4c0-.83333.2917-1.54167.875-2.125s1.2917-.875 2.125-.875h2.175c.2-.58333.5583-1.0625 1.075-1.4375s1.1-.5625 1.75-.5625c.8333 0 1.5417.29167 2.125.875s.875 1.29167.875 2.125-.2917 1.54167-.875 2.125-1.2917.875-2.125.875c-.65 0-1.2333-.1875-1.75-.5625s-.875-.85417-1.075-1.4375h-2.175c-.2833 0-.5208.09583-.7125.2875s-.2875.42917-.2875.7125v4h3.175c.2-.5833.5583-1.0625 1.075-1.4375s1.1-.5625 1.75-.5625c.8333 0 1.5417.29167 2.125.875.5833.5833.875 1.2917.875 2.125s-.2917 1.5417-.875 2.125-1.2917.875-2.125.875c-.65 0-1.2333-.1875-1.75-.5625s-.875-.8542-1.075-1.4375h-3.175v4c0 .2833.0958.5208.2875.7125s.4292.2875.7125.2875h2.175c.2-.5833.5583-1.0625 1.075-1.4375s1.1-.5625 1.75-.5625c.8333 0 1.5417.2917 2.125.875s.875 1.2917.875 2.125zm-2 0c0-.2833-.0958-.5208-.2875-.7125s-.4292-.2875-.7125-.2875-.5208.0958-.7125.2875-.2875.4292-.2875.7125.0958.5208.2875.7125.4292.2875.7125.2875.5208-.0958.7125-.2875.2875-.4292.2875-.7125zm0-7c0-.2833-.0958-.5208-.2875-.7125s-.4292-.2875-.7125-.2875-.5208.0958-.7125.2875-.2875.4292-.2875.7125.0958.5208.2875.7125.4292.2875.7125.2875.5208-.0958.7125-.2875.2875-.4292.2875-.7125zm0-7c0-.28333-.0958-.52083-.2875-.7125s-.4292-.2875-.7125-.2875-.5208.09583-.7125.2875-.2875.42917-.2875.7125.0958.52083.2875.7125.4292.2875.7125.2875.5208-.09583.7125-.2875.2875-.42917.2875-.7125zm-14 7c0-.2833-.09583-.5208-.2875-.7125s-.42917-.2875-.7125-.2875-.52083.0958-.7125.2875-.2875.4292-.2875.7125.09583.5208.2875.7125.42917.2875.7125.2875.52083-.0958.7125-.2875.2875-.4292.2875-.7125z"/></svg>