<svg viewBox="0 0 24 24" xmlns="http://www.w3.org/2000/svg"><path d="m8 17c.28333 0 .52083-.0958.7125-.2875s.2875-.4292.2875-.7125-.09583-.5208-.2875-.7125-.42917-.2875-.7125-.2875-.52083.0958-.7125.2875-.2875.4292-.2875.7125.09583.5208.2875.7125.42917.2875.7125.2875zm0-4c.28333 0 .52083-.0958.7125-.2875s.2875-.4292.2875-.7125-.09583-.5208-.2875-.7125-.42917-.2875-.7125-.2875-.52083.0958-.7125.2875-.2875.4292-.2875.7125.09583.5208.2875.7125.42917.2875.7125.2875zm0-4c.28333 0 .52083-.09583.7125-.2875s.2875-.42917.2875-.7125-.09583-.52083-.2875-.7125-.42917-.2875-.7125-.2875-.52083.09583-.7125.2875-.2875.42917-.2875.7125.09583.52083.2875.7125.42917.2875.7125.2875zm3 8h6v-2h-6zm0-4h6v-2h-6zm0-4h6v-2h-6zm-6 12c-.55 0-1.02083-.1958-1.4125-.5875s-.5875-.8625-.5875-1.4125v-14c0-.55.19583-1.02083.5875-1.4125s.8625-.5875 1.4125-.5875h14c.55 0 1.0208.19583 1.4125.5875s.5875.8625.5875 1.4125v14c0 .55-.1958 1.0208-.5875 1.4125s-.8625.5875-1.4125.5875zm0-2h14v-14h-14z"/></svg>