<svg viewBox="0 0 24 24" xmlns="http://www.w3.org/2000/svg"><path d="M5.53 2.061c-.671.145-1.279.737-1.457 1.416-.064.244-.069.845-.07 8.483-.002 8.965-.013 8.526.225 8.971.143.268.573.698.841.841.439.235.195.227 6.931.227s6.492.008 6.931-.227c.268-.143.698-.573.841-.841.234-.439.227-.202.227-6.851L20 7.98l-2.99-2.99L14.02 2l-4.12.003c-3.311.003-4.169.014-4.37.058M13 6.5V9h5v11H6V4h7v2.5m-4.71 5.63L6.72 13.7l1.58 1.58 1.58 1.579.62-.619.62-.619-.96-.961-.96-.961.96-.959.96-.959-.61-.611a13.5 13.5 0 0 0-.63-.61c-.011 0-.727.707-1.59 1.57m5.2-.96-.61.611.96.959.96.959-.96.961-.96.961.62.619.62.619 1.58-1.579 1.58-1.58-1.57-1.57a89.865 89.865 0 0 0-1.59-1.57 13.5 13.5 0 0 0-.63.61" fill-rule="evenodd"/></svg>