<svg xmlns="http://www.w3.org/2000/svg" viewBox="0 0 512 512">
  <path d="m333 51l-163 0c-72 0-103 41-103 103l0 204c0 62 31 103 103 103l163 0c72 0 103-41 103-103l0-204c0-62-31-103-103-103z m-112 297c6 5 6 15 0 21-3 3-7 5-10 5-4 0-8-2-11-5l-41-41c-6-6-6-15 0-21l41-41c6-6 15-6 21 0 6 6 6 15 0 21l-30 30z m123-20l-41 41c-3 3-7 5-11 5-3 0-7-2-10-5-6-6-6-16 0-21l30-31-30-30c-6-6-6-15 0-21 6-6 15-6 21 0l41 41c6 6 6 15 0 21z m41-128l-41 0c-31 0-57-26-57-57l0-41c0-8 7-15 16-15 8 0 15 7 15 15l0 41c0 14 12 26 26 26l41 0c8 0 15 7 15 15 0 9-7 16-15 16z"/>
</svg>
