<svg viewBox="0 0 24 24" xmlns="http://www.w3.org/2000/svg"><path d="m5.4 19.5989c-.75-.7503-1.3375-1.6174-1.7625-2.6012-.425-.9837-.6375-2.0009-.6375-3.0513 0-1.0505.2-2.0885.6-3.114.4-1.02542 1.05-1.98835 1.95-2.88876.58333-.5836 1.30417-1.08382 2.1625-1.50068.85833-.41685 1.875-.74617 3.05-.98795 1.175-.24177 2.5167-.38767 4.025-.43769 1.5083-.05003 3.1958.00833 5.0625.17507.1333 1.76747.175 3.39321.125 4.87721s-.1875 2.8221-.4125 4.0143-.5417 2.2344-.95 3.1264c-.4083.8921-.9125 1.6383-1.5125 2.2385-.8833.8838-1.8208 1.5299-2.8125 1.9384s-2.0042.6128-3.0375.6128c-1.0833 0-2.14167-.2126-3.175-.6378s-1.925-1.0129-2.675-1.7633zm2.8-.4002c.48333.2835.97917.4878 1.4875.6128.5083.1251 1.0292.1876 1.5625.1876.7667 0 1.525-.1542 2.275-.4627s1.4667-.8045 2.15-1.4882c.3-.3001.6042-.7211.9125-1.2631.3083-.5419.575-1.2505.8-2.1259s.3958-1.9342.5125-3.1765c.1167-1.2422.1333-2.72202.05-4.43947-.8167-.03335-1.7375-.04585-2.7625-.03751-1.025.00833-2.0458.08753-3.0625.2376s-1.9833.39185-2.9.72533c-.91667.33348-1.66667.79203-2.25 1.37562-.75.75033-1.26667 1.49233-1.55 2.22603-.28333.7336-.425 1.4423-.425 2.1259 0 .9838.1875 1.8467.5625 2.5887s.70417 1.2631.9875 1.5632c.7-1.3339 1.625-2.6137 2.775-3.8392 1.15-1.2256 2.4917-2.2302 4.025-3.0139-1.2 1.0505-2.2458 2.2385-3.1375 3.5641-.89167 1.3256-1.5625 2.8722-2.0125 4.6396z"/></svg>