<svg viewBox="0 0 24 24" xmlns="http://www.w3.org/2000/svg"><path d="m5.4 19.829c-.75-.75-1.3375-1.6167-1.7625-2.6s-.6375-2-.6375-3.05.2-2.0875.6-3.1125 1.05-1.9875 1.95-2.8875c.58333-.58333 1.30417-1.08333 2.1625-1.5.85833-.41666 1.875-.74583 3.05-.9875 1.175-.24166 2.5167-.3875 4.025-.4375s3.1958.00834 5.0625.175c.1333 1.76667.175 3.39167.125 4.875-.05 1.4833-.1875 2.8208-.4125 4.0125s-.5417 2.2333-.95 3.125-.9125 1.6375-1.5125 2.2375c-.8833.8833-1.8208 1.5292-2.8125 1.9375s-2.0042.6125-3.0375.6125c-1.0833 0-2.14167-.2125-3.175-.6375s-1.925-1.0125-2.675-1.7625zm2.8-.4c.48333.2833.97917.4875 1.4875.6125.5083.125 1.0292.1875 1.5625.1875.7667 0 1.525-.1542 2.275-.4625s1.4667-.8042 2.15-1.4875c.3-.3.6042-.7208.9125-1.2625s.575-1.25.8-2.125.3958-1.9333.5125-3.175.1333-2.72083.05-4.4375c-.8167-.03333-1.7375-.04583-2.7625-.0375-1.025.00834-2.0458.0875-3.0625.2375s-1.9833.39167-2.9.725c-.91667.33334-1.66667.79167-2.25 1.375-.75.75-1.26667 1.4917-1.55 2.225s-.425 1.4417-.425 2.125c0 .9833.1875 1.8458.5625 2.5875s.70417 1.2625.9875 1.5625c.7-1.3333 1.625-2.6125 2.775-3.8375s2.4917-2.2292 4.025-3.0125c-1.2 1.05-2.2458 2.2375-3.1375 3.5625-.89167 1.325-1.5625 2.8708-2.0125 4.6375z"/></svg>