<svg viewBox="0 0 24 24" xmlns="http://www.w3.org/2000/svg"><path d="m5 21.229c-.55 0-1.02083-.1959-1.4125-.5875-.39167-.3917-.5875-.8625-.5875-1.4125v-14.00002c0-.55.19583-1.02083.5875-1.4125s.8625-.5875 1.4125-.5875h8.925l-2 2h-6.925v14.00002h14v-6.95l2-2v8.95c0 .55-.1958 1.0208-.5875 1.4125-.3917.3916-.8625.5875-1.4125.5875zm4-6v-4.25l9.175-9.17502c.2-.2.425-.35.675-.45s.5-.15.75-.15c.2667 0 .5208.05.7625.15s.4625.25.6625.45l1.4 1.425c.1833.2.325.42083.425.6625s.15.4875.15.7375-.0458.49583-.1375.7375-.2375.4625-.4375.6625l-9.175 9.20002zm2-2h1.4l5.8-5.80002-.7-.7-.725-.7-5.775 5.77502z"/></svg>