<svg viewBox="0 0 24 24" xmlns="http://www.w3.org/2000/svg"><path d="m5 21c-.55 0-1.02083-.1956-1.4125-.5868-.39167-.3911-.5875-.8614-.5875-1.4107v-13.98252c0-.54932.19583-1.01956.5875-1.41074s.8625-.58677 1.4125-.58677h8.925l-2 1.99751h-6.925v13.98252h14v-6.9413l2-1.9975v8.9388c0 .5493-.1958 1.0196-.5875 1.4107-.3917.3912-.8625.5868-1.4125.5868zm4-5.9925v-4.2447l9.175-9.16355c.2-.19975.425-.34956.675-.44944.25-.09987.5-.14981.75-.14981.2667 0 .5208.04994.7625.14981.2417.09988.4625.24969.6625.44944l1.4 1.42322c.1833.19975.325.42031.425.66167.1.24137.15.4869.15.73658 0 .24969-.0458.49522-.1375.73658-.0917.24137-.2375.46193-.4375.66168l-9.175 9.18852zm2-1.9975h1.4l5.8-5.79277-.7-.69913-.725-.69912-5.775 5.76782z"/></svg>