<svg viewBox="0 0 24 24" xmlns="http://www.w3.org/2000/svg"><path d="m12 22c-2.31667-.5833-4.22917-1.9125-5.7375-3.9875s-2.2625-4.3792-2.2625-6.9125v-6.1l8-3 8 3v6.55c0 .15-.0083.3083-.025.475h-2.025c.0167-.1667.0292-.325.0375-.475s.0125-.3.0125-.45v-4.725l-6-2.25-6 2.25v4.725c0 2.0167.56667 3.85 1.7 5.5s2.5667 2.75 4.3 3.3zm5 0v-3h-3v-2h3v-3h2v3h3v2h-3v3zm-6.5-7h3l-.575-3.225c.3333-.1667.5958-.4083.7875-.725s.2875-.6667.2875-1.05c0-.55-.1958-1.02083-.5875-1.4125s-.8625-.5875-1.4125-.5875-1.0208.19583-1.4125.5875-.5875.8625-.5875 1.4125c0 .3833.0958.7333.2875 1.05s.4542.5583.7875.725z"/></svg>