<svg viewBox="0 0 24 24" xmlns="http://www.w3.org/2000/svg"><path d="m12 23c-1.8667 0-3.58333-.425-5.15-1.275s-2.85-1.9833-3.85-3.4v2.675h-2v-6h6v2h-2.475c.8 1.2 1.85417 2.1667 3.1625 2.9s2.7458 1.1 4.3125 1.1c1.25 0 2.4208-.2375 3.5125-.7125s2.0417-1.1167 2.85-1.925 1.45-1.7583 1.925-2.85.7125-2.2625.7125-3.5125h2c0 1.5167-.2875 2.9417-.8625 4.275s-1.3625 2.5-2.3625 3.5-2.1667 1.7875-3.5 2.3625-2.7583.8625-4.275.8625zm-.9-4v-1.3c-.7833-.1833-1.42083-.5208-1.9125-1.0125s-.85417-1.1375-1.0875-1.9375l1.65-.65c.2.6833.5125 1.1958.9375 1.5375s.9125.5125 1.4625.5125 1.0208-.1292 1.4125-.3875.5875-.6625.5875-1.2125c0-.4833-.2042-.875-.6125-1.175s-1.1375-.6417-2.1875-1.025c-.9833-.35-1.70417-.7667-2.1625-1.25s-.6875-1.11667-.6875-1.9c0-.68333.2375-1.30417.7125-1.8625s1.1208-.92083 1.9375-1.0875v-1.25h1.75v1.25c.6.05 1.1458.29167 1.6375.725s.8292.94167 1.0125 1.525l-1.6.65c-.1333-.38333-.35-.70417-.65-.9625s-.7167-.3875-1.25-.3875c-.5833 0-1.0292.125-1.3375.375s-.4625.59167-.4625 1.025.1917.775.575 1.025 1.075.5417 2.075.875c1.2.4333 2 .9417 2.4 1.525s.6 1.225.6 1.925c0 .4833-.0833.9083-.25 1.275s-.3875.6792-.6625.9375-.5958.4667-.9625.625-.7583.2792-1.175.3625v1.25zm-10.1-7c0-1.5167.2875-2.94167.8625-4.275s1.3625-2.5 2.3625-3.5 2.16667-1.7875 3.5-2.3625 2.7583-.8625 4.275-.8625c1.8667 0 3.5833.425 5.15 1.275s2.85 1.98333 3.85 3.4v-2.675h2v6h-6v-2h2.475c-.8-1.2-1.8542-2.16667-3.1625-2.9s-2.7458-1.1-4.3125-1.1c-1.25 0-2.42083.2375-3.5125.7125s-2.04167 1.11667-2.85 1.925-1.45 1.75833-1.925 2.85-.7125 2.2625-.7125 3.5125z"/></svg>