<svg xmlns="http://www.w3.org/2000/svg" viewBox="0 0 512 512">
  <path d="m313 469l-114 0c-108 0-156-48-156-156l0-114c0-108 48-156 156-156l39 0c13 0 23 9 23 23 0 13-10 23-23 23l-39 0c-83 0-110 27-110 110l0 114c0 83 27 110 110 110l114 0c83 0 110-27 110-110l0-39c0-13 10-23 23-23 14 0 23 10 23 23l0 39c0 108-48 156-156 156z m-39-208c-7 0-11-3-16-7-9-9-9-23 0-32l133-133-36 0c-14 0-23-10-23-23 0-14 9-23 23-23l91 0c14 0 23 9 23 23l0 91c0 14-9 23-23 23-13 0-23-9-23-23l0-36-133 133c-4 4-9 7-16 7z"/>
</svg>
