<svg viewBox="0 0 24 24" xmlns="http://www.w3.org/2000/svg"><path d="m8.8 21h-3.8c-.55 0-1.02083-.1958-1.4125-.5875s-.5875-.8625-.5875-1.4125v-3.8c.8 0 1.5-.2542 2.1-.7625s.9-1.1542.9-1.9375-.3-1.4292-.9-1.9375-1.3-.7625-2.1-.7625v-3.8c0-.55.19583-1.02083.5875-1.4125s.8625-.5875 1.4125-.5875h4c0-.7.24167-1.29167.725-1.775.4833-.48333 1.075-.725 1.775-.725s1.2917.24167 1.775.725.725 1.075.725 1.775h4c.55 0 1.0208.19583 1.4125.5875s.5875.8625.5875 1.4125v4c.7 0 1.2917.2417 1.775.725s.725 1.075.725 1.775-.2417 1.2917-.725 1.775-1.075.725-1.775.725v4c0 .55-.1958 1.0208-.5875 1.4125s-.8625.5875-1.4125.5875h-3.8c0-.8333-.2625-1.5417-.7875-2.125s-1.1625-.875-1.9125-.875-1.3875.2917-1.9125.875-.7875 1.2917-.7875 2.125zm-3.8-2h2.125c.4-1.1 1.04167-1.875 1.925-2.325s1.7-.675 2.45-.675 1.5667.225 2.45.675 1.525 1.225 1.925 2.325h2.125v-6h2c.1333 0 .25-.05.35-.15s.15-.2167.15-.35-.05-.25-.15-.35-.2167-.15-.35-.15h-2v-6h-6v-2c0-.13333-.05-.25-.15-.35s-.2167-.15-.35-.15-.25.05-.35.15-.15.21667-.15.35v2h-6v2.2c.9.33333 1.625.89167 2.175 1.675.55.7833.825 1.6583.825 2.625 0 .95-.275 1.8167-.825 2.6s-1.275 1.35-2.175 1.7z"/></svg>