<svg viewBox="0 0 24 24" xmlns="http://www.w3.org/2000/svg"><path d="m16.1 13.1855-1.45-1.45c.15-.7833-.075-1.5166-.675-2.19995-.6-.68334-1.375-.95-2.325-.8l-1.45-1.45c.2833-.13334.5708-.23334.8625-.3.2917-.06667.6042-.1.9375-.1 1.25 0 2.3125.4375 3.1875 1.3125s1.3125 1.93745 1.3125 3.18745c0 .3334-.0333.6459-.1.9375-.0667.2917-.1667.5792-.3.8625zm3.2 3.15-1.45-1.4c.6333-.4833 1.1958-1.0125 1.6875-1.5875s.9125-1.2291 1.2625-1.9625c-.8333-1.68329-2.0292-3.02079-3.5875-4.01245-1.5583-.99167-3.2958-1.4875-5.2125-1.4875-.4833 0-.9583.03333-1.425.1-.4667.06666-.925.16666-1.375.3l-1.55-1.55c.68333-.28334 1.38333-.49584 2.1-.6375.7167-.14167 1.4667-.2125 2.25-.2125 2.5167 0 4.7583.69583 6.725 2.0875 1.9667 1.39166 3.3917 3.19583 4.275 5.41245-.3833.9834-.8875 1.8959-1.5125 2.7375-.625.8417-1.3542 1.5792-2.1875 2.2125zm.5 6.15-4.2-4.15c-.5833.1834-1.1708.3209-1.7625.4125-.5917.0917-1.2042.1375-1.8375.1375-2.51667 0-4.75833-.6958-6.725-2.0875-1.96667-1.3916-3.39167-3.1958-4.275-5.4125.35-.8833.79167-1.70412 1.325-2.46245.53333-.75834 1.14167-1.4375 1.825-2.0375l-2.75-2.8 1.4-1.4 18.4 18.39995zm-14.25-14.19995c-.48333.43333-.925.90833-1.325 1.425-.4.51665-.74167 1.07495-1.025 1.67495.83333 1.6834 2.02917 3.0209 3.5875 4.0125 1.55833.9917 3.2958 1.4875 5.2125 1.4875.3333 0 .6583-.0208.975-.0625.3167-.0416.6417-.0875.975-.1375l-.9-.95c-.1833.05-.3583.0875-.525.1125s-.3417.0375-.525.0375c-1.25 0-2.3125-.4375-3.1875-1.3125s-1.3125-1.9375-1.3125-3.1875c0-.1833.0125-.3583.0375-.525.025-.1666.0625-.3416.1125-.525z"/></svg>