<svg viewBox="0 0 24 24" xmlns="http://www.w3.org/2000/svg"><path d="m12 15.8855c1.25 0 2.3125-.4375 3.1875-1.3125s1.3125-1.9375 1.3125-3.1875-.4375-2.3125-1.3125-3.1875-1.9375-1.3125-3.1875-1.3125-2.3125.4375-3.1875 1.3125-1.3125 1.9375-1.3125 3.1875.4375 2.3125 1.3125 3.1875 1.9375 1.3125 3.1875 1.3125zm0-1.8c-.75 0-1.3875-.2625-1.9125-.7875s-.7875-1.1625-.7875-1.9125.2625-1.3875.7875-1.9125 1.1625-.7875 1.9125-.7875 1.3875.2625 1.9125.7875.7875 1.1625.7875 1.9125-.2625 1.3875-.7875 1.9125-1.1625.7875-1.9125.7875zm0 4.8c-2.43333 0-4.65-.6792-6.65-2.0375s-3.45-3.1792-4.35-5.4625c.9-2.28334 2.35-4.10417 4.35-5.4625 2-1.35834 4.21667-2.0375 6.65-2.0375 2.4333 0 4.65.67916 6.65 2.0375 2 1.35833 3.45 3.17916 4.35 5.4625-.9 2.2833-2.35 4.1042-4.35 5.4625s-4.2167 2.0375-6.65 2.0375zm0-2c1.8833 0 3.6125-.4958 5.1875-1.4875s2.7792-2.3292 3.6125-4.0125c-.8333-1.68334-2.0375-3.02084-3.6125-4.0125-1.575-.99167-3.3042-1.4875-5.1875-1.4875s-3.6125.49583-5.1875 1.4875c-1.575.99166-2.77917 2.32916-3.6125 4.0125.83333 1.6833 2.0375 3.0208 3.6125 4.0125s3.3042 1.4875 5.1875 1.4875z"/></svg>