<svg viewBox="0 0 24 24" xmlns="http://www.w3.org/2000/svg"><path clip-rule="evenodd" d="m3.68175 5.4793v2.16728c0 .46439-.37649.84087-.84088.84087-.4644 0-.84087-.37648-.84087-.84087v-2.16728c0-1.91881 1.56051-3.4793 3.4793-3.4793h2.16728c.4644 0 .84087.37648.84087.84087 0 .4644-.37647.84087-.84087.84087h-2.16728c-.99085 0-1.79755.80669-1.79755 1.79756zm3.96483 14.8389c.4644 0 .84087.3765.84087.8409s-.37647.8409-.84087.8409h-2.16728c-1.91879 0-3.4793-1.5605-3.4793-3.4793v-2.1673c0-.4644.37647-.8408.84087-.8408.46439 0 .84088.3764.84088.8408v2.1673c0 .9908.8067 1.7975 1.79755 1.7975zm14.35342-3.9648v2.1673c0 1.9188-1.5605 3.4793-3.4793 3.4793h-2.1673c-.4644 0-.8409-.3765-.8409-.8409s.3765-.8409.8409-.8409h2.1673c.9909 0 1.7975-.8067 1.7975-1.7975v-2.1673c0-.4644.3765-.8408.8409-.8408s.8409.3764.8409.8408zm0-10.8741v2.16728c0 .46439-.3765.84087-.8409.84087s-.8409-.37648-.8409-.84087v-2.16728c0-.99087-.8066-1.79756-1.7975-1.79756h-2.1673c-.4644 0-.8409-.37647-.8409-.84087 0-.46439.3765-.84087.8409-.84087h2.1673c1.9188 0 3.4793 1.56049 3.4793 3.4793zm-8.6315 4.14612v3.61848c0 .9108-.7404 1.6512-1.6512 1.6512h-.4147c-.4748 0-.8597-.3849-.8597-.8597 0-.4749.3849-.8598.8597-.8598h.3464v-3.55018c0-.47482.3849-.85972.8598-.85972.4748 0 .8597.3849.8597.85972zm3.5054-.02827v1.45115c0 .4592-.3722.8314-.8314.8314s-.8315-.3722-.8315-.8314v-1.45115c0-.4592.3723-.83145.8315-.83145s.8314.37225.8314.83145zm-8.80323 2.28255c-.45919 0-.83145-.3722-.83145-.8314v-1.45115c0-.4592.37226-.83145.83145-.83145s.83145.37225.83145.83145v1.45115c0 .4592-.37226.8314-.83145.8314z" fill-rule="evenodd"/><path d="m15.6195 16.8718c.3488-.3222.3703-.866.0482-1.2148-.3222-.3488-.8661-.3704-1.2149-.0483-.6697.6186-1.5403.9592-2.4529.9592s-1.7833-.3406-2.45293-.9592c-.34882-.3221-.89265-.3005-1.21483.0483-.32216.3488-.30063.8926.04818 1.2148.98803.9126 2.27388 1.4154 3.61958 1.4154s2.6315-.5028 3.6196-1.4154z"/></svg>