<svg viewBox="0 0 24 24" xmlns="http://www.w3.org/2000/svg"><path clip-rule="evenodd" d="m2.11719 7.65161v-2.4707c0-1.35051 1.09873-2.44922 2.44922-2.44922h2.4707c.30849 0 .55859-.2501.55859-.55859 0-.3085-.2501-.5586-.55859-.5586h-2.4707c-1.96651 0-3.56641 1.59988-3.56641 3.56641v2.4707c0 .3085.2501.5586.55859.5586.3085 0 .5586-.2501.5586-.5586zm4.91992 14.84569c.30849 0 .55859.2501.55859.5586s-.2501.5586-.55859.5586h-2.4707c-1.96651 0-3.56641-1.5999-3.56641-3.5664v-2.4707c0-.3085.2501-.5586.55859-.5586.3085 0 .5586.2501.5586.5586v2.4707c0 1.3505 1.09873 2.4492 2.44922 2.4492zm15.96289-4.9199v2.4707c0 1.9665-1.5999 3.5664-3.5664 3.5664h-2.4707c-.3085 0-.5586-.2501-.5586-.5586s.2501-.5586.5586-.5586h2.4707c1.3505 0 2.4492-1.0987 2.4492-2.4492v-2.4707c0-.3085.2501-.5586.5586-.5586s.5586.2501.5586.5586zm0-12.39649v2.4707c0 .3085-.2501.5586-.5586.5586s-.5586-.2501-.5586-.5586v-2.4707c0-1.35051-1.0987-2.44922-2.4492-2.44922h-2.4707c-.3085 0-.5586-.2501-.5586-.55859 0-.3085.2501-.5586.5586-.5586h2.4707c1.9665 0 3.5664 1.59988 3.5664 3.56641zm-7.1451 12.69369c.2353-.2174.2499-.5844.0325-.8197s-.5844-.2499-.8197-.0325c-.8374.7735-1.9269 1.1995-3.0677 1.1995-1.1409 0-2.23036-.426-3.06775-1.1995-.23539-.2174-.60232-.2028-.81972.0325-.21738.2353-.20283.6023.03251.8197 1.05241.9721 2.42146 1.5075 3.85496 1.5075s2.8025-.5354 3.8549-1.5075zm-2.6948-7.96711v4.12501c0 .8174-.665 1.4824-1.4824 1.4824h-.4727c-.3204 0-.5801-.2597-.5801-.5801 0-.3203.2597-.58.5801-.58h.4727c.1777 0 .3222-.1446.3222-.3223v-4.12501c0-.32038.2597-.58008.5801-.58008s.5801.2597.5801.58008zm3.9962 1.62211v-1.65434c0-.30257-.2453-.54785-.5478-.54785-.3026 0-.5479.24528-.5479.54785v1.65434c0 .3025.2453.5478.5479.5478.3025 0 .5478-.2453.5478-.5478zm-10.18358 0c0 .3025.24528.5478.54785.5478.30256 0 .54785-.2453.54785-.5478v-1.65434c0-.30257-.24529-.54785-.54785-.54785-.30257 0-.54785.24528-.54785.54785z" fill-rule="evenodd"/></svg>