<svg viewBox="0 0 24 24" xmlns="http://www.w3.org/2000/svg"><path d="m12.0248 4.70403c1.7667 0 3.4333.37917 5 1.1375s2.875 1.85417 3.925 3.2875c.1167.15.1542.28333.1125.4s-.1125.21667-.2125.3-.2167.12083-.35.1125-.25-.07917-.35-.2125c-.9167-1.3-2.0958-2.29583-3.5375-2.9875s-2.9708-1.0375-4.5875-1.0375-3.13335.34583-4.55001 1.0375c-1.41667.69167-2.59167 1.6875-3.525 2.9875-.1.15-.21667.23333-.35.25-.13334.01667-.25-.01667-.35-.1-.11667-.08333-.1875-.1875-.2125-.3125s.0125-.25417.1125-.3875c1.03333-1.41667 2.32916-2.51667 3.8875-3.3 1.55833-.78333 3.22081-1.175 4.98751-1.175zm0 2.35c2.25 0 4.1833.75 5.8 2.25 1.6167 1.49997 2.425 3.35837 2.425 5.57497 0 .8334-.2958 1.5292-.8875 2.0875-.5917.5584-1.3125.8375-2.1625.8375s-1.5792-.2791-2.1875-.8375c-.6083-.5583-.9125-1.2541-.9125-2.0875 0-.55-.2042-1.0125-.6125-1.3875s-.8958-.5625-1.4625-.5625-1.0542.1875-1.4625.5625-.61251.8375-.61251 1.3875c0 1.6167.47921 2.9667 1.43751 4.05.9583 1.0834 2.1958 1.8417 3.7125 2.275.15.05.25.1334.3.25.05.1167.0583.2417.025.375-.0333.1167-.1.2167-.2.3-.1.0834-.225.1084-.375.075-1.7333-.4333-3.15-1.2958-4.25-2.5875-1.10001-1.2916-1.65001-2.8708-1.65001-4.7375 0-.8333.3-1.5333.9-2.1.60001-.5666 1.32501-.85 2.17501-.85s1.575.2834 2.175.85c.6.5667.9 1.2667.9 2.1 0 .55.2083 1.0125.625 1.3875s.9083.5625 1.475.5625 1.05-.1875 1.45-.5625.6-.8375.6-1.3875c0-1.9333-.7083-3.5583-2.125-4.875-1.4167-1.31664-3.1083-1.97497-5.075-1.97497s-3.65835.65833-5.07501 1.97497c-1.41667 1.3167-2.125 2.9334-2.125 4.85 0 .4.0375.9.1125 1.5s.25416 1.3.5375 2.1c.05.15.04583.2834-.0125.4-.05834.1167-.15417.2-.2875.25-.13334.05-.2625.0459-.3875-.0125-.125-.0583-.2125-.1541-.2625-.2875-.25-.65-.42917-1.2958-.5375-1.9375-.10834-.6416-.1625-1.3041-.1625-1.9875 0-2.2166.80416-4.075 2.4125-5.57497 1.60833-1.5 3.52916-2.25 5.76251-2.25zm0-4.8c1.0667 0 2.1083.12916 3.125.3875 1.0167.25833 2 .62916 2.95 1.1125.15.08333.2375.18333.2625.3s.0125.23333-.0375.35-.1333.20833-.25.275-.2583.05833-.425-.025c-.8833-.45-1.7958-.79583-2.7375-1.0375s-1.9042-.3625-2.8875-.3625c-.9667 0-1.9167.1125-2.85001.3375-.93334.225-1.825.57916-2.675 1.0625-.13334.08333-.26667.10417-.4.0625-.13334-.04167-.23334-.12917-.3-.2625-.06667-.13333-.08334-.25417-.05-.3625.03333-.10833.11666-.20417.25-.2875.93333-.5 1.90833-.88333 2.925-1.15 1.01666-.26667 2.05001-.4 3.10001-.4zm0 7.225c1.55 0 2.8833.52083 4 1.56247 1.1167 1.0417 1.675 2.3209 1.675 3.8375 0 .15-.0458.2709-.1375.3625-.0917.0917-.2125.1375-.3625.1375-.1333 0-.25-.0458-.35-.1375-.1-.0916-.15-.2125-.15-.3625 0-1.25-.4625-2.2958-1.3875-3.1375-.925-.8416-2.0208-1.2625-3.2875-1.2625s-2.35418.4209-3.26251 1.2625c-.90834.8417-1.3625 1.8875-1.3625 3.1375 0 1.35.23333 2.4959.7 3.4375.46666.9417 1.15 1.8875 2.05001 2.8375.1.1.15.2167.15.35 0 .1334-.05.25-.15.35s-.21668.15-.35001.15c-.13334 0-.25-.05-.35-.15-.98334-1.0333-1.7375-2.0875-2.2625-3.1625s-.7875-2.3458-.7875-3.8125c0-1.5166.55-2.7958 1.65-3.8375 1.1-1.04164 2.42501-1.56247 3.97501-1.56247zm-.025 4.89997c.15 0 .2708.05.3625.15s.1375.2167.1375.35c0 1.25.45 2.275 1.35 3.075s1.95 1.2 3.15 1.2c.1 0 .2417-.0083.425-.025.1833-.0166.375-.0416.575-.075.15-.0333.2792-.0125.3875.0625s.1792.1875.2125.3375c.0333.1334.0083.25-.075.35s-.1917.1667-.325.2c-.3.0834-.5625.1292-.7875.1375-.225.0084-.3625.0125-.4125.0125-1.4833 0-2.7708-.5-3.8625-1.5s-1.6375-2.2583-1.6375-3.775c0-.1333.0458-.25.1375-.35s.2125-.15.3625-.15z"/></svg>