<svg viewBox="0 0 24 24" xmlns="http://www.w3.org/2000/svg"><path d="m6 14c0 .8667.175 1.6875.525 2.4625s.85 1.4542 1.5 2.0375c-.01667-.0833-.025-.1583-.025-.225v-.225c0-.5333.1-1.0333.3-1.5s.49167-.8917.875-1.275l2.825-2.775 2.825 2.775c.3833.3833.675.8083.875 1.275s.3.9667.3 1.5v.225c0 .0667-.0083.1417-.025.225.65-.5833 1.15-1.2625 1.5-2.0375s.525-1.5958.525-2.4625c0-.8333-.1542-1.6208-.4625-2.3625s-.7542-1.4042-1.3375-1.9875c-.3333.21667-.6833.3792-1.05.4875s-.7417.1625-1.125.1625c-1.0333 0-1.9292-.34167-2.6875-1.025s-1.1958-1.525-1.3125-2.525c-.65.55-1.225 1.12083-1.725 1.7125s-.92083 1.19167-1.2625 1.8c-.34167.6083-.6 1.2292-.775 1.8625s-.2625 1.2583-.2625 1.875zm6 1.3-1.425 1.4c-.1833.1833-.325.3917-.425.625s-.15.475-.15.725c0 .5333.1958.9917.5875 1.375s.8625.575 1.4125.575 1.0208-.1917 1.4125-.575.5875-.8417.5875-1.375c0-.2667-.05-.5125-.15-.7375s-.2417-.4292-.425-.6125zm0-12.3v3.3c0 .56667.1958 1.04167.5875 1.425s.8708.575 1.4375.575c.3 0 .5792-.0625.8375-.1875s.4875-.3125.6875-.5625l.45-.55c1.2333.7 2.2083 1.675 2.925 2.925s1.075 2.6083 1.075 4.075c0 2.2333-.775 4.125-2.325 5.675s-3.4417 2.325-5.675 2.325c-2.23333 0-4.125-.775-5.675-2.325s-2.325-3.4417-2.325-5.675c0-2.15.72083-4.19167 2.1625-6.125s3.3875-3.55833 5.8375-4.875z"/></svg>