<svg viewBox="0 0 24 24" xmlns="http://www.w3.org/2000/svg"><path d="m5.00018 21c-.85 0-1.45416-.3792-1.8125-1.1375-.35833-.7583-.27083-1.4625.2625-2.1125l5.55-6.75v-6h-1c-.28333 0-.52083-.09583-.7125-.2875-.19166-.19167-.2875-.42917-.2875-.7125s.09584-.52083.2875-.7125c.19167-.19167.42917-.2875.7125-.2875h8.00002c.2833 0 .5208.09583.7125.2875s.2875.42917.2875.7125-.0958.52083-.2875.7125-.4292.2875-.7125.2875h-1v6l5.55 6.75c.5333.65.6208 1.3542.2625 2.1125s-.9625 1.1375-1.8125 1.1375zm2-3h10.00002l-3.4-4h-3.2zm-2 1h14.00002l-6-7.3v-6.7h-2v6.7z"/></svg>