<svg viewBox="0 0 24 24" xmlns="http://www.w3.org/2000/svg"><path d="m10.65 20c-.15-.4333-.3417-.8333-.575-1.2-.23333-.3667-.50833-.7083-.825-1.025s-.65833-.5958-1.025-.8375-.76667-.4375-1.2-.5875c.03333.4833.15.9333.35 1.35s.46667.7917.8 1.125.70833.6042 1.125.8125.8667.3292 1.35.3625zm2.7 0c.4833-.05.9333-.175 1.35-.375s.7917-.4667 1.125-.8.6-.7083.8-1.125.325-.8667.375-1.35c-.4333.15-.8375.3417-1.2125.575s-.7208.5083-1.0375.825-.5917.6625-.825 1.0375-.425.7792-.575 1.2125zm-1.35-9c1.1 0 2.0417-.3917 2.825-1.175.7833-.78333 1.175-1.725 1.175-2.825v-1.2l-1.75 1.475-2.25-2.725-2.25 2.725-1.75-1.475v1.2c0 1.1.39167 2.04167 1.175 2.825.78333.7833 1.725 1.175 2.825 1.175zm-1 11c-1.66667 0-3.08333-.5833-4.25-1.75s-1.75-2.5833-1.75-4.25v-2c1.18333-.0167 2.3.225 3.35.725s1.9333 1.175 2.65 2.025v-3.825c-1.43333-.2333-2.625-.9042-3.575-2.0125-.95-1.10833-1.425-2.4125-1.425-3.9125v-3.4c0-.43333.19167-.7375.575-.9125s.74167-.12083 1.075.1625l1.85 1.6 1.725-2.1c.2-.23333.4583-.35.775-.35s.575.11667.775.35l1.725 2.1 1.85-1.6c.3333-.28333.6917-.3375 1.075-.1625s.575.47917.575.9125v3.4c0 1.5-.475 2.80417-1.425 3.9125-.95 1.1083-2.1417 1.7792-3.575 2.0125v3.825c.7167-.85 1.6-1.525 2.65-2.025s2.1667-.7417 3.35-.725v2c0 1.6667-.5833 3.0833-1.75 4.25s-2.5833 1.75-4.25 1.75z"/></svg>