<svg viewBox="0 0 24 24" xmlns="http://www.w3.org/2000/svg"><path d="m4 21v-16c0-.55.19583-1.02083.5875-1.4125s.8625-.5875 1.4125-.5875h6c.55 0 1.0208.19583 1.4125.5875s.5875.8625.5875 1.4125v7h1c.55 0 1.0208.1958 1.4125.5875s.5875.8625.5875 1.4125v4.5c0 .2833.0958.5208.2875.7125s.4292.2875.7125.2875.5208-.0958.7125-.2875.2875-.4292.2875-.7125v-7.2c-.15.0833-.3083.1375-.475.1625s-.3417.0375-.525.0375c-.7 0-1.2917-.2417-1.775-.725s-.725-1.075-.725-1.775c0-.53333.1458-1.0125.4375-1.4375s.6792-.72917 1.1625-.9125l-2.1-2.1 1.05-1.05 3.7 3.6c.25.25.4375.54167.5625.875s.1875.675.1875 1.025v9.5c0 .7-.2417 1.2917-.725 1.775s-1.075.725-1.775.725-1.2917-.2417-1.775-.725-.725-1.075-.725-1.775v-5h-1.5v7.5zm2-11h6v-5h-6zm12 0c.2833 0 .5208-.09583.7125-.2875s.2875-.42917.2875-.7125-.0958-.52083-.2875-.7125-.4292-.2875-.7125-.2875-.5208.09583-.7125.2875-.2875.42917-.2875.7125.0958.52083.2875.7125.4292.2875.7125.2875zm-12 9h6v-7h-6z"/></svg>