<svg viewBox="0 0 24 24" xmlns="http://www.w3.org/2000/svg"><path d="m4 22v-11h-2v-6h5.2c-.08333-.15-.1375-.30833-.1625-.475s-.0375-.34167-.0375-.525c0-.83333.29167-1.54167.875-2.125s1.29167-.875 2.125-.875c.3833 0 .7417.07083 1.075.2125s.6417.3375.925.5875c.2833-.26667.5917-.46667.925-.6s.6917-.2 1.075-.2c.8333 0 1.5417.29167 2.125.875s.875 1.29167.875 2.125c0 .18333-.0167.35417-.05.5125s-.0833.32083-.15.4875h5.2v6h-2v11zm10-19c-.2833 0-.5208.09583-.7125.2875s-.2875.42917-.2875.7125.0958.52083.2875.7125.4292.2875.7125.2875.5208-.09583.7125-.2875.2875-.42917.2875-.7125-.0958-.52083-.2875-.7125-.4292-.2875-.7125-.2875zm-5 1c0 .28333.09583.52083.2875.7125s.42917.2875.7125.2875c.2833 0 .5208-.09583.7125-.2875s.2875-.42917.2875-.7125-.0958-.52083-.2875-.7125-.4292-.2875-.7125-.2875c-.28333 0-.52083.09583-.7125.2875s-.2875.42917-.2875.7125zm-5 3v2h7v-2zm7 13v-9h-5v9zm2 0h5v-9h-5zm7-11v-2h-7v2z"/></svg>