<svg viewBox="0 0 24 24" xmlns="http://www.w3.org/2000/svg"><path d="m4 22.229v-11h-2v-6h5.2c-.08333-.15-.1375-.30833-.1625-.475-.025-.16666-.0375-.34166-.0375-.525 0-.83333.29167-1.54166.875-2.125.58333-.58333 1.29167-.875 2.125-.875.3833 0 .7417.07084 1.075.2125.3333.14167.6417.3375.925.5875.2833-.26666.5917-.46666.925-.6.3333-.13333.6917-.2 1.075-.2.8333 0 1.5417.29167 2.125.875.5833.58334.875 1.29167.875 2.125 0 .18334-.0167.35417-.05.5125-.0333.15834-.0833.32084-.15.4875h5.2v6h-2v11zm10-19c-.2833 0-.5208.09584-.7125.2875-.1917.19167-.2875.42917-.2875.7125 0 .28334.0958.52084.2875.7125.1917.19167.4292.2875.7125.2875s.5208-.09583.7125-.2875c.1917-.19166.2875-.42916.2875-.7125 0-.28333-.0958-.52083-.2875-.7125-.1917-.19166-.4292-.2875-.7125-.2875zm-5 1c0 .28334.09583.52084.2875.7125.19167.19167.42917.2875.7125.2875.2833 0 .5208-.09583.7125-.2875.1917-.19166.2875-.42916.2875-.7125 0-.28333-.0958-.52083-.2875-.7125-.1917-.19166-.4292-.2875-.7125-.2875-.28333 0-.52083.09584-.7125.2875-.19167.19167-.2875.42917-.2875.7125zm-5 3v2h7v-2zm7 13v-9h-5v9zm2 0h5v-9h-5zm7-11v-2h-7v2z"/></svg>