<svg viewBox="0 0 24 24" xmlns="http://www.w3.org/2000/svg"><path d="m11.75 22c-1.3833 0-2.68333-.2625-3.9-.7875s-2.275-1.2375-3.175-2.1375-1.6125-1.9583-2.1375-3.175-.7875-2.5167-.7875-3.9.2625-2.68333.7875-3.9 1.2375-2.275 2.1375-3.175 1.95833-1.6125 3.175-2.1375 2.5167-.7875 3.9-.7875c2.4333 0 4.5625.7625 6.3875 2.2875s2.9625 3.4375 3.4125 5.7375h-2.05c-.3167-1.21667-.8875-2.30417-1.7125-3.2625s-1.8375-1.67917-3.0375-2.1625v.4c0 .55-.1958 1.02083-.5875 1.4125s-.8625.5875-1.4125.5875h-2v2c0 .28333-.0958.52083-.2875.7125s-.4292.2875-.7125.2875h-2v2h2v3h-1l-4.8-4.8c-.05.3-.09583.6-.1375.9s-.0625.6-.0625.9c0 2.1833.76667 4.0583 2.3 5.625s3.43333 2.3583 5.7 2.375zm9.1-.5-3.2-3.2c-.35.2-.725.3667-1.125.5s-.825.2-1.275.2c-1.25 0-2.3125-.4375-3.1875-1.3125s-1.3125-1.9375-1.3125-3.1875.4375-2.3125 1.3125-3.1875 1.9375-1.3125 3.1875-1.3125 2.3125.4375 3.1875 1.3125 1.3125 1.9375 1.3125 3.1875c0 .45-.0667.875-.2 1.275s-.3.775-.5 1.125l3.2 3.2zm-5.6-4.5c.7 0 1.2917-.2417 1.775-.725s.725-1.075.725-1.775-.2417-1.2917-.725-1.775-1.075-.725-1.775-.725-1.2917.2417-1.775.725-.725 1.075-.725 1.775.2417 1.2917.725 1.775 1.075.725 1.775.725z"/></svg>