<svg width="24" height="26" viewBox="0 0 24 26" fill="none" xmlns="http://www.w3.org/2000/svg">
  <g clip-path="url(#clip0_252_232019)">
    <path
      d="M23.9888 13.2297C23.9888 12.2234 23.9071 11.4891 23.7304 10.7275H12.2393V15.2695H18.9843C18.8484 16.3983 18.114 18.0982 16.4821 19.2404L16.4592 19.3925L20.0925 22.2071L20.3442 22.2323C22.656 20.0972 23.9888 16.9558 23.9888 13.2297Z"
      fill="#4285F4" />
    <path
      d="M12.2393 25.1973C15.5438 25.1973 18.3179 24.1094 20.3442 22.2328L16.4821 19.2409C15.4486 19.9617 14.0615 20.4648 12.2393 20.4648C9.00273 20.4648 6.25576 18.3299 5.27654 15.3789L5.13301 15.3911L1.35507 18.3149L1.30566 18.4522C3.31829 22.4503 7.45238 25.1973 12.2393 25.1973Z"
      fill="#34A853" />
    <path
      d="M5.27634 15.3785C5.01797 14.617 4.86844 13.801 4.86844 12.9579C4.86844 12.1147 5.01797 11.2988 5.26275 10.5372L5.25591 10.375L1.43063 7.4043L1.30547 7.46383C0.475969 9.12292 0 10.986 0 12.9579C0 14.9297 0.475969 16.7927 1.30547 18.4518L5.27634 15.3785Z"
      fill="#FBBC05" />
    <path
      d="M12.2393 5.45116C14.5374 5.45116 16.0877 6.44387 16.9717 7.27347L20.4258 3.90091C18.3044 1.92906 15.5438 0.71875 12.2393 0.71875C7.45238 0.71875 3.31829 3.46572 1.30566 7.46378L5.26295 10.5372C6.25576 7.58622 9.00273 5.45116 12.2393 5.45116Z"
      fill="#EB4335" />
  </g>
  <defs>
    <clipPath id="clip0_252_232019">
      <rect width="24" height="24.5625" fill="white" transform="translate(0 0.71875)" />
    </clipPath>
  </defs>
</svg>