<svg viewBox="0 0 24 24" xmlns="http://www.w3.org/2000/svg"><path d="m12 21.9749c-1.3833 0-2.68333-.2625-3.9-.7875s-2.275-1.2417-3.175-2.15-1.6125-1.9708-2.1375-3.1875-.7875-2.5083-.7875-3.875c0-2.61666.86667-4.86666 2.6-6.75 1.73333-1.88333 3.86667-2.95 6.4-3.2v3c-1.71667.23334-3.14583 1.00417-4.2875 2.3125-1.14167 1.30834-1.7125 2.8542-1.7125 4.6375 0 1.9333.68333 3.5833 2.05 4.95s3.0167 2.05 4.95 2.05c1.1 0 2.1292-.2333 3.0875-.7s1.7625-1.1 2.4125-1.9l2.6 1.5c-.9 1.25-2.0583 2.2458-3.475 2.9875s-2.9583 1.1125-4.625 1.1125zm9.15-5.95-2.6-1.5c.15-.4.2625-.8125.3375-1.2375s.1125-.8625.1125-1.3125c0-1.7833-.5708-3.32916-1.7125-4.6375-1.1417-1.30833-2.5708-2.07916-4.2875-2.3125v-3c2.5333.25 4.6667 1.31667 6.4 3.2 1.7333 1.88334 2.6 4.13334 2.6 6.75 0 .7333-.0667 1.4417-.2 2.125s-.35 1.325-.65 1.925z"/></svg>