<svg viewBox="0 0 24 24" xmlns="http://www.w3.org/2000/svg"><path d="m12 21.8855c-1.3833 0-2.68333-.2625-3.9-.7875s-2.275-1.2416-3.175-2.15c-.9-.9083-1.6125-1.9708-2.1375-3.1875-.525-1.2166-.7875-2.5083-.7875-3.875 0-2.61662.86667-4.86662 2.6-6.74995 1.73333-1.88334 3.86667-2.95 6.4-3.2v3c-1.71667.23333-3.14583 1.00416-4.2875 2.3125-1.14167 1.30833-1.7125 2.85415-1.7125 4.63745 0 1.9334.68333 3.5834 2.05 4.95 1.36667 1.3667 3.0167 2.05 4.95 2.05 1.1 0 2.1292-.2333 3.0875-.7.9583-.4666 1.7625-1.1 2.4125-1.9l2.6 1.5c-.9 1.25-2.0583 2.2459-3.475 2.9875-1.4167.7417-2.9583 1.1125-4.625 1.1125zm9.15-5.95-2.6-1.5c.15-.4.2625-.8125.3375-1.2375s.1125-.8625.1125-1.3125c0-1.7833-.5708-3.32912-1.7125-4.63745-1.1417-1.30834-2.5708-2.07917-4.2875-2.3125v-3c2.5333.25 4.6667 1.31666 6.4 3.2 1.7333 1.88333 2.6 4.13333 2.6 6.74995 0 .7334-.0667 1.4417-.2 2.125-.1333.6834-.35 1.325-.65 1.925z"/></svg>