<svg viewBox="0 0 24 24" xmlns="http://www.w3.org/2000/svg"><path d="m4 21c-.83333 0-1.54167-.2917-2.125-.875s-.875-1.2917-.875-2.125c0-.65.1875-1.2333.5625-1.75s.85417-.875 1.4375-1.075v-6.35c-.58333-.2-1.0625-.55833-1.4375-1.075s-.5625-1.1-.5625-1.75c0-.83333.29167-1.54167.875-2.125s1.29167-.875 2.125-.875 1.54167.29167 2.125.875.875 1.29167.875 2.125c0 .65-.1875 1.23333-.5625 1.75s-.85417.875-1.4375 1.075v2.175h6v-2.175c-.5833-.2-1.0625-.55833-1.4375-1.075s-.5625-1.1-.5625-1.75c0-.83333.29167-1.54167.875-2.125.5833-.58333 1.2917-.875 2.125-.875s1.5417.29167 2.125.875.875 1.29167.875 2.125c0 .65-.1875 1.23333-.5625 1.75s-.8542.875-1.4375 1.075v2.175h5c.2833 0 .5208-.0958.7125-.2875s.2875-.4292.2875-.7125v-1.175c-.5833-.2-1.0625-.55833-1.4375-1.075s-.5625-1.1-.5625-1.75c0-.83333.2917-1.54167.875-2.125s1.2917-.875 2.125-.875 1.5417.29167 2.125.875.875 1.29167.875 2.125c0 .65-.1875 1.23333-.5625 1.75s-.8542.875-1.4375 1.075v1.175c0 .8333-.2917 1.5417-.875 2.125s-1.2917.875-2.125.875h-5v2.175c.5833.2 1.0625.5583 1.4375 1.075s.5625 1.1.5625 1.75c0 .8333-.2917 1.5417-.875 2.125s-1.2917.875-2.125.875-1.5417-.2917-2.125-.875c-.58333-.5833-.875-1.2917-.875-2.125 0-.65.1875-1.2333.5625-1.75s.8542-.875 1.4375-1.075v-2.175h-6v2.175c.58333.2 1.0625.5583 1.4375 1.075s.5625 1.1.5625 1.75c0 .8333-.29167 1.5417-.875 2.125s-1.29167.875-2.125.875zm0-2c.28333 0 .52083-.0958.7125-.2875s.2875-.4292.2875-.7125-.09583-.5208-.2875-.7125-.42917-.2875-.7125-.2875-.52083.0958-.7125.2875-.2875.4292-.2875.7125.09583.5208.2875.7125.42917.2875.7125.2875zm0-12c.28333 0 .52083-.09583.7125-.2875s.2875-.42917.2875-.7125-.09583-.52083-.2875-.7125-.42917-.2875-.7125-.2875-.52083.09583-.7125.2875-.2875.42917-.2875.7125.09583.52083.2875.7125.42917.2875.7125.2875zm8 12c.2833 0 .5208-.0958.7125-.2875s.2875-.4292.2875-.7125-.0958-.5208-.2875-.7125-.4292-.2875-.7125-.2875-.5208.0958-.7125.2875-.2875.4292-.2875.7125.0958.5208.2875.7125.4292.2875.7125.2875zm0-12c.2833 0 .5208-.09583.7125-.2875s.2875-.42917.2875-.7125-.0958-.52083-.2875-.7125-.4292-.2875-.7125-.2875-.5208.09583-.7125.2875-.2875.42917-.2875.7125.0958.52083.2875.7125.4292.2875.7125.2875zm8 0c.2833 0 .5208-.09583.7125-.2875s.2875-.42917.2875-.7125-.0958-.52083-.2875-.7125-.4292-.2875-.7125-.2875-.5208.09583-.7125.2875-.2875.42917-.2875.7125.0958.52083.2875.7125.4292.2875.7125.2875z"/></svg>