<svg xmlns="http://www.w3.org/2000/svg" viewBox="0 0 512 512">
  <path d="m448 87l0 69c0 13-10 23-23 23l-1 0 0 29c0 29-24 53-53 53l-235 0 0 53 5 0c21 0 38 17 38 38l0 58c0 21-17 38-38 38l-39 0c-21 0-38-17-38-38l0-58c0-21 17-38 38-38l5 0 0-135-1 0c-12 0-23-10-23-23l0-69c0-13 11-23 23-23l31 0c13 0 23 10 23 23l0 69c0 13-10 23-23 23l-1 0 0 53 115 0 0-53-1 0c-12 0-23-10-23-23l0-69c0-13 11-23 23-23l31 0c13 0 23 10 23 23l0 69c0 13-10 23-23 23l-1 0 0 53 91 0c13 0 24-11 24-24l0-29-1 0c-12 0-23-10-23-23l0-69c0-13 11-23 23-23l31 0c13 0 23 10 23 23z"/>
</svg>
