<svg xmlns="http://www.w3.org/2000/svg" width="17" height="16" viewBox="0 0 17 16" fill="none">
  <path d="M2.5 9.33333H4.5C4.85362 9.33333 5.19276 9.47381 5.44281 9.72386C5.69286 9.97391 5.83333 10.313 5.83333 10.6667V12.6667C5.83333 13.0203 5.69286 13.3594 5.44281 13.6095C5.19276 13.8595 4.85362 14 4.5 14H3.83333C3.47971 14 3.14057 13.8595 2.89052 13.6095C2.64048 13.3594 2.5 13.0203 2.5 12.6667V8C2.5 6.4087 3.13214 4.88258 4.25736 3.75736C5.38258 2.63214 6.9087 2 8.5 2C10.0913 2 11.6174 2.63214 12.7426 3.75736C13.8679 4.88258 14.5 6.4087 14.5 8V12.6667C14.5 13.0203 14.3595 13.3594 14.1095 13.6095C13.8594 13.8595 13.5203 14 13.1667 14H12.5C12.1464 14 11.8072 13.8595 11.5572 13.6095C11.3071 13.3594 11.1667 13.0203 11.1667 12.6667V10.6667C11.1667 10.313 11.3071 9.97391 11.5572 9.72386C11.8072 9.47381 12.1464 9.33333 12.5 9.33333H14.5" stroke="#6F6F6F" stroke-width="1.33" stroke-linecap="round" stroke-linejoin="round"/>
</svg>