<svg viewBox="0 0 24 24" xmlns="http://www.w3.org/2000/svg"><path d="m12 21-1.45-1.3c-1.68333-1.5166-3.075-2.825-4.175-3.925s-1.975-2.0875-2.625-2.9625-1.10417-1.6791-1.3625-2.4125c-.25833-.73331-.3875-1.48331-.3875-2.24998 0-1.56666.525-2.875 1.575-3.925s2.35833-1.575 3.925-1.575c.86667 0 1.69167.18334 2.475.55.7833.36667 1.4583.88334 2.025 1.55.5667-.66666 1.2417-1.18333 2.025-1.55.7833-.36666 1.6083-.55 2.475-.55 1.5667 0 2.875.525 3.925 1.575s1.575 2.35834 1.575 3.925c0 .76667-.1292 1.51667-.3875 2.24998-.2583.7334-.7125 1.5375-1.3625 2.4125s-1.525 1.8625-2.625 2.9625-2.4917 2.4084-4.175 3.925z"/></svg>