<svg viewBox="0 0 24 24" xmlns="http://www.w3.org/2000/svg"><path d="m12 20.8854-1.45-1.3c-1.68333-1.5167-3.075-2.825-4.175-3.925s-1.975-2.0875-2.625-2.9625-1.10417-1.6792-1.3625-2.4125c-.25833-.73333-.3875-1.48333-.3875-2.25 0-1.56667.525-2.875 1.575-3.925s2.35833-1.575 3.925-1.575c.86667 0 1.69167.18333 2.475.55.7833.36667 1.4583.88333 2.025 1.55.5667-.66667 1.2417-1.18333 2.025-1.55s1.6083-.55 2.475-.55c1.5667 0 2.875.525 3.925 1.575s1.575 2.35833 1.575 3.925c0 .76667-.1292 1.51667-.3875 2.25-.2583.7333-.7125 1.5375-1.3625 2.4125s-1.525 1.8625-2.625 2.9625-2.4917 2.4083-4.175 3.925zm0-2.7c1.6-1.4333 2.9167-2.6625 3.95-3.6875s1.85-1.9167 2.45-2.675 1.0167-1.4333 1.25-2.025c.2333-.59167.35-1.17917.35-1.7625 0-1-.3333-1.83333-1-2.5s-1.5-1-2.5-1c-.7833 0-1.5083.22083-2.175.6625s-1.125 1.00417-1.375 1.6875h-1.9c-.25-.68333-.7083-1.24583-1.375-1.6875-.66667-.44167-1.39167-.6625-2.175-.6625-1 0-1.83333.33333-2.5 1s-1 1.5-1 2.5c0 .58333.11667 1.17083.35 1.7625.23333.5917.65 1.2667 1.25 2.025s1.41667 1.65 2.45 2.675 2.35 2.2542 3.95 3.6875z"/></svg>