<svg viewBox="0 0 24 24" xmlns="http://www.w3.org/2000/svg"><path d="m7 22c-.83333 0-1.54167-.2917-2.125-.875s-.875-1.2917-.875-2.125c0-.65.1875-1.2333.5625-1.75s.85417-.875 1.4375-1.075v-8.35c-.58333-.2-1.0625-.55833-1.4375-1.075s-.5625-1.1-.5625-1.75c0-.83333.29167-1.54167.875-2.125s1.29167-.875 2.125-.875 1.54167.29167 2.125.875.875 1.29167.875 2.125c0 .65-.1875 1.23333-.5625 1.75s-.85417.875-1.4375 1.075v.175c0 .83333.29167 1.54167.875 2.125.58333.5833 1.2917.875 2.125.875h2c1.3833 0 2.5625.4875 3.5375 1.4625s1.4625 2.1542 1.4625 3.5375v.175c.5833.2 1.0625.5583 1.4375 1.075s.5625 1.1.5625 1.75c0 .8333-.2917 1.5417-.875 2.125s-1.2917.875-2.125.875-1.5417-.2917-2.125-.875-.875-1.2917-.875-2.125c0-.65.1875-1.2333.5625-1.75s.8542-.875 1.4375-1.075v-.175c0-.8333-.2917-1.5417-.875-2.125s-1.2917-.875-2.125-.875h-2c-.5667 0-1.10417-.0875-1.6125-.2625s-.97083-.4208-1.3875-.7375v4.175c.58333.2 1.0625.5583 1.4375 1.075s.5625 1.1.5625 1.75c0 .8333-.29167 1.5417-.875 2.125s-1.29167.875-2.125.875zm0-2c.28333 0 .52083-.0958.7125-.2875s.2875-.4292.2875-.7125-.09583-.5208-.2875-.7125-.42917-.2875-.7125-.2875-.52083.0958-.7125.2875-.2875.4292-.2875.7125.09583.5208.2875.7125.42917.2875.7125.2875zm10 0c.2833 0 .5208-.0958.7125-.2875s.2875-.4292.2875-.7125-.0958-.5208-.2875-.7125-.4292-.2875-.7125-.2875-.5208.0958-.7125.2875-.2875.4292-.2875.7125.0958.5208.2875.7125.4292.2875.7125.2875zm-10-14c.28333 0 .52083-.09583.7125-.2875s.2875-.42917.2875-.7125-.09583-.52083-.2875-.7125-.42917-.2875-.7125-.2875-.52083.09583-.7125.2875-.2875.42917-.2875.7125.09583.52083.2875.7125.42917.2875.7125.2875z"/></svg>