<svg xmlns="http://www.w3.org/2000/svg" id="icon-user-circle-add-filled" viewBox="0 0 512 512">
  <path d="m436 77c-14-16-35-26-58-26-22 0-41 9-56 24-8 8-14 18-18 30-2 7-4 16-4 24 0 15 4 29 12 40 3 7 9 13 14 18 14 13 32 20 52 20 9 0 17-1 25-4 18-6 33-18 42-34 4-6 7-14 9-22 2-5 2-12 2-18 0-20-7-38-20-52z m-29 66l-14 0 0 16c0 8-7 14-15 14-8 0-14-6-14-14l0-16-15 0c-8 0-14-6-14-14 0-8 6-15 14-15l15 0 0-14c0-8 6-14 14-14 8 0 15 6 15 14l0 14 14 0c8 0 15 7 15 15 0 8-6 14-15 14z m30 123c0-26-5-50-14-73-6 4-13 8-20 10-2 1-5 2-7 2 7 19 12 39 12 61 0 45-19 86-48 116-6-7-13-14-22-19-53-36-139-36-193 0-8 5-15 12-21 19-30-30-48-71-48-116 0-92 74-166 166-166 21 0 42 4 60 11 1-2 1-4 2-6 3-8 6-14 10-20-22-9-47-14-72-14-108 0-195 87-195 195 0 56 24 107 63 143 0 0 0 0 0 0 1 2 4 4 6 6 1 1 2 2 3 2 4 3 7 6 11 9 2 1 3 1 4 2 4 3 8 5 12 7 1 1 3 2 4 3 4 2 8 4 12 6 2 1 4 1 5 2 4 2 9 3 13 5 1 0 3 1 5 1 4 2 9 3 14 4 1 0 2 1 4 1 5 1 11 2 17 2 0 0 1 1 2 1 7 0 13 1 20 1 6 0 13-1 19-1 1 0 2 0 3-1 5 0 11-1 16-2 2 0 3-1 5-1 4-1 9-2 14-4 1 0 3-1 4-1 5-2 9-3 13-5 2-1 3-1 5-2 4-2 8-4 12-6 2-1 3-2 5-3 3-2 7-4 11-7 2 0 3-1 4-2 4-3 8-6 11-9 1-1 2-2 4-2 2-2 4-4 6-6 0 0 0 0 0 0 38-36 63-87 63-143z m-195-99c-41 0-73 33-73 73 0 40 31 72 72 73 0 0 1 0 2 0 0 0 1 0 1 0 0 0 0 0 0 0 40-1 71-33 71-73 0-40-33-73-73-73z"/>
</svg>