<svg xmlns="http://www.w3.org/2000/svg" id="icon-security-card-filled" viewBox="0 0 512 512">
  <path d="m282 284l-51 0c-6 0-11 5-11 11 0 6 5 11 11 11l51 0c6 0 11-5 11-11 0-6-5-11-11-11z m-83 0l-26 0c-6 0-11 5-11 11 0 6 5 11 11 11l26 0c6 0 11-5 11-11 0-6-5-11-11-11z m186-187l-112-43c-12-4-31-4-43 0l-112 43c-22 8-40 33-40 56l0 166c0 17 11 39 25 49l112 84c20 15 53 15 73 0l112-84c14-10 24-32 24-49l0-166c1-23-17-48-39-56z m-7 193c-1 42-12 53-56 53l-141 0c-44 0-56-11-56-56l0-47c0-6 5-11 11-11l232 0c5 0 10 5 10 11z m0-93c0 6-5 10-10 10l-232 0c-6 0-11-4-11-10l0-13c0-40 10-53 45-56 3 0 7 0 11 0l141 0c45 0 56 11 56 56z"/>
</svg>