<svg xmlns="http://www.w3.org/2000/svg" id="icon-bank-token-filled" viewBox="0 0 512 512">
  <path d="m22 15c0 4-3 7-7 7l1-2m-14-11c0-4 3-7 7-7l-1 2m223 451l-205 0 0-31c0-5 5-10 10-10l185 0c5 0 10 5 10 10z m-6-166l-93-37c-2-1-5-1-7 0l-92 37c-4 1-7 5-7 9l0 34c0 6 5 11 10 11l185 0c5 0 10-5 10-11l0-34c0-4-3-8-6-9z m-76 8c0 11-9 20-20 20-12 0-21-9-21-20 0-11 9-21 21-21 11 0 20 10 20 21z m82 158l0 8c4 0 8-4 8-8z m-205 0l-7 0c0 4 3 8 7 8z m13-41c0 4 3 8 8 8 4 0 7-4 7-8z m15-71c0-5-3-8-7-8-5 0-8 3-8 8z m26 71c0 4 3 8 8 8 4 0 7-4 7-8z m15-71c0-5-3-8-7-8-5 0-8 3-8 8z m26 71c0 4 3 8 8 8 4 0 7-4 7-8z m15-71c0-5-3-8-7-8-5 0-8 3-8 8z m26 71c0 4 3 8 8 8 4 0 7-4 7-8z m15-71c0-5-3-8-7-8-5 0-8 3-8 8z m26 71c0 4 3 8 8 8 4 0 7-4 7-8z m15-71c0-5-3-8-7-8-5 0-8 3-8 8z m-202 104c-4 0-8 4-8 8 0 4 4 8 8 8z m225 16c4 0 8-4 8-8 0-4-4-8-8-8z m-109-211l-2 7z m93 37l2-7z m-100-37l3 7z m-92 37l-3-7z m198 158l-205 0 0 16 205 0z m-197 8l0-31-15 0 0 31z m0-31c0-1 1-2 2-2l0-15c-9 0-17 8-17 17z m2-2l185 0 0-15-185 0z m185 0c1 0 2 1 2 2l16 0c0-9-8-17-18-17z m2 2l0 31 16 0 0-31z m-169-10l0-71-15 0 0 71z m41 0l0-71-15 0 0 71z m41 0l0-71-15 0 0 71z m41 0l0-71-15 0 0 71z m41 0l0-71-15 0 0 71z m-202 49l225 0 0-16-225 0z m114-204l92 37 5-14-92-37z m-2 0c0 0 0 0 0 0 0 0 0 0 1 0 0 0 0 0 0 0 1 0 1 0 1 0l5-14c-2-1-4-1-6-1-2 0-5 0-7 1z m-92 37l92-37-6-14-92 37z m-2 2c0 0 0 0 0 0 0 0 0-1 1-1 0 0 0-1 0-1 0 0 0 0 0 0 1 0 1 0 1 0l-6-14c-4 1-6 4-8 6-2 3-3 7-3 10z m0 34l0-34-15 0 0 34z m2 3c-1 0-2-1-2-3l-15 0c0 10 8 18 17 18z m185 0l-185 0 0 15 185 0z m2-3c0 2-1 3-2 3l0 15c10 0 18-8 18-18z m0-34l0 34 16 0 0-34z m-1-2c0 0 0 0 0 0 0 0 0 0 0 0 0 0 1 1 1 1 0 0 0 1 0 1 0 0 0 0 0 0l16 0c0-3-2-7-3-10-2-2-5-5-9-6z m-93 29c15 0 28-13 28-28l-16 0c0 7-5 13-12 13z m-29-28c0 15 13 28 29 28l0-15c-7 0-13-6-13-13z m29-28c-16 0-29 12-29 28l16 0c0-7 6-13 13-13z m28 28c0-16-13-28-28-28l0 15c7 0 12 6 12 13z m107-163l65-28c3-2 6-2 10 0l65 28c6 3 11-4 7-9l-68-83c-4-6-12-6-16 0l-69 83c-5 5 0 12 6 9z m0 80l65 28c3 2 6 2 10 0l65-28c6-3 11 4 7 9l-68 84c-4 5-12 5-16 0l-69-84c-5-5 0-12 6-9z m69-75l-71 35 71 36 71-36z"/>
</svg>