<svg xmlns="http://www.w3.org/2000/svg" id="icon-scan-filled" viewBox="0 0 512 512">
  <path d="m62 215c-8 0-15-7-15-16l0-47c0-56 45-101 100-101l48 0c9 0 16 7 16 16 0 9-7 16-16 16l-48 0c-38 0-69 31-69 69l0 47c0 9-7 16-16 16z m379 0c-9 0-16-7-16-16l0-47c0-38-31-69-69-69l-48 0c-9 0-16-7-16-16 0-9 7-16 16-16l48 0c55 0 100 45 100 101l0 47c0 9-7 16-15 16z m-85 246l-29 0c-9 0-16-7-16-16 0-9 7-16 16-16l29 0c38 0 69-31 69-69l0-28c0-9 7-16 16-16 8 0 15 7 15 16l0 28c0 56-45 101-100 101z m-161 0l-48 0c-55 0-100-45-100-101l0-47c0-9 7-16 15-16 9 0 16 7 16 16l0 47c0 38 31 69 69 69l48 0c8 0 16 7 16 16 0 9-7 16-16 16z m189-221l-265 0c-9 0-16 7-16 16 0 9 7 16 16 16l265 0c9 0 16-7 16-16 0-9-7-16-16-16z m-237 56l0 6c0 34 28 62 62 62l86 0c34 0 61-28 61-62l0-6c0-3-2-5-4-5l-201 0c-2 0-4 2-4 5z m0-80l0-6c0-34 28-62 62-62l86 0c34 0 61 28 61 62l0 6c0 3-2 5-4 5l-201 0c-2 0-4-2-4-5z"/>
</svg>