<svg xmlns="http://www.w3.org/2000/svg" id="icon-light-filled" viewBox="0 0 512 512">
  <path d="m252 399c79 0 143-64 143-143 0-79-64-143-143-143-80 0-144 64-144 143 0 79 64 143 144 143z m0 81c-12 0-21-8-21-19l0-2c0-11 9-20 21-20 11 0 20 9 20 20 0 11-9 21-20 21z m146-57c-6 0-11-2-15-6l-2-3c-8-8-8-21 0-29 8-8 20-8 28 0l3 3c8 8 8 21 0 29-4 4-9 6-14 6z m-293 0c-5 0-10-2-14-6-8-8-8-21 0-29l2-3c8-8 21-8 29 0 8 8 8 21 0 29l-2 3c-4 4-10 6-15 6z m351-147l-1 0c-12 0-21-9-21-20 0-11 9-20 21-20 11 0 21 9 21 20 0 11-8 20-20 20z m-408 0l-1 0c-12 0-21-9-21-20 0-11 9-20 21-20 11 0 21 9 21 20 0 11-8 20-20 20z m347-143c-5 0-10-2-14-6-8-8-8-21 0-29l2-3c8-8 21-8 29 0 8 8 8 21 0 29l-3 3c-3 4-9 6-14 6z m-287 0c-5 0-10-2-15-6l-2-3c-8-8-8-21 0-29 8-8 21-8 29 0l2 3c8 8 8 21 0 29-4 4-9 6-14 6z m144-60c-12 0-21-9-21-20l0-2c0-11 9-20 21-20 11 0 20 9 20 20 0 11-9 22-20 22z"/>
</svg>