<svg xmlns="http://www.w3.org/2000/svg" id="icon-check-circle-on-filled" viewBox="0 0 512 512">
  <path d="m27 256c0-126 103-229 229-229 126 0 229 103 229 229 0 126-103 229-229 229-126 0-229-103-229-229z m229-197c-108 0-197 89-197 197 0 108 89 197 197 197 108 0 197-89 197-197 0-108-89-197-197-197z m213 197c0 117-96 213-213 213-117 0-213-96-213-213 0-117 96-213 213-213 117 0 213 96 213 213z m-111-49c6-6 6-16 0-23-6-6-16-6-23 0l-109 110-49-49c-7-7-17-7-23 0-6 6-6 16 0 22l60 61c7 6 17 6 23 0z"/>
</svg>
