<svg xmlns="http://www.w3.org/2000/svg" id="icon-book-filled" viewBox="0 0 512 512">
  <path d="m469 111l0 256c0 21-17 40-37 42l-7 1c-35 5-84 20-124 36-14 6-29-4-29-20l0-299c0-8 5-15 12-19 39-22 98-41 138-44l1 0c26 0 46 21 46 47z m-240-3c-39-22-98-41-139-44l-1 0c-26 0-46 21-46 47l0 256c0 21 17 40 37 42l7 1c35 5 84 20 124 36 14 6 29-4 29-20l0-299c0-8-4-15-11-19z m-122 65l48 0c9 0 16 7 16 16 0 9-7 16-16 16l-48 0c-9 0-16-7-16-16 0-9 7-16 16-16z m64 97l-64 0c-9 0-16-7-16-16 0-9 7-16 16-16l64 0c9 0 16 7 16 16 0 9-7 16-16 16z"/>
</svg>