<svg xmlns="http://www.w3.org/2000/svg" id="icon-user-add-filled-1" viewBox="0 0 512 512">
  <path d="m333 154c0 56-45 102-102 102-57 0-102-46-102-102 0-57 45-103 102-103 57 0 102 46 102 103z m-286 297c0-85 83-154 186-154 29 0 57 6 81 15-10 15-16 32-16 52 0 48 39 87 87 87 12 0 23-3 34-7 0 2 0 4 0 7 0 5-4 10-10 10l-352 0c-6 0-10-5-10-10z m420-87c0 45-37 81-82 81-46 0-82-36-82-81 0-46 36-82 82-82 45 0 82 36 82 82z m-86-24l-31 32c-2 2-4 5-4 7l-2 16c-1 6 3 10 9 9l16-2c2 0 6-2 7-4l32-31c1 0 2 1 3 1 3 1 7-1 8-4 0-2-1-5-2-6l2-2c7-7 11-16 0-27-11-10-19-7-27 0l-2 2c-1-1-3-2-6-1-3 1-5 4-4 7 1 1 1 2 1 3z"/>
</svg>