<svg xmlns="http://www.w3.org/2000/svg" id="icon-money-filled" viewBox="0 0 512 512">
  <path d="m398 146c-8-44-41-64-87-64l-180 0c-54 0-90 27-90 90l0 106c0 45 18 72 49 83 5 2 10 4 15 4 8 2 17 3 26 3l180 0c54 0 90-27 90-90l0-106c0-9-1-18-3-26z m-279 110c0 8-7 15-15 15-9 0-16-7-16-15l0-61c0-9 7-16 16-16 8 0 15 7 15 16z m102 23c-30 0-54-24-54-54 0-30 24-54 54-54 30 0 54 24 54 54 0 30-24 54-54 54z m132-23c0 8-7 15-15 15-9 0-16-7-16-15l0-61c0-9 7-16 16-16 8 0 15 7 15 16z m109-22l0 105c0 63-36 91-90 91l-180 0c-15 0-29-3-41-7-9-4-18-9-24-15-4-4-1-9 4-9l180 0c75 0 121-45 121-121l0-106c0-4 5-8 9-4 13 15 21 36 21 66z"/>
</svg>