<svg xmlns="http://www.w3.org/2000/svg" id="icon-close-outline" viewBox="0 0 512 512">
  <path d="m94 88c4-4 11-4 14 0l322 322c4 3 4 10 0 14-4 4-11 4-14 0l-322-322c-4-3-4-10 0-14z m336 0c4 4 4 11 0 14l-322 322c-3 4-10 4-14 0-4-4-4-11 0-14l322-322c3-4 10-4 14 0z m-322 0l-3 4z m-14 0l4 4z m336 322l-4 3z m-14 14l3-4z m-322-322l4-3z m336 0l3 4z m0-14l-4 4z m-322 336l-3-4z m-14-14l-4-4z m322-322l3 4z m-304-3c-6-6-16-6-22 0l8 7c2-2 5-2 7 0z m321 321l-321-321-7 7 321 321z m0 21c6-6 6-15 0-21l-7 7c2 2 2 5 0 7z m-21 0c6 7 15 7 21 0l-7-7c-2 2-5 2-7 0z m-322-321l322 321 7-7-321-321z m0-21c-6 6-6 15 0 21l8-7c-2-2-2-5 0-7z m343 21c6-6 6-15 0-21l-7 7c2 2 2 5 0 7z m-321 321l321-321-7-7-321 321z m-22 0c6 7 16 7 22 0l-7-7c-2 2-5 2-7 0z m0-21c-6 6-6 15 0 21l8-7c-2-2-2-5 0-7z m322-321l-322 321 8 7 321-321z m21 0c-6-6-15-6-21 0l7 7c2-2 5-2 7 0z"/>
</svg>