<svg xmlns="http://www.w3.org/2000/svg" id="icon-bank-token" viewBox="0 0 512 512">
    <path d="m279 139l60-27c2-2 6-2 9 0l61 27c6 2 9-3 6-9l-63-81c-4-6-11-6-15 0l-62 81c-6 6-2 11 4 9z m0 76l60 27c2 2 6 2 9 0l61-27c6-2 9 3 6 9l-63 81c-4 6-11 6-15 0l-62-81c-6-6-2-11 4-9z m64-72l-66 34 66 34 66-34z m-85 297l-2 0 0-22c0-10-8-18-17-18l-2 0 0-53 2 0c9 0 17-8 17-18l0-33c0-4-2-8-4-10-2-2-4-6-7-6l-85-36c-2 0-4-2-6-2-2 0-4 0-6 2l-85 36c-3 2-5 4-7 6-2 2-4 6-4 10l0 33c0 10 8 18 17 18l2 0 0 53-2 0c-9 0-17 8-17 18l0 22-2 0c-4 0-7 4-7 8 0 4 3 8 7 8l208 0c4 0 7-4 7-8 0-4-3-8-7-8z m-96-40l0-53 22 0 0 53z m-8-93c-6 0-11-6-11-11 0-6 5-12 11-12 6 0 11 6 11 12 0 5-5 11-11 11z m-8 40l0 53-22 0 0-53z m76 53l-23 0 0-53 25 0 0 53z m-136-53l25 0 0 53-25 0z m238 122c-6 0-9-2-13-8-2-4-2-9 0-15l19-36c3-8 13-10 18-6 8 4 10 14 6 20l-6 10c53-12 91-61 91-121 0-8 6-16 15-16 10 0 15 6 15 16 2 87-64 156-145 156z m-245-256c-8 0-16-8-16-16 0-85 67-154 148-154 5 0 9 2 13 8 2 4 2 9 0 15l-19 36c-4 8-13 10-19 6-7-4-9-14-6-20l6-10c-55 12-92 59-92 119 0 8-8 16-15 16z"/>
</svg>