<svg xmlns="http://www.w3.org/2000/svg" id="icon-card-token-filled" viewBox="0 0 512 512">
  <path d="m252 332l0 2c0 6-5 10-11 10l-184 0c-6 0-10-4-10-10l0-2c0-36 9-45 45-45l114 0c37 0 46 9 46 45z m-195 33c-6 0-10 4-10 10l0 41c0 36 9 45 45 45l114 0c37 0 46-9 46-45l0-41c0-6-5-10-11-10z m-35-350c0 4-3 7-7 7l1-2m-14-11c0-4 3-7 7-7l-1 2m256 130l65-28c3-2 6-2 9 0l65 28c6 3 11-4 7-9l-68-83c-5-6-13-6-17 0l-68 83c-4 5 1 12 7 9z m0 80l65 29c3 1 6 1 9 0l65-29c6-3 11 4 7 9l-68 83c-5 6-12 6-17 0l-68-83c-4-5 1-12 7-9z m66-74l-56 28c-5 2-5 10 0 12l56 28c2 1 5 1 7 0l56-28c5-2 5-10 0-12l-56-28c-2-1-5-1-7 0z"/>
</svg>