<svg xmlns="http://www.w3.org/2000/svg" id="icon-message-question-filled" viewBox="0 0 512 512">
  <path d="m354 60l-205 0c-61 0-102 41-102 102l0 123c0 62 41 103 102 103l0 43c0 17 18 27 32 17l91-60 82 0c61 0 102-41 102-103l0-123c0-61-41-102-102-102z m-102 249c-9 0-16-7-16-15 0-9 7-15 16-15 8 0 15 6 15 15 0 8-7 15-15 15z m25-85c-8 6-10 9-10 15l0 4c0 9-7 15-15 15-9 0-16-6-16-15l0-4c0-24 18-36 24-40 8-5 10-9 10-14 0-10-8-19-18-19-11 0-19 9-19 19 0 8-7 15-15 15-9 0-16-7-16-15 0-27 22-49 50-49 27 0 49 22 49 49 0 23-17 35-24 39z"/>
</svg>