<svg xmlns="http://www.w3.org/2000/svg" id="icon-data-filled" viewBox="0 0 512 512">
  <path d="m415 302c26 0 46-21 46-46 0-25-20-46-46-46-25 0-46 21-46 46 0 25 21 46 46 46z m0-164c26 0 46-20 46-46 0-25-20-46-46-46-25 0-46 21-46 46 0 26 21 46 46 46z m0 328c26 0 46-21 46-46 0-26-20-46-46-46-25 0-46 20-46 46 0 25 21 46 46 46z m-327-164c25 0 46-21 46-46 0-25-21-46-46-46-26 0-46 21-46 46 0 25 20 46 46 46z m307-31c8 0 15-7 15-15 0-8-7-15-15-15l-149 0 0-87c0-33 14-46 46-46l103 0c8 0 15-7 15-16 0-8-7-15-15-15l-103 0c-49 0-76 27-76 77l0 87-108 0c-8 0-15 7-15 15 0 8 7 15 15 15l108 0 0 87c0 50 27 77 76 77l103 0c8 0 15-7 15-15 0-9-7-16-15-16l-103 0c-32 0-46-13-46-46l0-87z"/>
</svg>