<svg xmlns="http://www.w3.org/2000/svg" id="icon-user-remove-filled" viewBox="0 0 512 512">
  <path d="m333 154c0 56-45 102-102 102-57 0-102-46-102-102 0-57 45-103 102-103 57 0 102 46 102 103z m-286 297c0-85 83-154 186-154 29 0 57 6 81 15-10 15-16 32-16 52 0 48 39 87 87 87 12 0 23-3 34-7 0 2 0 4 0 7 0 5-4 10-10 10l-352 0c-6 0-10-5-10-10z m338-6c45 0 82-36 82-81 0-46-37-82-82-82-46 0-82 36-82 82 0 45 36 81 82 81z m29-96c4-4 4-10 0-14-4-4-11-4-15 0l-14 14-14-15c-4-4-11-4-15 0-4 4-4 11 0 15l15 14-15 15c-4 4-4 10 0 14 4 4 10 4 14 0l15-15 14 15c4 4 11 4 15 0 4-4 4-11 0-15l-14-14z"/>
</svg>