<svg xmlns="http://www.w3.org/2000/svg" id="icon-hierarchy-filled" viewBox="0 0 512 512">
  <path d="m108 174c34 0 62-27 62-61 0-34-28-62-62-62-34 0-61 28-61 62 0 34 27 61 61 61z m287 143c34 0 61-27 61-61 0-34-27-61-61-61-34 0-62 27-62 61 0 34 28 61 62 61z m-287 144c34 0 62-28 62-62 0-34-28-61-62-61-34 0-61 27-61 61 0 34 27 62 61 62z m0-108c-8 0-15-7-15-15l0-164c0-8 7-15 15-15 9 0 16 7 16 15 0 45 21 67 66 67l143 0c9 0 16 7 16 15 0 8-7 15-16 15l-143 0c-28 0-50-7-66-20l0 87c0 8-7 15-16 15z"/>
</svg>
