<svg fill="none" height="16" viewBox="0 0 16 16" width="16" xmlns="http://www.w3.org/2000/svg"><g fill="#6a737d"><path clip-rule="evenodd" d="m7.99984 2.00001c-3.31371 0-6 2.68629-6 5.99999s2.68629 6 6 6c3.31366 0 5.99996-2.6863 5.99996-6s-2.6863-5.99999-5.99996-5.99999zm-7.333336 5.99999c0-4.05008 3.283246-7.333328 7.333336-7.333328 4.05006 0 7.33336 3.283248 7.33336 7.333328 0 4.0501-3.2833 7.3333-7.33336 7.3333-4.05009 0-7.333336-3.2832-7.333336-7.3333z" fill-rule="evenodd"/><path clip-rule="evenodd" d="m7.99984 7.33334c.36819 0 .66666.29847.66666.66666v2.6667c0 .3682-.29847.6666-.66666.6666s-.66667-.2984-.66667-.6666v-2.6667c0-.36819.29848-.66666.66667-.66666z" fill-rule="evenodd"/><path d="m8.6665 5.33334c0 .36819-.29847.66666-.66666.66666s-.66667-.29847-.66667-.66666.29848-.66667.66667-.66667.66666.29848.66666.66667z"/></g></svg>