<svg viewBox="0 0 24 24" xmlns="http://www.w3.org/2000/svg"><path d="m11 16.8855h2v-6h-2zm1-8c.2833 0 .5208-.09584.7125-.2875.1917-.19167.2875-.42917.2875-.7125 0-.28334-.0958-.52084-.2875-.7125-.1917-.19167-.4292-.2875-.7125-.2875s-.5208.09583-.7125.2875c-.1917.19166-.2875.42916-.2875.7125 0 .28333.0958.52083.2875.7125.1917.19166.4292.2875.7125.2875zm0 13c-1.3833 0-2.68333-.2625-3.9-.7875s-2.275-1.2375-3.175-2.1375-1.6125-1.9583-2.1375-3.175-.7875-2.5167-.7875-3.9.2625-2.68334.7875-3.9c.525-1.21667 1.2375-2.275 2.1375-3.175s1.95833-1.6125 3.175-2.1375 2.5167-.7875 3.9-.7875 2.6833.2625 3.9.7875 2.275 1.2375 3.175 2.1375 1.6125 1.95833 2.1375 3.175c.525 1.21666.7875 2.5167.7875 3.9s-.2625 2.6833-.7875 3.9-1.2375 2.275-2.1375 3.175-1.9583 1.6125-3.175 2.1375-2.5167.7875-3.9.7875zm0-2c2.2333 0 4.125-.775 5.675-2.325s2.325-3.4417 2.325-5.675c0-2.23334-.775-4.125-2.325-5.675s-3.4417-2.325-5.675-2.325c-2.23333 0-4.125.775-5.675 2.325s-2.325 3.44166-2.325 5.675c0 2.2333.775 4.125 2.325 5.675s3.44167 2.325 5.675 2.325z"/></svg>