<svg viewBox="0 0 24 24" xmlns="http://www.w3.org/2000/svg"><path d="m6.8 13 5.2 3 5.2-3-4.2-2.425v3.425h-2v-3.425zm4.2-4.725v-.425c-.7333-.21667-1.33333-.62917-1.8-1.2375s-.7-1.3125-.7-2.1125c0-.96667.34167-1.79167 1.025-2.475.6833-.68333 1.5083-1.025 2.475-1.025s1.7917.34167 2.475 1.025 1.025 1.50833 1.025 2.475c0 .8-.2333 1.50417-.7 2.1125s-1.0667 1.02083-1.8 1.2375v.425l7 4.025c.3167.1833.5625.4292.7375.7375s.2625.6458.2625 1.0125v1.9c0 .3667-.0875.7042-.2625 1.0125s-.4208.5542-.7375.7375l-7 4.025c-.3167.1833-.65.275-1 .275s-.6833-.0917-1-.275l-7-4.025c-.31667-.1833-.5625-.4292-.7375-.7375s-.2625-.6458-.2625-1.0125v-1.9c0-.3667.0875-.7042.2625-1.0125s.42083-.5542.7375-.7375zm0 9.45-6-3.45v1.675l7 4.05 7-4.05v-1.675l-6 3.45c-.3167.1833-.65.275-1 .275s-.6833-.0917-1-.275zm1-11.725c.4167 0 .7708-.14583 1.0625-.4375s.4375-.64583.4375-1.0625-.1458-.77083-.4375-1.0625-.6458-.4375-1.0625-.4375-.7708.14583-1.0625.4375-.4375.64583-.4375 1.0625.1458.77083.4375 1.0625.6458.4375 1.0625.4375z"/></svg>