<svg viewBox="0 0 24 24" xmlns="http://www.w3.org/2000/svg"><path d="m6.8 13.229 5.2 3 5.2-3-4.2-2.425v3.425h-2v-3.425zm4.2-4.725v-.425c-.7333-.21666-1.33333-.62916-1.8-1.2375-.46667-.60833-.7-1.3125-.7-2.1125 0-.96666.34167-1.79166 1.025-2.475.6833-.68333 1.5083-1.025 2.475-1.025s1.7917.34167 2.475 1.025c.6833.68334 1.025 1.50834 1.025 2.475 0 .8-.2333 1.50417-.7 2.1125-.4667.60834-1.0667 1.02084-1.8 1.2375v.425l7 4.025c.3167.1833.5625.4292.7375.7375s.2625.6458.2625 1.0125v1.9c0 .3667-.0875.7042-.2625 1.0125s-.4208.5542-.7375.7375l-7 4.025c-.3167.1833-.65.275-1 .275s-.6833-.0917-1-.275l-7-4.025c-.31667-.1833-.5625-.4292-.7375-.7375s-.2625-.6458-.2625-1.0125v-1.9c0-.3667.0875-.7042.2625-1.0125s.42083-.5542.7375-.7375zm0 9.45-6-3.45v1.675l7 4.05 7-4.05v-1.675l-6 3.45c-.3167.1833-.65.275-1 .275s-.6833-.0917-1-.275zm1-11.725c.4167 0 .7708-.14583 1.0625-.4375.2917-.29166.4375-.64583.4375-1.0625 0-.41666-.1458-.77083-.4375-1.0625-.2917-.29166-.6458-.4375-1.0625-.4375s-.7708.14584-1.0625.4375c-.2917.29167-.4375.64584-.4375 1.0625 0 .41667.1458.77084.4375 1.0625.2917.29167.6458.4375 1.0625.4375z"/></svg>