<svg viewBox="0 0 24 24" xmlns="http://www.w3.org/2000/svg"><path d="m7 14c-.55 0-1.02083-.1958-1.4125-.5875s-.5875-.8625-.5875-1.4125.19583-1.0208.5875-1.4125.8625-.5875 1.4125-.5875 1.02083.1958 1.4125.5875.5875.8625.5875 1.4125-.19583 1.0208-.5875 1.4125-.8625.5875-1.4125.5875zm0 4c-1.66667 0-3.08333-.5833-4.25-1.75s-1.75-2.5833-1.75-4.25.58333-3.08333 1.75-4.25 2.58333-1.75 4.25-1.75c1.11667 0 2.12917.275 3.0375.825.9083.55 1.6292 1.275 2.1625 2.175h8.8l3 3-4.5 4.5-2-1.5-2 1.5-2.125-1.5h-1.175c-.5333.9-1.2542 1.625-2.1625 2.175-.90833.55-1.92083.825-3.0375.825zm0-2c.93333 0 1.75417-.2833 2.4625-.85.7083-.5667 1.1792-1.2833 1.4125-2.15h3.125l1.45 1.025 2.05-1.525 1.775 1.375 1.875-1.875-1-1h-9.275c-.2333-.8667-.7042-1.58333-1.4125-2.15-.70833-.56667-1.52917-.85-2.4625-.85-1.1 0-2.04167.39167-2.825 1.175s-1.175 1.725-1.175 2.825.39167 2.0417 1.175 2.825 1.725 1.175 2.825 1.175z"/></svg>