<svg viewBox="0 0 24 24" xmlns="http://www.w3.org/2000/svg"><path d="m12 15c.8333 0 1.5417-.2917 2.125-.875s.875-1.2917.875-2.125-.2917-1.5417-.875-2.125c-.5833-.58333-1.2917-.875-2.125-.875s-1.5417.29167-2.125.875c-.58333.5833-.875 1.2917-.875 2.125s.29167 1.5417.875 2.125c.5833.5833 1.2917.875 2.125.875zm0 2c-1.3833 0-2.5625-.4875-3.5375-1.4625s-1.4625-2.1542-1.4625-3.5375.4875-2.5625 1.4625-3.5375 2.1542-1.4625 3.5375-1.4625 2.5625.4875 3.5375 1.4625 1.4625 2.1542 1.4625 3.5375-.4875 2.5625-1.4625 3.5375-2.1542 1.4625-3.5375 1.4625zm-7-4h-4v-2h4zm18 0h-4v-2h4zm-12-8v-4h2v4zm0 18v-4h2v4zm-4.6-15.25-2.525-2.425 1.425-1.475 2.4 2.5zm12.3 12.4-2.425-2.525 1.325-1.375 2.525 2.425zm-2.45-13.75 2.425-2.525 1.475 1.425-2.5 2.4zm-12.4 12.3 2.525-2.425 1.375 1.325-2.425 2.525z"/></svg>