<svg viewBox="0 0 24 24" xmlns="http://www.w3.org/2000/svg"><path d="m11 17h-4c-1.38333 0-2.5625-.4875-3.5375-1.4625s-1.4625-2.1542-1.4625-3.5375.4875-2.5625 1.4625-3.5375 2.15417-1.4625 3.5375-1.4625h4v2h-4c-.83333 0-1.54167.29167-2.125.875-.58333.5833-.875 1.2917-.875 2.125s.29167 1.5417.875 2.125 1.29167.875 2.125.875h4zm-3-4v-2h8v2zm5 4v-2h4c.8333 0 1.5417-.2917 2.125-.875s.875-1.2917.875-2.125-.2917-1.5417-.875-2.125c-.5833-.58333-1.2917-.875-2.125-.875h-4v-2h4c1.3833 0 2.5625.4875 3.5375 1.4625s1.4625 2.1542 1.4625 3.5375-.4875 2.5625-1.4625 3.5375-2.1542 1.4625-3.5375 1.4625z"/></svg>