<svg viewBox="0 0 24 24" xmlns="http://www.w3.org/2000/svg"><path d="m12 22c-1.3667 0-2.65833-.2625-3.875-.7875s-2.27917-1.2417-3.1875-2.15-1.625-1.9708-2.15-3.1875-.7875-2.5083-.7875-3.875c0-1.3833.2625-2.67917.7875-3.8875s1.24167-2.26667 2.15-3.175 1.97083-1.625 3.1875-2.15 2.5083-.7875 3.875-.7875c.2833 0 .5208.09583.7125.2875s.2875.42917.2875.7125-.0958.52083-.2875.7125-.4292.2875-.7125.2875c-2.21667 0-4.10417.77917-5.6625 2.3375s-2.3375 3.44583-2.3375 5.6625c0 2.2167.77917 4.1042 2.3375 5.6625s3.44583 2.3375 5.6625 2.3375c2.2167 0 4.1042-.7792 5.6625-2.3375s2.3375-3.4458 2.3375-5.6625c0-.2833.0958-.5208.2875-.7125s.4292-.2875.7125-.2875.5208.0958.7125.2875.2875.4292.2875.7125c0 1.3667-.2625 2.6583-.7875 3.875s-1.2417 2.2792-2.15 3.1875-1.9667 1.625-3.175 2.15-2.5042.7875-3.8875.7875z"/></svg>