<svg viewBox="0 0 24 24" xmlns="http://www.w3.org/2000/svg"><path d="m12 12.229c.55 0 1.0208-.1958 1.4125-.5875s.5875-.8625.5875-1.4125-.1958-1.02083-.5875-1.4125c-.3917-.39166-.8625-.5875-1.4125-.5875s-1.0208.19584-1.4125.5875c-.3917.39167-.5875.8625-.5875 1.4125s.1958 1.0208.5875 1.4125.8625.5875 1.4125.5875zm0 7.35c2.0333-1.8667 3.5417-3.5625 4.525-5.0875s1.475-2.8792 1.475-4.0625c0-1.81666-.5792-3.30416-1.7375-4.4625-1.1583-1.15833-2.5792-1.7375-4.2625-1.7375s-3.10417.57917-4.2625 1.7375c-1.15833 1.15834-1.7375 2.64584-1.7375 4.4625 0 1.1833.49167 2.5375 1.475 4.0625s2.49167 3.2208 4.525 5.0875zm0 2.65c-2.68333-2.2833-4.6875-4.4042-6.0125-6.3625s-1.9875-3.7708-1.9875-5.4375c0-2.5.80417-4.49166 2.4125-5.975 1.60833-1.48333 3.47083-2.225 5.5875-2.225 2.1167 0 3.9792.74167 5.5875 2.225 1.6083 1.48334 2.4125 3.475 2.4125 5.975 0 1.6667-.6625 3.4792-1.9875 5.4375s-3.3292 4.0792-6.0125 6.3625z"/></svg>