<svg xmlns="http://www.w3.org/2000/svg" id="icon-lock-slash-filled" viewBox="0 0 512 512">
  <path d="m285 332c0 19-15 34-33 34-14 0-25-8-30-19l44-45c11 6 19 17 19 30z m167-276c-7-6-17-6-23 0l-57 57c-16-41-56-62-120-62-116 0-129 74-129 129l0 25c0 0 0 0 1 0-58 7-77 36-77 108l0 38c0 33 4 57 13 74l-9 9c-6 6-6 16 0 22 3 3 7 5 11 5 5 0 8-2 12-5l378-378c6-6 6-16 0-22z m-296 148c-1 0-3 0-4 0l0-24c0-60 17-100 100-100 69 0 91 26 97 56l-67 68z m300 109l0 38c0 84-25 110-109 110l-189 0c-19 0-28-22-15-35l58-58c1 2 3 4 5 6 14 15 35 24 59 19 2-1 4-1 5-2 2 0 4-1 5-2 5-1 8-4 12-6 2-1 3-2 4-3 3-3 6-5 8-8 1-2 2-3 3-4 3-4 5-8 6-12 1-1 2-3 2-5 1-2 2-4 2-6 5-23-3-44-19-59-2-1-4-3-6-4l64-64c1-1 2-2 3-3 8-7 19-10 29-9 2 0 4 0 6 1 3 0 7 1 10 2 3 1 7 2 10 3 6 2 11 5 15 8 5 3 9 7 13 11 1 2 3 5 5 7 1 2 2 5 4 8 1 2 2 5 3 8 1 3 2 7 3 11 1 3 1 6 2 10 0 3 1 6 1 9 1 9 1 19 1 29z"/>
</svg>