<svg viewBox="0 0 24 24" xmlns="http://www.w3.org/2000/svg"><path d="m6 8.5h9v-2c0-.83333-.2917-1.54167-.875-2.125s-1.2917-.875-2.125-.875-1.5417.29167-2.125.875c-.58333.58333-.875 1.29167-.875 2.125h-2c0-1.38333.4875-2.5625 1.4625-3.5375s2.1542-1.4625 3.5375-1.4625 2.5625.4875 3.5375 1.4625 1.4625 2.15417 1.4625 3.5375v2h1c.55 0 1.0208.19583 1.4125.5875s.5875.8625.5875 1.4125v10c0 .55-.1958 1.0208-.5875 1.4125s-.8625.5875-1.4125.5875h-12c-.55 0-1.02083-.1958-1.4125-.5875s-.5875-.8625-.5875-1.4125v-10c0-.55.19583-1.02083.5875-1.4125s.8625-.5875 1.4125-.5875zm0 12h12v-10h-12zm6-3c.55 0 1.0208-.1958 1.4125-.5875s.5875-.8625.5875-1.4125-.1958-1.0208-.5875-1.4125-.8625-.5875-1.4125-.5875-1.0208.1958-1.4125.5875-.5875.8625-.5875 1.4125.1958 1.0208.5875 1.4125.8625.5875 1.4125.5875z"/></svg>