<svg xmlns="http://www.w3.org/2000/svg" width="16" height="16" viewBox="0 0 16 16" fill="none">
  <path d="M7.99967 8.66665C8.36786 8.66665 8.66634 8.36817 8.66634 7.99998C8.66634 7.63179 8.36786 7.33331 7.99967 7.33331C7.63148 7.33331 7.33301 7.63179 7.33301 7.99998C7.33301 8.36817 7.63148 8.66665 7.99967 8.66665Z" stroke="#6F6F6F" stroke-width="1.33" stroke-linecap="round" stroke-linejoin="round"/>
  <path d="M12.6667 8.66665C13.0349 8.66665 13.3333 8.36817 13.3333 7.99998C13.3333 7.63179 13.0349 7.33331 12.6667 7.33331C12.2985 7.33331 12 7.63179 12 7.99998C12 8.36817 12.2985 8.66665 12.6667 8.66665Z" stroke="#6F6F6F" stroke-width="1.33" stroke-linecap="round" stroke-linejoin="round"/>
  <path d="M3.33366 8.66665C3.70185 8.66665 4.00033 8.36817 4.00033 7.99998C4.00033 7.63179 3.70185 7.33331 3.33366 7.33331C2.96547 7.33331 2.66699 7.63179 2.66699 7.99998C2.66699 8.36817 2.96547 8.66665 3.33366 8.66665Z" stroke="#6F6F6F" stroke-width="1.33" stroke-linecap="round" stroke-linejoin="round"/>
</svg>