<svg viewBox="0 0 24 24" xmlns="http://www.w3.org/2000/svg"><path d="m11.9 16.8855c.35 0 .6458-.1208.8875-.3625s.3625-.5375.3625-.8875-.1208-.6458-.3625-.8875-.5375-.3625-.8875-.3625-.6458.1208-.8875.3625-.3625.5375-.3625.8875.1208.6458.3625.8875.5375.3625.8875.3625zm-.9-3.85h1.85c0-.2833.0125-.525.0375-.725s.0792-.3917.1625-.575.1875-.3542.3125-.5125.3042-.3542.5375-.5875c.5833-.5833.9958-1.07084 1.2375-1.4625.2417-.39167.3625-.8375.3625-1.3375 0-.88333-.3-1.59584-.9-2.1375-.6-.54167-1.4083-.8125-2.425-.8125-.9167 0-1.6958.225-2.3375.675-.64167.45-1.0875 1.075-1.3375 1.875l1.65.65c.1167-.45.35-.8125.7-1.0875s.7583-.4125 1.225-.4125c.45 0 .825.12083 1.125.3625.3.24166.45.5625.45.9625 0 .28333-.0917.58333-.275.9-.1833.31666-.4917.66666-.925 1.05-.2833.2333-.5125.4625-.6875.6875s-.3208.4625-.4375.7125-.2.5125-.25.7875-.075.6042-.075.9875zm1 9.85-3-3h-4c-.55 0-1.02083-.1958-1.4125-.5875s-.5875-.8625-.5875-1.4125v-14c0-.55.19583-1.02084.5875-1.4125.39167-.39167.8625-.5875 1.4125-.5875h14c.55 0 1.0208.19583 1.4125.5875.3917.39166.5875.8625.5875 1.4125v14c0 .55-.1958 1.0208-.5875 1.4125s-.8625.5875-1.4125.5875h-4zm-7-5h4.8l2.2 2.2 2.2-2.2h4.8v-14h-14z"/></svg>