<svg viewBox="0 0 24 24" xmlns="http://www.w3.org/2000/svg"><path d="m12 14c-.8333 0-1.5417-.2917-2.125-.875-.58333-.5833-.875-1.2917-.875-2.125v-6c0-.83333.29167-1.54167.875-2.125.5833-.58333 1.2917-.875 2.125-.875s1.5417.29167 2.125.875.875 1.29167.875 2.125v6c0 .8333-.2917 1.5417-.875 2.125s-1.2917.875-2.125.875zm-1 7v-3.075c-1.73333-.2333-3.16667-1.0083-4.3-2.325s-1.7-2.85-1.7-4.6h2c0 1.3833.4875 2.5625 1.4625 3.5375s2.1542 1.4625 3.5375 1.4625 2.5625-.4875 3.5375-1.4625 1.4625-2.1542 1.4625-3.5375h2c0 1.75-.5667 3.2833-1.7 4.6s-2.5667 2.0917-4.3 2.325v3.075zm1-9c.2833 0 .5208-.0958.7125-.2875s.2875-.4292.2875-.7125v-6c0-.28333-.0958-.52083-.2875-.7125s-.4292-.2875-.7125-.2875-.5208.09583-.7125.2875-.2875.42917-.2875.7125v6c0 .2833.0958.5208.2875.7125s.4292.2875.7125.2875z"/></svg>