<svg viewBox="0 0 24 24" xmlns="http://www.w3.org/2000/svg"><path d="m8 13h8c.2833 0 .5208-.0958.7125-.2875s.2875-.4292.2875-.7125-.0958-.5208-.2875-.7125-.4292-.2875-.7125-.2875h-8c-.28333 0-.52083.0958-.7125.2875s-.2875.4292-.2875.7125.09583.5208.2875.7125.42917.2875.7125.2875zm-3 8c-.55 0-1.02083-.1958-1.4125-.5875s-.5875-.8625-.5875-1.4125v-14c0-.55.19583-1.02083.5875-1.4125s.8625-.5875 1.4125-.5875h14c.55 0 1.0208.19583 1.4125.5875s.5875.8625.5875 1.4125v14c0 .55-.1958 1.0208-.5875 1.4125s-.8625.5875-1.4125.5875zm0-2h14v-14h-14z"/></svg>