<svg viewBox="0 0 24 24" xmlns="http://www.w3.org/2000/svg"><path d="m8.4 21c-1.51667 0-2.79583-.5208-3.8375-1.5625s-1.5625-2.3208-1.5625-3.8375c0-.6333.10833-1.25.325-1.85s.525-1.1417.925-1.625l3.55-4.275-2.425-4.85h13.25l-2.425 4.85 3.55 4.275c.4.4833.7083 1.025.925 1.625s.325 1.2167.325 1.85c0 1.5167-.525 2.7958-1.575 3.8375s-2.325 1.5625-3.825 1.5625zm3.6-5c-.55 0-1.0208-.1958-1.4125-.5875s-.5875-.8625-.5875-1.4125.1958-1.0208.5875-1.4125.8625-.5875 1.4125-.5875 1.0208.1958 1.4125.5875.5875.8625.5875 1.4125-.1958 1.0208-.5875 1.4125-.8625.5875-1.4125.5875zm-2.375-9h4.75l1-2h-6.75zm-1.225 12h7.2c.95 0 1.7542-.3292 2.4125-.9875s.9875-1.4625.9875-2.4125c0-.4-.0708-.7875-.2125-1.1625s-.3375-.7125-.5875-1.0125l-3.675-4.425h-5.025l-3.7 4.4c-.25.3-.44583.6417-.5875 1.025s-.2125.775-.2125 1.175c0 .95.32917 1.7542.9875 2.4125s1.4625.9875 2.4125.9875z"/></svg>