<svg viewBox="0 0 24 24" xmlns="http://www.w3.org/2000/svg"><path d="m14 13c-.8333 0-1.5417-.2917-2.125-.875s-.875-1.2917-.875-2.125c0-.83333.2917-1.54167.875-2.125s1.2917-.875 2.125-.875 1.5417.29167 2.125.875.875 1.29167.875 2.125c0 .8333-.2917 1.5417-.875 2.125s-1.2917.875-2.125.875zm-7 3c-.55 0-1.02083-.1958-1.4125-.5875s-.5875-.8625-.5875-1.4125v-8c0-.55.19583-1.02083.5875-1.4125s.8625-.5875 1.4125-.5875h14c.55 0 1.0208.19583 1.4125.5875s.5875.8625.5875 1.4125v8c0 .55-.1958 1.0208-.5875 1.4125s-.8625.5875-1.4125.5875zm2-2h10c0-.55.1958-1.0208.5875-1.4125s.8625-.5875 1.4125-.5875v-4c-.55 0-1.0208-.19583-1.4125-.5875s-.5875-.8625-.5875-1.4125h-10c0 .55-.19583 1.02083-.5875 1.4125s-.8625.5875-1.4125.5875v4c.55 0 1.02083.1958 1.4125.5875s.5875.8625.5875 1.4125zm11 6h-17c-.55 0-1.02083-.1958-1.4125-.5875s-.5875-.8625-.5875-1.4125v-11h2v11h17z"/></svg>