<svg viewBox="0 0 24 24" xmlns="http://www.w3.org/2000/svg"><path d="m20 12c0 .55-.1958 1.0208-.5875 1.4125s-.8625.5875-1.4125.5875-1.0208-.1958-1.4125-.5875-.5875-.8625-.5875-1.4125.1958-1.0208.5875-1.4125.8625-.5875 1.4125-.5875 1.0208.1958 1.4125.5875.5875.8625.5875 1.4125zm-6 0c0 .55-.1958 1.0208-.5875 1.4125s-.8625.5875-1.4125.5875-1.0208-.1958-1.4125-.5875-.5875-.8625-.5875-1.4125.1958-1.0208.5875-1.4125.8625-.5875 1.4125-.5875 1.0208.1958 1.4125.5875.5875.8625.5875 1.4125zm-6 0c0 .55-.19583 1.0208-.5875 1.4125s-.8625.5875-1.4125.5875-1.02083-.1958-1.4125-.5875-.5875-.8625-.5875-1.4125.19583-1.0208.5875-1.4125.8625-.5875 1.4125-.5875 1.02083.1958 1.4125.5875.5875.8625.5875 1.4125z"/></svg>