<svg viewBox="0 0 24 24" xmlns="http://www.w3.org/2000/svg"><path d="m12 19.8855c-.55 0-1.0208-.1958-1.4125-.5875s-.5875-.8625-.5875-1.4125.1958-1.0208.5875-1.4125.8625-.5875 1.4125-.5875 1.0208.1958 1.4125.5875.5875.8625.5875 1.4125-.1958 1.0208-.5875 1.4125-.8625.5875-1.4125.5875zm0-6c-.55 0-1.0208-.1958-1.4125-.5875s-.5875-.8625-.5875-1.4125.1958-1.0208.5875-1.4125.8625-.5875 1.4125-.5875 1.0208.1958 1.4125.5875.5875.8625.5875 1.4125-.1958 1.0208-.5875 1.4125-.8625.5875-1.4125.5875zm0-6c-.55 0-1.0208-.19584-1.4125-.5875-.3917-.39167-.5875-.8625-.5875-1.4125s.1958-1.02084.5875-1.4125c.3917-.39167.8625-.5875 1.4125-.5875s1.0208.19583 1.4125.5875c.3917.39166.5875.8625.5875 1.4125s-.1958 1.02083-.5875 1.4125c-.3917.39166-.8625.5875-1.4125.5875z"/></svg>