<svg xmlns="http://www.w3.org/2000/svg" id="icon-more-vertical-outline" viewBox="0 0 512 512">
  <path d="m211 399c0 23 18 41 41 41 22 0 40-18 40-41 0-22-18-41-40-41-23 0-41 19-41 41z m0-286c0 22 18 41 41 41 22 0 40-19 40-41 0-23-18-41-40-41-23 0-41 18-41 41z m0 143c0 23 18 41 41 41 22 0 40-18 40-41 0-23-18-41-40-41-23 0-41 18-41 41z m-201-237c0 1 1 2 2 2 1 0 2-1 2-2 0-1-1-2-2-2-1 0-2 1-2 2z m0-14c0 1 1 2 2 2 1 0 2-1 2-2 0-1-1-2-2-2-1 0-2 1-2 2z m0 7c0 1 1 2 2 2 1 0 2-1 2-2 0-1-1-2-2-2-1 0-2 1-2 2z"/>
</svg>