<svg width="10" height="10" viewBox="0 0 10 10" fill="none" xmlns="http://www.w3.org/2000/svg">
<path fill-rule="evenodd" clip-rule="evenodd" d="M1.76923 4.2003C1.3274 4.2003 0.969231 4.55847 0.969231 5.0003C0.969231 5.44213 1.3274 5.8003 1.76923 5.8003H4.20048V8.23077C4.20048 8.6726 4.55865 9.03077 5.00048 9.03077C5.44231 9.03077 5.80048 8.6726 5.80048 8.23077V5.8003H8.23077C8.6726 5.8003 9.03077 5.44213 9.03077 5.0003C9.03077 4.55847 8.6726 4.2003 8.23077 4.2003L5.80048 4.2003L5.80048 1.76923C5.80048 1.3274 5.44231 0.969229 5.00048 0.969229C4.55865 0.969229 4.20048 1.3274 4.20048 1.76923V4.2003H1.76923Z" fill="#F9FBFF"/>
</svg>
