<svg xmlns="http://www.w3.org/2000/svg" width="16" height="17" viewBox="0 0 16 17" fill="none">
  <g clip-path="url(#clip0_42143_13634)">
    <path d="M4 5.54785C4 4.48699 4.42143 3.46957 5.17157 2.71942C5.92172 1.96928 6.93913 1.54785 8 1.54785C9.06087 1.54785 10.0783 1.96928 10.8284 2.71942C11.5786 3.46957 12 4.48699 12 5.54785C12 10.2145 14 11.5479 14 11.5479H2C2 11.5479 4 10.2145 4 5.54785Z" stroke="#6F6F6F" stroke-width="1.33" stroke-linecap="round" stroke-linejoin="round"/>
    <path d="M6.86719 14.2146C6.97878 14.4176 7.14282 14.5868 7.34218 14.7047C7.54154 14.8226 7.76891 14.8848 8.00052 14.8848C8.23213 14.8848 8.4595 14.8226 8.65886 14.7047C8.85822 14.5868 9.02227 14.4176 9.13385 14.2146" stroke="#6F6F6F" stroke-width="1.33" stroke-linecap="round" stroke-linejoin="round"/>
  </g>
  <defs>
    <clipPath id="clip0_42143_13634">
      <rect width="16" height="16" fill="white" transform="translate(0 0.2146)"/>
    </clipPath>
  </defs>
</svg>