<svg viewBox="0 0 24 24" xmlns="http://www.w3.org/2000/svg"><path d="m4 19v-2h2v-7c0-1.38333.41667-2.6125 1.25-3.6875s1.91667-1.77917 3.25-2.1125v-.7c0-.41667.1458-.77083.4375-1.0625s.6458-.4375 1.0625-.4375.7708.14583 1.0625.4375.4375.64583.4375 1.0625v.7c1.3333.33333 2.4167 1.0375 3.25 2.1125s1.25 2.30417 1.25 3.6875v7h2v2zm8 3c-.55 0-1.0208-.1958-1.4125-.5875s-.5875-.8625-.5875-1.4125h4c0 .55-.1958 1.0208-.5875 1.4125s-.8625.5875-1.4125.5875zm-4-5h8v-7c0-1.1-.3917-2.04167-1.175-2.825s-1.725-1.175-2.825-1.175-2.04167.39167-2.825 1.175-1.175 1.725-1.175 2.825z"/></svg>