<svg viewBox="0 0 24 24" xmlns="http://www.w3.org/2000/svg"><path d="m17.75 20.479c-1.05 0-1.9375-.3625-2.6625-1.0875s-1.0875-1.6125-1.0875-2.6625.3625-1.9375 1.0875-2.6625 1.6125-1.0875 2.6625-1.0875 1.9375.3625 2.6625 1.0875 1.0875 1.6125 1.0875 2.6625-.3625 1.9375-1.0875 2.6625-1.6125 1.0875-2.6625 1.0875zm0-2c.4833 0 .8958-.1708 1.2375-.5125s.5125-.7542.5125-1.2375-.1708-.8958-.5125-1.2375-.7542-.5125-1.2375-.5125-.8958.1708-1.2375.5125-.5125.7542-.5125 1.2375.1708.8958.5125 1.2375.7542.5125 1.2375.5125zm-13.75-.75v-2h8v2zm2.25-6.25c-1.05 0-1.9375-.3625-2.6625-1.0875s-1.0875-1.6125-1.0875-2.6625.3625-1.9375 1.0875-2.6625 1.6125-1.0875 2.6625-1.0875 1.9375.3625 2.6625 1.0875 1.0875 1.6125 1.0875 2.6625-.3625 1.9375-1.0875 2.6625-1.6125 1.0875-2.6625 1.0875zm0-2c.48333 0 .89583-.17083 1.2375-.5125.34167-.34166.5125-.75416.5125-1.2375 0-.48333-.17083-.89583-.5125-1.2375-.34167-.34166-.75417-.5125-1.2375-.5125s-.89583.17084-1.2375.5125c-.34167.34167-.5125.75417-.5125 1.2375 0 .48334.17083.89584.5125 1.2375.34167.34167.75417.5125 1.2375.5125zm5.75-.75v-2h8v2z"/></svg>