<svg viewBox="0 0 24 24" xmlns="http://www.w3.org/2000/svg"><path d="m12 22c-1.3667 0-2.65833-.2625-3.875-.7875s-2.27917-1.2417-3.1875-2.15-1.625-1.9708-2.15-3.1875-.7875-2.5083-.7875-3.875c0-1.3833.27083-2.68333.8125-3.9s1.275-2.275 2.2-3.175 2.00417-1.6125 3.2375-2.1375 2.55-.7875 3.95-.7875c1.3333 0 2.5917.22917 3.775.6875s2.2208 1.09167 3.1125 1.9 1.6 1.76667 2.125 2.875.7875 2.30417.7875 3.5875c0 1.9167-.5833 3.3875-1.75 4.4125s-2.5833 1.5375-4.25 1.5375h-1.85c-.15 0-.2542.0417-.3125.125s-.0875.175-.0875.275c0 .2.125.4875.375.8625s.375.8042.375 1.2875c0 .8333-.2292 1.45-.6875 1.85s-1.0625.6-1.8125.6zm-5.5-9c.43333 0 .79167-.1417 1.075-.425s.425-.6417.425-1.075-.14167-.7917-.425-1.075-.64167-.425-1.075-.425-.79167.1417-1.075.425-.425.6417-.425 1.075.14167.7917.425 1.075.64167.425 1.075.425zm3-4c.43333 0 .7917-.14167 1.075-.425s.425-.64167.425-1.075-.1417-.79167-.425-1.075-.64167-.425-1.075-.425-.79167.14167-1.075.425-.425.64167-.425 1.075.14167.79167.425 1.075.64167.425 1.075.425zm5 0c.4333 0 .7917-.14167 1.075-.425s.425-.64167.425-1.075-.1417-.79167-.425-1.075-.6417-.425-1.075-.425-.7917.14167-1.075.425-.425.64167-.425 1.075.1417.79167.425 1.075.6417.425 1.075.425zm3 4c.4333 0 .7917-.1417 1.075-.425s.425-.6417.425-1.075-.1417-.7917-.425-1.075-.6417-.425-1.075-.425-.7917.1417-1.075.425-.425.6417-.425 1.075.1417.7917.425 1.075.6417.425 1.075.425zm-5.5 7c.15 0 .2708-.0417.3625-.125s.1375-.1917.1375-.325c0-.2333-.125-.5083-.375-.825s-.375-.7917-.375-1.425c0-.7.2417-1.2583.725-1.675s1.075-.625 1.775-.625h1.75c1.1 0 2.0417-.3208 2.825-.9625s1.175-1.6375 1.175-2.9875c0-2.01667-.7708-3.69583-2.3125-5.0375s-3.3708-2.0125-5.4875-2.0125c-2.26667 0-4.2.775-5.8 2.325s-2.4 3.44167-2.4 5.675c0 2.2167.77917 4.1042 2.3375 5.6625s3.44583 2.3375 5.6625 2.3375z"/></svg>