<svg xmlns="http://www.w3.org/2000/svg" viewBox="0 0 512 512">
  <path d="m374 92l-46 0 0-25c0-9-7-16-15-16-8 0-15 7-15 16l0 378c0 9 7 16 15 16 8 0 15-7 15-16l0-25 46 0c46 0 82-37 82-82l0-164c0-45-36-82-82-82z m-235 0c-45 0-82 37-82 82l0 164c0 45 37 82 82 82l102 0c12 0 21-9 21-21l0-286c0-12-9-21-21-21z m3 172c-1 2-2 4-4 7-2 1-4 3-7 4-2 1-5 1-7 1-3 0-6 0-8-1-3-1-5-3-7-4-2-3-3-5-5-7-1-3-1-5-1-8 0-5 2-11 6-15 1 0 2-1 3-2 1-1 3-1 4-2 1 0 2-1 3-1 7-2 14 1 19 5 4 4 6 10 6 15 0 3-1 5-2 8z m72 0c-1 2-2 4-4 7-2 1-5 3-7 4-2 1-5 1-8 1-2 0-5 0-8-1-2-1-4-3-6-4-4-4-6-9-6-15 0-3 0-5 1-8 1-2 3-4 5-7 7-7 21-7 29 0 3 4 6 10 6 15 0 3-1 5-2 8z"/>
</svg>
