<svg xmlns="http://www.w3.org/2000/svg" viewBox="0 0 512 512">
  <path d="m365 169c-2 0-3 0-5 0-31-1-56-27-56-59 0-32 26-59 59-59 32 0 59 27 59 59 0 32-25 58-57 59z m67 142c-23 16-56 21-85 17 8-16 12-35 12-55 0-20-5-40-13-57 30-4 62 2 85 17 33 22 33 57 1 78z m-294-142c1 0 3 0 4 0 32-1 57-27 57-59 0-32-27-59-59-59-33 0-59 27-59 59 0 32 25 58 57 59z m2 104c0 20 4 39 12 56-29 3-59-3-81-17-32-22-32-57 0-79 22-14 53-20 82-17-9 17-13 37-13 57z m114 62c-2 0-4 0-5 0-38-1-68-32-68-70 0-39 31-70 71-70 38 0 70 31 70 70 0 38-30 69-68 70z m-67 43c-31 20-31 54 0 75 36 23 93 23 129 0 31-21 31-55 0-75-35-24-93-24-129 0z"/>
</svg>
