<svg viewBox="0 0 24 24" xmlns="http://www.w3.org/2000/svg"><path d="m0 18v-1.575c0-.7167.366667-1.3 1.1-1.75.73333-.45 1.7-.675 2.9-.675.21667 0 .425.0042.625.0125s.39167.0292.575.0625c-.23333.35-.40833.7167-.525 1.1s-.175.7833-.175 1.2v1.625zm6 0v-1.625c0-.5333.14583-1.0208.4375-1.4625s.70417-.8292 1.2375-1.1625 1.17083-.5833 1.9125-.75c.7417-.1667 1.5458-.25 2.4125-.25.8833 0 1.6958.0833 2.4375.25s1.3792.4167 1.9125.75.9417.7208 1.225 1.1625.425.9292.425 1.4625v1.625zm13.5 0v-1.625c0-.4333-.0542-.8417-.1625-1.225s-.2708-.7417-.4875-1.075c.1833-.0333.3708-.0542.5625-.0625s.3875-.0125.5875-.0125c1.2 0 2.1667.2208 2.9.6625s1.1 1.0292 1.1 1.7625v1.575zm-11.375-2h7.775c-.1667-.3333-.6292-.625-1.3875-.875s-1.5958-.375-2.5125-.375-1.7542.125-2.5125.375c-.75833.25-1.2125.5417-1.3625.875zm-4.125-3c-.55 0-1.02083-.1958-1.4125-.5875s-.5875-.8625-.5875-1.4125c0-.5667.19583-1.04167.5875-1.425s.8625-.575 1.4125-.575c.56667 0 1.04167.19167 1.425.575s.575.8583.575 1.425c0 .55-.19167 1.0208-.575 1.4125s-.85833.5875-1.425.5875zm16 0c-.55 0-1.0208-.1958-1.4125-.5875s-.5875-.8625-.5875-1.4125c0-.5667.1958-1.04167.5875-1.425s.8625-.575 1.4125-.575c.5667 0 1.0417.19167 1.425.575s.575.8583.575 1.425c0 .55-.1917 1.0208-.575 1.4125s-.8583.5875-1.425.5875zm-8-1c-.8333 0-1.5417-.2917-2.125-.875-.58333-.5833-.875-1.29167-.875-2.125 0-.85.29167-1.5625.875-2.1375.5833-.575 1.2917-.8625 2.125-.8625.85 0 1.5625.2875 2.1375.8625s.8625 1.2875.8625 2.1375c0 .83333-.2875 1.5417-.8625 2.125s-1.2875.875-2.1375.875zm0-2c.2833 0 .5208-.09583.7125-.2875s.2875-.42917.2875-.7125-.0958-.52083-.2875-.7125-.4292-.2875-.7125-.2875-.5208.09583-.7125.2875-.2875.42917-.2875.7125.0958.52083.2875.7125.4292.2875.7125.2875z"/></svg>