<svg viewBox="0 0 24 24" xmlns="http://www.w3.org/2000/svg"><path d="m12 22c-2.31667-.5833-4.22917-1.9125-5.7375-3.9875s-2.2625-4.3792-2.2625-6.9125v-6.1l8-3 8 3v5h-2v-3.625l-6-2.25-6 2.25v4.725c0 2.0167.56667 3.85 1.7 5.5s2.5667 2.75 4.3 3.3c.4333-.1333.8458-.3042 1.2375-.5125s.7792-.4542 1.1625-.7375l1.4 1.4c-.55.45-1.1458.8417-1.7875 1.175s-1.3125.5917-2.0125.775zm9 0c-.2833 0-.5208-.0958-.7125-.2875s-.2875-.4292-.2875-.7125.0958-.5208.2875-.7125.4292-.2875.7125-.2875.5208.0958.7125.2875.2875.4292.2875.7125-.0958.5208-.2875.7125-.4292.2875-.7125.2875zm-1-4v-6h2v6zm-8-4c.55 0 1.0208-.1958 1.4125-.5875s.5875-.8625.5875-1.4125-.1958-1.0208-.5875-1.4125-.8625-.5875-1.4125-.5875-1.0208.1958-1.4125.5875-.5875.8625-.5875 1.4125.1958 1.0208.5875 1.4125.8625.5875 1.4125.5875zm0 2c-1.1 0-2.04167-.3917-2.825-1.175s-1.175-1.725-1.175-2.825.39167-2.04167 1.175-2.825 1.725-1.175 2.825-1.175 2.0417.39167 2.825 1.175 1.175 1.725 1.175 2.825c0 .3667-.0458.7208-.1375 1.0625s-.2292.6708-.4125.9875l2.975 2.95-1.425 1.425-3-2.975c-.3.1833-.6208.3208-.9625.4125s-.6875.1375-1.0375.1375z"/></svg>