<svg viewBox="0 0 24 24" xmlns="http://www.w3.org/2000/svg"><path d="m16 8v-3h-8v3h-2v-5h12v5zm2 4.5c.2833 0 .5208-.0958.7125-.2875s.2875-.4292.2875-.7125-.0958-.5208-.2875-.7125-.4292-.2875-.7125-.2875-.5208.0958-.7125.2875-.2875.4292-.2875.7125.0958.5208.2875.7125.4292.2875.7125.2875zm-2 6.5v-4h-8v4zm2 2h-12v-4h-4v-6c0-.85.29167-1.5625.875-2.1375s1.29167-.8625 2.125-.8625h14c.85 0 1.5625.2875 2.1375.8625s.8625 1.2875.8625 2.1375v6h-4zm2-6v-4c0-.2833-.0958-.5208-.2875-.7125s-.4292-.2875-.7125-.2875h-14c-.28333 0-.52083.0958-.7125.2875s-.2875.4292-.2875.7125v4h2v-2h12v2z"/></svg>