<svg viewBox="0 0 24 24" xmlns="http://www.w3.org/2000/svg"><path d="m10.75 23.1355-1.4-1.425 1.825-1.825h-3.35c-.21667.5833-.57917 1.0625-1.0875 1.4375s-1.0875.5625-1.7375.5625c-.83333 0-1.54167-.2917-2.125-.875s-.875-1.2917-.875-2.125c0-.65.1875-1.2292.5625-1.7375s.85417-.8708 1.4375-1.0875v-8.35c-.58333-.21667-1.0625-.57917-1.4375-1.0875-.375-.50834-.5625-1.0875-.5625-1.7375 0-.83334.29167-1.54167.875-2.125.58333-.58334 1.29167-.875 2.125-.875.65 0 1.22917.1875 1.7375.5625s.87083.85416 1.0875 1.4375h3.35l-1.825-1.825 1.4-1.425002 4.25 4.250002-4.25 4.25-1.4-1.425 1.825-1.825h-3.35c-.15.43333-.38333.80833-.7 1.125-.31667.31666-.69167.55-1.125.7v8.35c.43333.15.80833.3833 1.125.7s.55.6917.7 1.125h3.35l-1.825-1.825 1.4-1.425 4.25 4.25zm8.25-1.25c-.8333 0-1.5417-.2917-2.125-.875s-.875-1.2917-.875-2.125c0-.6667.1875-1.2542.5625-1.7625s.8542-.8625 1.4375-1.0625v-8.35c-.5833-.2-1.0625-.55417-1.4375-1.0625-.375-.50834-.5625-1.09584-.5625-1.7625 0-.83334.2917-1.54167.875-2.125.5833-.58334 1.2917-.875 2.125-.875s1.5417.29166 2.125.875c.5833.58333.875 1.29166.875 2.125 0 .66666-.1875 1.25416-.5625 1.7625-.375.50833-.8542.8625-1.4375 1.0625v8.35c.5833.2167 1.0625.5792 1.4375 1.0875s.5625 1.0875.5625 1.7375c0 .8333-.2917 1.5417-.875 2.125s-1.2917.875-2.125.875zm-14-2c.28333 0 .52083-.0958.7125-.2875s.2875-.4292.2875-.7125-.09583-.5208-.2875-.7125-.42917-.2875-.7125-.2875-.52083.0958-.7125.2875-.2875.4292-.2875.7125.09583.5208.2875.7125.42917.2875.7125.2875zm14 0c.2833 0 .5208-.0958.7125-.2875s.2875-.4292.2875-.7125-.0958-.5208-.2875-.7125-.4292-.2875-.7125-.2875-.5208.0958-.7125.2875-.2875.4292-.2875.7125.0958.5208.2875.7125.4292.2875.7125.2875zm-14-14c.28333 0 .52083-.09584.7125-.2875.19167-.19167.2875-.42917.2875-.7125 0-.28334-.09583-.52084-.2875-.7125-.19167-.19167-.42917-.2875-.7125-.2875s-.52083.09583-.7125.2875c-.19167.19166-.2875.42916-.2875.7125 0 .28333.09583.52083.2875.7125.19167.19166.42917.2875.7125.2875zm14 0c.2833 0 .5208-.09584.7125-.2875.1917-.19167.2875-.42917.2875-.7125 0-.28334-.0958-.52084-.2875-.7125-.1917-.19167-.4292-.2875-.7125-.2875s-.5208.09583-.7125.2875c-.1917.19166-.2875.42916-.2875.7125 0 .28333.0958.52083.2875.7125.1917.19166.4292.2875.7125.2875z"/></svg>