<svg viewBox="0 0 24 24" xmlns="http://www.w3.org/2000/svg"><path d="m11.95 18c.35 0 .6458-.1208.8875-.3625s.3625-.5375.3625-.8875-.1208-.6458-.3625-.8875-.5375-.3625-.8875-.3625-.6458.1208-.8875.3625-.3625.5375-.3625.8875.1208.6458.3625.8875.5375.3625.8875.3625zm-.9-3.85h1.85c0-.55.0625-.9833.1875-1.3s.4792-.75 1.0625-1.3c.4333-.4333.775-.8458 1.025-1.2375.25-.39167.375-.8625.375-1.4125 0-.93333-.3417-1.65-1.025-2.15s-1.4917-.75-2.425-.75c-.95 0-1.7208.25-2.3125.75-.59167.5-1.00417 1.1-1.2375 1.8l1.65.65c.0833-.3.2708-.625.5625-.975s.7375-.525 1.3375-.525c.5333 0 .9333.14583 1.2.4375s.4.6125.4.9625c0 .33333-.1.64583-.3.9375-.2.2917-.45.5625-.75.8125-.7333.65-1.1833 1.1417-1.35 1.475s-.25.9417-.25 1.825zm.95 7.85c-1.3833 0-2.68333-.2625-3.9-.7875s-2.275-1.2375-3.175-2.1375-1.6125-1.9583-2.1375-3.175-.7875-2.5167-.7875-3.9.2625-2.68333.7875-3.9 1.2375-2.275 2.1375-3.175 1.95833-1.6125 3.175-2.1375 2.5167-.7875 3.9-.7875 2.6833.2625 3.9.7875 2.275 1.2375 3.175 2.1375 1.6125 1.95833 2.1375 3.175.7875 2.5167.7875 3.9-.2625 2.6833-.7875 3.9-1.2375 2.275-2.1375 3.175-1.9583 1.6125-3.175 2.1375-2.5167.7875-3.9.7875zm0-2c2.2333 0 4.125-.775 5.675-2.325s2.325-3.4417 2.325-5.675c0-2.23333-.775-4.125-2.325-5.675s-3.4417-2.325-5.675-2.325c-2.23333 0-4.125.775-5.675 2.325s-2.325 3.44167-2.325 5.675c0 2.2333.775 4.125 2.325 5.675s3.44167 2.325 5.675 2.325z"/></svg>