<svg width="80" height="80" viewBox="0 0 64 64" fill="none" xmlns="http://www.w3.org/2000/svg">
<circle cx="32" cy="32" r="32" fill="#C4C4C4"/>
<path d="M30.4256 36.4C30.4256 35.28 30.7856 34.28 31.5056 33.4C32.2523 32.52 33.079 31.76 33.9856 31.12C34.4923 30.7467 34.959 30.4 35.3856 30.08C35.839 29.76 36.2256 29.4267 36.5456 29.08C36.8923 28.7067 37.159 28.32 37.3456 27.92C37.5323 27.4933 37.6256 27 37.6256 26.44C37.6256 25.2667 37.239 24.3067 36.4656 23.56C35.6923 22.8133 34.7056 22.44 33.5056 22.44C32.2256 22.44 31.1323 22.8533 30.2256 23.68C29.3456 24.48 28.9056 25.56 28.9056 26.92H24.5056C24.5056 25.72 24.7323 24.5867 25.1856 23.52C25.639 22.4533 26.2656 21.52 27.0656 20.72C27.8923 19.92 28.8523 19.2933 29.9456 18.84C31.039 18.36 32.2256 18.12 33.5056 18.12C34.7856 18.12 35.9456 18.3467 36.9856 18.8C38.0523 19.2267 38.9456 19.8267 39.6656 20.6C40.4123 21.3467 40.9856 22.2133 41.3856 23.2C41.8123 24.1867 42.0256 25.2133 42.0256 26.28C42.0256 27.9333 41.6523 29.32 40.9056 30.44C40.159 31.5333 39.2256 32.5067 38.1056 33.36C37.679 33.68 37.2656 33.9867 36.8656 34.28C36.4656 34.5733 36.119 34.8667 35.8256 35.16C35.5323 35.4533 35.2923 35.7467 35.1056 36.04C34.919 36.3333 34.8256 36.64 34.8256 36.96V37.16H30.4256V36.4ZM32.5856 47.32C32.1056 47.32 31.6523 47.2267 31.2256 47.04C30.8256 46.8533 30.4656 46.6133 30.1456 46.32C29.8523 46 29.6123 45.6267 29.4256 45.2C29.239 44.7733 29.1456 44.32 29.1456 43.84C29.1456 43.36 29.239 42.92 29.4256 42.52C29.6123 42.0933 29.8523 41.72 30.1456 41.4C30.4656 41.08 30.8256 40.8267 31.2256 40.64C31.6523 40.4533 32.1056 40.36 32.5856 40.36C33.0656 40.36 33.519 40.4533 33.9456 40.64C34.3723 40.8267 34.7323 41.08 35.0256 41.4C35.3456 41.72 35.599 42.0933 35.7856 42.52C35.9723 42.92 36.0656 43.36 36.0656 43.84C36.0656 44.8 35.719 45.6267 35.0256 46.32C34.359 46.9867 33.5456 47.32 32.5856 47.32Z" fill="white"/>
</svg>
