<svg viewBox="0 0 24 24" xmlns="http://www.w3.org/2000/svg"><path d="m12.05 20c-2.23333 0-4.13333-.775-5.7-2.325s-2.35-3.4417-2.35-5.675v-.175l-1.6 1.6-1.4-1.4 4-4 4 4-1.4 1.4-1.6-1.6v.175c0 1.6667.5875 3.0833 1.7625 4.25s2.6042 1.75 4.2875 1.75c.4333 0 .8583-.05 1.275-.15s.825-.25 1.225-.45l1.5 1.5c-.6333.3667-1.2833.6417-1.95.825s-1.35.275-2.05.275zm6.95-4.025-4-4 1.4-1.4 1.6 1.6v-.175c0-1.6667-.5875-3.08333-1.7625-4.25s-2.6042-1.75-4.2875-1.75c-.4333 0-.8583.05-1.275.15s-.825.25-1.225.45l-1.5-1.5c.63333-.36667 1.28333-.64167 1.95-.825.6667-.18333 1.35-.275 2.05-.275 2.2333 0 4.1333.775 5.7 2.325s2.35 3.44167 2.35 5.675v.175l1.6-1.6 1.4 1.4z"/></svg>