<svg xmlns="http://www.w3.org/2000/svg" viewBox="0 0 512 512">
  <path d="m256 469c-68 0-120-38-153-71l0 42c0 12-8 20-20 20-11 0-19-8-19-20l0-97c0-9 10-19 19-19l88 0c11 0 19 8 19 19 0 12-8 20-19 20l-49 0c27 27 74 68 134 68 97 0 175-78 175-175 0-12 7-19 19-19 12 0 19 7 19 19 0 118-95 213-213 213z m-194-194c-12 0-19-7-19-19 0-118 95-213 213-213 83 0 142 40 175 73l0-42c0-12 7-20 19-20 12 0 19 8 19 20l0 99c0 2-2 5-2 7-2 2-3 4-5 6-2 2-4 2-6 4-2 0-4 0-6 0l-85 0c-12 0-20-8-20-19 0-12 8-20 20-20l46 0c-27-29-77-70-155-70-97 0-175 78-175 175 0 12-7 19-19 19z"/>
</svg>
