<svg viewBox="0 0 512 512" xmlns="http://www.w3.org/2000/svg"><path d="m204 223l105 0c5 0 9 1 13 4 3 4 5 7 5 12l0 214c0 4-2 8-5 11-3 3-8 5-12 5l-106 0c-5 0-9-2-12-5-4-3-5-7-5-11l0-214c0-5 1-8 5-12 3-3 7-4 12-4z m17 213l71 0 0-180-71 0z m36-168c5 0 10 1 14 4l2 2c5 4 7 10 7 16 0 5-2 10-5 14l-2 1c-4 5-10 7-16 7-6 0-11-2-15-5l-2-2c-4-4-6-9-6-15 0-6 1-10 5-14l1-2c5-4 10-6 17-6z m-1-146c17 0 33 3 49 9 16 6 29 15 42 27l-25 24c-9-9-19-15-30-20-12-5-24-7-36-7-13 0-25 2-36 6-11 5-21 11-30 19l-25-23c11-10 23-18 36-24l6-2c15-6 31-9 49-9z m0-79c28 0 55 5 81 15 26 10 48 25 68 45l-25 23c-16-16-35-28-57-37-21-9-44-13-67-13-24 0-46 4-68 13-21 8-40 20-56 36l-25-24c20-18 43-33 68-43 26-10 53-15 81-15z"/></svg>