<svg width="20" height="20" viewBox="0 0 20 20" fill="none" xmlns="http://www.w3.org/2000/svg">
<path d="M7.96484 8.69531H12.085C12.2769 8.69534 12.4387 8.75673 12.5703 8.88086C12.7019 9.00496 12.7676 9.15919 12.7676 9.34277V17.6758C12.7676 17.8593 12.7026 18.0127 12.5732 18.1367C12.4437 18.2608 12.2828 18.3232 12.0908 18.3232H7.9707C7.7789 18.3231 7.61783 18.2608 7.48633 18.1367C7.35479 18.0126 7.28907 17.8594 7.28906 17.6758V9.34277C7.28906 9.15914 7.35388 9.00494 7.4834 8.88086C7.61284 8.75702 7.77308 8.69535 7.96484 8.69531ZM8.64258 17.0283H11.4131V9.99023H8.64258V17.0283ZM10.0303 10.4492C10.2519 10.4493 10.4432 10.5137 10.6045 10.6426L10.6719 10.7021C10.8467 10.8708 10.9346 11.0762 10.9346 11.3184C10.9345 11.5301 10.867 11.7129 10.7324 11.8672L10.6699 11.9316C10.4938 12.0988 10.2796 12.1825 10.0264 12.1826C9.8045 12.1826 9.61257 12.1184 9.45117 11.9893L9.38379 11.9297C9.20922 11.7612 9.12215 11.5564 9.12207 11.3145C9.12207 11.1024 9.1893 10.9191 9.32422 10.7646L9.38574 10.7002C9.56193 10.5329 9.77683 10.4492 10.0303 10.4492ZM9.9873 4.74805C10.6588 4.74807 11.3006 4.87188 11.9121 5.12109C12.5201 5.36893 13.0642 5.72247 13.5449 6.18066L12.5859 7.09863C12.243 6.77218 11.8472 6.51412 11.3975 6.32617C10.9443 6.1368 10.4736 6.04297 9.98633 6.04297C9.49929 6.043 9.03338 6.12783 8.58887 6.29883C8.14725 6.46872 7.75512 6.71739 7.41211 7.04395L6.45312 6.12598C6.86747 5.73517 7.33142 5.42535 7.84473 5.19629L8.06934 5.10254C8.67618 4.86594 9.31567 4.74805 9.9873 4.74805ZM9.99023 1.67773C11.0955 1.67779 12.154 1.87509 13.165 2.27051C14.1725 2.66459 15.0565 3.24328 15.8174 4.00586L14.8584 4.92285C14.2101 4.29219 13.4669 3.80977 12.6289 3.47559C11.7876 3.1401 10.9079 2.97271 9.99023 2.97266C9.07245 2.97266 8.19195 3.13383 7.35059 3.45703C6.51258 3.779 5.77536 4.24927 5.13965 4.86816L4.18066 3.95117C4.96696 3.22468 5.85812 2.66465 6.85352 2.27051C7.85231 1.87504 8.89831 1.67773 9.99023 1.67773Z" fill="#9CA1AF" stroke="#9CA1AF" stroke-width="0.0208333"/>
</svg>
