<svg viewBox="0 0 24 24" xmlns="http://www.w3.org/2000/svg"><path d="m7.00732 12.9934h9.99998v-2h-9.99998zm4.99998 9c-1.3833 0-2.68331-.2625-3.89998-.7875-1.21666-.525-2.275-1.2375-3.175-2.1375s-1.6125-1.9583-2.1375-3.175-.7875-2.5167-.7875-3.9.2625-2.68332.7875-3.89999 1.2375-2.275 2.1375-3.175 1.95834-1.6125 3.175-2.1375c1.21667-.525 2.51668-.7875 3.89998-.7875 1.3834 0 2.6834.2625 3.9.7875 1.2167.525 2.275 1.2375 3.175 2.1375s1.6125 1.95833 2.1375 3.175.7875 2.51669.7875 3.89999-.2625 2.6833-.7875 3.9-1.2375 2.275-2.1375 3.175-1.9583 1.6125-3.175 2.1375c-1.2166.525-2.5166.7875-3.9.7875zm0-2c2.2334 0 4.125-.775 5.675-2.325s2.325-3.4417 2.325-5.675c0-2.23333-.775-4.12499-2.325-5.67499s-3.4416-2.325-5.675-2.325c-2.23331 0-4.12498.775-5.67498 2.325s-2.325 3.44166-2.325 5.67499c0 2.2333.775 4.125 2.325 5.675s3.44167 2.325 5.67498 2.325z"/></svg>