<svg fill="none" height="8" viewBox="0 0 8 8" width="8" xmlns="http://www.w3.org/2000/svg" xmlns:xlink="http://www.w3.org/1999/xlink"><mask id="a" fill="#fff"><path clip-rule="evenodd" d="m.778067 3.8208c.09339-1.69805 1.501803-3.051566 3.221933-3.051566.96355 0 1.83056.423406 2.42308 1.094806v-.61019c-.00252-.17858.14008-.324971.31803-.327495.08771-.001262.17163.032813.23347.094655.06184.06184.09592.14576.09465.23284v1.61538h-.49282c-.03722.00631-.07445.00631-.11105 0h-1.01151c-.11674.0019-.22464-.05931-.28332-.16027-.05932-.10033-.05932-.22527 0-.3256.05868-.10096.16658-.16217.28332-.16028h.42151c-.4701-.4966-1.13455-.80769-1.87536-.80769-1.38254 0-2.50195 1.07839-2.57704 2.44074-.00442.11611-.07193.22086-.17542.27386-.10349.05301-.2278.04606-.32497-.01767-.097176-.06436-.152075-.17542-.144503-.29152zm5.798983.32307c.00694-.17858.15712-.3174.33569-.30983.08708.00379.16911.04228.2278.10728.05805.06499.08771.15081.0814.23789-.09339 1.69804-1.5018 3.05156-3.22194 3.05156-.96355 0-1.83056-.42341-2.42307-1.0948v.61018c.00189.11674-.05932.22464-.16028.28333-.10033.05931-.22527.05931-.3256 0-.100962-.05869-.162171-.16659-.160279-.28333v-1.61538h.498499c.03408-.00505.06815-.00505.10222 0h1.01467c.11673-.00189.22464.05931.28332.16027.05931.10034.05931.22528 0 .32561-.05868.10096-.16659.16217-.28332.16027h-.42152c.47074.49661 1.13456.80769 1.87536.80769 1.38254 0 2.50196-1.07839 2.57705-2.44074z" fill="#fff" fill-rule="evenodd"/></mask><path clip-rule="evenodd" d="m.778067 3.8208c.09339-1.69805 1.501803-3.051566 3.221933-3.051566.96355 0 1.83056.423406 2.42308 1.094806v-.61019c-.00252-.17858.14008-.324971.31803-.327495.08771-.001262.17163.032813.23347.094655.06184.06184.09592.14576.09465.23284v1.61538h-.49282c-.03722.00631-.07445.00631-.11105 0h-1.01151c-.11674.0019-.22464-.05931-.28332-.16027-.05932-.10033-.05932-.22527 0-.3256.05868-.10096.16658-.16217.28332-.16028h.42151c-.4701-.4966-1.13455-.80769-1.87536-.80769-1.38254 0-2.50195 1.07839-2.57704 2.44074-.00442.11611-.07193.22086-.17542.27386-.10349.05301-.2278.04606-.32497-.01767-.097176-.06436-.152075-.17542-.144503-.29152zm5.798983.32307c.00694-.17858.15712-.3174.33569-.30983.08708.00379.16911.04228.2278.10728.05805.06499.08771.15081.0814.23789-.09339 1.69804-1.5018 3.05156-3.22194 3.05156-.96355 0-1.83056-.42341-2.42307-1.0948v.61018c.00189.11674-.05932.22464-.16028.28333-.10033.05931-.22527.05931-.3256 0-.100962-.05869-.162171-.16659-.160279-.28333v-1.61538h.498499c.03408-.00505.06815-.00505.10222 0h1.01467c.11673-.00189.22464.05931.28332.16027.05931.10034.05931.22528 0 .32561-.05868.10096-.16659.16217-.28332.16027h-.42152c.47074.49661 1.13456.80769 1.87536.80769 1.38254 0 2.50196-1.07839 2.57705-2.44074z" fill="#f9fbff" fill-rule="evenodd"/><path d="m.778067 3.8208.997933.06508.00056-.01017zm5.645013-1.95676-.74978.66169 1.74978 1.9827v-2.64439zm0-.61019h1.0001l-.0002-.01413zm.31803-.327495.01418.999895h.0002zm.23347.094655-.70711.7071.00001.00001zm.09465.23284-.99989-.0145-.00011.00725v.00725zm0 1.61538v1h1v-1zm-.49282 0v-1h-.08414l-.08296.01406zm-.11105 0 .1699-.98546-.08433-.01454h-.08557zm-1.01151 0v-1h-.00811l-.00811.00014zm-.28332-.16027.86458-.50254-.00377-.00637zm0-.3256.86084.50892.00372-.0064zm.28332-.16028-.01622.99987.00811.00013h.00811zm.42151 0v1h2.32363l-1.59741-1.68746zm-4.4524 1.63305-.998485-.05503-.000469.0085-.000324.00851zm-.17542.27386-.455874-.89004h-.000005zm-.32497-.01767-.552205.83372.003777.00248zm5.99017-.27828.04344-.99905-.00107-.00005zm-.33569.30983.99848.05503.00045-.00809.00031-.0081zm.56349-.20255.74582-.66617-.0036-.00399zm.0814.23789-.99739-.07229-.00063.00868-.00047.00869zm-5.64501 1.95676.74977-.66169-1.749774-1.98271v2.6444zm0 .61018h-1.000004v.00811l.000131.00812zm-.16028.28333-.50254-.86459-.006375.00377zm-.3256 0 .50893-.86084-.0064-.00372zm-.160279-.28333.999869.01621.00013-.0081v-.00811zm0-1.61538v-1h-.9999996v1zm.498499 0v1h.07367l.07288-.0108zm.10222 0-.14655.9892.07288.0108h.07367zm1.01467 0v1h.0081l.00811-.00013zm.28332.16027-.86459.50254.00377.00638zm0 .32561-.86084-.50893-.00372.0064zm-.28332.16027.01621-.99987-.00811-.00013h-.0081zm-.42152 0v-1h-2.325772l1.600012 1.68795zm1.87536-6.007686c-2.25574 0-4.098134 1.773126-4.220424 3.996646l1.996984.10983c.06449-1.17257 1.03893-2.10648 2.22344-2.10648zm3.17286 1.433106c-.77407-.877108-1.91014-1.433106-3.17286-1.433106v1.999996c.66439 0 1.26233.29082 1.6733.7565zm-1.74978.05151v.61019h2v-.61019zm1.30385-1.3273944c-.7302.0103575-1.31408.6107774-1.30375 1.3415244l1.9998-.02826c.00528.37359-.29339.68123-.66769.68653zm.95476.3874494c-.25312-.2531227-.59738-.3925912-.95497-.3874465l.02877 1.9997915c-.18216.00262-.35858-.0687-.48802-.19814zm.38744.954445c.00519-.358079-.13506-.702077-.38745-.954457l-1.4142 1.414227c-.1287-.1287-.20081-.30485-.19814-.48877zm.0001 1.60088v-1.61538h-2v1.61538zm-1.49282 1h.49282v-2h-.49282zm-.28096-.01454c.14999.02586.30119.02538.44807.00048l-.33421-1.97188c.07242-.01227.14916-.01276.22595.00048zm-.8416.01454h1.01151v-2h-1.01151zm-1.14789-.65775c.23975.41247.68368.66541 1.1641.65762l-.03243-1.99973c.24695-.00401.47508.12652.59746.33706zm.00375-1.33703c-.24489.41422-.24489.92919 0 1.34342l1.72163-1.01782c.12626.21356.12626.47865 0 .69222zm1.16035-.65124c-.48042-.00779-.92435.24515-1.1641.65762l1.72913 1.00505c-.12238.21055-.35051.34107-.59746.33707zm.4053-.00013h-.42151v2h.42151zm-1.87536 1.19231c.45384 0 .85932.18899 1.14914.49515l1.45244-1.37492c-.65038-.68705-1.5738-1.120232-2.60158-1.120232zm-1.57856 1.49578c.04618-.83769.73235-1.49578 1.57856-1.49578v-2.000002c-1.91887 0-3.471517 1.498702-3.575525 3.385712zm-.71803 1.10887c.42156-.21592.7005-.64417.71883-1.12589l-1.998558-.07604c.009493-.24951.153397-.46825.367984-.57816zm-1.329268-.07152c.396407.25999.904098.28928 1.329278.07151l-.911759-1.78008c.218199-.11176.477279-.09635.679339.03617zm-.593955-1.1928c-.030864.47325.1934625.92755.590184 1.19031l1.104399-1.66742c.20237.13404.3169.36623.30118.60727zm7.174923-.92078c-.73324-.03109-1.34892.53977-1.37731 1.27009l1.99849.07768c-.0145.37317-.32982.66638-.70591.65044zm.92765.43622c-.23834-.26396-.57217-.42076-.92658-.43617l-.08687 1.99811c-.18025-.00784-.35003-.08765-.47099-.22163zm.33656.98034c.02611-.36025-.09663-.71174-.33297-.97634l-1.49163 1.33231c-.12023-.13461-.18365-.31447-.17017-.50055zm-4.21932 3.97927c2.25575 0 4.09814-1.77313 4.22043-3.99665l-1.99698-.10983c-.06449 1.17257-1.03893 2.10648-2.22345 2.10648zm-3.17285-1.43311c.77407.87711 1.91014 1.43311 3.17285 1.43311v-2c-.66439 0-1.26233-.29082-1.6733-.75649zm1.74978-.05151v-.61018h-2.000004v.61018zm-.65775 1.14789c.41246-.23974.66541-.68367.65761-1.16411l-1.999733.03245c-.004006-.24697.126529-.47509.337067-.59747zm-1.337046-.00375c.414229.2449.929196.2449 1.343426 0l-1.017825-1.72163c.213565-.12626.478655-.12626.692225 0zm-.6512312-1.16034c-.0077868.48042.2451572.92434.6576122 1.16408l1.005065-1.72911c.21054.12237.34106.35049.33706.59744zm-.0001314-1.59918v1.61538h1.9999986v-1.61538zm1.4984986-1h-.498499v2h.498499zm.24878.0108c-.13125-.01945-.26409-.01945-.39533 0l.2931 1.9784c-.06309.00935-.12778.00935-.19088 0zm.86811-.0108h-1.01467v2h1.01467zm1.14788.65775c-.23974-.41247-.68367-.66541-1.1641-.65762l.03243 1.99974c-.24695.004-.47508-.12653-.59745-.33707zm-.00374 1.33704c.24489-.41423.24489-.9292 0-1.34343l-1.72164 1.01783c-.12626-.21357-.12626-.47866 0-.69223zm-1.16036.65123c.48042.00779.92436-.24515 1.1641-.65762l-1.72912-1.00505c.12237-.21054.3505-.34107.59745-.33707zm-.4053.00013h.42152v-2h-.42152zm1.87536-1.19231c-.45346 0-.85868-.18873-1.1496-.49564l-1.45152 1.3759c.65055.6863 1.57297 1.11974 2.60112 1.11974zm1.57856-1.49578c-.04617.8377-.73235 1.49578-1.57856 1.49578v2c1.91888 0 3.47152-1.4987 3.57553-3.38571z" fill="#fff" mask="url(#a)"/></svg>