<svg viewBox="0 0 24 24" xmlns="http://www.w3.org/2000/svg"><path d="m6 19.0537 1.975-.799c-.16667-.4827-.32083-.9738-.4625-1.4732s-.25417-.9987-.3375-1.4981l-1.175.799zm4-1.0487h4c.3-.6658.5417-1.4773.725-2.4345.1833-.9571.275-1.935.275-2.9338 0-1.6479-.275-3.20849-.825-4.68164-.55-1.47316-1.275-2.60924-2.175-3.40824-.9.799-1.625 1.93508-2.175 3.40824-.55 1.47315-.825 3.03374-.825 4.68164 0 .9988.09167 1.9767.275 2.9338.18333.9572.425 1.7687.725 2.4345zm2-4.9938c-.55 0-1.0208-.1956-1.4125-.5867-.3917-.3912-.5875-.8615-.5875-1.4108s.1958-1.01953.5875-1.4107c.3917-.39118.8625-.58677 1.4125-.58677s1.0208.19559 1.4125.58677c.3917.39117.5875.8614.5875 1.4107s-.1958 1.0196-.5875 1.4108c-.3917.3911-.8625.5867-1.4125.5867zm6 6.0425v-2.9713l-1.175-.799c-.0833.4994-.1958.9987-.3375 1.4981s-.2958.9905-.4625 1.4732zm-6-17.0537c1.65 1.1985 2.8958 2.7216 3.7375 4.56929s1.2625 3.99501 1.2625 6.44191l2.1 1.3983c.2833.1831.5042.4245.6625.7241s.2375.6159.2375.9488v5.9176l-4.975-1.9975h-6.05l-4.975 1.9975v-5.9176c0-.3329.07917-.6492.2375-.9488s.37917-.541.6625-.7241l2.1-1.3983c0-2.4469.42083-4.59422 1.2625-6.44191s2.0875-3.37079 3.7375-4.56929z"/></svg>