<svg viewBox="0 0 24 24" xmlns="http://www.w3.org/2000/svg"><path d="m6 19.279 1.975-.8c-.16667-.4834-.32083-.975-.4625-1.475s-.25417-1-.3375-1.5l-1.175.8zm4-1.05h4c.3-.6667.5417-1.4792.725-2.4375.1833-.9584.275-1.9375.275-2.9375 0-1.65-.275-3.21252-.825-4.68752s-1.275-2.6125-2.175-3.4125c-.9.8-1.625 1.9375-2.175 3.4125s-.825 3.03752-.825 4.68752c0 1 .09167 1.9791.275 2.9375.18333.9583.425 1.7708.725 2.4375zm2-5c-.55 0-1.0208-.1959-1.4125-.5875-.3917-.3917-.5875-.8625-.5875-1.4125s.1958-1.0209.5875-1.41252c.3917-.39167.8625-.5875 1.4125-.5875s1.0208.19583 1.4125.5875c.3917.39162.5875.86252.5875 1.41252s-.1958 1.0208-.5875 1.4125c-.3917.3916-.8625.5875-1.4125.5875zm6 6.05v-2.975l-1.175-.8c-.0833.5-.1958 1-.3375 1.5s-.2958.9916-.4625 1.475zm-6-17.07502c1.65 1.2 2.8958 2.725 3.7375 4.575s1.2625 4.00002 1.2625 6.45002l2.1 1.4c.2833.1833.5042.425.6625.725s.2375.6166.2375.95v5.925l-4.975-2h-6.05l-4.975 2v-5.925c0-.3334.07917-.65.2375-.95s.37917-.5417.6625-.725l2.1-1.4c0-2.45.42083-4.60002 1.2625-6.45002s2.0875-3.375 3.7375-4.575z"/></svg>