<svg viewBox="0 0 24 24" xmlns="http://www.w3.org/2000/svg"><path d="m16 11c.2833 0 .5208-.0958.7125-.2875s.2875-.4292.2875-.7125c0-.28333-.0958-.52083-.2875-.7125s-.4292-.2875-.7125-.2875-.5208.09583-.7125.2875-.2875.42917-.2875.7125c0 .2833.0958.5208.2875.7125s.4292.2875.7125.2875zm-8-2h5v-2h-5zm-3.5 12c-.56667-1.9-1.125-3.7958-1.675-5.6875s-.825-3.8292-.825-5.8125c0-1.53333.53333-2.83333 1.6-3.9s2.36667-1.6 3.9-1.6h5c.4833-.63333 1.0708-1.125 1.7625-1.475s1.4375-.525 2.2375-.525c.4167 0 .7708.14583 1.0625.4375s.4375.64583.4375 1.0625c0 .1-.0125.2-.0375.3s-.0542.19167-.0875.275c-.0667.18333-.1292.37083-.1875.5625s-.1042.3875-.1375.5875l2.275 2.275h2.175v6.975l-2.825.925-1.675 5.6h-5.5v-2h-2v2zm1.5-2h2v-2h6v2h2l1.55-5.15 2.45-.825v-3.525h-1l-3.5-3.5c0-.33333.0208-.65417.0625-.9625s.1042-.62083.1875-.9375c-.4833.13333-.9083.3625-1.275.6875s-.6333.72917-.8 1.2125h-6.175c-.96667 0-1.79167.34167-2.475 1.025s-1.025 1.50833-1.025 2.475c0 1.6333.225 3.2292.675 4.7875s.89167 3.1292 1.325 4.7125z"/></svg>