<svg viewBox="0 0 24 24" xmlns="http://www.w3.org/2000/svg"><path d="m16 11.229c.2833 0 .5208-.0958.7125-.2875s.2875-.4292.2875-.7125c0-.28333-.0958-.52083-.2875-.7125-.1917-.19166-.4292-.2875-.7125-.2875s-.5208.09584-.7125.2875c-.1917.19167-.2875.42917-.2875.7125 0 .2833.0958.5208.2875.7125s.4292.2875.7125.2875zm-8-2h5v-2h-5zm-3.5 12c-.56667-1.9-1.125-3.7958-1.675-5.6875s-.825-3.8292-.825-5.8125c0-1.53333.53333-2.83333 1.6-3.9 1.06667-1.06666 2.36667-1.6 3.9-1.6h5c.4833-.63333 1.0708-1.125 1.7625-1.475s1.4375-.525 2.2375-.525c.4167 0 .7708.14584 1.0625.4375.2917.29167.4375.64584.4375 1.0625 0 .1-.0125.2-.0375.3s-.0542.19167-.0875.275c-.0667.18334-.1292.37084-.1875.5625-.0583.19167-.1042.3875-.1375.5875l2.275 2.275h2.175v6.975l-2.825.925-1.675 5.6h-5.5v-2h-2v2zm1.5-2h2v-2h6v2h2l1.55-5.15 2.45-.825v-3.525h-1l-3.5-3.5c0-.33333.0208-.65416.0625-.9625.0417-.30833.1042-.62083.1875-.9375-.4833.13334-.9083.3625-1.275.6875s-.6333.72917-.8 1.2125h-6.175c-.96667 0-1.79167.34167-2.475 1.025-.68333.68334-1.025 1.50834-1.025 2.475 0 1.6333.225 3.2292.675 4.7875s.89167 3.1292 1.325 4.7125z"/></svg>