<svg xmlns="http://www.w3.org/2000/svg" viewBox="0 0 512 512">
  <path d="m47 210c-9 0-16-7-16-15l0-52c0-59 49-107 108-107l51 0c8 0 15 7 15 15 0 9-7 16-15 16l-51 0c-43 0-77 34-77 76l0 52c0 8-7 15-15 15z m409 0c-8 0-15-7-15-15l0-52c0-42-34-76-77-76l-51 0c-8 0-15-7-15-16 0-8 7-15 15-15l51 0c59 0 108 48 108 107l0 52c0 8-7 15-16 15z m-92 266l-31 0c-8 0-15-7-15-15 0-9 7-16 15-16l31 0c43 0 77-34 77-76l0-31c0-8 7-15 15-15 9 0 16 7 16 15l0 31c0 59-49 107-108 107z m-174 0l-51 0c-59 0-108-48-108-107l0-52c0-8 7-15 16-15 8 0 15 7 15 15l0 52c0 42 34 76 77 76l51 0c8 0 15 7 15 16 0 8-7 15-15 15z m0-358l-41 0c-23 0-36 12-36 36l0 41c0 23 13 35 36 35l41 0c23 0 36-12 36-35l0-41c0-24-13-36-36-36z m164 0l-41 0c-23 0-36 12-36 36l0 41c0 23 13 35 36 35l41 0c23 0 36-12 36-35l0-41c0-24-13-36-36-36z m-164 164l-41 0c-23 0-36 12-36 35l0 41c0 24 13 36 36 36l41 0c23 0 36-12 36-36l0-41c0-23-13-35-36-35z m164 0l-41 0c-23 0-36 12-36 35l0 41c0 24 13 36 36 36l41 0c23 0 36-12 36-36l0-41c0-23-13-35-36-35z"/>
</svg>
