<svg xmlns="http://www.w3.org/2000/svg" viewBox="0 0 512 512">
  <path d="m363 469l-29 0c-8 0-16-6-16-15 0-10 6-16 16-16l29 0c41 0 75-34 75-75l0-27c0-8 6-16 16-16 9 0 15 6 15 16l0 29c-2 57-49 104-106 104z m-167 0l-49 0c-57 0-102-47-102-102l0-51c0-8 6-16 15-16 10 0 16 6 16 16l0 49c0 41 34 75 75 75l45 0c8 0 16 6 16 16 0 9-8 13-16 13z m256-255c-8 0-16-6-16-16l0-49c0-41-34-75-75-75l-47 0c-8 0-16-6-16-16 0-9 6-15 16-15l49 0c57 0 102 47 102 102l0 53c2 8-5 16-13 16z m-394 0c-7 0-15-8-15-16l0-49c0-57 47-102 102-102l51 0c8 0 16 5 16 15 0 10-8 14-16 14l-49 0c-41 0-75 34-75 75l0 47c2 8-6 16-14 16z"/>
</svg>
