<svg viewBox="0 0 24 24" xmlns="http://www.w3.org/2000/svg"><path d="m12 13c-.9833 0-1.8125-.3375-2.4875-1.0125s-1.0125-1.5042-1.0125-2.4875c0-.98333.3375-1.8125 1.0125-2.4875s1.5042-1.0125 2.4875-1.0125 1.8125.3375 2.4875 1.0125 1.0125 1.50417 1.0125 2.4875c0 .9833-.3375 1.8125-1.0125 2.4875s-1.5042 1.0125-2.4875 1.0125zm0-2c.4333 0 .7917-.1417 1.075-.425s.425-.64167.425-1.075-.1417-.79167-.425-1.075-.6417-.425-1.075-.425-.7917.14167-1.075.425-.425.64167-.425 1.075.1417.7917.425 1.075.6417.425 1.075.425zm0 11c-2.31667-.5833-4.22917-1.9125-5.7375-3.9875s-2.2625-4.3792-2.2625-6.9125v-6.1l8-3 8 3v6.1c0 2.5333-.7542 4.8375-2.2625 6.9125s-3.4208 3.4042-5.7375 3.9875zm0-17.875-6 2.25v4.725c0 .9.125 1.775.375 2.625s.59167 1.65 1.025 2.4c.7-.35 1.43333-.625 2.2-.825.7667-.2 1.5667-.3 2.4-.3s1.6333.1 2.4.3 1.5.475 2.2.825c.4333-.75.775-1.55 1.025-2.4s.375-1.725.375-2.625v-4.725zm0 12.875c-.6 0-1.1833.0667-1.75.2-.56667.1333-1.10833.3167-1.625.55.48333.5 1.00833.9333 1.575 1.3.5667.3667 1.1667.65 1.8.85.6333-.2 1.2333-.4833 1.8-.85s1.0917-.8 1.575-1.3c-.5167-.2333-1.0583-.4167-1.625-.55s-1.15-.2-1.75-.2z"/></svg>