<svg viewBox="0 0 24 24" xmlns="http://www.w3.org/2000/svg"><path d="m12 16c1.25 0 2.3125-.4375 3.1875-1.3125s1.3125-1.9375 1.3125-3.1875-.4375-2.3125-1.3125-3.1875-1.9375-1.3125-3.1875-1.3125v1.5c.8333 0 1.5417.29167 2.125.875s.875 1.2917.875 2.125-.2917 1.5417-.875 2.125-1.2917.875-2.125.875c-.55 0-1.0625-.1417-1.5375-.425s-.84583-.6667-1.1125-1.15l-1.3.725c.4.7333.95 1.3083 1.65 1.725s1.4667.625 2.3.625zm-3.75-3.65c.21667 0 .39583-.0708.5375-.2125s.2125-.3208.2125-.5375-.07083-.3958-.2125-.5375-.32083-.2125-.5375-.2125-.39583.0708-.5375.2125-.2125.3208-.2125.5375.07083.3958.2125.5375.32083.2125.5375.2125zm.55-2.1c.21667 0 .39583-.0708.5375-.2125.14167-.14167.2125-.32083.2125-.5375s-.07083-.39583-.2125-.5375-.32083-.2125-.5375-.2125-.39583.07083-.5375.2125-.2125.32083-.2125.5375.07083.39583.2125.5375c.14167.1417.32083.2125.5375.2125zm1.45-1.375c.2167 0 .3958-.07083.5375-.2125s.2125-.32083.2125-.5375-.0708-.39583-.2125-.5375-.3208-.2125-.5375-.2125-.39583.07083-.5375.2125-.2125.32083-.2125.5375.07083.39583.2125.5375.3208.2125.5375.2125zm1.75 13.125c-2.31667-.5833-4.22917-1.9125-5.7375-3.9875s-2.2625-4.3792-2.2625-6.9125v-6.1l8-3 8 3v6.1c0 2.5333-.7542 4.8375-2.2625 6.9125s-3.4208 3.4042-5.7375 3.9875zm0-2.1c1.7333-.55 3.1667-1.65 4.3-3.3s1.7-3.4833 1.7-5.5v-4.725l-6-2.25-6 2.25v4.725c0 2.0167.56667 3.85 1.7 5.5s2.5667 2.75 4.3 3.3z"/></svg>