<svg viewBox="0 0 24 24" xmlns="http://www.w3.org/2000/svg"><path d="m18.8499 16.05-1.5-1.55c.2-.5333.3583-1.0875.475-1.6625s.175-1.1542.175-1.7375v-4.725l-6-2.25-3.65 1.375-1.55-1.55 5.2-1.95 8 3v6.1c0 .85-.0958 1.6917-.2875 2.525s-.4792 1.6417-.8625 2.425zm.95 6.55-3.25-3.25c-.6333.65-1.3375 1.1958-2.1125 1.6375s-1.5875.7792-2.4375 1.0125c-2.31666-.5833-4.22916-1.9125-5.7375-3.9875-1.50833-2.075-2.2625-4.3792-2.2625-6.9125v-4.3l-2.6-2.6 1.4-1.4 18.4 18.4zm-7.8-2.7c.5833-.1833 1.1417-.4417 1.675-.775s1.025-.725 1.475-1.175l-9.15-9.15v2.3c0 2.0167.56667 3.85 1.7 5.5 1.13334 1.65 2.5667 2.75 4.3 3.3z"/></svg>