<svg viewBox="0 0 24 24" xmlns="http://www.w3.org/2000/svg"><path d="m15.5 11c.4167 0 .7708-.1458 1.0625-.4375s.4375-.64583.4375-1.0625-.1458-.77083-.4375-1.0625-.6458-.4375-1.0625-.4375-.7708.14583-1.0625.4375-.4375.64583-.4375 1.0625.1458.7708.4375 1.0625.6458.4375 1.0625.4375zm-7 0c.41667 0 .77083-.1458 1.0625-.4375s.4375-.64583.4375-1.0625-.14583-.77083-.4375-1.0625-.64583-.4375-1.0625-.4375-.77083.14583-1.0625.4375-.4375.64583-.4375 1.0625.14583.7708.4375 1.0625.64583.4375 1.0625.4375zm3.5 2.5c-1.1333 0-2.1625.3208-3.0875.9625s-1.59583 1.4875-2.0125 2.5375h1.65c.36667-.6167.85417-1.1042 1.4625-1.4625.6083-.3583 1.2708-.5375 1.9875-.5375s1.3792.1792 1.9875.5375 1.0958.8458 1.4625 1.4625h1.65c-.4167-1.05-1.0875-1.8958-2.0125-2.5375s-1.9542-.9625-3.0875-.9625zm0 8.5c-1.3833 0-2.68333-.2625-3.9-.7875s-2.275-1.2375-3.175-2.1375-1.6125-1.9583-2.1375-3.175-.7875-2.5167-.7875-3.9.2625-2.68333.7875-3.9 1.2375-2.275 2.1375-3.175 1.95833-1.6125 3.175-2.1375 2.5167-.7875 3.9-.7875 2.6833.2625 3.9.7875 2.275 1.2375 3.175 2.1375 1.6125 1.95833 2.1375 3.175.7875 2.5167.7875 3.9-.2625 2.6833-.7875 3.9-1.2375 2.275-2.1375 3.175-1.9583 1.6125-3.175 2.1375-2.5167.7875-3.9.7875zm0-2c2.2333 0 4.125-.775 5.675-2.325s2.325-3.4417 2.325-5.675c0-2.23333-.775-4.125-2.325-5.675s-3.4417-2.325-5.675-2.325c-2.23333 0-4.125.775-5.675 2.325s-2.325 3.44167-2.325 5.675c0 2.2333.775 4.125 2.325 5.675s3.44167 2.325 5.675 2.325z"/></svg>