<svg viewBox="0 0 24 24" xmlns="http://www.w3.org/2000/svg"><path d="m12 17.5c1.1333 0 2.1625-.3208 3.0875-.9625s1.5958-1.4875 2.0125-2.5375h-10.2c.41667 1.05 1.0875 1.8958 2.0125 2.5375s1.9542.9625 3.0875.9625zm-4.2-6.5 1.1-1.05 1.05 1.05 1.05-1.05-2.1-2.15-2.15 2.15zm6.25 0 1.05-1.05 1.1 1.05 1.05-1.05-2.15-2.15-2.1 2.15zm-2.05 11c-1.3833 0-2.68333-.2625-3.9-.7875s-2.275-1.2375-3.175-2.1375-1.6125-1.9583-2.1375-3.175-.7875-2.5167-.7875-3.9.2625-2.68333.7875-3.9 1.2375-2.275 2.1375-3.175 1.95833-1.6125 3.175-2.1375 2.5167-.7875 3.9-.7875 2.6833.2625 3.9.7875 2.275 1.2375 3.175 2.1375 1.6125 1.95833 2.1375 3.175.7875 2.5167.7875 3.9-.2625 2.6833-.7875 3.9-1.2375 2.275-2.1375 3.175-1.9583 1.6125-3.175 2.1375-2.5167.7875-3.9.7875zm0-2c2.2333 0 4.125-.775 5.675-2.325s2.325-3.4417 2.325-5.675c0-2.23333-.775-4.125-2.325-5.675s-3.4417-2.325-5.675-2.325c-2.23333 0-4.125.775-5.675 2.325s-2.325 3.44167-2.325 5.675c0 2.2333.775 4.125 2.325 5.675s3.44167 2.325 5.675 2.325z"/></svg>