<svg viewBox="0 0 24 24" xmlns="http://www.w3.org/2000/svg"><path d="m9.2502 22-.4-3.2c-.21667-.0833-.42084-.1833-.6125-.3-.19167-.1167-.37917-.2417-.5625-.375l-2.975 1.25-2.75-4.75 2.575-1.95c-.01667-.1167-.025-.2292-.025-.3375v-.675c0-.1083.00833-.2208.025-.3375l-2.575-1.95 2.75-4.75 2.975 1.25c.18333-.13333.375-.25833.575-.375s.4-.21667.6-.3l.4-3.2h5.5l.4 3.2c.2167.08333.4208.18333.6125.3s.3792.24167.5625.375l2.975-1.25 2.75 4.75-2.575 1.95c.0167.1167.025.2292.025.3375v.675c0 .1083-.0167.2208-.05.3375l2.575 1.95-2.75 4.75-2.95-1.25c-.1833.1333-.375.2583-.575.375s-.4.2167-.6.3l-.4 3.2zm1.75-2h1.975l.35-2.65c.5167-.1333.9958-.3292 1.4375-.5875s.8458-.5708 1.2125-.9375l2.475 1.025.975-1.7-2.15-1.625c.0833-.2333.1417-.4792.175-.7375s.05-.5208.05-.7875-.0167-.5292-.05-.7875-.0917-.5042-.175-.7375l2.15-1.625-.975-1.7-2.475 1.05c-.3667-.38333-.7708-.70417-1.2125-.9625s-.9208-.45417-1.4375-.5875l-.325-2.65h-1.975l-.35 2.65c-.5167.13333-.99584.32917-1.4375.5875-.44167.25833-.84584.57083-1.2125.9375l-2.475-1.025-.975 1.7 2.15 1.6c-.08334.25-.14167.5-.175.75-.03334.25-.05.5167-.05.8 0 .2667.01666.525.05.775.03333.25.09166.5.175.75l-2.15 1.625.975 1.7 2.475-1.05c.36666.3833.77083.7042 1.2125.9625.44166.2583.9208.4542 1.4375.5875zm1.05-4.5c.9667 0 1.7917-.3417 2.475-1.025s1.025-1.5083 1.025-2.475-.3417-1.7917-1.025-2.475c-.6833-.68333-1.5083-1.025-2.475-1.025-.9833 0-1.8125.34167-2.4875 1.025-.675.6833-1.0125 1.5083-1.0125 2.475s.3375 1.7917 1.0125 2.475 1.5042 1.025 2.4875 1.025z"/></svg>