<svg viewBox="0 0 24 24" xmlns="http://www.w3.org/2000/svg"><path d="m9.2502 22-.4-3.2c-.21667-.0833-.42084-.1833-.6125-.3-.19167-.1167-.37917-.2417-.5625-.375l-2.975 1.25-2.75-4.75 2.575-1.95c-.01667-.1167-.025-.2292-.025-.3375v-.675c0-.1083.00833-.2208.025-.3375l-2.575-1.95 2.75-4.75 2.975 1.25c.18333-.13333.375-.25833.575-.375s.4-.21667.6-.3l.4-3.2h5.5l.4 3.2c.2167.08333.4208.18333.6125.3s.3792.24167.5625.375l2.975-1.25 2.75 4.75-2.575 1.95c.0167.1167.025.2292.025.3375v.675c0 .1083-.0167.2208-.05.3375l2.575 1.95-2.75 4.75-2.95-1.25c-.1833.1333-.375.2583-.575.375s-.4.2167-.6.3l-.4 3.2zm2.8-6.5c.9667 0 1.7917-.3417 2.475-1.025s1.025-1.5083 1.025-2.475-.3417-1.7917-1.025-2.475c-.6833-.68333-1.5083-1.025-2.475-1.025-.9833 0-1.8125.34167-2.4875 1.025-.675.6833-1.0125 1.5083-1.0125 2.475s.3375 1.7917 1.0125 2.475 1.5042 1.025 2.4875 1.025z"/></svg>