<svg xmlns="http://www.w3.org/2000/svg" viewBox="0 0 512 512"><path d="m329 188c1-12 12-20 24-19 41 3 75 16 97 44 22 27 30 64 30 109l0 3c0 50-10 90-37 118-27 27-68 37-118 37l-139 0c-49 0-90-10-117-37-28-28-37-68-37-118l0-3c0-44 8-82 29-109 22-27 55-40 96-44 12-1 23 7 24 19 1 12-8 22-20 23-34 4-54 14-67 29-12 16-20 41-20 82l0 3c0 46 10 72 25 88 16 15 42 24 87 24l139 0c46 0 72-9 88-24 15-16 25-42 25-88l0-3c0-41-8-66-21-82-12-16-33-26-68-29-12-1-21-11-20-23z m-58-150c-8-8-22-8-30 0l-72 72c-8 8-8 22 0 30 9 8 22 8 31 0l35-35 0 215c0 12 9 21 21 21 12 0 21-9 21-21l0-215 35 35c9 8 22 8 31 0 8-8 8-22 0-30z"/></svg>
