<svg viewBox="0 0 24 24" xmlns="http://www.w3.org/2000/svg"><path d="m12 22c-2.31667-.5833-4.22917-1.9125-5.7375-3.9875s-2.2625-4.3792-2.2625-6.9125v-6.1l8-3 8 3v6.1c0 2.5333-.7542 4.8375-2.2625 6.9125s-3.4208 3.4042-5.7375 3.9875zm0-2.1c1.7333-.55 3.1667-1.65 4.3-3.3s1.7-3.4833 1.7-5.5v-4.725l-6-2.25-6 2.25v4.725c0 2.0167.56667 3.85 1.7 5.5s2.5667 2.75 4.3 3.3zm-2-3.9h4c.2833 0 .5208-.0958.7125-.2875s.2875-.4292.2875-.7125v-3c0-.2833-.0958-.5208-.2875-.7125s-.4292-.2875-.7125-.2875v-1c0-.55-.1958-1.02083-.5875-1.4125s-.8625-.5875-1.4125-.5875-1.0208.19583-1.4125.5875-.5875.8625-.5875 1.4125v1c-.28333 0-.52083.0958-.7125.2875s-.2875.4292-.2875.7125v3c0 .2833.09583.5208.2875.7125s.42917.2875.7125.2875zm1-5v-1c0-.28333.0958-.52083.2875-.7125s.4292-.2875.7125-.2875.5208.09583.7125.2875.2875.42917.2875.7125v1z"/></svg>