<svg viewBox="0 0 24 24" xmlns="http://www.w3.org/2000/svg"><path d="m7 22.229c-.55 0-1.02083-.1958-1.4125-.5875s-.5875-.8625-.5875-1.4125.19583-1.0208.5875-1.4125.8625-.5875 1.4125-.5875 1.02083.1958 1.4125.5875.5875.8625.5875 1.4125-.19583 1.0208-.5875 1.4125-.8625.5875-1.4125.5875zm10 0c-.55 0-1.0208-.1958-1.4125-.5875s-.5875-.8625-.5875-1.4125.1958-1.0208.5875-1.4125.8625-.5875 1.4125-.5875 1.0208.1958 1.4125.5875.5875.8625.5875 1.4125-.1958 1.0208-.5875 1.4125-.8625.5875-1.4125.5875zm-10.85-16 2.4 5h7l2.75-5zm-.95-2h14.75c.3833 0 .675.17084.875.5125.2.34167.2083.6875.025 1.0375l-3.55 6.4c-.1833.3333-.4292.5917-.7375.775s-.6458.275-1.0125.275h-7.45l-1.1 2h12v2h-12c-.75 0-1.31667-.3292-1.7-.9875s-.4-1.3125-.05-1.9625l1.35-2.45-3.6-7.6h-2v-2h3.25z"/></svg>