<svg viewBox="0 0 24 24" xmlns="http://www.w3.org/2000/svg"><path d="m6 22.229c-.55 0-1.02083-.1958-1.4125-.5875s-.5875-.8625-.5875-1.4125v-12c0-.55.19583-1.02083.5875-1.4125.39167-.39166.8625-.5875 1.4125-.5875h2c0-1.1.39167-2.04166 1.175-2.825.78333-.78333 1.725-1.175 2.825-1.175s2.0417.39167 2.825 1.175c.7833.78334 1.175 1.725 1.175 2.825h2c.55 0 1.0208.19584 1.4125.5875.3917.39167.5875.8625.5875 1.4125v12c0 .55-.1958 1.0208-.5875 1.4125s-.8625.5875-1.4125.5875zm0-2h12v-12h-2v2c0 .2833-.0958.5208-.2875.7125s-.4292.2875-.7125.2875-.5208-.0958-.7125-.2875-.2875-.4292-.2875-.7125v-2h-4v2c0 .2833-.09583.5208-.2875.7125s-.42917.2875-.7125.2875-.52083-.0958-.7125-.2875-.2875-.4292-.2875-.7125v-2h-2zm4-14h4c0-.55-.1958-1.02083-.5875-1.4125-.3917-.39166-.8625-.5875-1.4125-.5875s-1.0208.19584-1.4125.5875c-.3917.39167-.5875.8625-.5875 1.4125z"/></svg>