<svg viewBox="0 0 24 24" xmlns="http://www.w3.org/2000/svg"><path d="m7.00555 22c-.55051 0-1.02178-.1958-1.41381-.5875s-.58804-.8625-.58804-1.4125.19601-1.0208.58804-1.4125.8633-.5875 1.41381-.5875 1.02178.1958 1.4138.5875c.39203.3917.58805.8625.58805 1.4125s-.19602 1.0208-.58805 1.4125c-.39202.3917-.86329.5875-1.4138.5875zm10.00925 0c-.5505 0-1.0218-.1958-1.4138-.5875s-.5881-.8625-.5881-1.4125.1961-1.0208.5881-1.4125.8633-.5875 1.4138-.5875 1.0218.1958 1.4138.5875.588.8625.588 1.4125-.196 1.0208-.588 1.4125-.8633.5875-1.4138.5875zm-10.86004-16 2.40222 5h7.00652l2.7525-5zm-.95088-2h14.76362c.3837 0 .6756.17083.8758.5125s.2086.6875.0251 1.0375l-3.5533 6.4c-.1835.3333-.4296.5917-.7382.775s-.6464.275-1.0134.275h-7.45693l-1.10102 2h12.01105v2h-12.01105c-.75069 0-1.31789-.3292-1.70157-.9875-.38369-.6583-.40037-1.3125-.05005-1.9625l1.35125-2.45-3.60333-7.6h-2.00185v-2h3.25301z"/></svg>