<svg viewBox="0 0 24 24" xmlns="http://www.w3.org/2000/svg"><path d="m16.9 21.4994-1.4-1.4018 2.1-2.1026-2.1-2.1026 1.4-1.4018 2.1 2.1026 2.1-2.1026 1.4 1.4018-2.075 2.1026 2.075 2.1026-1.4 1.4018-2.1-2.0776zm-14.9.5006 20-20v10.6884c-.3-.1836-.6167-.3296-.95-.4381s-.6833-.1961-1.05-.2628v-5.15646l-13.175 13.16646h6.425c.1333.3838.3.7426.5 1.0763.2.3338.425.6425.675.9262zm4.825-2.0025 13.175-13.16646c-1.2667 1.26825-2.4167 2.41552-3.45 3.44176-1.0333 1.0263-2.0458 2.0359-3.0375 3.0288l-3.0875 3.0914z"/></svg>