<svg viewBox="0 0 24 24" xmlns="http://www.w3.org/2000/svg"><path d="m20.0875 22.3125-2.275-2.275c-.8167.5333-1.6875.9417-2.6125 1.225s-1.8875.425-2.8875.425c-1.3833 0-2.68333-.2625-3.9-.7875s-2.275-1.2375-3.175-2.1375-1.6125-1.9583-2.1375-3.175-.7875-2.5167-.7875-3.9c0-1 .14167-1.9625.425-2.8875s.69167-1.79583 1.225-2.6125l-2.275-2.275 1.425-1.425 18.4 18.4zm-7.775-2.625c.7167 0 1.4125-.0917 2.0875-.275s1.3292-.4583 1.9625-.825l-10.95-10.95c-.36667.63333-.64167 1.2875-.825 1.9625s-.275 1.3708-.275 2.0875c0 2.2167.77917 4.1042 2.3375 5.6625s3.4458 2.3375 5.6625 2.3375zm8.35-2.5-1.45-1.45c.3667-.6333.6417-1.2875.825-1.9625s.275-1.3708.275-2.0875c0-2.21667-.7792-4.10417-2.3375-5.6625s-3.4458-2.3375-5.6625-2.3375c-.7167 0-1.4125.09167-2.0875.275s-1.32917.45833-1.9625.825l-1.45-1.45c.81667-.53333 1.6875-.94167 2.6125-1.225s1.8875-.425 2.8875-.425c1.3833 0 2.6833.2625 3.9.7875s2.275 1.2375 3.175 2.1375 1.6125 1.95833 2.1375 3.175.7875 2.5167.7875 3.9c0 1-.1417 1.9625-.425 2.8875s-.6917 1.7958-1.225 2.6125z"/></svg>