<svg viewBox="0 0 24 24" xmlns="http://www.w3.org/2000/svg"><path d="m8 11c.28333 0 .52083-.0958.7125-.2875s.2875-.4292.2875-.7125c0-.28333-.09583-.52083-.2875-.7125s-.42917-.2875-.7125-.2875-.52083.09583-.7125.2875-.2875.42917-.2875.7125c0 .2833.09583.5208.2875.7125s.42917.2875.7125.2875zm4 0c.2833 0 .5208-.0958.7125-.2875s.2875-.4292.2875-.7125c0-.28333-.0958-.52083-.2875-.7125s-.4292-.2875-.7125-.2875-.5208.09583-.7125.2875-.2875.42917-.2875.7125c0 .2833.0958.5208.2875.7125s.4292.2875.7125.2875zm4 0c.2833 0 .5208-.0958.7125-.2875s.2875-.4292.2875-.7125c0-.28333-.0958-.52083-.2875-.7125s-.4292-.2875-.7125-.2875-.5208.09583-.7125.2875-.2875.42917-.2875.7125c0 .2833.0958.5208.2875.7125s.4292.2875.7125.2875zm-14 11v-18c0-.55.19583-1.02083.5875-1.4125s.8625-.5875 1.4125-.5875h16c.55 0 1.0208.19583 1.4125.5875s.5875.8625.5875 1.4125v12c0 .55-.1958 1.0208-.5875 1.4125s-.8625.5875-1.4125.5875h-14zm3.15-6h14.85v-12h-16v13.125z"/></svg>