<svg viewBox="0 0 24 24" xmlns="http://www.w3.org/2000/svg"><path d="m11 19.425v-6.85l-6-3.475v6.85zm2 0 6-3.475v-6.85l-6 3.475zm-1-8.575 5.925-3.425-5.925-3.425-5.925 3.425zm-8 6.85c-.31667-.1833-.5625-.425-.7375-.725s-.2625-.6333-.2625-1v-7.95c0-.36667.0875-.7.2625-1s.42083-.54167.7375-.725l7-4.025c.3167-.18333.65-.275 1-.275s.6833.09167 1 .275l7 4.025c.3167.18333.5625.425.7375.725s.2625.63333.2625 1v7.95c0 .3667-.0875.7-.2625 1s-.4208.5417-.7375.725l-7 4.025c-.3167.1833-.65.275-1 .275s-.6833-.0917-1-.275z"/></svg>