<svg viewBox="0 0 24 24" xmlns="http://www.w3.org/2000/svg"><path clip-rule="evenodd" d="m3.58579 3.58579c-.58579.58578-.58579 1.52859-.58579 3.41421v10c0 1.8856 0 2.8284.58579 3.4142.58578.5858 1.52859.5858 3.41421.5858h10c1.8856 0 2.8284 0 3.4142-.5858s.5858-1.5286.5858-3.4142v-10c0-1.88562 0-2.82843-.5858-3.41421-.5858-.58579-1.5286-.58579-3.4142-.58579s-10 0-10 0c-1.88562 0-2.82843 0-3.41421.58579zm7.74741 8.79761v4.5666l-3.99989-2.3167v-4.5665zm5.3333 2.2499-3.9999 2.3167v-4.5666l3.9999-2.3166zm-.7167-5.6832-3.9499 2.2833-3.94993-2.2833 3.94993-2.28329zm-9.7748 6.3666c.11666.2.28055.3611.49166.4833l4.66654 2.6833c.2112.1222.4334.1833.6667.1833s.4556-.0611.6667-.1833l4.6665-2.6833c.2112-.1222.375-.2833.4917-.4833s.175-.4222.175-.6667v-5.2999c0-.24444-.0583-.46666-.175-.66666s-.2805-.3611-.4917-.48332l-4.6665-2.68329c-.2111-.12222-.4334-.18333-.6667-.18333s-.4555.06111-.6667.18333l-4.66654 2.68329c-.21111.12222-.375.28332-.49166.48332-.11667.2-.175.42222-.175.66666v5.2999c0 .2445.05833.4667.175.6667z" fill-rule="evenodd"/></svg>