<svg xmlns="http://www.w3.org/2000/svg" viewBox="0 0 512 512">
  <path d="m351 115l-110-59c-12-6-26-6-37 0l-110 59c-8 5-14 13-14 23 0 9 5 18 14 22l110 60c6 3 12 4 18 4 7 0 13-1 19-4l110-60c8-4 13-13 13-22 0-10-5-18-13-23z m-165 125l-103-51c-8-4-17-3-24 1-8 5-12 13-12 22l0 96c0 17 9 32 24 40l103 51c3 2 7 3 11 3 4 0 9-2 13-4 7-5 12-13 12-21l0-97c0-17-10-32-24-40z m212-28l0 48c-10-3-20-4-29-4-27 0-53 9-73 25-28 22-44 56-44 92 0 9 1 19 3 28-3 0-6-1-8-3-8-5-12-13-12-21l0-97c0-17 9-32 24-40l102-51c8-4 17-3 25 1 7 5 12 13 12 22z m39 106c0 0 0 0-1 0 0-2-1-3-2-4 0 0-1 0-1 0-16-18-39-29-64-29-25 0-47 10-63 27-16 15-25 37-25 61 0 16 4 32 12 45 5 7 10 14 16 20 1 0 1 0 1 0 1 1 2 2 3 3 0 0 0 0 1 0 0 0 0 0 0 0 15 13 34 20 55 20 32 0 59-17 75-43 4-7 8-16 10-25 2-6 2-13 2-20 0-21-7-40-19-55z m-36 69l-18 0 0 19c0 8-6 15-14 15-8 0-15-7-15-15l0-19-18 0c-8 0-15-6-15-14 0-8 7-15 15-15l18 0 0-18c0-8 7-14 15-14 8 0 14 6 14 14l0 18 18 0c8 0 15 7 15 15 0 8-6 14-15 14z"/>
</svg>
