<svg viewBox="0 0 24 24" xmlns="http://www.w3.org/2000/svg"><path d="m11.3229 12.3894v4.6389l-4.06322-2.3533v-4.6388z"/><path d="m16.7405 14.675-4.0632 2.3533v-4.6389l4.0632-2.3532z"/><path d="m16.0125 8.90185-4.0124 2.31945-4.01243-2.31945 4.01243-2.31942z"/><path clip-rule="evenodd" d="m12 22c5.5228 0 10-4.4772 10-10 0-5.52285-4.4772-10-10-10-5.52285 0-10 4.47715-10 10 0 5.5228 4.47715 10 10 10zm-5.91696-6.6309c.11851.2032.28499.3669.49944.491l4.74042 2.7258c.2144.1241.4402.1862.6772.1862s.4628-.0621.6772-.1862l4.7404-2.7258c.2145-.1241.3809-.2878.4995-.491.1185-.2031.1777-.4289.1777-.6772v-5.38373c0-.2483-.0592-.47404-.1777-.6772-.1186-.20316-.285-.36682-.4995-.49097l-4.7404-2.72574c-.2144-.12416-.4402-.18623-.6772-.18623s-.4628.06207-.6772.18623l-4.74042 2.72574c-.21445.12415-.38093.28781-.49944.49097s-.17777.4289-.17777.6772v5.38373c0 .2483.05926.4741.17777.6772z" fill-rule="evenodd"/></svg>