<svg xmlns="http://www.w3.org/2000/svg" viewBox="0 0 512 512">
  <path d="m337 51l-171 0c-75 0-119 45-119 119l0 172c0 74 44 119 119 119l171 0c75 0 119-45 119-119l0-172c1-74-44-119-119-119z m-94 303c0 6-3 12-9 15-2 2-6 3-9 3-2 0-5-1-8-2l-72-36c-10-5-16-16-16-27l0-68c0-6 3-12 8-15 5-3 12-4 17-1l72 36c10 5 17 16 17 27l0 68z m-4-109l-78-42c-5-3-9-9-9-16 0-6 4-13 9-16l78-41c8-4 17-4 26 0l77 41c5 3 9 9 9 16 0 7-4 13-9 16l-77 42c-5 2-9 3-14 3-4 0-8-1-12-3z m136 62c0 11-7 22-17 27l-72 36c-3 1-5 2-8 2-3 0-7-1-9-3-6-3-9-9-9-15l0-68c0-11 7-22 17-27l72-36c5-3 12-2 17 1 5 3 9 9 9 15z"/>
</svg>
