<svg viewBox="0 0 24 24" xmlns="http://www.w3.org/2000/svg"><path clip-rule="evenodd" d="m12 2.8855c-4.97056 0-9 4.02944-9 9 0 4.9706 4.02944 9 9 9 4.9706 0 9-4.0294 9-9 0-4.97056-4.0294-9-9-9zm-.6668 9.3834v4.5666l-3.99989-2.3167v-4.56655zm5.3333 2.2499-3.9999 2.3167v-4.5666l3.9999-2.31665zm-.7167-5.6832-3.9499 2.2833-3.94993-2.2833 3.94993-2.28329zm-9.7748 6.3666c.11666.2.28055.3611.49166.4833l4.66654 2.6833c.2112.1222.4334.1833.6667.1833s.4556-.0611.6667-.1833l4.6665-2.6833c.2112-.1222.375-.2833.4917-.4833s.175-.4223.175-.6667v-5.2999c0-.24445-.0583-.46666-.175-.66666s-.2805-.36111-.4917-.48333l-4.6665-2.68329c-.2111-.12222-.4334-.18333-.6667-.18333s-.4555.06111-.6667.18333l-4.66654 2.68329c-.21111.12222-.375.28333-.49166.48333-.11667.2-.175.42221-.175.66666v5.2999c0 .2444.05833.4667.175.6667z" fill-rule="evenodd"/></svg>