<svg viewBox="0 0 24 24" xmlns="http://www.w3.org/2000/svg"><path d="m12 4-5.925 3.425 5.925 3.425 5.925-3.425zm-9 11.975v-7.95c0-.36667.0875-.7.2625-1s.42083-.54167.7375-.725l7-4.025c.1667-.08333.3292-.15.4875-.2s.3292-.075.5125-.075.3583.025.525.075.325.11667.475.2l7 4.025c.3167.18333.5625.425.7375.725s.2625.63333.2625 1v3.975h-2v-2.9l-7.025 4.05-6.975-4.05v6.85l6 3.475v2.3l-7-4.025c-.31667-.1833-.5625-.425-.7375-.725s-.2625-.6333-.2625-1z"/><path d="m17 19v3h2v-3h3v-2h-3v-3h-2v3h-3v2z"/></svg>