<svg viewBox="0 0 24 24" xmlns="http://www.w3.org/2000/svg"><path clip-rule="evenodd" d="m17.7143 3c.2505 2.26476 2.0307 4.05261 4.2857 4.30429-2.255.25167-4.0352 2.03952-4.2857 4.30431-.2506-2.26479-2.0307-4.05264-4.2857-4.30431 2.255-.25168 4.0351-2.03953 4.2857-4.30429zm-1.2556 11.9129c.1772 1.6014 1.4359 2.8656 3.0305 3.0436-1.5946.1779-2.8533 1.4421-3.0305 3.0435-.1772-1.6014-1.4359-2.8656-3.0305-3.0435 1.5946-.178 2.8533-1.4422 3.0305-3.0436zm-.173-2.8696c-3.7584-.4193-6.72525-3.39912-7.14284-7.17378-.41759 3.77466-3.38449 6.75448-7.14286 7.17378 3.75837.4194 6.72527 3.3992 7.14286 7.1738.41759-3.7746 3.38444-6.7544 7.14284-7.1738z" fill-rule="evenodd"/></svg>