<svg xmlns="http://www.w3.org/2000/svg" viewBox="0 0 512 512">
  <path d="m174 308c1-5 9-5 11 0l12 47c1 1 2 3 4 3l46 13c5 1 5 9 0 10l-46 13c-2 0-3 2-4 4l-12 46c-2 5-10 5-11 0l-12-46c-1-2-2-4-4-4l-46-13c-6-1-6-9 0-10l46-13c2 0 3-2 4-3z m131-218c1-5 9-5 10 0l31 115c1 2 2 3 4 4l115 31c6 1 6 9 0 10l-115 31c-2 1-3 2-4 4l-31 115c-1 6-9 6-10 0l-31-115c-1-2-2-3-4-4l-115-31c-5-1-5-9 0-10l115-31c2-1 3-2 4-4z m-174-22c1-5 9-5 10 0l13 46c0 2 1 4 3 4l47 13c5 1 5 9 0 10l-47 13c-2 0-3 2-3 3l-13 47c-1 5-9 5-10 0l-13-47c0-1-2-3-4-3l-46-13c-5-1-5-9 0-10l46-13c2 0 4-2 4-4z"/>
</svg>
