<svg viewBox="0 0 24 24" xmlns="http://www.w3.org/2000/svg"><g clip-rule="evenodd" fill-rule="evenodd"><path d="m17.7143 3c.2505 2.26476 2.0307 4.05261 4.2857 4.30429-2.255.25167-4.0352 2.03952-4.2857 4.30431-.2506-2.26479-2.0307-4.05264-4.2857-4.30431 2.255-.25168 4.0351-2.03953 4.2857-4.30429zm-1.2556 11.9129c.1772 1.6014 1.4359 2.8656 3.0305 3.0436-1.5946.1779-2.8533 1.4421-3.0305 3.0435-.1772-1.6014-1.4359-2.8656-3.0305-3.0435 1.5946-.178 2.8533-1.4422 3.0305-3.0436z"/><path d="m9.14286 4.86963c-.10963.99098-.39498 1.92717-.82422 2.77663-.77739 1.53842-2.02676 2.79234-3.55917 3.57204-.84441.4296-1.77478.7153-2.75947.8251.98469.1099 1.91506.3955 2.75947.8252 1.53241.7797 2.78178 2.0336 3.55917 3.572.42924.8495.71459 1.7857.82422 2.7766.10963-.9909.39497-1.9271.82422-2.7766.77742-1.5384 2.02672-2.7923 3.55912-3.572.8445-.4297 1.7748-.7153 2.7595-.8252-.9847-.1098-1.915-.3955-2.7595-.8251-1.5324-.7797-2.7817-2.03362-3.55912-3.57204-.42925-.84946-.71459-1.78565-.82422-2.77663zm0 4.34847c-.73163 1.1281-1.69246 2.0918-2.81763 2.8253 1.12517.7336 2.086 1.6973 2.81763 2.8254.73163-1.1281 1.69244-2.0918 2.81764-2.8254-1.1252-.7335-2.08601-1.6972-2.81764-2.8253z"/></g></svg>