<svg viewBox="0 0 24 24" xmlns="http://www.w3.org/2000/svg"><path d="m10.45 15.5c.4.4.9167.5958 1.55.5875s1.1-.2375 1.4-.6875l5.6-8.4-8.4 5.6c-.45.3-.6875.7583-.7125 1.375s.1625 1.125.5625 1.525zm1.55-11.5c.9833 0 1.9292.1375 2.8375.4125s1.7625.6875 2.5625 1.2375l-1.9 1.2c-.55-.28333-1.1208-.49583-1.7125-.6375s-1.1875-.2125-1.7875-.2125c-2.21667 0-4.10417.77917-5.6625 2.3375s-2.3375 3.4458-2.3375 5.6625c0 .7.09583 1.3917.2875 2.075s.4625 1.325.8125 1.925h13.8c.3833-.6333.6625-1.2917.8375-1.975s.2625-1.3917.2625-2.125c0-.6-.0708-1.1833-.2125-1.75s-.3542-1.1167-.6375-1.65l1.2-1.9c.5.78333.8958 1.6167 1.1875 2.5s.4458 1.8.4625 2.75-.0917 1.8583-.325 2.725-.575 1.6917-1.025 2.475c-.1833.3-.4333.5333-.75.7s-.65.25-1 .25h-13.8c-.35 0-.68333-.0833-1-.25s-.56667-.4-.75-.7c-.43333-.75-.76667-1.5458-1-2.3875s-.35-1.7292-.35-2.6625c0-1.3833.2625-2.6792.7875-3.8875.525-1.20833 1.24167-2.26667 2.15-3.175s1.97083-1.625 3.1875-2.15 2.5083-.7875 3.875-.7875z"/></svg>