<svg xmlns="http://www.w3.org/2000/svg" viewBox="0 0 512 512">
  <path d="m57 329l0 44c0 5 2 9 4 12 3 2 7 4 11 4l359 0c4 0 8-2 11-4 2-3 4-7 4-12l0-47c0-26-5-53-15-78-10-24-24-47-42-66-18-19-40-34-64-44-23-10-49-15-74-15-108 0-194 93-194 206z m317-22c12 0 21-9 21-20 0-12-9-21-21-21-11 0-20 9-20 21 0 11 9 20 20 20z m-235-20c0 11-9 20-21 20-11 0-20-9-20-20 0-12 9-21 20-21 12 0 21 9 21 21z m99-82c12 0 21-9 21-21 0-11-9-20-21-20-11 0-20 9-20 20 0 12 9 21 20 21z m117 9c6 6 6 16 0 22l-76 76c0 2 0 4 0 5 0 17-14 31-31 31-17 0-30-14-30-31 0-17 13-30 30-30 4 0 8 0 11 1l74-74c6-6 16-6 22 0z"/>
</svg>
