<svg viewBox="0 0 24 24" xmlns="http://www.w3.org/2000/svg"><path d="m9 3v-2h6v2zm2 11h2v-6h-2zm1 8c-1.2333 0-2.39583-.2375-3.4875-.7125s-2.04583-1.1208-2.8625-1.9375-1.4625-1.7708-1.9375-2.8625-.7125-2.2542-.7125-3.4875.2375-2.3958.7125-3.4875c.475-1.09167 1.12083-2.04583 1.9375-2.8625s1.77083-1.4625 2.8625-1.9375 2.2542-.7125 3.4875-.7125c1.0333 0 2.025.16667 2.975.5s1.8417.81667 2.675 1.45l1.4-1.4 1.4 1.4-1.4 1.4c.6333.83333 1.1167 1.725 1.45 2.675s.5 1.9417.5 2.975c0 1.2333-.2375 2.3958-.7125 3.4875s-1.1208 2.0458-1.9375 2.8625-1.7708 1.4625-2.8625 1.9375-2.2542.7125-3.4875.7125zm0-2c1.9333 0 3.5833-.6833 4.95-2.05s2.05-3.0167 2.05-4.95-.6833-3.58333-2.05-4.95-3.0167-2.05-4.95-2.05-3.58333.68333-4.95 2.05-2.05 3.0167-2.05 4.95.68333 3.5833 2.05 4.95 3.0167 2.05 4.95 2.05z"/></svg>