<svg viewBox="0 0 24 24" xmlns="http://www.w3.org/2000/svg"><path d="m11 21.7715v-7.975c-1.06667 0-2.09167-.2042-3.075-.6125s-1.85-.9875-2.6-1.7375-1.325-1.61668-1.725-2.60002c-.4-.98333-.6-2.00833-.6-3.075v-2h2c1.05 0 2.06667.20417 3.05.6125.98333.40834 1.85.9875 2.6 1.7375.5167.51667.9458 1.08334 1.2875 1.7.3417.61667.6042 1.275.7875 1.975.0833-.11666.175-.22916.275-.3375.1-.10833.2083-.22083.325-.3375.75-.75 1.6167-1.32916 2.6-1.7375.9833-.40833 2.0083-.6125 3.075-.6125h2v2c0 1.06667-.2042 2.09172-.6125 3.07502s-.9875 1.85-1.7375 2.6-1.6125 1.325-2.5875 1.725-1.9958.6-3.0625.6v5zm0-10c0-.8-.1542-1.5625-.4625-2.28752-.3083-.725-.74583-1.37083-1.3125-1.9375-.56667-.56666-1.2125-1.00416-1.9375-1.3125-.725-.30833-1.4875-.4625-2.2875-.4625 0 .8.15 1.56667.45 2.3.3.73334.73333 1.38334 1.3 1.95002.56667.5667 1.21667 1 1.95 1.3s1.5.45 2.3.45zm2 3c.8 0 1.5625-.15 2.2875-.45s1.3708-.7333 1.9375-1.3 1.0042-1.2167 1.3125-1.95.4625-1.50002.4625-2.30002c-.8 0-1.5667.15417-2.3.4625-.7333.30834-1.3833.74584-1.95 1.31252-.5667.5667-1 1.2125-1.3 1.9375s-.45 1.4875-.45 2.2875z"/></svg>