<svg width="19" height="19" viewBox="0 0 19 19" fill="none" xmlns="http://www.w3.org/2000/svg">
<path d="M8.0425 18.5367V10.59C6.98517 10.5618 5.96958 10.3365 4.99575 9.914C4.02175 9.4915 3.15975 8.90525 2.40975 8.15525C1.63242 7.37908 1.0365 6.48225 0.622 5.46475C0.207333 4.44708 0 3.38633 0 2.2825V0H2.2825C3.36933 0 4.42167 0.2115 5.4395 0.6345C6.45717 1.0575 7.35417 1.65758 8.1305 2.43475C8.6 2.90425 9.00092 3.42142 9.33325 3.98625C9.66542 4.55108 9.93258 5.15058 10.1348 5.78475C10.1789 5.72425 10.2274 5.66592 10.2803 5.60975C10.3331 5.55358 10.3904 5.49525 10.4522 5.43475C11.2284 4.65758 12.1253 4.0575 13.1428 3.6345C14.1604 3.2115 15.2212 3 16.325 3H18.6077V5.2825C18.6077 6.38633 18.3962 7.44708 17.973 8.46475C17.55 9.48225 16.9499 10.3791 16.1728 11.1552C15.4228 11.9052 14.5627 12.4873 13.5925 12.9015C12.6222 13.3157 11.6083 13.5368 10.551 13.565V18.5367H8.0425ZM8.0565 8.04225C8.0565 7.39292 7.90942 6.72933 7.61525 6.0515C7.32108 5.37367 6.90008 4.76083 6.35225 4.213C5.83258 3.69333 5.24558 3.28875 4.59125 2.99925C3.93692 2.70975 3.24742 2.55092 2.52275 2.52275C2.55108 3.25675 2.70583 3.95275 2.987 4.61075C3.26817 5.26875 3.6685 5.8575 4.188 6.377C4.70767 6.89667 5.29883 7.29708 5.9615 7.57825C6.62417 7.85942 7.3225 8.01408 8.0565 8.04225ZM10.5652 11.0565C11.2146 11.0565 11.8782 10.9135 12.556 10.6275C13.2338 10.3417 13.8467 9.92483 14.3945 9.377C14.9142 8.8575 15.3188 8.26875 15.6083 7.61075C15.8978 6.95275 16.0566 6.25675 16.0848 5.52275C15.3508 5.55092 14.6547 5.70975 13.9967 5.99925C13.3387 6.28875 12.75 6.69333 12.2305 7.213C11.7108 7.7325 11.3104 8.32175 11.0293 8.98075C10.7483 9.63992 10.5936 10.3318 10.5652 11.0565Z" fill="black"/>
</svg>
