<svg width="20" height="20" viewBox="0 0 20 20" fill="none" xmlns="http://www.w3.org/2000/svg">
<path d="M3 0.75C4.08329 0.75 5.1323 0.96113 6.14551 1.38184C7.15897 1.80268 8.0539 2.3996 8.82715 3.17285C9.35969 3.70539 9.80288 4.29093 10.1562 4.92871C10.432 5.42641 10.6567 5.95052 10.832 6.5C10.93 6.39439 11.0359 6.28537 11.1484 6.17285C11.9216 5.39977 12.8158 4.80263 13.8291 4.38184C14.8429 3.96086 15.9005 3.75 17 3.75H19.25V6C19.25 7.09951 19.0391 8.15712 18.6182 9.1709C18.1974 10.1842 17.6002 11.0784 16.8271 11.8516C16.0539 12.6248 15.1631 13.2182 14.1572 13.6309C13.2283 14.012 12.2587 14.2142 11.25 14.2432V19.25H8.75V11.2686C7.74001 11.239 6.76578 11.0325 5.8291 10.6436C4.81564 10.2227 3.92169 9.62482 3.14844 8.85156C2.37482 8.07795 1.78073 7.18316 1.36816 6.16895C0.956019 5.15564 0.75 4.09869 0.75 3V0.75H3ZM16.7432 6.25586C16.0689 6.28526 15.4205 6.43113 14.7969 6.69336C14.0937 6.98904 13.4707 7.40825 12.9268 7.95215C12.383 8.49597 11.9678 9.11384 11.6807 9.80762C11.4257 10.4239 11.2845 11.0689 11.2559 11.7432C11.9304 11.7146 12.5758 11.5745 13.1924 11.3193C13.8862 11.0322 14.504 10.617 15.0479 10.0732C15.5918 9.52934 16.011 8.90631 16.3066 8.20312C16.569 7.57916 16.7139 6.93048 16.7432 6.25586ZM3.25586 3.25586C3.28438 3.93137 3.42619 4.5806 3.68164 5.20508C3.96892 5.90733 4.38329 6.52977 4.92676 7.07324C5.47023 7.61671 6.09267 8.03108 6.79492 8.31836C7.41909 8.57368 8.06802 8.71455 8.74316 8.74316C8.71375 8.06994 8.5694 7.42618 8.30762 6.81055C8.01204 6.11554 7.59226 5.49656 7.04785 4.95215C6.50344 4.40774 5.88446 3.98796 5.18945 3.69238C4.57351 3.43046 3.92945 3.28517 3.25586 3.25586Z" fill="white" stroke="white" stroke-width="0.5"/>
</svg>
