<svg viewBox="0 0 24 24" xmlns="http://www.w3.org/2000/svg"><path d="m21.0001 11.05v7.95c0 .55-.1959 1.0208-.5875 1.4125-.3917.3917-.8625.5875-1.4125.5875h-14.00004c-.55 0-1.02083-.1958-1.4125-.5875-.39166-.3917-.5875-.8625-.5875-1.4125v-7.95c-.38333-.35-.67916-.8-.8875-1.35-.20833-.55-.2125-1.15-.0125-1.8l1.05-3.4c.13334-.43333.37084-.79167.7125-1.075.34167-.28333.7375-.425 1.1875-.425h13.90004c.45 0 .8416.1375 1.175.4125.3333.275.575.6375.725 1.0875l1.05 3.4c.2.65.1958 1.24167-.0125 1.775-.2084.5333-.5042.9917-.8875 1.375zm-6.8-1.05c.45 0 .7916-.15417 1.025-.4625.2333-.30833.325-.65417.275-1.0375l-.55-3.5h-1.95v3.7c0 .35.1166.65417.35.9125.2333.25833.5166.3875.85.3875zm-4.50004 0c.38334 0 .69584-.12917.93754-.3875.2416-.25833.3625-.5625.3625-.9125v-3.7h-1.95004l-.55 3.5c-.06666.4.02084.75.2625 1.05.24167.3.55417.45.9375.45zm-4.45 0c.3 0 .5625-.10833.7875-.325s.3625-.49167.4125-.825l.55-3.85h-1.95l-1 3.35c-.1.33333-.04583.69167.1625 1.075.20834.38333.55417.575 1.0375.575zm13.50004 0c.4833 0 .8333-.19167 1.05-.575.2166-.38333.2666-.74167.15-1.075l-1.05-3.35h-1.9l.55 3.85c.05.33333.1875.60833.4125.825s.4875.325.7875.325zm-13.75004 9h14.00004v-7.05c-.0834.0333-.1375.05-.1625.05h-.0875c-.45 0-.8459-.075-1.1875-.225-.3417-.15-.6792-.3917-1.0125-.725-.3.3-.6417.5333-1.025.7-.3834.1667-.7917.25-1.225.25-.45 0-.8709-.0833-1.2625-.25-.3917-.1667-.7375-.4-1.0375-.7-.2834.3-.6125.5333-.9875.7s-.7792.25-1.21254.25c-.48333 0-.92083-.0833-1.3125-.25-.39166-.1667-.7375-.4-1.0375-.7-.35.35-.69583.5958-1.0375.7375-.34166.1417-.72916.2125-1.1625.2125h-.1125c-.04166 0-.0875-.0167-.1375-.05z"/></svg>