<svg viewBox="0 0 24 24" xmlns="http://www.w3.org/2000/svg"><path d="m21.025 11.279v7.95c0 .55-.1959 1.0208-.5875 1.4125-.3917.3917-.8625.5875-1.4125.5875h-14.00003c-.55 0-1.02084-.1958-1.4125-.5875-.39167-.3917-.5875-.8625-.5875-1.4125v-7.95c-.38334-.35-.67917-.8-.8875-1.35-.20834-.55-.2125-1.15-.0125-1.8l1.05-3.4c.13333-.43333.37083-.79166.7125-1.075.34166-.28333.7375-.425 1.1875-.425h13.90003c.45 0 .8416.1375 1.175.4125.3333.275.575.6375.725 1.0875l1.05 3.4c.2.65.1958 1.24167-.0125 1.775-.2084.5333-.5042.9917-.8875 1.375zm-6.8-1.05c.45 0 .7916-.1542 1.025-.4625.2333-.30833.325-.65416.275-1.0375l-.55-3.5h-1.95v3.7c0 .35.1166.65417.35.9125.2333.2583.5166.3875.85.3875zm-4.50003 0c.38333 0 .69583-.1292.93753-.3875.2416-.25833.3625-.5625.3625-.9125v-3.7h-1.95003l-.55 3.5c-.06667.4.02083.75.2625 1.05.24166.3.55416.45.9375.45zm-4.45 0c.3 0 .5625-.1083.7875-.325.225-.21666.3625-.49166.4125-.825l.55-3.85h-1.95l-1 3.35c-.1.33334-.04584.69167.1625 1.075.20833.3833.55416.575 1.0375.575zm13.50003 0c.4833 0 .8333-.1917 1.05-.575.2166-.38333.2666-.74166.15-1.075l-1.05-3.35h-1.9l.55 3.85c.05.33334.1875.60834.4125.825.225.2167.4875.325.7875.325zm-13.75003 9h14.00003v-7.05c-.0834.0333-.1375.05-.1625.05h-.0875c-.45 0-.8459-.075-1.1875-.225-.3417-.15-.6792-.3917-1.0125-.725-.3.3-.6417.5333-1.025.7-.3834.1667-.7917.25-1.225.25-.45 0-.8709-.0833-1.2625-.25-.3917-.1667-.7375-.4-1.0375-.7-.2834.3-.6125.5333-.9875.7s-.7792.25-1.21253.25c-.48334 0-.92084-.0833-1.3125-.25-.39167-.1667-.7375-.4-1.0375-.7-.35.35-.69584.5958-1.0375.7375-.34167.1417-.72917.2125-1.1625.2125h-.1125c-.04167 0-.0875-.0167-.1375-.05z"/></svg>