<svg xmlns="http://www.w3.org/2000/svg" viewBox="0 0 512 512">
  <path d="m360 240c-4 0-8-2-11-5-6-6-6-16 0-22l65-65-65-65c-6-6-6-16 0-22 6-6 16-6 21 0l77 76c3 3 4 7 4 11 0 4-1 8-4 11l-77 76c-3 3-6 5-10 5z m76-77l-369 0c-8 0-15-7-15-15 0-8 7-15 15-15l369 0c8 0 15 7 15 15 0 8-7 15-15 15z m-293 293c-4 0-7-2-10-5l-77-76c-3-3-4-7-4-11 0-4 1-8 4-11l77-76c5-6 15-6 21 0 6 6 6 16 0 22l-65 65 65 65c6 6 6 16 0 22-3 3-7 5-11 5z m293-77l-369 0c-8 0-15-7-15-15 0-8 7-15 15-15l369 0c8 0 15 7 15 15 0 8-7 15-15 15z"/>
</svg>
