<svg viewBox="0 0 24 24" xmlns="http://www.w3.org/2000/svg"><path d="m11.9 13.5 2.1-2.1 2.1 2.1 1.4-1.4-2.1-2.1 2.1-2.1-1.4-1.4-2.1 2.1-2.1-2.1-1.4 1.4 2.1 2.1-2.1 2.1zm-3.9 4.5c-.55 0-1.02083-.1958-1.4125-.5875s-.5875-.8625-.5875-1.4125v-12c0-.55.19583-1.02083.5875-1.4125s.8625-.5875 1.4125-.5875h12c.55 0 1.0208.19583 1.4125.5875s.5875.8625.5875 1.4125v12c0 .55-.1958 1.0208-.5875 1.4125s-.8625.5875-1.4125.5875zm0-2h12v-12h-12zm-4 6c-.55 0-1.02083-.1958-1.4125-.5875s-.5875-.8625-.5875-1.4125v-14h2v14h14v2z"/></svg>