<svg viewBox="0 0 24 24" xmlns="http://www.w3.org/2000/svg"><path d="m12 20.5c.2833 0 .5208-.0958.7125-.2875s.2875-.4292.2875-.7125-.0958-.5208-.2875-.7125-.4292-.2875-.7125-.2875-.5208.0958-.7125.2875-.2875.4292-.2875.7125.0958.5208.2875.7125.4292.2875.7125.2875zm-7 2.5c-.55 0-1.02083-.1958-1.4125-.5875s-.5875-.8625-.5875-1.4125v-18c0-.55.19583-1.02083.5875-1.4125s.8625-.5875 1.4125-.5875h14c.55 0 1.0208.19583 1.4125.5875s.5875.8625.5875 1.4125v18c0 .55-.1958 1.0208-.5875 1.4125s-.8625.5875-1.4125.5875zm0-5v3h14v-3zm0-2h14v-10h-14zm0-12h14v-1h-14z"/></svg>