<svg viewBox="0 0 24 24" xmlns="http://www.w3.org/2000/svg"><path d="m21.4127 14.25-7.15 7.15c-.2.2-.425.35-.675.45s-.5.15-.75.15-.5-.05-.75-.15-.475-.25-.675-.45l-8.825-8.825c-.18334-.1833-.325-.3958-.425-.6375s-.15-.4958-.15-.7625v-7.175c0-.55.19583-1.02083.5875-1.4125.39166-.39167.8625-.5875 1.4125-.5875h7.175c.2667 0 .525.05417.775.1625s.4667.25417.65.4375l8.8 8.825c.2.2.3458.425.4375.675s.1375.5.1375.75-.0458.4958-.1375.7375-.2375.4625-.4375.6625zm-8.575 5.75 7.15-7.15-8.825-8.85h-7.15v7.15zm-6.325-12c.41666 0 .77083-.14583 1.0625-.4375.29166-.29167.4375-.64583.4375-1.0625s-.14584-.77083-.4375-1.0625c-.29167-.29167-.64584-.4375-1.0625-.4375-.41667 0-.77084.14583-1.0625.4375-.29167.29167-.4375.64583-.4375 1.0625s.14583.77083.4375 1.0625c.29166.29167.64583.4375 1.0625.4375z"/></svg>