<svg viewBox="0 0 24 24" xmlns="http://www.w3.org/2000/svg"><path d="m12 21c-2.21667 0-4.10417-.7667-5.6625-2.3s-2.3375-3.4-2.3375-5.6c0-1.0833.20833-2.0958.625-3.0375.41667-.94167.99167-1.77917 1.725-2.5125l5.65-5.55 5.65 5.55c.7333.73333 1.3083 1.57083 1.725 2.5125.4167.9417.625 1.9542.625 3.0375 0 2.2-.7792 4.0667-2.3375 5.6s-3.4458 2.3-5.6625 2.3zm-5.95-7h11.85c.2-1.2.0875-2.225-.3375-3.075s-.8625-1.49167-1.3125-1.925l-4.25-4.2-4.25 4.2c-.45.43333-.89167 1.075-1.325 1.925s-.55833 1.875-.375 3.075z"/></svg>