<svg viewBox="0 0 24 24" xmlns="http://www.w3.org/2000/svg"><path d="m11.8507 22 4.5294-12h2.0905l4.5294 12h-2.0905l-1.0701-3.05h-4.8281l-1.0701 3.05zm-7.86427-3-1.39367-1.4 5.02715-5.05c-.58069-.5833-1.10747-1.25-1.58032-2s-.90837-1.6-1.30656-2.55h2.0905c.33182.65.66365 1.21667.99547 1.7.33183.4833.73002.9667 1.19457 1.45.54752-.55 1.11573-1.32083 1.70473-2.3125s1.0328-1.9375 1.3315-2.8375h-11.0498v-2h6.96833v-2h1.99095v2h6.96832v2h-2.8869c-.3484 1.2-.871 2.43333-1.5678 3.7-.6969 1.2667-1.3854 2.2333-2.0657 2.9l2.3892 2.45-.7466 2.05-3.03623-3.125zm11.64707-1.8h3.5837l-1.7919-5.1z"/></svg>