<svg viewBox="0 0 24 24" xmlns="http://www.w3.org/2000/svg"><path d="m11.9 22.229 4.55-12h2.1l4.55 12h-2.1l-1.075-3.05h-4.85l-1.075 3.05zm-7.9-3-1.4-1.4 5.05-5.05c-.58333-.5833-1.1125-1.25-1.5875-2s-.9125-1.6-1.3125-2.55h2.1c.33333.65.66667 1.21667 1 1.7.33333.4833.73333.9667 1.2 1.45.55-.55 1.1208-1.3208 1.7125-2.3125.5917-.99166 1.0375-1.9375 1.3375-2.8375h-11.1v-2h7v-2h2v2h7v2h-2.9c-.35 1.2-.875 2.43334-1.575 3.7-.7 1.2667-1.3917 2.2333-2.075 2.9l2.4 2.45-.75 2.05-3.05-3.125zm11.7-1.8h3.6l-1.8-5.1z"/></svg>