<svg viewBox="0 0 24 24" xmlns="http://www.w3.org/2000/svg"><path clip-rule="evenodd" d="m3.50747 2.04675-1.41421 1.41422 6.38639 6.38638h-2.82832l-1.41421 1.41425 3.53554 3.5355-4.24264 4.2426v1.4143h1.41421l4.24264-4.2427 3.53553 3.5355 1.4142-1.4142v-2.8283l6.3857 6.3857 1.4141-1.4141zm5.78546 9.81585.60099-.601 2.82838 2.8284-.6009.601v1.6264l-4.45481-4.4548z" fill-rule="evenodd"/><path d="m16.9648 12.676 2.1216-2.1215.7071.7071 1.4142-1.41425-7.0711-7.07107-1.4142 1.41422.7071.70711-2.1215 2.12151 1.4142 1.41422 2.1215-2.12152 2.8284 2.82843-2.1215 2.12155z"/></svg>