<svg xmlns="http://www.w3.org/2000/svg" viewBox="0 0 512 512"><path d="m263 65c3 1 6 3 8 5l95 95c8 8 8 22 0 30-8 9-22 9-30 0l-59-58 0 176c0 12-9 21-21 21-12 0-21-9-21-21l0-176-59 58c-8 9-22 9-30 0-8-8-8-22 0-30l95-95c0 0 1-1 2-2 1 0 2-1 4-2 2-1 6-2 9-2m0 0c3 0 5 0 7 1z m-171 228c12 0 22 9 22 21l0 76c0 4 1 8 5 11 3 4 7 5 11 5l266 0c4 0 8-1 11-5 4-3 5-7 5-11l0-76c0-12 10-21 22-21 11 0 21 9 21 21l0 76c0 15-6 31-17 42-11 11-27 17-42 17l-266 0c-15 0-31-6-42-17-11-11-17-27-17-42l0-76c0-12 10-21 21-21z"/></svg>
