<svg viewBox="0 0 24 24" xmlns="http://www.w3.org/2000/svg"><path d="m12 22c-.55 0-1.0208-.1958-1.4125-.5875s-.5875-.8625-.5875-1.4125c0-.35.0917-.675.275-.975s.425-.5417.725-.725v-2.3h-3c-.55 0-1.02083-.1958-1.4125-.5875s-.5875-.8625-.5875-1.4125v-2.3c-.3-.15-.54167-.375-.725-.675s-.275-.6417-.275-1.025c0-.55.19583-1.02083.5875-1.4125s.8625-.5875 1.4125-.5875 1.02083.19583 1.4125.5875.5875.8625.5875 1.4125c0 .3833-.09167.7167-.275 1s-.425.5167-.725.7v2.3h3v-8h-2l3-4 3 4h-2v8h3v-2h-1v-4h4v4h-1v2c0 .55-.1958 1.0208-.5875 1.4125s-.8625.5875-1.4125.5875h-3v2.3c.3167.1667.5625.4.7375.7s.2625.6333.2625 1c0 .55-.1958 1.0208-.5875 1.4125s-.8625.5875-1.4125.5875z"/></svg>