<svg xmlns="http://www.w3.org/2000/svg" viewBox="0 0 512 512"><path d="m469 256c0 2-1 4-3 5l-59 36c-1 0-2 0-3 0-1 0-2 0-3 0-2-1-3-3-3-5l0-24-159 0c17 26 27 71 47 71l17 0 0-18c0-3 3-6 6-6l60 0c3 0 5 3 5 6l0 59c0 4-2 6-5 6l-60 0c-3 0-6-2-6-6l0-17-17 0c-51 0-54-95-83-95l-67 0c-5 20-24 35-46 35-26 0-47-21-47-47 0-26 21-47 47-47 22 0 41 15 46 35 26 0 29 6 50-40 26-59 38-55 72-55 5-14 18-23 34-23 19 0 35 16 35 35 0 20-16 36-35 36-16 0-29-10-34-24l-20 0c-19 0-29 45-46 71l206 0 0-23c0-3 1-4 3-6 2-1 4-1 6 1l59 35c2 1 3 3 3 5z"/></svg>
