<svg viewBox="0 0 24 24" xmlns="http://www.w3.org/2000/svg"><path d="m12 11.8855c-1.1 0-2.04167-.3917-2.825-1.175-.78333-.78334-1.175-1.725-1.175-2.825s.39167-2.04167 1.175-2.825c.78333-.78334 1.725-1.175 2.825-1.175s2.0417.39166 2.825 1.175c.7833.78333 1.175 1.725 1.175 2.825s-.3917 2.04166-1.175 2.825c-.7833.7833-1.725 1.175-2.825 1.175zm-8 8v-2.8c0-.5667.14583-1.0875.4375-1.5625s.67917-.8375 1.1625-1.0875c1.03333-.5167 2.08333-.9042 3.15-1.1625s2.15-.3875 3.25-.3875 2.1833.1292 3.25.3875 2.1167.6458 3.15 1.1625c.4833.25.8708.6125 1.1625 1.0875s.4375.9958.4375 1.5625v2.8zm2-2h12v-.8c0-.1833-.0458-.35-.1375-.5s-.2125-.2667-.3625-.35c-.9-.45-1.8083-.7875-2.725-1.0125s-1.8417-.3375-2.775-.3375-1.8583.1125-2.775.3375c-.91667.225-1.825.5625-2.725 1.0125-.15.0833-.27083.2-.3625.35s-.1375.3167-.1375.5zm6-8c.55 0 1.0208-.19584 1.4125-.5875.3917-.39167.5875-.8625.5875-1.4125s-.1958-1.02084-.5875-1.4125c-.3917-.39167-.8625-.5875-1.4125-.5875s-1.0208.19583-1.4125.5875c-.3917.39166-.5875.8625-.5875 1.4125s.1958 1.02083.5875 1.4125c.3917.39166.8625.5875 1.4125.5875z"/></svg>