<svg viewBox="0 0 24 24" xmlns="http://www.w3.org/2000/svg"><path d="m16 11v-2h6v2zm-7 1c-1.1 0-2.04167-.3917-2.825-1.175s-1.175-1.725-1.175-2.825.39167-2.04167 1.175-2.825 1.725-1.175 2.825-1.175 2.0417.39167 2.825 1.175 1.175 1.725 1.175 2.825-.3917 2.0417-1.175 2.825-1.725 1.175-2.825 1.175zm-8 8v-2.8c0-.5667.14583-1.0875.4375-1.5625s.67917-.8375 1.1625-1.0875c1.03333-.5167 2.08333-.9042 3.15-1.1625s2.15-.3875 3.25-.3875 2.1833.1292 3.25.3875 2.1167.6458 3.15 1.1625c.4833.25.8708.6125 1.1625 1.0875s.4375.9958.4375 1.5625v2.8zm2-2h12v-.8c0-.1833-.0458-.35-.1375-.5s-.2125-.2667-.3625-.35c-.9-.45-1.8083-.7875-2.725-1.0125s-1.84167-.3375-2.775-.3375-1.85833.1125-2.775.3375-1.825.5625-2.725 1.0125c-.15.0833-.27083.2-.3625.35s-.1375.3167-.1375.5zm6-8c.55 0 1.0208-.19583 1.4125-.5875s.5875-.8625.5875-1.4125-.1958-1.02083-.5875-1.4125-.8625-.5875-1.4125-.5875-1.02083.19583-1.4125.5875-.5875.8625-.5875 1.4125.19583 1.02083.5875 1.4125.8625.5875 1.4125.5875z"/></svg>