<svg width="20" height="20" viewBox="0 0 20 20" fill="none" xmlns="http://www.w3.org/2000/svg">
<path d="M14.3164 16.0059L13.9239 15.5051C13.7363 15.2658 13.4917 15.0392 13.193 14.8423L13.1886 14.8395L13.1886 14.8394C12.2327 14.1975 10.9374 13.858 9.60848 13.858C8.27974 13.858 6.97949 14.1974 6.01471 14.8406L6.01208 14.8423L6.01208 14.8423C5.71846 15.0358 5.47766 15.2628 5.27493 15.5129L4.87579 16.0051C4.89082 16.018 4.90416 16.0297 4.91401 16.0384L4.91556 16.0397L4.91559 16.0398L4.93422 16.0561L4.94505 16.0653C4.94574 16.0658 4.94631 16.0663 4.94676 16.0667L4.96994 16.0821L4.99457 16.1026C5.08708 16.1797 5.19051 16.2553 5.31165 16.3435C5.31165 16.3435 5.31165 16.3435 5.31165 16.3435L5.31169 16.3435C5.34524 16.368 5.38016 16.3934 5.41496 16.419C5.43735 16.435 5.45874 16.4498 5.48361 16.467L5.48469 16.4677C5.50843 16.4842 5.53563 16.503 5.56501 16.5239C5.69447 16.6122 5.83144 16.6944 5.97617 16.7702L5.9859 16.7753L5.99545 16.7807C6.02873 16.7997 6.06305 16.8203 6.09108 16.8372L6.09366 16.8387L14.3164 16.0059ZM14.3164 16.0059C14.2827 16.0324 14.2556 16.0563 14.239 16.071C14.2372 16.0726 14.2355 16.0741 14.2339 16.0754L14.3164 16.0059ZM6.62048 17.0962L6.6407 17.1063C6.70986 17.1409 6.74475 17.1577 6.77351 17.1684L6.78182 17.1716L6.79002 17.1749C6.9502 17.2404 7.10971 17.2984 7.26857 17.349L7.28308 17.3536L7.29734 17.3589C7.36703 17.3851 7.39813 17.396 7.42266 17.4021L7.43395 17.405L7.44512 17.4082C7.62259 17.46 7.80182 17.5049 7.99408 17.5529L8.00377 17.5553L8.01337 17.5581C8.04292 17.5665 8.05891 17.571 8.07366 17.5746C8.08656 17.5777 8.09356 17.5788 8.0976 17.5793L8.12343 17.5825L8.14888 17.588C8.3387 17.6287 8.53269 17.6571 8.74093 17.6791C8.80016 17.6824 8.85319 17.6919 8.88977 17.6999C9.13301 17.7205 9.36975 17.7334 9.60252 17.7334C9.84941 17.7334 10.1004 17.7189 10.3498 17.6962L10.3535 17.6959L10.3538 17.6958L10.3952 17.6854L10.4376 17.681C10.6529 17.6588 10.8528 17.6299 11.0482 17.588L11.0685 17.5837L11.0767 17.5825L11.0773 17.5823L11.0928 17.5781L6.62048 17.0962ZM6.62048 17.0962L6.59955 17.0876M6.62048 17.0962L6.59955 17.0876M6.59955 17.0876C6.44695 17.0252 6.30253 16.9564 6.16601 16.8816M6.59955 17.0876L6.16601 16.8816M12.092 17.2915L12.092 17.2915C12.2142 17.2495 12.3109 17.2161 12.3979 17.1788L12.4106 17.1733L12.4236 17.1684C12.4524 17.1577 12.4872 17.1409 12.5564 17.1063L12.5722 17.0984L12.5884 17.0915C12.7403 17.0264 12.8929 16.9537 13.0463 16.8733L13.0564 16.8681L13.0564 16.8682C13.0597 16.8665 13.0657 16.8634 13.0759 16.8573C13.0869 16.8508 13.0986 16.8435 13.1171 16.8319L13.1171 16.8319C13.1356 16.8203 13.1644 16.8022 13.1955 16.7843C13.2499 16.7517 13.3037 16.7203 13.3542 16.6908L13.3558 16.6899L13.6581 17.2082L13.3558 16.6899C13.4634 16.6271 13.5568 16.5725 13.6485 16.5129L13.6629 16.5035L13.6777 16.4951C13.678 16.4949 13.681 16.4931 13.6878 16.4884C13.6971 16.4818 13.7076 16.474 13.7272 16.4594L13.7273 16.4594C13.7422 16.4482 13.763 16.4327 13.7855 16.4166L13.7902 16.4133L13.7902 16.4133C13.9419 16.3071 14.0776 16.2067 14.2025 16.1026C14.2105 16.096 14.219 16.0886 14.2339 16.0755L12.092 17.2915ZM12.092 17.2915L12.0896 17.2923C12.04 17.3094 11.986 17.3279 11.9315 17.3474C11.8468 17.3708 11.7693 17.3999 11.718 17.4192L11.7165 17.4197C11.6177 17.4536 11.5066 17.4804 11.3617 17.5147L11.3601 17.515C11.3189 17.5248 11.2749 17.5352 11.2303 17.5462M12.092 17.2915L11.2303 17.5462M6.16601 16.8816C6.14579 16.87 6.12272 16.8561 6.09368 16.8387L6.16601 16.8816ZM11.2303 17.5462C11.1707 17.5564 11.1213 17.5701 11.098 17.5766C11.0961 17.5772 11.0944 17.5776 11.0928 17.5781L11.2303 17.5462ZM12.5835 4.84135C12.5835 4.55724 12.6285 4.28672 12.7125 4.02769C12.7526 3.90552 12.8016 3.78755 12.859 3.67442L12.8369 3.66314L13.0399 3.37202C13.1203 3.25658 13.2105 3.14768 13.3095 3.04631L13.3103 3.04556C13.7648 2.57854 14.3932 2.28652 15.0867 2.26771C14.8149 2.36753 14.5597 2.52691 14.3412 2.74637C14.0524 3.03646 13.8675 3.39137 13.7868 3.76434C13.5636 3.75003 13.3355 3.82792 13.1645 3.99815C12.8479 4.31341 12.6596 4.70689 12.5981 5.11556C12.5884 5.02539 12.5835 4.93389 12.5835 4.84135ZM16.6267 6.95414L16.2367 7.22468L15.7372 7.34795C15.556 7.39268 15.3625 7.41595 15.1581 7.41595C15.0643 7.41595 14.9719 7.41095 14.881 7.40118C15.2904 7.33928 15.6842 7.15086 15.9989 6.8376C16.2736 6.5641 16.4522 6.23115 16.5349 5.88025C16.7884 5.92717 17.0599 5.8523 17.2556 5.65583L16.9603 5.36184L17.2556 5.65583C17.4731 5.43736 17.632 5.18177 17.7317 4.90922C17.7267 5.08801 17.7018 5.25952 17.6577 5.42485L17.6547 5.43624L17.6521 5.44774C17.5953 5.70028 17.4936 5.94776 17.3619 6.16098L17.3618 6.16092L17.3562 6.17039C17.1728 6.47984 16.9231 6.74856 16.6267 6.95414ZM14.5466 5.80572C14.4587 5.79805 14.3736 5.76061 14.3077 5.69445C14.2523 5.63881 14.2171 5.57153 14.2016 5.50126C14.2454 5.55496 14.2924 5.60698 14.3424 5.65705L14.6371 5.36242L14.3425 5.65705C14.404 5.71862 14.473 5.76817 14.5466 5.80572ZM16.0002 3.99943C15.8954 3.89462 15.7689 3.82461 15.6352 3.78939C15.7929 3.72711 15.9813 3.75896 16.1124 3.88952C16.2175 3.99415 16.2588 4.14083 16.2337 4.27925C16.1657 4.18079 16.0878 4.08706 16.0002 3.99943ZM11.0712 17.5839C11.0709 17.584 11.0709 17.584 11.0712 17.5839L11.0712 17.5839ZM7.22633 9.34943C7.22633 8.03794 8.29104 6.97324 9.60252 6.97324C10.9135 6.97324 11.9779 8.03717 11.9787 9.34801C11.9716 10.6343 10.9695 11.6684 9.69475 11.7177H9.57177C8.22048 11.6752 7.22633 10.6279 7.22633 9.34943Z" fill="#24272A" stroke="#24272A" stroke-width="1.2"/>
</svg>
