<svg viewBox="0 0 24 24" xmlns="http://www.w3.org/2000/svg"><path d="m5.85 17.1c.85-.65 1.8-1.1625 2.85-1.5375s2.15-.5625 3.3-.5625 2.25.1875 3.3.5625 2 .8875 2.85 1.5375c.5833-.6833 1.0375-1.4583 1.3625-2.325s.4875-1.7917.4875-2.775c0-2.21667-.7792-4.10417-2.3375-5.6625s-3.4458-2.3375-5.6625-2.3375c-2.21667 0-4.10417.77917-5.6625 2.3375s-2.3375 3.44583-2.3375 5.6625c0 .9833.1625 1.9083.4875 2.775s.77917 1.6417 1.3625 2.325zm6.15-4.1c-.9833 0-1.8125-.3375-2.4875-1.0125s-1.0125-1.5042-1.0125-2.4875c0-.98333.3375-1.8125 1.0125-2.4875s1.5042-1.0125 2.4875-1.0125 1.8125.3375 2.4875 1.0125 1.0125 1.50417 1.0125 2.4875c0 .9833-.3375 1.8125-1.0125 2.4875s-1.5042 1.0125-2.4875 1.0125zm0 9c-1.3833 0-2.68333-.2625-3.9-.7875s-2.275-1.2375-3.175-2.1375-1.6125-1.9583-2.1375-3.175-.7875-2.5167-.7875-3.9.2625-2.68333.7875-3.9 1.2375-2.275 2.1375-3.175 1.95833-1.6125 3.175-2.1375 2.5167-.7875 3.9-.7875 2.6833.2625 3.9.7875 2.275 1.2375 3.175 2.1375 1.6125 1.95833 2.1375 3.175.7875 2.5167.7875 3.9-.2625 2.6833-.7875 3.9-1.2375 2.275-2.1375 3.175-1.9583 1.6125-3.175 2.1375-2.5167.7875-3.9.7875zm0-2c.8833 0 1.7167-.1292 2.5-.3875s1.5-.6292 2.15-1.1125c-.65-.4833-1.3667-.8542-2.15-1.1125s-1.6167-.3875-2.5-.3875-1.7167.1292-2.5.3875c-.78333.2583-1.5.6292-2.15 1.1125.65.4833 1.36667.8542 2.15 1.1125.7833.2583 1.6167.3875 2.5.3875zm0-9c.4333 0 .7917-.1417 1.075-.425s.425-.64167.425-1.075-.1417-.79167-.425-1.075-.6417-.425-1.075-.425-.7917.14167-1.075.425-.425.64167-.425 1.075.1417.7917.425 1.075.6417.425 1.075.425z"/></svg>