<svg viewBox="0 0 24 24" xmlns="http://www.w3.org/2000/svg"><path d="m11 19.475-5-2.875c-.31667-.1833-.5625-.425-.7375-.725s-.2625-.6333-.2625-1v-5.75c0-.36667.0875-.7.2625-1s.42083-.54167.7375-.725l5-2.875c.3167-.18333.65-.275 1-.275s.6833.09167 1 .275l5 2.875c.3167.18333.5625.425.7375.725s.2625.63333.2625 1v5.75c0 .3667-.0875.7-.2625 1s-.4208.5417-.7375.725l-5 2.875c-.3167.1833-.65.275-1 .275s-.6833-.0917-1-.275zm0-2.3v-4.6l-4-2.325v4.625zm2 0 4-2.3v-4.625l-4 2.325zm-11-10.175v-3c0-.55.19583-1.02083.5875-1.4125s.8625-.5875 1.4125-.5875h3v2h-3v3zm5 15h-3c-.55 0-1.02083-.1958-1.4125-.5875s-.5875-.8625-.5875-1.4125v-3h2v3h3zm10 0v-2h3v-3h2v3c0 .55-.1958 1.0208-.5875 1.4125s-.8625.5875-1.4125.5875zm3-15v-3h-3v-2h3c.55 0 1.0208.19583 1.4125.5875s.5875.8625.5875 1.4125v3zm-8 3.85 3.95-2.325-3.95-2.275-3.95 2.275z"/></svg>