<svg viewBox="0 0 24 24" xmlns="http://www.w3.org/2000/svg"><path d="m14 20.725v-2.05c1.5-.4334 2.7083-1.2667 3.625-2.5.9167-1.2334 1.375-2.6334 1.375-4.2 0-1.5667-.4583-2.96669-1.375-4.20002-.9167-1.23334-2.125-2.06667-3.625-2.5v-2.05c2.0667.46666 3.75 1.5125 5.05 3.1375s1.95 3.49583 1.95 5.61252c0 2.1166-.65 3.9875-1.95 5.6125s-2.9833 2.6708-5.05 3.1375zm-11-5.725v-6.00002h4l5-5v16.00002l-5-5zm11 1v-8.05002c.7833.36666 1.3958.91666 1.8375 1.65.4417.73332.6625 1.53332.6625 2.40002 0 .85-.2208 1.6375-.6625 2.3625s-1.0542 1.2708-1.8375 1.6375zm-4-7.15002-2.15 2.15002h-2.85v2h2.85l2.15 2.15z"/></svg>