<svg viewBox="0 0 24 24" xmlns="http://www.w3.org/2000/svg"><path d="m19.7999 22.829-3.025-3.025c-.4167.2667-.8583.4958-1.325.6875s-.95.3458-1.45.4625v-2.05c.2333-.0833.4625-.1667.6875-.25s.4375-.1833.6375-.3l-3.325-3.325v5.2l-5-5h-4v-6.00001h3.2l-4.8-4.8 1.4-1.4 18.4 18.40001zm-.2-5.8-1.45-1.45c.2833-.5167.4958-1.0583.6375-1.625s.2125-1.15.2125-1.75c0-1.5667-.4583-2.96667-1.375-4.20001-.9167-1.23333-2.125-2.06666-3.625-2.5v-2.05c2.0667.46667 3.75 1.5125 5.05 3.1375s1.95 3.49581 1.95 5.61251c0 .8833-.1208 1.7333-.3625 2.55s-.5875 1.575-1.0375 2.275zm-3.35-3.35-2.25-2.25v-3.25001c.7833.36667 1.3958.91667 1.8375 1.65.4417.73331.6625 1.53331.6625 2.40001 0 .25-.0208.4958-.0625.7375s-.1042.4792-.1875.7125zm-4.25-4.25001-2.6-2.6 2.6-2.6zm-2 5.95001v-2.35l-1.8-1.8h-3.2v2h2.85z"/></svg>