<svg viewBox="0 0 24 24" xmlns="http://www.w3.org/2000/svg"><path d="m19.7999 22.6-3.025-3.0249c-.4167.2666-.8583.4958-1.325.6875-.4667.1916-.95.3458-1.45.4624v-2.05c.2333-.0833.4625-.1666.6875-.25.225-.0833.4375-.1833.6375-.2999l-3.325-3.3251v5.2l-5-5h-4v-5.99995h3.2l-4.8-4.8 1.4-1.4 18.4 18.40005zm-.2-5.8-1.45-1.45c.2833-.5166.4958-1.0583.6375-1.625.1417-.5666.2125-1.15.2125-1.75 0-1.5666-.4583-2.96662-1.375-4.19995s-2.125-2.06667-3.625-2.5v-2.05c2.0667.46667 3.75 1.5125 5.05 3.1375s1.95 3.49583 1.95 5.61245c0 .8834-.1208 1.7334-.3625 2.5501-.2417.8166-.5875 1.5749-1.0375 2.2749zm-3.35-3.35-2.25-2.25v-3.24995c.7833.36667 1.3958.91667 1.8375 1.65.4417.73335.6625 1.53335.6625 2.39995 0 .25-.0208.4959-.0625.7375-.0417.2417-.1042.4792-.1875.7125zm-4.25-4.24995-2.6-2.6 2.6-2.6zm-2 5.95005v-2.3501l-1.8-1.8h-3.2v2h2.85z"/></svg>