<svg viewBox="0 0 24 24" xmlns="http://www.w3.org/2000/svg"><path d="m5 21c-.55 0-1.02083-.1958-1.4125-.5875s-.5875-.8625-.5875-1.4125v-14c0-.55.19583-1.02083.5875-1.4125s.8625-.5875 1.4125-.5875h14c.55 0 1.0208.19583 1.4125.5875s.5875.8625.5875 1.4125v2.5h-2v-2.5h-14v14h14v-2.5h2v2.5c0 .55-.1958 1.0208-.5875 1.4125s-.8625.5875-1.4125.5875zm8-4c-.55 0-1.0208-.1958-1.4125-.5875s-.5875-.8625-.5875-1.4125v-6c0-.55.1958-1.02083.5875-1.4125s.8625-.5875 1.4125-.5875h7c.55 0 1.0208.19583 1.4125.5875s.5875.8625.5875 1.4125v6c0 .55-.1958 1.0208-.5875 1.4125s-.8625.5875-1.4125.5875zm7-2v-6h-7v6zm-4-1.5c.4167 0 .7708-.1458 1.0625-.4375s.4375-.6458.4375-1.0625-.1458-.7708-.4375-1.0625-.6458-.4375-1.0625-.4375-.7708.1458-1.0625.4375-.4375.6458-.4375 1.0625.1458.7708.4375 1.0625.6458.4375 1.0625.4375z"/></svg>