<svg xmlns="http://www.w3.org/2000/svg" id="icon-wallet-money-filled" viewBox="0 0 512 512">
  <path d="m435 213l-42 0c-6 1-12 2-17 4-5 3-10 6-14 11-4 4-6 9-8 14-2 6-3 11-2 17 1 11 6 21 14 28 8 7 18 11 29 11l41 0c5 0 10-3 14-6 4-4 6-9 6-15l0-43c0-2 0-5-1-8-1-2-3-5-5-7-2-2-4-3-7-4-2-1-5-2-8-2z m-11 115l-29 0c-19 1-37-6-51-18-13-13-22-30-24-48-1-11 0-22 4-32 4-10 9-19 17-26 7-7 15-12 23-16 9-3 19-5 28-5l32 0c1 0 2 0 4 0 1-1 2-2 3-3 1-1 2-2 2-3 1-2 1-3 1-5-1-22-10-44-26-61-16-16-37-27-60-29-5 0-10 0-15 0l-184 0c-6 0-11 1-17 1-24 3-46 15-62 33-16 19-25 43-23 68l0 143c0 28 11 54 30 73 19 19 45 30 72 30l184 0c13 1 25-1 37-5 12-4 23-11 33-19 9-8 17-19 23-30 5-12 8-24 9-37 0-1 0-3-1-4 0-1-1-3-2-4-1-1-2-2-3-2-2-1-3-1-5-1z m-188 15c-1 21-11 40-26 54-16 14-36 21-57 20-21 1-42-6-57-20-16-14-25-33-27-54l0-92c0-2 0-4 0-6 1-10 3-20 7-29 5-9 11-17 19-24 8-8 18-14 29-17 9-3 19-5 29-5 21 0 42 7 58 21 8 6 14 15 19 24 4 9 6 20 6 30z m-146-51l0 9c0 29 27 50 63 50 35 0 62-20 62-50l0-9c-17 16-39 24-63 24-23 0-45-8-62-24z m39-97c-11 3-21 10-28 19-7 9-11 20-11 31l0 5c0 6 3 12 6 18 6 9 15 16 25 21 10 4 21 7 31 6 11 1 22-2 32-6 10-5 19-12 25-21 4-7 6-15 6-23 0-7-1-14-5-21-3-6-7-12-13-16-9-8-21-13-32-15-12-2-25-2-36 2z m-39 154c3 14 11 26 23 35 11 9 25 13 40 13 14 0 28-4 40-13 11-8 19-21 22-35-17 15-39 23-62 23-23 0-46-8-63-23z"/>
</svg>