<svg xmlns="http://www.w3.org/2000/svg" id="icon-wallet-filled" viewBox="0 0 512 512">
  <path d="m456 235l0 42c0 11-9 21-20 21l-40 0c-22 0-43-16-45-38-1-13 4-25 13-34 7-7 18-12 29-12l43 0c11 0 20 10 20 21z m-31 94l-29 0c-39 0-72-30-75-67-2-21 6-42 21-58 13-13 32-21 51-21l32 0c6 0 11-5 10-11-4-49-37-83-86-89-5-1-10-1-16-1l-184 0c-6 0-11 0-16 1-53 7-86 46-86 101l0 144c0 56 46 102 102 102l184 0c58 0 97-36 102-90 1-6-4-11-10-11z m-153-119l-123 0c-8 0-15-7-15-15 0-9 7-16 15-16l123 0c8 0 15 7 15 16 0 8-7 15-15 15z"/>
</svg>