<svg viewBox="0 0 24 24" xmlns="http://www.w3.org/2000/svg"><path d="m5 21c-.55 0-1.02083-.1958-1.4125-.5875s-.5875-.8625-.5875-1.4125v-14c0-.55.19583-1.02083.5875-1.4125s.8625-.5875 1.4125-.5875h14c.55 0 1.0208.19583 1.4125.5875s.5875.8625.5875 1.4125h-8c-1.1833 0-2.1458.37083-2.8875 1.1125-.74167.74167-1.1125 1.70417-1.1125 2.8875v6c0 1.1833.37083 2.1458 1.1125 2.8875.7417.7417 1.7042 1.1125 2.8875 1.1125h8c0 .55-.1958 1.0208-.5875 1.4125s-.8625.5875-1.4125.5875zm8-4c-.55 0-1.0208-.1958-1.4125-.5875s-.5875-.8625-.5875-1.4125v-6c0-.55.1958-1.02083.5875-1.4125s.8625-.5875 1.4125-.5875h7c.55 0 1.0208.19583 1.4125.5875s.5875.8625.5875 1.4125v6c0 .55-.1958 1.0208-.5875 1.4125s-.8625.5875-1.4125.5875zm3-3.5c.4333 0 .7917-.1417 1.075-.425s.425-.6417.425-1.075-.1417-.7917-.425-1.075-.6417-.425-1.075-.425-.7917.1417-1.075.425-.425.6417-.425 1.075.1417.7917.425 1.075.6417.425 1.075.425z"/></svg>