<svg xmlns="http://www.w3.org/2000/svg" viewBox="0 0 512 512">
  <path d="m250 55l-49 115-49 0c-9 0-17 1-24 3l20-50 1-1 1-4c1-1 1-2 2-3 24-55 50-73 98-60z m139 121l0 0c-12-4-25-6-38-6l-128 0 46-107 1-1c3 1 6 2 9 3l45 19c25 11 43 22 54 35 2 2 3 4 5 7 2 3 3 6 4 9 1 2 2 3 2 5 3 11 3 23 0 36z m-127 196l5 0c6 0 12-6 12-12 0-9-3-10-8-12l-9-3z m118-167c-9-2-19-4-29-4l-199 0c-14 0-27 3-40 8-35 15-60 51-60 92l0 40c0 5 0 10 1 15 4 65 39 99 104 104 5 0 10 1 15 1l159 0c76 0 116-36 120-108 0-4 0-8 0-12l0-40c0-45-30-83-71-96z m-102 123c9 3 22 10 22 32 0 18-15 33-33 33l-5 0 0 5c0 6-5 10-10 10-6 0-11-4-11-10l0-5-2 0c-20 0-36-16-36-37 0-6 5-11 11-11 6 0 10 5 10 11 0 9 7 16 15 16l2 0 0-35-16-5c-9-4-22-10-22-32 0-19 15-34 33-34l5 0 0-4c0-6 5-11 11-11 5 0 10 5 10 11l0 4 2 0c20 0 36 17 36 37 0 6-5 11-11 11-6 0-10-5-10-11 0-8-7-15-15-15l-2 0 0 34z m-54-28c0 8 3 10 8 12l9 3 0-27-5 0c-7 0-12 5-12 12z"/>
</svg>
