<svg viewBox="0 0 24 24" xmlns="http://www.w3.org/2000/svg" xmlns:xlink="http://www.w3.org/1999/xlink"><clipPath id="a"><path d="m0 0h24v24h-24z"/></clipPath><g clip-path="url(#a)"><path d="m12 20.8855c-.7 0-1.2917-.2417-1.775-.725-.48333-.4833-.725-1.075-.725-1.775s.24167-1.2917.725-1.775c.4833-.4833 1.075-.725 1.775-.725s1.2917.2417 1.775.725.725 1.075.725 1.775-.2417 1.2917-.725 1.775-1.075.725-1.775.725zm-5.65-5.65-2.1-2.15c.98333-.9833 2.1375-1.7625 3.4625-2.3375s2.7542-.8625 4.2875-.8625 2.9625.2917 4.2875.875 2.4792 1.375 3.4625 2.375l-2.1 2.1c-.7333-.7333-1.5833-1.3083-2.55-1.725s-2-.625-3.1-.625-2.13333.2083-3.1.625-1.81667.9917-2.55 1.725zm-4.25-4.25-2.1-2.1c1.53333-1.56667 3.325-2.79167 5.375-3.675 2.05-.88334 4.25833-1.325 6.625-1.325 2.3667 0 4.575.44166 6.625 1.325 2.05.88333 3.8417 2.10833 5.375 3.675l-2.1 2.1c-1.2833-1.28334-2.7708-2.2875-4.4625-3.0125s-3.5042-1.0875-5.4375-1.0875-3.74583.3625-5.4375 1.0875-3.17917 1.72916-4.4625 3.0125z"/></g></svg>