<svg viewBox="0 0 24 24" xmlns="http://www.w3.org/2000/svg" xmlns:xlink="http://www.w3.org/1999/xlink"><clipPath id="a"><path d="m0 .229004h24v24h-24z"/></clipPath><g clip-path="url(#a)"><path d="m19.75 22.829-9.4-9.45c-.78333.1833-1.5125.4583-2.1875.825s-1.27917.825-1.8125 1.375l-2.1-2.15c.53333-.5333 1.10833-1 1.725-1.4s1.275-.75 1.975-1.05l-2.25-2.25001c-.68333.35-1.32083.7375-1.9125 1.1625-.59167.42501-1.15417.90421-1.6875 1.43751l-2.1-2.15001c.533333-.53333 1.0875-1.0125 1.6625-1.4375s1.1875-.82916 1.8375-1.2125l-2.1-2.1 1.4-1.4 18.4 18.40001zm-7.75-1.6c-.7 0-1.2917-.2458-1.775-.7375-.48333-.4917-.725-1.0792-.725-1.7625 0-.7.24167-1.2917.725-1.775.4833-.4833 1.075-.725 1.775-.725s1.2917.2417 1.775.725.725 1.075.725 1.775c0 .6833-.2417 1.2708-.725 1.7625s-1.075.7375-1.775.7375zm5.9-5.95-.725-.725-.725-.725-3.6-3.6c1.35.1333 2.6125.475 3.7875 1.025s2.2125 1.275 3.1125 2.175zm4-3.95c-1.2833-1.2833-2.7708-2.28751-4.4625-3.01251s-3.5042-1.0875-5.4375-1.0875c-.35 0-.6875.0125-1.0125.0375s-.6542.0625-.9875.1125l-2.55-2.55c.73333-.2 1.47917-.35 2.2375-.45.7583-.1 1.5292-.15 2.3125-.15 2.3667 0 4.575.44167 6.625 1.325 2.05.88334 3.8417 2.09167 5.375 3.625z"/></g></svg>