<svg viewBox="0 0 24 24" xmlns="http://www.w3.org/2000/svg" xmlns:xlink="http://www.w3.org/1999/xlink"><clipPath id="a"><path d="m0 0h24v24h-24z"/></clipPath><g clip-path="url(#a)"><path d="m19.75 22.6-9.4-9.4499c-.78333.1833-1.5125.4583-2.1875.8249-.675.3667-1.27917.825-1.8125 1.375l-2.1-2.15c.53333-.5333 1.10833-1 1.725-1.4s1.275-.75 1.975-1.05l-2.25-2.24995c-.68333.35-1.32083.7375-1.9125 1.1625-.59167.42495-1.15417.90415-1.6875 1.43745l-2.1-2.14995c.533333-.53333 1.0875-1.0125 1.6625-1.4375s1.1875-.82917 1.8375-1.2125l-2.1-2.1 1.4-1.4 18.4 18.40005zm-7.75-1.6c-.7 0-1.2917-.2458-1.775-.7374-.48333-.4917-.725-1.0792-.725-1.7625 0-.7001.24167-1.2917.725-1.7751.4833-.4833 1.075-.725 1.775-.725s1.2917.2417 1.775.725c.4833.4834.725 1.075.725 1.7751 0 .6833-.2417 1.2708-.725 1.7625-.4833.4916-1.075.7374-1.775.7374zm5.9-5.95-.725-.725-.725-.725-3.6-3.6c1.35.1334 2.6125.475 3.7875 1.025s2.2125 1.275 3.1125 2.175zm4-3.95c-1.2833-1.28328-2.7708-2.28745-4.4625-3.01245s-3.5042-1.0875-5.4375-1.0875c-.35 0-.6875.0125-1.0125.0375s-.6542.0625-.9875.1125l-2.55-2.55c.73333-.2 1.47917-.35 2.2375-.45.7583-.1 1.5292-.15 2.3125-.15 2.3667 0 4.575.44167 6.625 1.325s3.8417 2.09167 5.375 3.625z"/></g></svg>