<svg width="14" height="16" viewBox="0 0 14 16" fill="none" xmlns="http://www.w3.org/2000/svg">
<path d="M10.7059 12H3.29412V6.8C3.29412 4.8 4.94118 3.2 7 3.2C9.05882 3.2 10.7059 4.8 10.7059 6.8V12ZM12.3529 11.2V6.8C12.3529 4.344 10.5906 2.288 8.23529 1.744V1.2C8.23529 0.88174 8.10515 0.576516 7.87349 0.351472C7.64182 0.126428 7.32762 0 7 0C6.67238 0 6.35818 0.126428 6.12651 0.351472C5.89485 0.576516 5.76471 0.88174 5.76471 1.2V1.744C3.40118 2.288 1.64706 4.344 1.64706 6.8V11.2L0 12.8V13.6H14V12.8L12.3529 11.2ZM7 16C7.43683 16 7.85576 15.8314 8.16465 15.5314C8.47353 15.2313 8.64706 14.8243 8.64706 14.4H5.35294C5.35294 14.8243 5.52647 15.2313 5.83535 15.5314C6.14424 15.8314 6.56317 16 7 16Z" fill="#FFD33D"/>
</svg>
