<svg width="288" height="288" viewBox="0 0 288 288" fill="none" xmlns="http://www.w3.org/2000/svg">
<path fill-rule="evenodd" clip-rule="evenodd" d="M144 216C193.706 216 216 193.706 216 144C216 94.2944 193.706 72 144 72C94.2944 72 72 94.2944 72 144C72 193.706 94.2944 216 144 216ZM130.475 102.531H150.505V135.538H138.086V113.156H126.961L130.475 102.531ZM144 185.469C156.616 185.469 166.844 175.242 166.844 162.626C166.844 150.01 156.616 139.783 144 139.783C131.384 139.783 121.157 150.01 121.157 162.626C121.157 175.242 131.384 185.469 144 185.469ZM144 175.099C150.889 175.099 156.473 169.515 156.473 162.626C156.473 155.738 150.889 150.153 144 150.153C137.112 150.153 131.528 155.738 131.528 162.626C131.528 169.515 137.112 175.099 144 175.099Z" fill="white" style="fill:white;fill-opacity:1;"/>
</svg>
