<svg width="40" height="40" viewBox="0 0 40 40" fill="none" xmlns="http://www.w3.org/2000/svg">
  <rect width="40" height="40" rx="12" fill="white"/>
  <g clip-path="url(#clip0_527_4900)">
    <path d="M26.324 13.0244C26.324 9.72227 23.4588 6.98291 19.9709 6.98291C16.4831 6.98291 13.6178 9.72365 13.6178 13.0244V14.9554H11.0037V28.8448L19.9709 33.0151L28.9402 28.8421V15.0146H26.3261L26.324 13.0244ZM16.8566 13.0244C16.8566 11.4676 18.227 10.2217 19.9709 10.2217C21.7148 10.2217 23.0852 11.4676 23.0852 13.0244V14.9554H16.8566V13.0244ZM25.3272 26.6022L19.9709 29.0939L14.6146 26.6022V18.2561H25.3272V26.6022Z" fill="black"/>
  </g>
  <defs>
    <clipPath id="clip0_527_4900">
      <rect width="17.9366" height="26.0322" fill="white" transform="translate(11.0037 6.98389)"/>
    </clipPath>
  </defs>
</svg>
