<svg width="444" height="138" viewBox="0 0 444 138" fill="none" xmlns="http://www.w3.org/2000/svg">
<path d="M38.7585 85.286C24.3036 73.1569 9.72668 60.5574 2.31547 42.3184C0.866282 38.7478 -0.546508 33.564 0.410729 29.715C2.65831 20.71 14.2046 19.5901 22.4169 21.6338C27.0426 22.7876 31.6482 26.5948 30.667 31.7296C29.8222 36.1537 25.6529 37.548 23.5868 41.507C21.1257 46.2253 23.4582 51.6853 26.368 55.8818C48.0537 87.1812 84.316 101.336 119.22 112.085C126.349 114.284 135.373 119.246 134.361 127.35C133.691 132.692 127.946 136.827 123.024 137.285C118.102 137.744 113.475 134.684 108.907 132.846C96.8532 127.994 84.7537 125.373 71.7538 125.663C60.5415 125.915 50.5994 125.719 48.9818 112.5C47.3576 99.2238 49.9728 94.6928 38.759 85.2798L38.7585 85.286Z" fill="#76C4FD" fill-opacity="0.3"/>
<path d="M392.078 136.625C392.401 136.518 392.93 136.39 393.239 136.235C395.108 135.311 397.148 133.053 397.701 131.059C398.255 129.065 397.703 127.181 396.607 125.282C394.356 121.36 389.618 119.63 385.756 121.536C381.889 123.442 380.136 128.567 382.388 132.494C384.462 136.1 388.379 137.867 392.074 136.63L392.078 136.625ZM394.286 126.057C395.041 127.377 395.31 129.374 394.928 130.758C394.547 132.142 393.638 133.444 392.341 134.082C389.659 135.401 386.281 134.433 384.719 131.713C383.965 130.392 383.696 128.396 384.077 127.012C384.459 125.628 385.367 124.326 386.665 123.688C389.347 122.369 392.729 123.332 394.286 126.057Z" fill="#76C4FD" fill-opacity="0.3"/>
<path d="M419.109 107.082C419.046 106.198 418.205 105.334 417.152 105.461C412.947 105.973 410.552 107.573 408.869 109.168C407.334 110.625 406.354 112.427 403.632 112.758C400.914 113.089 399.33 112.35 397.611 111.292C395.729 110.131 393.798 108.541 389.593 109.053C385.389 109.565 382.994 111.165 381.311 112.761C379.776 114.217 378.834 115.171 376.112 115.502C373.395 115.833 371.811 115.094 370.091 114.036C368.209 112.876 366.274 111.285 362.074 111.798C357.874 112.31 355.436 114.758 353.752 116.353C352.218 117.809 351.276 118.763 348.558 119.095C347.505 119.222 346.386 119.987 346.449 120.871C346.512 121.755 347.354 122.619 348.406 122.492C352.611 121.98 355.006 120.38 356.689 118.785C358.224 117.328 359.2 115.525 361.926 115.195C364.644 114.864 366.228 115.603 367.947 116.661C369.829 117.821 371.765 119.412 375.965 118.899C380.169 118.387 382.564 116.788 384.247 115.192C385.782 113.736 386.724 112.782 389.446 112.451C392.163 112.12 393.747 112.859 395.467 113.917C397.349 115.077 399.28 116.667 403.484 116.155C407.689 115.643 410.122 113.195 411.806 111.6C413.34 110.143 414.282 109.189 417 108.858C418.053 108.731 419.172 107.966 419.109 107.082Z" fill="#76C4FD" fill-opacity="0.3"/>
<path d="M385.902 20.0886C375.006 11.3651 386.703 8.32716 393.914 7.89865C490.535 8.16392 420.328 77.5128 404.813 94.9542C389.298 112.396 376.584 94.6794 394.813 62.8099C413.042 30.9404 399.522 30.993 385.902 20.0886Z" fill="#76C4FD" fill-opacity="0.3"/>
<path d="M111.017 42.8522C110.969 43.3733 111.108 43.3058 110.777 43.6811C110.217 44.3062 108.55 43.6826 107.639 43.4664L76.887 36.8208C75.8585 36.5735 74.6399 35.7241 74.2217 34.7049C73.8035 33.6856 73.813 32.6264 74.4584 31.931L96.3383 9.30094C96.9726 8.61122 98.242 8.27895 99.2403 8.64305C100.244 9.00118 101.593 9.73282 101.906 10.759L110.657 41.4246C110.766 41.7981 111.043 42.5045 111.012 42.8582L111.017 42.8522ZM82.9337 32.7316L103.82 38.2107L97.1337 16.5981L82.9337 32.7316Z" fill="#76C2FB" fill-opacity="0.3"/>
<path d="M91.0354 82.8282C91.4902 82.6571 92.2325 82.4475 92.67 82.205C95.3197 80.7616 98.2742 77.3345 99.1471 74.3549C100.02 71.3753 99.3489 68.602 97.9226 65.8266C94.9919 60.0949 88.4875 57.7111 83.0153 60.6872C77.5355 63.6643 74.832 71.3339 77.7636 77.0729C80.4631 82.3424 85.8236 84.8128 91.0289 82.8365L91.0354 82.8282ZM94.6525 67.0658C95.6345 68.9954 95.9057 71.9472 95.3039 74.0148C94.702 76.0824 93.3702 78.0488 91.5313 79.0453C87.7316 81.106 83.0813 79.7992 81.0479 75.8244C80.0659 73.8949 79.7947 70.943 80.3966 68.8754C80.9984 66.8078 82.3302 64.8414 84.1691 63.8449C87.9688 61.7842 92.6257 63.0827 94.6525 67.0658Z" fill="#76C4FD" fill-opacity="0.3"/>
</svg>
