
<svg xmlns="http://www.w3.org/2000/svg" id="icon-user-add-filled" viewBox="0 0 512 512">
  <path d="m333 154c0 56-45 102-102 102-57 0-102-46-102-102 0-57 45-103 102-103 57 0 102 46 102 103z m-286 297c0-85 83-154 186-154 27 0 54 5 77 14-11 14-17 33-17 52 0 49 38 88 87 88 14 0 27-4 39-10 0 3 0 6 0 10 0 5-4 10-10 10l-352 0c-6 0-10-5-10-10z m332-6c46 0 82-36 82-82 0-45-36-82-82-82-45 0-81 37-81 82 0 46 36 82 81 82z m11-112c0-6-5-10-11-10-5 0-10 4-10 10l0 19-20 0c-6 0-10 5-10 11 0 5 4 10 10 10l20 0 0 21c0 6 5 10 10 10 6 0 11-4 11-10l0-21 20 0c6 0 10-5 10-10 0-6-4-11-10-11l-20 0z"/>
</svg>