<svg xmlns="http://www.w3.org/2000/svg" id="icon-link-2-outline" viewBox="0 0 512 512">
  <path d="m190 451c-34 0-68-13-94-39-52-52-52-137 0-189 6-5 15-5 21 0 6 6 6 16 0 22-40 40-40 105 0 145 40 40 105 40 145 0 19-19 30-45 30-73 0-27-11-53-30-72-6-6-6-16 0-22 6-6 16-6 22 0 25 25 39 59 39 94 0 36-14 69-39 95-26 26-60 39-94 39z m206-151c-4 0-7-1-11-4-5-6-5-16 0-22 42-42 42-110 0-152-42-42-110-42-152 0-20 20-31 47-31 76 0 29 11 56 31 76 6 6 6 16 0 22-5 6-15 6-21 0-26-26-41-61-41-98 0-37 15-72 41-98 54-54 141-54 195 0 54 54 54 142 0 196-3 3-7 4-11 4z"/>
</svg>