<svg xmlns="http://www.w3.org/2000/svg" id="icon-security-search-filled" viewBox="0 0 512 512">
  <path d="m404 152l0 52c0 14-15 24-28 19-18-7-37-9-57-7-48 5-98 52-107 101-6 40 7 78 31 104 12 13 4 32-13 34-14 2-28 2-35-4l-113-84c-13-10-24-32-24-49l0-166c0-23 17-48 39-56l113-43c11-4 30-4 42 0l113 43c21 8 39 33 39 56z m-71 94c-50 0-92 41-92 92 0 51 42 92 92 92 51 0 93-41 93-92 0-51-42-92-93-92z m103 215c-6 0-11-2-15-6-1-1-2-2-2-3-1-1-2-3-2-4-1-1-1-2-1-4 0-1-1-2-1-4 0-2 1-5 2-7 1-3 2-5 4-7 5-5 12-7 19-6 1 0 2 1 4 1 1 1 2 2 3 2 1 1 2 2 3 3 2 2 4 4 5 7 1 2 1 5 1 7 0 6-2 11-6 15-1 1-2 2-3 2-1 1-2 2-3 2-2 1-3 1-4 1-2 1-3 1-4 1z"/>
</svg>