<svg xmlns="http://www.w3.org/2000/svg" id="icon-user-search-filled" viewBox="0 0 512 512">
  <path d="m333 154c0 56-45 102-102 102-57 0-102-46-102-102 0-57 45-103 102-103 57 0 102 46 102 103z m-286 297c0-85 83-154 186-154 29 0 57 6 81 15-10 15-16 32-16 52 0 48 39 87 87 87 12 0 23-3 34-7 0 2 0 4 0 7 0 5-4 10-10 10l-352 0c-6 0-10-5-10-10z m420-87c0 45-37 81-82 81-46 0-82-36-82-81 0-46 36-82 82-82 45 0 82 36 82 82z m-58 24c3-2 7-2 10 0l11 12c3 2 3 7 0 9-2 3-6 3-9 0l-12-12c-2-2-2-6 0-9z m10-28c0 21-17 37-38 37-21 0-37-16-37-37 0-21 16-37 37-37 21 0 38 16 38 37z"/>
</svg>