<svg xmlns="http://www.w3.org/2000/svg" id="icon-eye-slash-filled" viewBox="0 0 512 512">
  <path d="m441 198c-6-9-12-18-18-26-8-10-22-11-31-2l-61 61c4 14 5 30 1 46-7 29-31 52-60 59-16 4-31 3-45-1 0 0-29 29-50 50-10 10-7 28 7 34 21 8 44 13 68 13 36 0 71-11 104-31 33-20 62-51 86-89 20-31 19-83-1-114z m-148 17l-83 82c-10-10-17-25-17-41 0-32 26-59 59-59 15 0 30 7 41 18z m87-87l-70 69c-15-15-36-24-58-24-46 0-83 37-83 83 0 23 9 44 24 59l-69 69 0 0c-23-18-44-42-62-70-20-32-20-84 0-116 24-38 53-67 85-87 33-20 68-31 105-31 45 0 89 17 128 48z m-70 128c0 32-26 59-58 59-2 0-3 0-4-1l62-61c0 1 0 2 0 3z m142-200c-7-6-17-6-23 0l-378 378c-6 6-6 16 0 22 3 3 7 5 11 5 5 0 8-2 12-5l378-378c6-6 6-16 0-22z"/>
</svg>