<svg xmlns="http://www.w3.org/2000/svg" id="icon-coin-filled" viewBox="0 0 512 512">
  <path d="m455 353c-7 55-52 99-106 106-33 4-64-5-88-22-14-10-10-32 6-37 62-18 110-67 129-129 5-16 26-19 36-6 18 25 27 55 23 88z m-245-302c-90 0-163 74-163 164 0 90 73 163 163 163 91 0 164-73 164-163 0-90-73-164-164-164z m-19 141l49 17c18 6 27 19 27 38 0 22-18 41-39 41l-2 0 0 1c0 8-7 15-15 15-9 0-16-7-16-15l0-2c-23-1-41-20-41-43 0-9 7-16 16-16 8 0 15 7 15 16 0 7 5 13 12 13l31 0c4 0 8-4 8-10 0-7-1-7-6-9l-49-17c-18-6-27-19-27-38 0-22 18-41 39-41l2 0 0 0c0-9 7-16 16-16 8 0 15 7 15 16l0 1c23 1 41 20 41 44 0 8-7 15-15 15-9 0-16-7-16-15 0-8-5-14-12-14l-30 0c-5 0-9 5-9 10 0 7 1 7 6 9z"/>
</svg>