<svg width="78" height="75" viewBox="0 0 78 75" fill="none" xmlns="http://www.w3.org/2000/svg">
<path d="M72.8915 72.4318L56.0904 67.4421L43.42 74.9964L34.58 74.9927L21.9023 67.4421L5.10845 72.4318L0 55.2319L5.10845 36.1425L0 20.003L5.10845 0L31.3501 15.6369H46.6499L72.8915 0L78 20.003L72.8915 36.1425L78 55.2319L72.8915 72.4318Z" fill="#ABCCFF"/>
<path d="M5.1123 0L31.354 15.6479L30.3103 26.3869L5.1123 0Z" fill="#ABCCFF"/>
<path d="M21.9062 55.2397L33.4524 64.0121L21.9062 67.4426V55.2397Z" fill="#ABCCFF"/>
<path d="M32.5294 40.7363L30.3102 26.3945L16.1054 36.1465L16.0981 36.1429V36.1502L16.142 46.1884L21.9023 40.7363H21.906H32.5294Z" fill="#ABCCFF"/>
<path d="M72.8916 0L46.65 15.6479L47.69 26.3869L72.8916 0Z" fill="#ABCCFF"/>
<path d="M56.098 55.2397L44.5518 64.0121L56.098 67.4426V55.2397Z" fill="#ABCCFF"/>
<path d="M61.902 36.1502H61.9056H61.902V36.1429L61.8983 36.1465L47.6935 26.3945L45.4744 40.7363H56.0977L61.8617 46.1884L61.902 36.1502Z" fill="#ABCCFF"/>
<path d="M21.9023 67.4426L5.10845 72.4323L0 55.2397H21.9023V67.4426Z" fill="#89B0FF"/>
<path d="M32.5258 40.7319L35.7337 61.465L31.2881 49.9373L16.1348 46.1876L21.8988 40.7319H32.5221H32.5258Z" fill="#89B0FF"/>
<path d="M56.0976 67.4426L72.8914 72.4323L77.9999 55.2397H56.0976V67.4426Z" fill="#89B0FF"/>
<path d="M45.4743 40.7319L42.2664 61.465L46.7121 49.9373L61.8653 46.1876L56.0977 40.7319H45.4743Z" fill="#89B0FF"/>
<path d="M0 55.232L5.10845 36.1426H16.0944L16.1346 46.1844L31.2879 49.9341L35.7335 61.4618L33.4484 64.0007L21.9023 55.2283H0V55.232Z" fill="#CCE7FF"/>
<path d="M77.9999 55.232L72.8915 36.1426H61.9056L61.8653 46.1844L46.7121 49.9341L42.2664 61.4618L44.5515 64.0007L56.0977 55.2283H77.9999V55.232Z" fill="#CCE7FF"/>
<path d="M46.6498 15.6377H38.9999H31.3501L30.3101 26.3766L35.7334 61.4515H42.2664L47.6934 26.3766L46.6498 15.6377Z" fill="#CCE7FF"/>
<path d="M5.10845 0L0 20.003L5.10845 36.1425H16.0944L30.3065 26.3869L5.10845 0Z" fill="#190066"/>
<path d="M29.3508 44.8958H24.3741L21.6643 47.5447L31.2916 49.9258L29.3508 44.8921V44.8958Z" fill="#190066"/>
<path d="M72.8917 0L78.0001 20.003L72.8917 36.1425H61.9057L47.6936 26.3869L72.8917 0Z" fill="#190066"/>
<path d="M48.6565 44.8958H53.6404L56.3503 47.5484L46.7119 49.9332L48.6565 44.8921V44.8958Z" fill="#190066"/>
<path d="M43.4164 68.1535L44.5516 64.0076L42.2665 61.4688H35.7299L33.4448 64.0076L34.58 68.1535" fill="#190066"/>
<path d="M43.4166 68.1538V75H34.5803V68.1538H43.4166Z" fill="#ABCCFF"/>
<path d="M21.9062 67.4348L34.5876 74.9965V68.1503L33.4524 64.0044L21.9062 67.4348Z" fill="#CCE7FF"/>
<path d="M56.0978 67.4348L43.4164 74.9965V68.1503L44.5516 64.0044L56.0978 67.4348Z" fill="#CCE7FF"/>
</svg>
