<?xml version="1.0" encoding="UTF-8" standalone="no"?>
<!DOCTYPE svg PUBLIC "-//W3C//DTD SVG 1.1//EN" "http://www.w3.org/Graphics/SVG/1.1/DTD/svg11.dtd">
<svg width="100%" height="100%" viewBox="0 0 659 71" version="1.1" xmlns="http://www.w3.org/2000/svg" xmlns:xlink="http://www.w3.org/1999/xlink" xml:space="preserve" xmlns:serif="http://www.serif.com/" style="fill-rule:evenodd;clip-rule:evenodd;stroke-linejoin:round;stroke-miterlimit:2;">
    <g transform="matrix(0.998558,0,0,1,0.000632449,0)">
        <rect x="411.318" y="4.847" width="2.481" height="61.306" style="fill:rgb(22,22,22);"/>
        <path d="M437.965,19.099L441.766,19.099L441.766,48.117L437.965,48.117L437.965,19.099ZM448.849,27.682L452.364,27.682L452.364,30.829C453.073,29.603 453.999,28.704 455.143,28.132C456.288,27.559 457.527,27.273 458.863,27.273C460.007,27.273 461.056,27.464 462.01,27.845C462.963,28.227 463.767,28.785 464.421,29.521C465.102,30.23 465.634,31.101 466.015,32.137C466.396,33.145 466.587,34.276 466.587,35.529L466.587,48.117L463.113,48.117L463.113,36.06C463.113,34.344 462.664,32.995 461.764,32.014C460.893,31.006 459.734,30.502 458.29,30.502C457.473,30.502 456.696,30.666 455.961,30.992C455.252,31.319 454.626,31.81 454.081,32.464C453.563,33.091 453.141,33.867 452.814,34.793C452.514,35.72 452.364,36.783 452.364,37.981L452.364,48.117L448.849,48.117L448.849,27.682ZM479.088,48.526C477.263,48.526 475.628,48.145 474.184,47.382C472.74,46.592 471.704,45.393 471.078,43.785L473.938,42.191C474.32,43.226 474.988,44.03 475.941,44.602C476.922,45.147 477.985,45.42 479.129,45.42C480.11,45.42 480.941,45.188 481.622,44.725C482.331,44.235 482.685,43.553 482.685,42.682C482.685,41.946 482.426,41.333 481.908,40.842C481.391,40.352 480.464,39.902 479.129,39.494L477.086,38.84C475.396,38.349 474.116,37.6 473.244,36.592C472.399,35.556 471.977,34.317 471.977,32.873C471.977,32.001 472.154,31.224 472.508,30.543C472.889,29.834 473.394,29.249 474.02,28.785C474.674,28.295 475.423,27.927 476.268,27.682C477.113,27.409 478.026,27.273 479.006,27.273C480.532,27.273 481.867,27.587 483.012,28.213C484.156,28.813 485.069,29.685 485.75,30.829L483.134,32.627C482.671,31.973 482.085,31.428 481.377,30.992C480.696,30.529 479.865,30.298 478.884,30.298C478.012,30.298 477.222,30.516 476.513,30.952C475.832,31.388 475.492,31.987 475.492,32.75C475.492,33.377 475.682,33.935 476.064,34.426C476.472,34.916 477.249,35.338 478.393,35.693L480.641,36.387C482.412,36.932 483.775,37.682 484.728,38.635C485.709,39.589 486.2,40.842 486.2,42.395C486.2,43.376 486.023,44.248 485.668,45.011C485.314,45.774 484.81,46.414 484.156,46.932C483.53,47.45 482.78,47.845 481.908,48.117C481.036,48.39 480.096,48.526 479.088,48.526ZM499.046,48.322C498.147,48.322 497.316,48.199 496.553,47.954C495.79,47.681 495.122,47.3 494.55,46.809C494.005,46.292 493.569,45.638 493.242,44.848C492.943,44.058 492.793,43.131 492.793,42.068L492.793,30.911L488.46,30.911L488.46,27.682L492.793,27.682L492.793,22.001L496.308,22.001L496.308,27.682L502.193,27.682L502.193,30.911L496.308,30.911L496.308,41.619C496.308,42.927 496.594,43.84 497.166,44.357C497.738,44.848 498.583,45.093 499.7,45.093C500.136,45.093 500.572,45.066 501.008,45.011C501.471,44.929 501.866,44.82 502.193,44.684L502.193,47.831C501.757,47.967 501.28,48.076 500.763,48.158C500.245,48.267 499.673,48.322 499.046,48.322ZM508.481,22.205C507.773,22.205 507.174,21.974 506.683,21.51C506.193,21.02 505.947,20.421 505.947,19.712C505.947,19.031 506.193,18.445 506.683,17.955C507.174,17.464 507.773,17.219 508.481,17.219C509.19,17.219 509.776,17.464 510.239,17.955C510.702,18.445 510.934,19.031 510.934,19.712C510.934,20.421 510.702,21.02 510.239,21.51C509.776,21.974 509.19,22.205 508.481,22.205ZM506.683,27.682L510.198,27.682L510.198,48.117L506.683,48.117L506.683,27.682ZM524.79,48.322C523.891,48.322 523.06,48.199 522.297,47.954C521.534,47.681 520.866,47.3 520.294,46.809C519.749,46.292 519.313,45.638 518.986,44.848C518.686,44.058 518.537,43.131 518.537,42.068L518.537,30.911L514.204,30.911L514.204,27.682L518.537,27.682L518.537,22.001L522.051,22.001L522.051,27.682L527.937,27.682L527.937,30.911L522.051,30.911L522.051,41.619C522.051,42.927 522.338,43.84 522.91,44.357C523.482,44.848 524.327,45.093 525.444,45.093C525.88,45.093 526.316,45.066 526.752,45.011C527.215,44.929 527.61,44.82 527.937,44.684L527.937,47.831C527.501,47.967 527.024,48.076 526.506,48.158C525.989,48.267 525.416,48.322 524.79,48.322ZM539.661,48.526C538.544,48.526 537.522,48.335 536.596,47.954C535.669,47.545 534.879,46.987 534.225,46.278C533.571,45.57 533.054,44.711 532.672,43.703C532.318,42.668 532.141,41.51 532.141,40.229L532.141,27.682L535.656,27.682L535.656,39.698C535.656,41.414 536.064,42.777 536.882,43.785C537.726,44.793 538.857,45.297 540.274,45.297C541.064,45.297 541.8,45.134 542.481,44.807C543.19,44.453 543.789,43.962 544.279,43.335C544.797,42.682 545.206,41.891 545.506,40.965C545.805,40.039 545.955,38.99 545.955,37.818L545.955,27.682L549.47,27.682L549.47,48.117L545.955,48.117L545.955,44.97C545.274,46.169 544.375,47.068 543.258,47.668C542.168,48.24 540.969,48.526 539.661,48.526ZM564.024,48.322C563.125,48.322 562.294,48.199 561.531,47.954C560.768,47.681 560.101,47.3 559.528,46.809C558.983,46.292 558.548,45.638 558.221,44.848C557.921,44.058 557.771,43.131 557.771,42.068L557.771,30.911L553.439,30.911L553.439,27.682L557.771,27.682L557.771,22.001L561.286,22.001L561.286,27.682L567.171,27.682L567.171,30.911L561.286,30.911L561.286,41.619C561.286,42.927 561.572,43.84 562.144,44.357C562.716,44.848 563.561,45.093 564.678,45.093C565.114,45.093 565.55,45.066 565.986,45.011C566.449,44.929 566.844,44.82 567.171,44.684L567.171,47.831C566.735,47.967 566.258,48.076 565.741,48.158C565.223,48.267 564.651,48.322 564.024,48.322ZM573.46,22.205C572.751,22.205 572.152,21.974 571.661,21.51C571.171,21.02 570.926,20.421 570.926,19.712C570.926,19.031 571.171,18.445 571.661,17.955C572.152,17.464 572.751,17.219 573.46,17.219C574.168,17.219 574.754,17.464 575.217,17.955C575.68,18.445 575.912,19.031 575.912,19.712C575.912,20.421 575.68,21.02 575.217,21.51C574.754,21.974 574.168,22.205 573.46,22.205ZM571.661,27.682L575.176,27.682L575.176,48.117L571.661,48.117L571.661,27.682ZM590.912,48.526C589.359,48.526 587.929,48.254 586.621,47.709C585.313,47.136 584.182,46.374 583.229,45.42C582.275,44.466 581.526,43.349 580.981,42.068C580.463,40.761 580.204,39.371 580.204,37.9C580.204,36.428 580.463,35.052 580.981,33.772C581.526,32.464 582.275,31.333 583.229,30.379C584.182,29.426 585.313,28.676 586.621,28.132C587.929,27.559 589.359,27.273 590.912,27.273C592.438,27.273 593.855,27.559 595.163,28.132C596.471,28.676 597.602,29.426 598.555,30.379C599.509,31.333 600.245,32.464 600.762,33.772C601.307,35.052 601.58,36.428 601.58,37.9C601.58,39.371 601.307,40.761 600.762,42.068C600.245,43.349 599.509,44.466 598.555,45.42C597.602,46.374 596.471,47.136 595.163,47.709C593.855,48.254 592.438,48.526 590.912,48.526ZM590.912,45.256C591.975,45.256 592.942,45.066 593.814,44.684C594.686,44.303 595.422,43.785 596.021,43.131C596.648,42.45 597.125,41.673 597.452,40.801C597.806,39.902 597.983,38.935 597.983,37.9C597.983,36.892 597.806,35.938 597.452,35.039C597.125,34.14 596.648,33.363 596.021,32.709C595.422,32.028 594.686,31.497 593.814,31.115C592.942,30.734 591.975,30.543 590.912,30.543C589.85,30.543 588.883,30.734 588.011,31.115C587.139,31.497 586.389,32.028 585.763,32.709C585.136,33.363 584.646,34.14 584.291,35.039C583.964,35.938 583.801,36.892 583.801,37.9C583.801,38.935 583.964,39.902 584.291,40.801C584.646,41.673 585.136,42.45 585.763,43.131C586.389,43.785 587.139,44.303 588.011,44.684C588.883,45.066 589.85,45.256 590.912,45.256ZM606.625,27.682L610.14,27.682L610.14,30.829C610.848,29.603 611.775,28.704 612.919,28.132C614.064,27.559 615.303,27.273 616.638,27.273C617.783,27.273 618.832,27.464 619.785,27.845C620.739,28.227 621.543,28.785 622.197,29.521C622.878,30.23 623.409,31.101 623.791,32.137C624.172,33.145 624.363,34.276 624.363,35.529L624.363,48.117L620.889,48.117L620.889,36.06C620.889,34.344 620.439,32.995 619.54,32.014C618.668,31.006 617.51,30.502 616.066,30.502C615.249,30.502 614.472,30.666 613.737,30.992C613.028,31.319 612.401,31.81 611.857,32.464C611.339,33.091 610.916,33.867 610.59,34.793C610.29,35.72 610.14,36.783 610.14,37.981L610.14,48.117L606.625,48.117L606.625,27.682ZM639.112,48.526C637.668,48.526 636.333,48.254 635.107,47.709C633.908,47.136 632.859,46.374 631.96,45.42C631.06,44.439 630.352,43.308 629.834,42.028C629.344,40.747 629.099,39.371 629.099,37.9C629.099,36.428 629.344,35.052 629.834,33.772C630.352,32.491 631.06,31.374 631.96,30.42C632.859,29.439 633.908,28.676 635.107,28.132C636.333,27.559 637.668,27.273 639.112,27.273C640.665,27.273 642.082,27.627 643.362,28.336C644.643,29.017 645.624,29.848 646.305,30.829L646.305,27.682L649.82,27.682L649.82,48.117L646.305,48.117L646.305,44.97C645.624,45.951 644.643,46.796 643.362,47.504C642.082,48.185 640.665,48.526 639.112,48.526ZM639.643,45.297C640.679,45.297 641.619,45.106 642.463,44.725C643.308,44.344 644.03,43.826 644.629,43.172C645.256,42.491 645.733,41.701 646.06,40.801C646.414,39.902 646.591,38.935 646.591,37.9C646.591,36.864 646.414,35.897 646.06,34.998C645.733,34.099 645.256,33.322 644.629,32.668C644.03,31.987 643.308,31.456 642.463,31.074C641.619,30.693 640.679,30.502 639.643,30.502C638.608,30.502 637.654,30.693 636.782,31.074C635.938,31.456 635.202,31.987 634.575,32.668C633.976,33.322 633.499,34.099 633.145,34.998C632.818,35.897 632.654,36.864 632.654,37.9C632.654,38.935 632.818,39.902 633.145,40.801C633.499,41.701 633.976,42.491 634.575,43.172C635.202,43.826 635.938,44.344 636.782,44.725C637.654,45.106 638.608,45.297 639.643,45.297ZM656.436,17.464L659.951,17.464L659.951,48.117L656.436,48.117L656.436,17.464Z" style="fill-rule:nonzero;"/>
        <g>
            <path d="M341.696,35.934C339.688,34.605 337.473,33.66 335.377,32.479C334.018,31.711 332.571,31.032 331.39,30.058C329.382,28.404 329.796,25.156 331.892,23.738C334.904,21.73 339.895,22.853 340.426,26.957C340.426,27.046 340.515,27.105 340.603,27.105L345.151,27.105C345.269,27.105 345.358,27.016 345.328,26.898C345.092,24.063 343.999,21.701 341.991,20.195C340.072,18.748 337.887,17.98 335.554,17.98C323.535,17.98 322.443,30.707 328.91,34.723C329.648,35.196 335.997,38.385 338.241,39.773C340.485,41.161 341.194,43.7 340.22,45.708C339.334,47.539 337.03,48.809 334.727,48.661C332.217,48.514 330.268,47.155 329.589,45.029C329.471,44.645 329.412,43.907 329.412,43.582C329.412,43.494 329.323,43.405 329.235,43.405L324.303,43.405C324.215,43.405 324.126,43.494 324.126,43.582C324.126,47.155 325.012,49.134 327.433,50.935C329.707,52.648 332.188,53.356 334.757,53.356C341.489,53.356 344.974,49.547 345.683,45.59C346.303,41.722 345.151,38.237 341.696,35.934Z" style="fill:rgb(22,22,22);fill-rule:nonzero;"/>
            <path d="M130.465,18.618L122.994,18.618C122.905,18.618 122.846,18.677 122.816,18.736L118.771,32.084C118.712,32.261 118.476,32.261 118.417,32.084L114.371,18.736C114.342,18.648 114.282,18.618 114.194,18.618L106.664,18.618C106.575,18.618 106.487,18.707 106.487,18.795L106.487,52.872C106.487,52.961 106.575,53.05 106.664,53.05L111.595,53.05C111.684,53.05 111.772,52.961 111.772,52.872L111.772,26.975C111.772,26.768 112.068,26.739 112.127,26.916L116.202,40.352L116.497,41.297C116.527,41.385 116.586,41.415 116.674,41.415L120.454,41.415C120.543,41.415 120.602,41.356 120.631,41.297L120.927,40.352L125.002,26.916C125.061,26.709 125.356,26.768 125.356,26.975L125.356,52.872C125.356,52.961 125.445,53.05 125.533,53.05L130.465,53.05C130.553,53.05 130.642,52.961 130.642,52.872L130.642,18.795C130.642,18.707 130.553,18.618 130.465,18.618Z" style="fill:rgb(22,22,22);fill-rule:nonzero;"/>
            <path d="M266.19,18.618C266.102,18.618 266.043,18.677 266.013,18.736L261.968,32.084C261.908,32.261 261.672,32.261 261.613,32.084L257.568,18.736C257.538,18.648 257.479,18.618 257.39,18.618L249.89,18.618C249.801,18.618 249.713,18.707 249.713,18.795L249.713,52.872C249.713,52.961 249.801,53.05 249.89,53.05L254.821,53.05C254.91,53.05 254.999,52.961 254.999,52.872L254.999,26.975C254.999,26.768 255.294,26.739 255.353,26.916L259.428,40.352L259.723,41.297C259.753,41.385 259.812,41.415 259.9,41.415L263.68,41.415C263.769,41.415 263.828,41.356 263.857,41.297L264.153,40.352L268.228,26.916C268.287,26.709 268.582,26.768 268.582,26.975L268.582,52.872C268.582,52.961 268.671,53.05 268.759,53.05L273.691,53.05C273.779,53.05 273.868,52.961 273.868,52.872L273.868,18.795C273.868,18.707 273.779,18.618 273.691,18.618L266.19,18.618Z" style="fill:rgb(22,22,22);fill-rule:nonzero;"/>
            <path d="M202.58,18.618L179.281,18.618C179.193,18.618 179.104,18.707 179.104,18.795L179.104,23.048C179.104,23.136 179.193,23.225 179.281,23.225L188.288,23.225L188.288,52.872C188.288,52.961 188.376,53.05 188.465,53.05L193.396,53.05C193.485,53.05 193.574,52.961 193.574,52.872L193.574,23.225L202.58,23.225C202.669,23.225 202.757,23.136 202.757,23.048L202.757,18.795C202.757,18.707 202.698,18.618 202.58,18.618Z" style="fill:rgb(22,22,22);fill-rule:nonzero;"/>
            <path d="M231.658,53.049L236.147,53.049C236.265,53.049 236.353,52.931 236.324,52.813L227.052,18.618C227.022,18.53 226.963,18.5 226.875,18.5L220.437,18.5C220.349,18.5 220.289,18.559 220.26,18.618L210.988,52.813C210.958,52.931 211.047,53.049 211.165,53.049L215.653,53.049C215.742,53.049 215.801,52.99 215.831,52.931L218.518,42.98C218.547,42.891 218.606,42.862 218.695,42.862L228.617,42.862C228.705,42.862 228.764,42.921 228.794,42.98L231.481,52.931C231.511,52.99 231.599,53.049 231.658,53.049ZM219.876,37.989L223.479,24.672C223.538,24.494 223.774,24.494 223.833,24.672L227.436,37.989C227.465,38.108 227.376,38.226 227.258,38.226L220.053,38.226C219.935,38.226 219.846,38.108 219.876,37.989Z" style="fill:rgb(22,22,22);fill-rule:nonzero;"/>
            <path d="M308.198,53.049L312.687,53.049C312.805,53.049 312.893,52.931 312.864,52.813L303.592,18.618C303.562,18.53 303.503,18.5 303.415,18.5L296.977,18.5C296.889,18.5 296.829,18.559 296.8,18.618L287.528,52.813C287.498,52.931 287.587,53.049 287.705,53.049L292.193,53.049C292.282,53.049 292.341,52.99 292.371,52.931L295.058,42.98C295.087,42.891 295.146,42.862 295.235,42.862L305.157,42.862C305.245,42.862 305.304,42.921 305.334,42.98L308.021,52.931C308.051,52.99 308.11,53.049 308.198,53.049ZM296.416,37.989L300.019,24.672C300.078,24.494 300.314,24.494 300.373,24.672L303.976,37.989C304.005,38.108 303.917,38.226 303.798,38.226L296.593,38.226C296.475,38.226 296.387,38.108 296.416,37.989Z" style="fill:rgb(22,22,22);fill-rule:nonzero;"/>
            <path d="M150.669,48.018L150.669,37.446C150.669,37.358 150.757,37.269 150.846,37.269L163.986,37.269C164.075,37.269 164.164,37.18 164.164,37.092L164.164,32.84C164.164,32.751 164.075,32.662 163.986,32.662L150.846,32.662C150.757,32.662 150.669,32.574 150.669,32.485L150.669,23.449C150.669,23.361 150.757,23.272 150.846,23.272L165.788,23.272C165.876,23.272 165.965,23.183 165.965,23.095L165.965,18.843C165.965,18.754 165.876,18.665 165.788,18.665L145.56,18.665C145.472,18.665 145.383,18.754 145.383,18.843L145.383,52.89C145.383,52.979 145.472,53.067 145.56,53.067L166.408,53.067C166.497,53.067 166.585,52.979 166.585,52.89L166.585,48.402C166.585,48.313 166.497,48.224 166.408,48.224L150.816,48.224C150.728,48.195 150.669,48.136 150.669,48.018Z" style="fill:rgb(22,22,22);fill-rule:nonzero;"/>
            <path d="M386.745,52.772L369.677,35.143C369.618,35.084 369.618,34.966 369.677,34.907L385.033,18.961C385.151,18.843 385.062,18.665 384.914,18.665L378.625,18.665C378.566,18.665 378.536,18.695 378.506,18.724L365.484,32.249C365.366,32.367 365.189,32.279 365.189,32.131L365.189,18.843C365.189,18.754 365.1,18.665 365.012,18.665L360.08,18.665C359.992,18.665 359.903,18.754 359.903,18.843L359.903,52.92C359.903,53.008 359.992,53.097 360.08,53.097L365.012,53.097C365.1,53.097 365.189,53.008 365.189,52.92L365.189,37.919C365.189,37.771 365.395,37.682 365.484,37.801L380.249,53.038C380.278,53.067 380.337,53.097 380.367,53.097L386.657,53.097C386.775,53.067 386.863,52.861 386.745,52.772Z" style="fill:rgb(22,22,22);fill-rule:nonzero;"/>
            <path d="M72.896,0.305L43.118,22.493L48.655,9.417L72.896,0.305Z" style="fill:rgb(109,149,249);fill-rule:nonzero;"/>
            <path d="M4.209,0.306L33.722,22.7L28.45,9.417L4.209,0.306Z" style="fill:rgb(109,149,249);fill-rule:nonzero;"/>
            <path d="M62.175,51.752L54.252,63.94L71.217,68.644L76.077,52.018L62.175,51.752Z" style="fill:rgb(109,149,249);fill-rule:nonzero;"/>
            <path d="M1.057,52.018L5.888,68.644L22.824,63.94L14.93,51.752L1.057,52.018Z" style="fill:rgb(109,149,249);fill-rule:nonzero;"/>
            <path d="M21.911,31.161L17.198,38.32L33.987,39.089L33.428,20.895L21.911,31.161Z" style="fill:rgb(109,149,249);fill-rule:nonzero;"/>
            <path d="M55.194,31.161L43.501,20.688L43.118,39.089L59.907,38.32L55.194,31.161Z" style="fill:rgb(109,149,249);fill-rule:nonzero;"/>
            <path d="M22.824,63.939L32.986,58.999L24.238,52.136L22.824,63.939Z" style="fill:rgb(109,149,249);fill-rule:nonzero;"/>
            <path d="M44.12,58.999L54.252,63.939L52.867,52.136L44.12,58.999Z" style="fill:rgb(109,149,249);fill-rule:nonzero;"/>
            <path d="M54.252,63.939L44.12,58.999L44.944,65.626L44.856,68.436L54.252,63.939Z" style="fill:rgb(215,193,179);fill-rule:nonzero;"/>
            <path d="M22.824,63.941L32.249,68.437L32.19,65.627L32.986,59L22.824,63.941Z" style="fill:rgb(215,193,179);fill-rule:nonzero;"/>
            <path d="M32.426,47.757L24.002,45.272L29.952,42.521L32.426,47.757Z" style="fill:rgb(47,52,59);fill-rule:nonzero;"/>
            <path d="M44.679,47.757L47.153,42.521L53.132,45.272L44.679,47.757Z" style="fill:rgb(47,52,59);fill-rule:nonzero;"/>
            <path d="M22.824,63.94L24.297,51.751L14.93,52.018L22.824,63.94Z" style="fill:rgb(73,123,248);fill-rule:nonzero;"/>
            <path d="M52.808,51.751L54.252,63.94L62.175,52.018L52.808,51.751Z" style="fill:rgb(73,123,248);fill-rule:nonzero;"/>
            <path d="M59.907,38.32L43.118,39.089L44.679,47.757L47.153,42.521L53.132,45.272L59.907,38.32Z" style="fill:rgb(73,123,248);fill-rule:nonzero;"/>
            <path d="M24.002,45.272L29.952,42.521L32.426,47.757L33.987,39.089L17.198,38.32L24.002,45.272Z" style="fill:rgb(73,123,248);fill-rule:nonzero;"/>
            <path d="M17.198,38.322L24.238,52.137L24.002,45.274L17.198,38.322Z" style="fill:rgb(109,149,249);fill-rule:nonzero;"/>
            <path d="M53.133,45.272L52.867,52.135L59.907,38.32L53.133,45.272Z" style="fill:rgb(109,149,249);fill-rule:nonzero;"/>
            <path d="M33.987,39.089L32.426,47.757L34.4,57.993L34.841,44.503L33.987,39.089Z" style="fill:rgb(109,149,249);fill-rule:nonzero;"/>
            <path d="M43.118,39.089L42.293,44.473L42.706,57.993L44.679,47.757L43.118,39.089Z" style="fill:rgb(109,149,249);fill-rule:nonzero;"/>
            <path d="M44.679,47.758L42.706,57.994L44.12,59L52.867,52.136L53.133,45.273L44.679,47.758Z" style="fill:rgb(182,202,252);fill-rule:nonzero;"/>
            <path d="M24.002,45.273L24.238,52.136L32.986,59L34.399,57.994L32.426,47.758L24.002,45.273Z" style="fill:rgb(182,202,252);fill-rule:nonzero;"/>
            <path d="M44.856,68.436L44.944,65.625L44.178,64.975L32.927,64.975L32.19,65.625L32.249,68.436L22.824,63.939L26.123,66.661L32.809,71.305L44.267,71.305L50.982,66.661L54.252,63.939L44.856,68.436Z" style="fill:rgb(192,173,158);fill-rule:nonzero;"/>
            <path d="M44.119,58.999L42.706,57.993L34.4,57.993L32.986,58.999L32.19,65.625L32.927,64.975L44.178,64.975L44.944,65.625L44.119,58.999Z" style="fill:rgb(47,52,59);fill-rule:nonzero;"/>
            <path d="M74.163,23.943L76.667,11.695L72.896,0.305L44.12,21.753L55.194,31.161L70.835,35.746L74.281,31.693L72.778,30.599L75.164,28.41L73.338,26.99L75.724,25.156L74.163,23.943Z" style="fill:rgb(44,86,221);fill-rule:nonzero;"/>
            <path d="M0.439,11.697L2.972,23.945L1.352,25.158L3.767,26.992L1.941,28.412L4.327,30.601L2.824,31.695L6.271,35.748L21.911,31.163L32.986,21.755L4.209,0.307L0.439,11.697Z" style="fill:rgb(44,86,221);fill-rule:nonzero;"/>
            <path d="M70.834,35.747L55.194,31.161L59.907,38.32L52.867,52.136L62.175,52.018L76.077,52.018L70.834,35.747Z" style="fill:rgb(182,202,252);fill-rule:nonzero;"/>
            <path d="M21.911,31.161L6.271,35.747L1.057,52.018L14.93,52.018L24.238,52.136L17.198,38.32L21.911,31.161Z" style="fill:rgb(182,202,252);fill-rule:nonzero;"/>
            <path d="M43.118,39.089L44.119,21.753L48.655,9.417L28.45,9.417L32.985,21.753L33.987,39.089L34.37,44.532L34.399,57.993L42.705,57.993L42.735,44.532L43.118,39.089Z" style="fill:rgb(182,202,252);fill-rule:nonzero;"/>
        </g>
    </g>
</svg>
