<?xml version="1.0" encoding="UTF-8" standalone="no"?>
<svg
   xmlns:dc="http://purl.org/dc/elements/1.1/"
   xmlns:cc="http://creativecommons.org/ns#"
   xmlns:rdf="http://www.w3.org/1999/02/22-rdf-syntax-ns#"
   xmlns:svg="http://www.w3.org/2000/svg"
   xmlns="http://www.w3.org/2000/svg"
   xmlns:sodipodi="http://sodipodi.sourceforge.net/DTD/sodipodi-0.dtd"
   xmlns:inkscape="http://www.inkscape.org/namespaces/inkscape"
   inkscape:version="1.0rc1 (09960d6, 2020-04-09)"
   sodipodi:docname="mmi-logo-with-words.svg"
   id="svg22"
   version="1.1"
   fill="none"
   viewBox="0 0 43.451191 43.508064"
   height="43.508064"
   width="43.451191">
  <metadata
     id="metadata28">
    <rdf:RDF>
      <cc:Work
         rdf:about="">
        <dc:format>image/svg+xml</dc:format>
        <dc:type
           rdf:resource="http://purl.org/dc/dcmitype/StillImage" />
        <dc:title></dc:title>
      </cc:Work>
    </rdf:RDF>
  </metadata>
  <defs
     id="defs26" />
  <sodipodi:namedview
     fit-margin-bottom="0"
     fit-margin-right="0"
     fit-margin-left="0"
     fit-margin-top="0"
     inkscape:current-layer="svg22"
     inkscape:window-maximized="0"
     inkscape:window-y="23"
     inkscape:window-x="0"
     inkscape:cy="40.90107"
     inkscape:cx="21.512683"
     inkscape:zoom="11.125"
     showgrid="false"
     id="namedview24"
     inkscape:window-height="1395"
     inkscape:window-width="1674"
     inkscape:pageshadow="2"
     inkscape:pageopacity="0"
     guidetolerance="10"
     gridtolerance="10"
     objecttolerance="10"
     borderopacity="1"
     bordercolor="#666666"
     pagecolor="#ffffff" />
  <path
     inkscape:connector-curvature="0"
     id="path20"
     fill="black"
     d="m 0,37.748063 h 0.744 v 5.68 H 0 Z m 2.13038,1.68 h 0.688 v 0.616 c 0.13866,-0.24 0.32,-0.416 0.544,-0.528 0.224,-0.112 0.46666,-0.168 0.728,-0.168 0.224,0 0.42933,0.03733 0.616,0.112 0.18666,0.07467 0.344,0.184 0.472,0.328 0.13333,0.13867 0.23733,0.30933 0.312,0.512 0.07466,0.19733 0.112,0.41867 0.112,0.664 v 2.464 h -0.68 v -2.36 c 0,-0.336 -0.088,-0.6 -0.264,-0.792 -0.17067,-0.19733 -0.39734,-0.296 -0.68,-0.296 -0.16,0 -0.312,0.032 -0.456,0.096 -0.13867,0.064 -0.26134,0.16 -0.368,0.288 -0.10134,0.12267 -0.184,0.27467 -0.248,0.456 -0.05867,0.18133 -0.088,0.38933 -0.088,0.624 v 1.984 h -0.688 z m 5.91891,4.08 c -0.3573,0 -0.67731,-0.07467 -0.95997,-0.224 -0.28267,-0.15467 -0.48534,-0.38933 -0.608,-0.704 l 0.56,-0.312 c 0.07466,0.20267 0.20533,0.36 0.392,0.472 0.192,0.10667 0.39997,0.16 0.62397,0.16 0.192,0 0.3547,-0.04533 0.4880005,-0.136 0.1387,-0.096 0.208,-0.22933 0.208,-0.4 0,-0.144 -0.0506,-0.264 -0.152,-0.36 -0.1013,-0.096 -0.2826005,-0.184 -0.5440005,-0.264 l -0.39997,-0.128 c -0.33067,-0.096 -0.58134,-0.24267 -0.752,-0.44 -0.16534,-0.20267 -0.248,-0.44533 -0.248,-0.728 0,-0.17067 0.03466,-0.32267 0.104,-0.456 0.07466,-0.13867 0.17333,-0.25333 0.296,-0.344 0.128,-0.096 0.27466,-0.168 0.44,-0.216 0.16533,-0.05333 0.34397,-0.08 0.53597,-0.08 0.2987,0 0.5600005,0.06133 0.7840005,0.184 0.224,0.11733 0.4027,0.288 0.536,0.512 l -0.512,0.352 c -0.0906,-0.128 -0.2053,-0.23467 -0.344,-0.32 -0.1333005,-0.09067 -0.2960005,-0.136 -0.4880005,-0.136 -0.1706,0 -0.3253,0.04267 -0.46397,0.128 -0.13334,0.08533 -0.2,0.20267 -0.2,0.352 0,0.12267 0.03733,0.232 0.112,0.328 0.08,0.096 0.23197,0.17867 0.45597,0.248 l 0.44,0.136 c 0.3467005,0.10667 0.6134005,0.25333 0.8000005,0.44 0.192,0.18667 0.288,0.432 0.288,0.736 0,0.192 -0.0346,0.36267 -0.104,0.512 -0.0693,0.14933 -0.168,0.27467 -0.296,0.376 -0.1226,0.10133 -0.2693,0.17867 -0.44,0.232 -0.1706005,0.05333 -0.3546005,0.08 -0.5520005,0.08 z m 3.906501,-0.04 c -0.176,0 -0.3386,-0.024 -0.488,-0.072 -0.1493,-0.05333 -0.28,-0.128 -0.392,-0.224 -0.1066,-0.10133 -0.192,-0.22933 -0.256,-0.384 -0.0586,-0.15467 -0.088,-0.336 -0.088,-0.544 v -2.184 H 9.8837905 v -0.632 h 0.8480005 v -1.112 h 0.688 v 1.112 h 1.152 v 0.632 h -1.152 v 2.096 c 0,0.256 0.056,0.43467 0.168,0.536 0.112,0.096 0.2774,0.144 0.496,0.144 0.0854,0 0.1707,-0.0053 0.256,-0.016 0.0907,-0.016 0.168,-0.03733 0.232,-0.064 v 0.616 c -0.0853,0.02667 -0.1786,0.048 -0.28,0.064 -0.1013,0.02133 -0.2133,0.032 -0.336,0.032 z m 1.8469,-5.112 c -0.1387,0 -0.256,-0.04533 -0.352,-0.136 -0.096,-0.096 -0.144,-0.21333 -0.144,-0.352 0,-0.13333 0.048,-0.248 0.144,-0.344 0.096,-0.096 0.2133,-0.144 0.352,-0.144 0.1387,0 0.2533,0.048 0.344,0.144 0.0907,0.096 0.135999,0.21067 0.135999,0.344 0,0.13867 -0.0453,0.256 -0.135999,0.352 -0.0907,0.09067 -0.2053,0.136 -0.344,0.136 z m -0.352,1.072 h 0.688 v 4 h -0.688 z m 3.544199,4.04 c -0.175999,0 -0.3387,-0.024 -0.488,-0.072 -0.1493,-0.05333 -0.28,-0.128 -0.391999,-0.224 -0.1067,-0.10133 -0.192,-0.22933 -0.256,-0.384 -0.0587,-0.15467 -0.088,-0.336 -0.088,-0.544 v -2.184 h -0.848 v -0.632 h 0.848 v -1.112 h 0.687999 v 1.112 h 1.152 v 0.632 h -1.152 v 2.096 c 0,0.256 0.056,0.43467 0.168,0.536 0.112,0.096 0.2773,0.144 0.496,0.144 0.0853,0 0.1707,-0.0053 0.256,-0.016 0.0907,-0.016 0.168,-0.03733 0.232,-0.064 v 0.616 c -0.0853,0.02667 -0.1787,0.048 -0.28,0.064 -0.1013,0.02133 -0.2133,0.032 -0.336,0.032 z m 2.9109,0.04 c -0.2187,0 -0.4187,-0.03733 -0.6,-0.112 -0.1814,-0.08 -0.336,-0.18933 -0.464,-0.328 -0.128,-0.13867 -0.2294,-0.30667 -0.304,-0.504 -0.0694,-0.20267 -0.104,-0.42933 -0.104,-0.68 v -2.456 h 0.688 v 2.352 c 0,0.336 0.08,0.60267 0.24,0.8 0.1653,0.19733 0.3866,0.296 0.664,0.296 0.1546,0 0.2986,-0.032 0.432,-0.096 0.1386,-0.06933 0.256,-0.16533 0.352,-0.288 0.1013,-0.128 0.1813,-0.28267 0.24,-0.464 0.0586,-0.18133 0.088,-0.38667 0.088,-0.616 v -1.984 h 0.688 v 4 h -0.688 v -0.616 c -0.1334,0.23467 -0.3094,0.41067 -0.528,0.528 -0.2134,0.112 -0.448,0.168 -0.704,0.168 z m 4.7688,-0.04 c -0.176,0 -0.3387,-0.024 -0.488,-0.072 -0.1494,-0.05333 -0.28,-0.128 -0.392,-0.224 -0.1067,-0.10133 -0.192,-0.22933 -0.256,-0.384 -0.0587,-0.15467 -0.088,-0.336 -0.088,-0.544 v -2.184 h -0.848 v -0.632 h 0.848 v -1.112 h 0.688 v 1.112 h 1.152 v 0.632 h -1.152 v 2.096 c 0,0.256 0.056,0.43467 0.168,0.536 0.112,0.096 0.2773,0.144 0.496,0.144 0.0853,0 0.1706,-0.0053 0.256,-0.016 0.0906,-0.016 0.168,-0.03733 0.232,-0.064 v 0.616 c -0.0854,0.02667 -0.1787,0.048 -0.28,0.064 -0.1014,0.02133 -0.2134,0.032 -0.336,0.032 z m 1.8469,-5.112 c -0.1387,0 -0.256,-0.04533 -0.352,-0.136 -0.096,-0.096 -0.144,-0.21333 -0.144,-0.352 0,-0.13333 0.048,-0.248 0.144,-0.344 0.096,-0.096 0.2133,-0.144 0.352,-0.144 0.1386,0 0.2533,0.048 0.344,0.144 0.0906,0.096 0.136,0.21067 0.136,0.344 0,0.13867 -0.0454,0.256 -0.136,0.352 -0.0907,0.09067 -0.2054,0.136 -0.344,0.136 z m -0.352,1.072 h 0.688 v 4 h -0.688 z m 3.7681,4.08 c -0.304,0 -0.584,-0.05333 -0.84,-0.16 -0.256,-0.112 -0.4773,-0.26133 -0.664,-0.448 -0.1866,-0.18667 -0.3333,-0.40533 -0.44,-0.656 -0.1013,-0.256 -0.152,-0.528 -0.152,-0.816 0,-0.288 0.0507,-0.55733 0.152,-0.808 0.1067,-0.256 0.2534,-0.47733 0.44,-0.664 0.1867,-0.18667 0.408,-0.33333 0.664,-0.44 0.256,-0.112 0.536,-0.168 0.84,-0.168 0.2987,0 0.576,0.056 0.832,0.168 0.256,0.10667 0.4774,0.25333 0.664,0.44 0.1867,0.18667 0.3307,0.408 0.432,0.664 0.1067,0.25067 0.16,0.52 0.16,0.808 0,0.288 -0.0533,0.56 -0.16,0.816 -0.1013,0.25067 -0.2453,0.46933 -0.432,0.656 -0.1866,0.18667 -0.408,0.336 -0.664,0.448 -0.256,0.10667 -0.5333,0.16 -0.832,0.16 z m 0,-0.64 c 0.208,0 0.3974,-0.03733 0.568,-0.112 0.1707,-0.07467 0.314701,-0.176 0.432001,-0.304 0.1227,-0.13333 0.216,-0.28533 0.28,-0.456 0.0694,-0.176 0.104,-0.36533 0.104,-0.568 0,-0.19733 -0.0346,-0.384 -0.104,-0.56 -0.064,-0.176 -0.1573,-0.328 -0.28,-0.456 -0.1173,-0.13333 -0.2613,-0.23733 -0.432001,-0.312 -0.1706,-0.07467 -0.36,-0.112 -0.568,-0.112 -0.208,0 -0.3973,0.03733 -0.568,0.112 -0.1706,0.07467 -0.3173,0.17867 -0.44,0.312 -0.1226,0.128 -0.2186,0.28 -0.288,0.456 -0.064,0.176 -0.096,0.36267 -0.096,0.56 0,0.20267 0.032,0.392 0.096,0.568 0.0694,0.17067 0.1654,0.32267 0.288,0.456 0.1227,0.128 0.2694,0.22933 0.44,0.304 0.1707,0.07467 0.36,0.112 0.568,0.112 z m 3.0756,-3.44 h 0.688001 v 0.616 c 0.1387,-0.24 0.32,-0.416 0.543999,-0.528 0.224,-0.112 0.466701,-0.168 0.728,-0.168 0.224,0 0.4293,0.03733 0.616,0.112 0.186701,0.07467 0.344001,0.184 0.472001,0.328 0.133299,0.13867 0.237299,0.30933 0.311999,0.512 0.0747,0.19733 0.112001,0.41867 0.112001,0.664 v 2.464 h -0.68 v -2.36 c 0,-0.336 -0.088,-0.6 -0.264001,-0.792 -0.170699,-0.19733 -0.3973,-0.296 -0.68,-0.296 -0.159999,0 -0.311999,0.032 -0.456,0.096 -0.1387,0.064 -0.2613,0.16 -0.368,0.288 -0.1013,0.12267 -0.184,0.27467 -0.248,0.456 -0.0587,0.18133 -0.088,0.38933 -0.088,0.624 v 1.984 h -0.688 z m 6.3589,4.08 c -0.2826,0 -0.543999,-0.05333 -0.784,-0.16 -0.2346,-0.112 -0.439999,-0.26133 -0.616,-0.448 -0.176,-0.192 -0.314599,-0.41333 -0.415999,-0.664 -0.096,-0.25067 -0.144,-0.52 -0.144,-0.808 0,-0.288 0.048,-0.55733 0.144,-0.808 0.1014,-0.25067 0.24,-0.46933 0.415999,-0.656 0.176001,-0.192 0.3814,-0.34133 0.616,-0.448 0.240001,-0.112 0.5014,-0.168 0.784,-0.168 0.304,0 0.5814,0.06933 0.832,0.208 0.250701,0.13333 0.442701,0.296 0.576,0.488 v -0.616 h 0.688001 v 4 H 40.78009 v -0.616 c -0.133299,0.192 -0.325299,0.35733 -0.576,0.496 -0.2506,0.13333 -0.528,0.2 -0.832,0.2 z m 0.104,-0.632 c 0.2027,0 0.3867,-0.03733 0.552,-0.112 0.1654,-0.07467 0.3067,-0.176 0.424,-0.304 0.1227,-0.13333 0.216,-0.288 0.28,-0.464 0.0694,-0.176 0.104,-0.36533 0.104,-0.568 0,-0.20267 -0.0346,-0.392 -0.104,-0.568 -0.064,-0.176 -0.1573,-0.328 -0.28,-0.456 -0.1173,-0.13333 -0.2586,-0.23733 -0.424,-0.312 -0.1653,-0.07467 -0.3493,-0.112 -0.552,-0.112 -0.2026,0 -0.3893,0.03733 -0.56,0.112 -0.1653,0.07467 -0.3093,0.17867 -0.432,0.312 -0.1173,0.128 -0.2106,0.28 -0.28,0.456 -0.064,0.176 -0.096,0.36533 -0.096,0.568 0,0.20267 0.032,0.392 0.096,0.568 0.0694,0.176 0.1627,0.33067 0.28,0.464 0.1227,0.128 0.2667,0.22933 0.432,0.304 0.1707,0.07467 0.3574,0.112 0.56,0.112 z m 3.2871,-5.448 h 0.688001 v 6 H 42.76319 Z" />
  <g
     transform="matrix(0.50121279,0,0,0.50121279,2.8263997,-0.38048904)"
     id="g135"
     style="fill:none">
    <path
       inkscape:connector-curvature="0"
       d="M 73.3414,0.938477 43.4215,23.0319 48.9852,10.0115 Z"
       fill="#6d95f9"
       id="path40" />
    <path
       inkscape:connector-curvature="0"
       d="M 4.32776,0.938599 33.9813,23.2382 28.6839,10.0116 Z"
       fill="#6d95f9"
       id="path42" />
    <path
       inkscape:connector-curvature="0"
       d="m 62.5693,52.1663 -7.9609,12.1366 17.0464,4.6838 4.883,-16.5553 z"
       fill="#6d95f9"
       id="path44" />
    <path
       inkscape:connector-curvature="0"
       d="M 1.16089,52.4314 6.01436,68.9867 23.0311,64.3029 15.0998,52.1663 Z"
       fill="#6d95f9"
       id="path46" />
    <path
       inkscape:connector-curvature="0"
       d="m 22.1139,31.6629 -4.7351,7.1288 16.8688,0.766 -0.5623,-18.1167 z"
       fill="#6d95f9"
       id="path48" />
    <path
       inkscape:connector-curvature="0"
       d="M 55.5553,31.6626 43.8064,21.2345 43.4216,39.5573 60.2904,38.7914 Z"
       fill="#6d95f9"
       id="path50" />
    <path
       inkscape:connector-curvature="0"
       d="M 23.031,64.3024 33.2411,59.3829 24.4515,52.5487 Z"
       fill="#6d95f9"
       id="path52" />
    <path
       inkscape:connector-curvature="0"
       d="M 44.428,59.3829 54.6084,64.3024 53.2175,52.5487 Z"
       fill="#6d95f9"
       id="path54" />
    <path
       inkscape:connector-curvature="0"
       d="M 54.6084,64.3024 44.428,59.3829 45.2566,65.9815 45.1678,68.78 Z"
       fill="#d7c1b3"
       id="path56" />
    <path
       inkscape:connector-curvature="0"
       d="m 23.0312,64.3036 9.4702,4.4776 -0.0591,-2.7985 0.799,-6.5985 z"
       fill="#d7c1b3"
       id="path58" />
    <path
       inkscape:connector-curvature="0"
       d="m 32.679,48.1885 -8.464,-2.4744 5.978,-2.7396 z"
       fill="#2f343b"
       id="path60" />
    <path
       inkscape:connector-curvature="0"
       d="m 44.9899,48.1885 2.4859,-5.214 6.0076,2.7396 z"
       fill="#2f343b"
       id="path62" />
    <path
       inkscape:connector-curvature="0"
       d="M 23.0313,64.3027 24.511,52.166 15.1,52.4311 Z"
       fill="#497bf8"
       id="path64" />
    <path
       inkscape:connector-curvature="0"
       d="m 53.1581,52.166 1.4501,12.1367 7.9609,-11.8716 z"
       fill="#497bf8"
       id="path66" />
    <path
       inkscape:connector-curvature="0"
       d="m 60.2903,38.7916 -16.8688,0.7659 1.5685,8.6312 2.4859,-5.2141 6.0077,2.7396 z"
       fill="#497bf8"
       id="path68" />
    <path
       inkscape:connector-curvature="0"
       d="m 24.2151,45.7142 5.978,-2.7396 2.486,5.2141 1.5685,-8.6312 -16.8688,-0.7659 z"
       fill="#497bf8"
       id="path70" />
    <path
       inkscape:connector-curvature="0"
       d="m 17.3788,38.7937 7.073,13.7568 -0.2367,-6.8342 z"
       fill="#6d95f9"
       id="path72" />
    <path
       inkscape:connector-curvature="0"
       d="m 53.484,45.7142 -0.2663,6.8343 7.073,-13.7569 z"
       fill="#6d95f9"
       id="path74" />
    <path
       inkscape:connector-curvature="0"
       d="M 34.2475,39.5573 32.679,48.1884 34.6618,58.3809 35.1057,44.948 Z"
       fill="#6d95f9"
       id="path76" />
    <path
       inkscape:connector-curvature="0"
       d="m 43.4217,39.5573 -0.8287,5.3613 0.4143,13.4623 1.9828,-10.1925 z"
       fill="#6d95f9"
       id="path78" />
    <path
       inkscape:connector-curvature="0"
       d="m 44.9903,48.1895 -1.9829,10.1925 1.4206,1.0015 8.7895,-6.8342 0.2663,-6.8342 z"
       fill="#b6cafc"
       id="path80" />
    <path
       inkscape:connector-curvature="0"
       d="m 24.215,45.7151 0.2367,6.8342 8.7895,6.8342 1.4206,-1.0015 -1.9829,-10.1925 z"
       fill="#b6cafc"
       id="path82" />
    <path
       inkscape:connector-curvature="0"
       d="m 45.1678,68.7799 0.0888,-2.7986 -0.7694,-0.648 H 33.1821 l -0.7398,0.648 0.0591,2.7986 -9.4702,-4.4777 3.3146,2.7102 6.7179,4.6249 h 11.5122 l 6.7475,-4.6249 3.285,-2.7102 z"
       fill="#c0ad9e"
       id="path84" />
    <path
       inkscape:connector-curvature="0"
       d="m 44.428,59.3829 -1.4206,-1.0016 h -8.3456 l -1.4205,1.0016 -0.799,6.5986 0.7398,-0.6481 h 11.3051 l 0.7694,0.6481 z"
       fill="#2f343b"
       id="path86" />
    <path
       inkscape:connector-curvature="0"
       d="M 74.6142,24.4754 77.1297,12.2798 73.3417,0.938477 44.428,22.2955 l 11.1275,9.3676 15.7146,4.566 3.4625,-4.0358 -1.5093,-1.0899 2.3971,-2.1799 -1.8348,-1.414 2.3971,-1.8264 z"
       fill="#2c56dd"
       id="path88" />
    <path
       inkscape:connector-curvature="0"
       d="m 0.539429,12.2817 2.545111,12.1956 -1.62769,1.2078 2.42674,1.8264 -1.83485,1.414 2.39714,2.1798 -1.50931,1.09 L 6.39911,36.231 22.1137,31.665 33.2412,22.2974 4.32751,0.94043 Z"
       fill="#2c56dd"
       id="path90" />
    <path
       inkscape:connector-curvature="0"
       d="m 71.2698,36.2293 -15.7146,-4.566 4.7351,7.1288 -7.073,13.7569 9.3518,-0.1178 h 13.9685 z"
       fill="#b6cafc"
       id="path92" />
    <path
       inkscape:connector-curvature="0"
       d="M 22.1137,31.6633 6.39909,36.2293 1.16089,52.4312 H 15.0998 l 9.3518,0.1178 -7.073,-13.7569 z"
       fill="#b6cafc"
       id="path94" />
    <path
       inkscape:connector-curvature="0"
       d="m 43.4215,39.5574 1.0062,-17.2623 4.5575,-12.284 H 28.6835 l 4.5575,12.284 1.0062,17.2623 0.3847,5.4203 0.0296,13.4033 h 8.3456 l 0.0296,-13.4033 z"
       fill="#b6cafc"
       id="path96" />
  </g>
  <path
     inkscape:connector-curvature="0"
     d="m 1.1e-6,37.748063 h 0.744 v 5.68 h -0.744 z m 2.13038,1.68 h 0.688 v 0.616 c 0.13866,-0.24 0.32,-0.416 0.544,-0.528 0.224,-0.112 0.46666,-0.168 0.728,-0.168 0.224,0 0.42933,0.03733 0.616,0.112 0.18666,0.07467 0.344,0.184 0.472,0.328 0.13333,0.13867 0.23733,0.30933 0.312,0.512 0.07466,0.19733 0.112,0.41867 0.112,0.664 v 2.464 h -0.68 v -2.36 c 0,-0.336 -0.088,-0.6 -0.264,-0.792 -0.17067,-0.19733 -0.39734,-0.296 -0.68,-0.296 -0.16,0 -0.312,0.032 -0.456,0.096 -0.13867,0.064 -0.26134,0.16 -0.368,0.288 -0.10134,0.12267 -0.184,0.27467 -0.248,0.456 -0.05867,0.18133 -0.088,0.38933 -0.088,0.624 v 1.984 h -0.688 z m 5.91891,4.08 c -0.3573,0 -0.67731,-0.07467 -0.95997,-0.224 -0.28267,-0.15467 -0.48534,-0.38933 -0.608,-0.704 l 0.56,-0.312 c 0.07466,0.20267 0.20533,0.36 0.392,0.472 0.192,0.10667 0.39997,0.16 0.62397,0.16 0.192,0 0.3547,-0.04533 0.488,-0.136 0.1387,-0.096 0.208,-0.22933 0.208,-0.4 0,-0.144 -0.0506,-0.264 -0.152,-0.36 -0.1013,-0.096 -0.2826,-0.184 -0.544,-0.264 l -0.39997,-0.128 c -0.33067,-0.096 -0.58134,-0.24267 -0.752,-0.44 -0.16534,-0.20267 -0.248,-0.44533 -0.248,-0.728 0,-0.17067 0.03466,-0.32267 0.104,-0.456 0.07466,-0.13867 0.17333,-0.25333 0.296,-0.344 0.128,-0.096 0.27466,-0.168 0.44,-0.216 0.16533,-0.05333 0.34397,-0.08 0.53597,-0.08 0.2987,0 0.56,0.06133 0.784,0.184 0.224,0.11733 0.4027,0.288 0.536,0.512 l -0.512,0.352 c -0.0906,-0.128 -0.2053,-0.23467 -0.344,-0.32 -0.1333,-0.09067 -0.296,-0.136 -0.488,-0.136 -0.1706,0 -0.3253,0.04267 -0.46397,0.128 -0.13334,0.08533 -0.2,0.20267 -0.2,0.352 0,0.12267 0.03733,0.232 0.112,0.328 0.08,0.096 0.23197,0.17867 0.45597,0.248 l 0.44,0.136 c 0.3467,0.10667 0.6134,0.25333 0.8,0.44 0.192,0.18667 0.288,0.432 0.288,0.736 0,0.192 -0.0346,0.36267 -0.104,0.512 -0.0693,0.14933 -0.168,0.27467 -0.296,0.376 -0.1226,0.10133 -0.2693,0.17867 -0.44,0.232 -0.1706,0.05333 -0.3546,0.08 -0.552,0.08 z m 3.9064999,-0.04 c -0.176,0 -0.3386,-0.024 -0.488,-0.072 -0.1493,-0.05333 -0.28,-0.128 -0.392,-0.224 -0.1066,-0.10133 -0.192,-0.22933 -0.256,-0.384 -0.0586,-0.15467 -0.088,-0.336 -0.088,-0.544 v -2.184 H 9.8837911 v -0.632 h 0.8479999 v -1.112 h 0.688 v 1.112 h 1.152 v 0.632 h -1.152 v 2.096 c 0,0.256 0.056,0.43467 0.168,0.536 0.112,0.096 0.2774,0.144 0.496,0.144 0.0854,0 0.1707,-0.0053 0.256,-0.016 0.0907,-0.016 0.168,-0.03733 0.232,-0.064 v 0.616 c -0.0853,0.02667 -0.1786,0.048 -0.28,0.064 -0.1013,0.02133 -0.2133,0.032 -0.336,0.032 z m 1.8469,-5.112 c -0.1387,0 -0.256,-0.04533 -0.352,-0.136 -0.096,-0.096 -0.144,-0.21333 -0.144,-0.352 0,-0.13333 0.048,-0.248 0.144,-0.344 0.096,-0.096 0.2133,-0.144 0.352,-0.144 0.1387,0 0.2533,0.048 0.344,0.144 0.0907,0.096 0.136,0.21067 0.136,0.344 0,0.13867 -0.0453,0.256 -0.136,0.352 -0.0907,0.09067 -0.2053,0.136 -0.344,0.136 z m -0.352,1.072 h 0.688 v 4 h -0.688 z m 3.5442,4.04 c -0.176,0 -0.3387,-0.024 -0.488,-0.072 -0.1493,-0.05333 -0.28,-0.128 -0.392,-0.224 -0.1067,-0.10133 -0.192,-0.22933 -0.256,-0.384 -0.0587,-0.15467 -0.088,-0.336 -0.088,-0.544 v -2.184 h -0.848 v -0.632 h 0.848 v -1.112 h 0.688 v 1.112 h 1.152 v 0.632 h -1.152 v 2.096 c 0,0.256 0.056,0.43467 0.168,0.536 0.112,0.096 0.2773,0.144 0.496,0.144 0.0853,0 0.1707,-0.0053 0.256,-0.016 0.0907,-0.016 0.168,-0.03733 0.232,-0.064 v 0.616 c -0.0853,0.02667 -0.1787,0.048 -0.28,0.064 -0.1013,0.02133 -0.2133,0.032 -0.336,0.032 z m 2.9109,0.04 c -0.2187,0 -0.4187,-0.03733 -0.6,-0.112 -0.1814,-0.08 -0.336,-0.18933 -0.464,-0.328 -0.128,-0.13867 -0.2294,-0.30667 -0.304,-0.504 -0.0694,-0.20267 -0.104,-0.42933 -0.104,-0.68 v -2.456 h 0.688 v 2.352 c 0,0.336 0.08,0.60267 0.24,0.8 0.1653,0.19733 0.3866,0.296 0.664,0.296 0.1546,0 0.2986,-0.032 0.432,-0.096 0.1386,-0.06933 0.256,-0.16533 0.352,-0.288 0.1013,-0.128 0.1813,-0.28267 0.24,-0.464 0.0586,-0.18133 0.088,-0.38667 0.088,-0.616 v -1.984 h 0.688 v 4 h -0.688 v -0.616 c -0.1334,0.23467 -0.3094,0.41067 -0.528,0.528 -0.2134,0.112 -0.448,0.168 -0.704,0.168 z m 4.7688,-0.04 c -0.176,0 -0.3387,-0.024 -0.488,-0.072 -0.1494,-0.05333 -0.28,-0.128 -0.392,-0.224 -0.1067,-0.10133 -0.192,-0.22933 -0.256,-0.384 -0.0587,-0.15467 -0.088,-0.336 -0.088,-0.544 v -2.184 h -0.848 v -0.632 h 0.848 v -1.112 h 0.688 v 1.112 h 1.152 v 0.632 h -1.152 v 2.096 c 0,0.256 0.056,0.43467 0.168,0.536 0.112,0.096 0.2773,0.144 0.496,0.144 0.0853,0 0.1706,-0.0053 0.256,-0.016 0.0906,-0.016 0.168,-0.03733 0.232,-0.064 v 0.616 c -0.0854,0.02667 -0.1787,0.048 -0.28,0.064 -0.1014,0.02133 -0.2134,0.032 -0.336,0.032 z m 1.8469,-5.112 c -0.1387,0 -0.256,-0.04533 -0.352,-0.136 -0.096,-0.096 -0.144,-0.21333 -0.144,-0.352 0,-0.13333 0.048,-0.248 0.144,-0.344 0.096,-0.096 0.2133,-0.144 0.352,-0.144 0.1386,0 0.2533,0.048 0.344,0.144 0.0906,0.096 0.136,0.21067 0.136,0.344 0,0.13867 -0.0454,0.256 -0.136,0.352 -0.0907,0.09067 -0.2054,0.136 -0.344,0.136 z m -0.352,1.072 h 0.688 v 4 h -0.688 z m 3.7681,4.08 c -0.304,0 -0.584,-0.05333 -0.84,-0.16 -0.256,-0.112 -0.4773,-0.26133 -0.664,-0.448 -0.1866,-0.18667 -0.3333,-0.40533 -0.44,-0.656 -0.1013,-0.256 -0.152,-0.528 -0.152,-0.816 0,-0.288 0.0507,-0.55733 0.152,-0.808 0.1067,-0.256 0.2534,-0.47733 0.44,-0.664 0.1867,-0.18667 0.408,-0.33333 0.664,-0.44 0.256,-0.112 0.536,-0.168 0.84,-0.168 0.2987,0 0.576,0.056 0.832,0.168 0.256,0.10667 0.4774,0.25333 0.664,0.44 0.1867,0.18667 0.3307,0.408 0.432,0.664 0.1067,0.25067 0.16,0.52 0.16,0.808 0,0.288 -0.0533,0.56 -0.16,0.816 -0.1013,0.25067 -0.2453,0.46933 -0.432,0.656 -0.1866,0.18667 -0.408,0.336 -0.664,0.448 -0.256,0.10667 -0.5333,0.16 -0.832,0.16 z m 0,-0.64 c 0.208,0 0.3974,-0.03733 0.568,-0.112 0.1707,-0.07467 0.3147,-0.176 0.432,-0.304 0.1227,-0.13333 0.216,-0.28533 0.28,-0.456 0.0694,-0.176 0.104,-0.36533 0.104,-0.568 0,-0.19733 -0.0346,-0.384 -0.104,-0.56 -0.064,-0.176 -0.1573,-0.328 -0.28,-0.456 -0.1173,-0.13333 -0.2613,-0.23733 -0.432,-0.312 -0.1706,-0.07467 -0.36,-0.112 -0.568,-0.112 -0.208,0 -0.3973,0.03733 -0.568,0.112 -0.1706,0.07467 -0.3173,0.17867 -0.44,0.312 -0.1226,0.128 -0.2186,0.28 -0.288,0.456 -0.064,0.176 -0.096,0.36267 -0.096,0.56 0,0.20267 0.032,0.392 0.096,0.568 0.0694,0.17067 0.1654,0.32267 0.288,0.456 0.1227,0.128 0.2694,0.22933 0.44,0.304 0.1707,0.07467 0.36,0.112 0.568,0.112 z m 3.0756,-3.44 h 0.688 v 0.616 c 0.1387,-0.24 0.32,-0.416 0.544,-0.528 0.224,-0.112 0.4667,-0.168 0.728,-0.168 0.224,0 0.4293,0.03733 0.616,0.112 0.1867,0.07467 0.344,0.184 0.472,0.328 0.1333,0.13867 0.2373,0.30933 0.312,0.512 0.0747,0.19733 0.112,0.41867 0.112,0.664 v 2.464 h -0.68 v -2.36 c 0,-0.336 -0.088,-0.6 -0.264,-0.792 -0.1707,-0.19733 -0.3973,-0.296 -0.68,-0.296 -0.16,0 -0.312,0.032 -0.456,0.096 -0.1387,0.064 -0.2613,0.16 -0.368,0.288 -0.1013,0.12267 -0.184,0.27467 -0.248,0.456 -0.0587,0.18133 -0.088,0.38933 -0.088,0.624 v 1.984 h -0.688 z m 6.3589,4.08 c -0.2826,0 -0.544,-0.05333 -0.784,-0.16 -0.2346,-0.112 -0.44,-0.26133 -0.616,-0.448 -0.176,-0.192 -0.3146,-0.41333 -0.416,-0.664 -0.096,-0.25067 -0.144,-0.52 -0.144,-0.808 0,-0.288 0.048,-0.55733 0.144,-0.808 0.1014,-0.25067 0.24,-0.46933 0.416,-0.656 0.176,-0.192 0.3814,-0.34133 0.616,-0.448 0.24,-0.112 0.5014,-0.168 0.784,-0.168 0.304,0 0.5814,0.06933 0.832,0.208 0.2507,0.13333 0.4427,0.296 0.576,0.488 v -0.616 h 0.688 v 4 h -0.688 v -0.616 c -0.1333,0.192 -0.3253,0.35733 -0.576,0.496 -0.2506,0.13333 -0.528,0.2 -0.832,0.2 z m 0.104,-0.632 c 0.2027,0 0.3867,-0.03733 0.552,-0.112 0.1654,-0.07467 0.3067,-0.176 0.424,-0.304 0.1227,-0.13333 0.216,-0.288 0.28,-0.464 0.0694,-0.176 0.104,-0.36533 0.104,-0.568 0,-0.20267 -0.0346,-0.392 -0.104,-0.568 -0.064,-0.176 -0.1573,-0.328 -0.28,-0.456 -0.1173,-0.13333 -0.2586,-0.23733 -0.424,-0.312 -0.1653,-0.07467 -0.3493,-0.112 -0.552,-0.112 -0.2026,0 -0.3893,0.03733 -0.56,0.112 -0.1653,0.07467 -0.3093,0.17867 -0.432,0.312 -0.1173,0.128 -0.2106,0.28 -0.28,0.456 -0.064,0.176 -0.096,0.36533 -0.096,0.568 0,0.20267 0.032,0.392 0.096,0.568 0.0694,0.176 0.1627,0.33067 0.28,0.464 0.1227,0.128 0.2667,0.22933 0.432,0.304 0.1707,0.07467 0.3574,0.112 0.56,0.112 z m 3.2871,-5.448 h 0.688 v 6 h -0.688 z"
     fill="#000000"
     id="path251" />
</svg>
