<svg width="160" height="154" viewBox="0 0 160 154" fill="none" xmlns="http://www.w3.org/2000/svg">
<path d="M149.521 148.727L115.057 138.481L89.0667 153.993L70.9333 153.985L44.9277 138.481L10.4789 148.727L0 113.41L10.4789 74.2127L0 41.0727L10.4789 0L64.308 32.1079H95.692L149.521 0L160 41.0727L149.521 74.2127L160 113.41L149.521 148.727Z" fill="#ABCCFF"/>
<path d="M10.4868 0L64.3159 32.1305L62.1751 54.1811L10.4868 0Z" fill="#ABCCFF"/>
<path d="M44.9358 113.424L68.6203 131.437L44.9358 138.481V113.424Z" fill="#ABCCFF"/>
<path d="M66.7269 83.6453L62.1748 54.1968L33.0368 74.2209L33.0218 74.2133V74.2284L33.1119 94.8401L44.9279 83.6453H44.9354H66.7269Z" fill="#ABCCFF"/>
<path d="M149.521 0L95.6922 32.1305L97.8256 54.1811L149.521 0Z" fill="#ABCCFF"/>
<path d="M115.073 113.424L91.3882 131.437L115.073 138.481V113.424Z" fill="#ABCCFF"/>
<path d="M126.978 74.2284H126.986H126.978V74.2133L126.971 74.2209L97.8329 54.1968L93.2808 83.6453H115.072L126.896 94.8401L126.978 74.2284Z" fill="#ABCCFF"/>
<path d="M44.9277 138.482L10.4789 148.727L0 113.425H44.9277V138.482Z" fill="#89B0FF"/>
<path d="M66.7196 83.6372L73.2999 126.209L64.1807 102.539L33.0971 94.8395L44.9206 83.6372H66.7121H66.7196Z" fill="#89B0FF"/>
<path d="M115.072 138.482L149.521 148.727L160 113.425H115.072V138.482Z" fill="#89B0FF"/>
<path d="M93.2807 83.6372L86.7004 126.209L95.8196 102.539L126.903 94.8395L115.072 83.6372H93.2807Z" fill="#89B0FF"/>
<path d="M0 113.409L10.4789 74.2124H33.0141L33.0967 94.8316L64.1803 102.531L73.2995 126.201L68.6122 131.414L44.9277 113.402H0V113.409Z" fill="#CCE7FF"/>
<path d="M160 113.409L149.521 74.2124H126.986L126.903 94.8316L95.8196 102.531L86.7004 126.201L91.3877 131.414L115.072 113.402H160V113.409Z" fill="#CCE7FF"/>
<path d="M95.6919 32.1089H79.9999H64.3079L62.1745 54.1595L73.2994 126.18H86.7004L97.8328 54.1595L95.6919 32.1089Z" fill="#CCE7FF"/>
<path d="M10.4789 0L0 41.0727L10.4789 74.2127H33.0141L62.1671 54.1811L10.4789 0Z" fill="#190066"/>
<path d="M60.2067 92.1872H49.9983L44.4396 97.6264L64.188 102.516L60.2067 92.1797V92.1872Z" fill="#190066"/>
<path d="M149.521 0L160 41.0727L149.521 74.2127H126.986L97.8331 54.1811L149.521 0Z" fill="#190066"/>
<path d="M99.8081 92.1872H110.032L115.59 97.634L95.8193 102.531L99.8081 92.1797V92.1872Z" fill="#190066"/>
<path d="M89.0591 139.941L91.3878 131.428L86.7005 126.215H73.292L68.6047 131.428L70.9333 139.941" fill="#190066"/>
<path d="M89.0596 139.942V154H70.9338V139.942H89.0596Z" fill="#ABCCFF"/>
<path d="M44.9357 138.467L70.9488 153.994V139.936L68.6202 131.423L44.9357 138.467Z" fill="#CCE7FF"/>
<path d="M115.072 138.467L89.0593 153.994V139.936L91.3879 131.423L115.072 138.467Z" fill="#CCE7FF"/>
</svg>
