<svg width="160" height="160" viewBox="0 0 78 72" fill="none" xmlns="http://www.w3.org/2000/svg">
<path d="M73.3414 0.938477L43.4215 23.0319L48.9852 10.0115L73.3414 0.938477Z" fill="#6D95F9"/>
<path d="M4.32776 0.938599L33.9813 23.2382L28.6839 10.0116L4.32776 0.938599Z" fill="#6D95F9"/>
<path d="M62.5693 52.1663L54.6084 64.3029L71.6548 68.9867L76.5378 52.4314L62.5693 52.1663Z" fill="#6D95F9"/>
<path d="M1.16089 52.4314L6.01436 68.9867L23.0311 64.3029L15.0998 52.1663L1.16089 52.4314Z" fill="#6D95F9"/>
<path d="M22.1139 31.6629L17.3788 38.7917L34.2476 39.5577L33.6853 21.441L22.1139 31.6629Z" fill="#6D95F9"/>
<path d="M55.5553 31.6626L43.8064 21.2345L43.4216 39.5573L60.2904 38.7914L55.5553 31.6626Z" fill="#6D95F9"/>
<path d="M23.031 64.3024L33.2411 59.3829L24.4515 52.5487L23.031 64.3024Z" fill="#6D95F9"/>
<path d="M44.428 59.3829L54.6084 64.3024L53.2175 52.5487L44.428 59.3829Z" fill="#6D95F9"/>
<path d="M54.6084 64.3024L44.428 59.3829L45.2566 65.9815L45.1678 68.78L54.6084 64.3024Z" fill="#D7C1B3"/>
<path d="M23.0312 64.3036L32.5014 68.7812L32.4423 65.9827L33.2413 59.3842L23.0312 64.3036Z" fill="#D7C1B3"/>
<path d="M32.679 48.1885L24.215 45.7141L30.193 42.9745L32.679 48.1885Z" fill="#2F343B"/>
<path d="M44.9899 48.1885L47.4758 42.9745L53.4834 45.7141L44.9899 48.1885Z" fill="#2F343B"/>
<path d="M23.0313 64.3027L24.511 52.166L15.1 52.4311L23.0313 64.3027Z" fill="#497BF8"/>
<path d="M53.1581 52.166L54.6082 64.3027L62.5691 52.4311L53.1581 52.166Z" fill="#497BF8"/>
<path d="M60.2903 38.7916L43.4215 39.5575L44.99 48.1887L47.4759 42.9746L53.4836 45.7142L60.2903 38.7916Z" fill="#497BF8"/>
<path d="M24.2151 45.7142L30.1931 42.9746L32.6791 48.1887L34.2476 39.5575L17.3788 38.7916L24.2151 45.7142Z" fill="#497BF8"/>
<path d="M17.3788 38.7937L24.4518 52.5505L24.2151 45.7163L17.3788 38.7937Z" fill="#6D95F9"/>
<path d="M53.484 45.7142L53.2177 52.5485L60.2907 38.7916L53.484 45.7142Z" fill="#6D95F9"/>
<path d="M34.2475 39.5573L32.679 48.1884L34.6618 58.3809L35.1057 44.948L34.2475 39.5573Z" fill="#6D95F9"/>
<path d="M43.4217 39.5573L42.593 44.9186L43.0073 58.3809L44.9901 48.1884L43.4217 39.5573Z" fill="#6D95F9"/>
<path d="M44.9903 48.1895L43.0074 58.382L44.428 59.3835L53.2175 52.5493L53.4838 45.7151L44.9903 48.1895Z" fill="#B6CAFC"/>
<path d="M24.215 45.7151L24.4517 52.5493L33.2412 59.3835L34.6618 58.382L32.6789 48.1895L24.215 45.7151Z" fill="#B6CAFC"/>
<path d="M45.1678 68.7799L45.2566 65.9813L44.4872 65.3333H33.1821L32.4423 65.9813L32.5014 68.7799L23.0312 64.3022L26.3458 67.0124L33.0637 71.6373H44.5759L51.3234 67.0124L54.6084 64.3022L45.1678 68.7799Z" fill="#C0AD9E"/>
<path d="M44.428 59.3829L43.0074 58.3813H34.6618L33.2413 59.3829L32.4423 65.9815L33.1821 65.3334H44.4872L45.2566 65.9815L44.428 59.3829Z" fill="#2F343B"/>
<path d="M74.6142 24.4754L77.1297 12.2798L73.3417 0.938477L44.428 22.2955L55.5555 31.6631L71.2701 36.2291L74.7326 32.1933L73.2233 31.1034L75.6204 28.9235L73.7856 27.5095L76.1827 25.6831L74.6142 24.4754Z" fill="#2C56DD"/>
<path d="M0.539429 12.2817L3.08454 24.4773L1.45685 25.6851L3.88359 27.5115L2.04874 28.9255L4.44588 31.1053L2.93657 32.1953L6.39911 36.231L22.1137 31.665L33.2412 22.2974L4.32751 0.94043L0.539429 12.2817Z" fill="#2C56DD"/>
<path d="M71.2698 36.2293L55.5552 31.6633L60.2903 38.7921L53.2173 52.549L62.5691 52.4312H76.5376L71.2698 36.2293Z" fill="#B6CAFC"/>
<path d="M22.1137 31.6633L6.39909 36.2293L1.16089 52.4312H15.0998L24.4516 52.549L17.3786 38.7921L22.1137 31.6633Z" fill="#B6CAFC"/>
<path d="M43.4215 39.5574L44.4277 22.2951L48.9852 10.0111H28.6835L33.241 22.2951L34.2472 39.5574L34.6319 44.9777L34.6615 58.381H43.0071L43.0367 44.9777L43.4215 39.5574Z" fill="#B6CAFC"/>
</svg>
